%TF.GenerationSoftware,KiCad,Pcbnew,(6.0.11)*%
%TF.CreationDate,2024-04-02T11:50:44-04:00*%
%TF.ProjectId,DAISY256,44414953-5932-4353-962e-6b696361645f,rev?*%
%TF.SameCoordinates,Original*%
%TF.FileFunction,Drillmap*%
%TF.FilePolarity,Positive*%
%FSLAX45Y45*%
G04 Gerber Fmt 4.5, Leading zero omitted, Abs format (unit mm)*
G04 Created by KiCad (PCBNEW (6.0.11)) date 2024-04-02 11:50:44*
%MOMM*%
%LPD*%
G01*
G04 APERTURE LIST*
%ADD10C,0.150000*%
%ADD11C,0.200000*%
%ADD12C,0.030000*%
%ADD13C,0.040000*%
%ADD14C,0.080000*%
%ADD15C,0.090000*%
%ADD16C,0.100000*%
%ADD17C,0.110000*%
%ADD18C,0.119000*%
%ADD19C,0.320000*%
G04 APERTURE END LIST*
D10*
X4618000Y-15857000D02*
X7638000Y-15857000D01*
X17628000Y-15857000D02*
X20618000Y-15857000D01*
X4618000Y-5867000D02*
X7638000Y-5867000D01*
X17628000Y-5867000D02*
X7638000Y-5867000D01*
X20618000Y-5867000D02*
X20618000Y-15857000D01*
X17628000Y-5867000D02*
X20618000Y-5867000D01*
X7638000Y-15857000D02*
X17628000Y-15857000D01*
X4618000Y-5867000D02*
X4618000Y-15857000D01*
D11*
D12*
X15810000Y-7750000D02*
X15840000Y-7780000D01*
X15840000Y-7750000D02*
X15810000Y-7780000D01*
X15810000Y-7870000D02*
X15840000Y-7900000D01*
X15840000Y-7870000D02*
X15810000Y-7900000D01*
D13*
X6821310Y-9010420D02*
G75*
G03*
X6821310Y-9010420I-20000J0D01*
G01*
X6952600Y-13705260D02*
G75*
G03*
X6952600Y-13705260I-20000J0D01*
G01*
X7005740Y-8800660D02*
G75*
G03*
X7005740Y-8800660I-20000J0D01*
G01*
X7024640Y-12597950D02*
G75*
G03*
X7024640Y-12597950I-20000J0D01*
G01*
X7119710Y-14083220D02*
G75*
G03*
X7119710Y-14083220I-20000J0D01*
G01*
X7645360Y-12977310D02*
G75*
G03*
X7645360Y-12977310I-20000J0D01*
G01*
X7913690Y-11953560D02*
G75*
G03*
X7913690Y-11953560I-20000J0D01*
G01*
X7938720Y-14721070D02*
G75*
G03*
X7938720Y-14721070I-20000J0D01*
G01*
X8631480Y-15006880D02*
G75*
G03*
X8631480Y-15006880I-20000J0D01*
G01*
X8636530Y-11219520D02*
G75*
G03*
X8636530Y-11219520I-20000J0D01*
G01*
X8692360Y-14870050D02*
G75*
G03*
X8692360Y-14870050I-20000J0D01*
G01*
X9017660Y-12754730D02*
G75*
G03*
X9017660Y-12754730I-20000J0D01*
G01*
X9060270Y-8859800D02*
G75*
G03*
X9060270Y-8859800I-20000J0D01*
G01*
X9060520Y-9887790D02*
G75*
G03*
X9060520Y-9887790I-20000J0D01*
G01*
X9094610Y-12539870D02*
G75*
G03*
X9094610Y-12539870I-20000J0D01*
G01*
X9183600Y-8790720D02*
G75*
G03*
X9183600Y-8790720I-20000J0D01*
G01*
X9712960Y-14648070D02*
G75*
G03*
X9712960Y-14648070I-20000J0D01*
G01*
X9714840Y-13645620D02*
G75*
G03*
X9714840Y-13645620I-20000J0D01*
G01*
X9757060Y-12367580D02*
G75*
G03*
X9757060Y-12367580I-20000J0D01*
G01*
X10159930Y-15248700D02*
G75*
G03*
X10159930Y-15248700I-20000J0D01*
G01*
X10165410Y-13076110D02*
G75*
G03*
X10165410Y-13076110I-20000J0D01*
G01*
X10271640Y-12488740D02*
G75*
G03*
X10271640Y-12488740I-20000J0D01*
G01*
X10383200Y-12339550D02*
G75*
G03*
X10383200Y-12339550I-20000J0D01*
G01*
X10494750Y-9977500D02*
G75*
G03*
X10494750Y-9977500I-20000J0D01*
G01*
X10514310Y-10721120D02*
G75*
G03*
X10514310Y-10721120I-20000J0D01*
G01*
X10879630Y-13947070D02*
G75*
G03*
X10879630Y-13947070I-20000J0D01*
G01*
X10952440Y-12472710D02*
G75*
G03*
X10952440Y-12472710I-20000J0D01*
G01*
X11023190Y-12401980D02*
G75*
G03*
X11023190Y-12401980I-20000J0D01*
G01*
X11660810Y-11120500D02*
G75*
G03*
X11660810Y-11120500I-20000J0D01*
G01*
X12938820Y-12636960D02*
G75*
G03*
X12938820Y-12636960I-20000J0D01*
G01*
D14*
X4769000Y-8460000D02*
X4769000Y-8540000D01*
X4729000Y-8500000D02*
X4809000Y-8500000D01*
X4918000Y-9129000D02*
X4918000Y-9209000D01*
X4878000Y-9169000D02*
X4958000Y-9169000D01*
X4918000Y-9891000D02*
X4918000Y-9971000D01*
X4878000Y-9931000D02*
X4958000Y-9931000D01*
X4918000Y-10129000D02*
X4918000Y-10209000D01*
X4878000Y-10169000D02*
X4958000Y-10169000D01*
X4918000Y-10891000D02*
X4918000Y-10971000D01*
X4878000Y-10931000D02*
X4958000Y-10931000D01*
X4918000Y-11129000D02*
X4918000Y-11209000D01*
X4878000Y-11169000D02*
X4958000Y-11169000D01*
X4918000Y-11891000D02*
X4918000Y-11971000D01*
X4878000Y-11931000D02*
X4958000Y-11931000D01*
X4968000Y-12335000D02*
X4968000Y-12415000D01*
X4928000Y-12375000D02*
X5008000Y-12375000D01*
X4968000Y-13857000D02*
X4968000Y-13937000D01*
X4928000Y-13897000D02*
X5008000Y-13897000D01*
X5300000Y-12857000D02*
X5300000Y-12937000D01*
X5260000Y-12897000D02*
X5340000Y-12897000D01*
X5300000Y-13345000D02*
X5300000Y-13425000D01*
X5260000Y-13385000D02*
X5340000Y-13385000D01*
X5368000Y-9129000D02*
X5368000Y-9209000D01*
X5328000Y-9169000D02*
X5408000Y-9169000D01*
X5368000Y-9891000D02*
X5368000Y-9971000D01*
X5328000Y-9931000D02*
X5408000Y-9931000D01*
X5368000Y-10129000D02*
X5368000Y-10209000D01*
X5328000Y-10169000D02*
X5408000Y-10169000D01*
X5368000Y-10891000D02*
X5368000Y-10971000D01*
X5328000Y-10931000D02*
X5408000Y-10931000D01*
X5368000Y-11129000D02*
X5368000Y-11209000D01*
X5328000Y-11169000D02*
X5408000Y-11169000D01*
X5368000Y-11891000D02*
X5368000Y-11971000D01*
X5328000Y-11931000D02*
X5408000Y-11931000D01*
X5468000Y-12335000D02*
X5468000Y-12415000D01*
X5428000Y-12375000D02*
X5508000Y-12375000D01*
X5468000Y-13857000D02*
X5468000Y-13937000D01*
X5428000Y-13897000D02*
X5508000Y-13897000D01*
X5531000Y-8460000D02*
X5531000Y-8540000D01*
X5491000Y-8500000D02*
X5571000Y-8500000D01*
X5736100Y-8915000D02*
X5736100Y-8995000D01*
X5696100Y-8955000D02*
X5776100Y-8955000D01*
X5736100Y-9169000D02*
X5736100Y-9249000D01*
X5696100Y-9209000D02*
X5776100Y-9209000D01*
X5736100Y-9423000D02*
X5736100Y-9503000D01*
X5696100Y-9463000D02*
X5776100Y-9463000D01*
X5736100Y-9677000D02*
X5736100Y-9757000D01*
X5696100Y-9717000D02*
X5776100Y-9717000D01*
X5736100Y-9931000D02*
X5736100Y-10011000D01*
X5696100Y-9971000D02*
X5776100Y-9971000D01*
X5736100Y-10185000D02*
X5736100Y-10265000D01*
X5696100Y-10225000D02*
X5776100Y-10225000D01*
X5736100Y-10439000D02*
X5736100Y-10519000D01*
X5696100Y-10479000D02*
X5776100Y-10479000D01*
X5736100Y-10693000D02*
X5736100Y-10773000D01*
X5696100Y-10733000D02*
X5776100Y-10733000D01*
X5736100Y-10947000D02*
X5736100Y-11027000D01*
X5696100Y-10987000D02*
X5776100Y-10987000D01*
X5736100Y-11201000D02*
X5736100Y-11281000D01*
X5696100Y-11241000D02*
X5776100Y-11241000D01*
X5736100Y-11455000D02*
X5736100Y-11535000D01*
X5696100Y-11495000D02*
X5776100Y-11495000D01*
X5736100Y-11709000D02*
X5736100Y-11789000D01*
X5696100Y-11749000D02*
X5776100Y-11749000D01*
X5736100Y-11963000D02*
X5736100Y-12043000D01*
X5696100Y-12003000D02*
X5776100Y-12003000D01*
X5736100Y-12217000D02*
X5736100Y-12297000D01*
X5696100Y-12257000D02*
X5776100Y-12257000D01*
X5736100Y-12471000D02*
X5736100Y-12551000D01*
X5696100Y-12511000D02*
X5776100Y-12511000D01*
X5736100Y-12725000D02*
X5736100Y-12805000D01*
X5696100Y-12765000D02*
X5776100Y-12765000D01*
X5736100Y-12979000D02*
X5736100Y-13059000D01*
X5696100Y-13019000D02*
X5776100Y-13019000D01*
X5736100Y-13233000D02*
X5736100Y-13313000D01*
X5696100Y-13273000D02*
X5776100Y-13273000D01*
X5736100Y-13487000D02*
X5736100Y-13567000D01*
X5696100Y-13527000D02*
X5776100Y-13527000D01*
X5736100Y-13741000D02*
X5736100Y-13821000D01*
X5696100Y-13781000D02*
X5776100Y-13781000D01*
X5812500Y-14403000D02*
X5812500Y-14483000D01*
X5772500Y-14443000D02*
X5852500Y-14443000D01*
X5812500Y-15165000D02*
X5812500Y-15245000D01*
X5772500Y-15205000D02*
X5852500Y-15205000D01*
X6066500Y-14403000D02*
X6066500Y-14483000D01*
X6026500Y-14443000D02*
X6106500Y-14443000D01*
X6066500Y-15165000D02*
X6066500Y-15245000D01*
X6026500Y-15205000D02*
X6106500Y-15205000D01*
X6320500Y-14403000D02*
X6320500Y-14483000D01*
X6280500Y-14443000D02*
X6360500Y-14443000D01*
X6320500Y-15165000D02*
X6320500Y-15245000D01*
X6280500Y-15205000D02*
X6360500Y-15205000D01*
X6362000Y-6332000D02*
X6362000Y-6412000D01*
X6322000Y-6372000D02*
X6402000Y-6372000D01*
X6574500Y-14403000D02*
X6574500Y-14483000D01*
X6534500Y-14443000D02*
X6614500Y-14443000D01*
X6574500Y-15165000D02*
X6574500Y-15245000D01*
X6534500Y-15205000D02*
X6614500Y-15205000D01*
X6620050Y-8132000D02*
X6620050Y-8212000D01*
X6580050Y-8172000D02*
X6660050Y-8172000D01*
X6828500Y-14403000D02*
X6828500Y-14483000D01*
X6788500Y-14443000D02*
X6868500Y-14443000D01*
X6828500Y-15165000D02*
X6828500Y-15245000D01*
X6788500Y-15205000D02*
X6868500Y-15205000D01*
X6870050Y-8132000D02*
X6870050Y-8212000D01*
X6830050Y-8172000D02*
X6910050Y-8172000D01*
X7082500Y-14403000D02*
X7082500Y-14483000D01*
X7042500Y-14443000D02*
X7122500Y-14443000D01*
X7082500Y-15165000D02*
X7082500Y-15245000D01*
X7042500Y-15205000D02*
X7122500Y-15205000D01*
X7124000Y-6332000D02*
X7124000Y-6412000D01*
X7084000Y-6372000D02*
X7164000Y-6372000D01*
X7260100Y-8915000D02*
X7260100Y-8995000D01*
X7220100Y-8955000D02*
X7300100Y-8955000D01*
X7260100Y-9169000D02*
X7260100Y-9249000D01*
X7220100Y-9209000D02*
X7300100Y-9209000D01*
X7260100Y-9423000D02*
X7260100Y-9503000D01*
X7220100Y-9463000D02*
X7300100Y-9463000D01*
X7260100Y-9677000D02*
X7260100Y-9757000D01*
X7220100Y-9717000D02*
X7300100Y-9717000D01*
X7260100Y-9931000D02*
X7260100Y-10011000D01*
X7220100Y-9971000D02*
X7300100Y-9971000D01*
X7260100Y-10185000D02*
X7260100Y-10265000D01*
X7220100Y-10225000D02*
X7300100Y-10225000D01*
X7260100Y-10439000D02*
X7260100Y-10519000D01*
X7220100Y-10479000D02*
X7300100Y-10479000D01*
X7260100Y-10693000D02*
X7260100Y-10773000D01*
X7220100Y-10733000D02*
X7300100Y-10733000D01*
X7260100Y-10947000D02*
X7260100Y-11027000D01*
X7220100Y-10987000D02*
X7300100Y-10987000D01*
X7260100Y-11201000D02*
X7260100Y-11281000D01*
X7220100Y-11241000D02*
X7300100Y-11241000D01*
X7260100Y-11455000D02*
X7260100Y-11535000D01*
X7220100Y-11495000D02*
X7300100Y-11495000D01*
X7260100Y-11709000D02*
X7260100Y-11789000D01*
X7220100Y-11749000D02*
X7300100Y-11749000D01*
X7260100Y-11963000D02*
X7260100Y-12043000D01*
X7220100Y-12003000D02*
X7300100Y-12003000D01*
X7260100Y-12217000D02*
X7260100Y-12297000D01*
X7220100Y-12257000D02*
X7300100Y-12257000D01*
X7260100Y-12471000D02*
X7260100Y-12551000D01*
X7220100Y-12511000D02*
X7300100Y-12511000D01*
X7260100Y-12725000D02*
X7260100Y-12805000D01*
X7220100Y-12765000D02*
X7300100Y-12765000D01*
X7260100Y-12979000D02*
X7260100Y-13059000D01*
X7220100Y-13019000D02*
X7300100Y-13019000D01*
X7260100Y-13233000D02*
X7260100Y-13313000D01*
X7220100Y-13273000D02*
X7300100Y-13273000D01*
X7260100Y-13487000D02*
X7260100Y-13567000D01*
X7220100Y-13527000D02*
X7300100Y-13527000D01*
X7260100Y-13741000D02*
X7260100Y-13821000D01*
X7220100Y-13781000D02*
X7300100Y-13781000D01*
X7336500Y-14403000D02*
X7336500Y-14483000D01*
X7296500Y-14443000D02*
X7376500Y-14443000D01*
X7336500Y-15165000D02*
X7336500Y-15245000D01*
X7296500Y-15205000D02*
X7376500Y-15205000D01*
X7418000Y-7759300D02*
X7418000Y-7839300D01*
X7378000Y-7799300D02*
X7458000Y-7799300D01*
X7418000Y-8521300D02*
X7418000Y-8601300D01*
X7378000Y-8561300D02*
X7458000Y-8561300D01*
X7568000Y-9876000D02*
X7568000Y-9956000D01*
X7528000Y-9916000D02*
X7608000Y-9916000D01*
X7568000Y-10638000D02*
X7568000Y-10718000D01*
X7528000Y-10678000D02*
X7608000Y-10678000D01*
X7568000Y-11745000D02*
X7568000Y-11825000D01*
X7528000Y-11785000D02*
X7608000Y-11785000D01*
X7568000Y-12507000D02*
X7568000Y-12587000D01*
X7528000Y-12547000D02*
X7608000Y-12547000D01*
X7568000Y-12757000D02*
X7568000Y-12837000D01*
X7528000Y-12797000D02*
X7608000Y-12797000D01*
X7568000Y-13257000D02*
X7568000Y-13337000D01*
X7528000Y-13297000D02*
X7608000Y-13297000D01*
X8088000Y-10302000D02*
X8088000Y-10382000D01*
X8048000Y-10342000D02*
X8128000Y-10342000D01*
X8088000Y-10556000D02*
X8088000Y-10636000D01*
X8048000Y-10596000D02*
X8128000Y-10596000D01*
X8088000Y-10810000D02*
X8088000Y-10890000D01*
X8048000Y-10850000D02*
X8128000Y-10850000D01*
X8088000Y-11064000D02*
X8088000Y-11144000D01*
X8048000Y-11104000D02*
X8128000Y-11104000D01*
X8088000Y-11318000D02*
X8088000Y-11398000D01*
X8048000Y-11358000D02*
X8128000Y-11358000D01*
X8088000Y-11572000D02*
X8088000Y-11652000D01*
X8048000Y-11612000D02*
X8128000Y-11612000D01*
X8088000Y-11826000D02*
X8088000Y-11906000D01*
X8048000Y-11866000D02*
X8128000Y-11866000D01*
X8088000Y-12080000D02*
X8088000Y-12160000D01*
X8048000Y-12120000D02*
X8128000Y-12120000D01*
X8088000Y-12334000D02*
X8088000Y-12414000D01*
X8048000Y-12374000D02*
X8128000Y-12374000D01*
X8088000Y-12588000D02*
X8088000Y-12668000D01*
X8048000Y-12628000D02*
X8128000Y-12628000D01*
X8090500Y-13535000D02*
X8090500Y-13615000D01*
X8050500Y-13575000D02*
X8130500Y-13575000D01*
X8090500Y-13789000D02*
X8090500Y-13869000D01*
X8050500Y-13829000D02*
X8130500Y-13829000D01*
X8090500Y-14043000D02*
X8090500Y-14123000D01*
X8050500Y-14083000D02*
X8130500Y-14083000D01*
X8090500Y-14297000D02*
X8090500Y-14377000D01*
X8050500Y-14337000D02*
X8130500Y-14337000D01*
X8090500Y-14551000D02*
X8090500Y-14631000D01*
X8050500Y-14591000D02*
X8130500Y-14591000D01*
X8090500Y-14805000D02*
X8090500Y-14885000D01*
X8050500Y-14845000D02*
X8130500Y-14845000D01*
X8090500Y-15059000D02*
X8090500Y-15139000D01*
X8050500Y-15099000D02*
X8130500Y-15099000D01*
X8350000Y-9985000D02*
X8350000Y-10065000D01*
X8310000Y-10025000D02*
X8390000Y-10025000D01*
X8400000Y-13218000D02*
X8400000Y-13298000D01*
X8360000Y-13258000D02*
X8440000Y-13258000D01*
X8850000Y-9985000D02*
X8850000Y-10065000D01*
X8810000Y-10025000D02*
X8890000Y-10025000D01*
X8850000Y-10302000D02*
X8850000Y-10382000D01*
X8810000Y-10342000D02*
X8890000Y-10342000D01*
X8850000Y-10556000D02*
X8850000Y-10636000D01*
X8810000Y-10596000D02*
X8890000Y-10596000D01*
X8850000Y-10810000D02*
X8850000Y-10890000D01*
X8810000Y-10850000D02*
X8890000Y-10850000D01*
X8850000Y-11064000D02*
X8850000Y-11144000D01*
X8810000Y-11104000D02*
X8890000Y-11104000D01*
X8850000Y-11318000D02*
X8850000Y-11398000D01*
X8810000Y-11358000D02*
X8890000Y-11358000D01*
X8850000Y-11572000D02*
X8850000Y-11652000D01*
X8810000Y-11612000D02*
X8890000Y-11612000D01*
X8850000Y-11826000D02*
X8850000Y-11906000D01*
X8810000Y-11866000D02*
X8890000Y-11866000D01*
X8850000Y-12080000D02*
X8850000Y-12160000D01*
X8810000Y-12120000D02*
X8890000Y-12120000D01*
X8850000Y-12334000D02*
X8850000Y-12414000D01*
X8810000Y-12374000D02*
X8890000Y-12374000D01*
X8850000Y-12588000D02*
X8850000Y-12668000D01*
X8810000Y-12628000D02*
X8890000Y-12628000D01*
X8852500Y-13535000D02*
X8852500Y-13615000D01*
X8812500Y-13575000D02*
X8892500Y-13575000D01*
X8852500Y-13789000D02*
X8852500Y-13869000D01*
X8812500Y-13829000D02*
X8892500Y-13829000D01*
X8852500Y-14043000D02*
X8852500Y-14123000D01*
X8812500Y-14083000D02*
X8892500Y-14083000D01*
X8852500Y-14297000D02*
X8852500Y-14377000D01*
X8812500Y-14337000D02*
X8892500Y-14337000D01*
X8852500Y-14551000D02*
X8852500Y-14631000D01*
X8812500Y-14591000D02*
X8892500Y-14591000D01*
X8852500Y-14805000D02*
X8852500Y-14885000D01*
X8812500Y-14845000D02*
X8892500Y-14845000D01*
X8852500Y-15059000D02*
X8852500Y-15139000D01*
X8812500Y-15099000D02*
X8892500Y-15099000D01*
X8900000Y-13218000D02*
X8900000Y-13298000D01*
X8860000Y-13258000D02*
X8940000Y-13258000D01*
X8918000Y-6124500D02*
X8918000Y-6204500D01*
X8878000Y-6164500D02*
X8958000Y-6164500D01*
X8918000Y-6624500D02*
X8918000Y-6704500D01*
X8878000Y-6664500D02*
X8958000Y-6664500D01*
X8918000Y-6868500D02*
X8918000Y-6948500D01*
X8878000Y-6908500D02*
X8958000Y-6908500D01*
X8918000Y-7630500D02*
X8918000Y-7710500D01*
X8878000Y-7670500D02*
X8958000Y-7670500D01*
X8918000Y-7868500D02*
X8918000Y-7948500D01*
X8878000Y-7908500D02*
X8958000Y-7908500D01*
X8918000Y-8630500D02*
X8918000Y-8710500D01*
X8878000Y-8670500D02*
X8958000Y-8670500D01*
X9206000Y-15635000D02*
X9206000Y-15715000D01*
X9166000Y-15675000D02*
X9246000Y-15675000D01*
X9235500Y-10295000D02*
X9235500Y-10375000D01*
X9195500Y-10335000D02*
X9275500Y-10335000D01*
X9235500Y-10549000D02*
X9235500Y-10629000D01*
X9195500Y-10589000D02*
X9275500Y-10589000D01*
X9235500Y-10803000D02*
X9235500Y-10883000D01*
X9195500Y-10843000D02*
X9275500Y-10843000D01*
X9235500Y-11057000D02*
X9235500Y-11137000D01*
X9195500Y-11097000D02*
X9275500Y-11097000D01*
X9235500Y-11311000D02*
X9235500Y-11391000D01*
X9195500Y-11351000D02*
X9275500Y-11351000D01*
X9235500Y-11565000D02*
X9235500Y-11645000D01*
X9195500Y-11605000D02*
X9275500Y-11605000D01*
X9235500Y-11819000D02*
X9235500Y-11899000D01*
X9195500Y-11859000D02*
X9275500Y-11859000D01*
X9235500Y-12073000D02*
X9235500Y-12153000D01*
X9195500Y-12113000D02*
X9275500Y-12113000D01*
X9235500Y-13290100D02*
X9235500Y-13370100D01*
X9195500Y-13330100D02*
X9275500Y-13330100D01*
X9235500Y-13544100D02*
X9235500Y-13624100D01*
X9195500Y-13584100D02*
X9275500Y-13584100D01*
X9235500Y-13798100D02*
X9235500Y-13878100D01*
X9195500Y-13838100D02*
X9275500Y-13838100D01*
X9235500Y-14052100D02*
X9235500Y-14132100D01*
X9195500Y-14092100D02*
X9275500Y-14092100D01*
X9235500Y-14306100D02*
X9235500Y-14386100D01*
X9195500Y-14346100D02*
X9275500Y-14346100D01*
X9235500Y-14560100D02*
X9235500Y-14640100D01*
X9195500Y-14600100D02*
X9275500Y-14600100D01*
X9235500Y-14814100D02*
X9235500Y-14894100D01*
X9195500Y-14854100D02*
X9275500Y-14854100D01*
X9235500Y-15068100D02*
X9235500Y-15148100D01*
X9195500Y-15108100D02*
X9275500Y-15108100D01*
X9238000Y-6182000D02*
X9238000Y-6262000D01*
X9198000Y-6222000D02*
X9278000Y-6222000D01*
X9238000Y-6436000D02*
X9238000Y-6516000D01*
X9198000Y-6476000D02*
X9278000Y-6476000D01*
X9238000Y-6690000D02*
X9238000Y-6770000D01*
X9198000Y-6730000D02*
X9278000Y-6730000D01*
X9238000Y-6944000D02*
X9238000Y-7024000D01*
X9198000Y-6984000D02*
X9278000Y-6984000D01*
X9238000Y-7198000D02*
X9238000Y-7278000D01*
X9198000Y-7238000D02*
X9278000Y-7238000D01*
X9238000Y-7452000D02*
X9238000Y-7532000D01*
X9198000Y-7492000D02*
X9278000Y-7492000D01*
X9238000Y-7706000D02*
X9238000Y-7786000D01*
X9198000Y-7746000D02*
X9278000Y-7746000D01*
X9238000Y-7960000D02*
X9238000Y-8040000D01*
X9198000Y-8000000D02*
X9278000Y-8000000D01*
X9238000Y-8214000D02*
X9238000Y-8294000D01*
X9198000Y-8254000D02*
X9278000Y-8254000D01*
X9238000Y-8468000D02*
X9238000Y-8548000D01*
X9198000Y-8508000D02*
X9278000Y-8508000D01*
X9525000Y-9968000D02*
X9525000Y-10048000D01*
X9485000Y-10008000D02*
X9565000Y-10008000D01*
X9543000Y-12935000D02*
X9543000Y-13015000D01*
X9503000Y-12975000D02*
X9583000Y-12975000D01*
X9968000Y-15635000D02*
X9968000Y-15715000D01*
X9928000Y-15675000D02*
X10008000Y-15675000D01*
X9997500Y-10295000D02*
X9997500Y-10375000D01*
X9957500Y-10335000D02*
X10037500Y-10335000D01*
X9997500Y-10549000D02*
X9997500Y-10629000D01*
X9957500Y-10589000D02*
X10037500Y-10589000D01*
X9997500Y-10803000D02*
X9997500Y-10883000D01*
X9957500Y-10843000D02*
X10037500Y-10843000D01*
X9997500Y-11057000D02*
X9997500Y-11137000D01*
X9957500Y-11097000D02*
X10037500Y-11097000D01*
X9997500Y-11311000D02*
X9997500Y-11391000D01*
X9957500Y-11351000D02*
X10037500Y-11351000D01*
X9997500Y-11565000D02*
X9997500Y-11645000D01*
X9957500Y-11605000D02*
X10037500Y-11605000D01*
X9997500Y-11819000D02*
X9997500Y-11899000D01*
X9957500Y-11859000D02*
X10037500Y-11859000D01*
X9997500Y-12073000D02*
X9997500Y-12153000D01*
X9957500Y-12113000D02*
X10037500Y-12113000D01*
X9997500Y-13290100D02*
X9997500Y-13370100D01*
X9957500Y-13330100D02*
X10037500Y-13330100D01*
X9997500Y-13544100D02*
X9997500Y-13624100D01*
X9957500Y-13584100D02*
X10037500Y-13584100D01*
X9997500Y-13798100D02*
X9997500Y-13878100D01*
X9957500Y-13838100D02*
X10037500Y-13838100D01*
X9997500Y-14052100D02*
X9997500Y-14132100D01*
X9957500Y-14092100D02*
X10037500Y-14092100D01*
X9997500Y-14306100D02*
X9997500Y-14386100D01*
X9957500Y-14346100D02*
X10037500Y-14346100D01*
X9997500Y-14560100D02*
X9997500Y-14640100D01*
X9957500Y-14600100D02*
X10037500Y-14600100D01*
X9997500Y-14814100D02*
X9997500Y-14894100D01*
X9957500Y-14854100D02*
X10037500Y-14854100D01*
X9997500Y-15068100D02*
X9997500Y-15148100D01*
X9957500Y-15108100D02*
X10037500Y-15108100D01*
X10000000Y-6182000D02*
X10000000Y-6262000D01*
X9960000Y-6222000D02*
X10040000Y-6222000D01*
X10000000Y-6436000D02*
X10000000Y-6516000D01*
X9960000Y-6476000D02*
X10040000Y-6476000D01*
X10000000Y-6690000D02*
X10000000Y-6770000D01*
X9960000Y-6730000D02*
X10040000Y-6730000D01*
X10000000Y-6944000D02*
X10000000Y-7024000D01*
X9960000Y-6984000D02*
X10040000Y-6984000D01*
X10000000Y-7198000D02*
X10000000Y-7278000D01*
X9960000Y-7238000D02*
X10040000Y-7238000D01*
X10000000Y-7452000D02*
X10000000Y-7532000D01*
X9960000Y-7492000D02*
X10040000Y-7492000D01*
X10000000Y-7706000D02*
X10000000Y-7786000D01*
X9960000Y-7746000D02*
X10040000Y-7746000D01*
X10000000Y-7960000D02*
X10000000Y-8040000D01*
X9960000Y-8000000D02*
X10040000Y-8000000D01*
X10000000Y-8214000D02*
X10000000Y-8294000D01*
X9960000Y-8254000D02*
X10040000Y-8254000D01*
X10000000Y-8468000D02*
X10000000Y-8548000D01*
X9960000Y-8508000D02*
X10040000Y-8508000D01*
X10025000Y-9968000D02*
X10025000Y-10048000D01*
X9985000Y-10008000D02*
X10065000Y-10008000D01*
X10043000Y-12935000D02*
X10043000Y-13015000D01*
X10003000Y-12975000D02*
X10083000Y-12975000D01*
X10363200Y-8540500D02*
X10363200Y-8620500D01*
X10323200Y-8580500D02*
X10403200Y-8580500D01*
X10363200Y-8794500D02*
X10363200Y-8874500D01*
X10323200Y-8834500D02*
X10403200Y-8834500D01*
X10363200Y-9048500D02*
X10363200Y-9128500D01*
X10323200Y-9088500D02*
X10403200Y-9088500D01*
X10363200Y-9302500D02*
X10363200Y-9382500D01*
X10323200Y-9342500D02*
X10403200Y-9342500D01*
X10363200Y-9556500D02*
X10363200Y-9636500D01*
X10323200Y-9596500D02*
X10403200Y-9596500D01*
X10363200Y-9810500D02*
X10363200Y-9890500D01*
X10323200Y-9850500D02*
X10403200Y-9850500D01*
X10363200Y-10064500D02*
X10363200Y-10144500D01*
X10323200Y-10104500D02*
X10403200Y-10104500D01*
X10363200Y-10318500D02*
X10363200Y-10398500D01*
X10323200Y-10358500D02*
X10403200Y-10358500D01*
X10363200Y-10572500D02*
X10363200Y-10652500D01*
X10323200Y-10612500D02*
X10403200Y-10612500D01*
X10363200Y-10826500D02*
X10363200Y-10906500D01*
X10323200Y-10866500D02*
X10403200Y-10866500D01*
X10363200Y-11080500D02*
X10363200Y-11160500D01*
X10323200Y-11120500D02*
X10403200Y-11120500D01*
X10363200Y-11334500D02*
X10363200Y-11414500D01*
X10323200Y-11374500D02*
X10403200Y-11374500D01*
X10363200Y-11588500D02*
X10363200Y-11668500D01*
X10323200Y-11628500D02*
X10403200Y-11628500D01*
X10363200Y-11842500D02*
X10363200Y-11922500D01*
X10323200Y-11882500D02*
X10403200Y-11882500D01*
X10368000Y-12709500D02*
X10368000Y-12789500D01*
X10328000Y-12749500D02*
X10408000Y-12749500D01*
X10368000Y-12963500D02*
X10368000Y-13043500D01*
X10328000Y-13003500D02*
X10408000Y-13003500D01*
X10368000Y-13217500D02*
X10368000Y-13297500D01*
X10328000Y-13257500D02*
X10408000Y-13257500D01*
X10368000Y-13471500D02*
X10368000Y-13551500D01*
X10328000Y-13511500D02*
X10408000Y-13511500D01*
X10368000Y-13725500D02*
X10368000Y-13805500D01*
X10328000Y-13765500D02*
X10408000Y-13765500D01*
X10368000Y-13979500D02*
X10368000Y-14059500D01*
X10328000Y-14019500D02*
X10408000Y-14019500D01*
X10368000Y-14233500D02*
X10368000Y-14313500D01*
X10328000Y-14273500D02*
X10408000Y-14273500D01*
X10368000Y-14487500D02*
X10368000Y-14567500D01*
X10328000Y-14527500D02*
X10408000Y-14527500D01*
X10368000Y-14741500D02*
X10368000Y-14821500D01*
X10328000Y-14781500D02*
X10408000Y-14781500D01*
X10368000Y-14995500D02*
X10368000Y-15075500D01*
X10328000Y-15035500D02*
X10408000Y-15035500D01*
X10368000Y-15249500D02*
X10368000Y-15329500D01*
X10328000Y-15289500D02*
X10408000Y-15289500D01*
X10368000Y-15503500D02*
X10368000Y-15583500D01*
X10328000Y-15543500D02*
X10408000Y-15543500D01*
X10745000Y-7080000D02*
X10745000Y-7160000D01*
X10705000Y-7120000D02*
X10785000Y-7120000D01*
X10745000Y-7334000D02*
X10745000Y-7414000D01*
X10705000Y-7374000D02*
X10785000Y-7374000D01*
X10745000Y-7588000D02*
X10745000Y-7668000D01*
X10705000Y-7628000D02*
X10785000Y-7628000D01*
X10745000Y-7842000D02*
X10745000Y-7922000D01*
X10705000Y-7882000D02*
X10785000Y-7882000D01*
X10975000Y-6707000D02*
X10975000Y-6787000D01*
X10935000Y-6747000D02*
X11015000Y-6747000D01*
X11418000Y-12385000D02*
X11418000Y-12465000D01*
X11378000Y-12425000D02*
X11458000Y-12425000D01*
X11475000Y-6707000D02*
X11475000Y-6787000D01*
X11435000Y-6747000D02*
X11515000Y-6747000D01*
X11507000Y-7080000D02*
X11507000Y-7160000D01*
X11467000Y-7120000D02*
X11547000Y-7120000D01*
X11507000Y-7334000D02*
X11507000Y-7414000D01*
X11467000Y-7374000D02*
X11547000Y-7374000D01*
X11507000Y-7588000D02*
X11507000Y-7668000D01*
X11467000Y-7628000D02*
X11547000Y-7628000D01*
X11507000Y-7842000D02*
X11507000Y-7922000D01*
X11467000Y-7882000D02*
X11547000Y-7882000D01*
X11887200Y-8540500D02*
X11887200Y-8620500D01*
X11847200Y-8580500D02*
X11927200Y-8580500D01*
X11887200Y-8794500D02*
X11887200Y-8874500D01*
X11847200Y-8834500D02*
X11927200Y-8834500D01*
X11887200Y-9048500D02*
X11887200Y-9128500D01*
X11847200Y-9088500D02*
X11927200Y-9088500D01*
X11887200Y-9302500D02*
X11887200Y-9382500D01*
X11847200Y-9342500D02*
X11927200Y-9342500D01*
X11887200Y-9556500D02*
X11887200Y-9636500D01*
X11847200Y-9596500D02*
X11927200Y-9596500D01*
X11887200Y-9810500D02*
X11887200Y-9890500D01*
X11847200Y-9850500D02*
X11927200Y-9850500D01*
X11887200Y-10064500D02*
X11887200Y-10144500D01*
X11847200Y-10104500D02*
X11927200Y-10104500D01*
X11887200Y-10318500D02*
X11887200Y-10398500D01*
X11847200Y-10358500D02*
X11927200Y-10358500D01*
X11887200Y-10572500D02*
X11887200Y-10652500D01*
X11847200Y-10612500D02*
X11927200Y-10612500D01*
X11887200Y-10826500D02*
X11887200Y-10906500D01*
X11847200Y-10866500D02*
X11927200Y-10866500D01*
X11887200Y-11080500D02*
X11887200Y-11160500D01*
X11847200Y-11120500D02*
X11927200Y-11120500D01*
X11887200Y-11334500D02*
X11887200Y-11414500D01*
X11847200Y-11374500D02*
X11927200Y-11374500D01*
X11887200Y-11588500D02*
X11887200Y-11668500D01*
X11847200Y-11628500D02*
X11927200Y-11628500D01*
X11887200Y-11842500D02*
X11887200Y-11922500D01*
X11847200Y-11882500D02*
X11927200Y-11882500D01*
X11892000Y-12709500D02*
X11892000Y-12789500D01*
X11852000Y-12749500D02*
X11932000Y-12749500D01*
X11892000Y-12963500D02*
X11892000Y-13043500D01*
X11852000Y-13003500D02*
X11932000Y-13003500D01*
X11892000Y-13217500D02*
X11892000Y-13297500D01*
X11852000Y-13257500D02*
X11932000Y-13257500D01*
X11892000Y-13471500D02*
X11892000Y-13551500D01*
X11852000Y-13511500D02*
X11932000Y-13511500D01*
X11892000Y-13725500D02*
X11892000Y-13805500D01*
X11852000Y-13765500D02*
X11932000Y-13765500D01*
X11892000Y-13979500D02*
X11892000Y-14059500D01*
X11852000Y-14019500D02*
X11932000Y-14019500D01*
X11892000Y-14233500D02*
X11892000Y-14313500D01*
X11852000Y-14273500D02*
X11932000Y-14273500D01*
X11892000Y-14487500D02*
X11892000Y-14567500D01*
X11852000Y-14527500D02*
X11932000Y-14527500D01*
X11892000Y-14741500D02*
X11892000Y-14821500D01*
X11852000Y-14781500D02*
X11932000Y-14781500D01*
X11892000Y-14995500D02*
X11892000Y-15075500D01*
X11852000Y-15035500D02*
X11932000Y-15035500D01*
X11892000Y-15249500D02*
X11892000Y-15329500D01*
X11852000Y-15289500D02*
X11932000Y-15289500D01*
X11892000Y-15503500D02*
X11892000Y-15583500D01*
X11852000Y-15543500D02*
X11932000Y-15543500D01*
X11918000Y-12385000D02*
X11918000Y-12465000D01*
X11878000Y-12425000D02*
X11958000Y-12425000D01*
X12170500Y-7885000D02*
X12170500Y-7965000D01*
X12130500Y-7925000D02*
X12210500Y-7925000D01*
X12170500Y-9414500D02*
X12170500Y-9494500D01*
X12130500Y-9454500D02*
X12210500Y-9454500D01*
X12218000Y-10832000D02*
X12218000Y-10912000D01*
X12178000Y-10872000D02*
X12258000Y-10872000D01*
X12218000Y-11332000D02*
X12218000Y-11412000D01*
X12178000Y-11372000D02*
X12258000Y-11372000D01*
X12220500Y-9807000D02*
X12220500Y-9887000D01*
X12180500Y-9847000D02*
X12260500Y-9847000D01*
X12220500Y-10307000D02*
X12220500Y-10387000D01*
X12180500Y-10347000D02*
X12260500Y-10347000D01*
X12280600Y-12709500D02*
X12280600Y-12789500D01*
X12240600Y-12749500D02*
X12320600Y-12749500D01*
X12280600Y-12963500D02*
X12280600Y-13043500D01*
X12240600Y-13003500D02*
X12320600Y-13003500D01*
X12280600Y-13217500D02*
X12280600Y-13297500D01*
X12240600Y-13257500D02*
X12320600Y-13257500D01*
X12280600Y-13471500D02*
X12280600Y-13551500D01*
X12240600Y-13511500D02*
X12320600Y-13511500D01*
X12280600Y-13725500D02*
X12280600Y-13805500D01*
X12240600Y-13765500D02*
X12320600Y-13765500D01*
X12280600Y-13979500D02*
X12280600Y-14059500D01*
X12240600Y-14019500D02*
X12320600Y-14019500D01*
X12280600Y-14233500D02*
X12280600Y-14313500D01*
X12240600Y-14273500D02*
X12320600Y-14273500D01*
X12280600Y-14487500D02*
X12280600Y-14567500D01*
X12240600Y-14527500D02*
X12320600Y-14527500D01*
X12280600Y-14741500D02*
X12280600Y-14821500D01*
X12240600Y-14781500D02*
X12320600Y-14781500D01*
X12280600Y-14995500D02*
X12280600Y-15075500D01*
X12240600Y-15035500D02*
X12320600Y-15035500D01*
X12280600Y-15249500D02*
X12280600Y-15329500D01*
X12240600Y-15289500D02*
X12320600Y-15289500D01*
X12280600Y-15503500D02*
X12280600Y-15583500D01*
X12240600Y-15543500D02*
X12320600Y-15543500D01*
X12344400Y-8408100D02*
X12344400Y-8488100D01*
X12304400Y-8448100D02*
X12384400Y-8448100D01*
X12344400Y-8896100D02*
X12344400Y-8976100D01*
X12304400Y-8936100D02*
X12384400Y-8936100D01*
X12670000Y-9995000D02*
X12670000Y-10075000D01*
X12630000Y-10035000D02*
X12710000Y-10035000D01*
X12670000Y-10249000D02*
X12670000Y-10329000D01*
X12630000Y-10289000D02*
X12710000Y-10289000D01*
X12670000Y-10503000D02*
X12670000Y-10583000D01*
X12630000Y-10543000D02*
X12710000Y-10543000D01*
X12670000Y-10757000D02*
X12670000Y-10837000D01*
X12630000Y-10797000D02*
X12710000Y-10797000D01*
X12670000Y-11011000D02*
X12670000Y-11091000D01*
X12630000Y-11051000D02*
X12710000Y-11051000D01*
X12670000Y-11265000D02*
X12670000Y-11345000D01*
X12630000Y-11305000D02*
X12710000Y-11305000D01*
X12670000Y-11519000D02*
X12670000Y-11599000D01*
X12630000Y-11559000D02*
X12710000Y-11559000D01*
X12670000Y-11773000D02*
X12670000Y-11853000D01*
X12630000Y-11813000D02*
X12710000Y-11813000D01*
X12670500Y-7885000D02*
X12670500Y-7965000D01*
X12630500Y-7925000D02*
X12710500Y-7925000D01*
X12670500Y-9414500D02*
X12670500Y-9494500D01*
X12630500Y-9454500D02*
X12710500Y-9454500D01*
X13318000Y-8068200D02*
X13318000Y-8148200D01*
X13278000Y-8108200D02*
X13358000Y-8108200D01*
X13318000Y-8568200D02*
X13318000Y-8648200D01*
X13278000Y-8608200D02*
X13358000Y-8608200D01*
X13318000Y-8807000D02*
X13318000Y-8887000D01*
X13278000Y-8847000D02*
X13358000Y-8847000D01*
X13318000Y-9307000D02*
X13318000Y-9387000D01*
X13278000Y-9347000D02*
X13358000Y-9347000D01*
X13368000Y-12382000D02*
X13368000Y-12462000D01*
X13328000Y-12422000D02*
X13408000Y-12422000D01*
X13418000Y-7432000D02*
X13418000Y-7512000D01*
X13378000Y-7472000D02*
X13458000Y-7472000D01*
X13432000Y-9995000D02*
X13432000Y-10075000D01*
X13392000Y-10035000D02*
X13472000Y-10035000D01*
X13432000Y-10249000D02*
X13432000Y-10329000D01*
X13392000Y-10289000D02*
X13472000Y-10289000D01*
X13432000Y-10503000D02*
X13432000Y-10583000D01*
X13392000Y-10543000D02*
X13472000Y-10543000D01*
X13432000Y-10757000D02*
X13432000Y-10837000D01*
X13392000Y-10797000D02*
X13472000Y-10797000D01*
X13432000Y-11011000D02*
X13432000Y-11091000D01*
X13392000Y-11051000D02*
X13472000Y-11051000D01*
X13432000Y-11265000D02*
X13432000Y-11345000D01*
X13392000Y-11305000D02*
X13472000Y-11305000D01*
X13432000Y-11519000D02*
X13432000Y-11599000D01*
X13392000Y-11559000D02*
X13472000Y-11559000D01*
X13432000Y-11773000D02*
X13432000Y-11853000D01*
X13392000Y-11813000D02*
X13472000Y-11813000D01*
X13793900Y-7695000D02*
X13793900Y-7775000D01*
X13753900Y-7735000D02*
X13833900Y-7735000D01*
X13793900Y-8457000D02*
X13793900Y-8537000D01*
X13753900Y-8497000D02*
X13833900Y-8497000D01*
X13793900Y-8695000D02*
X13793900Y-8775000D01*
X13753900Y-8735000D02*
X13833900Y-8735000D01*
X13793900Y-9457000D02*
X13793900Y-9537000D01*
X13753900Y-9497000D02*
X13833900Y-9497000D01*
X13804600Y-12709500D02*
X13804600Y-12789500D01*
X13764600Y-12749500D02*
X13844600Y-12749500D01*
X13804600Y-12963500D02*
X13804600Y-13043500D01*
X13764600Y-13003500D02*
X13844600Y-13003500D01*
X13804600Y-13217500D02*
X13804600Y-13297500D01*
X13764600Y-13257500D02*
X13844600Y-13257500D01*
X13804600Y-13471500D02*
X13804600Y-13551500D01*
X13764600Y-13511500D02*
X13844600Y-13511500D01*
X13804600Y-13725500D02*
X13804600Y-13805500D01*
X13764600Y-13765500D02*
X13844600Y-13765500D01*
X13804600Y-13979500D02*
X13804600Y-14059500D01*
X13764600Y-14019500D02*
X13844600Y-14019500D01*
X13804600Y-14233500D02*
X13804600Y-14313500D01*
X13764600Y-14273500D02*
X13844600Y-14273500D01*
X13804600Y-14487500D02*
X13804600Y-14567500D01*
X13764600Y-14527500D02*
X13844600Y-14527500D01*
X13804600Y-14741500D02*
X13804600Y-14821500D01*
X13764600Y-14781500D02*
X13844600Y-14781500D01*
X13804600Y-14995500D02*
X13804600Y-15075500D01*
X13764600Y-15035500D02*
X13844600Y-15035500D01*
X13804600Y-15249500D02*
X13804600Y-15329500D01*
X13764600Y-15289500D02*
X13844600Y-15289500D01*
X13804600Y-15503500D02*
X13804600Y-15583500D01*
X13764600Y-15543500D02*
X13844600Y-15543500D01*
X13806420Y-11186930D02*
X13806420Y-11266930D01*
X13766420Y-11226930D02*
X13846420Y-11226930D01*
X13868000Y-12382000D02*
X13868000Y-12462000D01*
X13828000Y-12422000D02*
X13908000Y-12422000D01*
X13918000Y-7432000D02*
X13918000Y-7512000D01*
X13878000Y-7472000D02*
X13958000Y-7472000D01*
X14006420Y-11186930D02*
X14006420Y-11266930D01*
X13966420Y-11226930D02*
X14046420Y-11226930D01*
X14125800Y-7756000D02*
X14125800Y-7836000D01*
X14085800Y-7796000D02*
X14165800Y-7796000D01*
X14125800Y-8010000D02*
X14125800Y-8090000D01*
X14085800Y-8050000D02*
X14165800Y-8050000D01*
X14125800Y-8264000D02*
X14125800Y-8344000D01*
X14085800Y-8304000D02*
X14165800Y-8304000D01*
X14125800Y-8518000D02*
X14125800Y-8598000D01*
X14085800Y-8558000D02*
X14165800Y-8558000D01*
X14125800Y-8772000D02*
X14125800Y-8852000D01*
X14085800Y-8812000D02*
X14165800Y-8812000D01*
X14125800Y-9026000D02*
X14125800Y-9106000D01*
X14085800Y-9066000D02*
X14165800Y-9066000D01*
X14125800Y-9280000D02*
X14125800Y-9360000D01*
X14085800Y-9320000D02*
X14165800Y-9320000D01*
X14162900Y-9726000D02*
X14162900Y-9806000D01*
X14122900Y-9766000D02*
X14202900Y-9766000D01*
X14185600Y-12709500D02*
X14185600Y-12789500D01*
X14145600Y-12749500D02*
X14225600Y-12749500D01*
X14185600Y-12963500D02*
X14185600Y-13043500D01*
X14145600Y-13003500D02*
X14225600Y-13003500D01*
X14185600Y-13217500D02*
X14185600Y-13297500D01*
X14145600Y-13257500D02*
X14225600Y-13257500D01*
X14185600Y-13471500D02*
X14185600Y-13551500D01*
X14145600Y-13511500D02*
X14225600Y-13511500D01*
X14185600Y-13725500D02*
X14185600Y-13805500D01*
X14145600Y-13765500D02*
X14225600Y-13765500D01*
X14185600Y-13979500D02*
X14185600Y-14059500D01*
X14145600Y-14019500D02*
X14225600Y-14019500D01*
X14185600Y-14233500D02*
X14185600Y-14313500D01*
X14145600Y-14273500D02*
X14225600Y-14273500D01*
X14185600Y-14487500D02*
X14185600Y-14567500D01*
X14145600Y-14527500D02*
X14225600Y-14527500D01*
X14185600Y-14741500D02*
X14185600Y-14821500D01*
X14145600Y-14781500D02*
X14225600Y-14781500D01*
X14185600Y-14995500D02*
X14185600Y-15075500D01*
X14145600Y-15035500D02*
X14225600Y-15035500D01*
X14185600Y-15249500D02*
X14185600Y-15329500D01*
X14145600Y-15289500D02*
X14225600Y-15289500D01*
X14185600Y-15503500D02*
X14185600Y-15583500D01*
X14145600Y-15543500D02*
X14225600Y-15543500D01*
X14350510Y-10775510D02*
X14350510Y-10855510D01*
X14310510Y-10815510D02*
X14390510Y-10815510D01*
X14350510Y-11029510D02*
X14350510Y-11109510D01*
X14310510Y-11069510D02*
X14390510Y-11069510D01*
X14350510Y-11283510D02*
X14350510Y-11363510D01*
X14310510Y-11323510D02*
X14390510Y-11323510D01*
X14350510Y-11537510D02*
X14350510Y-11617510D01*
X14310510Y-11577510D02*
X14390510Y-11577510D01*
X14418000Y-7432000D02*
X14418000Y-7512000D01*
X14378000Y-7472000D02*
X14458000Y-7472000D01*
X14887800Y-7756000D02*
X14887800Y-7836000D01*
X14847800Y-7796000D02*
X14927800Y-7796000D01*
X14887800Y-8010000D02*
X14887800Y-8090000D01*
X14847800Y-8050000D02*
X14927800Y-8050000D01*
X14887800Y-8264000D02*
X14887800Y-8344000D01*
X14847800Y-8304000D02*
X14927800Y-8304000D01*
X14887800Y-8518000D02*
X14887800Y-8598000D01*
X14847800Y-8558000D02*
X14927800Y-8558000D01*
X14887800Y-8772000D02*
X14887800Y-8852000D01*
X14847800Y-8812000D02*
X14927800Y-8812000D01*
X14887800Y-9026000D02*
X14887800Y-9106000D01*
X14847800Y-9066000D02*
X14927800Y-9066000D01*
X14887800Y-9280000D02*
X14887800Y-9360000D01*
X14847800Y-9320000D02*
X14927800Y-9320000D01*
X14918000Y-7432000D02*
X14918000Y-7512000D01*
X14878000Y-7472000D02*
X14958000Y-7472000D01*
X14924900Y-9726000D02*
X14924900Y-9806000D01*
X14884900Y-9766000D02*
X14964900Y-9766000D01*
X15112510Y-10775510D02*
X15112510Y-10855510D01*
X15072510Y-10815510D02*
X15152510Y-10815510D01*
X15112510Y-11029510D02*
X15112510Y-11109510D01*
X15072510Y-11069510D02*
X15152510Y-11069510D01*
X15112510Y-11283510D02*
X15112510Y-11363510D01*
X15072510Y-11323510D02*
X15152510Y-11323510D01*
X15112510Y-11537510D02*
X15112510Y-11617510D01*
X15072510Y-11577510D02*
X15152510Y-11577510D01*
X15218000Y-7690400D02*
X15218000Y-7770400D01*
X15178000Y-7730400D02*
X15258000Y-7730400D01*
X15218000Y-8190400D02*
X15218000Y-8270400D01*
X15178000Y-8230400D02*
X15258000Y-8230400D01*
X15218000Y-8422000D02*
X15218000Y-8502000D01*
X15178000Y-8462000D02*
X15258000Y-8462000D01*
X15218000Y-8922000D02*
X15218000Y-9002000D01*
X15178000Y-8962000D02*
X15258000Y-8962000D01*
X15218000Y-9176000D02*
X15218000Y-9256000D01*
X15178000Y-9216000D02*
X15258000Y-9216000D01*
X15218000Y-9676000D02*
X15218000Y-9756000D01*
X15178000Y-9716000D02*
X15258000Y-9716000D01*
X15218000Y-12357000D02*
X15218000Y-12437000D01*
X15178000Y-12397000D02*
X15258000Y-12397000D01*
X15440400Y-10713000D02*
X15440400Y-10793000D01*
X15400400Y-10753000D02*
X15480400Y-10753000D01*
X15458980Y-11435000D02*
X15458980Y-11515000D01*
X15418980Y-11475000D02*
X15498980Y-11475000D01*
X15658980Y-11435000D02*
X15658980Y-11515000D01*
X15618980Y-11475000D02*
X15698980Y-11475000D01*
X15690400Y-10713000D02*
X15690400Y-10793000D01*
X15650400Y-10753000D02*
X15730400Y-10753000D01*
X15709600Y-12709500D02*
X15709600Y-12789500D01*
X15669600Y-12749500D02*
X15749600Y-12749500D01*
X15709600Y-12963500D02*
X15709600Y-13043500D01*
X15669600Y-13003500D02*
X15749600Y-13003500D01*
X15709600Y-13217500D02*
X15709600Y-13297500D01*
X15669600Y-13257500D02*
X15749600Y-13257500D01*
X15709600Y-13471500D02*
X15709600Y-13551500D01*
X15669600Y-13511500D02*
X15749600Y-13511500D01*
X15709600Y-13725500D02*
X15709600Y-13805500D01*
X15669600Y-13765500D02*
X15749600Y-13765500D01*
X15709600Y-13979500D02*
X15709600Y-14059500D01*
X15669600Y-14019500D02*
X15749600Y-14019500D01*
X15709600Y-14233500D02*
X15709600Y-14313500D01*
X15669600Y-14273500D02*
X15749600Y-14273500D01*
X15709600Y-14487500D02*
X15709600Y-14567500D01*
X15669600Y-14527500D02*
X15749600Y-14527500D01*
X15709600Y-14741500D02*
X15709600Y-14821500D01*
X15669600Y-14781500D02*
X15749600Y-14781500D01*
X15709600Y-14995500D02*
X15709600Y-15075500D01*
X15669600Y-15035500D02*
X15749600Y-15035500D01*
X15709600Y-15249500D02*
X15709600Y-15329500D01*
X15669600Y-15289500D02*
X15749600Y-15289500D01*
X15709600Y-15503500D02*
X15709600Y-15583500D01*
X15669600Y-15543500D02*
X15749600Y-15543500D01*
X15718000Y-8129000D02*
X15718000Y-8209000D01*
X15678000Y-8169000D02*
X15758000Y-8169000D01*
X15718000Y-8891000D02*
X15718000Y-8971000D01*
X15678000Y-8931000D02*
X15758000Y-8931000D01*
X15718000Y-9126000D02*
X15718000Y-9206000D01*
X15678000Y-9166000D02*
X15758000Y-9166000D01*
X15718000Y-9888000D02*
X15718000Y-9968000D01*
X15678000Y-9928000D02*
X15758000Y-9928000D01*
X15718000Y-12357000D02*
X15718000Y-12437000D01*
X15678000Y-12397000D02*
X15758000Y-12397000D01*
X16070000Y-10310000D02*
X16070000Y-10390000D01*
X16030000Y-10350000D02*
X16110000Y-10350000D01*
X16070000Y-10564000D02*
X16070000Y-10644000D01*
X16030000Y-10604000D02*
X16110000Y-10604000D01*
X16070000Y-10818000D02*
X16070000Y-10898000D01*
X16030000Y-10858000D02*
X16110000Y-10858000D01*
X16070000Y-11072000D02*
X16070000Y-11152000D01*
X16030000Y-11112000D02*
X16110000Y-11112000D01*
X16070000Y-11326000D02*
X16070000Y-11406000D01*
X16030000Y-11366000D02*
X16110000Y-11366000D01*
X16070000Y-11580000D02*
X16070000Y-11660000D01*
X16030000Y-11620000D02*
X16110000Y-11620000D01*
X16070000Y-11834000D02*
X16070000Y-11914000D01*
X16030000Y-11874000D02*
X16110000Y-11874000D01*
X16070000Y-12088000D02*
X16070000Y-12168000D01*
X16030000Y-12128000D02*
X16110000Y-12128000D01*
X16070000Y-12342000D02*
X16070000Y-12422000D01*
X16030000Y-12382000D02*
X16110000Y-12382000D01*
X16070000Y-12596000D02*
X16070000Y-12676000D01*
X16030000Y-12636000D02*
X16110000Y-12636000D01*
X16195000Y-13217500D02*
X16195000Y-13297500D01*
X16155000Y-13257500D02*
X16235000Y-13257500D01*
X16195000Y-13471500D02*
X16195000Y-13551500D01*
X16155000Y-13511500D02*
X16235000Y-13511500D01*
X16195000Y-13725500D02*
X16195000Y-13805500D01*
X16155000Y-13765500D02*
X16235000Y-13765500D01*
X16195000Y-13979500D02*
X16195000Y-14059500D01*
X16155000Y-14019500D02*
X16235000Y-14019500D01*
X16195000Y-14233500D02*
X16195000Y-14313500D01*
X16155000Y-14273500D02*
X16235000Y-14273500D01*
X16195000Y-14487500D02*
X16195000Y-14567500D01*
X16155000Y-14527500D02*
X16235000Y-14527500D01*
X16195000Y-14741500D02*
X16195000Y-14821500D01*
X16155000Y-14781500D02*
X16235000Y-14781500D01*
X16195000Y-14995500D02*
X16195000Y-15075500D01*
X16155000Y-15035500D02*
X16235000Y-15035500D01*
X16195000Y-15249500D02*
X16195000Y-15329500D01*
X16155000Y-15289500D02*
X16235000Y-15289500D01*
X16195000Y-15503500D02*
X16195000Y-15583500D01*
X16155000Y-15543500D02*
X16235000Y-15543500D01*
X16342000Y-9073000D02*
X16342000Y-9153000D01*
X16302000Y-9113000D02*
X16382000Y-9113000D01*
X16342000Y-9835000D02*
X16342000Y-9915000D01*
X16302000Y-9875000D02*
X16382000Y-9875000D01*
X16450000Y-8410000D02*
X16450000Y-8490000D01*
X16410000Y-8450000D02*
X16490000Y-8450000D01*
X16501200Y-7195000D02*
X16501200Y-7275000D01*
X16461200Y-7235000D02*
X16541200Y-7235000D01*
X16501200Y-7449000D02*
X16501200Y-7529000D01*
X16461200Y-7489000D02*
X16541200Y-7489000D01*
X16501200Y-7703000D02*
X16501200Y-7783000D01*
X16461200Y-7743000D02*
X16541200Y-7743000D01*
X16501200Y-7957000D02*
X16501200Y-8037000D01*
X16461200Y-7997000D02*
X16541200Y-7997000D01*
X16596000Y-9073000D02*
X16596000Y-9153000D01*
X16556000Y-9113000D02*
X16636000Y-9113000D01*
X16596000Y-9835000D02*
X16596000Y-9915000D01*
X16556000Y-9875000D02*
X16636000Y-9875000D01*
X16832000Y-10310000D02*
X16832000Y-10390000D01*
X16792000Y-10350000D02*
X16872000Y-10350000D01*
X16832000Y-10564000D02*
X16832000Y-10644000D01*
X16792000Y-10604000D02*
X16872000Y-10604000D01*
X16832000Y-10818000D02*
X16832000Y-10898000D01*
X16792000Y-10858000D02*
X16872000Y-10858000D01*
X16832000Y-11072000D02*
X16832000Y-11152000D01*
X16792000Y-11112000D02*
X16872000Y-11112000D01*
X16832000Y-11326000D02*
X16832000Y-11406000D01*
X16792000Y-11366000D02*
X16872000Y-11366000D01*
X16832000Y-11580000D02*
X16832000Y-11660000D01*
X16792000Y-11620000D02*
X16872000Y-11620000D01*
X16832000Y-11834000D02*
X16832000Y-11914000D01*
X16792000Y-11874000D02*
X16872000Y-11874000D01*
X16832000Y-12088000D02*
X16832000Y-12168000D01*
X16792000Y-12128000D02*
X16872000Y-12128000D01*
X16832000Y-12342000D02*
X16832000Y-12422000D01*
X16792000Y-12382000D02*
X16872000Y-12382000D01*
X16832000Y-12596000D02*
X16832000Y-12676000D01*
X16792000Y-12636000D02*
X16872000Y-12636000D01*
X16850000Y-9073000D02*
X16850000Y-9153000D01*
X16810000Y-9113000D02*
X16890000Y-9113000D01*
X16850000Y-9835000D02*
X16850000Y-9915000D01*
X16810000Y-9875000D02*
X16890000Y-9875000D01*
X16950000Y-8410000D02*
X16950000Y-8490000D01*
X16910000Y-8450000D02*
X16990000Y-8450000D01*
X16957000Y-13217500D02*
X16957000Y-13297500D01*
X16917000Y-13257500D02*
X16997000Y-13257500D01*
X16957000Y-13471500D02*
X16957000Y-13551500D01*
X16917000Y-13511500D02*
X16997000Y-13511500D01*
X16957000Y-13725500D02*
X16957000Y-13805500D01*
X16917000Y-13765500D02*
X16997000Y-13765500D01*
X16957000Y-13979500D02*
X16957000Y-14059500D01*
X16917000Y-14019500D02*
X16997000Y-14019500D01*
X16957000Y-14233500D02*
X16957000Y-14313500D01*
X16917000Y-14273500D02*
X16997000Y-14273500D01*
X16957000Y-14487500D02*
X16957000Y-14567500D01*
X16917000Y-14527500D02*
X16997000Y-14527500D01*
X16957000Y-14741500D02*
X16957000Y-14821500D01*
X16917000Y-14781500D02*
X16997000Y-14781500D01*
X16957000Y-14995500D02*
X16957000Y-15075500D01*
X16917000Y-15035500D02*
X16997000Y-15035500D01*
X16957000Y-15249500D02*
X16957000Y-15329500D01*
X16917000Y-15289500D02*
X16997000Y-15289500D01*
X16957000Y-15503500D02*
X16957000Y-15583500D01*
X16917000Y-15543500D02*
X16997000Y-15543500D01*
X17104000Y-9073000D02*
X17104000Y-9153000D01*
X17064000Y-9113000D02*
X17144000Y-9113000D01*
X17104000Y-9835000D02*
X17104000Y-9915000D01*
X17064000Y-9875000D02*
X17144000Y-9875000D01*
X17169000Y-8410000D02*
X17169000Y-8490000D01*
X17129000Y-8450000D02*
X17209000Y-8450000D01*
X17195000Y-10310000D02*
X17195000Y-10390000D01*
X17155000Y-10350000D02*
X17235000Y-10350000D01*
X17195000Y-10564000D02*
X17195000Y-10644000D01*
X17155000Y-10604000D02*
X17235000Y-10604000D01*
X17195000Y-10818000D02*
X17195000Y-10898000D01*
X17155000Y-10858000D02*
X17235000Y-10858000D01*
X17195000Y-11072000D02*
X17195000Y-11152000D01*
X17155000Y-11112000D02*
X17235000Y-11112000D01*
X17195000Y-11326000D02*
X17195000Y-11406000D01*
X17155000Y-11366000D02*
X17235000Y-11366000D01*
X17195000Y-11580000D02*
X17195000Y-11660000D01*
X17155000Y-11620000D02*
X17235000Y-11620000D01*
X17195000Y-11834000D02*
X17195000Y-11914000D01*
X17155000Y-11874000D02*
X17235000Y-11874000D01*
X17195000Y-12088000D02*
X17195000Y-12168000D01*
X17155000Y-12128000D02*
X17235000Y-12128000D01*
X17195000Y-12342000D02*
X17195000Y-12422000D01*
X17155000Y-12382000D02*
X17235000Y-12382000D01*
X17195000Y-12596000D02*
X17195000Y-12676000D01*
X17155000Y-12636000D02*
X17235000Y-12636000D01*
X17263200Y-7195000D02*
X17263200Y-7275000D01*
X17223200Y-7235000D02*
X17303200Y-7235000D01*
X17263200Y-7449000D02*
X17263200Y-7529000D01*
X17223200Y-7489000D02*
X17303200Y-7489000D01*
X17263200Y-7703000D02*
X17263200Y-7783000D01*
X17223200Y-7743000D02*
X17303200Y-7743000D01*
X17263200Y-7957000D02*
X17263200Y-8037000D01*
X17223200Y-7997000D02*
X17303200Y-7997000D01*
X17358000Y-9073000D02*
X17358000Y-9153000D01*
X17318000Y-9113000D02*
X17398000Y-9113000D01*
X17358000Y-9835000D02*
X17358000Y-9915000D01*
X17318000Y-9875000D02*
X17398000Y-9875000D01*
X17425000Y-13707000D02*
X17425000Y-13787000D01*
X17385000Y-13747000D02*
X17465000Y-13747000D01*
X17425000Y-14207000D02*
X17425000Y-14287000D01*
X17385000Y-14247000D02*
X17465000Y-14247000D01*
X17425000Y-14457000D02*
X17425000Y-14537000D01*
X17385000Y-14497000D02*
X17465000Y-14497000D01*
X17425000Y-14957000D02*
X17425000Y-15037000D01*
X17385000Y-14997000D02*
X17465000Y-14997000D01*
X17612000Y-9073000D02*
X17612000Y-9153000D01*
X17572000Y-9113000D02*
X17652000Y-9113000D01*
X17612000Y-9835000D02*
X17612000Y-9915000D01*
X17572000Y-9875000D02*
X17652000Y-9875000D01*
X17629210Y-7210000D02*
X17629210Y-7290000D01*
X17589210Y-7250000D02*
X17669210Y-7250000D01*
X17670290Y-7860000D02*
X17670290Y-7940000D01*
X17630290Y-7900000D02*
X17710290Y-7900000D01*
X17748500Y-13736500D02*
X17748500Y-13816500D01*
X17708500Y-13776500D02*
X17788500Y-13776500D01*
X17748500Y-13990500D02*
X17748500Y-14070500D01*
X17708500Y-14030500D02*
X17788500Y-14030500D01*
X17748500Y-14244500D02*
X17748500Y-14324500D01*
X17708500Y-14284500D02*
X17788500Y-14284500D01*
X17748500Y-14498500D02*
X17748500Y-14578500D01*
X17708500Y-14538500D02*
X17788500Y-14538500D01*
X17748500Y-14752500D02*
X17748500Y-14832500D01*
X17708500Y-14792500D02*
X17788500Y-14792500D01*
X17748500Y-15006500D02*
X17748500Y-15086500D01*
X17708500Y-15046500D02*
X17788500Y-15046500D01*
X17748500Y-15260500D02*
X17748500Y-15340500D01*
X17708500Y-15300500D02*
X17788500Y-15300500D01*
X17748500Y-15514500D02*
X17748500Y-15594500D01*
X17708500Y-15554500D02*
X17788500Y-15554500D01*
X17829210Y-7210000D02*
X17829210Y-7290000D01*
X17789210Y-7250000D02*
X17869210Y-7250000D01*
X17866000Y-9073000D02*
X17866000Y-9153000D01*
X17826000Y-9113000D02*
X17906000Y-9113000D01*
X17866000Y-9835000D02*
X17866000Y-9915000D01*
X17826000Y-9875000D02*
X17906000Y-9875000D01*
X17920290Y-7860000D02*
X17920290Y-7940000D01*
X17880290Y-7900000D02*
X17960290Y-7900000D01*
X17931000Y-8410000D02*
X17931000Y-8490000D01*
X17891000Y-8450000D02*
X17971000Y-8450000D01*
X17957000Y-10310000D02*
X17957000Y-10390000D01*
X17917000Y-10350000D02*
X17997000Y-10350000D01*
X17957000Y-10564000D02*
X17957000Y-10644000D01*
X17917000Y-10604000D02*
X17997000Y-10604000D01*
X17957000Y-10818000D02*
X17957000Y-10898000D01*
X17917000Y-10858000D02*
X17997000Y-10858000D01*
X17957000Y-11072000D02*
X17957000Y-11152000D01*
X17917000Y-11112000D02*
X17997000Y-11112000D01*
X17957000Y-11326000D02*
X17957000Y-11406000D01*
X17917000Y-11366000D02*
X17997000Y-11366000D01*
X17957000Y-11580000D02*
X17957000Y-11660000D01*
X17917000Y-11620000D02*
X17997000Y-11620000D01*
X17957000Y-11834000D02*
X17957000Y-11914000D01*
X17917000Y-11874000D02*
X17997000Y-11874000D01*
X17957000Y-12088000D02*
X17957000Y-12168000D01*
X17917000Y-12128000D02*
X17997000Y-12128000D01*
X17957000Y-12342000D02*
X17957000Y-12422000D01*
X17917000Y-12382000D02*
X17997000Y-12382000D01*
X17957000Y-12596000D02*
X17957000Y-12676000D01*
X17917000Y-12636000D02*
X17997000Y-12636000D01*
X18018000Y-13410000D02*
X18018000Y-13490000D01*
X17978000Y-13450000D02*
X18058000Y-13450000D01*
X18320000Y-10820000D02*
X18320000Y-10900000D01*
X18280000Y-10860000D02*
X18360000Y-10860000D01*
X18320000Y-11074000D02*
X18320000Y-11154000D01*
X18280000Y-11114000D02*
X18360000Y-11114000D01*
X18320000Y-11328000D02*
X18320000Y-11408000D01*
X18280000Y-11368000D02*
X18360000Y-11368000D01*
X18320000Y-11582000D02*
X18320000Y-11662000D01*
X18280000Y-11622000D02*
X18360000Y-11622000D01*
X18320000Y-11836000D02*
X18320000Y-11916000D01*
X18280000Y-11876000D02*
X18360000Y-11876000D01*
X18320000Y-12090000D02*
X18320000Y-12170000D01*
X18280000Y-12130000D02*
X18360000Y-12130000D01*
X18320000Y-12344000D02*
X18320000Y-12424000D01*
X18280000Y-12384000D02*
X18360000Y-12384000D01*
X18320000Y-12598000D02*
X18320000Y-12678000D01*
X18280000Y-12638000D02*
X18360000Y-12638000D01*
X18510500Y-13736500D02*
X18510500Y-13816500D01*
X18470500Y-13776500D02*
X18550500Y-13776500D01*
X18510500Y-13990500D02*
X18510500Y-14070500D01*
X18470500Y-14030500D02*
X18550500Y-14030500D01*
X18510500Y-14244500D02*
X18510500Y-14324500D01*
X18470500Y-14284500D02*
X18550500Y-14284500D01*
X18510500Y-14498500D02*
X18510500Y-14578500D01*
X18470500Y-14538500D02*
X18550500Y-14538500D01*
X18510500Y-14752500D02*
X18510500Y-14832500D01*
X18470500Y-14792500D02*
X18550500Y-14792500D01*
X18510500Y-15006500D02*
X18510500Y-15086500D01*
X18470500Y-15046500D02*
X18550500Y-15046500D01*
X18510500Y-15260500D02*
X18510500Y-15340500D01*
X18470500Y-15300500D02*
X18550500Y-15300500D01*
X18510500Y-15514500D02*
X18510500Y-15594500D01*
X18470500Y-15554500D02*
X18550500Y-15554500D01*
X18518000Y-13410000D02*
X18518000Y-13490000D01*
X18478000Y-13450000D02*
X18558000Y-13450000D01*
X18825000Y-13707000D02*
X18825000Y-13787000D01*
X18785000Y-13747000D02*
X18865000Y-13747000D01*
X18825000Y-14207000D02*
X18825000Y-14287000D01*
X18785000Y-14247000D02*
X18865000Y-14247000D01*
X18825000Y-14457000D02*
X18825000Y-14537000D01*
X18785000Y-14497000D02*
X18865000Y-14497000D01*
X18825000Y-14957000D02*
X18825000Y-15037000D01*
X18785000Y-14997000D02*
X18865000Y-14997000D01*
X19082000Y-10820000D02*
X19082000Y-10900000D01*
X19042000Y-10860000D02*
X19122000Y-10860000D01*
X19082000Y-11074000D02*
X19082000Y-11154000D01*
X19042000Y-11114000D02*
X19122000Y-11114000D01*
X19082000Y-11328000D02*
X19082000Y-11408000D01*
X19042000Y-11368000D02*
X19122000Y-11368000D01*
X19082000Y-11582000D02*
X19082000Y-11662000D01*
X19042000Y-11622000D02*
X19122000Y-11622000D01*
X19082000Y-11836000D02*
X19082000Y-11916000D01*
X19042000Y-11876000D02*
X19122000Y-11876000D01*
X19082000Y-12090000D02*
X19082000Y-12170000D01*
X19042000Y-12130000D02*
X19122000Y-12130000D01*
X19082000Y-12344000D02*
X19082000Y-12424000D01*
X19042000Y-12384000D02*
X19122000Y-12384000D01*
X19082000Y-12598000D02*
X19082000Y-12678000D01*
X19042000Y-12638000D02*
X19122000Y-12638000D01*
D15*
X5771320Y-6353820D02*
X5771320Y-6290180D01*
X5707680Y-6290180D01*
X5707680Y-6353820D01*
X5771320Y-6353820D01*
X6025320Y-6353820D02*
X6025320Y-6290180D01*
X5961680Y-6290180D01*
X5961680Y-6353820D01*
X6025320Y-6353820D01*
D16*
X5022500Y-8900000D02*
X5072500Y-8850000D01*
X5022500Y-8800000D01*
X4972500Y-8850000D01*
X5022500Y-8900000D01*
X5276500Y-8900000D02*
X5326500Y-8850000D01*
X5276500Y-8800000D01*
X5226500Y-8850000D01*
X5276500Y-8900000D01*
X5481550Y-7679250D02*
X5531550Y-7629250D01*
X5481550Y-7579250D01*
X5431550Y-7629250D01*
X5481550Y-7679250D01*
D11*
X5431550Y-7529250D02*
X5431550Y-7729250D01*
X5531550Y-7529250D02*
X5531550Y-7729250D01*
X5431550Y-7729250D02*
G75*
G03*
X5531550Y-7729250I50000J0D01*
G01*
X5531550Y-7529250D02*
G75*
G03*
X5431550Y-7529250I-50000J0D01*
G01*
D16*
X5781550Y-8149250D02*
X5831550Y-8099250D01*
X5781550Y-8049250D01*
X5731550Y-8099250D01*
X5781550Y-8149250D01*
D11*
X5681550Y-8149250D02*
X5881550Y-8149250D01*
X5681550Y-8049250D02*
X5881550Y-8049250D01*
X5881550Y-8149250D02*
G75*
G03*
X5881550Y-8049250I0J50000D01*
G01*
X5681550Y-8049250D02*
G75*
G03*
X5681550Y-8149250I0J-50000D01*
G01*
D16*
X6081550Y-7679250D02*
X6131550Y-7629250D01*
X6081550Y-7579250D01*
X6031550Y-7629250D01*
X6081550Y-7679250D01*
D11*
X6031550Y-7529250D02*
X6031550Y-7729250D01*
X6131550Y-7529250D02*
X6131550Y-7729250D01*
X6031550Y-7729250D02*
G75*
G03*
X6131550Y-7729250I50000J0D01*
G01*
X6131550Y-7529250D02*
G75*
G03*
X6031550Y-7529250I-50000J0D01*
G01*
D16*
X7618000Y-9317500D02*
X7668000Y-9267500D01*
X7618000Y-9217500D01*
X7568000Y-9267500D01*
X7618000Y-9317500D01*
X7618000Y-9571500D02*
X7668000Y-9521500D01*
X7618000Y-9471500D01*
X7568000Y-9521500D01*
X7618000Y-9571500D01*
X7618000Y-11174500D02*
X7668000Y-11124500D01*
X7618000Y-11074500D01*
X7568000Y-11124500D01*
X7618000Y-11174500D01*
X7618000Y-11428500D02*
X7668000Y-11378500D01*
X7618000Y-11328500D01*
X7568000Y-11378500D01*
X7618000Y-11428500D01*
X8197500Y-6287500D02*
X8247500Y-6237500D01*
X8197500Y-6187500D01*
X8147500Y-6237500D01*
X8197500Y-6287500D01*
X8197500Y-6541500D02*
X8247500Y-6491500D01*
X8197500Y-6441500D01*
X8147500Y-6491500D01*
X8197500Y-6541500D01*
X8197500Y-6795500D02*
X8247500Y-6745500D01*
X8197500Y-6695500D01*
X8147500Y-6745500D01*
X8197500Y-6795500D01*
X8197500Y-7049500D02*
X8247500Y-6999500D01*
X8197500Y-6949500D01*
X8147500Y-6999500D01*
X8197500Y-7049500D01*
X8197500Y-7303500D02*
X8247500Y-7253500D01*
X8197500Y-7203500D01*
X8147500Y-7253500D01*
X8197500Y-7303500D01*
X8197500Y-7557500D02*
X8247500Y-7507500D01*
X8197500Y-7457500D01*
X8147500Y-7507500D01*
X8197500Y-7557500D01*
X8197500Y-7811500D02*
X8247500Y-7761500D01*
X8197500Y-7711500D01*
X8147500Y-7761500D01*
X8197500Y-7811500D01*
X8197500Y-8065500D02*
X8247500Y-8015500D01*
X8197500Y-7965500D01*
X8147500Y-8015500D01*
X8197500Y-8065500D01*
X8200000Y-8700000D02*
X8250000Y-8650000D01*
X8200000Y-8600000D01*
X8150000Y-8650000D01*
X8200000Y-8700000D01*
X8200000Y-8954000D02*
X8250000Y-8904000D01*
X8200000Y-8854000D01*
X8150000Y-8904000D01*
X8200000Y-8954000D01*
X8200000Y-9208000D02*
X8250000Y-9158000D01*
X8200000Y-9108000D01*
X8150000Y-9158000D01*
X8200000Y-9208000D01*
X8200000Y-9462000D02*
X8250000Y-9412000D01*
X8200000Y-9362000D01*
X8150000Y-9412000D01*
X8200000Y-9462000D01*
X8451500Y-6287500D02*
X8501500Y-6237500D01*
X8451500Y-6187500D01*
X8401500Y-6237500D01*
X8451500Y-6287500D01*
X8451500Y-6541500D02*
X8501500Y-6491500D01*
X8451500Y-6441500D01*
X8401500Y-6491500D01*
X8451500Y-6541500D01*
X8451500Y-6795500D02*
X8501500Y-6745500D01*
X8451500Y-6695500D01*
X8401500Y-6745500D01*
X8451500Y-6795500D01*
X8451500Y-7049500D02*
X8501500Y-6999500D01*
X8451500Y-6949500D01*
X8401500Y-6999500D01*
X8451500Y-7049500D01*
X8451500Y-7303500D02*
X8501500Y-7253500D01*
X8451500Y-7203500D01*
X8401500Y-7253500D01*
X8451500Y-7303500D01*
X8451500Y-7557500D02*
X8501500Y-7507500D01*
X8451500Y-7457500D01*
X8401500Y-7507500D01*
X8451500Y-7557500D01*
X8451500Y-7811500D02*
X8501500Y-7761500D01*
X8451500Y-7711500D01*
X8401500Y-7761500D01*
X8451500Y-7811500D01*
X8451500Y-8065500D02*
X8501500Y-8015500D01*
X8451500Y-7965500D01*
X8401500Y-8015500D01*
X8451500Y-8065500D01*
X8454000Y-8700000D02*
X8504000Y-8650000D01*
X8454000Y-8600000D01*
X8404000Y-8650000D01*
X8454000Y-8700000D01*
X8454000Y-8954000D02*
X8504000Y-8904000D01*
X8454000Y-8854000D01*
X8404000Y-8904000D01*
X8454000Y-8954000D01*
X8454000Y-9208000D02*
X8504000Y-9158000D01*
X8454000Y-9108000D01*
X8404000Y-9158000D01*
X8454000Y-9208000D01*
X8454000Y-9462000D02*
X8504000Y-9412000D01*
X8454000Y-9362000D01*
X8404000Y-9412000D01*
X8454000Y-9462000D01*
X12239000Y-12447000D02*
X12289000Y-12397000D01*
X12239000Y-12347000D01*
X12189000Y-12397000D01*
X12239000Y-12447000D01*
X12493000Y-12447000D02*
X12543000Y-12397000D01*
X12493000Y-12347000D01*
X12443000Y-12397000D01*
X12493000Y-12447000D01*
X12747000Y-12447000D02*
X12797000Y-12397000D01*
X12747000Y-12347000D01*
X12697000Y-12397000D01*
X12747000Y-12447000D01*
X19235000Y-7275000D02*
X19285000Y-7225000D01*
X19235000Y-7175000D01*
X19185000Y-7225000D01*
X19235000Y-7275000D01*
X19235000Y-7525000D02*
X19285000Y-7475000D01*
X19235000Y-7425000D01*
X19185000Y-7475000D01*
X19235000Y-7525000D01*
X19235000Y-7775000D02*
X19285000Y-7725000D01*
X19235000Y-7675000D01*
X19185000Y-7725000D01*
X19235000Y-7775000D01*
X19235000Y-8025000D02*
X19285000Y-7975000D01*
X19235000Y-7925000D01*
X19185000Y-7975000D01*
X19235000Y-8025000D01*
X19549970Y-12742000D02*
X19599970Y-12692000D01*
X19549970Y-12642000D01*
X19499970Y-12692000D01*
X19549970Y-12742000D01*
X19549970Y-13019000D02*
X19599970Y-12969000D01*
X19549970Y-12919000D01*
X19499970Y-12969000D01*
X19549970Y-13019000D01*
X19549970Y-13296000D02*
X19599970Y-13246000D01*
X19549970Y-13196000D01*
X19499970Y-13246000D01*
X19549970Y-13296000D01*
X19549970Y-13573000D02*
X19599970Y-13523000D01*
X19549970Y-13473000D01*
X19499970Y-13523000D01*
X19549970Y-13573000D01*
X19549970Y-13850000D02*
X19599970Y-13800000D01*
X19549970Y-13750000D01*
X19499970Y-13800000D01*
X19549970Y-13850000D01*
X19793000Y-8868600D02*
X19843000Y-8818600D01*
X19793000Y-8768600D01*
X19743000Y-8818600D01*
X19793000Y-8868600D01*
D11*
X19818000Y-8768600D02*
X19768000Y-8768600D01*
X19818000Y-8868600D02*
X19768000Y-8868600D01*
X19768000Y-8768600D02*
G75*
G03*
X19768000Y-8868600I0J-50000D01*
G01*
X19818000Y-8868600D02*
G75*
G03*
X19818000Y-8768600I0J50000D01*
G01*
D16*
X19793000Y-9118600D02*
X19843000Y-9068600D01*
X19793000Y-9018600D01*
X19743000Y-9068600D01*
X19793000Y-9118600D01*
D11*
X19818000Y-9018600D02*
X19768000Y-9018600D01*
X19818000Y-9118600D02*
X19768000Y-9118600D01*
X19768000Y-9018600D02*
G75*
G03*
X19768000Y-9118600I0J-50000D01*
G01*
X19818000Y-9118600D02*
G75*
G03*
X19818000Y-9018600I0J50000D01*
G01*
D16*
X19793000Y-9868600D02*
X19843000Y-9818600D01*
X19793000Y-9768600D01*
X19743000Y-9818600D01*
X19793000Y-9868600D01*
D11*
X19818000Y-9768600D02*
X19768000Y-9768600D01*
X19818000Y-9868600D02*
X19768000Y-9868600D01*
X19768000Y-9768600D02*
G75*
G03*
X19768000Y-9868600I0J-50000D01*
G01*
X19818000Y-9868600D02*
G75*
G03*
X19818000Y-9768600I0J50000D01*
G01*
D16*
X19833970Y-12880500D02*
X19883970Y-12830500D01*
X19833970Y-12780500D01*
X19783970Y-12830500D01*
X19833970Y-12880500D01*
X19833970Y-13157500D02*
X19883970Y-13107500D01*
X19833970Y-13057500D01*
X19783970Y-13107500D01*
X19833970Y-13157500D01*
X19833970Y-13434500D02*
X19883970Y-13384500D01*
X19833970Y-13334500D01*
X19783970Y-13384500D01*
X19833970Y-13434500D01*
X19833970Y-13711500D02*
X19883970Y-13661500D01*
X19833970Y-13611500D01*
X19783970Y-13661500D01*
X19833970Y-13711500D01*
X20293000Y-9368600D02*
X20343000Y-9318600D01*
X20293000Y-9268600D01*
X20243000Y-9318600D01*
X20293000Y-9368600D01*
D11*
X20343000Y-9343600D02*
X20343000Y-9293600D01*
X20243000Y-9343600D02*
X20243000Y-9293600D01*
X20343000Y-9293600D02*
G75*
G03*
X20243000Y-9293600I-50000J0D01*
G01*
X20243000Y-9343600D02*
G75*
G03*
X20343000Y-9343600I50000J0D01*
G01*
D17*
X6488000Y-6992000D02*
X6598000Y-7102000D01*
X6598000Y-6992000D02*
X6488000Y-7102000D01*
X6598000Y-7047000D02*
G75*
G03*
X6598000Y-7047000I-55000J0D01*
G01*
X6488000Y-7442000D02*
X6598000Y-7552000D01*
X6598000Y-7442000D02*
X6488000Y-7552000D01*
X6598000Y-7497000D02*
G75*
G03*
X6598000Y-7497000I-55000J0D01*
G01*
X7138000Y-6992000D02*
X7248000Y-7102000D01*
X7248000Y-6992000D02*
X7138000Y-7102000D01*
X7248000Y-7047000D02*
G75*
G03*
X7248000Y-7047000I-55000J0D01*
G01*
X7138000Y-7442000D02*
X7248000Y-7552000D01*
X7248000Y-7442000D02*
X7138000Y-7552000D01*
X7248000Y-7497000D02*
G75*
G03*
X7248000Y-7497000I-55000J0D01*
G01*
D18*
X20188500Y-10388500D02*
X20307500Y-10507500D01*
X20307500Y-10388500D02*
X20188500Y-10507500D01*
X20248000Y-10388500D02*
X20248000Y-10507500D01*
X20188500Y-10448000D02*
X20307500Y-10448000D01*
X20188500Y-10642500D02*
X20307500Y-10761500D01*
X20307500Y-10642500D02*
X20188500Y-10761500D01*
X20248000Y-10642500D02*
X20248000Y-10761500D01*
X20188500Y-10702000D02*
X20307500Y-10702000D01*
D11*
X18805000Y-6885000D02*
X19005000Y-7085000D01*
X19005000Y-6885000D02*
X18805000Y-7085000D01*
X18975711Y-7055711D02*
X18975711Y-6914289D01*
X18834289Y-6914289D01*
X18834289Y-7055711D01*
X18975711Y-7055711D01*
X18805000Y-8115000D02*
X19005000Y-8315000D01*
X19005000Y-8115000D02*
X18805000Y-8315000D01*
X18975711Y-8285711D02*
X18975711Y-8144289D01*
X18834289Y-8144289D01*
X18834289Y-8285711D01*
X18975711Y-8285711D01*
D19*
X4958000Y-6189600D02*
X5278000Y-6509600D01*
X5278000Y-6189600D02*
X4958000Y-6509600D01*
X5118000Y-6509600D02*
X5278000Y-6349600D01*
X5118000Y-6189600D01*
X4958000Y-6349600D01*
X5118000Y-6509600D01*
X4958000Y-15214220D02*
X5278000Y-15534220D01*
X5278000Y-15214220D02*
X4958000Y-15534220D01*
X5118000Y-15534220D02*
X5278000Y-15374220D01*
X5118000Y-15214220D01*
X4958000Y-15374220D01*
X5118000Y-15534220D01*
X19531970Y-11836000D02*
X19851970Y-12156000D01*
X19851970Y-11836000D02*
X19531970Y-12156000D01*
X19691970Y-12156000D02*
X19851970Y-11996000D01*
X19691970Y-11836000D01*
X19531970Y-11996000D01*
X19691970Y-12156000D01*
X19531970Y-14336000D02*
X19851970Y-14656000D01*
X19851970Y-14336000D02*
X19531970Y-14656000D01*
X19691970Y-14656000D02*
X19851970Y-14496000D01*
X19691970Y-14336000D01*
X19531970Y-14496000D01*
X19691970Y-14656000D01*
X19958000Y-6189600D02*
X20278000Y-6509600D01*
X20278000Y-6189600D02*
X19958000Y-6509600D01*
X20118000Y-6509600D02*
X20278000Y-6349600D01*
X20118000Y-6189600D01*
X19958000Y-6349600D01*
X20118000Y-6509600D01*
X19958000Y-15214220D02*
X20278000Y-15534220D01*
X20278000Y-15214220D02*
X19958000Y-15534220D01*
X20118000Y-15534220D02*
X20278000Y-15374220D01*
X20118000Y-15214220D01*
X19958000Y-15374220D01*
X20118000Y-15534220D01*
D11*
X4868119Y-16174976D02*
X4868119Y-15974976D01*
X4915738Y-15974976D01*
X4944310Y-15984500D01*
X4963357Y-16003548D01*
X4972881Y-16022595D01*
X4982405Y-16060690D01*
X4982405Y-16089262D01*
X4972881Y-16127357D01*
X4963357Y-16146405D01*
X4944310Y-16165452D01*
X4915738Y-16174976D01*
X4868119Y-16174976D01*
X5068119Y-16174976D02*
X5068119Y-16041643D01*
X5068119Y-16079738D02*
X5077643Y-16060690D01*
X5087167Y-16051167D01*
X5106214Y-16041643D01*
X5125262Y-16041643D01*
X5191929Y-16174976D02*
X5191929Y-16041643D01*
X5191929Y-15974976D02*
X5182405Y-15984500D01*
X5191929Y-15994024D01*
X5201452Y-15984500D01*
X5191929Y-15974976D01*
X5191929Y-15994024D01*
X5315738Y-16174976D02*
X5296690Y-16165452D01*
X5287167Y-16146405D01*
X5287167Y-15974976D01*
X5420500Y-16174976D02*
X5401452Y-16165452D01*
X5391929Y-16146405D01*
X5391929Y-15974976D01*
X5649071Y-16174976D02*
X5649071Y-15974976D01*
X5715738Y-16117833D01*
X5782405Y-15974976D01*
X5782405Y-16174976D01*
X5963357Y-16174976D02*
X5963357Y-16070214D01*
X5953833Y-16051167D01*
X5934786Y-16041643D01*
X5896690Y-16041643D01*
X5877643Y-16051167D01*
X5963357Y-16165452D02*
X5944309Y-16174976D01*
X5896690Y-16174976D01*
X5877643Y-16165452D01*
X5868119Y-16146405D01*
X5868119Y-16127357D01*
X5877643Y-16108309D01*
X5896690Y-16098786D01*
X5944309Y-16098786D01*
X5963357Y-16089262D01*
X6058595Y-16041643D02*
X6058595Y-16241643D01*
X6058595Y-16051167D02*
X6077643Y-16041643D01*
X6115738Y-16041643D01*
X6134786Y-16051167D01*
X6144309Y-16060690D01*
X6153833Y-16079738D01*
X6153833Y-16136881D01*
X6144309Y-16155928D01*
X6134786Y-16165452D01*
X6115738Y-16174976D01*
X6077643Y-16174976D01*
X6058595Y-16165452D01*
X6239548Y-16155928D02*
X6249071Y-16165452D01*
X6239548Y-16174976D01*
X6230024Y-16165452D01*
X6239548Y-16155928D01*
X6239548Y-16174976D01*
X6239548Y-16051167D02*
X6249071Y-16060690D01*
X6239548Y-16070214D01*
X6230024Y-16060690D01*
X6239548Y-16051167D01*
X6239548Y-16070214D01*
D12*
X4580500Y-16489500D02*
X4610500Y-16519500D01*
X4610500Y-16489500D02*
X4580500Y-16519500D01*
D11*
X4906214Y-16394976D02*
X4925262Y-16394976D01*
X4944310Y-16404500D01*
X4953833Y-16414024D01*
X4963357Y-16433071D01*
X4972881Y-16471167D01*
X4972881Y-16518786D01*
X4963357Y-16556881D01*
X4953833Y-16575928D01*
X4944310Y-16585452D01*
X4925262Y-16594976D01*
X4906214Y-16594976D01*
X4887167Y-16585452D01*
X4877643Y-16575928D01*
X4868119Y-16556881D01*
X4858595Y-16518786D01*
X4858595Y-16471167D01*
X4868119Y-16433071D01*
X4877643Y-16414024D01*
X4887167Y-16404500D01*
X4906214Y-16394976D01*
X5058595Y-16575928D02*
X5068119Y-16585452D01*
X5058595Y-16594976D01*
X5049071Y-16585452D01*
X5058595Y-16575928D01*
X5058595Y-16594976D01*
X5134786Y-16394976D02*
X5258595Y-16394976D01*
X5191929Y-16471167D01*
X5220500Y-16471167D01*
X5239548Y-16480690D01*
X5249071Y-16490214D01*
X5258595Y-16509262D01*
X5258595Y-16556881D01*
X5249071Y-16575928D01*
X5239548Y-16585452D01*
X5220500Y-16594976D01*
X5163357Y-16594976D01*
X5144310Y-16585452D01*
X5134786Y-16575928D01*
X5382405Y-16394976D02*
X5401452Y-16394976D01*
X5420500Y-16404500D01*
X5430024Y-16414024D01*
X5439548Y-16433071D01*
X5449071Y-16471167D01*
X5449071Y-16518786D01*
X5439548Y-16556881D01*
X5430024Y-16575928D01*
X5420500Y-16585452D01*
X5401452Y-16594976D01*
X5382405Y-16594976D01*
X5363357Y-16585452D01*
X5353833Y-16575928D01*
X5344310Y-16556881D01*
X5334786Y-16518786D01*
X5334786Y-16471167D01*
X5344310Y-16433071D01*
X5353833Y-16414024D01*
X5363357Y-16404500D01*
X5382405Y-16394976D01*
X5572881Y-16394976D02*
X5591929Y-16394976D01*
X5610976Y-16404500D01*
X5620500Y-16414024D01*
X5630024Y-16433071D01*
X5639548Y-16471167D01*
X5639548Y-16518786D01*
X5630024Y-16556881D01*
X5620500Y-16575928D01*
X5610976Y-16585452D01*
X5591929Y-16594976D01*
X5572881Y-16594976D01*
X5553833Y-16585452D01*
X5544310Y-16575928D01*
X5534786Y-16556881D01*
X5525262Y-16518786D01*
X5525262Y-16471167D01*
X5534786Y-16433071D01*
X5544310Y-16414024D01*
X5553833Y-16404500D01*
X5572881Y-16394976D01*
X5725262Y-16594976D02*
X5725262Y-16461643D01*
X5725262Y-16480690D02*
X5734786Y-16471167D01*
X5753833Y-16461643D01*
X5782405Y-16461643D01*
X5801452Y-16471167D01*
X5810976Y-16490214D01*
X5810976Y-16594976D01*
X5810976Y-16490214D02*
X5820500Y-16471167D01*
X5839548Y-16461643D01*
X5868119Y-16461643D01*
X5887167Y-16471167D01*
X5896690Y-16490214D01*
X5896690Y-16594976D01*
X5991928Y-16594976D02*
X5991928Y-16461643D01*
X5991928Y-16480690D02*
X6001452Y-16471167D01*
X6020500Y-16461643D01*
X6049071Y-16461643D01*
X6068119Y-16471167D01*
X6077643Y-16490214D01*
X6077643Y-16594976D01*
X6077643Y-16490214D02*
X6087167Y-16471167D01*
X6106214Y-16461643D01*
X6134786Y-16461643D01*
X6153833Y-16471167D01*
X6163357Y-16490214D01*
X6163357Y-16594976D01*
X6553833Y-16385452D02*
X6382405Y-16642595D01*
X6810976Y-16394976D02*
X6830024Y-16394976D01*
X6849071Y-16404500D01*
X6858595Y-16414024D01*
X6868119Y-16433071D01*
X6877643Y-16471167D01*
X6877643Y-16518786D01*
X6868119Y-16556881D01*
X6858595Y-16575928D01*
X6849071Y-16585452D01*
X6830024Y-16594976D01*
X6810976Y-16594976D01*
X6791928Y-16585452D01*
X6782405Y-16575928D01*
X6772881Y-16556881D01*
X6763357Y-16518786D01*
X6763357Y-16471167D01*
X6772881Y-16433071D01*
X6782405Y-16414024D01*
X6791928Y-16404500D01*
X6810976Y-16394976D01*
X6963357Y-16575928D02*
X6972881Y-16585452D01*
X6963357Y-16594976D01*
X6953833Y-16585452D01*
X6963357Y-16575928D01*
X6963357Y-16594976D01*
X7096690Y-16394976D02*
X7115738Y-16394976D01*
X7134786Y-16404500D01*
X7144309Y-16414024D01*
X7153833Y-16433071D01*
X7163357Y-16471167D01*
X7163357Y-16518786D01*
X7153833Y-16556881D01*
X7144309Y-16575928D01*
X7134786Y-16585452D01*
X7115738Y-16594976D01*
X7096690Y-16594976D01*
X7077643Y-16585452D01*
X7068119Y-16575928D01*
X7058595Y-16556881D01*
X7049071Y-16518786D01*
X7049071Y-16471167D01*
X7058595Y-16433071D01*
X7068119Y-16414024D01*
X7077643Y-16404500D01*
X7096690Y-16394976D01*
X7353833Y-16594976D02*
X7239548Y-16594976D01*
X7296690Y-16594976D02*
X7296690Y-16394976D01*
X7277643Y-16423548D01*
X7258595Y-16442595D01*
X7239548Y-16452119D01*
X7544309Y-16594976D02*
X7430024Y-16594976D01*
X7487167Y-16594976D02*
X7487167Y-16394976D01*
X7468119Y-16423548D01*
X7449071Y-16442595D01*
X7430024Y-16452119D01*
X7658595Y-16480690D02*
X7639548Y-16471167D01*
X7630024Y-16461643D01*
X7620500Y-16442595D01*
X7620500Y-16433071D01*
X7630024Y-16414024D01*
X7639548Y-16404500D01*
X7658595Y-16394976D01*
X7696690Y-16394976D01*
X7715738Y-16404500D01*
X7725262Y-16414024D01*
X7734786Y-16433071D01*
X7734786Y-16442595D01*
X7725262Y-16461643D01*
X7715738Y-16471167D01*
X7696690Y-16480690D01*
X7658595Y-16480690D01*
X7639548Y-16490214D01*
X7630024Y-16499738D01*
X7620500Y-16518786D01*
X7620500Y-16556881D01*
X7630024Y-16575928D01*
X7639548Y-16585452D01*
X7658595Y-16594976D01*
X7696690Y-16594976D01*
X7715738Y-16585452D01*
X7725262Y-16575928D01*
X7734786Y-16556881D01*
X7734786Y-16518786D01*
X7725262Y-16499738D01*
X7715738Y-16490214D01*
X7696690Y-16480690D01*
X7810976Y-16394976D02*
X7810976Y-16433071D01*
X7887167Y-16394976D02*
X7887167Y-16433071D01*
X8182405Y-16671167D02*
X8172881Y-16661643D01*
X8153833Y-16633071D01*
X8144309Y-16614024D01*
X8134786Y-16585452D01*
X8125262Y-16537833D01*
X8125262Y-16499738D01*
X8134786Y-16452119D01*
X8144309Y-16423548D01*
X8153833Y-16404500D01*
X8172881Y-16375928D01*
X8182405Y-16366405D01*
X8249071Y-16414024D02*
X8258595Y-16404500D01*
X8277643Y-16394976D01*
X8325262Y-16394976D01*
X8344309Y-16404500D01*
X8353833Y-16414024D01*
X8363357Y-16433071D01*
X8363357Y-16452119D01*
X8353833Y-16480690D01*
X8239548Y-16594976D01*
X8363357Y-16594976D01*
X8601452Y-16594976D02*
X8601452Y-16394976D01*
X8687167Y-16594976D02*
X8687167Y-16490214D01*
X8677643Y-16471167D01*
X8658595Y-16461643D01*
X8630024Y-16461643D01*
X8610976Y-16471167D01*
X8601452Y-16480690D01*
X8810976Y-16594976D02*
X8791929Y-16585452D01*
X8782405Y-16575928D01*
X8772881Y-16556881D01*
X8772881Y-16499738D01*
X8782405Y-16480690D01*
X8791929Y-16471167D01*
X8810976Y-16461643D01*
X8839548Y-16461643D01*
X8858595Y-16471167D01*
X8868119Y-16480690D01*
X8877643Y-16499738D01*
X8877643Y-16556881D01*
X8868119Y-16575928D01*
X8858595Y-16585452D01*
X8839548Y-16594976D01*
X8810976Y-16594976D01*
X8991929Y-16594976D02*
X8972881Y-16585452D01*
X8963357Y-16566405D01*
X8963357Y-16394976D01*
X9144310Y-16585452D02*
X9125262Y-16594976D01*
X9087167Y-16594976D01*
X9068119Y-16585452D01*
X9058595Y-16566405D01*
X9058595Y-16490214D01*
X9068119Y-16471167D01*
X9087167Y-16461643D01*
X9125262Y-16461643D01*
X9144310Y-16471167D01*
X9153833Y-16490214D01*
X9153833Y-16509262D01*
X9058595Y-16528309D01*
X9230024Y-16585452D02*
X9249071Y-16594976D01*
X9287167Y-16594976D01*
X9306214Y-16585452D01*
X9315738Y-16566405D01*
X9315738Y-16556881D01*
X9306214Y-16537833D01*
X9287167Y-16528309D01*
X9258595Y-16528309D01*
X9239548Y-16518786D01*
X9230024Y-16499738D01*
X9230024Y-16490214D01*
X9239548Y-16471167D01*
X9258595Y-16461643D01*
X9287167Y-16461643D01*
X9306214Y-16471167D01*
X9382405Y-16671167D02*
X9391929Y-16661643D01*
X9410976Y-16633071D01*
X9420500Y-16614024D01*
X9430024Y-16585452D01*
X9439548Y-16537833D01*
X9439548Y-16499738D01*
X9430024Y-16452119D01*
X9420500Y-16423548D01*
X9410976Y-16404500D01*
X9391929Y-16375928D01*
X9382405Y-16366405D01*
D13*
X4610500Y-16768500D02*
G75*
G03*
X4610500Y-16768500I-20000J0D01*
G01*
D11*
X4906214Y-16658976D02*
X4925262Y-16658976D01*
X4944310Y-16668500D01*
X4953833Y-16678024D01*
X4963357Y-16697071D01*
X4972881Y-16735167D01*
X4972881Y-16782786D01*
X4963357Y-16820881D01*
X4953833Y-16839929D01*
X4944310Y-16849452D01*
X4925262Y-16858976D01*
X4906214Y-16858976D01*
X4887167Y-16849452D01*
X4877643Y-16839929D01*
X4868119Y-16820881D01*
X4858595Y-16782786D01*
X4858595Y-16735167D01*
X4868119Y-16697071D01*
X4877643Y-16678024D01*
X4887167Y-16668500D01*
X4906214Y-16658976D01*
X5058595Y-16839929D02*
X5068119Y-16849452D01*
X5058595Y-16858976D01*
X5049071Y-16849452D01*
X5058595Y-16839929D01*
X5058595Y-16858976D01*
X5239548Y-16725643D02*
X5239548Y-16858976D01*
X5191929Y-16649452D02*
X5144310Y-16792310D01*
X5268119Y-16792310D01*
X5382405Y-16658976D02*
X5401452Y-16658976D01*
X5420500Y-16668500D01*
X5430024Y-16678024D01*
X5439548Y-16697071D01*
X5449071Y-16735167D01*
X5449071Y-16782786D01*
X5439548Y-16820881D01*
X5430024Y-16839929D01*
X5420500Y-16849452D01*
X5401452Y-16858976D01*
X5382405Y-16858976D01*
X5363357Y-16849452D01*
X5353833Y-16839929D01*
X5344310Y-16820881D01*
X5334786Y-16782786D01*
X5334786Y-16735167D01*
X5344310Y-16697071D01*
X5353833Y-16678024D01*
X5363357Y-16668500D01*
X5382405Y-16658976D01*
X5572881Y-16658976D02*
X5591929Y-16658976D01*
X5610976Y-16668500D01*
X5620500Y-16678024D01*
X5630024Y-16697071D01*
X5639548Y-16735167D01*
X5639548Y-16782786D01*
X5630024Y-16820881D01*
X5620500Y-16839929D01*
X5610976Y-16849452D01*
X5591929Y-16858976D01*
X5572881Y-16858976D01*
X5553833Y-16849452D01*
X5544310Y-16839929D01*
X5534786Y-16820881D01*
X5525262Y-16782786D01*
X5525262Y-16735167D01*
X5534786Y-16697071D01*
X5544310Y-16678024D01*
X5553833Y-16668500D01*
X5572881Y-16658976D01*
X5725262Y-16858976D02*
X5725262Y-16725643D01*
X5725262Y-16744690D02*
X5734786Y-16735167D01*
X5753833Y-16725643D01*
X5782405Y-16725643D01*
X5801452Y-16735167D01*
X5810976Y-16754214D01*
X5810976Y-16858976D01*
X5810976Y-16754214D02*
X5820500Y-16735167D01*
X5839548Y-16725643D01*
X5868119Y-16725643D01*
X5887167Y-16735167D01*
X5896690Y-16754214D01*
X5896690Y-16858976D01*
X5991928Y-16858976D02*
X5991928Y-16725643D01*
X5991928Y-16744690D02*
X6001452Y-16735167D01*
X6020500Y-16725643D01*
X6049071Y-16725643D01*
X6068119Y-16735167D01*
X6077643Y-16754214D01*
X6077643Y-16858976D01*
X6077643Y-16754214D02*
X6087167Y-16735167D01*
X6106214Y-16725643D01*
X6134786Y-16725643D01*
X6153833Y-16735167D01*
X6163357Y-16754214D01*
X6163357Y-16858976D01*
X6553833Y-16649452D02*
X6382405Y-16906595D01*
X6810976Y-16658976D02*
X6830024Y-16658976D01*
X6849071Y-16668500D01*
X6858595Y-16678024D01*
X6868119Y-16697071D01*
X6877643Y-16735167D01*
X6877643Y-16782786D01*
X6868119Y-16820881D01*
X6858595Y-16839929D01*
X6849071Y-16849452D01*
X6830024Y-16858976D01*
X6810976Y-16858976D01*
X6791928Y-16849452D01*
X6782405Y-16839929D01*
X6772881Y-16820881D01*
X6763357Y-16782786D01*
X6763357Y-16735167D01*
X6772881Y-16697071D01*
X6782405Y-16678024D01*
X6791928Y-16668500D01*
X6810976Y-16658976D01*
X6963357Y-16839929D02*
X6972881Y-16849452D01*
X6963357Y-16858976D01*
X6953833Y-16849452D01*
X6963357Y-16839929D01*
X6963357Y-16858976D01*
X7096690Y-16658976D02*
X7115738Y-16658976D01*
X7134786Y-16668500D01*
X7144309Y-16678024D01*
X7153833Y-16697071D01*
X7163357Y-16735167D01*
X7163357Y-16782786D01*
X7153833Y-16820881D01*
X7144309Y-16839929D01*
X7134786Y-16849452D01*
X7115738Y-16858976D01*
X7096690Y-16858976D01*
X7077643Y-16849452D01*
X7068119Y-16839929D01*
X7058595Y-16820881D01*
X7049071Y-16782786D01*
X7049071Y-16735167D01*
X7058595Y-16697071D01*
X7068119Y-16678024D01*
X7077643Y-16668500D01*
X7096690Y-16658976D01*
X7353833Y-16858976D02*
X7239548Y-16858976D01*
X7296690Y-16858976D02*
X7296690Y-16658976D01*
X7277643Y-16687548D01*
X7258595Y-16706595D01*
X7239548Y-16716119D01*
X7534786Y-16658976D02*
X7439548Y-16658976D01*
X7430024Y-16754214D01*
X7439548Y-16744690D01*
X7458595Y-16735167D01*
X7506214Y-16735167D01*
X7525262Y-16744690D01*
X7534786Y-16754214D01*
X7544309Y-16773262D01*
X7544309Y-16820881D01*
X7534786Y-16839929D01*
X7525262Y-16849452D01*
X7506214Y-16858976D01*
X7458595Y-16858976D01*
X7439548Y-16849452D01*
X7430024Y-16839929D01*
X7610976Y-16658976D02*
X7744309Y-16658976D01*
X7658595Y-16858976D01*
X7810976Y-16658976D02*
X7810976Y-16697071D01*
X7887167Y-16658976D02*
X7887167Y-16697071D01*
X8182405Y-16935167D02*
X8172881Y-16925643D01*
X8153833Y-16897071D01*
X8144309Y-16878024D01*
X8134786Y-16849452D01*
X8125262Y-16801833D01*
X8125262Y-16763738D01*
X8134786Y-16716119D01*
X8144309Y-16687548D01*
X8153833Y-16668500D01*
X8172881Y-16639928D01*
X8182405Y-16630405D01*
X8239548Y-16658976D02*
X8363357Y-16658976D01*
X8296690Y-16735167D01*
X8325262Y-16735167D01*
X8344309Y-16744690D01*
X8353833Y-16754214D01*
X8363357Y-16773262D01*
X8363357Y-16820881D01*
X8353833Y-16839929D01*
X8344309Y-16849452D01*
X8325262Y-16858976D01*
X8268119Y-16858976D01*
X8249071Y-16849452D01*
X8239548Y-16839929D01*
X8487167Y-16658976D02*
X8506214Y-16658976D01*
X8525262Y-16668500D01*
X8534786Y-16678024D01*
X8544310Y-16697071D01*
X8553833Y-16735167D01*
X8553833Y-16782786D01*
X8544310Y-16820881D01*
X8534786Y-16839929D01*
X8525262Y-16849452D01*
X8506214Y-16858976D01*
X8487167Y-16858976D01*
X8468119Y-16849452D01*
X8458595Y-16839929D01*
X8449071Y-16820881D01*
X8439548Y-16782786D01*
X8439548Y-16735167D01*
X8449071Y-16697071D01*
X8458595Y-16678024D01*
X8468119Y-16668500D01*
X8487167Y-16658976D01*
X8791929Y-16858976D02*
X8791929Y-16658976D01*
X8877643Y-16858976D02*
X8877643Y-16754214D01*
X8868119Y-16735167D01*
X8849071Y-16725643D01*
X8820500Y-16725643D01*
X8801452Y-16735167D01*
X8791929Y-16744690D01*
X9001452Y-16858976D02*
X8982405Y-16849452D01*
X8972881Y-16839929D01*
X8963357Y-16820881D01*
X8963357Y-16763738D01*
X8972881Y-16744690D01*
X8982405Y-16735167D01*
X9001452Y-16725643D01*
X9030024Y-16725643D01*
X9049071Y-16735167D01*
X9058595Y-16744690D01*
X9068119Y-16763738D01*
X9068119Y-16820881D01*
X9058595Y-16839929D01*
X9049071Y-16849452D01*
X9030024Y-16858976D01*
X9001452Y-16858976D01*
X9182405Y-16858976D02*
X9163357Y-16849452D01*
X9153833Y-16830405D01*
X9153833Y-16658976D01*
X9334786Y-16849452D02*
X9315738Y-16858976D01*
X9277643Y-16858976D01*
X9258595Y-16849452D01*
X9249071Y-16830405D01*
X9249071Y-16754214D01*
X9258595Y-16735167D01*
X9277643Y-16725643D01*
X9315738Y-16725643D01*
X9334786Y-16735167D01*
X9344310Y-16754214D01*
X9344310Y-16773262D01*
X9249071Y-16792310D01*
X9420500Y-16849452D02*
X9439548Y-16858976D01*
X9477643Y-16858976D01*
X9496690Y-16849452D01*
X9506214Y-16830405D01*
X9506214Y-16820881D01*
X9496690Y-16801833D01*
X9477643Y-16792310D01*
X9449071Y-16792310D01*
X9430024Y-16782786D01*
X9420500Y-16763738D01*
X9420500Y-16754214D01*
X9430024Y-16735167D01*
X9449071Y-16725643D01*
X9477643Y-16725643D01*
X9496690Y-16735167D01*
X9572881Y-16935167D02*
X9582405Y-16925643D01*
X9601452Y-16897071D01*
X9610976Y-16878024D01*
X9620500Y-16849452D01*
X9630024Y-16801833D01*
X9630024Y-16763738D01*
X9620500Y-16716119D01*
X9610976Y-16687548D01*
X9601452Y-16668500D01*
X9582405Y-16639928D01*
X9572881Y-16630405D01*
D14*
X4570500Y-16992500D02*
X4570500Y-17072500D01*
X4530500Y-17032500D02*
X4610500Y-17032500D01*
D11*
X4906214Y-16922976D02*
X4925262Y-16922976D01*
X4944310Y-16932500D01*
X4953833Y-16942024D01*
X4963357Y-16961071D01*
X4972881Y-16999167D01*
X4972881Y-17046786D01*
X4963357Y-17084881D01*
X4953833Y-17103929D01*
X4944310Y-17113452D01*
X4925262Y-17122976D01*
X4906214Y-17122976D01*
X4887167Y-17113452D01*
X4877643Y-17103929D01*
X4868119Y-17084881D01*
X4858595Y-17046786D01*
X4858595Y-16999167D01*
X4868119Y-16961071D01*
X4877643Y-16942024D01*
X4887167Y-16932500D01*
X4906214Y-16922976D01*
X5058595Y-17103929D02*
X5068119Y-17113452D01*
X5058595Y-17122976D01*
X5049071Y-17113452D01*
X5058595Y-17103929D01*
X5058595Y-17122976D01*
X5182405Y-17008690D02*
X5163357Y-16999167D01*
X5153833Y-16989643D01*
X5144310Y-16970595D01*
X5144310Y-16961071D01*
X5153833Y-16942024D01*
X5163357Y-16932500D01*
X5182405Y-16922976D01*
X5220500Y-16922976D01*
X5239548Y-16932500D01*
X5249071Y-16942024D01*
X5258595Y-16961071D01*
X5258595Y-16970595D01*
X5249071Y-16989643D01*
X5239548Y-16999167D01*
X5220500Y-17008690D01*
X5182405Y-17008690D01*
X5163357Y-17018214D01*
X5153833Y-17027738D01*
X5144310Y-17046786D01*
X5144310Y-17084881D01*
X5153833Y-17103929D01*
X5163357Y-17113452D01*
X5182405Y-17122976D01*
X5220500Y-17122976D01*
X5239548Y-17113452D01*
X5249071Y-17103929D01*
X5258595Y-17084881D01*
X5258595Y-17046786D01*
X5249071Y-17027738D01*
X5239548Y-17018214D01*
X5220500Y-17008690D01*
X5382405Y-16922976D02*
X5401452Y-16922976D01*
X5420500Y-16932500D01*
X5430024Y-16942024D01*
X5439548Y-16961071D01*
X5449071Y-16999167D01*
X5449071Y-17046786D01*
X5439548Y-17084881D01*
X5430024Y-17103929D01*
X5420500Y-17113452D01*
X5401452Y-17122976D01*
X5382405Y-17122976D01*
X5363357Y-17113452D01*
X5353833Y-17103929D01*
X5344310Y-17084881D01*
X5334786Y-17046786D01*
X5334786Y-16999167D01*
X5344310Y-16961071D01*
X5353833Y-16942024D01*
X5363357Y-16932500D01*
X5382405Y-16922976D01*
X5572881Y-16922976D02*
X5591929Y-16922976D01*
X5610976Y-16932500D01*
X5620500Y-16942024D01*
X5630024Y-16961071D01*
X5639548Y-16999167D01*
X5639548Y-17046786D01*
X5630024Y-17084881D01*
X5620500Y-17103929D01*
X5610976Y-17113452D01*
X5591929Y-17122976D01*
X5572881Y-17122976D01*
X5553833Y-17113452D01*
X5544310Y-17103929D01*
X5534786Y-17084881D01*
X5525262Y-17046786D01*
X5525262Y-16999167D01*
X5534786Y-16961071D01*
X5544310Y-16942024D01*
X5553833Y-16932500D01*
X5572881Y-16922976D01*
X5725262Y-17122976D02*
X5725262Y-16989643D01*
X5725262Y-17008690D02*
X5734786Y-16999167D01*
X5753833Y-16989643D01*
X5782405Y-16989643D01*
X5801452Y-16999167D01*
X5810976Y-17018214D01*
X5810976Y-17122976D01*
X5810976Y-17018214D02*
X5820500Y-16999167D01*
X5839548Y-16989643D01*
X5868119Y-16989643D01*
X5887167Y-16999167D01*
X5896690Y-17018214D01*
X5896690Y-17122976D01*
X5991928Y-17122976D02*
X5991928Y-16989643D01*
X5991928Y-17008690D02*
X6001452Y-16999167D01*
X6020500Y-16989643D01*
X6049071Y-16989643D01*
X6068119Y-16999167D01*
X6077643Y-17018214D01*
X6077643Y-17122976D01*
X6077643Y-17018214D02*
X6087167Y-16999167D01*
X6106214Y-16989643D01*
X6134786Y-16989643D01*
X6153833Y-16999167D01*
X6163357Y-17018214D01*
X6163357Y-17122976D01*
X6553833Y-16913452D02*
X6382405Y-17170595D01*
X6810976Y-16922976D02*
X6830024Y-16922976D01*
X6849071Y-16932500D01*
X6858595Y-16942024D01*
X6868119Y-16961071D01*
X6877643Y-16999167D01*
X6877643Y-17046786D01*
X6868119Y-17084881D01*
X6858595Y-17103929D01*
X6849071Y-17113452D01*
X6830024Y-17122976D01*
X6810976Y-17122976D01*
X6791928Y-17113452D01*
X6782405Y-17103929D01*
X6772881Y-17084881D01*
X6763357Y-17046786D01*
X6763357Y-16999167D01*
X6772881Y-16961071D01*
X6782405Y-16942024D01*
X6791928Y-16932500D01*
X6810976Y-16922976D01*
X6963357Y-17103929D02*
X6972881Y-17113452D01*
X6963357Y-17122976D01*
X6953833Y-17113452D01*
X6963357Y-17103929D01*
X6963357Y-17122976D01*
X7096690Y-16922976D02*
X7115738Y-16922976D01*
X7134786Y-16932500D01*
X7144309Y-16942024D01*
X7153833Y-16961071D01*
X7163357Y-16999167D01*
X7163357Y-17046786D01*
X7153833Y-17084881D01*
X7144309Y-17103929D01*
X7134786Y-17113452D01*
X7115738Y-17122976D01*
X7096690Y-17122976D01*
X7077643Y-17113452D01*
X7068119Y-17103929D01*
X7058595Y-17084881D01*
X7049071Y-17046786D01*
X7049071Y-16999167D01*
X7058595Y-16961071D01*
X7068119Y-16942024D01*
X7077643Y-16932500D01*
X7096690Y-16922976D01*
X7230024Y-16922976D02*
X7353833Y-16922976D01*
X7287167Y-16999167D01*
X7315738Y-16999167D01*
X7334786Y-17008690D01*
X7344309Y-17018214D01*
X7353833Y-17037262D01*
X7353833Y-17084881D01*
X7344309Y-17103929D01*
X7334786Y-17113452D01*
X7315738Y-17122976D01*
X7258595Y-17122976D01*
X7239548Y-17113452D01*
X7230024Y-17103929D01*
X7544309Y-17122976D02*
X7430024Y-17122976D01*
X7487167Y-17122976D02*
X7487167Y-16922976D01*
X7468119Y-16951548D01*
X7449071Y-16970595D01*
X7430024Y-16980119D01*
X7725262Y-16922976D02*
X7630024Y-16922976D01*
X7620500Y-17018214D01*
X7630024Y-17008690D01*
X7649071Y-16999167D01*
X7696690Y-16999167D01*
X7715738Y-17008690D01*
X7725262Y-17018214D01*
X7734786Y-17037262D01*
X7734786Y-17084881D01*
X7725262Y-17103929D01*
X7715738Y-17113452D01*
X7696690Y-17122976D01*
X7649071Y-17122976D01*
X7630024Y-17113452D01*
X7620500Y-17103929D01*
X7810976Y-16922976D02*
X7810976Y-16961071D01*
X7887167Y-16922976D02*
X7887167Y-16961071D01*
X8182405Y-17199167D02*
X8172881Y-17189643D01*
X8153833Y-17161071D01*
X8144309Y-17142024D01*
X8134786Y-17113452D01*
X8125262Y-17065833D01*
X8125262Y-17027738D01*
X8134786Y-16980119D01*
X8144309Y-16951548D01*
X8153833Y-16932500D01*
X8172881Y-16903929D01*
X8182405Y-16894405D01*
X8353833Y-16922976D02*
X8258595Y-16922976D01*
X8249071Y-17018214D01*
X8258595Y-17008690D01*
X8277643Y-16999167D01*
X8325262Y-16999167D01*
X8344309Y-17008690D01*
X8353833Y-17018214D01*
X8363357Y-17037262D01*
X8363357Y-17084881D01*
X8353833Y-17103929D01*
X8344309Y-17113452D01*
X8325262Y-17122976D01*
X8277643Y-17122976D01*
X8258595Y-17113452D01*
X8249071Y-17103929D01*
X8553833Y-17122976D02*
X8439548Y-17122976D01*
X8496690Y-17122976D02*
X8496690Y-16922976D01*
X8477643Y-16951548D01*
X8458595Y-16970595D01*
X8439548Y-16980119D01*
X8725262Y-16989643D02*
X8725262Y-17122976D01*
X8677643Y-16913452D02*
X8630024Y-17056310D01*
X8753833Y-17056310D01*
X8982405Y-17122976D02*
X8982405Y-16922976D01*
X9068119Y-17122976D02*
X9068119Y-17018214D01*
X9058595Y-16999167D01*
X9039548Y-16989643D01*
X9010976Y-16989643D01*
X8991929Y-16999167D01*
X8982405Y-17008690D01*
X9191929Y-17122976D02*
X9172881Y-17113452D01*
X9163357Y-17103929D01*
X9153833Y-17084881D01*
X9153833Y-17027738D01*
X9163357Y-17008690D01*
X9172881Y-16999167D01*
X9191929Y-16989643D01*
X9220500Y-16989643D01*
X9239548Y-16999167D01*
X9249071Y-17008690D01*
X9258595Y-17027738D01*
X9258595Y-17084881D01*
X9249071Y-17103929D01*
X9239548Y-17113452D01*
X9220500Y-17122976D01*
X9191929Y-17122976D01*
X9372881Y-17122976D02*
X9353833Y-17113452D01*
X9344310Y-17094405D01*
X9344310Y-16922976D01*
X9525262Y-17113452D02*
X9506214Y-17122976D01*
X9468119Y-17122976D01*
X9449071Y-17113452D01*
X9439548Y-17094405D01*
X9439548Y-17018214D01*
X9449071Y-16999167D01*
X9468119Y-16989643D01*
X9506214Y-16989643D01*
X9525262Y-16999167D01*
X9534786Y-17018214D01*
X9534786Y-17037262D01*
X9439548Y-17056310D01*
X9610976Y-17113452D02*
X9630024Y-17122976D01*
X9668119Y-17122976D01*
X9687167Y-17113452D01*
X9696690Y-17094405D01*
X9696690Y-17084881D01*
X9687167Y-17065833D01*
X9668119Y-17056310D01*
X9639548Y-17056310D01*
X9620500Y-17046786D01*
X9610976Y-17027738D01*
X9610976Y-17018214D01*
X9620500Y-16999167D01*
X9639548Y-16989643D01*
X9668119Y-16989643D01*
X9687167Y-16999167D01*
X9763357Y-17199167D02*
X9772881Y-17189643D01*
X9791929Y-17161071D01*
X9801452Y-17142024D01*
X9810976Y-17113452D01*
X9820500Y-17065833D01*
X9820500Y-17027738D01*
X9810976Y-16980119D01*
X9801452Y-16951548D01*
X9791929Y-16932500D01*
X9772881Y-16903929D01*
X9763357Y-16894405D01*
D15*
X4597320Y-17328320D02*
X4597320Y-17264680D01*
X4533680Y-17264680D01*
X4533680Y-17328320D01*
X4597320Y-17328320D01*
D11*
X4906214Y-17186976D02*
X4925262Y-17186976D01*
X4944310Y-17196500D01*
X4953833Y-17206024D01*
X4963357Y-17225071D01*
X4972881Y-17263167D01*
X4972881Y-17310786D01*
X4963357Y-17348881D01*
X4953833Y-17367929D01*
X4944310Y-17377452D01*
X4925262Y-17386976D01*
X4906214Y-17386976D01*
X4887167Y-17377452D01*
X4877643Y-17367929D01*
X4868119Y-17348881D01*
X4858595Y-17310786D01*
X4858595Y-17263167D01*
X4868119Y-17225071D01*
X4877643Y-17206024D01*
X4887167Y-17196500D01*
X4906214Y-17186976D01*
X5058595Y-17367929D02*
X5068119Y-17377452D01*
X5058595Y-17386976D01*
X5049071Y-17377452D01*
X5058595Y-17367929D01*
X5058595Y-17386976D01*
X5163357Y-17386976D02*
X5201452Y-17386976D01*
X5220500Y-17377452D01*
X5230024Y-17367929D01*
X5249071Y-17339357D01*
X5258595Y-17301262D01*
X5258595Y-17225071D01*
X5249071Y-17206024D01*
X5239548Y-17196500D01*
X5220500Y-17186976D01*
X5182405Y-17186976D01*
X5163357Y-17196500D01*
X5153833Y-17206024D01*
X5144310Y-17225071D01*
X5144310Y-17272690D01*
X5153833Y-17291738D01*
X5163357Y-17301262D01*
X5182405Y-17310786D01*
X5220500Y-17310786D01*
X5239548Y-17301262D01*
X5249071Y-17291738D01*
X5258595Y-17272690D01*
X5382405Y-17186976D02*
X5401452Y-17186976D01*
X5420500Y-17196500D01*
X5430024Y-17206024D01*
X5439548Y-17225071D01*
X5449071Y-17263167D01*
X5449071Y-17310786D01*
X5439548Y-17348881D01*
X5430024Y-17367929D01*
X5420500Y-17377452D01*
X5401452Y-17386976D01*
X5382405Y-17386976D01*
X5363357Y-17377452D01*
X5353833Y-17367929D01*
X5344310Y-17348881D01*
X5334786Y-17310786D01*
X5334786Y-17263167D01*
X5344310Y-17225071D01*
X5353833Y-17206024D01*
X5363357Y-17196500D01*
X5382405Y-17186976D01*
X5572881Y-17186976D02*
X5591929Y-17186976D01*
X5610976Y-17196500D01*
X5620500Y-17206024D01*
X5630024Y-17225071D01*
X5639548Y-17263167D01*
X5639548Y-17310786D01*
X5630024Y-17348881D01*
X5620500Y-17367929D01*
X5610976Y-17377452D01*
X5591929Y-17386976D01*
X5572881Y-17386976D01*
X5553833Y-17377452D01*
X5544310Y-17367929D01*
X5534786Y-17348881D01*
X5525262Y-17310786D01*
X5525262Y-17263167D01*
X5534786Y-17225071D01*
X5544310Y-17206024D01*
X5553833Y-17196500D01*
X5572881Y-17186976D01*
X5725262Y-17386976D02*
X5725262Y-17253643D01*
X5725262Y-17272690D02*
X5734786Y-17263167D01*
X5753833Y-17253643D01*
X5782405Y-17253643D01*
X5801452Y-17263167D01*
X5810976Y-17282214D01*
X5810976Y-17386976D01*
X5810976Y-17282214D02*
X5820500Y-17263167D01*
X5839548Y-17253643D01*
X5868119Y-17253643D01*
X5887167Y-17263167D01*
X5896690Y-17282214D01*
X5896690Y-17386976D01*
X5991928Y-17386976D02*
X5991928Y-17253643D01*
X5991928Y-17272690D02*
X6001452Y-17263167D01*
X6020500Y-17253643D01*
X6049071Y-17253643D01*
X6068119Y-17263167D01*
X6077643Y-17282214D01*
X6077643Y-17386976D01*
X6077643Y-17282214D02*
X6087167Y-17263167D01*
X6106214Y-17253643D01*
X6134786Y-17253643D01*
X6153833Y-17263167D01*
X6163357Y-17282214D01*
X6163357Y-17386976D01*
X6553833Y-17177452D02*
X6382405Y-17434595D01*
X6810976Y-17186976D02*
X6830024Y-17186976D01*
X6849071Y-17196500D01*
X6858595Y-17206024D01*
X6868119Y-17225071D01*
X6877643Y-17263167D01*
X6877643Y-17310786D01*
X6868119Y-17348881D01*
X6858595Y-17367929D01*
X6849071Y-17377452D01*
X6830024Y-17386976D01*
X6810976Y-17386976D01*
X6791928Y-17377452D01*
X6782405Y-17367929D01*
X6772881Y-17348881D01*
X6763357Y-17310786D01*
X6763357Y-17263167D01*
X6772881Y-17225071D01*
X6782405Y-17206024D01*
X6791928Y-17196500D01*
X6810976Y-17186976D01*
X6963357Y-17367929D02*
X6972881Y-17377452D01*
X6963357Y-17386976D01*
X6953833Y-17377452D01*
X6963357Y-17367929D01*
X6963357Y-17386976D01*
X7096690Y-17186976D02*
X7115738Y-17186976D01*
X7134786Y-17196500D01*
X7144309Y-17206024D01*
X7153833Y-17225071D01*
X7163357Y-17263167D01*
X7163357Y-17310786D01*
X7153833Y-17348881D01*
X7144309Y-17367929D01*
X7134786Y-17377452D01*
X7115738Y-17386976D01*
X7096690Y-17386976D01*
X7077643Y-17377452D01*
X7068119Y-17367929D01*
X7058595Y-17348881D01*
X7049071Y-17310786D01*
X7049071Y-17263167D01*
X7058595Y-17225071D01*
X7068119Y-17206024D01*
X7077643Y-17196500D01*
X7096690Y-17186976D01*
X7230024Y-17186976D02*
X7353833Y-17186976D01*
X7287167Y-17263167D01*
X7315738Y-17263167D01*
X7334786Y-17272690D01*
X7344309Y-17282214D01*
X7353833Y-17301262D01*
X7353833Y-17348881D01*
X7344309Y-17367929D01*
X7334786Y-17377452D01*
X7315738Y-17386976D01*
X7258595Y-17386976D01*
X7239548Y-17377452D01*
X7230024Y-17367929D01*
X7534786Y-17186976D02*
X7439548Y-17186976D01*
X7430024Y-17282214D01*
X7439548Y-17272690D01*
X7458595Y-17263167D01*
X7506214Y-17263167D01*
X7525262Y-17272690D01*
X7534786Y-17282214D01*
X7544309Y-17301262D01*
X7544309Y-17348881D01*
X7534786Y-17367929D01*
X7525262Y-17377452D01*
X7506214Y-17386976D01*
X7458595Y-17386976D01*
X7439548Y-17377452D01*
X7430024Y-17367929D01*
X7715738Y-17253643D02*
X7715738Y-17386976D01*
X7668119Y-17177452D02*
X7620500Y-17320310D01*
X7744309Y-17320310D01*
X7810976Y-17186976D02*
X7810976Y-17225071D01*
X7887167Y-17186976D02*
X7887167Y-17225071D01*
X8182405Y-17463167D02*
X8172881Y-17453643D01*
X8153833Y-17425071D01*
X8144309Y-17406024D01*
X8134786Y-17377452D01*
X8125262Y-17329833D01*
X8125262Y-17291738D01*
X8134786Y-17244119D01*
X8144309Y-17215548D01*
X8153833Y-17196500D01*
X8172881Y-17167929D01*
X8182405Y-17158405D01*
X8249071Y-17206024D02*
X8258595Y-17196500D01*
X8277643Y-17186976D01*
X8325262Y-17186976D01*
X8344309Y-17196500D01*
X8353833Y-17206024D01*
X8363357Y-17225071D01*
X8363357Y-17244119D01*
X8353833Y-17272690D01*
X8239548Y-17386976D01*
X8363357Y-17386976D01*
X8601452Y-17386976D02*
X8601452Y-17186976D01*
X8687167Y-17386976D02*
X8687167Y-17282214D01*
X8677643Y-17263167D01*
X8658595Y-17253643D01*
X8630024Y-17253643D01*
X8610976Y-17263167D01*
X8601452Y-17272690D01*
X8810976Y-17386976D02*
X8791929Y-17377452D01*
X8782405Y-17367929D01*
X8772881Y-17348881D01*
X8772881Y-17291738D01*
X8782405Y-17272690D01*
X8791929Y-17263167D01*
X8810976Y-17253643D01*
X8839548Y-17253643D01*
X8858595Y-17263167D01*
X8868119Y-17272690D01*
X8877643Y-17291738D01*
X8877643Y-17348881D01*
X8868119Y-17367929D01*
X8858595Y-17377452D01*
X8839548Y-17386976D01*
X8810976Y-17386976D01*
X8991929Y-17386976D02*
X8972881Y-17377452D01*
X8963357Y-17358405D01*
X8963357Y-17186976D01*
X9144310Y-17377452D02*
X9125262Y-17386976D01*
X9087167Y-17386976D01*
X9068119Y-17377452D01*
X9058595Y-17358405D01*
X9058595Y-17282214D01*
X9068119Y-17263167D01*
X9087167Y-17253643D01*
X9125262Y-17253643D01*
X9144310Y-17263167D01*
X9153833Y-17282214D01*
X9153833Y-17301262D01*
X9058595Y-17320310D01*
X9230024Y-17377452D02*
X9249071Y-17386976D01*
X9287167Y-17386976D01*
X9306214Y-17377452D01*
X9315738Y-17358405D01*
X9315738Y-17348881D01*
X9306214Y-17329833D01*
X9287167Y-17320310D01*
X9258595Y-17320310D01*
X9239548Y-17310786D01*
X9230024Y-17291738D01*
X9230024Y-17282214D01*
X9239548Y-17263167D01*
X9258595Y-17253643D01*
X9287167Y-17253643D01*
X9306214Y-17263167D01*
X9382405Y-17463167D02*
X9391929Y-17453643D01*
X9410976Y-17425071D01*
X9420500Y-17406024D01*
X9430024Y-17377452D01*
X9439548Y-17329833D01*
X9439548Y-17291738D01*
X9430024Y-17244119D01*
X9420500Y-17215548D01*
X9410976Y-17196500D01*
X9391929Y-17167929D01*
X9382405Y-17158405D01*
D16*
X4560500Y-17610500D02*
X4610500Y-17560500D01*
X4560500Y-17510500D01*
X4510500Y-17560500D01*
X4560500Y-17610500D01*
D11*
X4972881Y-17650976D02*
X4858595Y-17650976D01*
X4915738Y-17650976D02*
X4915738Y-17450976D01*
X4896690Y-17479548D01*
X4877643Y-17498595D01*
X4858595Y-17508119D01*
X5058595Y-17631929D02*
X5068119Y-17641452D01*
X5058595Y-17650976D01*
X5049071Y-17641452D01*
X5058595Y-17631929D01*
X5058595Y-17650976D01*
X5191929Y-17450976D02*
X5210976Y-17450976D01*
X5230024Y-17460500D01*
X5239548Y-17470024D01*
X5249071Y-17489071D01*
X5258595Y-17527167D01*
X5258595Y-17574786D01*
X5249071Y-17612881D01*
X5239548Y-17631929D01*
X5230024Y-17641452D01*
X5210976Y-17650976D01*
X5191929Y-17650976D01*
X5172881Y-17641452D01*
X5163357Y-17631929D01*
X5153833Y-17612881D01*
X5144310Y-17574786D01*
X5144310Y-17527167D01*
X5153833Y-17489071D01*
X5163357Y-17470024D01*
X5172881Y-17460500D01*
X5191929Y-17450976D01*
X5382405Y-17450976D02*
X5401452Y-17450976D01*
X5420500Y-17460500D01*
X5430024Y-17470024D01*
X5439548Y-17489071D01*
X5449071Y-17527167D01*
X5449071Y-17574786D01*
X5439548Y-17612881D01*
X5430024Y-17631929D01*
X5420500Y-17641452D01*
X5401452Y-17650976D01*
X5382405Y-17650976D01*
X5363357Y-17641452D01*
X5353833Y-17631929D01*
X5344310Y-17612881D01*
X5334786Y-17574786D01*
X5334786Y-17527167D01*
X5344310Y-17489071D01*
X5353833Y-17470024D01*
X5363357Y-17460500D01*
X5382405Y-17450976D01*
X5572881Y-17450976D02*
X5591929Y-17450976D01*
X5610976Y-17460500D01*
X5620500Y-17470024D01*
X5630024Y-17489071D01*
X5639548Y-17527167D01*
X5639548Y-17574786D01*
X5630024Y-17612881D01*
X5620500Y-17631929D01*
X5610976Y-17641452D01*
X5591929Y-17650976D01*
X5572881Y-17650976D01*
X5553833Y-17641452D01*
X5544310Y-17631929D01*
X5534786Y-17612881D01*
X5525262Y-17574786D01*
X5525262Y-17527167D01*
X5534786Y-17489071D01*
X5544310Y-17470024D01*
X5553833Y-17460500D01*
X5572881Y-17450976D01*
X5725262Y-17650976D02*
X5725262Y-17517643D01*
X5725262Y-17536690D02*
X5734786Y-17527167D01*
X5753833Y-17517643D01*
X5782405Y-17517643D01*
X5801452Y-17527167D01*
X5810976Y-17546214D01*
X5810976Y-17650976D01*
X5810976Y-17546214D02*
X5820500Y-17527167D01*
X5839548Y-17517643D01*
X5868119Y-17517643D01*
X5887167Y-17527167D01*
X5896690Y-17546214D01*
X5896690Y-17650976D01*
X5991928Y-17650976D02*
X5991928Y-17517643D01*
X5991928Y-17536690D02*
X6001452Y-17527167D01*
X6020500Y-17517643D01*
X6049071Y-17517643D01*
X6068119Y-17527167D01*
X6077643Y-17546214D01*
X6077643Y-17650976D01*
X6077643Y-17546214D02*
X6087167Y-17527167D01*
X6106214Y-17517643D01*
X6134786Y-17517643D01*
X6153833Y-17527167D01*
X6163357Y-17546214D01*
X6163357Y-17650976D01*
X6553833Y-17441452D02*
X6382405Y-17698595D01*
X6810976Y-17450976D02*
X6830024Y-17450976D01*
X6849071Y-17460500D01*
X6858595Y-17470024D01*
X6868119Y-17489071D01*
X6877643Y-17527167D01*
X6877643Y-17574786D01*
X6868119Y-17612881D01*
X6858595Y-17631929D01*
X6849071Y-17641452D01*
X6830024Y-17650976D01*
X6810976Y-17650976D01*
X6791928Y-17641452D01*
X6782405Y-17631929D01*
X6772881Y-17612881D01*
X6763357Y-17574786D01*
X6763357Y-17527167D01*
X6772881Y-17489071D01*
X6782405Y-17470024D01*
X6791928Y-17460500D01*
X6810976Y-17450976D01*
X6963357Y-17631929D02*
X6972881Y-17641452D01*
X6963357Y-17650976D01*
X6953833Y-17641452D01*
X6963357Y-17631929D01*
X6963357Y-17650976D01*
X7096690Y-17450976D02*
X7115738Y-17450976D01*
X7134786Y-17460500D01*
X7144309Y-17470024D01*
X7153833Y-17489071D01*
X7163357Y-17527167D01*
X7163357Y-17574786D01*
X7153833Y-17612881D01*
X7144309Y-17631929D01*
X7134786Y-17641452D01*
X7115738Y-17650976D01*
X7096690Y-17650976D01*
X7077643Y-17641452D01*
X7068119Y-17631929D01*
X7058595Y-17612881D01*
X7049071Y-17574786D01*
X7049071Y-17527167D01*
X7058595Y-17489071D01*
X7068119Y-17470024D01*
X7077643Y-17460500D01*
X7096690Y-17450976D01*
X7230024Y-17450976D02*
X7353833Y-17450976D01*
X7287167Y-17527167D01*
X7315738Y-17527167D01*
X7334786Y-17536690D01*
X7344309Y-17546214D01*
X7353833Y-17565262D01*
X7353833Y-17612881D01*
X7344309Y-17631929D01*
X7334786Y-17641452D01*
X7315738Y-17650976D01*
X7258595Y-17650976D01*
X7239548Y-17641452D01*
X7230024Y-17631929D01*
X7449071Y-17650976D02*
X7487167Y-17650976D01*
X7506214Y-17641452D01*
X7515738Y-17631929D01*
X7534786Y-17603357D01*
X7544309Y-17565262D01*
X7544309Y-17489071D01*
X7534786Y-17470024D01*
X7525262Y-17460500D01*
X7506214Y-17450976D01*
X7468119Y-17450976D01*
X7449071Y-17460500D01*
X7439548Y-17470024D01*
X7430024Y-17489071D01*
X7430024Y-17536690D01*
X7439548Y-17555738D01*
X7449071Y-17565262D01*
X7468119Y-17574786D01*
X7506214Y-17574786D01*
X7525262Y-17565262D01*
X7534786Y-17555738D01*
X7544309Y-17536690D01*
X7715738Y-17517643D02*
X7715738Y-17650976D01*
X7668119Y-17441452D02*
X7620500Y-17584310D01*
X7744309Y-17584310D01*
X7810976Y-17450976D02*
X7810976Y-17489071D01*
X7887167Y-17450976D02*
X7887167Y-17489071D01*
X8182405Y-17727167D02*
X8172881Y-17717643D01*
X8153833Y-17689071D01*
X8144309Y-17670024D01*
X8134786Y-17641452D01*
X8125262Y-17593833D01*
X8125262Y-17555738D01*
X8134786Y-17508119D01*
X8144309Y-17479548D01*
X8153833Y-17460500D01*
X8172881Y-17431929D01*
X8182405Y-17422405D01*
X8344309Y-17517643D02*
X8344309Y-17650976D01*
X8296690Y-17441452D02*
X8249071Y-17584310D01*
X8372881Y-17584310D01*
X8534786Y-17450976D02*
X8496690Y-17450976D01*
X8477643Y-17460500D01*
X8468119Y-17470024D01*
X8449071Y-17498595D01*
X8439548Y-17536690D01*
X8439548Y-17612881D01*
X8449071Y-17631929D01*
X8458595Y-17641452D01*
X8477643Y-17650976D01*
X8515738Y-17650976D01*
X8534786Y-17641452D01*
X8544310Y-17631929D01*
X8553833Y-17612881D01*
X8553833Y-17565262D01*
X8544310Y-17546214D01*
X8534786Y-17536690D01*
X8515738Y-17527167D01*
X8477643Y-17527167D01*
X8458595Y-17536690D01*
X8449071Y-17546214D01*
X8439548Y-17565262D01*
X8791929Y-17650976D02*
X8791929Y-17450976D01*
X8877643Y-17650976D02*
X8877643Y-17546214D01*
X8868119Y-17527167D01*
X8849071Y-17517643D01*
X8820500Y-17517643D01*
X8801452Y-17527167D01*
X8791929Y-17536690D01*
X9001452Y-17650976D02*
X8982405Y-17641452D01*
X8972881Y-17631929D01*
X8963357Y-17612881D01*
X8963357Y-17555738D01*
X8972881Y-17536690D01*
X8982405Y-17527167D01*
X9001452Y-17517643D01*
X9030024Y-17517643D01*
X9049071Y-17527167D01*
X9058595Y-17536690D01*
X9068119Y-17555738D01*
X9068119Y-17612881D01*
X9058595Y-17631929D01*
X9049071Y-17641452D01*
X9030024Y-17650976D01*
X9001452Y-17650976D01*
X9182405Y-17650976D02*
X9163357Y-17641452D01*
X9153833Y-17622405D01*
X9153833Y-17450976D01*
X9334786Y-17641452D02*
X9315738Y-17650976D01*
X9277643Y-17650976D01*
X9258595Y-17641452D01*
X9249071Y-17622405D01*
X9249071Y-17546214D01*
X9258595Y-17527167D01*
X9277643Y-17517643D01*
X9315738Y-17517643D01*
X9334786Y-17527167D01*
X9344310Y-17546214D01*
X9344310Y-17565262D01*
X9249071Y-17584310D01*
X9420500Y-17641452D02*
X9439548Y-17650976D01*
X9477643Y-17650976D01*
X9496690Y-17641452D01*
X9506214Y-17622405D01*
X9506214Y-17612881D01*
X9496690Y-17593833D01*
X9477643Y-17584310D01*
X9449071Y-17584310D01*
X9430024Y-17574786D01*
X9420500Y-17555738D01*
X9420500Y-17546214D01*
X9430024Y-17527167D01*
X9449071Y-17517643D01*
X9477643Y-17517643D01*
X9496690Y-17527167D01*
X9744310Y-17574786D02*
X9896690Y-17574786D01*
X9820500Y-17650976D02*
X9820500Y-17498595D01*
X10125262Y-17450976D02*
X10258595Y-17450976D01*
X10172881Y-17650976D01*
X10477643Y-17641452D02*
X10496690Y-17650976D01*
X10534786Y-17650976D01*
X10553833Y-17641452D01*
X10563357Y-17622405D01*
X10563357Y-17612881D01*
X10553833Y-17593833D01*
X10534786Y-17584310D01*
X10506214Y-17584310D01*
X10487167Y-17574786D01*
X10477643Y-17555738D01*
X10477643Y-17546214D01*
X10487167Y-17527167D01*
X10506214Y-17517643D01*
X10534786Y-17517643D01*
X10553833Y-17527167D01*
X10677643Y-17650976D02*
X10658595Y-17641452D01*
X10649071Y-17622405D01*
X10649071Y-17450976D01*
X10782405Y-17650976D02*
X10763357Y-17641452D01*
X10753833Y-17631929D01*
X10744310Y-17612881D01*
X10744310Y-17555738D01*
X10753833Y-17536690D01*
X10763357Y-17527167D01*
X10782405Y-17517643D01*
X10810976Y-17517643D01*
X10830024Y-17527167D01*
X10839548Y-17536690D01*
X10849071Y-17555738D01*
X10849071Y-17612881D01*
X10839548Y-17631929D01*
X10830024Y-17641452D01*
X10810976Y-17650976D01*
X10782405Y-17650976D01*
X10906214Y-17517643D02*
X10982405Y-17517643D01*
X10934786Y-17450976D02*
X10934786Y-17622405D01*
X10944310Y-17641452D01*
X10963357Y-17650976D01*
X10982405Y-17650976D01*
X11039548Y-17641452D02*
X11058595Y-17650976D01*
X11096690Y-17650976D01*
X11115738Y-17641452D01*
X11125262Y-17622405D01*
X11125262Y-17612881D01*
X11115738Y-17593833D01*
X11096690Y-17584310D01*
X11068119Y-17584310D01*
X11049071Y-17574786D01*
X11039548Y-17555738D01*
X11039548Y-17546214D01*
X11049071Y-17527167D01*
X11068119Y-17517643D01*
X11096690Y-17517643D01*
X11115738Y-17527167D01*
X11191928Y-17727167D02*
X11201452Y-17717643D01*
X11220500Y-17689071D01*
X11230024Y-17670024D01*
X11239548Y-17641452D01*
X11249071Y-17593833D01*
X11249071Y-17555738D01*
X11239548Y-17508119D01*
X11230024Y-17479548D01*
X11220500Y-17460500D01*
X11201452Y-17431929D01*
X11191928Y-17422405D01*
D17*
X4500500Y-17769500D02*
X4610500Y-17879500D01*
X4610500Y-17769500D02*
X4500500Y-17879500D01*
X4610500Y-17824500D02*
G75*
G03*
X4610500Y-17824500I-55000J0D01*
G01*
D11*
X4972881Y-17914976D02*
X4858595Y-17914976D01*
X4915738Y-17914976D02*
X4915738Y-17714976D01*
X4896690Y-17743548D01*
X4877643Y-17762595D01*
X4858595Y-17772119D01*
X5058595Y-17895929D02*
X5068119Y-17905452D01*
X5058595Y-17914976D01*
X5049071Y-17905452D01*
X5058595Y-17895929D01*
X5058595Y-17914976D01*
X5258595Y-17914976D02*
X5144310Y-17914976D01*
X5201452Y-17914976D02*
X5201452Y-17714976D01*
X5182405Y-17743548D01*
X5163357Y-17762595D01*
X5144310Y-17772119D01*
X5382405Y-17714976D02*
X5401452Y-17714976D01*
X5420500Y-17724500D01*
X5430024Y-17734024D01*
X5439548Y-17753071D01*
X5449071Y-17791167D01*
X5449071Y-17838786D01*
X5439548Y-17876881D01*
X5430024Y-17895929D01*
X5420500Y-17905452D01*
X5401452Y-17914976D01*
X5382405Y-17914976D01*
X5363357Y-17905452D01*
X5353833Y-17895929D01*
X5344310Y-17876881D01*
X5334786Y-17838786D01*
X5334786Y-17791167D01*
X5344310Y-17753071D01*
X5353833Y-17734024D01*
X5363357Y-17724500D01*
X5382405Y-17714976D01*
X5572881Y-17714976D02*
X5591929Y-17714976D01*
X5610976Y-17724500D01*
X5620500Y-17734024D01*
X5630024Y-17753071D01*
X5639548Y-17791167D01*
X5639548Y-17838786D01*
X5630024Y-17876881D01*
X5620500Y-17895929D01*
X5610976Y-17905452D01*
X5591929Y-17914976D01*
X5572881Y-17914976D01*
X5553833Y-17905452D01*
X5544310Y-17895929D01*
X5534786Y-17876881D01*
X5525262Y-17838786D01*
X5525262Y-17791167D01*
X5534786Y-17753071D01*
X5544310Y-17734024D01*
X5553833Y-17724500D01*
X5572881Y-17714976D01*
X5725262Y-17914976D02*
X5725262Y-17781643D01*
X5725262Y-17800690D02*
X5734786Y-17791167D01*
X5753833Y-17781643D01*
X5782405Y-17781643D01*
X5801452Y-17791167D01*
X5810976Y-17810214D01*
X5810976Y-17914976D01*
X5810976Y-17810214D02*
X5820500Y-17791167D01*
X5839548Y-17781643D01*
X5868119Y-17781643D01*
X5887167Y-17791167D01*
X5896690Y-17810214D01*
X5896690Y-17914976D01*
X5991928Y-17914976D02*
X5991928Y-17781643D01*
X5991928Y-17800690D02*
X6001452Y-17791167D01*
X6020500Y-17781643D01*
X6049071Y-17781643D01*
X6068119Y-17791167D01*
X6077643Y-17810214D01*
X6077643Y-17914976D01*
X6077643Y-17810214D02*
X6087167Y-17791167D01*
X6106214Y-17781643D01*
X6134786Y-17781643D01*
X6153833Y-17791167D01*
X6163357Y-17810214D01*
X6163357Y-17914976D01*
X6553833Y-17705452D02*
X6382405Y-17962595D01*
X6810976Y-17714976D02*
X6830024Y-17714976D01*
X6849071Y-17724500D01*
X6858595Y-17734024D01*
X6868119Y-17753071D01*
X6877643Y-17791167D01*
X6877643Y-17838786D01*
X6868119Y-17876881D01*
X6858595Y-17895929D01*
X6849071Y-17905452D01*
X6830024Y-17914976D01*
X6810976Y-17914976D01*
X6791928Y-17905452D01*
X6782405Y-17895929D01*
X6772881Y-17876881D01*
X6763357Y-17838786D01*
X6763357Y-17791167D01*
X6772881Y-17753071D01*
X6782405Y-17734024D01*
X6791928Y-17724500D01*
X6810976Y-17714976D01*
X6963357Y-17895929D02*
X6972881Y-17905452D01*
X6963357Y-17914976D01*
X6953833Y-17905452D01*
X6963357Y-17895929D01*
X6963357Y-17914976D01*
X7096690Y-17714976D02*
X7115738Y-17714976D01*
X7134786Y-17724500D01*
X7144309Y-17734024D01*
X7153833Y-17753071D01*
X7163357Y-17791167D01*
X7163357Y-17838786D01*
X7153833Y-17876881D01*
X7144309Y-17895929D01*
X7134786Y-17905452D01*
X7115738Y-17914976D01*
X7096690Y-17914976D01*
X7077643Y-17905452D01*
X7068119Y-17895929D01*
X7058595Y-17876881D01*
X7049071Y-17838786D01*
X7049071Y-17791167D01*
X7058595Y-17753071D01*
X7068119Y-17734024D01*
X7077643Y-17724500D01*
X7096690Y-17714976D01*
X7334786Y-17781643D02*
X7334786Y-17914976D01*
X7287167Y-17705452D02*
X7239548Y-17848310D01*
X7363357Y-17848310D01*
X7420500Y-17714976D02*
X7544309Y-17714976D01*
X7477643Y-17791167D01*
X7506214Y-17791167D01*
X7525262Y-17800690D01*
X7534786Y-17810214D01*
X7544309Y-17829262D01*
X7544309Y-17876881D01*
X7534786Y-17895929D01*
X7525262Y-17905452D01*
X7506214Y-17914976D01*
X7449071Y-17914976D01*
X7430024Y-17905452D01*
X7420500Y-17895929D01*
X7610976Y-17714976D02*
X7734786Y-17714976D01*
X7668119Y-17791167D01*
X7696690Y-17791167D01*
X7715738Y-17800690D01*
X7725262Y-17810214D01*
X7734786Y-17829262D01*
X7734786Y-17876881D01*
X7725262Y-17895929D01*
X7715738Y-17905452D01*
X7696690Y-17914976D01*
X7639548Y-17914976D01*
X7620500Y-17905452D01*
X7610976Y-17895929D01*
X7810976Y-17714976D02*
X7810976Y-17753071D01*
X7887167Y-17714976D02*
X7887167Y-17753071D01*
X8182405Y-17991167D02*
X8172881Y-17981643D01*
X8153833Y-17953071D01*
X8144309Y-17934024D01*
X8134786Y-17905452D01*
X8125262Y-17857833D01*
X8125262Y-17819738D01*
X8134786Y-17772119D01*
X8144309Y-17743548D01*
X8153833Y-17724500D01*
X8172881Y-17695929D01*
X8182405Y-17686405D01*
X8344309Y-17781643D02*
X8344309Y-17914976D01*
X8296690Y-17705452D02*
X8249071Y-17848310D01*
X8372881Y-17848310D01*
X8601452Y-17914976D02*
X8601452Y-17714976D01*
X8687167Y-17914976D02*
X8687167Y-17810214D01*
X8677643Y-17791167D01*
X8658595Y-17781643D01*
X8630024Y-17781643D01*
X8610976Y-17791167D01*
X8601452Y-17800690D01*
X8810976Y-17914976D02*
X8791929Y-17905452D01*
X8782405Y-17895929D01*
X8772881Y-17876881D01*
X8772881Y-17819738D01*
X8782405Y-17800690D01*
X8791929Y-17791167D01*
X8810976Y-17781643D01*
X8839548Y-17781643D01*
X8858595Y-17791167D01*
X8868119Y-17800690D01*
X8877643Y-17819738D01*
X8877643Y-17876881D01*
X8868119Y-17895929D01*
X8858595Y-17905452D01*
X8839548Y-17914976D01*
X8810976Y-17914976D01*
X8991929Y-17914976D02*
X8972881Y-17905452D01*
X8963357Y-17886405D01*
X8963357Y-17714976D01*
X9144310Y-17905452D02*
X9125262Y-17914976D01*
X9087167Y-17914976D01*
X9068119Y-17905452D01*
X9058595Y-17886405D01*
X9058595Y-17810214D01*
X9068119Y-17791167D01*
X9087167Y-17781643D01*
X9125262Y-17781643D01*
X9144310Y-17791167D01*
X9153833Y-17810214D01*
X9153833Y-17829262D01*
X9058595Y-17848310D01*
X9230024Y-17905452D02*
X9249071Y-17914976D01*
X9287167Y-17914976D01*
X9306214Y-17905452D01*
X9315738Y-17886405D01*
X9315738Y-17876881D01*
X9306214Y-17857833D01*
X9287167Y-17848310D01*
X9258595Y-17848310D01*
X9239548Y-17838786D01*
X9230024Y-17819738D01*
X9230024Y-17810214D01*
X9239548Y-17791167D01*
X9258595Y-17781643D01*
X9287167Y-17781643D01*
X9306214Y-17791167D01*
X9382405Y-17991167D02*
X9391929Y-17981643D01*
X9410976Y-17953071D01*
X9420500Y-17934024D01*
X9430024Y-17905452D01*
X9439548Y-17857833D01*
X9439548Y-17819738D01*
X9430024Y-17772119D01*
X9420500Y-17743548D01*
X9410976Y-17724500D01*
X9391929Y-17695929D01*
X9382405Y-17686405D01*
D18*
X4491500Y-18029000D02*
X4610500Y-18148000D01*
X4610500Y-18029000D02*
X4491500Y-18148000D01*
X4551000Y-18029000D02*
X4551000Y-18148000D01*
X4491500Y-18088500D02*
X4610500Y-18088500D01*
D11*
X4972881Y-18178976D02*
X4858595Y-18178976D01*
X4915738Y-18178976D02*
X4915738Y-17978976D01*
X4896690Y-18007548D01*
X4877643Y-18026595D01*
X4858595Y-18036119D01*
X5058595Y-18159929D02*
X5068119Y-18169452D01*
X5058595Y-18178976D01*
X5049071Y-18169452D01*
X5058595Y-18159929D01*
X5058595Y-18178976D01*
X5258595Y-18178976D02*
X5144310Y-18178976D01*
X5201452Y-18178976D02*
X5201452Y-17978976D01*
X5182405Y-18007548D01*
X5163357Y-18026595D01*
X5144310Y-18036119D01*
X5353833Y-18178976D02*
X5391929Y-18178976D01*
X5410976Y-18169452D01*
X5420500Y-18159929D01*
X5439548Y-18131357D01*
X5449071Y-18093262D01*
X5449071Y-18017071D01*
X5439548Y-17998024D01*
X5430024Y-17988500D01*
X5410976Y-17978976D01*
X5372881Y-17978976D01*
X5353833Y-17988500D01*
X5344310Y-17998024D01*
X5334786Y-18017071D01*
X5334786Y-18064690D01*
X5344310Y-18083738D01*
X5353833Y-18093262D01*
X5372881Y-18102786D01*
X5410976Y-18102786D01*
X5430024Y-18093262D01*
X5439548Y-18083738D01*
X5449071Y-18064690D01*
X5572881Y-17978976D02*
X5591929Y-17978976D01*
X5610976Y-17988500D01*
X5620500Y-17998024D01*
X5630024Y-18017071D01*
X5639548Y-18055167D01*
X5639548Y-18102786D01*
X5630024Y-18140881D01*
X5620500Y-18159929D01*
X5610976Y-18169452D01*
X5591929Y-18178976D01*
X5572881Y-18178976D01*
X5553833Y-18169452D01*
X5544310Y-18159929D01*
X5534786Y-18140881D01*
X5525262Y-18102786D01*
X5525262Y-18055167D01*
X5534786Y-18017071D01*
X5544310Y-17998024D01*
X5553833Y-17988500D01*
X5572881Y-17978976D01*
X5725262Y-18178976D02*
X5725262Y-18045643D01*
X5725262Y-18064690D02*
X5734786Y-18055167D01*
X5753833Y-18045643D01*
X5782405Y-18045643D01*
X5801452Y-18055167D01*
X5810976Y-18074214D01*
X5810976Y-18178976D01*
X5810976Y-18074214D02*
X5820500Y-18055167D01*
X5839548Y-18045643D01*
X5868119Y-18045643D01*
X5887167Y-18055167D01*
X5896690Y-18074214D01*
X5896690Y-18178976D01*
X5991928Y-18178976D02*
X5991928Y-18045643D01*
X5991928Y-18064690D02*
X6001452Y-18055167D01*
X6020500Y-18045643D01*
X6049071Y-18045643D01*
X6068119Y-18055167D01*
X6077643Y-18074214D01*
X6077643Y-18178976D01*
X6077643Y-18074214D02*
X6087167Y-18055167D01*
X6106214Y-18045643D01*
X6134786Y-18045643D01*
X6153833Y-18055167D01*
X6163357Y-18074214D01*
X6163357Y-18178976D01*
X6553833Y-17969452D02*
X6382405Y-18226595D01*
X6810976Y-17978976D02*
X6830024Y-17978976D01*
X6849071Y-17988500D01*
X6858595Y-17998024D01*
X6868119Y-18017071D01*
X6877643Y-18055167D01*
X6877643Y-18102786D01*
X6868119Y-18140881D01*
X6858595Y-18159929D01*
X6849071Y-18169452D01*
X6830024Y-18178976D01*
X6810976Y-18178976D01*
X6791928Y-18169452D01*
X6782405Y-18159929D01*
X6772881Y-18140881D01*
X6763357Y-18102786D01*
X6763357Y-18055167D01*
X6772881Y-18017071D01*
X6782405Y-17998024D01*
X6791928Y-17988500D01*
X6810976Y-17978976D01*
X6963357Y-18159929D02*
X6972881Y-18169452D01*
X6963357Y-18178976D01*
X6953833Y-18169452D01*
X6963357Y-18159929D01*
X6963357Y-18178976D01*
X7096690Y-17978976D02*
X7115738Y-17978976D01*
X7134786Y-17988500D01*
X7144309Y-17998024D01*
X7153833Y-18017071D01*
X7163357Y-18055167D01*
X7163357Y-18102786D01*
X7153833Y-18140881D01*
X7144309Y-18159929D01*
X7134786Y-18169452D01*
X7115738Y-18178976D01*
X7096690Y-18178976D01*
X7077643Y-18169452D01*
X7068119Y-18159929D01*
X7058595Y-18140881D01*
X7049071Y-18102786D01*
X7049071Y-18055167D01*
X7058595Y-18017071D01*
X7068119Y-17998024D01*
X7077643Y-17988500D01*
X7096690Y-17978976D01*
X7334786Y-18045643D02*
X7334786Y-18178976D01*
X7287167Y-17969452D02*
X7239548Y-18112310D01*
X7363357Y-18112310D01*
X7525262Y-17978976D02*
X7487167Y-17978976D01*
X7468119Y-17988500D01*
X7458595Y-17998024D01*
X7439548Y-18026595D01*
X7430024Y-18064690D01*
X7430024Y-18140881D01*
X7439548Y-18159929D01*
X7449071Y-18169452D01*
X7468119Y-18178976D01*
X7506214Y-18178976D01*
X7525262Y-18169452D01*
X7534786Y-18159929D01*
X7544309Y-18140881D01*
X7544309Y-18093262D01*
X7534786Y-18074214D01*
X7525262Y-18064690D01*
X7506214Y-18055167D01*
X7468119Y-18055167D01*
X7449071Y-18064690D01*
X7439548Y-18074214D01*
X7430024Y-18093262D01*
X7639548Y-18178976D02*
X7677643Y-18178976D01*
X7696690Y-18169452D01*
X7706214Y-18159929D01*
X7725262Y-18131357D01*
X7734786Y-18093262D01*
X7734786Y-18017071D01*
X7725262Y-17998024D01*
X7715738Y-17988500D01*
X7696690Y-17978976D01*
X7658595Y-17978976D01*
X7639548Y-17988500D01*
X7630024Y-17998024D01*
X7620500Y-18017071D01*
X7620500Y-18064690D01*
X7630024Y-18083738D01*
X7639548Y-18093262D01*
X7658595Y-18102786D01*
X7696690Y-18102786D01*
X7715738Y-18093262D01*
X7725262Y-18083738D01*
X7734786Y-18064690D01*
X7810976Y-17978976D02*
X7810976Y-18017071D01*
X7887167Y-17978976D02*
X7887167Y-18017071D01*
X8182405Y-18255167D02*
X8172881Y-18245643D01*
X8153833Y-18217071D01*
X8144309Y-18198024D01*
X8134786Y-18169452D01*
X8125262Y-18121833D01*
X8125262Y-18083738D01*
X8134786Y-18036119D01*
X8144309Y-18007548D01*
X8153833Y-17988500D01*
X8172881Y-17959929D01*
X8182405Y-17950405D01*
X8249071Y-17998024D02*
X8258595Y-17988500D01*
X8277643Y-17978976D01*
X8325262Y-17978976D01*
X8344309Y-17988500D01*
X8353833Y-17998024D01*
X8363357Y-18017071D01*
X8363357Y-18036119D01*
X8353833Y-18064690D01*
X8239548Y-18178976D01*
X8363357Y-18178976D01*
X8601452Y-18178976D02*
X8601452Y-17978976D01*
X8687167Y-18178976D02*
X8687167Y-18074214D01*
X8677643Y-18055167D01*
X8658595Y-18045643D01*
X8630024Y-18045643D01*
X8610976Y-18055167D01*
X8601452Y-18064690D01*
X8810976Y-18178976D02*
X8791929Y-18169452D01*
X8782405Y-18159929D01*
X8772881Y-18140881D01*
X8772881Y-18083738D01*
X8782405Y-18064690D01*
X8791929Y-18055167D01*
X8810976Y-18045643D01*
X8839548Y-18045643D01*
X8858595Y-18055167D01*
X8868119Y-18064690D01*
X8877643Y-18083738D01*
X8877643Y-18140881D01*
X8868119Y-18159929D01*
X8858595Y-18169452D01*
X8839548Y-18178976D01*
X8810976Y-18178976D01*
X8991929Y-18178976D02*
X8972881Y-18169452D01*
X8963357Y-18150405D01*
X8963357Y-17978976D01*
X9144310Y-18169452D02*
X9125262Y-18178976D01*
X9087167Y-18178976D01*
X9068119Y-18169452D01*
X9058595Y-18150405D01*
X9058595Y-18074214D01*
X9068119Y-18055167D01*
X9087167Y-18045643D01*
X9125262Y-18045643D01*
X9144310Y-18055167D01*
X9153833Y-18074214D01*
X9153833Y-18093262D01*
X9058595Y-18112310D01*
X9230024Y-18169452D02*
X9249071Y-18178976D01*
X9287167Y-18178976D01*
X9306214Y-18169452D01*
X9315738Y-18150405D01*
X9315738Y-18140881D01*
X9306214Y-18121833D01*
X9287167Y-18112310D01*
X9258595Y-18112310D01*
X9239548Y-18102786D01*
X9230024Y-18083738D01*
X9230024Y-18074214D01*
X9239548Y-18055167D01*
X9258595Y-18045643D01*
X9287167Y-18045643D01*
X9306214Y-18055167D01*
X9382405Y-18255167D02*
X9391929Y-18245643D01*
X9410976Y-18217071D01*
X9420500Y-18198024D01*
X9430024Y-18169452D01*
X9439548Y-18121833D01*
X9439548Y-18083738D01*
X9430024Y-18036119D01*
X9420500Y-18007548D01*
X9410976Y-17988500D01*
X9391929Y-17959929D01*
X9382405Y-17950405D01*
X4410500Y-18252500D02*
X4610500Y-18452500D01*
X4610500Y-18252500D02*
X4410500Y-18452500D01*
X4581211Y-18423211D02*
X4581211Y-18281789D01*
X4439789Y-18281789D01*
X4439789Y-18423211D01*
X4581211Y-18423211D01*
X4858595Y-18262024D02*
X4868119Y-18252500D01*
X4887167Y-18242976D01*
X4934786Y-18242976D01*
X4953833Y-18252500D01*
X4963357Y-18262024D01*
X4972881Y-18281071D01*
X4972881Y-18300119D01*
X4963357Y-18328690D01*
X4849071Y-18442976D01*
X4972881Y-18442976D01*
X5058595Y-18423929D02*
X5068119Y-18433452D01*
X5058595Y-18442976D01*
X5049071Y-18433452D01*
X5058595Y-18423929D01*
X5058595Y-18442976D01*
X5191929Y-18242976D02*
X5210976Y-18242976D01*
X5230024Y-18252500D01*
X5239548Y-18262024D01*
X5249071Y-18281071D01*
X5258595Y-18319167D01*
X5258595Y-18366786D01*
X5249071Y-18404881D01*
X5239548Y-18423929D01*
X5230024Y-18433452D01*
X5210976Y-18442976D01*
X5191929Y-18442976D01*
X5172881Y-18433452D01*
X5163357Y-18423929D01*
X5153833Y-18404881D01*
X5144310Y-18366786D01*
X5144310Y-18319167D01*
X5153833Y-18281071D01*
X5163357Y-18262024D01*
X5172881Y-18252500D01*
X5191929Y-18242976D01*
X5382405Y-18242976D02*
X5401452Y-18242976D01*
X5420500Y-18252500D01*
X5430024Y-18262024D01*
X5439548Y-18281071D01*
X5449071Y-18319167D01*
X5449071Y-18366786D01*
X5439548Y-18404881D01*
X5430024Y-18423929D01*
X5420500Y-18433452D01*
X5401452Y-18442976D01*
X5382405Y-18442976D01*
X5363357Y-18433452D01*
X5353833Y-18423929D01*
X5344310Y-18404881D01*
X5334786Y-18366786D01*
X5334786Y-18319167D01*
X5344310Y-18281071D01*
X5353833Y-18262024D01*
X5363357Y-18252500D01*
X5382405Y-18242976D01*
X5572881Y-18242976D02*
X5591929Y-18242976D01*
X5610976Y-18252500D01*
X5620500Y-18262024D01*
X5630024Y-18281071D01*
X5639548Y-18319167D01*
X5639548Y-18366786D01*
X5630024Y-18404881D01*
X5620500Y-18423929D01*
X5610976Y-18433452D01*
X5591929Y-18442976D01*
X5572881Y-18442976D01*
X5553833Y-18433452D01*
X5544310Y-18423929D01*
X5534786Y-18404881D01*
X5525262Y-18366786D01*
X5525262Y-18319167D01*
X5534786Y-18281071D01*
X5544310Y-18262024D01*
X5553833Y-18252500D01*
X5572881Y-18242976D01*
X5725262Y-18442976D02*
X5725262Y-18309643D01*
X5725262Y-18328690D02*
X5734786Y-18319167D01*
X5753833Y-18309643D01*
X5782405Y-18309643D01*
X5801452Y-18319167D01*
X5810976Y-18338214D01*
X5810976Y-18442976D01*
X5810976Y-18338214D02*
X5820500Y-18319167D01*
X5839548Y-18309643D01*
X5868119Y-18309643D01*
X5887167Y-18319167D01*
X5896690Y-18338214D01*
X5896690Y-18442976D01*
X5991928Y-18442976D02*
X5991928Y-18309643D01*
X5991928Y-18328690D02*
X6001452Y-18319167D01*
X6020500Y-18309643D01*
X6049071Y-18309643D01*
X6068119Y-18319167D01*
X6077643Y-18338214D01*
X6077643Y-18442976D01*
X6077643Y-18338214D02*
X6087167Y-18319167D01*
X6106214Y-18309643D01*
X6134786Y-18309643D01*
X6153833Y-18319167D01*
X6163357Y-18338214D01*
X6163357Y-18442976D01*
X6553833Y-18233452D02*
X6382405Y-18490595D01*
X6810976Y-18242976D02*
X6830024Y-18242976D01*
X6849071Y-18252500D01*
X6858595Y-18262024D01*
X6868119Y-18281071D01*
X6877643Y-18319167D01*
X6877643Y-18366786D01*
X6868119Y-18404881D01*
X6858595Y-18423929D01*
X6849071Y-18433452D01*
X6830024Y-18442976D01*
X6810976Y-18442976D01*
X6791928Y-18433452D01*
X6782405Y-18423929D01*
X6772881Y-18404881D01*
X6763357Y-18366786D01*
X6763357Y-18319167D01*
X6772881Y-18281071D01*
X6782405Y-18262024D01*
X6791928Y-18252500D01*
X6810976Y-18242976D01*
X6963357Y-18423929D02*
X6972881Y-18433452D01*
X6963357Y-18442976D01*
X6953833Y-18433452D01*
X6963357Y-18423929D01*
X6963357Y-18442976D01*
X7096690Y-18242976D02*
X7115738Y-18242976D01*
X7134786Y-18252500D01*
X7144309Y-18262024D01*
X7153833Y-18281071D01*
X7163357Y-18319167D01*
X7163357Y-18366786D01*
X7153833Y-18404881D01*
X7144309Y-18423929D01*
X7134786Y-18433452D01*
X7115738Y-18442976D01*
X7096690Y-18442976D01*
X7077643Y-18433452D01*
X7068119Y-18423929D01*
X7058595Y-18404881D01*
X7049071Y-18366786D01*
X7049071Y-18319167D01*
X7058595Y-18281071D01*
X7068119Y-18262024D01*
X7077643Y-18252500D01*
X7096690Y-18242976D01*
X7230024Y-18242976D02*
X7363357Y-18242976D01*
X7277643Y-18442976D01*
X7468119Y-18328690D02*
X7449071Y-18319167D01*
X7439548Y-18309643D01*
X7430024Y-18290595D01*
X7430024Y-18281071D01*
X7439548Y-18262024D01*
X7449071Y-18252500D01*
X7468119Y-18242976D01*
X7506214Y-18242976D01*
X7525262Y-18252500D01*
X7534786Y-18262024D01*
X7544309Y-18281071D01*
X7544309Y-18290595D01*
X7534786Y-18309643D01*
X7525262Y-18319167D01*
X7506214Y-18328690D01*
X7468119Y-18328690D01*
X7449071Y-18338214D01*
X7439548Y-18347738D01*
X7430024Y-18366786D01*
X7430024Y-18404881D01*
X7439548Y-18423929D01*
X7449071Y-18433452D01*
X7468119Y-18442976D01*
X7506214Y-18442976D01*
X7525262Y-18433452D01*
X7534786Y-18423929D01*
X7544309Y-18404881D01*
X7544309Y-18366786D01*
X7534786Y-18347738D01*
X7525262Y-18338214D01*
X7506214Y-18328690D01*
X7610976Y-18242976D02*
X7744309Y-18242976D01*
X7658595Y-18442976D01*
X7810976Y-18242976D02*
X7810976Y-18281071D01*
X7887167Y-18242976D02*
X7887167Y-18281071D01*
X8182405Y-18519167D02*
X8172881Y-18509643D01*
X8153833Y-18481071D01*
X8144309Y-18462024D01*
X8134786Y-18433452D01*
X8125262Y-18385833D01*
X8125262Y-18347738D01*
X8134786Y-18300119D01*
X8144309Y-18271548D01*
X8153833Y-18252500D01*
X8172881Y-18223929D01*
X8182405Y-18214405D01*
X8249071Y-18262024D02*
X8258595Y-18252500D01*
X8277643Y-18242976D01*
X8325262Y-18242976D01*
X8344309Y-18252500D01*
X8353833Y-18262024D01*
X8363357Y-18281071D01*
X8363357Y-18300119D01*
X8353833Y-18328690D01*
X8239548Y-18442976D01*
X8363357Y-18442976D01*
X8601452Y-18442976D02*
X8601452Y-18242976D01*
X8687167Y-18442976D02*
X8687167Y-18338214D01*
X8677643Y-18319167D01*
X8658595Y-18309643D01*
X8630024Y-18309643D01*
X8610976Y-18319167D01*
X8601452Y-18328690D01*
X8810976Y-18442976D02*
X8791929Y-18433452D01*
X8782405Y-18423929D01*
X8772881Y-18404881D01*
X8772881Y-18347738D01*
X8782405Y-18328690D01*
X8791929Y-18319167D01*
X8810976Y-18309643D01*
X8839548Y-18309643D01*
X8858595Y-18319167D01*
X8868119Y-18328690D01*
X8877643Y-18347738D01*
X8877643Y-18404881D01*
X8868119Y-18423929D01*
X8858595Y-18433452D01*
X8839548Y-18442976D01*
X8810976Y-18442976D01*
X8991929Y-18442976D02*
X8972881Y-18433452D01*
X8963357Y-18414405D01*
X8963357Y-18242976D01*
X9144310Y-18433452D02*
X9125262Y-18442976D01*
X9087167Y-18442976D01*
X9068119Y-18433452D01*
X9058595Y-18414405D01*
X9058595Y-18338214D01*
X9068119Y-18319167D01*
X9087167Y-18309643D01*
X9125262Y-18309643D01*
X9144310Y-18319167D01*
X9153833Y-18338214D01*
X9153833Y-18357262D01*
X9058595Y-18376310D01*
X9230024Y-18433452D02*
X9249071Y-18442976D01*
X9287167Y-18442976D01*
X9306214Y-18433452D01*
X9315738Y-18414405D01*
X9315738Y-18404881D01*
X9306214Y-18385833D01*
X9287167Y-18376310D01*
X9258595Y-18376310D01*
X9239548Y-18366786D01*
X9230024Y-18347738D01*
X9230024Y-18338214D01*
X9239548Y-18319167D01*
X9258595Y-18309643D01*
X9287167Y-18309643D01*
X9306214Y-18319167D01*
X9382405Y-18519167D02*
X9391929Y-18509643D01*
X9410976Y-18481071D01*
X9420500Y-18462024D01*
X9430024Y-18433452D01*
X9439548Y-18385833D01*
X9439548Y-18347738D01*
X9430024Y-18300119D01*
X9420500Y-18271548D01*
X9410976Y-18252500D01*
X9391929Y-18223929D01*
X9382405Y-18214405D01*
X4410500Y-18572500D02*
X4610500Y-18772500D01*
X4610500Y-18572500D02*
X4410500Y-18772500D01*
X4510500Y-18772500D02*
X4610500Y-18672500D01*
X4510500Y-18572500D01*
X4410500Y-18672500D01*
X4510500Y-18772500D01*
X4849071Y-18562976D02*
X4972881Y-18562976D01*
X4906214Y-18639167D01*
X4934786Y-18639167D01*
X4953833Y-18648690D01*
X4963357Y-18658214D01*
X4972881Y-18677262D01*
X4972881Y-18724881D01*
X4963357Y-18743929D01*
X4953833Y-18753452D01*
X4934786Y-18762976D01*
X4877643Y-18762976D01*
X4858595Y-18753452D01*
X4849071Y-18743929D01*
X5058595Y-18743929D02*
X5068119Y-18753452D01*
X5058595Y-18762976D01*
X5049071Y-18753452D01*
X5058595Y-18743929D01*
X5058595Y-18762976D01*
X5144310Y-18582024D02*
X5153833Y-18572500D01*
X5172881Y-18562976D01*
X5220500Y-18562976D01*
X5239548Y-18572500D01*
X5249071Y-18582024D01*
X5258595Y-18601071D01*
X5258595Y-18620119D01*
X5249071Y-18648690D01*
X5134786Y-18762976D01*
X5258595Y-18762976D01*
X5382405Y-18562976D02*
X5401452Y-18562976D01*
X5420500Y-18572500D01*
X5430024Y-18582024D01*
X5439548Y-18601071D01*
X5449071Y-18639167D01*
X5449071Y-18686786D01*
X5439548Y-18724881D01*
X5430024Y-18743929D01*
X5420500Y-18753452D01*
X5401452Y-18762976D01*
X5382405Y-18762976D01*
X5363357Y-18753452D01*
X5353833Y-18743929D01*
X5344310Y-18724881D01*
X5334786Y-18686786D01*
X5334786Y-18639167D01*
X5344310Y-18601071D01*
X5353833Y-18582024D01*
X5363357Y-18572500D01*
X5382405Y-18562976D01*
X5572881Y-18562976D02*
X5591929Y-18562976D01*
X5610976Y-18572500D01*
X5620500Y-18582024D01*
X5630024Y-18601071D01*
X5639548Y-18639167D01*
X5639548Y-18686786D01*
X5630024Y-18724881D01*
X5620500Y-18743929D01*
X5610976Y-18753452D01*
X5591929Y-18762976D01*
X5572881Y-18762976D01*
X5553833Y-18753452D01*
X5544310Y-18743929D01*
X5534786Y-18724881D01*
X5525262Y-18686786D01*
X5525262Y-18639167D01*
X5534786Y-18601071D01*
X5544310Y-18582024D01*
X5553833Y-18572500D01*
X5572881Y-18562976D01*
X5725262Y-18762976D02*
X5725262Y-18629643D01*
X5725262Y-18648690D02*
X5734786Y-18639167D01*
X5753833Y-18629643D01*
X5782405Y-18629643D01*
X5801452Y-18639167D01*
X5810976Y-18658214D01*
X5810976Y-18762976D01*
X5810976Y-18658214D02*
X5820500Y-18639167D01*
X5839548Y-18629643D01*
X5868119Y-18629643D01*
X5887167Y-18639167D01*
X5896690Y-18658214D01*
X5896690Y-18762976D01*
X5991928Y-18762976D02*
X5991928Y-18629643D01*
X5991928Y-18648690D02*
X6001452Y-18639167D01*
X6020500Y-18629643D01*
X6049071Y-18629643D01*
X6068119Y-18639167D01*
X6077643Y-18658214D01*
X6077643Y-18762976D01*
X6077643Y-18658214D02*
X6087167Y-18639167D01*
X6106214Y-18629643D01*
X6134786Y-18629643D01*
X6153833Y-18639167D01*
X6163357Y-18658214D01*
X6163357Y-18762976D01*
X6553833Y-18553452D02*
X6382405Y-18810595D01*
X6810976Y-18562976D02*
X6830024Y-18562976D01*
X6849071Y-18572500D01*
X6858595Y-18582024D01*
X6868119Y-18601071D01*
X6877643Y-18639167D01*
X6877643Y-18686786D01*
X6868119Y-18724881D01*
X6858595Y-18743929D01*
X6849071Y-18753452D01*
X6830024Y-18762976D01*
X6810976Y-18762976D01*
X6791928Y-18753452D01*
X6782405Y-18743929D01*
X6772881Y-18724881D01*
X6763357Y-18686786D01*
X6763357Y-18639167D01*
X6772881Y-18601071D01*
X6782405Y-18582024D01*
X6791928Y-18572500D01*
X6810976Y-18562976D01*
X6963357Y-18743929D02*
X6972881Y-18753452D01*
X6963357Y-18762976D01*
X6953833Y-18753452D01*
X6963357Y-18743929D01*
X6963357Y-18762976D01*
X7163357Y-18762976D02*
X7049071Y-18762976D01*
X7106214Y-18762976D02*
X7106214Y-18562976D01*
X7087167Y-18591548D01*
X7068119Y-18610595D01*
X7049071Y-18620119D01*
X7239548Y-18582024D02*
X7249071Y-18572500D01*
X7268119Y-18562976D01*
X7315738Y-18562976D01*
X7334786Y-18572500D01*
X7344309Y-18582024D01*
X7353833Y-18601071D01*
X7353833Y-18620119D01*
X7344309Y-18648690D01*
X7230024Y-18762976D01*
X7353833Y-18762976D01*
X7525262Y-18562976D02*
X7487167Y-18562976D01*
X7468119Y-18572500D01*
X7458595Y-18582024D01*
X7439548Y-18610595D01*
X7430024Y-18648690D01*
X7430024Y-18724881D01*
X7439548Y-18743929D01*
X7449071Y-18753452D01*
X7468119Y-18762976D01*
X7506214Y-18762976D01*
X7525262Y-18753452D01*
X7534786Y-18743929D01*
X7544309Y-18724881D01*
X7544309Y-18677262D01*
X7534786Y-18658214D01*
X7525262Y-18648690D01*
X7506214Y-18639167D01*
X7468119Y-18639167D01*
X7449071Y-18648690D01*
X7439548Y-18658214D01*
X7430024Y-18677262D01*
X7668119Y-18562976D02*
X7687167Y-18562976D01*
X7706214Y-18572500D01*
X7715738Y-18582024D01*
X7725262Y-18601071D01*
X7734786Y-18639167D01*
X7734786Y-18686786D01*
X7725262Y-18724881D01*
X7715738Y-18743929D01*
X7706214Y-18753452D01*
X7687167Y-18762976D01*
X7668119Y-18762976D01*
X7649071Y-18753452D01*
X7639548Y-18743929D01*
X7630024Y-18724881D01*
X7620500Y-18686786D01*
X7620500Y-18639167D01*
X7630024Y-18601071D01*
X7639548Y-18582024D01*
X7649071Y-18572500D01*
X7668119Y-18562976D01*
X7810976Y-18562976D02*
X7810976Y-18601071D01*
X7887167Y-18562976D02*
X7887167Y-18601071D01*
X8182405Y-18839167D02*
X8172881Y-18829643D01*
X8153833Y-18801071D01*
X8144309Y-18782024D01*
X8134786Y-18753452D01*
X8125262Y-18705833D01*
X8125262Y-18667738D01*
X8134786Y-18620119D01*
X8144309Y-18591548D01*
X8153833Y-18572500D01*
X8172881Y-18543929D01*
X8182405Y-18534405D01*
X8344309Y-18562976D02*
X8306214Y-18562976D01*
X8287167Y-18572500D01*
X8277643Y-18582024D01*
X8258595Y-18610595D01*
X8249071Y-18648690D01*
X8249071Y-18724881D01*
X8258595Y-18743929D01*
X8268119Y-18753452D01*
X8287167Y-18762976D01*
X8325262Y-18762976D01*
X8344309Y-18753452D01*
X8353833Y-18743929D01*
X8363357Y-18724881D01*
X8363357Y-18677262D01*
X8353833Y-18658214D01*
X8344309Y-18648690D01*
X8325262Y-18639167D01*
X8287167Y-18639167D01*
X8268119Y-18648690D01*
X8258595Y-18658214D01*
X8249071Y-18677262D01*
X8601452Y-18762976D02*
X8601452Y-18562976D01*
X8687167Y-18762976D02*
X8687167Y-18658214D01*
X8677643Y-18639167D01*
X8658595Y-18629643D01*
X8630024Y-18629643D01*
X8610976Y-18639167D01*
X8601452Y-18648690D01*
X8810976Y-18762976D02*
X8791929Y-18753452D01*
X8782405Y-18743929D01*
X8772881Y-18724881D01*
X8772881Y-18667738D01*
X8782405Y-18648690D01*
X8791929Y-18639167D01*
X8810976Y-18629643D01*
X8839548Y-18629643D01*
X8858595Y-18639167D01*
X8868119Y-18648690D01*
X8877643Y-18667738D01*
X8877643Y-18724881D01*
X8868119Y-18743929D01*
X8858595Y-18753452D01*
X8839548Y-18762976D01*
X8810976Y-18762976D01*
X8991929Y-18762976D02*
X8972881Y-18753452D01*
X8963357Y-18734405D01*
X8963357Y-18562976D01*
X9144310Y-18753452D02*
X9125262Y-18762976D01*
X9087167Y-18762976D01*
X9068119Y-18753452D01*
X9058595Y-18734405D01*
X9058595Y-18658214D01*
X9068119Y-18639167D01*
X9087167Y-18629643D01*
X9125262Y-18629643D01*
X9144310Y-18639167D01*
X9153833Y-18658214D01*
X9153833Y-18677262D01*
X9058595Y-18696310D01*
X9230024Y-18753452D02*
X9249071Y-18762976D01*
X9287167Y-18762976D01*
X9306214Y-18753452D01*
X9315738Y-18734405D01*
X9315738Y-18724881D01*
X9306214Y-18705833D01*
X9287167Y-18696310D01*
X9258595Y-18696310D01*
X9239548Y-18686786D01*
X9230024Y-18667738D01*
X9230024Y-18658214D01*
X9239548Y-18639167D01*
X9258595Y-18629643D01*
X9287167Y-18629643D01*
X9306214Y-18639167D01*
X9382405Y-18839167D02*
X9391929Y-18829643D01*
X9410976Y-18801071D01*
X9420500Y-18782024D01*
X9430024Y-18753452D01*
X9439548Y-18705833D01*
X9439548Y-18667738D01*
X9430024Y-18620119D01*
X9420500Y-18591548D01*
X9410976Y-18572500D01*
X9391929Y-18543929D01*
X9382405Y-18534405D01*
M02*
