G04 #@! TF.GenerationSoftware,KiCad,Pcbnew,(6.0.11)*
G04 #@! TF.CreationDate,2024-04-02T11:50:41-04:00*
G04 #@! TF.ProjectId,DAISY256,44414953-5932-4353-962e-6b696361645f,rev?*
G04 #@! TF.SameCoordinates,Original*
G04 #@! TF.FileFunction,Copper,L2,Bot*
G04 #@! TF.FilePolarity,Positive*
%FSLAX46Y46*%
G04 Gerber Fmt 4.6, Leading zero omitted, Abs format (unit mm)*
G04 Created by KiCad (PCBNEW (6.0.11)) date 2024-04-02 11:50:41*
%MOMM*%
%LPD*%
G01*
G04 APERTURE LIST*
G04 Aperture macros list*
%AMRoundRect*
0 Rectangle with rounded corners*
0 $1 Rounding radius*
0 $2 $3 $4 $5 $6 $7 $8 $9 X,Y pos of 4 corners*
0 Add a 4 corners polygon primitive as box body*
4,1,4,$2,$3,$4,$5,$6,$7,$8,$9,$2,$3,0*
0 Add four circle primitives for the rounded corners*
1,1,$1+$1,$2,$3*
1,1,$1+$1,$4,$5*
1,1,$1+$1,$6,$7*
1,1,$1+$1,$8,$9*
0 Add four rect primitives between the rounded corners*
20,1,$1+$1,$2,$3,$4,$5,0*
20,1,$1+$1,$4,$5,$6,$7,0*
20,1,$1+$1,$6,$7,$8,$9,0*
20,1,$1+$1,$8,$9,$2,$3,0*%
G04 Aperture macros list end*
G04 #@! TA.AperFunction,ComponentPad*
%ADD10C,1.500000*%
G04 #@! TD*
G04 #@! TA.AperFunction,ComponentPad*
%ADD11R,2.400000X1.600000*%
G04 #@! TD*
G04 #@! TA.AperFunction,ComponentPad*
%ADD12O,2.400000X1.600000*%
G04 #@! TD*
G04 #@! TA.AperFunction,ComponentPad*
%ADD13C,1.600000*%
G04 #@! TD*
G04 #@! TA.AperFunction,ComponentPad*
%ADD14O,1.600000X1.600000*%
G04 #@! TD*
G04 #@! TA.AperFunction,ComponentPad*
%ADD15C,1.800000*%
G04 #@! TD*
G04 #@! TA.AperFunction,ComponentPad*
%ADD16C,4.600000*%
G04 #@! TD*
G04 #@! TA.AperFunction,ComponentPad*
%ADD17O,3.000000X2.000000*%
G04 #@! TD*
G04 #@! TA.AperFunction,ComponentPad*
%ADD18O,2.000000X3.000000*%
G04 #@! TD*
G04 #@! TA.AperFunction,ComponentPad*
%ADD19O,2.999999X2.000000*%
G04 #@! TD*
G04 #@! TA.AperFunction,ComponentPad*
%ADD20R,3.500000X3.500000*%
G04 #@! TD*
G04 #@! TA.AperFunction,ComponentPad*
%ADD21RoundRect,0.750000X-0.750000X-1.000000X0.750000X-1.000000X0.750000X1.000000X-0.750000X1.000000X0*%
G04 #@! TD*
G04 #@! TA.AperFunction,ComponentPad*
%ADD22RoundRect,0.875000X-0.875000X-0.875000X0.875000X-0.875000X0.875000X0.875000X-0.875000X0.875000X0*%
G04 #@! TD*
G04 #@! TA.AperFunction,ComponentPad*
%ADD23R,1.600000X1.600000*%
G04 #@! TD*
G04 #@! TA.AperFunction,ComponentPad*
%ADD24C,4.000000*%
G04 #@! TD*
G04 #@! TA.AperFunction,ComponentPad*
%ADD25C,2.000000*%
G04 #@! TD*
G04 #@! TA.AperFunction,ComponentPad*
%ADD26R,1.700000X1.700000*%
G04 #@! TD*
G04 #@! TA.AperFunction,ComponentPad*
%ADD27O,1.700000X1.700000*%
G04 #@! TD*
G04 #@! TA.AperFunction,ComponentPad*
%ADD28R,1.800000X1.800000*%
G04 #@! TD*
G04 #@! TA.AperFunction,ComponentPad*
%ADD29RoundRect,0.250000X-0.845000X0.620000X-0.845000X-0.620000X0.845000X-0.620000X0.845000X0.620000X0*%
G04 #@! TD*
G04 #@! TA.AperFunction,ComponentPad*
%ADD30O,2.190000X1.740000*%
G04 #@! TD*
G04 #@! TA.AperFunction,ComponentPad*
%ADD31R,1.600000X2.400000*%
G04 #@! TD*
G04 #@! TA.AperFunction,ComponentPad*
%ADD32O,1.600000X2.400000*%
G04 #@! TD*
G04 #@! TA.AperFunction,ComponentPad*
%ADD33C,6.400000*%
G04 #@! TD*
G04 #@! TA.AperFunction,ComponentPad*
%ADD34C,0.600000*%
G04 #@! TD*
G04 #@! TA.AperFunction,ViaPad*
%ADD35C,0.800000*%
G04 #@! TD*
G04 #@! TA.AperFunction,Conductor*
%ADD36C,0.250000*%
G04 #@! TD*
G04 #@! TA.AperFunction,Conductor*
%ADD37C,1.000000*%
G04 #@! TD*
G04 APERTURE END LIST*
G36*
X158550000Y-78850000D02*
G01*
X157950000Y-78850000D01*
X157950000Y-77650000D01*
X158550000Y-77650000D01*
X158550000Y-78850000D01*
G37*
D10*
X123444000Y-89361000D03*
X123444000Y-84481000D03*
X53000000Y-128970000D03*
X53000000Y-133850000D03*
D11*
X141856000Y-127495000D03*
D12*
X141856000Y-130035000D03*
X141856000Y-132575000D03*
X141856000Y-135115000D03*
X141856000Y-137655000D03*
X141856000Y-140195000D03*
X141856000Y-142735000D03*
X141856000Y-145275000D03*
X141856000Y-147815000D03*
X141856000Y-150355000D03*
X141856000Y-152895000D03*
X141856000Y-155435000D03*
X157096000Y-155435000D03*
X157096000Y-152895000D03*
X157096000Y-150355000D03*
X157096000Y-147815000D03*
X157096000Y-145275000D03*
X157096000Y-142735000D03*
X157096000Y-140195000D03*
X157096000Y-137655000D03*
X157096000Y-135115000D03*
X157096000Y-132575000D03*
X157096000Y-130035000D03*
X157096000Y-127495000D03*
D11*
X165012000Y-72350000D03*
D12*
X165012000Y-74890000D03*
X165012000Y-77430000D03*
X165012000Y-79970000D03*
X172632000Y-79970000D03*
X172632000Y-77430000D03*
X172632000Y-74890000D03*
X172632000Y-72350000D03*
D11*
X92355000Y-103350000D03*
D12*
X92355000Y-105890000D03*
X92355000Y-108430000D03*
X92355000Y-110970000D03*
X92355000Y-113510000D03*
X92355000Y-116050000D03*
X92355000Y-118590000D03*
X92355000Y-121130000D03*
X99975000Y-121130000D03*
X99975000Y-118590000D03*
X99975000Y-116050000D03*
X99975000Y-113510000D03*
X99975000Y-110970000D03*
X99975000Y-108430000D03*
X99975000Y-105890000D03*
X99975000Y-103350000D03*
D11*
X80880000Y-103420000D03*
D12*
X80880000Y-105960000D03*
X80880000Y-108500000D03*
X80880000Y-111040000D03*
X80880000Y-113580000D03*
X80880000Y-116120000D03*
X80880000Y-118660000D03*
X80880000Y-121200000D03*
X80880000Y-123740000D03*
X80880000Y-126280000D03*
X88500000Y-126280000D03*
X88500000Y-123740000D03*
X88500000Y-121200000D03*
X88500000Y-118660000D03*
X88500000Y-116120000D03*
X88500000Y-113580000D03*
X88500000Y-111040000D03*
X88500000Y-108500000D03*
X88500000Y-105960000D03*
X88500000Y-103420000D03*
D13*
X95430000Y-129750000D03*
X100430000Y-129750000D03*
X122205000Y-103470000D03*
X122205000Y-98470000D03*
D11*
X80905000Y-135750000D03*
D12*
X80905000Y-138290000D03*
X80905000Y-140830000D03*
X80905000Y-143370000D03*
X80905000Y-145910000D03*
X80905000Y-148450000D03*
X80905000Y-150990000D03*
X88525000Y-150990000D03*
X88525000Y-148450000D03*
X88525000Y-145910000D03*
X88525000Y-143370000D03*
X88525000Y-140830000D03*
X88525000Y-138290000D03*
X88525000Y-135750000D03*
D13*
X133680000Y-124220000D03*
X138680000Y-124220000D03*
X84000000Y-132580000D03*
X89000000Y-132580000D03*
X126705000Y-94545000D03*
X121705000Y-94545000D03*
X126705000Y-79250000D03*
X121705000Y-79250000D03*
D11*
X141258000Y-77960000D03*
D12*
X141258000Y-80500000D03*
X141258000Y-83040000D03*
X141258000Y-85580000D03*
X141258000Y-88120000D03*
X141258000Y-90660000D03*
X141258000Y-93200000D03*
X148878000Y-93200000D03*
X148878000Y-90660000D03*
X148878000Y-88120000D03*
X148878000Y-85580000D03*
X148878000Y-83040000D03*
X148878000Y-80500000D03*
X148878000Y-77960000D03*
D13*
X152180000Y-92160000D03*
X152180000Y-97160000D03*
X169500000Y-84500000D03*
X164500000Y-84500000D03*
X49680000Y-138970000D03*
X54680000Y-138970000D03*
X49680000Y-123750000D03*
X54680000Y-123750000D03*
X174250000Y-142470000D03*
X174250000Y-137470000D03*
X188250000Y-149970000D03*
X188250000Y-144970000D03*
X180180000Y-134500000D03*
X185180000Y-134500000D03*
X122180000Y-113720000D03*
X122180000Y-108720000D03*
X75680000Y-132970000D03*
X75680000Y-127970000D03*
X152180000Y-123970000D03*
X157180000Y-123970000D03*
X95250000Y-100080000D03*
X100250000Y-100080000D03*
X188250000Y-142470000D03*
X188250000Y-137470000D03*
X174250000Y-149970000D03*
X174250000Y-144970000D03*
D11*
X122806000Y-127495000D03*
D12*
X122806000Y-130035000D03*
X122806000Y-132575000D03*
X122806000Y-135115000D03*
X122806000Y-137655000D03*
X122806000Y-140195000D03*
X122806000Y-142735000D03*
X122806000Y-145275000D03*
X122806000Y-147815000D03*
X122806000Y-150355000D03*
X122806000Y-152895000D03*
X122806000Y-155435000D03*
X138046000Y-155435000D03*
X138046000Y-152895000D03*
X138046000Y-150355000D03*
X138046000Y-147815000D03*
X138046000Y-145275000D03*
X138046000Y-142735000D03*
X138046000Y-140195000D03*
X138046000Y-137655000D03*
X138046000Y-135115000D03*
X138046000Y-132575000D03*
X138046000Y-130035000D03*
X138046000Y-127495000D03*
D11*
X57361000Y-89550000D03*
D12*
X57361000Y-92090000D03*
X57361000Y-94630000D03*
X57361000Y-97170000D03*
X57361000Y-99710000D03*
X57361000Y-102250000D03*
X57361000Y-104790000D03*
X57361000Y-107330000D03*
X57361000Y-109870000D03*
X57361000Y-112410000D03*
X57361000Y-114950000D03*
X57361000Y-117490000D03*
X57361000Y-120030000D03*
X57361000Y-122570000D03*
X57361000Y-125110000D03*
X57361000Y-127650000D03*
X57361000Y-130190000D03*
X57361000Y-132730000D03*
X57361000Y-135270000D03*
X57361000Y-137810000D03*
X72601000Y-137810000D03*
X72601000Y-135270000D03*
X72601000Y-132730000D03*
X72601000Y-130190000D03*
X72601000Y-127650000D03*
X72601000Y-125110000D03*
X72601000Y-122570000D03*
X72601000Y-120030000D03*
X72601000Y-117490000D03*
X72601000Y-114950000D03*
X72601000Y-112410000D03*
X72601000Y-109870000D03*
X72601000Y-107330000D03*
X72601000Y-104790000D03*
X72601000Y-102250000D03*
X72601000Y-99710000D03*
X72601000Y-97170000D03*
X72601000Y-94630000D03*
X72601000Y-92090000D03*
X72601000Y-89550000D03*
D13*
X179310000Y-84500000D03*
D14*
X171690000Y-84500000D03*
D13*
X92060000Y-156750000D03*
D14*
X99680000Y-156750000D03*
D13*
X74180000Y-77993000D03*
D14*
X74180000Y-85613000D03*
D15*
X192350000Y-72250000D03*
D16*
X189050000Y-69850000D03*
X189050000Y-82150000D03*
D15*
X192350000Y-79750000D03*
X192350000Y-77250000D03*
X192350000Y-74750000D03*
D17*
X197930000Y-98186000D03*
D18*
X202930000Y-93186000D03*
D17*
X197930000Y-88186000D03*
D19*
X197930000Y-90686000D03*
D20*
X60815500Y-76292500D03*
D21*
X54815500Y-76292500D03*
D22*
X57815500Y-80992500D03*
D23*
X176702900Y-79000000D03*
D13*
X179202900Y-79000000D03*
X133180000Y-81082000D03*
X133180000Y-86082000D03*
X133180000Y-88470000D03*
X133180000Y-93470000D03*
X152180000Y-89620000D03*
X152180000Y-84620000D03*
X134180000Y-74720000D03*
X139180000Y-74720000D03*
X157180000Y-89310000D03*
D14*
X157180000Y-81690000D03*
D13*
X152180000Y-77304000D03*
X152180000Y-82304000D03*
X157180000Y-91660000D03*
D14*
X157180000Y-99280000D03*
D13*
X137939000Y-84970000D03*
D14*
X137939000Y-77350000D03*
D13*
X141629000Y-97660000D03*
D14*
X149249000Y-97660000D03*
D13*
X137939000Y-94970000D03*
D14*
X137939000Y-87350000D03*
D24*
X196919700Y-144960000D03*
X196919700Y-119960000D03*
D23*
X195499700Y-126920000D03*
D13*
X195499700Y-129690000D03*
X195499700Y-132460000D03*
X195499700Y-135230000D03*
X195499700Y-138000000D03*
X198339700Y-128305000D03*
X198339700Y-131075000D03*
X198339700Y-133845000D03*
X198339700Y-136615000D03*
D11*
X103632000Y-85805000D03*
D12*
X103632000Y-88345000D03*
X103632000Y-90885000D03*
X103632000Y-93425000D03*
X103632000Y-95965000D03*
X103632000Y-98505000D03*
X103632000Y-101045000D03*
X103632000Y-103585000D03*
X103632000Y-106125000D03*
X103632000Y-108665000D03*
X103632000Y-111205000D03*
X103632000Y-113745000D03*
X103632000Y-116285000D03*
X103632000Y-118825000D03*
X118872000Y-118825000D03*
X118872000Y-116285000D03*
X118872000Y-113745000D03*
X118872000Y-111205000D03*
X118872000Y-108665000D03*
X118872000Y-106125000D03*
X118872000Y-103585000D03*
X118872000Y-101045000D03*
X118872000Y-98505000D03*
X118872000Y-95965000D03*
X118872000Y-93425000D03*
X118872000Y-90885000D03*
X118872000Y-88345000D03*
X118872000Y-85805000D03*
D11*
X177485000Y-137765000D03*
D12*
X177485000Y-140305000D03*
X177485000Y-142845000D03*
X177485000Y-145385000D03*
X177485000Y-147925000D03*
X177485000Y-150465000D03*
X177485000Y-153005000D03*
X177485000Y-155545000D03*
X185105000Y-155545000D03*
X185105000Y-153005000D03*
X185105000Y-150465000D03*
X185105000Y-147925000D03*
X185105000Y-145385000D03*
X185105000Y-142845000D03*
X185105000Y-140305000D03*
X185105000Y-137765000D03*
D13*
X149180000Y-74720000D03*
X144180000Y-74720000D03*
D23*
X66200500Y-81720000D03*
D13*
X68700500Y-81720000D03*
X75680000Y-125470000D03*
D14*
X75680000Y-117850000D03*
D25*
X71930000Y-74970000D03*
X65430000Y-74970000D03*
X65430000Y-70470000D03*
X71930000Y-70470000D03*
D26*
X76180000Y-113785000D03*
D27*
X76180000Y-111245000D03*
D28*
X59935000Y-63220000D03*
D15*
X57395000Y-63220000D03*
D13*
X71240000Y-63720000D03*
D14*
X63620000Y-63720000D03*
D26*
X122390000Y-123970000D03*
D27*
X124930000Y-123970000D03*
X127470000Y-123970000D03*
D23*
X176292100Y-72500000D03*
D13*
X178292100Y-72500000D03*
D29*
X202480000Y-104480000D03*
D30*
X202480000Y-107020000D03*
D23*
X138064200Y-112269300D03*
D13*
X140064200Y-112269300D03*
D11*
X143505100Y-108155100D03*
D12*
X143505100Y-110695100D03*
X143505100Y-113235100D03*
X143505100Y-115775100D03*
X151125100Y-115775100D03*
X151125100Y-113235100D03*
X151125100Y-110695100D03*
X151125100Y-108155100D03*
D23*
X154589800Y-114750000D03*
D13*
X156589800Y-114750000D03*
D23*
X154404000Y-107530000D03*
D13*
X156904000Y-107530000D03*
D31*
X58125000Y-152050000D03*
D32*
X60665000Y-152050000D03*
X63205000Y-152050000D03*
X65745000Y-152050000D03*
X68285000Y-152050000D03*
X70825000Y-152050000D03*
X73365000Y-152050000D03*
X73365000Y-144430000D03*
X70825000Y-144430000D03*
X68285000Y-144430000D03*
X65745000Y-144430000D03*
X63205000Y-144430000D03*
X60665000Y-144430000D03*
X58125000Y-144430000D03*
D26*
X76180000Y-92675000D03*
D27*
X76180000Y-95215000D03*
D33*
X51180000Y-153742200D03*
D26*
X81975000Y-62375000D03*
D27*
X84515000Y-62375000D03*
X81975000Y-64915000D03*
X84515000Y-64915000D03*
X81975000Y-67455000D03*
X84515000Y-67455000D03*
X81975000Y-69995000D03*
X84515000Y-69995000D03*
X81975000Y-72535000D03*
X84515000Y-72535000D03*
X81975000Y-75075000D03*
X84515000Y-75075000D03*
X81975000Y-77615000D03*
X84515000Y-77615000D03*
X81975000Y-80155000D03*
X84515000Y-80155000D03*
D31*
X163420000Y-98750000D03*
D32*
X165960000Y-98750000D03*
X168500000Y-98750000D03*
X171040000Y-98750000D03*
X173580000Y-98750000D03*
X176120000Y-98750000D03*
X178660000Y-98750000D03*
X178660000Y-91130000D03*
X176120000Y-91130000D03*
X173580000Y-91130000D03*
X171040000Y-91130000D03*
X168500000Y-91130000D03*
X165960000Y-91130000D03*
X163420000Y-91130000D03*
D13*
X109750000Y-67470000D03*
X114750000Y-67470000D03*
X89180000Y-76705000D03*
D14*
X89180000Y-69085000D03*
D26*
X82000000Y-86500000D03*
D27*
X84540000Y-86500000D03*
X82000000Y-89040000D03*
X84540000Y-89040000D03*
X82000000Y-91580000D03*
X84540000Y-91580000D03*
X82000000Y-94120000D03*
X84540000Y-94120000D03*
D11*
X126700000Y-100350000D03*
D12*
X126700000Y-102890000D03*
X126700000Y-105430000D03*
X126700000Y-107970000D03*
X126700000Y-110510000D03*
X126700000Y-113050000D03*
X126700000Y-115590000D03*
X126700000Y-118130000D03*
X134320000Y-118130000D03*
X134320000Y-115590000D03*
X134320000Y-113050000D03*
X134320000Y-110510000D03*
X134320000Y-107970000D03*
X134320000Y-105430000D03*
X134320000Y-102890000D03*
X134320000Y-100350000D03*
D11*
X161950000Y-132575000D03*
D12*
X161950000Y-135115000D03*
X161950000Y-137655000D03*
X161950000Y-140195000D03*
X161950000Y-142735000D03*
X161950000Y-145275000D03*
X161950000Y-147815000D03*
X161950000Y-150355000D03*
X161950000Y-152895000D03*
X161950000Y-155435000D03*
X169570000Y-155435000D03*
X169570000Y-152895000D03*
X169570000Y-150355000D03*
X169570000Y-147815000D03*
X169570000Y-145275000D03*
X169570000Y-142735000D03*
X169570000Y-140195000D03*
X169570000Y-137655000D03*
X169570000Y-135115000D03*
X169570000Y-132575000D03*
D11*
X92355000Y-133301000D03*
D12*
X92355000Y-135841000D03*
X92355000Y-138381000D03*
X92355000Y-140921000D03*
X92355000Y-143461000D03*
X92355000Y-146001000D03*
X92355000Y-148541000D03*
X92355000Y-151081000D03*
X99975000Y-151081000D03*
X99975000Y-148541000D03*
X99975000Y-146001000D03*
X99975000Y-143461000D03*
X99975000Y-140921000D03*
X99975000Y-138381000D03*
X99975000Y-135841000D03*
X99975000Y-133301000D03*
D13*
X53680000Y-99310000D03*
D14*
X53680000Y-91690000D03*
D11*
X183200000Y-108600000D03*
D12*
X183200000Y-111140000D03*
X183200000Y-113680000D03*
X183200000Y-116220000D03*
X183200000Y-118760000D03*
X183200000Y-121300000D03*
X183200000Y-123840000D03*
X183200000Y-126380000D03*
X190820000Y-126380000D03*
X190820000Y-123840000D03*
X190820000Y-121300000D03*
X190820000Y-118760000D03*
X190820000Y-116220000D03*
X190820000Y-113680000D03*
X190820000Y-111140000D03*
X190820000Y-108600000D03*
D13*
X53680000Y-109310000D03*
D14*
X53680000Y-101690000D03*
D13*
X49180000Y-99310000D03*
D14*
X49180000Y-91690000D03*
D26*
X50225000Y-88500000D03*
D27*
X52765000Y-88500000D03*
D13*
X49180000Y-109310000D03*
D14*
X49180000Y-101690000D03*
D33*
X201180000Y-63496000D03*
D13*
X47690000Y-85000000D03*
D14*
X55310000Y-85000000D03*
D13*
X114180000Y-124250000D03*
X119180000Y-124250000D03*
X83500000Y-100250000D03*
X88500000Y-100250000D03*
X53680000Y-119310000D03*
D14*
X53680000Y-111690000D03*
D11*
X107450000Y-71200000D03*
D12*
X107450000Y-73740000D03*
X107450000Y-76280000D03*
X107450000Y-78820000D03*
X115070000Y-78820000D03*
X115070000Y-76280000D03*
X115070000Y-73740000D03*
X115070000Y-71200000D03*
D13*
X49180000Y-119310000D03*
D14*
X49180000Y-111690000D03*
D34*
X158250000Y-78850000D03*
X158250000Y-77650000D03*
D33*
X201180000Y-153742200D03*
D13*
X75680000Y-106780000D03*
D14*
X75680000Y-99160000D03*
D11*
X103680000Y-127495000D03*
D12*
X103680000Y-130035000D03*
X103680000Y-132575000D03*
X103680000Y-135115000D03*
X103680000Y-137655000D03*
X103680000Y-140195000D03*
X103680000Y-142735000D03*
X103680000Y-145275000D03*
X103680000Y-147815000D03*
X103680000Y-150355000D03*
X103680000Y-152895000D03*
X103680000Y-155435000D03*
X118920000Y-155435000D03*
X118920000Y-152895000D03*
X118920000Y-150355000D03*
X118920000Y-147815000D03*
X118920000Y-145275000D03*
X118920000Y-142735000D03*
X118920000Y-140195000D03*
X118920000Y-137655000D03*
X118920000Y-135115000D03*
X118920000Y-132575000D03*
X118920000Y-130035000D03*
X118920000Y-127495000D03*
D13*
X89180000Y-66645000D03*
X89180000Y-61645000D03*
D11*
X92380000Y-62220000D03*
D12*
X92380000Y-64760000D03*
X92380000Y-67300000D03*
X92380000Y-69840000D03*
X92380000Y-72380000D03*
X92380000Y-74920000D03*
X92380000Y-77460000D03*
X92380000Y-80000000D03*
X92380000Y-82540000D03*
X92380000Y-85080000D03*
X100000000Y-85080000D03*
X100000000Y-82540000D03*
X100000000Y-80000000D03*
X100000000Y-77460000D03*
X100000000Y-74920000D03*
X100000000Y-72380000D03*
X100000000Y-69840000D03*
X100000000Y-67300000D03*
X100000000Y-64760000D03*
X100000000Y-62220000D03*
D33*
X51180000Y-63496000D03*
D11*
X160700000Y-103500000D03*
D12*
X160700000Y-106040000D03*
X160700000Y-108580000D03*
X160700000Y-111120000D03*
X160700000Y-113660000D03*
X160700000Y-116200000D03*
X160700000Y-118740000D03*
X160700000Y-121280000D03*
X160700000Y-123820000D03*
X160700000Y-126360000D03*
X168320000Y-126360000D03*
X168320000Y-123820000D03*
X168320000Y-121280000D03*
X168320000Y-118740000D03*
X168320000Y-116200000D03*
X168320000Y-113660000D03*
X168320000Y-111120000D03*
X168320000Y-108580000D03*
X168320000Y-106040000D03*
X168320000Y-103500000D03*
D13*
X89180000Y-86705000D03*
D14*
X89180000Y-79085000D03*
D11*
X171950000Y-103500000D03*
D12*
X171950000Y-106040000D03*
X171950000Y-108580000D03*
X171950000Y-111120000D03*
X171950000Y-113660000D03*
X171950000Y-116200000D03*
X171950000Y-118740000D03*
X171950000Y-121280000D03*
X171950000Y-123820000D03*
X171950000Y-126360000D03*
X179570000Y-126360000D03*
X179570000Y-123820000D03*
X179570000Y-121280000D03*
X179570000Y-118740000D03*
X179570000Y-116200000D03*
X179570000Y-113660000D03*
X179570000Y-111120000D03*
X179570000Y-108580000D03*
X179570000Y-106040000D03*
X179570000Y-103500000D03*
D35*
X89976600Y-127547300D03*
X103632000Y-123395500D03*
X90405200Y-98877900D03*
X116408100Y-111205000D03*
X104747500Y-99775000D03*
X78936900Y-119535600D03*
X101454100Y-130761100D03*
X109324400Y-124727100D03*
X70997100Y-140832200D03*
X110031900Y-124019800D03*
X69857400Y-88006600D03*
X96929600Y-146480700D03*
X69326000Y-137052600D03*
X96948400Y-136456200D03*
X86723600Y-148700500D03*
X79187200Y-147210700D03*
X68013100Y-90104200D03*
X104943100Y-107211200D03*
X90746100Y-125398700D03*
X97370600Y-123675800D03*
X70046400Y-125979500D03*
X76253600Y-129773100D03*
X86165300Y-112195200D03*
X102516400Y-124887400D03*
X129188200Y-126369600D03*
X90402700Y-88598000D03*
X108596300Y-139470700D03*
X101399300Y-152487000D03*
X91636000Y-87907200D03*
X86114800Y-150068800D03*
D36*
X177485000Y-147925000D02*
X175959700Y-147925000D01*
X175959700Y-148260300D02*
X174250000Y-149970000D01*
X175959700Y-147925000D02*
X175959700Y-148260300D01*
D37*
X170962600Y-70839700D02*
X177250100Y-70839700D01*
X95430000Y-129750000D02*
X94255300Y-128575300D01*
X84331900Y-152516600D02*
X89546500Y-152516600D01*
X139955700Y-156085800D02*
X139955700Y-155435000D01*
X83500000Y-95670400D02*
X78185700Y-95670400D01*
X158680300Y-96279400D02*
X158680300Y-85859900D01*
X68700500Y-81720000D02*
X70975300Y-83994800D01*
X139955700Y-142744400D02*
X139946300Y-142735000D01*
X120905700Y-144720700D02*
X118920000Y-142735000D01*
X105532300Y-85598700D02*
X110118100Y-81012900D01*
X122180000Y-118054200D02*
X122180000Y-113720000D01*
X82805300Y-150990000D02*
X84331900Y-152516600D01*
X153419900Y-85859900D02*
X152180000Y-84620000D01*
X105532300Y-85805000D02*
X105532300Y-85598700D01*
X107925100Y-76280000D02*
X107925100Y-73740000D01*
X158996400Y-155435000D02*
X160049700Y-155435000D01*
X164842100Y-74890000D02*
X163111700Y-74890000D01*
X80905000Y-135750000D02*
X82805300Y-135750000D01*
X141604800Y-116295200D02*
X133680000Y-124220000D01*
X115984200Y-124250000D02*
X122180000Y-118054200D01*
X72601000Y-89550000D02*
X75756200Y-89550000D01*
X164842100Y-74890000D02*
X165012000Y-74890000D01*
X72601000Y-89550000D02*
X70700700Y-89550000D01*
X158680300Y-85859900D02*
X153419900Y-85859900D01*
X165012000Y-79970000D02*
X164440000Y-79970000D01*
X82805300Y-133774700D02*
X84000000Y-132580000D01*
X52765000Y-78343000D02*
X52765000Y-88500000D01*
X129650000Y-79250000D02*
X134180000Y-74720000D01*
X70700700Y-88928500D02*
X70700700Y-89550000D01*
X92355000Y-121130000D02*
X94255300Y-121130000D01*
X154589800Y-114750000D02*
X154589800Y-112568800D01*
X80905000Y-150990000D02*
X82805300Y-150990000D01*
X107925100Y-78820000D02*
X110118100Y-81012900D01*
X178292100Y-72500000D02*
X185100000Y-72500000D01*
X70975300Y-83994800D02*
X70975300Y-88653900D01*
X201180000Y-71038300D02*
X192468300Y-79750000D01*
X156904000Y-110254600D02*
X156904000Y-107530000D01*
X178292100Y-71881700D02*
X178292100Y-72500000D01*
X122372500Y-155435000D02*
X123906700Y-156969200D01*
X82780300Y-100969700D02*
X82780300Y-103420000D01*
X161950000Y-155435000D02*
X160049700Y-155435000D01*
X163111700Y-74890000D02*
X163111700Y-79970000D01*
X177250100Y-70839700D02*
X178292100Y-71881700D01*
X95250000Y-100080000D02*
X90614900Y-95444900D01*
X143756300Y-155435000D02*
X145283200Y-156961900D01*
X123906700Y-156969200D02*
X139072300Y-156969200D01*
X94255300Y-128575300D02*
X94255300Y-121130000D01*
X54815500Y-76292500D02*
X52765000Y-78343000D01*
X107450000Y-76280000D02*
X107925100Y-76280000D01*
X105580300Y-155435000D02*
X117019700Y-143995600D01*
X164440000Y-84500000D02*
X163080100Y-85859900D01*
X120905700Y-155435000D02*
X120905700Y-144720700D01*
X201429600Y-88711300D02*
X192468300Y-79750000D01*
X192468300Y-79750000D02*
X192350000Y-79750000D01*
X141604800Y-113235100D02*
X141604800Y-116295200D01*
X142289500Y-155435000D02*
X143756300Y-155435000D01*
X158136400Y-156961900D02*
X158996400Y-156101900D01*
X83725500Y-95444900D02*
X84540000Y-95444900D01*
X107450000Y-73740000D02*
X107925100Y-73740000D01*
X183204700Y-137524700D02*
X180180000Y-134500000D01*
X157180000Y-97779700D02*
X158680300Y-96279400D01*
X157096000Y-137655000D02*
X158996300Y-137655000D01*
X117019700Y-143995600D02*
X117019700Y-142735000D01*
X202930000Y-90985700D02*
X201429600Y-89485300D01*
X125179600Y-80775400D02*
X125179600Y-81012900D01*
X145283200Y-156961900D02*
X158136400Y-156961900D01*
X92355000Y-151081000D02*
X90454700Y-151081000D01*
X107450000Y-71200000D02*
X107925100Y-71200000D01*
X139955700Y-155435000D02*
X139955700Y-142744400D01*
X122806000Y-155435000D02*
X122372500Y-155435000D01*
X154589800Y-112568800D02*
X156904000Y-110254600D01*
X125179600Y-93019600D02*
X126705000Y-94545000D01*
X92355000Y-143461000D02*
X90454700Y-143461000D01*
X90614900Y-95444900D02*
X84540000Y-95444900D01*
X77730300Y-91524100D02*
X77730300Y-95215000D01*
X166912300Y-74890000D02*
X170962600Y-70839700D01*
X141856000Y-155435000D02*
X139955700Y-155435000D01*
X158996400Y-137655100D02*
X158996300Y-137655000D01*
X125179600Y-81012900D02*
X125179600Y-93019600D01*
X138046000Y-142735000D02*
X139946300Y-142735000D01*
X163080100Y-85859900D02*
X158680300Y-85859900D01*
X164440000Y-84500000D02*
X164440000Y-79970000D01*
X107925100Y-69294900D02*
X107925100Y-71200000D01*
X114180000Y-124250000D02*
X115984200Y-124250000D01*
X108450200Y-68769800D02*
X107925100Y-69294900D01*
X202930000Y-93186000D02*
X202930000Y-90985700D01*
X103680000Y-155435000D02*
X105580300Y-155435000D01*
X117019700Y-142735000D02*
X115984200Y-141699500D01*
X107925100Y-71200000D02*
X107925100Y-73740000D01*
X83500000Y-95670400D02*
X83725500Y-95444900D01*
X115984200Y-141699500D02*
X115984200Y-124250000D01*
X84540000Y-94120000D02*
X84540000Y-95444900D01*
X122372500Y-155435000D02*
X120905700Y-155435000D01*
X142289500Y-155435000D02*
X141856000Y-155435000D01*
X118920000Y-142735000D02*
X117019700Y-142735000D01*
X185105000Y-140305000D02*
X183204700Y-140305000D01*
X94255300Y-130924700D02*
X95430000Y-129750000D01*
X143505100Y-113235100D02*
X141604800Y-113235100D01*
X164440000Y-79970000D02*
X163111700Y-79970000D01*
X201180000Y-63496000D02*
X201180000Y-71038300D01*
X125179600Y-81012900D02*
X110118100Y-81012900D01*
X126705000Y-79250000D02*
X129650000Y-79250000D01*
X103632000Y-85805000D02*
X105532300Y-85805000D01*
X183204700Y-140305000D02*
X183204700Y-137524700D01*
X164500000Y-84500000D02*
X164440000Y-84500000D01*
X201429600Y-89485300D02*
X201429600Y-88711300D01*
X100000000Y-62220000D02*
X101900300Y-62220000D01*
X157180000Y-99280000D02*
X157180000Y-97779700D01*
X80905000Y-145910000D02*
X75680000Y-140685000D01*
X80880000Y-103420000D02*
X82780300Y-103420000D01*
X82805300Y-135750000D02*
X82805300Y-133774700D01*
X78185700Y-95670400D02*
X77730300Y-95215000D01*
X83500000Y-100250000D02*
X83500000Y-95670400D01*
X83500000Y-100250000D02*
X82780300Y-100969700D01*
X158996400Y-155435000D02*
X158996400Y-137655100D01*
X76180000Y-95215000D02*
X77730300Y-95215000D01*
X75680000Y-140685000D02*
X75680000Y-132970000D01*
X101900300Y-62220000D02*
X108450200Y-68769800D01*
X75756200Y-89550000D02*
X77730300Y-91524100D01*
X90454700Y-151608400D02*
X90454700Y-151081000D01*
X126705000Y-79250000D02*
X125179600Y-80775400D01*
X139072300Y-156969200D02*
X139955700Y-156085800D01*
X107450000Y-78820000D02*
X107925100Y-78820000D01*
X158996400Y-156101900D02*
X158996400Y-155435000D01*
X165012000Y-74890000D02*
X166912300Y-74890000D01*
X94255300Y-143461000D02*
X94255300Y-130924700D01*
X185100000Y-72500000D02*
X192350000Y-79750000D01*
X89546500Y-152516600D02*
X90454700Y-151608400D01*
X70975300Y-88653900D02*
X70700700Y-88928500D01*
X107925100Y-76280000D02*
X107925100Y-78820000D01*
X71930000Y-74970000D02*
X71930000Y-78490500D01*
X71930000Y-78490500D02*
X68700500Y-81720000D01*
X109750000Y-67470000D02*
X108450200Y-68769800D01*
X92355000Y-143461000D02*
X94255300Y-143461000D01*
X90454700Y-143461000D02*
X90454700Y-151081000D01*
D36*
X176702900Y-79970000D02*
X176702900Y-81892900D01*
X176702900Y-79970000D02*
X174157300Y-79970000D01*
X172632000Y-79970000D02*
X174157300Y-79970000D01*
X176702900Y-79000000D02*
X176702900Y-79970000D01*
X176702900Y-81892900D02*
X179310000Y-84500000D01*
X143505100Y-110695100D02*
X139638400Y-110695100D01*
X139638400Y-110695100D02*
X138064200Y-112269300D01*
X148878000Y-88120000D02*
X150403300Y-88120000D01*
X152110100Y-89689900D02*
X152180000Y-89620000D01*
X150964200Y-90698900D02*
X151973200Y-89689900D01*
X150403300Y-88120000D02*
X151973200Y-89689900D01*
X149249000Y-96534700D02*
X150964200Y-94819500D01*
X151973200Y-89689900D02*
X152110100Y-89689900D01*
X149249000Y-97660000D02*
X149249000Y-96534700D01*
X150964200Y-94819500D02*
X150964200Y-90698900D01*
X148878000Y-77960000D02*
X148878000Y-80500000D01*
X149180000Y-74720000D02*
X148878000Y-75022000D01*
X148878000Y-75022000D02*
X148878000Y-77960000D01*
X156054700Y-81690000D02*
X154864700Y-80500000D01*
X154864700Y-80500000D02*
X148878000Y-80500000D01*
X157180000Y-81690000D02*
X156054700Y-81690000D01*
D37*
X124915600Y-98849600D02*
X123750100Y-100015100D01*
X49180000Y-90189700D02*
X47690000Y-88699700D01*
X120820300Y-126873500D02*
X119180000Y-125233200D01*
X95780600Y-60719700D02*
X94280300Y-62220000D01*
X143158300Y-98631700D02*
X143158300Y-85580000D01*
X77730400Y-108830400D02*
X77730400Y-123419600D01*
X47690000Y-88699700D02*
X47690000Y-85000000D01*
X143158300Y-76846700D02*
X141031600Y-74720000D01*
X52179700Y-101690000D02*
X51439700Y-100950000D01*
X53680000Y-101690000D02*
X53680000Y-103190300D01*
X142629600Y-99160400D02*
X143158300Y-98631700D01*
X148875300Y-108155100D02*
X149224800Y-108155100D01*
X157180000Y-123970000D02*
X157138000Y-124012000D01*
X89000000Y-132580000D02*
X89000000Y-128523900D01*
X113169700Y-69050300D02*
X114750000Y-67470000D01*
X53680000Y-103190300D02*
X55201500Y-104711800D01*
X157096000Y-124012000D02*
X157096000Y-127495000D01*
X122180000Y-108665000D02*
X122180000Y-108720000D01*
X100430000Y-129750000D02*
X99975000Y-130205000D01*
X51439700Y-100950000D02*
X51420300Y-100950000D01*
X146422700Y-116477300D02*
X148875300Y-116477300D01*
X148875300Y-116477300D02*
X148875300Y-108155100D01*
X144551300Y-76846700D02*
X148198400Y-73199600D01*
X75680000Y-125470000D02*
X75680000Y-127970000D01*
X140239600Y-99160400D02*
X139928800Y-98849600D01*
X113169700Y-71200000D02*
X113169700Y-69050300D01*
X148875300Y-116477300D02*
X156410000Y-124012000D01*
X98074700Y-153644400D02*
X99680000Y-155249700D01*
X50530200Y-94540500D02*
X50830400Y-94540500D01*
X53680000Y-91690000D02*
X53680000Y-90189700D01*
X139928800Y-98849600D02*
X124915600Y-98849600D01*
X88525000Y-133055000D02*
X88525000Y-135750000D01*
X118872000Y-108665000D02*
X120772300Y-108665000D01*
X92380000Y-62220000D02*
X94280300Y-62220000D01*
X89180000Y-86705000D02*
X87633000Y-85158000D01*
X123750100Y-100015100D02*
X123750100Y-107094900D01*
X96559700Y-101835000D02*
X90085000Y-101835000D01*
X50830400Y-94540500D02*
X52180600Y-93190300D01*
X123750100Y-107094900D02*
X122180000Y-108665000D01*
X51420300Y-100950000D02*
X50680300Y-101690000D01*
X49180000Y-101690000D02*
X50680300Y-101690000D01*
X77730400Y-123419600D02*
X75680000Y-125470000D01*
X49180000Y-91690000D02*
X49180000Y-90189700D01*
X90085000Y-101835000D02*
X88500000Y-103420000D01*
X114750000Y-67470000D02*
X107999700Y-60719700D01*
X49180000Y-93190300D02*
X50530200Y-94540500D01*
X77919800Y-81732800D02*
X87633000Y-81732800D01*
X60815500Y-73842200D02*
X57395000Y-70421700D01*
X148875300Y-105406100D02*
X142629600Y-99160400D01*
X157138000Y-124012000D02*
X157096000Y-124012000D01*
X89000000Y-128523900D02*
X89976600Y-127547300D01*
X55201500Y-110168500D02*
X53680000Y-111690000D01*
X99680000Y-156750000D02*
X99680000Y-155249700D01*
X141258000Y-85580000D02*
X143158300Y-85580000D01*
X120820300Y-127495000D02*
X120820300Y-126873500D01*
X87633000Y-85158000D02*
X87633000Y-81732800D01*
X74180000Y-77993000D02*
X77919800Y-81732800D01*
X156410000Y-124012000D02*
X157096000Y-124012000D01*
X122205000Y-98470000D02*
X123750100Y-100015100D01*
X100250000Y-100080000D02*
X100250000Y-103075000D01*
X98074700Y-133301000D02*
X98074700Y-153644400D01*
X53680000Y-91690000D02*
X53680000Y-93190300D01*
X50830400Y-94540500D02*
X50830400Y-100360100D01*
X138680000Y-124220000D02*
X146422700Y-116477300D01*
X143158300Y-76846700D02*
X144551300Y-76846700D01*
X55201500Y-104711800D02*
X55201500Y-110168500D01*
X143158300Y-85580000D02*
X143158300Y-76846700D01*
X141031600Y-74720000D02*
X139180000Y-74720000D01*
X98074700Y-103350000D02*
X96559700Y-101835000D01*
X122180000Y-108665000D02*
X120772300Y-108665000D01*
X119180000Y-125233200D02*
X119180000Y-124250000D01*
X153799600Y-73199600D02*
X158250000Y-77650000D01*
X148198400Y-73199600D02*
X153799600Y-73199600D01*
X89000000Y-128523900D02*
X88446100Y-127970000D01*
X50830400Y-100360100D02*
X51420300Y-100950000D01*
X88446100Y-127970000D02*
X75680000Y-127970000D01*
X52180600Y-93190300D02*
X53680000Y-93190300D01*
X87633000Y-81732800D02*
X87633000Y-78252000D01*
X75680000Y-106780000D02*
X77730400Y-108830400D01*
X99975000Y-130205000D02*
X99975000Y-133301000D01*
X49180000Y-91690000D02*
X49180000Y-93190300D01*
X148875300Y-108155100D02*
X148875300Y-105406100D01*
X53680000Y-90189700D02*
X60815500Y-83054200D01*
X53680000Y-101690000D02*
X52179700Y-101690000D01*
X142629600Y-99160400D02*
X140239600Y-99160400D01*
X107999700Y-60719700D02*
X95780600Y-60719700D01*
X57395000Y-70421700D02*
X57395000Y-63220000D01*
X115070000Y-71200000D02*
X113169700Y-71200000D01*
X100250000Y-103075000D02*
X99975000Y-103350000D01*
X60815500Y-76292500D02*
X60815500Y-73842200D01*
X89000000Y-132580000D02*
X88525000Y-133055000D01*
X87633000Y-78252000D02*
X89180000Y-76705000D01*
X118920000Y-127495000D02*
X120820300Y-127495000D01*
X60815500Y-83054200D02*
X60815500Y-76292500D01*
X90085000Y-101835000D02*
X88500000Y-100250000D01*
X151125100Y-108155100D02*
X149224800Y-108155100D01*
X89180000Y-89010000D02*
X89180000Y-86705000D01*
X99975000Y-103350000D02*
X98074700Y-103350000D01*
X100250000Y-100080000D02*
X89180000Y-89010000D01*
X99975000Y-133301000D02*
X98074700Y-133301000D01*
D36*
X104430300Y-112475000D02*
X102889700Y-112475000D01*
X98436500Y-122251500D02*
X98436500Y-115572800D01*
X122806000Y-127495000D02*
X121214600Y-125903600D01*
X102086000Y-114870500D02*
X114142700Y-114870500D01*
X132944700Y-126369700D02*
X139205400Y-126369700D01*
X125140100Y-113049200D02*
X125140100Y-118565100D01*
X102889700Y-112475000D02*
X102086000Y-113278700D01*
X105157300Y-108665000D02*
X105157300Y-111748000D01*
X123845500Y-119227200D02*
X123845500Y-113084200D01*
X117341800Y-111671400D02*
X117341800Y-110734300D01*
X120405300Y-112122000D02*
X120172100Y-112355200D01*
X125140100Y-118565100D02*
X132944700Y-126369700D01*
X114142700Y-114870500D02*
X117341800Y-111671400D01*
X117341800Y-110734300D02*
X118049900Y-110026200D01*
X118025600Y-112355200D02*
X117341800Y-111671400D01*
X121214600Y-125903600D02*
X121214600Y-121858100D01*
X102154700Y-125969700D02*
X98436500Y-122251500D01*
X105157300Y-111748000D02*
X104430300Y-112475000D01*
X122883300Y-112122000D02*
X120405300Y-112122000D01*
X122117100Y-110026200D02*
X125140100Y-113049200D01*
X99138800Y-114870500D02*
X102086000Y-114870500D01*
X102086000Y-113278700D02*
X102086000Y-114870500D01*
X121214600Y-121858100D02*
X123845500Y-119227200D01*
X141856000Y-127495000D02*
X140330700Y-127495000D01*
X118049900Y-110026200D02*
X122117100Y-110026200D01*
X102154700Y-127495000D02*
X102154700Y-125969700D01*
X139205400Y-126369700D02*
X140330700Y-127495000D01*
X123845500Y-113084200D02*
X122883300Y-112122000D01*
X103680000Y-127495000D02*
X102154700Y-127495000D01*
X120172100Y-112355200D02*
X118025600Y-112355200D01*
X103632000Y-108665000D02*
X105157300Y-108665000D01*
X98436500Y-115572800D02*
X99138800Y-114870500D01*
X98211400Y-124566400D02*
X98211400Y-123302300D01*
X103632000Y-111205000D02*
X102106700Y-111205000D01*
X97976000Y-113513300D02*
X99104700Y-112384600D01*
X103680000Y-130035000D02*
X102154700Y-130035000D01*
X102154700Y-128509700D02*
X98211400Y-124566400D01*
X102154700Y-130035000D02*
X102154700Y-128509700D01*
X100927100Y-112384600D02*
X102106700Y-111205000D01*
X99104700Y-112384600D02*
X100927100Y-112384600D01*
X97976000Y-123066900D02*
X97976000Y-113513300D01*
X98211400Y-123302300D02*
X97976000Y-123066900D01*
X103632000Y-116285000D02*
X102106700Y-116285000D01*
X102106700Y-123425900D02*
X102106700Y-116285000D01*
X103680000Y-132575000D02*
X105205300Y-132575000D01*
X105205300Y-126524500D02*
X102106700Y-123425900D01*
X105205300Y-132575000D02*
X105205300Y-126524500D01*
X105655700Y-133139300D02*
X105655700Y-125419200D01*
X105655700Y-125419200D02*
X103632000Y-123395500D01*
X103632000Y-123395500D02*
X103632000Y-118825000D01*
X103680000Y-135115000D02*
X105655700Y-133139300D01*
X107418500Y-135441800D02*
X107418500Y-125602600D01*
X114196100Y-118825000D02*
X118872000Y-118825000D01*
X107418500Y-125602600D02*
X114196100Y-118825000D01*
X105205300Y-137655000D02*
X107418500Y-135441800D01*
X103680000Y-137655000D02*
X105205300Y-137655000D01*
X104418000Y-136385000D02*
X102918600Y-136385000D01*
X103680000Y-140195000D02*
X102154700Y-140195000D01*
X102918600Y-136385000D02*
X102154700Y-137148900D01*
X106106100Y-126226000D02*
X106106100Y-134696900D01*
X102154700Y-137148900D02*
X102154700Y-140195000D01*
X118872000Y-116285000D02*
X116047100Y-116285000D01*
X116047100Y-116285000D02*
X106106100Y-126226000D01*
X106106100Y-134696900D02*
X104418000Y-136385000D01*
X119696500Y-138925000D02*
X118185800Y-138925000D01*
X118185800Y-138925000D02*
X117386900Y-138126100D01*
X121569900Y-112572400D02*
X120397300Y-113745000D01*
X123344700Y-113220400D02*
X122696700Y-112572400D01*
X117386900Y-138126100D02*
X117386900Y-124014600D01*
X117386900Y-124014600D02*
X123344700Y-118056800D01*
X122696700Y-112572400D02*
X121569900Y-112572400D01*
X123344700Y-118056800D02*
X123344700Y-113220400D01*
X121280700Y-142735000D02*
X121280700Y-140509200D01*
X118872000Y-113745000D02*
X120397300Y-113745000D01*
X121280700Y-140509200D02*
X119696500Y-138925000D01*
X122806000Y-142735000D02*
X121280700Y-142735000D01*
X104747500Y-99775000D02*
X104978100Y-99775000D01*
X88247800Y-98877900D02*
X85228000Y-101897700D01*
X85228000Y-101897700D02*
X85228000Y-103137300D01*
X124331300Y-145275000D02*
X124797700Y-144808600D01*
X124310700Y-112856700D02*
X122659000Y-111205000D01*
X80880000Y-105960000D02*
X82405300Y-105960000D01*
X122806000Y-145275000D02*
X124331300Y-145275000D01*
X124797700Y-144808600D02*
X124797700Y-126139600D01*
X124797700Y-126139600D02*
X123741800Y-125083700D01*
X85228000Y-103137300D02*
X82405300Y-105960000D01*
X124310700Y-121155300D02*
X124310700Y-112856700D01*
X104978100Y-99775000D02*
X116408100Y-111205000D01*
X123741800Y-125083700D02*
X123741800Y-121724200D01*
X90405200Y-98877900D02*
X88247800Y-98877900D01*
X122659000Y-111205000D02*
X118872000Y-111205000D01*
X123741800Y-121724200D02*
X124310700Y-121155300D01*
X80880000Y-111040000D02*
X79354700Y-111040000D01*
X103680000Y-150355000D02*
X102154700Y-150355000D01*
X79354700Y-111040000D02*
X79354700Y-119117800D01*
X79354700Y-119117800D02*
X78936900Y-119535600D01*
X101668300Y-130975300D02*
X101454100Y-130761100D01*
X101668300Y-149868600D02*
X101668300Y-130975300D01*
X102154700Y-150355000D02*
X101668300Y-149868600D01*
X109324400Y-147441300D02*
X109324400Y-124727100D01*
X103870700Y-152895000D02*
X109324400Y-147441300D01*
X103680000Y-152895000D02*
X103870700Y-152895000D01*
X72095000Y-145167800D02*
X72095000Y-141930100D01*
X117394700Y-155435000D02*
X114876000Y-157953700D01*
X72095000Y-141930100D02*
X70997100Y-140832200D01*
X114876000Y-157953700D02*
X84880900Y-157953700D01*
X84880900Y-157953700D02*
X72095000Y-145167800D01*
X118920000Y-155435000D02*
X117394700Y-155435000D01*
X102139800Y-154976000D02*
X102950800Y-154165000D01*
X102139800Y-155928100D02*
X102139800Y-154976000D01*
X110049800Y-124037700D02*
X110031900Y-124019800D01*
X102794800Y-156583100D02*
X102139800Y-155928100D01*
X102950800Y-154165000D02*
X104468700Y-154165000D01*
X104468700Y-154165000D02*
X110049800Y-148583900D01*
X113706600Y-156583100D02*
X102794800Y-156583100D01*
X117394700Y-152895000D02*
X113706600Y-156583100D01*
X118920000Y-152895000D02*
X117394700Y-152895000D01*
X110049800Y-148583900D02*
X110049800Y-124037700D01*
X69857400Y-104038000D02*
X72601000Y-106781600D01*
X69857400Y-88006600D02*
X69857400Y-104038000D01*
X72601000Y-106781600D02*
X72601000Y-107330000D01*
X97487200Y-128241700D02*
X97487300Y-128241700D01*
X97487300Y-128241700D02*
X97487300Y-130783900D01*
X91225300Y-112240000D02*
X93113000Y-112240000D01*
X96195000Y-126949500D02*
X97487200Y-128241700D01*
X96197600Y-132073600D02*
X96197600Y-145748700D01*
X88500000Y-111040000D02*
X90025300Y-111040000D01*
X93113000Y-112240000D02*
X96195000Y-115322000D01*
X97487300Y-130783900D02*
X96197600Y-132073600D01*
X96197600Y-145748700D02*
X96929600Y-146480700D01*
X96195000Y-115322000D02*
X96195000Y-126949500D01*
X90025300Y-111040000D02*
X91225300Y-112240000D01*
X139571300Y-140195000D02*
X140761800Y-139004500D01*
X138046000Y-140195000D02*
X139571300Y-140195000D01*
X154380200Y-139004500D02*
X155570700Y-140195000D01*
X157096000Y-140195000D02*
X155570700Y-140195000D01*
X140761800Y-139004500D02*
X154380200Y-139004500D01*
X154421500Y-131425800D02*
X155570700Y-132575000D01*
X139571300Y-132575000D02*
X140720500Y-131425800D01*
X140720500Y-131425800D02*
X154421500Y-131425800D01*
X138046000Y-132575000D02*
X139571300Y-132575000D01*
X157096000Y-132575000D02*
X155570700Y-132575000D01*
X157096000Y-130035000D02*
X155570700Y-130035000D01*
X138046000Y-130035000D02*
X139571300Y-130035000D01*
X140720500Y-128885800D02*
X154421500Y-128885800D01*
X139571300Y-130035000D02*
X140720500Y-128885800D01*
X154421500Y-128885800D02*
X155570700Y-130035000D01*
X97037000Y-129065300D02*
X97037000Y-130371500D01*
X95744700Y-117914400D02*
X95744700Y-127773000D01*
X93880300Y-116050000D02*
X95744700Y-117914400D01*
X97037000Y-130371500D02*
X95747100Y-131661400D01*
X95747100Y-153062900D02*
X92060000Y-156750000D01*
X95744700Y-127773000D02*
X97037000Y-129065300D01*
X92355000Y-116050000D02*
X93880300Y-116050000D01*
X95747100Y-131661400D02*
X95747100Y-153062900D01*
X91583900Y-117320000D02*
X93083900Y-117320000D01*
X70051300Y-138860600D02*
X70051300Y-136752100D01*
X76570700Y-145380000D02*
X70051300Y-138860600D01*
X92107300Y-153354800D02*
X81261100Y-153354800D01*
X76570700Y-148664400D02*
X76570700Y-145380000D01*
X95294400Y-127959600D02*
X96586600Y-129251800D01*
X90829700Y-113510000D02*
X90829700Y-116565800D01*
X95080700Y-131690900D02*
X95080700Y-144800600D01*
X95294400Y-119530500D02*
X95294400Y-127959600D01*
X96586600Y-130185000D02*
X95080700Y-131690900D01*
X93880300Y-146001000D02*
X93880300Y-151581800D01*
X93880300Y-151581800D02*
X92107300Y-153354800D01*
X92355000Y-113510000D02*
X90829700Y-113510000D01*
X81261100Y-153354800D02*
X76570700Y-148664400D01*
X90829700Y-116565800D02*
X91583900Y-117320000D01*
X95080700Y-144800600D02*
X93880300Y-146001000D01*
X96586600Y-129251800D02*
X96586600Y-130185000D01*
X93083900Y-117320000D02*
X95294400Y-119530500D01*
X68569200Y-135270000D02*
X57361000Y-135270000D01*
X92355000Y-146001000D02*
X93880300Y-146001000D01*
X70051300Y-136752100D02*
X68569200Y-135270000D01*
X58886300Y-137810000D02*
X59643700Y-137052600D01*
X57361000Y-137810000D02*
X58886300Y-137810000D01*
X59643700Y-137052600D02*
X69326000Y-137052600D01*
X96645300Y-108655000D02*
X96645300Y-126762900D01*
X97937600Y-131381600D02*
X96948400Y-132370800D01*
X97937600Y-128055100D02*
X97937600Y-131381600D01*
X93880300Y-105890000D02*
X96645300Y-108655000D01*
X92355000Y-105890000D02*
X93880300Y-105890000D01*
X96948400Y-132370800D02*
X96948400Y-136456200D01*
X96645300Y-126762900D02*
X96645400Y-126762900D01*
X96645400Y-126762900D02*
X97937600Y-128055100D01*
X86974600Y-110522700D02*
X87727300Y-109770000D01*
X90247900Y-122536500D02*
X90247900Y-120916400D01*
X89261500Y-119930000D02*
X87760700Y-119930000D01*
X90829700Y-108175700D02*
X90829700Y-103350000D01*
X90247900Y-120916400D02*
X89261500Y-119930000D01*
X92355000Y-103350000D02*
X90829700Y-103350000D01*
X87760700Y-119930000D02*
X86974600Y-119143900D01*
X92355000Y-124643600D02*
X90247900Y-122536500D01*
X87727300Y-109770000D02*
X89235400Y-109770000D01*
X92355000Y-133301000D02*
X92355000Y-124643600D01*
X89235400Y-109770000D02*
X90829700Y-108175700D01*
X86974600Y-119143900D02*
X86974600Y-110522700D01*
X118920000Y-135115000D02*
X120445300Y-135115000D01*
X122076000Y-131305000D02*
X123529700Y-131305000D01*
X122390000Y-123970000D02*
X122390000Y-125145300D01*
X124331400Y-130503300D02*
X124331400Y-126499200D01*
X120445300Y-135115000D02*
X120445300Y-132935700D01*
X122977500Y-125145300D02*
X122390000Y-125145300D01*
X120445300Y-132935700D02*
X122076000Y-131305000D01*
X123529700Y-131305000D02*
X124331400Y-130503300D01*
X124331400Y-126499200D02*
X122977500Y-125145300D01*
X80905000Y-140830000D02*
X82430300Y-140830000D01*
X82430300Y-140830000D02*
X86723600Y-145123300D01*
X86723600Y-145123300D02*
X86723600Y-148700500D01*
X197930000Y-88186000D02*
X196104700Y-88186000D01*
X179202900Y-79000000D02*
X188388900Y-88186000D01*
X196104700Y-88186000D02*
X196104700Y-98186000D01*
X197930000Y-98186000D02*
X196104700Y-98186000D01*
X188388900Y-88186000D02*
X196104700Y-88186000D01*
X141258000Y-93200000D02*
X141258000Y-90660000D01*
X141258000Y-97289000D02*
X141258000Y-93200000D01*
X141629000Y-97660000D02*
X141258000Y-97289000D01*
X136762800Y-84664800D02*
X133180000Y-81082000D01*
X137939000Y-94970000D02*
X136762800Y-93793800D01*
X136762800Y-84970000D02*
X137939000Y-84970000D01*
X136762800Y-93793800D02*
X136762800Y-84970000D01*
X136762800Y-84970000D02*
X136762800Y-84664800D01*
X179010300Y-146933100D02*
X179010300Y-153005000D01*
X195499700Y-129690000D02*
X193858700Y-131331000D01*
X184223800Y-141719600D02*
X179010300Y-146933100D01*
X177485000Y-153005000D02*
X179010300Y-153005000D01*
X185683000Y-141719600D02*
X184223800Y-141719600D01*
X193858700Y-131331000D02*
X193858700Y-133543900D01*
X193858700Y-133543900D02*
X185683000Y-141719600D01*
X186630300Y-145385000D02*
X186630300Y-142108900D01*
X185105000Y-145385000D02*
X186630300Y-145385000D01*
X186630300Y-142108900D02*
X195499700Y-133239500D01*
X195499700Y-133239500D02*
X195499700Y-132460000D01*
X198339700Y-133607900D02*
X198339700Y-133845000D01*
X185105000Y-142845000D02*
X185194500Y-142845000D01*
X185194500Y-142845000D02*
X194309000Y-133730500D01*
X195020300Y-131313100D02*
X196044900Y-131313100D01*
X194309000Y-132024400D02*
X195020300Y-131313100D01*
X194309000Y-133730500D02*
X194309000Y-132024400D01*
X196044900Y-131313100D02*
X198339700Y-133607900D01*
X141258000Y-80500000D02*
X141258000Y-77960000D01*
X81606700Y-109770000D02*
X84690000Y-112853300D01*
X72601000Y-94630000D02*
X72826600Y-94630000D01*
X84690000Y-123995300D02*
X86974700Y-126280000D01*
X72826600Y-94630000D02*
X76805400Y-98608800D01*
X76805400Y-98608800D02*
X76805400Y-106417000D01*
X88500000Y-126280000D02*
X86974700Y-126280000D01*
X80158400Y-109770000D02*
X81606700Y-109770000D01*
X76805400Y-106417000D02*
X80158400Y-109770000D01*
X84690000Y-112853300D02*
X84690000Y-123995300D01*
X79187200Y-147210700D02*
X70501600Y-138525100D01*
X70501600Y-136565500D02*
X61586100Y-127650000D01*
X70501600Y-138525100D02*
X70501600Y-136565500D01*
X61586100Y-127650000D02*
X57361000Y-127650000D01*
X82193500Y-147180000D02*
X86003500Y-150990000D01*
X75553800Y-142551000D02*
X80182800Y-147180000D01*
X103632000Y-88345000D02*
X105157300Y-88345000D01*
X71045200Y-134728900D02*
X71045200Y-138252800D01*
X58773700Y-122570000D02*
X58886300Y-122570000D01*
X75343400Y-142551000D02*
X75553800Y-142551000D01*
X80182800Y-147180000D02*
X82193500Y-147180000D01*
X71045200Y-138252800D02*
X75343400Y-142551000D01*
X118872000Y-93425000D02*
X110237300Y-93425000D01*
X57361000Y-122570000D02*
X58773700Y-122570000D01*
X58886300Y-122570000D02*
X71045200Y-134728900D01*
X68013100Y-113443200D02*
X58886300Y-122570000D01*
X68013100Y-90104200D02*
X68013100Y-113443200D01*
X110237300Y-93425000D02*
X105157300Y-88345000D01*
X86003500Y-150990000D02*
X88525000Y-150990000D01*
X104759300Y-107395000D02*
X104943100Y-107211200D01*
X101500300Y-110970000D02*
X101500300Y-108784400D01*
X102889700Y-107395000D02*
X104759300Y-107395000D01*
X99975000Y-110970000D02*
X101500300Y-110970000D01*
X101500300Y-108784400D02*
X102889700Y-107395000D01*
X99251900Y-107160000D02*
X97370600Y-109041300D01*
X90374200Y-129560800D02*
X90374200Y-137966100D01*
X90814900Y-125467500D02*
X90814900Y-129120100D01*
X102106700Y-105759800D02*
X100706500Y-107160000D01*
X90814900Y-129120100D02*
X90374200Y-129560800D01*
X90746100Y-125398700D02*
X90814900Y-125467500D01*
X103632000Y-103585000D02*
X102106700Y-103585000D01*
X88525000Y-138290000D02*
X90050300Y-138290000D01*
X100706500Y-107160000D02*
X99251900Y-107160000D01*
X102106700Y-103585000D02*
X102106700Y-105759800D01*
X90374200Y-137966100D02*
X90050300Y-138290000D01*
X97370600Y-109041300D02*
X97370600Y-123675800D01*
D37*
X153397100Y-116270900D02*
X155694700Y-116270900D01*
X154525100Y-102189100D02*
X158404400Y-106068400D01*
X154525100Y-89326800D02*
X154525100Y-102189100D01*
X153025400Y-115775100D02*
X153025400Y-115899200D01*
X156589800Y-115375800D02*
X156589800Y-114750000D01*
X158404400Y-106068400D02*
X158404400Y-112935400D01*
X153025400Y-115899200D02*
X153397100Y-116270900D01*
X150778300Y-85580000D02*
X154525100Y-89326800D01*
X155694700Y-116270900D02*
X156589800Y-115375800D01*
X158404400Y-112935400D02*
X156589800Y-114750000D01*
X151125100Y-115775100D02*
X153025400Y-115775100D01*
X148878000Y-85580000D02*
X150778300Y-85580000D01*
D36*
X88525000Y-145910000D02*
X88525000Y-148450000D01*
X66805200Y-79990000D02*
X66200500Y-80594700D01*
X70046400Y-125979500D02*
X68738400Y-124671500D01*
X66805200Y-71845200D02*
X66805200Y-79990000D01*
X79379700Y-136684800D02*
X79834300Y-137139400D01*
X79379700Y-132899200D02*
X79379700Y-136684800D01*
X86999700Y-142321400D02*
X86999700Y-143370000D01*
X88525000Y-143370000D02*
X86999700Y-143370000D01*
X81817700Y-137139400D02*
X86999700Y-142321400D01*
X66200500Y-87265900D02*
X66200500Y-81720000D01*
X68738400Y-124671500D02*
X68738400Y-89803700D01*
X76253600Y-129773100D02*
X79379700Y-132899200D01*
X66200600Y-87265900D02*
X66200500Y-87265900D01*
X68738400Y-89803700D02*
X66200600Y-87265900D01*
X79834300Y-137139400D02*
X81817700Y-137139400D01*
X65430000Y-70470000D02*
X66805200Y-71845200D01*
X66200500Y-81720000D02*
X66200500Y-80594700D01*
X175166800Y-72500000D02*
X174157300Y-73509500D01*
X176292100Y-72500000D02*
X175166800Y-72500000D01*
X174157300Y-73509500D02*
X174157300Y-74890000D01*
X172632000Y-74890000D02*
X174157300Y-74890000D01*
X120397300Y-88345000D02*
X122428700Y-90376300D01*
X121705000Y-94545000D02*
X121705000Y-91100000D01*
X118872000Y-88345000D02*
X120397300Y-88345000D01*
X122428700Y-90376300D02*
X123444000Y-89361000D01*
X121705000Y-91100000D02*
X122428700Y-90376300D01*
X76180000Y-112609700D02*
X75812700Y-112609700D01*
X72601000Y-97170000D02*
X74126300Y-97170000D01*
X74126300Y-110923300D02*
X74126300Y-97170000D01*
X76180000Y-113785000D02*
X76180000Y-112609700D01*
X75812700Y-112609700D02*
X74126300Y-110923300D01*
X70771700Y-127821900D02*
X70771700Y-105689800D01*
X69188700Y-89617100D02*
X67536600Y-87965000D01*
X77159100Y-139745700D02*
X77159100Y-132693500D01*
X69188700Y-104106800D02*
X69188700Y-89617100D01*
X77159100Y-132693500D02*
X73385600Y-128920000D01*
X67536600Y-87965000D02*
X67536600Y-67423400D01*
X67536600Y-67423400D02*
X71240000Y-63720000D01*
X71869800Y-128920000D02*
X70771700Y-127821900D01*
X73385600Y-128920000D02*
X71869800Y-128920000D01*
X80905000Y-143370000D02*
X80783400Y-143370000D01*
X70771700Y-105689800D02*
X69188700Y-104106800D01*
X80783400Y-143370000D02*
X77159100Y-139745700D01*
X126105300Y-123970000D02*
X126105300Y-124699600D01*
X138046000Y-135115000D02*
X136520700Y-135115000D01*
X124930000Y-123970000D02*
X126105300Y-123970000D01*
X126105300Y-124699600D02*
X136520700Y-135115000D01*
X199755300Y-92511300D02*
X197930000Y-90686000D01*
X202480000Y-104480000D02*
X199755300Y-101755300D01*
X199755300Y-101755300D02*
X199755300Y-92511300D01*
X78465700Y-99632200D02*
X74126300Y-95292800D01*
X74126300Y-95292800D02*
X74126300Y-92090000D01*
X87749300Y-122470000D02*
X89224500Y-122470000D01*
X72601000Y-92090000D02*
X74126300Y-92090000D01*
X90829700Y-131436700D02*
X90829700Y-140921000D01*
X91471500Y-124717000D02*
X91471500Y-130794900D01*
X91471500Y-130794900D02*
X90829700Y-131436700D01*
X78465700Y-105537900D02*
X78465700Y-99632200D01*
X89224500Y-122470000D02*
X91471500Y-124717000D01*
X86165300Y-120886000D02*
X87749300Y-122470000D01*
X92355000Y-140921000D02*
X90829700Y-140921000D01*
X86165300Y-112195200D02*
X86165300Y-111781500D01*
X86165300Y-112195200D02*
X86165300Y-120886000D01*
X86165300Y-111781500D02*
X81758400Y-107374600D01*
X80302400Y-107374600D02*
X78465700Y-105537900D01*
X81758400Y-107374600D02*
X80302400Y-107374600D01*
X101500300Y-123871300D02*
X102516400Y-124887400D01*
X139571300Y-134634600D02*
X138781700Y-133845000D01*
X136663600Y-133845000D02*
X129188200Y-126369600D01*
X138046000Y-137655000D02*
X139571300Y-137655000D01*
X99975000Y-116050000D02*
X101500300Y-116050000D01*
X138781700Y-133845000D02*
X136663600Y-133845000D01*
X101500300Y-116050000D02*
X101500300Y-123871300D01*
X139571300Y-137655000D02*
X139571300Y-134634600D01*
X90305300Y-79085000D02*
X90305300Y-79929000D01*
X91646300Y-81270000D02*
X94664700Y-81270000D01*
X90305300Y-79929000D02*
X91646300Y-81270000D01*
X94664700Y-81270000D02*
X98474700Y-85080000D01*
X100000000Y-85080000D02*
X98474700Y-85080000D01*
X89180000Y-79085000D02*
X90305300Y-79085000D01*
X100663900Y-76116100D02*
X98971800Y-76116100D01*
X93965700Y-71110000D02*
X91627000Y-71110000D01*
X98971800Y-76116100D02*
X93965700Y-71110000D01*
X90305300Y-69788300D02*
X90305300Y-69085000D01*
X101525300Y-80000000D02*
X101525300Y-76977500D01*
X91627000Y-71110000D02*
X90305300Y-69788300D01*
X101525300Y-76977500D02*
X100663900Y-76116100D01*
X100000000Y-80000000D02*
X101525300Y-80000000D01*
X89180000Y-69085000D02*
X90305300Y-69085000D01*
X105157300Y-113745000D02*
X105672900Y-113229400D01*
X101479100Y-99674400D02*
X90402700Y-88598000D01*
X105672900Y-113229400D02*
X105672900Y-103623500D01*
X101479100Y-100915100D02*
X101479100Y-99674400D01*
X103632000Y-113745000D02*
X105157300Y-113745000D01*
X102944800Y-102380800D02*
X101479100Y-100915100D01*
X105672900Y-103623500D02*
X104430200Y-102380800D01*
X104430200Y-102380800D02*
X102944800Y-102380800D01*
X101399300Y-152487000D02*
X102405900Y-151480400D01*
X102405900Y-151480400D02*
X104571700Y-151480400D01*
X108596300Y-147455800D02*
X108596300Y-139470700D01*
X104571700Y-151480400D02*
X108596300Y-147455800D01*
X108456700Y-94695000D02*
X98423800Y-94695000D01*
X98423800Y-94695000D02*
X91636000Y-87907200D01*
X117346700Y-103585000D02*
X108456700Y-94695000D01*
X118872000Y-103585000D02*
X117346700Y-103585000D01*
X75680000Y-118975300D02*
X74552700Y-120102600D01*
X83902900Y-144376100D02*
X83902900Y-147856900D01*
X83902900Y-147856900D02*
X86114800Y-150068800D01*
X74552700Y-129172200D02*
X78335300Y-132954800D01*
X75680000Y-117850000D02*
X75680000Y-118975300D01*
X74552700Y-120102600D02*
X74552700Y-129172200D01*
X78335300Y-132954800D02*
X78335300Y-140285000D01*
X81626800Y-142100000D02*
X83902900Y-144376100D01*
X80150300Y-142100000D02*
X81626800Y-142100000D01*
X78335300Y-140285000D02*
X80150300Y-142100000D01*
X87676800Y-63550300D02*
X83958200Y-63550300D01*
X90156500Y-66030000D02*
X87676800Y-63550300D01*
X93173300Y-66030000D02*
X90156500Y-66030000D01*
X83958200Y-63550300D02*
X83150300Y-62742400D01*
X83150300Y-62742400D02*
X83150300Y-62375000D01*
X81975000Y-62375000D02*
X83150300Y-62375000D01*
X98474700Y-71331400D02*
X93173300Y-66030000D01*
X98474700Y-72380000D02*
X98474700Y-71331400D01*
X100000000Y-72380000D02*
X98474700Y-72380000D01*
X84515000Y-62375000D02*
X85690300Y-62375000D01*
X97072700Y-63358000D02*
X98474700Y-64760000D01*
X86091200Y-62775900D02*
X90055400Y-62775900D01*
X100000000Y-64760000D02*
X98474700Y-64760000D01*
X90637500Y-63358000D02*
X97072700Y-63358000D01*
X85690300Y-62375000D02*
X86091200Y-62775900D01*
X90055400Y-62775900D02*
X90637500Y-63358000D01*
X90760000Y-67865000D02*
X88179700Y-67865000D01*
X98474700Y-74920000D02*
X98474700Y-73871400D01*
X83150300Y-65282400D02*
X83150300Y-64915000D01*
X98474700Y-73871400D02*
X93317900Y-68714600D01*
X91609600Y-68714600D02*
X90760000Y-67865000D01*
X93317900Y-68714600D02*
X91609600Y-68714600D01*
X100000000Y-74920000D02*
X98474700Y-74920000D01*
X81975000Y-64915000D02*
X83150300Y-64915000D01*
X83958200Y-66090300D02*
X83150300Y-65282400D01*
X86405000Y-66090300D02*
X83958200Y-66090300D01*
X88179700Y-67865000D02*
X86405000Y-66090300D01*
X86405000Y-68630300D02*
X83958200Y-68630300D01*
X94664700Y-73650000D02*
X91424700Y-73650000D01*
X100000000Y-77460000D02*
X98474700Y-77460000D01*
X83958200Y-68630300D02*
X83150300Y-67822400D01*
X83150300Y-67822400D02*
X83150300Y-67455000D01*
X91424700Y-73650000D02*
X86405000Y-68630300D01*
X81975000Y-67455000D02*
X83150300Y-67455000D01*
X98474700Y-77460000D02*
X94664700Y-73650000D01*
X85899600Y-71170300D02*
X83958200Y-71170300D01*
X81975000Y-69995000D02*
X83150300Y-69995000D01*
X83150300Y-70362400D02*
X83150300Y-69995000D01*
X83958200Y-71170300D02*
X83150300Y-70362400D01*
X90854700Y-76125400D02*
X85899600Y-71170300D01*
X92380000Y-77460000D02*
X90854700Y-77460000D01*
X90854700Y-77460000D02*
X90854700Y-76125400D01*
X90316400Y-77936400D02*
X90316400Y-76248200D01*
X83150300Y-77247600D02*
X83150300Y-77615000D01*
X92380000Y-80000000D02*
X90316400Y-77936400D01*
X85050500Y-76439700D02*
X83958200Y-76439700D01*
X89646200Y-75578000D02*
X85912200Y-75578000D01*
X85912200Y-75578000D02*
X85050500Y-76439700D01*
X81975000Y-77615000D02*
X83150300Y-77615000D01*
X90316400Y-76248200D02*
X89646200Y-75578000D01*
X83958200Y-76439700D02*
X83150300Y-77247600D01*
X58886300Y-101783600D02*
X58886300Y-104790000D01*
X53680000Y-99310000D02*
X55350000Y-100980000D01*
X58082700Y-100980000D02*
X58886300Y-101783600D01*
X55350000Y-100980000D02*
X58082700Y-100980000D01*
X57361000Y-104790000D02*
X58886300Y-104790000D01*
X55835700Y-112654300D02*
X55835700Y-112410000D01*
X57361000Y-112410000D02*
X55835700Y-112410000D01*
X49180000Y-119310000D02*
X55835700Y-112654300D01*
X53680000Y-119310000D02*
X54015700Y-119310000D01*
X57361000Y-117490000D02*
X55835700Y-117490000D01*
X54015700Y-119310000D02*
X55835700Y-117490000D01*
M02*
