M48
; DRILL file {KiCad (6.0.11)} date Sat Dec 23 16:41:29 2023
; FORMAT={-:-/ absolute / inch / decimal}
; #@! TF.CreationDate,2023-12-23T16:41:29-05:00
; #@! TF.GenerationSoftware,Kicad,Pcbnew,(6.0.11)
; #@! TF.FileFunction,Plated,1,2,PTH
FMAT,2
INCH
; #@! TA.AperFunction,Plated,PTH,ComponentDrill
T1C0.0118
; #@! TA.AperFunction,Plated,PTH,ViaDrill
T2C0.0157
; #@! TA.AperFunction,Plated,PTH,ComponentDrill
T3C0.0295
; #@! TA.AperFunction,Plated,PTH,ComponentDrill
T4C0.0315
; #@! TA.AperFunction,Plated,PTH,ComponentDrill
T5C0.0354
; #@! TA.AperFunction,Plated,PTH,ComponentDrill
T6C0.0394
; #@! TA.AperFunction,Plated,PTH,ComponentDrill
T7C0.0433
; #@! TA.AperFunction,Plated,PTH,ComponentDrill
T8C0.0787
; #@! TA.AperFunction,Plated,PTH,ComponentDrill
T9C0.1000
; #@! TA.AperFunction,Plated,PTH,ComponentDrill
T10C0.1260
%
G90
G05
T1
X7.063Y-7.1358
X7.1102Y-7.1358
T2
X3.703Y-6.7752
X3.7532Y-6.7889
X3.8375Y-6.8158
X4.0594Y-6.8421
X4.7638Y-6.6254
X4.884Y-6.8895
X4.9824Y-6.246
X5.1716Y-6.9478
X5.2657Y-6.9979
X5.4599Y-6.5811
X5.4889Y-7.1962
X5.5061Y-7.579
X5.5147Y-7.6477
X6.3543Y-6.6708
X6.7427Y-6.6117
X8.0674Y-7.2366
X8.2595Y-7.2154
X8.388Y-7.1866
X8.4148Y-7.1411
T3
X7.5197Y-6.1024
X7.5697Y-6.0524
X7.6197Y-6.1024
X7.9921Y-6.1024
X8.0421Y-6.0524
X8.0921Y-6.1024
X8.3858Y-6.1024
X8.4358Y-6.0524
X8.4858Y-6.1024
T4
X2.2516Y-6.1024
X2.5516Y-6.1024
X3.1004Y-6.0039
X3.1004Y-6.2008
X3.2608Y-6.4567
X3.2707Y-5.9913
X3.2707Y-6.2913
X3.3608Y-6.4567
X3.3707Y-5.9913
X3.3707Y-6.2913
X3.4608Y-6.4567
X3.4707Y-5.9913
X3.4707Y-6.2913
X3.5608Y-6.4567
X3.5707Y-5.9913
X3.5707Y-6.2913
X3.6608Y-6.4567
X3.6707Y-5.9913
X3.6707Y-6.2913
X3.7608Y-6.4567
X3.7707Y-5.9913
X3.7707Y-6.2913
X3.8608Y-6.4567
X3.8707Y-5.9913
X3.8707Y-6.2913
X3.9608Y-6.4567
X3.9707Y-5.9913
X3.9707Y-6.2913
X4.0608Y-6.4567
X4.0707Y-5.9913
X4.0707Y-6.2913
X4.1707Y-5.9913
X4.1707Y-6.2913
X7.4016Y-6.4173
X7.5Y-6.4173
X7.5Y-6.7323
X7.6378Y-6.4173
X7.6969Y-6.7323
X7.7362Y-6.4173
X7.8815Y-6.4173
X7.8815Y-6.6535
X8.1815Y-6.4173
X8.1815Y-6.6535
X8.2752Y-6.4173
X8.2752Y-6.6535
X8.5752Y-6.4173
X8.5752Y-6.6535
T5
X2.0079Y-6.1024
X2.1079Y-6.1024
X3.7617Y-7.0472
X3.8617Y-7.0472
X4.1517Y-7.0472
X4.2517Y-7.0472
X4.5417Y-7.0473
X4.6417Y-7.0473
X4.9317Y-7.0472
X5.0317Y-7.0472
X5.3217Y-7.0472
X5.4217Y-7.0472
X5.7117Y-7.0473
X5.8117Y-7.0473
X6.1017Y-7.0473
X6.2017Y-7.0473
X6.4917Y-7.0472
X6.5917Y-7.0472
X7.5482Y-7.0472
X7.6482Y-7.0472
T6
X1.7963Y-6.8366
X1.7963Y-6.9366
X1.7963Y-7.0366
X1.7963Y-7.1366
X1.7963Y-7.2366
X1.7963Y-7.3366
X1.7963Y-7.624
X1.7963Y-7.724
X1.7963Y-7.824
X1.7963Y-7.924
X1.7963Y-8.024
X1.7963Y-8.124
X2.6134Y-6.8188
X2.7134Y-6.8188
X2.8134Y-6.8188
X2.9134Y-6.8188
X5.0539Y-6.3546
X5.0539Y-6.4546
X5.1539Y-6.3546
X5.1539Y-6.4546
X5.2539Y-6.3546
X5.2539Y-6.4546
X5.3539Y-6.3546
X5.3539Y-6.4546
X5.4539Y-6.3546
X5.4539Y-6.4546
X5.5539Y-6.3546
X5.5539Y-6.4546
X5.6539Y-6.3546
X5.6539Y-6.4546
X5.7539Y-6.3546
X5.7539Y-6.4546
X5.8539Y-6.3546
X5.8539Y-6.4546
X5.9539Y-6.3546
X5.9539Y-6.4546
X6.0539Y-6.3546
X6.0539Y-6.4546
X6.1539Y-6.3546
X6.1539Y-6.4546
X6.2539Y-6.3546
X6.2539Y-6.4546
X6.3539Y-6.3546
X6.3539Y-6.4546
X6.4539Y-6.3546
X6.4539Y-6.4546
X6.5539Y-6.3546
X6.5539Y-6.4546
X6.6539Y-6.3546
X6.6539Y-6.4546
X6.7539Y-6.3546
X6.7539Y-6.4546
X6.8539Y-6.3546
X6.8539Y-6.4546
X6.9539Y-6.3546
X6.9539Y-6.4546
X9.1781Y-8.1102
X9.2781Y-8.1102
X9.3781Y-8.1102
X9.4781Y-8.1102
X9.5781Y-8.1102
X9.6781Y-8.1102
X9.7781Y-8.1102
X9.8781Y-8.1102
T7
X8.376Y-7.628
X8.376Y-7.8051
X8.6319Y-7.628
X8.6319Y-7.8051
T8
X2.3071Y-6.8366
X2.3071Y-7.7559
X3.2283Y-6.8366
X3.2283Y-7.7559
T9
X9.1281Y-7.0202
X9.1281Y-7.8202
X9.9281Y-7.0202
X9.9281Y-7.8202
T10
X1.5748Y-6.1024
X1.5748Y-8.8583
X10.4331Y-6.1024
X10.4331Y-8.8583
T6
G00X3.8445Y-7.5413
M15
G01X3.7933Y-7.5413
M16
G05
G00X3.8445Y-7.7165
M15
G01X3.7933Y-7.7165
M16
G05
G00X3.8445Y-7.8917
M15
G01X3.7933Y-7.8917
M16
G05
G00X4.2335Y-7.5413
M15
G01X4.1824Y-7.5413
M16
G05
G00X4.2335Y-7.7165
M15
G01X4.1824Y-7.7165
M16
G05
G00X4.2335Y-7.8917
M15
G01X4.1824Y-7.8917
M16
G05
G00X4.6226Y-7.5413
M15
G01X4.5714Y-7.5413
M16
G05
G00X4.6226Y-7.7165
M15
G01X4.5714Y-7.7165
M16
G05
G00X4.6226Y-7.8917
M15
G01X4.5714Y-7.8917
M16
G05
G00X5.0117Y-7.5413
M15
G01X4.9605Y-7.5413
M16
G05
G00X5.0117Y-7.7165
M15
G01X4.9605Y-7.7165
M16
G05
G00X5.0117Y-7.8917
M15
G01X4.9605Y-7.8917
M16
G05
G00X5.4007Y-7.5413
M15
G01X5.3495Y-7.5413
M16
G05
G00X5.4007Y-7.7165
M15
G01X5.3495Y-7.7165
M16
G05
G00X5.4007Y-7.8917
M15
G01X5.3495Y-7.8917
M16
G05
G00X5.7898Y-7.5413
M15
G01X5.7386Y-7.5413
M16
G05
G00X5.7898Y-7.7165
M15
G01X5.7386Y-7.7165
M16
G05
G00X5.7898Y-7.8917
M15
G01X5.7386Y-7.8917
M16
G05
G00X6.1788Y-7.5413
M15
G01X6.1276Y-7.5413
M16
G05
G00X6.1788Y-7.7165
M15
G01X6.1276Y-7.7165
M16
G05
G00X6.1788Y-7.8917
M15
G01X6.1276Y-7.8917
M16
G05
G00X6.5679Y-7.5413
M15
G01X6.5167Y-7.5413
M16
G05
G00X6.5679Y-7.7165
M15
G01X6.5167Y-7.7165
M16
G05
G00X6.5679Y-7.8917
M15
G01X6.5167Y-7.8917
M16
G05
G00X6.9569Y-7.5413
M15
G01X6.9058Y-7.5413
M16
G05
G00X6.9569Y-7.7165
M15
G01X6.9058Y-7.7165
M16
G05
G00X6.9569Y-7.8917
M15
G01X6.9058Y-7.8917
M16
G05
G00X7.346Y-7.5413
M15
G01X7.2948Y-7.5413
M16
G05
G00X7.346Y-7.7165
M15
G01X7.2948Y-7.7165
M16
G05
G00X7.346Y-7.8917
M15
G01X7.2948Y-7.8917
M16
G05
G00X7.7351Y-7.5413
M15
G01X7.6839Y-7.5413
M16
G05
G00X7.7351Y-7.7165
M15
G01X7.6839Y-7.7165
M16
G05
G00X7.7351Y-7.8917
M15
G01X7.6839Y-7.8917
M16
G05
G00X8.1241Y-7.5413
M15
G01X8.0729Y-7.5413
M16
G05
G00X8.1241Y-7.7165
M15
G01X8.0729Y-7.7165
M16
G05
G00X8.1241Y-7.8917
M15
G01X8.0729Y-7.8917
M16
G05
T0
M30
