M48
; DRILL file {KiCad (6.0.11)} date Sun Dec 17 12:12:55 2023
; FORMAT={-:-/ absolute / inch / decimal}
; #@! TF.CreationDate,2023-12-17T12:12:55-05:00
; #@! TF.GenerationSoftware,Kicad,Pcbnew,(6.0.11)
; #@! TF.FileFunction,Plated,1,2,PTH
FMAT,2
INCH
; #@! TA.AperFunction,Plated,PTH,ComponentDrill
T1C0.0118
; #@! TA.AperFunction,Plated,PTH,ViaDrill
T2C0.0157
; #@! TA.AperFunction,Plated,PTH,ComponentDrill
T3C0.0295
; #@! TA.AperFunction,Plated,PTH,ComponentDrill
T4C0.0315
; #@! TA.AperFunction,Plated,PTH,ComponentDrill
T5C0.0354
; #@! TA.AperFunction,Plated,PTH,ComponentDrill
T6C0.0394
; #@! TA.AperFunction,Plated,PTH,ComponentDrill
T7C0.0433
; #@! TA.AperFunction,Plated,PTH,ComponentDrill
T8C0.0787
; #@! TA.AperFunction,Plated,PTH,ComponentDrill
T9C0.1000
; #@! TA.AperFunction,Plated,PTH,ComponentDrill
T10C0.1260
%
G90
G05
T1
X7.063Y-6.6831
X7.1102Y-6.6831
T2
X3.4924Y-6.51
X3.5992Y-6.8779
X3.9386Y-6.8827
X4.1578Y-6.9309
X4.4989Y-6.5485
X5.1867Y-7.5682
X5.2074Y-7.6033
X5.337Y-6.5305
X5.4096Y-6.5095
X5.4722Y-6.9723
X5.5715Y-6.527
X5.6903Y-7.1731
X6.2699Y-7.6577
X6.3936Y-6.7719
X6.4283Y-6.8072
X7.0487Y-7.0886
X7.5426Y-7.273
X7.5582Y-6.8842
X7.5791Y-7.1753
X7.7584Y-7.1866
X7.7595Y-7.2366
T3
X7.5197Y-6.1024
X7.5697Y-6.0524
X7.6197Y-6.1024
X7.9921Y-6.1024
X8.0421Y-6.0524
X8.0921Y-6.1024
X8.3858Y-6.1024
X8.4358Y-6.0524
X8.4858Y-6.1024
T4
X2.2516Y-6.1024
X2.5516Y-6.1024
X3.1004Y-6.0039
X3.1004Y-6.2008
X3.2608Y-6.4567
X3.2707Y-5.9913
X3.2707Y-6.2913
X3.3608Y-6.4567
X3.3707Y-5.9913
X3.3707Y-6.2913
X3.4608Y-6.4567
X3.4707Y-5.9913
X3.4707Y-6.2913
X3.5608Y-6.4567
X3.5707Y-5.9913
X3.5707Y-6.2913
X3.6608Y-6.4567
X3.6707Y-5.9913
X3.6707Y-6.2913
X3.7608Y-6.4567
X3.7707Y-5.9913
X3.7707Y-6.2913
X3.8608Y-6.4567
X3.8707Y-5.9913
X3.8707Y-6.2913
X3.9608Y-6.4567
X3.9707Y-5.9913
X3.9707Y-6.2913
X4.0608Y-6.4567
X4.0707Y-5.9913
X4.0707Y-6.2913
X4.1707Y-5.9913
X4.1707Y-6.2913
X7.4016Y-6.4173
X7.5Y-6.4173
X7.5Y-6.7323
X7.6378Y-6.4173
X7.6969Y-6.7323
X7.7362Y-6.4173
X7.8815Y-6.4173
X7.8815Y-6.6535
X8.1815Y-6.4173
X8.1815Y-6.6535
X8.2752Y-6.4173
X8.2752Y-6.6535
X8.5752Y-6.4173
X8.5752Y-6.6535
T5
X2.0079Y-6.1024
X2.1079Y-6.1024
X3.7617Y-7.0472
X3.8617Y-7.0472
X4.1517Y-7.0472
X4.2517Y-7.0472
X4.5417Y-7.0473
X4.6417Y-7.0473
X4.9317Y-7.0472
X5.0317Y-7.0472
X5.3217Y-7.0472
X5.4217Y-7.0472
X5.7117Y-7.0473
X5.8117Y-7.0473
X6.1017Y-7.0473
X6.2017Y-7.0473
X6.4917Y-7.0472
X6.5917Y-7.0472
X8.0815Y-7.0472
X8.1815Y-7.0472
T6
X2.4165Y-6.8188
X2.5165Y-6.8188
X2.6165Y-6.8188
X2.7165Y-6.8188
X5.0539Y-6.3546
X5.0539Y-6.4546
X5.1539Y-6.3546
X5.1539Y-6.4546
X5.2539Y-6.3546
X5.2539Y-6.4546
X5.3539Y-6.3546
X5.3539Y-6.4546
X5.4539Y-6.3546
X5.4539Y-6.4546
X5.5539Y-6.3546
X5.5539Y-6.4546
X5.6539Y-6.3546
X5.6539Y-6.4546
X5.7539Y-6.3546
X5.7539Y-6.4546
X5.7539Y-8.5433
X5.8539Y-6.3546
X5.8539Y-6.4546
X5.8539Y-8.5433
X5.9539Y-6.3546
X5.9539Y-6.4546
X5.9539Y-8.5433
X6.0539Y-6.3546
X6.0539Y-6.4546
X6.0539Y-8.5433
X6.1539Y-6.3546
X6.1539Y-6.4546
X6.1539Y-8.5433
X6.2539Y-6.3546
X6.2539Y-6.4546
X6.2539Y-8.5433
X6.2559Y-6.6831
X6.3539Y-6.3546
X6.3539Y-6.4546
X6.3559Y-6.6831
X6.4539Y-6.3546
X6.4539Y-6.4546
X6.4559Y-6.6831
X6.5539Y-6.3546
X6.5539Y-6.4546
X6.5559Y-6.6831
X6.6539Y-6.3546
X6.6539Y-6.4546
X6.6559Y-6.6831
X6.7539Y-6.3546
X6.7539Y-6.4546
X6.7559Y-6.6831
X6.8539Y-6.3546
X6.8539Y-6.4546
X6.9539Y-6.3546
X6.9539Y-6.4546
X9.1781Y-8.1102
X9.2781Y-8.1102
X9.3781Y-8.1102
X9.4781Y-8.1102
X9.5781Y-8.1102
X9.6781Y-8.1102
X9.7781Y-8.1102
X9.8781Y-8.1102
T7
X6.9563Y-6.9079
X6.9563Y-7.085
X7.2122Y-6.9079
X7.2122Y-7.085
T8
X2.1102Y-6.8366
X2.1102Y-7.7559
X3.0315Y-6.8366
X3.0315Y-7.7559
T9
X9.1281Y-7.0202
X9.1281Y-7.8202
X9.9281Y-7.0202
X9.9281Y-7.8202
T10
X1.5748Y-6.1024
X1.5748Y-8.8583
X10.4331Y-6.1024
X10.4331Y-8.8583
T6
G00X3.8445Y-7.5413
M15
G01X3.7933Y-7.5413
M16
G05
G00X3.8445Y-7.7165
M15
G01X3.7933Y-7.7165
M16
G05
G00X3.8445Y-7.8917
M15
G01X3.7933Y-7.8917
M16
G05
G00X4.2335Y-7.5413
M15
G01X4.1824Y-7.5413
M16
G05
G00X4.2335Y-7.7165
M15
G01X4.1824Y-7.7165
M16
G05
G00X4.2335Y-7.8917
M15
G01X4.1824Y-7.8917
M16
G05
G00X4.6226Y-7.5413
M15
G01X4.5714Y-7.5413
M16
G05
G00X4.6226Y-7.7165
M15
G01X4.5714Y-7.7165
M16
G05
G00X4.6226Y-7.8917
M15
G01X4.5714Y-7.8917
M16
G05
G00X5.0117Y-7.5413
M15
G01X4.9605Y-7.5413
M16
G05
G00X5.0117Y-7.7165
M15
G01X4.9605Y-7.7165
M16
G05
G00X5.0117Y-7.8917
M15
G01X4.9605Y-7.8917
M16
G05
G00X5.4007Y-7.5413
M15
G01X5.3495Y-7.5413
M16
G05
G00X5.4007Y-7.7165
M15
G01X5.3495Y-7.7165
M16
G05
G00X5.4007Y-7.8917
M15
G01X5.3495Y-7.8917
M16
G05
G00X5.7898Y-7.5413
M15
G01X5.7386Y-7.5413
M16
G05
G00X5.7898Y-7.7165
M15
G01X5.7386Y-7.7165
M16
G05
G00X5.7898Y-7.8917
M15
G01X5.7386Y-7.8917
M16
G05
G00X6.1788Y-7.5413
M15
G01X6.1276Y-7.5413
M16
G05
G00X6.1788Y-7.7165
M15
G01X6.1276Y-7.7165
M16
G05
G00X6.1788Y-7.8917
M15
G01X6.1276Y-7.8917
M16
G05
G00X6.5679Y-7.5413
M15
G01X6.5167Y-7.5413
M16
G05
G00X6.5679Y-7.7165
M15
G01X6.5167Y-7.7165
M16
G05
G00X6.5679Y-7.8917
M15
G01X6.5167Y-7.8917
M16
G05
G00X6.9569Y-7.5413
M15
G01X6.9058Y-7.5413
M16
G05
G00X6.9569Y-7.7165
M15
G01X6.9058Y-7.7165
M16
G05
G00X6.9569Y-7.8917
M15
G01X6.9058Y-7.8917
M16
G05
G00X7.346Y-7.5413
M15
G01X7.2948Y-7.5413
M16
G05
G00X7.346Y-7.7165
M15
G01X7.2948Y-7.7165
M16
G05
G00X7.346Y-7.8917
M15
G01X7.2948Y-7.8917
M16
G05
G00X7.7351Y-7.5413
M15
G01X7.6839Y-7.5413
M16
G05
G00X7.7351Y-7.7165
M15
G01X7.6839Y-7.7165
M16
G05
G00X7.7351Y-7.8917
M15
G01X7.6839Y-7.8917
M16
G05
G00X8.1241Y-7.5413
M15
G01X8.0729Y-7.5413
M16
G05
G00X8.1241Y-7.7165
M15
G01X8.0729Y-7.7165
M16
G05
G00X8.1241Y-7.8917
M15
G01X8.0729Y-7.8917
M16
G05
T0
M30
