%TF.GenerationSoftware,KiCad,Pcbnew,(6.0.11)*%
%TF.CreationDate,2024-01-14T19:16:46-05:00*%
%TF.ProjectId,input-output.Disk,696e7075-742d-46f7-9574-7075742e4469,rev?*%
%TF.SameCoordinates,Original*%
%TF.FileFunction,Drillmap*%
%TF.FilePolarity,Positive*%
%FSLAX45Y45*%
G04 Gerber Fmt 4.5, Leading zero omitted, Abs format (unit mm)*
G04 Created by KiCad (PCBNEW (6.0.11)) date 2024-01-14 19:16:46*
%MOMM*%
%LPD*%
G01*
G04 APERTURE LIST*
%ADD10C,0.050000*%
%ADD11C,0.200000*%
%ADD12C,0.150000*%
%ADD13C,0.350000*%
G04 APERTURE END LIST*
D10*
X3500000Y-7500000D02*
X3500000Y-22500000D01*
X4000000Y-23000000D02*
X26500000Y-23000000D01*
X27000000Y-22500000D02*
X27000000Y-7500000D01*
X26500000Y-7000000D02*
X4000000Y-7000000D01*
X27000000Y-7500000D02*
G75*
G03*
X26500000Y-7000000I-500000J0D01*
G01*
X3500000Y-22500000D02*
G75*
G03*
X4000000Y-23000000I500000J0D01*
G01*
X4000000Y-7000000D02*
G75*
G03*
X3500000Y-7500000I0J-500000D01*
G01*
X26500000Y-23000000D02*
G75*
G03*
X27000000Y-22500000I0J500000D01*
G01*
D11*
D12*
X23230000Y-7910000D02*
X23380000Y-8060000D01*
X23380000Y-7910000D02*
X23230000Y-8060000D01*
X25650000Y-7910000D02*
X25800000Y-8060000D01*
X25800000Y-7910000D02*
X25650000Y-8060000D01*
D13*
X20232000Y-9850000D02*
G75*
G03*
X20232000Y-9850000I-175000J0D01*
G01*
D11*
X3755119Y-23312976D02*
X3755119Y-23112976D01*
X3802738Y-23112976D01*
X3831309Y-23122500D01*
X3850357Y-23141548D01*
X3859881Y-23160595D01*
X3869405Y-23198690D01*
X3869405Y-23227262D01*
X3859881Y-23265357D01*
X3850357Y-23284405D01*
X3831309Y-23303452D01*
X3802738Y-23312976D01*
X3755119Y-23312976D01*
X3955119Y-23312976D02*
X3955119Y-23179643D01*
X3955119Y-23217738D02*
X3964643Y-23198690D01*
X3974167Y-23189167D01*
X3993214Y-23179643D01*
X4012262Y-23179643D01*
X4078928Y-23312976D02*
X4078928Y-23179643D01*
X4078928Y-23112976D02*
X4069405Y-23122500D01*
X4078928Y-23132024D01*
X4088452Y-23122500D01*
X4078928Y-23112976D01*
X4078928Y-23132024D01*
X4202738Y-23312976D02*
X4183690Y-23303452D01*
X4174167Y-23284405D01*
X4174167Y-23112976D01*
X4307500Y-23312976D02*
X4288452Y-23303452D01*
X4278929Y-23284405D01*
X4278929Y-23112976D01*
X4536071Y-23312976D02*
X4536071Y-23112976D01*
X4602738Y-23255833D01*
X4669405Y-23112976D01*
X4669405Y-23312976D01*
X4850357Y-23312976D02*
X4850357Y-23208214D01*
X4840833Y-23189167D01*
X4821786Y-23179643D01*
X4783690Y-23179643D01*
X4764643Y-23189167D01*
X4850357Y-23303452D02*
X4831310Y-23312976D01*
X4783690Y-23312976D01*
X4764643Y-23303452D01*
X4755119Y-23284405D01*
X4755119Y-23265357D01*
X4764643Y-23246309D01*
X4783690Y-23236786D01*
X4831310Y-23236786D01*
X4850357Y-23227262D01*
X4945595Y-23179643D02*
X4945595Y-23379643D01*
X4945595Y-23189167D02*
X4964643Y-23179643D01*
X5002738Y-23179643D01*
X5021786Y-23189167D01*
X5031310Y-23198690D01*
X5040833Y-23217738D01*
X5040833Y-23274881D01*
X5031310Y-23293928D01*
X5021786Y-23303452D01*
X5002738Y-23312976D01*
X4964643Y-23312976D01*
X4945595Y-23303452D01*
X5126548Y-23293928D02*
X5136071Y-23303452D01*
X5126548Y-23312976D01*
X5117024Y-23303452D01*
X5126548Y-23293928D01*
X5126548Y-23312976D01*
X5126548Y-23189167D02*
X5136071Y-23198690D01*
X5126548Y-23208214D01*
X5117024Y-23198690D01*
X5126548Y-23189167D01*
X5126548Y-23208214D01*
D12*
X3347500Y-23567500D02*
X3497500Y-23717500D01*
X3497500Y-23567500D02*
X3347500Y-23717500D01*
D11*
X3859881Y-23732976D02*
X3745595Y-23732976D01*
X3802738Y-23732976D02*
X3802738Y-23532976D01*
X3783690Y-23561548D01*
X3764643Y-23580595D01*
X3745595Y-23590119D01*
X3945595Y-23713928D02*
X3955119Y-23723452D01*
X3945595Y-23732976D01*
X3936071Y-23723452D01*
X3945595Y-23713928D01*
X3945595Y-23732976D01*
X4136071Y-23532976D02*
X4040833Y-23532976D01*
X4031309Y-23628214D01*
X4040833Y-23618690D01*
X4059881Y-23609167D01*
X4107500Y-23609167D01*
X4126548Y-23618690D01*
X4136071Y-23628214D01*
X4145595Y-23647262D01*
X4145595Y-23694881D01*
X4136071Y-23713928D01*
X4126548Y-23723452D01*
X4107500Y-23732976D01*
X4059881Y-23732976D01*
X4040833Y-23723452D01*
X4031309Y-23713928D01*
X4269405Y-23532976D02*
X4288452Y-23532976D01*
X4307500Y-23542500D01*
X4317024Y-23552024D01*
X4326548Y-23571071D01*
X4336071Y-23609167D01*
X4336071Y-23656786D01*
X4326548Y-23694881D01*
X4317024Y-23713928D01*
X4307500Y-23723452D01*
X4288452Y-23732976D01*
X4269405Y-23732976D01*
X4250357Y-23723452D01*
X4240833Y-23713928D01*
X4231310Y-23694881D01*
X4221786Y-23656786D01*
X4221786Y-23609167D01*
X4231310Y-23571071D01*
X4240833Y-23552024D01*
X4250357Y-23542500D01*
X4269405Y-23532976D01*
X4459881Y-23532976D02*
X4478929Y-23532976D01*
X4497976Y-23542500D01*
X4507500Y-23552024D01*
X4517024Y-23571071D01*
X4526548Y-23609167D01*
X4526548Y-23656786D01*
X4517024Y-23694881D01*
X4507500Y-23713928D01*
X4497976Y-23723452D01*
X4478929Y-23732976D01*
X4459881Y-23732976D01*
X4440833Y-23723452D01*
X4431310Y-23713928D01*
X4421786Y-23694881D01*
X4412262Y-23656786D01*
X4412262Y-23609167D01*
X4421786Y-23571071D01*
X4431310Y-23552024D01*
X4440833Y-23542500D01*
X4459881Y-23532976D01*
X4612262Y-23732976D02*
X4612262Y-23599643D01*
X4612262Y-23618690D02*
X4621786Y-23609167D01*
X4640833Y-23599643D01*
X4669405Y-23599643D01*
X4688452Y-23609167D01*
X4697976Y-23628214D01*
X4697976Y-23732976D01*
X4697976Y-23628214D02*
X4707500Y-23609167D01*
X4726548Y-23599643D01*
X4755119Y-23599643D01*
X4774167Y-23609167D01*
X4783690Y-23628214D01*
X4783690Y-23732976D01*
X4878929Y-23732976D02*
X4878929Y-23599643D01*
X4878929Y-23618690D02*
X4888452Y-23609167D01*
X4907500Y-23599643D01*
X4936071Y-23599643D01*
X4955119Y-23609167D01*
X4964643Y-23628214D01*
X4964643Y-23732976D01*
X4964643Y-23628214D02*
X4974167Y-23609167D01*
X4993214Y-23599643D01*
X5021786Y-23599643D01*
X5040833Y-23609167D01*
X5050357Y-23628214D01*
X5050357Y-23732976D01*
X5440833Y-23523452D02*
X5269405Y-23780595D01*
X5697976Y-23532976D02*
X5717024Y-23532976D01*
X5736071Y-23542500D01*
X5745595Y-23552024D01*
X5755119Y-23571071D01*
X5764643Y-23609167D01*
X5764643Y-23656786D01*
X5755119Y-23694881D01*
X5745595Y-23713928D01*
X5736071Y-23723452D01*
X5717024Y-23732976D01*
X5697976Y-23732976D01*
X5678928Y-23723452D01*
X5669405Y-23713928D01*
X5659881Y-23694881D01*
X5650357Y-23656786D01*
X5650357Y-23609167D01*
X5659881Y-23571071D01*
X5669405Y-23552024D01*
X5678928Y-23542500D01*
X5697976Y-23532976D01*
X5850357Y-23713928D02*
X5859881Y-23723452D01*
X5850357Y-23732976D01*
X5840833Y-23723452D01*
X5850357Y-23713928D01*
X5850357Y-23732976D01*
X5983690Y-23532976D02*
X6002738Y-23532976D01*
X6021786Y-23542500D01*
X6031309Y-23552024D01*
X6040833Y-23571071D01*
X6050357Y-23609167D01*
X6050357Y-23656786D01*
X6040833Y-23694881D01*
X6031309Y-23713928D01*
X6021786Y-23723452D01*
X6002738Y-23732976D01*
X5983690Y-23732976D01*
X5964643Y-23723452D01*
X5955119Y-23713928D01*
X5945595Y-23694881D01*
X5936071Y-23656786D01*
X5936071Y-23609167D01*
X5945595Y-23571071D01*
X5955119Y-23552024D01*
X5964643Y-23542500D01*
X5983690Y-23532976D01*
X6231309Y-23532976D02*
X6136071Y-23532976D01*
X6126548Y-23628214D01*
X6136071Y-23618690D01*
X6155119Y-23609167D01*
X6202738Y-23609167D01*
X6221786Y-23618690D01*
X6231309Y-23628214D01*
X6240833Y-23647262D01*
X6240833Y-23694881D01*
X6231309Y-23713928D01*
X6221786Y-23723452D01*
X6202738Y-23732976D01*
X6155119Y-23732976D01*
X6136071Y-23723452D01*
X6126548Y-23713928D01*
X6336071Y-23732976D02*
X6374167Y-23732976D01*
X6393214Y-23723452D01*
X6402738Y-23713928D01*
X6421786Y-23685357D01*
X6431309Y-23647262D01*
X6431309Y-23571071D01*
X6421786Y-23552024D01*
X6412262Y-23542500D01*
X6393214Y-23532976D01*
X6355119Y-23532976D01*
X6336071Y-23542500D01*
X6326548Y-23552024D01*
X6317024Y-23571071D01*
X6317024Y-23618690D01*
X6326548Y-23637738D01*
X6336071Y-23647262D01*
X6355119Y-23656786D01*
X6393214Y-23656786D01*
X6412262Y-23647262D01*
X6421786Y-23637738D01*
X6431309Y-23618690D01*
X6621786Y-23732976D02*
X6507500Y-23732976D01*
X6564643Y-23732976D02*
X6564643Y-23532976D01*
X6545595Y-23561548D01*
X6526548Y-23580595D01*
X6507500Y-23590119D01*
X6697976Y-23532976D02*
X6697976Y-23571071D01*
X6774167Y-23532976D02*
X6774167Y-23571071D01*
X7069405Y-23809167D02*
X7059881Y-23799643D01*
X7040833Y-23771071D01*
X7031309Y-23752024D01*
X7021786Y-23723452D01*
X7012262Y-23675833D01*
X7012262Y-23637738D01*
X7021786Y-23590119D01*
X7031309Y-23561548D01*
X7040833Y-23542500D01*
X7059881Y-23513928D01*
X7069405Y-23504405D01*
X7136071Y-23552024D02*
X7145595Y-23542500D01*
X7164643Y-23532976D01*
X7212262Y-23532976D01*
X7231309Y-23542500D01*
X7240833Y-23552024D01*
X7250357Y-23571071D01*
X7250357Y-23590119D01*
X7240833Y-23618690D01*
X7126548Y-23732976D01*
X7250357Y-23732976D01*
X7488452Y-23732976D02*
X7488452Y-23532976D01*
X7574167Y-23732976D02*
X7574167Y-23628214D01*
X7564643Y-23609167D01*
X7545595Y-23599643D01*
X7517024Y-23599643D01*
X7497976Y-23609167D01*
X7488452Y-23618690D01*
X7697976Y-23732976D02*
X7678928Y-23723452D01*
X7669405Y-23713928D01*
X7659881Y-23694881D01*
X7659881Y-23637738D01*
X7669405Y-23618690D01*
X7678928Y-23609167D01*
X7697976Y-23599643D01*
X7726548Y-23599643D01*
X7745595Y-23609167D01*
X7755119Y-23618690D01*
X7764643Y-23637738D01*
X7764643Y-23694881D01*
X7755119Y-23713928D01*
X7745595Y-23723452D01*
X7726548Y-23732976D01*
X7697976Y-23732976D01*
X7878928Y-23732976D02*
X7859881Y-23723452D01*
X7850357Y-23704405D01*
X7850357Y-23532976D01*
X8031309Y-23723452D02*
X8012262Y-23732976D01*
X7974167Y-23732976D01*
X7955119Y-23723452D01*
X7945595Y-23704405D01*
X7945595Y-23628214D01*
X7955119Y-23609167D01*
X7974167Y-23599643D01*
X8012262Y-23599643D01*
X8031309Y-23609167D01*
X8040833Y-23628214D01*
X8040833Y-23647262D01*
X7945595Y-23666309D01*
X8117024Y-23723452D02*
X8136071Y-23732976D01*
X8174167Y-23732976D01*
X8193214Y-23723452D01*
X8202738Y-23704405D01*
X8202738Y-23694881D01*
X8193214Y-23675833D01*
X8174167Y-23666309D01*
X8145595Y-23666309D01*
X8126548Y-23656786D01*
X8117024Y-23637738D01*
X8117024Y-23628214D01*
X8126548Y-23609167D01*
X8145595Y-23599643D01*
X8174167Y-23599643D01*
X8193214Y-23609167D01*
X8269405Y-23809167D02*
X8278928Y-23799643D01*
X8297976Y-23771071D01*
X8307500Y-23752024D01*
X8317024Y-23723452D01*
X8326548Y-23675833D01*
X8326548Y-23637738D01*
X8317024Y-23590119D01*
X8307500Y-23561548D01*
X8297976Y-23542500D01*
X8278928Y-23513928D01*
X8269405Y-23504405D01*
X8631310Y-23809167D02*
X8621786Y-23799643D01*
X8602738Y-23771071D01*
X8593214Y-23752024D01*
X8583690Y-23723452D01*
X8574167Y-23675833D01*
X8574167Y-23637738D01*
X8583690Y-23590119D01*
X8593214Y-23561548D01*
X8602738Y-23542500D01*
X8621786Y-23513928D01*
X8631310Y-23504405D01*
X8707500Y-23599643D02*
X8707500Y-23732976D01*
X8707500Y-23618690D02*
X8717024Y-23609167D01*
X8736071Y-23599643D01*
X8764643Y-23599643D01*
X8783690Y-23609167D01*
X8793214Y-23628214D01*
X8793214Y-23732976D01*
X8917024Y-23732976D02*
X8897976Y-23723452D01*
X8888452Y-23713928D01*
X8878929Y-23694881D01*
X8878929Y-23637738D01*
X8888452Y-23618690D01*
X8897976Y-23609167D01*
X8917024Y-23599643D01*
X8945595Y-23599643D01*
X8964643Y-23609167D01*
X8974167Y-23618690D01*
X8983690Y-23637738D01*
X8983690Y-23694881D01*
X8974167Y-23713928D01*
X8964643Y-23723452D01*
X8945595Y-23732976D01*
X8917024Y-23732976D01*
X9040833Y-23599643D02*
X9117024Y-23599643D01*
X9069405Y-23532976D02*
X9069405Y-23704405D01*
X9078929Y-23723452D01*
X9097976Y-23732976D01*
X9117024Y-23732976D01*
X9336071Y-23599643D02*
X9336071Y-23799643D01*
X9336071Y-23609167D02*
X9355119Y-23599643D01*
X9393214Y-23599643D01*
X9412262Y-23609167D01*
X9421786Y-23618690D01*
X9431310Y-23637738D01*
X9431310Y-23694881D01*
X9421786Y-23713928D01*
X9412262Y-23723452D01*
X9393214Y-23732976D01*
X9355119Y-23732976D01*
X9336071Y-23723452D01*
X9545595Y-23732976D02*
X9526548Y-23723452D01*
X9517024Y-23704405D01*
X9517024Y-23532976D01*
X9707500Y-23732976D02*
X9707500Y-23628214D01*
X9697976Y-23609167D01*
X9678929Y-23599643D01*
X9640833Y-23599643D01*
X9621786Y-23609167D01*
X9707500Y-23723452D02*
X9688452Y-23732976D01*
X9640833Y-23732976D01*
X9621786Y-23723452D01*
X9612262Y-23704405D01*
X9612262Y-23685357D01*
X9621786Y-23666309D01*
X9640833Y-23656786D01*
X9688452Y-23656786D01*
X9707500Y-23647262D01*
X9774167Y-23599643D02*
X9850357Y-23599643D01*
X9802738Y-23532976D02*
X9802738Y-23704405D01*
X9812262Y-23723452D01*
X9831310Y-23732976D01*
X9850357Y-23732976D01*
X9993214Y-23723452D02*
X9974167Y-23732976D01*
X9936071Y-23732976D01*
X9917024Y-23723452D01*
X9907500Y-23704405D01*
X9907500Y-23628214D01*
X9917024Y-23609167D01*
X9936071Y-23599643D01*
X9974167Y-23599643D01*
X9993214Y-23609167D01*
X10002738Y-23628214D01*
X10002738Y-23647262D01*
X9907500Y-23666309D01*
X10174167Y-23732976D02*
X10174167Y-23532976D01*
X10174167Y-23723452D02*
X10155119Y-23732976D01*
X10117024Y-23732976D01*
X10097976Y-23723452D01*
X10088452Y-23713928D01*
X10078929Y-23694881D01*
X10078929Y-23637738D01*
X10088452Y-23618690D01*
X10097976Y-23609167D01*
X10117024Y-23599643D01*
X10155119Y-23599643D01*
X10174167Y-23609167D01*
X10250357Y-23809167D02*
X10259881Y-23799643D01*
X10278929Y-23771071D01*
X10288452Y-23752024D01*
X10297976Y-23723452D01*
X10307500Y-23675833D01*
X10307500Y-23637738D01*
X10297976Y-23590119D01*
X10288452Y-23561548D01*
X10278929Y-23542500D01*
X10259881Y-23513928D01*
X10250357Y-23504405D01*
X3497500Y-23912500D02*
G75*
G03*
X3497500Y-23912500I-100000J0D01*
G01*
X3736071Y-23802976D02*
X3859881Y-23802976D01*
X3793214Y-23879167D01*
X3821786Y-23879167D01*
X3840833Y-23888690D01*
X3850357Y-23898214D01*
X3859881Y-23917262D01*
X3859881Y-23964881D01*
X3850357Y-23983928D01*
X3840833Y-23993452D01*
X3821786Y-24002976D01*
X3764643Y-24002976D01*
X3745595Y-23993452D01*
X3736071Y-23983928D01*
X3945595Y-23983928D02*
X3955119Y-23993452D01*
X3945595Y-24002976D01*
X3936071Y-23993452D01*
X3945595Y-23983928D01*
X3945595Y-24002976D01*
X4136071Y-23802976D02*
X4040833Y-23802976D01*
X4031309Y-23898214D01*
X4040833Y-23888690D01*
X4059881Y-23879167D01*
X4107500Y-23879167D01*
X4126548Y-23888690D01*
X4136071Y-23898214D01*
X4145595Y-23917262D01*
X4145595Y-23964881D01*
X4136071Y-23983928D01*
X4126548Y-23993452D01*
X4107500Y-24002976D01*
X4059881Y-24002976D01*
X4040833Y-23993452D01*
X4031309Y-23983928D01*
X4269405Y-23802976D02*
X4288452Y-23802976D01*
X4307500Y-23812500D01*
X4317024Y-23822024D01*
X4326548Y-23841071D01*
X4336071Y-23879167D01*
X4336071Y-23926786D01*
X4326548Y-23964881D01*
X4317024Y-23983928D01*
X4307500Y-23993452D01*
X4288452Y-24002976D01*
X4269405Y-24002976D01*
X4250357Y-23993452D01*
X4240833Y-23983928D01*
X4231310Y-23964881D01*
X4221786Y-23926786D01*
X4221786Y-23879167D01*
X4231310Y-23841071D01*
X4240833Y-23822024D01*
X4250357Y-23812500D01*
X4269405Y-23802976D01*
X4459881Y-23802976D02*
X4478929Y-23802976D01*
X4497976Y-23812500D01*
X4507500Y-23822024D01*
X4517024Y-23841071D01*
X4526548Y-23879167D01*
X4526548Y-23926786D01*
X4517024Y-23964881D01*
X4507500Y-23983928D01*
X4497976Y-23993452D01*
X4478929Y-24002976D01*
X4459881Y-24002976D01*
X4440833Y-23993452D01*
X4431310Y-23983928D01*
X4421786Y-23964881D01*
X4412262Y-23926786D01*
X4412262Y-23879167D01*
X4421786Y-23841071D01*
X4431310Y-23822024D01*
X4440833Y-23812500D01*
X4459881Y-23802976D01*
X4612262Y-24002976D02*
X4612262Y-23869643D01*
X4612262Y-23888690D02*
X4621786Y-23879167D01*
X4640833Y-23869643D01*
X4669405Y-23869643D01*
X4688452Y-23879167D01*
X4697976Y-23898214D01*
X4697976Y-24002976D01*
X4697976Y-23898214D02*
X4707500Y-23879167D01*
X4726548Y-23869643D01*
X4755119Y-23869643D01*
X4774167Y-23879167D01*
X4783690Y-23898214D01*
X4783690Y-24002976D01*
X4878929Y-24002976D02*
X4878929Y-23869643D01*
X4878929Y-23888690D02*
X4888452Y-23879167D01*
X4907500Y-23869643D01*
X4936071Y-23869643D01*
X4955119Y-23879167D01*
X4964643Y-23898214D01*
X4964643Y-24002976D01*
X4964643Y-23898214D02*
X4974167Y-23879167D01*
X4993214Y-23869643D01*
X5021786Y-23869643D01*
X5040833Y-23879167D01*
X5050357Y-23898214D01*
X5050357Y-24002976D01*
X5440833Y-23793452D02*
X5269405Y-24050595D01*
X5697976Y-23802976D02*
X5717024Y-23802976D01*
X5736071Y-23812500D01*
X5745595Y-23822024D01*
X5755119Y-23841071D01*
X5764643Y-23879167D01*
X5764643Y-23926786D01*
X5755119Y-23964881D01*
X5745595Y-23983928D01*
X5736071Y-23993452D01*
X5717024Y-24002976D01*
X5697976Y-24002976D01*
X5678928Y-23993452D01*
X5669405Y-23983928D01*
X5659881Y-23964881D01*
X5650357Y-23926786D01*
X5650357Y-23879167D01*
X5659881Y-23841071D01*
X5669405Y-23822024D01*
X5678928Y-23812500D01*
X5697976Y-23802976D01*
X5850357Y-23983928D02*
X5859881Y-23993452D01*
X5850357Y-24002976D01*
X5840833Y-23993452D01*
X5850357Y-23983928D01*
X5850357Y-24002976D01*
X6050357Y-24002976D02*
X5936071Y-24002976D01*
X5993214Y-24002976D02*
X5993214Y-23802976D01*
X5974167Y-23831548D01*
X5955119Y-23850595D01*
X5936071Y-23860119D01*
X6117024Y-23802976D02*
X6240833Y-23802976D01*
X6174167Y-23879167D01*
X6202738Y-23879167D01*
X6221786Y-23888690D01*
X6231309Y-23898214D01*
X6240833Y-23917262D01*
X6240833Y-23964881D01*
X6231309Y-23983928D01*
X6221786Y-23993452D01*
X6202738Y-24002976D01*
X6145595Y-24002976D01*
X6126548Y-23993452D01*
X6117024Y-23983928D01*
X6307500Y-23802976D02*
X6440833Y-23802976D01*
X6355119Y-24002976D01*
X6545595Y-23888690D02*
X6526548Y-23879167D01*
X6517024Y-23869643D01*
X6507500Y-23850595D01*
X6507500Y-23841071D01*
X6517024Y-23822024D01*
X6526548Y-23812500D01*
X6545595Y-23802976D01*
X6583690Y-23802976D01*
X6602738Y-23812500D01*
X6612262Y-23822024D01*
X6621786Y-23841071D01*
X6621786Y-23850595D01*
X6612262Y-23869643D01*
X6602738Y-23879167D01*
X6583690Y-23888690D01*
X6545595Y-23888690D01*
X6526548Y-23898214D01*
X6517024Y-23907738D01*
X6507500Y-23926786D01*
X6507500Y-23964881D01*
X6517024Y-23983928D01*
X6526548Y-23993452D01*
X6545595Y-24002976D01*
X6583690Y-24002976D01*
X6602738Y-23993452D01*
X6612262Y-23983928D01*
X6621786Y-23964881D01*
X6621786Y-23926786D01*
X6612262Y-23907738D01*
X6602738Y-23898214D01*
X6583690Y-23888690D01*
X6697976Y-23802976D02*
X6697976Y-23841071D01*
X6774167Y-23802976D02*
X6774167Y-23841071D01*
X7069405Y-24079167D02*
X7059881Y-24069643D01*
X7040833Y-24041071D01*
X7031309Y-24022024D01*
X7021786Y-23993452D01*
X7012262Y-23945833D01*
X7012262Y-23907738D01*
X7021786Y-23860119D01*
X7031309Y-23831548D01*
X7040833Y-23812500D01*
X7059881Y-23783928D01*
X7069405Y-23774405D01*
X7250357Y-24002976D02*
X7136071Y-24002976D01*
X7193214Y-24002976D02*
X7193214Y-23802976D01*
X7174167Y-23831548D01*
X7155119Y-23850595D01*
X7136071Y-23860119D01*
X7488452Y-24002976D02*
X7488452Y-23802976D01*
X7574167Y-24002976D02*
X7574167Y-23898214D01*
X7564643Y-23879167D01*
X7545595Y-23869643D01*
X7517024Y-23869643D01*
X7497976Y-23879167D01*
X7488452Y-23888690D01*
X7697976Y-24002976D02*
X7678928Y-23993452D01*
X7669405Y-23983928D01*
X7659881Y-23964881D01*
X7659881Y-23907738D01*
X7669405Y-23888690D01*
X7678928Y-23879167D01*
X7697976Y-23869643D01*
X7726548Y-23869643D01*
X7745595Y-23879167D01*
X7755119Y-23888690D01*
X7764643Y-23907738D01*
X7764643Y-23964881D01*
X7755119Y-23983928D01*
X7745595Y-23993452D01*
X7726548Y-24002976D01*
X7697976Y-24002976D01*
X7878928Y-24002976D02*
X7859881Y-23993452D01*
X7850357Y-23974405D01*
X7850357Y-23802976D01*
X8031309Y-23993452D02*
X8012262Y-24002976D01*
X7974167Y-24002976D01*
X7955119Y-23993452D01*
X7945595Y-23974405D01*
X7945595Y-23898214D01*
X7955119Y-23879167D01*
X7974167Y-23869643D01*
X8012262Y-23869643D01*
X8031309Y-23879167D01*
X8040833Y-23898214D01*
X8040833Y-23917262D01*
X7945595Y-23936309D01*
X8107500Y-24079167D02*
X8117024Y-24069643D01*
X8136071Y-24041071D01*
X8145595Y-24022024D01*
X8155119Y-23993452D01*
X8164643Y-23945833D01*
X8164643Y-23907738D01*
X8155119Y-23860119D01*
X8145595Y-23831548D01*
X8136071Y-23812500D01*
X8117024Y-23783928D01*
X8107500Y-23774405D01*
X8469405Y-24079167D02*
X8459881Y-24069643D01*
X8440833Y-24041071D01*
X8431310Y-24022024D01*
X8421786Y-23993452D01*
X8412262Y-23945833D01*
X8412262Y-23907738D01*
X8421786Y-23860119D01*
X8431310Y-23831548D01*
X8440833Y-23812500D01*
X8459881Y-23783928D01*
X8469405Y-23774405D01*
X8545595Y-23869643D02*
X8545595Y-24002976D01*
X8545595Y-23888690D02*
X8555119Y-23879167D01*
X8574167Y-23869643D01*
X8602738Y-23869643D01*
X8621786Y-23879167D01*
X8631310Y-23898214D01*
X8631310Y-24002976D01*
X8755119Y-24002976D02*
X8736071Y-23993452D01*
X8726548Y-23983928D01*
X8717024Y-23964881D01*
X8717024Y-23907738D01*
X8726548Y-23888690D01*
X8736071Y-23879167D01*
X8755119Y-23869643D01*
X8783690Y-23869643D01*
X8802738Y-23879167D01*
X8812262Y-23888690D01*
X8821786Y-23907738D01*
X8821786Y-23964881D01*
X8812262Y-23983928D01*
X8802738Y-23993452D01*
X8783690Y-24002976D01*
X8755119Y-24002976D01*
X8878929Y-23869643D02*
X8955119Y-23869643D01*
X8907500Y-23802976D02*
X8907500Y-23974405D01*
X8917024Y-23993452D01*
X8936071Y-24002976D01*
X8955119Y-24002976D01*
X9174167Y-23869643D02*
X9174167Y-24069643D01*
X9174167Y-23879167D02*
X9193214Y-23869643D01*
X9231310Y-23869643D01*
X9250357Y-23879167D01*
X9259881Y-23888690D01*
X9269405Y-23907738D01*
X9269405Y-23964881D01*
X9259881Y-23983928D01*
X9250357Y-23993452D01*
X9231310Y-24002976D01*
X9193214Y-24002976D01*
X9174167Y-23993452D01*
X9383690Y-24002976D02*
X9364643Y-23993452D01*
X9355119Y-23974405D01*
X9355119Y-23802976D01*
X9545595Y-24002976D02*
X9545595Y-23898214D01*
X9536071Y-23879167D01*
X9517024Y-23869643D01*
X9478929Y-23869643D01*
X9459881Y-23879167D01*
X9545595Y-23993452D02*
X9526548Y-24002976D01*
X9478929Y-24002976D01*
X9459881Y-23993452D01*
X9450357Y-23974405D01*
X9450357Y-23955357D01*
X9459881Y-23936309D01*
X9478929Y-23926786D01*
X9526548Y-23926786D01*
X9545595Y-23917262D01*
X9612262Y-23869643D02*
X9688452Y-23869643D01*
X9640833Y-23802976D02*
X9640833Y-23974405D01*
X9650357Y-23993452D01*
X9669405Y-24002976D01*
X9688452Y-24002976D01*
X9831310Y-23993452D02*
X9812262Y-24002976D01*
X9774167Y-24002976D01*
X9755119Y-23993452D01*
X9745595Y-23974405D01*
X9745595Y-23898214D01*
X9755119Y-23879167D01*
X9774167Y-23869643D01*
X9812262Y-23869643D01*
X9831310Y-23879167D01*
X9840833Y-23898214D01*
X9840833Y-23917262D01*
X9745595Y-23936309D01*
X10012262Y-24002976D02*
X10012262Y-23802976D01*
X10012262Y-23993452D02*
X9993214Y-24002976D01*
X9955119Y-24002976D01*
X9936071Y-23993452D01*
X9926548Y-23983928D01*
X9917024Y-23964881D01*
X9917024Y-23907738D01*
X9926548Y-23888690D01*
X9936071Y-23879167D01*
X9955119Y-23869643D01*
X9993214Y-23869643D01*
X10012262Y-23879167D01*
X10088452Y-24079167D02*
X10097976Y-24069643D01*
X10117024Y-24041071D01*
X10126548Y-24022024D01*
X10136071Y-23993452D01*
X10145595Y-23945833D01*
X10145595Y-23907738D01*
X10136071Y-23860119D01*
X10126548Y-23831548D01*
X10117024Y-23812500D01*
X10097976Y-23783928D01*
X10088452Y-23774405D01*
M02*
