%TF.GenerationSoftware,KiCad,Pcbnew,7.0.1*%
%TF.CreationDate,2024-12-08T14:30:23-06:00*%
%TF.ProjectId,input-output.MappedVideo,696e7075-742d-46f7-9574-7075742e4d61,V0.8*%
%TF.SameCoordinates,Original*%
%TF.FileFunction,Soldermask,Top*%
%TF.FilePolarity,Negative*%
%FSLAX46Y46*%
G04 Gerber Fmt 4.6, Leading zero omitted, Abs format (unit mm)*
G04 Created by KiCad (PCBNEW 7.0.1) date 2024-12-08 14:30:23*
%MOMM*%
%LPD*%
G01*
G04 APERTURE LIST*
G04 Aperture macros list*
%AMRoundRect*
0 Rectangle with rounded corners*
0 $1 Rounding radius*
0 $2 $3 $4 $5 $6 $7 $8 $9 X,Y pos of 4 corners*
0 Add a 4 corners polygon primitive as box body*
4,1,4,$2,$3,$4,$5,$6,$7,$8,$9,$2,$3,0*
0 Add four circle primitives for the rounded corners*
1,1,$1+$1,$2,$3*
1,1,$1+$1,$4,$5*
1,1,$1+$1,$6,$7*
1,1,$1+$1,$8,$9*
0 Add four rect primitives between the rounded corners*
20,1,$1+$1,$2,$3,$4,$5,0*
20,1,$1+$1,$4,$5,$6,$7,0*
20,1,$1+$1,$6,$7,$8,$9,0*
20,1,$1+$1,$8,$9,$2,$3,0*%
G04 Aperture macros list end*
%ADD10C,1.600000*%
%ADD11R,1.600000X1.600000*%
%ADD12O,1.600000X1.600000*%
%ADD13R,2.000000X1.905000*%
%ADD14O,2.000000X1.905000*%
%ADD15R,1.600000X2.400000*%
%ADD16O,1.600000X2.400000*%
%ADD17O,1.800000X1.800000*%
%ADD18O,1.500000X1.500000*%
%ADD19O,1.700000X1.700000*%
%ADD20R,3.500000X1.700000*%
%ADD21R,1.700000X1.700000*%
%ADD22R,1.700000X3.500000*%
%ADD23C,1.400000*%
%ADD24O,1.400000X1.400000*%
%ADD25C,4.000000*%
%ADD26C,6.400000*%
%ADD27RoundRect,0.250000X-0.600000X0.600000X-0.600000X-0.600000X0.600000X-0.600000X0.600000X0.600000X0*%
%ADD28C,1.700000*%
%ADD29R,1.800000X1.800000*%
%ADD30C,1.800000*%
G04 APERTURE END LIST*
D10*
%TO.C,C12*%
X65861000Y-211164000D03*
X65861000Y-206164000D03*
%TD*%
D11*
%TO.C,U8*%
X97738000Y-172723000D03*
D12*
X100278000Y-172723000D03*
X102818000Y-172723000D03*
X105358000Y-172723000D03*
X107898000Y-172723000D03*
X110438000Y-172723000D03*
X112978000Y-172723000D03*
X115518000Y-172723000D03*
X118058000Y-172723000D03*
X120598000Y-172723000D03*
X120598000Y-165103000D03*
X118058000Y-165103000D03*
X115518000Y-165103000D03*
X112978000Y-165103000D03*
X110438000Y-165103000D03*
X107898000Y-165103000D03*
X105358000Y-165103000D03*
X102818000Y-165103000D03*
X100278000Y-165103000D03*
X97738000Y-165103000D03*
%TD*%
D13*
%TO.C,U6*%
X249503000Y-196980000D03*
D14*
X249503000Y-194440000D03*
X249503000Y-191900000D03*
%TD*%
D15*
%TO.C,U5*%
X99008000Y-191138000D03*
D16*
X101548000Y-191138000D03*
X104088000Y-191138000D03*
X106628000Y-191138000D03*
X109168000Y-191138000D03*
X111708000Y-191138000D03*
X114248000Y-191138000D03*
X116788000Y-191138000D03*
X119328000Y-191138000D03*
X121868000Y-191138000D03*
X121868000Y-183518000D03*
X119328000Y-183518000D03*
X116788000Y-183518000D03*
X114248000Y-183518000D03*
X111708000Y-183518000D03*
X109168000Y-183518000D03*
X106628000Y-183518000D03*
X104088000Y-183518000D03*
X101548000Y-183518000D03*
X99008000Y-183518000D03*
%TD*%
D15*
%TO.C,U4*%
X137489000Y-190757000D03*
D16*
X140029000Y-190757000D03*
X142569000Y-190757000D03*
X145109000Y-190757000D03*
X147649000Y-190757000D03*
X150189000Y-190757000D03*
X152729000Y-190757000D03*
X155269000Y-190757000D03*
X157809000Y-190757000D03*
X160349000Y-190757000D03*
X160349000Y-183137000D03*
X157809000Y-183137000D03*
X155269000Y-183137000D03*
X152729000Y-183137000D03*
X150189000Y-183137000D03*
X147649000Y-183137000D03*
X145109000Y-183137000D03*
X142569000Y-183137000D03*
X140029000Y-183137000D03*
X137489000Y-183137000D03*
%TD*%
D17*
%TO.C,U3*%
X109745000Y-73412000D03*
D18*
X110045000Y-76442000D03*
X114895000Y-76442000D03*
D17*
X115195000Y-73412000D03*
D19*
X103580000Y-73282000D03*
D20*
X102680000Y-73282000D03*
D19*
X103580000Y-75822000D03*
D20*
X102680000Y-75822000D03*
D21*
X103580000Y-78362000D03*
D20*
X102680000Y-78362000D03*
D19*
X103580000Y-80902000D03*
D20*
X102680000Y-80902000D03*
D19*
X103580000Y-83442000D03*
D20*
X102680000Y-83442000D03*
D19*
X103580000Y-85982000D03*
D20*
X102680000Y-85982000D03*
D19*
X103580000Y-88522000D03*
D20*
X102680000Y-88522000D03*
D21*
X103580000Y-91062000D03*
D20*
X102680000Y-91062000D03*
D19*
X103580000Y-93602000D03*
D20*
X102680000Y-93602000D03*
D19*
X103580000Y-96142000D03*
D20*
X102680000Y-96142000D03*
D19*
X103580000Y-98682000D03*
D20*
X102680000Y-98682000D03*
D19*
X103580000Y-101222000D03*
D20*
X102680000Y-101222000D03*
D21*
X103580000Y-103762000D03*
D20*
X102680000Y-103762000D03*
D19*
X103580000Y-106302000D03*
D20*
X102680000Y-106302000D03*
D19*
X103580000Y-108842000D03*
D20*
X102680000Y-108842000D03*
D19*
X103580000Y-111382000D03*
D20*
X102680000Y-111382000D03*
D19*
X103580000Y-113922000D03*
D20*
X102680000Y-113922000D03*
D21*
X103580000Y-116462000D03*
D20*
X102680000Y-116462000D03*
D19*
X103580000Y-119002000D03*
D20*
X102680000Y-119002000D03*
D19*
X103580000Y-121542000D03*
D20*
X102680000Y-121542000D03*
D19*
X121360000Y-121542000D03*
D20*
X122260000Y-121542000D03*
D19*
X121360000Y-119002000D03*
D20*
X122260000Y-119002000D03*
D21*
X121360000Y-116462000D03*
D20*
X122260000Y-116462000D03*
D19*
X121360000Y-113922000D03*
D20*
X122260000Y-113922000D03*
D19*
X121360000Y-111382000D03*
D20*
X122260000Y-111382000D03*
D19*
X121360000Y-108842000D03*
D20*
X122260000Y-108842000D03*
D19*
X121360000Y-106302000D03*
D20*
X122260000Y-106302000D03*
D21*
X121360000Y-103762000D03*
D20*
X122260000Y-103762000D03*
D19*
X121360000Y-101222000D03*
D20*
X122260000Y-101222000D03*
D19*
X121360000Y-98682000D03*
D20*
X122260000Y-98682000D03*
D19*
X121360000Y-96142000D03*
D20*
X122260000Y-96142000D03*
D19*
X121360000Y-93602000D03*
D20*
X122260000Y-93602000D03*
D21*
X121360000Y-91062000D03*
D20*
X122260000Y-91062000D03*
D19*
X121360000Y-88522000D03*
D20*
X122260000Y-88522000D03*
D19*
X121360000Y-85982000D03*
D20*
X122260000Y-85982000D03*
D19*
X121360000Y-83442000D03*
D20*
X122260000Y-83442000D03*
D19*
X121360000Y-80902000D03*
D20*
X122260000Y-80902000D03*
D21*
X121360000Y-78362000D03*
D20*
X122260000Y-78362000D03*
D19*
X121360000Y-75822000D03*
D20*
X122260000Y-75822000D03*
D19*
X121360000Y-73282000D03*
D20*
X122260000Y-73282000D03*
D19*
X109930000Y-121312000D03*
D22*
X109930000Y-122212000D03*
D21*
X112470000Y-121312000D03*
D22*
X112470000Y-122212000D03*
D19*
X115010000Y-121312000D03*
D22*
X115010000Y-122212000D03*
%TD*%
D15*
%TO.C,U2*%
X215086000Y-212474000D03*
D16*
X217626000Y-212474000D03*
X220166000Y-212474000D03*
X222706000Y-212474000D03*
X225246000Y-212474000D03*
X227786000Y-212474000D03*
X230326000Y-212474000D03*
X232866000Y-212474000D03*
X235406000Y-212474000D03*
X237946000Y-212474000D03*
X237946000Y-204854000D03*
X235406000Y-204854000D03*
X232866000Y-204854000D03*
X230326000Y-204854000D03*
X227786000Y-204854000D03*
X225246000Y-204854000D03*
X222706000Y-204854000D03*
X220166000Y-204854000D03*
X217626000Y-204854000D03*
X215086000Y-204854000D03*
%TD*%
D11*
%TO.C,U1*%
X174700000Y-177168000D03*
D12*
X177240000Y-177168000D03*
X179780000Y-177168000D03*
X182320000Y-177168000D03*
X184860000Y-177168000D03*
X187400000Y-177168000D03*
X189940000Y-177168000D03*
X192480000Y-177168000D03*
X195020000Y-177168000D03*
X197560000Y-177168000D03*
X197560000Y-169548000D03*
X195020000Y-169548000D03*
X192480000Y-169548000D03*
X189940000Y-169548000D03*
X187400000Y-169548000D03*
X184860000Y-169548000D03*
X182320000Y-169548000D03*
X179780000Y-169548000D03*
X177240000Y-169548000D03*
X174700000Y-169548000D03*
%TD*%
D11*
%TO.C,RN3*%
X97230000Y-148212000D03*
D12*
X99770000Y-148212000D03*
X102310000Y-148212000D03*
X104850000Y-148212000D03*
X107390000Y-148212000D03*
X109930000Y-148212000D03*
X112470000Y-148212000D03*
X115010000Y-148212000D03*
X117550000Y-148212000D03*
%TD*%
D11*
%TO.C,RN2*%
X90118000Y-117605000D03*
D12*
X90118000Y-115065000D03*
X90118000Y-112525000D03*
X90118000Y-109985000D03*
X90118000Y-107445000D03*
X90118000Y-104905000D03*
%TD*%
D23*
%TO.C,R16*%
X71830000Y-119937100D03*
D24*
X76910000Y-119937100D03*
%TD*%
D23*
%TO.C,R15*%
X149173000Y-86363000D03*
D24*
X154253000Y-86363000D03*
%TD*%
D23*
%TO.C,R14*%
X149173000Y-92427200D03*
D24*
X154253000Y-92427200D03*
%TD*%
D23*
%TO.C,R13*%
X149173000Y-98491500D03*
D24*
X154253000Y-98491500D03*
%TD*%
D23*
%TO.C,R12*%
X149173000Y-104555700D03*
D24*
X154253000Y-104555700D03*
%TD*%
%TO.C,R11*%
X154253000Y-110620000D03*
D23*
X149173000Y-110620000D03*
%TD*%
%TO.C,R10*%
X135838000Y-116589000D03*
D24*
X140918000Y-116589000D03*
%TD*%
D23*
%TO.C,R9*%
X135711000Y-110620000D03*
D24*
X140791000Y-110620000D03*
%TD*%
D23*
%TO.C,R8*%
X135711000Y-104555700D03*
D24*
X140791000Y-104555700D03*
%TD*%
D23*
%TO.C,R7*%
X135711000Y-98491500D03*
D24*
X140791000Y-98491500D03*
%TD*%
D23*
%TO.C,R6*%
X135711000Y-92427200D03*
D24*
X140791000Y-92427200D03*
%TD*%
D23*
%TO.C,R5*%
X135711000Y-86363000D03*
D24*
X140791000Y-86363000D03*
%TD*%
D23*
%TO.C,R4*%
X71830000Y-101857000D03*
D24*
X76910000Y-101857000D03*
%TD*%
%TO.C,R3*%
X76910000Y-107883700D03*
D23*
X71830000Y-107883700D03*
%TD*%
D24*
%TO.C,R2*%
X76910000Y-113910400D03*
D23*
X71830000Y-113910400D03*
%TD*%
D21*
%TO.C,J2*%
X117677000Y-157356000D03*
D19*
X117677000Y-154816000D03*
X115137000Y-157356000D03*
X115137000Y-154816000D03*
X112597000Y-157356000D03*
X112597000Y-154816000D03*
X110057000Y-157356000D03*
X110057000Y-154816000D03*
X107517000Y-157356000D03*
X107517000Y-154816000D03*
X104977000Y-157356000D03*
X104977000Y-154816000D03*
X102437000Y-157356000D03*
X102437000Y-154816000D03*
X99897000Y-157356000D03*
X99897000Y-154816000D03*
%TD*%
D25*
%TO.C,J1*%
X137813000Y-74684000D03*
X162813000Y-74684000D03*
D11*
X145998000Y-76734000D03*
D10*
X148288000Y-76734000D03*
X150578000Y-76734000D03*
X152868000Y-76734000D03*
X155158000Y-76734000D03*
X144853000Y-74754000D03*
X147143000Y-74754000D03*
X149433000Y-74754000D03*
X151723000Y-74754000D03*
X154013000Y-74754000D03*
X145998000Y-72774000D03*
X148288000Y-72774000D03*
X150578000Y-72774000D03*
X152868000Y-72774000D03*
X155158000Y-72774000D03*
%TD*%
D26*
%TO.C,H2*%
X265000000Y-75000000D03*
%TD*%
%TO.C,H1*%
X40000000Y-75000000D03*
%TD*%
D27*
%TO.C,P2*%
X182000000Y-223000000D03*
D28*
X182000000Y-225540000D03*
X179460000Y-223000000D03*
X179460000Y-225540000D03*
X176920000Y-223000000D03*
X176920000Y-225540000D03*
X174380000Y-223000000D03*
X174380000Y-225540000D03*
X171840000Y-223000000D03*
X171840000Y-225540000D03*
X169300000Y-223000000D03*
X169300000Y-225540000D03*
X166760000Y-223000000D03*
X166760000Y-225540000D03*
X164220000Y-223000000D03*
X164220000Y-225540000D03*
X161680000Y-223000000D03*
X161680000Y-225540000D03*
X159140000Y-223000000D03*
X159140000Y-225540000D03*
X156600000Y-223000000D03*
X156600000Y-225540000D03*
X154060000Y-223000000D03*
X154060000Y-225540000D03*
X151520000Y-223000000D03*
X151520000Y-225540000D03*
X148980000Y-223000000D03*
X148980000Y-225540000D03*
X146440000Y-223000000D03*
X146440000Y-225540000D03*
X143900000Y-223000000D03*
X143900000Y-225540000D03*
X141360000Y-223000000D03*
X141360000Y-225540000D03*
X138820000Y-223000000D03*
X138820000Y-225540000D03*
X136280000Y-223000000D03*
X136280000Y-225540000D03*
X133740000Y-223000000D03*
X133740000Y-225540000D03*
X131200000Y-223000000D03*
X131200000Y-225540000D03*
X128660000Y-223000000D03*
X128660000Y-225540000D03*
X126120000Y-223000000D03*
X126120000Y-225540000D03*
X123580000Y-223000000D03*
X123580000Y-225540000D03*
X121040000Y-223000000D03*
X121040000Y-225540000D03*
%TD*%
D27*
%TO.C,P3*%
X258000000Y-223000000D03*
D28*
X258000000Y-225540000D03*
X255460000Y-223000000D03*
X255460000Y-225540000D03*
X252920000Y-223000000D03*
X252920000Y-225540000D03*
X250380000Y-223000000D03*
X250380000Y-225540000D03*
X247840000Y-223000000D03*
X247840000Y-225540000D03*
X245300000Y-223000000D03*
X245300000Y-225540000D03*
X242760000Y-223000000D03*
X242760000Y-225540000D03*
X240220000Y-223000000D03*
X240220000Y-225540000D03*
X237680000Y-223000000D03*
X237680000Y-225540000D03*
X235140000Y-223000000D03*
X235140000Y-225540000D03*
X232600000Y-223000000D03*
X232600000Y-225540000D03*
X230060000Y-223000000D03*
X230060000Y-225540000D03*
X227520000Y-223000000D03*
X227520000Y-225540000D03*
X224980000Y-223000000D03*
X224980000Y-225540000D03*
X222440000Y-223000000D03*
X222440000Y-225540000D03*
X219900000Y-223000000D03*
X219900000Y-225540000D03*
X217360000Y-223000000D03*
X217360000Y-225540000D03*
X214820000Y-223000000D03*
X214820000Y-225540000D03*
X212280000Y-223000000D03*
X212280000Y-225540000D03*
X209740000Y-223000000D03*
X209740000Y-225540000D03*
X207200000Y-223000000D03*
X207200000Y-225540000D03*
X204660000Y-223000000D03*
X204660000Y-225540000D03*
X202120000Y-223000000D03*
X202120000Y-225540000D03*
X199580000Y-223000000D03*
X199580000Y-225540000D03*
X197040000Y-223000000D03*
X197040000Y-225540000D03*
%TD*%
D27*
%TO.C,P1*%
X108000000Y-223000000D03*
D28*
X108000000Y-225540000D03*
X105460000Y-223000000D03*
X105460000Y-225540000D03*
X102920000Y-223000000D03*
X102920000Y-225540000D03*
X100380000Y-223000000D03*
X100380000Y-225540000D03*
X97840000Y-223000000D03*
X97840000Y-225540000D03*
X95300000Y-223000000D03*
X95300000Y-225540000D03*
X92760000Y-223000000D03*
X92760000Y-225540000D03*
X90220000Y-223000000D03*
X90220000Y-225540000D03*
X87680000Y-223000000D03*
X87680000Y-225540000D03*
X85140000Y-223000000D03*
X85140000Y-225540000D03*
X82600000Y-223000000D03*
X82600000Y-225540000D03*
X80060000Y-223000000D03*
X80060000Y-225540000D03*
X77520000Y-223000000D03*
X77520000Y-225540000D03*
X74980000Y-223000000D03*
X74980000Y-225540000D03*
X72440000Y-223000000D03*
X72440000Y-225540000D03*
X69900000Y-223000000D03*
X69900000Y-225540000D03*
X67360000Y-223000000D03*
X67360000Y-225540000D03*
X64820000Y-223000000D03*
X64820000Y-225540000D03*
X62280000Y-223000000D03*
X62280000Y-225540000D03*
X59740000Y-223000000D03*
X59740000Y-225540000D03*
X57200000Y-223000000D03*
X57200000Y-225540000D03*
X54660000Y-223000000D03*
X54660000Y-225540000D03*
X52120000Y-223000000D03*
X52120000Y-225540000D03*
X49580000Y-223000000D03*
X49580000Y-225540000D03*
X47040000Y-223000000D03*
X47040000Y-225540000D03*
%TD*%
D21*
%TO.C,SW1*%
X178125000Y-195475000D03*
D19*
X178125000Y-192935000D03*
X180665000Y-195475000D03*
X180665000Y-192935000D03*
X183205000Y-195475000D03*
X183205000Y-192935000D03*
X185745000Y-195475000D03*
X185745000Y-192935000D03*
X188285000Y-195475000D03*
X188285000Y-192935000D03*
%TD*%
D10*
%TO.C,C5*%
X91642000Y-166286000D03*
X91642000Y-171286000D03*
%TD*%
D29*
%TO.C,D1*%
X63770000Y-81100000D03*
D30*
X61230000Y-81100000D03*
%TD*%
D10*
%TO.C,C48*%
X252100000Y-183000000D03*
X247100000Y-183000000D03*
%TD*%
%TO.C,C2*%
X131774000Y-184661000D03*
X131774000Y-189661000D03*
%TD*%
%TO.C,C6*%
X167080000Y-206545000D03*
X167080000Y-211545000D03*
%TD*%
%TO.C,C9*%
X209244000Y-206037000D03*
X209244000Y-211037000D03*
%TD*%
D11*
%TO.C,RN1*%
X175025000Y-201200000D03*
D12*
X177565000Y-201200000D03*
X180105000Y-201200000D03*
X182645000Y-201200000D03*
X185185000Y-201200000D03*
X187725000Y-201200000D03*
X190265000Y-201200000D03*
X192805000Y-201200000D03*
X195345000Y-201200000D03*
%TD*%
D10*
%TO.C,L3*%
X231540000Y-183000000D03*
D12*
X239160000Y-183000000D03*
%TD*%
D11*
%TO.C,U15*%
X71500000Y-213000000D03*
D12*
X74040000Y-213000000D03*
X76580000Y-213000000D03*
X79120000Y-213000000D03*
X81660000Y-213000000D03*
X84200000Y-213000000D03*
X86740000Y-213000000D03*
X89280000Y-213000000D03*
X91820000Y-213000000D03*
X94360000Y-213000000D03*
X94360000Y-205380000D03*
X91820000Y-205380000D03*
X89280000Y-205380000D03*
X86740000Y-205380000D03*
X84200000Y-205380000D03*
X81660000Y-205380000D03*
X79120000Y-205380000D03*
X76580000Y-205380000D03*
X74040000Y-205380000D03*
X71500000Y-205380000D03*
%TD*%
D10*
%TO.C,C7*%
X169493000Y-170263000D03*
X169493000Y-175263000D03*
%TD*%
%TO.C,C10*%
X201243000Y-206545000D03*
X201243000Y-211545000D03*
%TD*%
%TO.C,R1*%
X64210000Y-88120000D03*
D12*
X71830000Y-88120000D03*
%TD*%
D11*
%TO.C,U21*%
X172075000Y-212800000D03*
D12*
X174615000Y-212800000D03*
X177155000Y-212800000D03*
X179695000Y-212800000D03*
X182235000Y-212800000D03*
X184775000Y-212800000D03*
X187315000Y-212800000D03*
X189855000Y-212800000D03*
X192395000Y-212800000D03*
X194935000Y-212800000D03*
X194935000Y-205180000D03*
X192395000Y-205180000D03*
X189855000Y-205180000D03*
X187315000Y-205180000D03*
X184775000Y-205180000D03*
X182235000Y-205180000D03*
X179695000Y-205180000D03*
X177155000Y-205180000D03*
X174615000Y-205180000D03*
X172075000Y-205180000D03*
%TD*%
D10*
%TO.C,C3*%
X132917000Y-206672000D03*
X132917000Y-211672000D03*
%TD*%
%TO.C,C29*%
X224300000Y-183000000D03*
X229300000Y-183000000D03*
%TD*%
D11*
%TO.C,C13*%
X241884700Y-183000000D03*
D10*
X244384700Y-183000000D03*
%TD*%
%TO.C,C11*%
X92023000Y-184487000D03*
X92023000Y-189487000D03*
%TD*%
D11*
%TO.C,U13*%
X138250000Y-213000000D03*
D12*
X140790000Y-213000000D03*
X143330000Y-213000000D03*
X145870000Y-213000000D03*
X148410000Y-213000000D03*
X150950000Y-213000000D03*
X153490000Y-213000000D03*
X156030000Y-213000000D03*
X158570000Y-213000000D03*
X161110000Y-213000000D03*
X161110000Y-205380000D03*
X158570000Y-205380000D03*
X156030000Y-205380000D03*
X153490000Y-205380000D03*
X150950000Y-205380000D03*
X148410000Y-205380000D03*
X145870000Y-205380000D03*
X143330000Y-205380000D03*
X140790000Y-205380000D03*
X138250000Y-205380000D03*
%TD*%
M02*
