%TF.GenerationSoftware,KiCad,Pcbnew,7.0.1*%
%TF.CreationDate,2024-12-08T14:30:28-06:00*%
%TF.ProjectId,input-output.MappedVideo,696e7075-742d-46f7-9574-7075742e4d61,V0.8*%
%TF.SameCoordinates,Original*%
%TF.FileFunction,Drillmap*%
%TF.FilePolarity,Positive*%
%FSLAX45Y45*%
G04 Gerber Fmt 4.5, Leading zero omitted, Abs format (unit mm)*
G04 Created by KiCad (PCBNEW 7.0.1) date 2024-12-08 14:30:28*
%MOMM*%
%LPD*%
G01*
G04 APERTURE LIST*
%ADD10C,0.050000*%
%ADD11C,0.200000*%
%ADD12C,0.150000*%
%ADD13C,0.180000*%
G04 APERTURE END LIST*
D10*
X3500000Y-7500000D02*
X3500000Y-22500000D01*
X4000000Y-23000000D02*
X26500000Y-23000000D01*
X27000000Y-22500000D02*
X27000000Y-7500000D01*
X26500000Y-7000000D02*
X4000000Y-7000000D01*
X27000000Y-7500000D02*
G75*
G03*
X26500000Y-7000000I-500000J0D01*
G01*
X3500000Y-22500000D02*
G75*
G03*
X4000000Y-23000000I500000J0D01*
G01*
X4000000Y-7000000D02*
G75*
G03*
X3500000Y-7500000I0J-500000D01*
G01*
X26500000Y-23000000D02*
G75*
G03*
X27000000Y-22500000I0J500000D01*
G01*
D11*
D12*
X10929500Y-7569200D02*
X11079500Y-7719200D01*
X11079500Y-7569200D02*
X10929500Y-7719200D01*
X11414500Y-7569200D02*
X11564500Y-7719200D01*
X11564500Y-7569200D02*
X11414500Y-7719200D01*
D13*
X11064500Y-7341200D02*
G75*
G03*
X11064500Y-7341200I-90000J0D01*
G01*
X11609500Y-7341200D02*
G75*
G03*
X11609500Y-7341200I-90000J0D01*
G01*
D11*
X3745119Y-23315024D02*
X3745119Y-23115024D01*
X3745119Y-23115024D02*
X3792738Y-23115024D01*
X3792738Y-23115024D02*
X3821309Y-23124548D01*
X3821309Y-23124548D02*
X3840357Y-23143595D01*
X3840357Y-23143595D02*
X3849881Y-23162643D01*
X3849881Y-23162643D02*
X3859405Y-23200738D01*
X3859405Y-23200738D02*
X3859405Y-23229309D01*
X3859405Y-23229309D02*
X3849881Y-23267405D01*
X3849881Y-23267405D02*
X3840357Y-23286452D01*
X3840357Y-23286452D02*
X3821309Y-23305500D01*
X3821309Y-23305500D02*
X3792738Y-23315024D01*
X3792738Y-23315024D02*
X3745119Y-23315024D01*
X3945119Y-23315024D02*
X3945119Y-23181690D01*
X3945119Y-23219786D02*
X3954643Y-23200738D01*
X3954643Y-23200738D02*
X3964167Y-23191214D01*
X3964167Y-23191214D02*
X3983214Y-23181690D01*
X3983214Y-23181690D02*
X4002262Y-23181690D01*
X4068928Y-23315024D02*
X4068928Y-23181690D01*
X4068928Y-23115024D02*
X4059405Y-23124548D01*
X4059405Y-23124548D02*
X4068928Y-23134071D01*
X4068928Y-23134071D02*
X4078452Y-23124548D01*
X4078452Y-23124548D02*
X4068928Y-23115024D01*
X4068928Y-23115024D02*
X4068928Y-23134071D01*
X4192738Y-23315024D02*
X4173690Y-23305500D01*
X4173690Y-23305500D02*
X4164167Y-23286452D01*
X4164167Y-23286452D02*
X4164167Y-23115024D01*
X4297500Y-23315024D02*
X4278452Y-23305500D01*
X4278452Y-23305500D02*
X4268929Y-23286452D01*
X4268929Y-23286452D02*
X4268929Y-23115024D01*
X4526071Y-23315024D02*
X4526071Y-23115024D01*
X4526071Y-23115024D02*
X4592738Y-23257881D01*
X4592738Y-23257881D02*
X4659405Y-23115024D01*
X4659405Y-23115024D02*
X4659405Y-23315024D01*
X4840357Y-23315024D02*
X4840357Y-23210262D01*
X4840357Y-23210262D02*
X4830833Y-23191214D01*
X4830833Y-23191214D02*
X4811786Y-23181690D01*
X4811786Y-23181690D02*
X4773690Y-23181690D01*
X4773690Y-23181690D02*
X4754643Y-23191214D01*
X4840357Y-23305500D02*
X4821310Y-23315024D01*
X4821310Y-23315024D02*
X4773690Y-23315024D01*
X4773690Y-23315024D02*
X4754643Y-23305500D01*
X4754643Y-23305500D02*
X4745119Y-23286452D01*
X4745119Y-23286452D02*
X4745119Y-23267405D01*
X4745119Y-23267405D02*
X4754643Y-23248357D01*
X4754643Y-23248357D02*
X4773690Y-23238833D01*
X4773690Y-23238833D02*
X4821310Y-23238833D01*
X4821310Y-23238833D02*
X4840357Y-23229309D01*
X4935595Y-23181690D02*
X4935595Y-23381690D01*
X4935595Y-23191214D02*
X4954643Y-23181690D01*
X4954643Y-23181690D02*
X4992738Y-23181690D01*
X4992738Y-23181690D02*
X5011786Y-23191214D01*
X5011786Y-23191214D02*
X5021310Y-23200738D01*
X5021310Y-23200738D02*
X5030833Y-23219786D01*
X5030833Y-23219786D02*
X5030833Y-23276928D01*
X5030833Y-23276928D02*
X5021310Y-23295976D01*
X5021310Y-23295976D02*
X5011786Y-23305500D01*
X5011786Y-23305500D02*
X4992738Y-23315024D01*
X4992738Y-23315024D02*
X4954643Y-23315024D01*
X4954643Y-23315024D02*
X4935595Y-23305500D01*
X5116548Y-23295976D02*
X5126071Y-23305500D01*
X5126071Y-23305500D02*
X5116548Y-23315024D01*
X5116548Y-23315024D02*
X5107024Y-23305500D01*
X5107024Y-23305500D02*
X5116548Y-23295976D01*
X5116548Y-23295976D02*
X5116548Y-23315024D01*
X5116548Y-23191214D02*
X5126071Y-23200738D01*
X5126071Y-23200738D02*
X5116548Y-23210262D01*
X5116548Y-23210262D02*
X5107024Y-23200738D01*
X5107024Y-23200738D02*
X5116548Y-23191214D01*
X5116548Y-23191214D02*
X5116548Y-23210262D01*
D12*
X3347500Y-23567500D02*
X3497500Y-23717500D01*
X3497500Y-23567500D02*
X3347500Y-23717500D01*
D11*
X3849881Y-23735024D02*
X3735595Y-23735024D01*
X3792738Y-23735024D02*
X3792738Y-23535024D01*
X3792738Y-23535024D02*
X3773690Y-23563595D01*
X3773690Y-23563595D02*
X3754643Y-23582643D01*
X3754643Y-23582643D02*
X3735595Y-23592167D01*
X3935595Y-23715976D02*
X3945119Y-23725500D01*
X3945119Y-23725500D02*
X3935595Y-23735024D01*
X3935595Y-23735024D02*
X3926071Y-23725500D01*
X3926071Y-23725500D02*
X3935595Y-23715976D01*
X3935595Y-23715976D02*
X3935595Y-23735024D01*
X4126071Y-23535024D02*
X4030833Y-23535024D01*
X4030833Y-23535024D02*
X4021309Y-23630262D01*
X4021309Y-23630262D02*
X4030833Y-23620738D01*
X4030833Y-23620738D02*
X4049881Y-23611214D01*
X4049881Y-23611214D02*
X4097500Y-23611214D01*
X4097500Y-23611214D02*
X4116548Y-23620738D01*
X4116548Y-23620738D02*
X4126071Y-23630262D01*
X4126071Y-23630262D02*
X4135595Y-23649309D01*
X4135595Y-23649309D02*
X4135595Y-23696928D01*
X4135595Y-23696928D02*
X4126071Y-23715976D01*
X4126071Y-23715976D02*
X4116548Y-23725500D01*
X4116548Y-23725500D02*
X4097500Y-23735024D01*
X4097500Y-23735024D02*
X4049881Y-23735024D01*
X4049881Y-23735024D02*
X4030833Y-23725500D01*
X4030833Y-23725500D02*
X4021309Y-23715976D01*
X4259405Y-23535024D02*
X4278452Y-23535024D01*
X4278452Y-23535024D02*
X4297500Y-23544548D01*
X4297500Y-23544548D02*
X4307024Y-23554071D01*
X4307024Y-23554071D02*
X4316548Y-23573119D01*
X4316548Y-23573119D02*
X4326071Y-23611214D01*
X4326071Y-23611214D02*
X4326071Y-23658833D01*
X4326071Y-23658833D02*
X4316548Y-23696928D01*
X4316548Y-23696928D02*
X4307024Y-23715976D01*
X4307024Y-23715976D02*
X4297500Y-23725500D01*
X4297500Y-23725500D02*
X4278452Y-23735024D01*
X4278452Y-23735024D02*
X4259405Y-23735024D01*
X4259405Y-23735024D02*
X4240357Y-23725500D01*
X4240357Y-23725500D02*
X4230833Y-23715976D01*
X4230833Y-23715976D02*
X4221310Y-23696928D01*
X4221310Y-23696928D02*
X4211786Y-23658833D01*
X4211786Y-23658833D02*
X4211786Y-23611214D01*
X4211786Y-23611214D02*
X4221310Y-23573119D01*
X4221310Y-23573119D02*
X4230833Y-23554071D01*
X4230833Y-23554071D02*
X4240357Y-23544548D01*
X4240357Y-23544548D02*
X4259405Y-23535024D01*
X4449881Y-23535024D02*
X4468929Y-23535024D01*
X4468929Y-23535024D02*
X4487976Y-23544548D01*
X4487976Y-23544548D02*
X4497500Y-23554071D01*
X4497500Y-23554071D02*
X4507024Y-23573119D01*
X4507024Y-23573119D02*
X4516548Y-23611214D01*
X4516548Y-23611214D02*
X4516548Y-23658833D01*
X4516548Y-23658833D02*
X4507024Y-23696928D01*
X4507024Y-23696928D02*
X4497500Y-23715976D01*
X4497500Y-23715976D02*
X4487976Y-23725500D01*
X4487976Y-23725500D02*
X4468929Y-23735024D01*
X4468929Y-23735024D02*
X4449881Y-23735024D01*
X4449881Y-23735024D02*
X4430833Y-23725500D01*
X4430833Y-23725500D02*
X4421310Y-23715976D01*
X4421310Y-23715976D02*
X4411786Y-23696928D01*
X4411786Y-23696928D02*
X4402262Y-23658833D01*
X4402262Y-23658833D02*
X4402262Y-23611214D01*
X4402262Y-23611214D02*
X4411786Y-23573119D01*
X4411786Y-23573119D02*
X4421310Y-23554071D01*
X4421310Y-23554071D02*
X4430833Y-23544548D01*
X4430833Y-23544548D02*
X4449881Y-23535024D01*
X4602262Y-23735024D02*
X4602262Y-23601690D01*
X4602262Y-23620738D02*
X4611786Y-23611214D01*
X4611786Y-23611214D02*
X4630833Y-23601690D01*
X4630833Y-23601690D02*
X4659405Y-23601690D01*
X4659405Y-23601690D02*
X4678452Y-23611214D01*
X4678452Y-23611214D02*
X4687976Y-23630262D01*
X4687976Y-23630262D02*
X4687976Y-23735024D01*
X4687976Y-23630262D02*
X4697500Y-23611214D01*
X4697500Y-23611214D02*
X4716548Y-23601690D01*
X4716548Y-23601690D02*
X4745119Y-23601690D01*
X4745119Y-23601690D02*
X4764167Y-23611214D01*
X4764167Y-23611214D02*
X4773691Y-23630262D01*
X4773691Y-23630262D02*
X4773691Y-23735024D01*
X4868929Y-23735024D02*
X4868929Y-23601690D01*
X4868929Y-23620738D02*
X4878452Y-23611214D01*
X4878452Y-23611214D02*
X4897500Y-23601690D01*
X4897500Y-23601690D02*
X4926072Y-23601690D01*
X4926072Y-23601690D02*
X4945119Y-23611214D01*
X4945119Y-23611214D02*
X4954643Y-23630262D01*
X4954643Y-23630262D02*
X4954643Y-23735024D01*
X4954643Y-23630262D02*
X4964167Y-23611214D01*
X4964167Y-23611214D02*
X4983214Y-23601690D01*
X4983214Y-23601690D02*
X5011786Y-23601690D01*
X5011786Y-23601690D02*
X5030833Y-23611214D01*
X5030833Y-23611214D02*
X5040357Y-23630262D01*
X5040357Y-23630262D02*
X5040357Y-23735024D01*
X5430833Y-23525500D02*
X5259405Y-23782643D01*
X5687976Y-23535024D02*
X5707024Y-23535024D01*
X5707024Y-23535024D02*
X5726072Y-23544548D01*
X5726072Y-23544548D02*
X5735595Y-23554071D01*
X5735595Y-23554071D02*
X5745119Y-23573119D01*
X5745119Y-23573119D02*
X5754643Y-23611214D01*
X5754643Y-23611214D02*
X5754643Y-23658833D01*
X5754643Y-23658833D02*
X5745119Y-23696928D01*
X5745119Y-23696928D02*
X5735595Y-23715976D01*
X5735595Y-23715976D02*
X5726072Y-23725500D01*
X5726072Y-23725500D02*
X5707024Y-23735024D01*
X5707024Y-23735024D02*
X5687976Y-23735024D01*
X5687976Y-23735024D02*
X5668929Y-23725500D01*
X5668929Y-23725500D02*
X5659405Y-23715976D01*
X5659405Y-23715976D02*
X5649881Y-23696928D01*
X5649881Y-23696928D02*
X5640357Y-23658833D01*
X5640357Y-23658833D02*
X5640357Y-23611214D01*
X5640357Y-23611214D02*
X5649881Y-23573119D01*
X5649881Y-23573119D02*
X5659405Y-23554071D01*
X5659405Y-23554071D02*
X5668929Y-23544548D01*
X5668929Y-23544548D02*
X5687976Y-23535024D01*
X5840357Y-23715976D02*
X5849881Y-23725500D01*
X5849881Y-23725500D02*
X5840357Y-23735024D01*
X5840357Y-23735024D02*
X5830833Y-23725500D01*
X5830833Y-23725500D02*
X5840357Y-23715976D01*
X5840357Y-23715976D02*
X5840357Y-23735024D01*
X5973691Y-23535024D02*
X5992738Y-23535024D01*
X5992738Y-23535024D02*
X6011786Y-23544548D01*
X6011786Y-23544548D02*
X6021310Y-23554071D01*
X6021310Y-23554071D02*
X6030833Y-23573119D01*
X6030833Y-23573119D02*
X6040357Y-23611214D01*
X6040357Y-23611214D02*
X6040357Y-23658833D01*
X6040357Y-23658833D02*
X6030833Y-23696928D01*
X6030833Y-23696928D02*
X6021310Y-23715976D01*
X6021310Y-23715976D02*
X6011786Y-23725500D01*
X6011786Y-23725500D02*
X5992738Y-23735024D01*
X5992738Y-23735024D02*
X5973691Y-23735024D01*
X5973691Y-23735024D02*
X5954643Y-23725500D01*
X5954643Y-23725500D02*
X5945119Y-23715976D01*
X5945119Y-23715976D02*
X5935595Y-23696928D01*
X5935595Y-23696928D02*
X5926072Y-23658833D01*
X5926072Y-23658833D02*
X5926072Y-23611214D01*
X5926072Y-23611214D02*
X5935595Y-23573119D01*
X5935595Y-23573119D02*
X5945119Y-23554071D01*
X5945119Y-23554071D02*
X5954643Y-23544548D01*
X5954643Y-23544548D02*
X5973691Y-23535024D01*
X6221310Y-23535024D02*
X6126072Y-23535024D01*
X6126072Y-23535024D02*
X6116548Y-23630262D01*
X6116548Y-23630262D02*
X6126072Y-23620738D01*
X6126072Y-23620738D02*
X6145119Y-23611214D01*
X6145119Y-23611214D02*
X6192738Y-23611214D01*
X6192738Y-23611214D02*
X6211786Y-23620738D01*
X6211786Y-23620738D02*
X6221310Y-23630262D01*
X6221310Y-23630262D02*
X6230833Y-23649309D01*
X6230833Y-23649309D02*
X6230833Y-23696928D01*
X6230833Y-23696928D02*
X6221310Y-23715976D01*
X6221310Y-23715976D02*
X6211786Y-23725500D01*
X6211786Y-23725500D02*
X6192738Y-23735024D01*
X6192738Y-23735024D02*
X6145119Y-23735024D01*
X6145119Y-23735024D02*
X6126072Y-23725500D01*
X6126072Y-23725500D02*
X6116548Y-23715976D01*
X6326072Y-23735024D02*
X6364167Y-23735024D01*
X6364167Y-23735024D02*
X6383214Y-23725500D01*
X6383214Y-23725500D02*
X6392738Y-23715976D01*
X6392738Y-23715976D02*
X6411786Y-23687405D01*
X6411786Y-23687405D02*
X6421310Y-23649309D01*
X6421310Y-23649309D02*
X6421310Y-23573119D01*
X6421310Y-23573119D02*
X6411786Y-23554071D01*
X6411786Y-23554071D02*
X6402262Y-23544548D01*
X6402262Y-23544548D02*
X6383214Y-23535024D01*
X6383214Y-23535024D02*
X6345119Y-23535024D01*
X6345119Y-23535024D02*
X6326072Y-23544548D01*
X6326072Y-23544548D02*
X6316548Y-23554071D01*
X6316548Y-23554071D02*
X6307024Y-23573119D01*
X6307024Y-23573119D02*
X6307024Y-23620738D01*
X6307024Y-23620738D02*
X6316548Y-23639786D01*
X6316548Y-23639786D02*
X6326072Y-23649309D01*
X6326072Y-23649309D02*
X6345119Y-23658833D01*
X6345119Y-23658833D02*
X6383214Y-23658833D01*
X6383214Y-23658833D02*
X6402262Y-23649309D01*
X6402262Y-23649309D02*
X6411786Y-23639786D01*
X6411786Y-23639786D02*
X6421310Y-23620738D01*
X6611786Y-23735024D02*
X6497500Y-23735024D01*
X6554643Y-23735024D02*
X6554643Y-23535024D01*
X6554643Y-23535024D02*
X6535595Y-23563595D01*
X6535595Y-23563595D02*
X6516548Y-23582643D01*
X6516548Y-23582643D02*
X6497500Y-23592167D01*
X6687976Y-23535024D02*
X6687976Y-23573119D01*
X6764167Y-23535024D02*
X6764167Y-23573119D01*
X7059405Y-23811214D02*
X7049881Y-23801690D01*
X7049881Y-23801690D02*
X7030834Y-23773119D01*
X7030834Y-23773119D02*
X7021310Y-23754071D01*
X7021310Y-23754071D02*
X7011786Y-23725500D01*
X7011786Y-23725500D02*
X7002262Y-23677881D01*
X7002262Y-23677881D02*
X7002262Y-23639786D01*
X7002262Y-23639786D02*
X7011786Y-23592167D01*
X7011786Y-23592167D02*
X7021310Y-23563595D01*
X7021310Y-23563595D02*
X7030834Y-23544548D01*
X7030834Y-23544548D02*
X7049881Y-23515976D01*
X7049881Y-23515976D02*
X7059405Y-23506452D01*
X7126072Y-23554071D02*
X7135595Y-23544548D01*
X7135595Y-23544548D02*
X7154643Y-23535024D01*
X7154643Y-23535024D02*
X7202262Y-23535024D01*
X7202262Y-23535024D02*
X7221310Y-23544548D01*
X7221310Y-23544548D02*
X7230834Y-23554071D01*
X7230834Y-23554071D02*
X7240357Y-23573119D01*
X7240357Y-23573119D02*
X7240357Y-23592167D01*
X7240357Y-23592167D02*
X7230834Y-23620738D01*
X7230834Y-23620738D02*
X7116548Y-23735024D01*
X7116548Y-23735024D02*
X7240357Y-23735024D01*
X7478453Y-23735024D02*
X7478453Y-23535024D01*
X7564167Y-23735024D02*
X7564167Y-23630262D01*
X7564167Y-23630262D02*
X7554643Y-23611214D01*
X7554643Y-23611214D02*
X7535596Y-23601690D01*
X7535596Y-23601690D02*
X7507024Y-23601690D01*
X7507024Y-23601690D02*
X7487976Y-23611214D01*
X7487976Y-23611214D02*
X7478453Y-23620738D01*
X7687976Y-23735024D02*
X7668929Y-23725500D01*
X7668929Y-23725500D02*
X7659405Y-23715976D01*
X7659405Y-23715976D02*
X7649881Y-23696928D01*
X7649881Y-23696928D02*
X7649881Y-23639786D01*
X7649881Y-23639786D02*
X7659405Y-23620738D01*
X7659405Y-23620738D02*
X7668929Y-23611214D01*
X7668929Y-23611214D02*
X7687976Y-23601690D01*
X7687976Y-23601690D02*
X7716548Y-23601690D01*
X7716548Y-23601690D02*
X7735596Y-23611214D01*
X7735596Y-23611214D02*
X7745119Y-23620738D01*
X7745119Y-23620738D02*
X7754643Y-23639786D01*
X7754643Y-23639786D02*
X7754643Y-23696928D01*
X7754643Y-23696928D02*
X7745119Y-23715976D01*
X7745119Y-23715976D02*
X7735596Y-23725500D01*
X7735596Y-23725500D02*
X7716548Y-23735024D01*
X7716548Y-23735024D02*
X7687976Y-23735024D01*
X7868929Y-23735024D02*
X7849881Y-23725500D01*
X7849881Y-23725500D02*
X7840357Y-23706452D01*
X7840357Y-23706452D02*
X7840357Y-23535024D01*
X8021310Y-23725500D02*
X8002262Y-23735024D01*
X8002262Y-23735024D02*
X7964167Y-23735024D01*
X7964167Y-23735024D02*
X7945119Y-23725500D01*
X7945119Y-23725500D02*
X7935596Y-23706452D01*
X7935596Y-23706452D02*
X7935596Y-23630262D01*
X7935596Y-23630262D02*
X7945119Y-23611214D01*
X7945119Y-23611214D02*
X7964167Y-23601690D01*
X7964167Y-23601690D02*
X8002262Y-23601690D01*
X8002262Y-23601690D02*
X8021310Y-23611214D01*
X8021310Y-23611214D02*
X8030834Y-23630262D01*
X8030834Y-23630262D02*
X8030834Y-23649309D01*
X8030834Y-23649309D02*
X7935596Y-23668357D01*
X8107024Y-23725500D02*
X8126072Y-23735024D01*
X8126072Y-23735024D02*
X8164167Y-23735024D01*
X8164167Y-23735024D02*
X8183215Y-23725500D01*
X8183215Y-23725500D02*
X8192738Y-23706452D01*
X8192738Y-23706452D02*
X8192738Y-23696928D01*
X8192738Y-23696928D02*
X8183215Y-23677881D01*
X8183215Y-23677881D02*
X8164167Y-23668357D01*
X8164167Y-23668357D02*
X8135596Y-23668357D01*
X8135596Y-23668357D02*
X8116548Y-23658833D01*
X8116548Y-23658833D02*
X8107024Y-23639786D01*
X8107024Y-23639786D02*
X8107024Y-23630262D01*
X8107024Y-23630262D02*
X8116548Y-23611214D01*
X8116548Y-23611214D02*
X8135596Y-23601690D01*
X8135596Y-23601690D02*
X8164167Y-23601690D01*
X8164167Y-23601690D02*
X8183215Y-23611214D01*
X8259405Y-23811214D02*
X8268929Y-23801690D01*
X8268929Y-23801690D02*
X8287977Y-23773119D01*
X8287977Y-23773119D02*
X8297500Y-23754071D01*
X8297500Y-23754071D02*
X8307024Y-23725500D01*
X8307024Y-23725500D02*
X8316548Y-23677881D01*
X8316548Y-23677881D02*
X8316548Y-23639786D01*
X8316548Y-23639786D02*
X8307024Y-23592167D01*
X8307024Y-23592167D02*
X8297500Y-23563595D01*
X8297500Y-23563595D02*
X8287977Y-23544548D01*
X8287977Y-23544548D02*
X8268929Y-23515976D01*
X8268929Y-23515976D02*
X8259405Y-23506452D01*
X8621310Y-23811214D02*
X8611786Y-23801690D01*
X8611786Y-23801690D02*
X8592739Y-23773119D01*
X8592739Y-23773119D02*
X8583215Y-23754071D01*
X8583215Y-23754071D02*
X8573691Y-23725500D01*
X8573691Y-23725500D02*
X8564167Y-23677881D01*
X8564167Y-23677881D02*
X8564167Y-23639786D01*
X8564167Y-23639786D02*
X8573691Y-23592167D01*
X8573691Y-23592167D02*
X8583215Y-23563595D01*
X8583215Y-23563595D02*
X8592739Y-23544548D01*
X8592739Y-23544548D02*
X8611786Y-23515976D01*
X8611786Y-23515976D02*
X8621310Y-23506452D01*
X8697500Y-23601690D02*
X8697500Y-23735024D01*
X8697500Y-23620738D02*
X8707024Y-23611214D01*
X8707024Y-23611214D02*
X8726072Y-23601690D01*
X8726072Y-23601690D02*
X8754643Y-23601690D01*
X8754643Y-23601690D02*
X8773691Y-23611214D01*
X8773691Y-23611214D02*
X8783215Y-23630262D01*
X8783215Y-23630262D02*
X8783215Y-23735024D01*
X8907024Y-23735024D02*
X8887977Y-23725500D01*
X8887977Y-23725500D02*
X8878453Y-23715976D01*
X8878453Y-23715976D02*
X8868929Y-23696928D01*
X8868929Y-23696928D02*
X8868929Y-23639786D01*
X8868929Y-23639786D02*
X8878453Y-23620738D01*
X8878453Y-23620738D02*
X8887977Y-23611214D01*
X8887977Y-23611214D02*
X8907024Y-23601690D01*
X8907024Y-23601690D02*
X8935596Y-23601690D01*
X8935596Y-23601690D02*
X8954643Y-23611214D01*
X8954643Y-23611214D02*
X8964167Y-23620738D01*
X8964167Y-23620738D02*
X8973691Y-23639786D01*
X8973691Y-23639786D02*
X8973691Y-23696928D01*
X8973691Y-23696928D02*
X8964167Y-23715976D01*
X8964167Y-23715976D02*
X8954643Y-23725500D01*
X8954643Y-23725500D02*
X8935596Y-23735024D01*
X8935596Y-23735024D02*
X8907024Y-23735024D01*
X9030834Y-23601690D02*
X9107024Y-23601690D01*
X9059405Y-23535024D02*
X9059405Y-23706452D01*
X9059405Y-23706452D02*
X9068929Y-23725500D01*
X9068929Y-23725500D02*
X9087977Y-23735024D01*
X9087977Y-23735024D02*
X9107024Y-23735024D01*
X9326072Y-23601690D02*
X9326072Y-23801690D01*
X9326072Y-23611214D02*
X9345120Y-23601690D01*
X9345120Y-23601690D02*
X9383215Y-23601690D01*
X9383215Y-23601690D02*
X9402262Y-23611214D01*
X9402262Y-23611214D02*
X9411786Y-23620738D01*
X9411786Y-23620738D02*
X9421310Y-23639786D01*
X9421310Y-23639786D02*
X9421310Y-23696928D01*
X9421310Y-23696928D02*
X9411786Y-23715976D01*
X9411786Y-23715976D02*
X9402262Y-23725500D01*
X9402262Y-23725500D02*
X9383215Y-23735024D01*
X9383215Y-23735024D02*
X9345120Y-23735024D01*
X9345120Y-23735024D02*
X9326072Y-23725500D01*
X9535596Y-23735024D02*
X9516548Y-23725500D01*
X9516548Y-23725500D02*
X9507024Y-23706452D01*
X9507024Y-23706452D02*
X9507024Y-23535024D01*
X9697501Y-23735024D02*
X9697501Y-23630262D01*
X9697501Y-23630262D02*
X9687977Y-23611214D01*
X9687977Y-23611214D02*
X9668929Y-23601690D01*
X9668929Y-23601690D02*
X9630834Y-23601690D01*
X9630834Y-23601690D02*
X9611786Y-23611214D01*
X9697501Y-23725500D02*
X9678453Y-23735024D01*
X9678453Y-23735024D02*
X9630834Y-23735024D01*
X9630834Y-23735024D02*
X9611786Y-23725500D01*
X9611786Y-23725500D02*
X9602262Y-23706452D01*
X9602262Y-23706452D02*
X9602262Y-23687405D01*
X9602262Y-23687405D02*
X9611786Y-23668357D01*
X9611786Y-23668357D02*
X9630834Y-23658833D01*
X9630834Y-23658833D02*
X9678453Y-23658833D01*
X9678453Y-23658833D02*
X9697501Y-23649309D01*
X9764167Y-23601690D02*
X9840358Y-23601690D01*
X9792739Y-23535024D02*
X9792739Y-23706452D01*
X9792739Y-23706452D02*
X9802262Y-23725500D01*
X9802262Y-23725500D02*
X9821310Y-23735024D01*
X9821310Y-23735024D02*
X9840358Y-23735024D01*
X9983215Y-23725500D02*
X9964167Y-23735024D01*
X9964167Y-23735024D02*
X9926072Y-23735024D01*
X9926072Y-23735024D02*
X9907024Y-23725500D01*
X9907024Y-23725500D02*
X9897501Y-23706452D01*
X9897501Y-23706452D02*
X9897501Y-23630262D01*
X9897501Y-23630262D02*
X9907024Y-23611214D01*
X9907024Y-23611214D02*
X9926072Y-23601690D01*
X9926072Y-23601690D02*
X9964167Y-23601690D01*
X9964167Y-23601690D02*
X9983215Y-23611214D01*
X9983215Y-23611214D02*
X9992739Y-23630262D01*
X9992739Y-23630262D02*
X9992739Y-23649309D01*
X9992739Y-23649309D02*
X9897501Y-23668357D01*
X10164167Y-23735024D02*
X10164167Y-23535024D01*
X10164167Y-23725500D02*
X10145120Y-23735024D01*
X10145120Y-23735024D02*
X10107024Y-23735024D01*
X10107024Y-23735024D02*
X10087977Y-23725500D01*
X10087977Y-23725500D02*
X10078453Y-23715976D01*
X10078453Y-23715976D02*
X10068929Y-23696928D01*
X10068929Y-23696928D02*
X10068929Y-23639786D01*
X10068929Y-23639786D02*
X10078453Y-23620738D01*
X10078453Y-23620738D02*
X10087977Y-23611214D01*
X10087977Y-23611214D02*
X10107024Y-23601690D01*
X10107024Y-23601690D02*
X10145120Y-23601690D01*
X10145120Y-23601690D02*
X10164167Y-23611214D01*
X10240358Y-23811214D02*
X10249882Y-23801690D01*
X10249882Y-23801690D02*
X10268929Y-23773119D01*
X10268929Y-23773119D02*
X10278453Y-23754071D01*
X10278453Y-23754071D02*
X10287977Y-23725500D01*
X10287977Y-23725500D02*
X10297501Y-23677881D01*
X10297501Y-23677881D02*
X10297501Y-23639786D01*
X10297501Y-23639786D02*
X10287977Y-23592167D01*
X10287977Y-23592167D02*
X10278453Y-23563595D01*
X10278453Y-23563595D02*
X10268929Y-23544548D01*
X10268929Y-23544548D02*
X10249882Y-23515976D01*
X10249882Y-23515976D02*
X10240358Y-23506452D01*
D13*
X3497500Y-23912500D02*
G75*
G03*
X3497500Y-23912500I-90000J0D01*
G01*
D11*
X3849881Y-24005024D02*
X3735595Y-24005024D01*
X3792738Y-24005024D02*
X3792738Y-23805024D01*
X3792738Y-23805024D02*
X3773690Y-23833595D01*
X3773690Y-23833595D02*
X3754643Y-23852643D01*
X3754643Y-23852643D02*
X3735595Y-23862167D01*
X3935595Y-23985976D02*
X3945119Y-23995500D01*
X3945119Y-23995500D02*
X3935595Y-24005024D01*
X3935595Y-24005024D02*
X3926071Y-23995500D01*
X3926071Y-23995500D02*
X3935595Y-23985976D01*
X3935595Y-23985976D02*
X3935595Y-24005024D01*
X4059405Y-23890738D02*
X4040357Y-23881214D01*
X4040357Y-23881214D02*
X4030833Y-23871690D01*
X4030833Y-23871690D02*
X4021309Y-23852643D01*
X4021309Y-23852643D02*
X4021309Y-23843119D01*
X4021309Y-23843119D02*
X4030833Y-23824071D01*
X4030833Y-23824071D02*
X4040357Y-23814548D01*
X4040357Y-23814548D02*
X4059405Y-23805024D01*
X4059405Y-23805024D02*
X4097500Y-23805024D01*
X4097500Y-23805024D02*
X4116548Y-23814548D01*
X4116548Y-23814548D02*
X4126071Y-23824071D01*
X4126071Y-23824071D02*
X4135595Y-23843119D01*
X4135595Y-23843119D02*
X4135595Y-23852643D01*
X4135595Y-23852643D02*
X4126071Y-23871690D01*
X4126071Y-23871690D02*
X4116548Y-23881214D01*
X4116548Y-23881214D02*
X4097500Y-23890738D01*
X4097500Y-23890738D02*
X4059405Y-23890738D01*
X4059405Y-23890738D02*
X4040357Y-23900262D01*
X4040357Y-23900262D02*
X4030833Y-23909786D01*
X4030833Y-23909786D02*
X4021309Y-23928833D01*
X4021309Y-23928833D02*
X4021309Y-23966928D01*
X4021309Y-23966928D02*
X4030833Y-23985976D01*
X4030833Y-23985976D02*
X4040357Y-23995500D01*
X4040357Y-23995500D02*
X4059405Y-24005024D01*
X4059405Y-24005024D02*
X4097500Y-24005024D01*
X4097500Y-24005024D02*
X4116548Y-23995500D01*
X4116548Y-23995500D02*
X4126071Y-23985976D01*
X4126071Y-23985976D02*
X4135595Y-23966928D01*
X4135595Y-23966928D02*
X4135595Y-23928833D01*
X4135595Y-23928833D02*
X4126071Y-23909786D01*
X4126071Y-23909786D02*
X4116548Y-23900262D01*
X4116548Y-23900262D02*
X4097500Y-23890738D01*
X4259405Y-23805024D02*
X4278452Y-23805024D01*
X4278452Y-23805024D02*
X4297500Y-23814548D01*
X4297500Y-23814548D02*
X4307024Y-23824071D01*
X4307024Y-23824071D02*
X4316548Y-23843119D01*
X4316548Y-23843119D02*
X4326071Y-23881214D01*
X4326071Y-23881214D02*
X4326071Y-23928833D01*
X4326071Y-23928833D02*
X4316548Y-23966928D01*
X4316548Y-23966928D02*
X4307024Y-23985976D01*
X4307024Y-23985976D02*
X4297500Y-23995500D01*
X4297500Y-23995500D02*
X4278452Y-24005024D01*
X4278452Y-24005024D02*
X4259405Y-24005024D01*
X4259405Y-24005024D02*
X4240357Y-23995500D01*
X4240357Y-23995500D02*
X4230833Y-23985976D01*
X4230833Y-23985976D02*
X4221310Y-23966928D01*
X4221310Y-23966928D02*
X4211786Y-23928833D01*
X4211786Y-23928833D02*
X4211786Y-23881214D01*
X4211786Y-23881214D02*
X4221310Y-23843119D01*
X4221310Y-23843119D02*
X4230833Y-23824071D01*
X4230833Y-23824071D02*
X4240357Y-23814548D01*
X4240357Y-23814548D02*
X4259405Y-23805024D01*
X4449881Y-23805024D02*
X4468929Y-23805024D01*
X4468929Y-23805024D02*
X4487976Y-23814548D01*
X4487976Y-23814548D02*
X4497500Y-23824071D01*
X4497500Y-23824071D02*
X4507024Y-23843119D01*
X4507024Y-23843119D02*
X4516548Y-23881214D01*
X4516548Y-23881214D02*
X4516548Y-23928833D01*
X4516548Y-23928833D02*
X4507024Y-23966928D01*
X4507024Y-23966928D02*
X4497500Y-23985976D01*
X4497500Y-23985976D02*
X4487976Y-23995500D01*
X4487976Y-23995500D02*
X4468929Y-24005024D01*
X4468929Y-24005024D02*
X4449881Y-24005024D01*
X4449881Y-24005024D02*
X4430833Y-23995500D01*
X4430833Y-23995500D02*
X4421310Y-23985976D01*
X4421310Y-23985976D02*
X4411786Y-23966928D01*
X4411786Y-23966928D02*
X4402262Y-23928833D01*
X4402262Y-23928833D02*
X4402262Y-23881214D01*
X4402262Y-23881214D02*
X4411786Y-23843119D01*
X4411786Y-23843119D02*
X4421310Y-23824071D01*
X4421310Y-23824071D02*
X4430833Y-23814548D01*
X4430833Y-23814548D02*
X4449881Y-23805024D01*
X4602262Y-24005024D02*
X4602262Y-23871690D01*
X4602262Y-23890738D02*
X4611786Y-23881214D01*
X4611786Y-23881214D02*
X4630833Y-23871690D01*
X4630833Y-23871690D02*
X4659405Y-23871690D01*
X4659405Y-23871690D02*
X4678452Y-23881214D01*
X4678452Y-23881214D02*
X4687976Y-23900262D01*
X4687976Y-23900262D02*
X4687976Y-24005024D01*
X4687976Y-23900262D02*
X4697500Y-23881214D01*
X4697500Y-23881214D02*
X4716548Y-23871690D01*
X4716548Y-23871690D02*
X4745119Y-23871690D01*
X4745119Y-23871690D02*
X4764167Y-23881214D01*
X4764167Y-23881214D02*
X4773691Y-23900262D01*
X4773691Y-23900262D02*
X4773691Y-24005024D01*
X4868929Y-24005024D02*
X4868929Y-23871690D01*
X4868929Y-23890738D02*
X4878452Y-23881214D01*
X4878452Y-23881214D02*
X4897500Y-23871690D01*
X4897500Y-23871690D02*
X4926072Y-23871690D01*
X4926072Y-23871690D02*
X4945119Y-23881214D01*
X4945119Y-23881214D02*
X4954643Y-23900262D01*
X4954643Y-23900262D02*
X4954643Y-24005024D01*
X4954643Y-23900262D02*
X4964167Y-23881214D01*
X4964167Y-23881214D02*
X4983214Y-23871690D01*
X4983214Y-23871690D02*
X5011786Y-23871690D01*
X5011786Y-23871690D02*
X5030833Y-23881214D01*
X5030833Y-23881214D02*
X5040357Y-23900262D01*
X5040357Y-23900262D02*
X5040357Y-24005024D01*
X5430833Y-23795500D02*
X5259405Y-24052643D01*
X5687976Y-23805024D02*
X5707024Y-23805024D01*
X5707024Y-23805024D02*
X5726072Y-23814548D01*
X5726072Y-23814548D02*
X5735595Y-23824071D01*
X5735595Y-23824071D02*
X5745119Y-23843119D01*
X5745119Y-23843119D02*
X5754643Y-23881214D01*
X5754643Y-23881214D02*
X5754643Y-23928833D01*
X5754643Y-23928833D02*
X5745119Y-23966928D01*
X5745119Y-23966928D02*
X5735595Y-23985976D01*
X5735595Y-23985976D02*
X5726072Y-23995500D01*
X5726072Y-23995500D02*
X5707024Y-24005024D01*
X5707024Y-24005024D02*
X5687976Y-24005024D01*
X5687976Y-24005024D02*
X5668929Y-23995500D01*
X5668929Y-23995500D02*
X5659405Y-23985976D01*
X5659405Y-23985976D02*
X5649881Y-23966928D01*
X5649881Y-23966928D02*
X5640357Y-23928833D01*
X5640357Y-23928833D02*
X5640357Y-23881214D01*
X5640357Y-23881214D02*
X5649881Y-23843119D01*
X5649881Y-23843119D02*
X5659405Y-23824071D01*
X5659405Y-23824071D02*
X5668929Y-23814548D01*
X5668929Y-23814548D02*
X5687976Y-23805024D01*
X5840357Y-23985976D02*
X5849881Y-23995500D01*
X5849881Y-23995500D02*
X5840357Y-24005024D01*
X5840357Y-24005024D02*
X5830833Y-23995500D01*
X5830833Y-23995500D02*
X5840357Y-23985976D01*
X5840357Y-23985976D02*
X5840357Y-24005024D01*
X5973691Y-23805024D02*
X5992738Y-23805024D01*
X5992738Y-23805024D02*
X6011786Y-23814548D01*
X6011786Y-23814548D02*
X6021310Y-23824071D01*
X6021310Y-23824071D02*
X6030833Y-23843119D01*
X6030833Y-23843119D02*
X6040357Y-23881214D01*
X6040357Y-23881214D02*
X6040357Y-23928833D01*
X6040357Y-23928833D02*
X6030833Y-23966928D01*
X6030833Y-23966928D02*
X6021310Y-23985976D01*
X6021310Y-23985976D02*
X6011786Y-23995500D01*
X6011786Y-23995500D02*
X5992738Y-24005024D01*
X5992738Y-24005024D02*
X5973691Y-24005024D01*
X5973691Y-24005024D02*
X5954643Y-23995500D01*
X5954643Y-23995500D02*
X5945119Y-23985976D01*
X5945119Y-23985976D02*
X5935595Y-23966928D01*
X5935595Y-23966928D02*
X5926072Y-23928833D01*
X5926072Y-23928833D02*
X5926072Y-23881214D01*
X5926072Y-23881214D02*
X5935595Y-23843119D01*
X5935595Y-23843119D02*
X5945119Y-23824071D01*
X5945119Y-23824071D02*
X5954643Y-23814548D01*
X5954643Y-23814548D02*
X5973691Y-23805024D01*
X6107024Y-23805024D02*
X6240357Y-23805024D01*
X6240357Y-23805024D02*
X6154643Y-24005024D01*
X6354643Y-23805024D02*
X6373691Y-23805024D01*
X6373691Y-23805024D02*
X6392738Y-23814548D01*
X6392738Y-23814548D02*
X6402262Y-23824071D01*
X6402262Y-23824071D02*
X6411786Y-23843119D01*
X6411786Y-23843119D02*
X6421310Y-23881214D01*
X6421310Y-23881214D02*
X6421310Y-23928833D01*
X6421310Y-23928833D02*
X6411786Y-23966928D01*
X6411786Y-23966928D02*
X6402262Y-23985976D01*
X6402262Y-23985976D02*
X6392738Y-23995500D01*
X6392738Y-23995500D02*
X6373691Y-24005024D01*
X6373691Y-24005024D02*
X6354643Y-24005024D01*
X6354643Y-24005024D02*
X6335595Y-23995500D01*
X6335595Y-23995500D02*
X6326072Y-23985976D01*
X6326072Y-23985976D02*
X6316548Y-23966928D01*
X6316548Y-23966928D02*
X6307024Y-23928833D01*
X6307024Y-23928833D02*
X6307024Y-23881214D01*
X6307024Y-23881214D02*
X6316548Y-23843119D01*
X6316548Y-23843119D02*
X6326072Y-23824071D01*
X6326072Y-23824071D02*
X6335595Y-23814548D01*
X6335595Y-23814548D02*
X6354643Y-23805024D01*
X6516548Y-24005024D02*
X6554643Y-24005024D01*
X6554643Y-24005024D02*
X6573691Y-23995500D01*
X6573691Y-23995500D02*
X6583214Y-23985976D01*
X6583214Y-23985976D02*
X6602262Y-23957405D01*
X6602262Y-23957405D02*
X6611786Y-23919309D01*
X6611786Y-23919309D02*
X6611786Y-23843119D01*
X6611786Y-23843119D02*
X6602262Y-23824071D01*
X6602262Y-23824071D02*
X6592738Y-23814548D01*
X6592738Y-23814548D02*
X6573691Y-23805024D01*
X6573691Y-23805024D02*
X6535595Y-23805024D01*
X6535595Y-23805024D02*
X6516548Y-23814548D01*
X6516548Y-23814548D02*
X6507024Y-23824071D01*
X6507024Y-23824071D02*
X6497500Y-23843119D01*
X6497500Y-23843119D02*
X6497500Y-23890738D01*
X6497500Y-23890738D02*
X6507024Y-23909786D01*
X6507024Y-23909786D02*
X6516548Y-23919309D01*
X6516548Y-23919309D02*
X6535595Y-23928833D01*
X6535595Y-23928833D02*
X6573691Y-23928833D01*
X6573691Y-23928833D02*
X6592738Y-23919309D01*
X6592738Y-23919309D02*
X6602262Y-23909786D01*
X6602262Y-23909786D02*
X6611786Y-23890738D01*
X6687976Y-23805024D02*
X6687976Y-23843119D01*
X6764167Y-23805024D02*
X6764167Y-23843119D01*
X7059405Y-24081214D02*
X7049881Y-24071690D01*
X7049881Y-24071690D02*
X7030834Y-24043119D01*
X7030834Y-24043119D02*
X7021310Y-24024071D01*
X7021310Y-24024071D02*
X7011786Y-23995500D01*
X7011786Y-23995500D02*
X7002262Y-23947881D01*
X7002262Y-23947881D02*
X7002262Y-23909786D01*
X7002262Y-23909786D02*
X7011786Y-23862167D01*
X7011786Y-23862167D02*
X7021310Y-23833595D01*
X7021310Y-23833595D02*
X7030834Y-23814548D01*
X7030834Y-23814548D02*
X7049881Y-23785976D01*
X7049881Y-23785976D02*
X7059405Y-23776452D01*
X7126072Y-23824071D02*
X7135595Y-23814548D01*
X7135595Y-23814548D02*
X7154643Y-23805024D01*
X7154643Y-23805024D02*
X7202262Y-23805024D01*
X7202262Y-23805024D02*
X7221310Y-23814548D01*
X7221310Y-23814548D02*
X7230834Y-23824071D01*
X7230834Y-23824071D02*
X7240357Y-23843119D01*
X7240357Y-23843119D02*
X7240357Y-23862167D01*
X7240357Y-23862167D02*
X7230834Y-23890738D01*
X7230834Y-23890738D02*
X7116548Y-24005024D01*
X7116548Y-24005024D02*
X7240357Y-24005024D01*
X7478453Y-24005024D02*
X7478453Y-23805024D01*
X7564167Y-24005024D02*
X7564167Y-23900262D01*
X7564167Y-23900262D02*
X7554643Y-23881214D01*
X7554643Y-23881214D02*
X7535596Y-23871690D01*
X7535596Y-23871690D02*
X7507024Y-23871690D01*
X7507024Y-23871690D02*
X7487976Y-23881214D01*
X7487976Y-23881214D02*
X7478453Y-23890738D01*
X7687976Y-24005024D02*
X7668929Y-23995500D01*
X7668929Y-23995500D02*
X7659405Y-23985976D01*
X7659405Y-23985976D02*
X7649881Y-23966928D01*
X7649881Y-23966928D02*
X7649881Y-23909786D01*
X7649881Y-23909786D02*
X7659405Y-23890738D01*
X7659405Y-23890738D02*
X7668929Y-23881214D01*
X7668929Y-23881214D02*
X7687976Y-23871690D01*
X7687976Y-23871690D02*
X7716548Y-23871690D01*
X7716548Y-23871690D02*
X7735596Y-23881214D01*
X7735596Y-23881214D02*
X7745119Y-23890738D01*
X7745119Y-23890738D02*
X7754643Y-23909786D01*
X7754643Y-23909786D02*
X7754643Y-23966928D01*
X7754643Y-23966928D02*
X7745119Y-23985976D01*
X7745119Y-23985976D02*
X7735596Y-23995500D01*
X7735596Y-23995500D02*
X7716548Y-24005024D01*
X7716548Y-24005024D02*
X7687976Y-24005024D01*
X7868929Y-24005024D02*
X7849881Y-23995500D01*
X7849881Y-23995500D02*
X7840357Y-23976452D01*
X7840357Y-23976452D02*
X7840357Y-23805024D01*
X8021310Y-23995500D02*
X8002262Y-24005024D01*
X8002262Y-24005024D02*
X7964167Y-24005024D01*
X7964167Y-24005024D02*
X7945119Y-23995500D01*
X7945119Y-23995500D02*
X7935596Y-23976452D01*
X7935596Y-23976452D02*
X7935596Y-23900262D01*
X7935596Y-23900262D02*
X7945119Y-23881214D01*
X7945119Y-23881214D02*
X7964167Y-23871690D01*
X7964167Y-23871690D02*
X8002262Y-23871690D01*
X8002262Y-23871690D02*
X8021310Y-23881214D01*
X8021310Y-23881214D02*
X8030834Y-23900262D01*
X8030834Y-23900262D02*
X8030834Y-23919309D01*
X8030834Y-23919309D02*
X7935596Y-23938357D01*
X8107024Y-23995500D02*
X8126072Y-24005024D01*
X8126072Y-24005024D02*
X8164167Y-24005024D01*
X8164167Y-24005024D02*
X8183215Y-23995500D01*
X8183215Y-23995500D02*
X8192738Y-23976452D01*
X8192738Y-23976452D02*
X8192738Y-23966928D01*
X8192738Y-23966928D02*
X8183215Y-23947881D01*
X8183215Y-23947881D02*
X8164167Y-23938357D01*
X8164167Y-23938357D02*
X8135596Y-23938357D01*
X8135596Y-23938357D02*
X8116548Y-23928833D01*
X8116548Y-23928833D02*
X8107024Y-23909786D01*
X8107024Y-23909786D02*
X8107024Y-23900262D01*
X8107024Y-23900262D02*
X8116548Y-23881214D01*
X8116548Y-23881214D02*
X8135596Y-23871690D01*
X8135596Y-23871690D02*
X8164167Y-23871690D01*
X8164167Y-23871690D02*
X8183215Y-23881214D01*
X8259405Y-24081214D02*
X8268929Y-24071690D01*
X8268929Y-24071690D02*
X8287977Y-24043119D01*
X8287977Y-24043119D02*
X8297500Y-24024071D01*
X8297500Y-24024071D02*
X8307024Y-23995500D01*
X8307024Y-23995500D02*
X8316548Y-23947881D01*
X8316548Y-23947881D02*
X8316548Y-23909786D01*
X8316548Y-23909786D02*
X8307024Y-23862167D01*
X8307024Y-23862167D02*
X8297500Y-23833595D01*
X8297500Y-23833595D02*
X8287977Y-23814548D01*
X8287977Y-23814548D02*
X8268929Y-23785976D01*
X8268929Y-23785976D02*
X8259405Y-23776452D01*
X8621310Y-24081214D02*
X8611786Y-24071690D01*
X8611786Y-24071690D02*
X8592739Y-24043119D01*
X8592739Y-24043119D02*
X8583215Y-24024071D01*
X8583215Y-24024071D02*
X8573691Y-23995500D01*
X8573691Y-23995500D02*
X8564167Y-23947881D01*
X8564167Y-23947881D02*
X8564167Y-23909786D01*
X8564167Y-23909786D02*
X8573691Y-23862167D01*
X8573691Y-23862167D02*
X8583215Y-23833595D01*
X8583215Y-23833595D02*
X8592739Y-23814548D01*
X8592739Y-23814548D02*
X8611786Y-23785976D01*
X8611786Y-23785976D02*
X8621310Y-23776452D01*
X8697500Y-23871690D02*
X8697500Y-24005024D01*
X8697500Y-23890738D02*
X8707024Y-23881214D01*
X8707024Y-23881214D02*
X8726072Y-23871690D01*
X8726072Y-23871690D02*
X8754643Y-23871690D01*
X8754643Y-23871690D02*
X8773691Y-23881214D01*
X8773691Y-23881214D02*
X8783215Y-23900262D01*
X8783215Y-23900262D02*
X8783215Y-24005024D01*
X8907024Y-24005024D02*
X8887977Y-23995500D01*
X8887977Y-23995500D02*
X8878453Y-23985976D01*
X8878453Y-23985976D02*
X8868929Y-23966928D01*
X8868929Y-23966928D02*
X8868929Y-23909786D01*
X8868929Y-23909786D02*
X8878453Y-23890738D01*
X8878453Y-23890738D02*
X8887977Y-23881214D01*
X8887977Y-23881214D02*
X8907024Y-23871690D01*
X8907024Y-23871690D02*
X8935596Y-23871690D01*
X8935596Y-23871690D02*
X8954643Y-23881214D01*
X8954643Y-23881214D02*
X8964167Y-23890738D01*
X8964167Y-23890738D02*
X8973691Y-23909786D01*
X8973691Y-23909786D02*
X8973691Y-23966928D01*
X8973691Y-23966928D02*
X8964167Y-23985976D01*
X8964167Y-23985976D02*
X8954643Y-23995500D01*
X8954643Y-23995500D02*
X8935596Y-24005024D01*
X8935596Y-24005024D02*
X8907024Y-24005024D01*
X9030834Y-23871690D02*
X9107024Y-23871690D01*
X9059405Y-23805024D02*
X9059405Y-23976452D01*
X9059405Y-23976452D02*
X9068929Y-23995500D01*
X9068929Y-23995500D02*
X9087977Y-24005024D01*
X9087977Y-24005024D02*
X9107024Y-24005024D01*
X9326072Y-23871690D02*
X9326072Y-24071690D01*
X9326072Y-23881214D02*
X9345120Y-23871690D01*
X9345120Y-23871690D02*
X9383215Y-23871690D01*
X9383215Y-23871690D02*
X9402262Y-23881214D01*
X9402262Y-23881214D02*
X9411786Y-23890738D01*
X9411786Y-23890738D02*
X9421310Y-23909786D01*
X9421310Y-23909786D02*
X9421310Y-23966928D01*
X9421310Y-23966928D02*
X9411786Y-23985976D01*
X9411786Y-23985976D02*
X9402262Y-23995500D01*
X9402262Y-23995500D02*
X9383215Y-24005024D01*
X9383215Y-24005024D02*
X9345120Y-24005024D01*
X9345120Y-24005024D02*
X9326072Y-23995500D01*
X9535596Y-24005024D02*
X9516548Y-23995500D01*
X9516548Y-23995500D02*
X9507024Y-23976452D01*
X9507024Y-23976452D02*
X9507024Y-23805024D01*
X9697501Y-24005024D02*
X9697501Y-23900262D01*
X9697501Y-23900262D02*
X9687977Y-23881214D01*
X9687977Y-23881214D02*
X9668929Y-23871690D01*
X9668929Y-23871690D02*
X9630834Y-23871690D01*
X9630834Y-23871690D02*
X9611786Y-23881214D01*
X9697501Y-23995500D02*
X9678453Y-24005024D01*
X9678453Y-24005024D02*
X9630834Y-24005024D01*
X9630834Y-24005024D02*
X9611786Y-23995500D01*
X9611786Y-23995500D02*
X9602262Y-23976452D01*
X9602262Y-23976452D02*
X9602262Y-23957405D01*
X9602262Y-23957405D02*
X9611786Y-23938357D01*
X9611786Y-23938357D02*
X9630834Y-23928833D01*
X9630834Y-23928833D02*
X9678453Y-23928833D01*
X9678453Y-23928833D02*
X9697501Y-23919309D01*
X9764167Y-23871690D02*
X9840358Y-23871690D01*
X9792739Y-23805024D02*
X9792739Y-23976452D01*
X9792739Y-23976452D02*
X9802262Y-23995500D01*
X9802262Y-23995500D02*
X9821310Y-24005024D01*
X9821310Y-24005024D02*
X9840358Y-24005024D01*
X9983215Y-23995500D02*
X9964167Y-24005024D01*
X9964167Y-24005024D02*
X9926072Y-24005024D01*
X9926072Y-24005024D02*
X9907024Y-23995500D01*
X9907024Y-23995500D02*
X9897501Y-23976452D01*
X9897501Y-23976452D02*
X9897501Y-23900262D01*
X9897501Y-23900262D02*
X9907024Y-23881214D01*
X9907024Y-23881214D02*
X9926072Y-23871690D01*
X9926072Y-23871690D02*
X9964167Y-23871690D01*
X9964167Y-23871690D02*
X9983215Y-23881214D01*
X9983215Y-23881214D02*
X9992739Y-23900262D01*
X9992739Y-23900262D02*
X9992739Y-23919309D01*
X9992739Y-23919309D02*
X9897501Y-23938357D01*
X10164167Y-24005024D02*
X10164167Y-23805024D01*
X10164167Y-23995500D02*
X10145120Y-24005024D01*
X10145120Y-24005024D02*
X10107024Y-24005024D01*
X10107024Y-24005024D02*
X10087977Y-23995500D01*
X10087977Y-23995500D02*
X10078453Y-23985976D01*
X10078453Y-23985976D02*
X10068929Y-23966928D01*
X10068929Y-23966928D02*
X10068929Y-23909786D01*
X10068929Y-23909786D02*
X10078453Y-23890738D01*
X10078453Y-23890738D02*
X10087977Y-23881214D01*
X10087977Y-23881214D02*
X10107024Y-23871690D01*
X10107024Y-23871690D02*
X10145120Y-23871690D01*
X10145120Y-23871690D02*
X10164167Y-23881214D01*
X10240358Y-24081214D02*
X10249882Y-24071690D01*
X10249882Y-24071690D02*
X10268929Y-24043119D01*
X10268929Y-24043119D02*
X10278453Y-24024071D01*
X10278453Y-24024071D02*
X10287977Y-23995500D01*
X10287977Y-23995500D02*
X10297501Y-23947881D01*
X10297501Y-23947881D02*
X10297501Y-23909786D01*
X10297501Y-23909786D02*
X10287977Y-23862167D01*
X10287977Y-23862167D02*
X10278453Y-23833595D01*
X10278453Y-23833595D02*
X10268929Y-23814548D01*
X10268929Y-23814548D02*
X10249882Y-23785976D01*
X10249882Y-23785976D02*
X10240358Y-23776452D01*
M02*
