%TF.GenerationSoftware,KiCad,Pcbnew,7.0.1*%
%TF.CreationDate,2024-12-08T14:30:28-06:00*%
%TF.ProjectId,input-output.MappedVideo,696e7075-742d-46f7-9574-7075742e4d61,V0.8*%
%TF.SameCoordinates,Original*%
%TF.FileFunction,Drillmap*%
%TF.FilePolarity,Positive*%
%FSLAX45Y45*%
G04 Gerber Fmt 4.5, Leading zero omitted, Abs format (unit mm)*
G04 Created by KiCad (PCBNEW 7.0.1) date 2024-12-08 14:30:28*
%MOMM*%
%LPD*%
G01*
G04 APERTURE LIST*
%ADD10C,0.050000*%
%ADD11C,0.200000*%
%ADD12C,0.040000*%
%ADD13C,0.070000*%
%ADD14C,0.080000*%
%ADD15C,0.090000*%
%ADD16C,0.100000*%
%ADD17C,0.102000*%
%ADD18C,0.110000*%
%ADD19C,0.320000*%
G04 APERTURE END LIST*
D10*
X3500000Y-7500000D02*
X3500000Y-22500000D01*
X4000000Y-23000000D02*
X26500000Y-23000000D01*
X27000000Y-22500000D02*
X27000000Y-7500000D01*
X26500000Y-7000000D02*
X4000000Y-7000000D01*
X27000000Y-7500000D02*
G75*
G03*
X26500000Y-7000000I-500000J0D01*
G01*
X3500000Y-22500000D02*
G75*
G03*
X4000000Y-23000000I500000J0D01*
G01*
X4000000Y-7000000D02*
G75*
G03*
X3500000Y-7500000I0J-500000D01*
G01*
X26500000Y-23000000D02*
G75*
G03*
X27000000Y-22500000I0J500000D01*
G01*
D11*
D12*
X7113030Y-10354820D02*
X7153030Y-10394820D01*
X7153030Y-10354820D02*
X7113030Y-10394820D01*
X7390950Y-12505570D02*
X7430950Y-12545570D01*
X7430950Y-12505570D02*
X7390950Y-12545570D01*
X8833210Y-21510800D02*
X8873210Y-21550800D01*
X8873210Y-21510800D02*
X8833210Y-21550800D01*
X8990310Y-13867680D02*
X9030310Y-13907680D01*
X9030310Y-13867680D02*
X8990310Y-13907680D01*
X9934700Y-17459970D02*
X9974700Y-17499970D01*
X9974700Y-17459970D02*
X9934700Y-17499970D01*
X10197100Y-16121140D02*
X10237100Y-16161140D01*
X10237100Y-16121140D02*
X10197100Y-16161140D01*
X10273900Y-20635050D02*
X10313900Y-20675050D01*
X10313900Y-20635050D02*
X10273900Y-20675050D01*
X10757240Y-16891460D02*
X10797240Y-16931460D01*
X10797240Y-16891460D02*
X10757240Y-16931460D01*
X10953860Y-16689680D02*
X10993860Y-16729680D01*
X10993860Y-16689680D02*
X10953860Y-16729680D01*
X11621790Y-22140290D02*
X11661790Y-22180290D01*
X11661790Y-22140290D02*
X11621790Y-22180290D01*
X11986420Y-21637320D02*
X12026420Y-21677320D01*
X12026420Y-21637320D02*
X11986420Y-21677320D01*
X11989230Y-21530280D02*
X12029230Y-21570280D01*
X12029230Y-21530280D02*
X11989230Y-21570280D01*
X12088610Y-21650850D02*
X12128610Y-21690850D01*
X12128610Y-21650850D02*
X12088610Y-21690850D01*
X12445140Y-17372660D02*
X12485140Y-17412660D01*
X12485140Y-17372660D02*
X12445140Y-17412660D01*
X12517920Y-17729970D02*
X12557920Y-17769970D01*
X12557920Y-17729970D02*
X12517920Y-17769970D01*
X12690810Y-17299790D02*
X12730810Y-17339790D01*
X12730810Y-17299790D02*
X12690810Y-17339790D01*
X12837130Y-17254960D02*
X12877130Y-17294960D01*
X12877130Y-17254960D02*
X12837130Y-17294960D01*
X12850840Y-16910520D02*
X12890840Y-16950520D01*
X12890840Y-16910520D02*
X12850840Y-16950520D01*
X12891520Y-21692810D02*
X12931520Y-21732810D01*
X12931520Y-21692810D02*
X12891520Y-21732810D01*
X12927660Y-17202460D02*
X12967660Y-17242460D01*
X12967660Y-17202460D02*
X12927660Y-17242460D01*
X13176780Y-19819870D02*
X13216780Y-19859870D01*
X13216780Y-19819870D02*
X13176780Y-19859870D01*
X13423100Y-8949710D02*
X13463100Y-8989710D01*
X13463100Y-8949710D02*
X13423100Y-8989710D01*
X13437960Y-8794900D02*
X13477960Y-8834900D01*
X13477960Y-8794900D02*
X13437960Y-8834900D01*
X13671600Y-10504110D02*
X13711600Y-10544110D01*
X13711600Y-10504110D02*
X13671600Y-10544110D01*
X14133530Y-10591340D02*
X14173530Y-10631340D01*
X14173530Y-10591340D02*
X14133530Y-10631340D01*
X14249040Y-22047240D02*
X14289040Y-22087240D01*
X14289040Y-22047240D02*
X14249040Y-22087240D01*
X14753410Y-21792540D02*
X14793410Y-21832540D01*
X14793410Y-21792540D02*
X14753410Y-21832540D01*
X14810000Y-19526320D02*
X14850000Y-19566320D01*
X14850000Y-19526320D02*
X14810000Y-19566320D01*
X14928300Y-21511610D02*
X14968300Y-21551610D01*
X14968300Y-21511610D02*
X14928300Y-21551610D01*
X15168950Y-19819870D02*
X15208950Y-19859870D01*
X15208950Y-19819870D02*
X15168950Y-19859870D01*
X15302440Y-18533130D02*
X15342440Y-18573130D01*
X15342440Y-18533130D02*
X15302440Y-18573130D01*
X15395400Y-19985330D02*
X15435400Y-20025330D01*
X15435400Y-19985330D02*
X15395400Y-20025330D01*
X15464290Y-21701130D02*
X15504290Y-21741130D01*
X15504290Y-21701130D02*
X15464290Y-21741130D01*
X15466770Y-21588890D02*
X15506770Y-21628890D01*
X15506770Y-21588890D02*
X15466770Y-21628890D01*
X15554400Y-20104120D02*
X15594400Y-20144120D01*
X15594400Y-20104120D02*
X15554400Y-20144120D01*
X15716640Y-20420300D02*
X15756640Y-20460300D01*
X15756640Y-20420300D02*
X15716640Y-20460300D01*
X15717730Y-20018570D02*
X15757730Y-20058570D01*
X15757730Y-20018570D02*
X15717730Y-20058570D01*
X15874340Y-17729970D02*
X15914340Y-17769970D01*
X15914340Y-17729970D02*
X15874340Y-17769970D01*
X16501040Y-18483630D02*
X16541040Y-18523630D01*
X16541040Y-18483630D02*
X16501040Y-18523630D01*
X16570170Y-21392590D02*
X16610170Y-21432590D01*
X16610170Y-21392590D02*
X16570170Y-21432590D01*
X16670190Y-21413260D02*
X16710190Y-21453260D01*
X16710190Y-21413260D02*
X16670190Y-21453260D01*
X17181070Y-18027780D02*
X17221070Y-18067780D01*
X17221070Y-18027780D02*
X17181070Y-18067780D01*
X19519800Y-20343870D02*
X19559800Y-20383870D01*
X19559800Y-20343870D02*
X19519800Y-20383870D01*
X20154590Y-20313530D02*
X20194590Y-20353530D01*
X20194590Y-20313530D02*
X20154590Y-20353530D01*
X22501060Y-20903980D02*
X22541060Y-20943980D01*
X22541060Y-20903980D02*
X22501060Y-20943980D01*
X22738620Y-20881480D02*
X22778620Y-20921480D01*
X22778620Y-20881480D02*
X22738620Y-20921480D01*
X22943740Y-20875980D02*
X22983740Y-20915980D01*
X22983740Y-20875980D02*
X22943740Y-20915980D01*
D13*
X7218000Y-10185700D02*
G75*
G03*
X7218000Y-10185700I-35000J0D01*
G01*
X7218000Y-10788370D02*
G75*
G03*
X7218000Y-10788370I-35000J0D01*
G01*
X7218000Y-11391040D02*
G75*
G03*
X7218000Y-11391040I-35000J0D01*
G01*
X7218000Y-11993710D02*
G75*
G03*
X7218000Y-11993710I-35000J0D01*
G01*
X7726000Y-10185700D02*
G75*
G03*
X7726000Y-10185700I-35000J0D01*
G01*
X7726000Y-10788370D02*
G75*
G03*
X7726000Y-10788370I-35000J0D01*
G01*
X7726000Y-11391040D02*
G75*
G03*
X7726000Y-11391040I-35000J0D01*
G01*
X7726000Y-11993710D02*
G75*
G03*
X7726000Y-11993710I-35000J0D01*
G01*
X13606100Y-8636300D02*
G75*
G03*
X13606100Y-8636300I-35000J0D01*
G01*
X13606100Y-9242720D02*
G75*
G03*
X13606100Y-9242720I-35000J0D01*
G01*
X13606100Y-9849150D02*
G75*
G03*
X13606100Y-9849150I-35000J0D01*
G01*
X13606100Y-10455570D02*
G75*
G03*
X13606100Y-10455570I-35000J0D01*
G01*
X13606100Y-11062000D02*
G75*
G03*
X13606100Y-11062000I-35000J0D01*
G01*
X13618800Y-11658900D02*
G75*
G03*
X13618800Y-11658900I-35000J0D01*
G01*
X14114100Y-8636300D02*
G75*
G03*
X14114100Y-8636300I-35000J0D01*
G01*
X14114100Y-9242720D02*
G75*
G03*
X14114100Y-9242720I-35000J0D01*
G01*
X14114100Y-9849150D02*
G75*
G03*
X14114100Y-9849150I-35000J0D01*
G01*
X14114100Y-10455570D02*
G75*
G03*
X14114100Y-10455570I-35000J0D01*
G01*
X14114100Y-11062000D02*
G75*
G03*
X14114100Y-11062000I-35000J0D01*
G01*
X14126800Y-11658900D02*
G75*
G03*
X14126800Y-11658900I-35000J0D01*
G01*
X14952300Y-8636300D02*
G75*
G03*
X14952300Y-8636300I-35000J0D01*
G01*
X14952300Y-9242720D02*
G75*
G03*
X14952300Y-9242720I-35000J0D01*
G01*
X14952300Y-9849150D02*
G75*
G03*
X14952300Y-9849150I-35000J0D01*
G01*
X14952300Y-10455570D02*
G75*
G03*
X14952300Y-10455570I-35000J0D01*
G01*
X14952300Y-11062000D02*
G75*
G03*
X14952300Y-11062000I-35000J0D01*
G01*
X15460300Y-8636300D02*
G75*
G03*
X15460300Y-8636300I-35000J0D01*
G01*
X15460300Y-9242720D02*
G75*
G03*
X15460300Y-9242720I-35000J0D01*
G01*
X15460300Y-9849150D02*
G75*
G03*
X15460300Y-9849150I-35000J0D01*
G01*
X15460300Y-10455570D02*
G75*
G03*
X15460300Y-10455570I-35000J0D01*
G01*
X15460300Y-11062000D02*
G75*
G03*
X15460300Y-11062000I-35000J0D01*
G01*
D14*
X6421000Y-8772000D02*
X6421000Y-8852000D01*
X6381000Y-8812000D02*
X6461000Y-8812000D01*
X6586100Y-20576400D02*
X6586100Y-20656400D01*
X6546100Y-20616400D02*
X6626100Y-20616400D01*
X6586100Y-21076400D02*
X6586100Y-21156400D01*
X6546100Y-21116400D02*
X6626100Y-21116400D01*
X7150000Y-20498000D02*
X7150000Y-20578000D01*
X7110000Y-20538000D02*
X7190000Y-20538000D01*
X7150000Y-21260000D02*
X7150000Y-21340000D01*
X7110000Y-21300000D02*
X7190000Y-21300000D01*
X7183000Y-8772000D02*
X7183000Y-8852000D01*
X7143000Y-8812000D02*
X7223000Y-8812000D01*
X7404000Y-20498000D02*
X7404000Y-20578000D01*
X7364000Y-20538000D02*
X7444000Y-20538000D01*
X7404000Y-21260000D02*
X7404000Y-21340000D01*
X7364000Y-21300000D02*
X7444000Y-21300000D01*
X7658000Y-20498000D02*
X7658000Y-20578000D01*
X7618000Y-20538000D02*
X7698000Y-20538000D01*
X7658000Y-21260000D02*
X7658000Y-21340000D01*
X7618000Y-21300000D02*
X7698000Y-21300000D01*
X7912000Y-20498000D02*
X7912000Y-20578000D01*
X7872000Y-20538000D02*
X7952000Y-20538000D01*
X7912000Y-21260000D02*
X7912000Y-21340000D01*
X7872000Y-21300000D02*
X7952000Y-21300000D01*
X8166000Y-20498000D02*
X8166000Y-20578000D01*
X8126000Y-20538000D02*
X8206000Y-20538000D01*
X8166000Y-21260000D02*
X8166000Y-21340000D01*
X8126000Y-21300000D02*
X8206000Y-21300000D01*
X8420000Y-20498000D02*
X8420000Y-20578000D01*
X8380000Y-20538000D02*
X8460000Y-20538000D01*
X8420000Y-21260000D02*
X8420000Y-21340000D01*
X8380000Y-21300000D02*
X8460000Y-21300000D01*
X8674000Y-20498000D02*
X8674000Y-20578000D01*
X8634000Y-20538000D02*
X8714000Y-20538000D01*
X8674000Y-21260000D02*
X8674000Y-21340000D01*
X8634000Y-21300000D02*
X8714000Y-21300000D01*
X8928000Y-20498000D02*
X8928000Y-20578000D01*
X8888000Y-20538000D02*
X8968000Y-20538000D01*
X8928000Y-21260000D02*
X8928000Y-21340000D01*
X8888000Y-21300000D02*
X8968000Y-21300000D01*
X9011800Y-10450500D02*
X9011800Y-10530500D01*
X8971800Y-10490500D02*
X9051800Y-10490500D01*
X9011800Y-10704500D02*
X9011800Y-10784500D01*
X8971800Y-10744500D02*
X9051800Y-10744500D01*
X9011800Y-10958500D02*
X9011800Y-11038500D01*
X8971800Y-10998500D02*
X9051800Y-10998500D01*
X9011800Y-11212500D02*
X9011800Y-11292500D01*
X8971800Y-11252500D02*
X9051800Y-11252500D01*
X9011800Y-11466500D02*
X9011800Y-11546500D01*
X8971800Y-11506500D02*
X9051800Y-11506500D01*
X9011800Y-11720500D02*
X9011800Y-11800500D01*
X8971800Y-11760500D02*
X9051800Y-11760500D01*
X9164200Y-16588600D02*
X9164200Y-16668600D01*
X9124200Y-16628600D02*
X9204200Y-16628600D01*
X9164200Y-17088600D02*
X9164200Y-17168600D01*
X9124200Y-17128600D02*
X9204200Y-17128600D01*
X9182000Y-20498000D02*
X9182000Y-20578000D01*
X9142000Y-20538000D02*
X9222000Y-20538000D01*
X9182000Y-21260000D02*
X9182000Y-21340000D01*
X9142000Y-21300000D02*
X9222000Y-21300000D01*
X9202300Y-18408700D02*
X9202300Y-18488700D01*
X9162300Y-18448700D02*
X9242300Y-18448700D01*
X9202300Y-18908700D02*
X9202300Y-18988700D01*
X9162300Y-18948700D02*
X9242300Y-18948700D01*
X9436000Y-20498000D02*
X9436000Y-20578000D01*
X9396000Y-20538000D02*
X9476000Y-20538000D01*
X9436000Y-21260000D02*
X9436000Y-21340000D01*
X9396000Y-21300000D02*
X9476000Y-21300000D01*
X9723000Y-14781200D02*
X9723000Y-14861200D01*
X9683000Y-14821200D02*
X9763000Y-14821200D01*
X9773800Y-16470300D02*
X9773800Y-16550300D01*
X9733800Y-16510300D02*
X9813800Y-16510300D01*
X9773800Y-17232300D02*
X9773800Y-17312300D01*
X9733800Y-17272300D02*
X9813800Y-17272300D01*
X9900800Y-18311800D02*
X9900800Y-18391800D01*
X9860800Y-18351800D02*
X9940800Y-18351800D01*
X9900800Y-19073800D02*
X9900800Y-19153800D01*
X9860800Y-19113800D02*
X9940800Y-19113800D01*
X9977000Y-14781200D02*
X9977000Y-14861200D01*
X9937000Y-14821200D02*
X10017000Y-14821200D01*
X10027800Y-16470300D02*
X10027800Y-16550300D01*
X9987800Y-16510300D02*
X10067800Y-16510300D01*
X10027800Y-17232300D02*
X10027800Y-17312300D01*
X9987800Y-17272300D02*
X10067800Y-17272300D01*
X10154800Y-18311800D02*
X10154800Y-18391800D01*
X10114800Y-18351800D02*
X10194800Y-18351800D01*
X10154800Y-19073800D02*
X10154800Y-19153800D01*
X10114800Y-19113800D02*
X10194800Y-19113800D01*
X10231000Y-14781200D02*
X10231000Y-14861200D01*
X10191000Y-14821200D02*
X10271000Y-14821200D01*
X10281800Y-16470300D02*
X10281800Y-16550300D01*
X10241800Y-16510300D02*
X10321800Y-16510300D01*
X10281800Y-17232300D02*
X10281800Y-17312300D01*
X10241800Y-17272300D02*
X10321800Y-17272300D01*
X10408800Y-18311800D02*
X10408800Y-18391800D01*
X10368800Y-18351800D02*
X10448800Y-18351800D01*
X10408800Y-19073800D02*
X10408800Y-19153800D01*
X10368800Y-19113800D02*
X10448800Y-19113800D01*
X10485000Y-14781200D02*
X10485000Y-14861200D01*
X10445000Y-14821200D02*
X10525000Y-14821200D01*
X10535800Y-16470300D02*
X10535800Y-16550300D01*
X10495800Y-16510300D02*
X10575800Y-16510300D01*
X10535800Y-17232300D02*
X10535800Y-17312300D01*
X10495800Y-17272300D02*
X10575800Y-17272300D01*
X10662800Y-18311800D02*
X10662800Y-18391800D01*
X10622800Y-18351800D02*
X10702800Y-18351800D01*
X10662800Y-19073800D02*
X10662800Y-19153800D01*
X10622800Y-19113800D02*
X10702800Y-19113800D01*
X10739000Y-14781200D02*
X10739000Y-14861200D01*
X10699000Y-14821200D02*
X10779000Y-14821200D01*
X10789800Y-16470300D02*
X10789800Y-16550300D01*
X10749800Y-16510300D02*
X10829800Y-16510300D01*
X10789800Y-17232300D02*
X10789800Y-17312300D01*
X10749800Y-17272300D02*
X10829800Y-17272300D01*
X10916800Y-18311800D02*
X10916800Y-18391800D01*
X10876800Y-18351800D02*
X10956800Y-18351800D01*
X10916800Y-19073800D02*
X10916800Y-19153800D01*
X10876800Y-19113800D02*
X10956800Y-19113800D01*
X10993000Y-14781200D02*
X10993000Y-14861200D01*
X10953000Y-14821200D02*
X11033000Y-14821200D01*
X11043800Y-16470300D02*
X11043800Y-16550300D01*
X11003800Y-16510300D02*
X11083800Y-16510300D01*
X11043800Y-17232300D02*
X11043800Y-17312300D01*
X11003800Y-17272300D02*
X11083800Y-17272300D01*
X11170800Y-18311800D02*
X11170800Y-18391800D01*
X11130800Y-18351800D02*
X11210800Y-18351800D01*
X11170800Y-19073800D02*
X11170800Y-19153800D01*
X11130800Y-19113800D02*
X11210800Y-19113800D01*
X11247000Y-14781200D02*
X11247000Y-14861200D01*
X11207000Y-14821200D02*
X11287000Y-14821200D01*
X11297800Y-16470300D02*
X11297800Y-16550300D01*
X11257800Y-16510300D02*
X11337800Y-16510300D01*
X11297800Y-17232300D02*
X11297800Y-17312300D01*
X11257800Y-17272300D02*
X11337800Y-17272300D01*
X11424800Y-18311800D02*
X11424800Y-18391800D01*
X11384800Y-18351800D02*
X11464800Y-18351800D01*
X11424800Y-19073800D02*
X11424800Y-19153800D01*
X11384800Y-19113800D02*
X11464800Y-19113800D01*
X11501000Y-14781200D02*
X11501000Y-14861200D01*
X11461000Y-14821200D02*
X11541000Y-14821200D01*
X11551800Y-16470300D02*
X11551800Y-16550300D01*
X11511800Y-16510300D02*
X11591800Y-16510300D01*
X11551800Y-17232300D02*
X11551800Y-17312300D01*
X11511800Y-17272300D02*
X11591800Y-17272300D01*
X11678800Y-18311800D02*
X11678800Y-18391800D01*
X11638800Y-18351800D02*
X11718800Y-18351800D01*
X11678800Y-19073800D02*
X11678800Y-19153800D01*
X11638800Y-19113800D02*
X11718800Y-19113800D01*
X11755000Y-14781200D02*
X11755000Y-14861200D01*
X11715000Y-14821200D02*
X11795000Y-14821200D01*
X11805800Y-16470300D02*
X11805800Y-16550300D01*
X11765800Y-16510300D02*
X11845800Y-16510300D01*
X11805800Y-17232300D02*
X11805800Y-17312300D01*
X11765800Y-17272300D02*
X11845800Y-17272300D01*
X11932800Y-18311800D02*
X11932800Y-18391800D01*
X11892800Y-18351800D02*
X11972800Y-18351800D01*
X11932800Y-19073800D02*
X11932800Y-19153800D01*
X11892800Y-19113800D02*
X11972800Y-19113800D01*
X12059800Y-16470300D02*
X12059800Y-16550300D01*
X12019800Y-16510300D02*
X12099800Y-16510300D01*
X12059800Y-17232300D02*
X12059800Y-17312300D01*
X12019800Y-17272300D02*
X12099800Y-17272300D01*
X12186800Y-18311800D02*
X12186800Y-18391800D01*
X12146800Y-18351800D02*
X12226800Y-18351800D01*
X12186800Y-19073800D02*
X12186800Y-19153800D01*
X12146800Y-19113800D02*
X12226800Y-19113800D01*
X13177400Y-18426100D02*
X13177400Y-18506100D01*
X13137400Y-18466100D02*
X13217400Y-18466100D01*
X13177400Y-18926100D02*
X13177400Y-19006100D01*
X13137400Y-18966100D02*
X13217400Y-18966100D01*
X13291700Y-20627200D02*
X13291700Y-20707200D01*
X13251700Y-20667200D02*
X13331700Y-20667200D01*
X13291700Y-21127200D02*
X13291700Y-21207200D01*
X13251700Y-21167200D02*
X13331700Y-21167200D01*
X13748900Y-18273700D02*
X13748900Y-18353700D01*
X13708900Y-18313700D02*
X13788900Y-18313700D01*
X13748900Y-19035700D02*
X13748900Y-19115700D01*
X13708900Y-19075700D02*
X13788900Y-19075700D01*
X13825000Y-20498000D02*
X13825000Y-20578000D01*
X13785000Y-20538000D02*
X13865000Y-20538000D01*
X13825000Y-21260000D02*
X13825000Y-21340000D01*
X13785000Y-21300000D02*
X13865000Y-21300000D01*
X14002900Y-18273700D02*
X14002900Y-18353700D01*
X13962900Y-18313700D02*
X14042900Y-18313700D01*
X14002900Y-19035700D02*
X14002900Y-19115700D01*
X13962900Y-19075700D02*
X14042900Y-19075700D01*
X14079000Y-20498000D02*
X14079000Y-20578000D01*
X14039000Y-20538000D02*
X14119000Y-20538000D01*
X14079000Y-21260000D02*
X14079000Y-21340000D01*
X14039000Y-21300000D02*
X14119000Y-21300000D01*
X14256900Y-18273700D02*
X14256900Y-18353700D01*
X14216900Y-18313700D02*
X14296900Y-18313700D01*
X14256900Y-19035700D02*
X14256900Y-19115700D01*
X14216900Y-19075700D02*
X14296900Y-19075700D01*
X14333000Y-20498000D02*
X14333000Y-20578000D01*
X14293000Y-20538000D02*
X14373000Y-20538000D01*
X14333000Y-21260000D02*
X14333000Y-21340000D01*
X14293000Y-21300000D02*
X14373000Y-21300000D01*
X14510900Y-18273700D02*
X14510900Y-18353700D01*
X14470900Y-18313700D02*
X14550900Y-18313700D01*
X14510900Y-19035700D02*
X14510900Y-19115700D01*
X14470900Y-19075700D02*
X14550900Y-19075700D01*
X14587000Y-20498000D02*
X14587000Y-20578000D01*
X14547000Y-20538000D02*
X14627000Y-20538000D01*
X14587000Y-21260000D02*
X14587000Y-21340000D01*
X14547000Y-21300000D02*
X14627000Y-21300000D01*
X14764900Y-18273700D02*
X14764900Y-18353700D01*
X14724900Y-18313700D02*
X14804900Y-18313700D01*
X14764900Y-19035700D02*
X14764900Y-19115700D01*
X14724900Y-19075700D02*
X14804900Y-19075700D01*
X14841000Y-20498000D02*
X14841000Y-20578000D01*
X14801000Y-20538000D02*
X14881000Y-20538000D01*
X14841000Y-21260000D02*
X14841000Y-21340000D01*
X14801000Y-21300000D02*
X14881000Y-21300000D01*
X15018900Y-18273700D02*
X15018900Y-18353700D01*
X14978900Y-18313700D02*
X15058900Y-18313700D01*
X15018900Y-19035700D02*
X15018900Y-19115700D01*
X14978900Y-19075700D02*
X15058900Y-19075700D01*
X15095000Y-20498000D02*
X15095000Y-20578000D01*
X15055000Y-20538000D02*
X15135000Y-20538000D01*
X15095000Y-21260000D02*
X15095000Y-21340000D01*
X15055000Y-21300000D02*
X15135000Y-21300000D01*
X15272900Y-18273700D02*
X15272900Y-18353700D01*
X15232900Y-18313700D02*
X15312900Y-18313700D01*
X15272900Y-19035700D02*
X15272900Y-19115700D01*
X15232900Y-19075700D02*
X15312900Y-19075700D01*
X15349000Y-20498000D02*
X15349000Y-20578000D01*
X15309000Y-20538000D02*
X15389000Y-20538000D01*
X15349000Y-21260000D02*
X15349000Y-21340000D01*
X15309000Y-21300000D02*
X15389000Y-21300000D01*
X15526900Y-18273700D02*
X15526900Y-18353700D01*
X15486900Y-18313700D02*
X15566900Y-18313700D01*
X15526900Y-19035700D02*
X15526900Y-19115700D01*
X15486900Y-19075700D02*
X15566900Y-19075700D01*
X15603000Y-20498000D02*
X15603000Y-20578000D01*
X15563000Y-20538000D02*
X15643000Y-20538000D01*
X15603000Y-21260000D02*
X15603000Y-21340000D01*
X15563000Y-21300000D02*
X15643000Y-21300000D01*
X15780900Y-18273700D02*
X15780900Y-18353700D01*
X15740900Y-18313700D02*
X15820900Y-18313700D01*
X15780900Y-19035700D02*
X15780900Y-19115700D01*
X15740900Y-19075700D02*
X15820900Y-19075700D01*
X15857000Y-20498000D02*
X15857000Y-20578000D01*
X15817000Y-20538000D02*
X15897000Y-20538000D01*
X15857000Y-21260000D02*
X15857000Y-21340000D01*
X15817000Y-21300000D02*
X15897000Y-21300000D01*
X16034900Y-18273700D02*
X16034900Y-18353700D01*
X15994900Y-18313700D02*
X16074900Y-18313700D01*
X16034900Y-19035700D02*
X16034900Y-19115700D01*
X15994900Y-19075700D02*
X16074900Y-19075700D01*
X16111000Y-20498000D02*
X16111000Y-20578000D01*
X16071000Y-20538000D02*
X16151000Y-20538000D01*
X16111000Y-21260000D02*
X16111000Y-21340000D01*
X16071000Y-21300000D02*
X16151000Y-21300000D01*
X16708000Y-20614500D02*
X16708000Y-20694500D01*
X16668000Y-20654500D02*
X16748000Y-20654500D01*
X16708000Y-21114500D02*
X16708000Y-21194500D01*
X16668000Y-21154500D02*
X16748000Y-21154500D01*
X16949300Y-16986300D02*
X16949300Y-17066300D01*
X16909300Y-17026300D02*
X16989300Y-17026300D01*
X16949300Y-17486300D02*
X16949300Y-17566300D01*
X16909300Y-17526300D02*
X16989300Y-17526300D01*
X17207500Y-20478000D02*
X17207500Y-20558000D01*
X17167500Y-20518000D02*
X17247500Y-20518000D01*
X17207500Y-21240000D02*
X17207500Y-21320000D01*
X17167500Y-21280000D02*
X17247500Y-21280000D01*
X17461500Y-20478000D02*
X17461500Y-20558000D01*
X17421500Y-20518000D02*
X17501500Y-20518000D01*
X17461500Y-21240000D02*
X17461500Y-21320000D01*
X17421500Y-21280000D02*
X17501500Y-21280000D01*
X17470000Y-16914800D02*
X17470000Y-16994800D01*
X17430000Y-16954800D02*
X17510000Y-16954800D01*
X17470000Y-17676800D02*
X17470000Y-17756800D01*
X17430000Y-17716800D02*
X17510000Y-17716800D01*
X17502500Y-20080000D02*
X17502500Y-20160000D01*
X17462500Y-20120000D02*
X17542500Y-20120000D01*
X17715500Y-20478000D02*
X17715500Y-20558000D01*
X17675500Y-20518000D02*
X17755500Y-20518000D01*
X17715500Y-21240000D02*
X17715500Y-21320000D01*
X17675500Y-21280000D02*
X17755500Y-21280000D01*
X17724000Y-16914800D02*
X17724000Y-16994800D01*
X17684000Y-16954800D02*
X17764000Y-16954800D01*
X17724000Y-17676800D02*
X17724000Y-17756800D01*
X17684000Y-17716800D02*
X17764000Y-17716800D01*
X17756500Y-20080000D02*
X17756500Y-20160000D01*
X17716500Y-20120000D02*
X17796500Y-20120000D01*
X17969500Y-20478000D02*
X17969500Y-20558000D01*
X17929500Y-20518000D02*
X18009500Y-20518000D01*
X17969500Y-21240000D02*
X17969500Y-21320000D01*
X17929500Y-21280000D02*
X18009500Y-21280000D01*
X17978000Y-16914800D02*
X17978000Y-16994800D01*
X17938000Y-16954800D02*
X18018000Y-16954800D01*
X17978000Y-17676800D02*
X17978000Y-17756800D01*
X17938000Y-17716800D02*
X18018000Y-17716800D01*
X18010500Y-20080000D02*
X18010500Y-20160000D01*
X17970500Y-20120000D02*
X18050500Y-20120000D01*
X18223500Y-20478000D02*
X18223500Y-20558000D01*
X18183500Y-20518000D02*
X18263500Y-20518000D01*
X18223500Y-21240000D02*
X18223500Y-21320000D01*
X18183500Y-21280000D02*
X18263500Y-21280000D01*
X18232000Y-16914800D02*
X18232000Y-16994800D01*
X18192000Y-16954800D02*
X18272000Y-16954800D01*
X18232000Y-17676800D02*
X18232000Y-17756800D01*
X18192000Y-17716800D02*
X18272000Y-17716800D01*
X18264500Y-20080000D02*
X18264500Y-20160000D01*
X18224500Y-20120000D02*
X18304500Y-20120000D01*
X18477500Y-20478000D02*
X18477500Y-20558000D01*
X18437500Y-20518000D02*
X18517500Y-20518000D01*
X18477500Y-21240000D02*
X18477500Y-21320000D01*
X18437500Y-21280000D02*
X18517500Y-21280000D01*
X18486000Y-16914800D02*
X18486000Y-16994800D01*
X18446000Y-16954800D02*
X18526000Y-16954800D01*
X18486000Y-17676800D02*
X18486000Y-17756800D01*
X18446000Y-17716800D02*
X18526000Y-17716800D01*
X18518500Y-20080000D02*
X18518500Y-20160000D01*
X18478500Y-20120000D02*
X18558500Y-20120000D01*
X18731500Y-20478000D02*
X18731500Y-20558000D01*
X18691500Y-20518000D02*
X18771500Y-20518000D01*
X18731500Y-21240000D02*
X18731500Y-21320000D01*
X18691500Y-21280000D02*
X18771500Y-21280000D01*
X18740000Y-16914800D02*
X18740000Y-16994800D01*
X18700000Y-16954800D02*
X18780000Y-16954800D01*
X18740000Y-17676800D02*
X18740000Y-17756800D01*
X18700000Y-17716800D02*
X18780000Y-17716800D01*
X18772500Y-20080000D02*
X18772500Y-20160000D01*
X18732500Y-20120000D02*
X18812500Y-20120000D01*
X18985500Y-20478000D02*
X18985500Y-20558000D01*
X18945500Y-20518000D02*
X19025500Y-20518000D01*
X18985500Y-21240000D02*
X18985500Y-21320000D01*
X18945500Y-21280000D02*
X19025500Y-21280000D01*
X18994000Y-16914800D02*
X18994000Y-16994800D01*
X18954000Y-16954800D02*
X19034000Y-16954800D01*
X18994000Y-17676800D02*
X18994000Y-17756800D01*
X18954000Y-17716800D02*
X19034000Y-17716800D01*
X19026500Y-20080000D02*
X19026500Y-20160000D01*
X18986500Y-20120000D02*
X19066500Y-20120000D01*
X19239500Y-20478000D02*
X19239500Y-20558000D01*
X19199500Y-20518000D02*
X19279500Y-20518000D01*
X19239500Y-21240000D02*
X19239500Y-21320000D01*
X19199500Y-21280000D02*
X19279500Y-21280000D01*
X19248000Y-16914800D02*
X19248000Y-16994800D01*
X19208000Y-16954800D02*
X19288000Y-16954800D01*
X19248000Y-17676800D02*
X19248000Y-17756800D01*
X19208000Y-17716800D02*
X19288000Y-17716800D01*
X19280500Y-20080000D02*
X19280500Y-20160000D01*
X19240500Y-20120000D02*
X19320500Y-20120000D01*
X19493500Y-20478000D02*
X19493500Y-20558000D01*
X19453500Y-20518000D02*
X19533500Y-20518000D01*
X19493500Y-21240000D02*
X19493500Y-21320000D01*
X19453500Y-21280000D02*
X19533500Y-21280000D01*
X19502000Y-16914800D02*
X19502000Y-16994800D01*
X19462000Y-16954800D02*
X19542000Y-16954800D01*
X19502000Y-17676800D02*
X19502000Y-17756800D01*
X19462000Y-17716800D02*
X19542000Y-17716800D01*
X19534500Y-20080000D02*
X19534500Y-20160000D01*
X19494500Y-20120000D02*
X19574500Y-20120000D01*
X19756000Y-16914800D02*
X19756000Y-16994800D01*
X19716000Y-16954800D02*
X19796000Y-16954800D01*
X19756000Y-17676800D02*
X19756000Y-17756800D01*
X19716000Y-17716800D02*
X19796000Y-17716800D01*
X20124300Y-20614500D02*
X20124300Y-20694500D01*
X20084300Y-20654500D02*
X20164300Y-20654500D01*
X20124300Y-21114500D02*
X20124300Y-21194500D01*
X20084300Y-21154500D02*
X20164300Y-21154500D01*
X20924400Y-20563700D02*
X20924400Y-20643700D01*
X20884400Y-20603700D02*
X20964400Y-20603700D01*
X20924400Y-21063700D02*
X20924400Y-21143700D01*
X20884400Y-21103700D02*
X20964400Y-21103700D01*
X21508600Y-20445400D02*
X21508600Y-20525400D01*
X21468600Y-20485400D02*
X21548600Y-20485400D01*
X21508600Y-21207400D02*
X21508600Y-21287400D01*
X21468600Y-21247400D02*
X21548600Y-21247400D01*
X21762600Y-20445400D02*
X21762600Y-20525400D01*
X21722600Y-20485400D02*
X21802600Y-20485400D01*
X21762600Y-21207400D02*
X21762600Y-21287400D01*
X21722600Y-21247400D02*
X21802600Y-21247400D01*
X22016600Y-20445400D02*
X22016600Y-20525400D01*
X21976600Y-20485400D02*
X22056600Y-20485400D01*
X22016600Y-21207400D02*
X22016600Y-21287400D01*
X21976600Y-21247400D02*
X22056600Y-21247400D01*
X22270600Y-20445400D02*
X22270600Y-20525400D01*
X22230600Y-20485400D02*
X22310600Y-20485400D01*
X22270600Y-21207400D02*
X22270600Y-21287400D01*
X22230600Y-21247400D02*
X22310600Y-21247400D01*
X22430000Y-18260000D02*
X22430000Y-18340000D01*
X22390000Y-18300000D02*
X22470000Y-18300000D01*
X22524600Y-20445400D02*
X22524600Y-20525400D01*
X22484600Y-20485400D02*
X22564600Y-20485400D01*
X22524600Y-21207400D02*
X22524600Y-21287400D01*
X22484600Y-21247400D02*
X22564600Y-21247400D01*
X22778600Y-20445400D02*
X22778600Y-20525400D01*
X22738600Y-20485400D02*
X22818600Y-20485400D01*
X22778600Y-21207400D02*
X22778600Y-21287400D01*
X22738600Y-21247400D02*
X22818600Y-21247400D01*
X22930000Y-18260000D02*
X22930000Y-18340000D01*
X22890000Y-18300000D02*
X22970000Y-18300000D01*
X23032600Y-20445400D02*
X23032600Y-20525400D01*
X22992600Y-20485400D02*
X23072600Y-20485400D01*
X23032600Y-21207400D02*
X23032600Y-21287400D01*
X22992600Y-21247400D02*
X23072600Y-21247400D01*
X23154000Y-18260000D02*
X23154000Y-18340000D01*
X23114000Y-18300000D02*
X23194000Y-18300000D01*
X23286600Y-20445400D02*
X23286600Y-20525400D01*
X23246600Y-20485400D02*
X23326600Y-20485400D01*
X23286600Y-21207400D02*
X23286600Y-21287400D01*
X23246600Y-21247400D02*
X23326600Y-21247400D01*
X23540600Y-20445400D02*
X23540600Y-20525400D01*
X23500600Y-20485400D02*
X23580600Y-20485400D01*
X23540600Y-21207400D02*
X23540600Y-21287400D01*
X23500600Y-21247400D02*
X23580600Y-21247400D01*
X23794600Y-20445400D02*
X23794600Y-20525400D01*
X23754600Y-20485400D02*
X23834600Y-20485400D01*
X23794600Y-21207400D02*
X23794600Y-21287400D01*
X23754600Y-21247400D02*
X23834600Y-21247400D01*
X23916000Y-18260000D02*
X23916000Y-18340000D01*
X23876000Y-18300000D02*
X23956000Y-18300000D01*
X24188470Y-18260000D02*
X24188470Y-18340000D01*
X24148470Y-18300000D02*
X24228470Y-18300000D01*
X24438470Y-18260000D02*
X24438470Y-18340000D01*
X24398470Y-18300000D02*
X24478470Y-18300000D01*
X24710000Y-18260000D02*
X24710000Y-18340000D01*
X24670000Y-18300000D02*
X24750000Y-18300000D01*
X25210000Y-18260000D02*
X25210000Y-18340000D01*
X25170000Y-18300000D02*
X25250000Y-18300000D01*
D15*
X6154820Y-8141820D02*
X6154820Y-8078180D01*
X6091180Y-8078180D01*
X6091180Y-8141820D01*
X6154820Y-8141820D01*
X6408820Y-8141820D02*
X6408820Y-8078180D01*
X6345180Y-8078180D01*
X6345180Y-8141820D01*
X6408820Y-8141820D01*
D16*
X4704000Y-22350000D02*
X4754000Y-22300000D01*
X4704000Y-22250000D01*
X4654000Y-22300000D01*
X4704000Y-22350000D01*
X4704000Y-22604000D02*
X4754000Y-22554000D01*
X4704000Y-22504000D01*
X4654000Y-22554000D01*
X4704000Y-22604000D01*
X4958000Y-22350000D02*
X5008000Y-22300000D01*
X4958000Y-22250000D01*
X4908000Y-22300000D01*
X4958000Y-22350000D01*
X4958000Y-22604000D02*
X5008000Y-22554000D01*
X4958000Y-22504000D01*
X4908000Y-22554000D01*
X4958000Y-22604000D01*
X5212000Y-22350000D02*
X5262000Y-22300000D01*
X5212000Y-22250000D01*
X5162000Y-22300000D01*
X5212000Y-22350000D01*
X5212000Y-22604000D02*
X5262000Y-22554000D01*
X5212000Y-22504000D01*
X5162000Y-22554000D01*
X5212000Y-22604000D01*
X5466000Y-22350000D02*
X5516000Y-22300000D01*
X5466000Y-22250000D01*
X5416000Y-22300000D01*
X5466000Y-22350000D01*
X5466000Y-22604000D02*
X5516000Y-22554000D01*
X5466000Y-22504000D01*
X5416000Y-22554000D01*
X5466000Y-22604000D01*
X5720000Y-22350000D02*
X5770000Y-22300000D01*
X5720000Y-22250000D01*
X5670000Y-22300000D01*
X5720000Y-22350000D01*
X5720000Y-22604000D02*
X5770000Y-22554000D01*
X5720000Y-22504000D01*
X5670000Y-22554000D01*
X5720000Y-22604000D01*
X5974000Y-22350000D02*
X6024000Y-22300000D01*
X5974000Y-22250000D01*
X5924000Y-22300000D01*
X5974000Y-22350000D01*
X5974000Y-22604000D02*
X6024000Y-22554000D01*
X5974000Y-22504000D01*
X5924000Y-22554000D01*
X5974000Y-22604000D01*
X6228000Y-22350000D02*
X6278000Y-22300000D01*
X6228000Y-22250000D01*
X6178000Y-22300000D01*
X6228000Y-22350000D01*
X6228000Y-22604000D02*
X6278000Y-22554000D01*
X6228000Y-22504000D01*
X6178000Y-22554000D01*
X6228000Y-22604000D01*
X6482000Y-22350000D02*
X6532000Y-22300000D01*
X6482000Y-22250000D01*
X6432000Y-22300000D01*
X6482000Y-22350000D01*
X6482000Y-22604000D02*
X6532000Y-22554000D01*
X6482000Y-22504000D01*
X6432000Y-22554000D01*
X6482000Y-22604000D01*
X6736000Y-22350000D02*
X6786000Y-22300000D01*
X6736000Y-22250000D01*
X6686000Y-22300000D01*
X6736000Y-22350000D01*
X6736000Y-22604000D02*
X6786000Y-22554000D01*
X6736000Y-22504000D01*
X6686000Y-22554000D01*
X6736000Y-22604000D01*
X6990000Y-22350000D02*
X7040000Y-22300000D01*
X6990000Y-22250000D01*
X6940000Y-22300000D01*
X6990000Y-22350000D01*
X6990000Y-22604000D02*
X7040000Y-22554000D01*
X6990000Y-22504000D01*
X6940000Y-22554000D01*
X6990000Y-22604000D01*
X7244000Y-22350000D02*
X7294000Y-22300000D01*
X7244000Y-22250000D01*
X7194000Y-22300000D01*
X7244000Y-22350000D01*
X7244000Y-22604000D02*
X7294000Y-22554000D01*
X7244000Y-22504000D01*
X7194000Y-22554000D01*
X7244000Y-22604000D01*
X7498000Y-22350000D02*
X7548000Y-22300000D01*
X7498000Y-22250000D01*
X7448000Y-22300000D01*
X7498000Y-22350000D01*
X7498000Y-22604000D02*
X7548000Y-22554000D01*
X7498000Y-22504000D01*
X7448000Y-22554000D01*
X7498000Y-22604000D01*
X7752000Y-22350000D02*
X7802000Y-22300000D01*
X7752000Y-22250000D01*
X7702000Y-22300000D01*
X7752000Y-22350000D01*
X7752000Y-22604000D02*
X7802000Y-22554000D01*
X7752000Y-22504000D01*
X7702000Y-22554000D01*
X7752000Y-22604000D01*
X8006000Y-22350000D02*
X8056000Y-22300000D01*
X8006000Y-22250000D01*
X7956000Y-22300000D01*
X8006000Y-22350000D01*
X8006000Y-22604000D02*
X8056000Y-22554000D01*
X8006000Y-22504000D01*
X7956000Y-22554000D01*
X8006000Y-22604000D01*
X8260000Y-22350000D02*
X8310000Y-22300000D01*
X8260000Y-22250000D01*
X8210000Y-22300000D01*
X8260000Y-22350000D01*
X8260000Y-22604000D02*
X8310000Y-22554000D01*
X8260000Y-22504000D01*
X8210000Y-22554000D01*
X8260000Y-22604000D01*
X8514000Y-22350000D02*
X8564000Y-22300000D01*
X8514000Y-22250000D01*
X8464000Y-22300000D01*
X8514000Y-22350000D01*
X8514000Y-22604000D02*
X8564000Y-22554000D01*
X8514000Y-22504000D01*
X8464000Y-22554000D01*
X8514000Y-22604000D01*
X8768000Y-22350000D02*
X8818000Y-22300000D01*
X8768000Y-22250000D01*
X8718000Y-22300000D01*
X8768000Y-22350000D01*
X8768000Y-22604000D02*
X8818000Y-22554000D01*
X8768000Y-22504000D01*
X8718000Y-22554000D01*
X8768000Y-22604000D01*
X9022000Y-22350000D02*
X9072000Y-22300000D01*
X9022000Y-22250000D01*
X8972000Y-22300000D01*
X9022000Y-22350000D01*
X9022000Y-22604000D02*
X9072000Y-22554000D01*
X9022000Y-22504000D01*
X8972000Y-22554000D01*
X9022000Y-22604000D01*
X9276000Y-22350000D02*
X9326000Y-22300000D01*
X9276000Y-22250000D01*
X9226000Y-22300000D01*
X9276000Y-22350000D01*
X9276000Y-22604000D02*
X9326000Y-22554000D01*
X9276000Y-22504000D01*
X9226000Y-22554000D01*
X9276000Y-22604000D01*
X9530000Y-22350000D02*
X9580000Y-22300000D01*
X9530000Y-22250000D01*
X9480000Y-22300000D01*
X9530000Y-22350000D01*
X9530000Y-22604000D02*
X9580000Y-22554000D01*
X9530000Y-22504000D01*
X9480000Y-22554000D01*
X9530000Y-22604000D01*
X9784000Y-22350000D02*
X9834000Y-22300000D01*
X9784000Y-22250000D01*
X9734000Y-22300000D01*
X9784000Y-22350000D01*
X9784000Y-22604000D02*
X9834000Y-22554000D01*
X9784000Y-22504000D01*
X9734000Y-22554000D01*
X9784000Y-22604000D01*
X9989700Y-15531600D02*
X10039700Y-15481600D01*
X9989700Y-15431600D01*
X9939700Y-15481600D01*
X9989700Y-15531600D01*
X9989700Y-15785600D02*
X10039700Y-15735600D01*
X9989700Y-15685600D01*
X9939700Y-15735600D01*
X9989700Y-15785600D01*
X10038000Y-22350000D02*
X10088000Y-22300000D01*
X10038000Y-22250000D01*
X9988000Y-22300000D01*
X10038000Y-22350000D01*
X10038000Y-22604000D02*
X10088000Y-22554000D01*
X10038000Y-22504000D01*
X9988000Y-22554000D01*
X10038000Y-22604000D01*
X10243700Y-15531600D02*
X10293700Y-15481600D01*
X10243700Y-15431600D01*
X10193700Y-15481600D01*
X10243700Y-15531600D01*
X10243700Y-15785600D02*
X10293700Y-15735600D01*
X10243700Y-15685600D01*
X10193700Y-15735600D01*
X10243700Y-15785600D01*
X10292000Y-22350000D02*
X10342000Y-22300000D01*
X10292000Y-22250000D01*
X10242000Y-22300000D01*
X10292000Y-22350000D01*
X10292000Y-22604000D02*
X10342000Y-22554000D01*
X10292000Y-22504000D01*
X10242000Y-22554000D01*
X10292000Y-22604000D01*
X10497700Y-15531600D02*
X10547700Y-15481600D01*
X10497700Y-15431600D01*
X10447700Y-15481600D01*
X10497700Y-15531600D01*
X10497700Y-15785600D02*
X10547700Y-15735600D01*
X10497700Y-15685600D01*
X10447700Y-15735600D01*
X10497700Y-15785600D01*
X10546000Y-22350000D02*
X10596000Y-22300000D01*
X10546000Y-22250000D01*
X10496000Y-22300000D01*
X10546000Y-22350000D01*
X10546000Y-22604000D02*
X10596000Y-22554000D01*
X10546000Y-22504000D01*
X10496000Y-22554000D01*
X10546000Y-22604000D01*
X10751700Y-15531600D02*
X10801700Y-15481600D01*
X10751700Y-15431600D01*
X10701700Y-15481600D01*
X10751700Y-15531600D01*
X10751700Y-15785600D02*
X10801700Y-15735600D01*
X10751700Y-15685600D01*
X10701700Y-15735600D01*
X10751700Y-15785600D01*
X10800000Y-22350000D02*
X10850000Y-22300000D01*
X10800000Y-22250000D01*
X10750000Y-22300000D01*
X10800000Y-22350000D01*
X10800000Y-22604000D02*
X10850000Y-22554000D01*
X10800000Y-22504000D01*
X10750000Y-22554000D01*
X10800000Y-22604000D01*
X11005700Y-15531600D02*
X11055700Y-15481600D01*
X11005700Y-15431600D01*
X10955700Y-15481600D01*
X11005700Y-15531600D01*
X11005700Y-15785600D02*
X11055700Y-15735600D01*
X11005700Y-15685600D01*
X10955700Y-15735600D01*
X11005700Y-15785600D01*
X11259700Y-15531600D02*
X11309700Y-15481600D01*
X11259700Y-15431600D01*
X11209700Y-15481600D01*
X11259700Y-15531600D01*
X11259700Y-15785600D02*
X11309700Y-15735600D01*
X11259700Y-15685600D01*
X11209700Y-15735600D01*
X11259700Y-15785600D01*
X11513700Y-15531600D02*
X11563700Y-15481600D01*
X11513700Y-15431600D01*
X11463700Y-15481600D01*
X11513700Y-15531600D01*
X11513700Y-15785600D02*
X11563700Y-15735600D01*
X11513700Y-15685600D01*
X11463700Y-15735600D01*
X11513700Y-15785600D01*
X11767700Y-15531600D02*
X11817700Y-15481600D01*
X11767700Y-15431600D01*
X11717700Y-15481600D01*
X11767700Y-15531600D01*
X11767700Y-15785600D02*
X11817700Y-15735600D01*
X11767700Y-15685600D01*
X11717700Y-15735600D01*
X11767700Y-15785600D01*
X12104000Y-22350000D02*
X12154000Y-22300000D01*
X12104000Y-22250000D01*
X12054000Y-22300000D01*
X12104000Y-22350000D01*
X12104000Y-22604000D02*
X12154000Y-22554000D01*
X12104000Y-22504000D01*
X12054000Y-22554000D01*
X12104000Y-22604000D01*
X12358000Y-22350000D02*
X12408000Y-22300000D01*
X12358000Y-22250000D01*
X12308000Y-22300000D01*
X12358000Y-22350000D01*
X12358000Y-22604000D02*
X12408000Y-22554000D01*
X12358000Y-22504000D01*
X12308000Y-22554000D01*
X12358000Y-22604000D01*
X12612000Y-22350000D02*
X12662000Y-22300000D01*
X12612000Y-22250000D01*
X12562000Y-22300000D01*
X12612000Y-22350000D01*
X12612000Y-22604000D02*
X12662000Y-22554000D01*
X12612000Y-22504000D01*
X12562000Y-22554000D01*
X12612000Y-22604000D01*
X12866000Y-22350000D02*
X12916000Y-22300000D01*
X12866000Y-22250000D01*
X12816000Y-22300000D01*
X12866000Y-22350000D01*
X12866000Y-22604000D02*
X12916000Y-22554000D01*
X12866000Y-22504000D01*
X12816000Y-22554000D01*
X12866000Y-22604000D01*
X13120000Y-22350000D02*
X13170000Y-22300000D01*
X13120000Y-22250000D01*
X13070000Y-22300000D01*
X13120000Y-22350000D01*
X13120000Y-22604000D02*
X13170000Y-22554000D01*
X13120000Y-22504000D01*
X13070000Y-22554000D01*
X13120000Y-22604000D01*
X13374000Y-22350000D02*
X13424000Y-22300000D01*
X13374000Y-22250000D01*
X13324000Y-22300000D01*
X13374000Y-22350000D01*
X13374000Y-22604000D02*
X13424000Y-22554000D01*
X13374000Y-22504000D01*
X13324000Y-22554000D01*
X13374000Y-22604000D01*
X13628000Y-22350000D02*
X13678000Y-22300000D01*
X13628000Y-22250000D01*
X13578000Y-22300000D01*
X13628000Y-22350000D01*
X13628000Y-22604000D02*
X13678000Y-22554000D01*
X13628000Y-22504000D01*
X13578000Y-22554000D01*
X13628000Y-22604000D01*
X13882000Y-22350000D02*
X13932000Y-22300000D01*
X13882000Y-22250000D01*
X13832000Y-22300000D01*
X13882000Y-22350000D01*
X13882000Y-22604000D02*
X13932000Y-22554000D01*
X13882000Y-22504000D01*
X13832000Y-22554000D01*
X13882000Y-22604000D01*
X14136000Y-22350000D02*
X14186000Y-22300000D01*
X14136000Y-22250000D01*
X14086000Y-22300000D01*
X14136000Y-22350000D01*
X14136000Y-22604000D02*
X14186000Y-22554000D01*
X14136000Y-22504000D01*
X14086000Y-22554000D01*
X14136000Y-22604000D01*
X14390000Y-22350000D02*
X14440000Y-22300000D01*
X14390000Y-22250000D01*
X14340000Y-22300000D01*
X14390000Y-22350000D01*
X14390000Y-22604000D02*
X14440000Y-22554000D01*
X14390000Y-22504000D01*
X14340000Y-22554000D01*
X14390000Y-22604000D01*
X14485300Y-7525400D02*
X14535300Y-7475400D01*
X14485300Y-7425400D01*
X14435300Y-7475400D01*
X14485300Y-7525400D01*
X14599800Y-7327400D02*
X14649800Y-7277400D01*
X14599800Y-7227400D01*
X14549800Y-7277400D01*
X14599800Y-7327400D01*
X14599800Y-7723400D02*
X14649800Y-7673400D01*
X14599800Y-7623400D01*
X14549800Y-7673400D01*
X14599800Y-7723400D01*
X14644000Y-22350000D02*
X14694000Y-22300000D01*
X14644000Y-22250000D01*
X14594000Y-22300000D01*
X14644000Y-22350000D01*
X14644000Y-22604000D02*
X14694000Y-22554000D01*
X14644000Y-22504000D01*
X14594000Y-22554000D01*
X14644000Y-22604000D01*
X14714300Y-7525400D02*
X14764300Y-7475400D01*
X14714300Y-7425400D01*
X14664300Y-7475400D01*
X14714300Y-7525400D01*
X14828800Y-7327400D02*
X14878800Y-7277400D01*
X14828800Y-7227400D01*
X14778800Y-7277400D01*
X14828800Y-7327400D01*
X14828800Y-7723400D02*
X14878800Y-7673400D01*
X14828800Y-7623400D01*
X14778800Y-7673400D01*
X14828800Y-7723400D01*
X14898000Y-22350000D02*
X14948000Y-22300000D01*
X14898000Y-22250000D01*
X14848000Y-22300000D01*
X14898000Y-22350000D01*
X14898000Y-22604000D02*
X14948000Y-22554000D01*
X14898000Y-22504000D01*
X14848000Y-22554000D01*
X14898000Y-22604000D01*
X14943300Y-7525400D02*
X14993300Y-7475400D01*
X14943300Y-7425400D01*
X14893300Y-7475400D01*
X14943300Y-7525400D01*
X15057800Y-7327400D02*
X15107800Y-7277400D01*
X15057800Y-7227400D01*
X15007800Y-7277400D01*
X15057800Y-7327400D01*
X15057800Y-7723400D02*
X15107800Y-7673400D01*
X15057800Y-7623400D01*
X15007800Y-7673400D01*
X15057800Y-7723400D01*
X15152000Y-22350000D02*
X15202000Y-22300000D01*
X15152000Y-22250000D01*
X15102000Y-22300000D01*
X15152000Y-22350000D01*
X15152000Y-22604000D02*
X15202000Y-22554000D01*
X15152000Y-22504000D01*
X15102000Y-22554000D01*
X15152000Y-22604000D01*
X15172300Y-7525400D02*
X15222300Y-7475400D01*
X15172300Y-7425400D01*
X15122300Y-7475400D01*
X15172300Y-7525400D01*
X15286800Y-7327400D02*
X15336800Y-7277400D01*
X15286800Y-7227400D01*
X15236800Y-7277400D01*
X15286800Y-7327400D01*
X15286800Y-7723400D02*
X15336800Y-7673400D01*
X15286800Y-7623400D01*
X15236800Y-7673400D01*
X15286800Y-7723400D01*
X15401300Y-7525400D02*
X15451300Y-7475400D01*
X15401300Y-7425400D01*
X15351300Y-7475400D01*
X15401300Y-7525400D01*
X15406000Y-22350000D02*
X15456000Y-22300000D01*
X15406000Y-22250000D01*
X15356000Y-22300000D01*
X15406000Y-22350000D01*
X15406000Y-22604000D02*
X15456000Y-22554000D01*
X15406000Y-22504000D01*
X15356000Y-22554000D01*
X15406000Y-22604000D01*
X15515800Y-7327400D02*
X15565800Y-7277400D01*
X15515800Y-7227400D01*
X15465800Y-7277400D01*
X15515800Y-7327400D01*
X15515800Y-7723400D02*
X15565800Y-7673400D01*
X15515800Y-7623400D01*
X15465800Y-7673400D01*
X15515800Y-7723400D01*
X15660000Y-22350000D02*
X15710000Y-22300000D01*
X15660000Y-22250000D01*
X15610000Y-22300000D01*
X15660000Y-22350000D01*
X15660000Y-22604000D02*
X15710000Y-22554000D01*
X15660000Y-22504000D01*
X15610000Y-22554000D01*
X15660000Y-22604000D01*
X15914000Y-22350000D02*
X15964000Y-22300000D01*
X15914000Y-22250000D01*
X15864000Y-22300000D01*
X15914000Y-22350000D01*
X15914000Y-22604000D02*
X15964000Y-22554000D01*
X15914000Y-22504000D01*
X15864000Y-22554000D01*
X15914000Y-22604000D01*
X16168000Y-22350000D02*
X16218000Y-22300000D01*
X16168000Y-22250000D01*
X16118000Y-22300000D01*
X16168000Y-22350000D01*
X16168000Y-22604000D02*
X16218000Y-22554000D01*
X16168000Y-22504000D01*
X16118000Y-22554000D01*
X16168000Y-22604000D01*
X16422000Y-22350000D02*
X16472000Y-22300000D01*
X16422000Y-22250000D01*
X16372000Y-22300000D01*
X16422000Y-22350000D01*
X16422000Y-22604000D02*
X16472000Y-22554000D01*
X16422000Y-22504000D01*
X16372000Y-22554000D01*
X16422000Y-22604000D01*
X16676000Y-22350000D02*
X16726000Y-22300000D01*
X16676000Y-22250000D01*
X16626000Y-22300000D01*
X16676000Y-22350000D01*
X16676000Y-22604000D02*
X16726000Y-22554000D01*
X16676000Y-22504000D01*
X16626000Y-22554000D01*
X16676000Y-22604000D01*
X16930000Y-22350000D02*
X16980000Y-22300000D01*
X16930000Y-22250000D01*
X16880000Y-22300000D01*
X16930000Y-22350000D01*
X16930000Y-22604000D02*
X16980000Y-22554000D01*
X16930000Y-22504000D01*
X16880000Y-22554000D01*
X16930000Y-22604000D01*
X17184000Y-22350000D02*
X17234000Y-22300000D01*
X17184000Y-22250000D01*
X17134000Y-22300000D01*
X17184000Y-22350000D01*
X17184000Y-22604000D02*
X17234000Y-22554000D01*
X17184000Y-22504000D01*
X17134000Y-22554000D01*
X17184000Y-22604000D01*
X17438000Y-22350000D02*
X17488000Y-22300000D01*
X17438000Y-22250000D01*
X17388000Y-22300000D01*
X17438000Y-22350000D01*
X17438000Y-22604000D02*
X17488000Y-22554000D01*
X17438000Y-22504000D01*
X17388000Y-22554000D01*
X17438000Y-22604000D01*
X17692000Y-22350000D02*
X17742000Y-22300000D01*
X17692000Y-22250000D01*
X17642000Y-22300000D01*
X17692000Y-22350000D01*
X17692000Y-22604000D02*
X17742000Y-22554000D01*
X17692000Y-22504000D01*
X17642000Y-22554000D01*
X17692000Y-22604000D01*
X17812500Y-19343500D02*
X17862500Y-19293500D01*
X17812500Y-19243500D01*
X17762500Y-19293500D01*
X17812500Y-19343500D01*
X17812500Y-19597500D02*
X17862500Y-19547500D01*
X17812500Y-19497500D01*
X17762500Y-19547500D01*
X17812500Y-19597500D01*
X17946000Y-22350000D02*
X17996000Y-22300000D01*
X17946000Y-22250000D01*
X17896000Y-22300000D01*
X17946000Y-22350000D01*
X17946000Y-22604000D02*
X17996000Y-22554000D01*
X17946000Y-22504000D01*
X17896000Y-22554000D01*
X17946000Y-22604000D01*
X18066500Y-19343500D02*
X18116500Y-19293500D01*
X18066500Y-19243500D01*
X18016500Y-19293500D01*
X18066500Y-19343500D01*
X18066500Y-19597500D02*
X18116500Y-19547500D01*
X18066500Y-19497500D01*
X18016500Y-19547500D01*
X18066500Y-19597500D01*
X18200000Y-22350000D02*
X18250000Y-22300000D01*
X18200000Y-22250000D01*
X18150000Y-22300000D01*
X18200000Y-22350000D01*
X18200000Y-22604000D02*
X18250000Y-22554000D01*
X18200000Y-22504000D01*
X18150000Y-22554000D01*
X18200000Y-22604000D01*
X18320500Y-19343500D02*
X18370500Y-19293500D01*
X18320500Y-19243500D01*
X18270500Y-19293500D01*
X18320500Y-19343500D01*
X18320500Y-19597500D02*
X18370500Y-19547500D01*
X18320500Y-19497500D01*
X18270500Y-19547500D01*
X18320500Y-19597500D01*
X18574500Y-19343500D02*
X18624500Y-19293500D01*
X18574500Y-19243500D01*
X18524500Y-19293500D01*
X18574500Y-19343500D01*
X18574500Y-19597500D02*
X18624500Y-19547500D01*
X18574500Y-19497500D01*
X18524500Y-19547500D01*
X18574500Y-19597500D01*
X18828500Y-19343500D02*
X18878500Y-19293500D01*
X18828500Y-19243500D01*
X18778500Y-19293500D01*
X18828500Y-19343500D01*
X18828500Y-19597500D02*
X18878500Y-19547500D01*
X18828500Y-19497500D01*
X18778500Y-19547500D01*
X18828500Y-19597500D01*
X19704000Y-22350000D02*
X19754000Y-22300000D01*
X19704000Y-22250000D01*
X19654000Y-22300000D01*
X19704000Y-22350000D01*
X19704000Y-22604000D02*
X19754000Y-22554000D01*
X19704000Y-22504000D01*
X19654000Y-22554000D01*
X19704000Y-22604000D01*
X19958000Y-22350000D02*
X20008000Y-22300000D01*
X19958000Y-22250000D01*
X19908000Y-22300000D01*
X19958000Y-22350000D01*
X19958000Y-22604000D02*
X20008000Y-22554000D01*
X19958000Y-22504000D01*
X19908000Y-22554000D01*
X19958000Y-22604000D01*
X20212000Y-22350000D02*
X20262000Y-22300000D01*
X20212000Y-22250000D01*
X20162000Y-22300000D01*
X20212000Y-22350000D01*
X20212000Y-22604000D02*
X20262000Y-22554000D01*
X20212000Y-22504000D01*
X20162000Y-22554000D01*
X20212000Y-22604000D01*
X20466000Y-22350000D02*
X20516000Y-22300000D01*
X20466000Y-22250000D01*
X20416000Y-22300000D01*
X20466000Y-22350000D01*
X20466000Y-22604000D02*
X20516000Y-22554000D01*
X20466000Y-22504000D01*
X20416000Y-22554000D01*
X20466000Y-22604000D01*
X20720000Y-22350000D02*
X20770000Y-22300000D01*
X20720000Y-22250000D01*
X20670000Y-22300000D01*
X20720000Y-22350000D01*
X20720000Y-22604000D02*
X20770000Y-22554000D01*
X20720000Y-22504000D01*
X20670000Y-22554000D01*
X20720000Y-22604000D01*
X20974000Y-22350000D02*
X21024000Y-22300000D01*
X20974000Y-22250000D01*
X20924000Y-22300000D01*
X20974000Y-22350000D01*
X20974000Y-22604000D02*
X21024000Y-22554000D01*
X20974000Y-22504000D01*
X20924000Y-22554000D01*
X20974000Y-22604000D01*
X21228000Y-22350000D02*
X21278000Y-22300000D01*
X21228000Y-22250000D01*
X21178000Y-22300000D01*
X21228000Y-22350000D01*
X21228000Y-22604000D02*
X21278000Y-22554000D01*
X21228000Y-22504000D01*
X21178000Y-22554000D01*
X21228000Y-22604000D01*
X21482000Y-22350000D02*
X21532000Y-22300000D01*
X21482000Y-22250000D01*
X21432000Y-22300000D01*
X21482000Y-22350000D01*
X21482000Y-22604000D02*
X21532000Y-22554000D01*
X21482000Y-22504000D01*
X21432000Y-22554000D01*
X21482000Y-22604000D01*
X21736000Y-22350000D02*
X21786000Y-22300000D01*
X21736000Y-22250000D01*
X21686000Y-22300000D01*
X21736000Y-22350000D01*
X21736000Y-22604000D02*
X21786000Y-22554000D01*
X21736000Y-22504000D01*
X21686000Y-22554000D01*
X21736000Y-22604000D01*
X21990000Y-22350000D02*
X22040000Y-22300000D01*
X21990000Y-22250000D01*
X21940000Y-22300000D01*
X21990000Y-22350000D01*
X21990000Y-22604000D02*
X22040000Y-22554000D01*
X21990000Y-22504000D01*
X21940000Y-22554000D01*
X21990000Y-22604000D01*
X22244000Y-22350000D02*
X22294000Y-22300000D01*
X22244000Y-22250000D01*
X22194000Y-22300000D01*
X22244000Y-22350000D01*
X22244000Y-22604000D02*
X22294000Y-22554000D01*
X22244000Y-22504000D01*
X22194000Y-22554000D01*
X22244000Y-22604000D01*
X22498000Y-22350000D02*
X22548000Y-22300000D01*
X22498000Y-22250000D01*
X22448000Y-22300000D01*
X22498000Y-22350000D01*
X22498000Y-22604000D02*
X22548000Y-22554000D01*
X22498000Y-22504000D01*
X22448000Y-22554000D01*
X22498000Y-22604000D01*
X22752000Y-22350000D02*
X22802000Y-22300000D01*
X22752000Y-22250000D01*
X22702000Y-22300000D01*
X22752000Y-22350000D01*
X22752000Y-22604000D02*
X22802000Y-22554000D01*
X22752000Y-22504000D01*
X22702000Y-22554000D01*
X22752000Y-22604000D01*
X23006000Y-22350000D02*
X23056000Y-22300000D01*
X23006000Y-22250000D01*
X22956000Y-22300000D01*
X23006000Y-22350000D01*
X23006000Y-22604000D02*
X23056000Y-22554000D01*
X23006000Y-22504000D01*
X22956000Y-22554000D01*
X23006000Y-22604000D01*
X23260000Y-22350000D02*
X23310000Y-22300000D01*
X23260000Y-22250000D01*
X23210000Y-22300000D01*
X23260000Y-22350000D01*
X23260000Y-22604000D02*
X23310000Y-22554000D01*
X23260000Y-22504000D01*
X23210000Y-22554000D01*
X23260000Y-22604000D01*
X23514000Y-22350000D02*
X23564000Y-22300000D01*
X23514000Y-22250000D01*
X23464000Y-22300000D01*
X23514000Y-22350000D01*
X23514000Y-22604000D02*
X23564000Y-22554000D01*
X23514000Y-22504000D01*
X23464000Y-22554000D01*
X23514000Y-22604000D01*
X23768000Y-22350000D02*
X23818000Y-22300000D01*
X23768000Y-22250000D01*
X23718000Y-22300000D01*
X23768000Y-22350000D01*
X23768000Y-22604000D02*
X23818000Y-22554000D01*
X23768000Y-22504000D01*
X23718000Y-22554000D01*
X23768000Y-22604000D01*
X24022000Y-22350000D02*
X24072000Y-22300000D01*
X24022000Y-22250000D01*
X23972000Y-22300000D01*
X24022000Y-22350000D01*
X24022000Y-22604000D02*
X24072000Y-22554000D01*
X24022000Y-22504000D01*
X23972000Y-22554000D01*
X24022000Y-22604000D01*
X24276000Y-22350000D02*
X24326000Y-22300000D01*
X24276000Y-22250000D01*
X24226000Y-22300000D01*
X24276000Y-22350000D01*
X24276000Y-22604000D02*
X24326000Y-22554000D01*
X24276000Y-22504000D01*
X24226000Y-22554000D01*
X24276000Y-22604000D01*
X24530000Y-22350000D02*
X24580000Y-22300000D01*
X24530000Y-22250000D01*
X24480000Y-22300000D01*
X24530000Y-22350000D01*
X24530000Y-22604000D02*
X24580000Y-22554000D01*
X24530000Y-22504000D01*
X24480000Y-22554000D01*
X24530000Y-22604000D01*
X24784000Y-22350000D02*
X24834000Y-22300000D01*
X24784000Y-22250000D01*
X24734000Y-22300000D01*
X24784000Y-22350000D01*
X24784000Y-22604000D02*
X24834000Y-22554000D01*
X24784000Y-22504000D01*
X24734000Y-22554000D01*
X24784000Y-22604000D01*
X25038000Y-22350000D02*
X25088000Y-22300000D01*
X25038000Y-22250000D01*
X24988000Y-22300000D01*
X25038000Y-22350000D01*
X25038000Y-22604000D02*
X25088000Y-22554000D01*
X25038000Y-22504000D01*
X24988000Y-22554000D01*
X25038000Y-22604000D01*
X25292000Y-22350000D02*
X25342000Y-22300000D01*
X25292000Y-22250000D01*
X25242000Y-22300000D01*
X25292000Y-22350000D01*
X25292000Y-22604000D02*
X25342000Y-22554000D01*
X25292000Y-22504000D01*
X25242000Y-22554000D01*
X25292000Y-22604000D01*
X25546000Y-22350000D02*
X25596000Y-22300000D01*
X25546000Y-22250000D01*
X25496000Y-22300000D01*
X25546000Y-22350000D01*
X25546000Y-22604000D02*
X25596000Y-22554000D01*
X25546000Y-22504000D01*
X25496000Y-22554000D01*
X25546000Y-22604000D01*
X25800000Y-22350000D02*
X25850000Y-22300000D01*
X25800000Y-22250000D01*
X25750000Y-22300000D01*
X25800000Y-22350000D01*
X25800000Y-22604000D02*
X25850000Y-22554000D01*
X25800000Y-22504000D01*
X25750000Y-22554000D01*
X25800000Y-22604000D01*
D17*
X10307000Y-7277200D02*
X10409000Y-7379200D01*
X10409000Y-7277200D02*
X10307000Y-7379200D01*
X10409000Y-7328200D02*
G75*
G03*
X10409000Y-7328200I-51000J0D01*
G01*
X10307000Y-7531200D02*
X10409000Y-7633200D01*
X10409000Y-7531200D02*
X10307000Y-7633200D01*
X10409000Y-7582200D02*
G75*
G03*
X10409000Y-7582200I-51000J0D01*
G01*
X10307000Y-7785200D02*
X10409000Y-7887200D01*
X10409000Y-7785200D02*
X10307000Y-7887200D01*
X10409000Y-7836200D02*
G75*
G03*
X10409000Y-7836200I-51000J0D01*
G01*
X10307000Y-8039200D02*
X10409000Y-8141200D01*
X10409000Y-8039200D02*
X10307000Y-8141200D01*
X10409000Y-8090200D02*
G75*
G03*
X10409000Y-8090200I-51000J0D01*
G01*
X10307000Y-8293200D02*
X10409000Y-8395200D01*
X10409000Y-8293200D02*
X10307000Y-8395200D01*
X10409000Y-8344200D02*
G75*
G03*
X10409000Y-8344200I-51000J0D01*
G01*
X10307000Y-8547200D02*
X10409000Y-8649200D01*
X10409000Y-8547200D02*
X10307000Y-8649200D01*
X10409000Y-8598200D02*
G75*
G03*
X10409000Y-8598200I-51000J0D01*
G01*
X10307000Y-8801200D02*
X10409000Y-8903200D01*
X10409000Y-8801200D02*
X10307000Y-8903200D01*
X10409000Y-8852200D02*
G75*
G03*
X10409000Y-8852200I-51000J0D01*
G01*
X10307000Y-9055200D02*
X10409000Y-9157200D01*
X10409000Y-9055200D02*
X10307000Y-9157200D01*
X10409000Y-9106200D02*
G75*
G03*
X10409000Y-9106200I-51000J0D01*
G01*
X10307000Y-9309200D02*
X10409000Y-9411200D01*
X10409000Y-9309200D02*
X10307000Y-9411200D01*
X10409000Y-9360200D02*
G75*
G03*
X10409000Y-9360200I-51000J0D01*
G01*
X10307000Y-9563200D02*
X10409000Y-9665200D01*
X10409000Y-9563200D02*
X10307000Y-9665200D01*
X10409000Y-9614200D02*
G75*
G03*
X10409000Y-9614200I-51000J0D01*
G01*
X10307000Y-9817200D02*
X10409000Y-9919200D01*
X10409000Y-9817200D02*
X10307000Y-9919200D01*
X10409000Y-9868200D02*
G75*
G03*
X10409000Y-9868200I-51000J0D01*
G01*
X10307000Y-10071200D02*
X10409000Y-10173200D01*
X10409000Y-10071200D02*
X10307000Y-10173200D01*
X10409000Y-10122200D02*
G75*
G03*
X10409000Y-10122200I-51000J0D01*
G01*
X10307000Y-10325200D02*
X10409000Y-10427200D01*
X10409000Y-10325200D02*
X10307000Y-10427200D01*
X10409000Y-10376200D02*
G75*
G03*
X10409000Y-10376200I-51000J0D01*
G01*
X10307000Y-10579200D02*
X10409000Y-10681200D01*
X10409000Y-10579200D02*
X10307000Y-10681200D01*
X10409000Y-10630200D02*
G75*
G03*
X10409000Y-10630200I-51000J0D01*
G01*
X10307000Y-10833200D02*
X10409000Y-10935200D01*
X10409000Y-10833200D02*
X10307000Y-10935200D01*
X10409000Y-10884200D02*
G75*
G03*
X10409000Y-10884200I-51000J0D01*
G01*
X10307000Y-11087200D02*
X10409000Y-11189200D01*
X10409000Y-11087200D02*
X10307000Y-11189200D01*
X10409000Y-11138200D02*
G75*
G03*
X10409000Y-11138200I-51000J0D01*
G01*
X10307000Y-11341200D02*
X10409000Y-11443200D01*
X10409000Y-11341200D02*
X10307000Y-11443200D01*
X10409000Y-11392200D02*
G75*
G03*
X10409000Y-11392200I-51000J0D01*
G01*
X10307000Y-11595200D02*
X10409000Y-11697200D01*
X10409000Y-11595200D02*
X10307000Y-11697200D01*
X10409000Y-11646200D02*
G75*
G03*
X10409000Y-11646200I-51000J0D01*
G01*
X10307000Y-11849200D02*
X10409000Y-11951200D01*
X10409000Y-11849200D02*
X10307000Y-11951200D01*
X10409000Y-11900200D02*
G75*
G03*
X10409000Y-11900200I-51000J0D01*
G01*
X10307000Y-12103200D02*
X10409000Y-12205200D01*
X10409000Y-12103200D02*
X10307000Y-12205200D01*
X10409000Y-12154200D02*
G75*
G03*
X10409000Y-12154200I-51000J0D01*
G01*
X10942000Y-12080200D02*
X11044000Y-12182200D01*
X11044000Y-12080200D02*
X10942000Y-12182200D01*
X11044000Y-12131200D02*
G75*
G03*
X11044000Y-12131200I-51000J0D01*
G01*
X11196000Y-12080200D02*
X11298000Y-12182200D01*
X11298000Y-12080200D02*
X11196000Y-12182200D01*
X11298000Y-12131200D02*
G75*
G03*
X11298000Y-12131200I-51000J0D01*
G01*
X11450000Y-12080200D02*
X11552000Y-12182200D01*
X11552000Y-12080200D02*
X11450000Y-12182200D01*
X11552000Y-12131200D02*
G75*
G03*
X11552000Y-12131200I-51000J0D01*
G01*
X12085000Y-7277200D02*
X12187000Y-7379200D01*
X12187000Y-7277200D02*
X12085000Y-7379200D01*
X12187000Y-7328200D02*
G75*
G03*
X12187000Y-7328200I-51000J0D01*
G01*
X12085000Y-7531200D02*
X12187000Y-7633200D01*
X12187000Y-7531200D02*
X12085000Y-7633200D01*
X12187000Y-7582200D02*
G75*
G03*
X12187000Y-7582200I-51000J0D01*
G01*
X12085000Y-7785200D02*
X12187000Y-7887200D01*
X12187000Y-7785200D02*
X12085000Y-7887200D01*
X12187000Y-7836200D02*
G75*
G03*
X12187000Y-7836200I-51000J0D01*
G01*
X12085000Y-8039200D02*
X12187000Y-8141200D01*
X12187000Y-8039200D02*
X12085000Y-8141200D01*
X12187000Y-8090200D02*
G75*
G03*
X12187000Y-8090200I-51000J0D01*
G01*
X12085000Y-8293200D02*
X12187000Y-8395200D01*
X12187000Y-8293200D02*
X12085000Y-8395200D01*
X12187000Y-8344200D02*
G75*
G03*
X12187000Y-8344200I-51000J0D01*
G01*
X12085000Y-8547200D02*
X12187000Y-8649200D01*
X12187000Y-8547200D02*
X12085000Y-8649200D01*
X12187000Y-8598200D02*
G75*
G03*
X12187000Y-8598200I-51000J0D01*
G01*
X12085000Y-8801200D02*
X12187000Y-8903200D01*
X12187000Y-8801200D02*
X12085000Y-8903200D01*
X12187000Y-8852200D02*
G75*
G03*
X12187000Y-8852200I-51000J0D01*
G01*
X12085000Y-9055200D02*
X12187000Y-9157200D01*
X12187000Y-9055200D02*
X12085000Y-9157200D01*
X12187000Y-9106200D02*
G75*
G03*
X12187000Y-9106200I-51000J0D01*
G01*
X12085000Y-9309200D02*
X12187000Y-9411200D01*
X12187000Y-9309200D02*
X12085000Y-9411200D01*
X12187000Y-9360200D02*
G75*
G03*
X12187000Y-9360200I-51000J0D01*
G01*
X12085000Y-9563200D02*
X12187000Y-9665200D01*
X12187000Y-9563200D02*
X12085000Y-9665200D01*
X12187000Y-9614200D02*
G75*
G03*
X12187000Y-9614200I-51000J0D01*
G01*
X12085000Y-9817200D02*
X12187000Y-9919200D01*
X12187000Y-9817200D02*
X12085000Y-9919200D01*
X12187000Y-9868200D02*
G75*
G03*
X12187000Y-9868200I-51000J0D01*
G01*
X12085000Y-10071200D02*
X12187000Y-10173200D01*
X12187000Y-10071200D02*
X12085000Y-10173200D01*
X12187000Y-10122200D02*
G75*
G03*
X12187000Y-10122200I-51000J0D01*
G01*
X12085000Y-10325200D02*
X12187000Y-10427200D01*
X12187000Y-10325200D02*
X12085000Y-10427200D01*
X12187000Y-10376200D02*
G75*
G03*
X12187000Y-10376200I-51000J0D01*
G01*
X12085000Y-10579200D02*
X12187000Y-10681200D01*
X12187000Y-10579200D02*
X12085000Y-10681200D01*
X12187000Y-10630200D02*
G75*
G03*
X12187000Y-10630200I-51000J0D01*
G01*
X12085000Y-10833200D02*
X12187000Y-10935200D01*
X12187000Y-10833200D02*
X12085000Y-10935200D01*
X12187000Y-10884200D02*
G75*
G03*
X12187000Y-10884200I-51000J0D01*
G01*
X12085000Y-11087200D02*
X12187000Y-11189200D01*
X12187000Y-11087200D02*
X12085000Y-11189200D01*
X12187000Y-11138200D02*
G75*
G03*
X12187000Y-11138200I-51000J0D01*
G01*
X12085000Y-11341200D02*
X12187000Y-11443200D01*
X12187000Y-11341200D02*
X12085000Y-11443200D01*
X12187000Y-11392200D02*
G75*
G03*
X12187000Y-11392200I-51000J0D01*
G01*
X12085000Y-11595200D02*
X12187000Y-11697200D01*
X12187000Y-11595200D02*
X12085000Y-11697200D01*
X12187000Y-11646200D02*
G75*
G03*
X12187000Y-11646200I-51000J0D01*
G01*
X12085000Y-11849200D02*
X12187000Y-11951200D01*
X12187000Y-11849200D02*
X12085000Y-11951200D01*
X12187000Y-11900200D02*
G75*
G03*
X12187000Y-11900200I-51000J0D01*
G01*
X12085000Y-12103200D02*
X12187000Y-12205200D01*
X12187000Y-12103200D02*
X12085000Y-12205200D01*
X12187000Y-12154200D02*
G75*
G03*
X12187000Y-12154200I-51000J0D01*
G01*
D18*
X24895300Y-19135000D02*
X25005300Y-19245000D01*
X25005300Y-19135000D02*
X24895300Y-19245000D01*
X24950300Y-19135000D02*
X24950300Y-19245000D01*
X24895300Y-19190000D02*
X25005300Y-19190000D01*
X24895300Y-19389000D02*
X25005300Y-19499000D01*
X25005300Y-19389000D02*
X24895300Y-19499000D01*
X24950300Y-19389000D02*
X24950300Y-19499000D01*
X24895300Y-19444000D02*
X25005300Y-19444000D01*
X24895300Y-19643000D02*
X25005300Y-19753000D01*
X25005300Y-19643000D02*
X24895300Y-19753000D01*
X24950300Y-19643000D02*
X24950300Y-19753000D01*
X24895300Y-19698000D02*
X25005300Y-19698000D01*
D19*
X3840000Y-7340000D02*
X4160000Y-7660000D01*
X4160000Y-7340000D02*
X3840000Y-7660000D01*
X4113138Y-7613138D02*
X4113138Y-7386862D01*
X3886862Y-7386862D01*
X3886862Y-7613138D01*
X4113138Y-7613138D01*
X13621300Y-7308400D02*
X13941300Y-7628400D01*
X13941300Y-7308400D02*
X13621300Y-7628400D01*
X13894438Y-7581538D02*
X13894438Y-7355262D01*
X13668162Y-7355262D01*
X13668162Y-7581538D01*
X13894438Y-7581538D01*
X16121300Y-7308400D02*
X16441300Y-7628400D01*
X16441300Y-7308400D02*
X16121300Y-7628400D01*
X16394438Y-7581538D02*
X16394438Y-7355262D01*
X16168162Y-7355262D01*
X16168162Y-7581538D01*
X16394438Y-7581538D01*
X26340000Y-7340000D02*
X26660000Y-7660000D01*
X26660000Y-7340000D02*
X26340000Y-7660000D01*
X26613138Y-7613138D02*
X26613138Y-7386862D01*
X26386862Y-7386862D01*
X26386862Y-7613138D01*
X26613138Y-7613138D01*
D11*
X3745119Y-23315024D02*
X3745119Y-23115024D01*
X3745119Y-23115024D02*
X3792738Y-23115024D01*
X3792738Y-23115024D02*
X3821309Y-23124548D01*
X3821309Y-23124548D02*
X3840357Y-23143595D01*
X3840357Y-23143595D02*
X3849881Y-23162643D01*
X3849881Y-23162643D02*
X3859405Y-23200738D01*
X3859405Y-23200738D02*
X3859405Y-23229309D01*
X3859405Y-23229309D02*
X3849881Y-23267405D01*
X3849881Y-23267405D02*
X3840357Y-23286452D01*
X3840357Y-23286452D02*
X3821309Y-23305500D01*
X3821309Y-23305500D02*
X3792738Y-23315024D01*
X3792738Y-23315024D02*
X3745119Y-23315024D01*
X3945119Y-23315024D02*
X3945119Y-23181690D01*
X3945119Y-23219786D02*
X3954643Y-23200738D01*
X3954643Y-23200738D02*
X3964167Y-23191214D01*
X3964167Y-23191214D02*
X3983214Y-23181690D01*
X3983214Y-23181690D02*
X4002262Y-23181690D01*
X4068928Y-23315024D02*
X4068928Y-23181690D01*
X4068928Y-23115024D02*
X4059405Y-23124548D01*
X4059405Y-23124548D02*
X4068928Y-23134071D01*
X4068928Y-23134071D02*
X4078452Y-23124548D01*
X4078452Y-23124548D02*
X4068928Y-23115024D01*
X4068928Y-23115024D02*
X4068928Y-23134071D01*
X4192738Y-23315024D02*
X4173690Y-23305500D01*
X4173690Y-23305500D02*
X4164167Y-23286452D01*
X4164167Y-23286452D02*
X4164167Y-23115024D01*
X4297500Y-23315024D02*
X4278452Y-23305500D01*
X4278452Y-23305500D02*
X4268929Y-23286452D01*
X4268929Y-23286452D02*
X4268929Y-23115024D01*
X4526071Y-23315024D02*
X4526071Y-23115024D01*
X4526071Y-23115024D02*
X4592738Y-23257881D01*
X4592738Y-23257881D02*
X4659405Y-23115024D01*
X4659405Y-23115024D02*
X4659405Y-23315024D01*
X4840357Y-23315024D02*
X4840357Y-23210262D01*
X4840357Y-23210262D02*
X4830833Y-23191214D01*
X4830833Y-23191214D02*
X4811786Y-23181690D01*
X4811786Y-23181690D02*
X4773690Y-23181690D01*
X4773690Y-23181690D02*
X4754643Y-23191214D01*
X4840357Y-23305500D02*
X4821310Y-23315024D01*
X4821310Y-23315024D02*
X4773690Y-23315024D01*
X4773690Y-23315024D02*
X4754643Y-23305500D01*
X4754643Y-23305500D02*
X4745119Y-23286452D01*
X4745119Y-23286452D02*
X4745119Y-23267405D01*
X4745119Y-23267405D02*
X4754643Y-23248357D01*
X4754643Y-23248357D02*
X4773690Y-23238833D01*
X4773690Y-23238833D02*
X4821310Y-23238833D01*
X4821310Y-23238833D02*
X4840357Y-23229309D01*
X4935595Y-23181690D02*
X4935595Y-23381690D01*
X4935595Y-23191214D02*
X4954643Y-23181690D01*
X4954643Y-23181690D02*
X4992738Y-23181690D01*
X4992738Y-23181690D02*
X5011786Y-23191214D01*
X5011786Y-23191214D02*
X5021310Y-23200738D01*
X5021310Y-23200738D02*
X5030833Y-23219786D01*
X5030833Y-23219786D02*
X5030833Y-23276928D01*
X5030833Y-23276928D02*
X5021310Y-23295976D01*
X5021310Y-23295976D02*
X5011786Y-23305500D01*
X5011786Y-23305500D02*
X4992738Y-23315024D01*
X4992738Y-23315024D02*
X4954643Y-23315024D01*
X4954643Y-23315024D02*
X4935595Y-23305500D01*
X5116548Y-23295976D02*
X5126071Y-23305500D01*
X5126071Y-23305500D02*
X5116548Y-23315024D01*
X5116548Y-23315024D02*
X5107024Y-23305500D01*
X5107024Y-23305500D02*
X5116548Y-23295976D01*
X5116548Y-23295976D02*
X5116548Y-23315024D01*
X5116548Y-23191214D02*
X5126071Y-23200738D01*
X5126071Y-23200738D02*
X5116548Y-23210262D01*
X5116548Y-23210262D02*
X5107024Y-23200738D01*
X5107024Y-23200738D02*
X5116548Y-23191214D01*
X5116548Y-23191214D02*
X5116548Y-23210262D01*
D12*
X3457500Y-23622500D02*
X3497500Y-23662500D01*
X3497500Y-23622500D02*
X3457500Y-23662500D01*
D11*
X3783214Y-23535024D02*
X3802262Y-23535024D01*
X3802262Y-23535024D02*
X3821309Y-23544548D01*
X3821309Y-23544548D02*
X3830833Y-23554071D01*
X3830833Y-23554071D02*
X3840357Y-23573119D01*
X3840357Y-23573119D02*
X3849881Y-23611214D01*
X3849881Y-23611214D02*
X3849881Y-23658833D01*
X3849881Y-23658833D02*
X3840357Y-23696928D01*
X3840357Y-23696928D02*
X3830833Y-23715976D01*
X3830833Y-23715976D02*
X3821309Y-23725500D01*
X3821309Y-23725500D02*
X3802262Y-23735024D01*
X3802262Y-23735024D02*
X3783214Y-23735024D01*
X3783214Y-23735024D02*
X3764167Y-23725500D01*
X3764167Y-23725500D02*
X3754643Y-23715976D01*
X3754643Y-23715976D02*
X3745119Y-23696928D01*
X3745119Y-23696928D02*
X3735595Y-23658833D01*
X3735595Y-23658833D02*
X3735595Y-23611214D01*
X3735595Y-23611214D02*
X3745119Y-23573119D01*
X3745119Y-23573119D02*
X3754643Y-23554071D01*
X3754643Y-23554071D02*
X3764167Y-23544548D01*
X3764167Y-23544548D02*
X3783214Y-23535024D01*
X3935595Y-23715976D02*
X3945119Y-23725500D01*
X3945119Y-23725500D02*
X3935595Y-23735024D01*
X3935595Y-23735024D02*
X3926071Y-23725500D01*
X3926071Y-23725500D02*
X3935595Y-23715976D01*
X3935595Y-23715976D02*
X3935595Y-23735024D01*
X4116548Y-23601690D02*
X4116548Y-23735024D01*
X4068928Y-23525500D02*
X4021309Y-23668357D01*
X4021309Y-23668357D02*
X4145119Y-23668357D01*
X4259405Y-23535024D02*
X4278452Y-23535024D01*
X4278452Y-23535024D02*
X4297500Y-23544548D01*
X4297500Y-23544548D02*
X4307024Y-23554071D01*
X4307024Y-23554071D02*
X4316548Y-23573119D01*
X4316548Y-23573119D02*
X4326071Y-23611214D01*
X4326071Y-23611214D02*
X4326071Y-23658833D01*
X4326071Y-23658833D02*
X4316548Y-23696928D01*
X4316548Y-23696928D02*
X4307024Y-23715976D01*
X4307024Y-23715976D02*
X4297500Y-23725500D01*
X4297500Y-23725500D02*
X4278452Y-23735024D01*
X4278452Y-23735024D02*
X4259405Y-23735024D01*
X4259405Y-23735024D02*
X4240357Y-23725500D01*
X4240357Y-23725500D02*
X4230833Y-23715976D01*
X4230833Y-23715976D02*
X4221310Y-23696928D01*
X4221310Y-23696928D02*
X4211786Y-23658833D01*
X4211786Y-23658833D02*
X4211786Y-23611214D01*
X4211786Y-23611214D02*
X4221310Y-23573119D01*
X4221310Y-23573119D02*
X4230833Y-23554071D01*
X4230833Y-23554071D02*
X4240357Y-23544548D01*
X4240357Y-23544548D02*
X4259405Y-23535024D01*
X4449881Y-23535024D02*
X4468929Y-23535024D01*
X4468929Y-23535024D02*
X4487976Y-23544548D01*
X4487976Y-23544548D02*
X4497500Y-23554071D01*
X4497500Y-23554071D02*
X4507024Y-23573119D01*
X4507024Y-23573119D02*
X4516548Y-23611214D01*
X4516548Y-23611214D02*
X4516548Y-23658833D01*
X4516548Y-23658833D02*
X4507024Y-23696928D01*
X4507024Y-23696928D02*
X4497500Y-23715976D01*
X4497500Y-23715976D02*
X4487976Y-23725500D01*
X4487976Y-23725500D02*
X4468929Y-23735024D01*
X4468929Y-23735024D02*
X4449881Y-23735024D01*
X4449881Y-23735024D02*
X4430833Y-23725500D01*
X4430833Y-23725500D02*
X4421310Y-23715976D01*
X4421310Y-23715976D02*
X4411786Y-23696928D01*
X4411786Y-23696928D02*
X4402262Y-23658833D01*
X4402262Y-23658833D02*
X4402262Y-23611214D01*
X4402262Y-23611214D02*
X4411786Y-23573119D01*
X4411786Y-23573119D02*
X4421310Y-23554071D01*
X4421310Y-23554071D02*
X4430833Y-23544548D01*
X4430833Y-23544548D02*
X4449881Y-23535024D01*
X4602262Y-23735024D02*
X4602262Y-23601690D01*
X4602262Y-23620738D02*
X4611786Y-23611214D01*
X4611786Y-23611214D02*
X4630833Y-23601690D01*
X4630833Y-23601690D02*
X4659405Y-23601690D01*
X4659405Y-23601690D02*
X4678452Y-23611214D01*
X4678452Y-23611214D02*
X4687976Y-23630262D01*
X4687976Y-23630262D02*
X4687976Y-23735024D01*
X4687976Y-23630262D02*
X4697500Y-23611214D01*
X4697500Y-23611214D02*
X4716548Y-23601690D01*
X4716548Y-23601690D02*
X4745119Y-23601690D01*
X4745119Y-23601690D02*
X4764167Y-23611214D01*
X4764167Y-23611214D02*
X4773691Y-23630262D01*
X4773691Y-23630262D02*
X4773691Y-23735024D01*
X4868929Y-23735024D02*
X4868929Y-23601690D01*
X4868929Y-23620738D02*
X4878452Y-23611214D01*
X4878452Y-23611214D02*
X4897500Y-23601690D01*
X4897500Y-23601690D02*
X4926072Y-23601690D01*
X4926072Y-23601690D02*
X4945119Y-23611214D01*
X4945119Y-23611214D02*
X4954643Y-23630262D01*
X4954643Y-23630262D02*
X4954643Y-23735024D01*
X4954643Y-23630262D02*
X4964167Y-23611214D01*
X4964167Y-23611214D02*
X4983214Y-23601690D01*
X4983214Y-23601690D02*
X5011786Y-23601690D01*
X5011786Y-23601690D02*
X5030833Y-23611214D01*
X5030833Y-23611214D02*
X5040357Y-23630262D01*
X5040357Y-23630262D02*
X5040357Y-23735024D01*
X5430833Y-23525500D02*
X5259405Y-23782643D01*
X5687976Y-23535024D02*
X5707024Y-23535024D01*
X5707024Y-23535024D02*
X5726072Y-23544548D01*
X5726072Y-23544548D02*
X5735595Y-23554071D01*
X5735595Y-23554071D02*
X5745119Y-23573119D01*
X5745119Y-23573119D02*
X5754643Y-23611214D01*
X5754643Y-23611214D02*
X5754643Y-23658833D01*
X5754643Y-23658833D02*
X5745119Y-23696928D01*
X5745119Y-23696928D02*
X5735595Y-23715976D01*
X5735595Y-23715976D02*
X5726072Y-23725500D01*
X5726072Y-23725500D02*
X5707024Y-23735024D01*
X5707024Y-23735024D02*
X5687976Y-23735024D01*
X5687976Y-23735024D02*
X5668929Y-23725500D01*
X5668929Y-23725500D02*
X5659405Y-23715976D01*
X5659405Y-23715976D02*
X5649881Y-23696928D01*
X5649881Y-23696928D02*
X5640357Y-23658833D01*
X5640357Y-23658833D02*
X5640357Y-23611214D01*
X5640357Y-23611214D02*
X5649881Y-23573119D01*
X5649881Y-23573119D02*
X5659405Y-23554071D01*
X5659405Y-23554071D02*
X5668929Y-23544548D01*
X5668929Y-23544548D02*
X5687976Y-23535024D01*
X5840357Y-23715976D02*
X5849881Y-23725500D01*
X5849881Y-23725500D02*
X5840357Y-23735024D01*
X5840357Y-23735024D02*
X5830833Y-23725500D01*
X5830833Y-23725500D02*
X5840357Y-23715976D01*
X5840357Y-23715976D02*
X5840357Y-23735024D01*
X5973691Y-23535024D02*
X5992738Y-23535024D01*
X5992738Y-23535024D02*
X6011786Y-23544548D01*
X6011786Y-23544548D02*
X6021310Y-23554071D01*
X6021310Y-23554071D02*
X6030833Y-23573119D01*
X6030833Y-23573119D02*
X6040357Y-23611214D01*
X6040357Y-23611214D02*
X6040357Y-23658833D01*
X6040357Y-23658833D02*
X6030833Y-23696928D01*
X6030833Y-23696928D02*
X6021310Y-23715976D01*
X6021310Y-23715976D02*
X6011786Y-23725500D01*
X6011786Y-23725500D02*
X5992738Y-23735024D01*
X5992738Y-23735024D02*
X5973691Y-23735024D01*
X5973691Y-23735024D02*
X5954643Y-23725500D01*
X5954643Y-23725500D02*
X5945119Y-23715976D01*
X5945119Y-23715976D02*
X5935595Y-23696928D01*
X5935595Y-23696928D02*
X5926072Y-23658833D01*
X5926072Y-23658833D02*
X5926072Y-23611214D01*
X5926072Y-23611214D02*
X5935595Y-23573119D01*
X5935595Y-23573119D02*
X5945119Y-23554071D01*
X5945119Y-23554071D02*
X5954643Y-23544548D01*
X5954643Y-23544548D02*
X5973691Y-23535024D01*
X6230833Y-23735024D02*
X6116548Y-23735024D01*
X6173691Y-23735024D02*
X6173691Y-23535024D01*
X6173691Y-23535024D02*
X6154643Y-23563595D01*
X6154643Y-23563595D02*
X6135595Y-23582643D01*
X6135595Y-23582643D02*
X6116548Y-23592167D01*
X6411786Y-23535024D02*
X6316548Y-23535024D01*
X6316548Y-23535024D02*
X6307024Y-23630262D01*
X6307024Y-23630262D02*
X6316548Y-23620738D01*
X6316548Y-23620738D02*
X6335595Y-23611214D01*
X6335595Y-23611214D02*
X6383214Y-23611214D01*
X6383214Y-23611214D02*
X6402262Y-23620738D01*
X6402262Y-23620738D02*
X6411786Y-23630262D01*
X6411786Y-23630262D02*
X6421310Y-23649309D01*
X6421310Y-23649309D02*
X6421310Y-23696928D01*
X6421310Y-23696928D02*
X6411786Y-23715976D01*
X6411786Y-23715976D02*
X6402262Y-23725500D01*
X6402262Y-23725500D02*
X6383214Y-23735024D01*
X6383214Y-23735024D02*
X6335595Y-23735024D01*
X6335595Y-23735024D02*
X6316548Y-23725500D01*
X6316548Y-23725500D02*
X6307024Y-23715976D01*
X6487976Y-23535024D02*
X6621310Y-23535024D01*
X6621310Y-23535024D02*
X6535595Y-23735024D01*
X6687976Y-23535024D02*
X6687976Y-23573119D01*
X6764167Y-23535024D02*
X6764167Y-23573119D01*
X7059405Y-23811214D02*
X7049881Y-23801690D01*
X7049881Y-23801690D02*
X7030834Y-23773119D01*
X7030834Y-23773119D02*
X7021310Y-23754071D01*
X7021310Y-23754071D02*
X7011786Y-23725500D01*
X7011786Y-23725500D02*
X7002262Y-23677881D01*
X7002262Y-23677881D02*
X7002262Y-23639786D01*
X7002262Y-23639786D02*
X7011786Y-23592167D01*
X7011786Y-23592167D02*
X7021310Y-23563595D01*
X7021310Y-23563595D02*
X7030834Y-23544548D01*
X7030834Y-23544548D02*
X7049881Y-23515976D01*
X7049881Y-23515976D02*
X7059405Y-23506452D01*
X7221310Y-23601690D02*
X7221310Y-23735024D01*
X7173691Y-23525500D02*
X7126072Y-23668357D01*
X7126072Y-23668357D02*
X7249881Y-23668357D01*
X7307024Y-23535024D02*
X7440357Y-23535024D01*
X7440357Y-23535024D02*
X7354643Y-23735024D01*
X7668929Y-23735024D02*
X7668929Y-23535024D01*
X7754643Y-23735024D02*
X7754643Y-23630262D01*
X7754643Y-23630262D02*
X7745119Y-23611214D01*
X7745119Y-23611214D02*
X7726072Y-23601690D01*
X7726072Y-23601690D02*
X7697500Y-23601690D01*
X7697500Y-23601690D02*
X7678453Y-23611214D01*
X7678453Y-23611214D02*
X7668929Y-23620738D01*
X7878453Y-23735024D02*
X7859405Y-23725500D01*
X7859405Y-23725500D02*
X7849881Y-23715976D01*
X7849881Y-23715976D02*
X7840357Y-23696928D01*
X7840357Y-23696928D02*
X7840357Y-23639786D01*
X7840357Y-23639786D02*
X7849881Y-23620738D01*
X7849881Y-23620738D02*
X7859405Y-23611214D01*
X7859405Y-23611214D02*
X7878453Y-23601690D01*
X7878453Y-23601690D02*
X7907024Y-23601690D01*
X7907024Y-23601690D02*
X7926072Y-23611214D01*
X7926072Y-23611214D02*
X7935596Y-23620738D01*
X7935596Y-23620738D02*
X7945119Y-23639786D01*
X7945119Y-23639786D02*
X7945119Y-23696928D01*
X7945119Y-23696928D02*
X7935596Y-23715976D01*
X7935596Y-23715976D02*
X7926072Y-23725500D01*
X7926072Y-23725500D02*
X7907024Y-23735024D01*
X7907024Y-23735024D02*
X7878453Y-23735024D01*
X8059405Y-23735024D02*
X8040357Y-23725500D01*
X8040357Y-23725500D02*
X8030834Y-23706452D01*
X8030834Y-23706452D02*
X8030834Y-23535024D01*
X8211786Y-23725500D02*
X8192738Y-23735024D01*
X8192738Y-23735024D02*
X8154643Y-23735024D01*
X8154643Y-23735024D02*
X8135596Y-23725500D01*
X8135596Y-23725500D02*
X8126072Y-23706452D01*
X8126072Y-23706452D02*
X8126072Y-23630262D01*
X8126072Y-23630262D02*
X8135596Y-23611214D01*
X8135596Y-23611214D02*
X8154643Y-23601690D01*
X8154643Y-23601690D02*
X8192738Y-23601690D01*
X8192738Y-23601690D02*
X8211786Y-23611214D01*
X8211786Y-23611214D02*
X8221310Y-23630262D01*
X8221310Y-23630262D02*
X8221310Y-23649309D01*
X8221310Y-23649309D02*
X8126072Y-23668357D01*
X8297500Y-23725500D02*
X8316548Y-23735024D01*
X8316548Y-23735024D02*
X8354643Y-23735024D01*
X8354643Y-23735024D02*
X8373691Y-23725500D01*
X8373691Y-23725500D02*
X8383215Y-23706452D01*
X8383215Y-23706452D02*
X8383215Y-23696928D01*
X8383215Y-23696928D02*
X8373691Y-23677881D01*
X8373691Y-23677881D02*
X8354643Y-23668357D01*
X8354643Y-23668357D02*
X8326072Y-23668357D01*
X8326072Y-23668357D02*
X8307024Y-23658833D01*
X8307024Y-23658833D02*
X8297500Y-23639786D01*
X8297500Y-23639786D02*
X8297500Y-23630262D01*
X8297500Y-23630262D02*
X8307024Y-23611214D01*
X8307024Y-23611214D02*
X8326072Y-23601690D01*
X8326072Y-23601690D02*
X8354643Y-23601690D01*
X8354643Y-23601690D02*
X8373691Y-23611214D01*
X8449881Y-23811214D02*
X8459405Y-23801690D01*
X8459405Y-23801690D02*
X8478453Y-23773119D01*
X8478453Y-23773119D02*
X8487977Y-23754071D01*
X8487977Y-23754071D02*
X8497500Y-23725500D01*
X8497500Y-23725500D02*
X8507024Y-23677881D01*
X8507024Y-23677881D02*
X8507024Y-23639786D01*
X8507024Y-23639786D02*
X8497500Y-23592167D01*
X8497500Y-23592167D02*
X8487977Y-23563595D01*
X8487977Y-23563595D02*
X8478453Y-23544548D01*
X8478453Y-23544548D02*
X8459405Y-23515976D01*
X8459405Y-23515976D02*
X8449881Y-23506452D01*
D13*
X3497500Y-23906500D02*
G75*
G03*
X3497500Y-23906500I-35000J0D01*
G01*
D11*
X3783214Y-23799024D02*
X3802262Y-23799024D01*
X3802262Y-23799024D02*
X3821309Y-23808548D01*
X3821309Y-23808548D02*
X3830833Y-23818071D01*
X3830833Y-23818071D02*
X3840357Y-23837119D01*
X3840357Y-23837119D02*
X3849881Y-23875214D01*
X3849881Y-23875214D02*
X3849881Y-23922833D01*
X3849881Y-23922833D02*
X3840357Y-23960928D01*
X3840357Y-23960928D02*
X3830833Y-23979976D01*
X3830833Y-23979976D02*
X3821309Y-23989500D01*
X3821309Y-23989500D02*
X3802262Y-23999024D01*
X3802262Y-23999024D02*
X3783214Y-23999024D01*
X3783214Y-23999024D02*
X3764167Y-23989500D01*
X3764167Y-23989500D02*
X3754643Y-23979976D01*
X3754643Y-23979976D02*
X3745119Y-23960928D01*
X3745119Y-23960928D02*
X3735595Y-23922833D01*
X3735595Y-23922833D02*
X3735595Y-23875214D01*
X3735595Y-23875214D02*
X3745119Y-23837119D01*
X3745119Y-23837119D02*
X3754643Y-23818071D01*
X3754643Y-23818071D02*
X3764167Y-23808548D01*
X3764167Y-23808548D02*
X3783214Y-23799024D01*
X3935595Y-23979976D02*
X3945119Y-23989500D01*
X3945119Y-23989500D02*
X3935595Y-23999024D01*
X3935595Y-23999024D02*
X3926071Y-23989500D01*
X3926071Y-23989500D02*
X3935595Y-23979976D01*
X3935595Y-23979976D02*
X3935595Y-23999024D01*
X4011786Y-23799024D02*
X4145119Y-23799024D01*
X4145119Y-23799024D02*
X4059405Y-23999024D01*
X4259405Y-23799024D02*
X4278452Y-23799024D01*
X4278452Y-23799024D02*
X4297500Y-23808548D01*
X4297500Y-23808548D02*
X4307024Y-23818071D01*
X4307024Y-23818071D02*
X4316548Y-23837119D01*
X4316548Y-23837119D02*
X4326071Y-23875214D01*
X4326071Y-23875214D02*
X4326071Y-23922833D01*
X4326071Y-23922833D02*
X4316548Y-23960928D01*
X4316548Y-23960928D02*
X4307024Y-23979976D01*
X4307024Y-23979976D02*
X4297500Y-23989500D01*
X4297500Y-23989500D02*
X4278452Y-23999024D01*
X4278452Y-23999024D02*
X4259405Y-23999024D01*
X4259405Y-23999024D02*
X4240357Y-23989500D01*
X4240357Y-23989500D02*
X4230833Y-23979976D01*
X4230833Y-23979976D02*
X4221310Y-23960928D01*
X4221310Y-23960928D02*
X4211786Y-23922833D01*
X4211786Y-23922833D02*
X4211786Y-23875214D01*
X4211786Y-23875214D02*
X4221310Y-23837119D01*
X4221310Y-23837119D02*
X4230833Y-23818071D01*
X4230833Y-23818071D02*
X4240357Y-23808548D01*
X4240357Y-23808548D02*
X4259405Y-23799024D01*
X4449881Y-23799024D02*
X4468929Y-23799024D01*
X4468929Y-23799024D02*
X4487976Y-23808548D01*
X4487976Y-23808548D02*
X4497500Y-23818071D01*
X4497500Y-23818071D02*
X4507024Y-23837119D01*
X4507024Y-23837119D02*
X4516548Y-23875214D01*
X4516548Y-23875214D02*
X4516548Y-23922833D01*
X4516548Y-23922833D02*
X4507024Y-23960928D01*
X4507024Y-23960928D02*
X4497500Y-23979976D01*
X4497500Y-23979976D02*
X4487976Y-23989500D01*
X4487976Y-23989500D02*
X4468929Y-23999024D01*
X4468929Y-23999024D02*
X4449881Y-23999024D01*
X4449881Y-23999024D02*
X4430833Y-23989500D01*
X4430833Y-23989500D02*
X4421310Y-23979976D01*
X4421310Y-23979976D02*
X4411786Y-23960928D01*
X4411786Y-23960928D02*
X4402262Y-23922833D01*
X4402262Y-23922833D02*
X4402262Y-23875214D01*
X4402262Y-23875214D02*
X4411786Y-23837119D01*
X4411786Y-23837119D02*
X4421310Y-23818071D01*
X4421310Y-23818071D02*
X4430833Y-23808548D01*
X4430833Y-23808548D02*
X4449881Y-23799024D01*
X4602262Y-23999024D02*
X4602262Y-23865690D01*
X4602262Y-23884738D02*
X4611786Y-23875214D01*
X4611786Y-23875214D02*
X4630833Y-23865690D01*
X4630833Y-23865690D02*
X4659405Y-23865690D01*
X4659405Y-23865690D02*
X4678452Y-23875214D01*
X4678452Y-23875214D02*
X4687976Y-23894262D01*
X4687976Y-23894262D02*
X4687976Y-23999024D01*
X4687976Y-23894262D02*
X4697500Y-23875214D01*
X4697500Y-23875214D02*
X4716548Y-23865690D01*
X4716548Y-23865690D02*
X4745119Y-23865690D01*
X4745119Y-23865690D02*
X4764167Y-23875214D01*
X4764167Y-23875214D02*
X4773691Y-23894262D01*
X4773691Y-23894262D02*
X4773691Y-23999024D01*
X4868929Y-23999024D02*
X4868929Y-23865690D01*
X4868929Y-23884738D02*
X4878452Y-23875214D01*
X4878452Y-23875214D02*
X4897500Y-23865690D01*
X4897500Y-23865690D02*
X4926072Y-23865690D01*
X4926072Y-23865690D02*
X4945119Y-23875214D01*
X4945119Y-23875214D02*
X4954643Y-23894262D01*
X4954643Y-23894262D02*
X4954643Y-23999024D01*
X4954643Y-23894262D02*
X4964167Y-23875214D01*
X4964167Y-23875214D02*
X4983214Y-23865690D01*
X4983214Y-23865690D02*
X5011786Y-23865690D01*
X5011786Y-23865690D02*
X5030833Y-23875214D01*
X5030833Y-23875214D02*
X5040357Y-23894262D01*
X5040357Y-23894262D02*
X5040357Y-23999024D01*
X5430833Y-23789500D02*
X5259405Y-24046643D01*
X5687976Y-23799024D02*
X5707024Y-23799024D01*
X5707024Y-23799024D02*
X5726072Y-23808548D01*
X5726072Y-23808548D02*
X5735595Y-23818071D01*
X5735595Y-23818071D02*
X5745119Y-23837119D01*
X5745119Y-23837119D02*
X5754643Y-23875214D01*
X5754643Y-23875214D02*
X5754643Y-23922833D01*
X5754643Y-23922833D02*
X5745119Y-23960928D01*
X5745119Y-23960928D02*
X5735595Y-23979976D01*
X5735595Y-23979976D02*
X5726072Y-23989500D01*
X5726072Y-23989500D02*
X5707024Y-23999024D01*
X5707024Y-23999024D02*
X5687976Y-23999024D01*
X5687976Y-23999024D02*
X5668929Y-23989500D01*
X5668929Y-23989500D02*
X5659405Y-23979976D01*
X5659405Y-23979976D02*
X5649881Y-23960928D01*
X5649881Y-23960928D02*
X5640357Y-23922833D01*
X5640357Y-23922833D02*
X5640357Y-23875214D01*
X5640357Y-23875214D02*
X5649881Y-23837119D01*
X5649881Y-23837119D02*
X5659405Y-23818071D01*
X5659405Y-23818071D02*
X5668929Y-23808548D01*
X5668929Y-23808548D02*
X5687976Y-23799024D01*
X5840357Y-23979976D02*
X5849881Y-23989500D01*
X5849881Y-23989500D02*
X5840357Y-23999024D01*
X5840357Y-23999024D02*
X5830833Y-23989500D01*
X5830833Y-23989500D02*
X5840357Y-23979976D01*
X5840357Y-23979976D02*
X5840357Y-23999024D01*
X5973691Y-23799024D02*
X5992738Y-23799024D01*
X5992738Y-23799024D02*
X6011786Y-23808548D01*
X6011786Y-23808548D02*
X6021310Y-23818071D01*
X6021310Y-23818071D02*
X6030833Y-23837119D01*
X6030833Y-23837119D02*
X6040357Y-23875214D01*
X6040357Y-23875214D02*
X6040357Y-23922833D01*
X6040357Y-23922833D02*
X6030833Y-23960928D01*
X6030833Y-23960928D02*
X6021310Y-23979976D01*
X6021310Y-23979976D02*
X6011786Y-23989500D01*
X6011786Y-23989500D02*
X5992738Y-23999024D01*
X5992738Y-23999024D02*
X5973691Y-23999024D01*
X5973691Y-23999024D02*
X5954643Y-23989500D01*
X5954643Y-23989500D02*
X5945119Y-23979976D01*
X5945119Y-23979976D02*
X5935595Y-23960928D01*
X5935595Y-23960928D02*
X5926072Y-23922833D01*
X5926072Y-23922833D02*
X5926072Y-23875214D01*
X5926072Y-23875214D02*
X5935595Y-23837119D01*
X5935595Y-23837119D02*
X5945119Y-23818071D01*
X5945119Y-23818071D02*
X5954643Y-23808548D01*
X5954643Y-23808548D02*
X5973691Y-23799024D01*
X6116548Y-23818071D02*
X6126072Y-23808548D01*
X6126072Y-23808548D02*
X6145119Y-23799024D01*
X6145119Y-23799024D02*
X6192738Y-23799024D01*
X6192738Y-23799024D02*
X6211786Y-23808548D01*
X6211786Y-23808548D02*
X6221310Y-23818071D01*
X6221310Y-23818071D02*
X6230833Y-23837119D01*
X6230833Y-23837119D02*
X6230833Y-23856167D01*
X6230833Y-23856167D02*
X6221310Y-23884738D01*
X6221310Y-23884738D02*
X6107024Y-23999024D01*
X6107024Y-23999024D02*
X6230833Y-23999024D01*
X6297500Y-23799024D02*
X6430833Y-23799024D01*
X6430833Y-23799024D02*
X6345119Y-23999024D01*
X6592738Y-23799024D02*
X6554643Y-23799024D01*
X6554643Y-23799024D02*
X6535595Y-23808548D01*
X6535595Y-23808548D02*
X6526072Y-23818071D01*
X6526072Y-23818071D02*
X6507024Y-23846643D01*
X6507024Y-23846643D02*
X6497500Y-23884738D01*
X6497500Y-23884738D02*
X6497500Y-23960928D01*
X6497500Y-23960928D02*
X6507024Y-23979976D01*
X6507024Y-23979976D02*
X6516548Y-23989500D01*
X6516548Y-23989500D02*
X6535595Y-23999024D01*
X6535595Y-23999024D02*
X6573691Y-23999024D01*
X6573691Y-23999024D02*
X6592738Y-23989500D01*
X6592738Y-23989500D02*
X6602262Y-23979976D01*
X6602262Y-23979976D02*
X6611786Y-23960928D01*
X6611786Y-23960928D02*
X6611786Y-23913309D01*
X6611786Y-23913309D02*
X6602262Y-23894262D01*
X6602262Y-23894262D02*
X6592738Y-23884738D01*
X6592738Y-23884738D02*
X6573691Y-23875214D01*
X6573691Y-23875214D02*
X6535595Y-23875214D01*
X6535595Y-23875214D02*
X6516548Y-23884738D01*
X6516548Y-23884738D02*
X6507024Y-23894262D01*
X6507024Y-23894262D02*
X6497500Y-23913309D01*
X6687976Y-23799024D02*
X6687976Y-23837119D01*
X6764167Y-23799024D02*
X6764167Y-23837119D01*
X7059405Y-24075214D02*
X7049881Y-24065690D01*
X7049881Y-24065690D02*
X7030834Y-24037119D01*
X7030834Y-24037119D02*
X7021310Y-24018071D01*
X7021310Y-24018071D02*
X7011786Y-23989500D01*
X7011786Y-23989500D02*
X7002262Y-23941881D01*
X7002262Y-23941881D02*
X7002262Y-23903786D01*
X7002262Y-23903786D02*
X7011786Y-23856167D01*
X7011786Y-23856167D02*
X7021310Y-23827595D01*
X7021310Y-23827595D02*
X7030834Y-23808548D01*
X7030834Y-23808548D02*
X7049881Y-23779976D01*
X7049881Y-23779976D02*
X7059405Y-23770452D01*
X7116548Y-23799024D02*
X7240357Y-23799024D01*
X7240357Y-23799024D02*
X7173691Y-23875214D01*
X7173691Y-23875214D02*
X7202262Y-23875214D01*
X7202262Y-23875214D02*
X7221310Y-23884738D01*
X7221310Y-23884738D02*
X7230834Y-23894262D01*
X7230834Y-23894262D02*
X7240357Y-23913309D01*
X7240357Y-23913309D02*
X7240357Y-23960928D01*
X7240357Y-23960928D02*
X7230834Y-23979976D01*
X7230834Y-23979976D02*
X7221310Y-23989500D01*
X7221310Y-23989500D02*
X7202262Y-23999024D01*
X7202262Y-23999024D02*
X7145119Y-23999024D01*
X7145119Y-23999024D02*
X7126072Y-23989500D01*
X7126072Y-23989500D02*
X7116548Y-23979976D01*
X7364167Y-23799024D02*
X7383215Y-23799024D01*
X7383215Y-23799024D02*
X7402262Y-23808548D01*
X7402262Y-23808548D02*
X7411786Y-23818071D01*
X7411786Y-23818071D02*
X7421310Y-23837119D01*
X7421310Y-23837119D02*
X7430834Y-23875214D01*
X7430834Y-23875214D02*
X7430834Y-23922833D01*
X7430834Y-23922833D02*
X7421310Y-23960928D01*
X7421310Y-23960928D02*
X7411786Y-23979976D01*
X7411786Y-23979976D02*
X7402262Y-23989500D01*
X7402262Y-23989500D02*
X7383215Y-23999024D01*
X7383215Y-23999024D02*
X7364167Y-23999024D01*
X7364167Y-23999024D02*
X7345119Y-23989500D01*
X7345119Y-23989500D02*
X7335595Y-23979976D01*
X7335595Y-23979976D02*
X7326072Y-23960928D01*
X7326072Y-23960928D02*
X7316548Y-23922833D01*
X7316548Y-23922833D02*
X7316548Y-23875214D01*
X7316548Y-23875214D02*
X7326072Y-23837119D01*
X7326072Y-23837119D02*
X7335595Y-23818071D01*
X7335595Y-23818071D02*
X7345119Y-23808548D01*
X7345119Y-23808548D02*
X7364167Y-23799024D01*
X7668929Y-23999024D02*
X7668929Y-23799024D01*
X7754643Y-23999024D02*
X7754643Y-23894262D01*
X7754643Y-23894262D02*
X7745119Y-23875214D01*
X7745119Y-23875214D02*
X7726072Y-23865690D01*
X7726072Y-23865690D02*
X7697500Y-23865690D01*
X7697500Y-23865690D02*
X7678453Y-23875214D01*
X7678453Y-23875214D02*
X7668929Y-23884738D01*
X7878453Y-23999024D02*
X7859405Y-23989500D01*
X7859405Y-23989500D02*
X7849881Y-23979976D01*
X7849881Y-23979976D02*
X7840357Y-23960928D01*
X7840357Y-23960928D02*
X7840357Y-23903786D01*
X7840357Y-23903786D02*
X7849881Y-23884738D01*
X7849881Y-23884738D02*
X7859405Y-23875214D01*
X7859405Y-23875214D02*
X7878453Y-23865690D01*
X7878453Y-23865690D02*
X7907024Y-23865690D01*
X7907024Y-23865690D02*
X7926072Y-23875214D01*
X7926072Y-23875214D02*
X7935596Y-23884738D01*
X7935596Y-23884738D02*
X7945119Y-23903786D01*
X7945119Y-23903786D02*
X7945119Y-23960928D01*
X7945119Y-23960928D02*
X7935596Y-23979976D01*
X7935596Y-23979976D02*
X7926072Y-23989500D01*
X7926072Y-23989500D02*
X7907024Y-23999024D01*
X7907024Y-23999024D02*
X7878453Y-23999024D01*
X8059405Y-23999024D02*
X8040357Y-23989500D01*
X8040357Y-23989500D02*
X8030834Y-23970452D01*
X8030834Y-23970452D02*
X8030834Y-23799024D01*
X8211786Y-23989500D02*
X8192738Y-23999024D01*
X8192738Y-23999024D02*
X8154643Y-23999024D01*
X8154643Y-23999024D02*
X8135596Y-23989500D01*
X8135596Y-23989500D02*
X8126072Y-23970452D01*
X8126072Y-23970452D02*
X8126072Y-23894262D01*
X8126072Y-23894262D02*
X8135596Y-23875214D01*
X8135596Y-23875214D02*
X8154643Y-23865690D01*
X8154643Y-23865690D02*
X8192738Y-23865690D01*
X8192738Y-23865690D02*
X8211786Y-23875214D01*
X8211786Y-23875214D02*
X8221310Y-23894262D01*
X8221310Y-23894262D02*
X8221310Y-23913309D01*
X8221310Y-23913309D02*
X8126072Y-23932357D01*
X8297500Y-23989500D02*
X8316548Y-23999024D01*
X8316548Y-23999024D02*
X8354643Y-23999024D01*
X8354643Y-23999024D02*
X8373691Y-23989500D01*
X8373691Y-23989500D02*
X8383215Y-23970452D01*
X8383215Y-23970452D02*
X8383215Y-23960928D01*
X8383215Y-23960928D02*
X8373691Y-23941881D01*
X8373691Y-23941881D02*
X8354643Y-23932357D01*
X8354643Y-23932357D02*
X8326072Y-23932357D01*
X8326072Y-23932357D02*
X8307024Y-23922833D01*
X8307024Y-23922833D02*
X8297500Y-23903786D01*
X8297500Y-23903786D02*
X8297500Y-23894262D01*
X8297500Y-23894262D02*
X8307024Y-23875214D01*
X8307024Y-23875214D02*
X8326072Y-23865690D01*
X8326072Y-23865690D02*
X8354643Y-23865690D01*
X8354643Y-23865690D02*
X8373691Y-23875214D01*
X8449881Y-24075214D02*
X8459405Y-24065690D01*
X8459405Y-24065690D02*
X8478453Y-24037119D01*
X8478453Y-24037119D02*
X8487977Y-24018071D01*
X8487977Y-24018071D02*
X8497500Y-23989500D01*
X8497500Y-23989500D02*
X8507024Y-23941881D01*
X8507024Y-23941881D02*
X8507024Y-23903786D01*
X8507024Y-23903786D02*
X8497500Y-23856167D01*
X8497500Y-23856167D02*
X8487977Y-23827595D01*
X8487977Y-23827595D02*
X8478453Y-23808548D01*
X8478453Y-23808548D02*
X8459405Y-23779976D01*
X8459405Y-23779976D02*
X8449881Y-23770452D01*
D14*
X3457500Y-24130500D02*
X3457500Y-24210500D01*
X3417500Y-24170500D02*
X3497500Y-24170500D01*
D11*
X3783214Y-24063024D02*
X3802262Y-24063024D01*
X3802262Y-24063024D02*
X3821309Y-24072548D01*
X3821309Y-24072548D02*
X3830833Y-24082071D01*
X3830833Y-24082071D02*
X3840357Y-24101119D01*
X3840357Y-24101119D02*
X3849881Y-24139214D01*
X3849881Y-24139214D02*
X3849881Y-24186833D01*
X3849881Y-24186833D02*
X3840357Y-24224928D01*
X3840357Y-24224928D02*
X3830833Y-24243976D01*
X3830833Y-24243976D02*
X3821309Y-24253500D01*
X3821309Y-24253500D02*
X3802262Y-24263024D01*
X3802262Y-24263024D02*
X3783214Y-24263024D01*
X3783214Y-24263024D02*
X3764167Y-24253500D01*
X3764167Y-24253500D02*
X3754643Y-24243976D01*
X3754643Y-24243976D02*
X3745119Y-24224928D01*
X3745119Y-24224928D02*
X3735595Y-24186833D01*
X3735595Y-24186833D02*
X3735595Y-24139214D01*
X3735595Y-24139214D02*
X3745119Y-24101119D01*
X3745119Y-24101119D02*
X3754643Y-24082071D01*
X3754643Y-24082071D02*
X3764167Y-24072548D01*
X3764167Y-24072548D02*
X3783214Y-24063024D01*
X3935595Y-24243976D02*
X3945119Y-24253500D01*
X3945119Y-24253500D02*
X3935595Y-24263024D01*
X3935595Y-24263024D02*
X3926071Y-24253500D01*
X3926071Y-24253500D02*
X3935595Y-24243976D01*
X3935595Y-24243976D02*
X3935595Y-24263024D01*
X4059405Y-24148738D02*
X4040357Y-24139214D01*
X4040357Y-24139214D02*
X4030833Y-24129690D01*
X4030833Y-24129690D02*
X4021309Y-24110643D01*
X4021309Y-24110643D02*
X4021309Y-24101119D01*
X4021309Y-24101119D02*
X4030833Y-24082071D01*
X4030833Y-24082071D02*
X4040357Y-24072548D01*
X4040357Y-24072548D02*
X4059405Y-24063024D01*
X4059405Y-24063024D02*
X4097500Y-24063024D01*
X4097500Y-24063024D02*
X4116548Y-24072548D01*
X4116548Y-24072548D02*
X4126071Y-24082071D01*
X4126071Y-24082071D02*
X4135595Y-24101119D01*
X4135595Y-24101119D02*
X4135595Y-24110643D01*
X4135595Y-24110643D02*
X4126071Y-24129690D01*
X4126071Y-24129690D02*
X4116548Y-24139214D01*
X4116548Y-24139214D02*
X4097500Y-24148738D01*
X4097500Y-24148738D02*
X4059405Y-24148738D01*
X4059405Y-24148738D02*
X4040357Y-24158262D01*
X4040357Y-24158262D02*
X4030833Y-24167786D01*
X4030833Y-24167786D02*
X4021309Y-24186833D01*
X4021309Y-24186833D02*
X4021309Y-24224928D01*
X4021309Y-24224928D02*
X4030833Y-24243976D01*
X4030833Y-24243976D02*
X4040357Y-24253500D01*
X4040357Y-24253500D02*
X4059405Y-24263024D01*
X4059405Y-24263024D02*
X4097500Y-24263024D01*
X4097500Y-24263024D02*
X4116548Y-24253500D01*
X4116548Y-24253500D02*
X4126071Y-24243976D01*
X4126071Y-24243976D02*
X4135595Y-24224928D01*
X4135595Y-24224928D02*
X4135595Y-24186833D01*
X4135595Y-24186833D02*
X4126071Y-24167786D01*
X4126071Y-24167786D02*
X4116548Y-24158262D01*
X4116548Y-24158262D02*
X4097500Y-24148738D01*
X4259405Y-24063024D02*
X4278452Y-24063024D01*
X4278452Y-24063024D02*
X4297500Y-24072548D01*
X4297500Y-24072548D02*
X4307024Y-24082071D01*
X4307024Y-24082071D02*
X4316548Y-24101119D01*
X4316548Y-24101119D02*
X4326071Y-24139214D01*
X4326071Y-24139214D02*
X4326071Y-24186833D01*
X4326071Y-24186833D02*
X4316548Y-24224928D01*
X4316548Y-24224928D02*
X4307024Y-24243976D01*
X4307024Y-24243976D02*
X4297500Y-24253500D01*
X4297500Y-24253500D02*
X4278452Y-24263024D01*
X4278452Y-24263024D02*
X4259405Y-24263024D01*
X4259405Y-24263024D02*
X4240357Y-24253500D01*
X4240357Y-24253500D02*
X4230833Y-24243976D01*
X4230833Y-24243976D02*
X4221310Y-24224928D01*
X4221310Y-24224928D02*
X4211786Y-24186833D01*
X4211786Y-24186833D02*
X4211786Y-24139214D01*
X4211786Y-24139214D02*
X4221310Y-24101119D01*
X4221310Y-24101119D02*
X4230833Y-24082071D01*
X4230833Y-24082071D02*
X4240357Y-24072548D01*
X4240357Y-24072548D02*
X4259405Y-24063024D01*
X4449881Y-24063024D02*
X4468929Y-24063024D01*
X4468929Y-24063024D02*
X4487976Y-24072548D01*
X4487976Y-24072548D02*
X4497500Y-24082071D01*
X4497500Y-24082071D02*
X4507024Y-24101119D01*
X4507024Y-24101119D02*
X4516548Y-24139214D01*
X4516548Y-24139214D02*
X4516548Y-24186833D01*
X4516548Y-24186833D02*
X4507024Y-24224928D01*
X4507024Y-24224928D02*
X4497500Y-24243976D01*
X4497500Y-24243976D02*
X4487976Y-24253500D01*
X4487976Y-24253500D02*
X4468929Y-24263024D01*
X4468929Y-24263024D02*
X4449881Y-24263024D01*
X4449881Y-24263024D02*
X4430833Y-24253500D01*
X4430833Y-24253500D02*
X4421310Y-24243976D01*
X4421310Y-24243976D02*
X4411786Y-24224928D01*
X4411786Y-24224928D02*
X4402262Y-24186833D01*
X4402262Y-24186833D02*
X4402262Y-24139214D01*
X4402262Y-24139214D02*
X4411786Y-24101119D01*
X4411786Y-24101119D02*
X4421310Y-24082071D01*
X4421310Y-24082071D02*
X4430833Y-24072548D01*
X4430833Y-24072548D02*
X4449881Y-24063024D01*
X4602262Y-24263024D02*
X4602262Y-24129690D01*
X4602262Y-24148738D02*
X4611786Y-24139214D01*
X4611786Y-24139214D02*
X4630833Y-24129690D01*
X4630833Y-24129690D02*
X4659405Y-24129690D01*
X4659405Y-24129690D02*
X4678452Y-24139214D01*
X4678452Y-24139214D02*
X4687976Y-24158262D01*
X4687976Y-24158262D02*
X4687976Y-24263024D01*
X4687976Y-24158262D02*
X4697500Y-24139214D01*
X4697500Y-24139214D02*
X4716548Y-24129690D01*
X4716548Y-24129690D02*
X4745119Y-24129690D01*
X4745119Y-24129690D02*
X4764167Y-24139214D01*
X4764167Y-24139214D02*
X4773691Y-24158262D01*
X4773691Y-24158262D02*
X4773691Y-24263024D01*
X4868929Y-24263024D02*
X4868929Y-24129690D01*
X4868929Y-24148738D02*
X4878452Y-24139214D01*
X4878452Y-24139214D02*
X4897500Y-24129690D01*
X4897500Y-24129690D02*
X4926072Y-24129690D01*
X4926072Y-24129690D02*
X4945119Y-24139214D01*
X4945119Y-24139214D02*
X4954643Y-24158262D01*
X4954643Y-24158262D02*
X4954643Y-24263024D01*
X4954643Y-24158262D02*
X4964167Y-24139214D01*
X4964167Y-24139214D02*
X4983214Y-24129690D01*
X4983214Y-24129690D02*
X5011786Y-24129690D01*
X5011786Y-24129690D02*
X5030833Y-24139214D01*
X5030833Y-24139214D02*
X5040357Y-24158262D01*
X5040357Y-24158262D02*
X5040357Y-24263024D01*
X5430833Y-24053500D02*
X5259405Y-24310643D01*
X5687976Y-24063024D02*
X5707024Y-24063024D01*
X5707024Y-24063024D02*
X5726072Y-24072548D01*
X5726072Y-24072548D02*
X5735595Y-24082071D01*
X5735595Y-24082071D02*
X5745119Y-24101119D01*
X5745119Y-24101119D02*
X5754643Y-24139214D01*
X5754643Y-24139214D02*
X5754643Y-24186833D01*
X5754643Y-24186833D02*
X5745119Y-24224928D01*
X5745119Y-24224928D02*
X5735595Y-24243976D01*
X5735595Y-24243976D02*
X5726072Y-24253500D01*
X5726072Y-24253500D02*
X5707024Y-24263024D01*
X5707024Y-24263024D02*
X5687976Y-24263024D01*
X5687976Y-24263024D02*
X5668929Y-24253500D01*
X5668929Y-24253500D02*
X5659405Y-24243976D01*
X5659405Y-24243976D02*
X5649881Y-24224928D01*
X5649881Y-24224928D02*
X5640357Y-24186833D01*
X5640357Y-24186833D02*
X5640357Y-24139214D01*
X5640357Y-24139214D02*
X5649881Y-24101119D01*
X5649881Y-24101119D02*
X5659405Y-24082071D01*
X5659405Y-24082071D02*
X5668929Y-24072548D01*
X5668929Y-24072548D02*
X5687976Y-24063024D01*
X5840357Y-24243976D02*
X5849881Y-24253500D01*
X5849881Y-24253500D02*
X5840357Y-24263024D01*
X5840357Y-24263024D02*
X5830833Y-24253500D01*
X5830833Y-24253500D02*
X5840357Y-24243976D01*
X5840357Y-24243976D02*
X5840357Y-24263024D01*
X5973691Y-24063024D02*
X5992738Y-24063024D01*
X5992738Y-24063024D02*
X6011786Y-24072548D01*
X6011786Y-24072548D02*
X6021310Y-24082071D01*
X6021310Y-24082071D02*
X6030833Y-24101119D01*
X6030833Y-24101119D02*
X6040357Y-24139214D01*
X6040357Y-24139214D02*
X6040357Y-24186833D01*
X6040357Y-24186833D02*
X6030833Y-24224928D01*
X6030833Y-24224928D02*
X6021310Y-24243976D01*
X6021310Y-24243976D02*
X6011786Y-24253500D01*
X6011786Y-24253500D02*
X5992738Y-24263024D01*
X5992738Y-24263024D02*
X5973691Y-24263024D01*
X5973691Y-24263024D02*
X5954643Y-24253500D01*
X5954643Y-24253500D02*
X5945119Y-24243976D01*
X5945119Y-24243976D02*
X5935595Y-24224928D01*
X5935595Y-24224928D02*
X5926072Y-24186833D01*
X5926072Y-24186833D02*
X5926072Y-24139214D01*
X5926072Y-24139214D02*
X5935595Y-24101119D01*
X5935595Y-24101119D02*
X5945119Y-24082071D01*
X5945119Y-24082071D02*
X5954643Y-24072548D01*
X5954643Y-24072548D02*
X5973691Y-24063024D01*
X6107024Y-24063024D02*
X6230833Y-24063024D01*
X6230833Y-24063024D02*
X6164167Y-24139214D01*
X6164167Y-24139214D02*
X6192738Y-24139214D01*
X6192738Y-24139214D02*
X6211786Y-24148738D01*
X6211786Y-24148738D02*
X6221310Y-24158262D01*
X6221310Y-24158262D02*
X6230833Y-24177309D01*
X6230833Y-24177309D02*
X6230833Y-24224928D01*
X6230833Y-24224928D02*
X6221310Y-24243976D01*
X6221310Y-24243976D02*
X6211786Y-24253500D01*
X6211786Y-24253500D02*
X6192738Y-24263024D01*
X6192738Y-24263024D02*
X6135595Y-24263024D01*
X6135595Y-24263024D02*
X6116548Y-24253500D01*
X6116548Y-24253500D02*
X6107024Y-24243976D01*
X6421310Y-24263024D02*
X6307024Y-24263024D01*
X6364167Y-24263024D02*
X6364167Y-24063024D01*
X6364167Y-24063024D02*
X6345119Y-24091595D01*
X6345119Y-24091595D02*
X6326072Y-24110643D01*
X6326072Y-24110643D02*
X6307024Y-24120167D01*
X6602262Y-24063024D02*
X6507024Y-24063024D01*
X6507024Y-24063024D02*
X6497500Y-24158262D01*
X6497500Y-24158262D02*
X6507024Y-24148738D01*
X6507024Y-24148738D02*
X6526072Y-24139214D01*
X6526072Y-24139214D02*
X6573691Y-24139214D01*
X6573691Y-24139214D02*
X6592738Y-24148738D01*
X6592738Y-24148738D02*
X6602262Y-24158262D01*
X6602262Y-24158262D02*
X6611786Y-24177309D01*
X6611786Y-24177309D02*
X6611786Y-24224928D01*
X6611786Y-24224928D02*
X6602262Y-24243976D01*
X6602262Y-24243976D02*
X6592738Y-24253500D01*
X6592738Y-24253500D02*
X6573691Y-24263024D01*
X6573691Y-24263024D02*
X6526072Y-24263024D01*
X6526072Y-24263024D02*
X6507024Y-24253500D01*
X6507024Y-24253500D02*
X6497500Y-24243976D01*
X6687976Y-24063024D02*
X6687976Y-24101119D01*
X6764167Y-24063024D02*
X6764167Y-24101119D01*
X7059405Y-24339214D02*
X7049881Y-24329690D01*
X7049881Y-24329690D02*
X7030834Y-24301119D01*
X7030834Y-24301119D02*
X7021310Y-24282071D01*
X7021310Y-24282071D02*
X7011786Y-24253500D01*
X7011786Y-24253500D02*
X7002262Y-24205881D01*
X7002262Y-24205881D02*
X7002262Y-24167786D01*
X7002262Y-24167786D02*
X7011786Y-24120167D01*
X7011786Y-24120167D02*
X7021310Y-24091595D01*
X7021310Y-24091595D02*
X7030834Y-24072548D01*
X7030834Y-24072548D02*
X7049881Y-24043976D01*
X7049881Y-24043976D02*
X7059405Y-24034452D01*
X7126072Y-24082071D02*
X7135595Y-24072548D01*
X7135595Y-24072548D02*
X7154643Y-24063024D01*
X7154643Y-24063024D02*
X7202262Y-24063024D01*
X7202262Y-24063024D02*
X7221310Y-24072548D01*
X7221310Y-24072548D02*
X7230834Y-24082071D01*
X7230834Y-24082071D02*
X7240357Y-24101119D01*
X7240357Y-24101119D02*
X7240357Y-24120167D01*
X7240357Y-24120167D02*
X7230834Y-24148738D01*
X7230834Y-24148738D02*
X7116548Y-24263024D01*
X7116548Y-24263024D02*
X7240357Y-24263024D01*
X7430834Y-24263024D02*
X7316548Y-24263024D01*
X7373691Y-24263024D02*
X7373691Y-24063024D01*
X7373691Y-24063024D02*
X7354643Y-24091595D01*
X7354643Y-24091595D02*
X7335595Y-24110643D01*
X7335595Y-24110643D02*
X7316548Y-24120167D01*
X7507024Y-24082071D02*
X7516548Y-24072548D01*
X7516548Y-24072548D02*
X7535595Y-24063024D01*
X7535595Y-24063024D02*
X7583215Y-24063024D01*
X7583215Y-24063024D02*
X7602262Y-24072548D01*
X7602262Y-24072548D02*
X7611786Y-24082071D01*
X7611786Y-24082071D02*
X7621310Y-24101119D01*
X7621310Y-24101119D02*
X7621310Y-24120167D01*
X7621310Y-24120167D02*
X7611786Y-24148738D01*
X7611786Y-24148738D02*
X7497500Y-24263024D01*
X7497500Y-24263024D02*
X7621310Y-24263024D01*
X7859405Y-24263024D02*
X7859405Y-24063024D01*
X7945119Y-24263024D02*
X7945119Y-24158262D01*
X7945119Y-24158262D02*
X7935596Y-24139214D01*
X7935596Y-24139214D02*
X7916548Y-24129690D01*
X7916548Y-24129690D02*
X7887976Y-24129690D01*
X7887976Y-24129690D02*
X7868929Y-24139214D01*
X7868929Y-24139214D02*
X7859405Y-24148738D01*
X8068929Y-24263024D02*
X8049881Y-24253500D01*
X8049881Y-24253500D02*
X8040357Y-24243976D01*
X8040357Y-24243976D02*
X8030834Y-24224928D01*
X8030834Y-24224928D02*
X8030834Y-24167786D01*
X8030834Y-24167786D02*
X8040357Y-24148738D01*
X8040357Y-24148738D02*
X8049881Y-24139214D01*
X8049881Y-24139214D02*
X8068929Y-24129690D01*
X8068929Y-24129690D02*
X8097500Y-24129690D01*
X8097500Y-24129690D02*
X8116548Y-24139214D01*
X8116548Y-24139214D02*
X8126072Y-24148738D01*
X8126072Y-24148738D02*
X8135596Y-24167786D01*
X8135596Y-24167786D02*
X8135596Y-24224928D01*
X8135596Y-24224928D02*
X8126072Y-24243976D01*
X8126072Y-24243976D02*
X8116548Y-24253500D01*
X8116548Y-24253500D02*
X8097500Y-24263024D01*
X8097500Y-24263024D02*
X8068929Y-24263024D01*
X8249881Y-24263024D02*
X8230834Y-24253500D01*
X8230834Y-24253500D02*
X8221310Y-24234452D01*
X8221310Y-24234452D02*
X8221310Y-24063024D01*
X8402262Y-24253500D02*
X8383215Y-24263024D01*
X8383215Y-24263024D02*
X8345119Y-24263024D01*
X8345119Y-24263024D02*
X8326072Y-24253500D01*
X8326072Y-24253500D02*
X8316548Y-24234452D01*
X8316548Y-24234452D02*
X8316548Y-24158262D01*
X8316548Y-24158262D02*
X8326072Y-24139214D01*
X8326072Y-24139214D02*
X8345119Y-24129690D01*
X8345119Y-24129690D02*
X8383215Y-24129690D01*
X8383215Y-24129690D02*
X8402262Y-24139214D01*
X8402262Y-24139214D02*
X8411786Y-24158262D01*
X8411786Y-24158262D02*
X8411786Y-24177309D01*
X8411786Y-24177309D02*
X8316548Y-24196357D01*
X8487977Y-24253500D02*
X8507024Y-24263024D01*
X8507024Y-24263024D02*
X8545119Y-24263024D01*
X8545119Y-24263024D02*
X8564167Y-24253500D01*
X8564167Y-24253500D02*
X8573691Y-24234452D01*
X8573691Y-24234452D02*
X8573691Y-24224928D01*
X8573691Y-24224928D02*
X8564167Y-24205881D01*
X8564167Y-24205881D02*
X8545119Y-24196357D01*
X8545119Y-24196357D02*
X8516548Y-24196357D01*
X8516548Y-24196357D02*
X8497500Y-24186833D01*
X8497500Y-24186833D02*
X8487977Y-24167786D01*
X8487977Y-24167786D02*
X8487977Y-24158262D01*
X8487977Y-24158262D02*
X8497500Y-24139214D01*
X8497500Y-24139214D02*
X8516548Y-24129690D01*
X8516548Y-24129690D02*
X8545119Y-24129690D01*
X8545119Y-24129690D02*
X8564167Y-24139214D01*
X8640358Y-24339214D02*
X8649881Y-24329690D01*
X8649881Y-24329690D02*
X8668929Y-24301119D01*
X8668929Y-24301119D02*
X8678453Y-24282071D01*
X8678453Y-24282071D02*
X8687977Y-24253500D01*
X8687977Y-24253500D02*
X8697500Y-24205881D01*
X8697500Y-24205881D02*
X8697500Y-24167786D01*
X8697500Y-24167786D02*
X8687977Y-24120167D01*
X8687977Y-24120167D02*
X8678453Y-24091595D01*
X8678453Y-24091595D02*
X8668929Y-24072548D01*
X8668929Y-24072548D02*
X8649881Y-24043976D01*
X8649881Y-24043976D02*
X8640358Y-24034452D01*
D15*
X3484320Y-24466320D02*
X3484320Y-24402680D01*
X3420680Y-24402680D01*
X3420680Y-24466320D01*
X3484320Y-24466320D01*
D11*
X3783214Y-24327024D02*
X3802262Y-24327024D01*
X3802262Y-24327024D02*
X3821309Y-24336548D01*
X3821309Y-24336548D02*
X3830833Y-24346071D01*
X3830833Y-24346071D02*
X3840357Y-24365119D01*
X3840357Y-24365119D02*
X3849881Y-24403214D01*
X3849881Y-24403214D02*
X3849881Y-24450833D01*
X3849881Y-24450833D02*
X3840357Y-24488928D01*
X3840357Y-24488928D02*
X3830833Y-24507976D01*
X3830833Y-24507976D02*
X3821309Y-24517500D01*
X3821309Y-24517500D02*
X3802262Y-24527024D01*
X3802262Y-24527024D02*
X3783214Y-24527024D01*
X3783214Y-24527024D02*
X3764167Y-24517500D01*
X3764167Y-24517500D02*
X3754643Y-24507976D01*
X3754643Y-24507976D02*
X3745119Y-24488928D01*
X3745119Y-24488928D02*
X3735595Y-24450833D01*
X3735595Y-24450833D02*
X3735595Y-24403214D01*
X3735595Y-24403214D02*
X3745119Y-24365119D01*
X3745119Y-24365119D02*
X3754643Y-24346071D01*
X3754643Y-24346071D02*
X3764167Y-24336548D01*
X3764167Y-24336548D02*
X3783214Y-24327024D01*
X3935595Y-24507976D02*
X3945119Y-24517500D01*
X3945119Y-24517500D02*
X3935595Y-24527024D01*
X3935595Y-24527024D02*
X3926071Y-24517500D01*
X3926071Y-24517500D02*
X3935595Y-24507976D01*
X3935595Y-24507976D02*
X3935595Y-24527024D01*
X4040357Y-24527024D02*
X4078452Y-24527024D01*
X4078452Y-24527024D02*
X4097500Y-24517500D01*
X4097500Y-24517500D02*
X4107024Y-24507976D01*
X4107024Y-24507976D02*
X4126071Y-24479405D01*
X4126071Y-24479405D02*
X4135595Y-24441309D01*
X4135595Y-24441309D02*
X4135595Y-24365119D01*
X4135595Y-24365119D02*
X4126071Y-24346071D01*
X4126071Y-24346071D02*
X4116548Y-24336548D01*
X4116548Y-24336548D02*
X4097500Y-24327024D01*
X4097500Y-24327024D02*
X4059405Y-24327024D01*
X4059405Y-24327024D02*
X4040357Y-24336548D01*
X4040357Y-24336548D02*
X4030833Y-24346071D01*
X4030833Y-24346071D02*
X4021309Y-24365119D01*
X4021309Y-24365119D02*
X4021309Y-24412738D01*
X4021309Y-24412738D02*
X4030833Y-24431786D01*
X4030833Y-24431786D02*
X4040357Y-24441309D01*
X4040357Y-24441309D02*
X4059405Y-24450833D01*
X4059405Y-24450833D02*
X4097500Y-24450833D01*
X4097500Y-24450833D02*
X4116548Y-24441309D01*
X4116548Y-24441309D02*
X4126071Y-24431786D01*
X4126071Y-24431786D02*
X4135595Y-24412738D01*
X4259405Y-24327024D02*
X4278452Y-24327024D01*
X4278452Y-24327024D02*
X4297500Y-24336548D01*
X4297500Y-24336548D02*
X4307024Y-24346071D01*
X4307024Y-24346071D02*
X4316548Y-24365119D01*
X4316548Y-24365119D02*
X4326071Y-24403214D01*
X4326071Y-24403214D02*
X4326071Y-24450833D01*
X4326071Y-24450833D02*
X4316548Y-24488928D01*
X4316548Y-24488928D02*
X4307024Y-24507976D01*
X4307024Y-24507976D02*
X4297500Y-24517500D01*
X4297500Y-24517500D02*
X4278452Y-24527024D01*
X4278452Y-24527024D02*
X4259405Y-24527024D01*
X4259405Y-24527024D02*
X4240357Y-24517500D01*
X4240357Y-24517500D02*
X4230833Y-24507976D01*
X4230833Y-24507976D02*
X4221310Y-24488928D01*
X4221310Y-24488928D02*
X4211786Y-24450833D01*
X4211786Y-24450833D02*
X4211786Y-24403214D01*
X4211786Y-24403214D02*
X4221310Y-24365119D01*
X4221310Y-24365119D02*
X4230833Y-24346071D01*
X4230833Y-24346071D02*
X4240357Y-24336548D01*
X4240357Y-24336548D02*
X4259405Y-24327024D01*
X4449881Y-24327024D02*
X4468929Y-24327024D01*
X4468929Y-24327024D02*
X4487976Y-24336548D01*
X4487976Y-24336548D02*
X4497500Y-24346071D01*
X4497500Y-24346071D02*
X4507024Y-24365119D01*
X4507024Y-24365119D02*
X4516548Y-24403214D01*
X4516548Y-24403214D02*
X4516548Y-24450833D01*
X4516548Y-24450833D02*
X4507024Y-24488928D01*
X4507024Y-24488928D02*
X4497500Y-24507976D01*
X4497500Y-24507976D02*
X4487976Y-24517500D01*
X4487976Y-24517500D02*
X4468929Y-24527024D01*
X4468929Y-24527024D02*
X4449881Y-24527024D01*
X4449881Y-24527024D02*
X4430833Y-24517500D01*
X4430833Y-24517500D02*
X4421310Y-24507976D01*
X4421310Y-24507976D02*
X4411786Y-24488928D01*
X4411786Y-24488928D02*
X4402262Y-24450833D01*
X4402262Y-24450833D02*
X4402262Y-24403214D01*
X4402262Y-24403214D02*
X4411786Y-24365119D01*
X4411786Y-24365119D02*
X4421310Y-24346071D01*
X4421310Y-24346071D02*
X4430833Y-24336548D01*
X4430833Y-24336548D02*
X4449881Y-24327024D01*
X4602262Y-24527024D02*
X4602262Y-24393690D01*
X4602262Y-24412738D02*
X4611786Y-24403214D01*
X4611786Y-24403214D02*
X4630833Y-24393690D01*
X4630833Y-24393690D02*
X4659405Y-24393690D01*
X4659405Y-24393690D02*
X4678452Y-24403214D01*
X4678452Y-24403214D02*
X4687976Y-24422262D01*
X4687976Y-24422262D02*
X4687976Y-24527024D01*
X4687976Y-24422262D02*
X4697500Y-24403214D01*
X4697500Y-24403214D02*
X4716548Y-24393690D01*
X4716548Y-24393690D02*
X4745119Y-24393690D01*
X4745119Y-24393690D02*
X4764167Y-24403214D01*
X4764167Y-24403214D02*
X4773691Y-24422262D01*
X4773691Y-24422262D02*
X4773691Y-24527024D01*
X4868929Y-24527024D02*
X4868929Y-24393690D01*
X4868929Y-24412738D02*
X4878452Y-24403214D01*
X4878452Y-24403214D02*
X4897500Y-24393690D01*
X4897500Y-24393690D02*
X4926072Y-24393690D01*
X4926072Y-24393690D02*
X4945119Y-24403214D01*
X4945119Y-24403214D02*
X4954643Y-24422262D01*
X4954643Y-24422262D02*
X4954643Y-24527024D01*
X4954643Y-24422262D02*
X4964167Y-24403214D01*
X4964167Y-24403214D02*
X4983214Y-24393690D01*
X4983214Y-24393690D02*
X5011786Y-24393690D01*
X5011786Y-24393690D02*
X5030833Y-24403214D01*
X5030833Y-24403214D02*
X5040357Y-24422262D01*
X5040357Y-24422262D02*
X5040357Y-24527024D01*
X5430833Y-24317500D02*
X5259405Y-24574643D01*
X5687976Y-24327024D02*
X5707024Y-24327024D01*
X5707024Y-24327024D02*
X5726072Y-24336548D01*
X5726072Y-24336548D02*
X5735595Y-24346071D01*
X5735595Y-24346071D02*
X5745119Y-24365119D01*
X5745119Y-24365119D02*
X5754643Y-24403214D01*
X5754643Y-24403214D02*
X5754643Y-24450833D01*
X5754643Y-24450833D02*
X5745119Y-24488928D01*
X5745119Y-24488928D02*
X5735595Y-24507976D01*
X5735595Y-24507976D02*
X5726072Y-24517500D01*
X5726072Y-24517500D02*
X5707024Y-24527024D01*
X5707024Y-24527024D02*
X5687976Y-24527024D01*
X5687976Y-24527024D02*
X5668929Y-24517500D01*
X5668929Y-24517500D02*
X5659405Y-24507976D01*
X5659405Y-24507976D02*
X5649881Y-24488928D01*
X5649881Y-24488928D02*
X5640357Y-24450833D01*
X5640357Y-24450833D02*
X5640357Y-24403214D01*
X5640357Y-24403214D02*
X5649881Y-24365119D01*
X5649881Y-24365119D02*
X5659405Y-24346071D01*
X5659405Y-24346071D02*
X5668929Y-24336548D01*
X5668929Y-24336548D02*
X5687976Y-24327024D01*
X5840357Y-24507976D02*
X5849881Y-24517500D01*
X5849881Y-24517500D02*
X5840357Y-24527024D01*
X5840357Y-24527024D02*
X5830833Y-24517500D01*
X5830833Y-24517500D02*
X5840357Y-24507976D01*
X5840357Y-24507976D02*
X5840357Y-24527024D01*
X5973691Y-24327024D02*
X5992738Y-24327024D01*
X5992738Y-24327024D02*
X6011786Y-24336548D01*
X6011786Y-24336548D02*
X6021310Y-24346071D01*
X6021310Y-24346071D02*
X6030833Y-24365119D01*
X6030833Y-24365119D02*
X6040357Y-24403214D01*
X6040357Y-24403214D02*
X6040357Y-24450833D01*
X6040357Y-24450833D02*
X6030833Y-24488928D01*
X6030833Y-24488928D02*
X6021310Y-24507976D01*
X6021310Y-24507976D02*
X6011786Y-24517500D01*
X6011786Y-24517500D02*
X5992738Y-24527024D01*
X5992738Y-24527024D02*
X5973691Y-24527024D01*
X5973691Y-24527024D02*
X5954643Y-24517500D01*
X5954643Y-24517500D02*
X5945119Y-24507976D01*
X5945119Y-24507976D02*
X5935595Y-24488928D01*
X5935595Y-24488928D02*
X5926072Y-24450833D01*
X5926072Y-24450833D02*
X5926072Y-24403214D01*
X5926072Y-24403214D02*
X5935595Y-24365119D01*
X5935595Y-24365119D02*
X5945119Y-24346071D01*
X5945119Y-24346071D02*
X5954643Y-24336548D01*
X5954643Y-24336548D02*
X5973691Y-24327024D01*
X6107024Y-24327024D02*
X6230833Y-24327024D01*
X6230833Y-24327024D02*
X6164167Y-24403214D01*
X6164167Y-24403214D02*
X6192738Y-24403214D01*
X6192738Y-24403214D02*
X6211786Y-24412738D01*
X6211786Y-24412738D02*
X6221310Y-24422262D01*
X6221310Y-24422262D02*
X6230833Y-24441309D01*
X6230833Y-24441309D02*
X6230833Y-24488928D01*
X6230833Y-24488928D02*
X6221310Y-24507976D01*
X6221310Y-24507976D02*
X6211786Y-24517500D01*
X6211786Y-24517500D02*
X6192738Y-24527024D01*
X6192738Y-24527024D02*
X6135595Y-24527024D01*
X6135595Y-24527024D02*
X6116548Y-24517500D01*
X6116548Y-24517500D02*
X6107024Y-24507976D01*
X6411786Y-24327024D02*
X6316548Y-24327024D01*
X6316548Y-24327024D02*
X6307024Y-24422262D01*
X6307024Y-24422262D02*
X6316548Y-24412738D01*
X6316548Y-24412738D02*
X6335595Y-24403214D01*
X6335595Y-24403214D02*
X6383214Y-24403214D01*
X6383214Y-24403214D02*
X6402262Y-24412738D01*
X6402262Y-24412738D02*
X6411786Y-24422262D01*
X6411786Y-24422262D02*
X6421310Y-24441309D01*
X6421310Y-24441309D02*
X6421310Y-24488928D01*
X6421310Y-24488928D02*
X6411786Y-24507976D01*
X6411786Y-24507976D02*
X6402262Y-24517500D01*
X6402262Y-24517500D02*
X6383214Y-24527024D01*
X6383214Y-24527024D02*
X6335595Y-24527024D01*
X6335595Y-24527024D02*
X6316548Y-24517500D01*
X6316548Y-24517500D02*
X6307024Y-24507976D01*
X6592738Y-24393690D02*
X6592738Y-24527024D01*
X6545119Y-24317500D02*
X6497500Y-24460357D01*
X6497500Y-24460357D02*
X6621310Y-24460357D01*
X6687976Y-24327024D02*
X6687976Y-24365119D01*
X6764167Y-24327024D02*
X6764167Y-24365119D01*
X7059405Y-24603214D02*
X7049881Y-24593690D01*
X7049881Y-24593690D02*
X7030834Y-24565119D01*
X7030834Y-24565119D02*
X7021310Y-24546071D01*
X7021310Y-24546071D02*
X7011786Y-24517500D01*
X7011786Y-24517500D02*
X7002262Y-24469881D01*
X7002262Y-24469881D02*
X7002262Y-24431786D01*
X7002262Y-24431786D02*
X7011786Y-24384167D01*
X7011786Y-24384167D02*
X7021310Y-24355595D01*
X7021310Y-24355595D02*
X7030834Y-24336548D01*
X7030834Y-24336548D02*
X7049881Y-24307976D01*
X7049881Y-24307976D02*
X7059405Y-24298452D01*
X7126072Y-24346071D02*
X7135595Y-24336548D01*
X7135595Y-24336548D02*
X7154643Y-24327024D01*
X7154643Y-24327024D02*
X7202262Y-24327024D01*
X7202262Y-24327024D02*
X7221310Y-24336548D01*
X7221310Y-24336548D02*
X7230834Y-24346071D01*
X7230834Y-24346071D02*
X7240357Y-24365119D01*
X7240357Y-24365119D02*
X7240357Y-24384167D01*
X7240357Y-24384167D02*
X7230834Y-24412738D01*
X7230834Y-24412738D02*
X7116548Y-24527024D01*
X7116548Y-24527024D02*
X7240357Y-24527024D01*
X7478453Y-24527024D02*
X7478453Y-24327024D01*
X7564167Y-24527024D02*
X7564167Y-24422262D01*
X7564167Y-24422262D02*
X7554643Y-24403214D01*
X7554643Y-24403214D02*
X7535596Y-24393690D01*
X7535596Y-24393690D02*
X7507024Y-24393690D01*
X7507024Y-24393690D02*
X7487976Y-24403214D01*
X7487976Y-24403214D02*
X7478453Y-24412738D01*
X7687976Y-24527024D02*
X7668929Y-24517500D01*
X7668929Y-24517500D02*
X7659405Y-24507976D01*
X7659405Y-24507976D02*
X7649881Y-24488928D01*
X7649881Y-24488928D02*
X7649881Y-24431786D01*
X7649881Y-24431786D02*
X7659405Y-24412738D01*
X7659405Y-24412738D02*
X7668929Y-24403214D01*
X7668929Y-24403214D02*
X7687976Y-24393690D01*
X7687976Y-24393690D02*
X7716548Y-24393690D01*
X7716548Y-24393690D02*
X7735596Y-24403214D01*
X7735596Y-24403214D02*
X7745119Y-24412738D01*
X7745119Y-24412738D02*
X7754643Y-24431786D01*
X7754643Y-24431786D02*
X7754643Y-24488928D01*
X7754643Y-24488928D02*
X7745119Y-24507976D01*
X7745119Y-24507976D02*
X7735596Y-24517500D01*
X7735596Y-24517500D02*
X7716548Y-24527024D01*
X7716548Y-24527024D02*
X7687976Y-24527024D01*
X7868929Y-24527024D02*
X7849881Y-24517500D01*
X7849881Y-24517500D02*
X7840357Y-24498452D01*
X7840357Y-24498452D02*
X7840357Y-24327024D01*
X8021310Y-24517500D02*
X8002262Y-24527024D01*
X8002262Y-24527024D02*
X7964167Y-24527024D01*
X7964167Y-24527024D02*
X7945119Y-24517500D01*
X7945119Y-24517500D02*
X7935596Y-24498452D01*
X7935596Y-24498452D02*
X7935596Y-24422262D01*
X7935596Y-24422262D02*
X7945119Y-24403214D01*
X7945119Y-24403214D02*
X7964167Y-24393690D01*
X7964167Y-24393690D02*
X8002262Y-24393690D01*
X8002262Y-24393690D02*
X8021310Y-24403214D01*
X8021310Y-24403214D02*
X8030834Y-24422262D01*
X8030834Y-24422262D02*
X8030834Y-24441309D01*
X8030834Y-24441309D02*
X7935596Y-24460357D01*
X8107024Y-24517500D02*
X8126072Y-24527024D01*
X8126072Y-24527024D02*
X8164167Y-24527024D01*
X8164167Y-24527024D02*
X8183215Y-24517500D01*
X8183215Y-24517500D02*
X8192738Y-24498452D01*
X8192738Y-24498452D02*
X8192738Y-24488928D01*
X8192738Y-24488928D02*
X8183215Y-24469881D01*
X8183215Y-24469881D02*
X8164167Y-24460357D01*
X8164167Y-24460357D02*
X8135596Y-24460357D01*
X8135596Y-24460357D02*
X8116548Y-24450833D01*
X8116548Y-24450833D02*
X8107024Y-24431786D01*
X8107024Y-24431786D02*
X8107024Y-24422262D01*
X8107024Y-24422262D02*
X8116548Y-24403214D01*
X8116548Y-24403214D02*
X8135596Y-24393690D01*
X8135596Y-24393690D02*
X8164167Y-24393690D01*
X8164167Y-24393690D02*
X8183215Y-24403214D01*
X8259405Y-24603214D02*
X8268929Y-24593690D01*
X8268929Y-24593690D02*
X8287977Y-24565119D01*
X8287977Y-24565119D02*
X8297500Y-24546071D01*
X8297500Y-24546071D02*
X8307024Y-24517500D01*
X8307024Y-24517500D02*
X8316548Y-24469881D01*
X8316548Y-24469881D02*
X8316548Y-24431786D01*
X8316548Y-24431786D02*
X8307024Y-24384167D01*
X8307024Y-24384167D02*
X8297500Y-24355595D01*
X8297500Y-24355595D02*
X8287977Y-24336548D01*
X8287977Y-24336548D02*
X8268929Y-24307976D01*
X8268929Y-24307976D02*
X8259405Y-24298452D01*
D16*
X3447500Y-24748500D02*
X3497500Y-24698500D01*
X3447500Y-24648500D01*
X3397500Y-24698500D01*
X3447500Y-24748500D01*
D11*
X3849881Y-24791024D02*
X3735595Y-24791024D01*
X3792738Y-24791024D02*
X3792738Y-24591024D01*
X3792738Y-24591024D02*
X3773690Y-24619595D01*
X3773690Y-24619595D02*
X3754643Y-24638643D01*
X3754643Y-24638643D02*
X3735595Y-24648167D01*
X3935595Y-24771976D02*
X3945119Y-24781500D01*
X3945119Y-24781500D02*
X3935595Y-24791024D01*
X3935595Y-24791024D02*
X3926071Y-24781500D01*
X3926071Y-24781500D02*
X3935595Y-24771976D01*
X3935595Y-24771976D02*
X3935595Y-24791024D01*
X4068928Y-24591024D02*
X4087976Y-24591024D01*
X4087976Y-24591024D02*
X4107024Y-24600548D01*
X4107024Y-24600548D02*
X4116548Y-24610071D01*
X4116548Y-24610071D02*
X4126071Y-24629119D01*
X4126071Y-24629119D02*
X4135595Y-24667214D01*
X4135595Y-24667214D02*
X4135595Y-24714833D01*
X4135595Y-24714833D02*
X4126071Y-24752928D01*
X4126071Y-24752928D02*
X4116548Y-24771976D01*
X4116548Y-24771976D02*
X4107024Y-24781500D01*
X4107024Y-24781500D02*
X4087976Y-24791024D01*
X4087976Y-24791024D02*
X4068928Y-24791024D01*
X4068928Y-24791024D02*
X4049881Y-24781500D01*
X4049881Y-24781500D02*
X4040357Y-24771976D01*
X4040357Y-24771976D02*
X4030833Y-24752928D01*
X4030833Y-24752928D02*
X4021309Y-24714833D01*
X4021309Y-24714833D02*
X4021309Y-24667214D01*
X4021309Y-24667214D02*
X4030833Y-24629119D01*
X4030833Y-24629119D02*
X4040357Y-24610071D01*
X4040357Y-24610071D02*
X4049881Y-24600548D01*
X4049881Y-24600548D02*
X4068928Y-24591024D01*
X4259405Y-24591024D02*
X4278452Y-24591024D01*
X4278452Y-24591024D02*
X4297500Y-24600548D01*
X4297500Y-24600548D02*
X4307024Y-24610071D01*
X4307024Y-24610071D02*
X4316548Y-24629119D01*
X4316548Y-24629119D02*
X4326071Y-24667214D01*
X4326071Y-24667214D02*
X4326071Y-24714833D01*
X4326071Y-24714833D02*
X4316548Y-24752928D01*
X4316548Y-24752928D02*
X4307024Y-24771976D01*
X4307024Y-24771976D02*
X4297500Y-24781500D01*
X4297500Y-24781500D02*
X4278452Y-24791024D01*
X4278452Y-24791024D02*
X4259405Y-24791024D01*
X4259405Y-24791024D02*
X4240357Y-24781500D01*
X4240357Y-24781500D02*
X4230833Y-24771976D01*
X4230833Y-24771976D02*
X4221310Y-24752928D01*
X4221310Y-24752928D02*
X4211786Y-24714833D01*
X4211786Y-24714833D02*
X4211786Y-24667214D01*
X4211786Y-24667214D02*
X4221310Y-24629119D01*
X4221310Y-24629119D02*
X4230833Y-24610071D01*
X4230833Y-24610071D02*
X4240357Y-24600548D01*
X4240357Y-24600548D02*
X4259405Y-24591024D01*
X4449881Y-24591024D02*
X4468929Y-24591024D01*
X4468929Y-24591024D02*
X4487976Y-24600548D01*
X4487976Y-24600548D02*
X4497500Y-24610071D01*
X4497500Y-24610071D02*
X4507024Y-24629119D01*
X4507024Y-24629119D02*
X4516548Y-24667214D01*
X4516548Y-24667214D02*
X4516548Y-24714833D01*
X4516548Y-24714833D02*
X4507024Y-24752928D01*
X4507024Y-24752928D02*
X4497500Y-24771976D01*
X4497500Y-24771976D02*
X4487976Y-24781500D01*
X4487976Y-24781500D02*
X4468929Y-24791024D01*
X4468929Y-24791024D02*
X4449881Y-24791024D01*
X4449881Y-24791024D02*
X4430833Y-24781500D01*
X4430833Y-24781500D02*
X4421310Y-24771976D01*
X4421310Y-24771976D02*
X4411786Y-24752928D01*
X4411786Y-24752928D02*
X4402262Y-24714833D01*
X4402262Y-24714833D02*
X4402262Y-24667214D01*
X4402262Y-24667214D02*
X4411786Y-24629119D01*
X4411786Y-24629119D02*
X4421310Y-24610071D01*
X4421310Y-24610071D02*
X4430833Y-24600548D01*
X4430833Y-24600548D02*
X4449881Y-24591024D01*
X4602262Y-24791024D02*
X4602262Y-24657690D01*
X4602262Y-24676738D02*
X4611786Y-24667214D01*
X4611786Y-24667214D02*
X4630833Y-24657690D01*
X4630833Y-24657690D02*
X4659405Y-24657690D01*
X4659405Y-24657690D02*
X4678452Y-24667214D01*
X4678452Y-24667214D02*
X4687976Y-24686262D01*
X4687976Y-24686262D02*
X4687976Y-24791024D01*
X4687976Y-24686262D02*
X4697500Y-24667214D01*
X4697500Y-24667214D02*
X4716548Y-24657690D01*
X4716548Y-24657690D02*
X4745119Y-24657690D01*
X4745119Y-24657690D02*
X4764167Y-24667214D01*
X4764167Y-24667214D02*
X4773691Y-24686262D01*
X4773691Y-24686262D02*
X4773691Y-24791024D01*
X4868929Y-24791024D02*
X4868929Y-24657690D01*
X4868929Y-24676738D02*
X4878452Y-24667214D01*
X4878452Y-24667214D02*
X4897500Y-24657690D01*
X4897500Y-24657690D02*
X4926072Y-24657690D01*
X4926072Y-24657690D02*
X4945119Y-24667214D01*
X4945119Y-24667214D02*
X4954643Y-24686262D01*
X4954643Y-24686262D02*
X4954643Y-24791024D01*
X4954643Y-24686262D02*
X4964167Y-24667214D01*
X4964167Y-24667214D02*
X4983214Y-24657690D01*
X4983214Y-24657690D02*
X5011786Y-24657690D01*
X5011786Y-24657690D02*
X5030833Y-24667214D01*
X5030833Y-24667214D02*
X5040357Y-24686262D01*
X5040357Y-24686262D02*
X5040357Y-24791024D01*
X5430833Y-24581500D02*
X5259405Y-24838643D01*
X5687976Y-24591024D02*
X5707024Y-24591024D01*
X5707024Y-24591024D02*
X5726072Y-24600548D01*
X5726072Y-24600548D02*
X5735595Y-24610071D01*
X5735595Y-24610071D02*
X5745119Y-24629119D01*
X5745119Y-24629119D02*
X5754643Y-24667214D01*
X5754643Y-24667214D02*
X5754643Y-24714833D01*
X5754643Y-24714833D02*
X5745119Y-24752928D01*
X5745119Y-24752928D02*
X5735595Y-24771976D01*
X5735595Y-24771976D02*
X5726072Y-24781500D01*
X5726072Y-24781500D02*
X5707024Y-24791024D01*
X5707024Y-24791024D02*
X5687976Y-24791024D01*
X5687976Y-24791024D02*
X5668929Y-24781500D01*
X5668929Y-24781500D02*
X5659405Y-24771976D01*
X5659405Y-24771976D02*
X5649881Y-24752928D01*
X5649881Y-24752928D02*
X5640357Y-24714833D01*
X5640357Y-24714833D02*
X5640357Y-24667214D01*
X5640357Y-24667214D02*
X5649881Y-24629119D01*
X5649881Y-24629119D02*
X5659405Y-24610071D01*
X5659405Y-24610071D02*
X5668929Y-24600548D01*
X5668929Y-24600548D02*
X5687976Y-24591024D01*
X5840357Y-24771976D02*
X5849881Y-24781500D01*
X5849881Y-24781500D02*
X5840357Y-24791024D01*
X5840357Y-24791024D02*
X5830833Y-24781500D01*
X5830833Y-24781500D02*
X5840357Y-24771976D01*
X5840357Y-24771976D02*
X5840357Y-24791024D01*
X5973691Y-24591024D02*
X5992738Y-24591024D01*
X5992738Y-24591024D02*
X6011786Y-24600548D01*
X6011786Y-24600548D02*
X6021310Y-24610071D01*
X6021310Y-24610071D02*
X6030833Y-24629119D01*
X6030833Y-24629119D02*
X6040357Y-24667214D01*
X6040357Y-24667214D02*
X6040357Y-24714833D01*
X6040357Y-24714833D02*
X6030833Y-24752928D01*
X6030833Y-24752928D02*
X6021310Y-24771976D01*
X6021310Y-24771976D02*
X6011786Y-24781500D01*
X6011786Y-24781500D02*
X5992738Y-24791024D01*
X5992738Y-24791024D02*
X5973691Y-24791024D01*
X5973691Y-24791024D02*
X5954643Y-24781500D01*
X5954643Y-24781500D02*
X5945119Y-24771976D01*
X5945119Y-24771976D02*
X5935595Y-24752928D01*
X5935595Y-24752928D02*
X5926072Y-24714833D01*
X5926072Y-24714833D02*
X5926072Y-24667214D01*
X5926072Y-24667214D02*
X5935595Y-24629119D01*
X5935595Y-24629119D02*
X5945119Y-24610071D01*
X5945119Y-24610071D02*
X5954643Y-24600548D01*
X5954643Y-24600548D02*
X5973691Y-24591024D01*
X6107024Y-24591024D02*
X6230833Y-24591024D01*
X6230833Y-24591024D02*
X6164167Y-24667214D01*
X6164167Y-24667214D02*
X6192738Y-24667214D01*
X6192738Y-24667214D02*
X6211786Y-24676738D01*
X6211786Y-24676738D02*
X6221310Y-24686262D01*
X6221310Y-24686262D02*
X6230833Y-24705309D01*
X6230833Y-24705309D02*
X6230833Y-24752928D01*
X6230833Y-24752928D02*
X6221310Y-24771976D01*
X6221310Y-24771976D02*
X6211786Y-24781500D01*
X6211786Y-24781500D02*
X6192738Y-24791024D01*
X6192738Y-24791024D02*
X6135595Y-24791024D01*
X6135595Y-24791024D02*
X6116548Y-24781500D01*
X6116548Y-24781500D02*
X6107024Y-24771976D01*
X6326072Y-24791024D02*
X6364167Y-24791024D01*
X6364167Y-24791024D02*
X6383214Y-24781500D01*
X6383214Y-24781500D02*
X6392738Y-24771976D01*
X6392738Y-24771976D02*
X6411786Y-24743405D01*
X6411786Y-24743405D02*
X6421310Y-24705309D01*
X6421310Y-24705309D02*
X6421310Y-24629119D01*
X6421310Y-24629119D02*
X6411786Y-24610071D01*
X6411786Y-24610071D02*
X6402262Y-24600548D01*
X6402262Y-24600548D02*
X6383214Y-24591024D01*
X6383214Y-24591024D02*
X6345119Y-24591024D01*
X6345119Y-24591024D02*
X6326072Y-24600548D01*
X6326072Y-24600548D02*
X6316548Y-24610071D01*
X6316548Y-24610071D02*
X6307024Y-24629119D01*
X6307024Y-24629119D02*
X6307024Y-24676738D01*
X6307024Y-24676738D02*
X6316548Y-24695786D01*
X6316548Y-24695786D02*
X6326072Y-24705309D01*
X6326072Y-24705309D02*
X6345119Y-24714833D01*
X6345119Y-24714833D02*
X6383214Y-24714833D01*
X6383214Y-24714833D02*
X6402262Y-24705309D01*
X6402262Y-24705309D02*
X6411786Y-24695786D01*
X6411786Y-24695786D02*
X6421310Y-24676738D01*
X6592738Y-24657690D02*
X6592738Y-24791024D01*
X6545119Y-24581500D02*
X6497500Y-24724357D01*
X6497500Y-24724357D02*
X6621310Y-24724357D01*
X6687976Y-24591024D02*
X6687976Y-24629119D01*
X6764167Y-24591024D02*
X6764167Y-24629119D01*
X7059405Y-24867214D02*
X7049881Y-24857690D01*
X7049881Y-24857690D02*
X7030834Y-24829119D01*
X7030834Y-24829119D02*
X7021310Y-24810071D01*
X7021310Y-24810071D02*
X7011786Y-24781500D01*
X7011786Y-24781500D02*
X7002262Y-24733881D01*
X7002262Y-24733881D02*
X7002262Y-24695786D01*
X7002262Y-24695786D02*
X7011786Y-24648167D01*
X7011786Y-24648167D02*
X7021310Y-24619595D01*
X7021310Y-24619595D02*
X7030834Y-24600548D01*
X7030834Y-24600548D02*
X7049881Y-24571976D01*
X7049881Y-24571976D02*
X7059405Y-24562452D01*
X7240357Y-24791024D02*
X7126072Y-24791024D01*
X7183214Y-24791024D02*
X7183214Y-24591024D01*
X7183214Y-24591024D02*
X7164167Y-24619595D01*
X7164167Y-24619595D02*
X7145119Y-24638643D01*
X7145119Y-24638643D02*
X7126072Y-24648167D01*
X7335595Y-24791024D02*
X7373691Y-24791024D01*
X7373691Y-24791024D02*
X7392738Y-24781500D01*
X7392738Y-24781500D02*
X7402262Y-24771976D01*
X7402262Y-24771976D02*
X7421310Y-24743405D01*
X7421310Y-24743405D02*
X7430834Y-24705309D01*
X7430834Y-24705309D02*
X7430834Y-24629119D01*
X7430834Y-24629119D02*
X7421310Y-24610071D01*
X7421310Y-24610071D02*
X7411786Y-24600548D01*
X7411786Y-24600548D02*
X7392738Y-24591024D01*
X7392738Y-24591024D02*
X7354643Y-24591024D01*
X7354643Y-24591024D02*
X7335595Y-24600548D01*
X7335595Y-24600548D02*
X7326072Y-24610071D01*
X7326072Y-24610071D02*
X7316548Y-24629119D01*
X7316548Y-24629119D02*
X7316548Y-24676738D01*
X7316548Y-24676738D02*
X7326072Y-24695786D01*
X7326072Y-24695786D02*
X7335595Y-24705309D01*
X7335595Y-24705309D02*
X7354643Y-24714833D01*
X7354643Y-24714833D02*
X7392738Y-24714833D01*
X7392738Y-24714833D02*
X7411786Y-24705309D01*
X7411786Y-24705309D02*
X7421310Y-24695786D01*
X7421310Y-24695786D02*
X7430834Y-24676738D01*
X7621310Y-24791024D02*
X7507024Y-24791024D01*
X7564167Y-24791024D02*
X7564167Y-24591024D01*
X7564167Y-24591024D02*
X7545119Y-24619595D01*
X7545119Y-24619595D02*
X7526072Y-24638643D01*
X7526072Y-24638643D02*
X7507024Y-24648167D01*
X7859405Y-24791024D02*
X7859405Y-24591024D01*
X7945119Y-24791024D02*
X7945119Y-24686262D01*
X7945119Y-24686262D02*
X7935596Y-24667214D01*
X7935596Y-24667214D02*
X7916548Y-24657690D01*
X7916548Y-24657690D02*
X7887976Y-24657690D01*
X7887976Y-24657690D02*
X7868929Y-24667214D01*
X7868929Y-24667214D02*
X7859405Y-24676738D01*
X8068929Y-24791024D02*
X8049881Y-24781500D01*
X8049881Y-24781500D02*
X8040357Y-24771976D01*
X8040357Y-24771976D02*
X8030834Y-24752928D01*
X8030834Y-24752928D02*
X8030834Y-24695786D01*
X8030834Y-24695786D02*
X8040357Y-24676738D01*
X8040357Y-24676738D02*
X8049881Y-24667214D01*
X8049881Y-24667214D02*
X8068929Y-24657690D01*
X8068929Y-24657690D02*
X8097500Y-24657690D01*
X8097500Y-24657690D02*
X8116548Y-24667214D01*
X8116548Y-24667214D02*
X8126072Y-24676738D01*
X8126072Y-24676738D02*
X8135596Y-24695786D01*
X8135596Y-24695786D02*
X8135596Y-24752928D01*
X8135596Y-24752928D02*
X8126072Y-24771976D01*
X8126072Y-24771976D02*
X8116548Y-24781500D01*
X8116548Y-24781500D02*
X8097500Y-24791024D01*
X8097500Y-24791024D02*
X8068929Y-24791024D01*
X8249881Y-24791024D02*
X8230834Y-24781500D01*
X8230834Y-24781500D02*
X8221310Y-24762452D01*
X8221310Y-24762452D02*
X8221310Y-24591024D01*
X8402262Y-24781500D02*
X8383215Y-24791024D01*
X8383215Y-24791024D02*
X8345119Y-24791024D01*
X8345119Y-24791024D02*
X8326072Y-24781500D01*
X8326072Y-24781500D02*
X8316548Y-24762452D01*
X8316548Y-24762452D02*
X8316548Y-24686262D01*
X8316548Y-24686262D02*
X8326072Y-24667214D01*
X8326072Y-24667214D02*
X8345119Y-24657690D01*
X8345119Y-24657690D02*
X8383215Y-24657690D01*
X8383215Y-24657690D02*
X8402262Y-24667214D01*
X8402262Y-24667214D02*
X8411786Y-24686262D01*
X8411786Y-24686262D02*
X8411786Y-24705309D01*
X8411786Y-24705309D02*
X8316548Y-24724357D01*
X8487977Y-24781500D02*
X8507024Y-24791024D01*
X8507024Y-24791024D02*
X8545119Y-24791024D01*
X8545119Y-24791024D02*
X8564167Y-24781500D01*
X8564167Y-24781500D02*
X8573691Y-24762452D01*
X8573691Y-24762452D02*
X8573691Y-24752928D01*
X8573691Y-24752928D02*
X8564167Y-24733881D01*
X8564167Y-24733881D02*
X8545119Y-24724357D01*
X8545119Y-24724357D02*
X8516548Y-24724357D01*
X8516548Y-24724357D02*
X8497500Y-24714833D01*
X8497500Y-24714833D02*
X8487977Y-24695786D01*
X8487977Y-24695786D02*
X8487977Y-24686262D01*
X8487977Y-24686262D02*
X8497500Y-24667214D01*
X8497500Y-24667214D02*
X8516548Y-24657690D01*
X8516548Y-24657690D02*
X8545119Y-24657690D01*
X8545119Y-24657690D02*
X8564167Y-24667214D01*
X8640358Y-24867214D02*
X8649881Y-24857690D01*
X8649881Y-24857690D02*
X8668929Y-24829119D01*
X8668929Y-24829119D02*
X8678453Y-24810071D01*
X8678453Y-24810071D02*
X8687977Y-24781500D01*
X8687977Y-24781500D02*
X8697500Y-24733881D01*
X8697500Y-24733881D02*
X8697500Y-24695786D01*
X8697500Y-24695786D02*
X8687977Y-24648167D01*
X8687977Y-24648167D02*
X8678453Y-24619595D01*
X8678453Y-24619595D02*
X8668929Y-24600548D01*
X8668929Y-24600548D02*
X8649881Y-24571976D01*
X8649881Y-24571976D02*
X8640358Y-24562452D01*
D17*
X3395500Y-24911500D02*
X3497500Y-25013500D01*
X3497500Y-24911500D02*
X3395500Y-25013500D01*
X3497500Y-24962500D02*
G75*
G03*
X3497500Y-24962500I-51000J0D01*
G01*
D11*
X3849881Y-25055024D02*
X3735595Y-25055024D01*
X3792738Y-25055024D02*
X3792738Y-24855024D01*
X3792738Y-24855024D02*
X3773690Y-24883595D01*
X3773690Y-24883595D02*
X3754643Y-24902643D01*
X3754643Y-24902643D02*
X3735595Y-24912167D01*
X3935595Y-25035976D02*
X3945119Y-25045500D01*
X3945119Y-25045500D02*
X3935595Y-25055024D01*
X3935595Y-25055024D02*
X3926071Y-25045500D01*
X3926071Y-25045500D02*
X3935595Y-25035976D01*
X3935595Y-25035976D02*
X3935595Y-25055024D01*
X4068928Y-24855024D02*
X4087976Y-24855024D01*
X4087976Y-24855024D02*
X4107024Y-24864548D01*
X4107024Y-24864548D02*
X4116548Y-24874071D01*
X4116548Y-24874071D02*
X4126071Y-24893119D01*
X4126071Y-24893119D02*
X4135595Y-24931214D01*
X4135595Y-24931214D02*
X4135595Y-24978833D01*
X4135595Y-24978833D02*
X4126071Y-25016928D01*
X4126071Y-25016928D02*
X4116548Y-25035976D01*
X4116548Y-25035976D02*
X4107024Y-25045500D01*
X4107024Y-25045500D02*
X4087976Y-25055024D01*
X4087976Y-25055024D02*
X4068928Y-25055024D01*
X4068928Y-25055024D02*
X4049881Y-25045500D01*
X4049881Y-25045500D02*
X4040357Y-25035976D01*
X4040357Y-25035976D02*
X4030833Y-25016928D01*
X4030833Y-25016928D02*
X4021309Y-24978833D01*
X4021309Y-24978833D02*
X4021309Y-24931214D01*
X4021309Y-24931214D02*
X4030833Y-24893119D01*
X4030833Y-24893119D02*
X4040357Y-24874071D01*
X4040357Y-24874071D02*
X4049881Y-24864548D01*
X4049881Y-24864548D02*
X4068928Y-24855024D01*
X4211786Y-24874071D02*
X4221310Y-24864548D01*
X4221310Y-24864548D02*
X4240357Y-24855024D01*
X4240357Y-24855024D02*
X4287976Y-24855024D01*
X4287976Y-24855024D02*
X4307024Y-24864548D01*
X4307024Y-24864548D02*
X4316548Y-24874071D01*
X4316548Y-24874071D02*
X4326071Y-24893119D01*
X4326071Y-24893119D02*
X4326071Y-24912167D01*
X4326071Y-24912167D02*
X4316548Y-24940738D01*
X4316548Y-24940738D02*
X4202262Y-25055024D01*
X4202262Y-25055024D02*
X4326071Y-25055024D01*
X4449881Y-24855024D02*
X4468929Y-24855024D01*
X4468929Y-24855024D02*
X4487976Y-24864548D01*
X4487976Y-24864548D02*
X4497500Y-24874071D01*
X4497500Y-24874071D02*
X4507024Y-24893119D01*
X4507024Y-24893119D02*
X4516548Y-24931214D01*
X4516548Y-24931214D02*
X4516548Y-24978833D01*
X4516548Y-24978833D02*
X4507024Y-25016928D01*
X4507024Y-25016928D02*
X4497500Y-25035976D01*
X4497500Y-25035976D02*
X4487976Y-25045500D01*
X4487976Y-25045500D02*
X4468929Y-25055024D01*
X4468929Y-25055024D02*
X4449881Y-25055024D01*
X4449881Y-25055024D02*
X4430833Y-25045500D01*
X4430833Y-25045500D02*
X4421310Y-25035976D01*
X4421310Y-25035976D02*
X4411786Y-25016928D01*
X4411786Y-25016928D02*
X4402262Y-24978833D01*
X4402262Y-24978833D02*
X4402262Y-24931214D01*
X4402262Y-24931214D02*
X4411786Y-24893119D01*
X4411786Y-24893119D02*
X4421310Y-24874071D01*
X4421310Y-24874071D02*
X4430833Y-24864548D01*
X4430833Y-24864548D02*
X4449881Y-24855024D01*
X4602262Y-25055024D02*
X4602262Y-24921690D01*
X4602262Y-24940738D02*
X4611786Y-24931214D01*
X4611786Y-24931214D02*
X4630833Y-24921690D01*
X4630833Y-24921690D02*
X4659405Y-24921690D01*
X4659405Y-24921690D02*
X4678452Y-24931214D01*
X4678452Y-24931214D02*
X4687976Y-24950262D01*
X4687976Y-24950262D02*
X4687976Y-25055024D01*
X4687976Y-24950262D02*
X4697500Y-24931214D01*
X4697500Y-24931214D02*
X4716548Y-24921690D01*
X4716548Y-24921690D02*
X4745119Y-24921690D01*
X4745119Y-24921690D02*
X4764167Y-24931214D01*
X4764167Y-24931214D02*
X4773691Y-24950262D01*
X4773691Y-24950262D02*
X4773691Y-25055024D01*
X4868929Y-25055024D02*
X4868929Y-24921690D01*
X4868929Y-24940738D02*
X4878452Y-24931214D01*
X4878452Y-24931214D02*
X4897500Y-24921690D01*
X4897500Y-24921690D02*
X4926072Y-24921690D01*
X4926072Y-24921690D02*
X4945119Y-24931214D01*
X4945119Y-24931214D02*
X4954643Y-24950262D01*
X4954643Y-24950262D02*
X4954643Y-25055024D01*
X4954643Y-24950262D02*
X4964167Y-24931214D01*
X4964167Y-24931214D02*
X4983214Y-24921690D01*
X4983214Y-24921690D02*
X5011786Y-24921690D01*
X5011786Y-24921690D02*
X5030833Y-24931214D01*
X5030833Y-24931214D02*
X5040357Y-24950262D01*
X5040357Y-24950262D02*
X5040357Y-25055024D01*
X5430833Y-24845500D02*
X5259405Y-25102643D01*
X5687976Y-24855024D02*
X5707024Y-24855024D01*
X5707024Y-24855024D02*
X5726072Y-24864548D01*
X5726072Y-24864548D02*
X5735595Y-24874071D01*
X5735595Y-24874071D02*
X5745119Y-24893119D01*
X5745119Y-24893119D02*
X5754643Y-24931214D01*
X5754643Y-24931214D02*
X5754643Y-24978833D01*
X5754643Y-24978833D02*
X5745119Y-25016928D01*
X5745119Y-25016928D02*
X5735595Y-25035976D01*
X5735595Y-25035976D02*
X5726072Y-25045500D01*
X5726072Y-25045500D02*
X5707024Y-25055024D01*
X5707024Y-25055024D02*
X5687976Y-25055024D01*
X5687976Y-25055024D02*
X5668929Y-25045500D01*
X5668929Y-25045500D02*
X5659405Y-25035976D01*
X5659405Y-25035976D02*
X5649881Y-25016928D01*
X5649881Y-25016928D02*
X5640357Y-24978833D01*
X5640357Y-24978833D02*
X5640357Y-24931214D01*
X5640357Y-24931214D02*
X5649881Y-24893119D01*
X5649881Y-24893119D02*
X5659405Y-24874071D01*
X5659405Y-24874071D02*
X5668929Y-24864548D01*
X5668929Y-24864548D02*
X5687976Y-24855024D01*
X5840357Y-25035976D02*
X5849881Y-25045500D01*
X5849881Y-25045500D02*
X5840357Y-25055024D01*
X5840357Y-25055024D02*
X5830833Y-25045500D01*
X5830833Y-25045500D02*
X5840357Y-25035976D01*
X5840357Y-25035976D02*
X5840357Y-25055024D01*
X5973691Y-24855024D02*
X5992738Y-24855024D01*
X5992738Y-24855024D02*
X6011786Y-24864548D01*
X6011786Y-24864548D02*
X6021310Y-24874071D01*
X6021310Y-24874071D02*
X6030833Y-24893119D01*
X6030833Y-24893119D02*
X6040357Y-24931214D01*
X6040357Y-24931214D02*
X6040357Y-24978833D01*
X6040357Y-24978833D02*
X6030833Y-25016928D01*
X6030833Y-25016928D02*
X6021310Y-25035976D01*
X6021310Y-25035976D02*
X6011786Y-25045500D01*
X6011786Y-25045500D02*
X5992738Y-25055024D01*
X5992738Y-25055024D02*
X5973691Y-25055024D01*
X5973691Y-25055024D02*
X5954643Y-25045500D01*
X5954643Y-25045500D02*
X5945119Y-25035976D01*
X5945119Y-25035976D02*
X5935595Y-25016928D01*
X5935595Y-25016928D02*
X5926072Y-24978833D01*
X5926072Y-24978833D02*
X5926072Y-24931214D01*
X5926072Y-24931214D02*
X5935595Y-24893119D01*
X5935595Y-24893119D02*
X5945119Y-24874071D01*
X5945119Y-24874071D02*
X5954643Y-24864548D01*
X5954643Y-24864548D02*
X5973691Y-24855024D01*
X6211786Y-24921690D02*
X6211786Y-25055024D01*
X6164167Y-24845500D02*
X6116548Y-24988357D01*
X6116548Y-24988357D02*
X6240357Y-24988357D01*
X6354643Y-24855024D02*
X6373691Y-24855024D01*
X6373691Y-24855024D02*
X6392738Y-24864548D01*
X6392738Y-24864548D02*
X6402262Y-24874071D01*
X6402262Y-24874071D02*
X6411786Y-24893119D01*
X6411786Y-24893119D02*
X6421310Y-24931214D01*
X6421310Y-24931214D02*
X6421310Y-24978833D01*
X6421310Y-24978833D02*
X6411786Y-25016928D01*
X6411786Y-25016928D02*
X6402262Y-25035976D01*
X6402262Y-25035976D02*
X6392738Y-25045500D01*
X6392738Y-25045500D02*
X6373691Y-25055024D01*
X6373691Y-25055024D02*
X6354643Y-25055024D01*
X6354643Y-25055024D02*
X6335595Y-25045500D01*
X6335595Y-25045500D02*
X6326072Y-25035976D01*
X6326072Y-25035976D02*
X6316548Y-25016928D01*
X6316548Y-25016928D02*
X6307024Y-24978833D01*
X6307024Y-24978833D02*
X6307024Y-24931214D01*
X6307024Y-24931214D02*
X6316548Y-24893119D01*
X6316548Y-24893119D02*
X6326072Y-24874071D01*
X6326072Y-24874071D02*
X6335595Y-24864548D01*
X6335595Y-24864548D02*
X6354643Y-24855024D01*
X6497500Y-24874071D02*
X6507024Y-24864548D01*
X6507024Y-24864548D02*
X6526072Y-24855024D01*
X6526072Y-24855024D02*
X6573691Y-24855024D01*
X6573691Y-24855024D02*
X6592738Y-24864548D01*
X6592738Y-24864548D02*
X6602262Y-24874071D01*
X6602262Y-24874071D02*
X6611786Y-24893119D01*
X6611786Y-24893119D02*
X6611786Y-24912167D01*
X6611786Y-24912167D02*
X6602262Y-24940738D01*
X6602262Y-24940738D02*
X6487976Y-25055024D01*
X6487976Y-25055024D02*
X6611786Y-25055024D01*
X6687976Y-24855024D02*
X6687976Y-24893119D01*
X6764167Y-24855024D02*
X6764167Y-24893119D01*
X7059405Y-25131214D02*
X7049881Y-25121690D01*
X7049881Y-25121690D02*
X7030834Y-25093119D01*
X7030834Y-25093119D02*
X7021310Y-25074071D01*
X7021310Y-25074071D02*
X7011786Y-25045500D01*
X7011786Y-25045500D02*
X7002262Y-24997881D01*
X7002262Y-24997881D02*
X7002262Y-24959786D01*
X7002262Y-24959786D02*
X7011786Y-24912167D01*
X7011786Y-24912167D02*
X7021310Y-24883595D01*
X7021310Y-24883595D02*
X7030834Y-24864548D01*
X7030834Y-24864548D02*
X7049881Y-24835976D01*
X7049881Y-24835976D02*
X7059405Y-24826452D01*
X7221310Y-24921690D02*
X7221310Y-25055024D01*
X7173691Y-24845500D02*
X7126072Y-24988357D01*
X7126072Y-24988357D02*
X7249881Y-24988357D01*
X7307024Y-24855024D02*
X7430834Y-24855024D01*
X7430834Y-24855024D02*
X7364167Y-24931214D01*
X7364167Y-24931214D02*
X7392738Y-24931214D01*
X7392738Y-24931214D02*
X7411786Y-24940738D01*
X7411786Y-24940738D02*
X7421310Y-24950262D01*
X7421310Y-24950262D02*
X7430834Y-24969309D01*
X7430834Y-24969309D02*
X7430834Y-25016928D01*
X7430834Y-25016928D02*
X7421310Y-25035976D01*
X7421310Y-25035976D02*
X7411786Y-25045500D01*
X7411786Y-25045500D02*
X7392738Y-25055024D01*
X7392738Y-25055024D02*
X7335595Y-25055024D01*
X7335595Y-25055024D02*
X7316548Y-25045500D01*
X7316548Y-25045500D02*
X7307024Y-25035976D01*
X7668929Y-25055024D02*
X7668929Y-24855024D01*
X7754643Y-25055024D02*
X7754643Y-24950262D01*
X7754643Y-24950262D02*
X7745119Y-24931214D01*
X7745119Y-24931214D02*
X7726072Y-24921690D01*
X7726072Y-24921690D02*
X7697500Y-24921690D01*
X7697500Y-24921690D02*
X7678453Y-24931214D01*
X7678453Y-24931214D02*
X7668929Y-24940738D01*
X7878453Y-25055024D02*
X7859405Y-25045500D01*
X7859405Y-25045500D02*
X7849881Y-25035976D01*
X7849881Y-25035976D02*
X7840357Y-25016928D01*
X7840357Y-25016928D02*
X7840357Y-24959786D01*
X7840357Y-24959786D02*
X7849881Y-24940738D01*
X7849881Y-24940738D02*
X7859405Y-24931214D01*
X7859405Y-24931214D02*
X7878453Y-24921690D01*
X7878453Y-24921690D02*
X7907024Y-24921690D01*
X7907024Y-24921690D02*
X7926072Y-24931214D01*
X7926072Y-24931214D02*
X7935596Y-24940738D01*
X7935596Y-24940738D02*
X7945119Y-24959786D01*
X7945119Y-24959786D02*
X7945119Y-25016928D01*
X7945119Y-25016928D02*
X7935596Y-25035976D01*
X7935596Y-25035976D02*
X7926072Y-25045500D01*
X7926072Y-25045500D02*
X7907024Y-25055024D01*
X7907024Y-25055024D02*
X7878453Y-25055024D01*
X8059405Y-25055024D02*
X8040357Y-25045500D01*
X8040357Y-25045500D02*
X8030834Y-25026452D01*
X8030834Y-25026452D02*
X8030834Y-24855024D01*
X8211786Y-25045500D02*
X8192738Y-25055024D01*
X8192738Y-25055024D02*
X8154643Y-25055024D01*
X8154643Y-25055024D02*
X8135596Y-25045500D01*
X8135596Y-25045500D02*
X8126072Y-25026452D01*
X8126072Y-25026452D02*
X8126072Y-24950262D01*
X8126072Y-24950262D02*
X8135596Y-24931214D01*
X8135596Y-24931214D02*
X8154643Y-24921690D01*
X8154643Y-24921690D02*
X8192738Y-24921690D01*
X8192738Y-24921690D02*
X8211786Y-24931214D01*
X8211786Y-24931214D02*
X8221310Y-24950262D01*
X8221310Y-24950262D02*
X8221310Y-24969309D01*
X8221310Y-24969309D02*
X8126072Y-24988357D01*
X8297500Y-25045500D02*
X8316548Y-25055024D01*
X8316548Y-25055024D02*
X8354643Y-25055024D01*
X8354643Y-25055024D02*
X8373691Y-25045500D01*
X8373691Y-25045500D02*
X8383215Y-25026452D01*
X8383215Y-25026452D02*
X8383215Y-25016928D01*
X8383215Y-25016928D02*
X8373691Y-24997881D01*
X8373691Y-24997881D02*
X8354643Y-24988357D01*
X8354643Y-24988357D02*
X8326072Y-24988357D01*
X8326072Y-24988357D02*
X8307024Y-24978833D01*
X8307024Y-24978833D02*
X8297500Y-24959786D01*
X8297500Y-24959786D02*
X8297500Y-24950262D01*
X8297500Y-24950262D02*
X8307024Y-24931214D01*
X8307024Y-24931214D02*
X8326072Y-24921690D01*
X8326072Y-24921690D02*
X8354643Y-24921690D01*
X8354643Y-24921690D02*
X8373691Y-24931214D01*
X8449881Y-25131214D02*
X8459405Y-25121690D01*
X8459405Y-25121690D02*
X8478453Y-25093119D01*
X8478453Y-25093119D02*
X8487977Y-25074071D01*
X8487977Y-25074071D02*
X8497500Y-25045500D01*
X8497500Y-25045500D02*
X8507024Y-24997881D01*
X8507024Y-24997881D02*
X8507024Y-24959786D01*
X8507024Y-24959786D02*
X8497500Y-24912167D01*
X8497500Y-24912167D02*
X8487977Y-24883595D01*
X8487977Y-24883595D02*
X8478453Y-24864548D01*
X8478453Y-24864548D02*
X8459405Y-24835976D01*
X8459405Y-24835976D02*
X8449881Y-24826452D01*
D18*
X3387500Y-25171500D02*
X3497500Y-25281500D01*
X3497500Y-25171500D02*
X3387500Y-25281500D01*
X3442500Y-25171500D02*
X3442500Y-25281500D01*
X3387500Y-25226500D02*
X3497500Y-25226500D01*
D11*
X3849881Y-25319024D02*
X3735595Y-25319024D01*
X3792738Y-25319024D02*
X3792738Y-25119024D01*
X3792738Y-25119024D02*
X3773690Y-25147595D01*
X3773690Y-25147595D02*
X3754643Y-25166643D01*
X3754643Y-25166643D02*
X3735595Y-25176167D01*
X3935595Y-25299976D02*
X3945119Y-25309500D01*
X3945119Y-25309500D02*
X3935595Y-25319024D01*
X3935595Y-25319024D02*
X3926071Y-25309500D01*
X3926071Y-25309500D02*
X3935595Y-25299976D01*
X3935595Y-25299976D02*
X3935595Y-25319024D01*
X4135595Y-25319024D02*
X4021309Y-25319024D01*
X4078452Y-25319024D02*
X4078452Y-25119024D01*
X4078452Y-25119024D02*
X4059405Y-25147595D01*
X4059405Y-25147595D02*
X4040357Y-25166643D01*
X4040357Y-25166643D02*
X4021309Y-25176167D01*
X4259405Y-25119024D02*
X4278452Y-25119024D01*
X4278452Y-25119024D02*
X4297500Y-25128548D01*
X4297500Y-25128548D02*
X4307024Y-25138071D01*
X4307024Y-25138071D02*
X4316548Y-25157119D01*
X4316548Y-25157119D02*
X4326071Y-25195214D01*
X4326071Y-25195214D02*
X4326071Y-25242833D01*
X4326071Y-25242833D02*
X4316548Y-25280928D01*
X4316548Y-25280928D02*
X4307024Y-25299976D01*
X4307024Y-25299976D02*
X4297500Y-25309500D01*
X4297500Y-25309500D02*
X4278452Y-25319024D01*
X4278452Y-25319024D02*
X4259405Y-25319024D01*
X4259405Y-25319024D02*
X4240357Y-25309500D01*
X4240357Y-25309500D02*
X4230833Y-25299976D01*
X4230833Y-25299976D02*
X4221310Y-25280928D01*
X4221310Y-25280928D02*
X4211786Y-25242833D01*
X4211786Y-25242833D02*
X4211786Y-25195214D01*
X4211786Y-25195214D02*
X4221310Y-25157119D01*
X4221310Y-25157119D02*
X4230833Y-25138071D01*
X4230833Y-25138071D02*
X4240357Y-25128548D01*
X4240357Y-25128548D02*
X4259405Y-25119024D01*
X4449881Y-25119024D02*
X4468929Y-25119024D01*
X4468929Y-25119024D02*
X4487976Y-25128548D01*
X4487976Y-25128548D02*
X4497500Y-25138071D01*
X4497500Y-25138071D02*
X4507024Y-25157119D01*
X4507024Y-25157119D02*
X4516548Y-25195214D01*
X4516548Y-25195214D02*
X4516548Y-25242833D01*
X4516548Y-25242833D02*
X4507024Y-25280928D01*
X4507024Y-25280928D02*
X4497500Y-25299976D01*
X4497500Y-25299976D02*
X4487976Y-25309500D01*
X4487976Y-25309500D02*
X4468929Y-25319024D01*
X4468929Y-25319024D02*
X4449881Y-25319024D01*
X4449881Y-25319024D02*
X4430833Y-25309500D01*
X4430833Y-25309500D02*
X4421310Y-25299976D01*
X4421310Y-25299976D02*
X4411786Y-25280928D01*
X4411786Y-25280928D02*
X4402262Y-25242833D01*
X4402262Y-25242833D02*
X4402262Y-25195214D01*
X4402262Y-25195214D02*
X4411786Y-25157119D01*
X4411786Y-25157119D02*
X4421310Y-25138071D01*
X4421310Y-25138071D02*
X4430833Y-25128548D01*
X4430833Y-25128548D02*
X4449881Y-25119024D01*
X4602262Y-25319024D02*
X4602262Y-25185690D01*
X4602262Y-25204738D02*
X4611786Y-25195214D01*
X4611786Y-25195214D02*
X4630833Y-25185690D01*
X4630833Y-25185690D02*
X4659405Y-25185690D01*
X4659405Y-25185690D02*
X4678452Y-25195214D01*
X4678452Y-25195214D02*
X4687976Y-25214262D01*
X4687976Y-25214262D02*
X4687976Y-25319024D01*
X4687976Y-25214262D02*
X4697500Y-25195214D01*
X4697500Y-25195214D02*
X4716548Y-25185690D01*
X4716548Y-25185690D02*
X4745119Y-25185690D01*
X4745119Y-25185690D02*
X4764167Y-25195214D01*
X4764167Y-25195214D02*
X4773691Y-25214262D01*
X4773691Y-25214262D02*
X4773691Y-25319024D01*
X4868929Y-25319024D02*
X4868929Y-25185690D01*
X4868929Y-25204738D02*
X4878452Y-25195214D01*
X4878452Y-25195214D02*
X4897500Y-25185690D01*
X4897500Y-25185690D02*
X4926072Y-25185690D01*
X4926072Y-25185690D02*
X4945119Y-25195214D01*
X4945119Y-25195214D02*
X4954643Y-25214262D01*
X4954643Y-25214262D02*
X4954643Y-25319024D01*
X4954643Y-25214262D02*
X4964167Y-25195214D01*
X4964167Y-25195214D02*
X4983214Y-25185690D01*
X4983214Y-25185690D02*
X5011786Y-25185690D01*
X5011786Y-25185690D02*
X5030833Y-25195214D01*
X5030833Y-25195214D02*
X5040357Y-25214262D01*
X5040357Y-25214262D02*
X5040357Y-25319024D01*
X5430833Y-25109500D02*
X5259405Y-25366643D01*
X5687976Y-25119024D02*
X5707024Y-25119024D01*
X5707024Y-25119024D02*
X5726072Y-25128548D01*
X5726072Y-25128548D02*
X5735595Y-25138071D01*
X5735595Y-25138071D02*
X5745119Y-25157119D01*
X5745119Y-25157119D02*
X5754643Y-25195214D01*
X5754643Y-25195214D02*
X5754643Y-25242833D01*
X5754643Y-25242833D02*
X5745119Y-25280928D01*
X5745119Y-25280928D02*
X5735595Y-25299976D01*
X5735595Y-25299976D02*
X5726072Y-25309500D01*
X5726072Y-25309500D02*
X5707024Y-25319024D01*
X5707024Y-25319024D02*
X5687976Y-25319024D01*
X5687976Y-25319024D02*
X5668929Y-25309500D01*
X5668929Y-25309500D02*
X5659405Y-25299976D01*
X5659405Y-25299976D02*
X5649881Y-25280928D01*
X5649881Y-25280928D02*
X5640357Y-25242833D01*
X5640357Y-25242833D02*
X5640357Y-25195214D01*
X5640357Y-25195214D02*
X5649881Y-25157119D01*
X5649881Y-25157119D02*
X5659405Y-25138071D01*
X5659405Y-25138071D02*
X5668929Y-25128548D01*
X5668929Y-25128548D02*
X5687976Y-25119024D01*
X5840357Y-25299976D02*
X5849881Y-25309500D01*
X5849881Y-25309500D02*
X5840357Y-25319024D01*
X5840357Y-25319024D02*
X5830833Y-25309500D01*
X5830833Y-25309500D02*
X5840357Y-25299976D01*
X5840357Y-25299976D02*
X5840357Y-25319024D01*
X5973691Y-25119024D02*
X5992738Y-25119024D01*
X5992738Y-25119024D02*
X6011786Y-25128548D01*
X6011786Y-25128548D02*
X6021310Y-25138071D01*
X6021310Y-25138071D02*
X6030833Y-25157119D01*
X6030833Y-25157119D02*
X6040357Y-25195214D01*
X6040357Y-25195214D02*
X6040357Y-25242833D01*
X6040357Y-25242833D02*
X6030833Y-25280928D01*
X6030833Y-25280928D02*
X6021310Y-25299976D01*
X6021310Y-25299976D02*
X6011786Y-25309500D01*
X6011786Y-25309500D02*
X5992738Y-25319024D01*
X5992738Y-25319024D02*
X5973691Y-25319024D01*
X5973691Y-25319024D02*
X5954643Y-25309500D01*
X5954643Y-25309500D02*
X5945119Y-25299976D01*
X5945119Y-25299976D02*
X5935595Y-25280928D01*
X5935595Y-25280928D02*
X5926072Y-25242833D01*
X5926072Y-25242833D02*
X5926072Y-25195214D01*
X5926072Y-25195214D02*
X5935595Y-25157119D01*
X5935595Y-25157119D02*
X5945119Y-25138071D01*
X5945119Y-25138071D02*
X5954643Y-25128548D01*
X5954643Y-25128548D02*
X5973691Y-25119024D01*
X6211786Y-25185690D02*
X6211786Y-25319024D01*
X6164167Y-25109500D02*
X6116548Y-25252357D01*
X6116548Y-25252357D02*
X6240357Y-25252357D01*
X6297500Y-25119024D02*
X6421310Y-25119024D01*
X6421310Y-25119024D02*
X6354643Y-25195214D01*
X6354643Y-25195214D02*
X6383214Y-25195214D01*
X6383214Y-25195214D02*
X6402262Y-25204738D01*
X6402262Y-25204738D02*
X6411786Y-25214262D01*
X6411786Y-25214262D02*
X6421310Y-25233309D01*
X6421310Y-25233309D02*
X6421310Y-25280928D01*
X6421310Y-25280928D02*
X6411786Y-25299976D01*
X6411786Y-25299976D02*
X6402262Y-25309500D01*
X6402262Y-25309500D02*
X6383214Y-25319024D01*
X6383214Y-25319024D02*
X6326072Y-25319024D01*
X6326072Y-25319024D02*
X6307024Y-25309500D01*
X6307024Y-25309500D02*
X6297500Y-25299976D01*
X6487976Y-25119024D02*
X6611786Y-25119024D01*
X6611786Y-25119024D02*
X6545119Y-25195214D01*
X6545119Y-25195214D02*
X6573691Y-25195214D01*
X6573691Y-25195214D02*
X6592738Y-25204738D01*
X6592738Y-25204738D02*
X6602262Y-25214262D01*
X6602262Y-25214262D02*
X6611786Y-25233309D01*
X6611786Y-25233309D02*
X6611786Y-25280928D01*
X6611786Y-25280928D02*
X6602262Y-25299976D01*
X6602262Y-25299976D02*
X6592738Y-25309500D01*
X6592738Y-25309500D02*
X6573691Y-25319024D01*
X6573691Y-25319024D02*
X6516548Y-25319024D01*
X6516548Y-25319024D02*
X6497500Y-25309500D01*
X6497500Y-25309500D02*
X6487976Y-25299976D01*
X6687976Y-25119024D02*
X6687976Y-25157119D01*
X6764167Y-25119024D02*
X6764167Y-25157119D01*
X7059405Y-25395214D02*
X7049881Y-25385690D01*
X7049881Y-25385690D02*
X7030834Y-25357119D01*
X7030834Y-25357119D02*
X7021310Y-25338071D01*
X7021310Y-25338071D02*
X7011786Y-25309500D01*
X7011786Y-25309500D02*
X7002262Y-25261881D01*
X7002262Y-25261881D02*
X7002262Y-25223786D01*
X7002262Y-25223786D02*
X7011786Y-25176167D01*
X7011786Y-25176167D02*
X7021310Y-25147595D01*
X7021310Y-25147595D02*
X7030834Y-25128548D01*
X7030834Y-25128548D02*
X7049881Y-25099976D01*
X7049881Y-25099976D02*
X7059405Y-25090452D01*
X7116548Y-25119024D02*
X7240357Y-25119024D01*
X7240357Y-25119024D02*
X7173691Y-25195214D01*
X7173691Y-25195214D02*
X7202262Y-25195214D01*
X7202262Y-25195214D02*
X7221310Y-25204738D01*
X7221310Y-25204738D02*
X7230834Y-25214262D01*
X7230834Y-25214262D02*
X7240357Y-25233309D01*
X7240357Y-25233309D02*
X7240357Y-25280928D01*
X7240357Y-25280928D02*
X7230834Y-25299976D01*
X7230834Y-25299976D02*
X7221310Y-25309500D01*
X7221310Y-25309500D02*
X7202262Y-25319024D01*
X7202262Y-25319024D02*
X7145119Y-25319024D01*
X7145119Y-25319024D02*
X7126072Y-25309500D01*
X7126072Y-25309500D02*
X7116548Y-25299976D01*
X7478453Y-25319024D02*
X7478453Y-25119024D01*
X7564167Y-25319024D02*
X7564167Y-25214262D01*
X7564167Y-25214262D02*
X7554643Y-25195214D01*
X7554643Y-25195214D02*
X7535596Y-25185690D01*
X7535596Y-25185690D02*
X7507024Y-25185690D01*
X7507024Y-25185690D02*
X7487976Y-25195214D01*
X7487976Y-25195214D02*
X7478453Y-25204738D01*
X7687976Y-25319024D02*
X7668929Y-25309500D01*
X7668929Y-25309500D02*
X7659405Y-25299976D01*
X7659405Y-25299976D02*
X7649881Y-25280928D01*
X7649881Y-25280928D02*
X7649881Y-25223786D01*
X7649881Y-25223786D02*
X7659405Y-25204738D01*
X7659405Y-25204738D02*
X7668929Y-25195214D01*
X7668929Y-25195214D02*
X7687976Y-25185690D01*
X7687976Y-25185690D02*
X7716548Y-25185690D01*
X7716548Y-25185690D02*
X7735596Y-25195214D01*
X7735596Y-25195214D02*
X7745119Y-25204738D01*
X7745119Y-25204738D02*
X7754643Y-25223786D01*
X7754643Y-25223786D02*
X7754643Y-25280928D01*
X7754643Y-25280928D02*
X7745119Y-25299976D01*
X7745119Y-25299976D02*
X7735596Y-25309500D01*
X7735596Y-25309500D02*
X7716548Y-25319024D01*
X7716548Y-25319024D02*
X7687976Y-25319024D01*
X7868929Y-25319024D02*
X7849881Y-25309500D01*
X7849881Y-25309500D02*
X7840357Y-25290452D01*
X7840357Y-25290452D02*
X7840357Y-25119024D01*
X8021310Y-25309500D02*
X8002262Y-25319024D01*
X8002262Y-25319024D02*
X7964167Y-25319024D01*
X7964167Y-25319024D02*
X7945119Y-25309500D01*
X7945119Y-25309500D02*
X7935596Y-25290452D01*
X7935596Y-25290452D02*
X7935596Y-25214262D01*
X7935596Y-25214262D02*
X7945119Y-25195214D01*
X7945119Y-25195214D02*
X7964167Y-25185690D01*
X7964167Y-25185690D02*
X8002262Y-25185690D01*
X8002262Y-25185690D02*
X8021310Y-25195214D01*
X8021310Y-25195214D02*
X8030834Y-25214262D01*
X8030834Y-25214262D02*
X8030834Y-25233309D01*
X8030834Y-25233309D02*
X7935596Y-25252357D01*
X8107024Y-25309500D02*
X8126072Y-25319024D01*
X8126072Y-25319024D02*
X8164167Y-25319024D01*
X8164167Y-25319024D02*
X8183215Y-25309500D01*
X8183215Y-25309500D02*
X8192738Y-25290452D01*
X8192738Y-25290452D02*
X8192738Y-25280928D01*
X8192738Y-25280928D02*
X8183215Y-25261881D01*
X8183215Y-25261881D02*
X8164167Y-25252357D01*
X8164167Y-25252357D02*
X8135596Y-25252357D01*
X8135596Y-25252357D02*
X8116548Y-25242833D01*
X8116548Y-25242833D02*
X8107024Y-25223786D01*
X8107024Y-25223786D02*
X8107024Y-25214262D01*
X8107024Y-25214262D02*
X8116548Y-25195214D01*
X8116548Y-25195214D02*
X8135596Y-25185690D01*
X8135596Y-25185690D02*
X8164167Y-25185690D01*
X8164167Y-25185690D02*
X8183215Y-25195214D01*
X8259405Y-25395214D02*
X8268929Y-25385690D01*
X8268929Y-25385690D02*
X8287977Y-25357119D01*
X8287977Y-25357119D02*
X8297500Y-25338071D01*
X8297500Y-25338071D02*
X8307024Y-25309500D01*
X8307024Y-25309500D02*
X8316548Y-25261881D01*
X8316548Y-25261881D02*
X8316548Y-25223786D01*
X8316548Y-25223786D02*
X8307024Y-25176167D01*
X8307024Y-25176167D02*
X8297500Y-25147595D01*
X8297500Y-25147595D02*
X8287977Y-25128548D01*
X8287977Y-25128548D02*
X8268929Y-25099976D01*
X8268929Y-25099976D02*
X8259405Y-25090452D01*
X3297500Y-25390500D02*
X3497500Y-25590500D01*
X3497500Y-25390500D02*
X3297500Y-25590500D01*
X3468211Y-25561211D02*
X3468211Y-25419789D01*
X3326789Y-25419789D01*
X3326789Y-25561211D01*
X3468211Y-25561211D01*
X3726071Y-25383024D02*
X3849881Y-25383024D01*
X3849881Y-25383024D02*
X3783214Y-25459214D01*
X3783214Y-25459214D02*
X3811786Y-25459214D01*
X3811786Y-25459214D02*
X3830833Y-25468738D01*
X3830833Y-25468738D02*
X3840357Y-25478262D01*
X3840357Y-25478262D02*
X3849881Y-25497309D01*
X3849881Y-25497309D02*
X3849881Y-25544928D01*
X3849881Y-25544928D02*
X3840357Y-25563976D01*
X3840357Y-25563976D02*
X3830833Y-25573500D01*
X3830833Y-25573500D02*
X3811786Y-25583024D01*
X3811786Y-25583024D02*
X3754643Y-25583024D01*
X3754643Y-25583024D02*
X3735595Y-25573500D01*
X3735595Y-25573500D02*
X3726071Y-25563976D01*
X3935595Y-25563976D02*
X3945119Y-25573500D01*
X3945119Y-25573500D02*
X3935595Y-25583024D01*
X3935595Y-25583024D02*
X3926071Y-25573500D01*
X3926071Y-25573500D02*
X3935595Y-25563976D01*
X3935595Y-25563976D02*
X3935595Y-25583024D01*
X4021309Y-25402071D02*
X4030833Y-25392548D01*
X4030833Y-25392548D02*
X4049881Y-25383024D01*
X4049881Y-25383024D02*
X4097500Y-25383024D01*
X4097500Y-25383024D02*
X4116548Y-25392548D01*
X4116548Y-25392548D02*
X4126071Y-25402071D01*
X4126071Y-25402071D02*
X4135595Y-25421119D01*
X4135595Y-25421119D02*
X4135595Y-25440167D01*
X4135595Y-25440167D02*
X4126071Y-25468738D01*
X4126071Y-25468738D02*
X4011786Y-25583024D01*
X4011786Y-25583024D02*
X4135595Y-25583024D01*
X4259405Y-25383024D02*
X4278452Y-25383024D01*
X4278452Y-25383024D02*
X4297500Y-25392548D01*
X4297500Y-25392548D02*
X4307024Y-25402071D01*
X4307024Y-25402071D02*
X4316548Y-25421119D01*
X4316548Y-25421119D02*
X4326071Y-25459214D01*
X4326071Y-25459214D02*
X4326071Y-25506833D01*
X4326071Y-25506833D02*
X4316548Y-25544928D01*
X4316548Y-25544928D02*
X4307024Y-25563976D01*
X4307024Y-25563976D02*
X4297500Y-25573500D01*
X4297500Y-25573500D02*
X4278452Y-25583024D01*
X4278452Y-25583024D02*
X4259405Y-25583024D01*
X4259405Y-25583024D02*
X4240357Y-25573500D01*
X4240357Y-25573500D02*
X4230833Y-25563976D01*
X4230833Y-25563976D02*
X4221310Y-25544928D01*
X4221310Y-25544928D02*
X4211786Y-25506833D01*
X4211786Y-25506833D02*
X4211786Y-25459214D01*
X4211786Y-25459214D02*
X4221310Y-25421119D01*
X4221310Y-25421119D02*
X4230833Y-25402071D01*
X4230833Y-25402071D02*
X4240357Y-25392548D01*
X4240357Y-25392548D02*
X4259405Y-25383024D01*
X4449881Y-25383024D02*
X4468929Y-25383024D01*
X4468929Y-25383024D02*
X4487976Y-25392548D01*
X4487976Y-25392548D02*
X4497500Y-25402071D01*
X4497500Y-25402071D02*
X4507024Y-25421119D01*
X4507024Y-25421119D02*
X4516548Y-25459214D01*
X4516548Y-25459214D02*
X4516548Y-25506833D01*
X4516548Y-25506833D02*
X4507024Y-25544928D01*
X4507024Y-25544928D02*
X4497500Y-25563976D01*
X4497500Y-25563976D02*
X4487976Y-25573500D01*
X4487976Y-25573500D02*
X4468929Y-25583024D01*
X4468929Y-25583024D02*
X4449881Y-25583024D01*
X4449881Y-25583024D02*
X4430833Y-25573500D01*
X4430833Y-25573500D02*
X4421310Y-25563976D01*
X4421310Y-25563976D02*
X4411786Y-25544928D01*
X4411786Y-25544928D02*
X4402262Y-25506833D01*
X4402262Y-25506833D02*
X4402262Y-25459214D01*
X4402262Y-25459214D02*
X4411786Y-25421119D01*
X4411786Y-25421119D02*
X4421310Y-25402071D01*
X4421310Y-25402071D02*
X4430833Y-25392548D01*
X4430833Y-25392548D02*
X4449881Y-25383024D01*
X4602262Y-25583024D02*
X4602262Y-25449690D01*
X4602262Y-25468738D02*
X4611786Y-25459214D01*
X4611786Y-25459214D02*
X4630833Y-25449690D01*
X4630833Y-25449690D02*
X4659405Y-25449690D01*
X4659405Y-25449690D02*
X4678452Y-25459214D01*
X4678452Y-25459214D02*
X4687976Y-25478262D01*
X4687976Y-25478262D02*
X4687976Y-25583024D01*
X4687976Y-25478262D02*
X4697500Y-25459214D01*
X4697500Y-25459214D02*
X4716548Y-25449690D01*
X4716548Y-25449690D02*
X4745119Y-25449690D01*
X4745119Y-25449690D02*
X4764167Y-25459214D01*
X4764167Y-25459214D02*
X4773691Y-25478262D01*
X4773691Y-25478262D02*
X4773691Y-25583024D01*
X4868929Y-25583024D02*
X4868929Y-25449690D01*
X4868929Y-25468738D02*
X4878452Y-25459214D01*
X4878452Y-25459214D02*
X4897500Y-25449690D01*
X4897500Y-25449690D02*
X4926072Y-25449690D01*
X4926072Y-25449690D02*
X4945119Y-25459214D01*
X4945119Y-25459214D02*
X4954643Y-25478262D01*
X4954643Y-25478262D02*
X4954643Y-25583024D01*
X4954643Y-25478262D02*
X4964167Y-25459214D01*
X4964167Y-25459214D02*
X4983214Y-25449690D01*
X4983214Y-25449690D02*
X5011786Y-25449690D01*
X5011786Y-25449690D02*
X5030833Y-25459214D01*
X5030833Y-25459214D02*
X5040357Y-25478262D01*
X5040357Y-25478262D02*
X5040357Y-25583024D01*
X5430833Y-25373500D02*
X5259405Y-25630643D01*
X5687976Y-25383024D02*
X5707024Y-25383024D01*
X5707024Y-25383024D02*
X5726072Y-25392548D01*
X5726072Y-25392548D02*
X5735595Y-25402071D01*
X5735595Y-25402071D02*
X5745119Y-25421119D01*
X5745119Y-25421119D02*
X5754643Y-25459214D01*
X5754643Y-25459214D02*
X5754643Y-25506833D01*
X5754643Y-25506833D02*
X5745119Y-25544928D01*
X5745119Y-25544928D02*
X5735595Y-25563976D01*
X5735595Y-25563976D02*
X5726072Y-25573500D01*
X5726072Y-25573500D02*
X5707024Y-25583024D01*
X5707024Y-25583024D02*
X5687976Y-25583024D01*
X5687976Y-25583024D02*
X5668929Y-25573500D01*
X5668929Y-25573500D02*
X5659405Y-25563976D01*
X5659405Y-25563976D02*
X5649881Y-25544928D01*
X5649881Y-25544928D02*
X5640357Y-25506833D01*
X5640357Y-25506833D02*
X5640357Y-25459214D01*
X5640357Y-25459214D02*
X5649881Y-25421119D01*
X5649881Y-25421119D02*
X5659405Y-25402071D01*
X5659405Y-25402071D02*
X5668929Y-25392548D01*
X5668929Y-25392548D02*
X5687976Y-25383024D01*
X5840357Y-25563976D02*
X5849881Y-25573500D01*
X5849881Y-25573500D02*
X5840357Y-25583024D01*
X5840357Y-25583024D02*
X5830833Y-25573500D01*
X5830833Y-25573500D02*
X5840357Y-25563976D01*
X5840357Y-25563976D02*
X5840357Y-25583024D01*
X6040357Y-25583024D02*
X5926072Y-25583024D01*
X5983214Y-25583024D02*
X5983214Y-25383024D01*
X5983214Y-25383024D02*
X5964167Y-25411595D01*
X5964167Y-25411595D02*
X5945119Y-25430643D01*
X5945119Y-25430643D02*
X5926072Y-25440167D01*
X6116548Y-25402071D02*
X6126072Y-25392548D01*
X6126072Y-25392548D02*
X6145119Y-25383024D01*
X6145119Y-25383024D02*
X6192738Y-25383024D01*
X6192738Y-25383024D02*
X6211786Y-25392548D01*
X6211786Y-25392548D02*
X6221310Y-25402071D01*
X6221310Y-25402071D02*
X6230833Y-25421119D01*
X6230833Y-25421119D02*
X6230833Y-25440167D01*
X6230833Y-25440167D02*
X6221310Y-25468738D01*
X6221310Y-25468738D02*
X6107024Y-25583024D01*
X6107024Y-25583024D02*
X6230833Y-25583024D01*
X6402262Y-25383024D02*
X6364167Y-25383024D01*
X6364167Y-25383024D02*
X6345119Y-25392548D01*
X6345119Y-25392548D02*
X6335595Y-25402071D01*
X6335595Y-25402071D02*
X6316548Y-25430643D01*
X6316548Y-25430643D02*
X6307024Y-25468738D01*
X6307024Y-25468738D02*
X6307024Y-25544928D01*
X6307024Y-25544928D02*
X6316548Y-25563976D01*
X6316548Y-25563976D02*
X6326072Y-25573500D01*
X6326072Y-25573500D02*
X6345119Y-25583024D01*
X6345119Y-25583024D02*
X6383214Y-25583024D01*
X6383214Y-25583024D02*
X6402262Y-25573500D01*
X6402262Y-25573500D02*
X6411786Y-25563976D01*
X6411786Y-25563976D02*
X6421310Y-25544928D01*
X6421310Y-25544928D02*
X6421310Y-25497309D01*
X6421310Y-25497309D02*
X6411786Y-25478262D01*
X6411786Y-25478262D02*
X6402262Y-25468738D01*
X6402262Y-25468738D02*
X6383214Y-25459214D01*
X6383214Y-25459214D02*
X6345119Y-25459214D01*
X6345119Y-25459214D02*
X6326072Y-25468738D01*
X6326072Y-25468738D02*
X6316548Y-25478262D01*
X6316548Y-25478262D02*
X6307024Y-25497309D01*
X6545119Y-25383024D02*
X6564167Y-25383024D01*
X6564167Y-25383024D02*
X6583214Y-25392548D01*
X6583214Y-25392548D02*
X6592738Y-25402071D01*
X6592738Y-25402071D02*
X6602262Y-25421119D01*
X6602262Y-25421119D02*
X6611786Y-25459214D01*
X6611786Y-25459214D02*
X6611786Y-25506833D01*
X6611786Y-25506833D02*
X6602262Y-25544928D01*
X6602262Y-25544928D02*
X6592738Y-25563976D01*
X6592738Y-25563976D02*
X6583214Y-25573500D01*
X6583214Y-25573500D02*
X6564167Y-25583024D01*
X6564167Y-25583024D02*
X6545119Y-25583024D01*
X6545119Y-25583024D02*
X6526072Y-25573500D01*
X6526072Y-25573500D02*
X6516548Y-25563976D01*
X6516548Y-25563976D02*
X6507024Y-25544928D01*
X6507024Y-25544928D02*
X6497500Y-25506833D01*
X6497500Y-25506833D02*
X6497500Y-25459214D01*
X6497500Y-25459214D02*
X6507024Y-25421119D01*
X6507024Y-25421119D02*
X6516548Y-25402071D01*
X6516548Y-25402071D02*
X6526072Y-25392548D01*
X6526072Y-25392548D02*
X6545119Y-25383024D01*
X6687976Y-25383024D02*
X6687976Y-25421119D01*
X6764167Y-25383024D02*
X6764167Y-25421119D01*
X7059405Y-25659214D02*
X7049881Y-25649690D01*
X7049881Y-25649690D02*
X7030834Y-25621119D01*
X7030834Y-25621119D02*
X7021310Y-25602071D01*
X7021310Y-25602071D02*
X7011786Y-25573500D01*
X7011786Y-25573500D02*
X7002262Y-25525881D01*
X7002262Y-25525881D02*
X7002262Y-25487786D01*
X7002262Y-25487786D02*
X7011786Y-25440167D01*
X7011786Y-25440167D02*
X7021310Y-25411595D01*
X7021310Y-25411595D02*
X7030834Y-25392548D01*
X7030834Y-25392548D02*
X7049881Y-25363976D01*
X7049881Y-25363976D02*
X7059405Y-25354452D01*
X7221310Y-25449690D02*
X7221310Y-25583024D01*
X7173691Y-25373500D02*
X7126072Y-25516357D01*
X7126072Y-25516357D02*
X7249881Y-25516357D01*
X7478453Y-25583024D02*
X7478453Y-25383024D01*
X7564167Y-25583024D02*
X7564167Y-25478262D01*
X7564167Y-25478262D02*
X7554643Y-25459214D01*
X7554643Y-25459214D02*
X7535596Y-25449690D01*
X7535596Y-25449690D02*
X7507024Y-25449690D01*
X7507024Y-25449690D02*
X7487976Y-25459214D01*
X7487976Y-25459214D02*
X7478453Y-25468738D01*
X7687976Y-25583024D02*
X7668929Y-25573500D01*
X7668929Y-25573500D02*
X7659405Y-25563976D01*
X7659405Y-25563976D02*
X7649881Y-25544928D01*
X7649881Y-25544928D02*
X7649881Y-25487786D01*
X7649881Y-25487786D02*
X7659405Y-25468738D01*
X7659405Y-25468738D02*
X7668929Y-25459214D01*
X7668929Y-25459214D02*
X7687976Y-25449690D01*
X7687976Y-25449690D02*
X7716548Y-25449690D01*
X7716548Y-25449690D02*
X7735596Y-25459214D01*
X7735596Y-25459214D02*
X7745119Y-25468738D01*
X7745119Y-25468738D02*
X7754643Y-25487786D01*
X7754643Y-25487786D02*
X7754643Y-25544928D01*
X7754643Y-25544928D02*
X7745119Y-25563976D01*
X7745119Y-25563976D02*
X7735596Y-25573500D01*
X7735596Y-25573500D02*
X7716548Y-25583024D01*
X7716548Y-25583024D02*
X7687976Y-25583024D01*
X7868929Y-25583024D02*
X7849881Y-25573500D01*
X7849881Y-25573500D02*
X7840357Y-25554452D01*
X7840357Y-25554452D02*
X7840357Y-25383024D01*
X8021310Y-25573500D02*
X8002262Y-25583024D01*
X8002262Y-25583024D02*
X7964167Y-25583024D01*
X7964167Y-25583024D02*
X7945119Y-25573500D01*
X7945119Y-25573500D02*
X7935596Y-25554452D01*
X7935596Y-25554452D02*
X7935596Y-25478262D01*
X7935596Y-25478262D02*
X7945119Y-25459214D01*
X7945119Y-25459214D02*
X7964167Y-25449690D01*
X7964167Y-25449690D02*
X8002262Y-25449690D01*
X8002262Y-25449690D02*
X8021310Y-25459214D01*
X8021310Y-25459214D02*
X8030834Y-25478262D01*
X8030834Y-25478262D02*
X8030834Y-25497309D01*
X8030834Y-25497309D02*
X7935596Y-25516357D01*
X8107024Y-25573500D02*
X8126072Y-25583024D01*
X8126072Y-25583024D02*
X8164167Y-25583024D01*
X8164167Y-25583024D02*
X8183215Y-25573500D01*
X8183215Y-25573500D02*
X8192738Y-25554452D01*
X8192738Y-25554452D02*
X8192738Y-25544928D01*
X8192738Y-25544928D02*
X8183215Y-25525881D01*
X8183215Y-25525881D02*
X8164167Y-25516357D01*
X8164167Y-25516357D02*
X8135596Y-25516357D01*
X8135596Y-25516357D02*
X8116548Y-25506833D01*
X8116548Y-25506833D02*
X8107024Y-25487786D01*
X8107024Y-25487786D02*
X8107024Y-25478262D01*
X8107024Y-25478262D02*
X8116548Y-25459214D01*
X8116548Y-25459214D02*
X8135596Y-25449690D01*
X8135596Y-25449690D02*
X8164167Y-25449690D01*
X8164167Y-25449690D02*
X8183215Y-25459214D01*
X8259405Y-25659214D02*
X8268929Y-25649690D01*
X8268929Y-25649690D02*
X8287977Y-25621119D01*
X8287977Y-25621119D02*
X8297500Y-25602071D01*
X8297500Y-25602071D02*
X8307024Y-25573500D01*
X8307024Y-25573500D02*
X8316548Y-25525881D01*
X8316548Y-25525881D02*
X8316548Y-25487786D01*
X8316548Y-25487786D02*
X8307024Y-25440167D01*
X8307024Y-25440167D02*
X8297500Y-25411595D01*
X8297500Y-25411595D02*
X8287977Y-25392548D01*
X8287977Y-25392548D02*
X8268929Y-25363976D01*
X8268929Y-25363976D02*
X8259405Y-25354452D01*
M02*
