%TF.GenerationSoftware,KiCad,Pcbnew,(6.0.11)*%
%TF.CreationDate,2023-10-28T13:41:20-04:00*%
%TF.ProjectId,processor.Z80,70726f63-6573-4736-9f72-2e5a38302e6b,rev?*%
%TF.SameCoordinates,Original*%
%TF.FileFunction,Legend,Bot*%
%TF.FilePolarity,Positive*%
%FSLAX46Y46*%
G04 Gerber Fmt 4.6, Leading zero omitted, Abs format (unit mm)*
G04 Created by KiCad (PCBNEW (6.0.11)) date 2023-10-28 13:41:20*
%MOMM*%
%LPD*%
G01*
G04 APERTURE LIST*
%ADD10C,0.150000*%
%ADD11C,0.120000*%
G04 APERTURE END LIST*
D10*
%TO.C,P1*%
X112738095Y-226452380D02*
X112738095Y-225452380D01*
X112357142Y-225452380D01*
X112261904Y-225500000D01*
X112214285Y-225547619D01*
X112166666Y-225642857D01*
X112166666Y-225785714D01*
X112214285Y-225880952D01*
X112261904Y-225928571D01*
X112357142Y-225976190D01*
X112738095Y-225976190D01*
X111214285Y-226452380D02*
X111785714Y-226452380D01*
X111500000Y-226452380D02*
X111500000Y-225452380D01*
X111595238Y-225595238D01*
X111690476Y-225690476D01*
X111785714Y-225738095D01*
%TO.C,C2*%
X124357142Y-210333333D02*
X124404761Y-210285714D01*
X124452380Y-210142857D01*
X124452380Y-210047619D01*
X124404761Y-209904761D01*
X124309523Y-209809523D01*
X124214285Y-209761904D01*
X124023809Y-209714285D01*
X123880952Y-209714285D01*
X123690476Y-209761904D01*
X123595238Y-209809523D01*
X123500000Y-209904761D01*
X123452380Y-210047619D01*
X123452380Y-210142857D01*
X123500000Y-210285714D01*
X123547619Y-210333333D01*
X123547619Y-210714285D02*
X123500000Y-210761904D01*
X123452380Y-210857142D01*
X123452380Y-211095238D01*
X123500000Y-211190476D01*
X123547619Y-211238095D01*
X123642857Y-211285714D01*
X123738095Y-211285714D01*
X123880952Y-211238095D01*
X124452380Y-210666666D01*
X124452380Y-211285714D01*
%TO.C,C3*%
X239482142Y-152133333D02*
X239529761Y-152085714D01*
X239577380Y-151942857D01*
X239577380Y-151847619D01*
X239529761Y-151704761D01*
X239434523Y-151609523D01*
X239339285Y-151561904D01*
X239148809Y-151514285D01*
X239005952Y-151514285D01*
X238815476Y-151561904D01*
X238720238Y-151609523D01*
X238625000Y-151704761D01*
X238577380Y-151847619D01*
X238577380Y-151942857D01*
X238625000Y-152085714D01*
X238672619Y-152133333D01*
X238577380Y-152466666D02*
X238577380Y-153085714D01*
X238958333Y-152752380D01*
X238958333Y-152895238D01*
X239005952Y-152990476D01*
X239053571Y-153038095D01*
X239148809Y-153085714D01*
X239386904Y-153085714D01*
X239482142Y-153038095D01*
X239529761Y-152990476D01*
X239577380Y-152895238D01*
X239577380Y-152609523D01*
X239529761Y-152514285D01*
X239482142Y-152466666D01*
%TO.C,C4*%
X165416666Y-154357142D02*
X165464285Y-154404761D01*
X165607142Y-154452380D01*
X165702380Y-154452380D01*
X165845238Y-154404761D01*
X165940476Y-154309523D01*
X165988095Y-154214285D01*
X166035714Y-154023809D01*
X166035714Y-153880952D01*
X165988095Y-153690476D01*
X165940476Y-153595238D01*
X165845238Y-153500000D01*
X165702380Y-153452380D01*
X165607142Y-153452380D01*
X165464285Y-153500000D01*
X165416666Y-153547619D01*
X164559523Y-153785714D02*
X164559523Y-154452380D01*
X164797619Y-153404761D02*
X165035714Y-154119047D01*
X164416666Y-154119047D01*
%TO.C,C5*%
X77432142Y-192633333D02*
X77479761Y-192585714D01*
X77527380Y-192442857D01*
X77527380Y-192347619D01*
X77479761Y-192204761D01*
X77384523Y-192109523D01*
X77289285Y-192061904D01*
X77098809Y-192014285D01*
X76955952Y-192014285D01*
X76765476Y-192061904D01*
X76670238Y-192109523D01*
X76575000Y-192204761D01*
X76527380Y-192347619D01*
X76527380Y-192442857D01*
X76575000Y-192585714D01*
X76622619Y-192633333D01*
X76527380Y-193538095D02*
X76527380Y-193061904D01*
X77003571Y-193014285D01*
X76955952Y-193061904D01*
X76908333Y-193157142D01*
X76908333Y-193395238D01*
X76955952Y-193490476D01*
X77003571Y-193538095D01*
X77098809Y-193585714D01*
X77336904Y-193585714D01*
X77432142Y-193538095D01*
X77479761Y-193490476D01*
X77527380Y-193395238D01*
X77527380Y-193157142D01*
X77479761Y-193061904D01*
X77432142Y-193014285D01*
%TO.C,C6*%
X43352142Y-140933333D02*
X43399761Y-140885714D01*
X43447380Y-140742857D01*
X43447380Y-140647619D01*
X43399761Y-140504761D01*
X43304523Y-140409523D01*
X43209285Y-140361904D01*
X43018809Y-140314285D01*
X42875952Y-140314285D01*
X42685476Y-140361904D01*
X42590238Y-140409523D01*
X42495000Y-140504761D01*
X42447380Y-140647619D01*
X42447380Y-140742857D01*
X42495000Y-140885714D01*
X42542619Y-140933333D01*
X42447380Y-141790476D02*
X42447380Y-141600000D01*
X42495000Y-141504761D01*
X42542619Y-141457142D01*
X42685476Y-141361904D01*
X42875952Y-141314285D01*
X43256904Y-141314285D01*
X43352142Y-141361904D01*
X43399761Y-141409523D01*
X43447380Y-141504761D01*
X43447380Y-141695238D01*
X43399761Y-141790476D01*
X43352142Y-141838095D01*
X43256904Y-141885714D01*
X43018809Y-141885714D01*
X42923571Y-141838095D01*
X42875952Y-141790476D01*
X42828333Y-141695238D01*
X42828333Y-141504761D01*
X42875952Y-141409523D01*
X42923571Y-141361904D01*
X43018809Y-141314285D01*
%TO.C,C8*%
X166357142Y-210333333D02*
X166404761Y-210285714D01*
X166452380Y-210142857D01*
X166452380Y-210047619D01*
X166404761Y-209904761D01*
X166309523Y-209809523D01*
X166214285Y-209761904D01*
X166023809Y-209714285D01*
X165880952Y-209714285D01*
X165690476Y-209761904D01*
X165595238Y-209809523D01*
X165500000Y-209904761D01*
X165452380Y-210047619D01*
X165452380Y-210142857D01*
X165500000Y-210285714D01*
X165547619Y-210333333D01*
X165880952Y-210904761D02*
X165833333Y-210809523D01*
X165785714Y-210761904D01*
X165690476Y-210714285D01*
X165642857Y-210714285D01*
X165547619Y-210761904D01*
X165500000Y-210809523D01*
X165452380Y-210904761D01*
X165452380Y-211095238D01*
X165500000Y-211190476D01*
X165547619Y-211238095D01*
X165642857Y-211285714D01*
X165690476Y-211285714D01*
X165785714Y-211238095D01*
X165833333Y-211190476D01*
X165880952Y-211095238D01*
X165880952Y-210904761D01*
X165928571Y-210809523D01*
X165976190Y-210761904D01*
X166071428Y-210714285D01*
X166261904Y-210714285D01*
X166357142Y-210761904D01*
X166404761Y-210809523D01*
X166452380Y-210904761D01*
X166452380Y-211095238D01*
X166404761Y-211190476D01*
X166357142Y-211238095D01*
X166261904Y-211285714D01*
X166071428Y-211285714D01*
X165976190Y-211238095D01*
X165928571Y-211190476D01*
X165880952Y-211095238D01*
%TO.C,C9*%
X200432142Y-197583333D02*
X200479761Y-197535714D01*
X200527380Y-197392857D01*
X200527380Y-197297619D01*
X200479761Y-197154761D01*
X200384523Y-197059523D01*
X200289285Y-197011904D01*
X200098809Y-196964285D01*
X199955952Y-196964285D01*
X199765476Y-197011904D01*
X199670238Y-197059523D01*
X199575000Y-197154761D01*
X199527380Y-197297619D01*
X199527380Y-197392857D01*
X199575000Y-197535714D01*
X199622619Y-197583333D01*
X200527380Y-198059523D02*
X200527380Y-198250000D01*
X200479761Y-198345238D01*
X200432142Y-198392857D01*
X200289285Y-198488095D01*
X200098809Y-198535714D01*
X199717857Y-198535714D01*
X199622619Y-198488095D01*
X199575000Y-198440476D01*
X199527380Y-198345238D01*
X199527380Y-198154761D01*
X199575000Y-198059523D01*
X199622619Y-198011904D01*
X199717857Y-197964285D01*
X199955952Y-197964285D01*
X200051190Y-198011904D01*
X200098809Y-198059523D01*
X200146428Y-198154761D01*
X200146428Y-198345238D01*
X200098809Y-198440476D01*
X200051190Y-198488095D01*
X199955952Y-198535714D01*
%TO.C,C10*%
X43352142Y-155457142D02*
X43399761Y-155409523D01*
X43447380Y-155266666D01*
X43447380Y-155171428D01*
X43399761Y-155028571D01*
X43304523Y-154933333D01*
X43209285Y-154885714D01*
X43018809Y-154838095D01*
X42875952Y-154838095D01*
X42685476Y-154885714D01*
X42590238Y-154933333D01*
X42495000Y-155028571D01*
X42447380Y-155171428D01*
X42447380Y-155266666D01*
X42495000Y-155409523D01*
X42542619Y-155457142D01*
X43447380Y-156409523D02*
X43447380Y-155838095D01*
X43447380Y-156123809D02*
X42447380Y-156123809D01*
X42590238Y-156028571D01*
X42685476Y-155933333D01*
X42733095Y-155838095D01*
X42447380Y-157028571D02*
X42447380Y-157123809D01*
X42495000Y-157219047D01*
X42542619Y-157266666D01*
X42637857Y-157314285D01*
X42828333Y-157361904D01*
X43066428Y-157361904D01*
X43256904Y-157314285D01*
X43352142Y-157266666D01*
X43399761Y-157219047D01*
X43447380Y-157123809D01*
X43447380Y-157028571D01*
X43399761Y-156933333D01*
X43352142Y-156885714D01*
X43256904Y-156838095D01*
X43066428Y-156790476D01*
X42828333Y-156790476D01*
X42637857Y-156838095D01*
X42542619Y-156885714D01*
X42495000Y-156933333D01*
X42447380Y-157028571D01*
%TO.C,C11*%
X43727142Y-105007142D02*
X43774761Y-104959523D01*
X43822380Y-104816666D01*
X43822380Y-104721428D01*
X43774761Y-104578571D01*
X43679523Y-104483333D01*
X43584285Y-104435714D01*
X43393809Y-104388095D01*
X43250952Y-104388095D01*
X43060476Y-104435714D01*
X42965238Y-104483333D01*
X42870000Y-104578571D01*
X42822380Y-104721428D01*
X42822380Y-104816666D01*
X42870000Y-104959523D01*
X42917619Y-105007142D01*
X43822380Y-105959523D02*
X43822380Y-105388095D01*
X43822380Y-105673809D02*
X42822380Y-105673809D01*
X42965238Y-105578571D01*
X43060476Y-105483333D01*
X43108095Y-105388095D01*
X43822380Y-106911904D02*
X43822380Y-106340476D01*
X43822380Y-106626190D02*
X42822380Y-106626190D01*
X42965238Y-106530952D01*
X43060476Y-106435714D01*
X43108095Y-106340476D01*
%TO.C,C14*%
X239607142Y-124857142D02*
X239654761Y-124809523D01*
X239702380Y-124666666D01*
X239702380Y-124571428D01*
X239654761Y-124428571D01*
X239559523Y-124333333D01*
X239464285Y-124285714D01*
X239273809Y-124238095D01*
X239130952Y-124238095D01*
X238940476Y-124285714D01*
X238845238Y-124333333D01*
X238750000Y-124428571D01*
X238702380Y-124571428D01*
X238702380Y-124666666D01*
X238750000Y-124809523D01*
X238797619Y-124857142D01*
X239702380Y-125809523D02*
X239702380Y-125238095D01*
X239702380Y-125523809D02*
X238702380Y-125523809D01*
X238845238Y-125428571D01*
X238940476Y-125333333D01*
X238988095Y-125238095D01*
X239035714Y-126666666D02*
X239702380Y-126666666D01*
X238654761Y-126428571D02*
X239369047Y-126190476D01*
X239369047Y-126809523D01*
%TO.C,C15*%
X137607142Y-136257142D02*
X137654761Y-136209523D01*
X137702380Y-136066666D01*
X137702380Y-135971428D01*
X137654761Y-135828571D01*
X137559523Y-135733333D01*
X137464285Y-135685714D01*
X137273809Y-135638095D01*
X137130952Y-135638095D01*
X136940476Y-135685714D01*
X136845238Y-135733333D01*
X136750000Y-135828571D01*
X136702380Y-135971428D01*
X136702380Y-136066666D01*
X136750000Y-136209523D01*
X136797619Y-136257142D01*
X137702380Y-137209523D02*
X137702380Y-136638095D01*
X137702380Y-136923809D02*
X136702380Y-136923809D01*
X136845238Y-136828571D01*
X136940476Y-136733333D01*
X136988095Y-136638095D01*
X136702380Y-138114285D02*
X136702380Y-137638095D01*
X137178571Y-137590476D01*
X137130952Y-137638095D01*
X137083333Y-137733333D01*
X137083333Y-137971428D01*
X137130952Y-138066666D01*
X137178571Y-138114285D01*
X137273809Y-138161904D01*
X137511904Y-138161904D01*
X137607142Y-138114285D01*
X137654761Y-138066666D01*
X137702380Y-137971428D01*
X137702380Y-137733333D01*
X137654761Y-137638095D01*
X137607142Y-137590476D01*
%TO.C,C25*%
X41286742Y-218107142D02*
X41334361Y-218059523D01*
X41381980Y-217916666D01*
X41381980Y-217821428D01*
X41334361Y-217678571D01*
X41239123Y-217583333D01*
X41143885Y-217535714D01*
X40953409Y-217488095D01*
X40810552Y-217488095D01*
X40620076Y-217535714D01*
X40524838Y-217583333D01*
X40429600Y-217678571D01*
X40381980Y-217821428D01*
X40381980Y-217916666D01*
X40429600Y-218059523D01*
X40477219Y-218107142D01*
X40477219Y-218488095D02*
X40429600Y-218535714D01*
X40381980Y-218630952D01*
X40381980Y-218869047D01*
X40429600Y-218964285D01*
X40477219Y-219011904D01*
X40572457Y-219059523D01*
X40667695Y-219059523D01*
X40810552Y-219011904D01*
X41381980Y-218440476D01*
X41381980Y-219059523D01*
X40381980Y-219964285D02*
X40381980Y-219488095D01*
X40858171Y-219440476D01*
X40810552Y-219488095D01*
X40762933Y-219583333D01*
X40762933Y-219821428D01*
X40810552Y-219916666D01*
X40858171Y-219964285D01*
X40953409Y-220011904D01*
X41191504Y-220011904D01*
X41286742Y-219964285D01*
X41334361Y-219916666D01*
X41381980Y-219821428D01*
X41381980Y-219583333D01*
X41334361Y-219488095D01*
X41286742Y-219440476D01*
%TO.C,C26*%
X62647042Y-114007142D02*
X62694661Y-113959523D01*
X62742280Y-113816666D01*
X62742280Y-113721428D01*
X62694661Y-113578571D01*
X62599423Y-113483333D01*
X62504185Y-113435714D01*
X62313709Y-113388095D01*
X62170852Y-113388095D01*
X61980376Y-113435714D01*
X61885138Y-113483333D01*
X61789900Y-113578571D01*
X61742280Y-113721428D01*
X61742280Y-113816666D01*
X61789900Y-113959523D01*
X61837519Y-114007142D01*
X61837519Y-114388095D02*
X61789900Y-114435714D01*
X61742280Y-114530952D01*
X61742280Y-114769047D01*
X61789900Y-114864285D01*
X61837519Y-114911904D01*
X61932757Y-114959523D01*
X62027995Y-114959523D01*
X62170852Y-114911904D01*
X62742280Y-114340476D01*
X62742280Y-114959523D01*
X61742280Y-115816666D02*
X61742280Y-115626190D01*
X61789900Y-115530952D01*
X61837519Y-115483333D01*
X61980376Y-115388095D01*
X62170852Y-115340476D01*
X62551804Y-115340476D01*
X62647042Y-115388095D01*
X62694661Y-115435714D01*
X62742280Y-115530952D01*
X62742280Y-115721428D01*
X62694661Y-115816666D01*
X62647042Y-115864285D01*
X62551804Y-115911904D01*
X62313709Y-115911904D01*
X62218471Y-115864285D01*
X62170852Y-115816666D01*
X62123233Y-115721428D01*
X62123233Y-115530952D01*
X62170852Y-115435714D01*
X62218471Y-115388095D01*
X62313709Y-115340476D01*
%TO.C,C17*%
X88107142Y-137247142D02*
X88154761Y-137199523D01*
X88202380Y-137056666D01*
X88202380Y-136961428D01*
X88154761Y-136818571D01*
X88059523Y-136723333D01*
X87964285Y-136675714D01*
X87773809Y-136628095D01*
X87630952Y-136628095D01*
X87440476Y-136675714D01*
X87345238Y-136723333D01*
X87250000Y-136818571D01*
X87202380Y-136961428D01*
X87202380Y-137056666D01*
X87250000Y-137199523D01*
X87297619Y-137247142D01*
X88202380Y-138199523D02*
X88202380Y-137628095D01*
X88202380Y-137913809D02*
X87202380Y-137913809D01*
X87345238Y-137818571D01*
X87440476Y-137723333D01*
X87488095Y-137628095D01*
X87202380Y-138532857D02*
X87202380Y-139199523D01*
X88202380Y-138770952D01*
%TO.C,C20*%
X124357142Y-197157142D02*
X124404761Y-197109523D01*
X124452380Y-196966666D01*
X124452380Y-196871428D01*
X124404761Y-196728571D01*
X124309523Y-196633333D01*
X124214285Y-196585714D01*
X124023809Y-196538095D01*
X123880952Y-196538095D01*
X123690476Y-196585714D01*
X123595238Y-196633333D01*
X123500000Y-196728571D01*
X123452380Y-196871428D01*
X123452380Y-196966666D01*
X123500000Y-197109523D01*
X123547619Y-197157142D01*
X123547619Y-197538095D02*
X123500000Y-197585714D01*
X123452380Y-197680952D01*
X123452380Y-197919047D01*
X123500000Y-198014285D01*
X123547619Y-198061904D01*
X123642857Y-198109523D01*
X123738095Y-198109523D01*
X123880952Y-198061904D01*
X124452380Y-197490476D01*
X124452380Y-198109523D01*
X123452380Y-198728571D02*
X123452380Y-198823809D01*
X123500000Y-198919047D01*
X123547619Y-198966666D01*
X123642857Y-199014285D01*
X123833333Y-199061904D01*
X124071428Y-199061904D01*
X124261904Y-199014285D01*
X124357142Y-198966666D01*
X124404761Y-198919047D01*
X124452380Y-198823809D01*
X124452380Y-198728571D01*
X124404761Y-198633333D01*
X124357142Y-198585714D01*
X124261904Y-198538095D01*
X124071428Y-198490476D01*
X123833333Y-198490476D01*
X123642857Y-198538095D01*
X123547619Y-198585714D01*
X123500000Y-198633333D01*
X123452380Y-198728571D01*
%TO.C,C21*%
X77432142Y-177157142D02*
X77479761Y-177109523D01*
X77527380Y-176966666D01*
X77527380Y-176871428D01*
X77479761Y-176728571D01*
X77384523Y-176633333D01*
X77289285Y-176585714D01*
X77098809Y-176538095D01*
X76955952Y-176538095D01*
X76765476Y-176585714D01*
X76670238Y-176633333D01*
X76575000Y-176728571D01*
X76527380Y-176871428D01*
X76527380Y-176966666D01*
X76575000Y-177109523D01*
X76622619Y-177157142D01*
X76622619Y-177538095D02*
X76575000Y-177585714D01*
X76527380Y-177680952D01*
X76527380Y-177919047D01*
X76575000Y-178014285D01*
X76622619Y-178061904D01*
X76717857Y-178109523D01*
X76813095Y-178109523D01*
X76955952Y-178061904D01*
X77527380Y-177490476D01*
X77527380Y-178109523D01*
X77527380Y-179061904D02*
X77527380Y-178490476D01*
X77527380Y-178776190D02*
X76527380Y-178776190D01*
X76670238Y-178680952D01*
X76765476Y-178585714D01*
X76813095Y-178490476D01*
%TO.C,C22*%
X166182142Y-197157142D02*
X166229761Y-197109523D01*
X166277380Y-196966666D01*
X166277380Y-196871428D01*
X166229761Y-196728571D01*
X166134523Y-196633333D01*
X166039285Y-196585714D01*
X165848809Y-196538095D01*
X165705952Y-196538095D01*
X165515476Y-196585714D01*
X165420238Y-196633333D01*
X165325000Y-196728571D01*
X165277380Y-196871428D01*
X165277380Y-196966666D01*
X165325000Y-197109523D01*
X165372619Y-197157142D01*
X165372619Y-197538095D02*
X165325000Y-197585714D01*
X165277380Y-197680952D01*
X165277380Y-197919047D01*
X165325000Y-198014285D01*
X165372619Y-198061904D01*
X165467857Y-198109523D01*
X165563095Y-198109523D01*
X165705952Y-198061904D01*
X166277380Y-197490476D01*
X166277380Y-198109523D01*
X165372619Y-198490476D02*
X165325000Y-198538095D01*
X165277380Y-198633333D01*
X165277380Y-198871428D01*
X165325000Y-198966666D01*
X165372619Y-199014285D01*
X165467857Y-199061904D01*
X165563095Y-199061904D01*
X165705952Y-199014285D01*
X166277380Y-198442857D01*
X166277380Y-199061904D01*
%TO.C,C23*%
X125642857Y-154607142D02*
X125690476Y-154654761D01*
X125833333Y-154702380D01*
X125928571Y-154702380D01*
X126071428Y-154654761D01*
X126166666Y-154559523D01*
X126214285Y-154464285D01*
X126261904Y-154273809D01*
X126261904Y-154130952D01*
X126214285Y-153940476D01*
X126166666Y-153845238D01*
X126071428Y-153750000D01*
X125928571Y-153702380D01*
X125833333Y-153702380D01*
X125690476Y-153750000D01*
X125642857Y-153797619D01*
X125261904Y-153797619D02*
X125214285Y-153750000D01*
X125119047Y-153702380D01*
X124880952Y-153702380D01*
X124785714Y-153750000D01*
X124738095Y-153797619D01*
X124690476Y-153892857D01*
X124690476Y-153988095D01*
X124738095Y-154130952D01*
X125309523Y-154702380D01*
X124690476Y-154702380D01*
X124357142Y-153702380D02*
X123738095Y-153702380D01*
X124071428Y-154083333D01*
X123928571Y-154083333D01*
X123833333Y-154130952D01*
X123785714Y-154178571D01*
X123738095Y-154273809D01*
X123738095Y-154511904D01*
X123785714Y-154607142D01*
X123833333Y-154654761D01*
X123928571Y-154702380D01*
X124214285Y-154702380D01*
X124309523Y-154654761D01*
X124357142Y-154607142D01*
%TO.C,C27*%
X115357142Y-218107142D02*
X115404761Y-218059523D01*
X115452380Y-217916666D01*
X115452380Y-217821428D01*
X115404761Y-217678571D01*
X115309523Y-217583333D01*
X115214285Y-217535714D01*
X115023809Y-217488095D01*
X114880952Y-217488095D01*
X114690476Y-217535714D01*
X114595238Y-217583333D01*
X114500000Y-217678571D01*
X114452380Y-217821428D01*
X114452380Y-217916666D01*
X114500000Y-218059523D01*
X114547619Y-218107142D01*
X114547619Y-218488095D02*
X114500000Y-218535714D01*
X114452380Y-218630952D01*
X114452380Y-218869047D01*
X114500000Y-218964285D01*
X114547619Y-219011904D01*
X114642857Y-219059523D01*
X114738095Y-219059523D01*
X114880952Y-219011904D01*
X115452380Y-218440476D01*
X115452380Y-219059523D01*
X114452380Y-219392857D02*
X114452380Y-220059523D01*
X115452380Y-219630952D01*
%TO.C,C28*%
X191241842Y-218107142D02*
X191289461Y-218059523D01*
X191337080Y-217916666D01*
X191337080Y-217821428D01*
X191289461Y-217678571D01*
X191194223Y-217583333D01*
X191098985Y-217535714D01*
X190908509Y-217488095D01*
X190765652Y-217488095D01*
X190575176Y-217535714D01*
X190479938Y-217583333D01*
X190384700Y-217678571D01*
X190337080Y-217821428D01*
X190337080Y-217916666D01*
X190384700Y-218059523D01*
X190432319Y-218107142D01*
X190432319Y-218488095D02*
X190384700Y-218535714D01*
X190337080Y-218630952D01*
X190337080Y-218869047D01*
X190384700Y-218964285D01*
X190432319Y-219011904D01*
X190527557Y-219059523D01*
X190622795Y-219059523D01*
X190765652Y-219011904D01*
X191337080Y-218440476D01*
X191337080Y-219059523D01*
X190765652Y-219630952D02*
X190718033Y-219535714D01*
X190670414Y-219488095D01*
X190575176Y-219440476D01*
X190527557Y-219440476D01*
X190432319Y-219488095D01*
X190384700Y-219535714D01*
X190337080Y-219630952D01*
X190337080Y-219821428D01*
X190384700Y-219916666D01*
X190432319Y-219964285D01*
X190527557Y-220011904D01*
X190575176Y-220011904D01*
X190670414Y-219964285D01*
X190718033Y-219916666D01*
X190765652Y-219821428D01*
X190765652Y-219630952D01*
X190813271Y-219535714D01*
X190860890Y-219488095D01*
X190956128Y-219440476D01*
X191146604Y-219440476D01*
X191241842Y-219488095D01*
X191289461Y-219535714D01*
X191337080Y-219630952D01*
X191337080Y-219821428D01*
X191289461Y-219916666D01*
X191241842Y-219964285D01*
X191146604Y-220011904D01*
X190956128Y-220011904D01*
X190860890Y-219964285D01*
X190813271Y-219916666D01*
X190765652Y-219821428D01*
%TO.C,C29*%
X193107154Y-110357142D02*
X193154773Y-110309523D01*
X193202392Y-110166666D01*
X193202392Y-110071428D01*
X193154773Y-109928571D01*
X193059535Y-109833333D01*
X192964297Y-109785714D01*
X192773821Y-109738095D01*
X192630964Y-109738095D01*
X192440488Y-109785714D01*
X192345250Y-109833333D01*
X192250012Y-109928571D01*
X192202392Y-110071428D01*
X192202392Y-110166666D01*
X192250012Y-110309523D01*
X192297631Y-110357142D01*
X192297631Y-110738095D02*
X192250012Y-110785714D01*
X192202392Y-110880952D01*
X192202392Y-111119047D01*
X192250012Y-111214285D01*
X192297631Y-111261904D01*
X192392869Y-111309523D01*
X192488107Y-111309523D01*
X192630964Y-111261904D01*
X193202392Y-110690476D01*
X193202392Y-111309523D01*
X193202392Y-111785714D02*
X193202392Y-111976190D01*
X193154773Y-112071428D01*
X193107154Y-112119047D01*
X192964297Y-112214285D01*
X192773821Y-112261904D01*
X192392869Y-112261904D01*
X192297631Y-112214285D01*
X192250012Y-112166666D01*
X192202392Y-112071428D01*
X192202392Y-111880952D01*
X192250012Y-111785714D01*
X192297631Y-111738095D01*
X192392869Y-111690476D01*
X192630964Y-111690476D01*
X192726202Y-111738095D01*
X192773821Y-111785714D01*
X192821440Y-111880952D01*
X192821440Y-112071428D01*
X192773821Y-112166666D01*
X192726202Y-112214285D01*
X192630964Y-112261904D01*
%TO.C,R5*%
X79976666Y-89452380D02*
X80310000Y-88976190D01*
X80548095Y-89452380D02*
X80548095Y-88452380D01*
X80167142Y-88452380D01*
X80071904Y-88500000D01*
X80024285Y-88547619D01*
X79976666Y-88642857D01*
X79976666Y-88785714D01*
X80024285Y-88880952D01*
X80071904Y-88928571D01*
X80167142Y-88976190D01*
X80548095Y-88976190D01*
X79071904Y-88452380D02*
X79548095Y-88452380D01*
X79595714Y-88928571D01*
X79548095Y-88880952D01*
X79452857Y-88833333D01*
X79214761Y-88833333D01*
X79119523Y-88880952D01*
X79071904Y-88928571D01*
X79024285Y-89023809D01*
X79024285Y-89261904D01*
X79071904Y-89357142D01*
X79119523Y-89404761D01*
X79214761Y-89452380D01*
X79452857Y-89452380D01*
X79548095Y-89404761D01*
X79595714Y-89357142D01*
%TO.C,R6*%
X59976666Y-89452380D02*
X60310000Y-88976190D01*
X60548095Y-89452380D02*
X60548095Y-88452380D01*
X60167142Y-88452380D01*
X60071904Y-88500000D01*
X60024285Y-88547619D01*
X59976666Y-88642857D01*
X59976666Y-88785714D01*
X60024285Y-88880952D01*
X60071904Y-88928571D01*
X60167142Y-88976190D01*
X60548095Y-88976190D01*
X59119523Y-88452380D02*
X59310000Y-88452380D01*
X59405238Y-88500000D01*
X59452857Y-88547619D01*
X59548095Y-88690476D01*
X59595714Y-88880952D01*
X59595714Y-89261904D01*
X59548095Y-89357142D01*
X59500476Y-89404761D01*
X59405238Y-89452380D01*
X59214761Y-89452380D01*
X59119523Y-89404761D01*
X59071904Y-89357142D01*
X59024285Y-89261904D01*
X59024285Y-89023809D01*
X59071904Y-88928571D01*
X59119523Y-88880952D01*
X59214761Y-88833333D01*
X59405238Y-88833333D01*
X59500476Y-88880952D01*
X59548095Y-88928571D01*
X59595714Y-89023809D01*
%TO.C,RN2*%
X65447380Y-187809523D02*
X64971190Y-187476190D01*
X65447380Y-187238095D02*
X64447380Y-187238095D01*
X64447380Y-187619047D01*
X64495000Y-187714285D01*
X64542619Y-187761904D01*
X64637857Y-187809523D01*
X64780714Y-187809523D01*
X64875952Y-187761904D01*
X64923571Y-187714285D01*
X64971190Y-187619047D01*
X64971190Y-187238095D01*
X65447380Y-188238095D02*
X64447380Y-188238095D01*
X65447380Y-188809523D01*
X64447380Y-188809523D01*
X64542619Y-189238095D02*
X64495000Y-189285714D01*
X64447380Y-189380952D01*
X64447380Y-189619047D01*
X64495000Y-189714285D01*
X64542619Y-189761904D01*
X64637857Y-189809523D01*
X64733095Y-189809523D01*
X64875952Y-189761904D01*
X65447380Y-189190476D01*
X65447380Y-189809523D01*
%TO.C,U4*%
X55067380Y-139028095D02*
X55876904Y-139028095D01*
X55972142Y-139075714D01*
X56019761Y-139123333D01*
X56067380Y-139218571D01*
X56067380Y-139409047D01*
X56019761Y-139504285D01*
X55972142Y-139551904D01*
X55876904Y-139599523D01*
X55067380Y-139599523D01*
X55400714Y-140504285D02*
X56067380Y-140504285D01*
X55019761Y-140266190D02*
X55734047Y-140028095D01*
X55734047Y-140647142D01*
%TO.C,U5*%
X139857380Y-195628095D02*
X140666904Y-195628095D01*
X140762142Y-195675714D01*
X140809761Y-195723333D01*
X140857380Y-195818571D01*
X140857380Y-196009047D01*
X140809761Y-196104285D01*
X140762142Y-196151904D01*
X140666904Y-196199523D01*
X139857380Y-196199523D01*
X139857380Y-197151904D02*
X139857380Y-196675714D01*
X140333571Y-196628095D01*
X140285952Y-196675714D01*
X140238333Y-196770952D01*
X140238333Y-197009047D01*
X140285952Y-197104285D01*
X140333571Y-197151904D01*
X140428809Y-197199523D01*
X140666904Y-197199523D01*
X140762142Y-197151904D01*
X140809761Y-197104285D01*
X140857380Y-197009047D01*
X140857380Y-196770952D01*
X140809761Y-196675714D01*
X140762142Y-196628095D01*
%TO.C,U6*%
X92457380Y-190628095D02*
X93266904Y-190628095D01*
X93362142Y-190675714D01*
X93409761Y-190723333D01*
X93457380Y-190818571D01*
X93457380Y-191009047D01*
X93409761Y-191104285D01*
X93362142Y-191151904D01*
X93266904Y-191199523D01*
X92457380Y-191199523D01*
X92457380Y-192104285D02*
X92457380Y-191913809D01*
X92505000Y-191818571D01*
X92552619Y-191770952D01*
X92695476Y-191675714D01*
X92885952Y-191628095D01*
X93266904Y-191628095D01*
X93362142Y-191675714D01*
X93409761Y-191723333D01*
X93457380Y-191818571D01*
X93457380Y-192009047D01*
X93409761Y-192104285D01*
X93362142Y-192151904D01*
X93266904Y-192199523D01*
X93028809Y-192199523D01*
X92933571Y-192151904D01*
X92885952Y-192104285D01*
X92838333Y-192009047D01*
X92838333Y-191818571D01*
X92885952Y-191723333D01*
X92933571Y-191675714D01*
X93028809Y-191628095D01*
%TO.C,U8*%
X181882380Y-208428095D02*
X182691904Y-208428095D01*
X182787142Y-208475714D01*
X182834761Y-208523333D01*
X182882380Y-208618571D01*
X182882380Y-208809047D01*
X182834761Y-208904285D01*
X182787142Y-208951904D01*
X182691904Y-208999523D01*
X181882380Y-208999523D01*
X182310952Y-209618571D02*
X182263333Y-209523333D01*
X182215714Y-209475714D01*
X182120476Y-209428095D01*
X182072857Y-209428095D01*
X181977619Y-209475714D01*
X181930000Y-209523333D01*
X181882380Y-209618571D01*
X181882380Y-209809047D01*
X181930000Y-209904285D01*
X181977619Y-209951904D01*
X182072857Y-209999523D01*
X182120476Y-209999523D01*
X182215714Y-209951904D01*
X182263333Y-209904285D01*
X182310952Y-209809047D01*
X182310952Y-209618571D01*
X182358571Y-209523333D01*
X182406190Y-209475714D01*
X182501428Y-209428095D01*
X182691904Y-209428095D01*
X182787142Y-209475714D01*
X182834761Y-209523333D01*
X182882380Y-209618571D01*
X182882380Y-209809047D01*
X182834761Y-209904285D01*
X182787142Y-209951904D01*
X182691904Y-209999523D01*
X182501428Y-209999523D01*
X182406190Y-209951904D01*
X182358571Y-209904285D01*
X182310952Y-209809047D01*
%TO.C,U15*%
X56337380Y-168751904D02*
X57146904Y-168751904D01*
X57242142Y-168799523D01*
X57289761Y-168847142D01*
X57337380Y-168942380D01*
X57337380Y-169132857D01*
X57289761Y-169228095D01*
X57242142Y-169275714D01*
X57146904Y-169323333D01*
X56337380Y-169323333D01*
X57337380Y-170323333D02*
X57337380Y-169751904D01*
X57337380Y-170037619D02*
X56337380Y-170037619D01*
X56480238Y-169942380D01*
X56575476Y-169847142D01*
X56623095Y-169751904D01*
X56337380Y-171228095D02*
X56337380Y-170751904D01*
X56813571Y-170704285D01*
X56765952Y-170751904D01*
X56718333Y-170847142D01*
X56718333Y-171085238D01*
X56765952Y-171180476D01*
X56813571Y-171228095D01*
X56908809Y-171275714D01*
X57146904Y-171275714D01*
X57242142Y-171228095D01*
X57289761Y-171180476D01*
X57337380Y-171085238D01*
X57337380Y-170847142D01*
X57289761Y-170751904D01*
X57242142Y-170704285D01*
%TO.C,U1*%
X139857380Y-182478095D02*
X140666904Y-182478095D01*
X140762142Y-182525714D01*
X140809761Y-182573333D01*
X140857380Y-182668571D01*
X140857380Y-182859047D01*
X140809761Y-182954285D01*
X140762142Y-183001904D01*
X140666904Y-183049523D01*
X139857380Y-183049523D01*
X140857380Y-184049523D02*
X140857380Y-183478095D01*
X140857380Y-183763809D02*
X139857380Y-183763809D01*
X140000238Y-183668571D01*
X140095476Y-183573333D01*
X140143095Y-183478095D01*
%TO.C,P2*%
X186738095Y-226452380D02*
X186738095Y-225452380D01*
X186357142Y-225452380D01*
X186261904Y-225500000D01*
X186214285Y-225547619D01*
X186166666Y-225642857D01*
X186166666Y-225785714D01*
X186214285Y-225880952D01*
X186261904Y-225928571D01*
X186357142Y-225976190D01*
X186738095Y-225976190D01*
X185785714Y-225547619D02*
X185738095Y-225500000D01*
X185642857Y-225452380D01*
X185404761Y-225452380D01*
X185309523Y-225500000D01*
X185261904Y-225547619D01*
X185214285Y-225642857D01*
X185214285Y-225738095D01*
X185261904Y-225880952D01*
X185833333Y-226452380D01*
X185214285Y-226452380D01*
%TO.C,H2*%
X261761904Y-77952380D02*
X261761904Y-76952380D01*
X261761904Y-77428571D02*
X261190476Y-77428571D01*
X261190476Y-77952380D02*
X261190476Y-76952380D01*
X260761904Y-77047619D02*
X260714285Y-77000000D01*
X260619047Y-76952380D01*
X260380952Y-76952380D01*
X260285714Y-77000000D01*
X260238095Y-77047619D01*
X260190476Y-77142857D01*
X260190476Y-77238095D01*
X260238095Y-77380952D01*
X260809523Y-77952380D01*
X260190476Y-77952380D01*
%TO.C,RN1*%
X105177380Y-200309523D02*
X104701190Y-199976190D01*
X105177380Y-199738095D02*
X104177380Y-199738095D01*
X104177380Y-200119047D01*
X104225000Y-200214285D01*
X104272619Y-200261904D01*
X104367857Y-200309523D01*
X104510714Y-200309523D01*
X104605952Y-200261904D01*
X104653571Y-200214285D01*
X104701190Y-200119047D01*
X104701190Y-199738095D01*
X105177380Y-200738095D02*
X104177380Y-200738095D01*
X105177380Y-201309523D01*
X104177380Y-201309523D01*
X105177380Y-202309523D02*
X105177380Y-201738095D01*
X105177380Y-202023809D02*
X104177380Y-202023809D01*
X104320238Y-201928571D01*
X104415476Y-201833333D01*
X104463095Y-201738095D01*
%TO.C,U11*%
X97957380Y-207976904D02*
X98766904Y-207976904D01*
X98862142Y-208024523D01*
X98909761Y-208072142D01*
X98957380Y-208167380D01*
X98957380Y-208357857D01*
X98909761Y-208453095D01*
X98862142Y-208500714D01*
X98766904Y-208548333D01*
X97957380Y-208548333D01*
X98957380Y-209548333D02*
X98957380Y-208976904D01*
X98957380Y-209262619D02*
X97957380Y-209262619D01*
X98100238Y-209167380D01*
X98195476Y-209072142D01*
X98243095Y-208976904D01*
X98957380Y-210500714D02*
X98957380Y-209929285D01*
X98957380Y-210215000D02*
X97957380Y-210215000D01*
X98100238Y-210119761D01*
X98195476Y-210024523D01*
X98243095Y-209929285D01*
%TO.C,U16*%
X215957380Y-208001904D02*
X216766904Y-208001904D01*
X216862142Y-208049523D01*
X216909761Y-208097142D01*
X216957380Y-208192380D01*
X216957380Y-208382857D01*
X216909761Y-208478095D01*
X216862142Y-208525714D01*
X216766904Y-208573333D01*
X215957380Y-208573333D01*
X216957380Y-209573333D02*
X216957380Y-209001904D01*
X216957380Y-209287619D02*
X215957380Y-209287619D01*
X216100238Y-209192380D01*
X216195476Y-209097142D01*
X216243095Y-209001904D01*
X215957380Y-210430476D02*
X215957380Y-210240000D01*
X216005000Y-210144761D01*
X216052619Y-210097142D01*
X216195476Y-210001904D01*
X216385952Y-209954285D01*
X216766904Y-209954285D01*
X216862142Y-210001904D01*
X216909761Y-210049523D01*
X216957380Y-210144761D01*
X216957380Y-210335238D01*
X216909761Y-210430476D01*
X216862142Y-210478095D01*
X216766904Y-210525714D01*
X216528809Y-210525714D01*
X216433571Y-210478095D01*
X216385952Y-210430476D01*
X216338333Y-210335238D01*
X216338333Y-210144761D01*
X216385952Y-210049523D01*
X216433571Y-210001904D01*
X216528809Y-209954285D01*
%TO.C,J3*%
X87952380Y-111166666D02*
X88666666Y-111166666D01*
X88809523Y-111119047D01*
X88904761Y-111023809D01*
X88952380Y-110880952D01*
X88952380Y-110785714D01*
X87952380Y-111547619D02*
X87952380Y-112166666D01*
X88333333Y-111833333D01*
X88333333Y-111976190D01*
X88380952Y-112071428D01*
X88428571Y-112119047D01*
X88523809Y-112166666D01*
X88761904Y-112166666D01*
X88857142Y-112119047D01*
X88904761Y-112071428D01*
X88952380Y-111976190D01*
X88952380Y-111690476D01*
X88904761Y-111595238D01*
X88857142Y-111547619D01*
%TO.C,J1*%
X107952380Y-111166666D02*
X108666666Y-111166666D01*
X108809523Y-111119047D01*
X108904761Y-111023809D01*
X108952380Y-110880952D01*
X108952380Y-110785714D01*
X108952380Y-112166666D02*
X108952380Y-111595238D01*
X108952380Y-111880952D02*
X107952380Y-111880952D01*
X108095238Y-111785714D01*
X108190476Y-111690476D01*
X108238095Y-111595238D01*
%TO.C,C19*%
X43352142Y-170657142D02*
X43399761Y-170609523D01*
X43447380Y-170466666D01*
X43447380Y-170371428D01*
X43399761Y-170228571D01*
X43304523Y-170133333D01*
X43209285Y-170085714D01*
X43018809Y-170038095D01*
X42875952Y-170038095D01*
X42685476Y-170085714D01*
X42590238Y-170133333D01*
X42495000Y-170228571D01*
X42447380Y-170371428D01*
X42447380Y-170466666D01*
X42495000Y-170609523D01*
X42542619Y-170657142D01*
X43447380Y-171609523D02*
X43447380Y-171038095D01*
X43447380Y-171323809D02*
X42447380Y-171323809D01*
X42590238Y-171228571D01*
X42685476Y-171133333D01*
X42733095Y-171038095D01*
X43447380Y-172085714D02*
X43447380Y-172276190D01*
X43399761Y-172371428D01*
X43352142Y-172419047D01*
X43209285Y-172514285D01*
X43018809Y-172561904D01*
X42637857Y-172561904D01*
X42542619Y-172514285D01*
X42495000Y-172466666D01*
X42447380Y-172371428D01*
X42447380Y-172180952D01*
X42495000Y-172085714D01*
X42542619Y-172038095D01*
X42637857Y-171990476D01*
X42875952Y-171990476D01*
X42971190Y-172038095D01*
X43018809Y-172085714D01*
X43066428Y-172180952D01*
X43066428Y-172371428D01*
X43018809Y-172466666D01*
X42971190Y-172514285D01*
X42875952Y-172561904D01*
%TO.C,C18*%
X43477142Y-125557142D02*
X43524761Y-125509523D01*
X43572380Y-125366666D01*
X43572380Y-125271428D01*
X43524761Y-125128571D01*
X43429523Y-125033333D01*
X43334285Y-124985714D01*
X43143809Y-124938095D01*
X43000952Y-124938095D01*
X42810476Y-124985714D01*
X42715238Y-125033333D01*
X42620000Y-125128571D01*
X42572380Y-125271428D01*
X42572380Y-125366666D01*
X42620000Y-125509523D01*
X42667619Y-125557142D01*
X43572380Y-126509523D02*
X43572380Y-125938095D01*
X43572380Y-126223809D02*
X42572380Y-126223809D01*
X42715238Y-126128571D01*
X42810476Y-126033333D01*
X42858095Y-125938095D01*
X43000952Y-127080952D02*
X42953333Y-126985714D01*
X42905714Y-126938095D01*
X42810476Y-126890476D01*
X42762857Y-126890476D01*
X42667619Y-126938095D01*
X42620000Y-126985714D01*
X42572380Y-127080952D01*
X42572380Y-127271428D01*
X42620000Y-127366666D01*
X42667619Y-127414285D01*
X42762857Y-127461904D01*
X42810476Y-127461904D01*
X42905714Y-127414285D01*
X42953333Y-127366666D01*
X43000952Y-127271428D01*
X43000952Y-127080952D01*
X43048571Y-126985714D01*
X43096190Y-126938095D01*
X43191428Y-126890476D01*
X43381904Y-126890476D01*
X43477142Y-126938095D01*
X43524761Y-126985714D01*
X43572380Y-127080952D01*
X43572380Y-127271428D01*
X43524761Y-127366666D01*
X43477142Y-127414285D01*
X43381904Y-127461904D01*
X43191428Y-127461904D01*
X43096190Y-127414285D01*
X43048571Y-127366666D01*
X43000952Y-127271428D01*
%TO.C,C12*%
X84892857Y-154607142D02*
X84940476Y-154654761D01*
X85083333Y-154702380D01*
X85178571Y-154702380D01*
X85321428Y-154654761D01*
X85416666Y-154559523D01*
X85464285Y-154464285D01*
X85511904Y-154273809D01*
X85511904Y-154130952D01*
X85464285Y-153940476D01*
X85416666Y-153845238D01*
X85321428Y-153750000D01*
X85178571Y-153702380D01*
X85083333Y-153702380D01*
X84940476Y-153750000D01*
X84892857Y-153797619D01*
X83940476Y-154702380D02*
X84511904Y-154702380D01*
X84226190Y-154702380D02*
X84226190Y-153702380D01*
X84321428Y-153845238D01*
X84416666Y-153940476D01*
X84511904Y-153988095D01*
X83559523Y-153797619D02*
X83511904Y-153750000D01*
X83416666Y-153702380D01*
X83178571Y-153702380D01*
X83083333Y-153750000D01*
X83035714Y-153797619D01*
X82988095Y-153892857D01*
X82988095Y-153988095D01*
X83035714Y-154130952D01*
X83607142Y-154702380D01*
X82988095Y-154702380D01*
%TO.C,C16*%
X82932142Y-209882142D02*
X82979761Y-209834523D01*
X83027380Y-209691666D01*
X83027380Y-209596428D01*
X82979761Y-209453571D01*
X82884523Y-209358333D01*
X82789285Y-209310714D01*
X82598809Y-209263095D01*
X82455952Y-209263095D01*
X82265476Y-209310714D01*
X82170238Y-209358333D01*
X82075000Y-209453571D01*
X82027380Y-209596428D01*
X82027380Y-209691666D01*
X82075000Y-209834523D01*
X82122619Y-209882142D01*
X83027380Y-210834523D02*
X83027380Y-210263095D01*
X83027380Y-210548809D02*
X82027380Y-210548809D01*
X82170238Y-210453571D01*
X82265476Y-210358333D01*
X82313095Y-210263095D01*
X82027380Y-211691666D02*
X82027380Y-211501190D01*
X82075000Y-211405952D01*
X82122619Y-211358333D01*
X82265476Y-211263095D01*
X82455952Y-211215476D01*
X82836904Y-211215476D01*
X82932142Y-211263095D01*
X82979761Y-211310714D01*
X83027380Y-211405952D01*
X83027380Y-211596428D01*
X82979761Y-211691666D01*
X82932142Y-211739285D01*
X82836904Y-211786904D01*
X82598809Y-211786904D01*
X82503571Y-211739285D01*
X82455952Y-211691666D01*
X82408333Y-211596428D01*
X82408333Y-211405952D01*
X82455952Y-211310714D01*
X82503571Y-211263095D01*
X82598809Y-211215476D01*
%TO.C,U3*%
X55067380Y-154028095D02*
X55876904Y-154028095D01*
X55972142Y-154075714D01*
X56019761Y-154123333D01*
X56067380Y-154218571D01*
X56067380Y-154409047D01*
X56019761Y-154504285D01*
X55972142Y-154551904D01*
X55876904Y-154599523D01*
X55067380Y-154599523D01*
X55067380Y-154980476D02*
X55067380Y-155599523D01*
X55448333Y-155266190D01*
X55448333Y-155409047D01*
X55495952Y-155504285D01*
X55543571Y-155551904D01*
X55638809Y-155599523D01*
X55876904Y-155599523D01*
X55972142Y-155551904D01*
X56019761Y-155504285D01*
X56067380Y-155409047D01*
X56067380Y-155123333D01*
X56019761Y-155028095D01*
X55972142Y-154980476D01*
%TO.C,H1*%
X44761904Y-77952380D02*
X44761904Y-76952380D01*
X44761904Y-77428571D02*
X44190476Y-77428571D01*
X44190476Y-77952380D02*
X44190476Y-76952380D01*
X43190476Y-77952380D02*
X43761904Y-77952380D01*
X43476190Y-77952380D02*
X43476190Y-76952380D01*
X43571428Y-77095238D01*
X43666666Y-77190476D01*
X43761904Y-77238095D01*
%TO.C,P3*%
X262738095Y-226452380D02*
X262738095Y-225452380D01*
X262357142Y-225452380D01*
X262261904Y-225500000D01*
X262214285Y-225547619D01*
X262166666Y-225642857D01*
X262166666Y-225785714D01*
X262214285Y-225880952D01*
X262261904Y-225928571D01*
X262357142Y-225976190D01*
X262738095Y-225976190D01*
X261833333Y-225452380D02*
X261214285Y-225452380D01*
X261547619Y-225833333D01*
X261404761Y-225833333D01*
X261309523Y-225880952D01*
X261261904Y-225928571D01*
X261214285Y-226023809D01*
X261214285Y-226261904D01*
X261261904Y-226357142D01*
X261309523Y-226404761D01*
X261404761Y-226452380D01*
X261690476Y-226452380D01*
X261785714Y-226404761D01*
X261833333Y-226357142D01*
%TO.C,U13*%
X55442380Y-103101904D02*
X56251904Y-103101904D01*
X56347142Y-103149523D01*
X56394761Y-103197142D01*
X56442380Y-103292380D01*
X56442380Y-103482857D01*
X56394761Y-103578095D01*
X56347142Y-103625714D01*
X56251904Y-103673333D01*
X55442380Y-103673333D01*
X56442380Y-104673333D02*
X56442380Y-104101904D01*
X56442380Y-104387619D02*
X55442380Y-104387619D01*
X55585238Y-104292380D01*
X55680476Y-104197142D01*
X55728095Y-104101904D01*
X55442380Y-105006666D02*
X55442380Y-105625714D01*
X55823333Y-105292380D01*
X55823333Y-105435238D01*
X55870952Y-105530476D01*
X55918571Y-105578095D01*
X56013809Y-105625714D01*
X56251904Y-105625714D01*
X56347142Y-105578095D01*
X56394761Y-105530476D01*
X56442380Y-105435238D01*
X56442380Y-105149523D01*
X56394761Y-105054285D01*
X56347142Y-105006666D01*
%TO.C,C36*%
X188357142Y-98857142D02*
X188404761Y-98809523D01*
X188452380Y-98666666D01*
X188452380Y-98571428D01*
X188404761Y-98428571D01*
X188309523Y-98333333D01*
X188214285Y-98285714D01*
X188023809Y-98238095D01*
X187880952Y-98238095D01*
X187690476Y-98285714D01*
X187595238Y-98333333D01*
X187500000Y-98428571D01*
X187452380Y-98571428D01*
X187452380Y-98666666D01*
X187500000Y-98809523D01*
X187547619Y-98857142D01*
X187452380Y-99190476D02*
X187452380Y-99809523D01*
X187833333Y-99476190D01*
X187833333Y-99619047D01*
X187880952Y-99714285D01*
X187928571Y-99761904D01*
X188023809Y-99809523D01*
X188261904Y-99809523D01*
X188357142Y-99761904D01*
X188404761Y-99714285D01*
X188452380Y-99619047D01*
X188452380Y-99333333D01*
X188404761Y-99238095D01*
X188357142Y-99190476D01*
X187452380Y-100666666D02*
X187452380Y-100476190D01*
X187500000Y-100380952D01*
X187547619Y-100333333D01*
X187690476Y-100238095D01*
X187880952Y-100190476D01*
X188261904Y-100190476D01*
X188357142Y-100238095D01*
X188404761Y-100285714D01*
X188452380Y-100380952D01*
X188452380Y-100571428D01*
X188404761Y-100666666D01*
X188357142Y-100714285D01*
X188261904Y-100761904D01*
X188023809Y-100761904D01*
X187928571Y-100714285D01*
X187880952Y-100666666D01*
X187833333Y-100571428D01*
X187833333Y-100380952D01*
X187880952Y-100285714D01*
X187928571Y-100238095D01*
X188023809Y-100190476D01*
%TO.C,C38*%
X124432142Y-183907142D02*
X124479761Y-183859523D01*
X124527380Y-183716666D01*
X124527380Y-183621428D01*
X124479761Y-183478571D01*
X124384523Y-183383333D01*
X124289285Y-183335714D01*
X124098809Y-183288095D01*
X123955952Y-183288095D01*
X123765476Y-183335714D01*
X123670238Y-183383333D01*
X123575000Y-183478571D01*
X123527380Y-183621428D01*
X123527380Y-183716666D01*
X123575000Y-183859523D01*
X123622619Y-183907142D01*
X123527380Y-184240476D02*
X123527380Y-184859523D01*
X123908333Y-184526190D01*
X123908333Y-184669047D01*
X123955952Y-184764285D01*
X124003571Y-184811904D01*
X124098809Y-184859523D01*
X124336904Y-184859523D01*
X124432142Y-184811904D01*
X124479761Y-184764285D01*
X124527380Y-184669047D01*
X124527380Y-184383333D01*
X124479761Y-184288095D01*
X124432142Y-184240476D01*
X123955952Y-185430952D02*
X123908333Y-185335714D01*
X123860714Y-185288095D01*
X123765476Y-185240476D01*
X123717857Y-185240476D01*
X123622619Y-185288095D01*
X123575000Y-185335714D01*
X123527380Y-185430952D01*
X123527380Y-185621428D01*
X123575000Y-185716666D01*
X123622619Y-185764285D01*
X123717857Y-185811904D01*
X123765476Y-185811904D01*
X123860714Y-185764285D01*
X123908333Y-185716666D01*
X123955952Y-185621428D01*
X123955952Y-185430952D01*
X124003571Y-185335714D01*
X124051190Y-185288095D01*
X124146428Y-185240476D01*
X124336904Y-185240476D01*
X124432142Y-185288095D01*
X124479761Y-185335714D01*
X124527380Y-185430952D01*
X124527380Y-185621428D01*
X124479761Y-185716666D01*
X124432142Y-185764285D01*
X124336904Y-185811904D01*
X124146428Y-185811904D01*
X124051190Y-185764285D01*
X124003571Y-185716666D01*
X123955952Y-185621428D01*
%TO.C,C46*%
X112652042Y-95607142D02*
X112699661Y-95559523D01*
X112747280Y-95416666D01*
X112747280Y-95321428D01*
X112699661Y-95178571D01*
X112604423Y-95083333D01*
X112509185Y-95035714D01*
X112318709Y-94988095D01*
X112175852Y-94988095D01*
X111985376Y-95035714D01*
X111890138Y-95083333D01*
X111794900Y-95178571D01*
X111747280Y-95321428D01*
X111747280Y-95416666D01*
X111794900Y-95559523D01*
X111842519Y-95607142D01*
X112080614Y-96464285D02*
X112747280Y-96464285D01*
X111699661Y-96226190D02*
X112413947Y-95988095D01*
X112413947Y-96607142D01*
X111747280Y-97416666D02*
X111747280Y-97226190D01*
X111794900Y-97130952D01*
X111842519Y-97083333D01*
X111985376Y-96988095D01*
X112175852Y-96940476D01*
X112556804Y-96940476D01*
X112652042Y-96988095D01*
X112699661Y-97035714D01*
X112747280Y-97130952D01*
X112747280Y-97321428D01*
X112699661Y-97416666D01*
X112652042Y-97464285D01*
X112556804Y-97511904D01*
X112318709Y-97511904D01*
X112223471Y-97464285D01*
X112175852Y-97416666D01*
X112128233Y-97321428D01*
X112128233Y-97130952D01*
X112175852Y-97035714D01*
X112223471Y-96988095D01*
X112318709Y-96940476D01*
%TO.C,JP4*%
X188202380Y-177966666D02*
X188916666Y-177966666D01*
X189059523Y-177919047D01*
X189154761Y-177823809D01*
X189202380Y-177680952D01*
X189202380Y-177585714D01*
X189202380Y-178442857D02*
X188202380Y-178442857D01*
X188202380Y-178823809D01*
X188250000Y-178919047D01*
X188297619Y-178966666D01*
X188392857Y-179014285D01*
X188535714Y-179014285D01*
X188630952Y-178966666D01*
X188678571Y-178919047D01*
X188726190Y-178823809D01*
X188726190Y-178442857D01*
X188535714Y-179871428D02*
X189202380Y-179871428D01*
X188154761Y-179633333D02*
X188869047Y-179395238D01*
X188869047Y-180014285D01*
%TO.C,R21*%
X130452857Y-89452380D02*
X130786190Y-88976190D01*
X131024285Y-89452380D02*
X131024285Y-88452380D01*
X130643333Y-88452380D01*
X130548095Y-88500000D01*
X130500476Y-88547619D01*
X130452857Y-88642857D01*
X130452857Y-88785714D01*
X130500476Y-88880952D01*
X130548095Y-88928571D01*
X130643333Y-88976190D01*
X131024285Y-88976190D01*
X130071904Y-88547619D02*
X130024285Y-88500000D01*
X129929047Y-88452380D01*
X129690952Y-88452380D01*
X129595714Y-88500000D01*
X129548095Y-88547619D01*
X129500476Y-88642857D01*
X129500476Y-88738095D01*
X129548095Y-88880952D01*
X130119523Y-89452380D01*
X129500476Y-89452380D01*
X128548095Y-89452380D02*
X129119523Y-89452380D01*
X128833809Y-89452380D02*
X128833809Y-88452380D01*
X128929047Y-88595238D01*
X129024285Y-88690476D01*
X129119523Y-88738095D01*
%TO.C,RN3*%
X168277380Y-186609523D02*
X167801190Y-186276190D01*
X168277380Y-186038095D02*
X167277380Y-186038095D01*
X167277380Y-186419047D01*
X167325000Y-186514285D01*
X167372619Y-186561904D01*
X167467857Y-186609523D01*
X167610714Y-186609523D01*
X167705952Y-186561904D01*
X167753571Y-186514285D01*
X167801190Y-186419047D01*
X167801190Y-186038095D01*
X168277380Y-187038095D02*
X167277380Y-187038095D01*
X168277380Y-187609523D01*
X167277380Y-187609523D01*
X167277380Y-187990476D02*
X167277380Y-188609523D01*
X167658333Y-188276190D01*
X167658333Y-188419047D01*
X167705952Y-188514285D01*
X167753571Y-188561904D01*
X167848809Y-188609523D01*
X168086904Y-188609523D01*
X168182142Y-188561904D01*
X168229761Y-188514285D01*
X168277380Y-188419047D01*
X168277380Y-188133333D01*
X168229761Y-188038095D01*
X168182142Y-187990476D01*
%TO.C,U17*%
X251197380Y-162751904D02*
X252006904Y-162751904D01*
X252102142Y-162799523D01*
X252149761Y-162847142D01*
X252197380Y-162942380D01*
X252197380Y-163132857D01*
X252149761Y-163228095D01*
X252102142Y-163275714D01*
X252006904Y-163323333D01*
X251197380Y-163323333D01*
X252197380Y-164323333D02*
X252197380Y-163751904D01*
X252197380Y-164037619D02*
X251197380Y-164037619D01*
X251340238Y-163942380D01*
X251435476Y-163847142D01*
X251483095Y-163751904D01*
X251197380Y-164656666D02*
X251197380Y-165323333D01*
X252197380Y-164894761D01*
%TO.C,U19*%
X153718095Y-133202380D02*
X153718095Y-134011904D01*
X153670476Y-134107142D01*
X153622857Y-134154761D01*
X153527619Y-134202380D01*
X153337142Y-134202380D01*
X153241904Y-134154761D01*
X153194285Y-134107142D01*
X153146666Y-134011904D01*
X153146666Y-133202380D01*
X152146666Y-134202380D02*
X152718095Y-134202380D01*
X152432380Y-134202380D02*
X152432380Y-133202380D01*
X152527619Y-133345238D01*
X152622857Y-133440476D01*
X152718095Y-133488095D01*
X151670476Y-134202380D02*
X151480000Y-134202380D01*
X151384761Y-134154761D01*
X151337142Y-134107142D01*
X151241904Y-133964285D01*
X151194285Y-133773809D01*
X151194285Y-133392857D01*
X151241904Y-133297619D01*
X151289523Y-133250000D01*
X151384761Y-133202380D01*
X151575238Y-133202380D01*
X151670476Y-133250000D01*
X151718095Y-133297619D01*
X151765714Y-133392857D01*
X151765714Y-133630952D01*
X151718095Y-133726190D01*
X151670476Y-133773809D01*
X151575238Y-133821428D01*
X151384761Y-133821428D01*
X151289523Y-133773809D01*
X151241904Y-133726190D01*
X151194285Y-133630952D01*
%TO.C,U21*%
X181707380Y-195251904D02*
X182516904Y-195251904D01*
X182612142Y-195299523D01*
X182659761Y-195347142D01*
X182707380Y-195442380D01*
X182707380Y-195632857D01*
X182659761Y-195728095D01*
X182612142Y-195775714D01*
X182516904Y-195823333D01*
X181707380Y-195823333D01*
X181802619Y-196251904D02*
X181755000Y-196299523D01*
X181707380Y-196394761D01*
X181707380Y-196632857D01*
X181755000Y-196728095D01*
X181802619Y-196775714D01*
X181897857Y-196823333D01*
X181993095Y-196823333D01*
X182135952Y-196775714D01*
X182707380Y-196204285D01*
X182707380Y-196823333D01*
X182707380Y-197775714D02*
X182707380Y-197204285D01*
X182707380Y-197490000D02*
X181707380Y-197490000D01*
X181850238Y-197394761D01*
X181945476Y-197299523D01*
X181993095Y-197204285D01*
%TO.C,U7*%
X103741904Y-133192380D02*
X103741904Y-134001904D01*
X103694285Y-134097142D01*
X103646666Y-134144761D01*
X103551428Y-134192380D01*
X103360952Y-134192380D01*
X103265714Y-134144761D01*
X103218095Y-134097142D01*
X103170476Y-134001904D01*
X103170476Y-133192380D01*
X102789523Y-133192380D02*
X102122857Y-133192380D01*
X102551428Y-134192380D01*
%TO.C,J4*%
X77952380Y-111166666D02*
X78666666Y-111166666D01*
X78809523Y-111119047D01*
X78904761Y-111023809D01*
X78952380Y-110880952D01*
X78952380Y-110785714D01*
X78285714Y-112071428D02*
X78952380Y-112071428D01*
X77904761Y-111833333D02*
X78619047Y-111595238D01*
X78619047Y-112214285D01*
%TO.C,J2*%
X97952380Y-111166666D02*
X98666666Y-111166666D01*
X98809523Y-111119047D01*
X98904761Y-111023809D01*
X98952380Y-110880952D01*
X98952380Y-110785714D01*
X98047619Y-111595238D02*
X98000000Y-111642857D01*
X97952380Y-111738095D01*
X97952380Y-111976190D01*
X98000000Y-112071428D01*
X98047619Y-112119047D01*
X98142857Y-112166666D01*
X98238095Y-112166666D01*
X98380952Y-112119047D01*
X98952380Y-111547619D01*
X98952380Y-112166666D01*
%TO.C,C1*%
X262107154Y-92833333D02*
X262154773Y-92785714D01*
X262202392Y-92642857D01*
X262202392Y-92547619D01*
X262154773Y-92404761D01*
X262059535Y-92309523D01*
X261964297Y-92261904D01*
X261773821Y-92214285D01*
X261630964Y-92214285D01*
X261440488Y-92261904D01*
X261345250Y-92309523D01*
X261250012Y-92404761D01*
X261202392Y-92547619D01*
X261202392Y-92642857D01*
X261250012Y-92785714D01*
X261297631Y-92833333D01*
X262202392Y-93785714D02*
X262202392Y-93214285D01*
X262202392Y-93500000D02*
X261202392Y-93500000D01*
X261345250Y-93404761D01*
X261440488Y-93309523D01*
X261488107Y-93214285D01*
%TO.C,U24*%
X251197380Y-149751904D02*
X252006904Y-149751904D01*
X252102142Y-149799523D01*
X252149761Y-149847142D01*
X252197380Y-149942380D01*
X252197380Y-150132857D01*
X252149761Y-150228095D01*
X252102142Y-150275714D01*
X252006904Y-150323333D01*
X251197380Y-150323333D01*
X251292619Y-150751904D02*
X251245000Y-150799523D01*
X251197380Y-150894761D01*
X251197380Y-151132857D01*
X251245000Y-151228095D01*
X251292619Y-151275714D01*
X251387857Y-151323333D01*
X251483095Y-151323333D01*
X251625952Y-151275714D01*
X252197380Y-150704285D01*
X252197380Y-151323333D01*
X251530714Y-152180476D02*
X252197380Y-152180476D01*
X251149761Y-151942380D02*
X251864047Y-151704285D01*
X251864047Y-152323333D01*
%TO.C,JP7*%
X74333333Y-214952380D02*
X74333333Y-215666666D01*
X74380952Y-215809523D01*
X74476190Y-215904761D01*
X74619047Y-215952380D01*
X74714285Y-215952380D01*
X73857142Y-215952380D02*
X73857142Y-214952380D01*
X73476190Y-214952380D01*
X73380952Y-215000000D01*
X73333333Y-215047619D01*
X73285714Y-215142857D01*
X73285714Y-215285714D01*
X73333333Y-215380952D01*
X73380952Y-215428571D01*
X73476190Y-215476190D01*
X73857142Y-215476190D01*
X72952380Y-214952380D02*
X72285714Y-214952380D01*
X72714285Y-215952380D01*
%TO.C,RN4*%
X65527380Y-182059523D02*
X65051190Y-181726190D01*
X65527380Y-181488095D02*
X64527380Y-181488095D01*
X64527380Y-181869047D01*
X64575000Y-181964285D01*
X64622619Y-182011904D01*
X64717857Y-182059523D01*
X64860714Y-182059523D01*
X64955952Y-182011904D01*
X65003571Y-181964285D01*
X65051190Y-181869047D01*
X65051190Y-181488095D01*
X65527380Y-182488095D02*
X64527380Y-182488095D01*
X65527380Y-183059523D01*
X64527380Y-183059523D01*
X64860714Y-183964285D02*
X65527380Y-183964285D01*
X64479761Y-183726190D02*
X65194047Y-183488095D01*
X65194047Y-184107142D01*
%TO.C,J11*%
X187309523Y-74569880D02*
X187309523Y-75284166D01*
X187357142Y-75427023D01*
X187452380Y-75522261D01*
X187595238Y-75569880D01*
X187690476Y-75569880D01*
X186309523Y-75569880D02*
X186880952Y-75569880D01*
X186595238Y-75569880D02*
X186595238Y-74569880D01*
X186690476Y-74712738D01*
X186785714Y-74807976D01*
X186880952Y-74855595D01*
X185357142Y-75569880D02*
X185928571Y-75569880D01*
X185642857Y-75569880D02*
X185642857Y-74569880D01*
X185738095Y-74712738D01*
X185833333Y-74807976D01*
X185928571Y-74855595D01*
%TO.C,R10*%
X137702380Y-126447142D02*
X137226190Y-126113809D01*
X137702380Y-125875714D02*
X136702380Y-125875714D01*
X136702380Y-126256666D01*
X136750000Y-126351904D01*
X136797619Y-126399523D01*
X136892857Y-126447142D01*
X137035714Y-126447142D01*
X137130952Y-126399523D01*
X137178571Y-126351904D01*
X137226190Y-126256666D01*
X137226190Y-125875714D01*
X137702380Y-127399523D02*
X137702380Y-126828095D01*
X137702380Y-127113809D02*
X136702380Y-127113809D01*
X136845238Y-127018571D01*
X136940476Y-126923333D01*
X136988095Y-126828095D01*
X136702380Y-128018571D02*
X136702380Y-128113809D01*
X136750000Y-128209047D01*
X136797619Y-128256666D01*
X136892857Y-128304285D01*
X137083333Y-128351904D01*
X137321428Y-128351904D01*
X137511904Y-128304285D01*
X137607142Y-128256666D01*
X137654761Y-128209047D01*
X137702380Y-128113809D01*
X137702380Y-128018571D01*
X137654761Y-127923333D01*
X137607142Y-127875714D01*
X137511904Y-127828095D01*
X137321428Y-127780476D01*
X137083333Y-127780476D01*
X136892857Y-127828095D01*
X136797619Y-127875714D01*
X136750000Y-127923333D01*
X136702380Y-128018571D01*
%TO.C,RN5*%
X216452380Y-105809523D02*
X215976190Y-105476190D01*
X216452380Y-105238095D02*
X215452380Y-105238095D01*
X215452380Y-105619047D01*
X215500000Y-105714285D01*
X215547619Y-105761904D01*
X215642857Y-105809523D01*
X215785714Y-105809523D01*
X215880952Y-105761904D01*
X215928571Y-105714285D01*
X215976190Y-105619047D01*
X215976190Y-105238095D01*
X216452380Y-106238095D02*
X215452380Y-106238095D01*
X216452380Y-106809523D01*
X215452380Y-106809523D01*
X215452380Y-107761904D02*
X215452380Y-107285714D01*
X215928571Y-107238095D01*
X215880952Y-107285714D01*
X215833333Y-107380952D01*
X215833333Y-107619047D01*
X215880952Y-107714285D01*
X215928571Y-107761904D01*
X216023809Y-107809523D01*
X216261904Y-107809523D01*
X216357142Y-107761904D01*
X216404761Y-107714285D01*
X216452380Y-107619047D01*
X216452380Y-107380952D01*
X216404761Y-107285714D01*
X216357142Y-107238095D01*
%TO.C,U31*%
X203882380Y-96951904D02*
X204691904Y-96951904D01*
X204787142Y-96999523D01*
X204834761Y-97047142D01*
X204882380Y-97142380D01*
X204882380Y-97332857D01*
X204834761Y-97428095D01*
X204787142Y-97475714D01*
X204691904Y-97523333D01*
X203882380Y-97523333D01*
X203882380Y-97904285D02*
X203882380Y-98523333D01*
X204263333Y-98190000D01*
X204263333Y-98332857D01*
X204310952Y-98428095D01*
X204358571Y-98475714D01*
X204453809Y-98523333D01*
X204691904Y-98523333D01*
X204787142Y-98475714D01*
X204834761Y-98428095D01*
X204882380Y-98332857D01*
X204882380Y-98047142D01*
X204834761Y-97951904D01*
X204787142Y-97904285D01*
X204882380Y-99475714D02*
X204882380Y-98904285D01*
X204882380Y-99190000D02*
X203882380Y-99190000D01*
X204025238Y-99094761D01*
X204120476Y-98999523D01*
X204168095Y-98904285D01*
%TO.C,JP8*%
X168952380Y-177656666D02*
X169666666Y-177656666D01*
X169809523Y-177609047D01*
X169904761Y-177513809D01*
X169952380Y-177370952D01*
X169952380Y-177275714D01*
X169952380Y-178132857D02*
X168952380Y-178132857D01*
X168952380Y-178513809D01*
X169000000Y-178609047D01*
X169047619Y-178656666D01*
X169142857Y-178704285D01*
X169285714Y-178704285D01*
X169380952Y-178656666D01*
X169428571Y-178609047D01*
X169476190Y-178513809D01*
X169476190Y-178132857D01*
X169380952Y-179275714D02*
X169333333Y-179180476D01*
X169285714Y-179132857D01*
X169190476Y-179085238D01*
X169142857Y-179085238D01*
X169047619Y-179132857D01*
X169000000Y-179180476D01*
X168952380Y-179275714D01*
X168952380Y-179466190D01*
X169000000Y-179561428D01*
X169047619Y-179609047D01*
X169142857Y-179656666D01*
X169190476Y-179656666D01*
X169285714Y-179609047D01*
X169333333Y-179561428D01*
X169380952Y-179466190D01*
X169380952Y-179275714D01*
X169428571Y-179180476D01*
X169476190Y-179132857D01*
X169571428Y-179085238D01*
X169761904Y-179085238D01*
X169857142Y-179132857D01*
X169904761Y-179180476D01*
X169952380Y-179275714D01*
X169952380Y-179466190D01*
X169904761Y-179561428D01*
X169857142Y-179609047D01*
X169761904Y-179656666D01*
X169571428Y-179656666D01*
X169476190Y-179609047D01*
X169428571Y-179561428D01*
X169380952Y-179466190D01*
%TO.C,RN6*%
X152952380Y-172809523D02*
X152476190Y-172476190D01*
X152952380Y-172238095D02*
X151952380Y-172238095D01*
X151952380Y-172619047D01*
X152000000Y-172714285D01*
X152047619Y-172761904D01*
X152142857Y-172809523D01*
X152285714Y-172809523D01*
X152380952Y-172761904D01*
X152428571Y-172714285D01*
X152476190Y-172619047D01*
X152476190Y-172238095D01*
X152952380Y-173238095D02*
X151952380Y-173238095D01*
X152952380Y-173809523D01*
X151952380Y-173809523D01*
X151952380Y-174714285D02*
X151952380Y-174523809D01*
X152000000Y-174428571D01*
X152047619Y-174380952D01*
X152190476Y-174285714D01*
X152380952Y-174238095D01*
X152761904Y-174238095D01*
X152857142Y-174285714D01*
X152904761Y-174333333D01*
X152952380Y-174428571D01*
X152952380Y-174619047D01*
X152904761Y-174714285D01*
X152857142Y-174761904D01*
X152761904Y-174809523D01*
X152523809Y-174809523D01*
X152428571Y-174761904D01*
X152380952Y-174714285D01*
X152333333Y-174619047D01*
X152333333Y-174428571D01*
X152380952Y-174333333D01*
X152428571Y-174285714D01*
X152523809Y-174238095D01*
%TO.C,U34*%
X176147380Y-159451904D02*
X176956904Y-159451904D01*
X177052142Y-159499523D01*
X177099761Y-159547142D01*
X177147380Y-159642380D01*
X177147380Y-159832857D01*
X177099761Y-159928095D01*
X177052142Y-159975714D01*
X176956904Y-160023333D01*
X176147380Y-160023333D01*
X176147380Y-160404285D02*
X176147380Y-161023333D01*
X176528333Y-160690000D01*
X176528333Y-160832857D01*
X176575952Y-160928095D01*
X176623571Y-160975714D01*
X176718809Y-161023333D01*
X176956904Y-161023333D01*
X177052142Y-160975714D01*
X177099761Y-160928095D01*
X177147380Y-160832857D01*
X177147380Y-160547142D01*
X177099761Y-160451904D01*
X177052142Y-160404285D01*
X176480714Y-161880476D02*
X177147380Y-161880476D01*
X176099761Y-161642380D02*
X176814047Y-161404285D01*
X176814047Y-162023333D01*
%TO.C,U35*%
X92457380Y-175151904D02*
X93266904Y-175151904D01*
X93362142Y-175199523D01*
X93409761Y-175247142D01*
X93457380Y-175342380D01*
X93457380Y-175532857D01*
X93409761Y-175628095D01*
X93362142Y-175675714D01*
X93266904Y-175723333D01*
X92457380Y-175723333D01*
X92457380Y-176104285D02*
X92457380Y-176723333D01*
X92838333Y-176390000D01*
X92838333Y-176532857D01*
X92885952Y-176628095D01*
X92933571Y-176675714D01*
X93028809Y-176723333D01*
X93266904Y-176723333D01*
X93362142Y-176675714D01*
X93409761Y-176628095D01*
X93457380Y-176532857D01*
X93457380Y-176247142D01*
X93409761Y-176151904D01*
X93362142Y-176104285D01*
X92457380Y-177628095D02*
X92457380Y-177151904D01*
X92933571Y-177104285D01*
X92885952Y-177151904D01*
X92838333Y-177247142D01*
X92838333Y-177485238D01*
X92885952Y-177580476D01*
X92933571Y-177628095D01*
X93028809Y-177675714D01*
X93266904Y-177675714D01*
X93362142Y-177628095D01*
X93409761Y-177580476D01*
X93457380Y-177485238D01*
X93457380Y-177247142D01*
X93409761Y-177151904D01*
X93362142Y-177104285D01*
%TO.C,U36*%
X135922380Y-159501904D02*
X136731904Y-159501904D01*
X136827142Y-159549523D01*
X136874761Y-159597142D01*
X136922380Y-159692380D01*
X136922380Y-159882857D01*
X136874761Y-159978095D01*
X136827142Y-160025714D01*
X136731904Y-160073333D01*
X135922380Y-160073333D01*
X135922380Y-160454285D02*
X135922380Y-161073333D01*
X136303333Y-160740000D01*
X136303333Y-160882857D01*
X136350952Y-160978095D01*
X136398571Y-161025714D01*
X136493809Y-161073333D01*
X136731904Y-161073333D01*
X136827142Y-161025714D01*
X136874761Y-160978095D01*
X136922380Y-160882857D01*
X136922380Y-160597142D01*
X136874761Y-160501904D01*
X136827142Y-160454285D01*
X135922380Y-161930476D02*
X135922380Y-161740000D01*
X135970000Y-161644761D01*
X136017619Y-161597142D01*
X136160476Y-161501904D01*
X136350952Y-161454285D01*
X136731904Y-161454285D01*
X136827142Y-161501904D01*
X136874761Y-161549523D01*
X136922380Y-161644761D01*
X136922380Y-161835238D01*
X136874761Y-161930476D01*
X136827142Y-161978095D01*
X136731904Y-162025714D01*
X136493809Y-162025714D01*
X136398571Y-161978095D01*
X136350952Y-161930476D01*
X136303333Y-161835238D01*
X136303333Y-161644761D01*
X136350952Y-161549523D01*
X136398571Y-161501904D01*
X136493809Y-161454285D01*
%TO.C,U33*%
X169882380Y-96951904D02*
X170691904Y-96951904D01*
X170787142Y-96999523D01*
X170834761Y-97047142D01*
X170882380Y-97142380D01*
X170882380Y-97332857D01*
X170834761Y-97428095D01*
X170787142Y-97475714D01*
X170691904Y-97523333D01*
X169882380Y-97523333D01*
X169882380Y-97904285D02*
X169882380Y-98523333D01*
X170263333Y-98190000D01*
X170263333Y-98332857D01*
X170310952Y-98428095D01*
X170358571Y-98475714D01*
X170453809Y-98523333D01*
X170691904Y-98523333D01*
X170787142Y-98475714D01*
X170834761Y-98428095D01*
X170882380Y-98332857D01*
X170882380Y-98047142D01*
X170834761Y-97951904D01*
X170787142Y-97904285D01*
X169882380Y-98856666D02*
X169882380Y-99475714D01*
X170263333Y-99142380D01*
X170263333Y-99285238D01*
X170310952Y-99380476D01*
X170358571Y-99428095D01*
X170453809Y-99475714D01*
X170691904Y-99475714D01*
X170787142Y-99428095D01*
X170834761Y-99380476D01*
X170882380Y-99285238D01*
X170882380Y-98999523D01*
X170834761Y-98904285D01*
X170787142Y-98856666D01*
%TO.C,U37*%
X95172380Y-159501904D02*
X95981904Y-159501904D01*
X96077142Y-159549523D01*
X96124761Y-159597142D01*
X96172380Y-159692380D01*
X96172380Y-159882857D01*
X96124761Y-159978095D01*
X96077142Y-160025714D01*
X95981904Y-160073333D01*
X95172380Y-160073333D01*
X95172380Y-160454285D02*
X95172380Y-161073333D01*
X95553333Y-160740000D01*
X95553333Y-160882857D01*
X95600952Y-160978095D01*
X95648571Y-161025714D01*
X95743809Y-161073333D01*
X95981904Y-161073333D01*
X96077142Y-161025714D01*
X96124761Y-160978095D01*
X96172380Y-160882857D01*
X96172380Y-160597142D01*
X96124761Y-160501904D01*
X96077142Y-160454285D01*
X95172380Y-161406666D02*
X95172380Y-162073333D01*
X96172380Y-161644761D01*
%TO.C,U20*%
X56462380Y-123651904D02*
X57271904Y-123651904D01*
X57367142Y-123699523D01*
X57414761Y-123747142D01*
X57462380Y-123842380D01*
X57462380Y-124032857D01*
X57414761Y-124128095D01*
X57367142Y-124175714D01*
X57271904Y-124223333D01*
X56462380Y-124223333D01*
X56557619Y-124651904D02*
X56510000Y-124699523D01*
X56462380Y-124794761D01*
X56462380Y-125032857D01*
X56510000Y-125128095D01*
X56557619Y-125175714D01*
X56652857Y-125223333D01*
X56748095Y-125223333D01*
X56890952Y-125175714D01*
X57462380Y-124604285D01*
X57462380Y-125223333D01*
X56462380Y-125842380D02*
X56462380Y-125937619D01*
X56510000Y-126032857D01*
X56557619Y-126080476D01*
X56652857Y-126128095D01*
X56843333Y-126175714D01*
X57081428Y-126175714D01*
X57271904Y-126128095D01*
X57367142Y-126080476D01*
X57414761Y-126032857D01*
X57462380Y-125937619D01*
X57462380Y-125842380D01*
X57414761Y-125747142D01*
X57367142Y-125699523D01*
X57271904Y-125651904D01*
X57081428Y-125604285D01*
X56843333Y-125604285D01*
X56652857Y-125651904D01*
X56557619Y-125699523D01*
X56510000Y-125747142D01*
X56462380Y-125842380D01*
%TO.C,JP9*%
X227952380Y-177651666D02*
X228666666Y-177651666D01*
X228809523Y-177604047D01*
X228904761Y-177508809D01*
X228952380Y-177365952D01*
X228952380Y-177270714D01*
X228952380Y-178127857D02*
X227952380Y-178127857D01*
X227952380Y-178508809D01*
X228000000Y-178604047D01*
X228047619Y-178651666D01*
X228142857Y-178699285D01*
X228285714Y-178699285D01*
X228380952Y-178651666D01*
X228428571Y-178604047D01*
X228476190Y-178508809D01*
X228476190Y-178127857D01*
X228952380Y-179175476D02*
X228952380Y-179365952D01*
X228904761Y-179461190D01*
X228857142Y-179508809D01*
X228714285Y-179604047D01*
X228523809Y-179651666D01*
X228142857Y-179651666D01*
X228047619Y-179604047D01*
X228000000Y-179556428D01*
X227952380Y-179461190D01*
X227952380Y-179270714D01*
X228000000Y-179175476D01*
X228047619Y-179127857D01*
X228142857Y-179080238D01*
X228380952Y-179080238D01*
X228476190Y-179127857D01*
X228523809Y-179175476D01*
X228571428Y-179270714D01*
X228571428Y-179461190D01*
X228523809Y-179556428D01*
X228476190Y-179604047D01*
X228380952Y-179651666D01*
%TO.C,C37*%
X200432142Y-209907142D02*
X200479761Y-209859523D01*
X200527380Y-209716666D01*
X200527380Y-209621428D01*
X200479761Y-209478571D01*
X200384523Y-209383333D01*
X200289285Y-209335714D01*
X200098809Y-209288095D01*
X199955952Y-209288095D01*
X199765476Y-209335714D01*
X199670238Y-209383333D01*
X199575000Y-209478571D01*
X199527380Y-209621428D01*
X199527380Y-209716666D01*
X199575000Y-209859523D01*
X199622619Y-209907142D01*
X199527380Y-210240476D02*
X199527380Y-210859523D01*
X199908333Y-210526190D01*
X199908333Y-210669047D01*
X199955952Y-210764285D01*
X200003571Y-210811904D01*
X200098809Y-210859523D01*
X200336904Y-210859523D01*
X200432142Y-210811904D01*
X200479761Y-210764285D01*
X200527380Y-210669047D01*
X200527380Y-210383333D01*
X200479761Y-210288095D01*
X200432142Y-210240476D01*
X199527380Y-211192857D02*
X199527380Y-211859523D01*
X200527380Y-211430952D01*
%TO.C,JP10*%
X217202380Y-177215476D02*
X217916666Y-177215476D01*
X218059523Y-177167857D01*
X218154761Y-177072619D01*
X218202380Y-176929761D01*
X218202380Y-176834523D01*
X218202380Y-177691666D02*
X217202380Y-177691666D01*
X217202380Y-178072619D01*
X217250000Y-178167857D01*
X217297619Y-178215476D01*
X217392857Y-178263095D01*
X217535714Y-178263095D01*
X217630952Y-178215476D01*
X217678571Y-178167857D01*
X217726190Y-178072619D01*
X217726190Y-177691666D01*
X218202380Y-179215476D02*
X218202380Y-178644047D01*
X218202380Y-178929761D02*
X217202380Y-178929761D01*
X217345238Y-178834523D01*
X217440476Y-178739285D01*
X217488095Y-178644047D01*
X217202380Y-179834523D02*
X217202380Y-179929761D01*
X217250000Y-180025000D01*
X217297619Y-180072619D01*
X217392857Y-180120238D01*
X217583333Y-180167857D01*
X217821428Y-180167857D01*
X218011904Y-180120238D01*
X218107142Y-180072619D01*
X218154761Y-180025000D01*
X218202380Y-179929761D01*
X218202380Y-179834523D01*
X218154761Y-179739285D01*
X218107142Y-179691666D01*
X218011904Y-179644047D01*
X217821428Y-179596428D01*
X217583333Y-179596428D01*
X217392857Y-179644047D01*
X217297619Y-179691666D01*
X217250000Y-179739285D01*
X217202380Y-179834523D01*
%TO.C,RN7*%
X251905476Y-189952380D02*
X252238809Y-189476190D01*
X252476904Y-189952380D02*
X252476904Y-188952380D01*
X252095952Y-188952380D01*
X252000714Y-189000000D01*
X251953095Y-189047619D01*
X251905476Y-189142857D01*
X251905476Y-189285714D01*
X251953095Y-189380952D01*
X252000714Y-189428571D01*
X252095952Y-189476190D01*
X252476904Y-189476190D01*
X251476904Y-189952380D02*
X251476904Y-188952380D01*
X250905476Y-189952380D01*
X250905476Y-188952380D01*
X250524523Y-188952380D02*
X249857857Y-188952380D01*
X250286428Y-189952380D01*
%TO.C,RN8*%
X228527380Y-186559523D02*
X228051190Y-186226190D01*
X228527380Y-185988095D02*
X227527380Y-185988095D01*
X227527380Y-186369047D01*
X227575000Y-186464285D01*
X227622619Y-186511904D01*
X227717857Y-186559523D01*
X227860714Y-186559523D01*
X227955952Y-186511904D01*
X228003571Y-186464285D01*
X228051190Y-186369047D01*
X228051190Y-185988095D01*
X228527380Y-186988095D02*
X227527380Y-186988095D01*
X228527380Y-187559523D01*
X227527380Y-187559523D01*
X227955952Y-188178571D02*
X227908333Y-188083333D01*
X227860714Y-188035714D01*
X227765476Y-187988095D01*
X227717857Y-187988095D01*
X227622619Y-188035714D01*
X227575000Y-188083333D01*
X227527380Y-188178571D01*
X227527380Y-188369047D01*
X227575000Y-188464285D01*
X227622619Y-188511904D01*
X227717857Y-188559523D01*
X227765476Y-188559523D01*
X227860714Y-188511904D01*
X227908333Y-188464285D01*
X227955952Y-188369047D01*
X227955952Y-188178571D01*
X228003571Y-188083333D01*
X228051190Y-188035714D01*
X228146428Y-187988095D01*
X228336904Y-187988095D01*
X228432142Y-188035714D01*
X228479761Y-188083333D01*
X228527380Y-188178571D01*
X228527380Y-188369047D01*
X228479761Y-188464285D01*
X228432142Y-188511904D01*
X228336904Y-188559523D01*
X228146428Y-188559523D01*
X228051190Y-188511904D01*
X228003571Y-188464285D01*
X227955952Y-188369047D01*
%TO.C,U9*%
X252467380Y-195228095D02*
X253276904Y-195228095D01*
X253372142Y-195275714D01*
X253419761Y-195323333D01*
X253467380Y-195418571D01*
X253467380Y-195609047D01*
X253419761Y-195704285D01*
X253372142Y-195751904D01*
X253276904Y-195799523D01*
X252467380Y-195799523D01*
X253467380Y-196323333D02*
X253467380Y-196513809D01*
X253419761Y-196609047D01*
X253372142Y-196656666D01*
X253229285Y-196751904D01*
X253038809Y-196799523D01*
X252657857Y-196799523D01*
X252562619Y-196751904D01*
X252515000Y-196704285D01*
X252467380Y-196609047D01*
X252467380Y-196418571D01*
X252515000Y-196323333D01*
X252562619Y-196275714D01*
X252657857Y-196228095D01*
X252895952Y-196228095D01*
X252991190Y-196275714D01*
X253038809Y-196323333D01*
X253086428Y-196418571D01*
X253086428Y-196609047D01*
X253038809Y-196704285D01*
X252991190Y-196751904D01*
X252895952Y-196799523D01*
%TO.C,U10*%
X251197380Y-136751904D02*
X252006904Y-136751904D01*
X252102142Y-136799523D01*
X252149761Y-136847142D01*
X252197380Y-136942380D01*
X252197380Y-137132857D01*
X252149761Y-137228095D01*
X252102142Y-137275714D01*
X252006904Y-137323333D01*
X251197380Y-137323333D01*
X252197380Y-138323333D02*
X252197380Y-137751904D01*
X252197380Y-138037619D02*
X251197380Y-138037619D01*
X251340238Y-137942380D01*
X251435476Y-137847142D01*
X251483095Y-137751904D01*
X251197380Y-138942380D02*
X251197380Y-139037619D01*
X251245000Y-139132857D01*
X251292619Y-139180476D01*
X251387857Y-139228095D01*
X251578333Y-139275714D01*
X251816428Y-139275714D01*
X252006904Y-139228095D01*
X252102142Y-139180476D01*
X252149761Y-139132857D01*
X252197380Y-139037619D01*
X252197380Y-138942380D01*
X252149761Y-138847142D01*
X252102142Y-138799523D01*
X252006904Y-138751904D01*
X251816428Y-138704285D01*
X251578333Y-138704285D01*
X251387857Y-138751904D01*
X251292619Y-138799523D01*
X251245000Y-138847142D01*
X251197380Y-138942380D01*
%TO.C,U12*%
X215957380Y-195201904D02*
X216766904Y-195201904D01*
X216862142Y-195249523D01*
X216909761Y-195297142D01*
X216957380Y-195392380D01*
X216957380Y-195582857D01*
X216909761Y-195678095D01*
X216862142Y-195725714D01*
X216766904Y-195773333D01*
X215957380Y-195773333D01*
X216957380Y-196773333D02*
X216957380Y-196201904D01*
X216957380Y-196487619D02*
X215957380Y-196487619D01*
X216100238Y-196392380D01*
X216195476Y-196297142D01*
X216243095Y-196201904D01*
X216052619Y-197154285D02*
X216005000Y-197201904D01*
X215957380Y-197297142D01*
X215957380Y-197535238D01*
X216005000Y-197630476D01*
X216052619Y-197678095D01*
X216147857Y-197725714D01*
X216243095Y-197725714D01*
X216385952Y-197678095D01*
X216957380Y-197106666D01*
X216957380Y-197725714D01*
%TO.C,U22*%
X252467380Y-175751904D02*
X253276904Y-175751904D01*
X253372142Y-175799523D01*
X253419761Y-175847142D01*
X253467380Y-175942380D01*
X253467380Y-176132857D01*
X253419761Y-176228095D01*
X253372142Y-176275714D01*
X253276904Y-176323333D01*
X252467380Y-176323333D01*
X252562619Y-176751904D02*
X252515000Y-176799523D01*
X252467380Y-176894761D01*
X252467380Y-177132857D01*
X252515000Y-177228095D01*
X252562619Y-177275714D01*
X252657857Y-177323333D01*
X252753095Y-177323333D01*
X252895952Y-177275714D01*
X253467380Y-176704285D01*
X253467380Y-177323333D01*
X252562619Y-177704285D02*
X252515000Y-177751904D01*
X252467380Y-177847142D01*
X252467380Y-178085238D01*
X252515000Y-178180476D01*
X252562619Y-178228095D01*
X252657857Y-178275714D01*
X252753095Y-178275714D01*
X252895952Y-178228095D01*
X253467380Y-177656666D01*
X253467380Y-178275714D01*
%TO.C,U23*%
X139857380Y-207951904D02*
X140666904Y-207951904D01*
X140762142Y-207999523D01*
X140809761Y-208047142D01*
X140857380Y-208142380D01*
X140857380Y-208332857D01*
X140809761Y-208428095D01*
X140762142Y-208475714D01*
X140666904Y-208523333D01*
X139857380Y-208523333D01*
X139952619Y-208951904D02*
X139905000Y-208999523D01*
X139857380Y-209094761D01*
X139857380Y-209332857D01*
X139905000Y-209428095D01*
X139952619Y-209475714D01*
X140047857Y-209523333D01*
X140143095Y-209523333D01*
X140285952Y-209475714D01*
X140857380Y-208904285D01*
X140857380Y-209523333D01*
X139857380Y-209856666D02*
X139857380Y-210475714D01*
X140238333Y-210142380D01*
X140238333Y-210285238D01*
X140285952Y-210380476D01*
X140333571Y-210428095D01*
X140428809Y-210475714D01*
X140666904Y-210475714D01*
X140762142Y-210428095D01*
X140809761Y-210380476D01*
X140857380Y-210285238D01*
X140857380Y-209999523D01*
X140809761Y-209904285D01*
X140762142Y-209856666D01*
%TO.C,U32*%
X247512380Y-122951904D02*
X248321904Y-122951904D01*
X248417142Y-122999523D01*
X248464761Y-123047142D01*
X248512380Y-123142380D01*
X248512380Y-123332857D01*
X248464761Y-123428095D01*
X248417142Y-123475714D01*
X248321904Y-123523333D01*
X247512380Y-123523333D01*
X247512380Y-123904285D02*
X247512380Y-124523333D01*
X247893333Y-124190000D01*
X247893333Y-124332857D01*
X247940952Y-124428095D01*
X247988571Y-124475714D01*
X248083809Y-124523333D01*
X248321904Y-124523333D01*
X248417142Y-124475714D01*
X248464761Y-124428095D01*
X248512380Y-124332857D01*
X248512380Y-124047142D01*
X248464761Y-123951904D01*
X248417142Y-123904285D01*
X247607619Y-124904285D02*
X247560000Y-124951904D01*
X247512380Y-125047142D01*
X247512380Y-125285238D01*
X247560000Y-125380476D01*
X247607619Y-125428095D01*
X247702857Y-125475714D01*
X247798095Y-125475714D01*
X247940952Y-125428095D01*
X248512380Y-124856666D01*
X248512380Y-125475714D01*
%TO.C,C30*%
X239482142Y-177657142D02*
X239529761Y-177609523D01*
X239577380Y-177466666D01*
X239577380Y-177371428D01*
X239529761Y-177228571D01*
X239434523Y-177133333D01*
X239339285Y-177085714D01*
X239148809Y-177038095D01*
X239005952Y-177038095D01*
X238815476Y-177085714D01*
X238720238Y-177133333D01*
X238625000Y-177228571D01*
X238577380Y-177371428D01*
X238577380Y-177466666D01*
X238625000Y-177609523D01*
X238672619Y-177657142D01*
X238577380Y-177990476D02*
X238577380Y-178609523D01*
X238958333Y-178276190D01*
X238958333Y-178419047D01*
X239005952Y-178514285D01*
X239053571Y-178561904D01*
X239148809Y-178609523D01*
X239386904Y-178609523D01*
X239482142Y-178561904D01*
X239529761Y-178514285D01*
X239577380Y-178419047D01*
X239577380Y-178133333D01*
X239529761Y-178038095D01*
X239482142Y-177990476D01*
X238577380Y-179228571D02*
X238577380Y-179323809D01*
X238625000Y-179419047D01*
X238672619Y-179466666D01*
X238767857Y-179514285D01*
X238958333Y-179561904D01*
X239196428Y-179561904D01*
X239386904Y-179514285D01*
X239482142Y-179466666D01*
X239529761Y-179419047D01*
X239577380Y-179323809D01*
X239577380Y-179228571D01*
X239529761Y-179133333D01*
X239482142Y-179085714D01*
X239386904Y-179038095D01*
X239196428Y-178990476D01*
X238958333Y-178990476D01*
X238767857Y-179038095D01*
X238672619Y-179085714D01*
X238625000Y-179133333D01*
X238577380Y-179228571D01*
%TO.C,C31*%
X154357142Y-98857142D02*
X154404761Y-98809523D01*
X154452380Y-98666666D01*
X154452380Y-98571428D01*
X154404761Y-98428571D01*
X154309523Y-98333333D01*
X154214285Y-98285714D01*
X154023809Y-98238095D01*
X153880952Y-98238095D01*
X153690476Y-98285714D01*
X153595238Y-98333333D01*
X153500000Y-98428571D01*
X153452380Y-98571428D01*
X153452380Y-98666666D01*
X153500000Y-98809523D01*
X153547619Y-98857142D01*
X153452380Y-99190476D02*
X153452380Y-99809523D01*
X153833333Y-99476190D01*
X153833333Y-99619047D01*
X153880952Y-99714285D01*
X153928571Y-99761904D01*
X154023809Y-99809523D01*
X154261904Y-99809523D01*
X154357142Y-99761904D01*
X154404761Y-99714285D01*
X154452380Y-99619047D01*
X154452380Y-99333333D01*
X154404761Y-99238095D01*
X154357142Y-99190476D01*
X154452380Y-100761904D02*
X154452380Y-100190476D01*
X154452380Y-100476190D02*
X153452380Y-100476190D01*
X153595238Y-100380952D01*
X153690476Y-100285714D01*
X153738095Y-100190476D01*
%TO.C,C32*%
X239482142Y-196657142D02*
X239529761Y-196609523D01*
X239577380Y-196466666D01*
X239577380Y-196371428D01*
X239529761Y-196228571D01*
X239434523Y-196133333D01*
X239339285Y-196085714D01*
X239148809Y-196038095D01*
X239005952Y-196038095D01*
X238815476Y-196085714D01*
X238720238Y-196133333D01*
X238625000Y-196228571D01*
X238577380Y-196371428D01*
X238577380Y-196466666D01*
X238625000Y-196609523D01*
X238672619Y-196657142D01*
X238577380Y-196990476D02*
X238577380Y-197609523D01*
X238958333Y-197276190D01*
X238958333Y-197419047D01*
X239005952Y-197514285D01*
X239053571Y-197561904D01*
X239148809Y-197609523D01*
X239386904Y-197609523D01*
X239482142Y-197561904D01*
X239529761Y-197514285D01*
X239577380Y-197419047D01*
X239577380Y-197133333D01*
X239529761Y-197038095D01*
X239482142Y-196990476D01*
X238672619Y-197990476D02*
X238625000Y-198038095D01*
X238577380Y-198133333D01*
X238577380Y-198371428D01*
X238625000Y-198466666D01*
X238672619Y-198514285D01*
X238767857Y-198561904D01*
X238863095Y-198561904D01*
X239005952Y-198514285D01*
X239577380Y-197942857D01*
X239577380Y-198561904D01*
%TO.C,C33*%
X239482142Y-138657142D02*
X239529761Y-138609523D01*
X239577380Y-138466666D01*
X239577380Y-138371428D01*
X239529761Y-138228571D01*
X239434523Y-138133333D01*
X239339285Y-138085714D01*
X239148809Y-138038095D01*
X239005952Y-138038095D01*
X238815476Y-138085714D01*
X238720238Y-138133333D01*
X238625000Y-138228571D01*
X238577380Y-138371428D01*
X238577380Y-138466666D01*
X238625000Y-138609523D01*
X238672619Y-138657142D01*
X238577380Y-138990476D02*
X238577380Y-139609523D01*
X238958333Y-139276190D01*
X238958333Y-139419047D01*
X239005952Y-139514285D01*
X239053571Y-139561904D01*
X239148809Y-139609523D01*
X239386904Y-139609523D01*
X239482142Y-139561904D01*
X239529761Y-139514285D01*
X239577380Y-139419047D01*
X239577380Y-139133333D01*
X239529761Y-139038095D01*
X239482142Y-138990476D01*
X238577380Y-139942857D02*
X238577380Y-140561904D01*
X238958333Y-140228571D01*
X238958333Y-140371428D01*
X239005952Y-140466666D01*
X239053571Y-140514285D01*
X239148809Y-140561904D01*
X239386904Y-140561904D01*
X239482142Y-140514285D01*
X239529761Y-140466666D01*
X239577380Y-140371428D01*
X239577380Y-140085714D01*
X239529761Y-139990476D01*
X239482142Y-139942857D01*
%TO.C,C34*%
X239482142Y-164657142D02*
X239529761Y-164609523D01*
X239577380Y-164466666D01*
X239577380Y-164371428D01*
X239529761Y-164228571D01*
X239434523Y-164133333D01*
X239339285Y-164085714D01*
X239148809Y-164038095D01*
X239005952Y-164038095D01*
X238815476Y-164085714D01*
X238720238Y-164133333D01*
X238625000Y-164228571D01*
X238577380Y-164371428D01*
X238577380Y-164466666D01*
X238625000Y-164609523D01*
X238672619Y-164657142D01*
X238577380Y-164990476D02*
X238577380Y-165609523D01*
X238958333Y-165276190D01*
X238958333Y-165419047D01*
X239005952Y-165514285D01*
X239053571Y-165561904D01*
X239148809Y-165609523D01*
X239386904Y-165609523D01*
X239482142Y-165561904D01*
X239529761Y-165514285D01*
X239577380Y-165419047D01*
X239577380Y-165133333D01*
X239529761Y-165038095D01*
X239482142Y-164990476D01*
X238910714Y-166466666D02*
X239577380Y-166466666D01*
X238529761Y-166228571D02*
X239244047Y-165990476D01*
X239244047Y-166609523D01*
%TO.C,C35*%
X139642857Y-89357142D02*
X139690476Y-89404761D01*
X139833333Y-89452380D01*
X139928571Y-89452380D01*
X140071428Y-89404761D01*
X140166666Y-89309523D01*
X140214285Y-89214285D01*
X140261904Y-89023809D01*
X140261904Y-88880952D01*
X140214285Y-88690476D01*
X140166666Y-88595238D01*
X140071428Y-88500000D01*
X139928571Y-88452380D01*
X139833333Y-88452380D01*
X139690476Y-88500000D01*
X139642857Y-88547619D01*
X139309523Y-88452380D02*
X138690476Y-88452380D01*
X139023809Y-88833333D01*
X138880952Y-88833333D01*
X138785714Y-88880952D01*
X138738095Y-88928571D01*
X138690476Y-89023809D01*
X138690476Y-89261904D01*
X138738095Y-89357142D01*
X138785714Y-89404761D01*
X138880952Y-89452380D01*
X139166666Y-89452380D01*
X139261904Y-89404761D01*
X139309523Y-89357142D01*
X137785714Y-88452380D02*
X138261904Y-88452380D01*
X138309523Y-88928571D01*
X138261904Y-88880952D01*
X138166666Y-88833333D01*
X137928571Y-88833333D01*
X137833333Y-88880952D01*
X137785714Y-88928571D01*
X137738095Y-89023809D01*
X137738095Y-89261904D01*
X137785714Y-89357142D01*
X137833333Y-89404761D01*
X137928571Y-89452380D01*
X138166666Y-89452380D01*
X138261904Y-89404761D01*
X138309523Y-89357142D01*
%TO.C,U14*%
X135468095Y-103802380D02*
X135468095Y-104611904D01*
X135420476Y-104707142D01*
X135372857Y-104754761D01*
X135277619Y-104802380D01*
X135087142Y-104802380D01*
X134991904Y-104754761D01*
X134944285Y-104707142D01*
X134896666Y-104611904D01*
X134896666Y-103802380D01*
X133896666Y-104802380D02*
X134468095Y-104802380D01*
X134182380Y-104802380D02*
X134182380Y-103802380D01*
X134277619Y-103945238D01*
X134372857Y-104040476D01*
X134468095Y-104088095D01*
X133039523Y-104135714D02*
X133039523Y-104802380D01*
X133277619Y-103754761D02*
X133515714Y-104469047D01*
X132896666Y-104469047D01*
%TO.C,U2*%
X167072380Y-110428095D02*
X167881904Y-110428095D01*
X167977142Y-110475714D01*
X168024761Y-110523333D01*
X168072380Y-110618571D01*
X168072380Y-110809047D01*
X168024761Y-110904285D01*
X167977142Y-110951904D01*
X167881904Y-110999523D01*
X167072380Y-110999523D01*
X167167619Y-111428095D02*
X167120000Y-111475714D01*
X167072380Y-111570952D01*
X167072380Y-111809047D01*
X167120000Y-111904285D01*
X167167619Y-111951904D01*
X167262857Y-111999523D01*
X167358095Y-111999523D01*
X167500952Y-111951904D01*
X168072380Y-111380476D01*
X168072380Y-111999523D01*
%TO.C,U25*%
X215922380Y-159501904D02*
X216731904Y-159501904D01*
X216827142Y-159549523D01*
X216874761Y-159597142D01*
X216922380Y-159692380D01*
X216922380Y-159882857D01*
X216874761Y-159978095D01*
X216827142Y-160025714D01*
X216731904Y-160073333D01*
X215922380Y-160073333D01*
X216017619Y-160501904D02*
X215970000Y-160549523D01*
X215922380Y-160644761D01*
X215922380Y-160882857D01*
X215970000Y-160978095D01*
X216017619Y-161025714D01*
X216112857Y-161073333D01*
X216208095Y-161073333D01*
X216350952Y-161025714D01*
X216922380Y-160454285D01*
X216922380Y-161073333D01*
X215922380Y-161978095D02*
X215922380Y-161501904D01*
X216398571Y-161454285D01*
X216350952Y-161501904D01*
X216303333Y-161597142D01*
X216303333Y-161835238D01*
X216350952Y-161930476D01*
X216398571Y-161978095D01*
X216493809Y-162025714D01*
X216731904Y-162025714D01*
X216827142Y-161978095D01*
X216874761Y-161930476D01*
X216922380Y-161835238D01*
X216922380Y-161597142D01*
X216874761Y-161501904D01*
X216827142Y-161454285D01*
%TO.C,D3*%
X254261904Y-95702380D02*
X254261904Y-94702380D01*
X253690476Y-95702380D02*
X254119047Y-95130952D01*
X253690476Y-94702380D02*
X254261904Y-95273809D01*
D11*
X250480476Y-97611904D02*
X250480476Y-96811904D01*
X250290000Y-96811904D01*
X250175714Y-96850000D01*
X250099523Y-96926190D01*
X250061428Y-97002380D01*
X250023333Y-97154761D01*
X250023333Y-97269047D01*
X250061428Y-97421428D01*
X250099523Y-97497619D01*
X250175714Y-97573809D01*
X250290000Y-97611904D01*
X250480476Y-97611904D01*
X249756666Y-96811904D02*
X249261428Y-96811904D01*
X249528095Y-97116666D01*
X249413809Y-97116666D01*
X249337619Y-97154761D01*
X249299523Y-97192857D01*
X249261428Y-97269047D01*
X249261428Y-97459523D01*
X249299523Y-97535714D01*
X249337619Y-97573809D01*
X249413809Y-97611904D01*
X249642380Y-97611904D01*
X249718571Y-97573809D01*
X249756666Y-97535714D01*
D10*
%TO.C,R4*%
X250356666Y-85452380D02*
X250690000Y-84976190D01*
X250928095Y-85452380D02*
X250928095Y-84452380D01*
X250547142Y-84452380D01*
X250451904Y-84500000D01*
X250404285Y-84547619D01*
X250356666Y-84642857D01*
X250356666Y-84785714D01*
X250404285Y-84880952D01*
X250451904Y-84928571D01*
X250547142Y-84976190D01*
X250928095Y-84976190D01*
X249499523Y-84785714D02*
X249499523Y-85452380D01*
X249737619Y-84404761D02*
X249975714Y-85119047D01*
X249356666Y-85119047D01*
%TO.C,SW1*%
X253808333Y-78047261D02*
X253665476Y-78094880D01*
X253427380Y-78094880D01*
X253332142Y-78047261D01*
X253284523Y-77999642D01*
X253236904Y-77904404D01*
X253236904Y-77809166D01*
X253284523Y-77713928D01*
X253332142Y-77666309D01*
X253427380Y-77618690D01*
X253617857Y-77571071D01*
X253713095Y-77523452D01*
X253760714Y-77475833D01*
X253808333Y-77380595D01*
X253808333Y-77285357D01*
X253760714Y-77190119D01*
X253713095Y-77142500D01*
X253617857Y-77094880D01*
X253379761Y-77094880D01*
X253236904Y-77142500D01*
X252903571Y-77094880D02*
X252665476Y-78094880D01*
X252475000Y-77380595D01*
X252284523Y-78094880D01*
X252046428Y-77094880D01*
X251141666Y-78094880D02*
X251713095Y-78094880D01*
X251427380Y-78094880D02*
X251427380Y-77094880D01*
X251522619Y-77237738D01*
X251617857Y-77332976D01*
X251713095Y-77380595D01*
%TO.C,C39*%
X155357142Y-111857142D02*
X155404761Y-111809523D01*
X155452380Y-111666666D01*
X155452380Y-111571428D01*
X155404761Y-111428571D01*
X155309523Y-111333333D01*
X155214285Y-111285714D01*
X155023809Y-111238095D01*
X154880952Y-111238095D01*
X154690476Y-111285714D01*
X154595238Y-111333333D01*
X154500000Y-111428571D01*
X154452380Y-111571428D01*
X154452380Y-111666666D01*
X154500000Y-111809523D01*
X154547619Y-111857142D01*
X154452380Y-112190476D02*
X154452380Y-112809523D01*
X154833333Y-112476190D01*
X154833333Y-112619047D01*
X154880952Y-112714285D01*
X154928571Y-112761904D01*
X155023809Y-112809523D01*
X155261904Y-112809523D01*
X155357142Y-112761904D01*
X155404761Y-112714285D01*
X155452380Y-112619047D01*
X155452380Y-112333333D01*
X155404761Y-112238095D01*
X155357142Y-112190476D01*
X155452380Y-113285714D02*
X155452380Y-113476190D01*
X155404761Y-113571428D01*
X155357142Y-113619047D01*
X155214285Y-113714285D01*
X155023809Y-113761904D01*
X154642857Y-113761904D01*
X154547619Y-113714285D01*
X154500000Y-113666666D01*
X154452380Y-113571428D01*
X154452380Y-113380952D01*
X154500000Y-113285714D01*
X154547619Y-113238095D01*
X154642857Y-113190476D01*
X154880952Y-113190476D01*
X154976190Y-113238095D01*
X155023809Y-113285714D01*
X155071428Y-113380952D01*
X155071428Y-113571428D01*
X155023809Y-113666666D01*
X154976190Y-113714285D01*
X154880952Y-113761904D01*
%TO.C,RN9*%
X111952380Y-88309523D02*
X111476190Y-87976190D01*
X111952380Y-87738095D02*
X110952380Y-87738095D01*
X110952380Y-88119047D01*
X111000000Y-88214285D01*
X111047619Y-88261904D01*
X111142857Y-88309523D01*
X111285714Y-88309523D01*
X111380952Y-88261904D01*
X111428571Y-88214285D01*
X111476190Y-88119047D01*
X111476190Y-87738095D01*
X111952380Y-88738095D02*
X110952380Y-88738095D01*
X111952380Y-89309523D01*
X110952380Y-89309523D01*
X111952380Y-89833333D02*
X111952380Y-90023809D01*
X111904761Y-90119047D01*
X111857142Y-90166666D01*
X111714285Y-90261904D01*
X111523809Y-90309523D01*
X111142857Y-90309523D01*
X111047619Y-90261904D01*
X111000000Y-90214285D01*
X110952380Y-90119047D01*
X110952380Y-89928571D01*
X111000000Y-89833333D01*
X111047619Y-89785714D01*
X111142857Y-89738095D01*
X111380952Y-89738095D01*
X111476190Y-89785714D01*
X111523809Y-89833333D01*
X111571428Y-89928571D01*
X111571428Y-90119047D01*
X111523809Y-90214285D01*
X111476190Y-90261904D01*
X111380952Y-90309523D01*
%TO.C,R1*%
X258702380Y-124023333D02*
X258226190Y-123690000D01*
X258702380Y-123451904D02*
X257702380Y-123451904D01*
X257702380Y-123832857D01*
X257750000Y-123928095D01*
X257797619Y-123975714D01*
X257892857Y-124023333D01*
X258035714Y-124023333D01*
X258130952Y-123975714D01*
X258178571Y-123928095D01*
X258226190Y-123832857D01*
X258226190Y-123451904D01*
X258702380Y-124975714D02*
X258702380Y-124404285D01*
X258702380Y-124690000D02*
X257702380Y-124690000D01*
X257845238Y-124594761D01*
X257940476Y-124499523D01*
X257988095Y-124404285D01*
%TO.C,U18*%
X203218095Y-133202380D02*
X203218095Y-134011904D01*
X203170476Y-134107142D01*
X203122857Y-134154761D01*
X203027619Y-134202380D01*
X202837142Y-134202380D01*
X202741904Y-134154761D01*
X202694285Y-134107142D01*
X202646666Y-134011904D01*
X202646666Y-133202380D01*
X201646666Y-134202380D02*
X202218095Y-134202380D01*
X201932380Y-134202380D02*
X201932380Y-133202380D01*
X202027619Y-133345238D01*
X202122857Y-133440476D01*
X202218095Y-133488095D01*
X201075238Y-133630952D02*
X201170476Y-133583333D01*
X201218095Y-133535714D01*
X201265714Y-133440476D01*
X201265714Y-133392857D01*
X201218095Y-133297619D01*
X201170476Y-133250000D01*
X201075238Y-133202380D01*
X200884761Y-133202380D01*
X200789523Y-133250000D01*
X200741904Y-133297619D01*
X200694285Y-133392857D01*
X200694285Y-133440476D01*
X200741904Y-133535714D01*
X200789523Y-133583333D01*
X200884761Y-133630952D01*
X201075238Y-133630952D01*
X201170476Y-133678571D01*
X201218095Y-133726190D01*
X201265714Y-133821428D01*
X201265714Y-134011904D01*
X201218095Y-134107142D01*
X201170476Y-134154761D01*
X201075238Y-134202380D01*
X200884761Y-134202380D01*
X200789523Y-134154761D01*
X200741904Y-134107142D01*
X200694285Y-134011904D01*
X200694285Y-133821428D01*
X200741904Y-133726190D01*
X200789523Y-133678571D01*
X200884761Y-133630952D01*
%TO.C,JP6*%
X198702380Y-177466666D02*
X199416666Y-177466666D01*
X199559523Y-177419047D01*
X199654761Y-177323809D01*
X199702380Y-177180952D01*
X199702380Y-177085714D01*
X199702380Y-177942857D02*
X198702380Y-177942857D01*
X198702380Y-178323809D01*
X198750000Y-178419047D01*
X198797619Y-178466666D01*
X198892857Y-178514285D01*
X199035714Y-178514285D01*
X199130952Y-178466666D01*
X199178571Y-178419047D01*
X199226190Y-178323809D01*
X199226190Y-177942857D01*
X198702380Y-179371428D02*
X198702380Y-179180952D01*
X198750000Y-179085714D01*
X198797619Y-179038095D01*
X198940476Y-178942857D01*
X199130952Y-178895238D01*
X199511904Y-178895238D01*
X199607142Y-178942857D01*
X199654761Y-178990476D01*
X199702380Y-179085714D01*
X199702380Y-179276190D01*
X199654761Y-179371428D01*
X199607142Y-179419047D01*
X199511904Y-179466666D01*
X199273809Y-179466666D01*
X199178571Y-179419047D01*
X199130952Y-179371428D01*
X199083333Y-179276190D01*
X199083333Y-179085714D01*
X199130952Y-178990476D01*
X199178571Y-178942857D01*
X199273809Y-178895238D01*
%TO.C,C13*%
X205642857Y-154607142D02*
X205690476Y-154654761D01*
X205833333Y-154702380D01*
X205928571Y-154702380D01*
X206071428Y-154654761D01*
X206166666Y-154559523D01*
X206214285Y-154464285D01*
X206261904Y-154273809D01*
X206261904Y-154130952D01*
X206214285Y-153940476D01*
X206166666Y-153845238D01*
X206071428Y-153750000D01*
X205928571Y-153702380D01*
X205833333Y-153702380D01*
X205690476Y-153750000D01*
X205642857Y-153797619D01*
X204690476Y-154702380D02*
X205261904Y-154702380D01*
X204976190Y-154702380D02*
X204976190Y-153702380D01*
X205071428Y-153845238D01*
X205166666Y-153940476D01*
X205261904Y-153988095D01*
X204357142Y-153702380D02*
X203738095Y-153702380D01*
X204071428Y-154083333D01*
X203928571Y-154083333D01*
X203833333Y-154130952D01*
X203785714Y-154178571D01*
X203738095Y-154273809D01*
X203738095Y-154511904D01*
X203785714Y-154607142D01*
X203833333Y-154654761D01*
X203928571Y-154702380D01*
X204214285Y-154702380D01*
X204309523Y-154654761D01*
X204357142Y-154607142D01*
%TO.C,C24*%
X187107142Y-136257142D02*
X187154761Y-136209523D01*
X187202380Y-136066666D01*
X187202380Y-135971428D01*
X187154761Y-135828571D01*
X187059523Y-135733333D01*
X186964285Y-135685714D01*
X186773809Y-135638095D01*
X186630952Y-135638095D01*
X186440476Y-135685714D01*
X186345238Y-135733333D01*
X186250000Y-135828571D01*
X186202380Y-135971428D01*
X186202380Y-136066666D01*
X186250000Y-136209523D01*
X186297619Y-136257142D01*
X186297619Y-136638095D02*
X186250000Y-136685714D01*
X186202380Y-136780952D01*
X186202380Y-137019047D01*
X186250000Y-137114285D01*
X186297619Y-137161904D01*
X186392857Y-137209523D01*
X186488095Y-137209523D01*
X186630952Y-137161904D01*
X187202380Y-136590476D01*
X187202380Y-137209523D01*
X186535714Y-138066666D02*
X187202380Y-138066666D01*
X186154761Y-137828571D02*
X186869047Y-137590476D01*
X186869047Y-138209523D01*
%TO.C,P4*%
X62630380Y-217761904D02*
X61630380Y-217761904D01*
X61630380Y-218142857D01*
X61678000Y-218238095D01*
X61725619Y-218285714D01*
X61820857Y-218333333D01*
X61963714Y-218333333D01*
X62058952Y-218285714D01*
X62106571Y-218238095D01*
X62154190Y-218142857D01*
X62154190Y-217761904D01*
X61963714Y-219190476D02*
X62630380Y-219190476D01*
X61582761Y-218952380D02*
X62297047Y-218714285D01*
X62297047Y-219333333D01*
%TO.C,R3*%
X158202380Y-196273333D02*
X157726190Y-195940000D01*
X158202380Y-195701904D02*
X157202380Y-195701904D01*
X157202380Y-196082857D01*
X157250000Y-196178095D01*
X157297619Y-196225714D01*
X157392857Y-196273333D01*
X157535714Y-196273333D01*
X157630952Y-196225714D01*
X157678571Y-196178095D01*
X157726190Y-196082857D01*
X157726190Y-195701904D01*
X157202380Y-196606666D02*
X157202380Y-197225714D01*
X157583333Y-196892380D01*
X157583333Y-197035238D01*
X157630952Y-197130476D01*
X157678571Y-197178095D01*
X157773809Y-197225714D01*
X158011904Y-197225714D01*
X158107142Y-197178095D01*
X158154761Y-197130476D01*
X158202380Y-197035238D01*
X158202380Y-196749523D01*
X158154761Y-196654285D01*
X158107142Y-196606666D01*
%TO.C,R11*%
X258702380Y-110607142D02*
X258226190Y-110273809D01*
X258702380Y-110035714D02*
X257702380Y-110035714D01*
X257702380Y-110416666D01*
X257750000Y-110511904D01*
X257797619Y-110559523D01*
X257892857Y-110607142D01*
X258035714Y-110607142D01*
X258130952Y-110559523D01*
X258178571Y-110511904D01*
X258226190Y-110416666D01*
X258226190Y-110035714D01*
X258702380Y-111559523D02*
X258702380Y-110988095D01*
X258702380Y-111273809D02*
X257702380Y-111273809D01*
X257845238Y-111178571D01*
X257940476Y-111083333D01*
X257988095Y-110988095D01*
X258702380Y-112511904D02*
X258702380Y-111940476D01*
X258702380Y-112226190D02*
X257702380Y-112226190D01*
X257845238Y-112130952D01*
X257940476Y-112035714D01*
X257988095Y-111940476D01*
%TO.C,J6*%
X62702380Y-195381666D02*
X63416666Y-195381666D01*
X63559523Y-195334047D01*
X63654761Y-195238809D01*
X63702380Y-195095952D01*
X63702380Y-195000714D01*
X62702380Y-196286428D02*
X62702380Y-196095952D01*
X62750000Y-196000714D01*
X62797619Y-195953095D01*
X62940476Y-195857857D01*
X63130952Y-195810238D01*
X63511904Y-195810238D01*
X63607142Y-195857857D01*
X63654761Y-195905476D01*
X63702380Y-196000714D01*
X63702380Y-196191190D01*
X63654761Y-196286428D01*
X63607142Y-196334047D01*
X63511904Y-196381666D01*
X63273809Y-196381666D01*
X63178571Y-196334047D01*
X63130952Y-196286428D01*
X63083333Y-196191190D01*
X63083333Y-196000714D01*
X63130952Y-195905476D01*
X63178571Y-195857857D01*
X63273809Y-195810238D01*
%TO.C,U27*%
X249957380Y-208001904D02*
X250766904Y-208001904D01*
X250862142Y-208049523D01*
X250909761Y-208097142D01*
X250957380Y-208192380D01*
X250957380Y-208382857D01*
X250909761Y-208478095D01*
X250862142Y-208525714D01*
X250766904Y-208573333D01*
X249957380Y-208573333D01*
X250052619Y-209001904D02*
X250005000Y-209049523D01*
X249957380Y-209144761D01*
X249957380Y-209382857D01*
X250005000Y-209478095D01*
X250052619Y-209525714D01*
X250147857Y-209573333D01*
X250243095Y-209573333D01*
X250385952Y-209525714D01*
X250957380Y-208954285D01*
X250957380Y-209573333D01*
X249957380Y-209906666D02*
X249957380Y-210573333D01*
X250957380Y-210144761D01*
%TO.C,C40*%
X234432142Y-209907142D02*
X234479761Y-209859523D01*
X234527380Y-209716666D01*
X234527380Y-209621428D01*
X234479761Y-209478571D01*
X234384523Y-209383333D01*
X234289285Y-209335714D01*
X234098809Y-209288095D01*
X233955952Y-209288095D01*
X233765476Y-209335714D01*
X233670238Y-209383333D01*
X233575000Y-209478571D01*
X233527380Y-209621428D01*
X233527380Y-209716666D01*
X233575000Y-209859523D01*
X233622619Y-209907142D01*
X233860714Y-210764285D02*
X234527380Y-210764285D01*
X233479761Y-210526190D02*
X234194047Y-210288095D01*
X234194047Y-210907142D01*
X233527380Y-211478571D02*
X233527380Y-211573809D01*
X233575000Y-211669047D01*
X233622619Y-211716666D01*
X233717857Y-211764285D01*
X233908333Y-211811904D01*
X234146428Y-211811904D01*
X234336904Y-211764285D01*
X234432142Y-211716666D01*
X234479761Y-211669047D01*
X234527380Y-211573809D01*
X234527380Y-211478571D01*
X234479761Y-211383333D01*
X234432142Y-211335714D01*
X234336904Y-211288095D01*
X234146428Y-211240476D01*
X233908333Y-211240476D01*
X233717857Y-211288095D01*
X233622619Y-211335714D01*
X233575000Y-211383333D01*
X233527380Y-211478571D01*
%TO.C,J5*%
X62702380Y-203396666D02*
X63416666Y-203396666D01*
X63559523Y-203349047D01*
X63654761Y-203253809D01*
X63702380Y-203110952D01*
X63702380Y-203015714D01*
X62702380Y-204349047D02*
X62702380Y-203872857D01*
X63178571Y-203825238D01*
X63130952Y-203872857D01*
X63083333Y-203968095D01*
X63083333Y-204206190D01*
X63130952Y-204301428D01*
X63178571Y-204349047D01*
X63273809Y-204396666D01*
X63511904Y-204396666D01*
X63607142Y-204349047D01*
X63654761Y-204301428D01*
X63702380Y-204206190D01*
X63702380Y-203968095D01*
X63654761Y-203872857D01*
X63607142Y-203825238D01*
%TO.C,U28*%
X247462380Y-110001904D02*
X248271904Y-110001904D01*
X248367142Y-110049523D01*
X248414761Y-110097142D01*
X248462380Y-110192380D01*
X248462380Y-110382857D01*
X248414761Y-110478095D01*
X248367142Y-110525714D01*
X248271904Y-110573333D01*
X247462380Y-110573333D01*
X247557619Y-111001904D02*
X247510000Y-111049523D01*
X247462380Y-111144761D01*
X247462380Y-111382857D01*
X247510000Y-111478095D01*
X247557619Y-111525714D01*
X247652857Y-111573333D01*
X247748095Y-111573333D01*
X247890952Y-111525714D01*
X248462380Y-110954285D01*
X248462380Y-111573333D01*
X247890952Y-112144761D02*
X247843333Y-112049523D01*
X247795714Y-112001904D01*
X247700476Y-111954285D01*
X247652857Y-111954285D01*
X247557619Y-112001904D01*
X247510000Y-112049523D01*
X247462380Y-112144761D01*
X247462380Y-112335238D01*
X247510000Y-112430476D01*
X247557619Y-112478095D01*
X247652857Y-112525714D01*
X247700476Y-112525714D01*
X247795714Y-112478095D01*
X247843333Y-112430476D01*
X247890952Y-112335238D01*
X247890952Y-112144761D01*
X247938571Y-112049523D01*
X247986190Y-112001904D01*
X248081428Y-111954285D01*
X248271904Y-111954285D01*
X248367142Y-112001904D01*
X248414761Y-112049523D01*
X248462380Y-112144761D01*
X248462380Y-112335238D01*
X248414761Y-112430476D01*
X248367142Y-112478095D01*
X248271904Y-112525714D01*
X248081428Y-112525714D01*
X247986190Y-112478095D01*
X247938571Y-112430476D01*
X247890952Y-112335238D01*
%TO.C,R7*%
X250356666Y-91702380D02*
X250690000Y-91226190D01*
X250928095Y-91702380D02*
X250928095Y-90702380D01*
X250547142Y-90702380D01*
X250451904Y-90750000D01*
X250404285Y-90797619D01*
X250356666Y-90892857D01*
X250356666Y-91035714D01*
X250404285Y-91130952D01*
X250451904Y-91178571D01*
X250547142Y-91226190D01*
X250928095Y-91226190D01*
X250023333Y-90702380D02*
X249356666Y-90702380D01*
X249785238Y-91702380D01*
%TO.C,Q1*%
X262297619Y-101764761D02*
X262250000Y-101669523D01*
X262154761Y-101574285D01*
X262011904Y-101431428D01*
X261964285Y-101336190D01*
X261964285Y-101240952D01*
X262202380Y-101288571D02*
X262154761Y-101193333D01*
X262059523Y-101098095D01*
X261869047Y-101050476D01*
X261535714Y-101050476D01*
X261345238Y-101098095D01*
X261250000Y-101193333D01*
X261202380Y-101288571D01*
X261202380Y-101479047D01*
X261250000Y-101574285D01*
X261345238Y-101669523D01*
X261535714Y-101717142D01*
X261869047Y-101717142D01*
X262059523Y-101669523D01*
X262154761Y-101574285D01*
X262202380Y-101479047D01*
X262202380Y-101288571D01*
X262202380Y-102669523D02*
X262202380Y-102098095D01*
X262202380Y-102383809D02*
X261202380Y-102383809D01*
X261345238Y-102288571D01*
X261440476Y-102193333D01*
X261488095Y-102098095D01*
%TO.C,U26*%
X261202380Y-83811904D02*
X262011904Y-83811904D01*
X262107142Y-83859523D01*
X262154761Y-83907142D01*
X262202380Y-84002380D01*
X262202380Y-84192857D01*
X262154761Y-84288095D01*
X262107142Y-84335714D01*
X262011904Y-84383333D01*
X261202380Y-84383333D01*
X261297619Y-84811904D02*
X261250000Y-84859523D01*
X261202380Y-84954761D01*
X261202380Y-85192857D01*
X261250000Y-85288095D01*
X261297619Y-85335714D01*
X261392857Y-85383333D01*
X261488095Y-85383333D01*
X261630952Y-85335714D01*
X262202380Y-84764285D01*
X262202380Y-85383333D01*
X261202380Y-86240476D02*
X261202380Y-86050000D01*
X261250000Y-85954761D01*
X261297619Y-85907142D01*
X261440476Y-85811904D01*
X261630952Y-85764285D01*
X262011904Y-85764285D01*
X262107142Y-85811904D01*
X262154761Y-85859523D01*
X262202380Y-85954761D01*
X262202380Y-86145238D01*
X262154761Y-86240476D01*
X262107142Y-86288095D01*
X262011904Y-86335714D01*
X261773809Y-86335714D01*
X261678571Y-86288095D01*
X261630952Y-86240476D01*
X261583333Y-86145238D01*
X261583333Y-85954761D01*
X261630952Y-85859523D01*
X261678571Y-85811904D01*
X261773809Y-85764285D01*
%TO.C,JP14*%
X100702380Y-217190476D02*
X101416666Y-217190476D01*
X101559523Y-217142857D01*
X101654761Y-217047619D01*
X101702380Y-216904761D01*
X101702380Y-216809523D01*
X101702380Y-217666666D02*
X100702380Y-217666666D01*
X100702380Y-218047619D01*
X100750000Y-218142857D01*
X100797619Y-218190476D01*
X100892857Y-218238095D01*
X101035714Y-218238095D01*
X101130952Y-218190476D01*
X101178571Y-218142857D01*
X101226190Y-218047619D01*
X101226190Y-217666666D01*
X101702380Y-219190476D02*
X101702380Y-218619047D01*
X101702380Y-218904761D02*
X100702380Y-218904761D01*
X100845238Y-218809523D01*
X100940476Y-218714285D01*
X100988095Y-218619047D01*
X101035714Y-220047619D02*
X101702380Y-220047619D01*
X100654761Y-219809523D02*
X101369047Y-219571428D01*
X101369047Y-220190476D01*
%TO.C,R9*%
X110952380Y-191393333D02*
X110476190Y-191060000D01*
X110952380Y-190821904D02*
X109952380Y-190821904D01*
X109952380Y-191202857D01*
X110000000Y-191298095D01*
X110047619Y-191345714D01*
X110142857Y-191393333D01*
X110285714Y-191393333D01*
X110380952Y-191345714D01*
X110428571Y-191298095D01*
X110476190Y-191202857D01*
X110476190Y-190821904D01*
X110952380Y-191869523D02*
X110952380Y-192060000D01*
X110904761Y-192155238D01*
X110857142Y-192202857D01*
X110714285Y-192298095D01*
X110523809Y-192345714D01*
X110142857Y-192345714D01*
X110047619Y-192298095D01*
X110000000Y-192250476D01*
X109952380Y-192155238D01*
X109952380Y-191964761D01*
X110000000Y-191869523D01*
X110047619Y-191821904D01*
X110142857Y-191774285D01*
X110380952Y-191774285D01*
X110476190Y-191821904D01*
X110523809Y-191869523D01*
X110571428Y-191964761D01*
X110571428Y-192155238D01*
X110523809Y-192250476D01*
X110476190Y-192298095D01*
X110380952Y-192345714D01*
%TO.C,R2*%
X158202380Y-183083333D02*
X157726190Y-182750000D01*
X158202380Y-182511904D02*
X157202380Y-182511904D01*
X157202380Y-182892857D01*
X157250000Y-182988095D01*
X157297619Y-183035714D01*
X157392857Y-183083333D01*
X157535714Y-183083333D01*
X157630952Y-183035714D01*
X157678571Y-182988095D01*
X157726190Y-182892857D01*
X157726190Y-182511904D01*
X157297619Y-183464285D02*
X157250000Y-183511904D01*
X157202380Y-183607142D01*
X157202380Y-183845238D01*
X157250000Y-183940476D01*
X157297619Y-183988095D01*
X157392857Y-184035714D01*
X157488095Y-184035714D01*
X157630952Y-183988095D01*
X158202380Y-183416666D01*
X158202380Y-184035714D01*
%TO.C,R8*%
X110952380Y-176393333D02*
X110476190Y-176060000D01*
X110952380Y-175821904D02*
X109952380Y-175821904D01*
X109952380Y-176202857D01*
X110000000Y-176298095D01*
X110047619Y-176345714D01*
X110142857Y-176393333D01*
X110285714Y-176393333D01*
X110380952Y-176345714D01*
X110428571Y-176298095D01*
X110476190Y-176202857D01*
X110476190Y-175821904D01*
X110380952Y-176964761D02*
X110333333Y-176869523D01*
X110285714Y-176821904D01*
X110190476Y-176774285D01*
X110142857Y-176774285D01*
X110047619Y-176821904D01*
X110000000Y-176869523D01*
X109952380Y-176964761D01*
X109952380Y-177155238D01*
X110000000Y-177250476D01*
X110047619Y-177298095D01*
X110142857Y-177345714D01*
X110190476Y-177345714D01*
X110285714Y-177298095D01*
X110333333Y-177250476D01*
X110380952Y-177155238D01*
X110380952Y-176964761D01*
X110428571Y-176869523D01*
X110476190Y-176821904D01*
X110571428Y-176774285D01*
X110761904Y-176774285D01*
X110857142Y-176821904D01*
X110904761Y-176869523D01*
X110952380Y-176964761D01*
X110952380Y-177155238D01*
X110904761Y-177250476D01*
X110857142Y-177298095D01*
X110761904Y-177345714D01*
X110571428Y-177345714D01*
X110476190Y-177298095D01*
X110428571Y-177250476D01*
X110380952Y-177155238D01*
%TO.C,C7*%
X239607142Y-112333333D02*
X239654761Y-112285714D01*
X239702380Y-112142857D01*
X239702380Y-112047619D01*
X239654761Y-111904761D01*
X239559523Y-111809523D01*
X239464285Y-111761904D01*
X239273809Y-111714285D01*
X239130952Y-111714285D01*
X238940476Y-111761904D01*
X238845238Y-111809523D01*
X238750000Y-111904761D01*
X238702380Y-112047619D01*
X238702380Y-112142857D01*
X238750000Y-112285714D01*
X238797619Y-112333333D01*
X238702380Y-112666666D02*
X238702380Y-113333333D01*
X239702380Y-112904761D01*
%TO.C,J12*%
X62702380Y-210940476D02*
X63416666Y-210940476D01*
X63559523Y-210892857D01*
X63654761Y-210797619D01*
X63702380Y-210654761D01*
X63702380Y-210559523D01*
X63702380Y-211940476D02*
X63702380Y-211369047D01*
X63702380Y-211654761D02*
X62702380Y-211654761D01*
X62845238Y-211559523D01*
X62940476Y-211464285D01*
X62988095Y-211369047D01*
X62797619Y-212321428D02*
X62750000Y-212369047D01*
X62702380Y-212464285D01*
X62702380Y-212702380D01*
X62750000Y-212797619D01*
X62797619Y-212845238D01*
X62892857Y-212892857D01*
X62988095Y-212892857D01*
X63130952Y-212845238D01*
X63702380Y-212273809D01*
X63702380Y-212892857D01*
%TD*%
M02*
