%TF.GenerationSoftware,KiCad,Pcbnew,(6.0.11)*%
%TF.CreationDate,2023-08-19T11:35:39-05:00*%
%TF.ProjectId,input-output.DualESP32,696e7075-742d-46f7-9574-7075742e4475,V1.01*%
%TF.SameCoordinates,Original*%
%TF.FileFunction,Legend,Bot*%
%TF.FilePolarity,Positive*%
%FSLAX46Y46*%
G04 Gerber Fmt 4.6, Leading zero omitted, Abs format (unit mm)*
G04 Created by KiCad (PCBNEW (6.0.11)) date 2023-08-19 11:35:39*
%MOMM*%
%LPD*%
G01*
G04 APERTURE LIST*
%ADD10C,0.150000*%
%ADD11C,0.088900*%
G04 APERTURE END LIST*
D10*
%TO.C,P1*%
X112738095Y-226452380D02*
X112738095Y-225452380D01*
X112357142Y-225452380D01*
X112261904Y-225500000D01*
X112214285Y-225547619D01*
X112166666Y-225642857D01*
X112166666Y-225785714D01*
X112214285Y-225880952D01*
X112261904Y-225928571D01*
X112357142Y-225976190D01*
X112738095Y-225976190D01*
X111214285Y-226452380D02*
X111785714Y-226452380D01*
X111500000Y-226452380D02*
X111500000Y-225452380D01*
X111595238Y-225595238D01*
X111690476Y-225690476D01*
X111785714Y-225738095D01*
%TO.C,P2*%
X186738095Y-226452380D02*
X186738095Y-225452380D01*
X186357142Y-225452380D01*
X186261904Y-225500000D01*
X186214285Y-225547619D01*
X186166666Y-225642857D01*
X186166666Y-225785714D01*
X186214285Y-225880952D01*
X186261904Y-225928571D01*
X186357142Y-225976190D01*
X186738095Y-225976190D01*
X185785714Y-225547619D02*
X185738095Y-225500000D01*
X185642857Y-225452380D01*
X185404761Y-225452380D01*
X185309523Y-225500000D01*
X185261904Y-225547619D01*
X185214285Y-225642857D01*
X185214285Y-225738095D01*
X185261904Y-225880952D01*
X185833333Y-226452380D01*
X185214285Y-226452380D01*
%TO.C,H1*%
X44261904Y-78702380D02*
X44261904Y-77702380D01*
X44261904Y-78178571D02*
X43690476Y-78178571D01*
X43690476Y-78702380D02*
X43690476Y-77702380D01*
X42690476Y-78702380D02*
X43261904Y-78702380D01*
X42976190Y-78702380D02*
X42976190Y-77702380D01*
X43071428Y-77845238D01*
X43166666Y-77940476D01*
X43261904Y-77988095D01*
%TO.C,P3*%
X262738095Y-226452380D02*
X262738095Y-225452380D01*
X262357142Y-225452380D01*
X262261904Y-225500000D01*
X262214285Y-225547619D01*
X262166666Y-225642857D01*
X262166666Y-225785714D01*
X262214285Y-225880952D01*
X262261904Y-225928571D01*
X262357142Y-225976190D01*
X262738095Y-225976190D01*
X261833333Y-225452380D02*
X261214285Y-225452380D01*
X261547619Y-225833333D01*
X261404761Y-225833333D01*
X261309523Y-225880952D01*
X261261904Y-225928571D01*
X261214285Y-226023809D01*
X261214285Y-226261904D01*
X261261904Y-226357142D01*
X261309523Y-226404761D01*
X261404761Y-226452380D01*
X261690476Y-226452380D01*
X261785714Y-226404761D01*
X261833333Y-226357142D01*
%TO.C,R1*%
X46882380Y-76925333D02*
X46406190Y-76592000D01*
X46882380Y-76353904D02*
X45882380Y-76353904D01*
X45882380Y-76734857D01*
X45930000Y-76830095D01*
X45977619Y-76877714D01*
X46072857Y-76925333D01*
X46215714Y-76925333D01*
X46310952Y-76877714D01*
X46358571Y-76830095D01*
X46406190Y-76734857D01*
X46406190Y-76353904D01*
X46882380Y-77877714D02*
X46882380Y-77306285D01*
X46882380Y-77592000D02*
X45882380Y-77592000D01*
X46025238Y-77496761D01*
X46120476Y-77401523D01*
X46168095Y-77306285D01*
%TO.C,P4*%
X62452380Y-217761904D02*
X61452380Y-217761904D01*
X61452380Y-218142857D01*
X61500000Y-218238095D01*
X61547619Y-218285714D01*
X61642857Y-218333333D01*
X61785714Y-218333333D01*
X61880952Y-218285714D01*
X61928571Y-218238095D01*
X61976190Y-218142857D01*
X61976190Y-217761904D01*
X61785714Y-219190476D02*
X62452380Y-219190476D01*
X61404761Y-218952380D02*
X62119047Y-218714285D01*
X62119047Y-219333333D01*
D11*
%TO.C,J8*%
X211098233Y-79584335D02*
X210595071Y-79584335D01*
X210866004Y-79893973D01*
X210749890Y-79893973D01*
X210672480Y-79932678D01*
X210633776Y-79971382D01*
X210595071Y-80048792D01*
X210595071Y-80242316D01*
X210633776Y-80319725D01*
X210672480Y-80358430D01*
X210749890Y-80397135D01*
X210982119Y-80397135D01*
X211059528Y-80358430D01*
X211098233Y-80319725D01*
X217422480Y-82084335D02*
X217577300Y-82084335D01*
X217654709Y-82123040D01*
X217693414Y-82161744D01*
X217770823Y-82277859D01*
X217809528Y-82432678D01*
X217809528Y-82742316D01*
X217770823Y-82819725D01*
X217732119Y-82858430D01*
X217654709Y-82897135D01*
X217499890Y-82897135D01*
X217422480Y-82858430D01*
X217383776Y-82819725D01*
X217345071Y-82742316D01*
X217345071Y-82548792D01*
X217383776Y-82471382D01*
X217422480Y-82432678D01*
X217499890Y-82393973D01*
X217654709Y-82393973D01*
X217732119Y-82432678D01*
X217770823Y-82471382D01*
X217809528Y-82548792D01*
X210633776Y-82084335D02*
X211020823Y-82084335D01*
X211059528Y-82471382D01*
X211020823Y-82432678D01*
X210943414Y-82393973D01*
X210749890Y-82393973D01*
X210672480Y-82432678D01*
X210633776Y-82471382D01*
X210595071Y-82548792D01*
X210595071Y-82742316D01*
X210633776Y-82819725D01*
X210672480Y-82858430D01*
X210749890Y-82897135D01*
X210943414Y-82897135D01*
X211020823Y-82858430D01*
X211059528Y-82819725D01*
X217672480Y-80105268D02*
X217672480Y-80647135D01*
X217866004Y-79795630D02*
X218059528Y-80376201D01*
X217556366Y-80376201D01*
%TO.C,J9*%
X238627480Y-80105268D02*
X238627480Y-80647135D01*
X238821004Y-79795630D02*
X239014528Y-80376201D01*
X238511366Y-80376201D01*
X232053233Y-79584335D02*
X231550071Y-79584335D01*
X231821004Y-79893973D01*
X231704890Y-79893973D01*
X231627480Y-79932678D01*
X231588776Y-79971382D01*
X231550071Y-80048792D01*
X231550071Y-80242316D01*
X231588776Y-80319725D01*
X231627480Y-80358430D01*
X231704890Y-80397135D01*
X231937119Y-80397135D01*
X232014528Y-80358430D01*
X232053233Y-80319725D01*
X231588776Y-82084335D02*
X231975823Y-82084335D01*
X232014528Y-82471382D01*
X231975823Y-82432678D01*
X231898414Y-82393973D01*
X231704890Y-82393973D01*
X231627480Y-82432678D01*
X231588776Y-82471382D01*
X231550071Y-82548792D01*
X231550071Y-82742316D01*
X231588776Y-82819725D01*
X231627480Y-82858430D01*
X231704890Y-82897135D01*
X231898414Y-82897135D01*
X231975823Y-82858430D01*
X232014528Y-82819725D01*
X238377480Y-82084335D02*
X238532300Y-82084335D01*
X238609709Y-82123040D01*
X238648414Y-82161744D01*
X238725823Y-82277859D01*
X238764528Y-82432678D01*
X238764528Y-82742316D01*
X238725823Y-82819725D01*
X238687119Y-82858430D01*
X238609709Y-82897135D01*
X238454890Y-82897135D01*
X238377480Y-82858430D01*
X238338776Y-82819725D01*
X238300071Y-82742316D01*
X238300071Y-82548792D01*
X238338776Y-82471382D01*
X238377480Y-82432678D01*
X238454890Y-82393973D01*
X238609709Y-82393973D01*
X238687119Y-82432678D01*
X238725823Y-82471382D01*
X238764528Y-82548792D01*
%TD*%
M02*
