%TF.GenerationSoftware,KiCad,Pcbnew,(6.0.11)*%
%TF.CreationDate,2023-08-06T14:01:44-05:00*%
%TF.ProjectId,input-output.DualESP32,696e7075-742d-46f7-9574-7075742e4475,V1.0*%
%TF.SameCoordinates,Original*%
%TF.FileFunction,Drillmap*%
%TF.FilePolarity,Positive*%
%FSLAX45Y45*%
G04 Gerber Fmt 4.5, Leading zero omitted, Abs format (unit mm)*
G04 Created by KiCad (PCBNEW (6.0.11)) date 2023-08-06 14:01:44*
%MOMM*%
%LPD*%
G01*
G04 APERTURE LIST*
%ADD10C,0.050000*%
%ADD11C,0.200000*%
%ADD12C,0.040000*%
%ADD13C,0.080000*%
%ADD14C,0.089916*%
%ADD15C,0.090000*%
%ADD16C,0.100000*%
%ADD17C,0.110000*%
%ADD18C,0.229870*%
%ADD19C,0.320000*%
G04 APERTURE END LIST*
D10*
X4000000Y-23000000D02*
X26500000Y-23000000D01*
X27000000Y-22500000D02*
X27000000Y-7500000D01*
X26500000Y-7000000D02*
X4000000Y-7000000D01*
X3500000Y-7500000D02*
X3500000Y-22500000D01*
X26500000Y-23000000D02*
G75*
G03*
X27000000Y-22500000I0J500000D01*
G01*
X3500000Y-22500000D02*
G75*
G03*
X4000000Y-23000000I500000J0D01*
G01*
X4000000Y-7000000D02*
G75*
G03*
X3500000Y-7500000I0J-500000D01*
G01*
X27000000Y-7500000D02*
G75*
G03*
X26500000Y-7000000I-500000J0D01*
G01*
D11*
D12*
X6040890Y-11101180D02*
X6080890Y-11141180D01*
X6080890Y-11101180D02*
X6040890Y-11141180D01*
X7070650Y-10682640D02*
X7110650Y-10722640D01*
X7110650Y-10682640D02*
X7070650Y-10722640D01*
X7095950Y-10448220D02*
X7135950Y-10488220D01*
X7135950Y-10448220D02*
X7095950Y-10488220D01*
X7281650Y-17763210D02*
X7321650Y-17803210D01*
X7321650Y-17763210D02*
X7281650Y-17803210D01*
X8045500Y-19621910D02*
X8085500Y-19661910D01*
X8085500Y-19621910D02*
X8045500Y-19661910D01*
X8574450Y-17054860D02*
X8614450Y-17094860D01*
X8614450Y-17054860D02*
X8574450Y-17094860D01*
X8858270Y-14255350D02*
X8898270Y-14295350D01*
X8898270Y-14255350D02*
X8858270Y-14295350D01*
X8882680Y-13507000D02*
X8922680Y-13547000D01*
X8922680Y-13507000D02*
X8882680Y-13547000D01*
X9248380Y-21690240D02*
X9288380Y-21730240D01*
X9288380Y-21690240D02*
X9248380Y-21730240D01*
X9504810Y-10002930D02*
X9544810Y-10042930D01*
X9544810Y-10002930D02*
X9504810Y-10042930D01*
X10045860Y-12240760D02*
X10085860Y-12280760D01*
X10085860Y-12240760D02*
X10045860Y-12280760D01*
X11486320Y-20618920D02*
X11526320Y-20658920D01*
X11526320Y-20618920D02*
X11486320Y-20658920D01*
X11496670Y-12777090D02*
X11536670Y-12817090D01*
X11536670Y-12777090D02*
X11496670Y-12817090D01*
X11504910Y-20462560D02*
X11544910Y-20502560D01*
X11544910Y-20462560D02*
X11504910Y-20502560D01*
X11575710Y-19827600D02*
X11615710Y-19867600D01*
X11615710Y-19827600D02*
X11575710Y-19867600D01*
X11605210Y-20454430D02*
X11645210Y-20494430D01*
X11645210Y-20454430D02*
X11605210Y-20494430D01*
X12439630Y-7189740D02*
X12479630Y-7229740D01*
X12479630Y-7189740D02*
X12439630Y-7229740D01*
X12597280Y-19783610D02*
X12637280Y-19823610D01*
X12637280Y-19783610D02*
X12597280Y-19823610D01*
X13367930Y-19137560D02*
X13407930Y-19177560D01*
X13407930Y-19137560D02*
X13367930Y-19177560D01*
X13971820Y-12068360D02*
X14011820Y-12108360D01*
X14011820Y-12068360D02*
X13971820Y-12108360D01*
X14456060Y-14231480D02*
X14496060Y-14271480D01*
X14496060Y-14231480D02*
X14456060Y-14271480D01*
X14477960Y-13852690D02*
X14517960Y-13892690D01*
X14517960Y-13852690D02*
X14477960Y-13892690D01*
X15075510Y-13509480D02*
X15115510Y-13549480D01*
X15115510Y-13509480D02*
X15075510Y-13549480D01*
X16309260Y-18659740D02*
X16349260Y-18699740D01*
X16349260Y-18659740D02*
X16309260Y-18699740D01*
X16414620Y-13440810D02*
X16454620Y-13480810D01*
X16454620Y-13440810D02*
X16414620Y-13480810D01*
X17212030Y-8064140D02*
X17252030Y-8104140D01*
X17252030Y-8064140D02*
X17212030Y-8104140D01*
X17538050Y-13368300D02*
X17578050Y-13408300D01*
X17578050Y-13368300D02*
X17538050Y-13408300D01*
X17609070Y-8007880D02*
X17649070Y-8047880D01*
X17649070Y-8007880D02*
X17609070Y-8047880D01*
X17721680Y-19992050D02*
X17761680Y-20032050D01*
X17761680Y-19992050D02*
X17721680Y-20032050D01*
X17893110Y-20038940D02*
X17933110Y-20078940D01*
X17933110Y-20038940D02*
X17893110Y-20078940D01*
X17912950Y-17189210D02*
X17952950Y-17229210D01*
X17952950Y-17189210D02*
X17912950Y-17229210D01*
X18286860Y-15222960D02*
X18326860Y-15262960D01*
X18326860Y-15222960D02*
X18286860Y-15262960D01*
X18351780Y-19995620D02*
X18391780Y-20035620D01*
X18391780Y-19995620D02*
X18351780Y-20035620D01*
X18843570Y-8030220D02*
X18883570Y-8070220D01*
X18883570Y-8030220D02*
X18843570Y-8070220D01*
X18884620Y-17540400D02*
X18924620Y-17580400D01*
X18924620Y-17540400D02*
X18884620Y-17580400D01*
X19149790Y-19114940D02*
X19189790Y-19154940D01*
X19189790Y-19114940D02*
X19149790Y-19154940D01*
X19349820Y-16943740D02*
X19389820Y-16983740D01*
X19389820Y-16943740D02*
X19349820Y-16983740D01*
X19670870Y-14979830D02*
X19710870Y-15019830D01*
X19710870Y-14979830D02*
X19670870Y-15019830D01*
X19682630Y-17136050D02*
X19722630Y-17176050D01*
X19722630Y-17136050D02*
X19682630Y-17176050D01*
X19685690Y-20918890D02*
X19725690Y-20958890D01*
X19725690Y-20918890D02*
X19685690Y-20958890D01*
X19783000Y-20486150D02*
X19823000Y-20526150D01*
X19823000Y-20486150D02*
X19783000Y-20526150D01*
X19828330Y-16556300D02*
X19868330Y-16596300D01*
X19868330Y-16556300D02*
X19828330Y-16596300D01*
X19924010Y-13720610D02*
X19964010Y-13760610D01*
X19964010Y-13720610D02*
X19924010Y-13760610D01*
X20234430Y-12053290D02*
X20274430Y-12093290D01*
X20274430Y-12053290D02*
X20234430Y-12093290D01*
X20469780Y-12723710D02*
X20509780Y-12763710D01*
X20509780Y-12723710D02*
X20469780Y-12763710D01*
X20610180Y-21042030D02*
X20650180Y-21082030D01*
X20650180Y-21042030D02*
X20610180Y-21082030D01*
X20681140Y-17681520D02*
X20721140Y-17721520D01*
X20721140Y-17681520D02*
X20681140Y-17721520D01*
X21034960Y-17683320D02*
X21074960Y-17723320D01*
X21074960Y-17683320D02*
X21034960Y-17723320D01*
X21209930Y-8727990D02*
X21249930Y-8767990D01*
X21249930Y-8727990D02*
X21209930Y-8767990D01*
X21354280Y-14839430D02*
X21394280Y-14879430D01*
X21394280Y-14839430D02*
X21354280Y-14879430D01*
X21570890Y-19065770D02*
X21610890Y-19105770D01*
X21610890Y-19065770D02*
X21570890Y-19105770D01*
X21627110Y-8377570D02*
X21667110Y-8417570D01*
X21667110Y-8377570D02*
X21627110Y-8417570D01*
X21671620Y-19059670D02*
X21711620Y-19099670D01*
X21711620Y-19059670D02*
X21671620Y-19099670D01*
X21706000Y-15085980D02*
X21746000Y-15125980D01*
X21746000Y-15085980D02*
X21706000Y-15125980D01*
X21749780Y-18985440D02*
X21789780Y-19025440D01*
X21789780Y-18985440D02*
X21749780Y-19025440D01*
X21775960Y-17483160D02*
X21815960Y-17523160D01*
X21815960Y-17483160D02*
X21775960Y-17523160D01*
X22188290Y-18189060D02*
X22228290Y-18229060D01*
X22228290Y-18189060D02*
X22188290Y-18229060D01*
X22257780Y-19911440D02*
X22297780Y-19951440D01*
X22297780Y-19911440D02*
X22257780Y-19951440D01*
X22682500Y-19779030D02*
X22722500Y-19819030D01*
X22722500Y-19779030D02*
X22682500Y-19819030D01*
D13*
X4683000Y-7328200D02*
G75*
G03*
X4683000Y-7328200I-40000J0D01*
G01*
X4683000Y-8090200D02*
G75*
G03*
X4683000Y-8090200I-40000J0D01*
G01*
X5445000Y-18301000D02*
G75*
G03*
X5445000Y-18301000I-40000J0D01*
G01*
X5445000Y-18555000D02*
G75*
G03*
X5445000Y-18555000I-40000J0D01*
G01*
X5445000Y-18809000D02*
G75*
G03*
X5445000Y-18809000I-40000J0D01*
G01*
X5445000Y-19063000D02*
G75*
G03*
X5445000Y-19063000I-40000J0D01*
G01*
X5445000Y-19317000D02*
G75*
G03*
X5445000Y-19317000I-40000J0D01*
G01*
X5445000Y-19571000D02*
G75*
G03*
X5445000Y-19571000I-40000J0D01*
G01*
X5445000Y-19825000D02*
G75*
G03*
X5445000Y-19825000I-40000J0D01*
G01*
X5445000Y-20079000D02*
G75*
G03*
X5445000Y-20079000I-40000J0D01*
G01*
X5445000Y-20333000D02*
G75*
G03*
X5445000Y-20333000I-40000J0D01*
G01*
X5895990Y-10173000D02*
G75*
G03*
X5895990Y-10173000I-40000J0D01*
G01*
X6145990Y-10173000D02*
G75*
G03*
X6145990Y-10173000I-40000J0D01*
G01*
X6257800Y-8420400D02*
G75*
G03*
X6257800Y-8420400I-40000J0D01*
G01*
X6334000Y-20714000D02*
G75*
G03*
X6334000Y-20714000I-40000J0D01*
G01*
X7019800Y-8420400D02*
G75*
G03*
X7019800Y-8420400I-40000J0D01*
G01*
X7096000Y-20714000D02*
G75*
G03*
X7096000Y-20714000I-40000J0D01*
G01*
X7604000Y-9474500D02*
G75*
G03*
X7604000Y-9474500I-40000J0D01*
G01*
X7671500Y-8585500D02*
G75*
G03*
X7671500Y-8585500I-40000J0D01*
G01*
X7854000Y-9474500D02*
G75*
G03*
X7854000Y-9474500I-40000J0D01*
G01*
X7862000Y-18047000D02*
G75*
G03*
X7862000Y-18047000I-40000J0D01*
G01*
X7922000Y-18490500D02*
G75*
G03*
X7922000Y-18490500I-40000J0D01*
G01*
X7922000Y-19252500D02*
G75*
G03*
X7922000Y-19252500I-40000J0D01*
G01*
X7925500Y-19698000D02*
G75*
G03*
X7925500Y-19698000I-40000J0D01*
G01*
X7985500Y-20141500D02*
G75*
G03*
X7985500Y-20141500I-40000J0D01*
G01*
X7985500Y-20903500D02*
G75*
G03*
X7985500Y-20903500I-40000J0D01*
G01*
X8171500Y-8585500D02*
G75*
G03*
X8171500Y-8585500I-40000J0D01*
G01*
X8176000Y-18490500D02*
G75*
G03*
X8176000Y-18490500I-40000J0D01*
G01*
X8176000Y-19252500D02*
G75*
G03*
X8176000Y-19252500I-40000J0D01*
G01*
X8239500Y-20141500D02*
G75*
G03*
X8239500Y-20141500I-40000J0D01*
G01*
X8239500Y-20903500D02*
G75*
G03*
X8239500Y-20903500I-40000J0D01*
G01*
X8362000Y-18047000D02*
G75*
G03*
X8362000Y-18047000I-40000J0D01*
G01*
X8391400Y-10249200D02*
G75*
G03*
X8391400Y-10249200I-40000J0D01*
G01*
X8425500Y-19698000D02*
G75*
G03*
X8425500Y-19698000I-40000J0D01*
G01*
X8430000Y-18490500D02*
G75*
G03*
X8430000Y-18490500I-40000J0D01*
G01*
X8430000Y-19252500D02*
G75*
G03*
X8430000Y-19252500I-40000J0D01*
G01*
X8493500Y-20141500D02*
G75*
G03*
X8493500Y-20141500I-40000J0D01*
G01*
X8493500Y-20903500D02*
G75*
G03*
X8493500Y-20903500I-40000J0D01*
G01*
X8684000Y-18490500D02*
G75*
G03*
X8684000Y-18490500I-40000J0D01*
G01*
X8684000Y-19252500D02*
G75*
G03*
X8684000Y-19252500I-40000J0D01*
G01*
X8747500Y-20141500D02*
G75*
G03*
X8747500Y-20141500I-40000J0D01*
G01*
X8747500Y-20903500D02*
G75*
G03*
X8747500Y-20903500I-40000J0D01*
G01*
X8938000Y-18490500D02*
G75*
G03*
X8938000Y-18490500I-40000J0D01*
G01*
X8938000Y-19252500D02*
G75*
G03*
X8938000Y-19252500I-40000J0D01*
G01*
X9001500Y-20141500D02*
G75*
G03*
X9001500Y-20141500I-40000J0D01*
G01*
X9001500Y-20903500D02*
G75*
G03*
X9001500Y-20903500I-40000J0D01*
G01*
X9026400Y-8649000D02*
G75*
G03*
X9026400Y-8649000I-40000J0D01*
G01*
X9026400Y-9411000D02*
G75*
G03*
X9026400Y-9411000I-40000J0D01*
G01*
X9153400Y-10249200D02*
G75*
G03*
X9153400Y-10249200I-40000J0D01*
G01*
X9192000Y-18490500D02*
G75*
G03*
X9192000Y-18490500I-40000J0D01*
G01*
X9192000Y-19252500D02*
G75*
G03*
X9192000Y-19252500I-40000J0D01*
G01*
X9255500Y-20141500D02*
G75*
G03*
X9255500Y-20141500I-40000J0D01*
G01*
X9255500Y-20903500D02*
G75*
G03*
X9255500Y-20903500I-40000J0D01*
G01*
X9446000Y-18490500D02*
G75*
G03*
X9446000Y-18490500I-40000J0D01*
G01*
X9446000Y-19252500D02*
G75*
G03*
X9446000Y-19252500I-40000J0D01*
G01*
X9509500Y-20141500D02*
G75*
G03*
X9509500Y-20141500I-40000J0D01*
G01*
X9509500Y-20903500D02*
G75*
G03*
X9509500Y-20903500I-40000J0D01*
G01*
X9669870Y-8649000D02*
G75*
G03*
X9669870Y-8649000I-40000J0D01*
G01*
X9669870Y-9411000D02*
G75*
G03*
X9669870Y-9411000I-40000J0D01*
G01*
X9700000Y-18490500D02*
G75*
G03*
X9700000Y-18490500I-40000J0D01*
G01*
X9700000Y-19252500D02*
G75*
G03*
X9700000Y-19252500I-40000J0D01*
G01*
X9763500Y-20141500D02*
G75*
G03*
X9763500Y-20141500I-40000J0D01*
G01*
X9763500Y-20903500D02*
G75*
G03*
X9763500Y-20903500I-40000J0D01*
G01*
X9827500Y-14111500D02*
G75*
G03*
X9827500Y-14111500I-40000J0D01*
G01*
X9827500Y-14365500D02*
G75*
G03*
X9827500Y-14365500I-40000J0D01*
G01*
X9827500Y-14619500D02*
G75*
G03*
X9827500Y-14619500I-40000J0D01*
G01*
X9827500Y-14873500D02*
G75*
G03*
X9827500Y-14873500I-40000J0D01*
G01*
X9827500Y-15127500D02*
G75*
G03*
X9827500Y-15127500I-40000J0D01*
G01*
X9827500Y-15381500D02*
G75*
G03*
X9827500Y-15381500I-40000J0D01*
G01*
X9827500Y-15635500D02*
G75*
G03*
X9827500Y-15635500I-40000J0D01*
G01*
X9827500Y-15889500D02*
G75*
G03*
X9827500Y-15889500I-40000J0D01*
G01*
X9891000Y-11190500D02*
G75*
G03*
X9891000Y-11190500I-40000J0D01*
G01*
X9891000Y-11444500D02*
G75*
G03*
X9891000Y-11444500I-40000J0D01*
G01*
X9891000Y-11698500D02*
G75*
G03*
X9891000Y-11698500I-40000J0D01*
G01*
X9891000Y-11952500D02*
G75*
G03*
X9891000Y-11952500I-40000J0D01*
G01*
X9891000Y-12206500D02*
G75*
G03*
X9891000Y-12206500I-40000J0D01*
G01*
X9891000Y-12460500D02*
G75*
G03*
X9891000Y-12460500I-40000J0D01*
G01*
X9891000Y-12714500D02*
G75*
G03*
X9891000Y-12714500I-40000J0D01*
G01*
X9891000Y-12968500D02*
G75*
G03*
X9891000Y-12968500I-40000J0D01*
G01*
X9954000Y-18490500D02*
G75*
G03*
X9954000Y-18490500I-40000J0D01*
G01*
X9954000Y-19252500D02*
G75*
G03*
X9954000Y-19252500I-40000J0D01*
G01*
X10017500Y-20141500D02*
G75*
G03*
X10017500Y-20141500I-40000J0D01*
G01*
X10017500Y-20903500D02*
G75*
G03*
X10017500Y-20903500I-40000J0D01*
G01*
X10208000Y-18490500D02*
G75*
G03*
X10208000Y-18490500I-40000J0D01*
G01*
X10208000Y-19252500D02*
G75*
G03*
X10208000Y-19252500I-40000J0D01*
G01*
X10271500Y-20141500D02*
G75*
G03*
X10271500Y-20141500I-40000J0D01*
G01*
X10271500Y-20903500D02*
G75*
G03*
X10271500Y-20903500I-40000J0D01*
G01*
X10313330Y-8649000D02*
G75*
G03*
X10313330Y-8649000I-40000J0D01*
G01*
X10313330Y-9411000D02*
G75*
G03*
X10313330Y-9411000I-40000J0D01*
G01*
X10589500Y-14111500D02*
G75*
G03*
X10589500Y-14111500I-40000J0D01*
G01*
X10589500Y-14365500D02*
G75*
G03*
X10589500Y-14365500I-40000J0D01*
G01*
X10589500Y-14619500D02*
G75*
G03*
X10589500Y-14619500I-40000J0D01*
G01*
X10589500Y-14873500D02*
G75*
G03*
X10589500Y-14873500I-40000J0D01*
G01*
X10589500Y-15127500D02*
G75*
G03*
X10589500Y-15127500I-40000J0D01*
G01*
X10589500Y-15381500D02*
G75*
G03*
X10589500Y-15381500I-40000J0D01*
G01*
X10589500Y-15635500D02*
G75*
G03*
X10589500Y-15635500I-40000J0D01*
G01*
X10589500Y-15889500D02*
G75*
G03*
X10589500Y-15889500I-40000J0D01*
G01*
X10653000Y-11190500D02*
G75*
G03*
X10653000Y-11190500I-40000J0D01*
G01*
X10653000Y-11444500D02*
G75*
G03*
X10653000Y-11444500I-40000J0D01*
G01*
X10653000Y-11698500D02*
G75*
G03*
X10653000Y-11698500I-40000J0D01*
G01*
X10653000Y-11952500D02*
G75*
G03*
X10653000Y-11952500I-40000J0D01*
G01*
X10653000Y-12206500D02*
G75*
G03*
X10653000Y-12206500I-40000J0D01*
G01*
X10653000Y-12460500D02*
G75*
G03*
X10653000Y-12460500I-40000J0D01*
G01*
X10653000Y-12714500D02*
G75*
G03*
X10653000Y-12714500I-40000J0D01*
G01*
X10653000Y-12968500D02*
G75*
G03*
X10653000Y-12968500I-40000J0D01*
G01*
X10956800Y-8649000D02*
G75*
G03*
X10956800Y-8649000I-40000J0D01*
G01*
X10956800Y-9411000D02*
G75*
G03*
X10956800Y-9411000I-40000J0D01*
G01*
X10973500Y-14110000D02*
G75*
G03*
X10973500Y-14110000I-40000J0D01*
G01*
X11037000Y-11189000D02*
G75*
G03*
X11037000Y-11189000I-40000J0D01*
G01*
X11223500Y-12713000D02*
G75*
G03*
X11223500Y-12713000I-40000J0D01*
G01*
X11473500Y-14110000D02*
G75*
G03*
X11473500Y-14110000I-40000J0D01*
G01*
X11537000Y-11189000D02*
G75*
G03*
X11537000Y-11189000I-40000J0D01*
G01*
X11985500Y-12713000D02*
G75*
G03*
X11985500Y-12713000I-40000J0D01*
G01*
X11989500Y-18047000D02*
G75*
G03*
X11989500Y-18047000I-40000J0D01*
G01*
X11989500Y-19698000D02*
G75*
G03*
X11989500Y-19698000I-40000J0D01*
G01*
X12048500Y-18490500D02*
G75*
G03*
X12048500Y-18490500I-40000J0D01*
G01*
X12048500Y-19252500D02*
G75*
G03*
X12048500Y-19252500I-40000J0D01*
G01*
X12049500Y-20141500D02*
G75*
G03*
X12049500Y-20141500I-40000J0D01*
G01*
X12049500Y-20903500D02*
G75*
G03*
X12049500Y-20903500I-40000J0D01*
G01*
X12302500Y-18490500D02*
G75*
G03*
X12302500Y-18490500I-40000J0D01*
G01*
X12302500Y-19252500D02*
G75*
G03*
X12302500Y-19252500I-40000J0D01*
G01*
X12303500Y-20141500D02*
G75*
G03*
X12303500Y-20141500I-40000J0D01*
G01*
X12303500Y-20903500D02*
G75*
G03*
X12303500Y-20903500I-40000J0D01*
G01*
X12489500Y-18047000D02*
G75*
G03*
X12489500Y-18047000I-40000J0D01*
G01*
X12489500Y-19698000D02*
G75*
G03*
X12489500Y-19698000I-40000J0D01*
G01*
X12556500Y-18490500D02*
G75*
G03*
X12556500Y-18490500I-40000J0D01*
G01*
X12556500Y-19252500D02*
G75*
G03*
X12556500Y-19252500I-40000J0D01*
G01*
X12557500Y-20141500D02*
G75*
G03*
X12557500Y-20141500I-40000J0D01*
G01*
X12557500Y-20903500D02*
G75*
G03*
X12557500Y-20903500I-40000J0D01*
G01*
X12810500Y-18490500D02*
G75*
G03*
X12810500Y-18490500I-40000J0D01*
G01*
X12810500Y-19252500D02*
G75*
G03*
X12810500Y-19252500I-40000J0D01*
G01*
X12811500Y-20141500D02*
G75*
G03*
X12811500Y-20141500I-40000J0D01*
G01*
X12811500Y-20903500D02*
G75*
G03*
X12811500Y-20903500I-40000J0D01*
G01*
X13064500Y-18490500D02*
G75*
G03*
X13064500Y-18490500I-40000J0D01*
G01*
X13064500Y-19252500D02*
G75*
G03*
X13064500Y-19252500I-40000J0D01*
G01*
X13065500Y-20141500D02*
G75*
G03*
X13065500Y-20141500I-40000J0D01*
G01*
X13065500Y-20903500D02*
G75*
G03*
X13065500Y-20903500I-40000J0D01*
G01*
X13318500Y-18490500D02*
G75*
G03*
X13318500Y-18490500I-40000J0D01*
G01*
X13318500Y-19252500D02*
G75*
G03*
X13318500Y-19252500I-40000J0D01*
G01*
X13319500Y-20141500D02*
G75*
G03*
X13319500Y-20141500I-40000J0D01*
G01*
X13319500Y-20903500D02*
G75*
G03*
X13319500Y-20903500I-40000J0D01*
G01*
X13572500Y-18490500D02*
G75*
G03*
X13572500Y-18490500I-40000J0D01*
G01*
X13572500Y-19252500D02*
G75*
G03*
X13572500Y-19252500I-40000J0D01*
G01*
X13573500Y-20141500D02*
G75*
G03*
X13573500Y-20141500I-40000J0D01*
G01*
X13573500Y-20903500D02*
G75*
G03*
X13573500Y-20903500I-40000J0D01*
G01*
X13827500Y-20141500D02*
G75*
G03*
X13827500Y-20141500I-40000J0D01*
G01*
X13827500Y-20903500D02*
G75*
G03*
X13827500Y-20903500I-40000J0D01*
G01*
X14081500Y-20141500D02*
G75*
G03*
X14081500Y-20141500I-40000J0D01*
G01*
X14081500Y-20903500D02*
G75*
G03*
X14081500Y-20903500I-40000J0D01*
G01*
X14335500Y-20141500D02*
G75*
G03*
X14335500Y-20141500I-40000J0D01*
G01*
X14335500Y-20903500D02*
G75*
G03*
X14335500Y-20903500I-40000J0D01*
G01*
X15228000Y-18047000D02*
G75*
G03*
X15228000Y-18047000I-40000J0D01*
G01*
X15228000Y-19698000D02*
G75*
G03*
X15228000Y-19698000I-40000J0D01*
G01*
X15287500Y-18491500D02*
G75*
G03*
X15287500Y-18491500I-40000J0D01*
G01*
X15287500Y-19253500D02*
G75*
G03*
X15287500Y-19253500I-40000J0D01*
G01*
X15287500Y-20142500D02*
G75*
G03*
X15287500Y-20142500I-40000J0D01*
G01*
X15287500Y-20904500D02*
G75*
G03*
X15287500Y-20904500I-40000J0D01*
G01*
X15541500Y-18491500D02*
G75*
G03*
X15541500Y-18491500I-40000J0D01*
G01*
X15541500Y-19253500D02*
G75*
G03*
X15541500Y-19253500I-40000J0D01*
G01*
X15541500Y-20142500D02*
G75*
G03*
X15541500Y-20142500I-40000J0D01*
G01*
X15541500Y-20904500D02*
G75*
G03*
X15541500Y-20904500I-40000J0D01*
G01*
X15728000Y-18047000D02*
G75*
G03*
X15728000Y-18047000I-40000J0D01*
G01*
X15728000Y-19698000D02*
G75*
G03*
X15728000Y-19698000I-40000J0D01*
G01*
X15795500Y-18491500D02*
G75*
G03*
X15795500Y-18491500I-40000J0D01*
G01*
X15795500Y-19253500D02*
G75*
G03*
X15795500Y-19253500I-40000J0D01*
G01*
X15795500Y-20142500D02*
G75*
G03*
X15795500Y-20142500I-40000J0D01*
G01*
X15795500Y-20904500D02*
G75*
G03*
X15795500Y-20904500I-40000J0D01*
G01*
X16049500Y-18491500D02*
G75*
G03*
X16049500Y-18491500I-40000J0D01*
G01*
X16049500Y-19253500D02*
G75*
G03*
X16049500Y-19253500I-40000J0D01*
G01*
X16049500Y-20142500D02*
G75*
G03*
X16049500Y-20142500I-40000J0D01*
G01*
X16049500Y-20904500D02*
G75*
G03*
X16049500Y-20904500I-40000J0D01*
G01*
X16303500Y-18491500D02*
G75*
G03*
X16303500Y-18491500I-40000J0D01*
G01*
X16303500Y-19253500D02*
G75*
G03*
X16303500Y-19253500I-40000J0D01*
G01*
X16303500Y-20142500D02*
G75*
G03*
X16303500Y-20142500I-40000J0D01*
G01*
X16303500Y-20904500D02*
G75*
G03*
X16303500Y-20904500I-40000J0D01*
G01*
X16430500Y-8598200D02*
G75*
G03*
X16430500Y-8598200I-40000J0D01*
G01*
X16430500Y-9360200D02*
G75*
G03*
X16430500Y-9360200I-40000J0D01*
G01*
X16557500Y-18491500D02*
G75*
G03*
X16557500Y-18491500I-40000J0D01*
G01*
X16557500Y-19253500D02*
G75*
G03*
X16557500Y-19253500I-40000J0D01*
G01*
X16557500Y-20142500D02*
G75*
G03*
X16557500Y-20142500I-40000J0D01*
G01*
X16557500Y-20904500D02*
G75*
G03*
X16557500Y-20904500I-40000J0D01*
G01*
X16811500Y-18491500D02*
G75*
G03*
X16811500Y-18491500I-40000J0D01*
G01*
X16811500Y-19253500D02*
G75*
G03*
X16811500Y-19253500I-40000J0D01*
G01*
X16811500Y-20142500D02*
G75*
G03*
X16811500Y-20142500I-40000J0D01*
G01*
X16811500Y-20904500D02*
G75*
G03*
X16811500Y-20904500I-40000J0D01*
G01*
X17103600Y-8598200D02*
G75*
G03*
X17103600Y-8598200I-40000J0D01*
G01*
X17103600Y-9360200D02*
G75*
G03*
X17103600Y-9360200I-40000J0D01*
G01*
X17776700Y-8598200D02*
G75*
G03*
X17776700Y-8598200I-40000J0D01*
G01*
X17776700Y-9360200D02*
G75*
G03*
X17776700Y-9360200I-40000J0D01*
G01*
X18022000Y-18047000D02*
G75*
G03*
X18022000Y-18047000I-40000J0D01*
G01*
X18022000Y-19698000D02*
G75*
G03*
X18022000Y-19698000I-40000J0D01*
G01*
X18081500Y-18491500D02*
G75*
G03*
X18081500Y-18491500I-40000J0D01*
G01*
X18081500Y-19253500D02*
G75*
G03*
X18081500Y-19253500I-40000J0D01*
G01*
X18081500Y-20142500D02*
G75*
G03*
X18081500Y-20142500I-40000J0D01*
G01*
X18081500Y-20904500D02*
G75*
G03*
X18081500Y-20904500I-40000J0D01*
G01*
X18144500Y-17285000D02*
G75*
G03*
X18144500Y-17285000I-40000J0D01*
G01*
X18335500Y-18491500D02*
G75*
G03*
X18335500Y-18491500I-40000J0D01*
G01*
X18335500Y-19253500D02*
G75*
G03*
X18335500Y-19253500I-40000J0D01*
G01*
X18335500Y-20142500D02*
G75*
G03*
X18335500Y-20142500I-40000J0D01*
G01*
X18335500Y-20904500D02*
G75*
G03*
X18335500Y-20904500I-40000J0D01*
G01*
X18398500Y-17285000D02*
G75*
G03*
X18398500Y-17285000I-40000J0D01*
G01*
X18449800Y-8598200D02*
G75*
G03*
X18449800Y-8598200I-40000J0D01*
G01*
X18449800Y-9360200D02*
G75*
G03*
X18449800Y-9360200I-40000J0D01*
G01*
X18522000Y-18047000D02*
G75*
G03*
X18522000Y-18047000I-40000J0D01*
G01*
X18522000Y-19698000D02*
G75*
G03*
X18522000Y-19698000I-40000J0D01*
G01*
X18589500Y-18491500D02*
G75*
G03*
X18589500Y-18491500I-40000J0D01*
G01*
X18589500Y-19253500D02*
G75*
G03*
X18589500Y-19253500I-40000J0D01*
G01*
X18589500Y-20142500D02*
G75*
G03*
X18589500Y-20142500I-40000J0D01*
G01*
X18589500Y-20904500D02*
G75*
G03*
X18589500Y-20904500I-40000J0D01*
G01*
X18652500Y-17285000D02*
G75*
G03*
X18652500Y-17285000I-40000J0D01*
G01*
X18843500Y-18491500D02*
G75*
G03*
X18843500Y-18491500I-40000J0D01*
G01*
X18843500Y-19253500D02*
G75*
G03*
X18843500Y-19253500I-40000J0D01*
G01*
X18843500Y-20142500D02*
G75*
G03*
X18843500Y-20142500I-40000J0D01*
G01*
X18843500Y-20904500D02*
G75*
G03*
X18843500Y-20904500I-40000J0D01*
G01*
X18906500Y-17285000D02*
G75*
G03*
X18906500Y-17285000I-40000J0D01*
G01*
X19097500Y-18491500D02*
G75*
G03*
X19097500Y-18491500I-40000J0D01*
G01*
X19097500Y-19253500D02*
G75*
G03*
X19097500Y-19253500I-40000J0D01*
G01*
X19097500Y-20142500D02*
G75*
G03*
X19097500Y-20142500I-40000J0D01*
G01*
X19097500Y-20904500D02*
G75*
G03*
X19097500Y-20904500I-40000J0D01*
G01*
X19122900Y-8598200D02*
G75*
G03*
X19122900Y-8598200I-40000J0D01*
G01*
X19122900Y-9360200D02*
G75*
G03*
X19122900Y-9360200I-40000J0D01*
G01*
X19139600Y-15938800D02*
G75*
G03*
X19139600Y-15938800I-40000J0D01*
G01*
X19160500Y-17285000D02*
G75*
G03*
X19160500Y-17285000I-40000J0D01*
G01*
X19190400Y-12992400D02*
G75*
G03*
X19190400Y-12992400I-40000J0D01*
G01*
X19351500Y-18491500D02*
G75*
G03*
X19351500Y-18491500I-40000J0D01*
G01*
X19351500Y-19253500D02*
G75*
G03*
X19351500Y-19253500I-40000J0D01*
G01*
X19351500Y-20142500D02*
G75*
G03*
X19351500Y-20142500I-40000J0D01*
G01*
X19351500Y-20904500D02*
G75*
G03*
X19351500Y-20904500I-40000J0D01*
G01*
X19414500Y-17285000D02*
G75*
G03*
X19414500Y-17285000I-40000J0D01*
G01*
X19605500Y-18491500D02*
G75*
G03*
X19605500Y-18491500I-40000J0D01*
G01*
X19605500Y-19253500D02*
G75*
G03*
X19605500Y-19253500I-40000J0D01*
G01*
X19605500Y-20142500D02*
G75*
G03*
X19605500Y-20142500I-40000J0D01*
G01*
X19605500Y-20904500D02*
G75*
G03*
X19605500Y-20904500I-40000J0D01*
G01*
X19639600Y-15938800D02*
G75*
G03*
X19639600Y-15938800I-40000J0D01*
G01*
X19668500Y-17285000D02*
G75*
G03*
X19668500Y-17285000I-40000J0D01*
G01*
X19690400Y-12992400D02*
G75*
G03*
X19690400Y-12992400I-40000J0D01*
G01*
X19796000Y-8598200D02*
G75*
G03*
X19796000Y-8598200I-40000J0D01*
G01*
X19796000Y-9360200D02*
G75*
G03*
X19796000Y-9360200I-40000J0D01*
G01*
X20051000Y-11190500D02*
G75*
G03*
X20051000Y-11190500I-40000J0D01*
G01*
X20051000Y-11444500D02*
G75*
G03*
X20051000Y-11444500I-40000J0D01*
G01*
X20051000Y-11698500D02*
G75*
G03*
X20051000Y-11698500I-40000J0D01*
G01*
X20051000Y-11952500D02*
G75*
G03*
X20051000Y-11952500I-40000J0D01*
G01*
X20051000Y-12206500D02*
G75*
G03*
X20051000Y-12206500I-40000J0D01*
G01*
X20051000Y-12460500D02*
G75*
G03*
X20051000Y-12460500I-40000J0D01*
G01*
X20051000Y-12714500D02*
G75*
G03*
X20051000Y-12714500I-40000J0D01*
G01*
X20051000Y-12968500D02*
G75*
G03*
X20051000Y-12968500I-40000J0D01*
G01*
X20051000Y-14111500D02*
G75*
G03*
X20051000Y-14111500I-40000J0D01*
G01*
X20051000Y-14365500D02*
G75*
G03*
X20051000Y-14365500I-40000J0D01*
G01*
X20051000Y-14619500D02*
G75*
G03*
X20051000Y-14619500I-40000J0D01*
G01*
X20051000Y-14873500D02*
G75*
G03*
X20051000Y-14873500I-40000J0D01*
G01*
X20051000Y-15127500D02*
G75*
G03*
X20051000Y-15127500I-40000J0D01*
G01*
X20051000Y-15381500D02*
G75*
G03*
X20051000Y-15381500I-40000J0D01*
G01*
X20051000Y-15635500D02*
G75*
G03*
X20051000Y-15635500I-40000J0D01*
G01*
X20051000Y-15889500D02*
G75*
G03*
X20051000Y-15889500I-40000J0D01*
G01*
X20813000Y-11190500D02*
G75*
G03*
X20813000Y-11190500I-40000J0D01*
G01*
X20813000Y-11444500D02*
G75*
G03*
X20813000Y-11444500I-40000J0D01*
G01*
X20813000Y-11698500D02*
G75*
G03*
X20813000Y-11698500I-40000J0D01*
G01*
X20813000Y-11952500D02*
G75*
G03*
X20813000Y-11952500I-40000J0D01*
G01*
X20813000Y-12206500D02*
G75*
G03*
X20813000Y-12206500I-40000J0D01*
G01*
X20813000Y-12460500D02*
G75*
G03*
X20813000Y-12460500I-40000J0D01*
G01*
X20813000Y-12714500D02*
G75*
G03*
X20813000Y-12714500I-40000J0D01*
G01*
X20813000Y-12968500D02*
G75*
G03*
X20813000Y-12968500I-40000J0D01*
G01*
X20813000Y-14111500D02*
G75*
G03*
X20813000Y-14111500I-40000J0D01*
G01*
X20813000Y-14365500D02*
G75*
G03*
X20813000Y-14365500I-40000J0D01*
G01*
X20813000Y-14619500D02*
G75*
G03*
X20813000Y-14619500I-40000J0D01*
G01*
X20813000Y-14873500D02*
G75*
G03*
X20813000Y-14873500I-40000J0D01*
G01*
X20813000Y-15127500D02*
G75*
G03*
X20813000Y-15127500I-40000J0D01*
G01*
X20813000Y-15381500D02*
G75*
G03*
X20813000Y-15381500I-40000J0D01*
G01*
X20813000Y-15635500D02*
G75*
G03*
X20813000Y-15635500I-40000J0D01*
G01*
X20813000Y-15889500D02*
G75*
G03*
X20813000Y-15889500I-40000J0D01*
G01*
X21514500Y-19698000D02*
G75*
G03*
X21514500Y-19698000I-40000J0D01*
G01*
X21574500Y-18490500D02*
G75*
G03*
X21574500Y-18490500I-40000J0D01*
G01*
X21574500Y-19252500D02*
G75*
G03*
X21574500Y-19252500I-40000J0D01*
G01*
X21574500Y-20141500D02*
G75*
G03*
X21574500Y-20141500I-40000J0D01*
G01*
X21574500Y-20903500D02*
G75*
G03*
X21574500Y-20903500I-40000J0D01*
G01*
X21578000Y-18047000D02*
G75*
G03*
X21578000Y-18047000I-40000J0D01*
G01*
X21828500Y-18490500D02*
G75*
G03*
X21828500Y-18490500I-40000J0D01*
G01*
X21828500Y-19252500D02*
G75*
G03*
X21828500Y-19252500I-40000J0D01*
G01*
X21828500Y-20141500D02*
G75*
G03*
X21828500Y-20141500I-40000J0D01*
G01*
X21828500Y-20903500D02*
G75*
G03*
X21828500Y-20903500I-40000J0D01*
G01*
X21834490Y-10236500D02*
G75*
G03*
X21834490Y-10236500I-40000J0D01*
G01*
X22014500Y-19698000D02*
G75*
G03*
X22014500Y-19698000I-40000J0D01*
G01*
X22078000Y-18047000D02*
G75*
G03*
X22078000Y-18047000I-40000J0D01*
G01*
X22082500Y-18490500D02*
G75*
G03*
X22082500Y-18490500I-40000J0D01*
G01*
X22082500Y-19252500D02*
G75*
G03*
X22082500Y-19252500I-40000J0D01*
G01*
X22082500Y-20141500D02*
G75*
G03*
X22082500Y-20141500I-40000J0D01*
G01*
X22082500Y-20903500D02*
G75*
G03*
X22082500Y-20903500I-40000J0D01*
G01*
X22084490Y-10236500D02*
G75*
G03*
X22084490Y-10236500I-40000J0D01*
G01*
X22336500Y-18490500D02*
G75*
G03*
X22336500Y-18490500I-40000J0D01*
G01*
X22336500Y-19252500D02*
G75*
G03*
X22336500Y-19252500I-40000J0D01*
G01*
X22336500Y-20141500D02*
G75*
G03*
X22336500Y-20141500I-40000J0D01*
G01*
X22336500Y-20903500D02*
G75*
G03*
X22336500Y-20903500I-40000J0D01*
G01*
X22590500Y-18490500D02*
G75*
G03*
X22590500Y-18490500I-40000J0D01*
G01*
X22590500Y-19252500D02*
G75*
G03*
X22590500Y-19252500I-40000J0D01*
G01*
X22590500Y-20141500D02*
G75*
G03*
X22590500Y-20141500I-40000J0D01*
G01*
X22590500Y-20903500D02*
G75*
G03*
X22590500Y-20903500I-40000J0D01*
G01*
X22844500Y-18490500D02*
G75*
G03*
X22844500Y-18490500I-40000J0D01*
G01*
X22844500Y-19252500D02*
G75*
G03*
X22844500Y-19252500I-40000J0D01*
G01*
X22844500Y-20141500D02*
G75*
G03*
X22844500Y-20141500I-40000J0D01*
G01*
X22844500Y-20903500D02*
G75*
G03*
X22844500Y-20903500I-40000J0D01*
G01*
X23098500Y-18490500D02*
G75*
G03*
X23098500Y-18490500I-40000J0D01*
G01*
X23098500Y-19252500D02*
G75*
G03*
X23098500Y-19252500I-40000J0D01*
G01*
X23098500Y-20141500D02*
G75*
G03*
X23098500Y-20141500I-40000J0D01*
G01*
X23098500Y-20903500D02*
G75*
G03*
X23098500Y-20903500I-40000J0D01*
G01*
X23352500Y-18490500D02*
G75*
G03*
X23352500Y-18490500I-40000J0D01*
G01*
X23352500Y-19252500D02*
G75*
G03*
X23352500Y-19252500I-40000J0D01*
G01*
X23352500Y-20141500D02*
G75*
G03*
X23352500Y-20141500I-40000J0D01*
G01*
X23352500Y-20903500D02*
G75*
G03*
X23352500Y-20903500I-40000J0D01*
G01*
X23606500Y-18490500D02*
G75*
G03*
X23606500Y-18490500I-40000J0D01*
G01*
X23606500Y-19252500D02*
G75*
G03*
X23606500Y-19252500I-40000J0D01*
G01*
X23606500Y-20141500D02*
G75*
G03*
X23606500Y-20141500I-40000J0D01*
G01*
X23606500Y-20903500D02*
G75*
G03*
X23606500Y-20903500I-40000J0D01*
G01*
X23656800Y-9131600D02*
G75*
G03*
X23656800Y-9131600I-40000J0D01*
G01*
X23656800Y-9893600D02*
G75*
G03*
X23656800Y-9893600I-40000J0D01*
G01*
X23860500Y-18490500D02*
G75*
G03*
X23860500Y-18490500I-40000J0D01*
G01*
X23860500Y-19252500D02*
G75*
G03*
X23860500Y-19252500I-40000J0D01*
G01*
X23860500Y-20141500D02*
G75*
G03*
X23860500Y-20141500I-40000J0D01*
G01*
X23860500Y-20903500D02*
G75*
G03*
X23860500Y-20903500I-40000J0D01*
G01*
X24435730Y-9131600D02*
G75*
G03*
X24435730Y-9131600I-40000J0D01*
G01*
X24435730Y-9893600D02*
G75*
G03*
X24435730Y-9893600I-40000J0D01*
G01*
X25214670Y-9131600D02*
G75*
G03*
X25214670Y-9131600I-40000J0D01*
G01*
X25214670Y-9893600D02*
G75*
G03*
X25214670Y-9893600I-40000J0D01*
G01*
X25993600Y-9131600D02*
G75*
G03*
X25993600Y-9131600I-40000J0D01*
G01*
X25993600Y-9893600D02*
G75*
G03*
X25993600Y-9893600I-40000J0D01*
G01*
D14*
X21192878Y-7854690D02*
X21192878Y-7944606D01*
X21147920Y-7899648D02*
X21237836Y-7899648D01*
X21192878Y-8099546D02*
X21192878Y-8189462D01*
X21147920Y-8144504D02*
X21237836Y-8144504D01*
X21402936Y-7854690D02*
X21402936Y-7944606D01*
X21357978Y-7899648D02*
X21447894Y-7899648D01*
X21662524Y-7854690D02*
X21662524Y-7944606D01*
X21617566Y-7899648D02*
X21707482Y-7899648D01*
X21872582Y-7854690D02*
X21872582Y-7944606D01*
X21827624Y-7899648D02*
X21917540Y-7899648D01*
X21872582Y-8104626D02*
X21872582Y-8194542D01*
X21827624Y-8149584D02*
X21917540Y-8149584D01*
X23288378Y-7854690D02*
X23288378Y-7944606D01*
X23243420Y-7899648D02*
X23333336Y-7899648D01*
X23288378Y-8099546D02*
X23288378Y-8189462D01*
X23243420Y-8144504D02*
X23333336Y-8144504D01*
X23498436Y-7854690D02*
X23498436Y-7944606D01*
X23453478Y-7899648D02*
X23543394Y-7899648D01*
X23758024Y-7854690D02*
X23758024Y-7944606D01*
X23713066Y-7899648D02*
X23802982Y-7899648D01*
X23968082Y-7854690D02*
X23968082Y-7944606D01*
X23923124Y-7899648D02*
X24013040Y-7899648D01*
X23968082Y-8104626D02*
X23968082Y-8194542D01*
X23923124Y-8149584D02*
X24013040Y-8149584D01*
D15*
X5030420Y-8122020D02*
X5030420Y-8058380D01*
X4966780Y-8058380D01*
X4966780Y-8122020D01*
X5030420Y-8122020D01*
X5284420Y-8122020D02*
X5284420Y-8058380D01*
X5220780Y-8058380D01*
X5220780Y-8122020D01*
X5284420Y-8122020D01*
D16*
X4704000Y-22350000D02*
X4754000Y-22300000D01*
X4704000Y-22250000D01*
X4654000Y-22300000D01*
X4704000Y-22350000D01*
X4704000Y-22604000D02*
X4754000Y-22554000D01*
X4704000Y-22504000D01*
X4654000Y-22554000D01*
X4704000Y-22604000D01*
X4958000Y-22350000D02*
X5008000Y-22300000D01*
X4958000Y-22250000D01*
X4908000Y-22300000D01*
X4958000Y-22350000D01*
X4958000Y-22604000D02*
X5008000Y-22554000D01*
X4958000Y-22504000D01*
X4908000Y-22554000D01*
X4958000Y-22604000D01*
X5152500Y-21208500D02*
X5202500Y-21158500D01*
X5152500Y-21108500D01*
X5102500Y-21158500D01*
X5152500Y-21208500D01*
X5200000Y-21900000D02*
X5250000Y-21850000D01*
X5200000Y-21800000D01*
X5150000Y-21850000D01*
X5200000Y-21900000D01*
X5212000Y-22350000D02*
X5262000Y-22300000D01*
X5212000Y-22250000D01*
X5162000Y-22300000D01*
X5212000Y-22350000D01*
X5212000Y-22604000D02*
X5262000Y-22554000D01*
X5212000Y-22504000D01*
X5162000Y-22554000D01*
X5212000Y-22604000D01*
X5406500Y-21208500D02*
X5456500Y-21158500D01*
X5406500Y-21108500D01*
X5356500Y-21158500D01*
X5406500Y-21208500D01*
X5454000Y-21900000D02*
X5504000Y-21850000D01*
X5454000Y-21800000D01*
X5404000Y-21850000D01*
X5454000Y-21900000D01*
X5466000Y-22350000D02*
X5516000Y-22300000D01*
X5466000Y-22250000D01*
X5416000Y-22300000D01*
X5466000Y-22350000D01*
X5466000Y-22604000D02*
X5516000Y-22554000D01*
X5466000Y-22504000D01*
X5416000Y-22554000D01*
X5466000Y-22604000D01*
X5660500Y-21208500D02*
X5710500Y-21158500D01*
X5660500Y-21108500D01*
X5610500Y-21158500D01*
X5660500Y-21208500D01*
X5708000Y-21900000D02*
X5758000Y-21850000D01*
X5708000Y-21800000D01*
X5658000Y-21850000D01*
X5708000Y-21900000D01*
X5720000Y-22350000D02*
X5770000Y-22300000D01*
X5720000Y-22250000D01*
X5670000Y-22300000D01*
X5720000Y-22350000D01*
X5720000Y-22604000D02*
X5770000Y-22554000D01*
X5720000Y-22504000D01*
X5670000Y-22554000D01*
X5720000Y-22604000D01*
X5962000Y-21900000D02*
X6012000Y-21850000D01*
X5962000Y-21800000D01*
X5912000Y-21850000D01*
X5962000Y-21900000D01*
X5972000Y-11291000D02*
X6022000Y-11241000D01*
X5972000Y-11191000D01*
X5922000Y-11241000D01*
X5972000Y-11291000D01*
X5972000Y-11545000D02*
X6022000Y-11495000D01*
X5972000Y-11445000D01*
X5922000Y-11495000D01*
X5972000Y-11545000D01*
X5972000Y-11799000D02*
X6022000Y-11749000D01*
X5972000Y-11699000D01*
X5922000Y-11749000D01*
X5972000Y-11799000D01*
X5972000Y-12053000D02*
X6022000Y-12003000D01*
X5972000Y-11953000D01*
X5922000Y-12003000D01*
X5972000Y-12053000D01*
X5972000Y-12307000D02*
X6022000Y-12257000D01*
X5972000Y-12207000D01*
X5922000Y-12257000D01*
X5972000Y-12307000D01*
X5972000Y-12561000D02*
X6022000Y-12511000D01*
X5972000Y-12461000D01*
X5922000Y-12511000D01*
X5972000Y-12561000D01*
X5972000Y-12815000D02*
X6022000Y-12765000D01*
X5972000Y-12715000D01*
X5922000Y-12765000D01*
X5972000Y-12815000D01*
X5972000Y-13069000D02*
X6022000Y-13019000D01*
X5972000Y-12969000D01*
X5922000Y-13019000D01*
X5972000Y-13069000D01*
X5972000Y-13323000D02*
X6022000Y-13273000D01*
X5972000Y-13223000D01*
X5922000Y-13273000D01*
X5972000Y-13323000D01*
X5972000Y-13577000D02*
X6022000Y-13527000D01*
X5972000Y-13477000D01*
X5922000Y-13527000D01*
X5972000Y-13577000D01*
X5972000Y-13831000D02*
X6022000Y-13781000D01*
X5972000Y-13731000D01*
X5922000Y-13781000D01*
X5972000Y-13831000D01*
X5972000Y-14085000D02*
X6022000Y-14035000D01*
X5972000Y-13985000D01*
X5922000Y-14035000D01*
X5972000Y-14085000D01*
X5972000Y-14339000D02*
X6022000Y-14289000D01*
X5972000Y-14239000D01*
X5922000Y-14289000D01*
X5972000Y-14339000D01*
X5972000Y-14593000D02*
X6022000Y-14543000D01*
X5972000Y-14493000D01*
X5922000Y-14543000D01*
X5972000Y-14593000D01*
X5972000Y-14847000D02*
X6022000Y-14797000D01*
X5972000Y-14747000D01*
X5922000Y-14797000D01*
X5972000Y-14847000D01*
X5974000Y-22350000D02*
X6024000Y-22300000D01*
X5974000Y-22250000D01*
X5924000Y-22300000D01*
X5974000Y-22350000D01*
X5974000Y-22604000D02*
X6024000Y-22554000D01*
X5974000Y-22504000D01*
X5924000Y-22554000D01*
X5974000Y-22604000D01*
X6228000Y-22350000D02*
X6278000Y-22300000D01*
X6228000Y-22250000D01*
X6178000Y-22300000D01*
X6228000Y-22350000D01*
X6228000Y-22604000D02*
X6278000Y-22554000D01*
X6228000Y-22504000D01*
X6178000Y-22554000D01*
X6228000Y-22604000D01*
X6358000Y-18605000D02*
X6408000Y-18555000D01*
X6358000Y-18505000D01*
X6308000Y-18555000D01*
X6358000Y-18605000D01*
X6358000Y-18859000D02*
X6408000Y-18809000D01*
X6358000Y-18759000D01*
X6308000Y-18809000D01*
X6358000Y-18859000D01*
X6358000Y-19113000D02*
X6408000Y-19063000D01*
X6358000Y-19013000D01*
X6308000Y-19063000D01*
X6358000Y-19113000D01*
X6358000Y-19367000D02*
X6408000Y-19317000D01*
X6358000Y-19267000D01*
X6308000Y-19317000D01*
X6358000Y-19367000D01*
X6358000Y-19621000D02*
X6408000Y-19571000D01*
X6358000Y-19521000D01*
X6308000Y-19571000D01*
X6358000Y-19621000D01*
X6358000Y-19875000D02*
X6408000Y-19825000D01*
X6358000Y-19775000D01*
X6308000Y-19825000D01*
X6358000Y-19875000D01*
X6482000Y-22350000D02*
X6532000Y-22300000D01*
X6482000Y-22250000D01*
X6432000Y-22300000D01*
X6482000Y-22350000D01*
X6482000Y-22604000D02*
X6532000Y-22554000D01*
X6482000Y-22504000D01*
X6432000Y-22554000D01*
X6482000Y-22604000D01*
X6612000Y-18605000D02*
X6662000Y-18555000D01*
X6612000Y-18505000D01*
X6562000Y-18555000D01*
X6612000Y-18605000D01*
X6612000Y-18859000D02*
X6662000Y-18809000D01*
X6612000Y-18759000D01*
X6562000Y-18809000D01*
X6612000Y-18859000D01*
X6612000Y-19113000D02*
X6662000Y-19063000D01*
X6612000Y-19013000D01*
X6562000Y-19063000D01*
X6612000Y-19113000D01*
X6612000Y-19367000D02*
X6662000Y-19317000D01*
X6612000Y-19267000D01*
X6562000Y-19317000D01*
X6612000Y-19367000D01*
X6612000Y-19621000D02*
X6662000Y-19571000D01*
X6612000Y-19521000D01*
X6562000Y-19571000D01*
X6612000Y-19621000D01*
X6612000Y-19875000D02*
X6662000Y-19825000D01*
X6612000Y-19775000D01*
X6562000Y-19825000D01*
X6612000Y-19875000D01*
X6736000Y-22350000D02*
X6786000Y-22300000D01*
X6736000Y-22250000D01*
X6686000Y-22300000D01*
X6736000Y-22350000D01*
X6736000Y-22604000D02*
X6786000Y-22554000D01*
X6736000Y-22504000D01*
X6686000Y-22554000D01*
X6736000Y-22604000D01*
X6930500Y-7556000D02*
X6980500Y-7506000D01*
X6930500Y-7456000D01*
X6880500Y-7506000D01*
X6930500Y-7556000D01*
X6990000Y-22350000D02*
X7040000Y-22300000D01*
X6990000Y-22250000D01*
X6940000Y-22300000D01*
X6990000Y-22350000D01*
X6990000Y-22604000D02*
X7040000Y-22554000D01*
X6990000Y-22504000D01*
X6940000Y-22554000D01*
X6990000Y-22604000D01*
X7184500Y-7556000D02*
X7234500Y-7506000D01*
X7184500Y-7456000D01*
X7134500Y-7506000D01*
X7184500Y-7556000D01*
X7244000Y-22350000D02*
X7294000Y-22300000D01*
X7244000Y-22250000D01*
X7194000Y-22300000D01*
X7244000Y-22350000D01*
X7244000Y-22604000D02*
X7294000Y-22554000D01*
X7244000Y-22504000D01*
X7194000Y-22554000D01*
X7244000Y-22604000D01*
X7438500Y-7556000D02*
X7488500Y-7506000D01*
X7438500Y-7456000D01*
X7388500Y-7506000D01*
X7438500Y-7556000D01*
X7498000Y-22350000D02*
X7548000Y-22300000D01*
X7498000Y-22250000D01*
X7448000Y-22300000D01*
X7498000Y-22350000D01*
X7498000Y-22604000D02*
X7548000Y-22554000D01*
X7498000Y-22504000D01*
X7448000Y-22554000D01*
X7498000Y-22604000D01*
X7752000Y-22350000D02*
X7802000Y-22300000D01*
X7752000Y-22250000D01*
X7702000Y-22300000D01*
X7752000Y-22350000D01*
X7752000Y-22604000D02*
X7802000Y-22554000D01*
X7752000Y-22504000D01*
X7702000Y-22554000D01*
X7752000Y-22604000D01*
X8006000Y-22350000D02*
X8056000Y-22300000D01*
X8006000Y-22250000D01*
X7956000Y-22300000D01*
X8006000Y-22350000D01*
X8006000Y-22604000D02*
X8056000Y-22554000D01*
X8006000Y-22504000D01*
X7956000Y-22554000D01*
X8006000Y-22604000D01*
X8199000Y-7556000D02*
X8249000Y-7506000D01*
X8199000Y-7456000D01*
X8149000Y-7506000D01*
X8199000Y-7556000D01*
X8260000Y-22350000D02*
X8310000Y-22300000D01*
X8260000Y-22250000D01*
X8210000Y-22300000D01*
X8260000Y-22350000D01*
X8260000Y-22604000D02*
X8310000Y-22554000D01*
X8260000Y-22504000D01*
X8210000Y-22554000D01*
X8260000Y-22604000D01*
X8453000Y-7556000D02*
X8503000Y-7506000D01*
X8453000Y-7456000D01*
X8403000Y-7506000D01*
X8453000Y-7556000D01*
X8514000Y-22350000D02*
X8564000Y-22300000D01*
X8514000Y-22250000D01*
X8464000Y-22300000D01*
X8514000Y-22350000D01*
X8514000Y-22604000D02*
X8564000Y-22554000D01*
X8514000Y-22504000D01*
X8464000Y-22554000D01*
X8514000Y-22604000D01*
X8516000Y-11291000D02*
X8566000Y-11241000D01*
X8516000Y-11191000D01*
X8466000Y-11241000D01*
X8516000Y-11291000D01*
X8516000Y-11545000D02*
X8566000Y-11495000D01*
X8516000Y-11445000D01*
X8466000Y-11495000D01*
X8516000Y-11545000D01*
X8516000Y-11799000D02*
X8566000Y-11749000D01*
X8516000Y-11699000D01*
X8466000Y-11749000D01*
X8516000Y-11799000D01*
X8516000Y-12053000D02*
X8566000Y-12003000D01*
X8516000Y-11953000D01*
X8466000Y-12003000D01*
X8516000Y-12053000D01*
X8516000Y-12307000D02*
X8566000Y-12257000D01*
X8516000Y-12207000D01*
X8466000Y-12257000D01*
X8516000Y-12307000D01*
X8516000Y-12561000D02*
X8566000Y-12511000D01*
X8516000Y-12461000D01*
X8466000Y-12511000D01*
X8516000Y-12561000D01*
X8516000Y-12815000D02*
X8566000Y-12765000D01*
X8516000Y-12715000D01*
X8466000Y-12765000D01*
X8516000Y-12815000D01*
X8516000Y-13069000D02*
X8566000Y-13019000D01*
X8516000Y-12969000D01*
X8466000Y-13019000D01*
X8516000Y-13069000D01*
X8516000Y-13323000D02*
X8566000Y-13273000D01*
X8516000Y-13223000D01*
X8466000Y-13273000D01*
X8516000Y-13323000D01*
X8516000Y-13577000D02*
X8566000Y-13527000D01*
X8516000Y-13477000D01*
X8466000Y-13527000D01*
X8516000Y-13577000D01*
X8516000Y-13831000D02*
X8566000Y-13781000D01*
X8516000Y-13731000D01*
X8466000Y-13781000D01*
X8516000Y-13831000D01*
X8516000Y-14085000D02*
X8566000Y-14035000D01*
X8516000Y-13985000D01*
X8466000Y-14035000D01*
X8516000Y-14085000D01*
X8516000Y-14339000D02*
X8566000Y-14289000D01*
X8516000Y-14239000D01*
X8466000Y-14289000D01*
X8516000Y-14339000D01*
X8516000Y-14593000D02*
X8566000Y-14543000D01*
X8516000Y-14493000D01*
X8466000Y-14543000D01*
X8516000Y-14593000D01*
X8516000Y-14847000D02*
X8566000Y-14797000D01*
X8516000Y-14747000D01*
X8466000Y-14797000D01*
X8516000Y-14847000D01*
X8768000Y-22350000D02*
X8818000Y-22300000D01*
X8768000Y-22250000D01*
X8718000Y-22300000D01*
X8768000Y-22350000D01*
X8768000Y-22604000D02*
X8818000Y-22554000D01*
X8768000Y-22504000D01*
X8718000Y-22554000D01*
X8768000Y-22604000D01*
X9022000Y-22350000D02*
X9072000Y-22300000D01*
X9022000Y-22250000D01*
X8972000Y-22300000D01*
X9022000Y-22350000D01*
X9022000Y-22604000D02*
X9072000Y-22554000D01*
X9022000Y-22504000D01*
X8972000Y-22554000D01*
X9022000Y-22604000D01*
X9215500Y-7549500D02*
X9265500Y-7499500D01*
X9215500Y-7449500D01*
X9165500Y-7499500D01*
X9215500Y-7549500D01*
X9215500Y-7803500D02*
X9265500Y-7753500D01*
X9215500Y-7703500D01*
X9165500Y-7753500D01*
X9215500Y-7803500D01*
X9276000Y-22350000D02*
X9326000Y-22300000D01*
X9276000Y-22250000D01*
X9226000Y-22300000D01*
X9276000Y-22350000D01*
X9276000Y-22604000D02*
X9326000Y-22554000D01*
X9276000Y-22504000D01*
X9226000Y-22554000D01*
X9276000Y-22604000D01*
X9469500Y-7549500D02*
X9519500Y-7499500D01*
X9469500Y-7449500D01*
X9419500Y-7499500D01*
X9469500Y-7549500D01*
X9469500Y-7803500D02*
X9519500Y-7753500D01*
X9469500Y-7703500D01*
X9419500Y-7753500D01*
X9469500Y-7803500D01*
X9530000Y-22350000D02*
X9580000Y-22300000D01*
X9530000Y-22250000D01*
X9480000Y-22300000D01*
X9530000Y-22350000D01*
X9530000Y-22604000D02*
X9580000Y-22554000D01*
X9530000Y-22504000D01*
X9480000Y-22554000D01*
X9530000Y-22604000D01*
X9723500Y-7549500D02*
X9773500Y-7499500D01*
X9723500Y-7449500D01*
X9673500Y-7499500D01*
X9723500Y-7549500D01*
X9723500Y-7803500D02*
X9773500Y-7753500D01*
X9723500Y-7703500D01*
X9673500Y-7753500D01*
X9723500Y-7803500D01*
X9784000Y-22350000D02*
X9834000Y-22300000D01*
X9784000Y-22250000D01*
X9734000Y-22300000D01*
X9784000Y-22350000D01*
X9784000Y-22604000D02*
X9834000Y-22554000D01*
X9784000Y-22504000D01*
X9734000Y-22554000D01*
X9784000Y-22604000D01*
X9977500Y-7549500D02*
X10027500Y-7499500D01*
X9977500Y-7449500D01*
X9927500Y-7499500D01*
X9977500Y-7549500D01*
X9977500Y-7803500D02*
X10027500Y-7753500D01*
X9977500Y-7703500D01*
X9927500Y-7753500D01*
X9977500Y-7803500D01*
X10038000Y-22350000D02*
X10088000Y-22300000D01*
X10038000Y-22250000D01*
X9988000Y-22300000D01*
X10038000Y-22350000D01*
X10038000Y-22604000D02*
X10088000Y-22554000D01*
X10038000Y-22504000D01*
X9988000Y-22554000D01*
X10038000Y-22604000D01*
X10231500Y-7549500D02*
X10281500Y-7499500D01*
X10231500Y-7449500D01*
X10181500Y-7499500D01*
X10231500Y-7549500D01*
X10231500Y-7803500D02*
X10281500Y-7753500D01*
X10231500Y-7703500D01*
X10181500Y-7753500D01*
X10231500Y-7803500D01*
X10292000Y-22350000D02*
X10342000Y-22300000D01*
X10292000Y-22250000D01*
X10242000Y-22300000D01*
X10292000Y-22350000D01*
X10292000Y-22604000D02*
X10342000Y-22554000D01*
X10292000Y-22504000D01*
X10242000Y-22554000D01*
X10292000Y-22604000D01*
X10546000Y-22350000D02*
X10596000Y-22300000D01*
X10546000Y-22250000D01*
X10496000Y-22300000D01*
X10546000Y-22350000D01*
X10546000Y-22604000D02*
X10596000Y-22554000D01*
X10546000Y-22504000D01*
X10496000Y-22554000D01*
X10546000Y-22604000D01*
X10800000Y-22350000D02*
X10850000Y-22300000D01*
X10800000Y-22250000D01*
X10750000Y-22300000D01*
X10800000Y-22350000D01*
X10800000Y-22604000D02*
X10850000Y-22554000D01*
X10800000Y-22504000D01*
X10750000Y-22554000D01*
X10800000Y-22604000D01*
X10867500Y-7549000D02*
X10917500Y-7499000D01*
X10867500Y-7449000D01*
X10817500Y-7499000D01*
X10867500Y-7549000D01*
X11121500Y-7549000D02*
X11171500Y-7499000D01*
X11121500Y-7449000D01*
X11071500Y-7499000D01*
X11121500Y-7549000D01*
X11375500Y-7549000D02*
X11425500Y-7499000D01*
X11375500Y-7449000D01*
X11325500Y-7499000D01*
X11375500Y-7549000D01*
X12104000Y-22350000D02*
X12154000Y-22300000D01*
X12104000Y-22250000D01*
X12054000Y-22300000D01*
X12104000Y-22350000D01*
X12104000Y-22604000D02*
X12154000Y-22554000D01*
X12104000Y-22504000D01*
X12054000Y-22554000D01*
X12104000Y-22604000D01*
X12326000Y-7556000D02*
X12376000Y-7506000D01*
X12326000Y-7456000D01*
X12276000Y-7506000D01*
X12326000Y-7556000D01*
X12358000Y-22350000D02*
X12408000Y-22300000D01*
X12358000Y-22250000D01*
X12308000Y-22300000D01*
X12358000Y-22350000D01*
X12358000Y-22604000D02*
X12408000Y-22554000D01*
X12358000Y-22504000D01*
X12308000Y-22554000D01*
X12358000Y-22604000D01*
X12580000Y-7556000D02*
X12630000Y-7506000D01*
X12580000Y-7456000D01*
X12530000Y-7506000D01*
X12580000Y-7556000D01*
X12612000Y-22350000D02*
X12662000Y-22300000D01*
X12612000Y-22250000D01*
X12562000Y-22300000D01*
X12612000Y-22350000D01*
X12612000Y-22604000D02*
X12662000Y-22554000D01*
X12612000Y-22504000D01*
X12562000Y-22554000D01*
X12612000Y-22604000D01*
X12834000Y-7556000D02*
X12884000Y-7506000D01*
X12834000Y-7456000D01*
X12784000Y-7506000D01*
X12834000Y-7556000D01*
X12866000Y-22350000D02*
X12916000Y-22300000D01*
X12866000Y-22250000D01*
X12816000Y-22300000D01*
X12866000Y-22350000D01*
X12866000Y-22604000D02*
X12916000Y-22554000D01*
X12866000Y-22504000D01*
X12816000Y-22554000D01*
X12866000Y-22604000D01*
X13088000Y-7556000D02*
X13138000Y-7506000D01*
X13088000Y-7456000D01*
X13038000Y-7506000D01*
X13088000Y-7556000D01*
X13120000Y-22350000D02*
X13170000Y-22300000D01*
X13120000Y-22250000D01*
X13070000Y-22300000D01*
X13120000Y-22350000D01*
X13120000Y-22604000D02*
X13170000Y-22554000D01*
X13120000Y-22504000D01*
X13070000Y-22554000D01*
X13120000Y-22604000D01*
X13342000Y-7556000D02*
X13392000Y-7506000D01*
X13342000Y-7456000D01*
X13292000Y-7506000D01*
X13342000Y-7556000D01*
X13374000Y-22350000D02*
X13424000Y-22300000D01*
X13374000Y-22250000D01*
X13324000Y-22300000D01*
X13374000Y-22350000D01*
X13374000Y-22604000D02*
X13424000Y-22554000D01*
X13374000Y-22504000D01*
X13324000Y-22554000D01*
X13374000Y-22604000D01*
X13596000Y-7556000D02*
X13646000Y-7506000D01*
X13596000Y-7456000D01*
X13546000Y-7506000D01*
X13596000Y-7556000D01*
X13628000Y-22350000D02*
X13678000Y-22300000D01*
X13628000Y-22250000D01*
X13578000Y-22300000D01*
X13628000Y-22350000D01*
X13628000Y-22604000D02*
X13678000Y-22554000D01*
X13628000Y-22504000D01*
X13578000Y-22554000D01*
X13628000Y-22604000D01*
X13850000Y-7556000D02*
X13900000Y-7506000D01*
X13850000Y-7456000D01*
X13800000Y-7506000D01*
X13850000Y-7556000D01*
X13882000Y-22350000D02*
X13932000Y-22300000D01*
X13882000Y-22250000D01*
X13832000Y-22300000D01*
X13882000Y-22350000D01*
X13882000Y-22604000D02*
X13932000Y-22554000D01*
X13882000Y-22504000D01*
X13832000Y-22554000D01*
X13882000Y-22604000D01*
X14136000Y-22350000D02*
X14186000Y-22300000D01*
X14136000Y-22250000D01*
X14086000Y-22300000D01*
X14136000Y-22350000D01*
X14136000Y-22604000D02*
X14186000Y-22554000D01*
X14136000Y-22504000D01*
X14086000Y-22554000D01*
X14136000Y-22604000D01*
X14390000Y-22350000D02*
X14440000Y-22300000D01*
X14390000Y-22250000D01*
X14340000Y-22300000D01*
X14390000Y-22350000D01*
X14390000Y-22604000D02*
X14440000Y-22554000D01*
X14390000Y-22504000D01*
X14340000Y-22554000D01*
X14390000Y-22604000D01*
X14644000Y-22350000D02*
X14694000Y-22300000D01*
X14644000Y-22250000D01*
X14594000Y-22300000D01*
X14644000Y-22350000D01*
X14644000Y-22604000D02*
X14694000Y-22554000D01*
X14644000Y-22504000D01*
X14594000Y-22554000D01*
X14644000Y-22604000D01*
X14898000Y-22350000D02*
X14948000Y-22300000D01*
X14898000Y-22250000D01*
X14848000Y-22300000D01*
X14898000Y-22350000D01*
X14898000Y-22604000D02*
X14948000Y-22554000D01*
X14898000Y-22504000D01*
X14848000Y-22554000D01*
X14898000Y-22604000D01*
X15152000Y-22350000D02*
X15202000Y-22300000D01*
X15152000Y-22250000D01*
X15102000Y-22300000D01*
X15152000Y-22350000D01*
X15152000Y-22604000D02*
X15202000Y-22554000D01*
X15152000Y-22504000D01*
X15102000Y-22554000D01*
X15152000Y-22604000D01*
X15406000Y-22350000D02*
X15456000Y-22300000D01*
X15406000Y-22250000D01*
X15356000Y-22300000D01*
X15406000Y-22350000D01*
X15406000Y-22604000D02*
X15456000Y-22554000D01*
X15406000Y-22504000D01*
X15356000Y-22554000D01*
X15406000Y-22604000D01*
X15660000Y-22350000D02*
X15710000Y-22300000D01*
X15660000Y-22250000D01*
X15610000Y-22300000D01*
X15660000Y-22350000D01*
X15660000Y-22604000D02*
X15710000Y-22554000D01*
X15660000Y-22504000D01*
X15610000Y-22554000D01*
X15660000Y-22604000D01*
X15914000Y-22350000D02*
X15964000Y-22300000D01*
X15914000Y-22250000D01*
X15864000Y-22300000D01*
X15914000Y-22350000D01*
X15914000Y-22604000D02*
X15964000Y-22554000D01*
X15914000Y-22504000D01*
X15864000Y-22554000D01*
X15914000Y-22604000D01*
X16168000Y-22350000D02*
X16218000Y-22300000D01*
X16168000Y-22250000D01*
X16118000Y-22300000D01*
X16168000Y-22350000D01*
X16168000Y-22604000D02*
X16218000Y-22554000D01*
X16168000Y-22504000D01*
X16118000Y-22554000D01*
X16168000Y-22604000D01*
X16422000Y-22350000D02*
X16472000Y-22300000D01*
X16422000Y-22250000D01*
X16372000Y-22300000D01*
X16422000Y-22350000D01*
X16422000Y-22604000D02*
X16472000Y-22554000D01*
X16422000Y-22504000D01*
X16372000Y-22554000D01*
X16422000Y-22604000D01*
X16676000Y-22350000D02*
X16726000Y-22300000D01*
X16676000Y-22250000D01*
X16626000Y-22300000D01*
X16676000Y-22350000D01*
X16676000Y-22604000D02*
X16726000Y-22554000D01*
X16676000Y-22504000D01*
X16626000Y-22554000D01*
X16676000Y-22604000D01*
X16930000Y-22350000D02*
X16980000Y-22300000D01*
X16930000Y-22250000D01*
X16880000Y-22300000D01*
X16930000Y-22350000D01*
X16930000Y-22604000D02*
X16980000Y-22554000D01*
X16930000Y-22504000D01*
X16880000Y-22554000D01*
X16930000Y-22604000D01*
X17184000Y-22350000D02*
X17234000Y-22300000D01*
X17184000Y-22250000D01*
X17134000Y-22300000D01*
X17184000Y-22350000D01*
X17184000Y-22604000D02*
X17234000Y-22554000D01*
X17184000Y-22504000D01*
X17134000Y-22554000D01*
X17184000Y-22604000D01*
X17438000Y-22350000D02*
X17488000Y-22300000D01*
X17438000Y-22250000D01*
X17388000Y-22300000D01*
X17438000Y-22350000D01*
X17438000Y-22604000D02*
X17488000Y-22554000D01*
X17438000Y-22504000D01*
X17388000Y-22554000D01*
X17438000Y-22604000D01*
X17692000Y-22350000D02*
X17742000Y-22300000D01*
X17692000Y-22250000D01*
X17642000Y-22300000D01*
X17692000Y-22350000D01*
X17692000Y-22604000D02*
X17742000Y-22554000D01*
X17692000Y-22504000D01*
X17642000Y-22554000D01*
X17692000Y-22604000D01*
X17801270Y-7675500D02*
X17851270Y-7625500D01*
X17801270Y-7575500D01*
X17751270Y-7625500D01*
X17801270Y-7675500D01*
X17915770Y-7477500D02*
X17965770Y-7427500D01*
X17915770Y-7377500D01*
X17865770Y-7427500D01*
X17915770Y-7477500D01*
X17915770Y-7873500D02*
X17965770Y-7823500D01*
X17915770Y-7773500D01*
X17865770Y-7823500D01*
X17915770Y-7873500D01*
X17946000Y-22350000D02*
X17996000Y-22300000D01*
X17946000Y-22250000D01*
X17896000Y-22300000D01*
X17946000Y-22350000D01*
X17946000Y-22604000D02*
X17996000Y-22554000D01*
X17946000Y-22504000D01*
X17896000Y-22554000D01*
X17946000Y-22604000D01*
X18030270Y-7675500D02*
X18080270Y-7625500D01*
X18030270Y-7575500D01*
X17980270Y-7625500D01*
X18030270Y-7675500D01*
X18144770Y-7477500D02*
X18194770Y-7427500D01*
X18144770Y-7377500D01*
X18094770Y-7427500D01*
X18144770Y-7477500D01*
X18144770Y-7873500D02*
X18194770Y-7823500D01*
X18144770Y-7773500D01*
X18094770Y-7823500D01*
X18144770Y-7873500D01*
X18200000Y-22350000D02*
X18250000Y-22300000D01*
X18200000Y-22250000D01*
X18150000Y-22300000D01*
X18200000Y-22350000D01*
X18200000Y-22604000D02*
X18250000Y-22554000D01*
X18200000Y-22504000D01*
X18150000Y-22554000D01*
X18200000Y-22604000D01*
X18259270Y-7675500D02*
X18309270Y-7625500D01*
X18259270Y-7575500D01*
X18209270Y-7625500D01*
X18259270Y-7675500D01*
X18373770Y-7477500D02*
X18423770Y-7427500D01*
X18373770Y-7377500D01*
X18323770Y-7427500D01*
X18373770Y-7477500D01*
X18373770Y-7873500D02*
X18423770Y-7823500D01*
X18373770Y-7773500D01*
X18323770Y-7823500D01*
X18373770Y-7873500D01*
X18488270Y-7675500D02*
X18538270Y-7625500D01*
X18488270Y-7575500D01*
X18438270Y-7625500D01*
X18488270Y-7675500D01*
X18602770Y-7477500D02*
X18652770Y-7427500D01*
X18602770Y-7377500D01*
X18552770Y-7427500D01*
X18602770Y-7477500D01*
X18602770Y-7873500D02*
X18652770Y-7823500D01*
X18602770Y-7773500D01*
X18552770Y-7823500D01*
X18602770Y-7873500D01*
X18717270Y-7675500D02*
X18767270Y-7625500D01*
X18717270Y-7575500D01*
X18667270Y-7625500D01*
X18717270Y-7675500D01*
X18831770Y-7477500D02*
X18881770Y-7427500D01*
X18831770Y-7377500D01*
X18781770Y-7427500D01*
X18831770Y-7477500D01*
X18831770Y-7873500D02*
X18881770Y-7823500D01*
X18831770Y-7773500D01*
X18781770Y-7823500D01*
X18831770Y-7873500D01*
X19704000Y-22350000D02*
X19754000Y-22300000D01*
X19704000Y-22250000D01*
X19654000Y-22300000D01*
X19704000Y-22350000D01*
X19704000Y-22604000D02*
X19754000Y-22554000D01*
X19704000Y-22504000D01*
X19654000Y-22554000D01*
X19704000Y-22604000D01*
X19958000Y-22350000D02*
X20008000Y-22300000D01*
X19958000Y-22250000D01*
X19908000Y-22300000D01*
X19958000Y-22350000D01*
X19958000Y-22604000D02*
X20008000Y-22554000D01*
X19958000Y-22504000D01*
X19908000Y-22554000D01*
X19958000Y-22604000D01*
X20212000Y-22350000D02*
X20262000Y-22300000D01*
X20212000Y-22250000D01*
X20162000Y-22300000D01*
X20212000Y-22350000D01*
X20212000Y-22604000D02*
X20262000Y-22554000D01*
X20212000Y-22504000D01*
X20162000Y-22554000D01*
X20212000Y-22604000D01*
X20466000Y-22350000D02*
X20516000Y-22300000D01*
X20466000Y-22250000D01*
X20416000Y-22300000D01*
X20466000Y-22350000D01*
X20466000Y-22604000D02*
X20516000Y-22554000D01*
X20466000Y-22504000D01*
X20416000Y-22554000D01*
X20466000Y-22604000D01*
X20720000Y-22350000D02*
X20770000Y-22300000D01*
X20720000Y-22250000D01*
X20670000Y-22300000D01*
X20720000Y-22350000D01*
X20720000Y-22604000D02*
X20770000Y-22554000D01*
X20720000Y-22504000D01*
X20670000Y-22554000D01*
X20720000Y-22604000D01*
X20974000Y-22350000D02*
X21024000Y-22300000D01*
X20974000Y-22250000D01*
X20924000Y-22300000D01*
X20974000Y-22350000D01*
X20974000Y-22604000D02*
X21024000Y-22554000D01*
X20974000Y-22504000D01*
X20924000Y-22554000D01*
X20974000Y-22604000D01*
X21228000Y-22350000D02*
X21278000Y-22300000D01*
X21228000Y-22250000D01*
X21178000Y-22300000D01*
X21228000Y-22350000D01*
X21228000Y-22604000D02*
X21278000Y-22554000D01*
X21228000Y-22504000D01*
X21178000Y-22554000D01*
X21228000Y-22604000D01*
X21482000Y-22350000D02*
X21532000Y-22300000D01*
X21482000Y-22250000D01*
X21432000Y-22300000D01*
X21482000Y-22350000D01*
X21482000Y-22604000D02*
X21532000Y-22554000D01*
X21482000Y-22504000D01*
X21432000Y-22554000D01*
X21482000Y-22604000D01*
X21736000Y-22350000D02*
X21786000Y-22300000D01*
X21736000Y-22250000D01*
X21686000Y-22300000D01*
X21736000Y-22350000D01*
X21736000Y-22604000D02*
X21786000Y-22554000D01*
X21736000Y-22504000D01*
X21686000Y-22554000D01*
X21736000Y-22604000D01*
X21974000Y-11291000D02*
X22024000Y-11241000D01*
X21974000Y-11191000D01*
X21924000Y-11241000D01*
X21974000Y-11291000D01*
X21974000Y-11545000D02*
X22024000Y-11495000D01*
X21974000Y-11445000D01*
X21924000Y-11495000D01*
X21974000Y-11545000D01*
X21974000Y-11799000D02*
X22024000Y-11749000D01*
X21974000Y-11699000D01*
X21924000Y-11749000D01*
X21974000Y-11799000D01*
X21974000Y-12053000D02*
X22024000Y-12003000D01*
X21974000Y-11953000D01*
X21924000Y-12003000D01*
X21974000Y-12053000D01*
X21974000Y-12307000D02*
X22024000Y-12257000D01*
X21974000Y-12207000D01*
X21924000Y-12257000D01*
X21974000Y-12307000D01*
X21974000Y-12561000D02*
X22024000Y-12511000D01*
X21974000Y-12461000D01*
X21924000Y-12511000D01*
X21974000Y-12561000D01*
X21974000Y-12815000D02*
X22024000Y-12765000D01*
X21974000Y-12715000D01*
X21924000Y-12765000D01*
X21974000Y-12815000D01*
X21974000Y-13069000D02*
X22024000Y-13019000D01*
X21974000Y-12969000D01*
X21924000Y-13019000D01*
X21974000Y-13069000D01*
X21974000Y-13323000D02*
X22024000Y-13273000D01*
X21974000Y-13223000D01*
X21924000Y-13273000D01*
X21974000Y-13323000D01*
X21974000Y-13577000D02*
X22024000Y-13527000D01*
X21974000Y-13477000D01*
X21924000Y-13527000D01*
X21974000Y-13577000D01*
X21974000Y-13831000D02*
X22024000Y-13781000D01*
X21974000Y-13731000D01*
X21924000Y-13781000D01*
X21974000Y-13831000D01*
X21974000Y-14085000D02*
X22024000Y-14035000D01*
X21974000Y-13985000D01*
X21924000Y-14035000D01*
X21974000Y-14085000D01*
X21974000Y-14339000D02*
X22024000Y-14289000D01*
X21974000Y-14239000D01*
X21924000Y-14289000D01*
X21974000Y-14339000D01*
X21974000Y-14593000D02*
X22024000Y-14543000D01*
X21974000Y-14493000D01*
X21924000Y-14543000D01*
X21974000Y-14593000D01*
X21974000Y-14847000D02*
X22024000Y-14797000D01*
X21974000Y-14747000D01*
X21924000Y-14797000D01*
X21974000Y-14847000D01*
X21990000Y-22350000D02*
X22040000Y-22300000D01*
X21990000Y-22250000D01*
X21940000Y-22300000D01*
X21990000Y-22350000D01*
X21990000Y-22604000D02*
X22040000Y-22554000D01*
X21990000Y-22504000D01*
X21940000Y-22554000D01*
X21990000Y-22604000D01*
X22244000Y-22350000D02*
X22294000Y-22300000D01*
X22244000Y-22250000D01*
X22194000Y-22300000D01*
X22244000Y-22350000D01*
X22244000Y-22604000D02*
X22294000Y-22554000D01*
X22244000Y-22504000D01*
X22194000Y-22554000D01*
X22244000Y-22604000D01*
X22498000Y-22350000D02*
X22548000Y-22300000D01*
X22498000Y-22250000D01*
X22448000Y-22300000D01*
X22498000Y-22350000D01*
X22498000Y-22604000D02*
X22548000Y-22554000D01*
X22498000Y-22504000D01*
X22448000Y-22554000D01*
X22498000Y-22604000D01*
X22752000Y-22350000D02*
X22802000Y-22300000D01*
X22752000Y-22250000D01*
X22702000Y-22300000D01*
X22752000Y-22350000D01*
X22752000Y-22604000D02*
X22802000Y-22554000D01*
X22752000Y-22504000D01*
X22702000Y-22554000D01*
X22752000Y-22604000D01*
X23006000Y-22350000D02*
X23056000Y-22300000D01*
X23006000Y-22250000D01*
X22956000Y-22300000D01*
X23006000Y-22350000D01*
X23006000Y-22604000D02*
X23056000Y-22554000D01*
X23006000Y-22504000D01*
X22956000Y-22554000D01*
X23006000Y-22604000D01*
X23260000Y-22350000D02*
X23310000Y-22300000D01*
X23260000Y-22250000D01*
X23210000Y-22300000D01*
X23260000Y-22350000D01*
X23260000Y-22604000D02*
X23310000Y-22554000D01*
X23260000Y-22504000D01*
X23210000Y-22554000D01*
X23260000Y-22604000D01*
X23514000Y-22350000D02*
X23564000Y-22300000D01*
X23514000Y-22250000D01*
X23464000Y-22300000D01*
X23514000Y-22350000D01*
X23514000Y-22604000D02*
X23564000Y-22554000D01*
X23514000Y-22504000D01*
X23464000Y-22554000D01*
X23514000Y-22604000D01*
X23768000Y-22350000D02*
X23818000Y-22300000D01*
X23768000Y-22250000D01*
X23718000Y-22300000D01*
X23768000Y-22350000D01*
X23768000Y-22604000D02*
X23818000Y-22554000D01*
X23768000Y-22504000D01*
X23718000Y-22554000D01*
X23768000Y-22604000D01*
X24022000Y-22350000D02*
X24072000Y-22300000D01*
X24022000Y-22250000D01*
X23972000Y-22300000D01*
X24022000Y-22350000D01*
X24022000Y-22604000D02*
X24072000Y-22554000D01*
X24022000Y-22504000D01*
X23972000Y-22554000D01*
X24022000Y-22604000D01*
X24276000Y-22350000D02*
X24326000Y-22300000D01*
X24276000Y-22250000D01*
X24226000Y-22300000D01*
X24276000Y-22350000D01*
X24276000Y-22604000D02*
X24326000Y-22554000D01*
X24276000Y-22504000D01*
X24226000Y-22554000D01*
X24276000Y-22604000D01*
X24518000Y-11291000D02*
X24568000Y-11241000D01*
X24518000Y-11191000D01*
X24468000Y-11241000D01*
X24518000Y-11291000D01*
X24518000Y-11545000D02*
X24568000Y-11495000D01*
X24518000Y-11445000D01*
X24468000Y-11495000D01*
X24518000Y-11545000D01*
X24518000Y-11799000D02*
X24568000Y-11749000D01*
X24518000Y-11699000D01*
X24468000Y-11749000D01*
X24518000Y-11799000D01*
X24518000Y-12053000D02*
X24568000Y-12003000D01*
X24518000Y-11953000D01*
X24468000Y-12003000D01*
X24518000Y-12053000D01*
X24518000Y-12307000D02*
X24568000Y-12257000D01*
X24518000Y-12207000D01*
X24468000Y-12257000D01*
X24518000Y-12307000D01*
X24518000Y-12561000D02*
X24568000Y-12511000D01*
X24518000Y-12461000D01*
X24468000Y-12511000D01*
X24518000Y-12561000D01*
X24518000Y-12815000D02*
X24568000Y-12765000D01*
X24518000Y-12715000D01*
X24468000Y-12765000D01*
X24518000Y-12815000D01*
X24518000Y-13069000D02*
X24568000Y-13019000D01*
X24518000Y-12969000D01*
X24468000Y-13019000D01*
X24518000Y-13069000D01*
X24518000Y-13323000D02*
X24568000Y-13273000D01*
X24518000Y-13223000D01*
X24468000Y-13273000D01*
X24518000Y-13323000D01*
X24518000Y-13577000D02*
X24568000Y-13527000D01*
X24518000Y-13477000D01*
X24468000Y-13527000D01*
X24518000Y-13577000D01*
X24518000Y-13831000D02*
X24568000Y-13781000D01*
X24518000Y-13731000D01*
X24468000Y-13781000D01*
X24518000Y-13831000D01*
X24518000Y-14085000D02*
X24568000Y-14035000D01*
X24518000Y-13985000D01*
X24468000Y-14035000D01*
X24518000Y-14085000D01*
X24518000Y-14339000D02*
X24568000Y-14289000D01*
X24518000Y-14239000D01*
X24468000Y-14289000D01*
X24518000Y-14339000D01*
X24518000Y-14593000D02*
X24568000Y-14543000D01*
X24518000Y-14493000D01*
X24468000Y-14543000D01*
X24518000Y-14593000D01*
X24518000Y-14847000D02*
X24568000Y-14797000D01*
X24518000Y-14747000D01*
X24468000Y-14797000D01*
X24518000Y-14847000D01*
X24530000Y-22350000D02*
X24580000Y-22300000D01*
X24530000Y-22250000D01*
X24480000Y-22300000D01*
X24530000Y-22350000D01*
X24530000Y-22604000D02*
X24580000Y-22554000D01*
X24530000Y-22504000D01*
X24480000Y-22554000D01*
X24530000Y-22604000D01*
X24784000Y-22350000D02*
X24834000Y-22300000D01*
X24784000Y-22250000D01*
X24734000Y-22300000D01*
X24784000Y-22350000D01*
X24784000Y-22604000D02*
X24834000Y-22554000D01*
X24784000Y-22504000D01*
X24734000Y-22554000D01*
X24784000Y-22604000D01*
X25038000Y-22350000D02*
X25088000Y-22300000D01*
X25038000Y-22250000D01*
X24988000Y-22300000D01*
X25038000Y-22350000D01*
X25038000Y-22604000D02*
X25088000Y-22554000D01*
X25038000Y-22504000D01*
X24988000Y-22554000D01*
X25038000Y-22604000D01*
X25292000Y-22350000D02*
X25342000Y-22300000D01*
X25292000Y-22250000D01*
X25242000Y-22300000D01*
X25292000Y-22350000D01*
X25292000Y-22604000D02*
X25342000Y-22554000D01*
X25292000Y-22504000D01*
X25242000Y-22554000D01*
X25292000Y-22604000D01*
X25546000Y-22350000D02*
X25596000Y-22300000D01*
X25546000Y-22250000D01*
X25496000Y-22300000D01*
X25546000Y-22350000D01*
X25546000Y-22604000D02*
X25596000Y-22554000D01*
X25546000Y-22504000D01*
X25496000Y-22554000D01*
X25546000Y-22604000D01*
X25800000Y-22350000D02*
X25850000Y-22300000D01*
X25800000Y-22250000D01*
X25750000Y-22300000D01*
X25800000Y-22350000D01*
X25800000Y-22604000D02*
X25850000Y-22554000D01*
X25800000Y-22504000D01*
X25750000Y-22554000D01*
X25800000Y-22604000D01*
D17*
X5794500Y-9483000D02*
X5904500Y-9593000D01*
X5904500Y-9483000D02*
X5794500Y-9593000D01*
X5904500Y-9538000D02*
G75*
G03*
X5904500Y-9538000I-55000J0D01*
G01*
X6493000Y-10181500D02*
X6603000Y-10291500D01*
X6603000Y-10181500D02*
X6493000Y-10291500D01*
X6603000Y-10236500D02*
G75*
G03*
X6603000Y-10236500I-55000J0D01*
G01*
X6810500Y-9483000D02*
X6920500Y-9593000D01*
X6920500Y-9483000D02*
X6810500Y-9593000D01*
X6920500Y-9538000D02*
G75*
G03*
X6920500Y-9538000I-55000J0D01*
G01*
X7509000Y-10181500D02*
X7619000Y-10291500D01*
X7619000Y-10181500D02*
X7509000Y-10291500D01*
X7619000Y-10236500D02*
G75*
G03*
X7619000Y-10236500I-55000J0D01*
G01*
X21796500Y-9483000D02*
X21906500Y-9593000D01*
X21906500Y-9483000D02*
X21796500Y-9593000D01*
X21906500Y-9538000D02*
G75*
G03*
X21906500Y-9538000I-55000J0D01*
G01*
X22393400Y-10499000D02*
X22503400Y-10609000D01*
X22503400Y-10499000D02*
X22393400Y-10609000D01*
X22503400Y-10554000D02*
G75*
G03*
X22503400Y-10554000I-55000J0D01*
G01*
X22812500Y-9483000D02*
X22922500Y-9593000D01*
X22922500Y-9483000D02*
X22812500Y-9593000D01*
X22922500Y-9538000D02*
G75*
G03*
X22922500Y-9538000I-55000J0D01*
G01*
X23409400Y-10499000D02*
X23519400Y-10609000D01*
X23519400Y-10499000D02*
X23409400Y-10609000D01*
X23519400Y-10554000D02*
G75*
G03*
X23519400Y-10554000I-55000J0D01*
G01*
D18*
X20742917Y-7484739D02*
X20972787Y-7714609D01*
X20972787Y-7484739D02*
X20742917Y-7714609D01*
X20857852Y-7484739D02*
X20857852Y-7714609D01*
X20742917Y-7599674D02*
X20972787Y-7599674D01*
X21417795Y-7404983D02*
X21647665Y-7634853D01*
X21647665Y-7404983D02*
X21417795Y-7634853D01*
X21532730Y-7404983D02*
X21532730Y-7634853D01*
X21417795Y-7519918D02*
X21647665Y-7519918D01*
X22097753Y-7484739D02*
X22327623Y-7714609D01*
X22327623Y-7484739D02*
X22097753Y-7714609D01*
X22212688Y-7484739D02*
X22212688Y-7714609D01*
X22097753Y-7599674D02*
X22327623Y-7599674D01*
X22838417Y-7484739D02*
X23068287Y-7714609D01*
X23068287Y-7484739D02*
X22838417Y-7714609D01*
X22953352Y-7484739D02*
X22953352Y-7714609D01*
X22838417Y-7599674D02*
X23068287Y-7599674D01*
X23513295Y-7404983D02*
X23743165Y-7634853D01*
X23743165Y-7404983D02*
X23513295Y-7634853D01*
X23628230Y-7404983D02*
X23628230Y-7634853D01*
X23513295Y-7519918D02*
X23743165Y-7519918D01*
X24193253Y-7484739D02*
X24423123Y-7714609D01*
X24423123Y-7484739D02*
X24193253Y-7714609D01*
X24308188Y-7484739D02*
X24308188Y-7714609D01*
X24193253Y-7599674D02*
X24423123Y-7599674D01*
D19*
X3840000Y-7340000D02*
X4160000Y-7660000D01*
X4160000Y-7340000D02*
X3840000Y-7660000D01*
X4113138Y-7613138D02*
X4113138Y-7386862D01*
X3886862Y-7386862D01*
X3886862Y-7613138D01*
X4113138Y-7613138D01*
X16937270Y-7458500D02*
X17257270Y-7778500D01*
X17257270Y-7458500D02*
X16937270Y-7778500D01*
X17210408Y-7731638D02*
X17210408Y-7505362D01*
X16984132Y-7505362D01*
X16984132Y-7731638D01*
X17210408Y-7731638D01*
X19437270Y-7458500D02*
X19757270Y-7778500D01*
X19757270Y-7458500D02*
X19437270Y-7778500D01*
X19710408Y-7731638D02*
X19710408Y-7505362D01*
X19484132Y-7505362D01*
X19484132Y-7731638D01*
X19710408Y-7731638D01*
X26340000Y-7340000D02*
X26660000Y-7660000D01*
X26660000Y-7340000D02*
X26340000Y-7660000D01*
X26613138Y-7613138D02*
X26613138Y-7386862D01*
X26386862Y-7386862D01*
X26386862Y-7613138D01*
X26613138Y-7613138D01*
D11*
X3755119Y-23312976D02*
X3755119Y-23112976D01*
X3802738Y-23112976D01*
X3831309Y-23122500D01*
X3850357Y-23141548D01*
X3859881Y-23160595D01*
X3869405Y-23198690D01*
X3869405Y-23227262D01*
X3859881Y-23265357D01*
X3850357Y-23284405D01*
X3831309Y-23303452D01*
X3802738Y-23312976D01*
X3755119Y-23312976D01*
X3955119Y-23312976D02*
X3955119Y-23179643D01*
X3955119Y-23217738D02*
X3964643Y-23198690D01*
X3974167Y-23189167D01*
X3993214Y-23179643D01*
X4012262Y-23179643D01*
X4078928Y-23312976D02*
X4078928Y-23179643D01*
X4078928Y-23112976D02*
X4069405Y-23122500D01*
X4078928Y-23132024D01*
X4088452Y-23122500D01*
X4078928Y-23112976D01*
X4078928Y-23132024D01*
X4202738Y-23312976D02*
X4183690Y-23303452D01*
X4174167Y-23284405D01*
X4174167Y-23112976D01*
X4307500Y-23312976D02*
X4288452Y-23303452D01*
X4278929Y-23284405D01*
X4278929Y-23112976D01*
X4536071Y-23312976D02*
X4536071Y-23112976D01*
X4602738Y-23255833D01*
X4669405Y-23112976D01*
X4669405Y-23312976D01*
X4850357Y-23312976D02*
X4850357Y-23208214D01*
X4840833Y-23189167D01*
X4821786Y-23179643D01*
X4783690Y-23179643D01*
X4764643Y-23189167D01*
X4850357Y-23303452D02*
X4831310Y-23312976D01*
X4783690Y-23312976D01*
X4764643Y-23303452D01*
X4755119Y-23284405D01*
X4755119Y-23265357D01*
X4764643Y-23246309D01*
X4783690Y-23236786D01*
X4831310Y-23236786D01*
X4850357Y-23227262D01*
X4945595Y-23179643D02*
X4945595Y-23379643D01*
X4945595Y-23189167D02*
X4964643Y-23179643D01*
X5002738Y-23179643D01*
X5021786Y-23189167D01*
X5031310Y-23198690D01*
X5040833Y-23217738D01*
X5040833Y-23274881D01*
X5031310Y-23293928D01*
X5021786Y-23303452D01*
X5002738Y-23312976D01*
X4964643Y-23312976D01*
X4945595Y-23303452D01*
X5126548Y-23293928D02*
X5136071Y-23303452D01*
X5126548Y-23312976D01*
X5117024Y-23303452D01*
X5126548Y-23293928D01*
X5126548Y-23312976D01*
X5126548Y-23189167D02*
X5136071Y-23198690D01*
X5126548Y-23208214D01*
X5117024Y-23198690D01*
X5126548Y-23189167D01*
X5126548Y-23208214D01*
D12*
X3457500Y-23622500D02*
X3497500Y-23662500D01*
X3497500Y-23622500D02*
X3457500Y-23662500D01*
D11*
X3793214Y-23532976D02*
X3812262Y-23532976D01*
X3831309Y-23542500D01*
X3840833Y-23552024D01*
X3850357Y-23571071D01*
X3859881Y-23609167D01*
X3859881Y-23656786D01*
X3850357Y-23694881D01*
X3840833Y-23713928D01*
X3831309Y-23723452D01*
X3812262Y-23732976D01*
X3793214Y-23732976D01*
X3774167Y-23723452D01*
X3764643Y-23713928D01*
X3755119Y-23694881D01*
X3745595Y-23656786D01*
X3745595Y-23609167D01*
X3755119Y-23571071D01*
X3764643Y-23552024D01*
X3774167Y-23542500D01*
X3793214Y-23532976D01*
X3945595Y-23713928D02*
X3955119Y-23723452D01*
X3945595Y-23732976D01*
X3936071Y-23723452D01*
X3945595Y-23713928D01*
X3945595Y-23732976D01*
X4126548Y-23599643D02*
X4126548Y-23732976D01*
X4078928Y-23523452D02*
X4031309Y-23666309D01*
X4155119Y-23666309D01*
X4269405Y-23532976D02*
X4288452Y-23532976D01*
X4307500Y-23542500D01*
X4317024Y-23552024D01*
X4326548Y-23571071D01*
X4336071Y-23609167D01*
X4336071Y-23656786D01*
X4326548Y-23694881D01*
X4317024Y-23713928D01*
X4307500Y-23723452D01*
X4288452Y-23732976D01*
X4269405Y-23732976D01*
X4250357Y-23723452D01*
X4240833Y-23713928D01*
X4231310Y-23694881D01*
X4221786Y-23656786D01*
X4221786Y-23609167D01*
X4231310Y-23571071D01*
X4240833Y-23552024D01*
X4250357Y-23542500D01*
X4269405Y-23532976D01*
X4459881Y-23532976D02*
X4478929Y-23532976D01*
X4497976Y-23542500D01*
X4507500Y-23552024D01*
X4517024Y-23571071D01*
X4526548Y-23609167D01*
X4526548Y-23656786D01*
X4517024Y-23694881D01*
X4507500Y-23713928D01*
X4497976Y-23723452D01*
X4478929Y-23732976D01*
X4459881Y-23732976D01*
X4440833Y-23723452D01*
X4431310Y-23713928D01*
X4421786Y-23694881D01*
X4412262Y-23656786D01*
X4412262Y-23609167D01*
X4421786Y-23571071D01*
X4431310Y-23552024D01*
X4440833Y-23542500D01*
X4459881Y-23532976D01*
X4612262Y-23732976D02*
X4612262Y-23599643D01*
X4612262Y-23618690D02*
X4621786Y-23609167D01*
X4640833Y-23599643D01*
X4669405Y-23599643D01*
X4688452Y-23609167D01*
X4697976Y-23628214D01*
X4697976Y-23732976D01*
X4697976Y-23628214D02*
X4707500Y-23609167D01*
X4726548Y-23599643D01*
X4755119Y-23599643D01*
X4774167Y-23609167D01*
X4783690Y-23628214D01*
X4783690Y-23732976D01*
X4878929Y-23732976D02*
X4878929Y-23599643D01*
X4878929Y-23618690D02*
X4888452Y-23609167D01*
X4907500Y-23599643D01*
X4936071Y-23599643D01*
X4955119Y-23609167D01*
X4964643Y-23628214D01*
X4964643Y-23732976D01*
X4964643Y-23628214D02*
X4974167Y-23609167D01*
X4993214Y-23599643D01*
X5021786Y-23599643D01*
X5040833Y-23609167D01*
X5050357Y-23628214D01*
X5050357Y-23732976D01*
X5440833Y-23523452D02*
X5269405Y-23780595D01*
X5697976Y-23532976D02*
X5717024Y-23532976D01*
X5736071Y-23542500D01*
X5745595Y-23552024D01*
X5755119Y-23571071D01*
X5764643Y-23609167D01*
X5764643Y-23656786D01*
X5755119Y-23694881D01*
X5745595Y-23713928D01*
X5736071Y-23723452D01*
X5717024Y-23732976D01*
X5697976Y-23732976D01*
X5678928Y-23723452D01*
X5669405Y-23713928D01*
X5659881Y-23694881D01*
X5650357Y-23656786D01*
X5650357Y-23609167D01*
X5659881Y-23571071D01*
X5669405Y-23552024D01*
X5678928Y-23542500D01*
X5697976Y-23532976D01*
X5850357Y-23713928D02*
X5859881Y-23723452D01*
X5850357Y-23732976D01*
X5840833Y-23723452D01*
X5850357Y-23713928D01*
X5850357Y-23732976D01*
X5983690Y-23532976D02*
X6002738Y-23532976D01*
X6021786Y-23542500D01*
X6031309Y-23552024D01*
X6040833Y-23571071D01*
X6050357Y-23609167D01*
X6050357Y-23656786D01*
X6040833Y-23694881D01*
X6031309Y-23713928D01*
X6021786Y-23723452D01*
X6002738Y-23732976D01*
X5983690Y-23732976D01*
X5964643Y-23723452D01*
X5955119Y-23713928D01*
X5945595Y-23694881D01*
X5936071Y-23656786D01*
X5936071Y-23609167D01*
X5945595Y-23571071D01*
X5955119Y-23552024D01*
X5964643Y-23542500D01*
X5983690Y-23532976D01*
X6240833Y-23732976D02*
X6126548Y-23732976D01*
X6183690Y-23732976D02*
X6183690Y-23532976D01*
X6164643Y-23561548D01*
X6145595Y-23580595D01*
X6126548Y-23590119D01*
X6421786Y-23532976D02*
X6326548Y-23532976D01*
X6317024Y-23628214D01*
X6326548Y-23618690D01*
X6345595Y-23609167D01*
X6393214Y-23609167D01*
X6412262Y-23618690D01*
X6421786Y-23628214D01*
X6431309Y-23647262D01*
X6431309Y-23694881D01*
X6421786Y-23713928D01*
X6412262Y-23723452D01*
X6393214Y-23732976D01*
X6345595Y-23732976D01*
X6326548Y-23723452D01*
X6317024Y-23713928D01*
X6497976Y-23532976D02*
X6631309Y-23532976D01*
X6545595Y-23732976D01*
X6697976Y-23532976D02*
X6697976Y-23571071D01*
X6774167Y-23532976D02*
X6774167Y-23571071D01*
X7069405Y-23809167D02*
X7059881Y-23799643D01*
X7040833Y-23771071D01*
X7031309Y-23752024D01*
X7021786Y-23723452D01*
X7012262Y-23675833D01*
X7012262Y-23637738D01*
X7021786Y-23590119D01*
X7031309Y-23561548D01*
X7040833Y-23542500D01*
X7059881Y-23513928D01*
X7069405Y-23504405D01*
X7240833Y-23532976D02*
X7145595Y-23532976D01*
X7136071Y-23628214D01*
X7145595Y-23618690D01*
X7164643Y-23609167D01*
X7212262Y-23609167D01*
X7231309Y-23618690D01*
X7240833Y-23628214D01*
X7250357Y-23647262D01*
X7250357Y-23694881D01*
X7240833Y-23713928D01*
X7231309Y-23723452D01*
X7212262Y-23732976D01*
X7164643Y-23732976D01*
X7145595Y-23723452D01*
X7136071Y-23713928D01*
X7345595Y-23732976D02*
X7383690Y-23732976D01*
X7402738Y-23723452D01*
X7412262Y-23713928D01*
X7431309Y-23685357D01*
X7440833Y-23647262D01*
X7440833Y-23571071D01*
X7431309Y-23552024D01*
X7421786Y-23542500D01*
X7402738Y-23532976D01*
X7364643Y-23532976D01*
X7345595Y-23542500D01*
X7336071Y-23552024D01*
X7326548Y-23571071D01*
X7326548Y-23618690D01*
X7336071Y-23637738D01*
X7345595Y-23647262D01*
X7364643Y-23656786D01*
X7402738Y-23656786D01*
X7421786Y-23647262D01*
X7431309Y-23637738D01*
X7440833Y-23618690D01*
X7678928Y-23732976D02*
X7678928Y-23532976D01*
X7764643Y-23732976D02*
X7764643Y-23628214D01*
X7755119Y-23609167D01*
X7736071Y-23599643D01*
X7707500Y-23599643D01*
X7688452Y-23609167D01*
X7678928Y-23618690D01*
X7888452Y-23732976D02*
X7869405Y-23723452D01*
X7859881Y-23713928D01*
X7850357Y-23694881D01*
X7850357Y-23637738D01*
X7859881Y-23618690D01*
X7869405Y-23609167D01*
X7888452Y-23599643D01*
X7917024Y-23599643D01*
X7936071Y-23609167D01*
X7945595Y-23618690D01*
X7955119Y-23637738D01*
X7955119Y-23694881D01*
X7945595Y-23713928D01*
X7936071Y-23723452D01*
X7917024Y-23732976D01*
X7888452Y-23732976D01*
X8069405Y-23732976D02*
X8050357Y-23723452D01*
X8040833Y-23704405D01*
X8040833Y-23532976D01*
X8221786Y-23723452D02*
X8202738Y-23732976D01*
X8164643Y-23732976D01*
X8145595Y-23723452D01*
X8136071Y-23704405D01*
X8136071Y-23628214D01*
X8145595Y-23609167D01*
X8164643Y-23599643D01*
X8202738Y-23599643D01*
X8221786Y-23609167D01*
X8231309Y-23628214D01*
X8231309Y-23647262D01*
X8136071Y-23666309D01*
X8307500Y-23723452D02*
X8326548Y-23732976D01*
X8364643Y-23732976D01*
X8383690Y-23723452D01*
X8393214Y-23704405D01*
X8393214Y-23694881D01*
X8383690Y-23675833D01*
X8364643Y-23666309D01*
X8336071Y-23666309D01*
X8317024Y-23656786D01*
X8307500Y-23637738D01*
X8307500Y-23628214D01*
X8317024Y-23609167D01*
X8336071Y-23599643D01*
X8364643Y-23599643D01*
X8383690Y-23609167D01*
X8459881Y-23809167D02*
X8469405Y-23799643D01*
X8488452Y-23771071D01*
X8497976Y-23752024D01*
X8507500Y-23723452D01*
X8517024Y-23675833D01*
X8517024Y-23637738D01*
X8507500Y-23590119D01*
X8497976Y-23561548D01*
X8488452Y-23542500D01*
X8469405Y-23513928D01*
X8459881Y-23504405D01*
D13*
X3497500Y-23906500D02*
G75*
G03*
X3497500Y-23906500I-40000J0D01*
G01*
D11*
X3793214Y-23796976D02*
X3812262Y-23796976D01*
X3831309Y-23806500D01*
X3840833Y-23816024D01*
X3850357Y-23835071D01*
X3859881Y-23873167D01*
X3859881Y-23920786D01*
X3850357Y-23958881D01*
X3840833Y-23977928D01*
X3831309Y-23987452D01*
X3812262Y-23996976D01*
X3793214Y-23996976D01*
X3774167Y-23987452D01*
X3764643Y-23977928D01*
X3755119Y-23958881D01*
X3745595Y-23920786D01*
X3745595Y-23873167D01*
X3755119Y-23835071D01*
X3764643Y-23816024D01*
X3774167Y-23806500D01*
X3793214Y-23796976D01*
X3945595Y-23977928D02*
X3955119Y-23987452D01*
X3945595Y-23996976D01*
X3936071Y-23987452D01*
X3945595Y-23977928D01*
X3945595Y-23996976D01*
X4069405Y-23882690D02*
X4050357Y-23873167D01*
X4040833Y-23863643D01*
X4031309Y-23844595D01*
X4031309Y-23835071D01*
X4040833Y-23816024D01*
X4050357Y-23806500D01*
X4069405Y-23796976D01*
X4107500Y-23796976D01*
X4126548Y-23806500D01*
X4136071Y-23816024D01*
X4145595Y-23835071D01*
X4145595Y-23844595D01*
X4136071Y-23863643D01*
X4126548Y-23873167D01*
X4107500Y-23882690D01*
X4069405Y-23882690D01*
X4050357Y-23892214D01*
X4040833Y-23901738D01*
X4031309Y-23920786D01*
X4031309Y-23958881D01*
X4040833Y-23977928D01*
X4050357Y-23987452D01*
X4069405Y-23996976D01*
X4107500Y-23996976D01*
X4126548Y-23987452D01*
X4136071Y-23977928D01*
X4145595Y-23958881D01*
X4145595Y-23920786D01*
X4136071Y-23901738D01*
X4126548Y-23892214D01*
X4107500Y-23882690D01*
X4269405Y-23796976D02*
X4288452Y-23796976D01*
X4307500Y-23806500D01*
X4317024Y-23816024D01*
X4326548Y-23835071D01*
X4336071Y-23873167D01*
X4336071Y-23920786D01*
X4326548Y-23958881D01*
X4317024Y-23977928D01*
X4307500Y-23987452D01*
X4288452Y-23996976D01*
X4269405Y-23996976D01*
X4250357Y-23987452D01*
X4240833Y-23977928D01*
X4231310Y-23958881D01*
X4221786Y-23920786D01*
X4221786Y-23873167D01*
X4231310Y-23835071D01*
X4240833Y-23816024D01*
X4250357Y-23806500D01*
X4269405Y-23796976D01*
X4459881Y-23796976D02*
X4478929Y-23796976D01*
X4497976Y-23806500D01*
X4507500Y-23816024D01*
X4517024Y-23835071D01*
X4526548Y-23873167D01*
X4526548Y-23920786D01*
X4517024Y-23958881D01*
X4507500Y-23977928D01*
X4497976Y-23987452D01*
X4478929Y-23996976D01*
X4459881Y-23996976D01*
X4440833Y-23987452D01*
X4431310Y-23977928D01*
X4421786Y-23958881D01*
X4412262Y-23920786D01*
X4412262Y-23873167D01*
X4421786Y-23835071D01*
X4431310Y-23816024D01*
X4440833Y-23806500D01*
X4459881Y-23796976D01*
X4612262Y-23996976D02*
X4612262Y-23863643D01*
X4612262Y-23882690D02*
X4621786Y-23873167D01*
X4640833Y-23863643D01*
X4669405Y-23863643D01*
X4688452Y-23873167D01*
X4697976Y-23892214D01*
X4697976Y-23996976D01*
X4697976Y-23892214D02*
X4707500Y-23873167D01*
X4726548Y-23863643D01*
X4755119Y-23863643D01*
X4774167Y-23873167D01*
X4783690Y-23892214D01*
X4783690Y-23996976D01*
X4878929Y-23996976D02*
X4878929Y-23863643D01*
X4878929Y-23882690D02*
X4888452Y-23873167D01*
X4907500Y-23863643D01*
X4936071Y-23863643D01*
X4955119Y-23873167D01*
X4964643Y-23892214D01*
X4964643Y-23996976D01*
X4964643Y-23892214D02*
X4974167Y-23873167D01*
X4993214Y-23863643D01*
X5021786Y-23863643D01*
X5040833Y-23873167D01*
X5050357Y-23892214D01*
X5050357Y-23996976D01*
X5440833Y-23787452D02*
X5269405Y-24044595D01*
X5697976Y-23796976D02*
X5717024Y-23796976D01*
X5736071Y-23806500D01*
X5745595Y-23816024D01*
X5755119Y-23835071D01*
X5764643Y-23873167D01*
X5764643Y-23920786D01*
X5755119Y-23958881D01*
X5745595Y-23977928D01*
X5736071Y-23987452D01*
X5717024Y-23996976D01*
X5697976Y-23996976D01*
X5678928Y-23987452D01*
X5669405Y-23977928D01*
X5659881Y-23958881D01*
X5650357Y-23920786D01*
X5650357Y-23873167D01*
X5659881Y-23835071D01*
X5669405Y-23816024D01*
X5678928Y-23806500D01*
X5697976Y-23796976D01*
X5850357Y-23977928D02*
X5859881Y-23987452D01*
X5850357Y-23996976D01*
X5840833Y-23987452D01*
X5850357Y-23977928D01*
X5850357Y-23996976D01*
X5983690Y-23796976D02*
X6002738Y-23796976D01*
X6021786Y-23806500D01*
X6031309Y-23816024D01*
X6040833Y-23835071D01*
X6050357Y-23873167D01*
X6050357Y-23920786D01*
X6040833Y-23958881D01*
X6031309Y-23977928D01*
X6021786Y-23987452D01*
X6002738Y-23996976D01*
X5983690Y-23996976D01*
X5964643Y-23987452D01*
X5955119Y-23977928D01*
X5945595Y-23958881D01*
X5936071Y-23920786D01*
X5936071Y-23873167D01*
X5945595Y-23835071D01*
X5955119Y-23816024D01*
X5964643Y-23806500D01*
X5983690Y-23796976D01*
X6117024Y-23796976D02*
X6240833Y-23796976D01*
X6174167Y-23873167D01*
X6202738Y-23873167D01*
X6221786Y-23882690D01*
X6231309Y-23892214D01*
X6240833Y-23911262D01*
X6240833Y-23958881D01*
X6231309Y-23977928D01*
X6221786Y-23987452D01*
X6202738Y-23996976D01*
X6145595Y-23996976D01*
X6126548Y-23987452D01*
X6117024Y-23977928D01*
X6431309Y-23996976D02*
X6317024Y-23996976D01*
X6374167Y-23996976D02*
X6374167Y-23796976D01*
X6355119Y-23825548D01*
X6336071Y-23844595D01*
X6317024Y-23854119D01*
X6612262Y-23796976D02*
X6517024Y-23796976D01*
X6507500Y-23892214D01*
X6517024Y-23882690D01*
X6536071Y-23873167D01*
X6583690Y-23873167D01*
X6602738Y-23882690D01*
X6612262Y-23892214D01*
X6621786Y-23911262D01*
X6621786Y-23958881D01*
X6612262Y-23977928D01*
X6602738Y-23987452D01*
X6583690Y-23996976D01*
X6536071Y-23996976D01*
X6517024Y-23987452D01*
X6507500Y-23977928D01*
X6697976Y-23796976D02*
X6697976Y-23835071D01*
X6774167Y-23796976D02*
X6774167Y-23835071D01*
X7069405Y-24073167D02*
X7059881Y-24063643D01*
X7040833Y-24035071D01*
X7031309Y-24016024D01*
X7021786Y-23987452D01*
X7012262Y-23939833D01*
X7012262Y-23901738D01*
X7021786Y-23854119D01*
X7031309Y-23825548D01*
X7040833Y-23806500D01*
X7059881Y-23777928D01*
X7069405Y-23768405D01*
X7126548Y-23796976D02*
X7250357Y-23796976D01*
X7183690Y-23873167D01*
X7212262Y-23873167D01*
X7231309Y-23882690D01*
X7240833Y-23892214D01*
X7250357Y-23911262D01*
X7250357Y-23958881D01*
X7240833Y-23977928D01*
X7231309Y-23987452D01*
X7212262Y-23996976D01*
X7155119Y-23996976D01*
X7136071Y-23987452D01*
X7126548Y-23977928D01*
X7326548Y-23816024D02*
X7336071Y-23806500D01*
X7355119Y-23796976D01*
X7402738Y-23796976D01*
X7421786Y-23806500D01*
X7431309Y-23816024D01*
X7440833Y-23835071D01*
X7440833Y-23854119D01*
X7431309Y-23882690D01*
X7317024Y-23996976D01*
X7440833Y-23996976D01*
X7612262Y-23863643D02*
X7612262Y-23996976D01*
X7564643Y-23787452D02*
X7517024Y-23930309D01*
X7640833Y-23930309D01*
X7869405Y-23996976D02*
X7869405Y-23796976D01*
X7955119Y-23996976D02*
X7955119Y-23892214D01*
X7945595Y-23873167D01*
X7926548Y-23863643D01*
X7897976Y-23863643D01*
X7878928Y-23873167D01*
X7869405Y-23882690D01*
X8078928Y-23996976D02*
X8059881Y-23987452D01*
X8050357Y-23977928D01*
X8040833Y-23958881D01*
X8040833Y-23901738D01*
X8050357Y-23882690D01*
X8059881Y-23873167D01*
X8078928Y-23863643D01*
X8107500Y-23863643D01*
X8126548Y-23873167D01*
X8136071Y-23882690D01*
X8145595Y-23901738D01*
X8145595Y-23958881D01*
X8136071Y-23977928D01*
X8126548Y-23987452D01*
X8107500Y-23996976D01*
X8078928Y-23996976D01*
X8259881Y-23996976D02*
X8240833Y-23987452D01*
X8231309Y-23968405D01*
X8231309Y-23796976D01*
X8412262Y-23987452D02*
X8393214Y-23996976D01*
X8355119Y-23996976D01*
X8336071Y-23987452D01*
X8326548Y-23968405D01*
X8326548Y-23892214D01*
X8336071Y-23873167D01*
X8355119Y-23863643D01*
X8393214Y-23863643D01*
X8412262Y-23873167D01*
X8421786Y-23892214D01*
X8421786Y-23911262D01*
X8326548Y-23930309D01*
X8497976Y-23987452D02*
X8517024Y-23996976D01*
X8555119Y-23996976D01*
X8574167Y-23987452D01*
X8583690Y-23968405D01*
X8583690Y-23958881D01*
X8574167Y-23939833D01*
X8555119Y-23930309D01*
X8526548Y-23930309D01*
X8507500Y-23920786D01*
X8497976Y-23901738D01*
X8497976Y-23892214D01*
X8507500Y-23873167D01*
X8526548Y-23863643D01*
X8555119Y-23863643D01*
X8574167Y-23873167D01*
X8650357Y-24073167D02*
X8659881Y-24063643D01*
X8678929Y-24035071D01*
X8688452Y-24016024D01*
X8697976Y-23987452D01*
X8707500Y-23939833D01*
X8707500Y-23901738D01*
X8697976Y-23854119D01*
X8688452Y-23825548D01*
X8678929Y-23806500D01*
X8659881Y-23777928D01*
X8650357Y-23768405D01*
D14*
X3452542Y-24125542D02*
X3452542Y-24215458D01*
X3407584Y-24170500D02*
X3497500Y-24170500D01*
D11*
X3793214Y-24060976D02*
X3812262Y-24060976D01*
X3831309Y-24070500D01*
X3840833Y-24080024D01*
X3850357Y-24099071D01*
X3859881Y-24137167D01*
X3859881Y-24184786D01*
X3850357Y-24222881D01*
X3840833Y-24241928D01*
X3831309Y-24251452D01*
X3812262Y-24260976D01*
X3793214Y-24260976D01*
X3774167Y-24251452D01*
X3764643Y-24241928D01*
X3755119Y-24222881D01*
X3745595Y-24184786D01*
X3745595Y-24137167D01*
X3755119Y-24099071D01*
X3764643Y-24080024D01*
X3774167Y-24070500D01*
X3793214Y-24060976D01*
X3945595Y-24241928D02*
X3955119Y-24251452D01*
X3945595Y-24260976D01*
X3936071Y-24251452D01*
X3945595Y-24241928D01*
X3945595Y-24260976D01*
X4069405Y-24146690D02*
X4050357Y-24137167D01*
X4040833Y-24127643D01*
X4031309Y-24108595D01*
X4031309Y-24099071D01*
X4040833Y-24080024D01*
X4050357Y-24070500D01*
X4069405Y-24060976D01*
X4107500Y-24060976D01*
X4126548Y-24070500D01*
X4136071Y-24080024D01*
X4145595Y-24099071D01*
X4145595Y-24108595D01*
X4136071Y-24127643D01*
X4126548Y-24137167D01*
X4107500Y-24146690D01*
X4069405Y-24146690D01*
X4050357Y-24156214D01*
X4040833Y-24165738D01*
X4031309Y-24184786D01*
X4031309Y-24222881D01*
X4040833Y-24241928D01*
X4050357Y-24251452D01*
X4069405Y-24260976D01*
X4107500Y-24260976D01*
X4126548Y-24251452D01*
X4136071Y-24241928D01*
X4145595Y-24222881D01*
X4145595Y-24184786D01*
X4136071Y-24165738D01*
X4126548Y-24156214D01*
X4107500Y-24146690D01*
X4240833Y-24260976D02*
X4278929Y-24260976D01*
X4297976Y-24251452D01*
X4307500Y-24241928D01*
X4326548Y-24213357D01*
X4336071Y-24175262D01*
X4336071Y-24099071D01*
X4326548Y-24080024D01*
X4317024Y-24070500D01*
X4297976Y-24060976D01*
X4259881Y-24060976D01*
X4240833Y-24070500D01*
X4231310Y-24080024D01*
X4221786Y-24099071D01*
X4221786Y-24146690D01*
X4231310Y-24165738D01*
X4240833Y-24175262D01*
X4259881Y-24184786D01*
X4297976Y-24184786D01*
X4317024Y-24175262D01*
X4326548Y-24165738D01*
X4336071Y-24146690D01*
X4431310Y-24260976D02*
X4469405Y-24260976D01*
X4488452Y-24251452D01*
X4497976Y-24241928D01*
X4517024Y-24213357D01*
X4526548Y-24175262D01*
X4526548Y-24099071D01*
X4517024Y-24080024D01*
X4507500Y-24070500D01*
X4488452Y-24060976D01*
X4450357Y-24060976D01*
X4431310Y-24070500D01*
X4421786Y-24080024D01*
X4412262Y-24099071D01*
X4412262Y-24146690D01*
X4421786Y-24165738D01*
X4431310Y-24175262D01*
X4450357Y-24184786D01*
X4488452Y-24184786D01*
X4507500Y-24175262D01*
X4517024Y-24165738D01*
X4526548Y-24146690D01*
X4612262Y-24260976D02*
X4612262Y-24127643D01*
X4612262Y-24146690D02*
X4621786Y-24137167D01*
X4640833Y-24127643D01*
X4669405Y-24127643D01*
X4688452Y-24137167D01*
X4697976Y-24156214D01*
X4697976Y-24260976D01*
X4697976Y-24156214D02*
X4707500Y-24137167D01*
X4726548Y-24127643D01*
X4755119Y-24127643D01*
X4774167Y-24137167D01*
X4783690Y-24156214D01*
X4783690Y-24260976D01*
X4878929Y-24260976D02*
X4878929Y-24127643D01*
X4878929Y-24146690D02*
X4888452Y-24137167D01*
X4907500Y-24127643D01*
X4936071Y-24127643D01*
X4955119Y-24137167D01*
X4964643Y-24156214D01*
X4964643Y-24260976D01*
X4964643Y-24156214D02*
X4974167Y-24137167D01*
X4993214Y-24127643D01*
X5021786Y-24127643D01*
X5040833Y-24137167D01*
X5050357Y-24156214D01*
X5050357Y-24260976D01*
X5440833Y-24051452D02*
X5269405Y-24308595D01*
X5697976Y-24060976D02*
X5717024Y-24060976D01*
X5736071Y-24070500D01*
X5745595Y-24080024D01*
X5755119Y-24099071D01*
X5764643Y-24137167D01*
X5764643Y-24184786D01*
X5755119Y-24222881D01*
X5745595Y-24241928D01*
X5736071Y-24251452D01*
X5717024Y-24260976D01*
X5697976Y-24260976D01*
X5678928Y-24251452D01*
X5669405Y-24241928D01*
X5659881Y-24222881D01*
X5650357Y-24184786D01*
X5650357Y-24137167D01*
X5659881Y-24099071D01*
X5669405Y-24080024D01*
X5678928Y-24070500D01*
X5697976Y-24060976D01*
X5850357Y-24241928D02*
X5859881Y-24251452D01*
X5850357Y-24260976D01*
X5840833Y-24251452D01*
X5850357Y-24241928D01*
X5850357Y-24260976D01*
X5983690Y-24060976D02*
X6002738Y-24060976D01*
X6021786Y-24070500D01*
X6031309Y-24080024D01*
X6040833Y-24099071D01*
X6050357Y-24137167D01*
X6050357Y-24184786D01*
X6040833Y-24222881D01*
X6031309Y-24241928D01*
X6021786Y-24251452D01*
X6002738Y-24260976D01*
X5983690Y-24260976D01*
X5964643Y-24251452D01*
X5955119Y-24241928D01*
X5945595Y-24222881D01*
X5936071Y-24184786D01*
X5936071Y-24137167D01*
X5945595Y-24099071D01*
X5955119Y-24080024D01*
X5964643Y-24070500D01*
X5983690Y-24060976D01*
X6117024Y-24060976D02*
X6240833Y-24060976D01*
X6174167Y-24137167D01*
X6202738Y-24137167D01*
X6221786Y-24146690D01*
X6231309Y-24156214D01*
X6240833Y-24175262D01*
X6240833Y-24222881D01*
X6231309Y-24241928D01*
X6221786Y-24251452D01*
X6202738Y-24260976D01*
X6145595Y-24260976D01*
X6126548Y-24251452D01*
X6117024Y-24241928D01*
X6421786Y-24060976D02*
X6326548Y-24060976D01*
X6317024Y-24156214D01*
X6326548Y-24146690D01*
X6345595Y-24137167D01*
X6393214Y-24137167D01*
X6412262Y-24146690D01*
X6421786Y-24156214D01*
X6431309Y-24175262D01*
X6431309Y-24222881D01*
X6421786Y-24241928D01*
X6412262Y-24251452D01*
X6393214Y-24260976D01*
X6345595Y-24260976D01*
X6326548Y-24251452D01*
X6317024Y-24241928D01*
X6602738Y-24127643D02*
X6602738Y-24260976D01*
X6555119Y-24051452D02*
X6507500Y-24194309D01*
X6631309Y-24194309D01*
X6697976Y-24060976D02*
X6697976Y-24099071D01*
X6774167Y-24060976D02*
X6774167Y-24099071D01*
X7069405Y-24337167D02*
X7059881Y-24327643D01*
X7040833Y-24299071D01*
X7031309Y-24280024D01*
X7021786Y-24251452D01*
X7012262Y-24203833D01*
X7012262Y-24165738D01*
X7021786Y-24118119D01*
X7031309Y-24089548D01*
X7040833Y-24070500D01*
X7059881Y-24041928D01*
X7069405Y-24032405D01*
X7250357Y-24260976D02*
X7136071Y-24260976D01*
X7193214Y-24260976D02*
X7193214Y-24060976D01*
X7174167Y-24089548D01*
X7155119Y-24108595D01*
X7136071Y-24118119D01*
X7326548Y-24080024D02*
X7336071Y-24070500D01*
X7355119Y-24060976D01*
X7402738Y-24060976D01*
X7421786Y-24070500D01*
X7431309Y-24080024D01*
X7440833Y-24099071D01*
X7440833Y-24118119D01*
X7431309Y-24146690D01*
X7317024Y-24260976D01*
X7440833Y-24260976D01*
X7678928Y-24260976D02*
X7678928Y-24060976D01*
X7764643Y-24260976D02*
X7764643Y-24156214D01*
X7755119Y-24137167D01*
X7736071Y-24127643D01*
X7707500Y-24127643D01*
X7688452Y-24137167D01*
X7678928Y-24146690D01*
X7888452Y-24260976D02*
X7869405Y-24251452D01*
X7859881Y-24241928D01*
X7850357Y-24222881D01*
X7850357Y-24165738D01*
X7859881Y-24146690D01*
X7869405Y-24137167D01*
X7888452Y-24127643D01*
X7917024Y-24127643D01*
X7936071Y-24137167D01*
X7945595Y-24146690D01*
X7955119Y-24165738D01*
X7955119Y-24222881D01*
X7945595Y-24241928D01*
X7936071Y-24251452D01*
X7917024Y-24260976D01*
X7888452Y-24260976D01*
X8069405Y-24260976D02*
X8050357Y-24251452D01*
X8040833Y-24232405D01*
X8040833Y-24060976D01*
X8221786Y-24251452D02*
X8202738Y-24260976D01*
X8164643Y-24260976D01*
X8145595Y-24251452D01*
X8136071Y-24232405D01*
X8136071Y-24156214D01*
X8145595Y-24137167D01*
X8164643Y-24127643D01*
X8202738Y-24127643D01*
X8221786Y-24137167D01*
X8231309Y-24156214D01*
X8231309Y-24175262D01*
X8136071Y-24194309D01*
X8307500Y-24251452D02*
X8326548Y-24260976D01*
X8364643Y-24260976D01*
X8383690Y-24251452D01*
X8393214Y-24232405D01*
X8393214Y-24222881D01*
X8383690Y-24203833D01*
X8364643Y-24194309D01*
X8336071Y-24194309D01*
X8317024Y-24184786D01*
X8307500Y-24165738D01*
X8307500Y-24156214D01*
X8317024Y-24137167D01*
X8336071Y-24127643D01*
X8364643Y-24127643D01*
X8383690Y-24137167D01*
X8459881Y-24337167D02*
X8469405Y-24327643D01*
X8488452Y-24299071D01*
X8497976Y-24280024D01*
X8507500Y-24251452D01*
X8517024Y-24203833D01*
X8517024Y-24165738D01*
X8507500Y-24118119D01*
X8497976Y-24089548D01*
X8488452Y-24070500D01*
X8469405Y-24041928D01*
X8459881Y-24032405D01*
D15*
X3484320Y-24466320D02*
X3484320Y-24402680D01*
X3420680Y-24402680D01*
X3420680Y-24466320D01*
X3484320Y-24466320D01*
D11*
X3793214Y-24324976D02*
X3812262Y-24324976D01*
X3831309Y-24334500D01*
X3840833Y-24344024D01*
X3850357Y-24363071D01*
X3859881Y-24401167D01*
X3859881Y-24448786D01*
X3850357Y-24486881D01*
X3840833Y-24505928D01*
X3831309Y-24515452D01*
X3812262Y-24524976D01*
X3793214Y-24524976D01*
X3774167Y-24515452D01*
X3764643Y-24505928D01*
X3755119Y-24486881D01*
X3745595Y-24448786D01*
X3745595Y-24401167D01*
X3755119Y-24363071D01*
X3764643Y-24344024D01*
X3774167Y-24334500D01*
X3793214Y-24324976D01*
X3945595Y-24505928D02*
X3955119Y-24515452D01*
X3945595Y-24524976D01*
X3936071Y-24515452D01*
X3945595Y-24505928D01*
X3945595Y-24524976D01*
X4050357Y-24524976D02*
X4088452Y-24524976D01*
X4107500Y-24515452D01*
X4117024Y-24505928D01*
X4136071Y-24477357D01*
X4145595Y-24439262D01*
X4145595Y-24363071D01*
X4136071Y-24344024D01*
X4126548Y-24334500D01*
X4107500Y-24324976D01*
X4069405Y-24324976D01*
X4050357Y-24334500D01*
X4040833Y-24344024D01*
X4031309Y-24363071D01*
X4031309Y-24410690D01*
X4040833Y-24429738D01*
X4050357Y-24439262D01*
X4069405Y-24448786D01*
X4107500Y-24448786D01*
X4126548Y-24439262D01*
X4136071Y-24429738D01*
X4145595Y-24410690D01*
X4269405Y-24324976D02*
X4288452Y-24324976D01*
X4307500Y-24334500D01*
X4317024Y-24344024D01*
X4326548Y-24363071D01*
X4336071Y-24401167D01*
X4336071Y-24448786D01*
X4326548Y-24486881D01*
X4317024Y-24505928D01*
X4307500Y-24515452D01*
X4288452Y-24524976D01*
X4269405Y-24524976D01*
X4250357Y-24515452D01*
X4240833Y-24505928D01*
X4231310Y-24486881D01*
X4221786Y-24448786D01*
X4221786Y-24401167D01*
X4231310Y-24363071D01*
X4240833Y-24344024D01*
X4250357Y-24334500D01*
X4269405Y-24324976D01*
X4459881Y-24324976D02*
X4478929Y-24324976D01*
X4497976Y-24334500D01*
X4507500Y-24344024D01*
X4517024Y-24363071D01*
X4526548Y-24401167D01*
X4526548Y-24448786D01*
X4517024Y-24486881D01*
X4507500Y-24505928D01*
X4497976Y-24515452D01*
X4478929Y-24524976D01*
X4459881Y-24524976D01*
X4440833Y-24515452D01*
X4431310Y-24505928D01*
X4421786Y-24486881D01*
X4412262Y-24448786D01*
X4412262Y-24401167D01*
X4421786Y-24363071D01*
X4431310Y-24344024D01*
X4440833Y-24334500D01*
X4459881Y-24324976D01*
X4612262Y-24524976D02*
X4612262Y-24391643D01*
X4612262Y-24410690D02*
X4621786Y-24401167D01*
X4640833Y-24391643D01*
X4669405Y-24391643D01*
X4688452Y-24401167D01*
X4697976Y-24420214D01*
X4697976Y-24524976D01*
X4697976Y-24420214D02*
X4707500Y-24401167D01*
X4726548Y-24391643D01*
X4755119Y-24391643D01*
X4774167Y-24401167D01*
X4783690Y-24420214D01*
X4783690Y-24524976D01*
X4878929Y-24524976D02*
X4878929Y-24391643D01*
X4878929Y-24410690D02*
X4888452Y-24401167D01*
X4907500Y-24391643D01*
X4936071Y-24391643D01*
X4955119Y-24401167D01*
X4964643Y-24420214D01*
X4964643Y-24524976D01*
X4964643Y-24420214D02*
X4974167Y-24401167D01*
X4993214Y-24391643D01*
X5021786Y-24391643D01*
X5040833Y-24401167D01*
X5050357Y-24420214D01*
X5050357Y-24524976D01*
X5440833Y-24315452D02*
X5269405Y-24572595D01*
X5697976Y-24324976D02*
X5717024Y-24324976D01*
X5736071Y-24334500D01*
X5745595Y-24344024D01*
X5755119Y-24363071D01*
X5764643Y-24401167D01*
X5764643Y-24448786D01*
X5755119Y-24486881D01*
X5745595Y-24505928D01*
X5736071Y-24515452D01*
X5717024Y-24524976D01*
X5697976Y-24524976D01*
X5678928Y-24515452D01*
X5669405Y-24505928D01*
X5659881Y-24486881D01*
X5650357Y-24448786D01*
X5650357Y-24401167D01*
X5659881Y-24363071D01*
X5669405Y-24344024D01*
X5678928Y-24334500D01*
X5697976Y-24324976D01*
X5850357Y-24505928D02*
X5859881Y-24515452D01*
X5850357Y-24524976D01*
X5840833Y-24515452D01*
X5850357Y-24505928D01*
X5850357Y-24524976D01*
X5983690Y-24324976D02*
X6002738Y-24324976D01*
X6021786Y-24334500D01*
X6031309Y-24344024D01*
X6040833Y-24363071D01*
X6050357Y-24401167D01*
X6050357Y-24448786D01*
X6040833Y-24486881D01*
X6031309Y-24505928D01*
X6021786Y-24515452D01*
X6002738Y-24524976D01*
X5983690Y-24524976D01*
X5964643Y-24515452D01*
X5955119Y-24505928D01*
X5945595Y-24486881D01*
X5936071Y-24448786D01*
X5936071Y-24401167D01*
X5945595Y-24363071D01*
X5955119Y-24344024D01*
X5964643Y-24334500D01*
X5983690Y-24324976D01*
X6117024Y-24324976D02*
X6240833Y-24324976D01*
X6174167Y-24401167D01*
X6202738Y-24401167D01*
X6221786Y-24410690D01*
X6231309Y-24420214D01*
X6240833Y-24439262D01*
X6240833Y-24486881D01*
X6231309Y-24505928D01*
X6221786Y-24515452D01*
X6202738Y-24524976D01*
X6145595Y-24524976D01*
X6126548Y-24515452D01*
X6117024Y-24505928D01*
X6421786Y-24324976D02*
X6326548Y-24324976D01*
X6317024Y-24420214D01*
X6326548Y-24410690D01*
X6345595Y-24401167D01*
X6393214Y-24401167D01*
X6412262Y-24410690D01*
X6421786Y-24420214D01*
X6431309Y-24439262D01*
X6431309Y-24486881D01*
X6421786Y-24505928D01*
X6412262Y-24515452D01*
X6393214Y-24524976D01*
X6345595Y-24524976D01*
X6326548Y-24515452D01*
X6317024Y-24505928D01*
X6602738Y-24391643D02*
X6602738Y-24524976D01*
X6555119Y-24315452D02*
X6507500Y-24458309D01*
X6631309Y-24458309D01*
X6697976Y-24324976D02*
X6697976Y-24363071D01*
X6774167Y-24324976D02*
X6774167Y-24363071D01*
X7069405Y-24601167D02*
X7059881Y-24591643D01*
X7040833Y-24563071D01*
X7031309Y-24544024D01*
X7021786Y-24515452D01*
X7012262Y-24467833D01*
X7012262Y-24429738D01*
X7021786Y-24382119D01*
X7031309Y-24353548D01*
X7040833Y-24334500D01*
X7059881Y-24305928D01*
X7069405Y-24296405D01*
X7136071Y-24344024D02*
X7145595Y-24334500D01*
X7164643Y-24324976D01*
X7212262Y-24324976D01*
X7231309Y-24334500D01*
X7240833Y-24344024D01*
X7250357Y-24363071D01*
X7250357Y-24382119D01*
X7240833Y-24410690D01*
X7126548Y-24524976D01*
X7250357Y-24524976D01*
X7488452Y-24524976D02*
X7488452Y-24324976D01*
X7574167Y-24524976D02*
X7574167Y-24420214D01*
X7564643Y-24401167D01*
X7545595Y-24391643D01*
X7517024Y-24391643D01*
X7497976Y-24401167D01*
X7488452Y-24410690D01*
X7697976Y-24524976D02*
X7678928Y-24515452D01*
X7669405Y-24505928D01*
X7659881Y-24486881D01*
X7659881Y-24429738D01*
X7669405Y-24410690D01*
X7678928Y-24401167D01*
X7697976Y-24391643D01*
X7726548Y-24391643D01*
X7745595Y-24401167D01*
X7755119Y-24410690D01*
X7764643Y-24429738D01*
X7764643Y-24486881D01*
X7755119Y-24505928D01*
X7745595Y-24515452D01*
X7726548Y-24524976D01*
X7697976Y-24524976D01*
X7878928Y-24524976D02*
X7859881Y-24515452D01*
X7850357Y-24496405D01*
X7850357Y-24324976D01*
X8031309Y-24515452D02*
X8012262Y-24524976D01*
X7974167Y-24524976D01*
X7955119Y-24515452D01*
X7945595Y-24496405D01*
X7945595Y-24420214D01*
X7955119Y-24401167D01*
X7974167Y-24391643D01*
X8012262Y-24391643D01*
X8031309Y-24401167D01*
X8040833Y-24420214D01*
X8040833Y-24439262D01*
X7945595Y-24458309D01*
X8117024Y-24515452D02*
X8136071Y-24524976D01*
X8174167Y-24524976D01*
X8193214Y-24515452D01*
X8202738Y-24496405D01*
X8202738Y-24486881D01*
X8193214Y-24467833D01*
X8174167Y-24458309D01*
X8145595Y-24458309D01*
X8126548Y-24448786D01*
X8117024Y-24429738D01*
X8117024Y-24420214D01*
X8126548Y-24401167D01*
X8145595Y-24391643D01*
X8174167Y-24391643D01*
X8193214Y-24401167D01*
X8269405Y-24601167D02*
X8278928Y-24591643D01*
X8297976Y-24563071D01*
X8307500Y-24544024D01*
X8317024Y-24515452D01*
X8326548Y-24467833D01*
X8326548Y-24429738D01*
X8317024Y-24382119D01*
X8307500Y-24353548D01*
X8297976Y-24334500D01*
X8278928Y-24305928D01*
X8269405Y-24296405D01*
D16*
X3447500Y-24748500D02*
X3497500Y-24698500D01*
X3447500Y-24648500D01*
X3397500Y-24698500D01*
X3447500Y-24748500D01*
D11*
X3859881Y-24788976D02*
X3745595Y-24788976D01*
X3802738Y-24788976D02*
X3802738Y-24588976D01*
X3783690Y-24617548D01*
X3764643Y-24636595D01*
X3745595Y-24646119D01*
X3945595Y-24769928D02*
X3955119Y-24779452D01*
X3945595Y-24788976D01*
X3936071Y-24779452D01*
X3945595Y-24769928D01*
X3945595Y-24788976D01*
X4078928Y-24588976D02*
X4097976Y-24588976D01*
X4117024Y-24598500D01*
X4126548Y-24608024D01*
X4136071Y-24627071D01*
X4145595Y-24665167D01*
X4145595Y-24712786D01*
X4136071Y-24750881D01*
X4126548Y-24769928D01*
X4117024Y-24779452D01*
X4097976Y-24788976D01*
X4078928Y-24788976D01*
X4059881Y-24779452D01*
X4050357Y-24769928D01*
X4040833Y-24750881D01*
X4031309Y-24712786D01*
X4031309Y-24665167D01*
X4040833Y-24627071D01*
X4050357Y-24608024D01*
X4059881Y-24598500D01*
X4078928Y-24588976D01*
X4269405Y-24588976D02*
X4288452Y-24588976D01*
X4307500Y-24598500D01*
X4317024Y-24608024D01*
X4326548Y-24627071D01*
X4336071Y-24665167D01*
X4336071Y-24712786D01*
X4326548Y-24750881D01*
X4317024Y-24769928D01*
X4307500Y-24779452D01*
X4288452Y-24788976D01*
X4269405Y-24788976D01*
X4250357Y-24779452D01*
X4240833Y-24769928D01*
X4231310Y-24750881D01*
X4221786Y-24712786D01*
X4221786Y-24665167D01*
X4231310Y-24627071D01*
X4240833Y-24608024D01*
X4250357Y-24598500D01*
X4269405Y-24588976D01*
X4459881Y-24588976D02*
X4478929Y-24588976D01*
X4497976Y-24598500D01*
X4507500Y-24608024D01*
X4517024Y-24627071D01*
X4526548Y-24665167D01*
X4526548Y-24712786D01*
X4517024Y-24750881D01*
X4507500Y-24769928D01*
X4497976Y-24779452D01*
X4478929Y-24788976D01*
X4459881Y-24788976D01*
X4440833Y-24779452D01*
X4431310Y-24769928D01*
X4421786Y-24750881D01*
X4412262Y-24712786D01*
X4412262Y-24665167D01*
X4421786Y-24627071D01*
X4431310Y-24608024D01*
X4440833Y-24598500D01*
X4459881Y-24588976D01*
X4612262Y-24788976D02*
X4612262Y-24655643D01*
X4612262Y-24674690D02*
X4621786Y-24665167D01*
X4640833Y-24655643D01*
X4669405Y-24655643D01*
X4688452Y-24665167D01*
X4697976Y-24684214D01*
X4697976Y-24788976D01*
X4697976Y-24684214D02*
X4707500Y-24665167D01*
X4726548Y-24655643D01*
X4755119Y-24655643D01*
X4774167Y-24665167D01*
X4783690Y-24684214D01*
X4783690Y-24788976D01*
X4878929Y-24788976D02*
X4878929Y-24655643D01*
X4878929Y-24674690D02*
X4888452Y-24665167D01*
X4907500Y-24655643D01*
X4936071Y-24655643D01*
X4955119Y-24665167D01*
X4964643Y-24684214D01*
X4964643Y-24788976D01*
X4964643Y-24684214D02*
X4974167Y-24665167D01*
X4993214Y-24655643D01*
X5021786Y-24655643D01*
X5040833Y-24665167D01*
X5050357Y-24684214D01*
X5050357Y-24788976D01*
X5440833Y-24579452D02*
X5269405Y-24836595D01*
X5697976Y-24588976D02*
X5717024Y-24588976D01*
X5736071Y-24598500D01*
X5745595Y-24608024D01*
X5755119Y-24627071D01*
X5764643Y-24665167D01*
X5764643Y-24712786D01*
X5755119Y-24750881D01*
X5745595Y-24769928D01*
X5736071Y-24779452D01*
X5717024Y-24788976D01*
X5697976Y-24788976D01*
X5678928Y-24779452D01*
X5669405Y-24769928D01*
X5659881Y-24750881D01*
X5650357Y-24712786D01*
X5650357Y-24665167D01*
X5659881Y-24627071D01*
X5669405Y-24608024D01*
X5678928Y-24598500D01*
X5697976Y-24588976D01*
X5850357Y-24769928D02*
X5859881Y-24779452D01*
X5850357Y-24788976D01*
X5840833Y-24779452D01*
X5850357Y-24769928D01*
X5850357Y-24788976D01*
X5983690Y-24588976D02*
X6002738Y-24588976D01*
X6021786Y-24598500D01*
X6031309Y-24608024D01*
X6040833Y-24627071D01*
X6050357Y-24665167D01*
X6050357Y-24712786D01*
X6040833Y-24750881D01*
X6031309Y-24769928D01*
X6021786Y-24779452D01*
X6002738Y-24788976D01*
X5983690Y-24788976D01*
X5964643Y-24779452D01*
X5955119Y-24769928D01*
X5945595Y-24750881D01*
X5936071Y-24712786D01*
X5936071Y-24665167D01*
X5945595Y-24627071D01*
X5955119Y-24608024D01*
X5964643Y-24598500D01*
X5983690Y-24588976D01*
X6117024Y-24588976D02*
X6240833Y-24588976D01*
X6174167Y-24665167D01*
X6202738Y-24665167D01*
X6221786Y-24674690D01*
X6231309Y-24684214D01*
X6240833Y-24703262D01*
X6240833Y-24750881D01*
X6231309Y-24769928D01*
X6221786Y-24779452D01*
X6202738Y-24788976D01*
X6145595Y-24788976D01*
X6126548Y-24779452D01*
X6117024Y-24769928D01*
X6336071Y-24788976D02*
X6374167Y-24788976D01*
X6393214Y-24779452D01*
X6402738Y-24769928D01*
X6421786Y-24741357D01*
X6431309Y-24703262D01*
X6431309Y-24627071D01*
X6421786Y-24608024D01*
X6412262Y-24598500D01*
X6393214Y-24588976D01*
X6355119Y-24588976D01*
X6336071Y-24598500D01*
X6326548Y-24608024D01*
X6317024Y-24627071D01*
X6317024Y-24674690D01*
X6326548Y-24693738D01*
X6336071Y-24703262D01*
X6355119Y-24712786D01*
X6393214Y-24712786D01*
X6412262Y-24703262D01*
X6421786Y-24693738D01*
X6431309Y-24674690D01*
X6602738Y-24655643D02*
X6602738Y-24788976D01*
X6555119Y-24579452D02*
X6507500Y-24722309D01*
X6631309Y-24722309D01*
X6697976Y-24588976D02*
X6697976Y-24627071D01*
X6774167Y-24588976D02*
X6774167Y-24627071D01*
X7069405Y-24865167D02*
X7059881Y-24855643D01*
X7040833Y-24827071D01*
X7031309Y-24808024D01*
X7021786Y-24779452D01*
X7012262Y-24731833D01*
X7012262Y-24693738D01*
X7021786Y-24646119D01*
X7031309Y-24617548D01*
X7040833Y-24598500D01*
X7059881Y-24569928D01*
X7069405Y-24560405D01*
X7136071Y-24608024D02*
X7145595Y-24598500D01*
X7164643Y-24588976D01*
X7212262Y-24588976D01*
X7231309Y-24598500D01*
X7240833Y-24608024D01*
X7250357Y-24627071D01*
X7250357Y-24646119D01*
X7240833Y-24674690D01*
X7126548Y-24788976D01*
X7250357Y-24788976D01*
X7421786Y-24588976D02*
X7383690Y-24588976D01*
X7364643Y-24598500D01*
X7355119Y-24608024D01*
X7336071Y-24636595D01*
X7326548Y-24674690D01*
X7326548Y-24750881D01*
X7336071Y-24769928D01*
X7345595Y-24779452D01*
X7364643Y-24788976D01*
X7402738Y-24788976D01*
X7421786Y-24779452D01*
X7431309Y-24769928D01*
X7440833Y-24750881D01*
X7440833Y-24703262D01*
X7431309Y-24684214D01*
X7421786Y-24674690D01*
X7402738Y-24665167D01*
X7364643Y-24665167D01*
X7345595Y-24674690D01*
X7336071Y-24684214D01*
X7326548Y-24703262D01*
X7536071Y-24788976D02*
X7574167Y-24788976D01*
X7593214Y-24779452D01*
X7602738Y-24769928D01*
X7621786Y-24741357D01*
X7631309Y-24703262D01*
X7631309Y-24627071D01*
X7621786Y-24608024D01*
X7612262Y-24598500D01*
X7593214Y-24588976D01*
X7555119Y-24588976D01*
X7536071Y-24598500D01*
X7526548Y-24608024D01*
X7517024Y-24627071D01*
X7517024Y-24674690D01*
X7526548Y-24693738D01*
X7536071Y-24703262D01*
X7555119Y-24712786D01*
X7593214Y-24712786D01*
X7612262Y-24703262D01*
X7621786Y-24693738D01*
X7631309Y-24674690D01*
X7869405Y-24788976D02*
X7869405Y-24588976D01*
X7955119Y-24788976D02*
X7955119Y-24684214D01*
X7945595Y-24665167D01*
X7926548Y-24655643D01*
X7897976Y-24655643D01*
X7878928Y-24665167D01*
X7869405Y-24674690D01*
X8078928Y-24788976D02*
X8059881Y-24779452D01*
X8050357Y-24769928D01*
X8040833Y-24750881D01*
X8040833Y-24693738D01*
X8050357Y-24674690D01*
X8059881Y-24665167D01*
X8078928Y-24655643D01*
X8107500Y-24655643D01*
X8126548Y-24665167D01*
X8136071Y-24674690D01*
X8145595Y-24693738D01*
X8145595Y-24750881D01*
X8136071Y-24769928D01*
X8126548Y-24779452D01*
X8107500Y-24788976D01*
X8078928Y-24788976D01*
X8259881Y-24788976D02*
X8240833Y-24779452D01*
X8231309Y-24760405D01*
X8231309Y-24588976D01*
X8412262Y-24779452D02*
X8393214Y-24788976D01*
X8355119Y-24788976D01*
X8336071Y-24779452D01*
X8326548Y-24760405D01*
X8326548Y-24684214D01*
X8336071Y-24665167D01*
X8355119Y-24655643D01*
X8393214Y-24655643D01*
X8412262Y-24665167D01*
X8421786Y-24684214D01*
X8421786Y-24703262D01*
X8326548Y-24722309D01*
X8497976Y-24779452D02*
X8517024Y-24788976D01*
X8555119Y-24788976D01*
X8574167Y-24779452D01*
X8583690Y-24760405D01*
X8583690Y-24750881D01*
X8574167Y-24731833D01*
X8555119Y-24722309D01*
X8526548Y-24722309D01*
X8507500Y-24712786D01*
X8497976Y-24693738D01*
X8497976Y-24684214D01*
X8507500Y-24665167D01*
X8526548Y-24655643D01*
X8555119Y-24655643D01*
X8574167Y-24665167D01*
X8650357Y-24865167D02*
X8659881Y-24855643D01*
X8678929Y-24827071D01*
X8688452Y-24808024D01*
X8697976Y-24779452D01*
X8707500Y-24731833D01*
X8707500Y-24693738D01*
X8697976Y-24646119D01*
X8688452Y-24617548D01*
X8678929Y-24598500D01*
X8659881Y-24569928D01*
X8650357Y-24560405D01*
D17*
X3387500Y-24907500D02*
X3497500Y-25017500D01*
X3497500Y-24907500D02*
X3387500Y-25017500D01*
X3497500Y-24962500D02*
G75*
G03*
X3497500Y-24962500I-55000J0D01*
G01*
D11*
X3859881Y-25052976D02*
X3745595Y-25052976D01*
X3802738Y-25052976D02*
X3802738Y-24852976D01*
X3783690Y-24881548D01*
X3764643Y-24900595D01*
X3745595Y-24910119D01*
X3945595Y-25033928D02*
X3955119Y-25043452D01*
X3945595Y-25052976D01*
X3936071Y-25043452D01*
X3945595Y-25033928D01*
X3945595Y-25052976D01*
X4145595Y-25052976D02*
X4031309Y-25052976D01*
X4088452Y-25052976D02*
X4088452Y-24852976D01*
X4069405Y-24881548D01*
X4050357Y-24900595D01*
X4031309Y-24910119D01*
X4269405Y-24852976D02*
X4288452Y-24852976D01*
X4307500Y-24862500D01*
X4317024Y-24872024D01*
X4326548Y-24891071D01*
X4336071Y-24929167D01*
X4336071Y-24976786D01*
X4326548Y-25014881D01*
X4317024Y-25033928D01*
X4307500Y-25043452D01*
X4288452Y-25052976D01*
X4269405Y-25052976D01*
X4250357Y-25043452D01*
X4240833Y-25033928D01*
X4231310Y-25014881D01*
X4221786Y-24976786D01*
X4221786Y-24929167D01*
X4231310Y-24891071D01*
X4240833Y-24872024D01*
X4250357Y-24862500D01*
X4269405Y-24852976D01*
X4459881Y-24852976D02*
X4478929Y-24852976D01*
X4497976Y-24862500D01*
X4507500Y-24872024D01*
X4517024Y-24891071D01*
X4526548Y-24929167D01*
X4526548Y-24976786D01*
X4517024Y-25014881D01*
X4507500Y-25033928D01*
X4497976Y-25043452D01*
X4478929Y-25052976D01*
X4459881Y-25052976D01*
X4440833Y-25043452D01*
X4431310Y-25033928D01*
X4421786Y-25014881D01*
X4412262Y-24976786D01*
X4412262Y-24929167D01*
X4421786Y-24891071D01*
X4431310Y-24872024D01*
X4440833Y-24862500D01*
X4459881Y-24852976D01*
X4612262Y-25052976D02*
X4612262Y-24919643D01*
X4612262Y-24938690D02*
X4621786Y-24929167D01*
X4640833Y-24919643D01*
X4669405Y-24919643D01*
X4688452Y-24929167D01*
X4697976Y-24948214D01*
X4697976Y-25052976D01*
X4697976Y-24948214D02*
X4707500Y-24929167D01*
X4726548Y-24919643D01*
X4755119Y-24919643D01*
X4774167Y-24929167D01*
X4783690Y-24948214D01*
X4783690Y-25052976D01*
X4878929Y-25052976D02*
X4878929Y-24919643D01*
X4878929Y-24938690D02*
X4888452Y-24929167D01*
X4907500Y-24919643D01*
X4936071Y-24919643D01*
X4955119Y-24929167D01*
X4964643Y-24948214D01*
X4964643Y-25052976D01*
X4964643Y-24948214D02*
X4974167Y-24929167D01*
X4993214Y-24919643D01*
X5021786Y-24919643D01*
X5040833Y-24929167D01*
X5050357Y-24948214D01*
X5050357Y-25052976D01*
X5440833Y-24843452D02*
X5269405Y-25100595D01*
X5697976Y-24852976D02*
X5717024Y-24852976D01*
X5736071Y-24862500D01*
X5745595Y-24872024D01*
X5755119Y-24891071D01*
X5764643Y-24929167D01*
X5764643Y-24976786D01*
X5755119Y-25014881D01*
X5745595Y-25033928D01*
X5736071Y-25043452D01*
X5717024Y-25052976D01*
X5697976Y-25052976D01*
X5678928Y-25043452D01*
X5669405Y-25033928D01*
X5659881Y-25014881D01*
X5650357Y-24976786D01*
X5650357Y-24929167D01*
X5659881Y-24891071D01*
X5669405Y-24872024D01*
X5678928Y-24862500D01*
X5697976Y-24852976D01*
X5850357Y-25033928D02*
X5859881Y-25043452D01*
X5850357Y-25052976D01*
X5840833Y-25043452D01*
X5850357Y-25033928D01*
X5850357Y-25052976D01*
X5983690Y-24852976D02*
X6002738Y-24852976D01*
X6021786Y-24862500D01*
X6031309Y-24872024D01*
X6040833Y-24891071D01*
X6050357Y-24929167D01*
X6050357Y-24976786D01*
X6040833Y-25014881D01*
X6031309Y-25033928D01*
X6021786Y-25043452D01*
X6002738Y-25052976D01*
X5983690Y-25052976D01*
X5964643Y-25043452D01*
X5955119Y-25033928D01*
X5945595Y-25014881D01*
X5936071Y-24976786D01*
X5936071Y-24929167D01*
X5945595Y-24891071D01*
X5955119Y-24872024D01*
X5964643Y-24862500D01*
X5983690Y-24852976D01*
X6221786Y-24919643D02*
X6221786Y-25052976D01*
X6174167Y-24843452D02*
X6126548Y-24986309D01*
X6250357Y-24986309D01*
X6307500Y-24852976D02*
X6431309Y-24852976D01*
X6364643Y-24929167D01*
X6393214Y-24929167D01*
X6412262Y-24938690D01*
X6421786Y-24948214D01*
X6431309Y-24967262D01*
X6431309Y-25014881D01*
X6421786Y-25033928D01*
X6412262Y-25043452D01*
X6393214Y-25052976D01*
X6336071Y-25052976D01*
X6317024Y-25043452D01*
X6307500Y-25033928D01*
X6497976Y-24852976D02*
X6621786Y-24852976D01*
X6555119Y-24929167D01*
X6583690Y-24929167D01*
X6602738Y-24938690D01*
X6612262Y-24948214D01*
X6621786Y-24967262D01*
X6621786Y-25014881D01*
X6612262Y-25033928D01*
X6602738Y-25043452D01*
X6583690Y-25052976D01*
X6526548Y-25052976D01*
X6507500Y-25043452D01*
X6497976Y-25033928D01*
X6697976Y-24852976D02*
X6697976Y-24891071D01*
X6774167Y-24852976D02*
X6774167Y-24891071D01*
X7069405Y-25129167D02*
X7059881Y-25119643D01*
X7040833Y-25091071D01*
X7031309Y-25072024D01*
X7021786Y-25043452D01*
X7012262Y-24995833D01*
X7012262Y-24957738D01*
X7021786Y-24910119D01*
X7031309Y-24881548D01*
X7040833Y-24862500D01*
X7059881Y-24833928D01*
X7069405Y-24824405D01*
X7174167Y-24938690D02*
X7155119Y-24929167D01*
X7145595Y-24919643D01*
X7136071Y-24900595D01*
X7136071Y-24891071D01*
X7145595Y-24872024D01*
X7155119Y-24862500D01*
X7174167Y-24852976D01*
X7212262Y-24852976D01*
X7231309Y-24862500D01*
X7240833Y-24872024D01*
X7250357Y-24891071D01*
X7250357Y-24900595D01*
X7240833Y-24919643D01*
X7231309Y-24929167D01*
X7212262Y-24938690D01*
X7174167Y-24938690D01*
X7155119Y-24948214D01*
X7145595Y-24957738D01*
X7136071Y-24976786D01*
X7136071Y-25014881D01*
X7145595Y-25033928D01*
X7155119Y-25043452D01*
X7174167Y-25052976D01*
X7212262Y-25052976D01*
X7231309Y-25043452D01*
X7240833Y-25033928D01*
X7250357Y-25014881D01*
X7250357Y-24976786D01*
X7240833Y-24957738D01*
X7231309Y-24948214D01*
X7212262Y-24938690D01*
X7488452Y-25052976D02*
X7488452Y-24852976D01*
X7574167Y-25052976D02*
X7574167Y-24948214D01*
X7564643Y-24929167D01*
X7545595Y-24919643D01*
X7517024Y-24919643D01*
X7497976Y-24929167D01*
X7488452Y-24938690D01*
X7697976Y-25052976D02*
X7678928Y-25043452D01*
X7669405Y-25033928D01*
X7659881Y-25014881D01*
X7659881Y-24957738D01*
X7669405Y-24938690D01*
X7678928Y-24929167D01*
X7697976Y-24919643D01*
X7726548Y-24919643D01*
X7745595Y-24929167D01*
X7755119Y-24938690D01*
X7764643Y-24957738D01*
X7764643Y-25014881D01*
X7755119Y-25033928D01*
X7745595Y-25043452D01*
X7726548Y-25052976D01*
X7697976Y-25052976D01*
X7878928Y-25052976D02*
X7859881Y-25043452D01*
X7850357Y-25024405D01*
X7850357Y-24852976D01*
X8031309Y-25043452D02*
X8012262Y-25052976D01*
X7974167Y-25052976D01*
X7955119Y-25043452D01*
X7945595Y-25024405D01*
X7945595Y-24948214D01*
X7955119Y-24929167D01*
X7974167Y-24919643D01*
X8012262Y-24919643D01*
X8031309Y-24929167D01*
X8040833Y-24948214D01*
X8040833Y-24967262D01*
X7945595Y-24986309D01*
X8117024Y-25043452D02*
X8136071Y-25052976D01*
X8174167Y-25052976D01*
X8193214Y-25043452D01*
X8202738Y-25024405D01*
X8202738Y-25014881D01*
X8193214Y-24995833D01*
X8174167Y-24986309D01*
X8145595Y-24986309D01*
X8126548Y-24976786D01*
X8117024Y-24957738D01*
X8117024Y-24948214D01*
X8126548Y-24929167D01*
X8145595Y-24919643D01*
X8174167Y-24919643D01*
X8193214Y-24929167D01*
X8269405Y-25129167D02*
X8278928Y-25119643D01*
X8297976Y-25091071D01*
X8307500Y-25072024D01*
X8317024Y-25043452D01*
X8326548Y-24995833D01*
X8326548Y-24957738D01*
X8317024Y-24910119D01*
X8307500Y-24881548D01*
X8297976Y-24862500D01*
X8278928Y-24833928D01*
X8269405Y-24824405D01*
X3297500Y-25126500D02*
X3497500Y-25326500D01*
X3497500Y-25126500D02*
X3297500Y-25326500D01*
X3397500Y-25126500D02*
X3397500Y-25326500D01*
X3297500Y-25226500D02*
X3497500Y-25226500D01*
X3745595Y-25136024D02*
X3755119Y-25126500D01*
X3774167Y-25116976D01*
X3821786Y-25116976D01*
X3840833Y-25126500D01*
X3850357Y-25136024D01*
X3859881Y-25155071D01*
X3859881Y-25174119D01*
X3850357Y-25202690D01*
X3736071Y-25316976D01*
X3859881Y-25316976D01*
X3945595Y-25297928D02*
X3955119Y-25307452D01*
X3945595Y-25316976D01*
X3936071Y-25307452D01*
X3945595Y-25297928D01*
X3945595Y-25316976D01*
X4031309Y-25136024D02*
X4040833Y-25126500D01*
X4059881Y-25116976D01*
X4107500Y-25116976D01*
X4126548Y-25126500D01*
X4136071Y-25136024D01*
X4145595Y-25155071D01*
X4145595Y-25174119D01*
X4136071Y-25202690D01*
X4021786Y-25316976D01*
X4145595Y-25316976D01*
X4240833Y-25316976D02*
X4278929Y-25316976D01*
X4297976Y-25307452D01*
X4307500Y-25297928D01*
X4326548Y-25269357D01*
X4336071Y-25231262D01*
X4336071Y-25155071D01*
X4326548Y-25136024D01*
X4317024Y-25126500D01*
X4297976Y-25116976D01*
X4259881Y-25116976D01*
X4240833Y-25126500D01*
X4231310Y-25136024D01*
X4221786Y-25155071D01*
X4221786Y-25202690D01*
X4231310Y-25221738D01*
X4240833Y-25231262D01*
X4259881Y-25240786D01*
X4297976Y-25240786D01*
X4317024Y-25231262D01*
X4326548Y-25221738D01*
X4336071Y-25202690D01*
X4431310Y-25316976D02*
X4469405Y-25316976D01*
X4488452Y-25307452D01*
X4497976Y-25297928D01*
X4517024Y-25269357D01*
X4526548Y-25231262D01*
X4526548Y-25155071D01*
X4517024Y-25136024D01*
X4507500Y-25126500D01*
X4488452Y-25116976D01*
X4450357Y-25116976D01*
X4431310Y-25126500D01*
X4421786Y-25136024D01*
X4412262Y-25155071D01*
X4412262Y-25202690D01*
X4421786Y-25221738D01*
X4431310Y-25231262D01*
X4450357Y-25240786D01*
X4488452Y-25240786D01*
X4507500Y-25231262D01*
X4517024Y-25221738D01*
X4526548Y-25202690D01*
X4612262Y-25316976D02*
X4612262Y-25183643D01*
X4612262Y-25202690D02*
X4621786Y-25193167D01*
X4640833Y-25183643D01*
X4669405Y-25183643D01*
X4688452Y-25193167D01*
X4697976Y-25212214D01*
X4697976Y-25316976D01*
X4697976Y-25212214D02*
X4707500Y-25193167D01*
X4726548Y-25183643D01*
X4755119Y-25183643D01*
X4774167Y-25193167D01*
X4783690Y-25212214D01*
X4783690Y-25316976D01*
X4878929Y-25316976D02*
X4878929Y-25183643D01*
X4878929Y-25202690D02*
X4888452Y-25193167D01*
X4907500Y-25183643D01*
X4936071Y-25183643D01*
X4955119Y-25193167D01*
X4964643Y-25212214D01*
X4964643Y-25316976D01*
X4964643Y-25212214D02*
X4974167Y-25193167D01*
X4993214Y-25183643D01*
X5021786Y-25183643D01*
X5040833Y-25193167D01*
X5050357Y-25212214D01*
X5050357Y-25316976D01*
X5440833Y-25107452D02*
X5269405Y-25364595D01*
X5697976Y-25116976D02*
X5717024Y-25116976D01*
X5736071Y-25126500D01*
X5745595Y-25136024D01*
X5755119Y-25155071D01*
X5764643Y-25193167D01*
X5764643Y-25240786D01*
X5755119Y-25278881D01*
X5745595Y-25297928D01*
X5736071Y-25307452D01*
X5717024Y-25316976D01*
X5697976Y-25316976D01*
X5678928Y-25307452D01*
X5669405Y-25297928D01*
X5659881Y-25278881D01*
X5650357Y-25240786D01*
X5650357Y-25193167D01*
X5659881Y-25155071D01*
X5669405Y-25136024D01*
X5678928Y-25126500D01*
X5697976Y-25116976D01*
X5850357Y-25297928D02*
X5859881Y-25307452D01*
X5850357Y-25316976D01*
X5840833Y-25307452D01*
X5850357Y-25297928D01*
X5850357Y-25316976D01*
X5983690Y-25116976D02*
X6002738Y-25116976D01*
X6021786Y-25126500D01*
X6031309Y-25136024D01*
X6040833Y-25155071D01*
X6050357Y-25193167D01*
X6050357Y-25240786D01*
X6040833Y-25278881D01*
X6031309Y-25297928D01*
X6021786Y-25307452D01*
X6002738Y-25316976D01*
X5983690Y-25316976D01*
X5964643Y-25307452D01*
X5955119Y-25297928D01*
X5945595Y-25278881D01*
X5936071Y-25240786D01*
X5936071Y-25193167D01*
X5945595Y-25155071D01*
X5955119Y-25136024D01*
X5964643Y-25126500D01*
X5983690Y-25116976D01*
X6145595Y-25316976D02*
X6183690Y-25316976D01*
X6202738Y-25307452D01*
X6212262Y-25297928D01*
X6231309Y-25269357D01*
X6240833Y-25231262D01*
X6240833Y-25155071D01*
X6231309Y-25136024D01*
X6221786Y-25126500D01*
X6202738Y-25116976D01*
X6164643Y-25116976D01*
X6145595Y-25126500D01*
X6136071Y-25136024D01*
X6126548Y-25155071D01*
X6126548Y-25202690D01*
X6136071Y-25221738D01*
X6145595Y-25231262D01*
X6164643Y-25240786D01*
X6202738Y-25240786D01*
X6221786Y-25231262D01*
X6231309Y-25221738D01*
X6240833Y-25202690D01*
X6364643Y-25116976D02*
X6383690Y-25116976D01*
X6402738Y-25126500D01*
X6412262Y-25136024D01*
X6421786Y-25155071D01*
X6431309Y-25193167D01*
X6431309Y-25240786D01*
X6421786Y-25278881D01*
X6412262Y-25297928D01*
X6402738Y-25307452D01*
X6383690Y-25316976D01*
X6364643Y-25316976D01*
X6345595Y-25307452D01*
X6336071Y-25297928D01*
X6326548Y-25278881D01*
X6317024Y-25240786D01*
X6317024Y-25193167D01*
X6326548Y-25155071D01*
X6336071Y-25136024D01*
X6345595Y-25126500D01*
X6364643Y-25116976D01*
X6612262Y-25116976D02*
X6517024Y-25116976D01*
X6507500Y-25212214D01*
X6517024Y-25202690D01*
X6536071Y-25193167D01*
X6583690Y-25193167D01*
X6602738Y-25202690D01*
X6612262Y-25212214D01*
X6621786Y-25231262D01*
X6621786Y-25278881D01*
X6612262Y-25297928D01*
X6602738Y-25307452D01*
X6583690Y-25316976D01*
X6536071Y-25316976D01*
X6517024Y-25307452D01*
X6507500Y-25297928D01*
X6697976Y-25116976D02*
X6697976Y-25155071D01*
X6774167Y-25116976D02*
X6774167Y-25155071D01*
X7069405Y-25393167D02*
X7059881Y-25383643D01*
X7040833Y-25355071D01*
X7031309Y-25336024D01*
X7021786Y-25307452D01*
X7012262Y-25259833D01*
X7012262Y-25221738D01*
X7021786Y-25174119D01*
X7031309Y-25145548D01*
X7040833Y-25126500D01*
X7059881Y-25097928D01*
X7069405Y-25088405D01*
X7231309Y-25116976D02*
X7193214Y-25116976D01*
X7174167Y-25126500D01*
X7164643Y-25136024D01*
X7145595Y-25164595D01*
X7136071Y-25202690D01*
X7136071Y-25278881D01*
X7145595Y-25297928D01*
X7155119Y-25307452D01*
X7174167Y-25316976D01*
X7212262Y-25316976D01*
X7231309Y-25307452D01*
X7240833Y-25297928D01*
X7250357Y-25278881D01*
X7250357Y-25231262D01*
X7240833Y-25212214D01*
X7231309Y-25202690D01*
X7212262Y-25193167D01*
X7174167Y-25193167D01*
X7155119Y-25202690D01*
X7145595Y-25212214D01*
X7136071Y-25231262D01*
X7488452Y-25316976D02*
X7488452Y-25116976D01*
X7574167Y-25316976D02*
X7574167Y-25212214D01*
X7564643Y-25193167D01*
X7545595Y-25183643D01*
X7517024Y-25183643D01*
X7497976Y-25193167D01*
X7488452Y-25202690D01*
X7697976Y-25316976D02*
X7678928Y-25307452D01*
X7669405Y-25297928D01*
X7659881Y-25278881D01*
X7659881Y-25221738D01*
X7669405Y-25202690D01*
X7678928Y-25193167D01*
X7697976Y-25183643D01*
X7726548Y-25183643D01*
X7745595Y-25193167D01*
X7755119Y-25202690D01*
X7764643Y-25221738D01*
X7764643Y-25278881D01*
X7755119Y-25297928D01*
X7745595Y-25307452D01*
X7726548Y-25316976D01*
X7697976Y-25316976D01*
X7878928Y-25316976D02*
X7859881Y-25307452D01*
X7850357Y-25288405D01*
X7850357Y-25116976D01*
X8031309Y-25307452D02*
X8012262Y-25316976D01*
X7974167Y-25316976D01*
X7955119Y-25307452D01*
X7945595Y-25288405D01*
X7945595Y-25212214D01*
X7955119Y-25193167D01*
X7974167Y-25183643D01*
X8012262Y-25183643D01*
X8031309Y-25193167D01*
X8040833Y-25212214D01*
X8040833Y-25231262D01*
X7945595Y-25250309D01*
X8117024Y-25307452D02*
X8136071Y-25316976D01*
X8174167Y-25316976D01*
X8193214Y-25307452D01*
X8202738Y-25288405D01*
X8202738Y-25278881D01*
X8193214Y-25259833D01*
X8174167Y-25250309D01*
X8145595Y-25250309D01*
X8126548Y-25240786D01*
X8117024Y-25221738D01*
X8117024Y-25212214D01*
X8126548Y-25193167D01*
X8145595Y-25183643D01*
X8174167Y-25183643D01*
X8193214Y-25193167D01*
X8269405Y-25393167D02*
X8278928Y-25383643D01*
X8297976Y-25355071D01*
X8307500Y-25336024D01*
X8317024Y-25307452D01*
X8326548Y-25259833D01*
X8326548Y-25221738D01*
X8317024Y-25174119D01*
X8307500Y-25145548D01*
X8297976Y-25126500D01*
X8278928Y-25097928D01*
X8269405Y-25088405D01*
X3297500Y-25446500D02*
X3497500Y-25646500D01*
X3497500Y-25446500D02*
X3297500Y-25646500D01*
X3468211Y-25617211D02*
X3468211Y-25475789D01*
X3326789Y-25475789D01*
X3326789Y-25617211D01*
X3468211Y-25617211D01*
X3736071Y-25436976D02*
X3859881Y-25436976D01*
X3793214Y-25513167D01*
X3821786Y-25513167D01*
X3840833Y-25522690D01*
X3850357Y-25532214D01*
X3859881Y-25551262D01*
X3859881Y-25598881D01*
X3850357Y-25617928D01*
X3840833Y-25627452D01*
X3821786Y-25636976D01*
X3764643Y-25636976D01*
X3745595Y-25627452D01*
X3736071Y-25617928D01*
X3945595Y-25617928D02*
X3955119Y-25627452D01*
X3945595Y-25636976D01*
X3936071Y-25627452D01*
X3945595Y-25617928D01*
X3945595Y-25636976D01*
X4031309Y-25456024D02*
X4040833Y-25446500D01*
X4059881Y-25436976D01*
X4107500Y-25436976D01*
X4126548Y-25446500D01*
X4136071Y-25456024D01*
X4145595Y-25475071D01*
X4145595Y-25494119D01*
X4136071Y-25522690D01*
X4021786Y-25636976D01*
X4145595Y-25636976D01*
X4269405Y-25436976D02*
X4288452Y-25436976D01*
X4307500Y-25446500D01*
X4317024Y-25456024D01*
X4326548Y-25475071D01*
X4336071Y-25513167D01*
X4336071Y-25560786D01*
X4326548Y-25598881D01*
X4317024Y-25617928D01*
X4307500Y-25627452D01*
X4288452Y-25636976D01*
X4269405Y-25636976D01*
X4250357Y-25627452D01*
X4240833Y-25617928D01*
X4231310Y-25598881D01*
X4221786Y-25560786D01*
X4221786Y-25513167D01*
X4231310Y-25475071D01*
X4240833Y-25456024D01*
X4250357Y-25446500D01*
X4269405Y-25436976D01*
X4459881Y-25436976D02*
X4478929Y-25436976D01*
X4497976Y-25446500D01*
X4507500Y-25456024D01*
X4517024Y-25475071D01*
X4526548Y-25513167D01*
X4526548Y-25560786D01*
X4517024Y-25598881D01*
X4507500Y-25617928D01*
X4497976Y-25627452D01*
X4478929Y-25636976D01*
X4459881Y-25636976D01*
X4440833Y-25627452D01*
X4431310Y-25617928D01*
X4421786Y-25598881D01*
X4412262Y-25560786D01*
X4412262Y-25513167D01*
X4421786Y-25475071D01*
X4431310Y-25456024D01*
X4440833Y-25446500D01*
X4459881Y-25436976D01*
X4612262Y-25636976D02*
X4612262Y-25503643D01*
X4612262Y-25522690D02*
X4621786Y-25513167D01*
X4640833Y-25503643D01*
X4669405Y-25503643D01*
X4688452Y-25513167D01*
X4697976Y-25532214D01*
X4697976Y-25636976D01*
X4697976Y-25532214D02*
X4707500Y-25513167D01*
X4726548Y-25503643D01*
X4755119Y-25503643D01*
X4774167Y-25513167D01*
X4783690Y-25532214D01*
X4783690Y-25636976D01*
X4878929Y-25636976D02*
X4878929Y-25503643D01*
X4878929Y-25522690D02*
X4888452Y-25513167D01*
X4907500Y-25503643D01*
X4936071Y-25503643D01*
X4955119Y-25513167D01*
X4964643Y-25532214D01*
X4964643Y-25636976D01*
X4964643Y-25532214D02*
X4974167Y-25513167D01*
X4993214Y-25503643D01*
X5021786Y-25503643D01*
X5040833Y-25513167D01*
X5050357Y-25532214D01*
X5050357Y-25636976D01*
X5440833Y-25427452D02*
X5269405Y-25684595D01*
X5697976Y-25436976D02*
X5717024Y-25436976D01*
X5736071Y-25446500D01*
X5745595Y-25456024D01*
X5755119Y-25475071D01*
X5764643Y-25513167D01*
X5764643Y-25560786D01*
X5755119Y-25598881D01*
X5745595Y-25617928D01*
X5736071Y-25627452D01*
X5717024Y-25636976D01*
X5697976Y-25636976D01*
X5678928Y-25627452D01*
X5669405Y-25617928D01*
X5659881Y-25598881D01*
X5650357Y-25560786D01*
X5650357Y-25513167D01*
X5659881Y-25475071D01*
X5669405Y-25456024D01*
X5678928Y-25446500D01*
X5697976Y-25436976D01*
X5850357Y-25617928D02*
X5859881Y-25627452D01*
X5850357Y-25636976D01*
X5840833Y-25627452D01*
X5850357Y-25617928D01*
X5850357Y-25636976D01*
X6050357Y-25636976D02*
X5936071Y-25636976D01*
X5993214Y-25636976D02*
X5993214Y-25436976D01*
X5974167Y-25465548D01*
X5955119Y-25484595D01*
X5936071Y-25494119D01*
X6126548Y-25456024D02*
X6136071Y-25446500D01*
X6155119Y-25436976D01*
X6202738Y-25436976D01*
X6221786Y-25446500D01*
X6231309Y-25456024D01*
X6240833Y-25475071D01*
X6240833Y-25494119D01*
X6231309Y-25522690D01*
X6117024Y-25636976D01*
X6240833Y-25636976D01*
X6412262Y-25436976D02*
X6374167Y-25436976D01*
X6355119Y-25446500D01*
X6345595Y-25456024D01*
X6326548Y-25484595D01*
X6317024Y-25522690D01*
X6317024Y-25598881D01*
X6326548Y-25617928D01*
X6336071Y-25627452D01*
X6355119Y-25636976D01*
X6393214Y-25636976D01*
X6412262Y-25627452D01*
X6421786Y-25617928D01*
X6431309Y-25598881D01*
X6431309Y-25551262D01*
X6421786Y-25532214D01*
X6412262Y-25522690D01*
X6393214Y-25513167D01*
X6355119Y-25513167D01*
X6336071Y-25522690D01*
X6326548Y-25532214D01*
X6317024Y-25551262D01*
X6555119Y-25436976D02*
X6574167Y-25436976D01*
X6593214Y-25446500D01*
X6602738Y-25456024D01*
X6612262Y-25475071D01*
X6621786Y-25513167D01*
X6621786Y-25560786D01*
X6612262Y-25598881D01*
X6602738Y-25617928D01*
X6593214Y-25627452D01*
X6574167Y-25636976D01*
X6555119Y-25636976D01*
X6536071Y-25627452D01*
X6526548Y-25617928D01*
X6517024Y-25598881D01*
X6507500Y-25560786D01*
X6507500Y-25513167D01*
X6517024Y-25475071D01*
X6526548Y-25456024D01*
X6536071Y-25446500D01*
X6555119Y-25436976D01*
X6697976Y-25436976D02*
X6697976Y-25475071D01*
X6774167Y-25436976D02*
X6774167Y-25475071D01*
X7069405Y-25713167D02*
X7059881Y-25703643D01*
X7040833Y-25675071D01*
X7031309Y-25656024D01*
X7021786Y-25627452D01*
X7012262Y-25579833D01*
X7012262Y-25541738D01*
X7021786Y-25494119D01*
X7031309Y-25465548D01*
X7040833Y-25446500D01*
X7059881Y-25417928D01*
X7069405Y-25408405D01*
X7231309Y-25503643D02*
X7231309Y-25636976D01*
X7183690Y-25427452D02*
X7136071Y-25570309D01*
X7259881Y-25570309D01*
X7488452Y-25636976D02*
X7488452Y-25436976D01*
X7574167Y-25636976D02*
X7574167Y-25532214D01*
X7564643Y-25513167D01*
X7545595Y-25503643D01*
X7517024Y-25503643D01*
X7497976Y-25513167D01*
X7488452Y-25522690D01*
X7697976Y-25636976D02*
X7678928Y-25627452D01*
X7669405Y-25617928D01*
X7659881Y-25598881D01*
X7659881Y-25541738D01*
X7669405Y-25522690D01*
X7678928Y-25513167D01*
X7697976Y-25503643D01*
X7726548Y-25503643D01*
X7745595Y-25513167D01*
X7755119Y-25522690D01*
X7764643Y-25541738D01*
X7764643Y-25598881D01*
X7755119Y-25617928D01*
X7745595Y-25627452D01*
X7726548Y-25636976D01*
X7697976Y-25636976D01*
X7878928Y-25636976D02*
X7859881Y-25627452D01*
X7850357Y-25608405D01*
X7850357Y-25436976D01*
X8031309Y-25627452D02*
X8012262Y-25636976D01*
X7974167Y-25636976D01*
X7955119Y-25627452D01*
X7945595Y-25608405D01*
X7945595Y-25532214D01*
X7955119Y-25513167D01*
X7974167Y-25503643D01*
X8012262Y-25503643D01*
X8031309Y-25513167D01*
X8040833Y-25532214D01*
X8040833Y-25551262D01*
X7945595Y-25570309D01*
X8117024Y-25627452D02*
X8136071Y-25636976D01*
X8174167Y-25636976D01*
X8193214Y-25627452D01*
X8202738Y-25608405D01*
X8202738Y-25598881D01*
X8193214Y-25579833D01*
X8174167Y-25570309D01*
X8145595Y-25570309D01*
X8126548Y-25560786D01*
X8117024Y-25541738D01*
X8117024Y-25532214D01*
X8126548Y-25513167D01*
X8145595Y-25503643D01*
X8174167Y-25503643D01*
X8193214Y-25513167D01*
X8269405Y-25713167D02*
X8278928Y-25703643D01*
X8297976Y-25675071D01*
X8307500Y-25656024D01*
X8317024Y-25627452D01*
X8326548Y-25579833D01*
X8326548Y-25541738D01*
X8317024Y-25494119D01*
X8307500Y-25465548D01*
X8297976Y-25446500D01*
X8278928Y-25417928D01*
X8269405Y-25408405D01*
M02*
