%TF.GenerationSoftware,KiCad,Pcbnew,(6.0.11)*%
%TF.CreationDate,2023-12-29T06:12:23-05:00*%
%TF.ProjectId,input-output.SelfHost,696e7075-742d-46f7-9574-7075742e5365,rev?*%
%TF.SameCoordinates,Original*%
%TF.FileFunction,Copper,L1,Top*%
%TF.FilePolarity,Positive*%
%FSLAX46Y46*%
G04 Gerber Fmt 4.6, Leading zero omitted, Abs format (unit mm)*
G04 Created by KiCad (PCBNEW (6.0.11)) date 2023-12-29 06:12:23*
%MOMM*%
%LPD*%
G01*
G04 APERTURE LIST*
G04 Aperture macros list*
%AMRoundRect*
0 Rectangle with rounded corners*
0 $1 Rounding radius*
0 $2 $3 $4 $5 $6 $7 $8 $9 X,Y pos of 4 corners*
0 Add a 4 corners polygon primitive as box body*
4,1,4,$2,$3,$4,$5,$6,$7,$8,$9,$2,$3,0*
0 Add four circle primitives for the rounded corners*
1,1,$1+$1,$2,$3*
1,1,$1+$1,$4,$5*
1,1,$1+$1,$6,$7*
1,1,$1+$1,$8,$9*
0 Add four rect primitives between the rounded corners*
20,1,$1+$1,$2,$3,$4,$5,0*
20,1,$1+$1,$4,$5,$6,$7,0*
20,1,$1+$1,$6,$7,$8,$9,0*
20,1,$1+$1,$8,$9,$2,$3,0*%
G04 Aperture macros list end*
%TA.AperFunction,ComponentPad*%
%ADD10C,6.400000*%
%TD*%
%TA.AperFunction,ComponentPad*%
%ADD11RoundRect,0.250000X-0.600000X0.600000X-0.600000X-0.600000X0.600000X-0.600000X0.600000X0.600000X0*%
%TD*%
%TA.AperFunction,ComponentPad*%
%ADD12C,1.700000*%
%TD*%
%TA.AperFunction,ComponentPad*%
%ADD13C,1.600000*%
%TD*%
%TA.AperFunction,ComponentPad*%
%ADD14O,1.600000X1.600000*%
%TD*%
%TA.AperFunction,ComponentPad*%
%ADD15R,1.600000X1.600000*%
%TD*%
%TA.AperFunction,ComponentPad*%
%ADD16R,1.800000X1.800000*%
%TD*%
%TA.AperFunction,ComponentPad*%
%ADD17C,1.800000*%
%TD*%
%TA.AperFunction,ComponentPad*%
%ADD18R,2.032000X2.032000*%
%TD*%
%TA.AperFunction,ComponentPad*%
%ADD19C,2.032000*%
%TD*%
%TA.AperFunction,ComponentPad*%
%ADD20R,1.700000X1.700000*%
%TD*%
%TA.AperFunction,ComponentPad*%
%ADD21O,1.700000X1.700000*%
%TD*%
%TA.AperFunction,ComponentPad*%
%ADD22C,5.400000*%
%TD*%
%TA.AperFunction,ComponentPad*%
%ADD23C,0.600000*%
%TD*%
%TA.AperFunction,ComponentPad*%
%ADD24R,2.200000X2.200000*%
%TD*%
%TA.AperFunction,ComponentPad*%
%ADD25O,2.200000X2.200000*%
%TD*%
%TA.AperFunction,ComponentPad*%
%ADD26R,1.422400X1.422400*%
%TD*%
%TA.AperFunction,ComponentPad*%
%ADD27C,1.422400*%
%TD*%
%TA.AperFunction,ComponentPad*%
%ADD28O,3.500000X2.200000*%
%TD*%
%TA.AperFunction,ComponentPad*%
%ADD29R,2.500000X1.500000*%
%TD*%
%TA.AperFunction,ComponentPad*%
%ADD30O,2.500000X1.500000*%
%TD*%
%TA.AperFunction,ComponentPad*%
%ADD31R,1.100000X1.800000*%
%TD*%
%TA.AperFunction,ComponentPad*%
%ADD32RoundRect,0.275000X-0.275000X-0.625000X0.275000X-0.625000X0.275000X0.625000X-0.275000X0.625000X0*%
%TD*%
%TA.AperFunction,ViaPad*%
%ADD33C,0.800000*%
%TD*%
%TA.AperFunction,Conductor*%
%ADD34C,0.250000*%
%TD*%
%TA.AperFunction,Conductor*%
%ADD35C,1.000000*%
%TD*%
G04 APERTURE END LIST*
%TO.C,NT3*%
G36*
X108650000Y-146850000D02*
G01*
X108050000Y-146850000D01*
X108050000Y-145650000D01*
X108650000Y-145650000D01*
X108650000Y-146850000D01*
G37*
%TO.C,NT1*%
G36*
X169350000Y-189550000D02*
G01*
X168150000Y-189550000D01*
X168150000Y-188950000D01*
X169350000Y-188950000D01*
X169350000Y-189550000D01*
G37*
%TO.C,NT2*%
G36*
X171550000Y-175100000D02*
G01*
X170950000Y-175100000D01*
X170950000Y-173900000D01*
X171550000Y-173900000D01*
X171550000Y-175100000D01*
G37*
%TD*%
D10*
%TO.P,H2,1,1*%
%TO.N,GND*%
X265000000Y-75000000D03*
%TD*%
%TO.P,H1,1,1*%
%TO.N,GND*%
X40000000Y-75000000D03*
%TD*%
D11*
%TO.P,P2,1,Pin_1*%
%TO.N,VCC*%
X182000000Y-223000000D03*
D12*
%TO.P,P2,2,Pin_2*%
X182000000Y-225540000D03*
%TO.P,P2,3,Pin_3*%
%TO.N,A15*%
X179460000Y-223000000D03*
%TO.P,P2,4,Pin_4*%
%TO.N,/bus/A31*%
X179460000Y-225540000D03*
%TO.P,P2,5,Pin_5*%
%TO.N,A14*%
X176920000Y-223000000D03*
%TO.P,P2,6,Pin_6*%
%TO.N,/bus/A30*%
X176920000Y-225540000D03*
%TO.P,P2,7,Pin_7*%
%TO.N,A13*%
X174380000Y-223000000D03*
%TO.P,P2,8,Pin_8*%
%TO.N,/bus/A29*%
X174380000Y-225540000D03*
%TO.P,P2,9,Pin_9*%
%TO.N,A12*%
X171840000Y-223000000D03*
%TO.P,P2,10,Pin_10*%
%TO.N,/bus/A28*%
X171840000Y-225540000D03*
%TO.P,P2,11,Pin_11*%
%TO.N,A11*%
X169300000Y-223000000D03*
%TO.P,P2,12,Pin_12*%
%TO.N,/bus/A27*%
X169300000Y-225540000D03*
%TO.P,P2,13,Pin_13*%
%TO.N,A10*%
X166760000Y-223000000D03*
%TO.P,P2,14,Pin_14*%
%TO.N,/bus/A26*%
X166760000Y-225540000D03*
%TO.P,P2,15,Pin_15*%
%TO.N,A9*%
X164220000Y-223000000D03*
%TO.P,P2,16,Pin_16*%
%TO.N,/bus/A25*%
X164220000Y-225540000D03*
%TO.P,P2,17,Pin_17*%
%TO.N,A8*%
X161680000Y-223000000D03*
%TO.P,P2,18,Pin_18*%
%TO.N,/bus/A24*%
X161680000Y-225540000D03*
%TO.P,P2,19,Pin_19*%
%TO.N,+12V*%
X159140000Y-223000000D03*
%TO.P,P2,20,Pin_20*%
X159140000Y-225540000D03*
%TO.P,P2,21,Pin_21*%
%TO.N,A7*%
X156600000Y-223000000D03*
%TO.P,P2,22,Pin_22*%
%TO.N,/bus/A23*%
X156600000Y-225540000D03*
%TO.P,P2,23,Pin_23*%
%TO.N,A6*%
X154060000Y-223000000D03*
%TO.P,P2,24,Pin_24*%
%TO.N,/bus/A22*%
X154060000Y-225540000D03*
%TO.P,P2,25,Pin_25*%
%TO.N,A5*%
X151520000Y-223000000D03*
%TO.P,P2,26,Pin_26*%
%TO.N,/bus/A21*%
X151520000Y-225540000D03*
%TO.P,P2,27,Pin_27*%
%TO.N,A4*%
X148980000Y-223000000D03*
%TO.P,P2,28,Pin_28*%
%TO.N,/bus/A20*%
X148980000Y-225540000D03*
%TO.P,P2,29,Pin_29*%
%TO.N,A3*%
X146440000Y-223000000D03*
%TO.P,P2,30,Pin_30*%
%TO.N,/bus/A19*%
X146440000Y-225540000D03*
%TO.P,P2,31,Pin_31*%
%TO.N,A2*%
X143900000Y-223000000D03*
%TO.P,P2,32,Pin_32*%
%TO.N,/bus/A18*%
X143900000Y-225540000D03*
%TO.P,P2,33,Pin_33*%
%TO.N,A1*%
X141360000Y-223000000D03*
%TO.P,P2,34,Pin_34*%
%TO.N,/bus/A17*%
X141360000Y-225540000D03*
%TO.P,P2,35,Pin_35*%
%TO.N,A0*%
X138820000Y-223000000D03*
%TO.P,P2,36,Pin_36*%
%TO.N,/bus/A16*%
X138820000Y-225540000D03*
%TO.P,P2,37,Pin_37*%
%TO.N,-12V*%
X136280000Y-223000000D03*
%TO.P,P2,38,Pin_38*%
X136280000Y-225540000D03*
%TO.P,P2,39,Pin_39*%
%TO.N,/bus/IC3*%
X133740000Y-223000000D03*
%TO.P,P2,40,Pin_40*%
%TO.N,/bus/~{TEND1}*%
X133740000Y-225540000D03*
%TO.P,P2,41,Pin_41*%
%TO.N,/bus/IC2*%
X131200000Y-223000000D03*
%TO.P,P2,42,Pin_42*%
%TO.N,/bus/~{DREQ1}*%
X131200000Y-225540000D03*
%TO.P,P2,43,Pin_43*%
%TO.N,/bus/IC1*%
X128660000Y-223000000D03*
%TO.P,P2,44,Pin_44*%
%TO.N,/bus/~{TEND0}*%
X128660000Y-225540000D03*
%TO.P,P2,45,Pin_45*%
%TO.N,/bus/IC0*%
X126120000Y-223000000D03*
%TO.P,P2,46,Pin_46*%
%TO.N,/bus/~{DREQ0}*%
X126120000Y-225540000D03*
%TO.P,P2,47,Pin_47*%
%TO.N,/bus/AUXCLK1*%
X123580000Y-223000000D03*
%TO.P,P2,48,Pin_48*%
%TO.N,/bus/AUXCLK0*%
X123580000Y-225540000D03*
%TO.P,P2,49,Pin_49*%
%TO.N,GND*%
X121040000Y-223000000D03*
%TO.P,P2,50,Pin_50*%
X121040000Y-225540000D03*
%TD*%
D11*
%TO.P,P3,1,Pin_1*%
%TO.N,VCC*%
X258000000Y-223000000D03*
D12*
%TO.P,P3,2,Pin_2*%
X258000000Y-225540000D03*
%TO.P,P3,3,Pin_3*%
%TO.N,/bus/D15*%
X255460000Y-223000000D03*
%TO.P,P3,4,Pin_4*%
%TO.N,/bus/D31*%
X255460000Y-225540000D03*
%TO.P,P3,5,Pin_5*%
%TO.N,/bus/D14*%
X252920000Y-223000000D03*
%TO.P,P3,6,Pin_6*%
%TO.N,/bus/D30*%
X252920000Y-225540000D03*
%TO.P,P3,7,Pin_7*%
%TO.N,/bus/D13*%
X250380000Y-223000000D03*
%TO.P,P3,8,Pin_8*%
%TO.N,/bus/D29*%
X250380000Y-225540000D03*
%TO.P,P3,9,Pin_9*%
%TO.N,/bus/D12*%
X247840000Y-223000000D03*
%TO.P,P3,10,Pin_10*%
%TO.N,/bus/D28*%
X247840000Y-225540000D03*
%TO.P,P3,11,Pin_11*%
%TO.N,/bus/D11*%
X245300000Y-223000000D03*
%TO.P,P3,12,Pin_12*%
%TO.N,/bus/D27*%
X245300000Y-225540000D03*
%TO.P,P3,13,Pin_13*%
%TO.N,/bus/D10*%
X242760000Y-223000000D03*
%TO.P,P3,14,Pin_14*%
%TO.N,/bus/D26*%
X242760000Y-225540000D03*
%TO.P,P3,15,Pin_15*%
%TO.N,/bus/D9*%
X240220000Y-223000000D03*
%TO.P,P3,16,Pin_16*%
%TO.N,/bus/D25*%
X240220000Y-225540000D03*
%TO.P,P3,17,Pin_17*%
%TO.N,/bus/D8*%
X237680000Y-223000000D03*
%TO.P,P3,18,Pin_18*%
%TO.N,/bus/D24*%
X237680000Y-225540000D03*
%TO.P,P3,19,Pin_19*%
%TO.N,D7*%
X235140000Y-223000000D03*
%TO.P,P3,20,Pin_20*%
%TO.N,/bus/D23*%
X235140000Y-225540000D03*
%TO.P,P3,21,Pin_21*%
%TO.N,D6*%
X232600000Y-223000000D03*
%TO.P,P3,22,Pin_22*%
%TO.N,/bus/D22*%
X232600000Y-225540000D03*
%TO.P,P3,23,Pin_23*%
%TO.N,D5*%
X230060000Y-223000000D03*
%TO.P,P3,24,Pin_24*%
%TO.N,/bus/D21*%
X230060000Y-225540000D03*
%TO.P,P3,25,Pin_25*%
%TO.N,D4*%
X227520000Y-223000000D03*
%TO.P,P3,26,Pin_26*%
%TO.N,/bus/D20*%
X227520000Y-225540000D03*
%TO.P,P3,27,Pin_27*%
%TO.N,D3*%
X224980000Y-223000000D03*
%TO.P,P3,28,Pin_28*%
%TO.N,/bus/D19*%
X224980000Y-225540000D03*
%TO.P,P3,29,Pin_29*%
%TO.N,D2*%
X222440000Y-223000000D03*
%TO.P,P3,30,Pin_30*%
%TO.N,/bus/D18*%
X222440000Y-225540000D03*
%TO.P,P3,31,Pin_31*%
%TO.N,D1*%
X219900000Y-223000000D03*
%TO.P,P3,32,Pin_32*%
%TO.N,/bus/D17*%
X219900000Y-225540000D03*
%TO.P,P3,33,Pin_33*%
%TO.N,D0*%
X217360000Y-223000000D03*
%TO.P,P3,34,Pin_34*%
%TO.N,/bus/D16*%
X217360000Y-225540000D03*
%TO.P,P3,35,Pin_35*%
%TO.N,/bus/~{BUSERR}*%
X214820000Y-223000000D03*
%TO.P,P3,36,Pin_36*%
%TO.N,/bus/UDS*%
X214820000Y-225540000D03*
%TO.P,P3,37,Pin_37*%
%TO.N,/bus/~{VPA}*%
X212280000Y-223000000D03*
%TO.P,P3,38,Pin_38*%
%TO.N,/bus/LDS*%
X212280000Y-225540000D03*
%TO.P,P3,39,Pin_39*%
%TO.N,/bus/~{VMA}*%
X209740000Y-223000000D03*
%TO.P,P3,40,Pin_40*%
%TO.N,/bus/S2*%
X209740000Y-225540000D03*
%TO.P,P3,41,Pin_41*%
%TO.N,/bus/~{BHE}*%
X207200000Y-223000000D03*
%TO.P,P3,42,Pin_42*%
%TO.N,/bus/S1*%
X207200000Y-225540000D03*
%TO.P,P3,43,Pin_43*%
%TO.N,/bus/IPL2*%
X204660000Y-223000000D03*
%TO.P,P3,44,Pin_44*%
%TO.N,/bus/S0*%
X204660000Y-225540000D03*
%TO.P,P3,45,Pin_45*%
%TO.N,/bus/IPL1*%
X202120000Y-223000000D03*
%TO.P,P3,46,Pin_46*%
%TO.N,/bus/AUXCLK3*%
X202120000Y-225540000D03*
%TO.P,P3,47,Pin_47*%
%TO.N,/bus/IPL0*%
X199580000Y-223000000D03*
%TO.P,P3,48,Pin_48*%
%TO.N,/bus/AUXCLK2*%
X199580000Y-225540000D03*
%TO.P,P3,49,Pin_49*%
%TO.N,GND*%
X197040000Y-223000000D03*
%TO.P,P3,50,Pin_50*%
X197040000Y-225540000D03*
%TD*%
D11*
%TO.P,P1,1,Pin_1*%
%TO.N,VCC*%
X108000000Y-223000000D03*
D12*
%TO.P,P1,2,Pin_2*%
X108000000Y-225540000D03*
%TO.P,P1,3,Pin_3*%
%TO.N,~{RD}*%
X105460000Y-223000000D03*
%TO.P,P1,4,Pin_4*%
%TO.N,/bus/E*%
X105460000Y-225540000D03*
%TO.P,P1,5,Pin_5*%
%TO.N,~{WR}*%
X102920000Y-223000000D03*
%TO.P,P1,6,Pin_6*%
%TO.N,/bus/ST*%
X102920000Y-225540000D03*
%TO.P,P1,7,Pin_7*%
%TO.N,~{IORQ}*%
X100380000Y-223000000D03*
%TO.P,P1,8,Pin_8*%
%TO.N,/bus/PHI*%
X100380000Y-225540000D03*
%TO.P,P1,9,Pin_9*%
%TO.N,~{MREQ}*%
X97840000Y-223000000D03*
%TO.P,P1,10,Pin_10*%
%TO.N,/bus/~{INT2}*%
X97840000Y-225540000D03*
%TO.P,P1,11,Pin_11*%
%TO.N,~{M1}*%
X95300000Y-223000000D03*
%TO.P,P1,12,Pin_12*%
%TO.N,/bus/~{INT1}*%
X95300000Y-225540000D03*
%TO.P,P1,13,Pin_13*%
%TO.N,~{BUSACK}*%
X92760000Y-223000000D03*
%TO.P,P1,14,Pin_14*%
%TO.N,/bus/CRUCLK*%
X92760000Y-225540000D03*
%TO.P,P1,15,Pin_15*%
%TO.N,/bus/CLK*%
X90220000Y-223000000D03*
%TO.P,P1,16,Pin_16*%
%TO.N,/bus/CRUOUT*%
X90220000Y-225540000D03*
%TO.P,P1,17,Pin_17*%
%TO.N,~{INT0}*%
X87680000Y-223000000D03*
%TO.P,P1,18,Pin_18*%
%TO.N,/bus/CRUIN*%
X87680000Y-225540000D03*
%TO.P,P1,19,Pin_19*%
%TO.N,~{NMI}*%
X85140000Y-223000000D03*
%TO.P,P1,20,Pin_20*%
%TO.N,~{RES_IN}*%
X85140000Y-225540000D03*
%TO.P,P1,21,Pin_21*%
%TO.N,~{RES_OUT}*%
X82600000Y-223000000D03*
%TO.P,P1,22,Pin_22*%
%TO.N,/bus/USER8*%
X82600000Y-225540000D03*
%TO.P,P1,23,Pin_23*%
%TO.N,~{BUSRQ}*%
X80060000Y-223000000D03*
%TO.P,P1,24,Pin_24*%
%TO.N,/bus/USER7*%
X80060000Y-225540000D03*
%TO.P,P1,25,Pin_25*%
%TO.N,~{WAIT}*%
X77520000Y-223000000D03*
%TO.P,P1,26,Pin_26*%
%TO.N,/bus/USER6*%
X77520000Y-225540000D03*
%TO.P,P1,27,Pin_27*%
%TO.N,~{HALT}*%
X74980000Y-223000000D03*
%TO.P,P1,28,Pin_28*%
%TO.N,/bus/USER5*%
X74980000Y-225540000D03*
%TO.P,P1,29,Pin_29*%
%TO.N,~{RFSH}*%
X72440000Y-223000000D03*
%TO.P,P1,30,Pin_30*%
%TO.N,/bus/USER4*%
X72440000Y-225540000D03*
%TO.P,P1,31,Pin_31*%
%TO.N,/bus/~{EIRQ7}*%
X69900000Y-223000000D03*
%TO.P,P1,32,Pin_32*%
%TO.N,/bus/USER3*%
X69900000Y-225540000D03*
%TO.P,P1,33,Pin_33*%
%TO.N,/bus/~{EIRQ6}*%
X67360000Y-223000000D03*
%TO.P,P1,34,Pin_34*%
%TO.N,/bus/USER2*%
X67360000Y-225540000D03*
%TO.P,P1,35,Pin_35*%
%TO.N,/bus/~{EIRQ5}*%
X64820000Y-223000000D03*
%TO.P,P1,36,Pin_36*%
%TO.N,/bus/USER1*%
X64820000Y-225540000D03*
%TO.P,P1,37,Pin_37*%
%TO.N,/bus/~{EIRQ4}*%
X62280000Y-223000000D03*
%TO.P,P1,38,Pin_38*%
%TO.N,/bus/USER0*%
X62280000Y-225540000D03*
%TO.P,P1,39,Pin_39*%
%TO.N,/bus/~{EIRQ3}*%
X59740000Y-223000000D03*
%TO.P,P1,40,Pin_40*%
%TO.N,~{BAI}*%
X59740000Y-225540000D03*
%TO.P,P1,41,Pin_41*%
%TO.N,/bus/~{EIRQ2}*%
X57200000Y-223000000D03*
%TO.P,P1,42,Pin_42*%
%TO.N,~{BAO}*%
X57200000Y-225540000D03*
%TO.P,P1,43,Pin_43*%
%TO.N,/bus/~{EIRQ1}*%
X54660000Y-223000000D03*
%TO.P,P1,44,Pin_44*%
%TO.N,~{IEI}*%
X54660000Y-225540000D03*
%TO.P,P1,45,Pin_45*%
%TO.N,/bus/~{EIRQ0}*%
X52120000Y-223000000D03*
%TO.P,P1,46,Pin_46*%
%TO.N,~{IEO}*%
X52120000Y-225540000D03*
%TO.P,P1,47,Pin_47*%
%TO.N,I2C_SCL*%
X49580000Y-223000000D03*
%TO.P,P1,48,Pin_48*%
%TO.N,I2C_SDA*%
X49580000Y-225540000D03*
%TO.P,P1,49,Pin_49*%
%TO.N,GND*%
X47040000Y-223000000D03*
%TO.P,P1,50,Pin_50*%
X47040000Y-225540000D03*
%TD*%
D13*
%TO.P,R7,1*%
%TO.N,Net-(D4-Pad2)*%
X61500000Y-184690000D03*
D14*
%TO.P,R7,2*%
%TO.N,VCC*%
X61500000Y-192310000D03*
%TD*%
D13*
%TO.P,R18,1*%
%TO.N,VCC*%
X123690000Y-135250000D03*
D14*
%TO.P,R18,2*%
%TO.N,/BusMonitor/IN_=*%
X131310000Y-135250000D03*
%TD*%
D15*
%TO.P,SW3,1*%
%TO.N,Net-(C2-Pad2)*%
X126700000Y-145767500D03*
D14*
%TO.P,SW3,2*%
%TO.N,unconnected-(SW3-Pad2)*%
X129240000Y-145767500D03*
%TO.P,SW3,3*%
%TO.N,Net-(SW3-Pad3)*%
X131780000Y-145767500D03*
%TO.P,SW3,4*%
%TO.N,Net-(SW3-Pad4)*%
X134320000Y-145767500D03*
%TO.P,SW3,5*%
%TO.N,Net-(SW3-Pad5)*%
X136860000Y-145767500D03*
%TO.P,SW3,6*%
%TO.N,Net-(SW3-Pad6)*%
X139400000Y-145767500D03*
%TO.P,SW3,7*%
%TO.N,Net-(SW3-Pad7)*%
X141940000Y-145767500D03*
%TO.P,SW3,8*%
%TO.N,Net-(SW3-Pad8)*%
X144480000Y-145767500D03*
%TO.P,SW3,9*%
%TO.N,/BusMonitor/IN_=*%
X144480000Y-138147500D03*
%TO.P,SW3,10*%
X141940000Y-138147500D03*
%TO.P,SW3,11*%
X139400000Y-138147500D03*
%TO.P,SW3,12*%
X136860000Y-138147500D03*
%TO.P,SW3,13*%
X134320000Y-138147500D03*
%TO.P,SW3,14*%
X131780000Y-138147500D03*
%TO.P,SW3,15*%
%TO.N,unconnected-(SW3-Pad15)*%
X129240000Y-138147500D03*
%TO.P,SW3,16*%
%TO.N,/BusMonitor/LED_LATCH*%
X126700000Y-138147500D03*
%TD*%
D13*
%TO.P,C29,1*%
%TO.N,VCC*%
X125600000Y-119750000D03*
%TO.P,C29,2*%
%TO.N,GND*%
X130600000Y-119750000D03*
%TD*%
D16*
%TO.P,D6,1,K*%
%TO.N,Net-(D6-Pad1)*%
X74290000Y-80850000D03*
D17*
%TO.P,D6,2,A*%
%TO.N,Net-(D6-Pad2)*%
X71750000Y-80850000D03*
%TD*%
D18*
%TO.P,BAR4,1,A*%
%TO.N,VCC*%
X125600000Y-96155000D03*
D19*
%TO.P,BAR4,2,A*%
X128140000Y-96155000D03*
%TO.P,BAR4,3,A*%
%TO.N,Net-(BAR4-Pad3)*%
X130680000Y-96155000D03*
%TO.P,BAR4,4,A*%
%TO.N,Net-(BAR4-Pad4)*%
X133220000Y-96155000D03*
%TO.P,BAR4,5,A*%
%TO.N,Net-(BAR4-Pad5)*%
X135760000Y-96155000D03*
%TO.P,BAR4,6,A*%
%TO.N,Net-(BAR4-Pad6)*%
X138300000Y-96155000D03*
%TO.P,BAR4,7,A*%
%TO.N,Net-(BAR4-Pad7)*%
X140840000Y-96155000D03*
%TO.P,BAR4,8,A*%
%TO.N,Net-(BAR4-Pad8)*%
X143380000Y-96155000D03*
%TO.P,BAR4,9,A*%
%TO.N,Net-(BAR4-Pad9)*%
X145920000Y-96155000D03*
%TO.P,BAR4,10,A*%
%TO.N,Net-(BAR4-Pad10)*%
X148460000Y-96155000D03*
%TO.P,BAR4,11,K*%
%TO.N,Net-(BAR4-Pad11)*%
X148460000Y-88535000D03*
%TO.P,BAR4,12,K*%
%TO.N,Net-(BAR4-Pad12)*%
X145920000Y-88535000D03*
%TO.P,BAR4,13,K*%
%TO.N,Net-(BAR4-Pad13)*%
X143380000Y-88535000D03*
%TO.P,BAR4,14,K*%
%TO.N,Net-(BAR4-Pad14)*%
X140840000Y-88535000D03*
%TO.P,BAR4,15,K*%
%TO.N,Net-(BAR4-Pad15)*%
X138300000Y-88535000D03*
%TO.P,BAR4,16,K*%
%TO.N,Net-(BAR4-Pad16)*%
X135760000Y-88535000D03*
%TO.P,BAR4,17,K*%
%TO.N,Net-(BAR4-Pad17)*%
X133220000Y-88535000D03*
%TO.P,BAR4,18,K*%
%TO.N,Net-(BAR4-Pad18)*%
X130680000Y-88535000D03*
%TO.P,BAR4,19,K*%
%TO.N,Net-(BAR4-Pad19)*%
X128140000Y-88535000D03*
%TO.P,BAR4,20,K*%
%TO.N,Net-(BAR4-Pad20)*%
X125600000Y-88535000D03*
%TD*%
D20*
%TO.P,J1,1,Pin_1*%
%TO.N,unconnected-(J1-Pad1)*%
X246400000Y-196500000D03*
D21*
%TO.P,J1,2,Pin_2*%
%TO.N,VCC*%
X246400000Y-199040000D03*
%TO.P,J1,3,Pin_3*%
%TO.N,Net-(J1-Pad3)*%
X243860000Y-196500000D03*
%TO.P,J1,4,Pin_4*%
%TO.N,VCC*%
X243860000Y-199040000D03*
%TO.P,J1,5,Pin_5*%
%TO.N,Net-(J1-Pad5)*%
X241320000Y-196500000D03*
%TO.P,J1,6,Pin_6*%
%TO.N,GND*%
X241320000Y-199040000D03*
%TO.P,J1,7,Pin_7*%
%TO.N,unconnected-(J1-Pad7)*%
X238780000Y-196500000D03*
%TO.P,J1,8,Pin_8*%
%TO.N,Net-(J1-Pad8)*%
X238780000Y-199040000D03*
%TO.P,J1,9,Pin_9*%
%TO.N,GND*%
X236240000Y-196500000D03*
%TO.P,J1,10,Pin_10*%
%TO.N,Net-(J1-Pad10)*%
X236240000Y-199040000D03*
%TO.P,J1,11,Pin_11*%
%TO.N,unconnected-(J1-Pad11)*%
X233700000Y-196500000D03*
%TO.P,J1,12,Pin_12*%
%TO.N,unconnected-(J1-Pad12)*%
X233700000Y-199040000D03*
%TO.P,J1,13,Pin_13*%
%TO.N,unconnected-(J1-Pad13)*%
X231160000Y-196500000D03*
%TO.P,J1,14,Pin_14*%
%TO.N,GND*%
X231160000Y-199040000D03*
%TO.P,J1,15,Pin_15*%
%TO.N,unconnected-(J1-Pad15)*%
X228620000Y-196500000D03*
%TO.P,J1,16,Pin_16*%
%TO.N,unconnected-(J1-Pad16)*%
X228620000Y-199040000D03*
%TO.P,J1,17,Pin_17*%
%TO.N,unconnected-(J1-Pad17)*%
X226080000Y-196500000D03*
%TO.P,J1,18,Pin_18*%
%TO.N,unconnected-(J1-Pad18)*%
X226080000Y-199040000D03*
%TO.P,J1,19,Pin_19*%
%TO.N,unconnected-(J1-Pad19)*%
X223540000Y-196500000D03*
%TO.P,J1,20,Pin_20*%
%TO.N,GND*%
X223540000Y-199040000D03*
%TO.P,J1,21,Pin_21*%
%TO.N,unconnected-(J1-Pad21)*%
X221000000Y-196500000D03*
%TO.P,J1,22,Pin_22*%
%TO.N,unconnected-(J1-Pad22)*%
X221000000Y-199040000D03*
%TO.P,J1,23,Pin_23*%
%TO.N,unconnected-(J1-Pad23)*%
X218460000Y-196500000D03*
%TO.P,J1,24,Pin_24*%
%TO.N,unconnected-(J1-Pad24)*%
X218460000Y-199040000D03*
%TO.P,J1,25,Pin_25*%
%TO.N,GND*%
X215920000Y-196500000D03*
%TO.P,J1,26,Pin_26*%
%TO.N,unconnected-(J1-Pad26)*%
X215920000Y-199040000D03*
%TO.P,J1,27,Pin_27*%
%TO.N,unconnected-(J1-Pad27)*%
X213380000Y-196500000D03*
%TO.P,J1,28,Pin_28*%
%TO.N,unconnected-(J1-Pad28)*%
X213380000Y-199040000D03*
%TO.P,J1,29,Pin_29*%
%TO.N,unconnected-(J1-Pad29)*%
X210840000Y-196500000D03*
%TO.P,J1,30,Pin_30*%
%TO.N,GND*%
X210840000Y-199040000D03*
%TO.P,J1,31,Pin_31*%
%TO.N,unconnected-(J1-Pad31)*%
X208300000Y-196500000D03*
%TO.P,J1,32,Pin_32*%
%TO.N,unconnected-(J1-Pad32)*%
X208300000Y-199040000D03*
%TO.P,J1,33,Pin_33*%
%TO.N,unconnected-(J1-Pad33)*%
X205760000Y-196500000D03*
%TO.P,J1,34,Pin_34*%
%TO.N,GND*%
X205760000Y-199040000D03*
%TO.P,J1,35,Pin_35*%
%TO.N,unconnected-(J1-Pad35)*%
X203220000Y-196500000D03*
%TO.P,J1,36,Pin_36*%
%TO.N,unconnected-(J1-Pad36)*%
X203220000Y-199040000D03*
%TO.P,J1,37,Pin_37*%
%TO.N,unconnected-(J1-Pad37)*%
X200680000Y-196500000D03*
%TO.P,J1,38,Pin_38*%
%TO.N,unconnected-(J1-Pad38)*%
X200680000Y-199040000D03*
%TO.P,J1,39,Pin_39*%
%TO.N,GND*%
X198140000Y-196500000D03*
%TO.P,J1,40,Pin_40*%
%TO.N,unconnected-(J1-Pad40)*%
X198140000Y-199040000D03*
D22*
%TO.P,J1,41,MH*%
%TO.N,unconnected-(J1-Pad41)*%
X251250000Y-197800000D03*
%TO.P,J1,42,MH*%
%TO.N,unconnected-(J1-Pad42)*%
X193250000Y-197800000D03*
%TO.P,J1,43,MH*%
%TO.N,unconnected-(J1-Pad43)*%
X251250000Y-174800000D03*
%TO.P,J1,44,MH*%
%TO.N,unconnected-(J1-Pad44)*%
X193250000Y-174800000D03*
%TD*%
D15*
%TO.P,C15,1*%
%TO.N,Net-(C15-Pad1)*%
X43794900Y-143500000D03*
D13*
%TO.P,C15,2*%
%TO.N,Net-(C15-Pad2)*%
X46294900Y-143500000D03*
%TD*%
%TO.P,C36,1*%
%TO.N,VCC*%
X49000000Y-140250000D03*
%TO.P,C36,2*%
%TO.N,GND*%
X54000000Y-140250000D03*
%TD*%
%TO.P,R2,1*%
%TO.N,TX*%
X167440000Y-180790000D03*
D14*
%TO.P,R2,2*%
%TO.N,TX-3.3*%
X175060000Y-180790000D03*
%TD*%
D15*
%TO.P,U7,1,~{Mr}*%
%TO.N,/BusMonitor/MAS_RESET*%
X125600000Y-130500000D03*
D14*
%TO.P,U7,2,Q0*%
%TO.N,Net-(U11-Pad2)*%
X128140000Y-130500000D03*
%TO.P,U7,3,D0*%
%TO.N,~{WAIT}*%
X130680000Y-130500000D03*
%TO.P,U7,4,D1*%
%TO.N,~{INT0}*%
X133220000Y-130500000D03*
%TO.P,U7,5,Q1*%
%TO.N,Net-(U11-Pad4)*%
X135760000Y-130500000D03*
%TO.P,U7,6,Q2*%
%TO.N,Net-(U11-Pad6)*%
X138300000Y-130500000D03*
%TO.P,U7,7,D2*%
%TO.N,~{WR}*%
X140840000Y-130500000D03*
%TO.P,U7,8,D3*%
%TO.N,~{MREQ}*%
X143380000Y-130500000D03*
%TO.P,U7,9,Q3*%
%TO.N,Net-(U11-Pad8)*%
X145920000Y-130500000D03*
%TO.P,U7,10,GND*%
%TO.N,GND*%
X148460000Y-130500000D03*
%TO.P,U7,11,Cp*%
%TO.N,/BusMonitor/LED_LATCH*%
X148460000Y-122880000D03*
%TO.P,U7,12,Q4*%
%TO.N,Net-(U11-Pad11)*%
X145920000Y-122880000D03*
%TO.P,U7,13,D4*%
%TO.N,~{RD}*%
X143380000Y-122880000D03*
%TO.P,U7,14,D5*%
%TO.N,~{RFSH}*%
X140840000Y-122880000D03*
%TO.P,U7,15,Q5*%
%TO.N,Net-(U11-Pad13)*%
X138300000Y-122880000D03*
%TO.P,U7,16,Q6*%
%TO.N,Net-(U11-Pad15)*%
X135760000Y-122880000D03*
%TO.P,U7,17,D6*%
%TO.N,~{IORQ}*%
X133220000Y-122880000D03*
%TO.P,U7,18,D7*%
%TO.N,~{M1}*%
X130680000Y-122880000D03*
%TO.P,U7,19,Q7*%
%TO.N,Net-(U11-Pad17)*%
X128140000Y-122880000D03*
%TO.P,U7,20,VCC*%
%TO.N,VCC*%
X125600000Y-122880000D03*
%TD*%
D15*
%TO.P,C22,1*%
%TO.N,VCC*%
X148044900Y-180000000D03*
D13*
%TO.P,C22,2*%
%TO.N,GND*%
X150544900Y-180000000D03*
%TD*%
%TO.P,C10,1*%
%TO.N,VCC*%
X142900000Y-182940000D03*
%TO.P,C10,2*%
%TO.N,GND*%
X137900000Y-182940000D03*
%TD*%
D15*
%TO.P,C34,1*%
%TO.N,Net-(C34-Pad1)*%
X70794900Y-130500000D03*
D13*
%TO.P,C34,2*%
%TO.N,Net-(C34-Pad2)*%
X73294900Y-130500000D03*
%TD*%
D20*
%TO.P,J2,1,Pin_1*%
%TO.N,I2C_SDA*%
X176700000Y-174720000D03*
D21*
%TO.P,J2,2,Pin_2*%
%TO.N,Net-(J1-Pad3)*%
X179240000Y-174720000D03*
%TO.P,J2,3,Pin_3*%
%TO.N,Net-(J1-Pad5)*%
X181780000Y-174720000D03*
%TO.P,J2,4,Pin_4*%
%TO.N,I2C_SCL*%
X184320000Y-174720000D03*
%TD*%
D15*
%TO.P,U24,1*%
%TO.N,~{RESET}*%
X88225000Y-130500000D03*
D14*
%TO.P,U24,2*%
%TO.N,/BusMonitor/MAS_RESET*%
X90765000Y-130500000D03*
%TO.P,U24,3*%
%TO.N,Net-(U23-Pad8)*%
X93305000Y-130500000D03*
%TO.P,U24,4*%
%TO.N,/BusMonitor/LED_LATCH*%
X95845000Y-130500000D03*
%TO.P,U24,5*%
%TO.N,Net-(U22-Pad3)*%
X98385000Y-130500000D03*
%TO.P,U24,6*%
%TO.N,/BusMonitor/WAIT_ACTIVE*%
X100925000Y-130500000D03*
%TO.P,U24,7,GND*%
%TO.N,GND*%
X103465000Y-130500000D03*
%TO.P,U24,8*%
%TO.N,/BusMonitor/FF_2_OUT*%
X103465000Y-122880000D03*
%TO.P,U24,9*%
%TO.N,Net-(U22-Pad6)*%
X100925000Y-122880000D03*
%TO.P,U24,10*%
%TO.N,/BusMonitor/FF_3_OUT*%
X98385000Y-122880000D03*
%TO.P,U24,11*%
%TO.N,Net-(U22-Pad8)*%
X95845000Y-122880000D03*
%TO.P,U24,12*%
%TO.N,/BusMonitor/FF_4_OUT*%
X93305000Y-122880000D03*
%TO.P,U24,13*%
%TO.N,Net-(U22-Pad11)*%
X90765000Y-122880000D03*
%TO.P,U24,14,VCC*%
%TO.N,VCC*%
X88225000Y-122880000D03*
%TD*%
D16*
%TO.P,D1,1,K*%
%TO.N,GND*%
X49250000Y-80850000D03*
D17*
%TO.P,D1,2,A*%
%TO.N,Net-(D1-Pad2)*%
X46710000Y-80850000D03*
%TD*%
D13*
%TO.P,C14,1*%
%TO.N,VCC*%
X160425000Y-196650000D03*
%TO.P,C14,2*%
%TO.N,GND*%
X165425000Y-196650000D03*
%TD*%
%TO.P,C7,1*%
%TO.N,VCC*%
X162450000Y-103000000D03*
%TO.P,C7,2*%
%TO.N,GND*%
X167450000Y-103000000D03*
%TD*%
%TO.P,R25,1*%
%TO.N,Net-(C33-Pad1)*%
X66000000Y-140250000D03*
D14*
%TO.P,R25,2*%
%TO.N,VCC*%
X73620000Y-140250000D03*
%TD*%
D15*
%TO.P,C20,1*%
%TO.N,VCC*%
X193000000Y-218500000D03*
D13*
%TO.P,C20,2*%
%TO.N,GND*%
X195500000Y-218500000D03*
%TD*%
D15*
%TO.P,RR8,1,common*%
%TO.N,GND*%
X199825000Y-134250000D03*
D14*
%TO.P,RR8,2,R1*%
%TO.N,/BusMonitor/H_A7*%
X202365000Y-134250000D03*
%TO.P,RR8,3,R2*%
%TO.N,/BusMonitor/H_A6*%
X204905000Y-134250000D03*
%TO.P,RR8,4,R3*%
%TO.N,/BusMonitor/H_A5*%
X207445000Y-134250000D03*
%TO.P,RR8,5,R4*%
%TO.N,/BusMonitor/H_A4*%
X209985000Y-134250000D03*
%TO.P,RR8,6,R5*%
%TO.N,/BusMonitor/H_A3*%
X212525000Y-134250000D03*
%TO.P,RR8,7,R6*%
%TO.N,/BusMonitor/H_A2*%
X215065000Y-134250000D03*
%TO.P,RR8,8,R7*%
%TO.N,/BusMonitor/H_A1*%
X217605000Y-134250000D03*
%TO.P,RR8,9,R8*%
%TO.N,/BusMonitor/H_A0*%
X220145000Y-134250000D03*
%TD*%
D15*
%TO.P,U20,1,B3*%
%TO.N,A13*%
X88100000Y-167000000D03*
D14*
%TO.P,U20,2,Ia<b*%
%TO.N,GND*%
X90640000Y-167000000D03*
%TO.P,U20,3,Ia=b*%
%TO.N,/BusMonitor/IN_=*%
X93180000Y-167000000D03*
%TO.P,U20,4,Ia>b*%
%TO.N,GND*%
X95720000Y-167000000D03*
%TO.P,U20,5,Oa>b*%
%TO.N,unconnected-(U20-Pad5)*%
X98260000Y-167000000D03*
%TO.P,U20,6,Oa=b*%
%TO.N,/BusMonitor/H4_OUT_=*%
X100800000Y-167000000D03*
%TO.P,U20,7,Oa<b*%
%TO.N,unconnected-(U20-Pad7)*%
X103340000Y-167000000D03*
%TO.P,U20,8,GND*%
%TO.N,GND*%
X105880000Y-167000000D03*
%TO.P,U20,9,B0*%
%TO.N,A15*%
X105880000Y-159380000D03*
%TO.P,U20,10,A0*%
%TO.N,/BusMonitor/H_A15*%
X103340000Y-159380000D03*
%TO.P,U20,11,B1*%
%TO.N,/BusMonitor/H_A14*%
X100800000Y-159380000D03*
%TO.P,U20,12,A1*%
%TO.N,A14*%
X98260000Y-159380000D03*
%TO.P,U20,13,A2*%
%TO.N,/BusMonitor/H_A12*%
X95720000Y-159380000D03*
%TO.P,U20,14,B2*%
%TO.N,A12*%
X93180000Y-159380000D03*
%TO.P,U20,15,A3*%
%TO.N,/BusMonitor/H_A13*%
X90640000Y-159380000D03*
%TO.P,U20,16,VCC*%
%TO.N,VCC*%
X88100000Y-159380000D03*
%TD*%
D15*
%TO.P,U23,1*%
%TO.N,/BusMonitor/S2_1*%
X238625000Y-166800000D03*
D14*
%TO.P,U23,2*%
%TO.N,/BusMonitor/S2_2*%
X241165000Y-166800000D03*
%TO.P,U23,3*%
%TO.N,/BusMonitor/S2_3*%
X243705000Y-166800000D03*
%TO.P,U23,4*%
%TO.N,/BusMonitor/S2_4*%
X246245000Y-166800000D03*
%TO.P,U23,5*%
%TO.N,/BusMonitor/S2_5*%
X248785000Y-166800000D03*
%TO.P,U23,6*%
%TO.N,/BusMonitor/S2_6*%
X251325000Y-166800000D03*
%TO.P,U23,7,GND*%
%TO.N,GND*%
X253865000Y-166800000D03*
%TO.P,U23,8*%
%TO.N,Net-(U23-Pad8)*%
X253865000Y-159180000D03*
%TO.P,U23,9*%
%TO.N,N/C*%
X251325000Y-159180000D03*
%TO.P,U23,10*%
X248785000Y-159180000D03*
%TO.P,U23,11*%
%TO.N,/BusMonitor/S2_7*%
X246245000Y-159180000D03*
%TO.P,U23,12*%
%TO.N,/BusMonitor/S2_8*%
X243705000Y-159180000D03*
%TO.P,U23,13*%
%TO.N,N/C*%
X241165000Y-159180000D03*
%TO.P,U23,14,VCC*%
%TO.N,VCC*%
X238625000Y-159180000D03*
%TD*%
D23*
%TO.P,NT3,1,1*%
%TO.N,/BusMonitor/WAIT_ACTIVE*%
X108350000Y-145650000D03*
%TO.P,NT3,2,2*%
%TO.N,/BusMonitor/FF_1_OUT*%
X108350000Y-146850000D03*
%TD*%
D15*
%TO.P,U21,1,G*%
%TO.N,~{bIORQ}*%
X160250000Y-207450000D03*
D14*
%TO.P,U21,2,P0*%
%TO.N,~{bM1}*%
X162790000Y-207450000D03*
%TO.P,U21,3,R0*%
%TO.N,Net-(RN1-Pad9)*%
X165330000Y-207450000D03*
%TO.P,U21,4,P1*%
X167870000Y-207450000D03*
%TO.P,U21,5,R1*%
X170410000Y-207450000D03*
%TO.P,U21,6,P2*%
X172950000Y-207450000D03*
%TO.P,U21,7,R2*%
X175490000Y-207450000D03*
%TO.P,U21,8,P3*%
%TO.N,bA3*%
X178030000Y-207450000D03*
%TO.P,U21,9,R3*%
%TO.N,Net-(RN1-Pad6)*%
X180570000Y-207450000D03*
%TO.P,U21,10,GND*%
%TO.N,GND*%
X183110000Y-207450000D03*
%TO.P,U21,11,P4*%
%TO.N,bA4*%
X183110000Y-199830000D03*
%TO.P,U21,12,R4*%
%TO.N,Net-(RN1-Pad5)*%
X180570000Y-199830000D03*
%TO.P,U21,13,P5*%
%TO.N,bA5*%
X178030000Y-199830000D03*
%TO.P,U21,14,R5*%
%TO.N,Net-(RN1-Pad4)*%
X175490000Y-199830000D03*
%TO.P,U21,15,P6*%
%TO.N,bA6*%
X172950000Y-199830000D03*
%TO.P,U21,16,R6*%
%TO.N,Net-(RN1-Pad3)*%
X170410000Y-199830000D03*
%TO.P,U21,17,P7*%
%TO.N,bA7*%
X167870000Y-199830000D03*
%TO.P,U21,18,R7*%
%TO.N,Net-(RN1-Pad2)*%
X165330000Y-199830000D03*
%TO.P,U21,19,P=R*%
%TO.N,~{CS-UART}*%
X162790000Y-199830000D03*
%TO.P,U21,20,VCC*%
%TO.N,VCC*%
X160250000Y-199830000D03*
%TD*%
D15*
%TO.P,U4,1,~{Mr}*%
%TO.N,/BusMonitor/MAS_RESET*%
X236927500Y-130500000D03*
D14*
%TO.P,U4,2,Q0*%
%TO.N,Net-(U4-Pad2)*%
X239467500Y-130500000D03*
%TO.P,U4,3,D0*%
%TO.N,D7*%
X242007500Y-130500000D03*
%TO.P,U4,4,D1*%
%TO.N,D6*%
X244547500Y-130500000D03*
%TO.P,U4,5,Q1*%
%TO.N,Net-(U4-Pad5)*%
X247087500Y-130500000D03*
%TO.P,U4,6,Q2*%
%TO.N,Net-(U4-Pad6)*%
X249627500Y-130500000D03*
%TO.P,U4,7,D2*%
%TO.N,D5*%
X252167500Y-130500000D03*
%TO.P,U4,8,D3*%
%TO.N,D4*%
X254707500Y-130500000D03*
%TO.P,U4,9,Q3*%
%TO.N,Net-(U4-Pad9)*%
X257247500Y-130500000D03*
%TO.P,U4,10,GND*%
%TO.N,GND*%
X259787500Y-130500000D03*
%TO.P,U4,11,Cp*%
%TO.N,/BusMonitor/LED_LATCH*%
X259787500Y-122880000D03*
%TO.P,U4,12,Q4*%
%TO.N,Net-(U4-Pad12)*%
X257247500Y-122880000D03*
%TO.P,U4,13,D4*%
%TO.N,D3*%
X254707500Y-122880000D03*
%TO.P,U4,14,D5*%
%TO.N,D2*%
X252167500Y-122880000D03*
%TO.P,U4,15,Q5*%
%TO.N,Net-(U4-Pad15)*%
X249627500Y-122880000D03*
%TO.P,U4,16,Q6*%
%TO.N,Net-(U4-Pad16)*%
X247087500Y-122880000D03*
%TO.P,U4,17,D6*%
%TO.N,D1*%
X244547500Y-122880000D03*
%TO.P,U4,18,D7*%
%TO.N,D0*%
X242007500Y-122880000D03*
%TO.P,U4,19,Q7*%
%TO.N,Net-(U4-Pad19)*%
X239467500Y-122880000D03*
%TO.P,U4,20,VCC*%
%TO.N,VCC*%
X236927500Y-122880000D03*
%TD*%
D13*
%TO.P,C3,1*%
%TO.N,VCC*%
X238750000Y-156000000D03*
%TO.P,C3,2*%
%TO.N,GND*%
X243750000Y-156000000D03*
%TD*%
%TO.P,R24,1*%
%TO.N,Net-(C32-Pad2)*%
X65940000Y-103250000D03*
D14*
%TO.P,R24,2*%
%TO.N,VCC*%
X73560000Y-103250000D03*
%TD*%
D13*
%TO.P,C9,1*%
%TO.N,VCC*%
X196125000Y-204550000D03*
%TO.P,C9,2*%
%TO.N,GND*%
X196125000Y-209550000D03*
%TD*%
D15*
%TO.P,SW2,1*%
%TO.N,/BusMonitor/H4_OUT_=*%
X237850000Y-146017500D03*
D14*
%TO.P,SW2,2*%
%TO.N,/BusMonitor/H3_OUT_=*%
X240390000Y-146017500D03*
%TO.P,SW2,3*%
%TO.N,/BusMonitor/H2_OUT_=*%
X242930000Y-146017500D03*
%TO.P,SW2,4*%
%TO.N,/BusMonitor/H1_OUT_=*%
X245470000Y-146017500D03*
%TO.P,SW2,5*%
%TO.N,/BusMonitor/IN_=*%
X248010000Y-146017500D03*
%TO.P,SW2,6*%
%TO.N,unconnected-(SW2-Pad6)*%
X250550000Y-146017500D03*
%TO.P,SW2,7*%
%TO.N,unconnected-(SW2-Pad7)*%
X253090000Y-146017500D03*
%TO.P,SW2,8*%
%TO.N,unconnected-(SW2-Pad8)*%
X255630000Y-146017500D03*
%TO.P,SW2,9*%
%TO.N,/BusMonitor/S2_8*%
X255630000Y-138397500D03*
%TO.P,SW2,10*%
%TO.N,/BusMonitor/S2_7*%
X253090000Y-138397500D03*
%TO.P,SW2,11*%
%TO.N,/BusMonitor/S2_6*%
X250550000Y-138397500D03*
%TO.P,SW2,12*%
%TO.N,/BusMonitor/S2_5*%
X248010000Y-138397500D03*
%TO.P,SW2,13*%
%TO.N,/BusMonitor/S2_4*%
X245470000Y-138397500D03*
%TO.P,SW2,14*%
%TO.N,/BusMonitor/S2_3*%
X242930000Y-138397500D03*
%TO.P,SW2,15*%
%TO.N,/BusMonitor/S2_2*%
X240390000Y-138397500D03*
%TO.P,SW2,16*%
%TO.N,/BusMonitor/S2_1*%
X237850000Y-138397500D03*
%TD*%
D13*
%TO.P,C37,1*%
%TO.N,VCC*%
X88350000Y-119750000D03*
%TO.P,C37,2*%
%TO.N,GND*%
X93350000Y-119750000D03*
%TD*%
D20*
%TO.P,J9,1,Pin_1*%
%TO.N,~{RES_IN}*%
X94975000Y-219000000D03*
D21*
%TO.P,J9,2,Pin_2*%
%TO.N,~{RESET}*%
X97515000Y-219000000D03*
%TO.P,J9,3,Pin_3*%
%TO.N,~{RES_OUT}*%
X100055000Y-219000000D03*
%TD*%
D13*
%TO.P,R1,1*%
%TO.N,Net-(D1-Pad2)*%
X49000000Y-184690000D03*
D14*
%TO.P,R1,2*%
%TO.N,VCC*%
X49000000Y-192310000D03*
%TD*%
D15*
%TO.P,U18,1,B3*%
%TO.N,A4*%
X162600000Y-166800000D03*
D14*
%TO.P,U18,2,Ia<b*%
%TO.N,GND*%
X165140000Y-166800000D03*
%TO.P,U18,3,Ia=b*%
%TO.N,/BusMonitor/IN_=*%
X167680000Y-166800000D03*
%TO.P,U18,4,Ia>b*%
%TO.N,GND*%
X170220000Y-166800000D03*
%TO.P,U18,5,Oa>b*%
%TO.N,unconnected-(U18-Pad5)*%
X172760000Y-166800000D03*
%TO.P,U18,6,Oa=b*%
%TO.N,/BusMonitor/H2_OUT_=*%
X175300000Y-166800000D03*
%TO.P,U18,7,Oa<b*%
%TO.N,unconnected-(U18-Pad7)*%
X177840000Y-166800000D03*
%TO.P,U18,8,GND*%
%TO.N,GND*%
X180380000Y-166800000D03*
%TO.P,U18,9,B0*%
%TO.N,A6*%
X180380000Y-159180000D03*
%TO.P,U18,10,A0*%
%TO.N,/BusMonitor/H_A6*%
X177840000Y-159180000D03*
%TO.P,U18,11,B1*%
%TO.N,A7*%
X175300000Y-159180000D03*
%TO.P,U18,12,A1*%
%TO.N,/BusMonitor/H_A7*%
X172760000Y-159180000D03*
%TO.P,U18,13,A2*%
%TO.N,/BusMonitor/H_A5*%
X170220000Y-159180000D03*
%TO.P,U18,14,B2*%
%TO.N,A5*%
X167680000Y-159180000D03*
%TO.P,U18,15,A3*%
%TO.N,/BusMonitor/H_A4*%
X165140000Y-159180000D03*
%TO.P,U18,16,VCC*%
%TO.N,VCC*%
X162600000Y-159180000D03*
%TD*%
D15*
%TO.P,U12,1,OEa*%
%TO.N,GND*%
X88322500Y-114100000D03*
D14*
%TO.P,U12,2,I0a*%
%TO.N,/BusMonitor/H4_LED*%
X90862500Y-114100000D03*
%TO.P,U12,3,O3b*%
%TO.N,Net-(BAR5-Pad10)*%
X93402500Y-114100000D03*
%TO.P,U12,4,I1a*%
%TO.N,/BusMonitor/H3_LED*%
X95942500Y-114100000D03*
%TO.P,U12,5,O2b*%
%TO.N,Net-(BAR5-Pad9)*%
X98482500Y-114100000D03*
%TO.P,U12,6,I2a*%
%TO.N,/BusMonitor/H2_LED*%
X101022500Y-114100000D03*
%TO.P,U12,7,O1b*%
%TO.N,Net-(BAR5-Pad8)*%
X103562500Y-114100000D03*
%TO.P,U12,8,I3a*%
%TO.N,/BusMonitor/H1_LED*%
X106102500Y-114100000D03*
%TO.P,U12,9,O0b*%
%TO.N,Net-(BAR5-Pad7)*%
X108642500Y-114100000D03*
%TO.P,U12,10,GND*%
%TO.N,GND*%
X111182500Y-114100000D03*
%TO.P,U12,11,I0b*%
%TO.N,/BusMonitor/IN_=*%
X111182500Y-106480000D03*
%TO.P,U12,12,O3a*%
%TO.N,Net-(BAR5-Pad6)*%
X108642500Y-106480000D03*
%TO.P,U12,13,I1b*%
%TO.N,/BusMonitor/WAIT_ACTIVE*%
X106102500Y-106480000D03*
%TO.P,U12,14,O2a*%
%TO.N,Net-(BAR5-Pad5)*%
X103562500Y-106480000D03*
%TO.P,U12,15,I2b*%
%TO.N,/BusMonitor/FF_4_OUT*%
X101022500Y-106480000D03*
%TO.P,U12,16,O1a*%
%TO.N,Net-(BAR5-Pad4)*%
X98482500Y-106480000D03*
%TO.P,U12,17,I3b*%
%TO.N,/BusMonitor/DATA_OVER*%
X95942500Y-106480000D03*
%TO.P,U12,18,O0a*%
%TO.N,Net-(BAR5-Pad3)*%
X93402500Y-106480000D03*
%TO.P,U12,19,OEb*%
%TO.N,VCC*%
X90862500Y-106480000D03*
%TO.P,U12,20,VCC*%
X88322500Y-106480000D03*
%TD*%
D15*
%TO.P,U10,1,OEa*%
%TO.N,GND*%
X162422500Y-113900000D03*
D14*
%TO.P,U10,2,I0a*%
%TO.N,Net-(U10-Pad2)*%
X164962500Y-113900000D03*
%TO.P,U10,3,O3b*%
%TO.N,Net-(BAR3-Pad10)*%
X167502500Y-113900000D03*
%TO.P,U10,4,I1a*%
%TO.N,Net-(U10-Pad4)*%
X170042500Y-113900000D03*
%TO.P,U10,5,O2b*%
%TO.N,Net-(BAR3-Pad9)*%
X172582500Y-113900000D03*
%TO.P,U10,6,I2a*%
%TO.N,Net-(U10-Pad6)*%
X175122500Y-113900000D03*
%TO.P,U10,7,O1b*%
%TO.N,Net-(BAR3-Pad8)*%
X177662500Y-113900000D03*
%TO.P,U10,8,I3a*%
%TO.N,Net-(U10-Pad8)*%
X180202500Y-113900000D03*
%TO.P,U10,9,O0b*%
%TO.N,Net-(BAR3-Pad7)*%
X182742500Y-113900000D03*
%TO.P,U10,10,GND*%
%TO.N,GND*%
X185282500Y-113900000D03*
%TO.P,U10,11,I0b*%
%TO.N,Net-(U10-Pad11)*%
X185282500Y-106280000D03*
%TO.P,U10,12,O3a*%
%TO.N,Net-(BAR3-Pad6)*%
X182742500Y-106280000D03*
%TO.P,U10,13,I1b*%
%TO.N,Net-(U10-Pad13)*%
X180202500Y-106280000D03*
%TO.P,U10,14,O2a*%
%TO.N,Net-(BAR3-Pad5)*%
X177662500Y-106280000D03*
%TO.P,U10,15,I2b*%
%TO.N,Net-(U10-Pad15)*%
X175122500Y-106280000D03*
%TO.P,U10,16,O1a*%
%TO.N,Net-(BAR3-Pad4)*%
X172582500Y-106280000D03*
%TO.P,U10,17,I3b*%
%TO.N,Net-(U10-Pad17)*%
X170042500Y-106280000D03*
%TO.P,U10,18,O0a*%
%TO.N,Net-(BAR3-Pad3)*%
X167502500Y-106280000D03*
%TO.P,U10,19,OEb*%
%TO.N,VCC*%
X164962500Y-106280000D03*
%TO.P,U10,20,VCC*%
X162422500Y-106280000D03*
%TD*%
D13*
%TO.P,C19,1*%
%TO.N,VCC*%
X200500000Y-119750000D03*
%TO.P,C19,2*%
%TO.N,GND*%
X205500000Y-119750000D03*
%TD*%
%TO.P,R19,1*%
%TO.N,VCC*%
X133690000Y-135250000D03*
D14*
%TO.P,R19,2*%
%TO.N,/BusMonitor/WAIT_LOGIC*%
X141310000Y-135250000D03*
%TD*%
D13*
%TO.P,C6,1*%
%TO.N,VCC*%
X125600000Y-103250000D03*
%TO.P,C6,2*%
%TO.N,GND*%
X130600000Y-103250000D03*
%TD*%
D15*
%TO.P,U14,1,A->B*%
%TO.N,~{RD}*%
X227250000Y-212050000D03*
D14*
%TO.P,U14,2,A0*%
%TO.N,D0*%
X229790000Y-212050000D03*
%TO.P,U14,3,A1*%
%TO.N,D1*%
X232330000Y-212050000D03*
%TO.P,U14,4,A2*%
%TO.N,D2*%
X234870000Y-212050000D03*
%TO.P,U14,5,A3*%
%TO.N,D3*%
X237410000Y-212050000D03*
%TO.P,U14,6,A4*%
%TO.N,D4*%
X239950000Y-212050000D03*
%TO.P,U14,7,A5*%
%TO.N,D5*%
X242490000Y-212050000D03*
%TO.P,U14,8,A6*%
%TO.N,D6*%
X245030000Y-212050000D03*
%TO.P,U14,9,A7*%
%TO.N,D7*%
X247570000Y-212050000D03*
%TO.P,U14,10,GND*%
%TO.N,GND*%
X250110000Y-212050000D03*
%TO.P,U14,11,B7*%
%TO.N,bD7*%
X250110000Y-204430000D03*
%TO.P,U14,12,B6*%
%TO.N,bD6*%
X247570000Y-204430000D03*
%TO.P,U14,13,B5*%
%TO.N,bD5*%
X245030000Y-204430000D03*
%TO.P,U14,14,B4*%
%TO.N,bD4*%
X242490000Y-204430000D03*
%TO.P,U14,15,B3*%
%TO.N,bD3*%
X239950000Y-204430000D03*
%TO.P,U14,16,B2*%
%TO.N,bD2*%
X237410000Y-204430000D03*
%TO.P,U14,17,B1*%
%TO.N,bD1*%
X234870000Y-204430000D03*
%TO.P,U14,18,B0*%
%TO.N,bD0*%
X232330000Y-204430000D03*
%TO.P,U14,19,CE*%
%TO.N,~{CS-UART}*%
X229790000Y-204430000D03*
%TO.P,U14,20,VCC*%
%TO.N,VCC*%
X227250000Y-204430000D03*
%TD*%
D15*
%TO.P,RR9,1,common*%
%TO.N,GND*%
X162075000Y-134000000D03*
D14*
%TO.P,RR9,2,R1*%
%TO.N,/BusMonitor/H_A15*%
X164615000Y-134000000D03*
%TO.P,RR9,3,R2*%
%TO.N,/BusMonitor/H_A14*%
X167155000Y-134000000D03*
%TO.P,RR9,4,R3*%
%TO.N,/BusMonitor/H_A13*%
X169695000Y-134000000D03*
%TO.P,RR9,5,R4*%
%TO.N,/BusMonitor/H_A12*%
X172235000Y-134000000D03*
%TO.P,RR9,6,R5*%
%TO.N,/BusMonitor/H_A11*%
X174775000Y-134000000D03*
%TO.P,RR9,7,R6*%
%TO.N,/BusMonitor/H_A10*%
X177315000Y-134000000D03*
%TO.P,RR9,8,R7*%
%TO.N,/BusMonitor/H_A9*%
X179855000Y-134000000D03*
%TO.P,RR9,9,R8*%
%TO.N,/BusMonitor/H_A8*%
X182395000Y-134000000D03*
%TD*%
D20*
%TO.P,P7,1,Pin_1*%
%TO.N,~{IEO}*%
X51950000Y-219000000D03*
D21*
%TO.P,P7,2,Pin_2*%
%TO.N,~{IEI}*%
X54490000Y-219000000D03*
%TO.P,P7,3,Pin_3*%
%TO.N,~{BAO}*%
X57030000Y-219000000D03*
%TO.P,P7,4,Pin_4*%
%TO.N,~{BAI}*%
X59570000Y-219000000D03*
%TD*%
D15*
%TO.P,SW_HEX_3_1,1*%
%TO.N,/BusMonitor/H_A15*%
X163550000Y-145567500D03*
D14*
%TO.P,SW_HEX_3_1,2*%
%TO.N,/BusMonitor/H_A14*%
X166090000Y-145567500D03*
%TO.P,SW_HEX_3_1,3*%
%TO.N,/BusMonitor/H_A13*%
X168630000Y-145567500D03*
%TO.P,SW_HEX_3_1,4*%
%TO.N,/BusMonitor/H_A12*%
X171170000Y-145567500D03*
%TO.P,SW_HEX_3_1,5*%
%TO.N,/BusMonitor/H_A11*%
X173710000Y-145567500D03*
%TO.P,SW_HEX_3_1,6*%
%TO.N,/BusMonitor/H_A10*%
X176250000Y-145567500D03*
%TO.P,SW_HEX_3_1,7*%
%TO.N,/BusMonitor/H_A9*%
X178790000Y-145567500D03*
%TO.P,SW_HEX_3_1,8*%
%TO.N,/BusMonitor/H_A8*%
X181330000Y-145567500D03*
%TO.P,SW_HEX_3_1,9*%
%TO.N,VCC*%
X181330000Y-137947500D03*
%TO.P,SW_HEX_3_1,10*%
X178790000Y-137947500D03*
%TO.P,SW_HEX_3_1,11*%
X176250000Y-137947500D03*
%TO.P,SW_HEX_3_1,12*%
X173710000Y-137947500D03*
%TO.P,SW_HEX_3_1,13*%
X171170000Y-137947500D03*
%TO.P,SW_HEX_3_1,14*%
X168630000Y-137947500D03*
%TO.P,SW_HEX_3_1,15*%
X166090000Y-137947500D03*
%TO.P,SW_HEX_3_1,16*%
X163550000Y-137947500D03*
%TD*%
D24*
%TO.P,D2,1,K*%
%TO.N,/BusMonitor/FF_2_OUT*%
X109600000Y-122890000D03*
D25*
%TO.P,D2,2,A*%
%TO.N,~{WAIT}*%
X109600000Y-130510000D03*
%TD*%
D15*
%TO.P,RR2,1,common*%
%TO.N,GND*%
X202675000Y-84155000D03*
D14*
%TO.P,RR2,2,R1*%
%TO.N,Net-(BAR2-Pad18)*%
X205215000Y-84155000D03*
%TO.P,RR2,3,R2*%
%TO.N,Net-(BAR2-Pad17)*%
X207755000Y-84155000D03*
%TO.P,RR2,4,R3*%
%TO.N,Net-(BAR2-Pad16)*%
X210295000Y-84155000D03*
%TO.P,RR2,5,R4*%
%TO.N,Net-(BAR2-Pad15)*%
X212835000Y-84155000D03*
%TO.P,RR2,6,R5*%
%TO.N,Net-(BAR2-Pad14)*%
X215375000Y-84155000D03*
%TO.P,RR2,7,R6*%
%TO.N,Net-(BAR2-Pad13)*%
X217915000Y-84155000D03*
%TO.P,RR2,8,R7*%
%TO.N,Net-(BAR2-Pad12)*%
X220455000Y-84155000D03*
%TO.P,RR2,9,R8*%
%TO.N,Net-(BAR2-Pad11)*%
X222995000Y-84155000D03*
%TD*%
D13*
%TO.P,C18,1*%
%TO.N,VCC*%
X85000000Y-106500000D03*
%TO.P,C18,2*%
%TO.N,GND*%
X85000000Y-111500000D03*
%TD*%
%TO.P,R4,1*%
%TO.N,~{bRESET}*%
X157440000Y-180790000D03*
D14*
%TO.P,R4,2*%
%TO.N,Net-(Q1-Pad2)*%
X165060000Y-180790000D03*
%TD*%
D18*
%TO.P,BAR1,1,A*%
%TO.N,VCC*%
X236927500Y-96155000D03*
D19*
%TO.P,BAR1,2,A*%
X239467500Y-96155000D03*
%TO.P,BAR1,3,A*%
%TO.N,Net-(BAR1-Pad3)*%
X242007500Y-96155000D03*
%TO.P,BAR1,4,A*%
%TO.N,Net-(BAR1-Pad4)*%
X244547500Y-96155000D03*
%TO.P,BAR1,5,A*%
%TO.N,Net-(BAR1-Pad5)*%
X247087500Y-96155000D03*
%TO.P,BAR1,6,A*%
%TO.N,Net-(BAR1-Pad6)*%
X249627500Y-96155000D03*
%TO.P,BAR1,7,A*%
%TO.N,Net-(BAR1-Pad7)*%
X252167500Y-96155000D03*
%TO.P,BAR1,8,A*%
%TO.N,Net-(BAR1-Pad8)*%
X254707500Y-96155000D03*
%TO.P,BAR1,9,A*%
%TO.N,Net-(BAR1-Pad9)*%
X257247500Y-96155000D03*
%TO.P,BAR1,10,A*%
%TO.N,Net-(BAR1-Pad10)*%
X259787500Y-96155000D03*
%TO.P,BAR1,11,K*%
%TO.N,Net-(BAR1-Pad11)*%
X259787500Y-88535000D03*
%TO.P,BAR1,12,K*%
%TO.N,Net-(BAR1-Pad12)*%
X257247500Y-88535000D03*
%TO.P,BAR1,13,K*%
%TO.N,Net-(BAR1-Pad13)*%
X254707500Y-88535000D03*
%TO.P,BAR1,14,K*%
%TO.N,Net-(BAR1-Pad14)*%
X252167500Y-88535000D03*
%TO.P,BAR1,15,K*%
%TO.N,Net-(BAR1-Pad15)*%
X249627500Y-88535000D03*
%TO.P,BAR1,16,K*%
%TO.N,Net-(BAR1-Pad16)*%
X247087500Y-88535000D03*
%TO.P,BAR1,17,K*%
%TO.N,Net-(BAR1-Pad17)*%
X244547500Y-88535000D03*
%TO.P,BAR1,18,K*%
%TO.N,Net-(BAR1-Pad18)*%
X242007500Y-88535000D03*
%TO.P,BAR1,19,K*%
%TO.N,Net-(BAR1-Pad19)*%
X239467500Y-88535000D03*
%TO.P,BAR1,20,K*%
%TO.N,Net-(BAR1-Pad20)*%
X236927500Y-88535000D03*
%TD*%
D15*
%TO.P,C16,1*%
%TO.N,Net-(C16-Pad1)*%
X43544900Y-123000000D03*
D13*
%TO.P,C16,2*%
%TO.N,Net-(C16-Pad2)*%
X46044900Y-123000000D03*
%TD*%
D15*
%TO.P,U22,1*%
%TO.N,/BusMonitor/WAIT_LOGIC*%
X88225000Y-146050000D03*
D14*
%TO.P,U22,2*%
%TO.N,/BusMonitor/FF_2_OUT*%
X90765000Y-146050000D03*
%TO.P,U22,3*%
%TO.N,Net-(U22-Pad3)*%
X93305000Y-146050000D03*
%TO.P,U22,4*%
%TO.N,/BusMonitor/WAIT_ACTIVE*%
X95845000Y-146050000D03*
%TO.P,U22,5*%
%TO.N,/BusMonitor/WAIT_FF*%
X98385000Y-146050000D03*
%TO.P,U22,6*%
%TO.N,Net-(U22-Pad6)*%
X100925000Y-146050000D03*
%TO.P,U22,7,GND*%
%TO.N,GND*%
X103465000Y-146050000D03*
%TO.P,U22,8*%
%TO.N,Net-(U22-Pad8)*%
X103465000Y-138430000D03*
%TO.P,U22,9*%
%TO.N,/BusMonitor/FF_4_OUT*%
X100925000Y-138430000D03*
%TO.P,U22,10*%
X98385000Y-138430000D03*
%TO.P,U22,11*%
%TO.N,Net-(U22-Pad11)*%
X95845000Y-138430000D03*
%TO.P,U22,12*%
%TO.N,/BusMonitor/FF_3_OUT*%
X93305000Y-138430000D03*
%TO.P,U22,13*%
X90765000Y-138430000D03*
%TO.P,U22,14,VCC*%
%TO.N,VCC*%
X88225000Y-138430000D03*
%TD*%
D13*
%TO.P,C28,1*%
%TO.N,VCC*%
X88350000Y-135250000D03*
%TO.P,C28,2*%
%TO.N,GND*%
X93350000Y-135250000D03*
%TD*%
%TO.P,R21,1*%
%TO.N,Net-(C13-Pad1)*%
X56130000Y-103250000D03*
D14*
%TO.P,R21,2*%
%TO.N,VCC*%
X63750000Y-103250000D03*
%TD*%
D13*
%TO.P,R14,1*%
%TO.N,~{IEI}*%
X49750000Y-88690000D03*
D14*
%TO.P,R14,2*%
%TO.N,Net-(BAR1-Pad19)*%
X49750000Y-96310000D03*
%TD*%
D13*
%TO.P,C26,1*%
%TO.N,VCC*%
X162700000Y-119500000D03*
%TO.P,C26,2*%
%TO.N,GND*%
X167700000Y-119500000D03*
%TD*%
D15*
%TO.P,C21,1*%
%TO.N,VCC*%
X90544900Y-193500000D03*
D13*
%TO.P,C21,2*%
%TO.N,GND*%
X93044900Y-193500000D03*
%TD*%
%TO.P,C12,1*%
%TO.N,VCC*%
X99089800Y-196750000D03*
%TO.P,C12,2*%
%TO.N,GND*%
X104089800Y-196750000D03*
%TD*%
D15*
%TO.P,RR1,1,common*%
%TO.N,GND*%
X239325000Y-84155000D03*
D14*
%TO.P,RR1,2,R1*%
%TO.N,Net-(BAR1-Pad18)*%
X241865000Y-84155000D03*
%TO.P,RR1,3,R2*%
%TO.N,Net-(BAR1-Pad17)*%
X244405000Y-84155000D03*
%TO.P,RR1,4,R3*%
%TO.N,Net-(BAR1-Pad16)*%
X246945000Y-84155000D03*
%TO.P,RR1,5,R4*%
%TO.N,Net-(BAR1-Pad15)*%
X249485000Y-84155000D03*
%TO.P,RR1,6,R5*%
%TO.N,Net-(BAR1-Pad14)*%
X252025000Y-84155000D03*
%TO.P,RR1,7,R6*%
%TO.N,Net-(BAR1-Pad13)*%
X254565000Y-84155000D03*
%TO.P,RR1,8,R7*%
%TO.N,Net-(BAR1-Pad12)*%
X257105000Y-84155000D03*
%TO.P,RR1,9,R8*%
%TO.N,Net-(BAR1-Pad11)*%
X259645000Y-84155000D03*
%TD*%
D15*
%TO.P,RR4,1,common*%
%TO.N,VCC*%
X127925000Y-84155000D03*
D14*
%TO.P,RR4,2,R1*%
%TO.N,Net-(BAR4-Pad3)*%
X130465000Y-84155000D03*
%TO.P,RR4,3,R2*%
%TO.N,Net-(BAR4-Pad4)*%
X133005000Y-84155000D03*
%TO.P,RR4,4,R3*%
%TO.N,Net-(BAR4-Pad5)*%
X135545000Y-84155000D03*
%TO.P,RR4,5,R4*%
%TO.N,Net-(BAR4-Pad6)*%
X138085000Y-84155000D03*
%TO.P,RR4,6,R5*%
%TO.N,Net-(BAR4-Pad7)*%
X140625000Y-84155000D03*
%TO.P,RR4,7,R6*%
%TO.N,Net-(BAR4-Pad8)*%
X143165000Y-84155000D03*
%TO.P,RR4,8,R7*%
%TO.N,Net-(BAR4-Pad9)*%
X145705000Y-84155000D03*
%TO.P,RR4,9,R8*%
%TO.N,Net-(BAR4-Pad10)*%
X148245000Y-84155000D03*
%TD*%
D23*
%TO.P,NT1,1,1*%
%TO.N,VCC*%
X169350000Y-189250000D03*
%TO.P,NT1,2,2*%
%TO.N,ONE*%
X168150000Y-189250000D03*
%TD*%
D13*
%TO.P,R17,1*%
%TO.N,~{BUSACK}*%
X74750000Y-88440000D03*
D14*
%TO.P,R17,2*%
%TO.N,Net-(BAR5-Pad19)*%
X74750000Y-96060000D03*
%TD*%
D15*
%TO.P,U6,1,~{Mr}*%
%TO.N,/BusMonitor/MAS_RESET*%
X162525000Y-130300000D03*
D14*
%TO.P,U6,2,Q0*%
%TO.N,Net-(U10-Pad2)*%
X165065000Y-130300000D03*
%TO.P,U6,3,D0*%
%TO.N,A15*%
X167605000Y-130300000D03*
%TO.P,U6,4,D1*%
%TO.N,A14*%
X170145000Y-130300000D03*
%TO.P,U6,5,Q1*%
%TO.N,Net-(U10-Pad4)*%
X172685000Y-130300000D03*
%TO.P,U6,6,Q2*%
%TO.N,Net-(U10-Pad6)*%
X175225000Y-130300000D03*
%TO.P,U6,7,D2*%
%TO.N,A13*%
X177765000Y-130300000D03*
%TO.P,U6,8,D3*%
%TO.N,A12*%
X180305000Y-130300000D03*
%TO.P,U6,9,Q3*%
%TO.N,Net-(U10-Pad8)*%
X182845000Y-130300000D03*
%TO.P,U6,10,GND*%
%TO.N,GND*%
X185385000Y-130300000D03*
%TO.P,U6,11,Cp*%
%TO.N,/BusMonitor/LED_LATCH*%
X185385000Y-122680000D03*
%TO.P,U6,12,Q4*%
%TO.N,Net-(U10-Pad11)*%
X182845000Y-122680000D03*
%TO.P,U6,13,D4*%
%TO.N,A11*%
X180305000Y-122680000D03*
%TO.P,U6,14,D5*%
%TO.N,A10*%
X177765000Y-122680000D03*
%TO.P,U6,15,Q5*%
%TO.N,Net-(U10-Pad13)*%
X175225000Y-122680000D03*
%TO.P,U6,16,Q6*%
%TO.N,Net-(U10-Pad15)*%
X172685000Y-122680000D03*
%TO.P,U6,17,D6*%
%TO.N,A9*%
X170145000Y-122680000D03*
%TO.P,U6,18,D7*%
%TO.N,A8*%
X167605000Y-122680000D03*
%TO.P,U6,19,Q7*%
%TO.N,Net-(U10-Pad17)*%
X165065000Y-122680000D03*
%TO.P,U6,20,VCC*%
%TO.N,VCC*%
X162525000Y-122680000D03*
%TD*%
D13*
%TO.P,R9,1*%
%TO.N,Net-(D6-Pad2)*%
X74000000Y-184690000D03*
D14*
%TO.P,R9,2*%
%TO.N,VCC*%
X74000000Y-192310000D03*
%TD*%
D13*
%TO.P,C35,1*%
%TO.N,VCC*%
X88100000Y-156250000D03*
%TO.P,C35,2*%
%TO.N,GND*%
X93100000Y-156250000D03*
%TD*%
%TO.P,R15,1*%
%TO.N,Net-(BAR2-Pad20)*%
X207500000Y-103250000D03*
D14*
%TO.P,R15,2*%
%TO.N,/BusMonitor/MAS_RESET*%
X215120000Y-103250000D03*
%TD*%
D15*
%TO.P,RR3,1,common*%
%TO.N,GND*%
X165025000Y-83955000D03*
D14*
%TO.P,RR3,2,R1*%
%TO.N,Net-(BAR3-Pad18)*%
X167565000Y-83955000D03*
%TO.P,RR3,3,R2*%
%TO.N,Net-(BAR3-Pad17)*%
X170105000Y-83955000D03*
%TO.P,RR3,4,R3*%
%TO.N,Net-(BAR3-Pad16)*%
X172645000Y-83955000D03*
%TO.P,RR3,5,R4*%
%TO.N,Net-(BAR3-Pad15)*%
X175185000Y-83955000D03*
%TO.P,RR3,6,R5*%
%TO.N,Net-(BAR3-Pad14)*%
X177725000Y-83955000D03*
%TO.P,RR3,7,R6*%
%TO.N,Net-(BAR3-Pad13)*%
X180265000Y-83955000D03*
%TO.P,RR3,8,R7*%
%TO.N,Net-(BAR3-Pad12)*%
X182805000Y-83955000D03*
%TO.P,RR3,9,R8*%
%TO.N,Net-(BAR3-Pad11)*%
X185345000Y-83955000D03*
%TD*%
D13*
%TO.P,R3,1*%
%TO.N,TX-3.3*%
X177440000Y-180790000D03*
D14*
%TO.P,R3,2*%
%TO.N,GND*%
X185060000Y-180790000D03*
%TD*%
D15*
%TO.P,C13,1*%
%TO.N,Net-(C13-Pad1)*%
X43544900Y-106500000D03*
D13*
%TO.P,C13,2*%
%TO.N,Net-(C13-Pad2)*%
X46044900Y-106500000D03*
%TD*%
D20*
%TO.P,JP1,1,A*%
%TO.N,/BusMonitor/LED_LATCH*%
X108600000Y-138725000D03*
D21*
%TO.P,JP1,2,B*%
%TO.N,GND*%
X108600000Y-141265000D03*
%TD*%
D20*
%TO.P,SW1,1,Pin_1*%
%TO.N,Net-(RN1-Pad2)*%
X172675000Y-195175000D03*
D21*
%TO.P,SW1,2,Pin_2*%
%TO.N,ZERO*%
X172675000Y-192635000D03*
%TO.P,SW1,3,Pin_3*%
%TO.N,Net-(RN1-Pad3)*%
X175215000Y-195175000D03*
%TO.P,SW1,4,Pin_4*%
%TO.N,ZERO*%
X175215000Y-192635000D03*
%TO.P,SW1,5,Pin_5*%
%TO.N,Net-(RN1-Pad4)*%
X177755000Y-195175000D03*
%TO.P,SW1,6,Pin_6*%
%TO.N,ZERO*%
X177755000Y-192635000D03*
%TO.P,SW1,7,Pin_7*%
%TO.N,Net-(RN1-Pad5)*%
X180295000Y-195175000D03*
%TO.P,SW1,8,Pin_8*%
%TO.N,ZERO*%
X180295000Y-192635000D03*
%TO.P,SW1,9,Pin_9*%
%TO.N,Net-(RN1-Pad6)*%
X182835000Y-195175000D03*
%TO.P,SW1,10,Pin_10*%
%TO.N,ZERO*%
X182835000Y-192635000D03*
%TD*%
D13*
%TO.P,C1,1*%
%TO.N,VCC*%
X48964800Y-196500000D03*
%TO.P,C1,2*%
%TO.N,GND*%
X53964800Y-196500000D03*
%TD*%
D16*
%TO.P,D5,1,K*%
%TO.N,Net-(D5-Pad1)*%
X68040000Y-80850000D03*
D17*
%TO.P,D5,2,A*%
%TO.N,Net-(D5-Pad2)*%
X65500000Y-80850000D03*
%TD*%
D13*
%TO.P,R23,1*%
%TO.N,Net-(C16-Pad1)*%
X56190000Y-119750000D03*
D14*
%TO.P,R23,2*%
%TO.N,VCC*%
X63810000Y-119750000D03*
%TD*%
D18*
%TO.P,BAR2,1,A*%
%TO.N,VCC*%
X200350000Y-96155000D03*
D19*
%TO.P,BAR2,2,A*%
%TO.N,unconnected-(BAR2-Pad2)*%
X202890000Y-96155000D03*
%TO.P,BAR2,3,A*%
%TO.N,Net-(BAR2-Pad3)*%
X205430000Y-96155000D03*
%TO.P,BAR2,4,A*%
%TO.N,Net-(BAR2-Pad4)*%
X207970000Y-96155000D03*
%TO.P,BAR2,5,A*%
%TO.N,Net-(BAR2-Pad5)*%
X210510000Y-96155000D03*
%TO.P,BAR2,6,A*%
%TO.N,Net-(BAR2-Pad6)*%
X213050000Y-96155000D03*
%TO.P,BAR2,7,A*%
%TO.N,Net-(BAR2-Pad7)*%
X215590000Y-96155000D03*
%TO.P,BAR2,8,A*%
%TO.N,Net-(BAR2-Pad8)*%
X218130000Y-96155000D03*
%TO.P,BAR2,9,A*%
%TO.N,Net-(BAR2-Pad9)*%
X220670000Y-96155000D03*
%TO.P,BAR2,10,A*%
%TO.N,Net-(BAR2-Pad10)*%
X223210000Y-96155000D03*
%TO.P,BAR2,11,K*%
%TO.N,Net-(BAR2-Pad11)*%
X223210000Y-88535000D03*
%TO.P,BAR2,12,K*%
%TO.N,Net-(BAR2-Pad12)*%
X220670000Y-88535000D03*
%TO.P,BAR2,13,K*%
%TO.N,Net-(BAR2-Pad13)*%
X218130000Y-88535000D03*
%TO.P,BAR2,14,K*%
%TO.N,Net-(BAR2-Pad14)*%
X215590000Y-88535000D03*
%TO.P,BAR2,15,K*%
%TO.N,Net-(BAR2-Pad15)*%
X213050000Y-88535000D03*
%TO.P,BAR2,16,K*%
%TO.N,Net-(BAR2-Pad16)*%
X210510000Y-88535000D03*
%TO.P,BAR2,17,K*%
%TO.N,Net-(BAR2-Pad17)*%
X207970000Y-88535000D03*
%TO.P,BAR2,18,K*%
%TO.N,Net-(BAR2-Pad18)*%
X205430000Y-88535000D03*
%TO.P,BAR2,19,K*%
%TO.N,unconnected-(BAR2-Pad19)*%
X202890000Y-88535000D03*
%TO.P,BAR2,20,K*%
%TO.N,Net-(BAR2-Pad20)*%
X200350000Y-88535000D03*
%TD*%
D13*
%TO.P,C25,1*%
%TO.N,VCC*%
X237000000Y-103250000D03*
%TO.P,C25,2*%
%TO.N,GND*%
X242000000Y-103250000D03*
%TD*%
%TO.P,R20,1*%
%TO.N,/BusMonitor/WAIT_LOGIC*%
X143750000Y-135250000D03*
D14*
%TO.P,R20,2*%
%TO.N,GND*%
X151370000Y-135250000D03*
%TD*%
D15*
%TO.P,SW_HEX_1_1,1*%
%TO.N,/BusMonitor/H_A7*%
X201100000Y-146000000D03*
D14*
%TO.P,SW_HEX_1_1,2*%
%TO.N,/BusMonitor/H_A6*%
X203640000Y-146000000D03*
%TO.P,SW_HEX_1_1,3*%
%TO.N,/BusMonitor/H_A5*%
X206180000Y-146000000D03*
%TO.P,SW_HEX_1_1,4*%
%TO.N,/BusMonitor/H_A4*%
X208720000Y-146000000D03*
%TO.P,SW_HEX_1_1,5*%
%TO.N,/BusMonitor/H_A3*%
X211260000Y-146000000D03*
%TO.P,SW_HEX_1_1,6*%
%TO.N,/BusMonitor/H_A2*%
X213800000Y-146000000D03*
%TO.P,SW_HEX_1_1,7*%
%TO.N,/BusMonitor/H_A1*%
X216340000Y-146000000D03*
%TO.P,SW_HEX_1_1,8*%
%TO.N,/BusMonitor/H_A0*%
X218880000Y-146000000D03*
%TO.P,SW_HEX_1_1,9*%
%TO.N,VCC*%
X218880000Y-138380000D03*
%TO.P,SW_HEX_1_1,10*%
X216340000Y-138380000D03*
%TO.P,SW_HEX_1_1,11*%
X213800000Y-138380000D03*
%TO.P,SW_HEX_1_1,12*%
X211260000Y-138380000D03*
%TO.P,SW_HEX_1_1,13*%
X208720000Y-138380000D03*
%TO.P,SW_HEX_1_1,14*%
X206180000Y-138380000D03*
%TO.P,SW_HEX_1_1,15*%
X203640000Y-138380000D03*
%TO.P,SW_HEX_1_1,16*%
X201100000Y-138380000D03*
%TD*%
D13*
%TO.P,C4,1*%
%TO.N,VCC*%
X49000000Y-119750000D03*
%TO.P,C4,2*%
%TO.N,GND*%
X54000000Y-119750000D03*
%TD*%
%TO.P,C2,1*%
%TO.N,/BusMonitor/WAIT_LOGIC*%
X132600000Y-156250000D03*
%TO.P,C2,2*%
%TO.N,Net-(C2-Pad2)*%
X135100000Y-156250000D03*
%TD*%
D15*
%TO.P,U5,1,~{Mr}*%
%TO.N,/BusMonitor/MAS_RESET*%
X200247500Y-130500000D03*
D14*
%TO.P,U5,2,Q0*%
%TO.N,Net-(U5-Pad2)*%
X202787500Y-130500000D03*
%TO.P,U5,3,D0*%
%TO.N,A7*%
X205327500Y-130500000D03*
%TO.P,U5,4,D1*%
%TO.N,A6*%
X207867500Y-130500000D03*
%TO.P,U5,5,Q1*%
%TO.N,Net-(U5-Pad5)*%
X210407500Y-130500000D03*
%TO.P,U5,6,Q2*%
%TO.N,Net-(U5-Pad6)*%
X212947500Y-130500000D03*
%TO.P,U5,7,D2*%
%TO.N,A5*%
X215487500Y-130500000D03*
%TO.P,U5,8,D3*%
%TO.N,A4*%
X218027500Y-130500000D03*
%TO.P,U5,9,Q3*%
%TO.N,Net-(U5-Pad9)*%
X220567500Y-130500000D03*
%TO.P,U5,10,GND*%
%TO.N,GND*%
X223107500Y-130500000D03*
%TO.P,U5,11,Cp*%
%TO.N,/BusMonitor/LED_LATCH*%
X223107500Y-122880000D03*
%TO.P,U5,12,Q4*%
%TO.N,Net-(U5-Pad12)*%
X220567500Y-122880000D03*
%TO.P,U5,13,D4*%
%TO.N,A3*%
X218027500Y-122880000D03*
%TO.P,U5,14,D5*%
%TO.N,A2*%
X215487500Y-122880000D03*
%TO.P,U5,15,Q5*%
%TO.N,Net-(U5-Pad15)*%
X212947500Y-122880000D03*
%TO.P,U5,16,Q6*%
%TO.N,Net-(U5-Pad16)*%
X210407500Y-122880000D03*
%TO.P,U5,17,D6*%
%TO.N,A1*%
X207867500Y-122880000D03*
%TO.P,U5,18,D7*%
%TO.N,A0*%
X205327500Y-122880000D03*
%TO.P,U5,19,Q7*%
%TO.N,Net-(U5-Pad19)*%
X202787500Y-122880000D03*
%TO.P,U5,20,VCC*%
%TO.N,VCC*%
X200247500Y-122880000D03*
%TD*%
D13*
%TO.P,R13,1*%
%TO.N,~{IEO}*%
X43500000Y-88440000D03*
D14*
%TO.P,R13,2*%
%TO.N,Net-(BAR1-Pad20)*%
X43500000Y-96060000D03*
%TD*%
D16*
%TO.P,D3,1,K*%
%TO.N,Net-(D3-Pad1)*%
X55540000Y-80850000D03*
D17*
%TO.P,D3,2,A*%
%TO.N,Net-(D3-Pad2)*%
X53000000Y-80850000D03*
%TD*%
D15*
%TO.P,U16,1*%
%TO.N,~{WR}*%
X50875000Y-167050000D03*
D14*
%TO.P,U16,2*%
%TO.N,Net-(SW3-Pad3)*%
X53415000Y-167050000D03*
%TO.P,U16,3*%
%TO.N,~{MREQ}*%
X55955000Y-167050000D03*
%TO.P,U16,4*%
%TO.N,Net-(SW3-Pad4)*%
X58495000Y-167050000D03*
%TO.P,U16,5*%
%TO.N,~{RD}*%
X61035000Y-167050000D03*
%TO.P,U16,6*%
%TO.N,Net-(SW3-Pad5)*%
X63575000Y-167050000D03*
%TO.P,U16,7,GND*%
%TO.N,GND*%
X66115000Y-167050000D03*
%TO.P,U16,8*%
%TO.N,Net-(SW3-Pad6)*%
X66115000Y-159430000D03*
%TO.P,U16,9*%
%TO.N,~{RFSH}*%
X63575000Y-159430000D03*
%TO.P,U16,10*%
%TO.N,Net-(SW3-Pad7)*%
X61035000Y-159430000D03*
%TO.P,U16,11*%
%TO.N,~{IORQ}*%
X58495000Y-159430000D03*
%TO.P,U16,12*%
%TO.N,Net-(SW3-Pad8)*%
X55955000Y-159430000D03*
%TO.P,U16,13*%
%TO.N,~{M1}*%
X53415000Y-159430000D03*
%TO.P,U16,14,VCC*%
%TO.N,VCC*%
X50875000Y-159430000D03*
%TD*%
D15*
%TO.P,U1,1*%
%TO.N,~{CS-UART}*%
X48839800Y-207300000D03*
D14*
%TO.P,U1,2*%
%TO.N,Net-(D3-Pad1)*%
X51379800Y-207300000D03*
%TO.P,U1,3*%
%TO.N,~{bRESET}*%
X53919800Y-207300000D03*
%TO.P,U1,4*%
%TO.N,Net-(D4-Pad1)*%
X56459800Y-207300000D03*
%TO.P,U1,5*%
%TO.N,RX-3.3*%
X58999800Y-207300000D03*
%TO.P,U1,6*%
%TO.N,Net-(D5-Pad1)*%
X61539800Y-207300000D03*
%TO.P,U1,7,GND*%
%TO.N,GND*%
X64079800Y-207300000D03*
%TO.P,U1,8*%
%TO.N,Net-(D6-Pad1)*%
X64079800Y-199680000D03*
%TO.P,U1,9*%
%TO.N,TX*%
X61539800Y-199680000D03*
%TO.P,U1,10*%
%TO.N,Net-(D7-Pad1)*%
X58999800Y-199680000D03*
%TO.P,U1,11*%
%TO.N,~{RTS}*%
X56459800Y-199680000D03*
%TO.P,U1,12*%
%TO.N,Net-(D8-Pad1)*%
X53919800Y-199680000D03*
%TO.P,U1,13*%
%TO.N,~{CTS}*%
X51379800Y-199680000D03*
%TO.P,U1,14,VCC*%
%TO.N,VCC*%
X48839800Y-199680000D03*
%TD*%
D13*
%TO.P,R22,1*%
%TO.N,Net-(C15-Pad1)*%
X56190000Y-140250000D03*
D14*
%TO.P,R22,2*%
%TO.N,VCC*%
X63810000Y-140250000D03*
%TD*%
D15*
%TO.P,U19,1,B3*%
%TO.N,/BusMonitor/H_A10*%
X125100000Y-167050000D03*
D14*
%TO.P,U19,2,Ia<b*%
%TO.N,GND*%
X127640000Y-167050000D03*
%TO.P,U19,3,Ia=b*%
%TO.N,/BusMonitor/IN_=*%
X130180000Y-167050000D03*
%TO.P,U19,4,Ia>b*%
%TO.N,GND*%
X132720000Y-167050000D03*
%TO.P,U19,5,Oa>b*%
%TO.N,unconnected-(U19-Pad5)*%
X135260000Y-167050000D03*
%TO.P,U19,6,Oa=b*%
%TO.N,/BusMonitor/H3_OUT_=*%
X137800000Y-167050000D03*
%TO.P,U19,7,Oa<b*%
%TO.N,unconnected-(U19-Pad7)*%
X140340000Y-167050000D03*
%TO.P,U19,8,GND*%
%TO.N,GND*%
X142880000Y-167050000D03*
%TO.P,U19,9,B0*%
%TO.N,/BusMonitor/H_A8*%
X142880000Y-159430000D03*
%TO.P,U19,10,A0*%
%TO.N,A8*%
X140340000Y-159430000D03*
%TO.P,U19,11,B1*%
%TO.N,/BusMonitor/H_A9*%
X137800000Y-159430000D03*
%TO.P,U19,12,A1*%
%TO.N,A9*%
X135260000Y-159430000D03*
%TO.P,U19,13,A2*%
%TO.N,A11*%
X132720000Y-159430000D03*
%TO.P,U19,14,B2*%
%TO.N,/BusMonitor/H_A11*%
X130180000Y-159430000D03*
%TO.P,U19,15,A3*%
%TO.N,A10*%
X127640000Y-159430000D03*
%TO.P,U19,16,VCC*%
%TO.N,VCC*%
X125100000Y-159430000D03*
%TD*%
D13*
%TO.P,R16,1*%
%TO.N,~{BUSRQ}*%
X62250000Y-88440000D03*
D14*
%TO.P,R16,2*%
%TO.N,Net-(BAR5-Pad20)*%
X62250000Y-96060000D03*
%TD*%
D15*
%TO.P,RR6,1,common*%
%TO.N,VCC*%
X88175000Y-151000000D03*
D14*
%TO.P,RR6,2,R1*%
%TO.N,/BusMonitor/MAS_RESET*%
X90715000Y-151000000D03*
%TO.P,RR6,3,R2*%
%TO.N,/BusMonitor/LED_LATCH*%
X93255000Y-151000000D03*
%TO.P,RR6,4,R3*%
%TO.N,/BusMonitor/FF_1_OUT*%
X95795000Y-151000000D03*
%TO.P,RR6,5,R4*%
%TO.N,/BusMonitor/FF_2_OUT*%
X98335000Y-151000000D03*
%TO.P,RR6,6,R5*%
%TO.N,/BusMonitor/FF_3_OUT*%
X100875000Y-151000000D03*
%TO.P,RR6,7,R6*%
%TO.N,/BusMonitor/FF_4_OUT*%
X103415000Y-151000000D03*
%TO.P,RR6,8,R7*%
%TO.N,unconnected-(RR6-Pad8)*%
X105955000Y-151000000D03*
%TO.P,RR6,9,R8*%
%TO.N,unconnected-(RR6-Pad9)*%
X108495000Y-151000000D03*
%TD*%
D13*
%TO.P,C11,1*%
%TO.N,VCC*%
X125350000Y-156250000D03*
%TO.P,C11,2*%
%TO.N,GND*%
X130350000Y-156250000D03*
%TD*%
D15*
%TO.P,C33,1*%
%TO.N,Net-(C33-Pad1)*%
X70794900Y-151000000D03*
D13*
%TO.P,C33,2*%
%TO.N,Net-(C33-Pad2)*%
X73294900Y-151000000D03*
%TD*%
%TO.P,C17,1*%
%TO.N,VCC*%
X70264800Y-196500000D03*
%TO.P,C17,2*%
%TO.N,GND*%
X75264800Y-196500000D03*
%TD*%
%TO.P,C23,1*%
%TO.N,VCC*%
X48940000Y-103250000D03*
%TO.P,C23,2*%
%TO.N,GND*%
X53940000Y-103250000D03*
%TD*%
D23*
%TO.P,NT2,1,1*%
%TO.N,GND*%
X171250000Y-175100000D03*
%TO.P,NT2,2,2*%
%TO.N,ZERO*%
X171250000Y-173900000D03*
%TD*%
D15*
%TO.P,U2,1,Pin_1*%
%TO.N,VCC*%
X201125000Y-212050000D03*
D14*
%TO.P,U2,2,Pin_2*%
%TO.N,unconnected-(U2-Pad2)*%
X203665000Y-212050000D03*
%TO.P,U2,3,Pin_3*%
%TO.N,unconnected-(U2-Pad3)*%
X206205000Y-212050000D03*
%TO.P,U2,4,Pin_4*%
%TO.N,GND*%
X208745000Y-212050000D03*
%TO.P,U2,5,Pin_5*%
%TO.N,unconnected-(U2-Pad5)*%
X211285000Y-212050000D03*
%TO.P,U2,6,Pin_6*%
%TO.N,unconnected-(U2-Pad6)*%
X213825000Y-212050000D03*
%TO.P,U2,7,Pin_7*%
%TO.N,GND*%
X216365000Y-212050000D03*
%TO.P,U2,8,Pin_8*%
%TO.N,UART-CLK*%
X216365000Y-204430000D03*
%TO.P,U2,9,Pin_9*%
%TO.N,unconnected-(U2-Pad9)*%
X213825000Y-204430000D03*
%TO.P,U2,10,Pin_10*%
%TO.N,unconnected-(U2-Pad10)*%
X211285000Y-204430000D03*
%TO.P,U2,11,Pin_11*%
%TO.N,UART-CLK*%
X208745000Y-204430000D03*
%TO.P,U2,12,Pin_12*%
%TO.N,unconnected-(U2-Pad12)*%
X206205000Y-204430000D03*
%TO.P,U2,13,Pin_13*%
%TO.N,unconnected-(U2-Pad13)*%
X203665000Y-204430000D03*
%TO.P,U2,14,Pin_14*%
%TO.N,VCC*%
X201125000Y-204430000D03*
%TD*%
D15*
%TO.P,U13,1,OEa*%
%TO.N,ZERO*%
X99089800Y-207500000D03*
D14*
%TO.P,U13,2,I0a*%
%TO.N,A0*%
X101629800Y-207500000D03*
%TO.P,U13,3,O3b*%
%TO.N,bA7*%
X104169800Y-207500000D03*
%TO.P,U13,4,I1a*%
%TO.N,A1*%
X106709800Y-207500000D03*
%TO.P,U13,5,O2b*%
%TO.N,bA6*%
X109249800Y-207500000D03*
%TO.P,U13,6,I2a*%
%TO.N,A2*%
X111789800Y-207500000D03*
%TO.P,U13,7,O1b*%
%TO.N,bA5*%
X114329800Y-207500000D03*
%TO.P,U13,8,I3a*%
%TO.N,A3*%
X116869800Y-207500000D03*
%TO.P,U13,9,O0b*%
%TO.N,bA4*%
X119409800Y-207500000D03*
%TO.P,U13,10,GND*%
%TO.N,GND*%
X121949800Y-207500000D03*
%TO.P,U13,11,I0b*%
%TO.N,A4*%
X121949800Y-199880000D03*
%TO.P,U13,12,O3a*%
%TO.N,bA3*%
X119409800Y-199880000D03*
%TO.P,U13,13,I1b*%
%TO.N,A5*%
X116869800Y-199880000D03*
%TO.P,U13,14,O2a*%
%TO.N,bA2*%
X114329800Y-199880000D03*
%TO.P,U13,15,I2b*%
%TO.N,A6*%
X111789800Y-199880000D03*
%TO.P,U13,16,O1a*%
%TO.N,bA1*%
X109249800Y-199880000D03*
%TO.P,U13,17,I3b*%
%TO.N,A7*%
X106709800Y-199880000D03*
%TO.P,U13,18,O0a*%
%TO.N,bA0*%
X104169800Y-199880000D03*
%TO.P,U13,19,OEb*%
%TO.N,ZERO*%
X101629800Y-199880000D03*
%TO.P,U13,20,VCC*%
%TO.N,VCC*%
X99089800Y-199880000D03*
%TD*%
D13*
%TO.P,R26,1*%
%TO.N,Net-(C34-Pad1)*%
X66000000Y-119750000D03*
D14*
%TO.P,R26,2*%
%TO.N,VCC*%
X73620000Y-119750000D03*
%TD*%
D13*
%TO.P,C24,1*%
%TO.N,VCC*%
X237000000Y-119750000D03*
%TO.P,C24,2*%
%TO.N,GND*%
X242000000Y-119750000D03*
%TD*%
%TO.P,C32,1*%
%TO.N,Net-(C32-Pad1)*%
X70750000Y-114750000D03*
%TO.P,C32,2*%
%TO.N,Net-(C32-Pad2)*%
X70750000Y-112250000D03*
%TD*%
%TO.P,C30,1*%
%TO.N,VCC*%
X200250000Y-103250000D03*
%TO.P,C30,2*%
%TO.N,GND*%
X205250000Y-103250000D03*
%TD*%
%TO.P,R5,1*%
%TO.N,Net-(BAR4-Pad20)*%
X56000000Y-88440000D03*
D14*
%TO.P,R5,2*%
%TO.N,~{HALT}*%
X56000000Y-96060000D03*
%TD*%
D13*
%TO.P,R8,1*%
%TO.N,Net-(D5-Pad2)*%
X67750000Y-184690000D03*
D14*
%TO.P,R8,2*%
%TO.N,VCC*%
X67750000Y-192310000D03*
%TD*%
D20*
%TO.P,J3,1,Pin_1*%
%TO.N,RX-3.3*%
X158200000Y-174650000D03*
D21*
%TO.P,J3,2,Pin_2*%
%TO.N,Net-(J1-Pad8)*%
X160740000Y-174650000D03*
%TO.P,J3,3,Pin_3*%
%TO.N,Net-(J1-Pad10)*%
X163280000Y-174650000D03*
%TO.P,J3,4,Pin_4*%
%TO.N,TX-3.3*%
X165820000Y-174650000D03*
%TD*%
D16*
%TO.P,D8,1,K*%
%TO.N,Net-(D8-Pad1)*%
X86790000Y-80850000D03*
D17*
%TO.P,D8,2,A*%
%TO.N,Net-(D8-Pad2)*%
X84250000Y-80850000D03*
%TD*%
D13*
%TO.P,R11,1*%
%TO.N,Net-(D8-Pad2)*%
X86500000Y-184690000D03*
D14*
%TO.P,R11,2*%
%TO.N,VCC*%
X86500000Y-192310000D03*
%TD*%
D15*
%TO.P,U9,1,OEa*%
%TO.N,GND*%
X200145000Y-114100000D03*
D14*
%TO.P,U9,2,I0a*%
%TO.N,Net-(U5-Pad2)*%
X202685000Y-114100000D03*
%TO.P,U9,3,O3b*%
%TO.N,Net-(BAR2-Pad10)*%
X205225000Y-114100000D03*
%TO.P,U9,4,I1a*%
%TO.N,Net-(U5-Pad5)*%
X207765000Y-114100000D03*
%TO.P,U9,5,O2b*%
%TO.N,Net-(BAR2-Pad9)*%
X210305000Y-114100000D03*
%TO.P,U9,6,I2a*%
%TO.N,Net-(U5-Pad6)*%
X212845000Y-114100000D03*
%TO.P,U9,7,O1b*%
%TO.N,Net-(BAR2-Pad8)*%
X215385000Y-114100000D03*
%TO.P,U9,8,I3a*%
%TO.N,Net-(U5-Pad9)*%
X217925000Y-114100000D03*
%TO.P,U9,9,O0b*%
%TO.N,Net-(BAR2-Pad7)*%
X220465000Y-114100000D03*
%TO.P,U9,10,GND*%
%TO.N,GND*%
X223005000Y-114100000D03*
%TO.P,U9,11,I0b*%
%TO.N,Net-(U5-Pad12)*%
X223005000Y-106480000D03*
%TO.P,U9,12,O3a*%
%TO.N,Net-(BAR2-Pad6)*%
X220465000Y-106480000D03*
%TO.P,U9,13,I1b*%
%TO.N,Net-(U5-Pad15)*%
X217925000Y-106480000D03*
%TO.P,U9,14,O2a*%
%TO.N,Net-(BAR2-Pad5)*%
X215385000Y-106480000D03*
%TO.P,U9,15,I2b*%
%TO.N,Net-(U5-Pad16)*%
X212845000Y-106480000D03*
%TO.P,U9,16,O1a*%
%TO.N,Net-(BAR2-Pad4)*%
X210305000Y-106480000D03*
%TO.P,U9,17,I3b*%
%TO.N,Net-(U5-Pad19)*%
X207765000Y-106480000D03*
%TO.P,U9,18,O0a*%
%TO.N,Net-(BAR2-Pad3)*%
X205225000Y-106480000D03*
%TO.P,U9,19,OEb*%
%TO.N,VCC*%
X202685000Y-106480000D03*
%TO.P,U9,20,VCC*%
X200145000Y-106480000D03*
%TD*%
D15*
%TO.P,RR7,1,common*%
%TO.N,VCC*%
X236575000Y-134250000D03*
D14*
%TO.P,RR7,2,R1*%
%TO.N,/BusMonitor/S2_1*%
X239115000Y-134250000D03*
%TO.P,RR7,3,R2*%
%TO.N,/BusMonitor/S2_2*%
X241655000Y-134250000D03*
%TO.P,RR7,4,R3*%
%TO.N,/BusMonitor/S2_3*%
X244195000Y-134250000D03*
%TO.P,RR7,5,R4*%
%TO.N,/BusMonitor/S2_4*%
X246735000Y-134250000D03*
%TO.P,RR7,6,R5*%
%TO.N,/BusMonitor/S2_5*%
X249275000Y-134250000D03*
%TO.P,RR7,7,R6*%
%TO.N,/BusMonitor/S2_6*%
X251815000Y-134250000D03*
%TO.P,RR7,8,R7*%
%TO.N,/BusMonitor/S2_7*%
X254355000Y-134250000D03*
%TO.P,RR7,9,R8*%
%TO.N,/BusMonitor/S2_8*%
X256895000Y-134250000D03*
%TD*%
D15*
%TO.P,U27,1,A*%
%TO.N,/BusMonitor/H3_OUT_=*%
X49600000Y-130550000D03*
D14*
%TO.P,U27,2,B*%
%TO.N,VCC*%
X52140000Y-130550000D03*
%TO.P,U27,3,Clr*%
X54680000Y-130550000D03*
%TO.P,U27,4,~{Q}*%
%TO.N,unconnected-(U27-Pad4)*%
X57220000Y-130550000D03*
%TO.P,U27,5,Q*%
%TO.N,/BusMonitor/H4_LED*%
X59760000Y-130550000D03*
%TO.P,U27,6,Cext*%
%TO.N,Net-(C34-Pad2)*%
X62300000Y-130550000D03*
%TO.P,U27,7,RCext*%
%TO.N,Net-(C34-Pad1)*%
X64840000Y-130550000D03*
%TO.P,U27,8,GND*%
%TO.N,GND*%
X67380000Y-130550000D03*
%TO.P,U27,9,A*%
%TO.N,/BusMonitor/H4_OUT_=*%
X67380000Y-122930000D03*
%TO.P,U27,10,B*%
%TO.N,VCC*%
X64840000Y-122930000D03*
%TO.P,U27,11,Clr*%
X62300000Y-122930000D03*
%TO.P,U27,12,~{Q}*%
%TO.N,unconnected-(U27-Pad12)*%
X59760000Y-122930000D03*
%TO.P,U27,13,Q*%
%TO.N,/BusMonitor/H3_LED*%
X57220000Y-122930000D03*
%TO.P,U27,14,Cext*%
%TO.N,Net-(C16-Pad2)*%
X54680000Y-122930000D03*
%TO.P,U27,15,RCext*%
%TO.N,Net-(C16-Pad1)*%
X52140000Y-122930000D03*
%TO.P,U27,16,VCC*%
%TO.N,VCC*%
X49600000Y-122930000D03*
%TD*%
D16*
%TO.P,D7,1,K*%
%TO.N,Net-(D7-Pad1)*%
X80540000Y-80850000D03*
D17*
%TO.P,D7,2,A*%
%TO.N,Net-(D7-Pad2)*%
X78000000Y-80850000D03*
%TD*%
D15*
%TO.P,U8,1,OEa*%
%TO.N,GND*%
X236825000Y-114050000D03*
D14*
%TO.P,U8,2,I0a*%
%TO.N,Net-(U4-Pad2)*%
X239365000Y-114050000D03*
%TO.P,U8,3,O3b*%
%TO.N,Net-(BAR1-Pad10)*%
X241905000Y-114050000D03*
%TO.P,U8,4,I1a*%
%TO.N,Net-(U4-Pad5)*%
X244445000Y-114050000D03*
%TO.P,U8,5,O2b*%
%TO.N,Net-(BAR1-Pad9)*%
X246985000Y-114050000D03*
%TO.P,U8,6,I2a*%
%TO.N,Net-(U4-Pad6)*%
X249525000Y-114050000D03*
%TO.P,U8,7,O1b*%
%TO.N,Net-(BAR1-Pad8)*%
X252065000Y-114050000D03*
%TO.P,U8,8,I3a*%
%TO.N,Net-(U4-Pad9)*%
X254605000Y-114050000D03*
%TO.P,U8,9,O0b*%
%TO.N,Net-(BAR1-Pad7)*%
X257145000Y-114050000D03*
%TO.P,U8,10,GND*%
%TO.N,GND*%
X259685000Y-114050000D03*
%TO.P,U8,11,I0b*%
%TO.N,Net-(U4-Pad12)*%
X259685000Y-106430000D03*
%TO.P,U8,12,O3a*%
%TO.N,Net-(BAR1-Pad6)*%
X257145000Y-106430000D03*
%TO.P,U8,13,I1b*%
%TO.N,Net-(U4-Pad15)*%
X254605000Y-106430000D03*
%TO.P,U8,14,O2a*%
%TO.N,Net-(BAR1-Pad5)*%
X252065000Y-106430000D03*
%TO.P,U8,15,I2b*%
%TO.N,Net-(U4-Pad16)*%
X249525000Y-106430000D03*
%TO.P,U8,16,O1a*%
%TO.N,Net-(BAR1-Pad4)*%
X246985000Y-106430000D03*
%TO.P,U8,17,I3b*%
%TO.N,Net-(U4-Pad19)*%
X244445000Y-106430000D03*
%TO.P,U8,18,O0a*%
%TO.N,Net-(BAR1-Pad3)*%
X241905000Y-106430000D03*
%TO.P,U8,19,OEb*%
%TO.N,VCC*%
X239365000Y-106430000D03*
%TO.P,U8,20,VCC*%
X236825000Y-106430000D03*
%TD*%
D15*
%TO.P,U15,1,OEa*%
%TO.N,ZERO*%
X70089800Y-207300000D03*
D14*
%TO.P,U15,2,I0a*%
%TO.N,~{RESET}*%
X72629800Y-207300000D03*
%TO.P,U15,3,O3b*%
%TO.N,~{bRD}*%
X75169800Y-207300000D03*
%TO.P,U15,4,I1a*%
%TO.N,unconnected-(U15-Pad4)*%
X77709800Y-207300000D03*
%TO.P,U15,5,O2b*%
%TO.N,~{bWR}*%
X80249800Y-207300000D03*
%TO.P,U15,6,I2a*%
%TO.N,unconnected-(U15-Pad6)*%
X82789800Y-207300000D03*
%TO.P,U15,7,O1b*%
%TO.N,~{bM1}*%
X85329800Y-207300000D03*
%TO.P,U15,8,I3a*%
%TO.N,unconnected-(U15-Pad8)*%
X87869800Y-207300000D03*
%TO.P,U15,9,O0b*%
%TO.N,~{bIORQ}*%
X90409800Y-207300000D03*
%TO.P,U15,10,GND*%
%TO.N,GND*%
X92949800Y-207300000D03*
%TO.P,U15,11,I0b*%
%TO.N,~{IORQ}*%
X92949800Y-199680000D03*
%TO.P,U15,12,O3a*%
%TO.N,unconnected-(U15-Pad12)*%
X90409800Y-199680000D03*
%TO.P,U15,13,I1b*%
%TO.N,~{M1}*%
X87869800Y-199680000D03*
%TO.P,U15,14,O2a*%
%TO.N,unconnected-(U15-Pad14)*%
X85329800Y-199680000D03*
%TO.P,U15,15,I2b*%
%TO.N,~{WR}*%
X82789800Y-199680000D03*
%TO.P,U15,16,O1a*%
%TO.N,unconnected-(U15-Pad16)*%
X80249800Y-199680000D03*
%TO.P,U15,17,I3b*%
%TO.N,~{RD}*%
X77709800Y-199680000D03*
%TO.P,U15,18,O0a*%
%TO.N,~{bRESET}*%
X75169800Y-199680000D03*
%TO.P,U15,19,OEb*%
%TO.N,ZERO*%
X72629800Y-199680000D03*
%TO.P,U15,20,VCC*%
%TO.N,VCC*%
X70089800Y-199680000D03*
%TD*%
D13*
%TO.P,C5,1*%
%TO.N,VCC*%
X222500000Y-204750000D03*
%TO.P,C5,2*%
%TO.N,GND*%
X222500000Y-209750000D03*
%TD*%
D15*
%TO.P,U11,1,OEa*%
%TO.N,GND*%
X125497500Y-114050000D03*
D14*
%TO.P,U11,2,I0a*%
%TO.N,Net-(U11-Pad2)*%
X128037500Y-114050000D03*
%TO.P,U11,3,O3b*%
%TO.N,Net-(BAR4-Pad11)*%
X130577500Y-114050000D03*
%TO.P,U11,4,I1a*%
%TO.N,Net-(U11-Pad4)*%
X133117500Y-114050000D03*
%TO.P,U11,5,O2b*%
%TO.N,Net-(BAR4-Pad12)*%
X135657500Y-114050000D03*
%TO.P,U11,6,I2a*%
%TO.N,Net-(U11-Pad6)*%
X138197500Y-114050000D03*
%TO.P,U11,7,O1b*%
%TO.N,Net-(BAR4-Pad13)*%
X140737500Y-114050000D03*
%TO.P,U11,8,I3a*%
%TO.N,Net-(U11-Pad8)*%
X143277500Y-114050000D03*
%TO.P,U11,9,O0b*%
%TO.N,Net-(BAR4-Pad14)*%
X145817500Y-114050000D03*
%TO.P,U11,10,GND*%
%TO.N,GND*%
X148357500Y-114050000D03*
%TO.P,U11,11,I0b*%
%TO.N,Net-(U11-Pad11)*%
X148357500Y-106430000D03*
%TO.P,U11,12,O3a*%
%TO.N,Net-(BAR4-Pad15)*%
X145817500Y-106430000D03*
%TO.P,U11,13,I1b*%
%TO.N,Net-(U11-Pad13)*%
X143277500Y-106430000D03*
%TO.P,U11,14,O2a*%
%TO.N,Net-(BAR4-Pad16)*%
X140737500Y-106430000D03*
%TO.P,U11,15,I2b*%
%TO.N,Net-(U11-Pad15)*%
X138197500Y-106430000D03*
%TO.P,U11,16,O1a*%
%TO.N,Net-(BAR4-Pad17)*%
X135657500Y-106430000D03*
%TO.P,U11,17,I3b*%
%TO.N,Net-(U11-Pad17)*%
X133117500Y-106430000D03*
%TO.P,U11,18,O0a*%
%TO.N,Net-(BAR4-Pad18)*%
X130577500Y-106430000D03*
%TO.P,U11,19,OEb*%
%TO.N,VCC*%
X128037500Y-106430000D03*
%TO.P,U11,20,VCC*%
X125497500Y-106430000D03*
%TD*%
D13*
%TO.P,C31,1*%
%TO.N,VCC*%
X162700000Y-156000000D03*
%TO.P,C31,2*%
%TO.N,GND*%
X167700000Y-156000000D03*
%TD*%
D20*
%TO.P,J4,1,Pin_1*%
%TO.N,GND*%
X113150000Y-80625000D03*
D21*
%TO.P,J4,2,Pin_2*%
%TO.N,~{RTS}*%
X115690000Y-80625000D03*
%TO.P,J4,3,Pin_3*%
%TO.N,VCC*%
X118230000Y-80625000D03*
%TO.P,J4,4,Pin_4*%
%TO.N,RX-3.3*%
X120770000Y-80625000D03*
%TO.P,J4,5,Pin_5*%
%TO.N,TX*%
X123310000Y-80625000D03*
%TO.P,J4,6,Pin_6*%
%TO.N,~{CTS}*%
X125850000Y-80625000D03*
%TD*%
D18*
%TO.P,BAR3,1,A*%
%TO.N,unconnected-(BAR3-Pad1)*%
X162627500Y-95955000D03*
D19*
%TO.P,BAR3,2,A*%
%TO.N,unconnected-(BAR3-Pad2)*%
X165167500Y-95955000D03*
%TO.P,BAR3,3,A*%
%TO.N,Net-(BAR3-Pad3)*%
X167707500Y-95955000D03*
%TO.P,BAR3,4,A*%
%TO.N,Net-(BAR3-Pad4)*%
X170247500Y-95955000D03*
%TO.P,BAR3,5,A*%
%TO.N,Net-(BAR3-Pad5)*%
X172787500Y-95955000D03*
%TO.P,BAR3,6,A*%
%TO.N,Net-(BAR3-Pad6)*%
X175327500Y-95955000D03*
%TO.P,BAR3,7,A*%
%TO.N,Net-(BAR3-Pad7)*%
X177867500Y-95955000D03*
%TO.P,BAR3,8,A*%
%TO.N,Net-(BAR3-Pad8)*%
X180407500Y-95955000D03*
%TO.P,BAR3,9,A*%
%TO.N,Net-(BAR3-Pad9)*%
X182947500Y-95955000D03*
%TO.P,BAR3,10,A*%
%TO.N,Net-(BAR3-Pad10)*%
X185487500Y-95955000D03*
%TO.P,BAR3,11,K*%
%TO.N,Net-(BAR3-Pad11)*%
X185487500Y-88335000D03*
%TO.P,BAR3,12,K*%
%TO.N,Net-(BAR3-Pad12)*%
X182947500Y-88335000D03*
%TO.P,BAR3,13,K*%
%TO.N,Net-(BAR3-Pad13)*%
X180407500Y-88335000D03*
%TO.P,BAR3,14,K*%
%TO.N,Net-(BAR3-Pad14)*%
X177867500Y-88335000D03*
%TO.P,BAR3,15,K*%
%TO.N,Net-(BAR3-Pad15)*%
X175327500Y-88335000D03*
%TO.P,BAR3,16,K*%
%TO.N,Net-(BAR3-Pad16)*%
X172787500Y-88335000D03*
%TO.P,BAR3,17,K*%
%TO.N,Net-(BAR3-Pad17)*%
X170247500Y-88335000D03*
%TO.P,BAR3,18,K*%
%TO.N,Net-(BAR3-Pad18)*%
X167707500Y-88335000D03*
%TO.P,BAR3,19,K*%
%TO.N,unconnected-(BAR3-Pad19)*%
X165167500Y-88335000D03*
%TO.P,BAR3,20,K*%
%TO.N,unconnected-(BAR3-Pad20)*%
X162627500Y-88335000D03*
%TD*%
D26*
%TO.P,U3,1,nc*%
%TO.N,unconnected-(U3-Pad1)*%
X143020000Y-190400000D03*
D27*
%TO.P,U3,2,D0*%
%TO.N,bD0*%
X140480000Y-187860000D03*
%TO.P,U3,3,D1*%
%TO.N,bD1*%
X140480000Y-190400000D03*
%TO.P,U3,4,D2*%
%TO.N,bD2*%
X137940000Y-187860000D03*
%TO.P,U3,5,D3*%
%TO.N,bD3*%
X137940000Y-190400000D03*
%TO.P,U3,6,D4*%
%TO.N,bD4*%
X135400000Y-187860000D03*
%TO.P,U3,7,D5*%
%TO.N,bD5*%
X132860000Y-190400000D03*
%TO.P,U3,8,D6*%
%TO.N,bD6*%
X135400000Y-190400000D03*
%TO.P,U3,9,D7*%
%TO.N,bD7*%
X132860000Y-192940000D03*
%TO.P,U3,10,RCLK*%
%TO.N,Net-(U3-Pad10)*%
X135400000Y-192940000D03*
%TO.P,U3,11,SIN*%
%TO.N,RX-3.3*%
X132860000Y-195480000D03*
%TO.P,U3,12,nc*%
%TO.N,unconnected-(U3-Pad12)*%
X135400000Y-195480000D03*
%TO.P,U3,13,SOUT*%
%TO.N,TX*%
X132860000Y-198020000D03*
%TO.P,U3,14,CS0*%
%TO.N,ONE*%
X135400000Y-198020000D03*
%TO.P,U3,15,CS1*%
X132860000Y-200560000D03*
%TO.P,U3,16,~{CS2}*%
%TO.N,~{CS-UART}*%
X135400000Y-200560000D03*
%TO.P,U3,17,~{BAUDOUT}*%
%TO.N,Net-(U3-Pad10)*%
X132860000Y-203100000D03*
%TO.P,U3,18,XIN*%
%TO.N,UART-CLK*%
X135400000Y-205640000D03*
%TO.P,U3,19,XOUT*%
%TO.N,unconnected-(U3-Pad19)*%
X135400000Y-203100000D03*
%TO.P,U3,20,~{WR}*%
%TO.N,~{bWR}*%
X137940000Y-205640000D03*
%TO.P,U3,21,WR*%
%TO.N,ZERO*%
X137940000Y-203100000D03*
%TO.P,U3,22,GND*%
%TO.N,GND*%
X140480000Y-205640000D03*
%TO.P,U3,23,nc*%
%TO.N,unconnected-(U3-Pad23)*%
X140480000Y-203100000D03*
%TO.P,U3,24,~{RD}*%
%TO.N,~{bRD}*%
X143020000Y-205640000D03*
%TO.P,U3,25,RD*%
%TO.N,ZERO*%
X143020000Y-203100000D03*
%TO.P,U3,26,DDIS*%
%TO.N,unconnected-(U3-Pad26)*%
X145560000Y-205640000D03*
%TO.P,U3,27,~{TXRDY}*%
%TO.N,unconnected-(U3-Pad27)*%
X145560000Y-203100000D03*
%TO.P,U3,28,~{ADS}*%
%TO.N,ZERO*%
X148100000Y-205640000D03*
%TO.P,U3,29,A2*%
%TO.N,bA2*%
X150640000Y-203100000D03*
%TO.P,U3,30,A1*%
%TO.N,bA1*%
X148100000Y-203100000D03*
%TO.P,U3,31,A0*%
%TO.N,bA0*%
X150640000Y-200560000D03*
%TO.P,U3,32,~{RXRDY}*%
%TO.N,unconnected-(U3-Pad32)*%
X148100000Y-200560000D03*
%TO.P,U3,33,INTR*%
%TO.N,unconnected-(U3-Pad33)*%
X150640000Y-198020000D03*
%TO.P,U3,34,nc*%
%TO.N,unconnected-(U3-Pad34)*%
X148100000Y-198020000D03*
%TO.P,U3,35,~{OUT2}*%
%TO.N,unconnected-(U3-Pad35)*%
X150640000Y-195480000D03*
%TO.P,U3,36,~{RTS}*%
%TO.N,~{RTS}*%
X148100000Y-195480000D03*
%TO.P,U3,37,~{DTR}*%
%TO.N,unconnected-(U3-Pad37)*%
X150640000Y-192940000D03*
%TO.P,U3,38,~{OUT1}*%
%TO.N,unconnected-(U3-Pad38)*%
X148100000Y-192940000D03*
%TO.P,U3,39,MR*%
%TO.N,RESET*%
X150640000Y-190400000D03*
%TO.P,U3,40,~{CTS}*%
%TO.N,~{CTS}*%
X148100000Y-187860000D03*
%TO.P,U3,41,~{DSR}*%
%TO.N,ZERO*%
X148100000Y-190400000D03*
%TO.P,U3,42,~{DCD}*%
X145560000Y-187860000D03*
%TO.P,U3,43,~{RI}*%
%TO.N,ONE*%
X145560000Y-190400000D03*
%TO.P,U3,44,VCC*%
%TO.N,VCC*%
X143020000Y-187860000D03*
%TD*%
D13*
%TO.P,R12,1*%
%TO.N,Net-(BAR4-Pad19)*%
X68500000Y-88500000D03*
D14*
%TO.P,R12,2*%
%TO.N,~{NMI}*%
X68500000Y-96120000D03*
%TD*%
D16*
%TO.P,D4,1,K*%
%TO.N,Net-(D4-Pad1)*%
X61790000Y-80850000D03*
D17*
%TO.P,D4,2,A*%
%TO.N,Net-(D4-Pad2)*%
X59250000Y-80850000D03*
%TD*%
D13*
%TO.P,R6,1*%
%TO.N,Net-(D3-Pad2)*%
X55250000Y-184690000D03*
D14*
%TO.P,R6,2*%
%TO.N,VCC*%
X55250000Y-192310000D03*
%TD*%
D28*
%TO.P,T1,*%
%TO.N,*%
X44952500Y-167350000D03*
X44952500Y-159150000D03*
D29*
%TO.P,T1,1,A*%
%TO.N,/BusMonitor/FF_4_OUT*%
X44952500Y-161250000D03*
D30*
%TO.P,T1,2,B*%
%TO.N,GND*%
X44952500Y-163250000D03*
%TO.P,T1,3,C*%
%TO.N,/BusMonitor/FF_3_OUT*%
X44952500Y-165250000D03*
%TD*%
D18*
%TO.P,BAR5,1,A*%
%TO.N,VCC*%
X88527500Y-96155000D03*
D19*
%TO.P,BAR5,2,A*%
X91067500Y-96155000D03*
%TO.P,BAR5,3,A*%
%TO.N,Net-(BAR5-Pad3)*%
X93607500Y-96155000D03*
%TO.P,BAR5,4,A*%
%TO.N,Net-(BAR5-Pad4)*%
X96147500Y-96155000D03*
%TO.P,BAR5,5,A*%
%TO.N,Net-(BAR5-Pad5)*%
X98687500Y-96155000D03*
%TO.P,BAR5,6,A*%
%TO.N,Net-(BAR5-Pad6)*%
X101227500Y-96155000D03*
%TO.P,BAR5,7,A*%
%TO.N,Net-(BAR5-Pad7)*%
X103767500Y-96155000D03*
%TO.P,BAR5,8,A*%
%TO.N,Net-(BAR5-Pad8)*%
X106307500Y-96155000D03*
%TO.P,BAR5,9,A*%
%TO.N,Net-(BAR5-Pad9)*%
X108847500Y-96155000D03*
%TO.P,BAR5,10,A*%
%TO.N,Net-(BAR5-Pad10)*%
X111387500Y-96155000D03*
%TO.P,BAR5,11,K*%
%TO.N,Net-(BAR5-Pad11)*%
X111387500Y-88535000D03*
%TO.P,BAR5,12,K*%
%TO.N,Net-(BAR5-Pad12)*%
X108847500Y-88535000D03*
%TO.P,BAR5,13,K*%
%TO.N,Net-(BAR5-Pad13)*%
X106307500Y-88535000D03*
%TO.P,BAR5,14,K*%
%TO.N,Net-(BAR5-Pad14)*%
X103767500Y-88535000D03*
%TO.P,BAR5,15,K*%
%TO.N,Net-(BAR5-Pad15)*%
X101227500Y-88535000D03*
%TO.P,BAR5,16,K*%
%TO.N,Net-(BAR5-Pad16)*%
X98687500Y-88535000D03*
%TO.P,BAR5,17,K*%
%TO.N,Net-(BAR5-Pad17)*%
X96147500Y-88535000D03*
%TO.P,BAR5,18,K*%
%TO.N,Net-(BAR5-Pad18)*%
X93607500Y-88535000D03*
%TO.P,BAR5,19,K*%
%TO.N,Net-(BAR5-Pad19)*%
X91067500Y-88535000D03*
%TO.P,BAR5,20,K*%
%TO.N,Net-(BAR5-Pad20)*%
X88527500Y-88535000D03*
%TD*%
D15*
%TO.P,U25,1,A*%
%TO.N,/BusMonitor/LED_LATCH*%
X49497500Y-114100000D03*
D14*
%TO.P,U25,2,B*%
%TO.N,VCC*%
X52037500Y-114100000D03*
%TO.P,U25,3,Clr*%
X54577500Y-114100000D03*
%TO.P,U25,4,~{Q}*%
%TO.N,unconnected-(U25-Pad4)*%
X57117500Y-114100000D03*
%TO.P,U25,5,Q*%
%TO.N,unconnected-(U25-Pad5)*%
X59657500Y-114100000D03*
%TO.P,U25,6,Cext*%
%TO.N,Net-(C32-Pad1)*%
X62197500Y-114100000D03*
%TO.P,U25,7,RCext*%
%TO.N,Net-(C32-Pad2)*%
X64737500Y-114100000D03*
%TO.P,U25,8,GND*%
%TO.N,GND*%
X67277500Y-114100000D03*
%TO.P,U25,9,A*%
%TO.N,/BusMonitor/FF_4_OUT*%
X67277500Y-106480000D03*
%TO.P,U25,10,B*%
%TO.N,/BusMonitor/MAS_RESET*%
X64737500Y-106480000D03*
%TO.P,U25,11,Clr*%
%TO.N,VCC*%
X62197500Y-106480000D03*
%TO.P,U25,12,~{Q}*%
%TO.N,/BusMonitor/WAIT_FF*%
X59657500Y-106480000D03*
%TO.P,U25,13,Q*%
%TO.N,/BusMonitor/DATA_OVER*%
X57117500Y-106480000D03*
%TO.P,U25,14,Cext*%
%TO.N,Net-(C13-Pad2)*%
X54577500Y-106480000D03*
%TO.P,U25,15,RCext*%
%TO.N,Net-(C13-Pad1)*%
X52037500Y-106480000D03*
%TO.P,U25,16,VCC*%
%TO.N,VCC*%
X49497500Y-106480000D03*
%TD*%
D15*
%TO.P,RN1,1,common*%
%TO.N,VCC*%
X163075000Y-185650000D03*
D14*
%TO.P,RN1,2,R1*%
%TO.N,Net-(RN1-Pad2)*%
X165615000Y-185650000D03*
%TO.P,RN1,3,R2*%
%TO.N,Net-(RN1-Pad3)*%
X168155000Y-185650000D03*
%TO.P,RN1,4,R3*%
%TO.N,Net-(RN1-Pad4)*%
X170695000Y-185650000D03*
%TO.P,RN1,5,R4*%
%TO.N,Net-(RN1-Pad5)*%
X173235000Y-185650000D03*
%TO.P,RN1,6,R5*%
%TO.N,Net-(RN1-Pad6)*%
X175775000Y-185650000D03*
%TO.P,RN1,7,R6*%
%TO.N,unconnected-(RN1-Pad7)*%
X178315000Y-185650000D03*
%TO.P,RN1,8,R7*%
%TO.N,RESET*%
X180855000Y-185650000D03*
%TO.P,RN1,9,R8*%
%TO.N,Net-(RN1-Pad9)*%
X183395000Y-185650000D03*
%TD*%
D13*
%TO.P,C27,1*%
%TO.N,VCC*%
X51000000Y-156250000D03*
%TO.P,C27,2*%
%TO.N,GND*%
X56000000Y-156250000D03*
%TD*%
%TO.P,R10,1*%
%TO.N,Net-(D7-Pad2)*%
X80250000Y-184690000D03*
D14*
%TO.P,R10,2*%
%TO.N,VCC*%
X80250000Y-192310000D03*
%TD*%
D31*
%TO.P,Q1,1,E*%
%TO.N,GND*%
X161480000Y-192070000D03*
D32*
%TO.P,Q1,2,B*%
%TO.N,Net-(Q1-Pad2)*%
X162750000Y-190000000D03*
%TO.P,Q1,3,C*%
%TO.N,RESET*%
X164020000Y-192070000D03*
%TD*%
D13*
%TO.P,C8,1*%
%TO.N,VCC*%
X199750000Y-156000000D03*
%TO.P,C8,2*%
%TO.N,GND*%
X204750000Y-156000000D03*
%TD*%
D15*
%TO.P,U17,1,B3*%
%TO.N,/BusMonitor/H_A1*%
X199600000Y-166800000D03*
D14*
%TO.P,U17,2,Ia<b*%
%TO.N,GND*%
X202140000Y-166800000D03*
%TO.P,U17,3,Ia=b*%
%TO.N,/BusMonitor/IN_=*%
X204680000Y-166800000D03*
%TO.P,U17,4,Ia>b*%
%TO.N,GND*%
X207220000Y-166800000D03*
%TO.P,U17,5,Oa>b*%
%TO.N,unconnected-(U17-Pad5)*%
X209760000Y-166800000D03*
%TO.P,U17,6,Oa=b*%
%TO.N,/BusMonitor/H1_OUT_=*%
X212300000Y-166800000D03*
%TO.P,U17,7,Oa<b*%
%TO.N,unconnected-(U17-Pad7)*%
X214840000Y-166800000D03*
%TO.P,U17,8,GND*%
%TO.N,GND*%
X217380000Y-166800000D03*
%TO.P,U17,9,B0*%
%TO.N,/BusMonitor/H_A2*%
X217380000Y-159180000D03*
%TO.P,U17,10,A0*%
%TO.N,A2*%
X214840000Y-159180000D03*
%TO.P,U17,11,B1*%
%TO.N,/BusMonitor/H_A3*%
X212300000Y-159180000D03*
%TO.P,U17,12,A1*%
%TO.N,A3*%
X209760000Y-159180000D03*
%TO.P,U17,13,A2*%
%TO.N,A0*%
X207220000Y-159180000D03*
%TO.P,U17,14,B2*%
%TO.N,/BusMonitor/H_A0*%
X204680000Y-159180000D03*
%TO.P,U17,15,A3*%
%TO.N,A1*%
X202140000Y-159180000D03*
%TO.P,U17,16,VCC*%
%TO.N,VCC*%
X199600000Y-159180000D03*
%TD*%
D15*
%TO.P,U26,1,A*%
%TO.N,/BusMonitor/H1_OUT_=*%
X49600000Y-151050000D03*
D14*
%TO.P,U26,2,B*%
%TO.N,VCC*%
X52140000Y-151050000D03*
%TO.P,U26,3,Clr*%
X54680000Y-151050000D03*
%TO.P,U26,4,~{Q}*%
%TO.N,unconnected-(U26-Pad4)*%
X57220000Y-151050000D03*
%TO.P,U26,5,Q*%
%TO.N,/BusMonitor/H2_LED*%
X59760000Y-151050000D03*
%TO.P,U26,6,Cext*%
%TO.N,Net-(C33-Pad2)*%
X62300000Y-151050000D03*
%TO.P,U26,7,RCext*%
%TO.N,Net-(C33-Pad1)*%
X64840000Y-151050000D03*
%TO.P,U26,8,GND*%
%TO.N,GND*%
X67380000Y-151050000D03*
%TO.P,U26,9,A*%
%TO.N,/BusMonitor/H2_OUT_=*%
X67380000Y-143430000D03*
%TO.P,U26,10,B*%
%TO.N,VCC*%
X64840000Y-143430000D03*
%TO.P,U26,11,Clr*%
X62300000Y-143430000D03*
%TO.P,U26,12,~{Q}*%
%TO.N,unconnected-(U26-Pad12)*%
X59760000Y-143430000D03*
%TO.P,U26,13,Q*%
%TO.N,/BusMonitor/H1_LED*%
X57220000Y-143430000D03*
%TO.P,U26,14,Cext*%
%TO.N,Net-(C15-Pad2)*%
X54680000Y-143430000D03*
%TO.P,U26,15,RCext*%
%TO.N,Net-(C15-Pad1)*%
X52140000Y-143430000D03*
%TO.P,U26,16,VCC*%
%TO.N,VCC*%
X49600000Y-143430000D03*
%TD*%
D15*
%TO.P,RR5,1,common*%
%TO.N,GND*%
X90925000Y-84155000D03*
D14*
%TO.P,RR5,2,R1*%
%TO.N,Net-(BAR5-Pad18)*%
X93465000Y-84155000D03*
%TO.P,RR5,3,R2*%
%TO.N,Net-(BAR5-Pad17)*%
X96005000Y-84155000D03*
%TO.P,RR5,4,R3*%
%TO.N,Net-(BAR5-Pad16)*%
X98545000Y-84155000D03*
%TO.P,RR5,5,R4*%
%TO.N,Net-(BAR5-Pad15)*%
X101085000Y-84155000D03*
%TO.P,RR5,6,R5*%
%TO.N,Net-(BAR5-Pad14)*%
X103625000Y-84155000D03*
%TO.P,RR5,7,R6*%
%TO.N,Net-(BAR5-Pad13)*%
X106165000Y-84155000D03*
%TO.P,RR5,8,R7*%
%TO.N,Net-(BAR5-Pad12)*%
X108705000Y-84155000D03*
%TO.P,RR5,9,R8*%
%TO.N,Net-(BAR5-Pad11)*%
X111245000Y-84155000D03*
%TD*%
D33*
%TO.N,~{RESET}*%
X82172600Y-134138800D03*
%TO.N,/BusMonitor/WAIT_FF*%
X74218000Y-144112200D03*
%TO.N,/BusMonitor/H2_LED*%
X67758200Y-134081100D03*
%TO.N,Net-(SW3-Pad5)*%
X133944200Y-151808400D03*
%TO.N,Net-(SW3-Pad4)*%
X132029500Y-152702600D03*
%TO.N,/BusMonitor/H1_OUT_=*%
X233033300Y-154954800D03*
%TO.N,/BusMonitor/H2_OUT_=*%
X179293500Y-165127900D03*
X68758000Y-170052500D03*
%TO.N,/BusMonitor/H4_OUT_=*%
X84382400Y-123535400D03*
%TO.N,/BusMonitor/H_A9*%
X148154800Y-148550000D03*
%TO.N,/BusMonitor/H_A10*%
X157295700Y-168625600D03*
%TO.N,/BusMonitor/H_A1*%
X207685100Y-156644400D03*
%TO.N,/BusMonitor/H_A4*%
X197185800Y-139386200D03*
%TO.N,/BusMonitor/MAS_RESET*%
X216759800Y-129126600D03*
X74234800Y-136362800D03*
%TO.N,A8*%
X152126700Y-124509200D03*
X161564100Y-217241500D03*
%TO.N,A9*%
X151596600Y-125587900D03*
X125771100Y-163209400D03*
%TO.N,A10*%
X150132500Y-127451100D03*
X126266900Y-162199800D03*
%TO.N,A11*%
X151669500Y-127300600D03*
%TO.N,A13*%
X119572500Y-224217400D03*
X113921300Y-159774100D03*
%TO.N,A14*%
X116156900Y-156773100D03*
%TO.N,A15*%
X114915600Y-159008400D03*
%TO.N,~{RFSH}*%
X111154500Y-154391300D03*
%TO.N,~{INT0}*%
X82722800Y-141530400D03*
%TO.N,~{BUSACK}*%
X81112300Y-93382100D03*
%TO.N,~{MREQ}*%
X52003000Y-198114900D03*
%TO.N,/BusMonitor/WAIT_ACTIVE*%
X111855600Y-129319600D03*
%TO.N,/BusMonitor/LED_LATCH*%
X97444000Y-139629700D03*
X132542900Y-127419800D03*
X84403500Y-113948800D03*
%TO.N,~{WAIT}*%
X82272500Y-139981500D03*
%TO.N,/BusMonitor/FF_2_OUT*%
X109039600Y-143933600D03*
%TO.N,Net-(BAR4-Pad12)*%
X144464300Y-104458500D03*
%TO.N,~{CTS}*%
X146407900Y-176602400D03*
%TO.N,TX*%
X146037200Y-177630600D03*
%TO.N,~{RTS}*%
X86549200Y-183049200D03*
%TO.N,Net-(D8-Pad1)*%
X81089500Y-182267000D03*
%TO.N,Net-(D7-Pad1)*%
X68986500Y-201309100D03*
%TO.N,Net-(D6-Pad1)*%
X68049300Y-199680000D03*
%TO.N,Net-(D5-Pad1)*%
X68077400Y-205104600D03*
%TO.N,~{CS-UART}*%
X162895100Y-202727200D03*
X56837500Y-195466700D03*
%TO.N,UART-CLK*%
X141266200Y-206731400D03*
%TO.N,bA3*%
X131301500Y-210915300D03*
%TO.N,bA1*%
X131374300Y-202726500D03*
%TO.N,bA4*%
X181315100Y-204748600D03*
%TO.N,bA5*%
X171791100Y-205150700D03*
%TO.N,bA6*%
X166303500Y-205593100D03*
%TO.N,bA7*%
X162124200Y-206024100D03*
%TO.N,~{bRESET}*%
X81551600Y-188113300D03*
%TO.N,~{bRD}*%
X133429000Y-204872900D03*
%TO.N,bD0*%
X139259900Y-194709400D03*
%TO.N,bD3*%
X144643400Y-195953100D03*
X156121400Y-204198200D03*
X236218300Y-207523100D03*
%TO.N,bD5*%
X142948900Y-195925900D03*
X159270500Y-211281900D03*
X244407800Y-208530800D03*
%TO.N,ZERO*%
X157908300Y-197655100D03*
%TO.N,D5*%
X249216800Y-213175400D03*
%TO.N,D4*%
X248628900Y-214031600D03*
%TO.N,D2*%
X252423100Y-210318100D03*
%TO.N,A7*%
X121089800Y-166056500D03*
%TO.N,A6*%
X120316700Y-166821500D03*
%TO.N,A5*%
X182202300Y-136727600D03*
X158976500Y-214017000D03*
%TO.N,A4*%
X161427100Y-211745400D03*
X197014400Y-161915100D03*
%TO.N,A2*%
X181788600Y-210463300D03*
%TO.N,A1*%
X219837200Y-139592400D03*
X184493200Y-206236900D03*
%TO.N,A0*%
X185498600Y-205693200D03*
%TO.N,~{RD}*%
X78870700Y-205983500D03*
X81822200Y-135588800D03*
X81860000Y-167835800D03*
%TO.N,~{WR}*%
X83514100Y-169007800D03*
X133029900Y-153044000D03*
%TO.N,~{IORQ}*%
X84073700Y-160052900D03*
X84247600Y-132139200D03*
%TO.N,~{M1}*%
X83623400Y-161053300D03*
X84246900Y-129839200D03*
%TO.N,Net-(RN1-Pad9)*%
X179543900Y-198580600D03*
%TO.N,I2C_SCL*%
X179131300Y-172065800D03*
%TO.N,VCC*%
X232091400Y-134250000D03*
X160565400Y-138402000D03*
%TD*%
D34*
%TO.N,~{RESET}*%
X96339700Y-218191900D02*
X96339700Y-219000000D01*
X95972500Y-217824700D02*
X96339700Y-218191900D01*
X83998500Y-217824700D02*
X95972500Y-217824700D01*
X73755100Y-207581300D02*
X83998500Y-217824700D01*
X73755100Y-207300000D02*
X73755100Y-207581300D01*
X72629800Y-207300000D02*
X73755100Y-207300000D01*
X97515000Y-219000000D02*
X96339700Y-219000000D01*
X88225000Y-130500000D02*
X87099700Y-130500000D01*
X83460900Y-134138800D02*
X82172600Y-134138800D01*
X87099700Y-130500000D02*
X83460900Y-134138800D01*
%TO.N,Net-(U23-Pad8)*%
X93305000Y-130500000D02*
X94430300Y-130500000D01*
X253865000Y-159180000D02*
X253865000Y-158054700D01*
X94430300Y-130323100D02*
X94430300Y-130500000D01*
X95564800Y-129188600D02*
X94430300Y-130323100D01*
X96231600Y-129188600D02*
X95564800Y-129188600D01*
X97303500Y-128116700D02*
X96231600Y-129188600D01*
X112374600Y-128116700D02*
X97303500Y-128116700D01*
X112449500Y-128191600D02*
X112374600Y-128116700D01*
X168059300Y-128191600D02*
X112449500Y-128191600D01*
X168457800Y-127793100D02*
X168059300Y-128191600D01*
X236289500Y-127793100D02*
X168457800Y-127793100D01*
X238052900Y-129556500D02*
X236289500Y-127793100D01*
X238052900Y-130680300D02*
X238052900Y-129556500D01*
X239180600Y-131808000D02*
X238052900Y-130680300D01*
X248502000Y-131808000D02*
X239180600Y-131808000D01*
X250545000Y-133851000D02*
X248502000Y-131808000D01*
X250545000Y-134577500D02*
X250545000Y-133851000D01*
X252251800Y-136284300D02*
X250545000Y-134577500D01*
X255114700Y-136284300D02*
X252251800Y-136284300D01*
X256759600Y-137929200D02*
X255114700Y-136284300D01*
X256759600Y-155160100D02*
X256759600Y-137929200D01*
X253865000Y-158054700D02*
X256759600Y-155160100D01*
%TO.N,/BusMonitor/WAIT_FF*%
X98385000Y-146050000D02*
X97259700Y-146050000D01*
X97259700Y-145768600D02*
X97259700Y-146050000D01*
X96415800Y-144924700D02*
X97259700Y-145768600D01*
X92825300Y-144924700D02*
X96415800Y-144924700D01*
X92035000Y-145715000D02*
X92825300Y-144924700D01*
X92035000Y-151305200D02*
X92035000Y-145715000D01*
X91163700Y-152176500D02*
X92035000Y-151305200D01*
X82282300Y-152176500D02*
X91163700Y-152176500D01*
X74218000Y-144112200D02*
X82282300Y-152176500D01*
%TO.N,/BusMonitor/DATA_OVER*%
X94817200Y-106761300D02*
X94817200Y-106480000D01*
X93475800Y-108102700D02*
X94817200Y-106761300D01*
X59584200Y-108102700D02*
X93475800Y-108102700D01*
X58242800Y-106761300D02*
X59584200Y-108102700D01*
X58242800Y-106480000D02*
X58242800Y-106761300D01*
X57117500Y-106480000D02*
X58242800Y-106480000D01*
X95942500Y-106480000D02*
X94817200Y-106480000D01*
%TO.N,/BusMonitor/H1_LED*%
X57220000Y-143430000D02*
X58345300Y-143430000D01*
X58345300Y-143148700D02*
X58345300Y-143430000D01*
X66376800Y-135117200D02*
X58345300Y-143148700D01*
X72277200Y-135117200D02*
X66376800Y-135117200D01*
X72727500Y-134666900D02*
X72277200Y-135117200D01*
X74913600Y-134666900D02*
X72727500Y-134666900D01*
X85149900Y-124430600D02*
X74913600Y-134666900D01*
X93349000Y-124430600D02*
X85149900Y-124430600D01*
X94575000Y-123204600D02*
X93349000Y-124430600D01*
X94575000Y-122479600D02*
X94575000Y-123204600D01*
X101597600Y-115457000D02*
X94575000Y-122479600D01*
X104745500Y-115457000D02*
X101597600Y-115457000D01*
X106102500Y-114100000D02*
X104745500Y-115457000D01*
%TO.N,/BusMonitor/H2_LED*%
X101022500Y-114100000D02*
X99897200Y-114100000D01*
X74862500Y-134081100D02*
X67758200Y-134081100D01*
X87566100Y-121377500D02*
X74862500Y-134081100D01*
X93323000Y-121377500D02*
X87566100Y-121377500D01*
X99897200Y-114803300D02*
X93323000Y-121377500D01*
X99897200Y-114100000D02*
X99897200Y-114803300D01*
%TO.N,/BusMonitor/H3_LED*%
X94817200Y-114381300D02*
X94817200Y-114100000D01*
X90573900Y-118624600D02*
X94817200Y-114381300D01*
X62369400Y-118624600D02*
X90573900Y-118624600D01*
X58345300Y-122648700D02*
X62369400Y-118624600D01*
X58345300Y-122930000D02*
X58345300Y-122648700D01*
X57220000Y-122930000D02*
X58345300Y-122930000D01*
X95942500Y-114100000D02*
X94817200Y-114100000D01*
%TO.N,/BusMonitor/H4_LED*%
X89737200Y-114803300D02*
X89737200Y-114100000D01*
X86567600Y-117972900D02*
X89737200Y-114803300D01*
X60519600Y-117972900D02*
X86567600Y-117972900D01*
X56066100Y-122426400D02*
X60519600Y-117972900D01*
X56066100Y-125730800D02*
X56066100Y-122426400D01*
X59760000Y-129424700D02*
X56066100Y-125730800D01*
X59760000Y-130550000D02*
X59760000Y-129424700D01*
X90862500Y-114100000D02*
X89737200Y-114100000D01*
%TO.N,Net-(C34-Pad2)*%
X71764600Y-128969700D02*
X73294900Y-130500000D01*
X64724300Y-128969700D02*
X71764600Y-128969700D01*
X63425300Y-130268700D02*
X64724300Y-128969700D01*
X63425300Y-130550000D02*
X63425300Y-130268700D01*
X62300000Y-130550000D02*
X63425300Y-130550000D01*
%TO.N,Net-(C34-Pad1)*%
X68594300Y-129424700D02*
X69669600Y-130500000D01*
X66809200Y-129424700D02*
X68594300Y-129424700D01*
X65965300Y-130268600D02*
X66809200Y-129424700D01*
X65965300Y-130550000D02*
X65965300Y-130268600D01*
X64840000Y-130550000D02*
X65965300Y-130550000D01*
X70794900Y-130500000D02*
X69669600Y-130500000D01*
%TO.N,Net-(C13-Pad2)*%
X53452200Y-106761300D02*
X53452200Y-106480000D01*
X52157600Y-108055900D02*
X53452200Y-106761300D01*
X47600800Y-108055900D02*
X52157600Y-108055900D01*
X46044900Y-106500000D02*
X47600800Y-108055900D01*
X54577500Y-106480000D02*
X53452200Y-106480000D01*
%TO.N,Net-(C13-Pad1)*%
X44670200Y-106218600D02*
X44670200Y-106500000D01*
X45514100Y-105374700D02*
X44670200Y-106218600D01*
X46755700Y-105374700D02*
X45514100Y-105374700D01*
X48986500Y-107605500D02*
X46755700Y-105374700D01*
X50068000Y-107605500D02*
X48986500Y-107605500D01*
X50912200Y-106761300D02*
X50068000Y-107605500D01*
X50912200Y-106480000D02*
X50912200Y-106761300D01*
X52037500Y-106480000D02*
X50912200Y-106480000D01*
X43544900Y-106500000D02*
X44670200Y-106500000D01*
%TO.N,Net-(SW3-Pad8)*%
X55955000Y-159430000D02*
X57080300Y-159430000D01*
X144480000Y-145767500D02*
X143354700Y-145767500D01*
X57080300Y-159148600D02*
X57080300Y-159430000D01*
X57924200Y-158304700D02*
X57080300Y-159148600D01*
X61547200Y-158304700D02*
X57924200Y-158304700D01*
X66528400Y-153323500D02*
X61547200Y-158304700D01*
X108248700Y-153323500D02*
X66528400Y-153323500D01*
X117840000Y-143732200D02*
X108248700Y-153323500D01*
X141600700Y-143732200D02*
X117840000Y-143732200D01*
X143354700Y-145486200D02*
X141600700Y-143732200D01*
X143354700Y-145767500D02*
X143354700Y-145486200D01*
%TO.N,Net-(SW3-Pad7)*%
X140814700Y-145486200D02*
X140814700Y-145767500D01*
X139511100Y-144182600D02*
X140814700Y-145486200D01*
X119435600Y-144182600D02*
X139511100Y-144182600D01*
X109582800Y-154035400D02*
X119435600Y-144182600D01*
X67338800Y-154035400D02*
X109582800Y-154035400D01*
X62160300Y-159213900D02*
X67338800Y-154035400D01*
X62160300Y-159430000D02*
X62160300Y-159213900D01*
X61035000Y-159430000D02*
X62160300Y-159430000D01*
X141940000Y-145767500D02*
X140814700Y-145767500D01*
%TO.N,Net-(SW3-Pad6)*%
X139400000Y-145767500D02*
X138274700Y-145767500D01*
X66115000Y-159430000D02*
X67240300Y-159430000D01*
X138274700Y-145486100D02*
X138274700Y-145767500D01*
X137430800Y-144642200D02*
X138274700Y-145486100D01*
X122042000Y-144642200D02*
X137430800Y-144642200D01*
X111559600Y-155124600D02*
X122042000Y-144642200D01*
X71545700Y-155124600D02*
X111559600Y-155124600D01*
X67240300Y-159430000D02*
X71545700Y-155124600D01*
%TO.N,Net-(SW3-Pad5)*%
X63575000Y-167050000D02*
X64700300Y-167050000D01*
X126573900Y-151808400D02*
X133944200Y-151808400D01*
X115608900Y-162773400D02*
X126573900Y-151808400D01*
X86967400Y-162773400D02*
X115608900Y-162773400D01*
X83816100Y-165924700D02*
X86967400Y-162773400D01*
X65544200Y-165924700D02*
X83816100Y-165924700D01*
X64700300Y-166768600D02*
X65544200Y-165924700D01*
X64700300Y-167050000D02*
X64700300Y-166768600D01*
%TO.N,Net-(SW3-Pad4)*%
X58495000Y-167050000D02*
X59620300Y-167050000D01*
X59620300Y-167331300D02*
X59620300Y-167050000D01*
X60954400Y-168665400D02*
X59620300Y-167331300D01*
X67823100Y-168665400D02*
X60954400Y-168665400D01*
X68111000Y-168377500D02*
X67823100Y-168665400D01*
X81063100Y-168377500D02*
X68111000Y-168377500D01*
X81246700Y-168561100D02*
X81063100Y-168377500D01*
X82748000Y-168561100D02*
X81246700Y-168561100D01*
X87860300Y-163448800D02*
X82748000Y-168561100D01*
X115570400Y-163448800D02*
X87860300Y-163448800D01*
X126316600Y-152702600D02*
X115570400Y-163448800D01*
X132029500Y-152702600D02*
X126316600Y-152702600D01*
%TO.N,Net-(SW3-Pad3)*%
X53415000Y-167050000D02*
X54540300Y-167050000D01*
X131780000Y-145767500D02*
X130654700Y-145767500D01*
X54540300Y-166816000D02*
X54540300Y-167050000D01*
X59577700Y-161778600D02*
X54540300Y-166816000D01*
X83923900Y-161778600D02*
X59577700Y-161778600D01*
X88102000Y-157600500D02*
X83923900Y-161778600D01*
X88102000Y-157600400D02*
X88102000Y-157600500D01*
X94147800Y-157600400D02*
X88102000Y-157600400D01*
X96098100Y-155650100D02*
X94147800Y-157600400D01*
X112291200Y-155650100D02*
X96098100Y-155650100D01*
X121048500Y-146892800D02*
X112291200Y-155650100D01*
X129810800Y-146892800D02*
X121048500Y-146892800D01*
X130654700Y-146048900D02*
X129810800Y-146892800D01*
X130654700Y-145767500D02*
X130654700Y-146048900D01*
%TO.N,/BusMonitor/H1_OUT_=*%
X235600200Y-154954800D02*
X233033300Y-154954800D01*
X244344700Y-146210300D02*
X235600200Y-154954800D01*
X244344700Y-146017500D02*
X244344700Y-146210300D01*
X245470000Y-146017500D02*
X244344700Y-146017500D01*
X49600000Y-151050000D02*
X48474700Y-151050000D01*
X212300000Y-166800000D02*
X211174700Y-166800000D01*
X211174700Y-167081300D02*
X211174700Y-166800000D01*
X207453000Y-170803000D02*
X211174700Y-167081300D01*
X45068600Y-170803000D02*
X207453000Y-170803000D01*
X41931000Y-167665400D02*
X45068600Y-170803000D01*
X41931000Y-157593700D02*
X41931000Y-167665400D01*
X48474700Y-151050000D02*
X41931000Y-157593700D01*
%TO.N,/BusMonitor/H2_OUT_=*%
X241804700Y-146298900D02*
X241804700Y-146017500D01*
X240960800Y-147142800D02*
X241804700Y-146298900D01*
X239469900Y-147142800D02*
X240960800Y-147142800D01*
X221484800Y-165127900D02*
X239469900Y-147142800D01*
X179293500Y-165127900D02*
X221484800Y-165127900D01*
X242930000Y-146017500D02*
X241804700Y-146017500D01*
X175300000Y-166800000D02*
X174174700Y-166800000D01*
X68905300Y-170199800D02*
X68758000Y-170052500D01*
X171056200Y-170199800D02*
X68905300Y-170199800D01*
X174174700Y-167081300D02*
X171056200Y-170199800D01*
X174174700Y-166800000D02*
X174174700Y-167081300D01*
%TO.N,/BusMonitor/H3_OUT_=*%
X137800000Y-167050000D02*
X136674700Y-167050000D01*
X137800000Y-167050000D02*
X138925300Y-167050000D01*
X240390000Y-146017500D02*
X239264700Y-146017500D01*
X138925300Y-166768700D02*
X138925300Y-167050000D01*
X141291400Y-164402600D02*
X138925300Y-166768700D01*
X221573200Y-164402600D02*
X141291400Y-164402600D01*
X239264700Y-146711100D02*
X221573200Y-164402600D01*
X239264700Y-146017500D02*
X239264700Y-146711100D01*
X49600000Y-137457500D02*
X49600000Y-130550000D01*
X54361000Y-142218500D02*
X49600000Y-137457500D01*
X55110900Y-142218500D02*
X54361000Y-142218500D01*
X55845100Y-142952700D02*
X55110900Y-142218500D01*
X55845100Y-143921100D02*
X55845100Y-142952700D01*
X50725400Y-149040800D02*
X55845100Y-143921100D01*
X50725400Y-152027300D02*
X50725400Y-149040800D01*
X47420000Y-155332700D02*
X50725400Y-152027300D01*
X45375000Y-155332700D02*
X47420000Y-155332700D01*
X42381800Y-158325900D02*
X45375000Y-155332700D01*
X42381800Y-167460300D02*
X42381800Y-158325900D01*
X44487500Y-169566000D02*
X42381800Y-167460300D01*
X68196400Y-169566000D02*
X44487500Y-169566000D01*
X68484300Y-169278100D02*
X68196400Y-169566000D01*
X69546900Y-169278100D02*
X68484300Y-169278100D01*
X70001900Y-169733100D02*
X69546900Y-169278100D01*
X89499600Y-169733100D02*
X70001900Y-169733100D01*
X91910000Y-167322700D02*
X89499600Y-169733100D01*
X91910000Y-166589500D02*
X91910000Y-167322700D01*
X92676100Y-165823400D02*
X91910000Y-166589500D01*
X98680200Y-165823400D02*
X92676100Y-165823400D01*
X99674700Y-166817900D02*
X98680200Y-165823400D01*
X99674700Y-167494300D02*
X99674700Y-166817900D01*
X100326700Y-168146300D02*
X99674700Y-167494300D01*
X121371200Y-168146300D02*
X100326700Y-168146300D01*
X123074300Y-166443200D02*
X121371200Y-168146300D01*
X123074300Y-166373300D02*
X123074300Y-166443200D01*
X123973200Y-165474400D02*
X123074300Y-166373300D01*
X135380400Y-165474400D02*
X123973200Y-165474400D01*
X136674700Y-166768700D02*
X135380400Y-165474400D01*
X136674700Y-167050000D02*
X136674700Y-166768700D01*
%TO.N,/BusMonitor/H4_OUT_=*%
X100800000Y-167000000D02*
X101925300Y-167000000D01*
X237850000Y-146017500D02*
X236724700Y-146017500D01*
X69110700Y-123535400D02*
X84382400Y-123535400D01*
X68505300Y-122930000D02*
X69110700Y-123535400D01*
X67380000Y-122930000D02*
X68505300Y-122930000D01*
X101925300Y-166718700D02*
X101925300Y-167000000D01*
X102774800Y-165869200D02*
X101925300Y-166718700D01*
X118338700Y-165869200D02*
X102774800Y-165869200D01*
X120016300Y-167546800D02*
X118338700Y-165869200D01*
X121264000Y-167546800D02*
X120016300Y-167546800D01*
X121264000Y-167546700D02*
X121264000Y-167546800D01*
X123786600Y-165024100D02*
X121264000Y-167546700D01*
X134164900Y-165024100D02*
X123786600Y-165024100D01*
X135236700Y-163952300D02*
X134164900Y-165024100D01*
X218789900Y-163952300D02*
X135236700Y-163952300D01*
X236724700Y-146017500D02*
X218789900Y-163952300D01*
%TO.N,/BusMonitor/H_A8*%
X180204700Y-145848900D02*
X180204700Y-145567500D01*
X179360800Y-146692800D02*
X180204700Y-145848900D01*
X174391500Y-146692800D02*
X179360800Y-146692800D01*
X163070300Y-158014000D02*
X174391500Y-146692800D01*
X145421300Y-158014000D02*
X163070300Y-158014000D01*
X144005300Y-159430000D02*
X145421300Y-158014000D01*
X142880000Y-159430000D02*
X144005300Y-159430000D01*
X181330000Y-145567500D02*
X180204700Y-145567500D01*
%TO.N,/BusMonitor/H_A9*%
X178790000Y-145567500D02*
X177664700Y-145567500D01*
X152731500Y-143973300D02*
X148154800Y-148550000D01*
X176351800Y-143973300D02*
X152731500Y-143973300D01*
X177664700Y-145286200D02*
X176351800Y-143973300D01*
X177664700Y-145567500D02*
X177664700Y-145286200D01*
%TO.N,/BusMonitor/H_A10*%
X125100000Y-167050000D02*
X126225300Y-167050000D01*
X127519500Y-168625600D02*
X157295700Y-168625600D01*
X126225300Y-167331400D02*
X127519500Y-168625600D01*
X126225300Y-167050000D02*
X126225300Y-167331400D01*
%TO.N,/BusMonitor/H_A11*%
X162880600Y-157522200D02*
X173710000Y-146692800D01*
X132931800Y-157522200D02*
X162880600Y-157522200D01*
X131305300Y-159148700D02*
X132931800Y-157522200D01*
X131305300Y-159430000D02*
X131305300Y-159148700D01*
X130180000Y-159430000D02*
X131305300Y-159430000D01*
X173710000Y-145567500D02*
X173710000Y-146692800D01*
%TO.N,/BusMonitor/H_A12*%
X95720000Y-159380000D02*
X96845300Y-159380000D01*
X171170000Y-145567500D02*
X170044700Y-145567500D01*
X170044700Y-145286100D02*
X170044700Y-145567500D01*
X169200800Y-144442200D02*
X170044700Y-145286100D01*
X168163800Y-144442200D02*
X169200800Y-144442200D01*
X167360000Y-145246000D02*
X168163800Y-144442200D01*
X167360000Y-145889300D02*
X167360000Y-145246000D01*
X162623000Y-150626300D02*
X167360000Y-145889300D01*
X126482200Y-150626300D02*
X162623000Y-150626300D01*
X115643300Y-161465200D02*
X126482200Y-150626300D01*
X98649200Y-161465200D02*
X115643300Y-161465200D01*
X96845300Y-159661300D02*
X98649200Y-161465200D01*
X96845300Y-159380000D02*
X96845300Y-159661300D01*
%TO.N,/BusMonitor/H_A13*%
X90640000Y-159380000D02*
X91765300Y-159380000D01*
X163120900Y-151076600D02*
X168630000Y-145567500D01*
X126668800Y-151076600D02*
X163120900Y-151076600D01*
X115799800Y-161945600D02*
X126668800Y-151076600D01*
X94049600Y-161945600D02*
X115799800Y-161945600D01*
X91765300Y-159661300D02*
X94049600Y-161945600D01*
X91765300Y-159380000D02*
X91765300Y-159661300D01*
%TO.N,/BusMonitor/H_A14*%
X100800000Y-159380000D02*
X101925300Y-159380000D01*
X166090000Y-145567500D02*
X164964700Y-145567500D01*
X164964700Y-146213400D02*
X164964700Y-145567500D01*
X161002100Y-150176000D02*
X164964700Y-146213400D01*
X126295600Y-150176000D02*
X161002100Y-150176000D01*
X115460300Y-161011300D02*
X126295600Y-150176000D01*
X103275300Y-161011300D02*
X115460300Y-161011300D01*
X101925300Y-159661300D02*
X103275300Y-161011300D01*
X101925300Y-159380000D02*
X101925300Y-159661300D01*
%TO.N,/BusMonitor/H_A15*%
X163550000Y-145567500D02*
X162424700Y-145567500D01*
X103340000Y-159380000D02*
X104465300Y-159380000D01*
X158266500Y-149725700D02*
X162424700Y-145567500D01*
X125884200Y-149725700D02*
X158266500Y-149725700D01*
X115104600Y-160505300D02*
X125884200Y-149725700D01*
X105309200Y-160505300D02*
X115104600Y-160505300D01*
X104465300Y-159661400D02*
X105309200Y-160505300D01*
X104465300Y-159380000D02*
X104465300Y-159661400D01*
%TO.N,/BusMonitor/H_A0*%
X207950600Y-158054700D02*
X218880000Y-147125300D01*
X206739600Y-158054700D02*
X207950600Y-158054700D01*
X205805300Y-158989000D02*
X206739600Y-158054700D01*
X205805300Y-159180000D02*
X205805300Y-158989000D01*
X204680000Y-159180000D02*
X205805300Y-159180000D01*
X218880000Y-146000000D02*
X218880000Y-147125300D01*
%TO.N,/BusMonitor/H_A1*%
X216340000Y-147989500D02*
X216340000Y-146000000D01*
X207685100Y-156644400D02*
X216340000Y-147989500D01*
%TO.N,/BusMonitor/H_A4*%
X206699600Y-147176400D02*
X197185800Y-147176400D01*
X207594700Y-146281300D02*
X206699600Y-147176400D01*
X207594700Y-146000000D02*
X207594700Y-146281300D01*
X174916100Y-147176400D02*
X197185800Y-147176400D01*
X165140000Y-156952500D02*
X174916100Y-147176400D01*
X165140000Y-159180000D02*
X165140000Y-156952500D01*
X197185800Y-147176400D02*
X197185800Y-139386200D01*
X208720000Y-146000000D02*
X207594700Y-146000000D01*
%TO.N,/BusMonitor/H_A5*%
X207445000Y-143609700D02*
X207445000Y-134250000D01*
X206180000Y-144874700D02*
X207445000Y-143609700D01*
X206180000Y-146000000D02*
X206180000Y-144874700D01*
%TO.N,/BusMonitor/S2_8*%
X254504700Y-140648100D02*
X255630000Y-139522800D01*
X254504700Y-151660100D02*
X254504700Y-140648100D01*
X247515000Y-158649800D02*
X254504700Y-151660100D01*
X247515000Y-159501800D02*
X247515000Y-158649800D01*
X246711500Y-160305300D02*
X247515000Y-159501800D01*
X245674200Y-160305300D02*
X246711500Y-160305300D01*
X244830300Y-159461400D02*
X245674200Y-160305300D01*
X244830300Y-159180000D02*
X244830300Y-159461400D01*
X243705000Y-159180000D02*
X244830300Y-159180000D01*
X255630000Y-138397500D02*
X255630000Y-139522800D01*
%TO.N,/BusMonitor/S2_7*%
X251964700Y-140648100D02*
X253090000Y-139522800D01*
X251964700Y-152335000D02*
X251964700Y-140648100D01*
X246245000Y-158054700D02*
X251964700Y-152335000D01*
X246245000Y-159180000D02*
X246245000Y-158054700D01*
X253090000Y-138397500D02*
X253090000Y-139522800D01*
%TO.N,/BusMonitor/S2_5*%
X249275000Y-136007200D02*
X248010000Y-137272200D01*
X249275000Y-134250000D02*
X249275000Y-136007200D01*
X248010000Y-138397500D02*
X248010000Y-137272200D01*
%TO.N,/BusMonitor/FF_4_OUT*%
X98385000Y-138430000D02*
X100925000Y-138430000D01*
X99897200Y-106198600D02*
X99897200Y-106480000D01*
X99053300Y-105354700D02*
X99897200Y-106198600D01*
X92887900Y-105354700D02*
X99053300Y-105354700D01*
X92132500Y-106110100D02*
X92887900Y-105354700D01*
X92132500Y-106865700D02*
X92132500Y-106110100D01*
X91372400Y-107625800D02*
X92132500Y-106865700D01*
X69548600Y-107625800D02*
X91372400Y-107625800D01*
X68402800Y-106480000D02*
X69548600Y-107625800D01*
X67277500Y-106480000D02*
X68402800Y-106480000D01*
X101022500Y-106480000D02*
X99897200Y-106480000D01*
X103415000Y-151000000D02*
X102289700Y-151000000D01*
X45547500Y-161250000D02*
X44952500Y-161250000D01*
X48114100Y-158683400D02*
X45547500Y-161250000D01*
X48114100Y-157477800D02*
X48114100Y-158683400D01*
X51304300Y-154287600D02*
X48114100Y-157477800D01*
X58121200Y-154287600D02*
X51304300Y-154287600D01*
X61030000Y-151378800D02*
X58121200Y-154287600D01*
X61030000Y-150648300D02*
X61030000Y-151378800D01*
X62658000Y-149020300D02*
X61030000Y-150648300D01*
X75062700Y-149020300D02*
X62658000Y-149020300D01*
X78669300Y-152626900D02*
X75062700Y-149020300D01*
X100944100Y-152626900D02*
X78669300Y-152626900D01*
X102289700Y-151281300D02*
X100944100Y-152626900D01*
X102289700Y-151000000D02*
X102289700Y-151281300D01*
%TO.N,/BusMonitor/FF_3_OUT*%
X93305000Y-138430000D02*
X90765000Y-138430000D01*
X44952500Y-165250000D02*
X43377200Y-165250000D01*
X90765000Y-138430000D02*
X89639700Y-138430000D01*
X98385000Y-122880000D02*
X97259700Y-122880000D01*
X97259700Y-123161300D02*
X97259700Y-122880000D01*
X95301100Y-125119900D02*
X97259700Y-123161300D01*
X86011700Y-125119900D02*
X95301100Y-125119900D01*
X75625700Y-135505900D02*
X86011700Y-125119900D01*
X74055600Y-135505900D02*
X75625700Y-135505900D01*
X73493500Y-136068000D02*
X74055600Y-135505900D01*
X73493500Y-137304700D02*
X73493500Y-136068000D01*
X88795800Y-137304700D02*
X73493500Y-137304700D01*
X89639700Y-138148600D02*
X88795800Y-137304700D01*
X89639700Y-138430000D02*
X89639700Y-138148600D01*
X42832200Y-164705000D02*
X43377200Y-165250000D01*
X42832200Y-158538700D02*
X42832200Y-164705000D01*
X45362800Y-156008100D02*
X42832200Y-158538700D01*
X47517200Y-156008100D02*
X45362800Y-156008100D01*
X50607900Y-152917400D02*
X47517200Y-156008100D01*
X56944500Y-152917400D02*
X50607900Y-152917400D01*
X58490000Y-151371900D02*
X56944500Y-152917400D01*
X58490000Y-150648400D02*
X58490000Y-151371900D01*
X63449500Y-145688900D02*
X58490000Y-150648400D01*
X63449500Y-142875100D02*
X63449500Y-145688900D01*
X62684400Y-142110000D02*
X63449500Y-142875100D01*
X62684400Y-139776300D02*
X62684400Y-142110000D01*
X65156000Y-137304700D02*
X62684400Y-139776300D01*
X73493500Y-137304700D02*
X65156000Y-137304700D01*
%TO.N,/BusMonitor/IN_=*%
X141940000Y-138147500D02*
X144480000Y-138147500D01*
X134320000Y-138147500D02*
X136860000Y-138147500D01*
X141940000Y-138147500D02*
X139400000Y-138147500D01*
X139400000Y-138147500D02*
X136860000Y-138147500D01*
X205805300Y-166518600D02*
X205805300Y-166800000D01*
X206649200Y-165674700D02*
X205805300Y-166518600D01*
X225605400Y-165674700D02*
X206649200Y-165674700D01*
X244137300Y-147142800D02*
X225605400Y-165674700D01*
X246040800Y-147142800D02*
X244137300Y-147142800D01*
X246884700Y-146298900D02*
X246040800Y-147142800D01*
X246884700Y-146017500D02*
X246884700Y-146298900D01*
X93180000Y-167000000D02*
X94305300Y-167000000D01*
X248010000Y-146017500D02*
X246884700Y-146017500D01*
X130180000Y-167050000D02*
X129054700Y-167050000D01*
X204680000Y-166800000D02*
X203554700Y-166800000D01*
X204680000Y-166800000D02*
X205805300Y-166800000D01*
X129054700Y-166768600D02*
X129054700Y-167050000D01*
X128210800Y-165924700D02*
X129054700Y-166768600D01*
X124159800Y-165924700D02*
X128210800Y-165924700D01*
X123524600Y-166559900D02*
X124159800Y-165924700D01*
X123524600Y-166629800D02*
X123524600Y-166559900D01*
X121557800Y-168596600D02*
X123524600Y-166629800D01*
X95620600Y-168596600D02*
X121557800Y-168596600D01*
X94305300Y-167281300D02*
X95620600Y-168596600D01*
X94305300Y-167000000D02*
X94305300Y-167281300D01*
X168242700Y-166800000D02*
X168805300Y-166800000D01*
X168242700Y-166800000D02*
X167680000Y-166800000D01*
X131305300Y-167331400D02*
X131305300Y-167050000D01*
X132149200Y-168175300D02*
X131305300Y-167331400D01*
X155845100Y-168175300D02*
X132149200Y-168175300D01*
X156154400Y-167866000D02*
X155845100Y-168175300D01*
X160242700Y-167866000D02*
X156154400Y-167866000D01*
X160302100Y-167925400D02*
X160242700Y-167866000D01*
X165710600Y-167925400D02*
X160302100Y-167925400D01*
X166554700Y-167081300D02*
X165710600Y-167925400D01*
X166554700Y-166800000D02*
X166554700Y-167081300D01*
X167680000Y-166800000D02*
X166554700Y-166800000D01*
X130180000Y-167050000D02*
X131305300Y-167050000D01*
X203554700Y-166518600D02*
X203554700Y-166800000D01*
X202710800Y-165674700D02*
X203554700Y-166518600D01*
X179772500Y-165674700D02*
X202710800Y-165674700D01*
X179594000Y-165853200D02*
X179772500Y-165674700D01*
X178993100Y-165853200D02*
X179594000Y-165853200D01*
X178814600Y-165674700D02*
X178993100Y-165853200D01*
X169649200Y-165674700D02*
X178814600Y-165674700D01*
X168805300Y-166518600D02*
X169649200Y-165674700D01*
X168805300Y-166800000D02*
X168805300Y-166518600D01*
%TO.N,/BusMonitor/MAS_RESET*%
X234428800Y-129126600D02*
X216759800Y-129126600D01*
X235802200Y-130500000D02*
X234428800Y-129126600D01*
X202464900Y-129126600D02*
X216759800Y-129126600D01*
X201372800Y-130218700D02*
X202464900Y-129126600D01*
X201372800Y-130500000D02*
X201372800Y-130218700D01*
X160473900Y-129374200D02*
X161399700Y-130300000D01*
X127569800Y-129374200D02*
X160473900Y-129374200D01*
X126725300Y-130218700D02*
X127569800Y-129374200D01*
X126725300Y-130500000D02*
X126725300Y-130218700D01*
X125600000Y-130500000D02*
X126725300Y-130500000D01*
X162525000Y-130300000D02*
X163650300Y-130300000D01*
X162525000Y-130300000D02*
X161399700Y-130300000D01*
X200247500Y-130500000D02*
X201372800Y-130500000D01*
X236927500Y-130500000D02*
X235802200Y-130500000D01*
X200247500Y-130500000D02*
X199122200Y-130500000D01*
X90765000Y-130500000D02*
X90765000Y-131625300D01*
X85063600Y-136362800D02*
X74234800Y-136362800D01*
X89801100Y-131625300D02*
X85063600Y-136362800D01*
X90765000Y-131625300D02*
X89801100Y-131625300D01*
X96367700Y-131625300D02*
X90765000Y-131625300D01*
X97259700Y-130733300D02*
X96367700Y-131625300D01*
X97259700Y-130033800D02*
X97259700Y-130733300D01*
X98726400Y-128567100D02*
X97259700Y-130033800D01*
X112158600Y-128567100D02*
X98726400Y-128567100D01*
X114091500Y-130500000D02*
X112158600Y-128567100D01*
X125600000Y-130500000D02*
X114091500Y-130500000D01*
X163650300Y-130018700D02*
X163650300Y-130300000D01*
X165007400Y-128661600D02*
X163650300Y-130018700D01*
X168226200Y-128661600D02*
X165007400Y-128661600D01*
X168644400Y-128243400D02*
X168226200Y-128661600D01*
X196865600Y-128243400D02*
X168644400Y-128243400D01*
X199122200Y-130500000D02*
X196865600Y-128243400D01*
%TO.N,A8*%
X167605000Y-122680000D02*
X166479700Y-122680000D01*
X164931800Y-124509200D02*
X152126700Y-124509200D01*
X166479700Y-122961300D02*
X164931800Y-124509200D01*
X166479700Y-122680000D02*
X166479700Y-122961300D01*
X161680000Y-217357400D02*
X161564100Y-217241500D01*
X161680000Y-223000000D02*
X161680000Y-217357400D01*
%TO.N,A9*%
X170145000Y-122680000D02*
X169019700Y-122680000D01*
X166393100Y-125587900D02*
X151596600Y-125587900D01*
X169019700Y-122961300D02*
X166393100Y-125587900D01*
X169019700Y-122680000D02*
X169019700Y-122961300D01*
X135260000Y-159430000D02*
X134134700Y-159430000D01*
X134134700Y-159711300D02*
X134134700Y-159430000D01*
X130636600Y-163209400D02*
X134134700Y-159711300D01*
X125771100Y-163209400D02*
X130636600Y-163209400D01*
%TO.N,A10*%
X177765000Y-122680000D02*
X176639700Y-122680000D01*
X127640000Y-160826700D02*
X126266900Y-162199800D01*
X127640000Y-159430000D02*
X127640000Y-160826700D01*
X151250500Y-126333100D02*
X150132500Y-127451100D01*
X173191100Y-126333100D02*
X151250500Y-126333100D01*
X176639700Y-122884500D02*
X173191100Y-126333100D01*
X176639700Y-122680000D02*
X176639700Y-122884500D01*
%TO.N,A11*%
X179179700Y-122961300D02*
X179179700Y-122680000D01*
X174840400Y-127300600D02*
X179179700Y-122961300D01*
X151669500Y-127300600D02*
X174840400Y-127300600D01*
X180305000Y-122680000D02*
X179179700Y-122680000D01*
%TO.N,A12*%
X180305000Y-130300000D02*
X179179700Y-130300000D01*
X93180000Y-159380000D02*
X94305300Y-159380000D01*
X94305300Y-159158500D02*
X94305300Y-159380000D01*
X95861500Y-157602300D02*
X94305300Y-159158500D01*
X113845000Y-157602300D02*
X95861500Y-157602300D01*
X123646700Y-147800600D02*
X113845000Y-157602300D01*
X144716100Y-147800600D02*
X123646700Y-147800600D01*
X157391300Y-135125400D02*
X144716100Y-147800600D01*
X163033800Y-135125400D02*
X157391300Y-135125400D01*
X163200300Y-134958900D02*
X163033800Y-135125400D01*
X163200300Y-133823000D02*
X163200300Y-134958900D01*
X166335000Y-130688300D02*
X163200300Y-133823000D01*
X166335000Y-129951100D02*
X166335000Y-130688300D01*
X167142100Y-129144000D02*
X166335000Y-129951100D01*
X168380800Y-129144000D02*
X167142100Y-129144000D01*
X168831100Y-128693700D02*
X168380800Y-129144000D01*
X177854700Y-128693700D02*
X168831100Y-128693700D01*
X179179700Y-130018700D02*
X177854700Y-128693700D01*
X179179700Y-130300000D02*
X179179700Y-130018700D01*
%TO.N,A13*%
X173162600Y-224217400D02*
X119572500Y-224217400D01*
X174380000Y-223000000D02*
X173162600Y-224217400D01*
X177765000Y-130300000D02*
X176639700Y-130300000D01*
X176639700Y-130581400D02*
X176639700Y-130300000D01*
X175795800Y-131425300D02*
X176639700Y-130581400D01*
X173142800Y-131425300D02*
X175795800Y-131425300D01*
X170944700Y-133623400D02*
X173142800Y-131425300D01*
X170944700Y-134350800D02*
X170944700Y-133623400D01*
X168673300Y-136622200D02*
X170944700Y-134350800D01*
X159012100Y-136622200D02*
X168673300Y-136622200D01*
X146358900Y-149275400D02*
X159012100Y-136622200D01*
X125697600Y-149275400D02*
X146358900Y-149275400D01*
X115198900Y-159774100D02*
X125697600Y-149275400D01*
X113921300Y-159774100D02*
X115198900Y-159774100D01*
%TO.N,A14*%
X170145000Y-130300000D02*
X169019700Y-130300000D01*
X98260000Y-159380000D02*
X99385300Y-159380000D01*
X99385300Y-159098600D02*
X99385300Y-159380000D01*
X100229200Y-158254700D02*
X99385300Y-159098600D01*
X114675300Y-158254700D02*
X100229200Y-158254700D01*
X116156900Y-156773100D02*
X114675300Y-158254700D01*
X124678900Y-148251100D02*
X116156900Y-156773100D01*
X124678900Y-148251000D02*
X124678900Y-148251100D01*
X144982100Y-148251000D02*
X124678900Y-148251000D01*
X157657400Y-135575700D02*
X144982100Y-148251000D01*
X164685100Y-135575700D02*
X157657400Y-135575700D01*
X165885000Y-134375800D02*
X164685100Y-135575700D01*
X165885000Y-133613200D02*
X165885000Y-134375800D01*
X169019700Y-130478500D02*
X165885000Y-133613200D01*
X169019700Y-130300000D02*
X169019700Y-130478500D01*
%TO.N,A15*%
X105880000Y-159380000D02*
X107005300Y-159380000D01*
X107376900Y-159008400D02*
X107005300Y-159380000D01*
X114915600Y-159008400D02*
X107376900Y-159008400D01*
X115168400Y-159008400D02*
X114915600Y-159008400D01*
X125475300Y-148701500D02*
X115168400Y-159008400D01*
X146295900Y-148701500D02*
X125475300Y-148701500D01*
X158971300Y-136026100D02*
X146295900Y-148701500D01*
X166800700Y-136026100D02*
X158971300Y-136026100D01*
X168425000Y-134401800D02*
X166800700Y-136026100D01*
X168425000Y-133678300D02*
X168425000Y-134401800D01*
X171290100Y-130813200D02*
X168425000Y-133678300D01*
X171290100Y-129824500D02*
X171290100Y-130813200D01*
X170609600Y-129144000D02*
X171290100Y-129824500D01*
X169242600Y-129144000D02*
X170609600Y-129144000D01*
X168086600Y-130300000D02*
X169242600Y-129144000D01*
X167605000Y-130300000D02*
X168086600Y-130300000D01*
%TO.N,~{RFSH}*%
X63575000Y-159430000D02*
X64700300Y-159430000D01*
X111060000Y-154485800D02*
X111154500Y-154391300D01*
X69363200Y-154485800D02*
X111060000Y-154485800D01*
X64700300Y-159148700D02*
X69363200Y-154485800D01*
X64700300Y-159430000D02*
X64700300Y-159148700D01*
%TO.N,~{HALT}*%
X73710000Y-224270000D02*
X74980000Y-223000000D01*
X51723900Y-224270000D02*
X73710000Y-224270000D01*
X50850000Y-225143900D02*
X51723900Y-224270000D01*
X50850000Y-225960100D02*
X50850000Y-225143900D01*
X50073500Y-226736600D02*
X50850000Y-225960100D01*
X49099100Y-226736600D02*
X50073500Y-226736600D01*
X48310000Y-225947500D02*
X49099100Y-226736600D01*
X48310000Y-222366900D02*
X48310000Y-225947500D01*
X41429600Y-215486500D02*
X48310000Y-222366900D01*
X41429600Y-106551700D02*
X41429600Y-215486500D01*
X51921300Y-96060000D02*
X41429600Y-106551700D01*
X56000000Y-96060000D02*
X51921300Y-96060000D01*
%TO.N,~{INT0}*%
X133220000Y-130500000D02*
X132094700Y-130500000D01*
X94426800Y-141530400D02*
X82722800Y-141530400D01*
X97259600Y-138697600D02*
X94426800Y-141530400D01*
X97259600Y-137963800D02*
X97259600Y-138697600D01*
X98380800Y-136842600D02*
X97259600Y-137963800D01*
X101242200Y-136842600D02*
X98380800Y-136842600D01*
X105957400Y-132127400D02*
X101242200Y-136842600D01*
X130748600Y-132127400D02*
X105957400Y-132127400D01*
X132094700Y-130781300D02*
X130748600Y-132127400D01*
X132094700Y-130500000D02*
X132094700Y-130781300D01*
%TO.N,~{BUSACK}*%
X76170200Y-88440000D02*
X81112300Y-93382100D01*
X74750000Y-88440000D02*
X76170200Y-88440000D01*
%TO.N,~{MREQ}*%
X52649800Y-198761700D02*
X52003000Y-198114900D01*
X52649800Y-207658300D02*
X52649800Y-198761700D01*
X65831900Y-220840400D02*
X52649800Y-207658300D01*
X77089800Y-220840400D02*
X65831900Y-220840400D01*
X78884600Y-222635200D02*
X77089800Y-220840400D01*
X78884600Y-223525600D02*
X78884600Y-222635200D01*
X79646900Y-224287900D02*
X78884600Y-223525600D01*
X80558100Y-224287900D02*
X79646900Y-224287900D01*
X81330000Y-225059800D02*
X80558100Y-224287900D01*
X81330000Y-225991100D02*
X81330000Y-225059800D01*
X82098600Y-226759700D02*
X81330000Y-225991100D01*
X85582800Y-226759700D02*
X82098600Y-226759700D01*
X86504600Y-225837900D02*
X85582800Y-226759700D01*
X86504600Y-224955900D02*
X86504600Y-225837900D01*
X87190500Y-224270000D02*
X86504600Y-224955900D01*
X96570000Y-224270000D02*
X87190500Y-224270000D01*
X97840000Y-223000000D02*
X96570000Y-224270000D01*
X55955000Y-167050000D02*
X57080300Y-167050000D01*
X143380000Y-130500000D02*
X143380000Y-131625300D01*
X57080300Y-166768600D02*
X57080300Y-167050000D01*
X58374500Y-165474400D02*
X57080300Y-166768600D01*
X83629500Y-165474400D02*
X58374500Y-165474400D01*
X89370000Y-159733900D02*
X83629500Y-165474400D01*
X89370000Y-159004400D02*
X89370000Y-159733900D01*
X90155900Y-158218500D02*
X89370000Y-159004400D01*
X94485200Y-158218500D02*
X90155900Y-158218500D01*
X95579000Y-157124700D02*
X94485200Y-158218500D01*
X113685700Y-157124700D02*
X95579000Y-157124700D01*
X123460200Y-147350200D02*
X113685700Y-157124700D01*
X144529600Y-147350200D02*
X123460200Y-147350200D01*
X145616300Y-146263500D02*
X144529600Y-147350200D01*
X145616300Y-133861600D02*
X145616300Y-146263500D01*
X143380000Y-131625300D02*
X145616300Y-133861600D01*
%TO.N,/BusMonitor/FF_1_OUT*%
X95795000Y-151000000D02*
X96920300Y-151000000D01*
X96920300Y-150718700D02*
X96920300Y-151000000D01*
X99115200Y-148523800D02*
X96920300Y-150718700D01*
X106676200Y-148523800D02*
X99115200Y-148523800D01*
X108350000Y-146850000D02*
X106676200Y-148523800D01*
%TO.N,/BusMonitor/WAIT_ACTIVE*%
X111609400Y-129073400D02*
X111855600Y-129319600D01*
X103195600Y-129073400D02*
X111609400Y-129073400D01*
X102050300Y-130218700D02*
X103195600Y-129073400D01*
X102050300Y-130500000D02*
X102050300Y-130218700D01*
X106806500Y-147193500D02*
X108350000Y-145650000D01*
X96988500Y-147193500D02*
X106806500Y-147193500D01*
X95845000Y-146050000D02*
X96988500Y-147193500D01*
X100925000Y-130500000D02*
X102050300Y-130500000D01*
%TO.N,/BusMonitor/LED_LATCH*%
X124997200Y-138725000D02*
X125574700Y-138147500D01*
X108600000Y-138725000D02*
X124997200Y-138725000D01*
X187435600Y-121754700D02*
X186510300Y-122680000D01*
X221138300Y-121754700D02*
X187435600Y-121754700D01*
X221982200Y-122598600D02*
X221138300Y-121754700D01*
X221982200Y-122880000D02*
X221982200Y-122598600D01*
X225358100Y-121754700D02*
X224232800Y-122880000D01*
X257818200Y-121754700D02*
X225358100Y-121754700D01*
X258662200Y-122598700D02*
X257818200Y-121754700D01*
X258662200Y-122880000D02*
X258662200Y-122598700D01*
X106520000Y-139629700D02*
X107424700Y-138725000D01*
X97444000Y-139629700D02*
X106520000Y-139629700D01*
X150910600Y-121554700D02*
X149585300Y-122880000D01*
X183415800Y-121554700D02*
X150910600Y-121554700D01*
X184259700Y-122398600D02*
X183415800Y-121554700D01*
X184259700Y-122680000D02*
X184259700Y-122398600D01*
X143076200Y-127419800D02*
X132542900Y-127419800D01*
X147334700Y-123161300D02*
X143076200Y-127419800D01*
X147334700Y-122880000D02*
X147334700Y-123161300D01*
X49497500Y-114100000D02*
X50622800Y-114100000D01*
X108600000Y-138725000D02*
X107424700Y-138725000D01*
X126700000Y-138147500D02*
X125574700Y-138147500D01*
X148460000Y-122880000D02*
X147334700Y-122880000D01*
X185385000Y-122680000D02*
X184259700Y-122680000D01*
X223107500Y-122880000D02*
X221982200Y-122880000D01*
X148460000Y-122880000D02*
X149585300Y-122880000D01*
X259787500Y-122880000D02*
X258662200Y-122880000D01*
X185385000Y-122680000D02*
X186510300Y-122680000D01*
X223107500Y-122880000D02*
X224232800Y-122880000D01*
X81075000Y-110620300D02*
X84403500Y-113948800D01*
X53821200Y-110620300D02*
X81075000Y-110620300D01*
X50622800Y-113818700D02*
X53821200Y-110620300D01*
X50622800Y-114100000D02*
X50622800Y-113818700D01*
%TO.N,~{WAIT}*%
X130680000Y-130500000D02*
X129554700Y-130500000D01*
X106713000Y-130510000D02*
X109600000Y-130510000D01*
X100990000Y-136233000D02*
X106713000Y-130510000D01*
X96401300Y-136233000D02*
X100990000Y-136233000D01*
X94575000Y-138059300D02*
X96401300Y-136233000D01*
X94575000Y-138807400D02*
X94575000Y-138059300D01*
X93400900Y-139981500D02*
X94575000Y-138807400D01*
X82272500Y-139981500D02*
X93400900Y-139981500D01*
X129554700Y-130781400D02*
X129554700Y-130500000D01*
X128710800Y-131625300D02*
X129554700Y-130781400D01*
X112140600Y-131625300D02*
X128710800Y-131625300D01*
X111025300Y-130510000D02*
X112140600Y-131625300D01*
X109600000Y-130510000D02*
X111025300Y-130510000D01*
%TO.N,/BusMonitor/FF_2_OUT*%
X108164700Y-122880000D02*
X108174700Y-122890000D01*
X103465000Y-122880000D02*
X108164700Y-122880000D01*
X98335000Y-151000000D02*
X99460300Y-151000000D01*
X109600000Y-122890000D02*
X108174700Y-122890000D01*
X99460300Y-150718700D02*
X99460300Y-151000000D01*
X101204900Y-148974100D02*
X99460300Y-150718700D01*
X107138700Y-148974100D02*
X101204900Y-148974100D01*
X109039600Y-147073200D02*
X107138700Y-148974100D01*
X109039600Y-143933600D02*
X109039600Y-147073200D01*
%TO.N,Net-(C33-Pad2)*%
X62300000Y-151050000D02*
X63425300Y-151050000D01*
X71766800Y-149471900D02*
X73294900Y-151000000D01*
X64722100Y-149471900D02*
X71766800Y-149471900D01*
X63425300Y-150768700D02*
X64722100Y-149471900D01*
X63425300Y-151050000D02*
X63425300Y-150768700D01*
%TO.N,Net-(C33-Pad1)*%
X68593700Y-149924100D02*
X69669600Y-151000000D01*
X66809900Y-149924100D02*
X68593700Y-149924100D01*
X65965300Y-150768700D02*
X66809900Y-149924100D01*
X65965300Y-151050000D02*
X65965300Y-150768700D01*
X64840000Y-151050000D02*
X65965300Y-151050000D01*
X70794900Y-151000000D02*
X69669600Y-151000000D01*
%TO.N,Net-(C32-Pad2)*%
X67431500Y-112250000D02*
X70750000Y-112250000D01*
X65862800Y-113818700D02*
X67431500Y-112250000D01*
X65862800Y-114100000D02*
X65862800Y-113818700D01*
X64737500Y-114100000D02*
X65862800Y-114100000D01*
%TO.N,Net-(C32-Pad1)*%
X71898400Y-113601600D02*
X70750000Y-114750000D01*
X71898400Y-111800500D02*
X71898400Y-113601600D01*
X71220000Y-111122100D02*
X71898400Y-111800500D01*
X66019400Y-111122100D02*
X71220000Y-111122100D01*
X63322800Y-113818700D02*
X66019400Y-111122100D01*
X63322800Y-114100000D02*
X63322800Y-113818700D01*
X62197500Y-114100000D02*
X63322800Y-114100000D01*
%TO.N,Net-(C16-Pad2)*%
X47105500Y-124060600D02*
X46044900Y-123000000D01*
X52705400Y-124060600D02*
X47105500Y-124060600D01*
X53554700Y-123211300D02*
X52705400Y-124060600D01*
X53554700Y-122930000D02*
X53554700Y-123211300D01*
X54680000Y-122930000D02*
X53554700Y-122930000D01*
%TO.N,Net-(C16-Pad1)*%
X44670200Y-122718700D02*
X44670200Y-123000000D01*
X45591400Y-121797500D02*
X44670200Y-122718700D01*
X50163500Y-121797500D02*
X45591400Y-121797500D01*
X51014700Y-122648700D02*
X50163500Y-121797500D01*
X51014700Y-122930000D02*
X51014700Y-122648700D01*
X52140000Y-122930000D02*
X51014700Y-122930000D01*
X43544900Y-123000000D02*
X44670200Y-123000000D01*
%TO.N,Net-(C15-Pad2)*%
X47401600Y-144606700D02*
X46294900Y-143500000D01*
X52659300Y-144606700D02*
X47401600Y-144606700D01*
X53554700Y-143711300D02*
X52659300Y-144606700D01*
X53554700Y-143430000D02*
X53554700Y-143711300D01*
X54680000Y-143430000D02*
X53554700Y-143430000D01*
%TO.N,Net-(C15-Pad1)*%
X44920200Y-143218700D02*
X44920200Y-143500000D01*
X45868300Y-142270600D02*
X44920200Y-143218700D01*
X50136600Y-142270600D02*
X45868300Y-142270600D01*
X51014700Y-143148700D02*
X50136600Y-142270600D01*
X51014700Y-143430000D02*
X51014700Y-143148700D01*
X52140000Y-143430000D02*
X51014700Y-143430000D01*
X43794900Y-143500000D02*
X44920200Y-143500000D01*
%TO.N,/BusMonitor/WAIT_LOGIC*%
X143750000Y-135250000D02*
X141310000Y-135250000D01*
X89350300Y-145768700D02*
X89350300Y-146050000D01*
X92349700Y-142769300D02*
X89350300Y-145768700D01*
X126209800Y-142769300D02*
X92349700Y-142769300D01*
X130510000Y-138469100D02*
X126209800Y-142769300D01*
X130510000Y-137818900D02*
X130510000Y-138469100D01*
X131953600Y-136375300D02*
X130510000Y-137818900D01*
X139059400Y-136375300D02*
X131953600Y-136375300D01*
X140184700Y-135250000D02*
X139059400Y-136375300D01*
X141310000Y-135250000D02*
X140184700Y-135250000D01*
X88225000Y-146050000D02*
X89350300Y-146050000D01*
%TO.N,Net-(BAR5-Pad20)*%
X64500600Y-94934700D02*
X63375300Y-96060000D01*
X82127800Y-94934700D02*
X64500600Y-94934700D01*
X88527500Y-88535000D02*
X82127800Y-94934700D01*
X62250000Y-96060000D02*
X63375300Y-96060000D01*
%TO.N,Net-(BAR5-Pad19)*%
X83542500Y-96060000D02*
X74750000Y-96060000D01*
X91067500Y-88535000D02*
X83542500Y-96060000D01*
%TO.N,Net-(BAR5-Pad10)*%
X109779400Y-97763100D02*
X111387500Y-96155000D01*
X109779400Y-106936000D02*
X109779400Y-97763100D01*
X103740700Y-112974700D02*
X109779400Y-106936000D01*
X94527800Y-112974700D02*
X103740700Y-112974700D01*
X93402500Y-114100000D02*
X94527800Y-112974700D01*
%TO.N,Net-(BAR5-Pad8)*%
X104687800Y-113818600D02*
X104687800Y-114100000D01*
X105531700Y-112974700D02*
X104687800Y-113818600D01*
X106297300Y-112974700D02*
X105531700Y-112974700D01*
X112761400Y-106510600D02*
X106297300Y-112974700D01*
X112761400Y-95597400D02*
X112761400Y-106510600D01*
X111976900Y-94812900D02*
X112761400Y-95597400D01*
X107649600Y-94812900D02*
X111976900Y-94812900D01*
X106307500Y-96155000D02*
X107649600Y-94812900D01*
X103562500Y-114100000D02*
X104687800Y-114100000D01*
%TO.N,Net-(BAR5-Pad7)*%
X105567000Y-94355500D02*
X103767500Y-96155000D01*
X112228500Y-94355500D02*
X105567000Y-94355500D01*
X113211800Y-95338800D02*
X112228500Y-94355500D01*
X113211800Y-108405400D02*
X113211800Y-95338800D01*
X108642500Y-112974700D02*
X113211800Y-108405400D01*
X108642500Y-114100000D02*
X108642500Y-112974700D01*
%TO.N,Net-(BAR5-Pad6)*%
X108642500Y-103570000D02*
X101227500Y-96155000D01*
X108642500Y-106480000D02*
X108642500Y-103570000D01*
%TO.N,Net-(BAR4-Pad20)*%
X123808200Y-86743200D02*
X125600000Y-88535000D01*
X57696800Y-86743200D02*
X123808200Y-86743200D01*
X56000000Y-88440000D02*
X57696800Y-86743200D01*
%TO.N,Net-(BAR4-Pad10)*%
X149089000Y-85280300D02*
X148245000Y-85280300D01*
X151200300Y-87391600D02*
X149089000Y-85280300D01*
X151200300Y-93414700D02*
X151200300Y-87391600D01*
X148460000Y-96155000D02*
X151200300Y-93414700D01*
X148245000Y-84155000D02*
X148245000Y-85280300D01*
%TO.N,Net-(BAR4-Pad9)*%
X146830300Y-84577000D02*
X146830300Y-84155000D01*
X148098500Y-85845200D02*
X146830300Y-84577000D01*
X148955700Y-85845200D02*
X148098500Y-85845200D01*
X150750000Y-87639500D02*
X148955700Y-85845200D01*
X150750000Y-91325000D02*
X150750000Y-87639500D01*
X145920000Y-96155000D02*
X150750000Y-91325000D01*
X145705000Y-84155000D02*
X146830300Y-84155000D01*
%TO.N,Net-(BAR4-Pad8)*%
X144290300Y-84436300D02*
X144290300Y-84155000D01*
X146275400Y-86421400D02*
X144290300Y-84436300D01*
X148895000Y-86421400D02*
X146275400Y-86421400D01*
X150299700Y-87826100D02*
X148895000Y-86421400D01*
X150299700Y-89235300D02*
X150299700Y-87826100D01*
X143380000Y-96155000D02*
X150299700Y-89235300D01*
X143165000Y-84155000D02*
X144290300Y-84155000D01*
%TO.N,Net-(BAR4-Pad7)*%
X142193800Y-97508800D02*
X140840000Y-96155000D01*
X149070400Y-97508800D02*
X142193800Y-97508800D01*
X151660200Y-94919000D02*
X149070400Y-97508800D01*
X151660200Y-85972900D02*
X151660200Y-94919000D01*
X148701800Y-83014500D02*
X151660200Y-85972900D01*
X142609500Y-83014500D02*
X148701800Y-83014500D01*
X141750300Y-83873700D02*
X142609500Y-83014500D01*
X141750300Y-84155000D02*
X141750300Y-83873700D01*
X140625000Y-84155000D02*
X141750300Y-84155000D01*
%TO.N,Net-(BAR4-Pad6)*%
X140911400Y-93543600D02*
X138300000Y-96155000D01*
X145348500Y-93543600D02*
X140911400Y-93543600D01*
X149849400Y-89042700D02*
X145348500Y-93543600D01*
X149849400Y-88012700D02*
X149849400Y-89042700D01*
X148867300Y-87030600D02*
X149849400Y-88012700D01*
X141804600Y-87030600D02*
X148867300Y-87030600D01*
X139210300Y-84436300D02*
X141804600Y-87030600D01*
X139210300Y-84155000D02*
X139210300Y-84436300D01*
X138085000Y-84155000D02*
X139210300Y-84155000D01*
%TO.N,Net-(BAR3-Pad12)*%
X182805000Y-88192500D02*
X182805000Y-83955000D01*
X182947500Y-88335000D02*
X182805000Y-88192500D01*
%TO.N,Net-(BAR4-Pad19)*%
X126787300Y-89887700D02*
X128140000Y-88535000D01*
X122473400Y-89887700D02*
X126787300Y-89887700D01*
X119779300Y-87193600D02*
X122473400Y-89887700D01*
X69806400Y-87193600D02*
X119779300Y-87193600D01*
X68500000Y-88500000D02*
X69806400Y-87193600D01*
%TO.N,Net-(BAR4-Pad18)*%
X123797300Y-99649800D02*
X130577500Y-106430000D01*
X123797300Y-94780800D02*
X123797300Y-99649800D01*
X130043100Y-88535000D02*
X123797300Y-94780800D01*
X130680000Y-88535000D02*
X130043100Y-88535000D01*
%TO.N,Net-(BAR4-Pad12)*%
X143558200Y-104458500D02*
X144464300Y-104458500D01*
X142007500Y-106009200D02*
X143558200Y-104458500D01*
X142007500Y-106856000D02*
X142007500Y-106009200D01*
X135938800Y-112924700D02*
X142007500Y-106856000D01*
X135657500Y-112924700D02*
X135938800Y-112924700D01*
X135657500Y-114050000D02*
X135657500Y-112924700D01*
%TO.N,Net-(BAR2-Pad20)*%
X205319800Y-101069800D02*
X207500000Y-103250000D01*
X202712000Y-101069800D02*
X205319800Y-101069800D01*
X199008600Y-97366400D02*
X202712000Y-101069800D01*
X199008600Y-89876400D02*
X199008600Y-97366400D01*
X200350000Y-88535000D02*
X199008600Y-89876400D01*
%TO.N,Net-(BAR2-Pad18)*%
X205215000Y-88320000D02*
X205215000Y-84155000D01*
X205430000Y-88535000D02*
X205215000Y-88320000D01*
%TO.N,Net-(BAR2-Pad15)*%
X212835000Y-88320000D02*
X212835000Y-84155000D01*
X213050000Y-88535000D02*
X212835000Y-88320000D01*
%TO.N,Net-(BAR2-Pad13)*%
X217915000Y-88320000D02*
X217915000Y-84155000D01*
X218130000Y-88535000D02*
X217915000Y-88320000D01*
%TO.N,Net-(BAR2-Pad10)*%
X219195000Y-100170000D02*
X223210000Y-96155000D01*
X219195000Y-107899100D02*
X219195000Y-100170000D01*
X216510400Y-110583700D02*
X219195000Y-107899100D01*
X216510400Y-114630600D02*
X216510400Y-110583700D01*
X215430900Y-115710100D02*
X216510400Y-114630600D01*
X207679100Y-115710100D02*
X215430900Y-115710100D01*
X206350300Y-114381300D02*
X207679100Y-115710100D01*
X206350300Y-114100000D02*
X206350300Y-114381300D01*
X205225000Y-114100000D02*
X206350300Y-114100000D01*
%TO.N,Net-(BAR2-Pad9)*%
X216285200Y-100539800D02*
X220670000Y-96155000D01*
X216285200Y-103691500D02*
X216285200Y-100539800D01*
X214115000Y-105861700D02*
X216285200Y-103691500D01*
X214115000Y-109164700D02*
X214115000Y-105861700D01*
X210305000Y-112974700D02*
X214115000Y-109164700D01*
X210305000Y-114100000D02*
X210305000Y-112974700D01*
%TO.N,Net-(BAR2-Pad8)*%
X209179600Y-105105400D02*
X218130000Y-96155000D01*
X209179600Y-114623500D02*
X209179600Y-105105400D01*
X209815800Y-115259700D02*
X209179600Y-114623500D01*
X213381300Y-115259700D02*
X209815800Y-115259700D01*
X214259700Y-114381300D02*
X213381300Y-115259700D01*
X214259700Y-114100000D02*
X214259700Y-114381300D01*
X215385000Y-114100000D02*
X214259700Y-114100000D01*
%TO.N,Net-(BAR1-Pad20)*%
X46094800Y-96060000D02*
X43500000Y-96060000D01*
X56485800Y-85669000D02*
X46094800Y-96060000D01*
X122893800Y-85669000D02*
X56485800Y-85669000D01*
X126454900Y-82107900D02*
X122893800Y-85669000D01*
X230500400Y-82107900D02*
X126454900Y-82107900D01*
X236927500Y-88535000D02*
X230500400Y-82107900D01*
%TO.N,Net-(BAR1-Pad19)*%
X238114800Y-89887700D02*
X239467500Y-88535000D01*
X235811100Y-89887700D02*
X238114800Y-89887700D01*
X228487500Y-82564100D02*
X235811100Y-89887700D01*
X127213800Y-82564100D02*
X228487500Y-82564100D01*
X123485100Y-86292800D02*
X127213800Y-82564100D01*
X56498900Y-86292800D02*
X123485100Y-86292800D01*
X49750000Y-93041700D02*
X56498900Y-86292800D01*
X49750000Y-96310000D02*
X49750000Y-93041700D01*
%TO.N,~{CTS}*%
X51379800Y-199680000D02*
X51379800Y-198554700D01*
X51261200Y-198436100D02*
X51379800Y-198554700D01*
X51261200Y-196299400D02*
X51261200Y-198436100D01*
X53668200Y-193892400D02*
X51261200Y-196299400D01*
X56112300Y-193892400D02*
X53668200Y-193892400D01*
X56163900Y-193840800D02*
X56112300Y-193892400D01*
X57511200Y-193840800D02*
X56163900Y-193840800D01*
X57562800Y-193892400D02*
X57511200Y-193840800D01*
X68408000Y-193892400D02*
X57562800Y-193892400D01*
X85698000Y-176602400D02*
X68408000Y-193892400D01*
X146407900Y-176602400D02*
X85698000Y-176602400D01*
%TO.N,TX*%
X61539800Y-199680000D02*
X62665100Y-199680000D01*
X164280600Y-177630600D02*
X167440000Y-180790000D01*
X146037200Y-177630600D02*
X164280600Y-177630600D01*
X62665100Y-199961400D02*
X62665100Y-199680000D01*
X63509000Y-200805300D02*
X62665100Y-199961400D01*
X68464600Y-200805300D02*
X63509000Y-200805300D01*
X68686100Y-200583800D02*
X68464600Y-200805300D01*
X69287000Y-200583800D02*
X68686100Y-200583800D01*
X69508500Y-200805300D02*
X69287000Y-200583800D01*
X70595400Y-200805300D02*
X69508500Y-200805300D01*
X71504500Y-199896200D02*
X70595400Y-200805300D01*
X71504500Y-199213800D02*
X71504500Y-199896200D01*
X72698300Y-198020000D02*
X71504500Y-199213800D01*
X104889700Y-198020000D02*
X72698300Y-198020000D01*
X105058600Y-197851100D02*
X104889700Y-198020000D01*
X132691100Y-197851100D02*
X105058600Y-197851100D01*
X132860000Y-198020000D02*
X132691100Y-197851100D01*
%TO.N,~{RTS}*%
X56459800Y-199680000D02*
X55334500Y-199680000D01*
X87153700Y-187095200D02*
X85374600Y-185316100D01*
X116299400Y-187095200D02*
X87153700Y-187095200D01*
X123186500Y-193982300D02*
X116299400Y-187095200D01*
X139619100Y-193982300D02*
X123186500Y-193982300D01*
X142330100Y-196693300D02*
X139619100Y-193982300D01*
X146378600Y-196693300D02*
X142330100Y-196693300D01*
X147591900Y-195480000D02*
X146378600Y-196693300D01*
X148100000Y-195480000D02*
X147591900Y-195480000D01*
X81852100Y-188838600D02*
X85374600Y-185316100D01*
X74817700Y-188838600D02*
X81852100Y-188838600D01*
X68854800Y-194801500D02*
X74817700Y-188838600D01*
X57198100Y-194801500D02*
X68854800Y-194801500D01*
X57138000Y-194741400D02*
X57198100Y-194801500D01*
X56537100Y-194741400D02*
X57138000Y-194741400D01*
X56477000Y-194801500D02*
X56537100Y-194741400D01*
X54035700Y-194801500D02*
X56477000Y-194801500D01*
X52837800Y-195999400D02*
X54035700Y-194801500D01*
X52837800Y-196999400D02*
X52837800Y-195999400D01*
X55334500Y-199496100D02*
X52837800Y-196999400D01*
X55334500Y-199680000D02*
X55334500Y-199496100D01*
X85374600Y-184223800D02*
X86549200Y-183049200D01*
X85374600Y-185316100D02*
X85374600Y-184223800D01*
%TO.N,Net-(D8-Pad1)*%
X53919800Y-198831200D02*
X53919800Y-199680000D01*
X52380400Y-197291800D02*
X53919800Y-198831200D01*
X52380400Y-195817100D02*
X52380400Y-197291800D01*
X53846300Y-194351200D02*
X52380400Y-195817100D01*
X56290400Y-194351200D02*
X53846300Y-194351200D01*
X56350500Y-194291100D02*
X56290400Y-194351200D01*
X57324600Y-194291100D02*
X56350500Y-194291100D01*
X57384700Y-194351200D02*
X57324600Y-194291100D01*
X68622400Y-194351200D02*
X57384700Y-194351200D01*
X80706600Y-182267000D02*
X68622400Y-194351200D01*
X81089500Y-182267000D02*
X80706600Y-182267000D01*
%TO.N,Net-(D7-Pad1)*%
X58999800Y-199680000D02*
X60125100Y-199680000D01*
X60125100Y-199961300D02*
X60125100Y-199680000D01*
X61472900Y-201309100D02*
X60125100Y-199961300D01*
X68986500Y-201309100D02*
X61472900Y-201309100D01*
%TO.N,Net-(D6-Pad1)*%
X64079800Y-199680000D02*
X68049300Y-199680000D01*
%TO.N,Net-(D5-Pad1)*%
X61539800Y-207300000D02*
X62665100Y-207300000D01*
X64656000Y-205104600D02*
X68077400Y-205104600D01*
X62665100Y-207095500D02*
X64656000Y-205104600D01*
X62665100Y-207300000D02*
X62665100Y-207095500D01*
%TO.N,Net-(J1-Pad10)*%
X164455300Y-174985800D02*
X164455300Y-174650000D01*
X168832700Y-179363200D02*
X164455300Y-174985800D01*
X197905600Y-179363200D02*
X168832700Y-179363200D01*
X214744600Y-196202200D02*
X197905600Y-179363200D01*
X214744600Y-197084100D02*
X214744600Y-196202200D01*
X215525200Y-197864700D02*
X214744600Y-197084100D01*
X234256800Y-197864700D02*
X215525200Y-197864700D01*
X235064700Y-198672600D02*
X234256800Y-197864700D01*
X235064700Y-199040000D02*
X235064700Y-198672600D01*
X236240000Y-199040000D02*
X235064700Y-199040000D01*
X163280000Y-174650000D02*
X164455300Y-174650000D01*
%TO.N,Net-(J1-Pad8)*%
X161915300Y-174282600D02*
X161915300Y-174650000D01*
X162723200Y-173474700D02*
X161915300Y-174282600D01*
X167151400Y-173474700D02*
X162723200Y-173474700D01*
X172589500Y-178912800D02*
X167151400Y-173474700D01*
X220315200Y-178912800D02*
X172589500Y-178912800D01*
X237604700Y-196202300D02*
X220315200Y-178912800D01*
X237604700Y-197056800D02*
X237604700Y-196202300D01*
X238412600Y-197864700D02*
X237604700Y-197056800D01*
X238780000Y-197864700D02*
X238412600Y-197864700D01*
X238780000Y-199040000D02*
X238780000Y-197864700D01*
X160740000Y-174650000D02*
X161915300Y-174650000D01*
%TO.N,Net-(J1-Pad5)*%
X240144700Y-196132700D02*
X240144700Y-196500000D01*
X222474400Y-178462400D02*
X240144700Y-196132700D01*
X186330400Y-178462400D02*
X222474400Y-178462400D01*
X182955300Y-175087300D02*
X186330400Y-178462400D01*
X182955300Y-174720000D02*
X182955300Y-175087300D01*
X181780000Y-174720000D02*
X182955300Y-174720000D01*
X241320000Y-196500000D02*
X240144700Y-196500000D01*
%TO.N,Net-(J1-Pad3)*%
X242684700Y-196132700D02*
X242684700Y-196500000D01*
X224564000Y-178012000D02*
X242684700Y-196132700D01*
X190364000Y-178012000D02*
X224564000Y-178012000D01*
X185877800Y-173525800D02*
X190364000Y-178012000D01*
X181242200Y-173525800D02*
X185877800Y-173525800D01*
X180415300Y-174352700D02*
X181242200Y-173525800D01*
X180415300Y-174720000D02*
X180415300Y-174352700D01*
X179240000Y-174720000D02*
X180415300Y-174720000D01*
X243860000Y-196500000D02*
X242684700Y-196500000D01*
%TO.N,~{IEI}*%
X52961200Y-227238800D02*
X54660000Y-225540000D01*
X47035600Y-227238800D02*
X52961200Y-227238800D01*
X40979200Y-221182400D02*
X47035600Y-227238800D01*
X40979200Y-96908300D02*
X40979200Y-221182400D01*
X49197500Y-88690000D02*
X40979200Y-96908300D01*
X49750000Y-88690000D02*
X49197500Y-88690000D01*
%TO.N,Net-(BAR4-Pad11)*%
X146727500Y-90267500D02*
X148460000Y-88535000D01*
X128947500Y-90267500D02*
X146727500Y-90267500D01*
X124258600Y-94956400D02*
X128947500Y-90267500D01*
X124258600Y-98500000D02*
X124258600Y-94956400D01*
X131709600Y-105951000D02*
X124258600Y-98500000D01*
X131709600Y-111792600D02*
X131709600Y-105951000D01*
X130577500Y-112924700D02*
X131709600Y-111792600D01*
X130577500Y-114050000D02*
X130577500Y-112924700D01*
%TO.N,~{RES_OUT}*%
X85424700Y-220175300D02*
X82600000Y-223000000D01*
X98071800Y-220175300D02*
X85424700Y-220175300D01*
X98879700Y-219367400D02*
X98071800Y-220175300D01*
X98879700Y-219000000D02*
X98879700Y-219367400D01*
X100055000Y-219000000D02*
X98879700Y-219000000D01*
%TO.N,~{RES_IN}*%
X83870000Y-224270000D02*
X85140000Y-225540000D01*
X82169000Y-224270000D02*
X83870000Y-224270000D01*
X81424600Y-223525600D02*
X82169000Y-224270000D01*
X81424600Y-222511100D02*
X81424600Y-223525600D01*
X84935700Y-219000000D02*
X81424600Y-222511100D01*
X94975000Y-219000000D02*
X84935700Y-219000000D01*
%TO.N,Net-(BAR3-Pad10)*%
X186410700Y-96878200D02*
X185487500Y-95955000D01*
X186410700Y-106778000D02*
X186410700Y-96878200D01*
X183903200Y-109285500D02*
X186410700Y-106778000D01*
X183219500Y-109285500D02*
X183903200Y-109285500D01*
X178932500Y-113572500D02*
X183219500Y-109285500D01*
X178932500Y-114299000D02*
X178932500Y-113572500D01*
X178206200Y-115025300D02*
X178932500Y-114299000D01*
X169471700Y-115025300D02*
X178206200Y-115025300D01*
X168627800Y-114181400D02*
X169471700Y-115025300D01*
X168627800Y-113900000D02*
X168627800Y-114181400D01*
X167502500Y-113900000D02*
X168627800Y-113900000D01*
%TO.N,Net-(BAR3-Pad9)*%
X183879400Y-96886900D02*
X182947500Y-95955000D01*
X183879400Y-106736000D02*
X183879400Y-96886900D01*
X177840700Y-112774700D02*
X183879400Y-106736000D01*
X174551700Y-112774700D02*
X177840700Y-112774700D01*
X173707800Y-113618600D02*
X174551700Y-112774700D01*
X173707800Y-113900000D02*
X173707800Y-113618600D01*
X172582500Y-113900000D02*
X173707800Y-113900000D01*
%TO.N,Net-(BAR3-Pad6)*%
X182742500Y-103370000D02*
X182742500Y-106280000D01*
X175327500Y-95955000D02*
X182742500Y-103370000D01*
%TO.N,Net-(BAR3-Pad3)*%
X168575400Y-96822900D02*
X167707500Y-95955000D01*
X168575400Y-104081800D02*
X168575400Y-96822900D01*
X167502500Y-105154700D02*
X168575400Y-104081800D01*
X167502500Y-106280000D02*
X167502500Y-105154700D01*
%TO.N,Net-(BAR1-Pad10)*%
X253335000Y-102607500D02*
X259787500Y-96155000D01*
X253335000Y-108367900D02*
X253335000Y-102607500D01*
X248255000Y-113447900D02*
X253335000Y-108367900D01*
X248255000Y-114436700D02*
X248255000Y-113447900D01*
X247490800Y-115200900D02*
X248255000Y-114436700D01*
X243899900Y-115200900D02*
X247490800Y-115200900D01*
X243030300Y-114331300D02*
X243899900Y-115200900D01*
X243030300Y-114050000D02*
X243030300Y-114331300D01*
X241905000Y-114050000D02*
X243030300Y-114050000D01*
%TO.N,Net-(BAR1-Pad9)*%
X248110300Y-105292200D02*
X257247500Y-96155000D01*
X248110300Y-111799400D02*
X248110300Y-105292200D01*
X246985000Y-112924700D02*
X248110300Y-111799400D01*
X246985000Y-114050000D02*
X246985000Y-112924700D01*
%TO.N,Net-(BAR1-Pad8)*%
X256058200Y-94804300D02*
X254707500Y-96155000D01*
X260399400Y-94804300D02*
X256058200Y-94804300D01*
X261155900Y-95560800D02*
X260399400Y-94804300D01*
X261155900Y-97940700D02*
X261155900Y-95560800D01*
X255875000Y-103221600D02*
X261155900Y-97940700D01*
X255875000Y-109114700D02*
X255875000Y-103221600D01*
X252065000Y-112924700D02*
X255875000Y-109114700D01*
X252065000Y-114050000D02*
X252065000Y-112924700D01*
%TO.N,RESET*%
X180855000Y-185650000D02*
X179729700Y-185650000D01*
X167974200Y-187715800D02*
X164020000Y-191670000D01*
X177945200Y-187715800D02*
X167974200Y-187715800D01*
X179729700Y-185931300D02*
X177945200Y-187715800D01*
X179729700Y-185650000D02*
X179729700Y-185931300D01*
X157709200Y-190400000D02*
X150640000Y-190400000D01*
X160604600Y-193295400D02*
X157709200Y-190400000D01*
X162394600Y-193295400D02*
X160604600Y-193295400D01*
X164020000Y-191670000D02*
X162394600Y-193295400D01*
%TO.N,~{CS-UART}*%
X162924500Y-202756600D02*
X162895100Y-202727200D01*
X227272600Y-202756600D02*
X162924500Y-202756600D01*
X228664700Y-204148700D02*
X227272600Y-202756600D01*
X228664700Y-204430000D02*
X228664700Y-204148700D01*
X229790000Y-204430000D02*
X228664700Y-204430000D01*
X69197500Y-195466700D02*
X56837500Y-195466700D01*
X73485700Y-191178500D02*
X69197500Y-195466700D01*
X109442300Y-191178500D02*
X73485700Y-191178500D01*
X112696600Y-194432800D02*
X109442300Y-191178500D01*
X135820600Y-194432800D02*
X112696600Y-194432800D01*
X136441800Y-195054000D02*
X135820600Y-194432800D01*
X136441800Y-199518200D02*
X136441800Y-195054000D01*
X135400000Y-200560000D02*
X136441800Y-199518200D01*
X157370600Y-202727200D02*
X162895100Y-202727200D01*
X154161600Y-199518200D02*
X157370600Y-202727200D01*
X136441800Y-199518200D02*
X154161600Y-199518200D01*
%TO.N,UART-CLK*%
X215239700Y-204148600D02*
X215239700Y-204430000D01*
X214395800Y-203304700D02*
X215239700Y-204148600D01*
X210714200Y-203304700D02*
X214395800Y-203304700D01*
X209870300Y-204148600D02*
X210714200Y-203304700D01*
X209870300Y-204430000D02*
X209870300Y-204148600D01*
X208745000Y-204430000D02*
X207619700Y-204430000D01*
X208745000Y-204430000D02*
X209870300Y-204430000D01*
X216365000Y-204430000D02*
X215239700Y-204430000D01*
X151086000Y-206731400D02*
X141266200Y-206731400D01*
X154361000Y-203456400D02*
X151086000Y-206731400D01*
X163457700Y-203456400D02*
X154361000Y-203456400D01*
X163609400Y-203304700D02*
X163457700Y-203456400D01*
X206775800Y-203304700D02*
X163609400Y-203304700D01*
X207619700Y-204148600D02*
X206775800Y-203304700D01*
X207619700Y-204430000D02*
X207619700Y-204148600D01*
%TO.N,Net-(BAR1-Pad3)*%
X240871100Y-97291400D02*
X242007500Y-96155000D01*
X240871100Y-104270800D02*
X240871100Y-97291400D01*
X241905000Y-105304700D02*
X240871100Y-104270800D01*
X241905000Y-106430000D02*
X241905000Y-105304700D01*
%TO.N,bA3*%
X178030000Y-207450000D02*
X176904700Y-207450000D01*
X156700700Y-210915300D02*
X131301500Y-210915300D01*
X158590300Y-209025700D02*
X156700700Y-210915300D01*
X175610300Y-209025700D02*
X158590300Y-209025700D01*
X176904700Y-207731300D02*
X175610300Y-209025700D01*
X176904700Y-207450000D02*
X176904700Y-207731300D01*
%TO.N,bA2*%
X114329800Y-199880000D02*
X115455100Y-199880000D01*
X149589500Y-202049500D02*
X150640000Y-203100000D01*
X131998200Y-202049500D02*
X149589500Y-202049500D01*
X131949700Y-202001000D02*
X131998200Y-202049500D01*
X117294800Y-202001000D02*
X131949700Y-202001000D01*
X115455100Y-200161300D02*
X117294800Y-202001000D01*
X115455100Y-199880000D02*
X115455100Y-200161300D01*
%TO.N,bA1*%
X109249800Y-199880000D02*
X110375100Y-199880000D01*
X113017300Y-202726500D02*
X131374300Y-202726500D01*
X110375100Y-200084300D02*
X113017300Y-202726500D01*
X110375100Y-199880000D02*
X110375100Y-200084300D01*
%TO.N,~{bIORQ}*%
X90409800Y-207300000D02*
X91535100Y-207300000D01*
X91535100Y-207581300D02*
X91535100Y-207300000D01*
X94454900Y-210501100D02*
X91535100Y-207581300D01*
X129800600Y-210501100D02*
X94454900Y-210501100D01*
X130562000Y-209739700D02*
X129800600Y-210501100D01*
X155503500Y-209739700D02*
X130562000Y-209739700D01*
X157793200Y-207450000D02*
X155503500Y-209739700D01*
X160250000Y-207450000D02*
X157793200Y-207450000D01*
%TO.N,bA4*%
X119409800Y-207500000D02*
X120535100Y-207500000D01*
X120535100Y-207781400D02*
X120535100Y-207500000D01*
X121385600Y-208631900D02*
X120535100Y-207781400D01*
X129122200Y-208631900D02*
X121385600Y-208631900D01*
X129815600Y-207938500D02*
X129122200Y-208631900D01*
X154590000Y-207938500D02*
X129815600Y-207938500D01*
X158130300Y-204398200D02*
X154590000Y-207938500D01*
X180964700Y-204398200D02*
X158130300Y-204398200D01*
X181315100Y-204748600D02*
X180964700Y-204398200D01*
%TO.N,bA5*%
X114329800Y-207500000D02*
X115455100Y-207500000D01*
X115455100Y-207781300D02*
X115455100Y-207500000D01*
X116788600Y-209114800D02*
X115455100Y-207781300D01*
X129276200Y-209114800D02*
X116788600Y-209114800D01*
X130002200Y-208388800D02*
X129276200Y-209114800D01*
X154943700Y-208388800D02*
X130002200Y-208388800D01*
X158484000Y-204848500D02*
X154943700Y-208388800D01*
X171488900Y-204848500D02*
X158484000Y-204848500D01*
X171791100Y-205150700D02*
X171488900Y-204848500D01*
%TO.N,bA6*%
X109249800Y-207500000D02*
X110375100Y-207500000D01*
X110375100Y-207781300D02*
X110375100Y-207500000D01*
X112189300Y-209595500D02*
X110375100Y-207781300D01*
X129432400Y-209595500D02*
X112189300Y-209595500D01*
X130188800Y-208839100D02*
X129432400Y-209595500D01*
X155130300Y-208839100D02*
X130188800Y-208839100D01*
X158670600Y-205298800D02*
X155130300Y-208839100D01*
X166009200Y-205298800D02*
X158670600Y-205298800D01*
X166303500Y-205593100D02*
X166009200Y-205298800D01*
%TO.N,bA7*%
X104169800Y-207500000D02*
X105295100Y-207500000D01*
X105295100Y-207781300D02*
X105295100Y-207500000D01*
X107564600Y-210050800D02*
X105295100Y-207781300D01*
X129614000Y-210050800D02*
X107564600Y-210050800D01*
X130375400Y-209289400D02*
X129614000Y-210050800D01*
X155316900Y-209289400D02*
X130375400Y-209289400D01*
X158582200Y-206024100D02*
X155316900Y-209289400D01*
X162124200Y-206024100D02*
X158582200Y-206024100D01*
%TO.N,~{bM1}*%
X85329800Y-207300000D02*
X86455100Y-207300000D01*
X162790000Y-207450000D02*
X161664700Y-207450000D01*
X86455100Y-207581300D02*
X86455100Y-207300000D01*
X89863900Y-210990100D02*
X86455100Y-207581300D01*
X129948500Y-210990100D02*
X89863900Y-210990100D01*
X130748600Y-210190000D02*
X129948500Y-210990100D01*
X156327000Y-210190000D02*
X130748600Y-210190000D01*
X157941700Y-208575300D02*
X156327000Y-210190000D01*
X161242800Y-208575300D02*
X157941700Y-208575300D01*
X161664700Y-208153400D02*
X161242800Y-208575300D01*
X161664700Y-207450000D02*
X161664700Y-208153400D01*
%TO.N,~{bRESET}*%
X75169800Y-199680000D02*
X74044500Y-199680000D01*
X53919800Y-207300000D02*
X55045100Y-207300000D01*
X155074200Y-178424200D02*
X157440000Y-180790000D01*
X90130400Y-178424200D02*
X155074200Y-178424200D01*
X81551600Y-187003000D02*
X90130400Y-178424200D01*
X81551600Y-188113300D02*
X81551600Y-187003000D01*
X55045100Y-207018700D02*
X55045100Y-207300000D01*
X59987600Y-202076200D02*
X55045100Y-207018700D01*
X71852800Y-202076200D02*
X59987600Y-202076200D01*
X74044500Y-199884500D02*
X71852800Y-202076200D01*
X74044500Y-199680000D02*
X74044500Y-199884500D01*
%TO.N,bD7*%
X250110000Y-204430000D02*
X248984700Y-204430000D01*
X248984700Y-204148600D02*
X248984700Y-204430000D01*
X248140800Y-203304700D02*
X248984700Y-204148600D01*
X246392900Y-203304700D02*
X248140800Y-203304700D01*
X242671900Y-199583700D02*
X246392900Y-203304700D01*
X242671900Y-198527100D02*
X242671900Y-199583700D01*
X243334400Y-197864600D02*
X242671900Y-198527100D01*
X244213000Y-197864600D02*
X243334400Y-197864600D01*
X245070400Y-197007200D02*
X244213000Y-197864600D01*
X245070400Y-196041700D02*
X245070400Y-197007200D01*
X220730500Y-171701800D02*
X245070400Y-196041700D01*
X180550100Y-171701800D02*
X220730500Y-171701800D01*
X177875400Y-174376500D02*
X180550100Y-171701800D01*
X177875400Y-175751100D02*
X177875400Y-174376500D01*
X177731100Y-175895400D02*
X177875400Y-175751100D01*
X170976100Y-175895400D02*
X177731100Y-175895400D01*
X168094600Y-173013900D02*
X170976100Y-175895400D01*
X160689700Y-173013900D02*
X168094600Y-173013900D01*
X159535400Y-174168200D02*
X160689700Y-173013900D01*
X159535400Y-175161400D02*
X159535400Y-174168200D01*
X160707600Y-176333600D02*
X159535400Y-175161400D01*
X164580600Y-176333600D02*
X160707600Y-176333600D01*
X168588100Y-180341100D02*
X164580600Y-176333600D01*
X168588100Y-181307600D02*
X168588100Y-180341100D01*
X167956300Y-181939400D02*
X168588100Y-181307600D01*
X154682400Y-181939400D02*
X167956300Y-181939400D01*
X151617600Y-178874600D02*
X154682400Y-181939400D01*
X139717900Y-178874600D02*
X151617600Y-178874600D01*
X131796600Y-186795900D02*
X139717900Y-178874600D01*
X131796600Y-191876600D02*
X131796600Y-186795900D01*
X132860000Y-192940000D02*
X131796600Y-191876600D01*
%TO.N,bA0*%
X105295100Y-199609400D02*
X105295100Y-199880000D01*
X106152700Y-198751800D02*
X105295100Y-199609400D01*
X129461700Y-198751800D02*
X106152700Y-198751800D01*
X132309000Y-201599100D02*
X129461700Y-198751800D01*
X149600900Y-201599100D02*
X132309000Y-201599100D01*
X150640000Y-200560000D02*
X149600900Y-201599100D01*
X104169800Y-199880000D02*
X105295100Y-199880000D01*
%TO.N,~{bRD}*%
X75169800Y-207300000D02*
X76295100Y-207300000D01*
X76295100Y-207018700D02*
X76295100Y-207300000D01*
X78629500Y-204684300D02*
X76295100Y-207018700D01*
X133240400Y-204684300D02*
X78629500Y-204684300D01*
X133429000Y-204872900D02*
X133240400Y-204684300D01*
%TO.N,~{bWR}*%
X81375100Y-207018700D02*
X81375100Y-207300000D01*
X83259100Y-205134700D02*
X81375100Y-207018700D01*
X122664300Y-205134700D02*
X83259100Y-205134700D01*
X123149900Y-205620300D02*
X122664300Y-205134700D01*
X133911900Y-205620300D02*
X123149900Y-205620300D01*
X134945200Y-204587000D02*
X133911900Y-205620300D01*
X136887000Y-204587000D02*
X134945200Y-204587000D01*
X137940000Y-205640000D02*
X136887000Y-204587000D01*
X80249800Y-207300000D02*
X81375100Y-207300000D01*
%TO.N,bD0*%
X232330000Y-204430000D02*
X231204700Y-204430000D01*
X141728500Y-197178000D02*
X139259900Y-194709400D01*
X146530800Y-197178000D02*
X141728500Y-197178000D01*
X146752800Y-196956000D02*
X146530800Y-197178000D01*
X153068800Y-196956000D02*
X146752800Y-196956000D01*
X157968800Y-201856000D02*
X153068800Y-196956000D01*
X163049900Y-201856000D02*
X157968800Y-201856000D01*
X163500200Y-202306300D02*
X163049900Y-201856000D01*
X229362300Y-202306300D02*
X163500200Y-202306300D01*
X231204700Y-204148700D02*
X229362300Y-202306300D01*
X231204700Y-204430000D02*
X231204700Y-204148700D01*
%TO.N,bD1*%
X234870000Y-204430000D02*
X233744700Y-204430000D01*
X144507100Y-194427100D02*
X140480000Y-190400000D01*
X151241400Y-194427100D02*
X144507100Y-194427100D01*
X158220000Y-201405700D02*
X151241400Y-194427100D01*
X163236500Y-201405700D02*
X158220000Y-201405700D01*
X163686800Y-201856000D02*
X163236500Y-201405700D01*
X231452000Y-201856000D02*
X163686800Y-201856000D01*
X233744700Y-204148700D02*
X231452000Y-201856000D01*
X233744700Y-204430000D02*
X233744700Y-204148700D01*
%TO.N,bD2*%
X237410000Y-204430000D02*
X236284700Y-204430000D01*
X139427000Y-189347000D02*
X137940000Y-187860000D01*
X140906800Y-189347000D02*
X139427000Y-189347000D01*
X141741600Y-190181800D02*
X140906800Y-189347000D01*
X141741600Y-191024600D02*
X141741600Y-190181800D01*
X144693600Y-193976600D02*
X141741600Y-191024600D01*
X152000200Y-193976600D02*
X144693600Y-193976600D01*
X158979000Y-200955400D02*
X152000200Y-193976600D01*
X163423100Y-200955400D02*
X158979000Y-200955400D01*
X163873400Y-201405700D02*
X163423100Y-200955400D01*
X233464700Y-201405700D02*
X163873400Y-201405700D01*
X236284700Y-204225700D02*
X233464700Y-201405700D01*
X236284700Y-204430000D02*
X236284700Y-204225700D01*
%TO.N,bD3*%
X156371800Y-203947800D02*
X156121400Y-204198200D01*
X193913600Y-203947800D02*
X156371800Y-203947800D01*
X197488900Y-207523100D02*
X193913600Y-203947800D01*
X236218300Y-207523100D02*
X197488900Y-207523100D01*
X138448800Y-190400000D02*
X137940000Y-190400000D01*
X144001900Y-195953100D02*
X138448800Y-190400000D01*
X144643400Y-195953100D02*
X144001900Y-195953100D01*
%TO.N,bD4*%
X242490000Y-204430000D02*
X241364700Y-204430000D01*
X241364700Y-204148700D02*
X241364700Y-204430000D01*
X238171300Y-200955300D02*
X241364700Y-204148700D01*
X167366700Y-200955300D02*
X238171300Y-200955300D01*
X166600000Y-200188600D02*
X167366700Y-200955300D01*
X166600000Y-199492400D02*
X166600000Y-200188600D01*
X165570300Y-198462700D02*
X166600000Y-199492400D01*
X157690100Y-198462700D02*
X165570300Y-198462700D01*
X151114300Y-191886900D02*
X157690100Y-198462700D01*
X145497300Y-191886900D02*
X151114300Y-191886900D01*
X144149800Y-190539400D02*
X145497300Y-191886900D01*
X144149800Y-189642100D02*
X144149800Y-190539400D01*
X143404300Y-188896600D02*
X144149800Y-189642100D01*
X140040200Y-188896600D02*
X143404300Y-188896600D01*
X139210000Y-188066400D02*
X140040200Y-188896600D01*
X139210000Y-187639700D02*
X139210000Y-188066400D01*
X138382200Y-186811900D02*
X139210000Y-187639700D01*
X136448100Y-186811900D02*
X138382200Y-186811900D01*
X135400000Y-187860000D02*
X136448100Y-186811900D01*
%TO.N,bD5*%
X138693000Y-191670000D02*
X142948900Y-195925900D01*
X134130000Y-191670000D02*
X138693000Y-191670000D01*
X132860000Y-190400000D02*
X134130000Y-191670000D01*
X159532300Y-211020100D02*
X159270500Y-211281900D01*
X162029400Y-211020100D02*
X159532300Y-211020100D01*
X162210400Y-211201100D02*
X162029400Y-211020100D01*
X197273900Y-211201100D02*
X162210400Y-211201100D01*
X199944200Y-208530800D02*
X197273900Y-211201100D01*
X244407800Y-208530800D02*
X199944200Y-208530800D01*
%TO.N,bD6*%
X134358900Y-189358900D02*
X135400000Y-190400000D01*
X134358900Y-184883400D02*
X134358900Y-189358900D01*
X137441500Y-181800800D02*
X134358900Y-184883400D01*
X140022500Y-181800800D02*
X137441500Y-181800800D01*
X143473700Y-185252000D02*
X140022500Y-181800800D01*
X157429600Y-185252000D02*
X143473700Y-185252000D01*
X158969400Y-186791800D02*
X157429600Y-185252000D01*
X173699000Y-186791800D02*
X158969400Y-186791800D01*
X174360400Y-186130400D02*
X173699000Y-186791800D01*
X174360400Y-185461200D02*
X174360400Y-186130400D01*
X175350300Y-184471300D02*
X174360400Y-185461200D01*
X184208800Y-184471300D02*
X175350300Y-184471300D01*
X196521400Y-196783900D02*
X184208800Y-184471300D01*
X196521400Y-199126600D02*
X196521400Y-196783900D01*
X197610200Y-200215400D02*
X196521400Y-199126600D01*
X242422900Y-200215400D02*
X197610200Y-200215400D01*
X246444700Y-204237200D02*
X242422900Y-200215400D01*
X246444700Y-204430000D02*
X246444700Y-204237200D01*
X247570000Y-204430000D02*
X246444700Y-204430000D01*
%TO.N,ZERO*%
X182835000Y-192635000D02*
X180295000Y-192635000D01*
X180295000Y-192635000D02*
X177755000Y-192635000D01*
X177755000Y-192635000D02*
X175215000Y-192635000D01*
X175215000Y-192635000D02*
X172675000Y-192635000D01*
X70089800Y-207300000D02*
X71215100Y-207300000D01*
X101629800Y-199880000D02*
X100504500Y-199880000D01*
X145560000Y-187860000D02*
X148100000Y-190400000D01*
X172675000Y-192635000D02*
X171499700Y-192635000D01*
X158047500Y-197794300D02*
X157908300Y-197655100D01*
X166340400Y-197794300D02*
X158047500Y-197794300D01*
X171499700Y-192635000D02*
X166340400Y-197794300D01*
X102755100Y-200161300D02*
X102755100Y-199880000D01*
X106730400Y-204136600D02*
X102755100Y-200161300D01*
X136903400Y-204136600D02*
X106730400Y-204136600D01*
X137940000Y-203100000D02*
X136903400Y-204136600D01*
X101629800Y-199880000D02*
X102755100Y-199880000D01*
X146830000Y-204370000D02*
X148100000Y-205640000D01*
X144290000Y-204370000D02*
X146830000Y-204370000D01*
X143020000Y-203100000D02*
X144290000Y-204370000D01*
X100504500Y-200114100D02*
X100504500Y-199880000D01*
X97556400Y-203062200D02*
X100504500Y-200114100D01*
X75276000Y-203062200D02*
X97556400Y-203062200D01*
X71215100Y-207123100D02*
X75276000Y-203062200D01*
X71215100Y-207300000D02*
X71215100Y-207123100D01*
%TO.N,ONE*%
X168150000Y-189810600D02*
X168150000Y-189250000D01*
X164172200Y-193788400D02*
X168150000Y-189810600D01*
X156744200Y-193788400D02*
X164172200Y-193788400D01*
X154392300Y-191436500D02*
X156744200Y-193788400D01*
X146596500Y-191436500D02*
X154392300Y-191436500D01*
X145560000Y-190400000D02*
X146596500Y-191436500D01*
X135400000Y-198020000D02*
X132860000Y-200560000D01*
%TO.N,D5*%
X244459400Y-213175400D02*
X249216800Y-213175400D01*
X243615300Y-212331300D02*
X244459400Y-213175400D01*
X243615300Y-212050000D02*
X243615300Y-212331300D01*
X242490000Y-212050000D02*
X243615300Y-212050000D01*
%TO.N,D4*%
X239950000Y-212050000D02*
X241075300Y-212050000D01*
X242775600Y-214031600D02*
X248628900Y-214031600D01*
X241075300Y-212331300D02*
X242775600Y-214031600D01*
X241075300Y-212050000D02*
X241075300Y-212331300D01*
%TO.N,D2*%
X234870000Y-212050000D02*
X235995300Y-212050000D01*
X252423100Y-211395300D02*
X252423100Y-210318100D01*
X249056100Y-214762300D02*
X252423100Y-211395300D01*
X238426300Y-214762300D02*
X249056100Y-214762300D01*
X235995300Y-212331300D02*
X238426300Y-214762300D01*
X235995300Y-212050000D02*
X235995300Y-212331300D01*
%TO.N,D0*%
X243132800Y-123161400D02*
X243132800Y-122880000D01*
X243976700Y-124005300D02*
X243132800Y-123161400D01*
X244789500Y-124005300D02*
X243976700Y-124005300D01*
X250897500Y-130113300D02*
X244789500Y-124005300D01*
X250897500Y-130845000D02*
X250897500Y-130113300D01*
X253085000Y-133032500D02*
X250897500Y-130845000D01*
X253085000Y-134635900D02*
X253085000Y-133032500D01*
X254058800Y-135609700D02*
X253085000Y-134635900D01*
X255177000Y-135609700D02*
X254058800Y-135609700D01*
X259205300Y-139638000D02*
X255177000Y-135609700D01*
X259205300Y-223880600D02*
X259205300Y-139638000D01*
X258852400Y-224233500D02*
X259205300Y-223880600D01*
X257200000Y-224233500D02*
X258852400Y-224233500D01*
X256729500Y-223763000D02*
X257200000Y-224233500D01*
X256729500Y-222581700D02*
X256729500Y-223763000D01*
X250783000Y-216635200D02*
X256729500Y-222581700D01*
X235219200Y-216635200D02*
X250783000Y-216635200D01*
X230915300Y-212331300D02*
X235219200Y-216635200D01*
X230915300Y-212050000D02*
X230915300Y-212331300D01*
X229790000Y-212050000D02*
X230915300Y-212050000D01*
X242007500Y-122880000D02*
X243132800Y-122880000D01*
%TO.N,A7*%
X175300000Y-159180000D02*
X174174700Y-159180000D01*
X123035700Y-164110600D02*
X121089800Y-166056500D01*
X131701500Y-164110600D02*
X123035700Y-164110600D01*
X134590300Y-161221800D02*
X131701500Y-164110600D01*
X172414300Y-161221800D02*
X134590300Y-161221800D01*
X174174700Y-159461400D02*
X172414300Y-161221800D01*
X174174700Y-159180000D02*
X174174700Y-159461400D01*
%TO.N,A6*%
X180380000Y-159180000D02*
X179254700Y-159180000D01*
X179254700Y-159461400D02*
X179254700Y-159180000D01*
X175268600Y-163447500D02*
X179254700Y-159461400D01*
X133638300Y-163447500D02*
X175268600Y-163447500D01*
X132512100Y-164573700D02*
X133638300Y-163447500D01*
X123598400Y-164573700D02*
X132512100Y-164573700D01*
X121350600Y-166821500D02*
X123598400Y-164573700D01*
X120316700Y-166821500D02*
X121350600Y-166821500D01*
%TO.N,A5*%
X215487500Y-130500000D02*
X214362200Y-130500000D01*
X204022500Y-136727600D02*
X182202300Y-136727600D01*
X206175000Y-134575100D02*
X204022500Y-136727600D01*
X206175000Y-133849900D02*
X206175000Y-134575100D01*
X208399600Y-131625300D02*
X206175000Y-133849900D01*
X213518300Y-131625300D02*
X208399600Y-131625300D01*
X214362200Y-130781400D02*
X213518300Y-131625300D01*
X214362200Y-130500000D02*
X214362200Y-130781400D01*
X151520000Y-221473500D02*
X158976500Y-214017000D01*
X151520000Y-223000000D02*
X151520000Y-221473500D01*
%TO.N,A4*%
X160160700Y-211745400D02*
X161427100Y-211745400D01*
X148980000Y-222926100D02*
X160160700Y-211745400D01*
X148980000Y-223000000D02*
X148980000Y-222926100D01*
X219152800Y-130781400D02*
X219152800Y-130500000D01*
X219996700Y-131625300D02*
X219152800Y-130781400D01*
X236069100Y-131625300D02*
X219996700Y-131625300D01*
X237700400Y-133256600D02*
X236069100Y-131625300D01*
X237700400Y-135237000D02*
X237700400Y-133256600D01*
X223478200Y-149459200D02*
X237700400Y-135237000D01*
X217866700Y-149459200D02*
X223478200Y-149459200D01*
X208490000Y-158835900D02*
X217866700Y-149459200D01*
X208490000Y-159550700D02*
X208490000Y-158835900D01*
X206125600Y-161915100D02*
X208490000Y-159550700D01*
X197014400Y-161915100D02*
X206125600Y-161915100D01*
X218027500Y-130500000D02*
X219152800Y-130500000D01*
%TO.N,A2*%
X145769300Y-221130700D02*
X143900000Y-223000000D01*
X148396000Y-221130700D02*
X145769300Y-221130700D01*
X158988100Y-210538600D02*
X148396000Y-221130700D01*
X181713300Y-210538600D02*
X158988100Y-210538600D01*
X181788600Y-210463300D02*
X181713300Y-210538600D01*
%TO.N,A1*%
X215070000Y-144359600D02*
X219837200Y-139592400D01*
X215070000Y-147313600D02*
X215070000Y-144359600D01*
X204328900Y-158054700D02*
X215070000Y-147313600D01*
X204195800Y-158054700D02*
X204328900Y-158054700D01*
X203265300Y-158985200D02*
X204195800Y-158054700D01*
X203265300Y-159180000D02*
X203265300Y-158985200D01*
X202140000Y-159180000D02*
X203265300Y-159180000D01*
X144105400Y-220254600D02*
X141360000Y-223000000D01*
X148635200Y-220254600D02*
X144105400Y-220254600D01*
X158801600Y-210088200D02*
X148635200Y-220254600D01*
X179523700Y-210088200D02*
X158801600Y-210088200D01*
X181840000Y-207771900D02*
X179523700Y-210088200D01*
X181840000Y-207099400D02*
X181840000Y-207771900D01*
X182702500Y-206236900D02*
X181840000Y-207099400D01*
X184493200Y-206236900D02*
X182702500Y-206236900D01*
%TO.N,A0*%
X143208300Y-218611700D02*
X138820000Y-223000000D01*
X149641200Y-218611700D02*
X143208300Y-218611700D01*
X158740300Y-209512600D02*
X149641200Y-218611700D01*
X177565000Y-209512600D02*
X158740300Y-209512600D01*
X179300000Y-207777600D02*
X177565000Y-209512600D01*
X179300000Y-207079600D02*
X179300000Y-207777600D01*
X180868000Y-205511600D02*
X179300000Y-207079600D01*
X185317000Y-205511600D02*
X180868000Y-205511600D01*
X185498600Y-205693200D02*
X185317000Y-205511600D01*
%TO.N,~{RD}*%
X143380000Y-122880000D02*
X142254700Y-122880000D01*
X85200700Y-135588800D02*
X81822200Y-135588800D01*
X89632200Y-131157300D02*
X85200700Y-135588800D01*
X89632200Y-129992300D02*
X89632200Y-131157300D01*
X90952100Y-128672400D02*
X89632200Y-129992300D01*
X96110900Y-128672400D02*
X90952100Y-128672400D01*
X98445300Y-126338000D02*
X96110900Y-128672400D01*
X139078000Y-126338000D02*
X98445300Y-126338000D01*
X142254700Y-123161300D02*
X139078000Y-126338000D01*
X142254700Y-122880000D02*
X142254700Y-123161300D01*
X61035000Y-167050000D02*
X62160300Y-167050000D01*
X78870700Y-207591100D02*
X78870700Y-205983500D01*
X87708500Y-216428900D02*
X78870700Y-207591100D01*
X99151400Y-216428900D02*
X87708500Y-216428900D01*
X105460000Y-222737500D02*
X99151400Y-216428900D01*
X105460000Y-223000000D02*
X105460000Y-222737500D01*
X224027300Y-212050000D02*
X227250000Y-212050000D01*
X213550000Y-222527300D02*
X224027300Y-212050000D01*
X213550000Y-223431000D02*
X213550000Y-222527300D01*
X212805600Y-224175400D02*
X213550000Y-223431000D01*
X194638600Y-224175400D02*
X212805600Y-224175400D01*
X192078100Y-226735900D02*
X194638600Y-224175400D01*
X118474700Y-226735900D02*
X192078100Y-226735900D01*
X116009300Y-224270500D02*
X118474700Y-226735900D01*
X106730500Y-224270500D02*
X116009300Y-224270500D01*
X105460000Y-223000000D02*
X106730500Y-224270500D01*
X67790900Y-167835800D02*
X81860000Y-167835800D01*
X67411600Y-168215100D02*
X67790900Y-167835800D01*
X63112700Y-168215100D02*
X67411600Y-168215100D01*
X62160300Y-167262700D02*
X63112700Y-168215100D01*
X62160300Y-167050000D02*
X62160300Y-167262700D01*
%TO.N,~{WR}*%
X50875000Y-167050000D02*
X52000300Y-167050000D01*
X132646000Y-153427900D02*
X133029900Y-153044000D01*
X126228200Y-153427900D02*
X132646000Y-153427900D01*
X115757000Y-163899100D02*
X126228200Y-153427900D01*
X88622800Y-163899100D02*
X115757000Y-163899100D01*
X83514100Y-169007800D02*
X88622800Y-163899100D01*
X52000300Y-167279600D02*
X52000300Y-167050000D01*
X53836400Y-169115700D02*
X52000300Y-167279600D01*
X68009800Y-169115700D02*
X53836400Y-169115700D01*
X68297700Y-168827800D02*
X68009800Y-169115700D01*
X70484000Y-168827800D02*
X68297700Y-168827800D01*
X70677100Y-169020900D02*
X70484000Y-168827800D01*
X83501000Y-169020900D02*
X70677100Y-169020900D01*
X83514100Y-169007800D02*
X83501000Y-169020900D01*
%TO.N,~{IORQ}*%
X58495000Y-159430000D02*
X59620300Y-159430000D01*
X132094700Y-123161300D02*
X132094700Y-122880000D01*
X130309500Y-124946500D02*
X132094700Y-123161300D01*
X97748800Y-124946500D02*
X130309500Y-124946500D01*
X94473300Y-128222000D02*
X97748800Y-124946500D01*
X88164800Y-128222000D02*
X94473300Y-128222000D01*
X84247600Y-132139200D02*
X88164800Y-128222000D01*
X133220000Y-122880000D02*
X132094700Y-122880000D01*
X75387000Y-160052900D02*
X84073700Y-160052900D01*
X74884600Y-160555300D02*
X75387000Y-160052900D01*
X60464200Y-160555300D02*
X74884600Y-160555300D01*
X59620300Y-159711400D02*
X60464200Y-160555300D01*
X59620300Y-159430000D02*
X59620300Y-159711400D01*
%TO.N,~{M1}*%
X53415000Y-159430000D02*
X54540300Y-159430000D01*
X130680000Y-122880000D02*
X129554700Y-122880000D01*
X87442400Y-126643700D02*
X84246900Y-129839200D01*
X87442400Y-126643600D02*
X87442400Y-126643700D01*
X94414300Y-126643600D02*
X87442400Y-126643600D01*
X96568200Y-124489700D02*
X94414300Y-126643600D01*
X128226300Y-124489700D02*
X96568200Y-124489700D01*
X129554700Y-123161300D02*
X128226300Y-124489700D01*
X129554700Y-122880000D02*
X129554700Y-123161300D01*
X55882300Y-161053300D02*
X83623400Y-161053300D01*
X54540300Y-159711300D02*
X55882300Y-161053300D01*
X54540300Y-159430000D02*
X54540300Y-159711300D01*
%TO.N,RX-3.3*%
X60125100Y-207018700D02*
X60125100Y-207300000D01*
X64617200Y-202526600D02*
X60125100Y-207018700D01*
X93408000Y-202526600D02*
X64617200Y-202526600D01*
X97464200Y-198470400D02*
X93408000Y-202526600D01*
X105301500Y-198470400D02*
X97464200Y-198470400D01*
X105470500Y-198301400D02*
X105301500Y-198470400D01*
X130881400Y-198301400D02*
X105470500Y-198301400D01*
X131646200Y-199066200D02*
X130881400Y-198301400D01*
X133300900Y-199066200D02*
X131646200Y-199066200D01*
X133931600Y-198435500D02*
X133300900Y-199066200D01*
X133931600Y-196551600D02*
X133931600Y-198435500D01*
X132860000Y-195480000D02*
X133931600Y-196551600D01*
X58999800Y-207300000D02*
X60125100Y-207300000D01*
%TO.N,TX-3.3*%
X177440000Y-180790000D02*
X175060000Y-180790000D01*
%TO.N,Net-(RN1-Pad4)*%
X175490000Y-198615300D02*
X177755000Y-196350300D01*
X175490000Y-199830000D02*
X175490000Y-198615300D01*
X177755000Y-195175000D02*
X177755000Y-196350300D01*
%TO.N,Net-(RN1-Pad9)*%
X170410000Y-207450000D02*
X167870000Y-207450000D01*
X167870000Y-207450000D02*
X165330000Y-207450000D01*
X175490000Y-207450000D02*
X172950000Y-207450000D01*
X172950000Y-207450000D02*
X170410000Y-207450000D01*
X183395000Y-185650000D02*
X183395000Y-186775300D01*
X181659600Y-196464900D02*
X179543900Y-198580600D01*
X181659600Y-194677900D02*
X181659600Y-196464900D01*
X182527100Y-193810400D02*
X181659600Y-194677900D01*
X183394800Y-193810400D02*
X182527100Y-193810400D01*
X184023800Y-193181400D02*
X183394800Y-193810400D01*
X184023800Y-187404100D02*
X184023800Y-193181400D01*
X183395000Y-186775300D02*
X184023800Y-187404100D01*
%TO.N,I2C_SCL*%
X71282400Y-172065800D02*
X179131300Y-172065800D01*
X52663000Y-190685200D02*
X71282400Y-172065800D01*
X49028800Y-190685200D02*
X52663000Y-190685200D01*
X47714400Y-191999600D02*
X49028800Y-190685200D01*
X47714400Y-221134400D02*
X47714400Y-191999600D01*
X49580000Y-223000000D02*
X47714400Y-221134400D01*
%TO.N,I2C_SDA*%
X176700000Y-174720000D02*
X175524700Y-174720000D01*
X50793700Y-224326300D02*
X49580000Y-225540000D01*
X50793700Y-220213700D02*
X50793700Y-224326300D01*
X50195300Y-219615300D02*
X50793700Y-220213700D01*
X50195300Y-196728400D02*
X50195300Y-219615300D01*
X53481700Y-193442000D02*
X50195300Y-196728400D01*
X55925800Y-193442000D02*
X53481700Y-193442000D01*
X55977300Y-193390500D02*
X55925800Y-193442000D01*
X57697800Y-193390500D02*
X55977300Y-193390500D01*
X57749300Y-193442000D02*
X57697800Y-193390500D01*
X68209500Y-193442000D02*
X57749300Y-193442000D01*
X89130900Y-172520600D02*
X68209500Y-193442000D01*
X173325300Y-172520600D02*
X89130900Y-172520600D01*
X175524700Y-174720000D02*
X173325300Y-172520600D01*
D35*
%TO.N,VCC*%
X54577500Y-114100000D02*
X52037500Y-114100000D01*
X125497500Y-106430000D02*
X128037500Y-106430000D01*
X54680000Y-130550000D02*
X52140000Y-130550000D01*
X200145000Y-106480000D02*
X202685000Y-106480000D01*
X80250000Y-192310000D02*
X86500000Y-192310000D01*
X201100000Y-138380000D02*
X203640000Y-138380000D01*
X203640000Y-138380000D02*
X206180000Y-138380000D01*
X88322500Y-106480000D02*
X90862500Y-106480000D01*
X91067500Y-96155000D02*
X88527500Y-96155000D01*
X128140000Y-96155000D02*
X125600000Y-96155000D01*
X213800000Y-138380000D02*
X216340000Y-138380000D01*
X216340000Y-138380000D02*
X218880000Y-138380000D01*
X237000000Y-96155000D02*
X237000000Y-103250000D01*
X239467500Y-96155000D02*
X237000000Y-96155000D01*
X237000000Y-96155000D02*
X236927500Y-96155000D01*
X162477900Y-196650000D02*
X160425000Y-196650000D01*
X169350000Y-189777900D02*
X162477900Y-196650000D01*
X169350000Y-189250000D02*
X169350000Y-189777900D01*
X171170000Y-137947500D02*
X173710000Y-137947500D01*
X222820000Y-204430000D02*
X222500000Y-204750000D01*
X227250000Y-204430000D02*
X222820000Y-204430000D01*
X202627000Y-205932000D02*
X201125000Y-204430000D01*
X221318000Y-205932000D02*
X202627000Y-205932000D01*
X222500000Y-204750000D02*
X221318000Y-205932000D01*
X199450000Y-212050000D02*
X193000000Y-218500000D01*
X201125000Y-212050000D02*
X199450000Y-212050000D01*
X65075300Y-122930000D02*
X64840000Y-122930000D01*
X68255300Y-119750000D02*
X65075300Y-122930000D01*
X73620000Y-119750000D02*
X68255300Y-119750000D01*
X81750000Y-103250000D02*
X85000000Y-106500000D01*
X73560000Y-103250000D02*
X81750000Y-103250000D01*
X85020000Y-106480000D02*
X85000000Y-106500000D01*
X88322500Y-106480000D02*
X85020000Y-106480000D01*
X132187300Y-133747300D02*
X133690000Y-135250000D01*
X125192700Y-133747300D02*
X132187300Y-133747300D01*
X123690000Y-135250000D02*
X125192700Y-133747300D01*
X236575000Y-134250000D02*
X232091400Y-134250000D01*
X227961400Y-138380000D02*
X232091400Y-134250000D01*
X218880000Y-138380000D02*
X227961400Y-138380000D01*
X48839800Y-196625000D02*
X48839800Y-199680000D01*
X48964800Y-196500000D02*
X48839800Y-196625000D01*
X130569400Y-98584400D02*
X128140000Y-96155000D01*
X158034400Y-98584400D02*
X130569400Y-98584400D01*
X162450000Y-103000000D02*
X158034400Y-98584400D01*
X173710000Y-137947500D02*
X176250000Y-137947500D01*
X176250000Y-137947500D02*
X178790000Y-137947500D01*
X228750400Y-205930400D02*
X227250000Y-204430000D01*
X250739000Y-205930400D02*
X228750400Y-205930400D01*
X166090000Y-137947500D02*
X168630000Y-137947500D01*
X168630000Y-137947500D02*
X171170000Y-137947500D01*
X235324600Y-118074600D02*
X237000000Y-119750000D01*
X235324600Y-109430700D02*
X235324600Y-118074600D01*
X236825000Y-107930300D02*
X235324600Y-109430700D01*
X201778200Y-124410700D02*
X200247500Y-122880000D01*
X233896500Y-124410700D02*
X201778200Y-124410700D01*
X235427200Y-122880000D02*
X233896500Y-124410700D01*
X143604600Y-182940000D02*
X142900000Y-182940000D01*
X146544600Y-180000000D02*
X143604600Y-182940000D01*
X152471600Y-184426700D02*
X148044900Y-180000000D01*
X160351400Y-184426700D02*
X152471600Y-184426700D01*
X161574700Y-185650000D02*
X160351400Y-184426700D01*
X88000300Y-192455700D02*
X89044600Y-193500000D01*
X88000300Y-192310000D02*
X88000300Y-192455700D01*
X90544900Y-193500000D02*
X89044600Y-193500000D01*
X86500000Y-192310000D02*
X88000300Y-192310000D01*
X49000000Y-192310000D02*
X55250000Y-192310000D01*
X55250000Y-192310000D02*
X61500000Y-192310000D01*
X65254400Y-104754400D02*
X63750000Y-103250000D01*
X70555300Y-104754400D02*
X65254400Y-104754400D01*
X72059700Y-103250000D02*
X70555300Y-104754400D01*
X63750000Y-103250000D02*
X62249700Y-103250000D01*
X73560000Y-103250000D02*
X72059700Y-103250000D01*
X62197500Y-106480000D02*
X62197500Y-104979700D01*
X61447300Y-104229400D02*
X62197500Y-104979700D01*
X62249700Y-103427000D02*
X62249700Y-103250000D01*
X61447300Y-104229400D02*
X62249700Y-103427000D01*
X236927500Y-122880000D02*
X235427200Y-122880000D01*
X163075000Y-185650000D02*
X161574700Y-185650000D01*
X148044900Y-180000000D02*
X146544600Y-180000000D01*
X236825000Y-106430000D02*
X236825000Y-107180100D01*
X236825000Y-107180100D02*
X236825000Y-107930300D01*
X237114600Y-107180100D02*
X237864700Y-106430000D01*
X236825000Y-107180100D02*
X237114600Y-107180100D01*
X239365000Y-106430000D02*
X237864700Y-106430000D01*
X49497500Y-106480000D02*
X49497500Y-104979700D01*
X49497500Y-104979700D02*
X50083600Y-104393600D01*
X50449800Y-104759800D02*
X50083600Y-104393600D01*
X60916900Y-104759800D02*
X50449800Y-104759800D01*
X61447300Y-104229400D02*
X60916900Y-104759800D01*
X50083600Y-104393600D02*
X48940000Y-103250000D01*
X56180300Y-149549700D02*
X62300000Y-143430000D01*
X54680000Y-149549700D02*
X56180300Y-149549700D01*
X54680000Y-151050000D02*
X54680000Y-149549700D01*
X208720000Y-138380000D02*
X211260000Y-138380000D01*
X211260000Y-138380000D02*
X213800000Y-138380000D01*
X199600000Y-156150000D02*
X199600000Y-159180000D01*
X199750000Y-156000000D02*
X199600000Y-156150000D01*
X74370200Y-140250000D02*
X75120300Y-140250000D01*
X74370200Y-140250000D02*
X73620000Y-140250000D01*
X65100000Y-143430000D02*
X64840000Y-143430000D01*
X68280000Y-140250000D02*
X65100000Y-143430000D01*
X73620000Y-140250000D02*
X68280000Y-140250000D01*
X88175000Y-151000000D02*
X86674700Y-151000000D01*
X88350000Y-119750000D02*
X73620000Y-119750000D01*
X166090000Y-137947500D02*
X163550000Y-137947500D01*
X161019900Y-137947500D02*
X160565400Y-138402000D01*
X163550000Y-137947500D02*
X161019900Y-137947500D01*
X82180300Y-138430000D02*
X88225000Y-138430000D01*
X78892700Y-141717600D02*
X82180300Y-138430000D01*
X86674700Y-149499700D02*
X78892700Y-141717600D01*
X86674700Y-151000000D02*
X86674700Y-149499700D01*
X77425000Y-140250000D02*
X75120300Y-140250000D01*
X78892700Y-141717600D02*
X77425000Y-140250000D01*
X258000000Y-213191400D02*
X250739000Y-205930400D01*
X258000000Y-223000000D02*
X258000000Y-213191400D01*
X178790000Y-137947500D02*
X181330000Y-137947500D01*
X199167200Y-137947500D02*
X199599700Y-138380000D01*
X181330000Y-137947500D02*
X199167200Y-137947500D01*
X201100000Y-138380000D02*
X199599700Y-138380000D01*
X246847300Y-199040000D02*
X246400000Y-199040000D01*
X251616200Y-203808900D02*
X246847300Y-199040000D01*
X251616200Y-205053200D02*
X251616200Y-203808900D01*
X250739000Y-205930400D02*
X251616200Y-205053200D01*
X246400000Y-199040000D02*
X243860000Y-199040000D01*
X126850400Y-154749600D02*
X125350000Y-156250000D01*
X161449600Y-154749600D02*
X126850400Y-154749600D01*
X162700000Y-156000000D02*
X161449600Y-154749600D01*
X125100000Y-156500000D02*
X125100000Y-159430000D01*
X125350000Y-156250000D02*
X125100000Y-156500000D01*
X66249700Y-192310000D02*
X61500000Y-192310000D01*
X67750000Y-192310000D02*
X66249700Y-192310000D01*
%TO.N,GND*%
X94455000Y-80625000D02*
X113150000Y-80625000D01*
X90925000Y-84155000D02*
X94455000Y-80625000D01*
X100964800Y-193625000D02*
X93044900Y-193625000D01*
X104089800Y-196750000D02*
X100964800Y-193625000D01*
X93044900Y-193625000D02*
X93044900Y-193500000D01*
X112732800Y-114050000D02*
X112682800Y-114100000D01*
X125497500Y-114050000D02*
X112732800Y-114050000D01*
X217477800Y-194942200D02*
X215920000Y-196500000D01*
X234682200Y-194942200D02*
X217477800Y-194942200D01*
X236240000Y-196500000D02*
X234682200Y-194942200D01*
X43400000Y-75000000D02*
X49250000Y-80850000D01*
X40000000Y-75000000D02*
X43400000Y-75000000D01*
X53955300Y-84155000D02*
X90925000Y-84155000D01*
X50850300Y-81050000D02*
X53955300Y-84155000D01*
X50850300Y-80850000D02*
X50850300Y-81050000D01*
X167700000Y-119500000D02*
X167700000Y-117263700D01*
X165786200Y-117263700D02*
X167700000Y-117263700D01*
X162422500Y-113900000D02*
X165786200Y-117263700D01*
X181918800Y-117263700D02*
X185282500Y-113900000D01*
X167700000Y-117263700D02*
X181918800Y-117263700D01*
X189180400Y-111502400D02*
X186782800Y-113900000D01*
X197547400Y-111502400D02*
X189180400Y-111502400D01*
X205500000Y-119750000D02*
X205500000Y-118587000D01*
X204632000Y-118587000D02*
X205500000Y-118587000D01*
X200145000Y-114100000D02*
X204632000Y-118587000D01*
X218518000Y-118587000D02*
X223005000Y-114100000D01*
X205500000Y-118587000D02*
X218518000Y-118587000D01*
X242097500Y-157652500D02*
X243750000Y-156000000D01*
X237970400Y-157652500D02*
X242097500Y-157652500D01*
X236466800Y-159156100D02*
X237970400Y-157652500D01*
X236466700Y-159156100D02*
X236466800Y-159156100D01*
X233990500Y-159156100D02*
X236466700Y-159156100D01*
X226346600Y-166800000D02*
X233990500Y-159156100D01*
X217380000Y-166800000D02*
X226346600Y-166800000D01*
X251094600Y-164029600D02*
X253865000Y-166800000D01*
X241340200Y-164029600D02*
X251094600Y-164029600D01*
X236466800Y-159156100D02*
X241340200Y-164029600D01*
X90169900Y-196500000D02*
X75264800Y-196500000D01*
X93044900Y-193625000D02*
X90169900Y-196500000D01*
X203748200Y-104751800D02*
X198165500Y-104751800D01*
X205250000Y-103250000D02*
X203748200Y-104751800D01*
X197547400Y-105369900D02*
X198165500Y-104751800D01*
X197547400Y-111502400D02*
X197547400Y-105369900D01*
X198165500Y-87164200D02*
X201174700Y-84155000D01*
X198165500Y-104751800D02*
X198165500Y-87164200D01*
X248480000Y-75000000D02*
X265000000Y-75000000D01*
X239325000Y-84155000D02*
X248480000Y-75000000D01*
X54320400Y-157929600D02*
X56000000Y-156250000D01*
X50213500Y-157929600D02*
X54320400Y-157929600D01*
X46902800Y-161240300D02*
X50213500Y-157929600D01*
X46902800Y-163250000D02*
X46902800Y-161240300D01*
X198644700Y-112599700D02*
X197547400Y-111502400D01*
X200145000Y-112599700D02*
X198644700Y-112599700D01*
X44952500Y-163250000D02*
X46902800Y-163250000D01*
X202675000Y-84155000D02*
X201174700Y-84155000D01*
X165025000Y-83955000D02*
X163524700Y-83955000D01*
X49250000Y-80850000D02*
X50850300Y-80850000D01*
X125497500Y-114050000D02*
X125497500Y-115550300D01*
X111182500Y-114100000D02*
X112682800Y-114100000D01*
X57926400Y-136323600D02*
X54000000Y-140250000D01*
X61606400Y-136323600D02*
X57926400Y-136323600D01*
X67380000Y-130550000D02*
X61606400Y-136323600D01*
X200145000Y-114100000D02*
X200145000Y-112599700D01*
X236825000Y-114050000D02*
X236825000Y-115550300D01*
X148357500Y-114050000D02*
X149857800Y-114050000D01*
X185282500Y-113900000D02*
X186782800Y-113900000D01*
X86822200Y-113322200D02*
X86822200Y-114100000D01*
X85000000Y-111500000D02*
X86822200Y-113322200D01*
X88322500Y-114100000D02*
X86822200Y-114100000D01*
X67277500Y-114100000D02*
X67277500Y-115600300D01*
X84615600Y-116306600D02*
X86822200Y-114100000D01*
X67277500Y-116306600D02*
X84615600Y-116306600D01*
X67277500Y-115600300D02*
X67277500Y-116306600D01*
X57443400Y-116306600D02*
X54000000Y-119750000D01*
X67277500Y-116306600D02*
X57443400Y-116306600D01*
X120445600Y-205995800D02*
X121949800Y-207500000D01*
X95754300Y-205995800D02*
X120445600Y-205995800D01*
X94450100Y-207300000D02*
X95754300Y-205995800D01*
X92949800Y-207300000D02*
X94450100Y-207300000D01*
X126400300Y-115550300D02*
X130600000Y-119750000D01*
X125497500Y-115550300D02*
X126400300Y-115550300D01*
X142657500Y-119750000D02*
X148357500Y-114050000D01*
X130600000Y-119750000D02*
X142657500Y-119750000D01*
X186710300Y-209550000D02*
X196125000Y-209550000D01*
X184610300Y-207450000D02*
X186710300Y-209550000D01*
X183110000Y-207450000D02*
X184610300Y-207450000D01*
X183380600Y-168300300D02*
X202140000Y-168300300D01*
X181880300Y-166800000D02*
X183380600Y-168300300D01*
X180380000Y-166800000D02*
X181880300Y-166800000D01*
X202140000Y-166800000D02*
X202140000Y-168300300D01*
X205719700Y-168300300D02*
X202140000Y-168300300D01*
X207220000Y-166800000D02*
X205719700Y-168300300D01*
X150209400Y-133749700D02*
X151370000Y-133749700D01*
X148460000Y-132000300D02*
X150209400Y-133749700D01*
X148460000Y-130500000D02*
X148460000Y-132000300D01*
X151370000Y-135250000D02*
X151370000Y-133749700D01*
X160324400Y-133749700D02*
X151370000Y-133749700D01*
X160574700Y-134000000D02*
X160324400Y-133749700D01*
X162075000Y-134000000D02*
X160574700Y-134000000D01*
X162422500Y-113900000D02*
X160922200Y-113900000D01*
X149857800Y-113937500D02*
X149895300Y-113900000D01*
X149857800Y-114050000D02*
X149857800Y-113937500D01*
X147395600Y-103250000D02*
X130600000Y-103250000D01*
X149895300Y-105749700D02*
X147395600Y-103250000D01*
X149895300Y-113900000D02*
X149895300Y-105749700D01*
X167450000Y-103000000D02*
X164056900Y-103000000D01*
X160877500Y-86602200D02*
X163524700Y-83955000D01*
X160877500Y-98250000D02*
X160877500Y-86602200D01*
X164056900Y-101429400D02*
X160877500Y-98250000D01*
X164056900Y-103000000D02*
X164056900Y-101429400D01*
X149895300Y-113900000D02*
X160922200Y-113900000D01*
X164056900Y-103534300D02*
X164056900Y-103000000D01*
X163059800Y-104531400D02*
X164056900Y-103534300D01*
X161081000Y-104531400D02*
X163059800Y-104531400D01*
X160922200Y-104690200D02*
X161081000Y-104531400D01*
X160922200Y-113900000D02*
X160922200Y-104690200D01*
X214775100Y-213639900D02*
X216365000Y-212050000D01*
X210334900Y-213639900D02*
X214775100Y-213639900D01*
X208745000Y-212050000D02*
X210334900Y-213639900D01*
X247810000Y-209750000D02*
X222500000Y-209750000D01*
X250110000Y-212050000D02*
X247810000Y-209750000D01*
X220165300Y-209750000D02*
X217865300Y-212050000D01*
X222500000Y-209750000D02*
X220165300Y-209750000D01*
X216365000Y-212050000D02*
X217865300Y-212050000D01*
X237800300Y-115550300D02*
X242000000Y-119750000D01*
X236825000Y-115550300D02*
X237800300Y-115550300D01*
X259787500Y-130500000D02*
X259787500Y-128999700D01*
X259685000Y-114050000D02*
X259685000Y-115488100D01*
X261345900Y-127441300D02*
X259787500Y-128999700D01*
X261345900Y-122304900D02*
X261345900Y-127441300D01*
X257138200Y-118097100D02*
X261345900Y-122304900D01*
X259685000Y-115550300D02*
X257138200Y-118097100D01*
X259685000Y-115488100D02*
X259685000Y-115550300D01*
X255485300Y-119750000D02*
X242000000Y-119750000D01*
X257138200Y-118097100D02*
X255485300Y-119750000D01*
X194374700Y-130300000D02*
X198324700Y-134250000D01*
X185385000Y-130300000D02*
X194374700Y-130300000D01*
X199825000Y-134250000D02*
X198324700Y-134250000D01*
X203217100Y-154467100D02*
X204750000Y-156000000D01*
X169232900Y-154467100D02*
X203217100Y-154467100D01*
X167700000Y-156000000D02*
X169232900Y-154467100D01*
X73051100Y-196500000D02*
X75264800Y-196500000D01*
X71548600Y-198002500D02*
X73051100Y-196500000D01*
X55467300Y-198002500D02*
X71548600Y-198002500D01*
X53964800Y-196500000D02*
X55467300Y-198002500D01*
X98715000Y-135250000D02*
X93350000Y-135250000D01*
X103465000Y-130500000D02*
X98715000Y-135250000D01*
X121949800Y-207500000D02*
X123450100Y-207500000D01*
X123836900Y-207113200D02*
X123450100Y-207500000D01*
X139006800Y-207113200D02*
X123836900Y-207113200D01*
X140480000Y-205640000D02*
X139006800Y-207113200D01*
X157087700Y-186077400D02*
X161480000Y-190469700D01*
X141037400Y-186077400D02*
X157087700Y-186077400D01*
X137900000Y-182940000D02*
X141037400Y-186077400D01*
X161480000Y-191670000D02*
X161480000Y-190469700D01*
X197719400Y-194949700D02*
X198140000Y-194949700D01*
X185060000Y-182290300D02*
X197719400Y-194949700D01*
X185060000Y-180790000D02*
X185060000Y-182290300D01*
X198140000Y-196500000D02*
X198140000Y-194949700D01*
X181584900Y-182764800D02*
X183559700Y-180790000D01*
X153309700Y-182764800D02*
X181584900Y-182764800D01*
X150544900Y-180000000D02*
X153309700Y-182764800D01*
X185060000Y-180790000D02*
X183559700Y-180790000D01*
X62180000Y-156250000D02*
X56000000Y-156250000D01*
X67380000Y-151050000D02*
X62180000Y-156250000D01*
X146130600Y-165299700D02*
X165140000Y-165299700D01*
X144380300Y-167050000D02*
X146130600Y-165299700D01*
X142880000Y-167050000D02*
X144380300Y-167050000D01*
X165140000Y-166800000D02*
X165140000Y-165299700D01*
%TD*%
M02*
