M48
; DRILL file {KiCad (6.0.11)} date Sun Mar 10 14:23:42 2024
; FORMAT={-:-/ absolute / inch / decimal}
; #@! TF.CreationDate,2024-03-10T14:23:42-04:00
; #@! TF.GenerationSoftware,Kicad,Pcbnew,(6.0.11)
; #@! TF.FileFunction,Plated,1,2,PTH
FMAT,2
INCH
; #@! TA.AperFunction,Plated,PTH,ComponentDrill
T1C0.0118
; #@! TA.AperFunction,Plated,PTH,ViaDrill
T2C0.0157
; #@! TA.AperFunction,Plated,PTH,ComponentDrill
T3C0.0315
; #@! TA.AperFunction,Plated,PTH,ComponentDrill
T4C0.0354
; #@! TA.AperFunction,Plated,PTH,ComponentDrill
T5C0.0360
; #@! TA.AperFunction,Plated,PTH,ComponentDrill
T6C0.0394
; #@! TA.AperFunction,Plated,PTH,ComponentDrill
T7C0.0433
; #@! TA.AperFunction,Plated,PTH,ComponentDrill
T8C0.0591
; #@! TA.AperFunction,Plated,PTH,ComponentDrill
T9C0.1079
; #@! TA.AperFunction,Plated,PTH,ComponentDrill
T10C0.1083
; #@! TA.AperFunction,Plated,PTH,ComponentDrill
T11C0.1260
%
G90
G05
T1
X4.2657Y-5.7343
X4.2657Y-5.7815
X6.6201Y-7.4508
X6.6673Y-7.4508
X6.7421Y-6.8465
X6.7421Y-6.8937
T2
X2.2238Y-6.0513
X2.2371Y-6.3355
X2.252Y-4.0276
X2.3396Y-7.2933
X2.5184Y-7.5481
X2.5564Y-5.4133
X2.7948Y-5.4941
X2.7998Y-7.8098
X2.8566Y-7.8061
X2.9294Y-5.7945
X2.9302Y-6.0309
X2.948Y-5.454
X2.948Y-6.1612
X3.0937Y-5.4549
X3.1044Y-5.577
X3.1739Y-5.6237
X3.1796Y-6.6409
X3.2316Y-6.3654
X3.2621Y-6.3347
X3.2637Y-5.2277
X3.2864Y-5.1644
X3.287Y-8.1015
X3.329Y-4.7806
X3.3444Y-6.8534
X3.3915Y-4.4231
X3.4356Y-4.5752
X3.4701Y-7.4887
X3.6741Y-5.0041
X3.8025Y-7.9072
X3.8335Y-5.493
X3.8431Y-7.7667
X3.9199Y-4.7335
X3.9263Y-5.5946
X4.2219Y-7.8011
X4.2567Y-7.6091
X4.3769Y-6.0497
X4.3888Y-5.6888
X4.4283Y-8.2328
X4.4815Y-6.0203
X4.7474Y-3.4411
X4.8942Y-5.6713
X4.9485Y-8.1855
X4.9659Y-6.464
X5.1802Y-7.0527
X5.2322Y-4.9992
X5.3312Y-6.7113
X5.3444Y-8.3316
X5.4524Y-7.9231
X5.5995Y-7.6298
X5.6564Y-7.8896
X5.662Y-7.9521
X5.7187Y-7.7369
X5.7225Y-6.7918
X5.7894Y-7.6585
X5.8146Y-4.1289
X5.8432Y-4.0338
X5.8833Y-7.3904
X5.9409Y-8.0488
X5.9633Y-6.9606
X5.9759Y-3.9416
X5.9885Y-8.009
X6.025Y-6.2754
X6.025Y-6.3392
X6.0427Y-6.6248
X6.0524Y-7.8078
X6.0598Y-6.4346
X6.066Y-6.2754
X6.0816Y-6.1934
X6.1117Y-5.9225
X6.1175Y-6.3528
X6.1758Y-6.3607
X6.2068Y-6.3998
X6.2097Y-7.3928
X6.2253Y-5.9802
X6.2431Y-5.6977
X6.2998Y-5.3892
X6.4286Y-4.9276
X6.4753Y-8.2985
X6.4768Y-6.4171
X6.4821Y-4.9314
X6.4901Y-8.2399
X6.5625Y-8.2563
X6.5703Y-7.463
X6.6786Y-7.0667
X6.7541Y-6.1633
X7.1476Y-8.1137
X7.2639Y-7.7451
X7.2823Y-8.3892
X7.2878Y-7.4853
X7.737Y-5.7037
X7.7528Y-5.2411
X7.7647Y-5.1888
X7.835Y-3.7246
X7.8395Y-4.339
X8.1497Y-5.0921
X8.602Y-5.8805
X9.2404Y-6.1527
X10.1296Y-7.8691
X10.1621Y-6.3981
T3
X1.7126Y-3.4819
X1.7126Y-3.7819
X1.7144Y-4.1929
X1.7144Y-4.8425
X1.7242Y-5.6496
X1.7698Y-6.3484
X1.7698Y-6.4272
X1.7698Y-6.5059
X1.8128Y-4.1929
X1.8128Y-4.8425
X1.8226Y-5.6496
X1.9228Y-7.8614
X1.9228Y-8.1614
X1.9268Y-4.065
X1.9277Y-7.7362
X1.9291Y-4.7146
X1.9291Y-5.5217
X1.9291Y-7.2713
X1.9291Y-7.5713
X1.9487Y-4.1921
X1.9487Y-4.4921
X1.9528Y-4.8398
X1.9528Y-5.1398
X1.9528Y-5.6469
X1.9528Y-5.9469
X1.9587Y-3.4917
X1.9587Y-3.7917
X2.003Y-6.2768
X2.003Y-6.5768
X2.0079Y-6.1516
X2.0228Y-7.8614
X2.0228Y-8.1614
X2.0487Y-4.1921
X2.0487Y-4.4921
X2.0528Y-4.8398
X2.0528Y-5.1398
X2.0528Y-5.6469
X2.0528Y-5.9469
X2.103Y-6.2768
X2.103Y-6.5768
X2.1228Y-7.8614
X2.1228Y-8.1614
X2.1236Y-4.065
X2.1246Y-7.7362
X2.126Y-4.7146
X2.126Y-5.5217
X2.1487Y-4.1921
X2.1487Y-4.4921
X2.1528Y-4.8398
X2.1528Y-5.1398
X2.1528Y-5.6469
X2.1528Y-5.9469
X2.1752Y-7.2713
X2.1752Y-7.5713
X2.203Y-6.2768
X2.203Y-6.5768
X2.2047Y-3.4819
X2.2047Y-3.7819
X2.2047Y-6.1516
X2.2098Y-4.065
X2.2122Y-4.7146
X2.2122Y-5.5217
X2.2228Y-7.8614
X2.2228Y-8.1614
X2.2487Y-4.1921
X2.2487Y-4.4921
X2.2528Y-4.8398
X2.2528Y-5.1398
X2.2528Y-5.6469
X2.2528Y-5.9469
X2.303Y-6.2768
X2.303Y-6.5768
X2.3228Y-7.8614
X2.3228Y-8.1614
X2.3487Y-4.1921
X2.3487Y-4.4921
X2.3528Y-4.8398
X2.3528Y-5.1398
X2.3528Y-5.6469
X2.3528Y-5.9469
X2.403Y-6.2768
X2.403Y-6.5768
X2.4213Y-7.2713
X2.4213Y-7.5713
X2.4228Y-7.8614
X2.4228Y-8.1614
X2.4487Y-4.1921
X2.4487Y-4.4921
X2.4508Y-3.4819
X2.4508Y-3.7819
X2.4528Y-4.8398
X2.4528Y-5.1398
X2.4528Y-5.6469
X2.4528Y-5.9469
X2.503Y-6.2768
X2.503Y-6.5768
X2.5098Y-4.065
X2.5122Y-4.7146
X2.5122Y-5.5217
X2.5228Y-7.8614
X2.5228Y-8.1614
X2.5487Y-4.1921
X2.5487Y-4.4921
X2.5528Y-4.8398
X2.5528Y-5.1398
X2.5528Y-5.6469
X2.5528Y-5.9469
X2.5961Y-4.065
X2.5984Y-4.7146
X2.5984Y-5.5217
X2.603Y-6.2768
X2.603Y-6.5768
X2.6487Y-4.1921
X2.6487Y-4.4921
X2.6528Y-4.8398
X2.6528Y-5.1398
X2.6528Y-5.6469
X2.6528Y-5.9469
X2.6673Y-7.2713
X2.6673Y-7.5713
X2.6969Y-3.4843
X2.6969Y-3.7843
X2.7594Y-7.8614
X2.7594Y-8.1614
X2.7663Y-7.7362
X2.7854Y-4.3209
X2.7854Y-4.5177
X2.7872Y-5.1378
X2.7872Y-5.9449
X2.8594Y-7.8614
X2.8594Y-8.1614
X2.8856Y-5.1378
X2.8856Y-5.9449
X2.8961Y-4.065
X2.8984Y-4.7146
X2.8984Y-5.5217
X2.9134Y-7.2713
X2.9134Y-7.5713
X2.9429Y-3.4819
X2.9429Y-3.7819
X2.9594Y-7.8614
X2.9594Y-8.1614
X2.9632Y-7.7362
X3.0594Y-7.8614
X3.0594Y-8.1614
X3.1594Y-7.8614
X3.1594Y-8.1614
X3.1594Y-7.2713
X3.1594Y-7.5713
X3.2594Y-7.8614
X3.2594Y-8.1614
X3.3465Y-4.1929
X3.3465Y-4.3898
X3.3594Y-7.8614
X3.3594Y-8.1614
X3.4055Y-7.2713
X3.4055Y-7.5713
X3.4594Y-7.8614
X3.4594Y-8.1614
X3.4685Y-6.1516
X3.4685Y-6.2748
X3.4685Y-6.5748
X3.4715Y-5.9449
X3.4734Y-4.8378
X3.4734Y-5.1378
X3.4734Y-5.45
X3.4734Y-5.75
X3.4773Y-4.1921
X3.4773Y-4.4921
X3.4783Y-4.7146
X3.4783Y-5.3248
X3.5594Y-7.8614
X3.5594Y-8.1614
X3.5648Y-7.6181
X3.5685Y-6.2748
X3.5685Y-6.5748
X3.5715Y-5.9449
X3.5734Y-4.8378
X3.5734Y-5.1378
X3.5734Y-5.45
X3.5734Y-5.75
X3.5773Y-4.1921
X3.5773Y-4.4921
X3.5797Y-3.3132
X3.6594Y-7.8614
X3.6594Y-8.1614
X3.6632Y-7.6181
X3.6654Y-6.1516
X3.6685Y-6.2748
X3.6685Y-6.5748
X3.6715Y-5.9449
X3.6734Y-4.8378
X3.6734Y-5.1378
X3.6734Y-5.45
X3.6734Y-5.75
X3.6752Y-4.7146
X3.6752Y-5.3248
X3.6773Y-4.1921
X3.6773Y-4.4921
X3.6797Y-3.3132
X3.7685Y-6.2748
X3.7685Y-6.5748
X3.7715Y-5.9449
X3.7734Y-4.8378
X3.7734Y-5.1378
X3.7734Y-5.45
X3.7734Y-5.75
X3.7773Y-4.1921
X3.7773Y-4.4921
X3.7797Y-3.3132
X3.8685Y-6.2748
X3.8685Y-6.5748
X3.8715Y-5.9449
X3.8734Y-4.8378
X3.8734Y-5.1378
X3.8734Y-5.45
X3.8734Y-5.75
X3.8773Y-4.1921
X3.8773Y-4.4921
X3.8797Y-3.3132
X3.9012Y-7.7461
X3.9012Y-7.8693
X3.9012Y-8.1693
X3.9685Y-6.2748
X3.9685Y-6.5748
X3.9715Y-5.9449
X3.9734Y-4.8378
X3.9734Y-5.1378
X3.9734Y-5.45
X3.9734Y-5.75
X3.9773Y-4.1921
X3.9773Y-4.4921
X3.9797Y-3.3132
X4.0012Y-7.8693
X4.0012Y-8.1693
X4.0039Y-7.2008
X4.0039Y-7.3976
X4.0685Y-6.2748
X4.0685Y-6.5748
X4.0715Y-5.9449
X4.0734Y-4.8378
X4.0734Y-5.1378
X4.0734Y-5.45
X4.0734Y-5.75
X4.0773Y-4.1921
X4.0773Y-4.4921
X4.0797Y-3.3132
X4.098Y-7.7461
X4.1012Y-7.8693
X4.1012Y-8.1693
X4.1685Y-6.2748
X4.1685Y-6.5748
X4.1715Y-5.9449
X4.1773Y-4.1921
X4.1773Y-4.4921
X4.1797Y-3.3132
X4.1959Y-7.2
X4.1959Y-7.5
X4.2012Y-7.8693
X4.2012Y-8.1693
X4.2715Y-5.9449
X4.2773Y-4.1921
X4.2773Y-4.4921
X4.2797Y-3.3132
X4.2959Y-7.2
X4.2959Y-7.5
X4.3012Y-7.8693
X4.3012Y-8.1693
X4.3773Y-4.1921
X4.3773Y-4.4921
X4.3797Y-3.3132
X4.3959Y-7.2
X4.3959Y-7.5
X4.4012Y-7.8693
X4.4012Y-8.1693
X4.4959Y-7.2
X4.4959Y-7.5
X4.5012Y-7.8693
X4.5012Y-8.1693
X4.5959Y-7.2
X4.5959Y-7.5
X4.6012Y-7.8693
X4.6012Y-8.1693
X4.6959Y-7.2
X4.6959Y-7.5
X4.7012Y-7.8693
X4.7012Y-8.1693
X4.7959Y-7.2
X4.7959Y-7.5
X4.8012Y-7.8693
X4.8012Y-8.1693
X4.8697Y-5.3248
X4.9252Y-6.2768
X4.9252Y-6.5768
X4.935Y-6.1516
X4.9408Y-4.1902
X4.9408Y-4.4902
X4.9449Y-4.065
X4.9449Y-4.7146
X4.9449Y-4.8378
X4.9449Y-5.1378
X4.9882Y-5.4389
X4.9882Y-5.7389
X5.0252Y-6.2768
X5.0252Y-6.5768
X5.0364Y-3.3132
X5.0408Y-4.1902
X5.0408Y-4.4902
X5.0449Y-4.8378
X5.0449Y-5.1378
X5.0882Y-5.4389
X5.0882Y-5.7389
X5.1252Y-6.2768
X5.1252Y-6.5768
X5.1319Y-6.1516
X5.1364Y-3.3132
X5.1408Y-4.1902
X5.1408Y-4.4902
X5.1417Y-4.065
X5.1417Y-4.7146
X5.1449Y-4.8378
X5.1449Y-5.1378
X5.1697Y-5.3248
X5.1882Y-5.4389
X5.1882Y-5.7389
X5.2205Y-6.1516
X5.2252Y-6.2768
X5.2252Y-6.5768
X5.2307Y-7.4961
X5.2307Y-7.5961
X5.2307Y-7.6961
X5.2307Y-7.7961
X5.2307Y-7.8961
X5.2307Y-7.9961
X5.2364Y-3.3132
X5.2408Y-4.1902
X5.2408Y-4.4902
X5.2449Y-4.8378
X5.2449Y-5.1378
X5.2634Y-5.3248
X5.2882Y-5.4389
X5.2882Y-5.7389
X5.3252Y-6.2768
X5.3252Y-6.5768
X5.3307Y-7.3961
X5.3307Y-7.4961
X5.3307Y-7.5961
X5.3307Y-7.6961
X5.3307Y-7.7961
X5.3307Y-7.8961
X5.3307Y-7.9961
X5.3307Y-8.0961
X5.3364Y-3.3132
X5.3408Y-4.1902
X5.3408Y-4.4902
X5.3449Y-4.8378
X5.3449Y-5.1378
X5.3882Y-5.4389
X5.3882Y-5.7389
X5.4173Y-6.1516
X5.4252Y-6.2768
X5.4252Y-6.5768
X5.4291Y-7.2024
X5.4307Y-7.3961
X5.4307Y-7.4961
X5.4307Y-7.9961
X5.4307Y-8.0961
X5.4364Y-3.3132
X5.4408Y-4.1902
X5.4408Y-4.4902
X5.4449Y-4.8378
X5.4449Y-5.1378
X5.4882Y-5.4389
X5.4882Y-5.7389
X5.5252Y-6.2768
X5.5252Y-6.5768
X5.5307Y-7.3961
X5.5307Y-7.4961
X5.5307Y-7.9961
X5.5307Y-8.0961
X5.5364Y-3.3132
X5.5408Y-4.1902
X5.5408Y-4.4902
X5.5449Y-4.8378
X5.5449Y-5.1378
X5.5634Y-5.3248
X5.5882Y-5.4389
X5.5882Y-5.7389
X5.6252Y-6.2768
X5.6252Y-6.5768
X5.626Y-7.2024
X5.6307Y-7.3961
X5.6307Y-7.4961
X5.6307Y-7.9961
X5.6307Y-8.0961
X5.6364Y-3.3132
X5.6408Y-4.1902
X5.6408Y-4.4902
X5.6449Y-4.8378
X5.6449Y-5.1378
X5.6594Y-5.3248
X5.6882Y-5.4389
X5.6882Y-5.7389
X5.7307Y-7.3961
X5.7307Y-7.4961
X5.7307Y-7.9961
X5.7307Y-8.0961
X5.7364Y-3.3132
X5.7408Y-4.1902
X5.7408Y-4.4902
X5.7449Y-4.8378
X5.7449Y-5.1378
X5.8285Y-7.0866
X5.8307Y-7.3961
X5.8307Y-7.4961
X5.8307Y-7.5961
X5.8307Y-7.6961
X5.8307Y-7.7961
X5.8307Y-7.8961
X5.8307Y-7.9961
X5.8307Y-8.0961
X5.8364Y-3.3132
X5.8408Y-4.1902
X5.8408Y-4.4902
X5.8449Y-4.8378
X5.8449Y-5.1378
X5.927Y-7.0866
X5.9307Y-7.4961
X5.9307Y-7.5961
X5.9307Y-7.6961
X5.9307Y-7.7961
X5.9307Y-7.8961
X5.9307Y-7.9961
X5.9594Y-5.3248
X6.2476Y-7.5394
X6.3091Y-7.8673
X6.3091Y-8.1673
X6.3159Y-7.7421
X6.3809Y-5.2756
X6.3946Y-4.1843
X6.3946Y-4.4843
X6.3957Y-4.0551
X6.3986Y-4.8299
X6.3986Y-5.1299
X6.4016Y-6.2669
X6.4016Y-6.5669
X6.4055Y-4.7047
X6.4055Y-6.1417
X6.4091Y-7.8673
X6.4091Y-8.1673
X6.4203Y-7.3091
X6.439Y-5.431
X6.439Y-5.731
X6.4809Y-5.2756
X6.4946Y-4.1843
X6.4946Y-4.4843
X6.497Y-3.3053
X6.4986Y-4.8299
X6.4986Y-5.1299
X6.5016Y-6.2669
X6.5016Y-6.5669
X6.5091Y-7.8673
X6.5091Y-8.1673
X6.5128Y-7.7421
X6.5203Y-7.3091
X6.539Y-5.431
X6.539Y-5.731
X6.5476Y-7.5394
X6.5809Y-5.2756
X6.5921Y-7.1177
X6.5925Y-4.0551
X6.5946Y-4.1843
X6.5946Y-4.4843
X6.597Y-3.3053
X6.5986Y-4.8299
X6.5986Y-5.1299
X6.6016Y-6.2669
X6.6016Y-6.5669
X6.6024Y-4.7047
X6.6024Y-6.1417
X6.6091Y-7.8673
X6.6091Y-8.1673
X6.6203Y-7.3091
X6.639Y-5.431
X6.639Y-5.731
X6.6809Y-5.2756
X6.6946Y-4.1843
X6.6946Y-4.4843
X6.697Y-3.3053
X6.6986Y-4.8299
X6.6986Y-5.1299
X6.7016Y-6.2669
X6.7016Y-6.5669
X6.7091Y-7.8673
X6.7091Y-8.1673
X6.7203Y-7.3091
X6.739Y-5.431
X6.739Y-5.731
X6.7809Y-5.2756
X6.7946Y-4.1843
X6.7946Y-4.4843
X6.797Y-3.3053
X6.7986Y-4.8299
X6.7986Y-5.1299
X6.8016Y-6.2669
X6.8016Y-6.5669
X6.8091Y-7.8673
X6.8091Y-8.1673
X6.8203Y-7.3091
X6.839Y-5.431
X6.839Y-5.731
X6.8809Y-5.2756
X6.8921Y-7.1177
X6.8946Y-4.1843
X6.8946Y-4.4843
X6.897Y-3.3053
X6.8986Y-4.8299
X6.8986Y-5.1299
X6.9016Y-6.2669
X6.9016Y-6.5669
X6.9091Y-7.8673
X6.9091Y-8.1673
X6.9203Y-7.3091
X6.939Y-5.431
X6.939Y-5.731
X6.9809Y-5.2756
X6.9858Y-7.1177
X6.9946Y-4.1843
X6.9946Y-4.4843
X6.997Y-3.3053
X6.9986Y-4.8299
X6.9986Y-5.1299
X7.0016Y-6.2669
X7.0016Y-6.5669
X7.0091Y-7.8673
X7.0091Y-8.1673
X7.0203Y-7.3091
X7.039Y-5.431
X7.039Y-5.731
X7.0809Y-5.2756
X7.0946Y-4.1843
X7.0946Y-4.4843
X7.097Y-3.3053
X7.0986Y-4.8299
X7.0986Y-5.1299
X7.1016Y-6.2669
X7.1016Y-6.5669
X7.1091Y-7.8673
X7.1091Y-8.1673
X7.1203Y-7.3091
X7.139Y-5.431
X7.139Y-5.731
X7.1809Y-5.2756
X7.1946Y-4.1843
X7.1946Y-4.4843
X7.197Y-3.3053
X7.1986Y-4.8299
X7.1986Y-5.1299
X7.2091Y-7.8673
X7.2091Y-8.1673
X7.2203Y-7.3091
X7.2858Y-7.1177
X7.2946Y-4.1843
X7.2946Y-4.4843
X7.297Y-3.3053
X7.2986Y-4.8299
X7.2986Y-5.1299
X7.4803Y-8.0035
X7.4803Y-8.3035
X7.5984Y-8.6024
X7.6969Y-8.6024
X7.7215Y-8.0531
X7.7215Y-8.25
X7.8583Y-6.2669
X7.8583Y-6.5669
X7.8642Y-6.1417
X7.8671Y-5.2854
X7.8797Y-4.1921
X7.8797Y-4.4921
X7.8838Y-4.8378
X7.8838Y-5.1378
X7.8839Y-4.065
X7.8937Y-4.7146
X7.9173Y-5.448
X7.9173Y-5.748
X7.9183Y-8.0484
X7.9183Y-8.3484
X7.9583Y-6.2669
X7.9583Y-6.5669
X7.9671Y-5.2854
X7.9793Y-3.3132
X7.9797Y-4.1921
X7.9797Y-4.4921
X7.9838Y-4.8378
X7.9838Y-5.1378
X8.0173Y-5.448
X8.0173Y-5.748
X8.0183Y-8.0484
X8.0183Y-8.3484
X8.0583Y-6.2669
X8.0583Y-6.5669
X8.061Y-6.1417
X8.0671Y-5.2854
X8.0793Y-3.3132
X8.0797Y-4.1921
X8.0797Y-4.4921
X8.0807Y-4.065
X8.0838Y-4.8378
X8.0838Y-5.1378
X8.0906Y-4.7146
X8.1173Y-5.448
X8.1173Y-5.748
X8.1183Y-8.0484
X8.1183Y-8.3484
X8.1583Y-6.2669
X8.1583Y-6.5669
X8.1671Y-5.2854
X8.1693Y-4.065
X8.1793Y-3.3132
X8.1797Y-4.1921
X8.1797Y-4.4921
X8.1838Y-4.8378
X8.1838Y-5.1378
X8.2173Y-5.448
X8.2173Y-5.748
X8.2183Y-8.0484
X8.2183Y-8.3484
X8.2583Y-6.2669
X8.2583Y-6.5669
X8.2671Y-5.2854
X8.2793Y-3.3132
X8.2797Y-4.1921
X8.2797Y-4.4921
X8.2838Y-4.8378
X8.2838Y-5.1378
X8.3173Y-5.448
X8.3173Y-5.748
X8.3183Y-8.0484
X8.3183Y-8.3484
X8.3583Y-6.2669
X8.3583Y-6.5669
X8.3671Y-5.2854
X8.3793Y-3.3132
X8.3797Y-4.1921
X8.3797Y-4.4921
X8.3838Y-4.8378
X8.3838Y-5.1378
X8.4173Y-5.448
X8.4173Y-5.748
X8.4183Y-8.0484
X8.4183Y-8.3484
X8.4583Y-6.2669
X8.4583Y-6.5669
X8.4671Y-5.2854
X8.4693Y-4.065
X8.4793Y-3.3132
X8.4797Y-4.1921
X8.4797Y-4.4921
X8.4838Y-4.8378
X8.4838Y-5.1378
X8.5173Y-5.448
X8.5173Y-5.748
X8.5183Y-8.0484
X8.5183Y-8.3484
X8.5583Y-6.2669
X8.5583Y-6.5669
X8.5671Y-5.2854
X8.5793Y-3.3132
X8.5797Y-4.1921
X8.5797Y-4.4921
X8.5838Y-4.8378
X8.5838Y-5.1378
X8.6173Y-5.448
X8.6173Y-5.748
X8.6671Y-5.2854
X8.6793Y-3.3132
X8.6797Y-4.1921
X8.6797Y-4.4921
X8.6838Y-4.8378
X8.6838Y-5.1378
X8.7598Y-8.061
X8.7598Y-8.2579
X8.7793Y-3.3132
X8.7797Y-4.1921
X8.7797Y-4.4921
X8.7838Y-4.8378
X8.7838Y-5.1378
X8.9469Y-8.0484
X8.9469Y-8.3484
X9.0469Y-8.0484
X9.0469Y-8.3484
X9.1469Y-8.0484
X9.1469Y-8.3484
X9.2469Y-8.0484
X9.2469Y-8.3484
X9.314Y-5.2854
X9.3238Y-4.1902
X9.3238Y-4.4902
X9.3279Y-4.8378
X9.3279Y-5.1378
X9.3307Y-4.065
X9.3307Y-4.7146
X9.3469Y-8.0484
X9.3469Y-8.3484
X9.3642Y-5.4487
X9.3642Y-5.7487
X9.3947Y-6.2669
X9.3947Y-6.5669
X9.3996Y-6.1417
X9.414Y-5.2854
X9.4222Y-3.3132
X9.4238Y-4.1902
X9.4238Y-4.4902
X9.4279Y-4.8378
X9.4279Y-5.1378
X9.4469Y-8.0484
X9.4469Y-8.3484
X9.4642Y-5.4487
X9.4642Y-5.7487
X9.4947Y-6.2669
X9.4947Y-6.5669
X9.514Y-5.2854
X9.5222Y-3.3132
X9.5238Y-4.1902
X9.5238Y-4.4902
X9.5276Y-4.065
X9.5276Y-4.7146
X9.5279Y-4.8378
X9.5279Y-5.1378
X9.5469Y-8.0484
X9.5469Y-8.3484
X9.5642Y-5.4487
X9.5642Y-5.7487
X9.5947Y-6.2669
X9.5947Y-6.5669
X9.5965Y-6.1417
X9.614Y-5.2854
X9.6222Y-3.3132
X9.6238Y-4.1902
X9.6238Y-4.4902
X9.6279Y-4.8378
X9.6279Y-5.1378
X9.6469Y-8.0484
X9.6469Y-8.3484
X9.6642Y-5.4487
X9.6642Y-5.7487
X9.6947Y-6.2669
X9.6947Y-6.5669
X9.714Y-5.2854
X9.7222Y-3.3132
X9.7238Y-4.1902
X9.7238Y-4.4902
X9.7279Y-4.8378
X9.7279Y-5.1378
X9.7469Y-8.0484
X9.7469Y-8.3484
X9.7642Y-5.4487
X9.7642Y-5.7487
X9.7947Y-6.2669
X9.7947Y-6.5669
X9.814Y-5.2854
X9.8222Y-3.3132
X9.8238Y-4.1902
X9.8238Y-4.4902
X9.8279Y-4.8378
X9.8279Y-5.1378
X9.8469Y-8.0484
X9.8469Y-8.3484
X9.8642Y-5.4487
X9.8642Y-5.7487
X9.8947Y-6.2669
X9.8947Y-6.5669
X9.914Y-5.2854
X9.9222Y-3.3132
X9.9238Y-4.1902
X9.9238Y-4.4902
X9.9279Y-4.8378
X9.9279Y-5.1378
X9.9642Y-5.4487
X9.9642Y-5.7487
X9.9947Y-6.2669
X9.9947Y-6.5669
X10.014Y-5.2854
X10.0222Y-3.3132
X10.0238Y-4.1902
X10.0238Y-4.4902
X10.0279Y-4.8378
X10.0279Y-5.1378
X10.0642Y-5.4487
X10.0642Y-5.7487
X10.114Y-5.2854
X10.1222Y-3.3132
X10.1238Y-4.1902
X10.1238Y-4.4902
X10.1279Y-4.8378
X10.1279Y-5.1378
X10.2222Y-3.3132
X10.2238Y-4.1902
X10.2238Y-4.4902
X10.2279Y-4.8378
X10.2279Y-5.1378
T4
X1.839Y-3.1831
X1.939Y-3.1831
X2.0866Y-3.1831
X2.1866Y-3.1831
X2.3327Y-3.1831
X2.4327Y-3.1831
X2.5787Y-3.1831
X2.6787Y-3.1831
X2.8248Y-3.1831
X2.9248Y-3.1831
X3.0709Y-3.1831
X3.1709Y-3.1831
X3.3169Y-3.1831
X3.4169Y-3.1831
T5
X3.4853Y-3.4856
X3.4853Y-3.7856
X3.5853Y-3.4856
X3.5853Y-3.7856
X3.6853Y-3.4856
X3.6853Y-3.7856
X3.7853Y-3.4856
X3.7853Y-3.7856
X3.8853Y-3.4856
X3.8853Y-3.7856
X3.9853Y-3.4856
X3.9853Y-3.7856
X4.0853Y-3.4856
X4.0853Y-3.7856
X4.1853Y-3.4856
X4.1853Y-3.7856
X4.2853Y-3.4856
X4.2853Y-3.7856
X4.3853Y-3.4856
X4.3853Y-3.7856
X4.9449Y-3.4856
X4.9449Y-3.7856
X5.0449Y-3.4856
X5.0449Y-3.7856
X5.1449Y-3.4856
X5.1449Y-3.7856
X5.2449Y-3.4856
X5.2449Y-3.7856
X5.3449Y-3.4856
X5.3449Y-3.7856
X5.4449Y-3.4856
X5.4449Y-3.7856
X5.5449Y-3.4856
X5.5449Y-3.7856
X5.6449Y-3.4856
X5.6449Y-3.7856
X5.7449Y-3.4856
X5.7449Y-3.7856
X5.8449Y-3.4856
X5.8449Y-3.7856
X6.4027Y-3.4778
X6.4027Y-3.7778
X6.5027Y-3.4778
X6.5027Y-3.7778
X6.6027Y-3.4778
X6.6027Y-3.7778
X6.7027Y-3.4778
X6.7027Y-3.7778
X6.8027Y-3.4778
X6.8027Y-3.7778
X6.9027Y-3.4778
X6.9027Y-3.7778
X7.0027Y-3.4778
X7.0027Y-3.7778
X7.1027Y-3.4778
X7.1027Y-3.7778
X7.2027Y-3.4778
X7.2027Y-3.7778
X7.3027Y-3.4778
X7.3027Y-3.7778
X7.8878Y-3.4856
X7.8878Y-3.7856
X7.9878Y-3.4856
X7.9878Y-3.7856
X8.0878Y-3.4856
X8.0878Y-3.7856
X8.1878Y-3.4856
X8.1878Y-3.7856
X8.2878Y-3.4856
X8.2878Y-3.7856
X8.3878Y-3.4856
X8.3878Y-3.7856
X8.4878Y-3.4856
X8.4878Y-3.7856
X8.5878Y-3.4856
X8.5878Y-3.7856
X8.6878Y-3.4856
X8.6878Y-3.7856
X8.7878Y-3.4856
X8.7878Y-3.7856
X9.3279Y-3.4856
X9.3279Y-3.7856
X9.4279Y-3.4856
X9.4279Y-3.7856
X9.5279Y-3.4856
X9.5279Y-3.7856
X9.6279Y-3.4856
X9.6279Y-3.7856
X9.7279Y-3.4856
X9.7279Y-3.7856
X9.8279Y-3.4856
X9.8279Y-3.7856
X9.9279Y-3.4856
X9.9279Y-3.7856
X10.0279Y-3.4856
X10.0279Y-3.7856
X10.1279Y-3.4856
X10.1279Y-3.7856
X10.2279Y-3.4856
X10.2279Y-3.7856
T6
X1.852Y-8.7795
X1.852Y-8.8795
X1.952Y-8.7795
X1.952Y-8.8795
X2.0453Y-8.622
X2.052Y-8.7795
X2.052Y-8.8795
X2.1453Y-8.622
X2.152Y-8.7795
X2.152Y-8.8795
X2.2453Y-8.622
X2.252Y-8.7795
X2.252Y-8.8795
X2.3453Y-8.622
X2.352Y-8.7795
X2.352Y-8.8795
X2.452Y-8.7795
X2.452Y-8.8795
X2.552Y-8.7795
X2.552Y-8.8795
X2.652Y-8.7795
X2.652Y-8.8795
X2.752Y-8.7795
X2.752Y-8.8795
X2.852Y-8.7795
X2.852Y-8.8795
X2.952Y-8.7795
X2.952Y-8.8795
X3.052Y-8.7795
X3.052Y-8.8795
X3.152Y-8.7795
X3.152Y-8.8795
X3.252Y-8.7795
X3.252Y-8.8795
X3.352Y-8.7795
X3.352Y-8.8795
X3.452Y-8.7795
X3.452Y-8.8795
X3.552Y-8.7795
X3.552Y-8.8795
X3.652Y-8.7795
X3.652Y-8.8795
X3.7392Y-8.622
X3.752Y-8.7795
X3.752Y-8.8795
X3.8392Y-8.622
X3.852Y-8.7795
X3.852Y-8.8795
X3.9392Y-8.622
X3.952Y-8.7795
X3.952Y-8.8795
X4.052Y-8.7795
X4.052Y-8.8795
X4.152Y-8.7795
X4.152Y-8.8795
X4.252Y-8.7795
X4.252Y-8.8795
X4.2756Y-5.4616
X4.2756Y-5.5616
X4.4547Y-3.1742
X4.5547Y-3.1742
X4.6547Y-3.1742
X4.7547Y-3.1742
X4.7654Y-8.7795
X4.7654Y-8.8795
X4.8547Y-3.1742
X4.8654Y-8.7795
X4.8654Y-8.8795
X4.9547Y-3.1742
X4.9654Y-8.7795
X4.9654Y-8.8795
X5.0654Y-8.7795
X5.0654Y-8.8795
X5.1654Y-8.7795
X5.1654Y-8.8795
X5.2654Y-8.7795
X5.2654Y-8.8795
X5.3654Y-8.7795
X5.3654Y-8.8795
X5.4654Y-8.7795
X5.4654Y-8.8795
X5.5654Y-8.7795
X5.5654Y-8.8795
X5.6654Y-8.7795
X5.6654Y-8.8795
X5.7654Y-8.7795
X5.7654Y-8.8795
X5.8654Y-8.7795
X5.8654Y-8.8795
X5.9654Y-8.7795
X5.9654Y-8.8795
X6.0654Y-8.7795
X6.0654Y-8.8795
X6.1654Y-8.7795
X6.1654Y-8.8795
X6.2283Y-6.876
X6.2283Y-7.1142
X6.2654Y-8.7795
X6.2654Y-8.8795
X6.3283Y-6.876
X6.3283Y-7.1142
X6.3654Y-8.7795
X6.3654Y-8.8795
X6.4283Y-6.876
X6.4283Y-7.1142
X6.4654Y-8.7795
X6.4654Y-8.8795
X6.5654Y-8.7795
X6.5654Y-8.8795
X6.6654Y-8.7795
X6.6654Y-8.8795
X6.7654Y-8.7795
X6.7654Y-8.8795
X6.7982Y-7.5841
X6.7982Y-7.6841
X6.8654Y-8.7795
X6.8654Y-8.8795
X6.8982Y-7.5841
X6.8982Y-7.6841
X6.9567Y-6.8787
X6.9654Y-8.7795
X6.9654Y-8.8795
X6.9982Y-7.5841
X6.9982Y-7.6841
X7.0567Y-6.8787
X7.0654Y-8.7795
X7.0654Y-8.8795
X7.0982Y-7.5841
X7.0982Y-7.6841
X7.1567Y-6.8787
X7.1654Y-8.7795
X7.1654Y-8.8795
X7.1982Y-7.5841
X7.1982Y-7.6841
X7.2567Y-6.8787
X7.7575Y-8.7795
X7.7575Y-8.8795
X7.8008Y-7.7362
X7.8008Y-7.8362
X7.8575Y-8.7795
X7.8575Y-8.8795
X7.9008Y-7.7362
X7.9008Y-7.8362
X7.9575Y-8.7795
X7.9575Y-8.8795
X8.0008Y-7.7362
X8.0008Y-7.8362
X8.0575Y-8.7795
X8.0575Y-8.8795
X8.1008Y-7.7362
X8.1008Y-7.8362
X8.1575Y-8.7795
X8.1575Y-8.8795
X8.2008Y-7.7362
X8.2008Y-7.8362
X8.2575Y-8.7795
X8.2575Y-8.8795
X8.3008Y-7.7362
X8.3008Y-7.8362
X8.3575Y-8.7795
X8.3575Y-8.8795
X8.4008Y-7.7362
X8.4008Y-7.8362
X8.4575Y-8.7795
X8.4575Y-8.8795
X8.5008Y-7.7362
X8.5008Y-7.8362
X8.5575Y-8.7795
X8.5575Y-8.8795
X8.6008Y-7.7362
X8.6008Y-7.8362
X8.6575Y-8.7795
X8.6575Y-8.8795
X8.7008Y-7.7362
X8.7008Y-7.8362
X8.7575Y-8.7795
X8.7575Y-8.8795
X8.8008Y-7.7362
X8.8008Y-7.8362
X8.8575Y-8.7795
X8.8575Y-8.8795
X8.9008Y-7.7362
X8.9008Y-7.8362
X8.9575Y-8.7795
X8.9575Y-8.8795
X9.0008Y-7.7362
X9.0008Y-7.8362
X9.0575Y-8.7795
X9.0575Y-8.8795
X9.1008Y-7.7362
X9.1008Y-7.8362
X9.1575Y-8.7795
X9.1575Y-8.8795
X9.2008Y-7.7362
X9.2008Y-7.8362
X9.2575Y-8.7795
X9.2575Y-8.8795
X9.3008Y-7.7362
X9.3008Y-7.8362
X9.3575Y-8.7795
X9.3575Y-8.8795
X9.4008Y-7.7362
X9.4008Y-7.8362
X9.4575Y-8.7795
X9.4575Y-8.8795
X9.5008Y-7.7362
X9.5008Y-7.8362
X9.5575Y-8.7795
X9.5575Y-8.8795
X9.6008Y-7.7362
X9.6008Y-7.8362
X9.6575Y-8.7795
X9.6575Y-8.8795
X9.7008Y-7.7362
X9.7008Y-7.8362
X9.7575Y-8.7795
X9.7575Y-8.8795
X9.8575Y-8.7795
X9.8575Y-8.8795
X9.9575Y-8.7795
X9.9575Y-8.8795
X10.0575Y-8.7795
X10.0575Y-8.8795
X10.1575Y-8.7795
X10.1575Y-8.8795
T7
X4.315Y-4.8382
X4.315Y-5.1382
X4.4063Y-7.685
X4.8063Y-7.685
T8
X1.7698Y-6.2657
X1.7698Y-6.5886
T9
X7.6083Y-7.7874
T10
X7.6083Y-6.8819
X9.8917Y-6.8819
X9.8917Y-7.7874
T11
X1.5748Y-2.9528
X10.4331Y-2.9528
T0
M30
