M48
; DRILL file {KiCad (6.0.11)} date Sat Oct 14 11:58:49 2023
; FORMAT={-:-/ absolute / inch / decimal}
; #@! TF.CreationDate,2023-10-14T11:58:49-04:00
; #@! TF.GenerationSoftware,Kicad,Pcbnew,(6.0.11)
; #@! TF.FileFunction,Plated,1,2,PTH
FMAT,2
INCH
; #@! TA.AperFunction,Plated,PTH,ViaDrill
T1C0.0157
; #@! TA.AperFunction,Plated,PTH,ComponentDrill
T2C0.0315
; #@! TA.AperFunction,Plated,PTH,ComponentDrill
T3C0.0354
; #@! TA.AperFunction,Plated,PTH,ComponentDrill
T4C0.0394
; #@! TA.AperFunction,Plated,PTH,ComponentDrill
T5C0.0433
%
G90
G05
T1
X4.8519Y-3.7826
X4.8618Y-3.8397
X4.9744Y-2.1617
X5.0835Y-2.2049
X5.0902Y-3.1604
X5.0959Y-2.7522
X5.2163Y-2.7809
X5.2539Y-2.4014
X5.4975Y-2.9974
X5.5998Y-4.4729
X5.613Y-2.9643
X5.7923Y-2.2261
X6.0581Y-2.8933
X6.0594Y-2.2104
X6.1821Y-3.1961
X6.2654Y-3.246
X6.8562Y-2.6166
X6.8562Y-2.3084
X6.857Y-2.5416
X6.862Y-2.3722
X7.0644Y-2.2868
X7.1467Y-2.1989
X7.3981Y-2.1703
X7.5242Y-2.1441
T2
X2.874Y-3.0196
X2.8815Y-4.3947
X2.8815Y-4.6947
X3.174Y-3.0196
X3.1815Y-4.3947
X3.1815Y-4.6947
X3.3937Y-4.252
X3.3937Y-4.352
X3.3937Y-4.452
X3.3937Y-4.552
X3.3937Y-4.652
X3.3937Y-4.752
X3.3937Y-4.852
X3.4Y-3.3
X3.4Y-3.9
X3.5Y-3.3
X3.5Y-3.9
X3.6Y-3.3
X3.6Y-3.9
X3.6937Y-4.252
X3.6937Y-4.352
X3.6937Y-4.452
X3.6937Y-4.552
X3.6937Y-4.652
X3.6937Y-4.752
X3.6937Y-4.852
X3.7Y-3.3
X3.7Y-3.9
X3.7992Y-2.5176
X3.8Y-3.3
X3.8Y-3.9
X3.8189Y-4.252
X3.8189Y-4.352
X3.8189Y-4.452
X3.8189Y-4.552
X3.8189Y-4.652
X3.8189Y-4.752
X3.8189Y-4.852
X3.8502Y-2.8193
X3.9486Y-2.8193
X3.9961Y-2.5176
X4.0Y-3.3
X4.0Y-3.9
X4.0748Y-3.0118
X4.1Y-3.3
X4.1Y-3.9
X4.1189Y-4.252
X4.1189Y-4.352
X4.1189Y-4.452
X4.1189Y-4.552
X4.1189Y-4.652
X4.1189Y-4.752
X4.1189Y-4.852
X4.1732Y-3.0118
X4.2Y-3.3
X4.2Y-3.9
X4.3Y-3.3
X4.3Y-3.9
X4.3103Y-2.3171
X4.3103Y-2.4171
X4.3103Y-2.5171
X4.3103Y-2.6171
X4.3103Y-2.7171
X4.3103Y-2.8171
X4.3103Y-2.9171
X4.3103Y-3.0171
X4.312Y-4.2874
X4.312Y-4.3874
X4.312Y-4.4874
X4.312Y-4.5874
X4.312Y-4.6874
X4.312Y-4.7874
X4.312Y-4.8874
X4.312Y-4.9874
X4.4Y-3.3
X4.4Y-3.9
X4.6103Y-2.3171
X4.6103Y-2.4171
X4.6103Y-2.5171
X4.6103Y-2.6171
X4.6103Y-2.7171
X4.6103Y-2.8171
X4.6103Y-2.9171
X4.6103Y-3.0171
X4.612Y-4.2874
X4.612Y-4.3874
X4.612Y-4.4874
X4.612Y-4.5874
X4.612Y-4.6874
X4.612Y-4.7874
X4.612Y-4.8874
X4.612Y-4.9874
X4.813Y-2.2719
X4.813Y-2.3719
X4.813Y-2.4719
X4.813Y-2.5719
X4.813Y-2.6719
X4.813Y-2.7719
X4.813Y-2.8719
X4.813Y-2.9719
X4.813Y-3.0719
X4.813Y-4.1813
X4.813Y-4.2813
X4.813Y-4.3813
X4.813Y-4.4813
X4.813Y-4.5813
X4.813Y-4.6813
X4.813Y-4.7813
X4.813Y-4.8813
X4.813Y-4.9813
X5.0295Y-3.1693
X5.0295Y-3.3661
X5.0295Y-3.9173
X5.0295Y-4.1142
X5.1787Y-2.313
X5.2268Y-3.1461
X5.2268Y-3.2461
X5.2268Y-3.3461
X5.2268Y-3.4461
X5.2268Y-3.5461
X5.2268Y-3.6461
X5.2268Y-3.7461
X5.2268Y-3.8461
X5.2268Y-3.9461
X5.2268Y-4.0461
X5.2268Y-4.1461
X5.2756Y-4.439
X5.2787Y-2.313
X5.3268Y-3.0461
X5.3268Y-3.1461
X5.3268Y-3.2461
X5.3268Y-3.3461
X5.3268Y-3.4461
X5.3268Y-3.5461
X5.3268Y-3.6461
X5.3268Y-3.7461
X5.3268Y-3.8461
X5.3268Y-3.9461
X5.3268Y-4.0461
X5.3268Y-4.1461
X5.3268Y-4.2461
X5.3787Y-2.313
X5.426Y-4.9744
X5.4268Y-3.0461
X5.4268Y-3.1461
X5.4268Y-4.1461
X5.4268Y-4.2461
X5.4724Y-4.439
X5.4787Y-2.313
X5.526Y-4.9744
X5.5268Y-3.0461
X5.5268Y-3.1461
X5.5268Y-4.1461
X5.5268Y-4.2461
X5.5787Y-2.313
X5.626Y-4.9744
X5.6268Y-3.0461
X5.6268Y-3.1461
X5.6268Y-4.1461
X5.6268Y-4.2461
X5.6787Y-2.313
X5.726Y-4.9744
X5.7268Y-3.0461
X5.7268Y-3.1461
X5.7268Y-4.1461
X5.7268Y-4.2461
X5.7283Y-2.8543
X5.7787Y-2.313
X5.826Y-4.9744
X5.8268Y-3.0461
X5.8268Y-3.1461
X5.8268Y-4.1461
X5.8268Y-4.2461
X5.8465Y-4.439
X5.8787Y-2.313
X5.9252Y-2.8543
X5.926Y-4.9744
X5.9268Y-3.0461
X5.9268Y-3.1461
X5.9268Y-4.1461
X5.9268Y-4.2461
X5.9787Y-2.313
X6.026Y-4.9744
X6.0268Y-3.0461
X6.0268Y-3.1461
X6.0268Y-4.1461
X6.0268Y-4.2461
X6.0433Y-4.439
X6.126Y-4.9744
X6.1268Y-3.0461
X6.1268Y-3.1461
X6.1268Y-4.1461
X6.1268Y-4.2461
X6.226Y-4.9744
X6.2268Y-3.0461
X6.2268Y-3.1461
X6.2268Y-4.1461
X6.2268Y-4.2461
X6.2402Y-2.8543
X6.3268Y-3.0461
X6.3268Y-3.1461
X6.3268Y-3.2461
X6.3268Y-3.3461
X6.3268Y-3.4461
X6.3268Y-3.5461
X6.3268Y-3.6461
X6.3268Y-3.7461
X6.3268Y-3.8461
X6.3268Y-3.9461
X6.3268Y-4.0461
X6.3268Y-4.1461
X6.3268Y-4.2461
X6.4268Y-3.1461
X6.4268Y-3.2461
X6.4268Y-3.3461
X6.4268Y-3.4461
X6.4268Y-3.5461
X6.4268Y-3.6461
X6.4268Y-3.7461
X6.4268Y-3.8461
X6.4268Y-3.9461
X6.4268Y-4.0461
X6.4268Y-4.1461
X6.437Y-2.8543
X6.624Y-3.272
X6.624Y-3.4689
X6.624Y-4.0004
X6.624Y-4.1972
X7.1654Y-3.1461
X7.1654Y-3.2461
X7.1654Y-3.3461
X7.1654Y-3.4461
X7.1654Y-3.5461
X7.1654Y-3.6461
X7.1654Y-3.7461
X7.1654Y-3.8461
X7.1654Y-3.9461
T3
X2.9134Y-2.2716
X3.0134Y-2.2716
X5.097Y-2.5787
X5.0972Y-4.7047
X5.197Y-2.5787
X5.1972Y-4.7047
X5.2939Y-2.5787
X5.2941Y-4.7047
X5.3939Y-2.5787
X5.3941Y-4.7047
X5.4907Y-2.579
X5.4909Y-4.7047
X5.5907Y-2.579
X5.5909Y-4.7047
X5.6876Y-2.5787
X5.6876Y-4.7047
X5.7876Y-2.5787
X5.7876Y-4.7047
X5.8844Y-2.5787
X5.8846Y-4.7047
X5.9844Y-2.5787
X5.9846Y-4.7047
X6.0813Y-2.5787
X6.0825Y-4.7047
X6.1813Y-2.5787
X6.1825Y-4.7047
X6.2781Y-2.5787
X6.2793Y-4.7047
X6.3781Y-2.5787
X6.3793Y-4.7047
X6.476Y-2.5787
X6.4762Y-4.7047
X6.576Y-2.5787
X6.5762Y-4.7047
X6.8996Y-2.9024
X6.8996Y-3.0024
X6.8996Y-3.0984
X6.8996Y-3.1984
X6.8996Y-3.2961
X6.8996Y-3.3961
X6.8996Y-3.4931
X6.8996Y-3.5931
X6.8996Y-3.6907
X6.8996Y-3.7907
X6.8996Y-3.8876
X6.8996Y-3.9876
X6.8996Y-4.0835
X6.8996Y-4.1835
X6.8996Y-4.2813
X6.8996Y-4.3813
T4
X2.9528Y-3.4492
X2.9528Y-3.5492
X2.9528Y-3.6492
X2.9528Y-3.7492
X2.9528Y-3.8492
X3.0Y-5.2331
X3.0Y-5.3331
X3.0Y-5.4331
X3.0Y-5.5331
X3.0Y-5.6331
X3.0528Y-3.4492
X3.0528Y-3.5492
X3.0528Y-3.6492
X3.0528Y-3.7492
X3.0528Y-3.8492
X3.1Y-5.2331
X3.1Y-5.3331
X3.1Y-5.4331
X3.1Y-5.5331
X3.1Y-5.6331
X3.2Y-5.2331
X3.2Y-5.3331
X3.2Y-5.4331
X3.2Y-5.5331
X3.2Y-5.6331
X3.2077Y-2.2787
X3.3Y-5.2331
X3.3Y-5.3331
X3.3Y-5.4331
X3.3Y-5.5331
X3.3Y-5.6331
X3.3077Y-2.2787
X3.4Y-5.2331
X3.4Y-5.3331
X3.4Y-5.4331
X3.4Y-5.5331
X3.4Y-5.6331
X3.4077Y-2.2787
X3.5063Y-5.2331
X3.5063Y-5.3331
X3.5063Y-5.4331
X3.5063Y-5.5331
X3.5063Y-5.6331
X3.5433Y-3.0196
X3.6063Y-5.2331
X3.6063Y-5.3331
X3.6063Y-5.4331
X3.6063Y-5.5331
X3.6063Y-5.6331
X3.6433Y-3.0196
X3.6932Y-2.2787
X3.7063Y-5.2331
X3.7063Y-5.3331
X3.7063Y-5.4331
X3.7063Y-5.5331
X3.7063Y-5.6331
X3.7932Y-2.2787
X3.8063Y-5.2331
X3.8063Y-5.3331
X3.8063Y-5.4331
X3.8063Y-5.5331
X3.8063Y-5.6331
X3.8932Y-2.2787
X3.9063Y-5.2331
X3.9063Y-5.3331
X3.9063Y-5.4331
X3.9063Y-5.5331
X3.9063Y-5.6331
X4.0Y-5.2331
X4.0Y-5.3331
X4.0Y-5.4331
X4.0Y-5.5331
X4.0Y-5.6331
X4.1Y-5.2331
X4.1Y-5.3331
X4.1Y-5.4331
X4.1Y-5.5331
X4.1Y-5.6331
X4.2Y-5.2331
X4.2Y-5.3331
X4.2Y-5.4331
X4.2Y-5.5331
X4.2Y-5.6331
X4.3Y-5.2331
X4.3Y-5.3331
X4.3Y-5.4331
X4.3Y-5.5331
X4.3Y-5.6331
X4.4Y-5.2331
X4.4Y-5.3331
X4.4Y-5.4331
X4.4Y-5.5331
X4.4Y-5.6331
X4.5Y-5.2331
X4.5Y-5.3331
X4.5Y-5.4331
X4.5Y-5.5331
X4.5Y-5.6331
X4.5516Y-2.05
X4.5516Y-5.8
X4.6Y-5.2331
X4.6Y-5.3331
X4.6Y-5.4331
X4.6Y-5.5331
X4.6Y-5.6331
X4.6516Y-2.05
X4.6516Y-5.8
X4.7Y-5.2331
X4.7Y-5.3331
X4.7Y-5.4331
X4.7Y-5.5331
X4.7Y-5.6331
X4.7516Y-2.05
X4.7516Y-5.8
X4.8Y-5.2331
X4.8Y-5.3331
X4.8Y-5.4331
X4.8Y-5.5331
X4.8Y-5.6331
X4.8516Y-2.05
X4.8516Y-5.8
X4.9Y-5.2331
X4.9Y-5.3331
X4.9Y-5.4331
X4.9Y-5.5331
X4.9Y-5.6331
X4.9516Y-2.05
X4.9516Y-5.8
X5.0Y-5.2331
X5.0Y-5.3331
X5.0Y-5.4331
X5.0Y-5.5331
X5.0Y-5.6331
X5.0197Y-3.5825
X5.0197Y-3.6825
X5.0516Y-2.05
X5.0516Y-5.8
X5.1Y-5.2331
X5.1Y-5.3331
X5.1Y-5.4331
X5.1Y-5.5331
X5.1Y-5.6331
X5.1516Y-2.05
X5.1516Y-5.8
X5.2Y-5.2331
X5.2Y-5.3331
X5.2Y-5.4331
X5.2Y-5.5331
X5.2Y-5.6331
X5.2516Y-2.05
X5.2516Y-5.8
X5.3Y-5.2331
X5.3Y-5.3331
X5.3Y-5.4331
X5.3Y-5.5331
X5.3Y-5.6331
X5.3516Y-2.05
X5.3516Y-5.8
X5.4Y-5.2331
X5.4Y-5.3331
X5.4Y-5.4331
X5.4Y-5.5331
X5.4Y-5.6331
X5.4516Y-2.05
X5.4516Y-5.8
X5.5Y-5.2331
X5.5Y-5.3331
X5.5Y-5.4331
X5.5Y-5.5331
X5.5Y-5.6331
X5.6Y-5.2331
X5.6Y-5.3331
X5.6Y-5.4331
X5.6Y-5.5331
X5.6Y-5.6331
X5.7Y-5.2331
X5.7Y-5.3331
X5.7Y-5.4331
X5.7Y-5.5331
X5.7Y-5.6331
X5.7002Y-2.05
X5.7002Y-5.8
X5.8Y-5.2331
X5.8Y-5.3331
X5.8Y-5.4331
X5.8Y-5.5331
X5.8Y-5.6331
X5.8002Y-2.05
X5.8002Y-5.8
X5.9Y-5.2331
X5.9Y-5.3331
X5.9Y-5.4331
X5.9Y-5.5331
X5.9Y-5.6331
X5.9002Y-2.05
X5.9002Y-5.8
X6.0Y-5.2331
X6.0Y-5.3331
X6.0Y-5.4331
X6.0Y-5.5331
X6.0Y-5.6331
X6.0002Y-2.05
X6.0002Y-5.8
X6.1Y-5.2331
X6.1Y-5.3331
X6.1Y-5.4331
X6.1Y-5.5331
X6.1Y-5.6331
X6.1002Y-2.05
X6.1002Y-5.8
X6.2Y-5.2331
X6.2Y-5.3331
X6.2Y-5.4331
X6.2Y-5.5331
X6.2Y-5.6331
X6.2002Y-2.05
X6.2002Y-5.8
X6.2795Y-2.3115
X6.3Y-5.2331
X6.3Y-5.3331
X6.3Y-5.4331
X6.3Y-5.5331
X6.3Y-5.6331
X6.3002Y-2.05
X6.3002Y-5.8
X6.3795Y-2.3115
X6.4Y-5.2331
X6.4Y-5.3331
X6.4Y-5.4331
X6.4Y-5.5331
X6.4Y-5.6331
X6.4002Y-2.05
X6.4002Y-5.8
X6.4795Y-2.3115
X6.5Y-5.2331
X6.5Y-5.3331
X6.5Y-5.4331
X6.5Y-5.5331
X6.5Y-5.6331
X6.5002Y-2.05
X6.5002Y-5.8
X6.6Y-5.2331
X6.6Y-5.3331
X6.6Y-5.4331
X6.6Y-5.5331
X6.6Y-5.6331
X6.6002Y-2.05
X6.6002Y-5.8
X6.7Y-5.2331
X6.7Y-5.3331
X6.7Y-5.4331
X6.7Y-5.5331
X6.7Y-5.6331
X6.8Y-5.2331
X6.8Y-5.3331
X6.8Y-5.4331
X6.8Y-5.5331
X6.8Y-5.6331
X6.85Y-5.8
X6.8502Y-2.05
X6.9Y-5.2331
X6.9Y-5.3331
X6.9Y-5.4331
X6.9Y-5.5331
X6.9Y-5.6331
X6.95Y-5.8
X6.9502Y-2.05
X7.0Y-2.2331
X7.0Y-2.3331
X7.0Y-2.4331
X7.0Y-2.5331
X7.0Y-2.6331
X7.0Y-4.7331
X7.0Y-4.8331
X7.0Y-4.9331
X7.0Y-5.0331
X7.0Y-5.1331
X7.0Y-5.2331
X7.0Y-5.3331
X7.0Y-5.4331
X7.0Y-5.5331
X7.0Y-5.6331
X7.05Y-5.8
X7.0502Y-2.05
X7.1Y-2.2331
X7.1Y-2.3331
X7.1Y-2.4331
X7.1Y-2.5331
X7.1Y-2.6331
X7.1Y-4.7331
X7.1Y-4.8331
X7.1Y-4.9331
X7.1Y-5.0331
X7.1Y-5.1331
X7.1Y-5.2331
X7.1Y-5.3331
X7.1Y-5.4331
X7.1Y-5.5331
X7.1Y-5.6331
X7.15Y-5.8
X7.1502Y-2.05
X7.2Y-2.2331
X7.2Y-2.3331
X7.2Y-2.4331
X7.2Y-2.5331
X7.2Y-2.6331
X7.2Y-4.7331
X7.2Y-4.8331
X7.2Y-4.9331
X7.2Y-5.0331
X7.2Y-5.1331
X7.2Y-5.2331
X7.2Y-5.3331
X7.2Y-5.4331
X7.2Y-5.5331
X7.2Y-5.6331
X7.25Y-5.8
X7.2502Y-2.05
X7.3Y-2.2331
X7.3Y-2.3331
X7.3Y-2.4331
X7.3Y-2.5331
X7.3Y-2.6331
X7.3Y-4.7331
X7.3Y-4.8331
X7.3Y-4.9331
X7.3Y-5.0331
X7.3Y-5.1331
X7.3Y-5.2331
X7.3Y-5.3331
X7.3Y-5.4331
X7.3Y-5.5331
X7.3Y-5.6331
X7.35Y-5.8
X7.3502Y-2.05
X7.4Y-2.2331
X7.4Y-2.3331
X7.4Y-2.4331
X7.4Y-2.5331
X7.4Y-2.6331
X7.4Y-4.7331
X7.4Y-4.8331
X7.4Y-4.9331
X7.4Y-5.0331
X7.4Y-5.1331
X7.4Y-5.2331
X7.4Y-5.3331
X7.4Y-5.4331
X7.4Y-5.5331
X7.4Y-5.6331
X7.45Y-5.8
X7.4502Y-2.05
X7.5Y-2.2331
X7.5Y-2.3331
X7.5Y-2.4331
X7.5Y-2.5331
X7.5Y-2.6331
X7.5Y-2.7331
X7.5Y-2.8331
X7.5Y-2.9331
X7.5Y-3.0331
X7.5Y-3.1331
X7.5Y-3.2331
X7.5Y-3.3331
X7.5Y-3.4331
X7.5Y-3.5331
X7.5Y-3.6331
X7.5Y-3.7331
X7.5Y-3.8331
X7.5Y-3.9331
X7.5Y-4.0331
X7.5Y-4.1331
X7.5Y-4.2331
X7.5Y-4.3331
X7.5Y-4.4331
X7.5Y-4.5331
X7.5Y-4.6331
X7.5Y-4.7331
X7.5Y-4.8331
X7.5Y-4.9331
X7.5Y-5.0331
X7.5Y-5.1331
X7.5Y-5.2331
X7.5Y-5.3331
X7.5Y-5.4331
X7.5Y-5.5331
X7.5Y-5.6331
X7.55Y-5.8
X7.5502Y-2.05
X7.6Y-2.2331
X7.6Y-2.3331
X7.6Y-2.4331
X7.6Y-2.5331
X7.6Y-2.6331
X7.6Y-2.7331
X7.6Y-2.8331
X7.6Y-2.9331
X7.6Y-3.0331
X7.6Y-3.1331
X7.6Y-3.2331
X7.6Y-3.3331
X7.6Y-3.4331
X7.6Y-3.5331
X7.6Y-3.6331
X7.6Y-3.7331
X7.6Y-3.8331
X7.6Y-3.9331
X7.6Y-4.0331
X7.6Y-4.1331
X7.6Y-4.2331
X7.6Y-4.3331
X7.6Y-4.4331
X7.6Y-4.5331
X7.6Y-4.6331
X7.6Y-4.7331
X7.6Y-4.8331
X7.6Y-4.9331
X7.6Y-5.0331
X7.6Y-5.1331
X7.6Y-5.2331
X7.6Y-5.3331
X7.6Y-5.4331
X7.6Y-5.5331
X7.6Y-5.6331
X7.65Y-5.8
X7.6502Y-2.05
X7.7Y-2.2331
X7.7Y-2.3331
X7.7Y-2.4331
X7.7Y-2.5331
X7.7Y-2.6331
X7.7Y-2.7331
X7.7Y-2.8331
X7.7Y-2.9331
X7.7Y-3.0331
X7.7Y-3.1331
X7.7Y-3.2331
X7.7Y-3.3331
X7.7Y-3.4331
X7.7Y-3.5331
X7.7Y-3.6331
X7.7Y-3.7331
X7.7Y-3.8331
X7.7Y-3.9331
X7.7Y-4.0331
X7.7Y-4.1331
X7.7Y-4.2331
X7.7Y-4.3331
X7.7Y-4.4331
X7.7Y-4.5331
X7.7Y-4.6331
X7.7Y-4.7331
X7.7Y-4.8331
X7.7Y-4.9331
X7.7Y-5.0331
X7.7Y-5.1331
X7.7Y-5.2331
X7.7Y-5.3331
X7.7Y-5.4331
X7.7Y-5.5331
X7.7Y-5.6331
X7.75Y-5.8
X7.7502Y-2.05
X7.8Y-2.2331
X7.8Y-2.3331
X7.8Y-2.4331
X7.8Y-2.5331
X7.8Y-2.6331
X7.8Y-2.7331
X7.8Y-2.8331
X7.8Y-2.9331
X7.8Y-3.0331
X7.8Y-3.1331
X7.8Y-3.2331
X7.8Y-3.3331
X7.8Y-3.4331
X7.8Y-3.5331
X7.8Y-3.6331
X7.8Y-3.7331
X7.8Y-3.8331
X7.8Y-3.9331
X7.8Y-4.0331
X7.8Y-4.1331
X7.8Y-4.2331
X7.8Y-4.3331
X7.8Y-4.4331
X7.8Y-4.5331
X7.8Y-4.6331
X7.8Y-4.7331
X7.8Y-4.8331
X7.8Y-4.9331
X7.8Y-5.0331
X7.8Y-5.1331
X7.8Y-5.2331
X7.8Y-5.3331
X7.8Y-5.4331
X7.8Y-5.5331
X7.8Y-5.6331
X7.9Y-2.2331
X7.9Y-2.3331
X7.9Y-2.4331
X7.9Y-2.5331
X7.9Y-2.6331
X7.9Y-2.7331
X7.9Y-2.8331
X7.9Y-2.9331
X7.9Y-3.0331
X7.9Y-3.1331
X7.9Y-3.2331
X7.9Y-3.3331
X7.9Y-3.4331
X7.9Y-3.5331
X7.9Y-3.6331
X7.9Y-3.7331
X7.9Y-3.8331
X7.9Y-3.9331
X7.9Y-4.0331
X7.9Y-4.1331
X7.9Y-4.2331
X7.9Y-4.3331
X7.9Y-4.4331
X7.9Y-4.5331
X7.9Y-4.6331
X7.9Y-4.7331
X7.9Y-4.8331
X7.9Y-4.9331
X7.9Y-5.0331
X7.9Y-5.1331
X7.9Y-5.2331
X7.9Y-5.3331
X7.9Y-5.4331
X7.9Y-5.5331
X7.9Y-5.6331
X8.0Y-2.049
X8.0Y-2.2331
X8.0Y-2.3331
X8.0Y-2.4331
X8.0Y-2.5331
X8.0Y-2.6331
X8.0Y-2.7331
X8.0Y-2.8331
X8.0Y-2.9331
X8.0Y-3.0331
X8.0Y-3.1331
X8.0Y-3.2331
X8.0Y-3.3331
X8.0Y-3.4331
X8.0Y-3.5331
X8.0Y-3.6331
X8.0Y-3.7331
X8.0Y-3.8331
X8.0Y-3.9331
X8.0Y-4.0331
X8.0Y-4.1331
X8.0Y-4.2331
X8.0Y-4.3331
X8.0Y-4.4331
X8.0Y-4.5331
X8.0Y-4.6331
X8.0Y-4.7331
X8.0Y-4.8331
X8.0Y-4.9331
X8.0Y-5.0331
X8.0Y-5.1331
X8.0Y-5.2331
X8.0Y-5.3331
X8.0Y-5.4331
X8.0Y-5.5331
X8.0Y-5.6331
X8.0Y-5.8
X8.1Y-2.049
X8.1Y-2.2331
X8.1Y-2.3331
X8.1Y-2.4331
X8.1Y-2.5331
X8.1Y-2.6331
X8.1Y-2.7331
X8.1Y-2.8331
X8.1Y-2.9331
X8.1Y-3.0331
X8.1Y-3.1331
X8.1Y-3.2331
X8.1Y-3.3331
X8.1Y-3.4331
X8.1Y-3.5331
X8.1Y-3.6331
X8.1Y-3.7331
X8.1Y-3.8331
X8.1Y-3.9331
X8.1Y-4.0331
X8.1Y-4.1331
X8.1Y-4.2331
X8.1Y-4.3331
X8.1Y-4.4331
X8.1Y-4.5331
X8.1Y-4.6331
X8.1Y-4.7331
X8.1Y-4.8331
X8.1Y-4.9331
X8.1Y-5.0331
X8.1Y-5.1331
X8.1Y-5.2331
X8.1Y-5.3331
X8.1Y-5.4331
X8.1Y-5.5331
X8.1Y-5.6331
X8.1Y-5.8
X8.2Y-2.049
X8.2Y-2.2331
X8.2Y-2.3331
X8.2Y-2.4331
X8.2Y-2.5331
X8.2Y-2.6331
X8.2Y-2.7331
X8.2Y-2.8331
X8.2Y-2.9331
X8.2Y-3.0331
X8.2Y-3.1331
X8.2Y-3.2331
X8.2Y-3.3331
X8.2Y-3.4331
X8.2Y-3.5331
X8.2Y-3.6331
X8.2Y-3.7331
X8.2Y-3.8331
X8.2Y-3.9331
X8.2Y-4.0331
X8.2Y-4.1331
X8.2Y-4.2331
X8.2Y-4.3331
X8.2Y-4.4331
X8.2Y-4.5331
X8.2Y-4.6331
X8.2Y-4.7331
X8.2Y-4.8331
X8.2Y-4.9331
X8.2Y-5.0331
X8.2Y-5.1331
X8.2Y-5.2331
X8.2Y-5.3331
X8.2Y-5.4331
X8.2Y-5.5331
X8.2Y-5.6331
X8.2Y-5.8
X8.3Y-2.049
X8.3Y-2.2331
X8.3Y-2.3331
X8.3Y-2.4331
X8.3Y-2.5331
X8.3Y-2.6331
X8.3Y-2.7331
X8.3Y-2.8331
X8.3Y-2.9331
X8.3Y-3.0331
X8.3Y-3.1331
X8.3Y-3.2331
X8.3Y-3.3331
X8.3Y-3.4331
X8.3Y-3.5331
X8.3Y-3.6331
X8.3Y-3.7331
X8.3Y-3.8331
X8.3Y-3.9331
X8.3Y-4.0331
X8.3Y-4.1331
X8.3Y-4.2331
X8.3Y-4.3331
X8.3Y-4.4331
X8.3Y-4.5331
X8.3Y-4.6331
X8.3Y-4.7331
X8.3Y-4.8331
X8.3Y-4.9331
X8.3Y-5.0331
X8.3Y-5.1331
X8.3Y-5.2331
X8.3Y-5.3331
X8.3Y-5.4331
X8.3Y-5.5331
X8.3Y-5.6331
X8.3Y-5.8
X8.4Y-2.049
X8.4Y-2.2331
X8.4Y-2.3331
X8.4Y-2.4331
X8.4Y-2.5331
X8.4Y-2.6331
X8.4Y-2.7331
X8.4Y-2.8331
X8.4Y-2.9331
X8.4Y-3.0331
X8.4Y-3.1331
X8.4Y-3.2331
X8.4Y-3.3331
X8.4Y-3.4331
X8.4Y-3.5331
X8.4Y-3.6331
X8.4Y-3.7331
X8.4Y-3.8331
X8.4Y-3.9331
X8.4Y-4.0331
X8.4Y-4.1331
X8.4Y-4.2331
X8.4Y-4.3331
X8.4Y-4.4331
X8.4Y-4.5331
X8.4Y-4.6331
X8.4Y-4.7331
X8.4Y-4.8331
X8.4Y-4.9331
X8.4Y-5.0331
X8.4Y-5.1331
X8.4Y-5.2331
X8.4Y-5.3331
X8.4Y-5.4331
X8.4Y-5.5331
X8.4Y-5.6331
X8.4Y-5.8
X8.5Y-2.049
X8.5Y-2.2331
X8.5Y-2.3331
X8.5Y-2.4331
X8.5Y-2.5331
X8.5Y-2.6331
X8.5Y-2.7331
X8.5Y-2.8331
X8.5Y-2.9331
X8.5Y-3.0331
X8.5Y-3.1331
X8.5Y-3.2331
X8.5Y-3.3331
X8.5Y-3.4331
X8.5Y-3.5331
X8.5Y-3.6331
X8.5Y-3.7331
X8.5Y-3.8331
X8.5Y-3.9331
X8.5Y-4.0331
X8.5Y-4.1331
X8.5Y-4.2331
X8.5Y-4.3331
X8.5Y-4.4331
X8.5Y-4.5331
X8.5Y-4.6331
X8.5Y-4.7331
X8.5Y-4.8331
X8.5Y-4.9331
X8.5Y-5.0331
X8.5Y-5.1331
X8.5Y-5.2331
X8.5Y-5.3331
X8.5Y-5.4331
X8.5Y-5.5331
X8.5Y-5.6331
X8.5Y-5.8
X8.6Y-2.049
X8.6Y-2.2331
X8.6Y-2.3331
X8.6Y-2.4331
X8.6Y-2.5331
X8.6Y-2.6331
X8.6Y-2.7331
X8.6Y-2.8331
X8.6Y-2.9331
X8.6Y-3.0331
X8.6Y-3.1331
X8.6Y-3.2331
X8.6Y-3.3331
X8.6Y-3.4331
X8.6Y-3.5331
X8.6Y-3.6331
X8.6Y-3.7331
X8.6Y-3.8331
X8.6Y-3.9331
X8.6Y-4.0331
X8.6Y-4.1331
X8.6Y-4.2331
X8.6Y-4.3331
X8.6Y-4.4331
X8.6Y-4.5331
X8.6Y-4.6331
X8.6Y-4.7331
X8.6Y-4.8331
X8.6Y-4.9331
X8.6Y-5.0331
X8.6Y-5.1331
X8.6Y-5.2331
X8.6Y-5.3331
X8.6Y-5.4331
X8.6Y-5.5331
X8.6Y-5.6331
X8.6Y-5.8
X8.7Y-2.049
X8.7Y-2.2331
X8.7Y-2.3331
X8.7Y-2.4331
X8.7Y-2.5331
X8.7Y-2.6331
X8.7Y-2.7331
X8.7Y-2.8331
X8.7Y-2.9331
X8.7Y-3.0331
X8.7Y-3.1331
X8.7Y-3.2331
X8.7Y-3.3331
X8.7Y-3.4331
X8.7Y-3.5331
X8.7Y-3.6331
X8.7Y-3.7331
X8.7Y-3.8331
X8.7Y-3.9331
X8.7Y-4.0331
X8.7Y-4.1331
X8.7Y-4.2331
X8.7Y-4.3331
X8.7Y-4.4331
X8.7Y-4.5331
X8.7Y-4.6331
X8.7Y-4.7331
X8.7Y-4.8331
X8.7Y-4.9331
X8.7Y-5.0331
X8.7Y-5.1331
X8.7Y-5.2331
X8.7Y-5.3331
X8.7Y-5.4331
X8.7Y-5.5331
X8.7Y-5.6331
X8.7Y-5.8
X8.8Y-2.049
X8.8Y-2.2331
X8.8Y-2.3331
X8.8Y-2.4331
X8.8Y-2.5331
X8.8Y-2.6331
X8.8Y-2.7331
X8.8Y-2.8331
X8.8Y-2.9331
X8.8Y-3.0331
X8.8Y-3.1331
X8.8Y-3.2331
X8.8Y-3.3331
X8.8Y-3.4331
X8.8Y-3.5331
X8.8Y-3.6331
X8.8Y-3.7331
X8.8Y-3.8331
X8.8Y-3.9331
X8.8Y-4.0331
X8.8Y-4.1331
X8.8Y-4.2331
X8.8Y-4.3331
X8.8Y-4.4331
X8.8Y-4.5331
X8.8Y-4.6331
X8.8Y-4.7331
X8.8Y-4.8331
X8.8Y-4.9331
X8.8Y-5.0331
X8.8Y-5.1331
X8.8Y-5.2331
X8.8Y-5.3331
X8.8Y-5.4331
X8.8Y-5.5331
X8.8Y-5.6331
X8.8Y-5.8
X8.9Y-2.049
X8.9Y-2.2331
X8.9Y-2.3331
X8.9Y-2.4331
X8.9Y-2.5331
X8.9Y-2.6331
X8.9Y-2.7331
X8.9Y-2.8331
X8.9Y-2.9331
X8.9Y-3.0331
X8.9Y-3.1331
X8.9Y-3.2331
X8.9Y-3.3331
X8.9Y-3.4331
X8.9Y-3.5331
X8.9Y-3.6331
X8.9Y-3.7331
X8.9Y-3.8331
X8.9Y-3.9331
X8.9Y-4.0331
X8.9Y-4.1331
X8.9Y-4.2331
X8.9Y-4.3331
X8.9Y-4.4331
X8.9Y-4.5331
X8.9Y-4.6331
X8.9Y-4.7331
X8.9Y-4.8331
X8.9Y-4.9331
X8.9Y-5.0331
X8.9Y-5.1331
X8.9Y-5.2331
X8.9Y-5.3331
X8.9Y-5.4331
X8.9Y-5.5331
X8.9Y-5.6331
X8.9Y-5.8
T5
X3.6272Y-2.5653
X3.6272Y-2.6653
X3.6272Y-2.7653
T4
G00X3.0709Y-2.6241
M15
G01X3.0709Y-2.7029
M16
G05
G00X3.1496Y-2.8485
M15
G01X3.2283Y-2.8485
M16
G05
G00X3.3071Y-2.6241
M15
G01X3.3071Y-2.7029
M16
G05
T0
M30
