%TF.GenerationSoftware,KiCad,Pcbnew,(6.0.11)*%
%TF.CreationDate,2023-09-02T05:53:17-04:00*%
%TF.ProjectId,input-output.Multi,696e7075-742d-46f7-9574-7075742e4d75,rev?*%
%TF.SameCoordinates,Original*%
%TF.FileFunction,Paste,Top*%
%TF.FilePolarity,Positive*%
%FSLAX46Y46*%
G04 Gerber Fmt 4.6, Leading zero omitted, Abs format (unit mm)*
G04 Created by KiCad (PCBNEW (6.0.11)) date 2023-09-02 05:53:17*
%MOMM*%
%LPD*%
G01*
G04 APERTURE LIST*
G04 Aperture macros list*
%AMRoundRect*
0 Rectangle with rounded corners*
0 $1 Rounding radius*
0 $2 $3 $4 $5 $6 $7 $8 $9 X,Y pos of 4 corners*
0 Add a 4 corners polygon primitive as box body*
4,1,4,$2,$3,$4,$5,$6,$7,$8,$9,$2,$3,0*
0 Add four circle primitives for the rounded corners*
1,1,$1+$1,$2,$3*
1,1,$1+$1,$4,$5*
1,1,$1+$1,$6,$7*
1,1,$1+$1,$8,$9*
0 Add four rect primitives between the rounded corners*
20,1,$1+$1,$2,$3,$4,$5,0*
20,1,$1+$1,$4,$5,$6,$7,0*
20,1,$1+$1,$6,$7,$8,$9,0*
20,1,$1+$1,$8,$9,$2,$3,0*%
G04 Aperture macros list end*
%ADD10RoundRect,0.150000X0.150000X-0.750000X0.150000X0.750000X-0.150000X0.750000X-0.150000X-0.750000X0*%
%ADD11R,0.850000X1.100000*%
%ADD12R,0.750000X1.100000*%
%ADD13R,1.200000X1.000000*%
%ADD14R,1.170000X1.800000*%
%ADD15R,1.900000X1.350000*%
%ADD16R,1.550000X1.350000*%
G04 APERTURE END LIST*
D10*
%TO.C,U27*%
X240995000Y-99300000D03*
X242265000Y-99300000D03*
X243535000Y-99300000D03*
X244805000Y-99300000D03*
X246075000Y-99300000D03*
X247345000Y-99300000D03*
X248615000Y-99300000D03*
X249885000Y-99300000D03*
X251155000Y-99300000D03*
X252425000Y-99300000D03*
X253695000Y-99300000D03*
X254965000Y-99300000D03*
X256235000Y-99300000D03*
X257505000Y-99300000D03*
X257505000Y-89700000D03*
X256235000Y-89700000D03*
X254965000Y-89700000D03*
X253695000Y-89700000D03*
X252425000Y-89700000D03*
X251155000Y-89700000D03*
X249885000Y-89700000D03*
X248615000Y-89700000D03*
X247345000Y-89700000D03*
X246075000Y-89700000D03*
X244805000Y-89700000D03*
X243535000Y-89700000D03*
X242265000Y-89700000D03*
X240995000Y-89700000D03*
%TD*%
D11*
%TO.C,J8*%
X250895000Y-71550000D03*
X251995000Y-71550000D03*
X253095000Y-71550000D03*
X254195000Y-71550000D03*
X255295000Y-71550000D03*
X256395000Y-71550000D03*
X257495000Y-71550000D03*
D12*
X258545000Y-71550000D03*
D13*
X248260000Y-77700000D03*
X248260000Y-81400000D03*
D14*
X259755000Y-71900000D03*
D15*
X251760000Y-82375000D03*
X257730000Y-82375000D03*
D16*
X248435000Y-71675000D03*
%TD*%
M02*
