%TF.GenerationSoftware,KiCad,Pcbnew,(6.0.11)*%
%TF.CreationDate,2024-01-15T17:38:44-05:00*%
%TF.ProjectId,input-output.Text,696e7075-742d-46f7-9574-7075742e5465,rev?*%
%TF.SameCoordinates,Original*%
%TF.FileFunction,Legend,Bot*%
%TF.FilePolarity,Positive*%
%FSLAX46Y46*%
G04 Gerber Fmt 4.6, Leading zero omitted, Abs format (unit mm)*
G04 Created by KiCad (PCBNEW (6.0.11)) date 2024-01-15 17:38:44*
%MOMM*%
%LPD*%
G01*
G04 APERTURE LIST*
%ADD10C,0.150000*%
G04 APERTURE END LIST*
D10*
%TO.C,H2*%
X269261904Y-78452380D02*
X269261904Y-77452380D01*
X269261904Y-77928571D02*
X268690476Y-77928571D01*
X268690476Y-78452380D02*
X268690476Y-77452380D01*
X268261904Y-77547619D02*
X268214285Y-77500000D01*
X268119047Y-77452380D01*
X267880952Y-77452380D01*
X267785714Y-77500000D01*
X267738095Y-77547619D01*
X267690476Y-77642857D01*
X267690476Y-77738095D01*
X267738095Y-77880952D01*
X268309523Y-78452380D01*
X267690476Y-78452380D01*
%TO.C,H1*%
X37261904Y-78452380D02*
X37261904Y-77452380D01*
X37261904Y-77928571D02*
X36690476Y-77928571D01*
X36690476Y-78452380D02*
X36690476Y-77452380D01*
X35690476Y-78452380D02*
X36261904Y-78452380D01*
X35976190Y-78452380D02*
X35976190Y-77452380D01*
X36071428Y-77595238D01*
X36166666Y-77690476D01*
X36261904Y-77738095D01*
%TO.C,P2*%
X186738095Y-226452380D02*
X186738095Y-225452380D01*
X186357142Y-225452380D01*
X186261904Y-225500000D01*
X186214285Y-225547619D01*
X186166666Y-225642857D01*
X186166666Y-225785714D01*
X186214285Y-225880952D01*
X186261904Y-225928571D01*
X186357142Y-225976190D01*
X186738095Y-225976190D01*
X185785714Y-225547619D02*
X185738095Y-225500000D01*
X185642857Y-225452380D01*
X185404761Y-225452380D01*
X185309523Y-225500000D01*
X185261904Y-225547619D01*
X185214285Y-225642857D01*
X185214285Y-225738095D01*
X185261904Y-225880952D01*
X185833333Y-226452380D01*
X185214285Y-226452380D01*
%TO.C,P3*%
X262738095Y-226452380D02*
X262738095Y-225452380D01*
X262357142Y-225452380D01*
X262261904Y-225500000D01*
X262214285Y-225547619D01*
X262166666Y-225642857D01*
X262166666Y-225785714D01*
X262214285Y-225880952D01*
X262261904Y-225928571D01*
X262357142Y-225976190D01*
X262738095Y-225976190D01*
X261833333Y-225452380D02*
X261214285Y-225452380D01*
X261547619Y-225833333D01*
X261404761Y-225833333D01*
X261309523Y-225880952D01*
X261261904Y-225928571D01*
X261214285Y-226023809D01*
X261214285Y-226261904D01*
X261261904Y-226357142D01*
X261309523Y-226404761D01*
X261404761Y-226452380D01*
X261690476Y-226452380D01*
X261785714Y-226404761D01*
X261833333Y-226357142D01*
%TO.C,P1*%
X112738095Y-226452380D02*
X112738095Y-225452380D01*
X112357142Y-225452380D01*
X112261904Y-225500000D01*
X112214285Y-225547619D01*
X112166666Y-225642857D01*
X112166666Y-225785714D01*
X112214285Y-225880952D01*
X112261904Y-225928571D01*
X112357142Y-225976190D01*
X112738095Y-225976190D01*
X111214285Y-226452380D02*
X111785714Y-226452380D01*
X111500000Y-226452380D02*
X111500000Y-225452380D01*
X111595238Y-225595238D01*
X111690476Y-225690476D01*
X111785714Y-225738095D01*
%TO.C,C16*%
X134607142Y-145107142D02*
X134654761Y-145059523D01*
X134702380Y-144916666D01*
X134702380Y-144821428D01*
X134654761Y-144678571D01*
X134559523Y-144583333D01*
X134464285Y-144535714D01*
X134273809Y-144488095D01*
X134130952Y-144488095D01*
X133940476Y-144535714D01*
X133845238Y-144583333D01*
X133750000Y-144678571D01*
X133702380Y-144821428D01*
X133702380Y-144916666D01*
X133750000Y-145059523D01*
X133797619Y-145107142D01*
X134702380Y-146059523D02*
X134702380Y-145488095D01*
X134702380Y-145773809D02*
X133702380Y-145773809D01*
X133845238Y-145678571D01*
X133940476Y-145583333D01*
X133988095Y-145488095D01*
X133702380Y-146916666D02*
X133702380Y-146726190D01*
X133750000Y-146630952D01*
X133797619Y-146583333D01*
X133940476Y-146488095D01*
X134130952Y-146440476D01*
X134511904Y-146440476D01*
X134607142Y-146488095D01*
X134654761Y-146535714D01*
X134702380Y-146630952D01*
X134702380Y-146821428D01*
X134654761Y-146916666D01*
X134607142Y-146964285D01*
X134511904Y-147011904D01*
X134273809Y-147011904D01*
X134178571Y-146964285D01*
X134130952Y-146916666D01*
X134083333Y-146821428D01*
X134083333Y-146630952D01*
X134130952Y-146535714D01*
X134178571Y-146488095D01*
X134273809Y-146440476D01*
%TO.C,U8*%
X195957380Y-169493095D02*
X196766904Y-169493095D01*
X196862142Y-169540714D01*
X196909761Y-169588333D01*
X196957380Y-169683571D01*
X196957380Y-169874047D01*
X196909761Y-169969285D01*
X196862142Y-170016904D01*
X196766904Y-170064523D01*
X195957380Y-170064523D01*
X196385952Y-170683571D02*
X196338333Y-170588333D01*
X196290714Y-170540714D01*
X196195476Y-170493095D01*
X196147857Y-170493095D01*
X196052619Y-170540714D01*
X196005000Y-170588333D01*
X195957380Y-170683571D01*
X195957380Y-170874047D01*
X196005000Y-170969285D01*
X196052619Y-171016904D01*
X196147857Y-171064523D01*
X196195476Y-171064523D01*
X196290714Y-171016904D01*
X196338333Y-170969285D01*
X196385952Y-170874047D01*
X196385952Y-170683571D01*
X196433571Y-170588333D01*
X196481190Y-170540714D01*
X196576428Y-170493095D01*
X196766904Y-170493095D01*
X196862142Y-170540714D01*
X196909761Y-170588333D01*
X196957380Y-170683571D01*
X196957380Y-170874047D01*
X196909761Y-170969285D01*
X196862142Y-171016904D01*
X196766904Y-171064523D01*
X196576428Y-171064523D01*
X196481190Y-171016904D01*
X196433571Y-170969285D01*
X196385952Y-170874047D01*
%TO.C,P5*%
X158238095Y-75452349D02*
X158238095Y-74452349D01*
X157857142Y-74452349D01*
X157761904Y-74499969D01*
X157714285Y-74547588D01*
X157666666Y-74642826D01*
X157666666Y-74785683D01*
X157714285Y-74880921D01*
X157761904Y-74928540D01*
X157857142Y-74976159D01*
X158238095Y-74976159D01*
X156761904Y-74452349D02*
X157238095Y-74452349D01*
X157285714Y-74928540D01*
X157238095Y-74880921D01*
X157142857Y-74833302D01*
X156904761Y-74833302D01*
X156809523Y-74880921D01*
X156761904Y-74928540D01*
X156714285Y-75023778D01*
X156714285Y-75261873D01*
X156761904Y-75357111D01*
X156809523Y-75404730D01*
X156904761Y-75452349D01*
X157142857Y-75452349D01*
X157238095Y-75404730D01*
X157285714Y-75357111D01*
%TO.C,R3*%
X209202380Y-153333333D02*
X208726190Y-153000000D01*
X209202380Y-152761904D02*
X208202380Y-152761904D01*
X208202380Y-153142857D01*
X208250000Y-153238095D01*
X208297619Y-153285714D01*
X208392857Y-153333333D01*
X208535714Y-153333333D01*
X208630952Y-153285714D01*
X208678571Y-153238095D01*
X208726190Y-153142857D01*
X208726190Y-152761904D01*
X208202380Y-153666666D02*
X208202380Y-154285714D01*
X208583333Y-153952380D01*
X208583333Y-154095238D01*
X208630952Y-154190476D01*
X208678571Y-154238095D01*
X208773809Y-154285714D01*
X209011904Y-154285714D01*
X209107142Y-154238095D01*
X209154761Y-154190476D01*
X209202380Y-154095238D01*
X209202380Y-153809523D01*
X209154761Y-153714285D01*
X209107142Y-153666666D01*
%TO.C,X1*%
X112472380Y-160430476D02*
X113472380Y-161097142D01*
X112472380Y-161097142D02*
X113472380Y-160430476D01*
X113472380Y-162001904D02*
X113472380Y-161430476D01*
X113472380Y-161716190D02*
X112472380Y-161716190D01*
X112615238Y-161620952D01*
X112710476Y-161525714D01*
X112758095Y-161430476D01*
%TO.C,J2*%
X51467380Y-126656666D02*
X52181666Y-126656666D01*
X52324523Y-126609047D01*
X52419761Y-126513809D01*
X52467380Y-126370952D01*
X52467380Y-126275714D01*
X51562619Y-127085238D02*
X51515000Y-127132857D01*
X51467380Y-127228095D01*
X51467380Y-127466190D01*
X51515000Y-127561428D01*
X51562619Y-127609047D01*
X51657857Y-127656666D01*
X51753095Y-127656666D01*
X51895952Y-127609047D01*
X52467380Y-127037619D01*
X52467380Y-127656666D01*
%TO.C,C22*%
X113857154Y-216357142D02*
X113904773Y-216309523D01*
X113952392Y-216166666D01*
X113952392Y-216071428D01*
X113904773Y-215928571D01*
X113809535Y-215833333D01*
X113714297Y-215785714D01*
X113523821Y-215738095D01*
X113380964Y-215738095D01*
X113190488Y-215785714D01*
X113095250Y-215833333D01*
X113000012Y-215928571D01*
X112952392Y-216071428D01*
X112952392Y-216166666D01*
X113000012Y-216309523D01*
X113047631Y-216357142D01*
X113047631Y-216738095D02*
X113000012Y-216785714D01*
X112952392Y-216880952D01*
X112952392Y-217119047D01*
X113000012Y-217214285D01*
X113047631Y-217261904D01*
X113142869Y-217309523D01*
X113238107Y-217309523D01*
X113380964Y-217261904D01*
X113952392Y-216690476D01*
X113952392Y-217309523D01*
X113047631Y-217690476D02*
X113000012Y-217738095D01*
X112952392Y-217833333D01*
X112952392Y-218071428D01*
X113000012Y-218166666D01*
X113047631Y-218214285D01*
X113142869Y-218261904D01*
X113238107Y-218261904D01*
X113380964Y-218214285D01*
X113952392Y-217642857D01*
X113952392Y-218261904D01*
%TO.C,C10*%
X134607142Y-120107142D02*
X134654761Y-120059523D01*
X134702380Y-119916666D01*
X134702380Y-119821428D01*
X134654761Y-119678571D01*
X134559523Y-119583333D01*
X134464285Y-119535714D01*
X134273809Y-119488095D01*
X134130952Y-119488095D01*
X133940476Y-119535714D01*
X133845238Y-119583333D01*
X133750000Y-119678571D01*
X133702380Y-119821428D01*
X133702380Y-119916666D01*
X133750000Y-120059523D01*
X133797619Y-120107142D01*
X134702380Y-121059523D02*
X134702380Y-120488095D01*
X134702380Y-120773809D02*
X133702380Y-120773809D01*
X133845238Y-120678571D01*
X133940476Y-120583333D01*
X133988095Y-120488095D01*
X133702380Y-121678571D02*
X133702380Y-121773809D01*
X133750000Y-121869047D01*
X133797619Y-121916666D01*
X133892857Y-121964285D01*
X134083333Y-122011904D01*
X134321428Y-122011904D01*
X134511904Y-121964285D01*
X134607142Y-121916666D01*
X134654761Y-121869047D01*
X134702380Y-121773809D01*
X134702380Y-121678571D01*
X134654761Y-121583333D01*
X134607142Y-121535714D01*
X134511904Y-121488095D01*
X134321428Y-121440476D01*
X134083333Y-121440476D01*
X133892857Y-121488095D01*
X133797619Y-121535714D01*
X133750000Y-121583333D01*
X133702380Y-121678571D01*
%TO.C,R4*%
X197202380Y-153333333D02*
X196726190Y-153000000D01*
X197202380Y-152761904D02*
X196202380Y-152761904D01*
X196202380Y-153142857D01*
X196250000Y-153238095D01*
X196297619Y-153285714D01*
X196392857Y-153333333D01*
X196535714Y-153333333D01*
X196630952Y-153285714D01*
X196678571Y-153238095D01*
X196726190Y-153142857D01*
X196726190Y-152761904D01*
X196535714Y-154190476D02*
X197202380Y-154190476D01*
X196154761Y-153952380D02*
X196869047Y-153714285D01*
X196869047Y-154333333D01*
%TO.C,R5*%
X191202380Y-153333333D02*
X190726190Y-153000000D01*
X191202380Y-152761904D02*
X190202380Y-152761904D01*
X190202380Y-153142857D01*
X190250000Y-153238095D01*
X190297619Y-153285714D01*
X190392857Y-153333333D01*
X190535714Y-153333333D01*
X190630952Y-153285714D01*
X190678571Y-153238095D01*
X190726190Y-153142857D01*
X190726190Y-152761904D01*
X190202380Y-154238095D02*
X190202380Y-153761904D01*
X190678571Y-153714285D01*
X190630952Y-153761904D01*
X190583333Y-153857142D01*
X190583333Y-154095238D01*
X190630952Y-154190476D01*
X190678571Y-154238095D01*
X190773809Y-154285714D01*
X191011904Y-154285714D01*
X191107142Y-154238095D01*
X191154761Y-154190476D01*
X191202380Y-154095238D01*
X191202380Y-153857142D01*
X191154761Y-153761904D01*
X191107142Y-153714285D01*
%TO.C,C14*%
X160857142Y-209857142D02*
X160904761Y-209809523D01*
X160952380Y-209666666D01*
X160952380Y-209571428D01*
X160904761Y-209428571D01*
X160809523Y-209333333D01*
X160714285Y-209285714D01*
X160523809Y-209238095D01*
X160380952Y-209238095D01*
X160190476Y-209285714D01*
X160095238Y-209333333D01*
X160000000Y-209428571D01*
X159952380Y-209571428D01*
X159952380Y-209666666D01*
X160000000Y-209809523D01*
X160047619Y-209857142D01*
X160952380Y-210809523D02*
X160952380Y-210238095D01*
X160952380Y-210523809D02*
X159952380Y-210523809D01*
X160095238Y-210428571D01*
X160190476Y-210333333D01*
X160238095Y-210238095D01*
X160285714Y-211666666D02*
X160952380Y-211666666D01*
X159904761Y-211428571D02*
X160619047Y-211190476D01*
X160619047Y-211809523D01*
%TO.C,R8*%
X137441666Y-96452380D02*
X137775000Y-95976190D01*
X138013095Y-96452380D02*
X138013095Y-95452380D01*
X137632142Y-95452380D01*
X137536904Y-95500000D01*
X137489285Y-95547619D01*
X137441666Y-95642857D01*
X137441666Y-95785714D01*
X137489285Y-95880952D01*
X137536904Y-95928571D01*
X137632142Y-95976190D01*
X138013095Y-95976190D01*
X136870238Y-95880952D02*
X136965476Y-95833333D01*
X137013095Y-95785714D01*
X137060714Y-95690476D01*
X137060714Y-95642857D01*
X137013095Y-95547619D01*
X136965476Y-95500000D01*
X136870238Y-95452380D01*
X136679761Y-95452380D01*
X136584523Y-95500000D01*
X136536904Y-95547619D01*
X136489285Y-95642857D01*
X136489285Y-95690476D01*
X136536904Y-95785714D01*
X136584523Y-95833333D01*
X136679761Y-95880952D01*
X136870238Y-95880952D01*
X136965476Y-95928571D01*
X137013095Y-95976190D01*
X137060714Y-96071428D01*
X137060714Y-96261904D01*
X137013095Y-96357142D01*
X136965476Y-96404761D01*
X136870238Y-96452380D01*
X136679761Y-96452380D01*
X136584523Y-96404761D01*
X136536904Y-96357142D01*
X136489285Y-96261904D01*
X136489285Y-96071428D01*
X136536904Y-95976190D01*
X136584523Y-95928571D01*
X136679761Y-95880952D01*
%TO.C,R12*%
X179202380Y-152857142D02*
X178726190Y-152523809D01*
X179202380Y-152285714D02*
X178202380Y-152285714D01*
X178202380Y-152666666D01*
X178250000Y-152761904D01*
X178297619Y-152809523D01*
X178392857Y-152857142D01*
X178535714Y-152857142D01*
X178630952Y-152809523D01*
X178678571Y-152761904D01*
X178726190Y-152666666D01*
X178726190Y-152285714D01*
X179202380Y-153809523D02*
X179202380Y-153238095D01*
X179202380Y-153523809D02*
X178202380Y-153523809D01*
X178345238Y-153428571D01*
X178440476Y-153333333D01*
X178488095Y-153238095D01*
X178297619Y-154190476D02*
X178250000Y-154238095D01*
X178202380Y-154333333D01*
X178202380Y-154571428D01*
X178250000Y-154666666D01*
X178297619Y-154714285D01*
X178392857Y-154761904D01*
X178488095Y-154761904D01*
X178630952Y-154714285D01*
X179202380Y-154142857D01*
X179202380Y-154761904D01*
%TO.C,C20*%
X197357142Y-216357142D02*
X197404761Y-216309523D01*
X197452380Y-216166666D01*
X197452380Y-216071428D01*
X197404761Y-215928571D01*
X197309523Y-215833333D01*
X197214285Y-215785714D01*
X197023809Y-215738095D01*
X196880952Y-215738095D01*
X196690476Y-215785714D01*
X196595238Y-215833333D01*
X196500000Y-215928571D01*
X196452380Y-216071428D01*
X196452380Y-216166666D01*
X196500000Y-216309523D01*
X196547619Y-216357142D01*
X196547619Y-216738095D02*
X196500000Y-216785714D01*
X196452380Y-216880952D01*
X196452380Y-217119047D01*
X196500000Y-217214285D01*
X196547619Y-217261904D01*
X196642857Y-217309523D01*
X196738095Y-217309523D01*
X196880952Y-217261904D01*
X197452380Y-216690476D01*
X197452380Y-217309523D01*
X196452380Y-217928571D02*
X196452380Y-218023809D01*
X196500000Y-218119047D01*
X196547619Y-218166666D01*
X196642857Y-218214285D01*
X196833333Y-218261904D01*
X197071428Y-218261904D01*
X197261904Y-218214285D01*
X197357142Y-218166666D01*
X197404761Y-218119047D01*
X197452380Y-218023809D01*
X197452380Y-217928571D01*
X197404761Y-217833333D01*
X197357142Y-217785714D01*
X197261904Y-217738095D01*
X197071428Y-217690476D01*
X196833333Y-217690476D01*
X196642857Y-217738095D01*
X196547619Y-217785714D01*
X196500000Y-217833333D01*
X196452380Y-217928571D01*
%TO.C,R11*%
X147917857Y-90452380D02*
X148251190Y-89976190D01*
X148489285Y-90452380D02*
X148489285Y-89452380D01*
X148108333Y-89452380D01*
X148013095Y-89500000D01*
X147965476Y-89547619D01*
X147917857Y-89642857D01*
X147917857Y-89785714D01*
X147965476Y-89880952D01*
X148013095Y-89928571D01*
X148108333Y-89976190D01*
X148489285Y-89976190D01*
X146965476Y-90452380D02*
X147536904Y-90452380D01*
X147251190Y-90452380D02*
X147251190Y-89452380D01*
X147346428Y-89595238D01*
X147441666Y-89690476D01*
X147536904Y-89738095D01*
X146013095Y-90452380D02*
X146584523Y-90452380D01*
X146298809Y-90452380D02*
X146298809Y-89452380D01*
X146394047Y-89595238D01*
X146489285Y-89690476D01*
X146584523Y-89738095D01*
%TO.C,C7*%
X199607142Y-196833333D02*
X199654761Y-196785714D01*
X199702380Y-196642857D01*
X199702380Y-196547619D01*
X199654761Y-196404761D01*
X199559523Y-196309523D01*
X199464285Y-196261904D01*
X199273809Y-196214285D01*
X199130952Y-196214285D01*
X198940476Y-196261904D01*
X198845238Y-196309523D01*
X198750000Y-196404761D01*
X198702380Y-196547619D01*
X198702380Y-196642857D01*
X198750000Y-196785714D01*
X198797619Y-196833333D01*
X198702380Y-197166666D02*
X198702380Y-197833333D01*
X199702380Y-197404761D01*
%TO.C,C27*%
X87107154Y-141107142D02*
X87154773Y-141059523D01*
X87202392Y-140916666D01*
X87202392Y-140821428D01*
X87154773Y-140678571D01*
X87059535Y-140583333D01*
X86964297Y-140535714D01*
X86773821Y-140488095D01*
X86630964Y-140488095D01*
X86440488Y-140535714D01*
X86345250Y-140583333D01*
X86250012Y-140678571D01*
X86202392Y-140821428D01*
X86202392Y-140916666D01*
X86250012Y-141059523D01*
X86297631Y-141107142D01*
X86297631Y-141488095D02*
X86250012Y-141535714D01*
X86202392Y-141630952D01*
X86202392Y-141869047D01*
X86250012Y-141964285D01*
X86297631Y-142011904D01*
X86392869Y-142059523D01*
X86488107Y-142059523D01*
X86630964Y-142011904D01*
X87202392Y-141440476D01*
X87202392Y-142059523D01*
X86202392Y-142392857D02*
X86202392Y-143059523D01*
X87202392Y-142630952D01*
%TO.C,J5*%
X51467380Y-138656666D02*
X52181666Y-138656666D01*
X52324523Y-138609047D01*
X52419761Y-138513809D01*
X52467380Y-138370952D01*
X52467380Y-138275714D01*
X51467380Y-139609047D02*
X51467380Y-139132857D01*
X51943571Y-139085238D01*
X51895952Y-139132857D01*
X51848333Y-139228095D01*
X51848333Y-139466190D01*
X51895952Y-139561428D01*
X51943571Y-139609047D01*
X52038809Y-139656666D01*
X52276904Y-139656666D01*
X52372142Y-139609047D01*
X52419761Y-139561428D01*
X52467380Y-139466190D01*
X52467380Y-139228095D01*
X52419761Y-139132857D01*
X52372142Y-139085238D01*
%TO.C,U21*%
X176457380Y-207751904D02*
X177266904Y-207751904D01*
X177362142Y-207799523D01*
X177409761Y-207847142D01*
X177457380Y-207942380D01*
X177457380Y-208132857D01*
X177409761Y-208228095D01*
X177362142Y-208275714D01*
X177266904Y-208323333D01*
X176457380Y-208323333D01*
X176552619Y-208751904D02*
X176505000Y-208799523D01*
X176457380Y-208894761D01*
X176457380Y-209132857D01*
X176505000Y-209228095D01*
X176552619Y-209275714D01*
X176647857Y-209323333D01*
X176743095Y-209323333D01*
X176885952Y-209275714D01*
X177457380Y-208704285D01*
X177457380Y-209323333D01*
X177457380Y-210275714D02*
X177457380Y-209704285D01*
X177457380Y-209990000D02*
X176457380Y-209990000D01*
X176600238Y-209894761D01*
X176695476Y-209799523D01*
X176743095Y-209704285D01*
%TO.C,C18*%
X168107142Y-169607142D02*
X168154761Y-169559523D01*
X168202380Y-169416666D01*
X168202380Y-169321428D01*
X168154761Y-169178571D01*
X168059523Y-169083333D01*
X167964285Y-169035714D01*
X167773809Y-168988095D01*
X167630952Y-168988095D01*
X167440476Y-169035714D01*
X167345238Y-169083333D01*
X167250000Y-169178571D01*
X167202380Y-169321428D01*
X167202380Y-169416666D01*
X167250000Y-169559523D01*
X167297619Y-169607142D01*
X168202380Y-170559523D02*
X168202380Y-169988095D01*
X168202380Y-170273809D02*
X167202380Y-170273809D01*
X167345238Y-170178571D01*
X167440476Y-170083333D01*
X167488095Y-169988095D01*
X167630952Y-171130952D02*
X167583333Y-171035714D01*
X167535714Y-170988095D01*
X167440476Y-170940476D01*
X167392857Y-170940476D01*
X167297619Y-170988095D01*
X167250000Y-171035714D01*
X167202380Y-171130952D01*
X167202380Y-171321428D01*
X167250000Y-171416666D01*
X167297619Y-171464285D01*
X167392857Y-171511904D01*
X167440476Y-171511904D01*
X167535714Y-171464285D01*
X167583333Y-171416666D01*
X167630952Y-171321428D01*
X167630952Y-171130952D01*
X167678571Y-171035714D01*
X167726190Y-170988095D01*
X167821428Y-170940476D01*
X168011904Y-170940476D01*
X168107142Y-170988095D01*
X168154761Y-171035714D01*
X168202380Y-171130952D01*
X168202380Y-171321428D01*
X168154761Y-171416666D01*
X168107142Y-171464285D01*
X168011904Y-171511904D01*
X167821428Y-171511904D01*
X167726190Y-171464285D01*
X167678571Y-171416666D01*
X167630952Y-171321428D01*
%TO.C,JP1*%
X158202380Y-81666666D02*
X158916666Y-81666666D01*
X159059523Y-81619047D01*
X159154761Y-81523809D01*
X159202380Y-81380952D01*
X159202380Y-81285714D01*
X159202380Y-82142857D02*
X158202380Y-82142857D01*
X158202380Y-82523809D01*
X158250000Y-82619047D01*
X158297619Y-82666666D01*
X158392857Y-82714285D01*
X158535714Y-82714285D01*
X158630952Y-82666666D01*
X158678571Y-82619047D01*
X158726190Y-82523809D01*
X158726190Y-82142857D01*
X159202380Y-83666666D02*
X159202380Y-83095238D01*
X159202380Y-83380952D02*
X158202380Y-83380952D01*
X158345238Y-83285714D01*
X158440476Y-83190476D01*
X158488095Y-83095238D01*
%TO.C,C9*%
X183357142Y-116333333D02*
X183404761Y-116285714D01*
X183452380Y-116142857D01*
X183452380Y-116047619D01*
X183404761Y-115904761D01*
X183309523Y-115809523D01*
X183214285Y-115761904D01*
X183023809Y-115714285D01*
X182880952Y-115714285D01*
X182690476Y-115761904D01*
X182595238Y-115809523D01*
X182500000Y-115904761D01*
X182452380Y-116047619D01*
X182452380Y-116142857D01*
X182500000Y-116285714D01*
X182547619Y-116333333D01*
X183452380Y-116809523D02*
X183452380Y-117000000D01*
X183404761Y-117095238D01*
X183357142Y-117142857D01*
X183214285Y-117238095D01*
X183023809Y-117285714D01*
X182642857Y-117285714D01*
X182547619Y-117238095D01*
X182500000Y-117190476D01*
X182452380Y-117095238D01*
X182452380Y-116904761D01*
X182500000Y-116809523D01*
X182547619Y-116761904D01*
X182642857Y-116714285D01*
X182880952Y-116714285D01*
X182976190Y-116761904D01*
X183023809Y-116809523D01*
X183071428Y-116904761D01*
X183071428Y-117095238D01*
X183023809Y-117190476D01*
X182976190Y-117238095D01*
X182880952Y-117285714D01*
%TO.C,C15*%
X134607142Y-157607142D02*
X134654761Y-157559523D01*
X134702380Y-157416666D01*
X134702380Y-157321428D01*
X134654761Y-157178571D01*
X134559523Y-157083333D01*
X134464285Y-157035714D01*
X134273809Y-156988095D01*
X134130952Y-156988095D01*
X133940476Y-157035714D01*
X133845238Y-157083333D01*
X133750000Y-157178571D01*
X133702380Y-157321428D01*
X133702380Y-157416666D01*
X133750000Y-157559523D01*
X133797619Y-157607142D01*
X134702380Y-158559523D02*
X134702380Y-157988095D01*
X134702380Y-158273809D02*
X133702380Y-158273809D01*
X133845238Y-158178571D01*
X133940476Y-158083333D01*
X133988095Y-157988095D01*
X133702380Y-159464285D02*
X133702380Y-158988095D01*
X134178571Y-158940476D01*
X134130952Y-158988095D01*
X134083333Y-159083333D01*
X134083333Y-159321428D01*
X134130952Y-159416666D01*
X134178571Y-159464285D01*
X134273809Y-159511904D01*
X134511904Y-159511904D01*
X134607142Y-159464285D01*
X134654761Y-159416666D01*
X134702380Y-159321428D01*
X134702380Y-159083333D01*
X134654761Y-158988095D01*
X134607142Y-158940476D01*
%TO.C,H4*%
X167452380Y-183488095D02*
X166452380Y-183488095D01*
X166928571Y-183488095D02*
X166928571Y-184059523D01*
X167452380Y-184059523D02*
X166452380Y-184059523D01*
X166785714Y-184964285D02*
X167452380Y-184964285D01*
X166404761Y-184726190D02*
X167119047Y-184488095D01*
X167119047Y-185107142D01*
%TO.C,J9*%
X101927380Y-218666666D02*
X102641666Y-218666666D01*
X102784523Y-218619047D01*
X102879761Y-218523809D01*
X102927380Y-218380952D01*
X102927380Y-218285714D01*
X102927380Y-219190476D02*
X102927380Y-219380952D01*
X102879761Y-219476190D01*
X102832142Y-219523809D01*
X102689285Y-219619047D01*
X102498809Y-219666666D01*
X102117857Y-219666666D01*
X102022619Y-219619047D01*
X101975000Y-219571428D01*
X101927380Y-219476190D01*
X101927380Y-219285714D01*
X101975000Y-219190476D01*
X102022619Y-219142857D01*
X102117857Y-219095238D01*
X102355952Y-219095238D01*
X102451190Y-219142857D01*
X102498809Y-219190476D01*
X102546428Y-219285714D01*
X102546428Y-219476190D01*
X102498809Y-219571428D01*
X102451190Y-219619047D01*
X102355952Y-219666666D01*
%TO.C,R1*%
X43452380Y-90833333D02*
X42976190Y-90500000D01*
X43452380Y-90261904D02*
X42452380Y-90261904D01*
X42452380Y-90642857D01*
X42500000Y-90738095D01*
X42547619Y-90785714D01*
X42642857Y-90833333D01*
X42785714Y-90833333D01*
X42880952Y-90785714D01*
X42928571Y-90738095D01*
X42976190Y-90642857D01*
X42976190Y-90261904D01*
X43452380Y-91785714D02*
X43452380Y-91214285D01*
X43452380Y-91500000D02*
X42452380Y-91500000D01*
X42595238Y-91404761D01*
X42690476Y-91309523D01*
X42738095Y-91214285D01*
%TO.C,U18*%
X139707380Y-208001904D02*
X140516904Y-208001904D01*
X140612142Y-208049523D01*
X140659761Y-208097142D01*
X140707380Y-208192380D01*
X140707380Y-208382857D01*
X140659761Y-208478095D01*
X140612142Y-208525714D01*
X140516904Y-208573333D01*
X139707380Y-208573333D01*
X140707380Y-209573333D02*
X140707380Y-209001904D01*
X140707380Y-209287619D02*
X139707380Y-209287619D01*
X139850238Y-209192380D01*
X139945476Y-209097142D01*
X139993095Y-209001904D01*
X140135952Y-210144761D02*
X140088333Y-210049523D01*
X140040714Y-210001904D01*
X139945476Y-209954285D01*
X139897857Y-209954285D01*
X139802619Y-210001904D01*
X139755000Y-210049523D01*
X139707380Y-210144761D01*
X139707380Y-210335238D01*
X139755000Y-210430476D01*
X139802619Y-210478095D01*
X139897857Y-210525714D01*
X139945476Y-210525714D01*
X140040714Y-210478095D01*
X140088333Y-210430476D01*
X140135952Y-210335238D01*
X140135952Y-210144761D01*
X140183571Y-210049523D01*
X140231190Y-210001904D01*
X140326428Y-209954285D01*
X140516904Y-209954285D01*
X140612142Y-210001904D01*
X140659761Y-210049523D01*
X140707380Y-210144761D01*
X140707380Y-210335238D01*
X140659761Y-210430476D01*
X140612142Y-210478095D01*
X140516904Y-210525714D01*
X140326428Y-210525714D01*
X140231190Y-210478095D01*
X140183571Y-210430476D01*
X140135952Y-210335238D01*
%TO.C,U1*%
X112472380Y-146478095D02*
X113281904Y-146478095D01*
X113377142Y-146525714D01*
X113424761Y-146573333D01*
X113472380Y-146668571D01*
X113472380Y-146859047D01*
X113424761Y-146954285D01*
X113377142Y-147001904D01*
X113281904Y-147049523D01*
X112472380Y-147049523D01*
X113472380Y-148049523D02*
X113472380Y-147478095D01*
X113472380Y-147763809D02*
X112472380Y-147763809D01*
X112615238Y-147668571D01*
X112710476Y-147573333D01*
X112758095Y-147478095D01*
%TO.C,U14*%
X145972380Y-155751904D02*
X146781904Y-155751904D01*
X146877142Y-155799523D01*
X146924761Y-155847142D01*
X146972380Y-155942380D01*
X146972380Y-156132857D01*
X146924761Y-156228095D01*
X146877142Y-156275714D01*
X146781904Y-156323333D01*
X145972380Y-156323333D01*
X146972380Y-157323333D02*
X146972380Y-156751904D01*
X146972380Y-157037619D02*
X145972380Y-157037619D01*
X146115238Y-156942380D01*
X146210476Y-156847142D01*
X146258095Y-156751904D01*
X146305714Y-158180476D02*
X146972380Y-158180476D01*
X145924761Y-157942380D02*
X146639047Y-157704285D01*
X146639047Y-158323333D01*
%TO.C,U6*%
X214957380Y-194978095D02*
X215766904Y-194978095D01*
X215862142Y-195025714D01*
X215909761Y-195073333D01*
X215957380Y-195168571D01*
X215957380Y-195359047D01*
X215909761Y-195454285D01*
X215862142Y-195501904D01*
X215766904Y-195549523D01*
X214957380Y-195549523D01*
X214957380Y-196454285D02*
X214957380Y-196263809D01*
X215005000Y-196168571D01*
X215052619Y-196120952D01*
X215195476Y-196025714D01*
X215385952Y-195978095D01*
X215766904Y-195978095D01*
X215862142Y-196025714D01*
X215909761Y-196073333D01*
X215957380Y-196168571D01*
X215957380Y-196359047D01*
X215909761Y-196454285D01*
X215862142Y-196501904D01*
X215766904Y-196549523D01*
X215528809Y-196549523D01*
X215433571Y-196501904D01*
X215385952Y-196454285D01*
X215338333Y-196359047D01*
X215338333Y-196168571D01*
X215385952Y-196073333D01*
X215433571Y-196025714D01*
X215528809Y-195978095D01*
%TO.C,U5*%
X148947380Y-194228095D02*
X149756904Y-194228095D01*
X149852142Y-194275714D01*
X149899761Y-194323333D01*
X149947380Y-194418571D01*
X149947380Y-194609047D01*
X149899761Y-194704285D01*
X149852142Y-194751904D01*
X149756904Y-194799523D01*
X148947380Y-194799523D01*
X148947380Y-195751904D02*
X148947380Y-195275714D01*
X149423571Y-195228095D01*
X149375952Y-195275714D01*
X149328333Y-195370952D01*
X149328333Y-195609047D01*
X149375952Y-195704285D01*
X149423571Y-195751904D01*
X149518809Y-195799523D01*
X149756904Y-195799523D01*
X149852142Y-195751904D01*
X149899761Y-195704285D01*
X149947380Y-195609047D01*
X149947380Y-195370952D01*
X149899761Y-195275714D01*
X149852142Y-195228095D01*
%TO.C,U4*%
X113742380Y-133728095D02*
X114551904Y-133728095D01*
X114647142Y-133775714D01*
X114694761Y-133823333D01*
X114742380Y-133918571D01*
X114742380Y-134109047D01*
X114694761Y-134204285D01*
X114647142Y-134251904D01*
X114551904Y-134299523D01*
X113742380Y-134299523D01*
X114075714Y-135204285D02*
X114742380Y-135204285D01*
X113694761Y-134966190D02*
X114409047Y-134728095D01*
X114409047Y-135347142D01*
%TO.C,R15*%
X49452380Y-90357142D02*
X48976190Y-90023809D01*
X49452380Y-89785714D02*
X48452380Y-89785714D01*
X48452380Y-90166666D01*
X48500000Y-90261904D01*
X48547619Y-90309523D01*
X48642857Y-90357142D01*
X48785714Y-90357142D01*
X48880952Y-90309523D01*
X48928571Y-90261904D01*
X48976190Y-90166666D01*
X48976190Y-89785714D01*
X49452380Y-91309523D02*
X49452380Y-90738095D01*
X49452380Y-91023809D02*
X48452380Y-91023809D01*
X48595238Y-90928571D01*
X48690476Y-90833333D01*
X48738095Y-90738095D01*
X48452380Y-92214285D02*
X48452380Y-91738095D01*
X48928571Y-91690476D01*
X48880952Y-91738095D01*
X48833333Y-91833333D01*
X48833333Y-92071428D01*
X48880952Y-92166666D01*
X48928571Y-92214285D01*
X49023809Y-92261904D01*
X49261904Y-92261904D01*
X49357142Y-92214285D01*
X49404761Y-92166666D01*
X49452380Y-92071428D01*
X49452380Y-91833333D01*
X49404761Y-91738095D01*
X49357142Y-91690476D01*
%TO.C,R13*%
X157917857Y-90452380D02*
X158251190Y-89976190D01*
X158489285Y-90452380D02*
X158489285Y-89452380D01*
X158108333Y-89452380D01*
X158013095Y-89500000D01*
X157965476Y-89547619D01*
X157917857Y-89642857D01*
X157917857Y-89785714D01*
X157965476Y-89880952D01*
X158013095Y-89928571D01*
X158108333Y-89976190D01*
X158489285Y-89976190D01*
X156965476Y-90452380D02*
X157536904Y-90452380D01*
X157251190Y-90452380D02*
X157251190Y-89452380D01*
X157346428Y-89595238D01*
X157441666Y-89690476D01*
X157536904Y-89738095D01*
X156632142Y-89452380D02*
X156013095Y-89452380D01*
X156346428Y-89833333D01*
X156203571Y-89833333D01*
X156108333Y-89880952D01*
X156060714Y-89928571D01*
X156013095Y-90023809D01*
X156013095Y-90261904D01*
X156060714Y-90357142D01*
X156108333Y-90404761D01*
X156203571Y-90452380D01*
X156489285Y-90452380D01*
X156584523Y-90404761D01*
X156632142Y-90357142D01*
%TO.C,C23*%
X169652042Y-141857142D02*
X169699661Y-141809523D01*
X169747280Y-141666666D01*
X169747280Y-141571428D01*
X169699661Y-141428571D01*
X169604423Y-141333333D01*
X169509185Y-141285714D01*
X169318709Y-141238095D01*
X169175852Y-141238095D01*
X168985376Y-141285714D01*
X168890138Y-141333333D01*
X168794900Y-141428571D01*
X168747280Y-141571428D01*
X168747280Y-141666666D01*
X168794900Y-141809523D01*
X168842519Y-141857142D01*
X168842519Y-142238095D02*
X168794900Y-142285714D01*
X168747280Y-142380952D01*
X168747280Y-142619047D01*
X168794900Y-142714285D01*
X168842519Y-142761904D01*
X168937757Y-142809523D01*
X169032995Y-142809523D01*
X169175852Y-142761904D01*
X169747280Y-142190476D01*
X169747280Y-142809523D01*
X168747280Y-143142857D02*
X168747280Y-143761904D01*
X169128233Y-143428571D01*
X169128233Y-143571428D01*
X169175852Y-143666666D01*
X169223471Y-143714285D01*
X169318709Y-143761904D01*
X169556804Y-143761904D01*
X169652042Y-143714285D01*
X169699661Y-143666666D01*
X169747280Y-143571428D01*
X169747280Y-143285714D01*
X169699661Y-143190476D01*
X169652042Y-143142857D01*
%TO.C,R9*%
X185202380Y-153333333D02*
X184726190Y-153000000D01*
X185202380Y-152761904D02*
X184202380Y-152761904D01*
X184202380Y-153142857D01*
X184250000Y-153238095D01*
X184297619Y-153285714D01*
X184392857Y-153333333D01*
X184535714Y-153333333D01*
X184630952Y-153285714D01*
X184678571Y-153238095D01*
X184726190Y-153142857D01*
X184726190Y-152761904D01*
X185202380Y-153809523D02*
X185202380Y-154000000D01*
X185154761Y-154095238D01*
X185107142Y-154142857D01*
X184964285Y-154238095D01*
X184773809Y-154285714D01*
X184392857Y-154285714D01*
X184297619Y-154238095D01*
X184250000Y-154190476D01*
X184202380Y-154095238D01*
X184202380Y-153904761D01*
X184250000Y-153809523D01*
X184297619Y-153761904D01*
X184392857Y-153714285D01*
X184630952Y-153714285D01*
X184726190Y-153761904D01*
X184773809Y-153809523D01*
X184821428Y-153904761D01*
X184821428Y-154095238D01*
X184773809Y-154190476D01*
X184726190Y-154238095D01*
X184630952Y-154285714D01*
%TO.C,R7*%
X203202380Y-153333333D02*
X202726190Y-153000000D01*
X203202380Y-152761904D02*
X202202380Y-152761904D01*
X202202380Y-153142857D01*
X202250000Y-153238095D01*
X202297619Y-153285714D01*
X202392857Y-153333333D01*
X202535714Y-153333333D01*
X202630952Y-153285714D01*
X202678571Y-153238095D01*
X202726190Y-153142857D01*
X202726190Y-152761904D01*
X202202380Y-153666666D02*
X202202380Y-154333333D01*
X203202380Y-153904761D01*
%TO.C,C21*%
X46857154Y-216357142D02*
X46904773Y-216309523D01*
X46952392Y-216166666D01*
X46952392Y-216071428D01*
X46904773Y-215928571D01*
X46809535Y-215833333D01*
X46714297Y-215785714D01*
X46523821Y-215738095D01*
X46380964Y-215738095D01*
X46190488Y-215785714D01*
X46095250Y-215833333D01*
X46000012Y-215928571D01*
X45952392Y-216071428D01*
X45952392Y-216166666D01*
X46000012Y-216309523D01*
X46047631Y-216357142D01*
X46047631Y-216738095D02*
X46000012Y-216785714D01*
X45952392Y-216880952D01*
X45952392Y-217119047D01*
X46000012Y-217214285D01*
X46047631Y-217261904D01*
X46142869Y-217309523D01*
X46238107Y-217309523D01*
X46380964Y-217261904D01*
X46952392Y-216690476D01*
X46952392Y-217309523D01*
X46952392Y-218261904D02*
X46952392Y-217690476D01*
X46952392Y-217976190D02*
X45952392Y-217976190D01*
X46095250Y-217880952D01*
X46190488Y-217785714D01*
X46238107Y-217690476D01*
%TO.C,U9*%
X203712380Y-135993095D02*
X204521904Y-135993095D01*
X204617142Y-136040714D01*
X204664761Y-136088333D01*
X204712380Y-136183571D01*
X204712380Y-136374047D01*
X204664761Y-136469285D01*
X204617142Y-136516904D01*
X204521904Y-136564523D01*
X203712380Y-136564523D01*
X204712380Y-137088333D02*
X204712380Y-137278809D01*
X204664761Y-137374047D01*
X204617142Y-137421666D01*
X204474285Y-137516904D01*
X204283809Y-137564523D01*
X203902857Y-137564523D01*
X203807619Y-137516904D01*
X203760000Y-137469285D01*
X203712380Y-137374047D01*
X203712380Y-137183571D01*
X203760000Y-137088333D01*
X203807619Y-137040714D01*
X203902857Y-136993095D01*
X204140952Y-136993095D01*
X204236190Y-137040714D01*
X204283809Y-137088333D01*
X204331428Y-137183571D01*
X204331428Y-137374047D01*
X204283809Y-137469285D01*
X204236190Y-137516904D01*
X204140952Y-137564523D01*
%TO.C,C12*%
X124357142Y-209857142D02*
X124404761Y-209809523D01*
X124452380Y-209666666D01*
X124452380Y-209571428D01*
X124404761Y-209428571D01*
X124309523Y-209333333D01*
X124214285Y-209285714D01*
X124023809Y-209238095D01*
X123880952Y-209238095D01*
X123690476Y-209285714D01*
X123595238Y-209333333D01*
X123500000Y-209428571D01*
X123452380Y-209571428D01*
X123452380Y-209666666D01*
X123500000Y-209809523D01*
X123547619Y-209857142D01*
X124452380Y-210809523D02*
X124452380Y-210238095D01*
X124452380Y-210523809D02*
X123452380Y-210523809D01*
X123595238Y-210428571D01*
X123690476Y-210333333D01*
X123738095Y-210238095D01*
X123547619Y-211190476D02*
X123500000Y-211238095D01*
X123452380Y-211333333D01*
X123452380Y-211571428D01*
X123500000Y-211666666D01*
X123547619Y-211714285D01*
X123642857Y-211761904D01*
X123738095Y-211761904D01*
X123880952Y-211714285D01*
X124452380Y-211142857D01*
X124452380Y-211761904D01*
%TO.C,U10*%
X203712380Y-115016904D02*
X204521904Y-115016904D01*
X204617142Y-115064523D01*
X204664761Y-115112142D01*
X204712380Y-115207380D01*
X204712380Y-115397857D01*
X204664761Y-115493095D01*
X204617142Y-115540714D01*
X204521904Y-115588333D01*
X203712380Y-115588333D01*
X204712380Y-116588333D02*
X204712380Y-116016904D01*
X204712380Y-116302619D02*
X203712380Y-116302619D01*
X203855238Y-116207380D01*
X203950476Y-116112142D01*
X203998095Y-116016904D01*
X203712380Y-117207380D02*
X203712380Y-117302619D01*
X203760000Y-117397857D01*
X203807619Y-117445476D01*
X203902857Y-117493095D01*
X204093333Y-117540714D01*
X204331428Y-117540714D01*
X204521904Y-117493095D01*
X204617142Y-117445476D01*
X204664761Y-117397857D01*
X204712380Y-117302619D01*
X204712380Y-117207380D01*
X204664761Y-117112142D01*
X204617142Y-117064523D01*
X204521904Y-117016904D01*
X204331428Y-116969285D01*
X204093333Y-116969285D01*
X203902857Y-117016904D01*
X203807619Y-117064523D01*
X203760000Y-117112142D01*
X203712380Y-117207380D01*
%TO.C,C19*%
X147917857Y-102607142D02*
X147965476Y-102654761D01*
X148108333Y-102702380D01*
X148203571Y-102702380D01*
X148346428Y-102654761D01*
X148441666Y-102559523D01*
X148489285Y-102464285D01*
X148536904Y-102273809D01*
X148536904Y-102130952D01*
X148489285Y-101940476D01*
X148441666Y-101845238D01*
X148346428Y-101750000D01*
X148203571Y-101702380D01*
X148108333Y-101702380D01*
X147965476Y-101750000D01*
X147917857Y-101797619D01*
X146965476Y-102702380D02*
X147536904Y-102702380D01*
X147251190Y-102702380D02*
X147251190Y-101702380D01*
X147346428Y-101845238D01*
X147441666Y-101940476D01*
X147536904Y-101988095D01*
X146489285Y-102702380D02*
X146298809Y-102702380D01*
X146203571Y-102654761D01*
X146155952Y-102607142D01*
X146060714Y-102464285D01*
X146013095Y-102273809D01*
X146013095Y-101892857D01*
X146060714Y-101797619D01*
X146108333Y-101750000D01*
X146203571Y-101702380D01*
X146394047Y-101702380D01*
X146489285Y-101750000D01*
X146536904Y-101797619D01*
X146584523Y-101892857D01*
X146584523Y-102130952D01*
X146536904Y-102226190D01*
X146489285Y-102273809D01*
X146394047Y-102321428D01*
X146203571Y-102321428D01*
X146108333Y-102273809D01*
X146060714Y-102226190D01*
X146013095Y-102130952D01*
%TO.C,R16*%
X137917857Y-90452380D02*
X138251190Y-89976190D01*
X138489285Y-90452380D02*
X138489285Y-89452380D01*
X138108333Y-89452380D01*
X138013095Y-89500000D01*
X137965476Y-89547619D01*
X137917857Y-89642857D01*
X137917857Y-89785714D01*
X137965476Y-89880952D01*
X138013095Y-89928571D01*
X138108333Y-89976190D01*
X138489285Y-89976190D01*
X136965476Y-90452380D02*
X137536904Y-90452380D01*
X137251190Y-90452380D02*
X137251190Y-89452380D01*
X137346428Y-89595238D01*
X137441666Y-89690476D01*
X137536904Y-89738095D01*
X136108333Y-89452380D02*
X136298809Y-89452380D01*
X136394047Y-89500000D01*
X136441666Y-89547619D01*
X136536904Y-89690476D01*
X136584523Y-89880952D01*
X136584523Y-90261904D01*
X136536904Y-90357142D01*
X136489285Y-90404761D01*
X136394047Y-90452380D01*
X136203571Y-90452380D01*
X136108333Y-90404761D01*
X136060714Y-90357142D01*
X136013095Y-90261904D01*
X136013095Y-90023809D01*
X136060714Y-89928571D01*
X136108333Y-89880952D01*
X136203571Y-89833333D01*
X136394047Y-89833333D01*
X136489285Y-89880952D01*
X136536904Y-89928571D01*
X136584523Y-90023809D01*
%TO.C,R6*%
X215202380Y-153333333D02*
X214726190Y-153000000D01*
X215202380Y-152761904D02*
X214202380Y-152761904D01*
X214202380Y-153142857D01*
X214250000Y-153238095D01*
X214297619Y-153285714D01*
X214392857Y-153333333D01*
X214535714Y-153333333D01*
X214630952Y-153285714D01*
X214678571Y-153238095D01*
X214726190Y-153142857D01*
X214726190Y-152761904D01*
X214202380Y-154190476D02*
X214202380Y-154000000D01*
X214250000Y-153904761D01*
X214297619Y-153857142D01*
X214440476Y-153761904D01*
X214630952Y-153714285D01*
X215011904Y-153714285D01*
X215107142Y-153761904D01*
X215154761Y-153809523D01*
X215202380Y-153904761D01*
X215202380Y-154095238D01*
X215154761Y-154190476D01*
X215107142Y-154238095D01*
X215011904Y-154285714D01*
X214773809Y-154285714D01*
X214678571Y-154238095D01*
X214630952Y-154190476D01*
X214583333Y-154095238D01*
X214583333Y-153904761D01*
X214630952Y-153809523D01*
X214678571Y-153761904D01*
X214773809Y-153714285D01*
%TO.C,C24*%
X124927042Y-170107142D02*
X124974661Y-170059523D01*
X125022280Y-169916666D01*
X125022280Y-169821428D01*
X124974661Y-169678571D01*
X124879423Y-169583333D01*
X124784185Y-169535714D01*
X124593709Y-169488095D01*
X124450852Y-169488095D01*
X124260376Y-169535714D01*
X124165138Y-169583333D01*
X124069900Y-169678571D01*
X124022280Y-169821428D01*
X124022280Y-169916666D01*
X124069900Y-170059523D01*
X124117519Y-170107142D01*
X124117519Y-170488095D02*
X124069900Y-170535714D01*
X124022280Y-170630952D01*
X124022280Y-170869047D01*
X124069900Y-170964285D01*
X124117519Y-171011904D01*
X124212757Y-171059523D01*
X124307995Y-171059523D01*
X124450852Y-171011904D01*
X125022280Y-170440476D01*
X125022280Y-171059523D01*
X124355614Y-171916666D02*
X125022280Y-171916666D01*
X123974661Y-171678571D02*
X124688947Y-171440476D01*
X124688947Y-172059523D01*
%TO.C,J3*%
X53957380Y-114656666D02*
X54671666Y-114656666D01*
X54814523Y-114609047D01*
X54909761Y-114513809D01*
X54957380Y-114370952D01*
X54957380Y-114275714D01*
X53957380Y-115037619D02*
X53957380Y-115656666D01*
X54338333Y-115323333D01*
X54338333Y-115466190D01*
X54385952Y-115561428D01*
X54433571Y-115609047D01*
X54528809Y-115656666D01*
X54766904Y-115656666D01*
X54862142Y-115609047D01*
X54909761Y-115561428D01*
X54957380Y-115466190D01*
X54957380Y-115180476D01*
X54909761Y-115085238D01*
X54862142Y-115037619D01*
%TO.C,P4*%
X62952380Y-218261904D02*
X61952380Y-218261904D01*
X61952380Y-218642857D01*
X62000000Y-218738095D01*
X62047619Y-218785714D01*
X62142857Y-218833333D01*
X62285714Y-218833333D01*
X62380952Y-218785714D01*
X62428571Y-218738095D01*
X62476190Y-218642857D01*
X62476190Y-218261904D01*
X62285714Y-219690476D02*
X62952380Y-219690476D01*
X61904761Y-219452380D02*
X62619047Y-219214285D01*
X62619047Y-219833333D01*
%TO.C,R2*%
X221202380Y-153333333D02*
X220726190Y-153000000D01*
X221202380Y-152761904D02*
X220202380Y-152761904D01*
X220202380Y-153142857D01*
X220250000Y-153238095D01*
X220297619Y-153285714D01*
X220392857Y-153333333D01*
X220535714Y-153333333D01*
X220630952Y-153285714D01*
X220678571Y-153238095D01*
X220726190Y-153142857D01*
X220726190Y-152761904D01*
X220297619Y-153714285D02*
X220250000Y-153761904D01*
X220202380Y-153857142D01*
X220202380Y-154095238D01*
X220250000Y-154190476D01*
X220297619Y-154238095D01*
X220392857Y-154285714D01*
X220488095Y-154285714D01*
X220630952Y-154238095D01*
X221202380Y-153666666D01*
X221202380Y-154285714D01*
%TO.C,SW1*%
X187154761Y-191666666D02*
X187202380Y-191809523D01*
X187202380Y-192047619D01*
X187154761Y-192142857D01*
X187107142Y-192190476D01*
X187011904Y-192238095D01*
X186916666Y-192238095D01*
X186821428Y-192190476D01*
X186773809Y-192142857D01*
X186726190Y-192047619D01*
X186678571Y-191857142D01*
X186630952Y-191761904D01*
X186583333Y-191714285D01*
X186488095Y-191666666D01*
X186392857Y-191666666D01*
X186297619Y-191714285D01*
X186250000Y-191761904D01*
X186202380Y-191857142D01*
X186202380Y-192095238D01*
X186250000Y-192238095D01*
X186202380Y-192571428D02*
X187202380Y-192809523D01*
X186488095Y-193000000D01*
X187202380Y-193190476D01*
X186202380Y-193428571D01*
X187202380Y-194333333D02*
X187202380Y-193761904D01*
X187202380Y-194047619D02*
X186202380Y-194047619D01*
X186345238Y-193952380D01*
X186440476Y-193857142D01*
X186488095Y-193761904D01*
%TO.C,J1*%
X50197380Y-150656666D02*
X50911666Y-150656666D01*
X51054523Y-150609047D01*
X51149761Y-150513809D01*
X51197380Y-150370952D01*
X51197380Y-150275714D01*
X51197380Y-151656666D02*
X51197380Y-151085238D01*
X51197380Y-151370952D02*
X50197380Y-151370952D01*
X50340238Y-151275714D01*
X50435476Y-151180476D01*
X50483095Y-151085238D01*
%TO.C,R10*%
X147917857Y-96452380D02*
X148251190Y-95976190D01*
X148489285Y-96452380D02*
X148489285Y-95452380D01*
X148108333Y-95452380D01*
X148013095Y-95500000D01*
X147965476Y-95547619D01*
X147917857Y-95642857D01*
X147917857Y-95785714D01*
X147965476Y-95880952D01*
X148013095Y-95928571D01*
X148108333Y-95976190D01*
X148489285Y-95976190D01*
X146965476Y-96452380D02*
X147536904Y-96452380D01*
X147251190Y-96452380D02*
X147251190Y-95452380D01*
X147346428Y-95595238D01*
X147441666Y-95690476D01*
X147536904Y-95738095D01*
X146346428Y-95452380D02*
X146251190Y-95452380D01*
X146155952Y-95500000D01*
X146108333Y-95547619D01*
X146060714Y-95642857D01*
X146013095Y-95833333D01*
X146013095Y-96071428D01*
X146060714Y-96261904D01*
X146108333Y-96357142D01*
X146155952Y-96404761D01*
X146251190Y-96452380D01*
X146346428Y-96452380D01*
X146441666Y-96404761D01*
X146489285Y-96357142D01*
X146536904Y-96261904D01*
X146584523Y-96071428D01*
X146584523Y-95833333D01*
X146536904Y-95642857D01*
X146489285Y-95547619D01*
X146441666Y-95500000D01*
X146346428Y-95452380D01*
%TO.C,C25*%
X130382154Y-108857142D02*
X130429773Y-108809523D01*
X130477392Y-108666666D01*
X130477392Y-108571428D01*
X130429773Y-108428571D01*
X130334535Y-108333333D01*
X130239297Y-108285714D01*
X130048821Y-108238095D01*
X129905964Y-108238095D01*
X129715488Y-108285714D01*
X129620250Y-108333333D01*
X129525012Y-108428571D01*
X129477392Y-108571428D01*
X129477392Y-108666666D01*
X129525012Y-108809523D01*
X129572631Y-108857142D01*
X129572631Y-109238095D02*
X129525012Y-109285714D01*
X129477392Y-109380952D01*
X129477392Y-109619047D01*
X129525012Y-109714285D01*
X129572631Y-109761904D01*
X129667869Y-109809523D01*
X129763107Y-109809523D01*
X129905964Y-109761904D01*
X130477392Y-109190476D01*
X130477392Y-109809523D01*
X129477392Y-110714285D02*
X129477392Y-110238095D01*
X129953583Y-110190476D01*
X129905964Y-110238095D01*
X129858345Y-110333333D01*
X129858345Y-110571428D01*
X129905964Y-110666666D01*
X129953583Y-110714285D01*
X130048821Y-110761904D01*
X130286916Y-110761904D01*
X130382154Y-110714285D01*
X130429773Y-110666666D01*
X130477392Y-110571428D01*
X130477392Y-110333333D01*
X130429773Y-110238095D01*
X130382154Y-110190476D01*
%TO.C,C13*%
X134607142Y-132857142D02*
X134654761Y-132809523D01*
X134702380Y-132666666D01*
X134702380Y-132571428D01*
X134654761Y-132428571D01*
X134559523Y-132333333D01*
X134464285Y-132285714D01*
X134273809Y-132238095D01*
X134130952Y-132238095D01*
X133940476Y-132285714D01*
X133845238Y-132333333D01*
X133750000Y-132428571D01*
X133702380Y-132571428D01*
X133702380Y-132666666D01*
X133750000Y-132809523D01*
X133797619Y-132857142D01*
X134702380Y-133809523D02*
X134702380Y-133238095D01*
X134702380Y-133523809D02*
X133702380Y-133523809D01*
X133845238Y-133428571D01*
X133940476Y-133333333D01*
X133988095Y-133238095D01*
X133702380Y-134142857D02*
X133702380Y-134761904D01*
X134083333Y-134428571D01*
X134083333Y-134571428D01*
X134130952Y-134666666D01*
X134178571Y-134714285D01*
X134273809Y-134761904D01*
X134511904Y-134761904D01*
X134607142Y-134714285D01*
X134654761Y-134666666D01*
X134702380Y-134571428D01*
X134702380Y-134285714D01*
X134654761Y-134190476D01*
X134607142Y-134142857D01*
%TO.C,J6*%
X53957380Y-102656666D02*
X54671666Y-102656666D01*
X54814523Y-102609047D01*
X54909761Y-102513809D01*
X54957380Y-102370952D01*
X54957380Y-102275714D01*
X53957380Y-103561428D02*
X53957380Y-103370952D01*
X54005000Y-103275714D01*
X54052619Y-103228095D01*
X54195476Y-103132857D01*
X54385952Y-103085238D01*
X54766904Y-103085238D01*
X54862142Y-103132857D01*
X54909761Y-103180476D01*
X54957380Y-103275714D01*
X54957380Y-103466190D01*
X54909761Y-103561428D01*
X54862142Y-103609047D01*
X54766904Y-103656666D01*
X54528809Y-103656666D01*
X54433571Y-103609047D01*
X54385952Y-103561428D01*
X54338333Y-103466190D01*
X54338333Y-103275714D01*
X54385952Y-103180476D01*
X54433571Y-103132857D01*
X54528809Y-103085238D01*
%TO.C,H3*%
X171702380Y-107738095D02*
X170702380Y-107738095D01*
X171178571Y-107738095D02*
X171178571Y-108309523D01*
X171702380Y-108309523D02*
X170702380Y-108309523D01*
X170702380Y-108690476D02*
X170702380Y-109309523D01*
X171083333Y-108976190D01*
X171083333Y-109119047D01*
X171130952Y-109214285D01*
X171178571Y-109261904D01*
X171273809Y-109309523D01*
X171511904Y-109309523D01*
X171607142Y-109261904D01*
X171654761Y-109214285D01*
X171702380Y-109119047D01*
X171702380Y-108833333D01*
X171654761Y-108738095D01*
X171607142Y-108690476D01*
%TO.C,C3*%
X100882142Y-123333333D02*
X100929761Y-123285714D01*
X100977380Y-123142857D01*
X100977380Y-123047619D01*
X100929761Y-122904761D01*
X100834523Y-122809523D01*
X100739285Y-122761904D01*
X100548809Y-122714285D01*
X100405952Y-122714285D01*
X100215476Y-122761904D01*
X100120238Y-122809523D01*
X100025000Y-122904761D01*
X99977380Y-123047619D01*
X99977380Y-123142857D01*
X100025000Y-123285714D01*
X100072619Y-123333333D01*
X99977380Y-123666666D02*
X99977380Y-124285714D01*
X100358333Y-123952380D01*
X100358333Y-124095238D01*
X100405952Y-124190476D01*
X100453571Y-124238095D01*
X100548809Y-124285714D01*
X100786904Y-124285714D01*
X100882142Y-124238095D01*
X100929761Y-124190476D01*
X100977380Y-124095238D01*
X100977380Y-123809523D01*
X100929761Y-123714285D01*
X100882142Y-123666666D01*
%TO.C,U7*%
X215207380Y-208228095D02*
X216016904Y-208228095D01*
X216112142Y-208275714D01*
X216159761Y-208323333D01*
X216207380Y-208418571D01*
X216207380Y-208609047D01*
X216159761Y-208704285D01*
X216112142Y-208751904D01*
X216016904Y-208799523D01*
X215207380Y-208799523D01*
X215207380Y-209180476D02*
X215207380Y-209847142D01*
X216207380Y-209418571D01*
%TO.C,J4*%
X50197380Y-162656666D02*
X50911666Y-162656666D01*
X51054523Y-162609047D01*
X51149761Y-162513809D01*
X51197380Y-162370952D01*
X51197380Y-162275714D01*
X50530714Y-163561428D02*
X51197380Y-163561428D01*
X50149761Y-163323333D02*
X50864047Y-163085238D01*
X50864047Y-163704285D01*
%TO.C,C17*%
X75857142Y-209857142D02*
X75904761Y-209809523D01*
X75952380Y-209666666D01*
X75952380Y-209571428D01*
X75904761Y-209428571D01*
X75809523Y-209333333D01*
X75714285Y-209285714D01*
X75523809Y-209238095D01*
X75380952Y-209238095D01*
X75190476Y-209285714D01*
X75095238Y-209333333D01*
X75000000Y-209428571D01*
X74952380Y-209571428D01*
X74952380Y-209666666D01*
X75000000Y-209809523D01*
X75047619Y-209857142D01*
X75952380Y-210809523D02*
X75952380Y-210238095D01*
X75952380Y-210523809D02*
X74952380Y-210523809D01*
X75095238Y-210428571D01*
X75190476Y-210333333D01*
X75238095Y-210238095D01*
X74952380Y-211142857D02*
X74952380Y-211809523D01*
X75952380Y-211380952D01*
%TO.C,C26*%
X160427042Y-83357142D02*
X160474661Y-83309523D01*
X160522280Y-83166666D01*
X160522280Y-83071428D01*
X160474661Y-82928571D01*
X160379423Y-82833333D01*
X160284185Y-82785714D01*
X160093709Y-82738095D01*
X159950852Y-82738095D01*
X159760376Y-82785714D01*
X159665138Y-82833333D01*
X159569900Y-82928571D01*
X159522280Y-83071428D01*
X159522280Y-83166666D01*
X159569900Y-83309523D01*
X159617519Y-83357142D01*
X159617519Y-83738095D02*
X159569900Y-83785714D01*
X159522280Y-83880952D01*
X159522280Y-84119047D01*
X159569900Y-84214285D01*
X159617519Y-84261904D01*
X159712757Y-84309523D01*
X159807995Y-84309523D01*
X159950852Y-84261904D01*
X160522280Y-83690476D01*
X160522280Y-84309523D01*
X159522280Y-85166666D02*
X159522280Y-84976190D01*
X159569900Y-84880952D01*
X159617519Y-84833333D01*
X159760376Y-84738095D01*
X159950852Y-84690476D01*
X160331804Y-84690476D01*
X160427042Y-84738095D01*
X160474661Y-84785714D01*
X160522280Y-84880952D01*
X160522280Y-85071428D01*
X160474661Y-85166666D01*
X160427042Y-85214285D01*
X160331804Y-85261904D01*
X160093709Y-85261904D01*
X159998471Y-85214285D01*
X159950852Y-85166666D01*
X159903233Y-85071428D01*
X159903233Y-84880952D01*
X159950852Y-84785714D01*
X159998471Y-84738095D01*
X160093709Y-84690476D01*
%TO.C,U2*%
X145947380Y-143728095D02*
X146756904Y-143728095D01*
X146852142Y-143775714D01*
X146899761Y-143823333D01*
X146947380Y-143918571D01*
X146947380Y-144109047D01*
X146899761Y-144204285D01*
X146852142Y-144251904D01*
X146756904Y-144299523D01*
X145947380Y-144299523D01*
X146042619Y-144728095D02*
X145995000Y-144775714D01*
X145947380Y-144870952D01*
X145947380Y-145109047D01*
X145995000Y-145204285D01*
X146042619Y-145251904D01*
X146137857Y-145299523D01*
X146233095Y-145299523D01*
X146375952Y-145251904D01*
X146947380Y-144680476D01*
X146947380Y-145299523D01*
%TO.C,C1*%
X137357142Y-196333333D02*
X137404761Y-196285714D01*
X137452380Y-196142857D01*
X137452380Y-196047619D01*
X137404761Y-195904761D01*
X137309523Y-195809523D01*
X137214285Y-195761904D01*
X137023809Y-195714285D01*
X136880952Y-195714285D01*
X136690476Y-195761904D01*
X136595238Y-195809523D01*
X136500000Y-195904761D01*
X136452380Y-196047619D01*
X136452380Y-196142857D01*
X136500000Y-196285714D01*
X136547619Y-196333333D01*
X137452380Y-197285714D02*
X137452380Y-196714285D01*
X137452380Y-197000000D02*
X136452380Y-197000000D01*
X136595238Y-196904761D01*
X136690476Y-196809523D01*
X136738095Y-196714285D01*
%TO.C,C4*%
X199857142Y-210083333D02*
X199904761Y-210035714D01*
X199952380Y-209892857D01*
X199952380Y-209797619D01*
X199904761Y-209654761D01*
X199809523Y-209559523D01*
X199714285Y-209511904D01*
X199523809Y-209464285D01*
X199380952Y-209464285D01*
X199190476Y-209511904D01*
X199095238Y-209559523D01*
X199000000Y-209654761D01*
X198952380Y-209797619D01*
X198952380Y-209892857D01*
X199000000Y-210035714D01*
X199047619Y-210083333D01*
X199285714Y-210940476D02*
X199952380Y-210940476D01*
X198904761Y-210702380D02*
X199619047Y-210464285D01*
X199619047Y-211083333D01*
%TO.C,C2*%
X101132142Y-148333333D02*
X101179761Y-148285714D01*
X101227380Y-148142857D01*
X101227380Y-148047619D01*
X101179761Y-147904761D01*
X101084523Y-147809523D01*
X100989285Y-147761904D01*
X100798809Y-147714285D01*
X100655952Y-147714285D01*
X100465476Y-147761904D01*
X100370238Y-147809523D01*
X100275000Y-147904761D01*
X100227380Y-148047619D01*
X100227380Y-148142857D01*
X100275000Y-148285714D01*
X100322619Y-148333333D01*
X100322619Y-148714285D02*
X100275000Y-148761904D01*
X100227380Y-148857142D01*
X100227380Y-149095238D01*
X100275000Y-149190476D01*
X100322619Y-149238095D01*
X100417857Y-149285714D01*
X100513095Y-149285714D01*
X100655952Y-149238095D01*
X101227380Y-148666666D01*
X101227380Y-149285714D01*
%TO.C,J8*%
X178083333Y-129452380D02*
X178083333Y-130166666D01*
X178130952Y-130309523D01*
X178226190Y-130404761D01*
X178369047Y-130452380D01*
X178464285Y-130452380D01*
X177464285Y-129880952D02*
X177559523Y-129833333D01*
X177607142Y-129785714D01*
X177654761Y-129690476D01*
X177654761Y-129642857D01*
X177607142Y-129547619D01*
X177559523Y-129500000D01*
X177464285Y-129452380D01*
X177273809Y-129452380D01*
X177178571Y-129500000D01*
X177130952Y-129547619D01*
X177083333Y-129642857D01*
X177083333Y-129690476D01*
X177130952Y-129785714D01*
X177178571Y-129833333D01*
X177273809Y-129880952D01*
X177464285Y-129880952D01*
X177559523Y-129928571D01*
X177607142Y-129976190D01*
X177654761Y-130071428D01*
X177654761Y-130261904D01*
X177607142Y-130357142D01*
X177559523Y-130404761D01*
X177464285Y-130452380D01*
X177273809Y-130452380D01*
X177178571Y-130404761D01*
X177130952Y-130357142D01*
X177083333Y-130261904D01*
X177083333Y-130071428D01*
X177130952Y-129976190D01*
X177178571Y-129928571D01*
X177273809Y-129880952D01*
%TO.C,U11*%
X149707380Y-118251904D02*
X150516904Y-118251904D01*
X150612142Y-118299523D01*
X150659761Y-118347142D01*
X150707380Y-118442380D01*
X150707380Y-118632857D01*
X150659761Y-118728095D01*
X150612142Y-118775714D01*
X150516904Y-118823333D01*
X149707380Y-118823333D01*
X150707380Y-119823333D02*
X150707380Y-119251904D01*
X150707380Y-119537619D02*
X149707380Y-119537619D01*
X149850238Y-119442380D01*
X149945476Y-119347142D01*
X149993095Y-119251904D01*
X150707380Y-120775714D02*
X150707380Y-120204285D01*
X150707380Y-120490000D02*
X149707380Y-120490000D01*
X149850238Y-120394761D01*
X149945476Y-120299523D01*
X149993095Y-120204285D01*
%TO.C,U15*%
X91457380Y-207751904D02*
X92266904Y-207751904D01*
X92362142Y-207799523D01*
X92409761Y-207847142D01*
X92457380Y-207942380D01*
X92457380Y-208132857D01*
X92409761Y-208228095D01*
X92362142Y-208275714D01*
X92266904Y-208323333D01*
X91457380Y-208323333D01*
X92457380Y-209323333D02*
X92457380Y-208751904D01*
X92457380Y-209037619D02*
X91457380Y-209037619D01*
X91600238Y-208942380D01*
X91695476Y-208847142D01*
X91743095Y-208751904D01*
X91457380Y-210228095D02*
X91457380Y-209751904D01*
X91933571Y-209704285D01*
X91885952Y-209751904D01*
X91838333Y-209847142D01*
X91838333Y-210085238D01*
X91885952Y-210180476D01*
X91933571Y-210228095D01*
X92028809Y-210275714D01*
X92266904Y-210275714D01*
X92362142Y-210228095D01*
X92409761Y-210180476D01*
X92457380Y-210085238D01*
X92457380Y-209847142D01*
X92409761Y-209751904D01*
X92362142Y-209704285D01*
%TO.C,C5*%
X157441666Y-102607142D02*
X157489285Y-102654761D01*
X157632142Y-102702380D01*
X157727380Y-102702380D01*
X157870238Y-102654761D01*
X157965476Y-102559523D01*
X158013095Y-102464285D01*
X158060714Y-102273809D01*
X158060714Y-102130952D01*
X158013095Y-101940476D01*
X157965476Y-101845238D01*
X157870238Y-101750000D01*
X157727380Y-101702380D01*
X157632142Y-101702380D01*
X157489285Y-101750000D01*
X157441666Y-101797619D01*
X156536904Y-101702380D02*
X157013095Y-101702380D01*
X157060714Y-102178571D01*
X157013095Y-102130952D01*
X156917857Y-102083333D01*
X156679761Y-102083333D01*
X156584523Y-102130952D01*
X156536904Y-102178571D01*
X156489285Y-102273809D01*
X156489285Y-102511904D01*
X156536904Y-102607142D01*
X156584523Y-102654761D01*
X156679761Y-102702380D01*
X156917857Y-102702380D01*
X157013095Y-102654761D01*
X157060714Y-102607142D01*
%TO.C,U3*%
X145947380Y-131478095D02*
X146756904Y-131478095D01*
X146852142Y-131525714D01*
X146899761Y-131573333D01*
X146947380Y-131668571D01*
X146947380Y-131859047D01*
X146899761Y-131954285D01*
X146852142Y-132001904D01*
X146756904Y-132049523D01*
X145947380Y-132049523D01*
X145947380Y-132430476D02*
X145947380Y-133049523D01*
X146328333Y-132716190D01*
X146328333Y-132859047D01*
X146375952Y-132954285D01*
X146423571Y-133001904D01*
X146518809Y-133049523D01*
X146756904Y-133049523D01*
X146852142Y-133001904D01*
X146899761Y-132954285D01*
X146947380Y-132859047D01*
X146947380Y-132573333D01*
X146899761Y-132478095D01*
X146852142Y-132430476D01*
%TO.C,Q2*%
X134047619Y-83404761D02*
X134000000Y-83309523D01*
X133904761Y-83214285D01*
X133761904Y-83071428D01*
X133714285Y-82976190D01*
X133714285Y-82880952D01*
X133952380Y-82928571D02*
X133904761Y-82833333D01*
X133809523Y-82738095D01*
X133619047Y-82690476D01*
X133285714Y-82690476D01*
X133095238Y-82738095D01*
X133000000Y-82833333D01*
X132952380Y-82928571D01*
X132952380Y-83119047D01*
X133000000Y-83214285D01*
X133095238Y-83309523D01*
X133285714Y-83357142D01*
X133619047Y-83357142D01*
X133809523Y-83309523D01*
X133904761Y-83214285D01*
X133952380Y-83119047D01*
X133952380Y-82928571D01*
X133047619Y-83738095D02*
X133000000Y-83785714D01*
X132952380Y-83880952D01*
X132952380Y-84119047D01*
X133000000Y-84214285D01*
X133047619Y-84261904D01*
X133142857Y-84309523D01*
X133238095Y-84309523D01*
X133380952Y-84261904D01*
X133952380Y-83690476D01*
X133952380Y-84309523D01*
%TO.C,R14*%
X157977857Y-96452380D02*
X158311190Y-95976190D01*
X158549285Y-96452380D02*
X158549285Y-95452380D01*
X158168333Y-95452380D01*
X158073095Y-95500000D01*
X158025476Y-95547619D01*
X157977857Y-95642857D01*
X157977857Y-95785714D01*
X158025476Y-95880952D01*
X158073095Y-95928571D01*
X158168333Y-95976190D01*
X158549285Y-95976190D01*
X157025476Y-96452380D02*
X157596904Y-96452380D01*
X157311190Y-96452380D02*
X157311190Y-95452380D01*
X157406428Y-95595238D01*
X157501666Y-95690476D01*
X157596904Y-95738095D01*
X156168333Y-95785714D02*
X156168333Y-96452380D01*
X156406428Y-95404761D02*
X156644523Y-96119047D01*
X156025476Y-96119047D01*
%TO.C,Q1*%
X144047619Y-83604761D02*
X144000000Y-83509523D01*
X143904761Y-83414285D01*
X143761904Y-83271428D01*
X143714285Y-83176190D01*
X143714285Y-83080952D01*
X143952380Y-83128571D02*
X143904761Y-83033333D01*
X143809523Y-82938095D01*
X143619047Y-82890476D01*
X143285714Y-82890476D01*
X143095238Y-82938095D01*
X143000000Y-83033333D01*
X142952380Y-83128571D01*
X142952380Y-83319047D01*
X143000000Y-83414285D01*
X143095238Y-83509523D01*
X143285714Y-83557142D01*
X143619047Y-83557142D01*
X143809523Y-83509523D01*
X143904761Y-83414285D01*
X143952380Y-83319047D01*
X143952380Y-83128571D01*
X143952380Y-84509523D02*
X143952380Y-83938095D01*
X143952380Y-84223809D02*
X142952380Y-84223809D01*
X143095238Y-84128571D01*
X143190476Y-84033333D01*
X143238095Y-83938095D01*
%TO.C,C28*%
X137917857Y-102607142D02*
X137965476Y-102654761D01*
X138108333Y-102702380D01*
X138203571Y-102702380D01*
X138346428Y-102654761D01*
X138441666Y-102559523D01*
X138489285Y-102464285D01*
X138536904Y-102273809D01*
X138536904Y-102130952D01*
X138489285Y-101940476D01*
X138441666Y-101845238D01*
X138346428Y-101750000D01*
X138203571Y-101702380D01*
X138108333Y-101702380D01*
X137965476Y-101750000D01*
X137917857Y-101797619D01*
X137536904Y-101797619D02*
X137489285Y-101750000D01*
X137394047Y-101702380D01*
X137155952Y-101702380D01*
X137060714Y-101750000D01*
X137013095Y-101797619D01*
X136965476Y-101892857D01*
X136965476Y-101988095D01*
X137013095Y-102130952D01*
X137584523Y-102702380D01*
X136965476Y-102702380D01*
X136394047Y-102130952D02*
X136489285Y-102083333D01*
X136536904Y-102035714D01*
X136584523Y-101940476D01*
X136584523Y-101892857D01*
X136536904Y-101797619D01*
X136489285Y-101750000D01*
X136394047Y-101702380D01*
X136203571Y-101702380D01*
X136108333Y-101750000D01*
X136060714Y-101797619D01*
X136013095Y-101892857D01*
X136013095Y-101940476D01*
X136060714Y-102035714D01*
X136108333Y-102083333D01*
X136203571Y-102130952D01*
X136394047Y-102130952D01*
X136489285Y-102178571D01*
X136536904Y-102226190D01*
X136584523Y-102321428D01*
X136584523Y-102511904D01*
X136536904Y-102607142D01*
X136489285Y-102654761D01*
X136394047Y-102702380D01*
X136203571Y-102702380D01*
X136108333Y-102654761D01*
X136060714Y-102607142D01*
X136013095Y-102511904D01*
X136013095Y-102321428D01*
X136060714Y-102226190D01*
X136108333Y-102178571D01*
X136203571Y-102130952D01*
%TO.C,C6*%
X100132142Y-162333333D02*
X100179761Y-162285714D01*
X100227380Y-162142857D01*
X100227380Y-162047619D01*
X100179761Y-161904761D01*
X100084523Y-161809523D01*
X99989285Y-161761904D01*
X99798809Y-161714285D01*
X99655952Y-161714285D01*
X99465476Y-161761904D01*
X99370238Y-161809523D01*
X99275000Y-161904761D01*
X99227380Y-162047619D01*
X99227380Y-162142857D01*
X99275000Y-162285714D01*
X99322619Y-162333333D01*
X99227380Y-163190476D02*
X99227380Y-163000000D01*
X99275000Y-162904761D01*
X99322619Y-162857142D01*
X99465476Y-162761904D01*
X99655952Y-162714285D01*
X100036904Y-162714285D01*
X100132142Y-162761904D01*
X100179761Y-162809523D01*
X100227380Y-162904761D01*
X100227380Y-163095238D01*
X100179761Y-163190476D01*
X100132142Y-163238095D01*
X100036904Y-163285714D01*
X99798809Y-163285714D01*
X99703571Y-163238095D01*
X99655952Y-163190476D01*
X99608333Y-163095238D01*
X99608333Y-162904761D01*
X99655952Y-162809523D01*
X99703571Y-162761904D01*
X99798809Y-162714285D01*
%TO.C,RN1*%
X189452380Y-199614523D02*
X188976190Y-199281190D01*
X189452380Y-199043095D02*
X188452380Y-199043095D01*
X188452380Y-199424047D01*
X188500000Y-199519285D01*
X188547619Y-199566904D01*
X188642857Y-199614523D01*
X188785714Y-199614523D01*
X188880952Y-199566904D01*
X188928571Y-199519285D01*
X188976190Y-199424047D01*
X188976190Y-199043095D01*
X189452380Y-200043095D02*
X188452380Y-200043095D01*
X189452380Y-200614523D01*
X188452380Y-200614523D01*
X189452380Y-201614523D02*
X189452380Y-201043095D01*
X189452380Y-201328809D02*
X188452380Y-201328809D01*
X188595238Y-201233571D01*
X188690476Y-201138333D01*
X188738095Y-201043095D01*
%TO.C,C8*%
X101132142Y-135583333D02*
X101179761Y-135535714D01*
X101227380Y-135392857D01*
X101227380Y-135297619D01*
X101179761Y-135154761D01*
X101084523Y-135059523D01*
X100989285Y-135011904D01*
X100798809Y-134964285D01*
X100655952Y-134964285D01*
X100465476Y-135011904D01*
X100370238Y-135059523D01*
X100275000Y-135154761D01*
X100227380Y-135297619D01*
X100227380Y-135392857D01*
X100275000Y-135535714D01*
X100322619Y-135583333D01*
X100655952Y-136154761D02*
X100608333Y-136059523D01*
X100560714Y-136011904D01*
X100465476Y-135964285D01*
X100417857Y-135964285D01*
X100322619Y-136011904D01*
X100275000Y-136059523D01*
X100227380Y-136154761D01*
X100227380Y-136345238D01*
X100275000Y-136440476D01*
X100322619Y-136488095D01*
X100417857Y-136535714D01*
X100465476Y-136535714D01*
X100560714Y-136488095D01*
X100608333Y-136440476D01*
X100655952Y-136345238D01*
X100655952Y-136154761D01*
X100703571Y-136059523D01*
X100751190Y-136011904D01*
X100846428Y-135964285D01*
X101036904Y-135964285D01*
X101132142Y-136011904D01*
X101179761Y-136059523D01*
X101227380Y-136154761D01*
X101227380Y-136345238D01*
X101179761Y-136440476D01*
X101132142Y-136488095D01*
X101036904Y-136535714D01*
X100846428Y-136535714D01*
X100751190Y-136488095D01*
X100703571Y-136440476D01*
X100655952Y-136345238D01*
%TO.C,U12*%
X112222380Y-121001904D02*
X113031904Y-121001904D01*
X113127142Y-121049523D01*
X113174761Y-121097142D01*
X113222380Y-121192380D01*
X113222380Y-121382857D01*
X113174761Y-121478095D01*
X113127142Y-121525714D01*
X113031904Y-121573333D01*
X112222380Y-121573333D01*
X113222380Y-122573333D02*
X113222380Y-122001904D01*
X113222380Y-122287619D02*
X112222380Y-122287619D01*
X112365238Y-122192380D01*
X112460476Y-122097142D01*
X112508095Y-122001904D01*
X112317619Y-122954285D02*
X112270000Y-123001904D01*
X112222380Y-123097142D01*
X112222380Y-123335238D01*
X112270000Y-123430476D01*
X112317619Y-123478095D01*
X112412857Y-123525714D01*
X112508095Y-123525714D01*
X112650952Y-123478095D01*
X113222380Y-122906666D01*
X113222380Y-123525714D01*
%TO.C,C11*%
X183357142Y-136107142D02*
X183404761Y-136059523D01*
X183452380Y-135916666D01*
X183452380Y-135821428D01*
X183404761Y-135678571D01*
X183309523Y-135583333D01*
X183214285Y-135535714D01*
X183023809Y-135488095D01*
X182880952Y-135488095D01*
X182690476Y-135535714D01*
X182595238Y-135583333D01*
X182500000Y-135678571D01*
X182452380Y-135821428D01*
X182452380Y-135916666D01*
X182500000Y-136059523D01*
X182547619Y-136107142D01*
X183452380Y-137059523D02*
X183452380Y-136488095D01*
X183452380Y-136773809D02*
X182452380Y-136773809D01*
X182595238Y-136678571D01*
X182690476Y-136583333D01*
X182738095Y-136488095D01*
X183452380Y-138011904D02*
X183452380Y-137440476D01*
X183452380Y-137726190D02*
X182452380Y-137726190D01*
X182595238Y-137630952D01*
X182690476Y-137535714D01*
X182738095Y-137440476D01*
%TD*%
M02*
