%TF.GenerationSoftware,KiCad,Pcbnew,(6.0.11)*%
%TF.CreationDate,2024-01-15T17:38:48-05:00*%
%TF.ProjectId,input-output.Text,696e7075-742d-46f7-9574-7075742e5465,rev?*%
%TF.SameCoordinates,Original*%
%TF.FileFunction,Drillmap*%
%TF.FilePolarity,Positive*%
%FSLAX45Y45*%
G04 Gerber Fmt 4.5, Leading zero omitted, Abs format (unit mm)*
G04 Created by KiCad (PCBNEW (6.0.11)) date 2024-01-15 17:38:48*
%MOMM*%
%LPD*%
G01*
G04 APERTURE LIST*
%ADD10C,0.050000*%
%ADD11C,0.200000*%
%ADD12C,0.030000*%
%ADD13C,0.040000*%
%ADD14C,0.075000*%
%ADD15C,0.080000*%
%ADD16C,0.090000*%
%ADD17C,0.100000*%
%ADD18C,0.220000*%
%ADD19C,0.320000*%
G04 APERTURE END LIST*
D10*
X3500000Y-7500000D02*
X3500000Y-22500000D01*
X4000000Y-23000000D02*
X26500000Y-23000000D01*
X27000000Y-22500000D02*
X27000000Y-7500000D01*
X26500000Y-7000000D02*
X4000000Y-7000000D01*
X27000000Y-7500000D02*
G75*
G03*
X26500000Y-7000000I-500000J0D01*
G01*
X3500000Y-22500000D02*
G75*
G03*
X4000000Y-23000000I500000J0D01*
G01*
X4000000Y-7000000D02*
G75*
G03*
X3500000Y-7500000I0J-500000D01*
G01*
X26500000Y-23000000D02*
G75*
G03*
X27000000Y-22500000I0J500000D01*
G01*
D11*
D12*
X15885000Y-13125000D02*
X15915000Y-13155000D01*
X15915000Y-13125000D02*
X15885000Y-13155000D01*
X15885000Y-13245000D02*
X15915000Y-13275000D01*
X15915000Y-13245000D02*
X15885000Y-13275000D01*
X18935000Y-19225000D02*
X18965000Y-19255000D01*
X18965000Y-19225000D02*
X18935000Y-19255000D01*
X18935000Y-19345000D02*
X18965000Y-19375000D01*
X18965000Y-19345000D02*
X18935000Y-19375000D01*
D13*
X13328440Y-12660390D02*
G75*
G03*
X13328440Y-12660390I-20000J0D01*
G01*
X14073240Y-20323660D02*
G75*
G03*
X14073240Y-20323660I-20000J0D01*
G01*
X14278700Y-13149400D02*
G75*
G03*
X14278700Y-13149400I-20000J0D01*
G01*
X14611070Y-20696830D02*
G75*
G03*
X14611070Y-20696830I-20000J0D01*
G01*
X15180000Y-15758470D02*
G75*
G03*
X15180000Y-15758470I-20000J0D01*
G01*
X15757320Y-12088280D02*
G75*
G03*
X15757320Y-12088280I-20000J0D01*
G01*
X16199970Y-21213420D02*
G75*
G03*
X16199970Y-21213420I-20000J0D01*
G01*
X18060730Y-13314820D02*
G75*
G03*
X18060730Y-13314820I-20000J0D01*
G01*
X18849910Y-20940650D02*
G75*
G03*
X18849910Y-20940650I-20000J0D01*
G01*
X20930970Y-16109850D02*
G75*
G03*
X20930970Y-16109850I-20000J0D01*
G01*
X21310220Y-13142230D02*
G75*
G03*
X21310220Y-13142230I-20000J0D01*
G01*
D14*
X13582500Y-8332500D02*
X13582500Y-8407500D01*
X13545000Y-8370000D02*
X13620000Y-8370000D01*
X13709500Y-8205500D02*
X13709500Y-8280500D01*
X13672000Y-8243000D02*
X13747000Y-8243000D01*
X13836500Y-8332500D02*
X13836500Y-8407500D01*
X13799000Y-8370000D02*
X13874000Y-8370000D01*
X14582500Y-8332500D02*
X14582500Y-8407500D01*
X14545000Y-8370000D02*
X14620000Y-8370000D01*
X14709500Y-8205500D02*
X14709500Y-8280500D01*
X14672000Y-8243000D02*
X14747000Y-8243000D01*
X14836500Y-8332500D02*
X14836500Y-8407500D01*
X14799000Y-8370000D02*
X14874000Y-8370000D01*
D15*
X4207775Y-21728285D02*
X4207775Y-21671716D01*
X4151205Y-21671716D01*
X4151205Y-21728285D01*
X4207775Y-21728285D01*
X4328285Y-8747285D02*
X4328285Y-8690716D01*
X4271716Y-8690716D01*
X4271716Y-8747285D01*
X4328285Y-8747285D01*
X4328285Y-9509285D02*
X4328285Y-9452716D01*
X4271716Y-9452716D01*
X4271716Y-9509285D01*
X4328285Y-9509285D01*
X4335785Y-9946285D02*
X4335785Y-9889716D01*
X4279216Y-9889716D01*
X4279216Y-9946285D01*
X4335785Y-9946285D01*
X4335785Y-10708285D02*
X4335785Y-10651716D01*
X4279216Y-10651716D01*
X4279216Y-10708285D01*
X4335785Y-10708285D01*
X4335785Y-11146285D02*
X4335785Y-11089716D01*
X4279216Y-11089716D01*
X4279216Y-11146285D01*
X4335785Y-11146285D01*
X4335785Y-11908284D02*
X4335785Y-11851715D01*
X4279216Y-11851715D01*
X4279216Y-11908284D01*
X4335785Y-11908284D01*
X4340785Y-12346284D02*
X4340785Y-12289715D01*
X4284216Y-12289715D01*
X4284216Y-12346284D01*
X4340785Y-12346284D01*
X4340785Y-13108284D02*
X4340785Y-13051715D01*
X4284216Y-13051715D01*
X4284216Y-13108284D01*
X4340785Y-13108284D01*
X4340785Y-13546284D02*
X4340785Y-13489715D01*
X4284216Y-13489715D01*
X4284216Y-13546284D01*
X4340785Y-13546284D01*
X4340785Y-14308284D02*
X4340785Y-14251715D01*
X4284216Y-14251715D01*
X4284216Y-14308284D01*
X4340785Y-14308284D01*
X4340785Y-14746284D02*
X4340785Y-14689715D01*
X4284216Y-14689715D01*
X4284216Y-14746284D01*
X4340785Y-14746284D01*
X4340785Y-15508284D02*
X4340785Y-15451715D01*
X4284216Y-15451715D01*
X4284216Y-15508284D01*
X4340785Y-15508284D01*
X4340785Y-15946284D02*
X4340785Y-15889715D01*
X4284216Y-15889715D01*
X4284216Y-15946284D01*
X4340785Y-15946284D01*
X4340785Y-16708284D02*
X4340785Y-16651715D01*
X4284216Y-16651715D01*
X4284216Y-16708284D01*
X4340785Y-16708284D01*
X4457775Y-21728285D02*
X4457775Y-21671716D01*
X4401206Y-21671716D01*
X4401206Y-21728285D01*
X4457775Y-21728285D01*
X4589785Y-9946285D02*
X4589785Y-9889716D01*
X4533216Y-9889716D01*
X4533216Y-9946285D01*
X4589785Y-9946285D01*
X4589785Y-10708285D02*
X4589785Y-10651716D01*
X4533216Y-10651716D01*
X4533216Y-10708285D01*
X4589785Y-10708285D01*
X4589785Y-11146285D02*
X4589785Y-11089716D01*
X4533216Y-11089716D01*
X4533216Y-11146285D01*
X4589785Y-11146285D01*
X4589785Y-11908284D02*
X4589785Y-11851715D01*
X4533216Y-11851715D01*
X4533216Y-11908284D01*
X4589785Y-11908284D01*
X4594785Y-12346284D02*
X4594785Y-12289715D01*
X4538216Y-12289715D01*
X4538216Y-12346284D01*
X4594785Y-12346284D01*
X4594785Y-13108284D02*
X4594785Y-13051715D01*
X4538216Y-13051715D01*
X4538216Y-13108284D01*
X4594785Y-13108284D01*
X4594785Y-13546284D02*
X4594785Y-13489715D01*
X4538216Y-13489715D01*
X4538216Y-13546284D01*
X4594785Y-13546284D01*
X4594785Y-14308284D02*
X4594785Y-14251715D01*
X4538216Y-14251715D01*
X4538216Y-14308284D01*
X4594785Y-14308284D01*
X4594785Y-14746284D02*
X4594785Y-14689715D01*
X4538216Y-14689715D01*
X4538216Y-14746284D01*
X4594785Y-14746284D01*
X4594785Y-15508284D02*
X4594785Y-15451715D01*
X4538216Y-15451715D01*
X4538216Y-15508284D01*
X4594785Y-15508284D01*
X4594785Y-15946284D02*
X4594785Y-15889715D01*
X4538216Y-15889715D01*
X4538216Y-15946284D01*
X4594785Y-15946284D01*
X4594785Y-16708284D02*
X4594785Y-16651715D01*
X4538216Y-16651715D01*
X4538216Y-16708284D01*
X4594785Y-16708284D01*
X4843785Y-9946285D02*
X4843785Y-9889716D01*
X4787216Y-9889716D01*
X4787216Y-9946285D01*
X4843785Y-9946285D01*
X4843785Y-10708285D02*
X4843785Y-10651716D01*
X4787216Y-10651716D01*
X4787216Y-10708285D01*
X4843785Y-10708285D01*
X4843785Y-11146285D02*
X4843785Y-11089716D01*
X4787216Y-11089716D01*
X4787216Y-11146285D01*
X4843785Y-11146285D01*
X4843785Y-11908284D02*
X4843785Y-11851715D01*
X4787216Y-11851715D01*
X4787216Y-11908284D01*
X4843785Y-11908284D01*
X4848785Y-12346284D02*
X4848785Y-12289715D01*
X4792216Y-12289715D01*
X4792216Y-12346284D01*
X4848785Y-12346284D01*
X4848785Y-13108284D02*
X4848785Y-13051715D01*
X4792216Y-13051715D01*
X4792216Y-13108284D01*
X4848785Y-13108284D01*
X4848785Y-13546284D02*
X4848785Y-13489715D01*
X4792216Y-13489715D01*
X4792216Y-13546284D01*
X4848785Y-13546284D01*
X4848785Y-14308284D02*
X4848785Y-14251715D01*
X4792216Y-14251715D01*
X4792216Y-14308284D01*
X4848785Y-14308284D01*
X4848785Y-14746284D02*
X4848785Y-14689715D01*
X4792216Y-14689715D01*
X4792216Y-14746284D01*
X4848785Y-14746284D01*
X4848785Y-15508284D02*
X4848785Y-15451715D01*
X4792216Y-15451715D01*
X4792216Y-15508284D01*
X4848785Y-15508284D01*
X4848785Y-15946284D02*
X4848785Y-15889715D01*
X4792216Y-15889715D01*
X4792216Y-15946284D01*
X4848785Y-15946284D01*
X4848785Y-16708284D02*
X4848785Y-16651715D01*
X4792216Y-16651715D01*
X4792216Y-16708284D01*
X4848785Y-16708284D01*
X4928285Y-8747285D02*
X4928285Y-8690716D01*
X4871716Y-8690716D01*
X4871716Y-8747285D01*
X4928285Y-8747285D01*
X4928285Y-9509285D02*
X4928285Y-9452716D01*
X4871716Y-9452716D01*
X4871716Y-9509285D01*
X4928285Y-9509285D01*
X5097785Y-9946285D02*
X5097785Y-9889716D01*
X5041216Y-9889716D01*
X5041216Y-9946285D01*
X5097785Y-9946285D01*
X5097785Y-10708285D02*
X5097785Y-10651716D01*
X5041216Y-10651716D01*
X5041216Y-10708285D01*
X5097785Y-10708285D01*
X5097785Y-11146285D02*
X5097785Y-11089716D01*
X5041216Y-11089716D01*
X5041216Y-11146285D01*
X5097785Y-11146285D01*
X5097785Y-11908284D02*
X5097785Y-11851715D01*
X5041216Y-11851715D01*
X5041216Y-11908284D01*
X5097785Y-11908284D01*
X5102785Y-12346284D02*
X5102785Y-12289715D01*
X5046216Y-12289715D01*
X5046216Y-12346284D01*
X5102785Y-12346284D01*
X5102785Y-13108284D02*
X5102785Y-13051715D01*
X5046216Y-13051715D01*
X5046216Y-13108284D01*
X5102785Y-13108284D01*
X5102785Y-13546284D02*
X5102785Y-13489715D01*
X5046216Y-13489715D01*
X5046216Y-13546284D01*
X5102785Y-13546284D01*
X5102785Y-14308284D02*
X5102785Y-14251715D01*
X5046216Y-14251715D01*
X5046216Y-14308284D01*
X5102785Y-14308284D01*
X5102785Y-14746284D02*
X5102785Y-14689715D01*
X5046216Y-14689715D01*
X5046216Y-14746284D01*
X5102785Y-14746284D01*
X5102785Y-15508284D02*
X5102785Y-15451715D01*
X5046216Y-15451715D01*
X5046216Y-15508284D01*
X5102785Y-15508284D01*
X5102785Y-15946284D02*
X5102785Y-15889715D01*
X5046216Y-15889715D01*
X5046216Y-15946284D01*
X5102785Y-15946284D01*
X5102785Y-16708284D02*
X5102785Y-16651715D01*
X5046216Y-16651715D01*
X5046216Y-16708284D01*
X5102785Y-16708284D01*
X5351785Y-9946285D02*
X5351785Y-9889716D01*
X5295216Y-9889716D01*
X5295216Y-9946285D01*
X5351785Y-9946285D01*
X5351785Y-10708285D02*
X5351785Y-10651716D01*
X5295216Y-10651716D01*
X5295216Y-10708285D01*
X5351785Y-10708285D01*
X5351785Y-11146285D02*
X5351785Y-11089716D01*
X5295216Y-11089716D01*
X5295216Y-11146285D01*
X5351785Y-11146285D01*
X5351785Y-11908284D02*
X5351785Y-11851715D01*
X5295216Y-11851715D01*
X5295216Y-11908284D01*
X5351785Y-11908284D01*
X5356785Y-12346284D02*
X5356785Y-12289715D01*
X5300216Y-12289715D01*
X5300216Y-12346284D01*
X5356785Y-12346284D01*
X5356785Y-13108284D02*
X5356785Y-13051715D01*
X5300216Y-13051715D01*
X5300216Y-13108284D01*
X5356785Y-13108284D01*
X5356785Y-13546284D02*
X5356785Y-13489715D01*
X5300216Y-13489715D01*
X5300216Y-13546284D01*
X5356785Y-13546284D01*
X5356785Y-14308284D02*
X5356785Y-14251715D01*
X5300216Y-14251715D01*
X5300216Y-14308284D01*
X5356785Y-14308284D01*
X5356785Y-14746284D02*
X5356785Y-14689715D01*
X5300216Y-14689715D01*
X5300216Y-14746284D01*
X5356785Y-14746284D01*
X5356785Y-15508284D02*
X5356785Y-15451715D01*
X5300216Y-15451715D01*
X5300216Y-15508284D01*
X5356785Y-15508284D01*
X5356785Y-15946284D02*
X5356785Y-15889715D01*
X5300216Y-15889715D01*
X5300216Y-15946284D01*
X5356785Y-15946284D01*
X5356785Y-16708284D02*
X5356785Y-16651715D01*
X5300216Y-16651715D01*
X5300216Y-16708284D01*
X5356785Y-16708284D01*
X5605784Y-9946285D02*
X5605784Y-9889716D01*
X5549216Y-9889716D01*
X5549216Y-9946285D01*
X5605784Y-9946285D01*
X5605784Y-10708285D02*
X5605784Y-10651716D01*
X5549216Y-10651716D01*
X5549216Y-10708285D01*
X5605784Y-10708285D01*
X5605784Y-11146285D02*
X5605784Y-11089716D01*
X5549216Y-11089716D01*
X5549216Y-11146285D01*
X5605784Y-11146285D01*
X5605784Y-11908284D02*
X5605784Y-11851715D01*
X5549216Y-11851715D01*
X5549216Y-11908284D01*
X5605784Y-11908284D01*
X5610784Y-12346284D02*
X5610784Y-12289715D01*
X5554216Y-12289715D01*
X5554216Y-12346284D01*
X5610784Y-12346284D01*
X5610784Y-13108284D02*
X5610784Y-13051715D01*
X5554216Y-13051715D01*
X5554216Y-13108284D01*
X5610784Y-13108284D01*
X5610784Y-13546284D02*
X5610784Y-13489715D01*
X5554216Y-13489715D01*
X5554216Y-13546284D01*
X5610784Y-13546284D01*
X5610784Y-14308284D02*
X5610784Y-14251715D01*
X5554216Y-14251715D01*
X5554216Y-14308284D01*
X5610784Y-14308284D01*
X5610784Y-14746284D02*
X5610784Y-14689715D01*
X5554216Y-14689715D01*
X5554216Y-14746284D01*
X5610784Y-14746284D01*
X5610784Y-15508284D02*
X5610784Y-15451715D01*
X5554216Y-15451715D01*
X5554216Y-15508284D01*
X5610784Y-15508284D01*
X5610784Y-15946284D02*
X5610784Y-15889715D01*
X5554216Y-15889715D01*
X5554216Y-15946284D01*
X5610784Y-15946284D01*
X5610784Y-16708284D02*
X5610784Y-16651715D01*
X5554216Y-16651715D01*
X5554216Y-16708284D01*
X5610784Y-16708284D01*
X5859784Y-9946285D02*
X5859784Y-9889716D01*
X5803215Y-9889716D01*
X5803215Y-9946285D01*
X5859784Y-9946285D01*
X5859784Y-10708285D02*
X5859784Y-10651716D01*
X5803215Y-10651716D01*
X5803215Y-10708285D01*
X5859784Y-10708285D01*
X5859784Y-11146285D02*
X5859784Y-11089716D01*
X5803215Y-11089716D01*
X5803215Y-11146285D01*
X5859784Y-11146285D01*
X5859784Y-11908284D02*
X5859784Y-11851715D01*
X5803215Y-11851715D01*
X5803215Y-11908284D01*
X5859784Y-11908284D01*
X5864784Y-12346284D02*
X5864784Y-12289715D01*
X5808215Y-12289715D01*
X5808215Y-12346284D01*
X5864784Y-12346284D01*
X5864784Y-13108284D02*
X5864784Y-13051715D01*
X5808215Y-13051715D01*
X5808215Y-13108284D01*
X5864784Y-13108284D01*
X5864784Y-13546284D02*
X5864784Y-13489715D01*
X5808215Y-13489715D01*
X5808215Y-13546284D01*
X5864784Y-13546284D01*
X5864784Y-14308284D02*
X5864784Y-14251715D01*
X5808215Y-14251715D01*
X5808215Y-14308284D01*
X5864784Y-14308284D01*
X5864784Y-14746284D02*
X5864784Y-14689715D01*
X5808215Y-14689715D01*
X5808215Y-14746284D01*
X5864784Y-14746284D01*
X5864784Y-15508284D02*
X5864784Y-15451715D01*
X5808215Y-15451715D01*
X5808215Y-15508284D01*
X5864784Y-15508284D01*
X5864784Y-15946284D02*
X5864784Y-15889715D01*
X5808215Y-15889715D01*
X5808215Y-15946284D01*
X5864784Y-15946284D01*
X5864784Y-16708284D02*
X5864784Y-16651715D01*
X5808215Y-16651715D01*
X5808215Y-16708284D01*
X5864784Y-16708284D01*
X6113784Y-9946285D02*
X6113784Y-9889716D01*
X6057215Y-9889716D01*
X6057215Y-9946285D01*
X6113784Y-9946285D01*
X6113784Y-10708285D02*
X6113784Y-10651716D01*
X6057215Y-10651716D01*
X6057215Y-10708285D01*
X6113784Y-10708285D01*
X6113784Y-11146285D02*
X6113784Y-11089716D01*
X6057215Y-11089716D01*
X6057215Y-11146285D01*
X6113784Y-11146285D01*
X6113784Y-11908284D02*
X6113784Y-11851715D01*
X6057215Y-11851715D01*
X6057215Y-11908284D01*
X6113784Y-11908284D01*
X6118784Y-12346284D02*
X6118784Y-12289715D01*
X6062215Y-12289715D01*
X6062215Y-12346284D01*
X6118784Y-12346284D01*
X6118784Y-13108284D02*
X6118784Y-13051715D01*
X6062215Y-13051715D01*
X6062215Y-13108284D01*
X6118784Y-13108284D01*
X6118784Y-13546284D02*
X6118784Y-13489715D01*
X6062215Y-13489715D01*
X6062215Y-13546284D01*
X6118784Y-13546284D01*
X6118784Y-14308284D02*
X6118784Y-14251715D01*
X6062215Y-14251715D01*
X6062215Y-14308284D01*
X6118784Y-14308284D01*
X6367784Y-9946285D02*
X6367784Y-9889716D01*
X6311215Y-9889716D01*
X6311215Y-9946285D01*
X6367784Y-9946285D01*
X6367784Y-10708285D02*
X6367784Y-10651716D01*
X6311215Y-10651716D01*
X6311215Y-10708285D01*
X6367784Y-10708285D01*
X6367784Y-11146285D02*
X6367784Y-11089716D01*
X6311215Y-11089716D01*
X6311215Y-11146285D01*
X6367784Y-11146285D01*
X6367784Y-11908284D02*
X6367784Y-11851715D01*
X6311215Y-11851715D01*
X6311215Y-11908284D01*
X6367784Y-11908284D01*
X6621784Y-9946285D02*
X6621784Y-9889716D01*
X6565215Y-9889716D01*
X6565215Y-9946285D01*
X6621784Y-9946285D01*
X6621784Y-10708285D02*
X6621784Y-10651716D01*
X6565215Y-10651716D01*
X6565215Y-10708285D01*
X6621784Y-10708285D01*
X6621784Y-11146285D02*
X6621784Y-11089716D01*
X6565215Y-11089716D01*
X6565215Y-11146285D01*
X6621784Y-11146285D01*
X6621784Y-11908284D02*
X6621784Y-11851715D01*
X6565215Y-11851715D01*
X6565215Y-11908284D01*
X6621784Y-11908284D01*
X7578284Y-20828285D02*
X7578284Y-20771716D01*
X7521715Y-20771716D01*
X7521715Y-20828285D01*
X7578284Y-20828285D01*
X7578284Y-21328285D02*
X7578284Y-21271716D01*
X7521715Y-21271716D01*
X7521715Y-21328285D01*
X7578284Y-21328285D01*
X8085784Y-20546285D02*
X8085784Y-20489716D01*
X8029215Y-20489716D01*
X8029215Y-20546285D01*
X8085784Y-20546285D01*
X8085784Y-21308285D02*
X8085784Y-21251716D01*
X8029215Y-21251716D01*
X8029215Y-21308285D01*
X8085784Y-21308285D01*
X8339784Y-20546285D02*
X8339784Y-20489716D01*
X8283215Y-20489716D01*
X8283215Y-20546285D01*
X8339784Y-20546285D01*
X8339784Y-21308285D02*
X8339784Y-21251716D01*
X8283215Y-21251716D01*
X8283215Y-21308285D01*
X8339784Y-21308285D01*
X8593785Y-20546285D02*
X8593785Y-20489716D01*
X8537216Y-20489716D01*
X8537216Y-20546285D01*
X8593785Y-20546285D01*
X8593785Y-21308285D02*
X8593785Y-21251716D01*
X8537216Y-21251716D01*
X8537216Y-21308285D01*
X8593785Y-21308285D01*
X8847785Y-20546285D02*
X8847785Y-20489716D01*
X8791216Y-20489716D01*
X8791216Y-20546285D01*
X8847785Y-20546285D01*
X8847785Y-21308285D02*
X8847785Y-21251716D01*
X8791216Y-21251716D01*
X8791216Y-21308285D01*
X8847785Y-21308285D01*
X8932775Y-14203284D02*
X8932775Y-14146715D01*
X8876206Y-14146715D01*
X8876206Y-14203284D01*
X8932775Y-14203284D01*
X9101785Y-20546285D02*
X9101785Y-20489716D01*
X9045216Y-20489716D01*
X9045216Y-20546285D01*
X9101785Y-20546285D01*
X9101785Y-21308285D02*
X9101785Y-21251716D01*
X9045216Y-21251716D01*
X9045216Y-21308285D01*
X9101785Y-21308285D01*
X9182775Y-14203284D02*
X9182775Y-14146715D01*
X9126206Y-14146715D01*
X9126206Y-14203284D01*
X9182775Y-14203284D01*
X9355785Y-20546285D02*
X9355785Y-20489716D01*
X9299216Y-20489716D01*
X9299216Y-20546285D01*
X9355785Y-20546285D01*
X9355785Y-21308285D02*
X9355785Y-21251716D01*
X9299216Y-21251716D01*
X9299216Y-21308285D01*
X9355785Y-21308285D01*
X9609785Y-20546285D02*
X9609785Y-20489716D01*
X9553216Y-20489716D01*
X9553216Y-20546285D01*
X9609785Y-20546285D01*
X9609785Y-21308285D02*
X9609785Y-21251716D01*
X9553216Y-21251716D01*
X9553216Y-21308285D01*
X9609785Y-21308285D01*
X9863785Y-20546285D02*
X9863785Y-20489716D01*
X9807216Y-20489716D01*
X9807216Y-20546285D01*
X9863785Y-20546285D01*
X9863785Y-21308285D02*
X9863785Y-21251716D01*
X9807216Y-21251716D01*
X9807216Y-21308285D01*
X9863785Y-21308285D01*
X10005785Y-16028284D02*
X10005785Y-15971715D01*
X9949216Y-15971715D01*
X9949216Y-16028284D01*
X10005785Y-16028284D01*
X10005785Y-16528284D02*
X10005785Y-16471715D01*
X9949216Y-16471715D01*
X9949216Y-16528284D01*
X10005785Y-16528284D01*
X10080785Y-12128284D02*
X10080785Y-12071715D01*
X10024216Y-12071715D01*
X10024216Y-12128284D01*
X10080785Y-12128284D01*
X10080785Y-12628284D02*
X10080785Y-12571715D01*
X10024216Y-12571715D01*
X10024216Y-12628284D01*
X10080785Y-12628284D01*
X10105785Y-13353284D02*
X10105785Y-13296715D01*
X10049216Y-13296715D01*
X10049216Y-13353284D01*
X10105785Y-13353284D01*
X10105785Y-13853284D02*
X10105785Y-13796715D01*
X10049216Y-13796715D01*
X10049216Y-13853284D01*
X10105785Y-13853284D01*
X10105785Y-14628284D02*
X10105785Y-14571715D01*
X10049216Y-14571715D01*
X10049216Y-14628284D01*
X10105785Y-14628284D01*
X10105785Y-15128284D02*
X10105785Y-15071715D01*
X10049216Y-15071715D01*
X10049216Y-15128284D01*
X10105785Y-15128284D01*
X10117785Y-20546285D02*
X10117785Y-20489716D01*
X10061216Y-20489716D01*
X10061216Y-20546285D01*
X10117785Y-20546285D01*
X10117785Y-21308285D02*
X10117785Y-21251716D01*
X10061216Y-21251716D01*
X10061216Y-21308285D01*
X10117785Y-21308285D01*
X10371785Y-20546285D02*
X10371785Y-20489716D01*
X10315216Y-20489716D01*
X10315216Y-20546285D01*
X10371785Y-20546285D01*
X10371785Y-21308285D02*
X10371785Y-21251716D01*
X10315216Y-21251716D01*
X10315216Y-21308285D01*
X10371785Y-21308285D01*
X10543285Y-11871284D02*
X10543285Y-11814715D01*
X10486716Y-11814715D01*
X10486716Y-11871284D01*
X10543285Y-11871284D01*
X10543285Y-12633284D02*
X10543285Y-12576715D01*
X10486716Y-12576715D01*
X10486716Y-12633284D01*
X10543285Y-12633284D01*
X10568285Y-13096284D02*
X10568285Y-13039715D01*
X10511716Y-13039715D01*
X10511716Y-13096284D01*
X10568285Y-13096284D01*
X10568285Y-13858284D02*
X10568285Y-13801715D01*
X10511716Y-13801715D01*
X10511716Y-13858284D01*
X10568285Y-13858284D01*
X10568285Y-14371284D02*
X10568285Y-14314715D01*
X10511716Y-14314715D01*
X10511716Y-14371284D01*
X10568285Y-14371284D01*
X10568285Y-15133284D02*
X10568285Y-15076715D01*
X10511716Y-15076715D01*
X10511716Y-15133284D01*
X10568285Y-15133284D01*
X10568285Y-15771284D02*
X10568285Y-15714715D01*
X10511716Y-15714715D01*
X10511716Y-15771284D01*
X10568285Y-15771284D01*
X10568285Y-16533284D02*
X10568285Y-16476715D01*
X10511716Y-16476715D01*
X10511716Y-16533284D01*
X10568285Y-16533284D01*
X10797285Y-11871284D02*
X10797285Y-11814715D01*
X10740716Y-11814715D01*
X10740716Y-11871284D01*
X10797285Y-11871284D01*
X10797285Y-12633284D02*
X10797285Y-12576715D01*
X10740716Y-12576715D01*
X10740716Y-12633284D01*
X10797285Y-12633284D01*
X10822285Y-13096284D02*
X10822285Y-13039715D01*
X10765716Y-13039715D01*
X10765716Y-13096284D01*
X10822285Y-13096284D01*
X10822285Y-13858284D02*
X10822285Y-13801715D01*
X10765716Y-13801715D01*
X10765716Y-13858284D01*
X10822285Y-13858284D01*
X10822285Y-14371284D02*
X10822285Y-14314715D01*
X10765716Y-14314715D01*
X10765716Y-14371284D01*
X10822285Y-14371284D01*
X10822285Y-15133284D02*
X10822285Y-15076715D01*
X10765716Y-15076715D01*
X10765716Y-15133284D01*
X10822285Y-15133284D01*
X10822285Y-15771284D02*
X10822285Y-15714715D01*
X10765716Y-15714715D01*
X10765716Y-15771284D01*
X10822285Y-15771284D01*
X10822285Y-16533284D02*
X10822285Y-16476715D01*
X10765716Y-16476715D01*
X10765716Y-16533284D01*
X10822285Y-16533284D01*
X11051285Y-11871284D02*
X11051285Y-11814715D01*
X10994716Y-11814715D01*
X10994716Y-11871284D01*
X11051285Y-11871284D01*
X11051285Y-12633284D02*
X11051285Y-12576715D01*
X10994716Y-12576715D01*
X10994716Y-12633284D01*
X11051285Y-12633284D01*
X11076285Y-13096284D02*
X11076285Y-13039715D01*
X11019716Y-13039715D01*
X11019716Y-13096284D01*
X11076285Y-13096284D01*
X11076285Y-13858284D02*
X11076285Y-13801715D01*
X11019716Y-13801715D01*
X11019716Y-13858284D01*
X11076285Y-13858284D01*
X11076285Y-14371284D02*
X11076285Y-14314715D01*
X11019716Y-14314715D01*
X11019716Y-14371284D01*
X11076285Y-14371284D01*
X11076285Y-15133284D02*
X11076285Y-15076715D01*
X11019716Y-15076715D01*
X11019716Y-15133284D01*
X11076285Y-15133284D01*
X11076285Y-15771284D02*
X11076285Y-15714715D01*
X11019716Y-15714715D01*
X11019716Y-15771284D01*
X11076285Y-15771284D01*
X11076285Y-16533284D02*
X11076285Y-16476715D01*
X11019716Y-16476715D01*
X11019716Y-16533284D01*
X11076285Y-16533284D01*
X11305284Y-11871284D02*
X11305284Y-11814715D01*
X11248715Y-11814715D01*
X11248715Y-11871284D01*
X11305284Y-11871284D01*
X11305284Y-12633284D02*
X11305284Y-12576715D01*
X11248715Y-12576715D01*
X11248715Y-12633284D01*
X11305284Y-12633284D01*
X11330284Y-13096284D02*
X11330284Y-13039715D01*
X11273715Y-13039715D01*
X11273715Y-13096284D01*
X11330284Y-13096284D01*
X11330284Y-13858284D02*
X11330284Y-13801715D01*
X11273715Y-13801715D01*
X11273715Y-13858284D01*
X11330284Y-13858284D01*
X11330284Y-14371284D02*
X11330284Y-14314715D01*
X11273715Y-14314715D01*
X11273715Y-14371284D01*
X11330284Y-14371284D01*
X11330284Y-15133284D02*
X11330284Y-15076715D01*
X11273715Y-15076715D01*
X11273715Y-15133284D01*
X11330284Y-15133284D01*
X11330284Y-15771284D02*
X11330284Y-15714715D01*
X11273715Y-15714715D01*
X11273715Y-15771284D01*
X11330284Y-15771284D01*
X11330284Y-16533284D02*
X11330284Y-16476715D01*
X11273715Y-16476715D01*
X11273715Y-16533284D01*
X11330284Y-16533284D01*
X11559284Y-11871284D02*
X11559284Y-11814715D01*
X11502715Y-11814715D01*
X11502715Y-11871284D01*
X11559284Y-11871284D01*
X11559284Y-12633284D02*
X11559284Y-12576715D01*
X11502715Y-12576715D01*
X11502715Y-12633284D01*
X11559284Y-12633284D01*
X11584284Y-13096284D02*
X11584284Y-13039715D01*
X11527715Y-13039715D01*
X11527715Y-13096284D01*
X11584284Y-13096284D01*
X11584284Y-13858284D02*
X11584284Y-13801715D01*
X11527715Y-13801715D01*
X11527715Y-13858284D01*
X11584284Y-13858284D01*
X11584284Y-14371284D02*
X11584284Y-14314715D01*
X11527715Y-14314715D01*
X11527715Y-14371284D01*
X11584284Y-14371284D01*
X11584284Y-15133284D02*
X11584284Y-15076715D01*
X11527715Y-15076715D01*
X11527715Y-15133284D01*
X11584284Y-15133284D01*
X11584284Y-15771284D02*
X11584284Y-15714715D01*
X11527715Y-15714715D01*
X11527715Y-15771284D01*
X11584284Y-15771284D01*
X11584284Y-16533284D02*
X11584284Y-16476715D01*
X11527715Y-16476715D01*
X11527715Y-16533284D01*
X11584284Y-16533284D01*
X11607774Y-21728285D02*
X11607774Y-21671716D01*
X11551205Y-21671716D01*
X11551205Y-21728285D01*
X11607774Y-21728285D01*
X11813284Y-11871284D02*
X11813284Y-11814715D01*
X11756715Y-11814715D01*
X11756715Y-11871284D01*
X11813284Y-11871284D01*
X11813284Y-12633284D02*
X11813284Y-12576715D01*
X11756715Y-12576715D01*
X11756715Y-12633284D01*
X11813284Y-12633284D01*
X11838284Y-13096284D02*
X11838284Y-13039715D01*
X11781715Y-13039715D01*
X11781715Y-13096284D01*
X11838284Y-13096284D01*
X11838284Y-13858284D02*
X11838284Y-13801715D01*
X11781715Y-13801715D01*
X11781715Y-13858284D01*
X11838284Y-13858284D01*
X11838284Y-14371284D02*
X11838284Y-14314715D01*
X11781715Y-14314715D01*
X11781715Y-14371284D01*
X11838284Y-14371284D01*
X11838284Y-15133284D02*
X11838284Y-15076715D01*
X11781715Y-15076715D01*
X11781715Y-15133284D01*
X11838284Y-15133284D01*
X11838284Y-15771284D02*
X11838284Y-15714715D01*
X11781715Y-15714715D01*
X11781715Y-15771284D01*
X11838284Y-15771284D01*
X11838284Y-16533284D02*
X11838284Y-16476715D01*
X11781715Y-16476715D01*
X11781715Y-16533284D01*
X11838284Y-16533284D01*
X11857774Y-21728285D02*
X11857774Y-21671716D01*
X11801205Y-21671716D01*
X11801205Y-21728285D01*
X11857774Y-21728285D01*
X12067284Y-11871284D02*
X12067284Y-11814715D01*
X12010715Y-11814715D01*
X12010715Y-11871284D01*
X12067284Y-11871284D01*
X12067284Y-12633284D02*
X12067284Y-12576715D01*
X12010715Y-12576715D01*
X12010715Y-12633284D01*
X12067284Y-12633284D01*
X12092284Y-13096284D02*
X12092284Y-13039715D01*
X12035715Y-13039715D01*
X12035715Y-13096284D01*
X12092284Y-13096284D01*
X12092284Y-13858284D02*
X12092284Y-13801715D01*
X12035715Y-13801715D01*
X12035715Y-13858284D01*
X12092284Y-13858284D01*
X12092284Y-14371284D02*
X12092284Y-14314715D01*
X12035715Y-14314715D01*
X12035715Y-14371284D01*
X12092284Y-14371284D01*
X12092284Y-15133284D02*
X12092284Y-15076715D01*
X12035715Y-15076715D01*
X12035715Y-15133284D01*
X12092284Y-15133284D01*
X12092284Y-15771284D02*
X12092284Y-15714715D01*
X12035715Y-15714715D01*
X12035715Y-15771284D01*
X12092284Y-15771284D01*
X12092284Y-16533284D02*
X12092284Y-16476715D01*
X12035715Y-16476715D01*
X12035715Y-16533284D01*
X12092284Y-16533284D01*
X12346284Y-13096284D02*
X12346284Y-13039715D01*
X12289715Y-13039715D01*
X12289715Y-13096284D01*
X12346284Y-13096284D01*
X12346284Y-13858284D02*
X12346284Y-13801715D01*
X12289715Y-13801715D01*
X12289715Y-13858284D01*
X12346284Y-13858284D01*
X12428284Y-20828285D02*
X12428284Y-20771716D01*
X12371715Y-20771716D01*
X12371715Y-20828285D01*
X12428284Y-20828285D01*
X12428284Y-21328285D02*
X12428284Y-21271716D01*
X12371715Y-21271716D01*
X12371715Y-21328285D01*
X12428284Y-21328285D01*
X12560274Y-10978285D02*
X12560274Y-10921716D01*
X12503705Y-10921716D01*
X12503705Y-10978285D01*
X12560274Y-10978285D01*
X12685274Y-17103285D02*
X12685274Y-17046716D01*
X12628705Y-17046716D01*
X12628705Y-17103285D01*
X12685274Y-17103285D01*
X12810274Y-10978285D02*
X12810274Y-10921716D01*
X12753705Y-10921716D01*
X12753705Y-10978285D01*
X12810274Y-10978285D01*
X12910784Y-20571285D02*
X12910784Y-20514716D01*
X12854215Y-20514716D01*
X12854215Y-20571285D01*
X12910784Y-20571285D01*
X12910784Y-21333285D02*
X12910784Y-21276716D01*
X12854215Y-21276716D01*
X12854215Y-21333285D01*
X12910784Y-21333285D01*
X12935274Y-17103285D02*
X12935274Y-17046716D01*
X12878705Y-17046716D01*
X12878705Y-17103285D01*
X12935274Y-17103285D01*
X13164784Y-20571285D02*
X13164784Y-20514716D01*
X13108215Y-20514716D01*
X13108215Y-20571285D01*
X13164784Y-20571285D01*
X13164784Y-21333285D02*
X13164784Y-21276716D01*
X13108215Y-21276716D01*
X13108215Y-21333285D01*
X13164784Y-21333285D01*
X13374784Y-9028285D02*
X13374784Y-8971716D01*
X13318215Y-8971716D01*
X13318215Y-9028285D01*
X13374784Y-9028285D01*
X13374784Y-9628285D02*
X13374784Y-9571716D01*
X13318215Y-9571716D01*
X13318215Y-9628285D01*
X13374784Y-9628285D01*
X13418784Y-20571285D02*
X13418784Y-20514716D01*
X13362215Y-20514716D01*
X13362215Y-20571285D01*
X13418784Y-20571285D01*
X13418784Y-21333285D02*
X13418784Y-21276716D01*
X13362215Y-21276716D01*
X13362215Y-21333285D01*
X13418784Y-21333285D01*
X13453284Y-11853284D02*
X13453284Y-11796715D01*
X13396715Y-11796715D01*
X13396715Y-11853284D01*
X13453284Y-11853284D01*
X13453284Y-12353284D02*
X13453284Y-12296715D01*
X13396715Y-12296715D01*
X13396715Y-12353284D01*
X13453284Y-12353284D01*
X13453284Y-13128284D02*
X13453284Y-13071715D01*
X13396715Y-13071715D01*
X13396715Y-13128284D01*
X13453284Y-13128284D01*
X13453284Y-13628284D02*
X13453284Y-13571715D01*
X13396715Y-13571715D01*
X13396715Y-13628284D01*
X13453284Y-13628284D01*
X13453284Y-14353284D02*
X13453284Y-14296715D01*
X13396715Y-14296715D01*
X13396715Y-14353284D01*
X13453284Y-14353284D01*
X13453284Y-14853284D02*
X13453284Y-14796715D01*
X13396715Y-14796715D01*
X13396715Y-14853284D01*
X13453284Y-14853284D01*
X13453284Y-15603284D02*
X13453284Y-15546715D01*
X13396715Y-15546715D01*
X13396715Y-15603284D01*
X13453284Y-15603284D01*
X13453284Y-16103284D02*
X13453284Y-16046715D01*
X13396715Y-16046715D01*
X13396715Y-16103284D01*
X13453284Y-16103284D01*
X13505784Y-10253285D02*
X13505784Y-10196716D01*
X13449215Y-10196716D01*
X13449215Y-10253285D01*
X13505784Y-10253285D01*
X13672784Y-20571285D02*
X13672784Y-20514716D01*
X13616215Y-20514716D01*
X13616215Y-20571285D01*
X13672784Y-20571285D01*
X13672784Y-21333285D02*
X13672784Y-21276716D01*
X13616215Y-21276716D01*
X13616215Y-21333285D01*
X13672784Y-21333285D01*
X13728284Y-19428285D02*
X13728284Y-19371716D01*
X13671715Y-19371716D01*
X13671715Y-19428285D01*
X13728284Y-19428285D01*
X13728284Y-19928285D02*
X13728284Y-19871716D01*
X13671715Y-19871716D01*
X13671715Y-19928285D01*
X13728284Y-19928285D01*
X13910784Y-11596284D02*
X13910784Y-11539715D01*
X13854215Y-11539715D01*
X13854215Y-11596284D01*
X13910784Y-11596284D01*
X13910784Y-12358284D02*
X13910784Y-12301715D01*
X13854215Y-12301715D01*
X13854215Y-12358284D01*
X13910784Y-12358284D01*
X13915784Y-12871284D02*
X13915784Y-12814715D01*
X13859215Y-12814715D01*
X13859215Y-12871284D01*
X13915784Y-12871284D01*
X13915784Y-13633284D02*
X13915784Y-13576715D01*
X13859215Y-13576715D01*
X13859215Y-13633284D01*
X13915784Y-13633284D01*
X13915784Y-14096284D02*
X13915784Y-14039715D01*
X13859215Y-14039715D01*
X13859215Y-14096284D01*
X13915784Y-14096284D01*
X13915784Y-14858284D02*
X13915784Y-14801715D01*
X13859215Y-14801715D01*
X13859215Y-14858284D01*
X13915784Y-14858284D01*
X13918284Y-15346284D02*
X13918284Y-15289715D01*
X13861715Y-15289715D01*
X13861715Y-15346284D01*
X13918284Y-15346284D01*
X13918284Y-16108284D02*
X13918284Y-16051715D01*
X13861715Y-16051715D01*
X13861715Y-16108284D01*
X13918284Y-16108284D01*
X13926784Y-20571285D02*
X13926784Y-20514716D01*
X13870215Y-20514716D01*
X13870215Y-20571285D01*
X13926784Y-20571285D01*
X13926784Y-21333285D02*
X13926784Y-21276716D01*
X13870215Y-21276716D01*
X13870215Y-21333285D01*
X13926784Y-21333285D01*
X14005784Y-10253285D02*
X14005784Y-10196716D01*
X13949215Y-10196716D01*
X13949215Y-10253285D01*
X14005784Y-10253285D01*
X14136784Y-9028285D02*
X14136784Y-8971716D01*
X14080215Y-8971716D01*
X14080215Y-9028285D01*
X14136784Y-9028285D01*
X14136784Y-9628285D02*
X14136784Y-9571716D01*
X14080215Y-9571716D01*
X14080215Y-9628285D01*
X14136784Y-9628285D01*
X14164784Y-11596284D02*
X14164784Y-11539715D01*
X14108215Y-11539715D01*
X14108215Y-11596284D01*
X14164784Y-11596284D01*
X14164784Y-12358284D02*
X14164784Y-12301715D01*
X14108215Y-12301715D01*
X14108215Y-12358284D01*
X14164784Y-12358284D01*
X14169784Y-12871284D02*
X14169784Y-12814715D01*
X14113215Y-12814715D01*
X14113215Y-12871284D01*
X14169784Y-12871284D01*
X14169784Y-13633284D02*
X14169784Y-13576715D01*
X14113215Y-13576715D01*
X14113215Y-13633284D01*
X14169784Y-13633284D01*
X14169784Y-14096284D02*
X14169784Y-14039715D01*
X14113215Y-14039715D01*
X14113215Y-14096284D01*
X14169784Y-14096284D01*
X14169784Y-14858284D02*
X14169784Y-14801715D01*
X14113215Y-14801715D01*
X14113215Y-14858284D01*
X14169784Y-14858284D01*
X14172284Y-15346284D02*
X14172284Y-15289715D01*
X14115715Y-15289715D01*
X14115715Y-15346284D01*
X14172284Y-15346284D01*
X14172284Y-16108284D02*
X14172284Y-16051715D01*
X14115715Y-16051715D01*
X14115715Y-16108284D01*
X14172284Y-16108284D01*
X14180784Y-20571285D02*
X14180784Y-20514716D01*
X14124215Y-20514716D01*
X14124215Y-20571285D01*
X14180784Y-20571285D01*
X14180784Y-21333285D02*
X14180784Y-21276716D01*
X14124215Y-21276716D01*
X14124215Y-21333285D01*
X14180784Y-21333285D01*
X14215784Y-19146285D02*
X14215784Y-19089716D01*
X14159215Y-19089716D01*
X14159215Y-19146285D01*
X14215784Y-19146285D01*
X14215784Y-19908285D02*
X14215784Y-19851716D01*
X14159215Y-19851716D01*
X14159215Y-19908285D01*
X14215784Y-19908285D01*
X14374784Y-9028285D02*
X14374784Y-8971716D01*
X14318215Y-8971716D01*
X14318215Y-9028285D01*
X14374784Y-9028285D01*
X14374784Y-9628285D02*
X14374784Y-9571716D01*
X14318215Y-9571716D01*
X14318215Y-9628285D01*
X14374784Y-9628285D01*
X14418784Y-11596284D02*
X14418784Y-11539715D01*
X14362215Y-11539715D01*
X14362215Y-11596284D01*
X14418784Y-11596284D01*
X14418784Y-12358284D02*
X14418784Y-12301715D01*
X14362215Y-12301715D01*
X14362215Y-12358284D01*
X14418784Y-12358284D01*
X14423784Y-12871284D02*
X14423784Y-12814715D01*
X14367215Y-12814715D01*
X14367215Y-12871284D01*
X14423784Y-12871284D01*
X14423784Y-13633284D02*
X14423784Y-13576715D01*
X14367215Y-13576715D01*
X14367215Y-13633284D01*
X14423784Y-13633284D01*
X14423784Y-14096284D02*
X14423784Y-14039715D01*
X14367215Y-14039715D01*
X14367215Y-14096284D01*
X14423784Y-14096284D01*
X14423784Y-14858284D02*
X14423784Y-14801715D01*
X14367215Y-14801715D01*
X14367215Y-14858284D01*
X14423784Y-14858284D01*
X14426284Y-15346284D02*
X14426284Y-15289715D01*
X14369715Y-15289715D01*
X14369715Y-15346284D01*
X14426284Y-15346284D01*
X14426284Y-16108284D02*
X14426284Y-16051715D01*
X14369715Y-16051715D01*
X14369715Y-16108284D01*
X14426284Y-16108284D01*
X14434784Y-20571285D02*
X14434784Y-20514716D01*
X14378215Y-20514716D01*
X14378215Y-20571285D01*
X14434784Y-20571285D01*
X14434784Y-21333285D02*
X14434784Y-21276716D01*
X14378215Y-21276716D01*
X14378215Y-21333285D01*
X14434784Y-21333285D01*
X14469784Y-19146285D02*
X14469784Y-19089716D01*
X14413215Y-19089716D01*
X14413215Y-19146285D01*
X14469784Y-19146285D01*
X14469784Y-19908285D02*
X14469784Y-19851716D01*
X14413215Y-19851716D01*
X14413215Y-19908285D01*
X14469784Y-19908285D01*
X14505784Y-10253285D02*
X14505784Y-10196716D01*
X14449215Y-10196716D01*
X14449215Y-10253285D01*
X14505784Y-10253285D01*
X14672784Y-11596284D02*
X14672784Y-11539715D01*
X14616215Y-11539715D01*
X14616215Y-11596284D01*
X14672784Y-11596284D01*
X14672784Y-12358284D02*
X14672784Y-12301715D01*
X14616215Y-12301715D01*
X14616215Y-12358284D01*
X14672784Y-12358284D01*
X14677784Y-12871284D02*
X14677784Y-12814715D01*
X14621215Y-12814715D01*
X14621215Y-12871284D01*
X14677784Y-12871284D01*
X14677784Y-13633284D02*
X14677784Y-13576715D01*
X14621215Y-13576715D01*
X14621215Y-13633284D01*
X14677784Y-13633284D01*
X14677784Y-14096284D02*
X14677784Y-14039715D01*
X14621215Y-14039715D01*
X14621215Y-14096284D01*
X14677784Y-14096284D01*
X14677784Y-14858284D02*
X14677784Y-14801715D01*
X14621215Y-14801715D01*
X14621215Y-14858284D01*
X14677784Y-14858284D01*
X14680284Y-15346284D02*
X14680284Y-15289715D01*
X14623715Y-15289715D01*
X14623715Y-15346284D01*
X14680284Y-15346284D01*
X14680284Y-16108284D02*
X14680284Y-16051715D01*
X14623715Y-16051715D01*
X14623715Y-16108284D01*
X14680284Y-16108284D01*
X14688784Y-20571285D02*
X14688784Y-20514716D01*
X14632215Y-20514716D01*
X14632215Y-20571285D01*
X14688784Y-20571285D01*
X14688784Y-21333285D02*
X14688784Y-21276716D01*
X14632215Y-21276716D01*
X14632215Y-21333285D01*
X14688784Y-21333285D01*
X14723784Y-19146285D02*
X14723784Y-19089716D01*
X14667215Y-19089716D01*
X14667215Y-19146285D01*
X14723784Y-19146285D01*
X14723784Y-19908285D02*
X14723784Y-19851716D01*
X14667215Y-19851716D01*
X14667215Y-19908285D01*
X14723784Y-19908285D01*
X14926784Y-11596284D02*
X14926784Y-11539715D01*
X14870215Y-11539715D01*
X14870215Y-11596284D01*
X14926784Y-11596284D01*
X14926784Y-12358284D02*
X14926784Y-12301715D01*
X14870215Y-12301715D01*
X14870215Y-12358284D01*
X14926784Y-12358284D01*
X14931784Y-12871284D02*
X14931784Y-12814715D01*
X14875215Y-12814715D01*
X14875215Y-12871284D01*
X14931784Y-12871284D01*
X14931784Y-13633284D02*
X14931784Y-13576715D01*
X14875215Y-13576715D01*
X14875215Y-13633284D01*
X14931784Y-13633284D01*
X14931784Y-14096284D02*
X14931784Y-14039715D01*
X14875215Y-14039715D01*
X14875215Y-14096284D01*
X14931784Y-14096284D01*
X14931784Y-14858284D02*
X14931784Y-14801715D01*
X14875215Y-14801715D01*
X14875215Y-14858284D01*
X14931784Y-14858284D01*
X14934284Y-15346284D02*
X14934284Y-15289715D01*
X14877715Y-15289715D01*
X14877715Y-15346284D01*
X14934284Y-15346284D01*
X14934284Y-16108284D02*
X14934284Y-16051715D01*
X14877715Y-16051715D01*
X14877715Y-16108284D01*
X14934284Y-16108284D01*
X14942784Y-20571285D02*
X14942784Y-20514716D01*
X14886215Y-20514716D01*
X14886215Y-20571285D01*
X14942784Y-20571285D01*
X14942784Y-21333285D02*
X14942784Y-21276716D01*
X14886215Y-21276716D01*
X14886215Y-21333285D01*
X14942784Y-21333285D01*
X14977784Y-19146285D02*
X14977784Y-19089716D01*
X14921215Y-19089716D01*
X14921215Y-19146285D01*
X14977784Y-19146285D01*
X14977784Y-19908285D02*
X14977784Y-19851716D01*
X14921215Y-19851716D01*
X14921215Y-19908285D01*
X14977784Y-19908285D01*
X15005784Y-10253285D02*
X15005784Y-10196716D01*
X14949215Y-10196716D01*
X14949215Y-10253285D01*
X15005784Y-10253285D01*
X15136784Y-9028285D02*
X15136784Y-8971716D01*
X15080215Y-8971716D01*
X15080215Y-9028285D01*
X15136784Y-9028285D01*
X15136784Y-9628285D02*
X15136784Y-9571716D01*
X15080215Y-9571716D01*
X15080215Y-9628285D01*
X15136784Y-9628285D01*
X15180784Y-11596284D02*
X15180784Y-11539715D01*
X15124215Y-11539715D01*
X15124215Y-11596284D01*
X15180784Y-11596284D01*
X15180784Y-12358284D02*
X15180784Y-12301715D01*
X15124215Y-12301715D01*
X15124215Y-12358284D01*
X15180784Y-12358284D01*
X15185784Y-12871284D02*
X15185784Y-12814715D01*
X15129215Y-12814715D01*
X15129215Y-12871284D01*
X15185784Y-12871284D01*
X15185784Y-13633284D02*
X15185784Y-13576715D01*
X15129215Y-13576715D01*
X15129215Y-13633284D01*
X15185784Y-13633284D01*
X15185784Y-14096284D02*
X15185784Y-14039715D01*
X15129215Y-14039715D01*
X15129215Y-14096284D01*
X15185784Y-14096284D01*
X15185784Y-14858284D02*
X15185784Y-14801715D01*
X15129215Y-14801715D01*
X15129215Y-14858284D01*
X15185784Y-14858284D01*
X15188284Y-15346284D02*
X15188284Y-15289715D01*
X15131715Y-15289715D01*
X15131715Y-15346284D01*
X15188284Y-15346284D01*
X15188284Y-16108284D02*
X15188284Y-16051715D01*
X15131715Y-16051715D01*
X15131715Y-16108284D01*
X15188284Y-16108284D01*
X15196784Y-20571285D02*
X15196784Y-20514716D01*
X15140215Y-20514716D01*
X15140215Y-20571285D01*
X15196784Y-20571285D01*
X15196784Y-21333285D02*
X15196784Y-21276716D01*
X15140215Y-21276716D01*
X15140215Y-21333285D01*
X15196784Y-21333285D01*
X15231784Y-19146285D02*
X15231784Y-19089716D01*
X15175215Y-19089716D01*
X15175215Y-19146285D01*
X15231784Y-19146285D01*
X15231784Y-19908285D02*
X15231784Y-19851716D01*
X15175215Y-19851716D01*
X15175215Y-19908285D01*
X15231784Y-19908285D01*
X15374784Y-9028285D02*
X15374784Y-8971716D01*
X15318215Y-8971716D01*
X15318215Y-9028285D01*
X15374784Y-9028285D01*
X15380784Y-9628285D02*
X15380784Y-9571716D01*
X15324215Y-9571716D01*
X15324215Y-9628285D01*
X15380784Y-9628285D01*
X15434784Y-11596284D02*
X15434784Y-11539715D01*
X15378215Y-11539715D01*
X15378215Y-11596284D01*
X15434784Y-11596284D01*
X15434784Y-12358284D02*
X15434784Y-12301715D01*
X15378215Y-12301715D01*
X15378215Y-12358284D01*
X15434784Y-12358284D01*
X15439784Y-12871284D02*
X15439784Y-12814715D01*
X15383215Y-12814715D01*
X15383215Y-12871284D01*
X15439784Y-12871284D01*
X15439784Y-13633284D02*
X15439784Y-13576715D01*
X15383215Y-13576715D01*
X15383215Y-13633284D01*
X15439784Y-13633284D01*
X15439784Y-14096284D02*
X15439784Y-14039715D01*
X15383215Y-14039715D01*
X15383215Y-14096284D01*
X15439784Y-14096284D01*
X15439784Y-14858284D02*
X15439784Y-14801715D01*
X15383215Y-14801715D01*
X15383215Y-14858284D01*
X15439784Y-14858284D01*
X15442284Y-15346284D02*
X15442284Y-15289715D01*
X15385715Y-15289715D01*
X15385715Y-15346284D01*
X15442284Y-15346284D01*
X15442284Y-16108284D02*
X15442284Y-16051715D01*
X15385715Y-16051715D01*
X15385715Y-16108284D01*
X15442284Y-16108284D01*
X15485784Y-19146285D02*
X15485784Y-19089716D01*
X15429215Y-19089716D01*
X15429215Y-19146285D01*
X15485784Y-19146285D01*
X15485784Y-19908285D02*
X15485784Y-19851716D01*
X15429215Y-19851716D01*
X15429215Y-19908285D01*
X15485784Y-19908285D01*
X15505784Y-10253285D02*
X15505784Y-10196716D01*
X15449215Y-10196716D01*
X15449215Y-10253285D01*
X15505784Y-10253285D01*
X15688784Y-11596284D02*
X15688784Y-11539715D01*
X15632215Y-11539715D01*
X15632215Y-11596284D01*
X15688784Y-11596284D01*
X15688784Y-12358284D02*
X15688784Y-12301715D01*
X15632215Y-12301715D01*
X15632215Y-12358284D01*
X15688784Y-12358284D01*
X15739784Y-19146285D02*
X15739784Y-19089716D01*
X15683215Y-19089716D01*
X15683215Y-19146285D01*
X15739784Y-19146285D01*
X15739784Y-19908285D02*
X15739784Y-19851716D01*
X15683215Y-19851716D01*
X15683215Y-19908285D01*
X15739784Y-19908285D01*
X15942784Y-11596284D02*
X15942784Y-11539715D01*
X15886215Y-11539715D01*
X15886215Y-11596284D01*
X15942784Y-11596284D01*
X15942784Y-12358284D02*
X15942784Y-12301715D01*
X15886215Y-12301715D01*
X15886215Y-12358284D01*
X15942784Y-12358284D01*
X16005784Y-10253285D02*
X16005784Y-10196716D01*
X15949215Y-10196716D01*
X15949215Y-10253285D01*
X16005784Y-10253285D01*
X16078284Y-20828285D02*
X16078284Y-20771716D01*
X16021715Y-20771716D01*
X16021715Y-20828285D01*
X16078284Y-20828285D01*
X16078284Y-21328285D02*
X16078284Y-21271716D01*
X16021715Y-21271716D01*
X16021715Y-21328285D01*
X16078284Y-21328285D01*
X16136784Y-9028285D02*
X16136784Y-8971716D01*
X16080215Y-8971716D01*
X16080215Y-9028285D01*
X16136784Y-9028285D01*
X16142784Y-9628285D02*
X16142784Y-9571716D01*
X16086215Y-9571716D01*
X16086215Y-9628285D01*
X16142784Y-9628285D01*
X16196784Y-11596284D02*
X16196784Y-11539715D01*
X16140215Y-11539715D01*
X16140215Y-11596284D01*
X16196784Y-11596284D01*
X16196784Y-12358284D02*
X16196784Y-12301715D01*
X16140215Y-12301715D01*
X16140215Y-12358284D01*
X16196784Y-12358284D01*
X16285274Y-8428285D02*
X16285274Y-8371715D01*
X16228705Y-8371715D01*
X16228705Y-8428285D01*
X16285274Y-8428285D01*
X16535274Y-8428285D02*
X16535274Y-8371715D01*
X16478705Y-8371715D01*
X16478705Y-8428285D01*
X16535274Y-8428285D01*
X16585784Y-20546285D02*
X16585784Y-20489716D01*
X16529215Y-20489716D01*
X16529215Y-20546285D01*
X16585784Y-20546285D01*
X16585784Y-21308285D02*
X16585784Y-21251716D01*
X16529215Y-21251716D01*
X16529215Y-21308285D01*
X16585784Y-21308285D01*
X16657784Y-20058785D02*
X16657784Y-20002216D01*
X16601215Y-20002216D01*
X16601215Y-20058785D01*
X16657784Y-20058785D01*
X16803285Y-16803285D02*
X16803285Y-16746715D01*
X16746715Y-16746715D01*
X16746715Y-16803285D01*
X16803285Y-16803285D01*
X16803285Y-17303285D02*
X16803285Y-17246716D01*
X16746715Y-17246716D01*
X16746715Y-17303285D01*
X16803285Y-17303285D01*
X16839785Y-20546285D02*
X16839785Y-20489716D01*
X16783216Y-20489716D01*
X16783216Y-20546285D01*
X16839785Y-20546285D01*
X16839785Y-21308285D02*
X16839785Y-21251716D01*
X16783216Y-21251716D01*
X16783216Y-21308285D01*
X16839785Y-21308285D01*
X16911785Y-20058785D02*
X16911785Y-20002216D01*
X16855216Y-20002216D01*
X16855216Y-20058785D01*
X16911785Y-20058785D01*
X17093785Y-20546285D02*
X17093785Y-20489716D01*
X17037216Y-20489716D01*
X17037216Y-20546285D01*
X17093785Y-20546285D01*
X17093785Y-21308285D02*
X17093785Y-21251716D01*
X17037216Y-21251716D01*
X17037216Y-21308285D01*
X17093785Y-21308285D01*
X17165785Y-20058785D02*
X17165785Y-20002216D01*
X17109216Y-20002216D01*
X17109216Y-20058785D01*
X17165785Y-20058785D01*
X17207775Y-14278284D02*
X17207775Y-14221715D01*
X17151206Y-14221715D01*
X17151206Y-14278284D01*
X17207775Y-14278284D01*
X17265785Y-16291784D02*
X17265785Y-16235215D01*
X17209216Y-16235215D01*
X17209216Y-16291784D01*
X17265785Y-16291784D01*
X17265785Y-17815785D02*
X17265785Y-17759216D01*
X17209216Y-17759216D01*
X17209216Y-17815785D01*
X17265785Y-17815785D01*
X17347785Y-20546285D02*
X17347785Y-20489716D01*
X17291216Y-20489716D01*
X17291216Y-20546285D01*
X17347785Y-20546285D01*
X17347785Y-21308285D02*
X17347785Y-21251716D01*
X17291216Y-21251716D01*
X17291216Y-21308285D01*
X17347785Y-21308285D01*
X17419785Y-20058785D02*
X17419785Y-20002216D01*
X17363216Y-20002216D01*
X17363216Y-20058785D01*
X17419785Y-20058785D01*
X17457775Y-14278284D02*
X17457775Y-14221715D01*
X17401206Y-14221715D01*
X17401206Y-14278284D01*
X17457775Y-14278284D01*
X17519785Y-16291784D02*
X17519785Y-16235215D01*
X17463216Y-16235215D01*
X17463216Y-16291784D01*
X17519785Y-16291784D01*
X17519785Y-17815785D02*
X17519785Y-17759216D01*
X17463216Y-17759216D01*
X17463216Y-17815785D01*
X17519785Y-17815785D01*
X17601785Y-20546285D02*
X17601785Y-20489716D01*
X17545216Y-20489716D01*
X17545216Y-20546285D01*
X17601785Y-20546285D01*
X17601785Y-21308285D02*
X17601785Y-21251716D01*
X17545216Y-21251716D01*
X17545216Y-21308285D01*
X17601785Y-21308285D01*
X17673785Y-20058785D02*
X17673785Y-20002216D01*
X17617216Y-20002216D01*
X17617216Y-20058785D01*
X17673785Y-20058785D01*
X17773785Y-16291784D02*
X17773785Y-16235215D01*
X17717216Y-16235215D01*
X17717216Y-16291784D01*
X17773785Y-16291784D01*
X17773785Y-17815785D02*
X17773785Y-17759216D01*
X17717216Y-17759216D01*
X17717216Y-17815785D01*
X17773785Y-17815785D01*
X17855785Y-20546285D02*
X17855785Y-20489716D01*
X17799216Y-20489716D01*
X17799216Y-20546285D01*
X17855785Y-20546285D01*
X17855785Y-21308285D02*
X17855785Y-21251716D01*
X17799216Y-21251716D01*
X17799216Y-21308285D01*
X17855785Y-21308285D01*
X17903285Y-14997284D02*
X17903285Y-14940715D01*
X17846716Y-14940715D01*
X17846716Y-14997284D01*
X17903285Y-14997284D01*
X17903285Y-15759284D02*
X17903285Y-15702715D01*
X17846716Y-15702715D01*
X17846716Y-15759284D01*
X17903285Y-15759284D01*
X17927785Y-20058785D02*
X17927785Y-20002216D01*
X17871216Y-20002216D01*
X17871216Y-20058785D01*
X17927785Y-20058785D01*
X18027785Y-16291784D02*
X18027785Y-16235215D01*
X17971216Y-16235215D01*
X17971216Y-16291784D01*
X18027785Y-16291784D01*
X18027785Y-17815785D02*
X18027785Y-17759216D01*
X17971216Y-17759216D01*
X17971216Y-17815785D01*
X18027785Y-17815785D01*
X18109785Y-20546285D02*
X18109785Y-20489716D01*
X18053216Y-20489716D01*
X18053216Y-20546285D01*
X18109785Y-20546285D01*
X18109785Y-21308285D02*
X18109785Y-21251716D01*
X18053216Y-21251716D01*
X18053216Y-21308285D01*
X18109785Y-21308285D01*
X18181785Y-20058785D02*
X18181785Y-20002216D01*
X18125216Y-20002216D01*
X18125216Y-20058785D01*
X18181785Y-20058785D01*
X18281785Y-16291784D02*
X18281785Y-16235215D01*
X18225216Y-16235215D01*
X18225216Y-16291784D01*
X18281785Y-16291784D01*
X18281785Y-17815785D02*
X18281785Y-17759216D01*
X18225216Y-17759216D01*
X18225216Y-17815785D01*
X18281785Y-17815785D01*
X18328285Y-11428284D02*
X18328285Y-11371715D01*
X18271716Y-11371715D01*
X18271716Y-11428284D01*
X18328285Y-11428284D01*
X18328285Y-11928284D02*
X18328285Y-11871715D01*
X18271716Y-11871715D01*
X18271716Y-11928284D01*
X18328285Y-11928284D01*
X18328285Y-13453284D02*
X18328285Y-13396715D01*
X18271716Y-13396715D01*
X18271716Y-13453284D01*
X18328285Y-13453284D01*
X18328285Y-13953284D02*
X18328285Y-13896715D01*
X18271716Y-13896715D01*
X18271716Y-13953284D01*
X18328285Y-13953284D01*
X18363785Y-20546285D02*
X18363785Y-20489716D01*
X18307216Y-20489716D01*
X18307216Y-20546285D01*
X18363785Y-20546285D01*
X18363785Y-21308285D02*
X18363785Y-21251716D01*
X18307216Y-21251716D01*
X18307216Y-21308285D01*
X18363785Y-21308285D01*
X18435785Y-20058785D02*
X18435785Y-20002216D01*
X18379216Y-20002216D01*
X18379216Y-20058785D01*
X18435785Y-20058785D01*
X18503285Y-14997284D02*
X18503285Y-14940715D01*
X18446716Y-14940715D01*
X18446716Y-14997284D01*
X18503285Y-14997284D01*
X18503285Y-15759284D02*
X18503285Y-15702715D01*
X18446716Y-15702715D01*
X18446716Y-15759284D01*
X18503285Y-15759284D01*
X18535785Y-16291784D02*
X18535785Y-16235215D01*
X18479216Y-16235215D01*
X18479216Y-16291784D01*
X18535785Y-16291784D01*
X18535785Y-17815785D02*
X18535785Y-17759216D01*
X18479216Y-17759216D01*
X18479216Y-17815785D01*
X18535785Y-17815785D01*
X18617785Y-20546285D02*
X18617785Y-20489716D01*
X18561216Y-20489716D01*
X18561216Y-20546285D01*
X18617785Y-20546285D01*
X18617785Y-21308285D02*
X18617785Y-21251716D01*
X18561216Y-21251716D01*
X18561216Y-21308285D01*
X18617785Y-21308285D01*
X18689785Y-20058785D02*
X18689785Y-20002216D01*
X18633216Y-20002216D01*
X18633216Y-20058785D01*
X18689785Y-20058785D01*
X18789785Y-16291784D02*
X18789785Y-16235215D01*
X18733216Y-16235215D01*
X18733216Y-16291784D01*
X18789785Y-16291784D01*
X18789785Y-17815785D02*
X18789785Y-17759216D01*
X18733216Y-17759216D01*
X18733216Y-17815785D01*
X18789785Y-17815785D01*
X18803285Y-10891785D02*
X18803285Y-10835216D01*
X18746716Y-10835216D01*
X18746716Y-10891785D01*
X18803285Y-10891785D01*
X18803285Y-12415784D02*
X18803285Y-12359215D01*
X18746716Y-12359215D01*
X18746716Y-12415784D01*
X18803285Y-12415784D01*
X18803285Y-12941784D02*
X18803285Y-12885215D01*
X18746716Y-12885215D01*
X18746716Y-12941784D01*
X18803285Y-12941784D01*
X18803285Y-14465784D02*
X18803285Y-14409215D01*
X18746716Y-14409215D01*
X18746716Y-14465784D01*
X18803285Y-14465784D01*
X18871785Y-20546285D02*
X18871785Y-20489716D01*
X18815216Y-20489716D01*
X18815216Y-20546285D01*
X18871785Y-20546285D01*
X18871785Y-21308285D02*
X18871785Y-21251716D01*
X18815216Y-21251716D01*
X18815216Y-21308285D01*
X18871785Y-21308285D01*
X19043785Y-16291784D02*
X19043785Y-16235215D01*
X18987216Y-16235215D01*
X18987216Y-16291784D01*
X19043785Y-16291784D01*
X19043785Y-17815785D02*
X19043785Y-17759216D01*
X18987216Y-17759216D01*
X18987216Y-17815785D01*
X19043785Y-17815785D01*
X19057285Y-10891785D02*
X19057285Y-10835216D01*
X19000716Y-10835216D01*
X19000716Y-10891785D01*
X19057285Y-10891785D01*
X19057285Y-12415784D02*
X19057285Y-12359215D01*
X19000716Y-12359215D01*
X19000716Y-12415784D01*
X19057285Y-12415784D01*
X19057285Y-12941784D02*
X19057285Y-12885215D01*
X19000716Y-12885215D01*
X19000716Y-12941784D01*
X19057285Y-12941784D01*
X19057285Y-14465784D02*
X19057285Y-14409215D01*
X19000716Y-14409215D01*
X19000716Y-14465784D01*
X19057285Y-14465784D01*
X19103285Y-14997284D02*
X19103285Y-14940715D01*
X19046716Y-14940715D01*
X19046716Y-14997284D01*
X19103285Y-14997284D01*
X19103285Y-15759284D02*
X19103285Y-15702715D01*
X19046716Y-15702715D01*
X19046716Y-15759284D01*
X19103285Y-15759284D01*
X19228285Y-21728285D02*
X19228285Y-21671716D01*
X19171716Y-21671716D01*
X19171716Y-21728285D01*
X19228285Y-21728285D01*
X19297785Y-16291784D02*
X19297785Y-16235215D01*
X19241216Y-16235215D01*
X19241216Y-16291784D01*
X19297785Y-16291784D01*
X19297785Y-17815785D02*
X19297785Y-17759216D01*
X19241216Y-17759216D01*
X19241216Y-17815785D01*
X19297785Y-17815785D01*
X19311285Y-10891785D02*
X19311285Y-10835216D01*
X19254716Y-10835216D01*
X19254716Y-10891785D01*
X19311285Y-10891785D01*
X19311285Y-12415784D02*
X19311285Y-12359215D01*
X19254716Y-12359215D01*
X19254716Y-12415784D01*
X19311285Y-12415784D01*
X19311285Y-12941784D02*
X19311285Y-12885215D01*
X19254716Y-12885215D01*
X19254716Y-12941784D01*
X19311285Y-12941784D01*
X19311285Y-14465784D02*
X19311285Y-14409215D01*
X19254716Y-14409215D01*
X19254716Y-14465784D01*
X19311285Y-14465784D01*
X19478285Y-21728285D02*
X19478285Y-21671716D01*
X19421716Y-21671716D01*
X19421716Y-21728285D01*
X19478285Y-21728285D01*
X19551785Y-16291784D02*
X19551785Y-16235215D01*
X19495216Y-16235215D01*
X19495216Y-16291784D01*
X19551785Y-16291784D01*
X19551785Y-17815785D02*
X19551785Y-17759216D01*
X19495216Y-17759216D01*
X19495216Y-17815785D01*
X19551785Y-17815785D01*
X19565285Y-10891785D02*
X19565285Y-10835216D01*
X19508716Y-10835216D01*
X19508716Y-10891785D01*
X19565285Y-10891785D01*
X19565285Y-12415784D02*
X19565285Y-12359215D01*
X19508716Y-12359215D01*
X19508716Y-12415784D01*
X19565285Y-12415784D01*
X19565285Y-12941784D02*
X19565285Y-12885215D01*
X19508716Y-12885215D01*
X19508716Y-12941784D01*
X19565285Y-12941784D01*
X19565285Y-14465784D02*
X19565285Y-14409215D01*
X19508716Y-14409215D01*
X19508716Y-14465784D01*
X19565285Y-14465784D01*
X19703285Y-14997284D02*
X19703285Y-14940715D01*
X19646716Y-14940715D01*
X19646716Y-14997284D01*
X19703285Y-14997284D01*
X19703285Y-15759284D02*
X19703285Y-15702715D01*
X19646716Y-15702715D01*
X19646716Y-15759284D01*
X19703285Y-15759284D01*
X19805785Y-16291784D02*
X19805785Y-16235215D01*
X19749216Y-16235215D01*
X19749216Y-16291784D01*
X19805785Y-16291784D01*
X19805785Y-17815785D02*
X19805785Y-17759216D01*
X19749216Y-17759216D01*
X19749216Y-17815785D01*
X19805785Y-17815785D01*
X19819285Y-10891785D02*
X19819285Y-10835216D01*
X19762716Y-10835216D01*
X19762716Y-10891785D01*
X19819285Y-10891785D01*
X19819285Y-12415784D02*
X19819285Y-12359215D01*
X19762716Y-12359215D01*
X19762716Y-12415784D01*
X19819285Y-12415784D01*
X19819285Y-12941784D02*
X19819285Y-12885215D01*
X19762716Y-12885215D01*
X19762716Y-12941784D01*
X19819285Y-12941784D01*
X19819285Y-14465784D02*
X19819285Y-14409215D01*
X19762716Y-14409215D01*
X19762716Y-14465784D01*
X19819285Y-14465784D01*
X19953285Y-19478285D02*
X19953285Y-19421716D01*
X19896716Y-19421716D01*
X19896716Y-19478285D01*
X19953285Y-19478285D01*
X19953285Y-19978285D02*
X19953285Y-19921716D01*
X19896716Y-19921716D01*
X19896716Y-19978285D01*
X19953285Y-19978285D01*
X19978285Y-20803285D02*
X19978285Y-20746716D01*
X19921716Y-20746716D01*
X19921716Y-20803285D01*
X19978285Y-20803285D01*
X19978285Y-21303285D02*
X19978285Y-21246716D01*
X19921716Y-21246716D01*
X19921716Y-21303285D01*
X19978285Y-21303285D01*
X20059785Y-16291784D02*
X20059785Y-16235215D01*
X20003216Y-16235215D01*
X20003216Y-16291784D01*
X20059785Y-16291784D01*
X20059785Y-17815785D02*
X20059785Y-17759216D01*
X20003216Y-17759216D01*
X20003216Y-17815785D01*
X20059785Y-17815785D01*
X20073285Y-10891785D02*
X20073285Y-10835216D01*
X20016716Y-10835216D01*
X20016716Y-10891785D01*
X20073285Y-10891785D01*
X20073285Y-12415784D02*
X20073285Y-12359215D01*
X20016716Y-12359215D01*
X20016716Y-12415784D01*
X20073285Y-12415784D01*
X20073285Y-12941784D02*
X20073285Y-12885215D01*
X20016716Y-12885215D01*
X20016716Y-12941784D01*
X20073285Y-12941784D01*
X20073285Y-14465784D02*
X20073285Y-14409215D01*
X20016716Y-14409215D01*
X20016716Y-14465784D01*
X20073285Y-14465784D01*
X20303285Y-14997284D02*
X20303285Y-14940715D01*
X20246716Y-14940715D01*
X20246716Y-14997284D01*
X20303285Y-14997284D01*
X20303285Y-15759284D02*
X20303285Y-15702715D01*
X20246716Y-15702715D01*
X20246716Y-15759284D01*
X20303285Y-15759284D01*
X20313785Y-16291784D02*
X20313785Y-16235215D01*
X20257216Y-16235215D01*
X20257216Y-16291784D01*
X20313785Y-16291784D01*
X20313785Y-17815785D02*
X20313785Y-17759216D01*
X20257216Y-17759216D01*
X20257216Y-17815785D01*
X20313785Y-17815785D01*
X20327285Y-10891785D02*
X20327285Y-10835216D01*
X20270716Y-10835216D01*
X20270716Y-10891785D01*
X20327285Y-10891785D01*
X20327285Y-12415784D02*
X20327285Y-12359215D01*
X20270716Y-12359215D01*
X20270716Y-12415784D01*
X20327285Y-12415784D01*
X20327285Y-12941784D02*
X20327285Y-12885215D01*
X20270716Y-12885215D01*
X20270716Y-12941784D01*
X20327285Y-12941784D01*
X20327285Y-14465784D02*
X20327285Y-14409215D01*
X20270716Y-14409215D01*
X20270716Y-14465784D01*
X20327285Y-14465784D01*
X20435785Y-19221285D02*
X20435785Y-19164716D01*
X20379216Y-19164716D01*
X20379216Y-19221285D01*
X20435785Y-19221285D01*
X20435785Y-19983285D02*
X20435785Y-19926716D01*
X20379216Y-19926716D01*
X20379216Y-19983285D01*
X20435785Y-19983285D01*
X20460785Y-20546285D02*
X20460785Y-20489716D01*
X20404216Y-20489716D01*
X20404216Y-20546285D01*
X20460785Y-20546285D01*
X20460785Y-21308285D02*
X20460785Y-21251716D01*
X20404216Y-21251716D01*
X20404216Y-21308285D01*
X20460785Y-21308285D01*
X20567785Y-16291784D02*
X20567785Y-16235215D01*
X20511216Y-16235215D01*
X20511216Y-16291784D01*
X20567785Y-16291784D01*
X20567785Y-17815785D02*
X20567785Y-17759216D01*
X20511216Y-17759216D01*
X20511216Y-17815785D01*
X20567785Y-17815785D01*
X20581285Y-10891785D02*
X20581285Y-10835216D01*
X20524716Y-10835216D01*
X20524716Y-10891785D01*
X20581285Y-10891785D01*
X20581285Y-12415784D02*
X20581285Y-12359215D01*
X20524716Y-12359215D01*
X20524716Y-12415784D01*
X20581285Y-12415784D01*
X20581285Y-12941784D02*
X20581285Y-12885215D01*
X20524716Y-12885215D01*
X20524716Y-12941784D01*
X20581285Y-12941784D01*
X20581285Y-14465784D02*
X20581285Y-14409215D01*
X20524716Y-14409215D01*
X20524716Y-14465784D01*
X20581285Y-14465784D01*
X20689785Y-19221285D02*
X20689785Y-19164716D01*
X20633216Y-19164716D01*
X20633216Y-19221285D01*
X20689785Y-19221285D01*
X20689785Y-19983285D02*
X20689785Y-19926716D01*
X20633216Y-19926716D01*
X20633216Y-19983285D01*
X20689785Y-19983285D01*
X20714785Y-20546285D02*
X20714785Y-20489716D01*
X20658216Y-20489716D01*
X20658216Y-20546285D01*
X20714785Y-20546285D01*
X20714785Y-21308285D02*
X20714785Y-21251716D01*
X20658216Y-21251716D01*
X20658216Y-21308285D01*
X20714785Y-21308285D01*
X20821785Y-16291784D02*
X20821785Y-16235215D01*
X20765216Y-16235215D01*
X20765216Y-16291784D01*
X20821785Y-16291784D01*
X20821785Y-17815785D02*
X20821785Y-17759216D01*
X20765216Y-17759216D01*
X20765216Y-17815785D01*
X20821785Y-17815785D01*
X20835285Y-10891785D02*
X20835285Y-10835216D01*
X20778716Y-10835216D01*
X20778716Y-10891785D01*
X20835285Y-10891785D01*
X20835285Y-12415784D02*
X20835285Y-12359215D01*
X20778716Y-12359215D01*
X20778716Y-12415784D01*
X20835285Y-12415784D01*
X20835285Y-12941784D02*
X20835285Y-12885215D01*
X20778716Y-12885215D01*
X20778716Y-12941784D01*
X20835285Y-12941784D01*
X20835285Y-14465784D02*
X20835285Y-14409215D01*
X20778716Y-14409215D01*
X20778716Y-14465784D01*
X20835285Y-14465784D01*
X20903285Y-14997284D02*
X20903285Y-14940715D01*
X20846716Y-14940715D01*
X20846716Y-14997284D01*
X20903285Y-14997284D01*
X20903285Y-15759284D02*
X20903285Y-15702715D01*
X20846716Y-15702715D01*
X20846716Y-15759284D01*
X20903285Y-15759284D01*
X20943785Y-19221285D02*
X20943785Y-19164716D01*
X20887216Y-19164716D01*
X20887216Y-19221285D01*
X20943785Y-19221285D01*
X20943785Y-19983285D02*
X20943785Y-19926716D01*
X20887216Y-19926716D01*
X20887216Y-19983285D01*
X20943785Y-19983285D01*
X20968785Y-20546285D02*
X20968785Y-20489716D01*
X20912216Y-20489716D01*
X20912216Y-20546285D01*
X20968785Y-20546285D01*
X20968785Y-21308285D02*
X20968785Y-21251716D01*
X20912216Y-21251716D01*
X20912216Y-21308285D01*
X20968785Y-21308285D01*
X21075785Y-16291784D02*
X21075785Y-16235215D01*
X21019216Y-16235215D01*
X21019216Y-16291784D01*
X21075785Y-16291784D01*
X21075785Y-17815785D02*
X21075785Y-17759216D01*
X21019216Y-17759216D01*
X21019216Y-17815785D01*
X21075785Y-17815785D01*
X21089285Y-10891785D02*
X21089285Y-10835216D01*
X21032716Y-10835216D01*
X21032716Y-10891785D01*
X21089285Y-10891785D01*
X21089285Y-12415784D02*
X21089285Y-12359215D01*
X21032716Y-12359215D01*
X21032716Y-12415784D01*
X21089285Y-12415784D01*
X21089285Y-12941784D02*
X21089285Y-12885215D01*
X21032716Y-12885215D01*
X21032716Y-12941784D01*
X21089285Y-12941784D01*
X21089285Y-14465784D02*
X21089285Y-14409215D01*
X21032716Y-14409215D01*
X21032716Y-14465784D01*
X21089285Y-14465784D01*
X21197785Y-19221285D02*
X21197785Y-19164716D01*
X21141216Y-19164716D01*
X21141216Y-19221285D01*
X21197785Y-19221285D01*
X21197785Y-19983285D02*
X21197785Y-19926716D01*
X21141216Y-19926716D01*
X21141216Y-19983285D01*
X21197785Y-19983285D01*
X21222785Y-20546285D02*
X21222785Y-20489716D01*
X21166216Y-20489716D01*
X21166216Y-20546285D01*
X21222785Y-20546285D01*
X21222785Y-21308285D02*
X21222785Y-21251716D01*
X21166216Y-21251716D01*
X21166216Y-21308285D01*
X21222785Y-21308285D01*
X21329785Y-16291784D02*
X21329785Y-16235215D01*
X21273216Y-16235215D01*
X21273216Y-16291784D01*
X21329785Y-16291784D01*
X21329785Y-17815785D02*
X21329785Y-17759216D01*
X21273216Y-17759216D01*
X21273216Y-17815785D01*
X21329785Y-17815785D01*
X21343285Y-10891785D02*
X21343285Y-10835216D01*
X21286716Y-10835216D01*
X21286716Y-10891785D01*
X21343285Y-10891785D01*
X21343285Y-12415784D02*
X21343285Y-12359215D01*
X21286716Y-12359215D01*
X21286716Y-12415784D01*
X21343285Y-12415784D01*
X21343285Y-12941784D02*
X21343285Y-12885215D01*
X21286716Y-12885215D01*
X21286716Y-12941784D01*
X21343285Y-12941784D01*
X21343285Y-14465784D02*
X21343285Y-14409215D01*
X21286716Y-14409215D01*
X21286716Y-14465784D01*
X21343285Y-14465784D01*
X21451785Y-19221285D02*
X21451785Y-19164716D01*
X21395216Y-19164716D01*
X21395216Y-19221285D01*
X21451785Y-19221285D01*
X21451785Y-19983285D02*
X21451785Y-19926716D01*
X21395216Y-19926716D01*
X21395216Y-19983285D01*
X21451785Y-19983285D01*
X21476785Y-20546285D02*
X21476785Y-20489716D01*
X21420216Y-20489716D01*
X21420216Y-20546285D01*
X21476785Y-20546285D01*
X21476785Y-21308285D02*
X21476785Y-21251716D01*
X21420216Y-21251716D01*
X21420216Y-21308285D01*
X21476785Y-21308285D01*
X21503285Y-14997284D02*
X21503285Y-14940715D01*
X21446716Y-14940715D01*
X21446716Y-14997284D01*
X21503285Y-14997284D01*
X21503285Y-15759284D02*
X21503285Y-15702715D01*
X21446716Y-15702715D01*
X21446716Y-15759284D01*
X21503285Y-15759284D01*
X21583785Y-16291784D02*
X21583785Y-16235215D01*
X21527216Y-16235215D01*
X21527216Y-16291784D01*
X21583785Y-16291784D01*
X21583785Y-17815785D02*
X21583785Y-17759216D01*
X21527216Y-17759216D01*
X21527216Y-17815785D01*
X21583785Y-17815785D01*
X21597285Y-10891785D02*
X21597285Y-10835216D01*
X21540716Y-10835216D01*
X21540716Y-10891785D01*
X21597285Y-10891785D01*
X21597285Y-12415784D02*
X21597285Y-12359215D01*
X21540716Y-12359215D01*
X21540716Y-12415784D01*
X21597285Y-12415784D01*
X21597285Y-12941784D02*
X21597285Y-12885215D01*
X21540716Y-12885215D01*
X21540716Y-12941784D01*
X21597285Y-12941784D01*
X21597285Y-14465784D02*
X21597285Y-14409215D01*
X21540716Y-14409215D01*
X21540716Y-14465784D01*
X21597285Y-14465784D01*
X21705785Y-19221285D02*
X21705785Y-19164716D01*
X21649216Y-19164716D01*
X21649216Y-19221285D01*
X21705785Y-19221285D01*
X21705785Y-19983285D02*
X21705785Y-19926716D01*
X21649216Y-19926716D01*
X21649216Y-19983285D01*
X21705785Y-19983285D01*
X21730785Y-20546285D02*
X21730785Y-20489716D01*
X21674216Y-20489716D01*
X21674216Y-20546285D01*
X21730785Y-20546285D01*
X21730785Y-21308285D02*
X21730785Y-21251716D01*
X21674216Y-21251716D01*
X21674216Y-21308285D01*
X21730785Y-21308285D01*
X21837785Y-16291784D02*
X21837785Y-16235215D01*
X21781216Y-16235215D01*
X21781216Y-16291784D01*
X21837785Y-16291784D01*
X21837785Y-17815785D02*
X21837785Y-17759216D01*
X21781216Y-17759216D01*
X21781216Y-17815785D01*
X21837785Y-17815785D01*
X21851285Y-10891785D02*
X21851285Y-10835216D01*
X21794716Y-10835216D01*
X21794716Y-10891785D01*
X21851285Y-10891785D01*
X21851285Y-12415784D02*
X21851285Y-12359215D01*
X21794716Y-12359215D01*
X21794716Y-12415784D01*
X21851285Y-12415784D01*
X21851285Y-12941784D02*
X21851285Y-12885215D01*
X21794716Y-12885215D01*
X21794716Y-12941784D01*
X21851285Y-12941784D01*
X21851285Y-14465784D02*
X21851285Y-14409215D01*
X21794716Y-14409215D01*
X21794716Y-14465784D01*
X21851285Y-14465784D01*
X21959785Y-19221285D02*
X21959785Y-19164716D01*
X21903216Y-19164716D01*
X21903216Y-19221285D01*
X21959785Y-19221285D01*
X21959785Y-19983285D02*
X21959785Y-19926716D01*
X21903216Y-19926716D01*
X21903216Y-19983285D01*
X21959785Y-19983285D01*
X21984785Y-20546285D02*
X21984785Y-20489716D01*
X21928216Y-20489716D01*
X21928216Y-20546285D01*
X21984785Y-20546285D01*
X21984785Y-21308285D02*
X21984785Y-21251716D01*
X21928216Y-21251716D01*
X21928216Y-21308285D01*
X21984785Y-21308285D01*
X22091785Y-16291784D02*
X22091785Y-16235215D01*
X22035216Y-16235215D01*
X22035216Y-16291784D01*
X22091785Y-16291784D01*
X22091785Y-17815785D02*
X22091785Y-17759216D01*
X22035216Y-17759216D01*
X22035216Y-17815785D01*
X22091785Y-17815785D01*
X22103285Y-14997284D02*
X22103285Y-14940715D01*
X22046716Y-14940715D01*
X22046716Y-14997284D01*
X22103285Y-14997284D01*
X22103285Y-15759284D02*
X22103285Y-15702715D01*
X22046716Y-15702715D01*
X22046716Y-15759284D01*
X22103285Y-15759284D01*
X22105285Y-10891785D02*
X22105285Y-10835216D01*
X22048716Y-10835216D01*
X22048716Y-10891785D01*
X22105285Y-10891785D01*
X22105285Y-12415784D02*
X22105285Y-12359215D01*
X22048716Y-12359215D01*
X22048716Y-12415784D01*
X22105285Y-12415784D01*
X22105285Y-12941784D02*
X22105285Y-12885215D01*
X22048716Y-12885215D01*
X22048716Y-12941784D01*
X22105285Y-12941784D01*
X22105285Y-14465784D02*
X22105285Y-14409215D01*
X22048716Y-14409215D01*
X22048716Y-14465784D01*
X22105285Y-14465784D01*
X22213785Y-19221285D02*
X22213785Y-19164716D01*
X22157216Y-19164716D01*
X22157216Y-19221285D01*
X22213785Y-19221285D01*
X22213785Y-19983285D02*
X22213785Y-19926716D01*
X22157216Y-19926716D01*
X22157216Y-19983285D01*
X22213785Y-19983285D01*
X22238785Y-20546285D02*
X22238785Y-20489716D01*
X22182216Y-20489716D01*
X22182216Y-20546285D01*
X22238785Y-20546285D01*
X22238785Y-21308285D02*
X22238785Y-21251716D01*
X22182216Y-21251716D01*
X22182216Y-21308285D01*
X22238785Y-21308285D01*
X22467784Y-19221285D02*
X22467784Y-19164716D01*
X22411215Y-19164716D01*
X22411215Y-19221285D01*
X22467784Y-19221285D01*
X22467784Y-19983285D02*
X22467784Y-19926716D01*
X22411215Y-19926716D01*
X22411215Y-19983285D01*
X22467784Y-19983285D01*
X22492784Y-20546285D02*
X22492784Y-20489716D01*
X22436215Y-20489716D01*
X22436215Y-20546285D01*
X22492784Y-20546285D01*
X22492784Y-21308285D02*
X22492784Y-21251716D01*
X22436215Y-21251716D01*
X22436215Y-21308285D01*
X22492784Y-21308285D01*
X22721784Y-19221285D02*
X22721784Y-19164716D01*
X22665215Y-19164716D01*
X22665215Y-19221285D01*
X22721784Y-19221285D01*
X22721784Y-19983285D02*
X22721784Y-19926716D01*
X22665215Y-19926716D01*
X22665215Y-19983285D01*
X22721784Y-19983285D01*
X22746784Y-20546285D02*
X22746784Y-20489716D01*
X22690215Y-20489716D01*
X22690215Y-20546285D01*
X22746784Y-20546285D01*
X22746784Y-21308285D02*
X22746784Y-21251716D01*
X22690215Y-21251716D01*
X22690215Y-21308285D01*
X22746784Y-21308285D01*
D16*
X4671000Y-8140000D02*
X4716000Y-8095000D01*
X4671000Y-8050000D01*
X4626000Y-8095000D01*
X4671000Y-8140000D01*
X4925000Y-8140000D02*
X4970000Y-8095000D01*
X4925000Y-8050000D01*
X4880000Y-8095000D01*
X4925000Y-8140000D01*
X5296000Y-8130000D02*
X5341000Y-8085000D01*
X5296000Y-8040000D01*
X5251000Y-8085000D01*
X5296000Y-8130000D01*
X5550000Y-8130000D02*
X5595000Y-8085000D01*
X5550000Y-8040000D01*
X5505000Y-8085000D01*
X5550000Y-8130000D01*
D17*
X4654000Y-22250000D02*
X4754000Y-22350000D01*
X4754000Y-22250000D02*
X4654000Y-22350000D01*
X4754000Y-22300000D02*
G75*
G03*
X4754000Y-22300000I-50000J0D01*
G01*
X4654000Y-22504000D02*
X4754000Y-22604000D01*
X4754000Y-22504000D02*
X4654000Y-22604000D01*
X4754000Y-22554000D02*
G75*
G03*
X4754000Y-22554000I-50000J0D01*
G01*
X4908000Y-22250000D02*
X5008000Y-22350000D01*
X5008000Y-22250000D02*
X4908000Y-22350000D01*
X5008000Y-22300000D02*
G75*
G03*
X5008000Y-22300000I-50000J0D01*
G01*
X4908000Y-22504000D02*
X5008000Y-22604000D01*
X5008000Y-22504000D02*
X4908000Y-22604000D01*
X5008000Y-22554000D02*
G75*
G03*
X5008000Y-22554000I-50000J0D01*
G01*
X5162000Y-22250000D02*
X5262000Y-22350000D01*
X5262000Y-22250000D02*
X5162000Y-22350000D01*
X5262000Y-22300000D02*
G75*
G03*
X5262000Y-22300000I-50000J0D01*
G01*
X5162000Y-22504000D02*
X5262000Y-22604000D01*
X5262000Y-22504000D02*
X5162000Y-22604000D01*
X5262000Y-22554000D02*
G75*
G03*
X5262000Y-22554000I-50000J0D01*
G01*
X5170000Y-21850000D02*
X5270000Y-21950000D01*
X5270000Y-21850000D02*
X5170000Y-21950000D01*
X5270000Y-21900000D02*
G75*
G03*
X5270000Y-21900000I-50000J0D01*
G01*
X5416000Y-22250000D02*
X5516000Y-22350000D01*
X5516000Y-22250000D02*
X5416000Y-22350000D01*
X5516000Y-22300000D02*
G75*
G03*
X5516000Y-22300000I-50000J0D01*
G01*
X5416000Y-22504000D02*
X5516000Y-22604000D01*
X5516000Y-22504000D02*
X5416000Y-22604000D01*
X5516000Y-22554000D02*
G75*
G03*
X5516000Y-22554000I-50000J0D01*
G01*
X5424000Y-21850000D02*
X5524000Y-21950000D01*
X5524000Y-21850000D02*
X5424000Y-21950000D01*
X5524000Y-21900000D02*
G75*
G03*
X5524000Y-21900000I-50000J0D01*
G01*
X5670000Y-22250000D02*
X5770000Y-22350000D01*
X5770000Y-22250000D02*
X5670000Y-22350000D01*
X5770000Y-22300000D02*
G75*
G03*
X5770000Y-22300000I-50000J0D01*
G01*
X5670000Y-22504000D02*
X5770000Y-22604000D01*
X5770000Y-22504000D02*
X5670000Y-22604000D01*
X5770000Y-22554000D02*
G75*
G03*
X5770000Y-22554000I-50000J0D01*
G01*
X5678000Y-21850000D02*
X5778000Y-21950000D01*
X5778000Y-21850000D02*
X5678000Y-21950000D01*
X5778000Y-21900000D02*
G75*
G03*
X5778000Y-21900000I-50000J0D01*
G01*
X5924000Y-22250000D02*
X6024000Y-22350000D01*
X6024000Y-22250000D02*
X5924000Y-22350000D01*
X6024000Y-22300000D02*
G75*
G03*
X6024000Y-22300000I-50000J0D01*
G01*
X5924000Y-22504000D02*
X6024000Y-22604000D01*
X6024000Y-22504000D02*
X5924000Y-22604000D01*
X6024000Y-22554000D02*
G75*
G03*
X6024000Y-22554000I-50000J0D01*
G01*
X5932000Y-21850000D02*
X6032000Y-21950000D01*
X6032000Y-21850000D02*
X5932000Y-21950000D01*
X6032000Y-21900000D02*
G75*
G03*
X6032000Y-21900000I-50000J0D01*
G01*
X6178000Y-22250000D02*
X6278000Y-22350000D01*
X6278000Y-22250000D02*
X6178000Y-22350000D01*
X6278000Y-22300000D02*
G75*
G03*
X6278000Y-22300000I-50000J0D01*
G01*
X6178000Y-22504000D02*
X6278000Y-22604000D01*
X6278000Y-22504000D02*
X6178000Y-22604000D01*
X6278000Y-22554000D02*
G75*
G03*
X6278000Y-22554000I-50000J0D01*
G01*
X6432000Y-22250000D02*
X6532000Y-22350000D01*
X6532000Y-22250000D02*
X6432000Y-22350000D01*
X6532000Y-22300000D02*
G75*
G03*
X6532000Y-22300000I-50000J0D01*
G01*
X6432000Y-22504000D02*
X6532000Y-22604000D01*
X6532000Y-22504000D02*
X6432000Y-22604000D01*
X6532000Y-22554000D02*
G75*
G03*
X6532000Y-22554000I-50000J0D01*
G01*
X6686000Y-22250000D02*
X6786000Y-22350000D01*
X6786000Y-22250000D02*
X6686000Y-22350000D01*
X6786000Y-22300000D02*
G75*
G03*
X6786000Y-22300000I-50000J0D01*
G01*
X6686000Y-22504000D02*
X6786000Y-22604000D01*
X6786000Y-22504000D02*
X6686000Y-22604000D01*
X6786000Y-22554000D02*
G75*
G03*
X6786000Y-22554000I-50000J0D01*
G01*
X6940000Y-22250000D02*
X7040000Y-22350000D01*
X7040000Y-22250000D02*
X6940000Y-22350000D01*
X7040000Y-22300000D02*
G75*
G03*
X7040000Y-22300000I-50000J0D01*
G01*
X6940000Y-22504000D02*
X7040000Y-22604000D01*
X7040000Y-22504000D02*
X6940000Y-22604000D01*
X7040000Y-22554000D02*
G75*
G03*
X7040000Y-22554000I-50000J0D01*
G01*
X7194000Y-22250000D02*
X7294000Y-22350000D01*
X7294000Y-22250000D02*
X7194000Y-22350000D01*
X7294000Y-22300000D02*
G75*
G03*
X7294000Y-22300000I-50000J0D01*
G01*
X7194000Y-22504000D02*
X7294000Y-22604000D01*
X7294000Y-22504000D02*
X7194000Y-22604000D01*
X7294000Y-22554000D02*
G75*
G03*
X7294000Y-22554000I-50000J0D01*
G01*
X7448000Y-22250000D02*
X7548000Y-22350000D01*
X7548000Y-22250000D02*
X7448000Y-22350000D01*
X7548000Y-22300000D02*
G75*
G03*
X7548000Y-22300000I-50000J0D01*
G01*
X7448000Y-22504000D02*
X7548000Y-22604000D01*
X7548000Y-22504000D02*
X7448000Y-22604000D01*
X7548000Y-22554000D02*
G75*
G03*
X7548000Y-22554000I-50000J0D01*
G01*
X7702000Y-22250000D02*
X7802000Y-22350000D01*
X7802000Y-22250000D02*
X7702000Y-22350000D01*
X7802000Y-22300000D02*
G75*
G03*
X7802000Y-22300000I-50000J0D01*
G01*
X7702000Y-22504000D02*
X7802000Y-22604000D01*
X7802000Y-22504000D02*
X7702000Y-22604000D01*
X7802000Y-22554000D02*
G75*
G03*
X7802000Y-22554000I-50000J0D01*
G01*
X7956000Y-22250000D02*
X8056000Y-22350000D01*
X8056000Y-22250000D02*
X7956000Y-22350000D01*
X8056000Y-22300000D02*
G75*
G03*
X8056000Y-22300000I-50000J0D01*
G01*
X7956000Y-22504000D02*
X8056000Y-22604000D01*
X8056000Y-22504000D02*
X7956000Y-22604000D01*
X8056000Y-22554000D02*
G75*
G03*
X8056000Y-22554000I-50000J0D01*
G01*
X8210000Y-22250000D02*
X8310000Y-22350000D01*
X8310000Y-22250000D02*
X8210000Y-22350000D01*
X8310000Y-22300000D02*
G75*
G03*
X8310000Y-22300000I-50000J0D01*
G01*
X8210000Y-22504000D02*
X8310000Y-22604000D01*
X8310000Y-22504000D02*
X8210000Y-22604000D01*
X8310000Y-22554000D02*
G75*
G03*
X8310000Y-22554000I-50000J0D01*
G01*
X8464000Y-22250000D02*
X8564000Y-22350000D01*
X8564000Y-22250000D02*
X8464000Y-22350000D01*
X8564000Y-22300000D02*
G75*
G03*
X8564000Y-22300000I-50000J0D01*
G01*
X8464000Y-22504000D02*
X8564000Y-22604000D01*
X8564000Y-22504000D02*
X8464000Y-22604000D01*
X8564000Y-22554000D02*
G75*
G03*
X8564000Y-22554000I-50000J0D01*
G01*
X8718000Y-22250000D02*
X8818000Y-22350000D01*
X8818000Y-22250000D02*
X8718000Y-22350000D01*
X8818000Y-22300000D02*
G75*
G03*
X8818000Y-22300000I-50000J0D01*
G01*
X8718000Y-22504000D02*
X8818000Y-22604000D01*
X8818000Y-22504000D02*
X8718000Y-22604000D01*
X8818000Y-22554000D02*
G75*
G03*
X8818000Y-22554000I-50000J0D01*
G01*
X8972000Y-22250000D02*
X9072000Y-22350000D01*
X9072000Y-22250000D02*
X8972000Y-22350000D01*
X9072000Y-22300000D02*
G75*
G03*
X9072000Y-22300000I-50000J0D01*
G01*
X8972000Y-22504000D02*
X9072000Y-22604000D01*
X9072000Y-22504000D02*
X8972000Y-22604000D01*
X9072000Y-22554000D02*
G75*
G03*
X9072000Y-22554000I-50000J0D01*
G01*
X9226000Y-22250000D02*
X9326000Y-22350000D01*
X9326000Y-22250000D02*
X9226000Y-22350000D01*
X9326000Y-22300000D02*
G75*
G03*
X9326000Y-22300000I-50000J0D01*
G01*
X9226000Y-22504000D02*
X9326000Y-22604000D01*
X9326000Y-22504000D02*
X9226000Y-22604000D01*
X9326000Y-22554000D02*
G75*
G03*
X9326000Y-22554000I-50000J0D01*
G01*
X9447500Y-21850000D02*
X9547500Y-21950000D01*
X9547500Y-21850000D02*
X9447500Y-21950000D01*
X9547500Y-21900000D02*
G75*
G03*
X9547500Y-21900000I-50000J0D01*
G01*
X9480000Y-22250000D02*
X9580000Y-22350000D01*
X9580000Y-22250000D02*
X9480000Y-22350000D01*
X9580000Y-22300000D02*
G75*
G03*
X9580000Y-22300000I-50000J0D01*
G01*
X9480000Y-22504000D02*
X9580000Y-22604000D01*
X9580000Y-22504000D02*
X9480000Y-22604000D01*
X9580000Y-22554000D02*
G75*
G03*
X9580000Y-22554000I-50000J0D01*
G01*
X9701500Y-21850000D02*
X9801500Y-21950000D01*
X9801500Y-21850000D02*
X9701500Y-21950000D01*
X9801500Y-21900000D02*
G75*
G03*
X9801500Y-21900000I-50000J0D01*
G01*
X9734000Y-22250000D02*
X9834000Y-22350000D01*
X9834000Y-22250000D02*
X9734000Y-22350000D01*
X9834000Y-22300000D02*
G75*
G03*
X9834000Y-22300000I-50000J0D01*
G01*
X9734000Y-22504000D02*
X9834000Y-22604000D01*
X9834000Y-22504000D02*
X9734000Y-22604000D01*
X9834000Y-22554000D02*
G75*
G03*
X9834000Y-22554000I-50000J0D01*
G01*
X9955500Y-21850000D02*
X10055500Y-21950000D01*
X10055500Y-21850000D02*
X9955500Y-21950000D01*
X10055500Y-21900000D02*
G75*
G03*
X10055500Y-21900000I-50000J0D01*
G01*
X9988000Y-22250000D02*
X10088000Y-22350000D01*
X10088000Y-22250000D02*
X9988000Y-22350000D01*
X10088000Y-22300000D02*
G75*
G03*
X10088000Y-22300000I-50000J0D01*
G01*
X9988000Y-22504000D02*
X10088000Y-22604000D01*
X10088000Y-22504000D02*
X9988000Y-22604000D01*
X10088000Y-22554000D02*
G75*
G03*
X10088000Y-22554000I-50000J0D01*
G01*
X10242000Y-22250000D02*
X10342000Y-22350000D01*
X10342000Y-22250000D02*
X10242000Y-22350000D01*
X10342000Y-22300000D02*
G75*
G03*
X10342000Y-22300000I-50000J0D01*
G01*
X10242000Y-22504000D02*
X10342000Y-22604000D01*
X10342000Y-22504000D02*
X10242000Y-22604000D01*
X10342000Y-22554000D02*
G75*
G03*
X10342000Y-22554000I-50000J0D01*
G01*
X10496000Y-22250000D02*
X10596000Y-22350000D01*
X10596000Y-22250000D02*
X10496000Y-22350000D01*
X10596000Y-22300000D02*
G75*
G03*
X10596000Y-22300000I-50000J0D01*
G01*
X10496000Y-22504000D02*
X10596000Y-22604000D01*
X10596000Y-22504000D02*
X10496000Y-22604000D01*
X10596000Y-22554000D02*
G75*
G03*
X10596000Y-22554000I-50000J0D01*
G01*
X10750000Y-22250000D02*
X10850000Y-22350000D01*
X10850000Y-22250000D02*
X10750000Y-22350000D01*
X10850000Y-22300000D02*
G75*
G03*
X10850000Y-22300000I-50000J0D01*
G01*
X10750000Y-22504000D02*
X10850000Y-22604000D01*
X10850000Y-22504000D02*
X10750000Y-22604000D01*
X10850000Y-22554000D02*
G75*
G03*
X10850000Y-22554000I-50000J0D01*
G01*
X12054000Y-22250000D02*
X12154000Y-22350000D01*
X12154000Y-22250000D02*
X12054000Y-22350000D01*
X12154000Y-22300000D02*
G75*
G03*
X12154000Y-22300000I-50000J0D01*
G01*
X12054000Y-22504000D02*
X12154000Y-22604000D01*
X12154000Y-22504000D02*
X12054000Y-22604000D01*
X12154000Y-22554000D02*
G75*
G03*
X12154000Y-22554000I-50000J0D01*
G01*
X12308000Y-22250000D02*
X12408000Y-22350000D01*
X12408000Y-22250000D02*
X12308000Y-22350000D01*
X12408000Y-22300000D02*
G75*
G03*
X12408000Y-22300000I-50000J0D01*
G01*
X12308000Y-22504000D02*
X12408000Y-22604000D01*
X12408000Y-22504000D02*
X12308000Y-22604000D01*
X12408000Y-22554000D02*
G75*
G03*
X12408000Y-22554000I-50000J0D01*
G01*
X12562000Y-22250000D02*
X12662000Y-22350000D01*
X12662000Y-22250000D02*
X12562000Y-22350000D01*
X12662000Y-22300000D02*
G75*
G03*
X12662000Y-22300000I-50000J0D01*
G01*
X12562000Y-22504000D02*
X12662000Y-22604000D01*
X12662000Y-22504000D02*
X12562000Y-22604000D01*
X12662000Y-22554000D02*
G75*
G03*
X12662000Y-22554000I-50000J0D01*
G01*
X12816000Y-22250000D02*
X12916000Y-22350000D01*
X12916000Y-22250000D02*
X12816000Y-22350000D01*
X12916000Y-22300000D02*
G75*
G03*
X12916000Y-22300000I-50000J0D01*
G01*
X12816000Y-22504000D02*
X12916000Y-22604000D01*
X12916000Y-22504000D02*
X12816000Y-22604000D01*
X12916000Y-22554000D02*
G75*
G03*
X12916000Y-22554000I-50000J0D01*
G01*
X13070000Y-22250000D02*
X13170000Y-22350000D01*
X13170000Y-22250000D02*
X13070000Y-22350000D01*
X13170000Y-22300000D02*
G75*
G03*
X13170000Y-22300000I-50000J0D01*
G01*
X13070000Y-22504000D02*
X13170000Y-22604000D01*
X13170000Y-22504000D02*
X13070000Y-22604000D01*
X13170000Y-22554000D02*
G75*
G03*
X13170000Y-22554000I-50000J0D01*
G01*
X13324000Y-22250000D02*
X13424000Y-22350000D01*
X13424000Y-22250000D02*
X13324000Y-22350000D01*
X13424000Y-22300000D02*
G75*
G03*
X13424000Y-22300000I-50000J0D01*
G01*
X13324000Y-22504000D02*
X13424000Y-22604000D01*
X13424000Y-22504000D02*
X13324000Y-22604000D01*
X13424000Y-22554000D02*
G75*
G03*
X13424000Y-22554000I-50000J0D01*
G01*
X13578000Y-22250000D02*
X13678000Y-22350000D01*
X13678000Y-22250000D02*
X13578000Y-22350000D01*
X13678000Y-22300000D02*
G75*
G03*
X13678000Y-22300000I-50000J0D01*
G01*
X13578000Y-22504000D02*
X13678000Y-22604000D01*
X13678000Y-22504000D02*
X13578000Y-22604000D01*
X13678000Y-22554000D02*
G75*
G03*
X13678000Y-22554000I-50000J0D01*
G01*
X13832000Y-22250000D02*
X13932000Y-22350000D01*
X13932000Y-22250000D02*
X13832000Y-22350000D01*
X13932000Y-22300000D02*
G75*
G03*
X13932000Y-22300000I-50000J0D01*
G01*
X13832000Y-22504000D02*
X13932000Y-22604000D01*
X13932000Y-22504000D02*
X13832000Y-22604000D01*
X13932000Y-22554000D02*
G75*
G03*
X13932000Y-22554000I-50000J0D01*
G01*
X14086000Y-22250000D02*
X14186000Y-22350000D01*
X14186000Y-22250000D02*
X14086000Y-22350000D01*
X14186000Y-22300000D02*
G75*
G03*
X14186000Y-22300000I-50000J0D01*
G01*
X14086000Y-22504000D02*
X14186000Y-22604000D01*
X14186000Y-22504000D02*
X14086000Y-22604000D01*
X14186000Y-22554000D02*
G75*
G03*
X14186000Y-22554000I-50000J0D01*
G01*
X14333000Y-7467030D02*
X14433000Y-7567030D01*
X14433000Y-7467030D02*
X14333000Y-7567030D01*
X14433000Y-7517030D02*
G75*
G03*
X14433000Y-7517030I-50000J0D01*
G01*
X14340000Y-22250000D02*
X14440000Y-22350000D01*
X14440000Y-22250000D02*
X14340000Y-22350000D01*
X14440000Y-22300000D02*
G75*
G03*
X14440000Y-22300000I-50000J0D01*
G01*
X14340000Y-22504000D02*
X14440000Y-22604000D01*
X14440000Y-22504000D02*
X14340000Y-22604000D01*
X14440000Y-22554000D02*
G75*
G03*
X14440000Y-22554000I-50000J0D01*
G01*
X14447500Y-7269030D02*
X14547500Y-7369030D01*
X14547500Y-7269030D02*
X14447500Y-7369030D01*
X14547500Y-7319030D02*
G75*
G03*
X14547500Y-7319030I-50000J0D01*
G01*
X14447500Y-7665030D02*
X14547500Y-7765030D01*
X14547500Y-7665030D02*
X14447500Y-7765030D01*
X14547500Y-7715030D02*
G75*
G03*
X14547500Y-7715030I-50000J0D01*
G01*
X14562000Y-7467030D02*
X14662000Y-7567030D01*
X14662000Y-7467030D02*
X14562000Y-7567030D01*
X14662000Y-7517030D02*
G75*
G03*
X14662000Y-7517030I-50000J0D01*
G01*
X14594000Y-22250000D02*
X14694000Y-22350000D01*
X14694000Y-22250000D02*
X14594000Y-22350000D01*
X14694000Y-22300000D02*
G75*
G03*
X14694000Y-22300000I-50000J0D01*
G01*
X14594000Y-22504000D02*
X14694000Y-22604000D01*
X14694000Y-22504000D02*
X14594000Y-22604000D01*
X14694000Y-22554000D02*
G75*
G03*
X14694000Y-22554000I-50000J0D01*
G01*
X14676500Y-7269030D02*
X14776500Y-7369030D01*
X14776500Y-7269030D02*
X14676500Y-7369030D01*
X14776500Y-7319030D02*
G75*
G03*
X14776500Y-7319030I-50000J0D01*
G01*
X14676500Y-7665030D02*
X14776500Y-7765030D01*
X14776500Y-7665030D02*
X14676500Y-7765030D01*
X14776500Y-7715030D02*
G75*
G03*
X14776500Y-7715030I-50000J0D01*
G01*
X14791000Y-7467030D02*
X14891000Y-7567030D01*
X14891000Y-7467030D02*
X14791000Y-7567030D01*
X14891000Y-7517030D02*
G75*
G03*
X14891000Y-7517030I-50000J0D01*
G01*
X14848000Y-22250000D02*
X14948000Y-22350000D01*
X14948000Y-22250000D02*
X14848000Y-22350000D01*
X14948000Y-22300000D02*
G75*
G03*
X14948000Y-22300000I-50000J0D01*
G01*
X14848000Y-22504000D02*
X14948000Y-22604000D01*
X14948000Y-22504000D02*
X14848000Y-22604000D01*
X14948000Y-22554000D02*
G75*
G03*
X14948000Y-22554000I-50000J0D01*
G01*
X14905500Y-7269030D02*
X15005500Y-7369030D01*
X15005500Y-7269030D02*
X14905500Y-7369030D01*
X15005500Y-7319030D02*
G75*
G03*
X15005500Y-7319030I-50000J0D01*
G01*
X14905500Y-7665030D02*
X15005500Y-7765030D01*
X15005500Y-7665030D02*
X14905500Y-7765030D01*
X15005500Y-7715030D02*
G75*
G03*
X15005500Y-7715030I-50000J0D01*
G01*
X15020000Y-7467030D02*
X15120000Y-7567030D01*
X15120000Y-7467030D02*
X15020000Y-7567030D01*
X15120000Y-7517030D02*
G75*
G03*
X15120000Y-7517030I-50000J0D01*
G01*
X15102000Y-22250000D02*
X15202000Y-22350000D01*
X15202000Y-22250000D02*
X15102000Y-22350000D01*
X15202000Y-22300000D02*
G75*
G03*
X15202000Y-22300000I-50000J0D01*
G01*
X15102000Y-22504000D02*
X15202000Y-22604000D01*
X15202000Y-22504000D02*
X15102000Y-22604000D01*
X15202000Y-22554000D02*
G75*
G03*
X15202000Y-22554000I-50000J0D01*
G01*
X15134500Y-7269030D02*
X15234500Y-7369030D01*
X15234500Y-7269030D02*
X15134500Y-7369030D01*
X15234500Y-7319030D02*
G75*
G03*
X15234500Y-7319030I-50000J0D01*
G01*
X15134500Y-7665030D02*
X15234500Y-7765030D01*
X15234500Y-7665030D02*
X15134500Y-7765030D01*
X15234500Y-7715030D02*
G75*
G03*
X15234500Y-7715030I-50000J0D01*
G01*
X15249000Y-7467030D02*
X15349000Y-7567030D01*
X15349000Y-7467030D02*
X15249000Y-7567030D01*
X15349000Y-7517030D02*
G75*
G03*
X15349000Y-7517030I-50000J0D01*
G01*
X15325000Y-8200000D02*
X15425000Y-8300000D01*
X15425000Y-8200000D02*
X15325000Y-8300000D01*
X15425000Y-8250000D02*
G75*
G03*
X15425000Y-8250000I-50000J0D01*
G01*
X15356000Y-22250000D02*
X15456000Y-22350000D01*
X15456000Y-22250000D02*
X15356000Y-22350000D01*
X15456000Y-22300000D02*
G75*
G03*
X15456000Y-22300000I-50000J0D01*
G01*
X15356000Y-22504000D02*
X15456000Y-22604000D01*
X15456000Y-22504000D02*
X15356000Y-22604000D01*
X15456000Y-22554000D02*
G75*
G03*
X15456000Y-22554000I-50000J0D01*
G01*
X15363500Y-7269030D02*
X15463500Y-7369030D01*
X15463500Y-7269030D02*
X15363500Y-7369030D01*
X15463500Y-7319030D02*
G75*
G03*
X15463500Y-7319030I-50000J0D01*
G01*
X15363500Y-7665030D02*
X15463500Y-7765030D01*
X15463500Y-7665030D02*
X15363500Y-7765030D01*
X15463500Y-7715030D02*
G75*
G03*
X15463500Y-7715030I-50000J0D01*
G01*
X15579000Y-8200000D02*
X15679000Y-8300000D01*
X15679000Y-8200000D02*
X15579000Y-8300000D01*
X15679000Y-8250000D02*
G75*
G03*
X15679000Y-8250000I-50000J0D01*
G01*
X15610000Y-22250000D02*
X15710000Y-22350000D01*
X15710000Y-22250000D02*
X15610000Y-22350000D01*
X15710000Y-22300000D02*
G75*
G03*
X15710000Y-22300000I-50000J0D01*
G01*
X15610000Y-22504000D02*
X15710000Y-22604000D01*
X15710000Y-22504000D02*
X15610000Y-22604000D01*
X15710000Y-22554000D02*
G75*
G03*
X15710000Y-22554000I-50000J0D01*
G01*
X15864000Y-22250000D02*
X15964000Y-22350000D01*
X15964000Y-22250000D02*
X15864000Y-22350000D01*
X15964000Y-22300000D02*
G75*
G03*
X15964000Y-22300000I-50000J0D01*
G01*
X15864000Y-22504000D02*
X15964000Y-22604000D01*
X15964000Y-22504000D02*
X15864000Y-22604000D01*
X15964000Y-22554000D02*
G75*
G03*
X15964000Y-22554000I-50000J0D01*
G01*
X16118000Y-22250000D02*
X16218000Y-22350000D01*
X16218000Y-22250000D02*
X16118000Y-22350000D01*
X16218000Y-22300000D02*
G75*
G03*
X16218000Y-22300000I-50000J0D01*
G01*
X16118000Y-22504000D02*
X16218000Y-22604000D01*
X16218000Y-22504000D02*
X16118000Y-22604000D01*
X16218000Y-22554000D02*
G75*
G03*
X16218000Y-22554000I-50000J0D01*
G01*
X16372000Y-22250000D02*
X16472000Y-22350000D01*
X16472000Y-22250000D02*
X16372000Y-22350000D01*
X16472000Y-22300000D02*
G75*
G03*
X16472000Y-22300000I-50000J0D01*
G01*
X16372000Y-22504000D02*
X16472000Y-22604000D01*
X16472000Y-22504000D02*
X16372000Y-22604000D01*
X16472000Y-22554000D02*
G75*
G03*
X16472000Y-22554000I-50000J0D01*
G01*
X16626000Y-22250000D02*
X16726000Y-22350000D01*
X16726000Y-22250000D02*
X16626000Y-22350000D01*
X16726000Y-22300000D02*
G75*
G03*
X16726000Y-22300000I-50000J0D01*
G01*
X16626000Y-22504000D02*
X16726000Y-22604000D01*
X16726000Y-22504000D02*
X16626000Y-22604000D01*
X16726000Y-22554000D02*
G75*
G03*
X16726000Y-22554000I-50000J0D01*
G01*
X16870000Y-19123500D02*
X16970000Y-19223500D01*
X16970000Y-19123500D02*
X16870000Y-19223500D01*
X16970000Y-19173500D02*
G75*
G03*
X16970000Y-19173500I-50000J0D01*
G01*
X16870000Y-19377500D02*
X16970000Y-19477500D01*
X16970000Y-19377500D02*
X16870000Y-19477500D01*
X16970000Y-19427500D02*
G75*
G03*
X16970000Y-19427500I-50000J0D01*
G01*
X16880000Y-22250000D02*
X16980000Y-22350000D01*
X16980000Y-22250000D02*
X16880000Y-22350000D01*
X16980000Y-22300000D02*
G75*
G03*
X16980000Y-22300000I-50000J0D01*
G01*
X16880000Y-22504000D02*
X16980000Y-22604000D01*
X16980000Y-22504000D02*
X16880000Y-22604000D01*
X16980000Y-22554000D02*
G75*
G03*
X16980000Y-22554000I-50000J0D01*
G01*
X17124000Y-19123500D02*
X17224000Y-19223500D01*
X17224000Y-19123500D02*
X17124000Y-19223500D01*
X17224000Y-19173500D02*
G75*
G03*
X17224000Y-19173500I-50000J0D01*
G01*
X17124000Y-19377500D02*
X17224000Y-19477500D01*
X17224000Y-19377500D02*
X17124000Y-19477500D01*
X17224000Y-19427500D02*
G75*
G03*
X17224000Y-19427500I-50000J0D01*
G01*
X17134000Y-22250000D02*
X17234000Y-22350000D01*
X17234000Y-22250000D02*
X17134000Y-22350000D01*
X17234000Y-22300000D02*
G75*
G03*
X17234000Y-22300000I-50000J0D01*
G01*
X17134000Y-22504000D02*
X17234000Y-22604000D01*
X17234000Y-22504000D02*
X17134000Y-22604000D01*
X17234000Y-22554000D02*
G75*
G03*
X17234000Y-22554000I-50000J0D01*
G01*
X17378000Y-19123500D02*
X17478000Y-19223500D01*
X17478000Y-19123500D02*
X17378000Y-19223500D01*
X17478000Y-19173500D02*
G75*
G03*
X17478000Y-19173500I-50000J0D01*
G01*
X17378000Y-19377500D02*
X17478000Y-19477500D01*
X17478000Y-19377500D02*
X17378000Y-19477500D01*
X17478000Y-19427500D02*
G75*
G03*
X17478000Y-19427500I-50000J0D01*
G01*
X17388000Y-22250000D02*
X17488000Y-22350000D01*
X17488000Y-22250000D02*
X17388000Y-22350000D01*
X17488000Y-22300000D02*
G75*
G03*
X17488000Y-22300000I-50000J0D01*
G01*
X17388000Y-22504000D02*
X17488000Y-22604000D01*
X17488000Y-22504000D02*
X17388000Y-22604000D01*
X17488000Y-22554000D02*
G75*
G03*
X17488000Y-22554000I-50000J0D01*
G01*
X17632000Y-19123500D02*
X17732000Y-19223500D01*
X17732000Y-19123500D02*
X17632000Y-19223500D01*
X17732000Y-19173500D02*
G75*
G03*
X17732000Y-19173500I-50000J0D01*
G01*
X17632000Y-19377500D02*
X17732000Y-19477500D01*
X17732000Y-19377500D02*
X17632000Y-19477500D01*
X17732000Y-19427500D02*
G75*
G03*
X17732000Y-19427500I-50000J0D01*
G01*
X17642000Y-22250000D02*
X17742000Y-22350000D01*
X17742000Y-22250000D02*
X17642000Y-22350000D01*
X17742000Y-22300000D02*
G75*
G03*
X17742000Y-22300000I-50000J0D01*
G01*
X17642000Y-22504000D02*
X17742000Y-22604000D01*
X17742000Y-22504000D02*
X17642000Y-22604000D01*
X17742000Y-22554000D02*
G75*
G03*
X17742000Y-22554000I-50000J0D01*
G01*
X17725000Y-12197500D02*
X17825000Y-12297500D01*
X17825000Y-12197500D02*
X17725000Y-12297500D01*
X17825000Y-12247500D02*
G75*
G03*
X17825000Y-12247500I-50000J0D01*
G01*
X17725000Y-12451500D02*
X17825000Y-12551500D01*
X17825000Y-12451500D02*
X17725000Y-12551500D01*
X17825000Y-12501500D02*
G75*
G03*
X17825000Y-12501500I-50000J0D01*
G01*
X17725000Y-12705500D02*
X17825000Y-12805500D01*
X17825000Y-12705500D02*
X17725000Y-12805500D01*
X17825000Y-12755500D02*
G75*
G03*
X17825000Y-12755500I-50000J0D01*
G01*
X17886000Y-19123500D02*
X17986000Y-19223500D01*
X17986000Y-19123500D02*
X17886000Y-19223500D01*
X17986000Y-19173500D02*
G75*
G03*
X17986000Y-19173500I-50000J0D01*
G01*
X17886000Y-19377500D02*
X17986000Y-19477500D01*
X17986000Y-19377500D02*
X17886000Y-19477500D01*
X17986000Y-19427500D02*
G75*
G03*
X17986000Y-19427500I-50000J0D01*
G01*
X17896000Y-22250000D02*
X17996000Y-22350000D01*
X17996000Y-22250000D02*
X17896000Y-22350000D01*
X17996000Y-22300000D02*
G75*
G03*
X17996000Y-22300000I-50000J0D01*
G01*
X17896000Y-22504000D02*
X17996000Y-22604000D01*
X17996000Y-22504000D02*
X17896000Y-22604000D01*
X17996000Y-22554000D02*
G75*
G03*
X17996000Y-22554000I-50000J0D01*
G01*
X18140000Y-19123500D02*
X18240000Y-19223500D01*
X18240000Y-19123500D02*
X18140000Y-19223500D01*
X18240000Y-19173500D02*
G75*
G03*
X18240000Y-19173500I-50000J0D01*
G01*
X18140000Y-19377500D02*
X18240000Y-19477500D01*
X18240000Y-19377500D02*
X18140000Y-19477500D01*
X18240000Y-19427500D02*
G75*
G03*
X18240000Y-19427500I-50000J0D01*
G01*
X18150000Y-22250000D02*
X18250000Y-22350000D01*
X18250000Y-22250000D02*
X18150000Y-22350000D01*
X18250000Y-22300000D02*
G75*
G03*
X18250000Y-22300000I-50000J0D01*
G01*
X18150000Y-22504000D02*
X18250000Y-22604000D01*
X18250000Y-22504000D02*
X18150000Y-22604000D01*
X18250000Y-22554000D02*
G75*
G03*
X18250000Y-22554000I-50000J0D01*
G01*
X18394000Y-19123500D02*
X18494000Y-19223500D01*
X18494000Y-19123500D02*
X18394000Y-19223500D01*
X18494000Y-19173500D02*
G75*
G03*
X18494000Y-19173500I-50000J0D01*
G01*
X18394000Y-19377500D02*
X18494000Y-19477500D01*
X18494000Y-19377500D02*
X18394000Y-19477500D01*
X18494000Y-19427500D02*
G75*
G03*
X18494000Y-19427500I-50000J0D01*
G01*
X19654000Y-22250000D02*
X19754000Y-22350000D01*
X19754000Y-22250000D02*
X19654000Y-22350000D01*
X19754000Y-22300000D02*
G75*
G03*
X19754000Y-22300000I-50000J0D01*
G01*
X19654000Y-22504000D02*
X19754000Y-22604000D01*
X19754000Y-22504000D02*
X19654000Y-22604000D01*
X19754000Y-22554000D02*
G75*
G03*
X19754000Y-22554000I-50000J0D01*
G01*
X19908000Y-22250000D02*
X20008000Y-22350000D01*
X20008000Y-22250000D02*
X19908000Y-22350000D01*
X20008000Y-22300000D02*
G75*
G03*
X20008000Y-22300000I-50000J0D01*
G01*
X19908000Y-22504000D02*
X20008000Y-22604000D01*
X20008000Y-22504000D02*
X19908000Y-22604000D01*
X20008000Y-22554000D02*
G75*
G03*
X20008000Y-22554000I-50000J0D01*
G01*
X20162000Y-22250000D02*
X20262000Y-22350000D01*
X20262000Y-22250000D02*
X20162000Y-22350000D01*
X20262000Y-22300000D02*
G75*
G03*
X20262000Y-22300000I-50000J0D01*
G01*
X20162000Y-22504000D02*
X20262000Y-22604000D01*
X20262000Y-22504000D02*
X20162000Y-22604000D01*
X20262000Y-22554000D02*
G75*
G03*
X20262000Y-22554000I-50000J0D01*
G01*
X20416000Y-22250000D02*
X20516000Y-22350000D01*
X20516000Y-22250000D02*
X20416000Y-22350000D01*
X20516000Y-22300000D02*
G75*
G03*
X20516000Y-22300000I-50000J0D01*
G01*
X20416000Y-22504000D02*
X20516000Y-22604000D01*
X20516000Y-22504000D02*
X20416000Y-22604000D01*
X20516000Y-22554000D02*
G75*
G03*
X20516000Y-22554000I-50000J0D01*
G01*
X20670000Y-22250000D02*
X20770000Y-22350000D01*
X20770000Y-22250000D02*
X20670000Y-22350000D01*
X20770000Y-22300000D02*
G75*
G03*
X20770000Y-22300000I-50000J0D01*
G01*
X20670000Y-22504000D02*
X20770000Y-22604000D01*
X20770000Y-22504000D02*
X20670000Y-22604000D01*
X20770000Y-22554000D02*
G75*
G03*
X20770000Y-22554000I-50000J0D01*
G01*
X20924000Y-22250000D02*
X21024000Y-22350000D01*
X21024000Y-22250000D02*
X20924000Y-22350000D01*
X21024000Y-22300000D02*
G75*
G03*
X21024000Y-22300000I-50000J0D01*
G01*
X20924000Y-22504000D02*
X21024000Y-22604000D01*
X21024000Y-22504000D02*
X20924000Y-22604000D01*
X21024000Y-22554000D02*
G75*
G03*
X21024000Y-22554000I-50000J0D01*
G01*
X21178000Y-22250000D02*
X21278000Y-22350000D01*
X21278000Y-22250000D02*
X21178000Y-22350000D01*
X21278000Y-22300000D02*
G75*
G03*
X21278000Y-22300000I-50000J0D01*
G01*
X21178000Y-22504000D02*
X21278000Y-22604000D01*
X21278000Y-22504000D02*
X21178000Y-22604000D01*
X21278000Y-22554000D02*
G75*
G03*
X21278000Y-22554000I-50000J0D01*
G01*
X21432000Y-22250000D02*
X21532000Y-22350000D01*
X21532000Y-22250000D02*
X21432000Y-22350000D01*
X21532000Y-22300000D02*
G75*
G03*
X21532000Y-22300000I-50000J0D01*
G01*
X21432000Y-22504000D02*
X21532000Y-22604000D01*
X21532000Y-22504000D02*
X21432000Y-22604000D01*
X21532000Y-22554000D02*
G75*
G03*
X21532000Y-22554000I-50000J0D01*
G01*
X21686000Y-22250000D02*
X21786000Y-22350000D01*
X21786000Y-22250000D02*
X21686000Y-22350000D01*
X21786000Y-22300000D02*
G75*
G03*
X21786000Y-22300000I-50000J0D01*
G01*
X21686000Y-22504000D02*
X21786000Y-22604000D01*
X21786000Y-22504000D02*
X21686000Y-22604000D01*
X21786000Y-22554000D02*
G75*
G03*
X21786000Y-22554000I-50000J0D01*
G01*
X21940000Y-22250000D02*
X22040000Y-22350000D01*
X22040000Y-22250000D02*
X21940000Y-22350000D01*
X22040000Y-22300000D02*
G75*
G03*
X22040000Y-22300000I-50000J0D01*
G01*
X21940000Y-22504000D02*
X22040000Y-22604000D01*
X22040000Y-22504000D02*
X21940000Y-22604000D01*
X22040000Y-22554000D02*
G75*
G03*
X22040000Y-22554000I-50000J0D01*
G01*
X22194000Y-22250000D02*
X22294000Y-22350000D01*
X22294000Y-22250000D02*
X22194000Y-22350000D01*
X22294000Y-22300000D02*
G75*
G03*
X22294000Y-22300000I-50000J0D01*
G01*
X22194000Y-22504000D02*
X22294000Y-22604000D01*
X22294000Y-22504000D02*
X22194000Y-22604000D01*
X22294000Y-22554000D02*
G75*
G03*
X22294000Y-22554000I-50000J0D01*
G01*
X22448000Y-22250000D02*
X22548000Y-22350000D01*
X22548000Y-22250000D02*
X22448000Y-22350000D01*
X22548000Y-22300000D02*
G75*
G03*
X22548000Y-22300000I-50000J0D01*
G01*
X22448000Y-22504000D02*
X22548000Y-22604000D01*
X22548000Y-22504000D02*
X22448000Y-22604000D01*
X22548000Y-22554000D02*
G75*
G03*
X22548000Y-22554000I-50000J0D01*
G01*
X22702000Y-22250000D02*
X22802000Y-22350000D01*
X22802000Y-22250000D02*
X22702000Y-22350000D01*
X22802000Y-22300000D02*
G75*
G03*
X22802000Y-22300000I-50000J0D01*
G01*
X22702000Y-22504000D02*
X22802000Y-22604000D01*
X22802000Y-22504000D02*
X22702000Y-22604000D01*
X22802000Y-22554000D02*
G75*
G03*
X22802000Y-22554000I-50000J0D01*
G01*
X22956000Y-22250000D02*
X23056000Y-22350000D01*
X23056000Y-22250000D02*
X22956000Y-22350000D01*
X23056000Y-22300000D02*
G75*
G03*
X23056000Y-22300000I-50000J0D01*
G01*
X22956000Y-22504000D02*
X23056000Y-22604000D01*
X23056000Y-22504000D02*
X22956000Y-22604000D01*
X23056000Y-22554000D02*
G75*
G03*
X23056000Y-22554000I-50000J0D01*
G01*
X23210000Y-22250000D02*
X23310000Y-22350000D01*
X23310000Y-22250000D02*
X23210000Y-22350000D01*
X23310000Y-22300000D02*
G75*
G03*
X23310000Y-22300000I-50000J0D01*
G01*
X23210000Y-22504000D02*
X23310000Y-22604000D01*
X23310000Y-22504000D02*
X23210000Y-22604000D01*
X23310000Y-22554000D02*
G75*
G03*
X23310000Y-22554000I-50000J0D01*
G01*
X23464000Y-22250000D02*
X23564000Y-22350000D01*
X23564000Y-22250000D02*
X23464000Y-22350000D01*
X23564000Y-22300000D02*
G75*
G03*
X23564000Y-22300000I-50000J0D01*
G01*
X23464000Y-22504000D02*
X23564000Y-22604000D01*
X23564000Y-22504000D02*
X23464000Y-22604000D01*
X23564000Y-22554000D02*
G75*
G03*
X23564000Y-22554000I-50000J0D01*
G01*
X23718000Y-22250000D02*
X23818000Y-22350000D01*
X23818000Y-22250000D02*
X23718000Y-22350000D01*
X23818000Y-22300000D02*
G75*
G03*
X23818000Y-22300000I-50000J0D01*
G01*
X23718000Y-22504000D02*
X23818000Y-22604000D01*
X23818000Y-22504000D02*
X23718000Y-22604000D01*
X23818000Y-22554000D02*
G75*
G03*
X23818000Y-22554000I-50000J0D01*
G01*
X23972000Y-22250000D02*
X24072000Y-22350000D01*
X24072000Y-22250000D02*
X23972000Y-22350000D01*
X24072000Y-22300000D02*
G75*
G03*
X24072000Y-22300000I-50000J0D01*
G01*
X23972000Y-22504000D02*
X24072000Y-22604000D01*
X24072000Y-22504000D02*
X23972000Y-22604000D01*
X24072000Y-22554000D02*
G75*
G03*
X24072000Y-22554000I-50000J0D01*
G01*
X24226000Y-22250000D02*
X24326000Y-22350000D01*
X24326000Y-22250000D02*
X24226000Y-22350000D01*
X24326000Y-22300000D02*
G75*
G03*
X24326000Y-22300000I-50000J0D01*
G01*
X24226000Y-22504000D02*
X24326000Y-22604000D01*
X24326000Y-22504000D02*
X24226000Y-22604000D01*
X24326000Y-22554000D02*
G75*
G03*
X24326000Y-22554000I-50000J0D01*
G01*
X24480000Y-22250000D02*
X24580000Y-22350000D01*
X24580000Y-22250000D02*
X24480000Y-22350000D01*
X24580000Y-22300000D02*
G75*
G03*
X24580000Y-22300000I-50000J0D01*
G01*
X24480000Y-22504000D02*
X24580000Y-22604000D01*
X24580000Y-22504000D02*
X24480000Y-22604000D01*
X24580000Y-22554000D02*
G75*
G03*
X24580000Y-22554000I-50000J0D01*
G01*
X24734000Y-22250000D02*
X24834000Y-22350000D01*
X24834000Y-22250000D02*
X24734000Y-22350000D01*
X24834000Y-22300000D02*
G75*
G03*
X24834000Y-22300000I-50000J0D01*
G01*
X24734000Y-22504000D02*
X24834000Y-22604000D01*
X24834000Y-22504000D02*
X24734000Y-22604000D01*
X24834000Y-22554000D02*
G75*
G03*
X24834000Y-22554000I-50000J0D01*
G01*
X24988000Y-22250000D02*
X25088000Y-22350000D01*
X25088000Y-22250000D02*
X24988000Y-22350000D01*
X25088000Y-22300000D02*
G75*
G03*
X25088000Y-22300000I-50000J0D01*
G01*
X24988000Y-22504000D02*
X25088000Y-22604000D01*
X25088000Y-22504000D02*
X24988000Y-22604000D01*
X25088000Y-22554000D02*
G75*
G03*
X25088000Y-22554000I-50000J0D01*
G01*
X25242000Y-22250000D02*
X25342000Y-22350000D01*
X25342000Y-22250000D02*
X25242000Y-22350000D01*
X25342000Y-22300000D02*
G75*
G03*
X25342000Y-22300000I-50000J0D01*
G01*
X25242000Y-22504000D02*
X25342000Y-22604000D01*
X25342000Y-22504000D02*
X25242000Y-22604000D01*
X25342000Y-22554000D02*
G75*
G03*
X25342000Y-22554000I-50000J0D01*
G01*
X25496000Y-22250000D02*
X25596000Y-22350000D01*
X25596000Y-22250000D02*
X25496000Y-22350000D01*
X25596000Y-22300000D02*
G75*
G03*
X25596000Y-22300000I-50000J0D01*
G01*
X25496000Y-22504000D02*
X25596000Y-22604000D01*
X25596000Y-22504000D02*
X25496000Y-22604000D01*
X25596000Y-22554000D02*
G75*
G03*
X25596000Y-22554000I-50000J0D01*
G01*
X25750000Y-22250000D02*
X25850000Y-22350000D01*
X25850000Y-22250000D02*
X25750000Y-22350000D01*
X25850000Y-22300000D02*
G75*
G03*
X25850000Y-22300000I-50000J0D01*
G01*
X25750000Y-22504000D02*
X25850000Y-22604000D01*
X25850000Y-22504000D02*
X25750000Y-22604000D01*
X25850000Y-22554000D02*
G75*
G03*
X25850000Y-22554000I-50000J0D01*
G01*
D18*
X16290000Y-18315000D02*
X16510000Y-18535000D01*
X16510000Y-18315000D02*
X16290000Y-18535000D01*
X16400000Y-18315000D02*
X16400000Y-18535000D01*
X16290000Y-18425000D02*
X16510000Y-18425000D01*
X16715000Y-10740000D02*
X16935000Y-10960000D01*
X16935000Y-10740000D02*
X16715000Y-10960000D01*
X16825000Y-10740000D02*
X16825000Y-10960000D01*
X16715000Y-10850000D02*
X16935000Y-10850000D01*
D19*
X3840000Y-7340000D02*
X4160000Y-7660000D01*
X4160000Y-7340000D02*
X3840000Y-7660000D01*
X4113138Y-7613138D02*
X4113138Y-7386862D01*
X3886862Y-7386862D01*
X3886862Y-7613138D01*
X4113138Y-7613138D01*
X13519000Y-7350030D02*
X13839000Y-7670030D01*
X13839000Y-7350030D02*
X13519000Y-7670030D01*
X13792138Y-7623168D02*
X13792138Y-7396892D01*
X13565862Y-7396892D01*
X13565862Y-7623168D01*
X13792138Y-7623168D01*
X16019000Y-7350030D02*
X16339000Y-7670030D01*
X16339000Y-7350030D02*
X16019000Y-7670030D01*
X16292138Y-7623168D02*
X16292138Y-7396892D01*
X16065862Y-7396892D01*
X16065862Y-7623168D01*
X16292138Y-7623168D01*
X26340000Y-7340000D02*
X26660000Y-7660000D01*
X26660000Y-7340000D02*
X26340000Y-7660000D01*
X26613138Y-7613138D02*
X26613138Y-7386862D01*
X26386862Y-7386862D01*
X26386862Y-7613138D01*
X26613138Y-7613138D01*
D11*
X3755119Y-23312976D02*
X3755119Y-23112976D01*
X3802738Y-23112976D01*
X3831309Y-23122500D01*
X3850357Y-23141548D01*
X3859881Y-23160595D01*
X3869405Y-23198690D01*
X3869405Y-23227262D01*
X3859881Y-23265357D01*
X3850357Y-23284405D01*
X3831309Y-23303452D01*
X3802738Y-23312976D01*
X3755119Y-23312976D01*
X3955119Y-23312976D02*
X3955119Y-23179643D01*
X3955119Y-23217738D02*
X3964643Y-23198690D01*
X3974167Y-23189167D01*
X3993214Y-23179643D01*
X4012262Y-23179643D01*
X4078928Y-23312976D02*
X4078928Y-23179643D01*
X4078928Y-23112976D02*
X4069405Y-23122500D01*
X4078928Y-23132024D01*
X4088452Y-23122500D01*
X4078928Y-23112976D01*
X4078928Y-23132024D01*
X4202738Y-23312976D02*
X4183690Y-23303452D01*
X4174167Y-23284405D01*
X4174167Y-23112976D01*
X4307500Y-23312976D02*
X4288452Y-23303452D01*
X4278929Y-23284405D01*
X4278929Y-23112976D01*
X4536071Y-23312976D02*
X4536071Y-23112976D01*
X4602738Y-23255833D01*
X4669405Y-23112976D01*
X4669405Y-23312976D01*
X4850357Y-23312976D02*
X4850357Y-23208214D01*
X4840833Y-23189167D01*
X4821786Y-23179643D01*
X4783690Y-23179643D01*
X4764643Y-23189167D01*
X4850357Y-23303452D02*
X4831310Y-23312976D01*
X4783690Y-23312976D01*
X4764643Y-23303452D01*
X4755119Y-23284405D01*
X4755119Y-23265357D01*
X4764643Y-23246309D01*
X4783690Y-23236786D01*
X4831310Y-23236786D01*
X4850357Y-23227262D01*
X4945595Y-23179643D02*
X4945595Y-23379643D01*
X4945595Y-23189167D02*
X4964643Y-23179643D01*
X5002738Y-23179643D01*
X5021786Y-23189167D01*
X5031310Y-23198690D01*
X5040833Y-23217738D01*
X5040833Y-23274881D01*
X5031310Y-23293928D01*
X5021786Y-23303452D01*
X5002738Y-23312976D01*
X4964643Y-23312976D01*
X4945595Y-23303452D01*
X5126548Y-23293928D02*
X5136071Y-23303452D01*
X5126548Y-23312976D01*
X5117024Y-23303452D01*
X5126548Y-23293928D01*
X5126548Y-23312976D01*
X5126548Y-23189167D02*
X5136071Y-23198690D01*
X5126548Y-23208214D01*
X5117024Y-23198690D01*
X5126548Y-23189167D01*
X5126548Y-23208214D01*
D12*
X3467500Y-23627500D02*
X3497500Y-23657500D01*
X3497500Y-23627500D02*
X3467500Y-23657500D01*
D11*
X3793214Y-23532976D02*
X3812262Y-23532976D01*
X3831309Y-23542500D01*
X3840833Y-23552024D01*
X3850357Y-23571071D01*
X3859881Y-23609167D01*
X3859881Y-23656786D01*
X3850357Y-23694881D01*
X3840833Y-23713928D01*
X3831309Y-23723452D01*
X3812262Y-23732976D01*
X3793214Y-23732976D01*
X3774167Y-23723452D01*
X3764643Y-23713928D01*
X3755119Y-23694881D01*
X3745595Y-23656786D01*
X3745595Y-23609167D01*
X3755119Y-23571071D01*
X3764643Y-23552024D01*
X3774167Y-23542500D01*
X3793214Y-23532976D01*
X3945595Y-23713928D02*
X3955119Y-23723452D01*
X3945595Y-23732976D01*
X3936071Y-23723452D01*
X3945595Y-23713928D01*
X3945595Y-23732976D01*
X4021786Y-23532976D02*
X4145595Y-23532976D01*
X4078928Y-23609167D01*
X4107500Y-23609167D01*
X4126548Y-23618690D01*
X4136071Y-23628214D01*
X4145595Y-23647262D01*
X4145595Y-23694881D01*
X4136071Y-23713928D01*
X4126548Y-23723452D01*
X4107500Y-23732976D01*
X4050357Y-23732976D01*
X4031309Y-23723452D01*
X4021786Y-23713928D01*
X4269405Y-23532976D02*
X4288452Y-23532976D01*
X4307500Y-23542500D01*
X4317024Y-23552024D01*
X4326548Y-23571071D01*
X4336071Y-23609167D01*
X4336071Y-23656786D01*
X4326548Y-23694881D01*
X4317024Y-23713928D01*
X4307500Y-23723452D01*
X4288452Y-23732976D01*
X4269405Y-23732976D01*
X4250357Y-23723452D01*
X4240833Y-23713928D01*
X4231310Y-23694881D01*
X4221786Y-23656786D01*
X4221786Y-23609167D01*
X4231310Y-23571071D01*
X4240833Y-23552024D01*
X4250357Y-23542500D01*
X4269405Y-23532976D01*
X4459881Y-23532976D02*
X4478929Y-23532976D01*
X4497976Y-23542500D01*
X4507500Y-23552024D01*
X4517024Y-23571071D01*
X4526548Y-23609167D01*
X4526548Y-23656786D01*
X4517024Y-23694881D01*
X4507500Y-23713928D01*
X4497976Y-23723452D01*
X4478929Y-23732976D01*
X4459881Y-23732976D01*
X4440833Y-23723452D01*
X4431310Y-23713928D01*
X4421786Y-23694881D01*
X4412262Y-23656786D01*
X4412262Y-23609167D01*
X4421786Y-23571071D01*
X4431310Y-23552024D01*
X4440833Y-23542500D01*
X4459881Y-23532976D01*
X4612262Y-23732976D02*
X4612262Y-23599643D01*
X4612262Y-23618690D02*
X4621786Y-23609167D01*
X4640833Y-23599643D01*
X4669405Y-23599643D01*
X4688452Y-23609167D01*
X4697976Y-23628214D01*
X4697976Y-23732976D01*
X4697976Y-23628214D02*
X4707500Y-23609167D01*
X4726548Y-23599643D01*
X4755119Y-23599643D01*
X4774167Y-23609167D01*
X4783690Y-23628214D01*
X4783690Y-23732976D01*
X4878929Y-23732976D02*
X4878929Y-23599643D01*
X4878929Y-23618690D02*
X4888452Y-23609167D01*
X4907500Y-23599643D01*
X4936071Y-23599643D01*
X4955119Y-23609167D01*
X4964643Y-23628214D01*
X4964643Y-23732976D01*
X4964643Y-23628214D02*
X4974167Y-23609167D01*
X4993214Y-23599643D01*
X5021786Y-23599643D01*
X5040833Y-23609167D01*
X5050357Y-23628214D01*
X5050357Y-23732976D01*
X5440833Y-23523452D02*
X5269405Y-23780595D01*
X5697976Y-23532976D02*
X5717024Y-23532976D01*
X5736071Y-23542500D01*
X5745595Y-23552024D01*
X5755119Y-23571071D01*
X5764643Y-23609167D01*
X5764643Y-23656786D01*
X5755119Y-23694881D01*
X5745595Y-23713928D01*
X5736071Y-23723452D01*
X5717024Y-23732976D01*
X5697976Y-23732976D01*
X5678928Y-23723452D01*
X5669405Y-23713928D01*
X5659881Y-23694881D01*
X5650357Y-23656786D01*
X5650357Y-23609167D01*
X5659881Y-23571071D01*
X5669405Y-23552024D01*
X5678928Y-23542500D01*
X5697976Y-23532976D01*
X5850357Y-23713928D02*
X5859881Y-23723452D01*
X5850357Y-23732976D01*
X5840833Y-23723452D01*
X5850357Y-23713928D01*
X5850357Y-23732976D01*
X5983690Y-23532976D02*
X6002738Y-23532976D01*
X6021786Y-23542500D01*
X6031309Y-23552024D01*
X6040833Y-23571071D01*
X6050357Y-23609167D01*
X6050357Y-23656786D01*
X6040833Y-23694881D01*
X6031309Y-23713928D01*
X6021786Y-23723452D01*
X6002738Y-23732976D01*
X5983690Y-23732976D01*
X5964643Y-23723452D01*
X5955119Y-23713928D01*
X5945595Y-23694881D01*
X5936071Y-23656786D01*
X5936071Y-23609167D01*
X5945595Y-23571071D01*
X5955119Y-23552024D01*
X5964643Y-23542500D01*
X5983690Y-23532976D01*
X6240833Y-23732976D02*
X6126548Y-23732976D01*
X6183690Y-23732976D02*
X6183690Y-23532976D01*
X6164643Y-23561548D01*
X6145595Y-23580595D01*
X6126548Y-23590119D01*
X6431309Y-23732976D02*
X6317024Y-23732976D01*
X6374167Y-23732976D02*
X6374167Y-23532976D01*
X6355119Y-23561548D01*
X6336071Y-23580595D01*
X6317024Y-23590119D01*
X6545595Y-23618690D02*
X6526548Y-23609167D01*
X6517024Y-23599643D01*
X6507500Y-23580595D01*
X6507500Y-23571071D01*
X6517024Y-23552024D01*
X6526548Y-23542500D01*
X6545595Y-23532976D01*
X6583690Y-23532976D01*
X6602738Y-23542500D01*
X6612262Y-23552024D01*
X6621786Y-23571071D01*
X6621786Y-23580595D01*
X6612262Y-23599643D01*
X6602738Y-23609167D01*
X6583690Y-23618690D01*
X6545595Y-23618690D01*
X6526548Y-23628214D01*
X6517024Y-23637738D01*
X6507500Y-23656786D01*
X6507500Y-23694881D01*
X6517024Y-23713928D01*
X6526548Y-23723452D01*
X6545595Y-23732976D01*
X6583690Y-23732976D01*
X6602738Y-23723452D01*
X6612262Y-23713928D01*
X6621786Y-23694881D01*
X6621786Y-23656786D01*
X6612262Y-23637738D01*
X6602738Y-23628214D01*
X6583690Y-23618690D01*
X6697976Y-23532976D02*
X6697976Y-23571071D01*
X6774167Y-23532976D02*
X6774167Y-23571071D01*
X7069405Y-23809167D02*
X7059881Y-23799643D01*
X7040833Y-23771071D01*
X7031309Y-23752024D01*
X7021786Y-23723452D01*
X7012262Y-23675833D01*
X7012262Y-23637738D01*
X7021786Y-23590119D01*
X7031309Y-23561548D01*
X7040833Y-23542500D01*
X7059881Y-23513928D01*
X7069405Y-23504405D01*
X7231309Y-23599643D02*
X7231309Y-23732976D01*
X7183690Y-23523452D02*
X7136071Y-23666309D01*
X7259881Y-23666309D01*
X7488452Y-23732976D02*
X7488452Y-23532976D01*
X7574167Y-23732976D02*
X7574167Y-23628214D01*
X7564643Y-23609167D01*
X7545595Y-23599643D01*
X7517024Y-23599643D01*
X7497976Y-23609167D01*
X7488452Y-23618690D01*
X7697976Y-23732976D02*
X7678928Y-23723452D01*
X7669405Y-23713928D01*
X7659881Y-23694881D01*
X7659881Y-23637738D01*
X7669405Y-23618690D01*
X7678928Y-23609167D01*
X7697976Y-23599643D01*
X7726548Y-23599643D01*
X7745595Y-23609167D01*
X7755119Y-23618690D01*
X7764643Y-23637738D01*
X7764643Y-23694881D01*
X7755119Y-23713928D01*
X7745595Y-23723452D01*
X7726548Y-23732976D01*
X7697976Y-23732976D01*
X7878928Y-23732976D02*
X7859881Y-23723452D01*
X7850357Y-23704405D01*
X7850357Y-23532976D01*
X8031309Y-23723452D02*
X8012262Y-23732976D01*
X7974167Y-23732976D01*
X7955119Y-23723452D01*
X7945595Y-23704405D01*
X7945595Y-23628214D01*
X7955119Y-23609167D01*
X7974167Y-23599643D01*
X8012262Y-23599643D01*
X8031309Y-23609167D01*
X8040833Y-23628214D01*
X8040833Y-23647262D01*
X7945595Y-23666309D01*
X8117024Y-23723452D02*
X8136071Y-23732976D01*
X8174167Y-23732976D01*
X8193214Y-23723452D01*
X8202738Y-23704405D01*
X8202738Y-23694881D01*
X8193214Y-23675833D01*
X8174167Y-23666309D01*
X8145595Y-23666309D01*
X8126548Y-23656786D01*
X8117024Y-23637738D01*
X8117024Y-23628214D01*
X8126548Y-23609167D01*
X8145595Y-23599643D01*
X8174167Y-23599643D01*
X8193214Y-23609167D01*
X8269405Y-23809167D02*
X8278928Y-23799643D01*
X8297976Y-23771071D01*
X8307500Y-23752024D01*
X8317024Y-23723452D01*
X8326548Y-23675833D01*
X8326548Y-23637738D01*
X8317024Y-23590119D01*
X8307500Y-23561548D01*
X8297976Y-23542500D01*
X8278928Y-23513928D01*
X8269405Y-23504405D01*
D13*
X3497500Y-23906500D02*
G75*
G03*
X3497500Y-23906500I-20000J0D01*
G01*
D11*
X3793214Y-23796976D02*
X3812262Y-23796976D01*
X3831309Y-23806500D01*
X3840833Y-23816024D01*
X3850357Y-23835071D01*
X3859881Y-23873167D01*
X3859881Y-23920786D01*
X3850357Y-23958881D01*
X3840833Y-23977928D01*
X3831309Y-23987452D01*
X3812262Y-23996976D01*
X3793214Y-23996976D01*
X3774167Y-23987452D01*
X3764643Y-23977928D01*
X3755119Y-23958881D01*
X3745595Y-23920786D01*
X3745595Y-23873167D01*
X3755119Y-23835071D01*
X3764643Y-23816024D01*
X3774167Y-23806500D01*
X3793214Y-23796976D01*
X3945595Y-23977928D02*
X3955119Y-23987452D01*
X3945595Y-23996976D01*
X3936071Y-23987452D01*
X3945595Y-23977928D01*
X3945595Y-23996976D01*
X4126548Y-23863643D02*
X4126548Y-23996976D01*
X4078928Y-23787452D02*
X4031309Y-23930309D01*
X4155119Y-23930309D01*
X4269405Y-23796976D02*
X4288452Y-23796976D01*
X4307500Y-23806500D01*
X4317024Y-23816024D01*
X4326548Y-23835071D01*
X4336071Y-23873167D01*
X4336071Y-23920786D01*
X4326548Y-23958881D01*
X4317024Y-23977928D01*
X4307500Y-23987452D01*
X4288452Y-23996976D01*
X4269405Y-23996976D01*
X4250357Y-23987452D01*
X4240833Y-23977928D01*
X4231310Y-23958881D01*
X4221786Y-23920786D01*
X4221786Y-23873167D01*
X4231310Y-23835071D01*
X4240833Y-23816024D01*
X4250357Y-23806500D01*
X4269405Y-23796976D01*
X4459881Y-23796976D02*
X4478929Y-23796976D01*
X4497976Y-23806500D01*
X4507500Y-23816024D01*
X4517024Y-23835071D01*
X4526548Y-23873167D01*
X4526548Y-23920786D01*
X4517024Y-23958881D01*
X4507500Y-23977928D01*
X4497976Y-23987452D01*
X4478929Y-23996976D01*
X4459881Y-23996976D01*
X4440833Y-23987452D01*
X4431310Y-23977928D01*
X4421786Y-23958881D01*
X4412262Y-23920786D01*
X4412262Y-23873167D01*
X4421786Y-23835071D01*
X4431310Y-23816024D01*
X4440833Y-23806500D01*
X4459881Y-23796976D01*
X4612262Y-23996976D02*
X4612262Y-23863643D01*
X4612262Y-23882690D02*
X4621786Y-23873167D01*
X4640833Y-23863643D01*
X4669405Y-23863643D01*
X4688452Y-23873167D01*
X4697976Y-23892214D01*
X4697976Y-23996976D01*
X4697976Y-23892214D02*
X4707500Y-23873167D01*
X4726548Y-23863643D01*
X4755119Y-23863643D01*
X4774167Y-23873167D01*
X4783690Y-23892214D01*
X4783690Y-23996976D01*
X4878929Y-23996976D02*
X4878929Y-23863643D01*
X4878929Y-23882690D02*
X4888452Y-23873167D01*
X4907500Y-23863643D01*
X4936071Y-23863643D01*
X4955119Y-23873167D01*
X4964643Y-23892214D01*
X4964643Y-23996976D01*
X4964643Y-23892214D02*
X4974167Y-23873167D01*
X4993214Y-23863643D01*
X5021786Y-23863643D01*
X5040833Y-23873167D01*
X5050357Y-23892214D01*
X5050357Y-23996976D01*
X5440833Y-23787452D02*
X5269405Y-24044595D01*
X5697976Y-23796976D02*
X5717024Y-23796976D01*
X5736071Y-23806500D01*
X5745595Y-23816024D01*
X5755119Y-23835071D01*
X5764643Y-23873167D01*
X5764643Y-23920786D01*
X5755119Y-23958881D01*
X5745595Y-23977928D01*
X5736071Y-23987452D01*
X5717024Y-23996976D01*
X5697976Y-23996976D01*
X5678928Y-23987452D01*
X5669405Y-23977928D01*
X5659881Y-23958881D01*
X5650357Y-23920786D01*
X5650357Y-23873167D01*
X5659881Y-23835071D01*
X5669405Y-23816024D01*
X5678928Y-23806500D01*
X5697976Y-23796976D01*
X5850357Y-23977928D02*
X5859881Y-23987452D01*
X5850357Y-23996976D01*
X5840833Y-23987452D01*
X5850357Y-23977928D01*
X5850357Y-23996976D01*
X5983690Y-23796976D02*
X6002738Y-23796976D01*
X6021786Y-23806500D01*
X6031309Y-23816024D01*
X6040833Y-23835071D01*
X6050357Y-23873167D01*
X6050357Y-23920786D01*
X6040833Y-23958881D01*
X6031309Y-23977928D01*
X6021786Y-23987452D01*
X6002738Y-23996976D01*
X5983690Y-23996976D01*
X5964643Y-23987452D01*
X5955119Y-23977928D01*
X5945595Y-23958881D01*
X5936071Y-23920786D01*
X5936071Y-23873167D01*
X5945595Y-23835071D01*
X5955119Y-23816024D01*
X5964643Y-23806500D01*
X5983690Y-23796976D01*
X6240833Y-23996976D02*
X6126548Y-23996976D01*
X6183690Y-23996976D02*
X6183690Y-23796976D01*
X6164643Y-23825548D01*
X6145595Y-23844595D01*
X6126548Y-23854119D01*
X6421786Y-23796976D02*
X6326548Y-23796976D01*
X6317024Y-23892214D01*
X6326548Y-23882690D01*
X6345595Y-23873167D01*
X6393214Y-23873167D01*
X6412262Y-23882690D01*
X6421786Y-23892214D01*
X6431309Y-23911262D01*
X6431309Y-23958881D01*
X6421786Y-23977928D01*
X6412262Y-23987452D01*
X6393214Y-23996976D01*
X6345595Y-23996976D01*
X6326548Y-23987452D01*
X6317024Y-23977928D01*
X6497976Y-23796976D02*
X6631309Y-23796976D01*
X6545595Y-23996976D01*
X6697976Y-23796976D02*
X6697976Y-23835071D01*
X6774167Y-23796976D02*
X6774167Y-23835071D01*
X7069405Y-24073167D02*
X7059881Y-24063643D01*
X7040833Y-24035071D01*
X7031309Y-24016024D01*
X7021786Y-23987452D01*
X7012262Y-23939833D01*
X7012262Y-23901738D01*
X7021786Y-23854119D01*
X7031309Y-23825548D01*
X7040833Y-23806500D01*
X7059881Y-23777928D01*
X7069405Y-23768405D01*
X7250357Y-23996976D02*
X7136071Y-23996976D01*
X7193214Y-23996976D02*
X7193214Y-23796976D01*
X7174167Y-23825548D01*
X7155119Y-23844595D01*
X7136071Y-23854119D01*
X7440833Y-23996976D02*
X7326548Y-23996976D01*
X7383690Y-23996976D02*
X7383690Y-23796976D01*
X7364643Y-23825548D01*
X7345595Y-23844595D01*
X7326548Y-23854119D01*
X7678928Y-23996976D02*
X7678928Y-23796976D01*
X7764643Y-23996976D02*
X7764643Y-23892214D01*
X7755119Y-23873167D01*
X7736071Y-23863643D01*
X7707500Y-23863643D01*
X7688452Y-23873167D01*
X7678928Y-23882690D01*
X7888452Y-23996976D02*
X7869405Y-23987452D01*
X7859881Y-23977928D01*
X7850357Y-23958881D01*
X7850357Y-23901738D01*
X7859881Y-23882690D01*
X7869405Y-23873167D01*
X7888452Y-23863643D01*
X7917024Y-23863643D01*
X7936071Y-23873167D01*
X7945595Y-23882690D01*
X7955119Y-23901738D01*
X7955119Y-23958881D01*
X7945595Y-23977928D01*
X7936071Y-23987452D01*
X7917024Y-23996976D01*
X7888452Y-23996976D01*
X8069405Y-23996976D02*
X8050357Y-23987452D01*
X8040833Y-23968405D01*
X8040833Y-23796976D01*
X8221786Y-23987452D02*
X8202738Y-23996976D01*
X8164643Y-23996976D01*
X8145595Y-23987452D01*
X8136071Y-23968405D01*
X8136071Y-23892214D01*
X8145595Y-23873167D01*
X8164643Y-23863643D01*
X8202738Y-23863643D01*
X8221786Y-23873167D01*
X8231309Y-23892214D01*
X8231309Y-23911262D01*
X8136071Y-23930309D01*
X8307500Y-23987452D02*
X8326548Y-23996976D01*
X8364643Y-23996976D01*
X8383690Y-23987452D01*
X8393214Y-23968405D01*
X8393214Y-23958881D01*
X8383690Y-23939833D01*
X8364643Y-23930309D01*
X8336071Y-23930309D01*
X8317024Y-23920786D01*
X8307500Y-23901738D01*
X8307500Y-23892214D01*
X8317024Y-23873167D01*
X8336071Y-23863643D01*
X8364643Y-23863643D01*
X8383690Y-23873167D01*
X8459881Y-24073167D02*
X8469405Y-24063643D01*
X8488452Y-24035071D01*
X8497976Y-24016024D01*
X8507500Y-23987452D01*
X8517024Y-23939833D01*
X8517024Y-23901738D01*
X8507500Y-23854119D01*
X8497976Y-23825548D01*
X8488452Y-23806500D01*
X8469405Y-23777928D01*
X8459881Y-23768405D01*
D14*
X3460000Y-24133000D02*
X3460000Y-24208000D01*
X3422500Y-24170500D02*
X3497500Y-24170500D01*
D11*
X3793214Y-24060976D02*
X3812262Y-24060976D01*
X3831309Y-24070500D01*
X3840833Y-24080024D01*
X3850357Y-24099071D01*
X3859881Y-24137167D01*
X3859881Y-24184786D01*
X3850357Y-24222881D01*
X3840833Y-24241928D01*
X3831309Y-24251452D01*
X3812262Y-24260976D01*
X3793214Y-24260976D01*
X3774167Y-24251452D01*
X3764643Y-24241928D01*
X3755119Y-24222881D01*
X3745595Y-24184786D01*
X3745595Y-24137167D01*
X3755119Y-24099071D01*
X3764643Y-24080024D01*
X3774167Y-24070500D01*
X3793214Y-24060976D01*
X3945595Y-24241928D02*
X3955119Y-24251452D01*
X3945595Y-24260976D01*
X3936071Y-24251452D01*
X3945595Y-24241928D01*
X3945595Y-24260976D01*
X4021786Y-24060976D02*
X4155119Y-24060976D01*
X4069405Y-24260976D01*
X4326548Y-24060976D02*
X4231310Y-24060976D01*
X4221786Y-24156214D01*
X4231310Y-24146690D01*
X4250357Y-24137167D01*
X4297976Y-24137167D01*
X4317024Y-24146690D01*
X4326548Y-24156214D01*
X4336071Y-24175262D01*
X4336071Y-24222881D01*
X4326548Y-24241928D01*
X4317024Y-24251452D01*
X4297976Y-24260976D01*
X4250357Y-24260976D01*
X4231310Y-24251452D01*
X4221786Y-24241928D01*
X4459881Y-24060976D02*
X4478929Y-24060976D01*
X4497976Y-24070500D01*
X4507500Y-24080024D01*
X4517024Y-24099071D01*
X4526548Y-24137167D01*
X4526548Y-24184786D01*
X4517024Y-24222881D01*
X4507500Y-24241928D01*
X4497976Y-24251452D01*
X4478929Y-24260976D01*
X4459881Y-24260976D01*
X4440833Y-24251452D01*
X4431310Y-24241928D01*
X4421786Y-24222881D01*
X4412262Y-24184786D01*
X4412262Y-24137167D01*
X4421786Y-24099071D01*
X4431310Y-24080024D01*
X4440833Y-24070500D01*
X4459881Y-24060976D01*
X4612262Y-24260976D02*
X4612262Y-24127643D01*
X4612262Y-24146690D02*
X4621786Y-24137167D01*
X4640833Y-24127643D01*
X4669405Y-24127643D01*
X4688452Y-24137167D01*
X4697976Y-24156214D01*
X4697976Y-24260976D01*
X4697976Y-24156214D02*
X4707500Y-24137167D01*
X4726548Y-24127643D01*
X4755119Y-24127643D01*
X4774167Y-24137167D01*
X4783690Y-24156214D01*
X4783690Y-24260976D01*
X4878929Y-24260976D02*
X4878929Y-24127643D01*
X4878929Y-24146690D02*
X4888452Y-24137167D01*
X4907500Y-24127643D01*
X4936071Y-24127643D01*
X4955119Y-24137167D01*
X4964643Y-24156214D01*
X4964643Y-24260976D01*
X4964643Y-24156214D02*
X4974167Y-24137167D01*
X4993214Y-24127643D01*
X5021786Y-24127643D01*
X5040833Y-24137167D01*
X5050357Y-24156214D01*
X5050357Y-24260976D01*
X5440833Y-24051452D02*
X5269405Y-24308595D01*
X5697976Y-24060976D02*
X5717024Y-24060976D01*
X5736071Y-24070500D01*
X5745595Y-24080024D01*
X5755119Y-24099071D01*
X5764643Y-24137167D01*
X5764643Y-24184786D01*
X5755119Y-24222881D01*
X5745595Y-24241928D01*
X5736071Y-24251452D01*
X5717024Y-24260976D01*
X5697976Y-24260976D01*
X5678928Y-24251452D01*
X5669405Y-24241928D01*
X5659881Y-24222881D01*
X5650357Y-24184786D01*
X5650357Y-24137167D01*
X5659881Y-24099071D01*
X5669405Y-24080024D01*
X5678928Y-24070500D01*
X5697976Y-24060976D01*
X5850357Y-24241928D02*
X5859881Y-24251452D01*
X5850357Y-24260976D01*
X5840833Y-24251452D01*
X5850357Y-24241928D01*
X5850357Y-24260976D01*
X5983690Y-24060976D02*
X6002738Y-24060976D01*
X6021786Y-24070500D01*
X6031309Y-24080024D01*
X6040833Y-24099071D01*
X6050357Y-24137167D01*
X6050357Y-24184786D01*
X6040833Y-24222881D01*
X6031309Y-24241928D01*
X6021786Y-24251452D01*
X6002738Y-24260976D01*
X5983690Y-24260976D01*
X5964643Y-24251452D01*
X5955119Y-24241928D01*
X5945595Y-24222881D01*
X5936071Y-24184786D01*
X5936071Y-24137167D01*
X5945595Y-24099071D01*
X5955119Y-24080024D01*
X5964643Y-24070500D01*
X5983690Y-24060976D01*
X6126548Y-24080024D02*
X6136071Y-24070500D01*
X6155119Y-24060976D01*
X6202738Y-24060976D01*
X6221786Y-24070500D01*
X6231309Y-24080024D01*
X6240833Y-24099071D01*
X6240833Y-24118119D01*
X6231309Y-24146690D01*
X6117024Y-24260976D01*
X6240833Y-24260976D01*
X6336071Y-24260976D02*
X6374167Y-24260976D01*
X6393214Y-24251452D01*
X6402738Y-24241928D01*
X6421786Y-24213357D01*
X6431309Y-24175262D01*
X6431309Y-24099071D01*
X6421786Y-24080024D01*
X6412262Y-24070500D01*
X6393214Y-24060976D01*
X6355119Y-24060976D01*
X6336071Y-24070500D01*
X6326548Y-24080024D01*
X6317024Y-24099071D01*
X6317024Y-24146690D01*
X6326548Y-24165738D01*
X6336071Y-24175262D01*
X6355119Y-24184786D01*
X6393214Y-24184786D01*
X6412262Y-24175262D01*
X6421786Y-24165738D01*
X6431309Y-24146690D01*
X6612262Y-24060976D02*
X6517024Y-24060976D01*
X6507500Y-24156214D01*
X6517024Y-24146690D01*
X6536071Y-24137167D01*
X6583690Y-24137167D01*
X6602738Y-24146690D01*
X6612262Y-24156214D01*
X6621786Y-24175262D01*
X6621786Y-24222881D01*
X6612262Y-24241928D01*
X6602738Y-24251452D01*
X6583690Y-24260976D01*
X6536071Y-24260976D01*
X6517024Y-24251452D01*
X6507500Y-24241928D01*
X6697976Y-24060976D02*
X6697976Y-24099071D01*
X6774167Y-24060976D02*
X6774167Y-24099071D01*
X7069405Y-24337167D02*
X7059881Y-24327643D01*
X7040833Y-24299071D01*
X7031309Y-24280024D01*
X7021786Y-24251452D01*
X7012262Y-24203833D01*
X7012262Y-24165738D01*
X7021786Y-24118119D01*
X7031309Y-24089548D01*
X7040833Y-24070500D01*
X7059881Y-24041928D01*
X7069405Y-24032405D01*
X7231309Y-24060976D02*
X7193214Y-24060976D01*
X7174167Y-24070500D01*
X7164643Y-24080024D01*
X7145595Y-24108595D01*
X7136071Y-24146690D01*
X7136071Y-24222881D01*
X7145595Y-24241928D01*
X7155119Y-24251452D01*
X7174167Y-24260976D01*
X7212262Y-24260976D01*
X7231309Y-24251452D01*
X7240833Y-24241928D01*
X7250357Y-24222881D01*
X7250357Y-24175262D01*
X7240833Y-24156214D01*
X7231309Y-24146690D01*
X7212262Y-24137167D01*
X7174167Y-24137167D01*
X7155119Y-24146690D01*
X7145595Y-24156214D01*
X7136071Y-24175262D01*
X7488452Y-24260976D02*
X7488452Y-24060976D01*
X7574167Y-24260976D02*
X7574167Y-24156214D01*
X7564643Y-24137167D01*
X7545595Y-24127643D01*
X7517024Y-24127643D01*
X7497976Y-24137167D01*
X7488452Y-24146690D01*
X7697976Y-24260976D02*
X7678928Y-24251452D01*
X7669405Y-24241928D01*
X7659881Y-24222881D01*
X7659881Y-24165738D01*
X7669405Y-24146690D01*
X7678928Y-24137167D01*
X7697976Y-24127643D01*
X7726548Y-24127643D01*
X7745595Y-24137167D01*
X7755119Y-24146690D01*
X7764643Y-24165738D01*
X7764643Y-24222881D01*
X7755119Y-24241928D01*
X7745595Y-24251452D01*
X7726548Y-24260976D01*
X7697976Y-24260976D01*
X7878928Y-24260976D02*
X7859881Y-24251452D01*
X7850357Y-24232405D01*
X7850357Y-24060976D01*
X8031309Y-24251452D02*
X8012262Y-24260976D01*
X7974167Y-24260976D01*
X7955119Y-24251452D01*
X7945595Y-24232405D01*
X7945595Y-24156214D01*
X7955119Y-24137167D01*
X7974167Y-24127643D01*
X8012262Y-24127643D01*
X8031309Y-24137167D01*
X8040833Y-24156214D01*
X8040833Y-24175262D01*
X7945595Y-24194309D01*
X8117024Y-24251452D02*
X8136071Y-24260976D01*
X8174167Y-24260976D01*
X8193214Y-24251452D01*
X8202738Y-24232405D01*
X8202738Y-24222881D01*
X8193214Y-24203833D01*
X8174167Y-24194309D01*
X8145595Y-24194309D01*
X8126548Y-24184786D01*
X8117024Y-24165738D01*
X8117024Y-24156214D01*
X8126548Y-24137167D01*
X8145595Y-24127643D01*
X8174167Y-24127643D01*
X8193214Y-24137167D01*
X8269405Y-24337167D02*
X8278928Y-24327643D01*
X8297976Y-24299071D01*
X8307500Y-24280024D01*
X8317024Y-24251452D01*
X8326548Y-24203833D01*
X8326548Y-24165738D01*
X8317024Y-24118119D01*
X8307500Y-24089548D01*
X8297976Y-24070500D01*
X8278928Y-24041928D01*
X8269405Y-24032405D01*
D15*
X3485784Y-24462784D02*
X3485784Y-24406215D01*
X3429215Y-24406215D01*
X3429215Y-24462784D01*
X3485784Y-24462784D01*
D11*
X3793214Y-24324976D02*
X3812262Y-24324976D01*
X3831309Y-24334500D01*
X3840833Y-24344024D01*
X3850357Y-24363071D01*
X3859881Y-24401167D01*
X3859881Y-24448786D01*
X3850357Y-24486881D01*
X3840833Y-24505928D01*
X3831309Y-24515452D01*
X3812262Y-24524976D01*
X3793214Y-24524976D01*
X3774167Y-24515452D01*
X3764643Y-24505928D01*
X3755119Y-24486881D01*
X3745595Y-24448786D01*
X3745595Y-24401167D01*
X3755119Y-24363071D01*
X3764643Y-24344024D01*
X3774167Y-24334500D01*
X3793214Y-24324976D01*
X3945595Y-24505928D02*
X3955119Y-24515452D01*
X3945595Y-24524976D01*
X3936071Y-24515452D01*
X3945595Y-24505928D01*
X3945595Y-24524976D01*
X4069405Y-24410690D02*
X4050357Y-24401167D01*
X4040833Y-24391643D01*
X4031309Y-24372595D01*
X4031309Y-24363071D01*
X4040833Y-24344024D01*
X4050357Y-24334500D01*
X4069405Y-24324976D01*
X4107500Y-24324976D01*
X4126548Y-24334500D01*
X4136071Y-24344024D01*
X4145595Y-24363071D01*
X4145595Y-24372595D01*
X4136071Y-24391643D01*
X4126548Y-24401167D01*
X4107500Y-24410690D01*
X4069405Y-24410690D01*
X4050357Y-24420214D01*
X4040833Y-24429738D01*
X4031309Y-24448786D01*
X4031309Y-24486881D01*
X4040833Y-24505928D01*
X4050357Y-24515452D01*
X4069405Y-24524976D01*
X4107500Y-24524976D01*
X4126548Y-24515452D01*
X4136071Y-24505928D01*
X4145595Y-24486881D01*
X4145595Y-24448786D01*
X4136071Y-24429738D01*
X4126548Y-24420214D01*
X4107500Y-24410690D01*
X4269405Y-24324976D02*
X4288452Y-24324976D01*
X4307500Y-24334500D01*
X4317024Y-24344024D01*
X4326548Y-24363071D01*
X4336071Y-24401167D01*
X4336071Y-24448786D01*
X4326548Y-24486881D01*
X4317024Y-24505928D01*
X4307500Y-24515452D01*
X4288452Y-24524976D01*
X4269405Y-24524976D01*
X4250357Y-24515452D01*
X4240833Y-24505928D01*
X4231310Y-24486881D01*
X4221786Y-24448786D01*
X4221786Y-24401167D01*
X4231310Y-24363071D01*
X4240833Y-24344024D01*
X4250357Y-24334500D01*
X4269405Y-24324976D01*
X4459881Y-24324976D02*
X4478929Y-24324976D01*
X4497976Y-24334500D01*
X4507500Y-24344024D01*
X4517024Y-24363071D01*
X4526548Y-24401167D01*
X4526548Y-24448786D01*
X4517024Y-24486881D01*
X4507500Y-24505928D01*
X4497976Y-24515452D01*
X4478929Y-24524976D01*
X4459881Y-24524976D01*
X4440833Y-24515452D01*
X4431310Y-24505928D01*
X4421786Y-24486881D01*
X4412262Y-24448786D01*
X4412262Y-24401167D01*
X4421786Y-24363071D01*
X4431310Y-24344024D01*
X4440833Y-24334500D01*
X4459881Y-24324976D01*
X4612262Y-24524976D02*
X4612262Y-24391643D01*
X4612262Y-24410690D02*
X4621786Y-24401167D01*
X4640833Y-24391643D01*
X4669405Y-24391643D01*
X4688452Y-24401167D01*
X4697976Y-24420214D01*
X4697976Y-24524976D01*
X4697976Y-24420214D02*
X4707500Y-24401167D01*
X4726548Y-24391643D01*
X4755119Y-24391643D01*
X4774167Y-24401167D01*
X4783690Y-24420214D01*
X4783690Y-24524976D01*
X4878929Y-24524976D02*
X4878929Y-24391643D01*
X4878929Y-24410690D02*
X4888452Y-24401167D01*
X4907500Y-24391643D01*
X4936071Y-24391643D01*
X4955119Y-24401167D01*
X4964643Y-24420214D01*
X4964643Y-24524976D01*
X4964643Y-24420214D02*
X4974167Y-24401167D01*
X4993214Y-24391643D01*
X5021786Y-24391643D01*
X5040833Y-24401167D01*
X5050357Y-24420214D01*
X5050357Y-24524976D01*
X5440833Y-24315452D02*
X5269405Y-24572595D01*
X5697976Y-24324976D02*
X5717024Y-24324976D01*
X5736071Y-24334500D01*
X5745595Y-24344024D01*
X5755119Y-24363071D01*
X5764643Y-24401167D01*
X5764643Y-24448786D01*
X5755119Y-24486881D01*
X5745595Y-24505928D01*
X5736071Y-24515452D01*
X5717024Y-24524976D01*
X5697976Y-24524976D01*
X5678928Y-24515452D01*
X5669405Y-24505928D01*
X5659881Y-24486881D01*
X5650357Y-24448786D01*
X5650357Y-24401167D01*
X5659881Y-24363071D01*
X5669405Y-24344024D01*
X5678928Y-24334500D01*
X5697976Y-24324976D01*
X5850357Y-24505928D02*
X5859881Y-24515452D01*
X5850357Y-24524976D01*
X5840833Y-24515452D01*
X5850357Y-24505928D01*
X5850357Y-24524976D01*
X5983690Y-24324976D02*
X6002738Y-24324976D01*
X6021786Y-24334500D01*
X6031309Y-24344024D01*
X6040833Y-24363071D01*
X6050357Y-24401167D01*
X6050357Y-24448786D01*
X6040833Y-24486881D01*
X6031309Y-24505928D01*
X6021786Y-24515452D01*
X6002738Y-24524976D01*
X5983690Y-24524976D01*
X5964643Y-24515452D01*
X5955119Y-24505928D01*
X5945595Y-24486881D01*
X5936071Y-24448786D01*
X5936071Y-24401167D01*
X5945595Y-24363071D01*
X5955119Y-24344024D01*
X5964643Y-24334500D01*
X5983690Y-24324976D01*
X6117024Y-24324976D02*
X6240833Y-24324976D01*
X6174167Y-24401167D01*
X6202738Y-24401167D01*
X6221786Y-24410690D01*
X6231309Y-24420214D01*
X6240833Y-24439262D01*
X6240833Y-24486881D01*
X6231309Y-24505928D01*
X6221786Y-24515452D01*
X6202738Y-24524976D01*
X6145595Y-24524976D01*
X6126548Y-24515452D01*
X6117024Y-24505928D01*
X6431309Y-24524976D02*
X6317024Y-24524976D01*
X6374167Y-24524976D02*
X6374167Y-24324976D01*
X6355119Y-24353548D01*
X6336071Y-24372595D01*
X6317024Y-24382119D01*
X6612262Y-24324976D02*
X6517024Y-24324976D01*
X6507500Y-24420214D01*
X6517024Y-24410690D01*
X6536071Y-24401167D01*
X6583690Y-24401167D01*
X6602738Y-24410690D01*
X6612262Y-24420214D01*
X6621786Y-24439262D01*
X6621786Y-24486881D01*
X6612262Y-24505928D01*
X6602738Y-24515452D01*
X6583690Y-24524976D01*
X6536071Y-24524976D01*
X6517024Y-24515452D01*
X6507500Y-24505928D01*
X6697976Y-24324976D02*
X6697976Y-24363071D01*
X6774167Y-24324976D02*
X6774167Y-24363071D01*
X7069405Y-24601167D02*
X7059881Y-24591643D01*
X7040833Y-24563071D01*
X7031309Y-24544024D01*
X7021786Y-24515452D01*
X7012262Y-24467833D01*
X7012262Y-24429738D01*
X7021786Y-24382119D01*
X7031309Y-24353548D01*
X7040833Y-24334500D01*
X7059881Y-24305928D01*
X7069405Y-24296405D01*
X7240833Y-24324976D02*
X7145595Y-24324976D01*
X7136071Y-24420214D01*
X7145595Y-24410690D01*
X7164643Y-24401167D01*
X7212262Y-24401167D01*
X7231309Y-24410690D01*
X7240833Y-24420214D01*
X7250357Y-24439262D01*
X7250357Y-24486881D01*
X7240833Y-24505928D01*
X7231309Y-24515452D01*
X7212262Y-24524976D01*
X7164643Y-24524976D01*
X7145595Y-24515452D01*
X7136071Y-24505928D01*
X7326548Y-24344024D02*
X7336071Y-24334500D01*
X7355119Y-24324976D01*
X7402738Y-24324976D01*
X7421786Y-24334500D01*
X7431309Y-24344024D01*
X7440833Y-24363071D01*
X7440833Y-24382119D01*
X7431309Y-24410690D01*
X7317024Y-24524976D01*
X7440833Y-24524976D01*
X7507500Y-24324976D02*
X7640833Y-24324976D01*
X7555119Y-24524976D01*
X7869405Y-24524976D02*
X7869405Y-24324976D01*
X7955119Y-24524976D02*
X7955119Y-24420214D01*
X7945595Y-24401167D01*
X7926548Y-24391643D01*
X7897976Y-24391643D01*
X7878928Y-24401167D01*
X7869405Y-24410690D01*
X8078928Y-24524976D02*
X8059881Y-24515452D01*
X8050357Y-24505928D01*
X8040833Y-24486881D01*
X8040833Y-24429738D01*
X8050357Y-24410690D01*
X8059881Y-24401167D01*
X8078928Y-24391643D01*
X8107500Y-24391643D01*
X8126548Y-24401167D01*
X8136071Y-24410690D01*
X8145595Y-24429738D01*
X8145595Y-24486881D01*
X8136071Y-24505928D01*
X8126548Y-24515452D01*
X8107500Y-24524976D01*
X8078928Y-24524976D01*
X8259881Y-24524976D02*
X8240833Y-24515452D01*
X8231309Y-24496405D01*
X8231309Y-24324976D01*
X8412262Y-24515452D02*
X8393214Y-24524976D01*
X8355119Y-24524976D01*
X8336071Y-24515452D01*
X8326548Y-24496405D01*
X8326548Y-24420214D01*
X8336071Y-24401167D01*
X8355119Y-24391643D01*
X8393214Y-24391643D01*
X8412262Y-24401167D01*
X8421786Y-24420214D01*
X8421786Y-24439262D01*
X8326548Y-24458309D01*
X8497976Y-24515452D02*
X8517024Y-24524976D01*
X8555119Y-24524976D01*
X8574167Y-24515452D01*
X8583690Y-24496405D01*
X8583690Y-24486881D01*
X8574167Y-24467833D01*
X8555119Y-24458309D01*
X8526548Y-24458309D01*
X8507500Y-24448786D01*
X8497976Y-24429738D01*
X8497976Y-24420214D01*
X8507500Y-24401167D01*
X8526548Y-24391643D01*
X8555119Y-24391643D01*
X8574167Y-24401167D01*
X8650357Y-24601167D02*
X8659881Y-24591643D01*
X8678929Y-24563071D01*
X8688452Y-24544024D01*
X8697976Y-24515452D01*
X8707500Y-24467833D01*
X8707500Y-24429738D01*
X8697976Y-24382119D01*
X8688452Y-24353548D01*
X8678929Y-24334500D01*
X8659881Y-24305928D01*
X8650357Y-24296405D01*
D16*
X3452500Y-24743500D02*
X3497500Y-24698500D01*
X3452500Y-24653500D01*
X3407500Y-24698500D01*
X3452500Y-24743500D01*
D11*
X3793214Y-24588976D02*
X3812262Y-24588976D01*
X3831309Y-24598500D01*
X3840833Y-24608024D01*
X3850357Y-24627071D01*
X3859881Y-24665167D01*
X3859881Y-24712786D01*
X3850357Y-24750881D01*
X3840833Y-24769928D01*
X3831309Y-24779452D01*
X3812262Y-24788976D01*
X3793214Y-24788976D01*
X3774167Y-24779452D01*
X3764643Y-24769928D01*
X3755119Y-24750881D01*
X3745595Y-24712786D01*
X3745595Y-24665167D01*
X3755119Y-24627071D01*
X3764643Y-24608024D01*
X3774167Y-24598500D01*
X3793214Y-24588976D01*
X3945595Y-24769928D02*
X3955119Y-24779452D01*
X3945595Y-24788976D01*
X3936071Y-24779452D01*
X3945595Y-24769928D01*
X3945595Y-24788976D01*
X4050357Y-24788976D02*
X4088452Y-24788976D01*
X4107500Y-24779452D01*
X4117024Y-24769928D01*
X4136071Y-24741357D01*
X4145595Y-24703262D01*
X4145595Y-24627071D01*
X4136071Y-24608024D01*
X4126548Y-24598500D01*
X4107500Y-24588976D01*
X4069405Y-24588976D01*
X4050357Y-24598500D01*
X4040833Y-24608024D01*
X4031309Y-24627071D01*
X4031309Y-24674690D01*
X4040833Y-24693738D01*
X4050357Y-24703262D01*
X4069405Y-24712786D01*
X4107500Y-24712786D01*
X4126548Y-24703262D01*
X4136071Y-24693738D01*
X4145595Y-24674690D01*
X4269405Y-24588976D02*
X4288452Y-24588976D01*
X4307500Y-24598500D01*
X4317024Y-24608024D01*
X4326548Y-24627071D01*
X4336071Y-24665167D01*
X4336071Y-24712786D01*
X4326548Y-24750881D01*
X4317024Y-24769928D01*
X4307500Y-24779452D01*
X4288452Y-24788976D01*
X4269405Y-24788976D01*
X4250357Y-24779452D01*
X4240833Y-24769928D01*
X4231310Y-24750881D01*
X4221786Y-24712786D01*
X4221786Y-24665167D01*
X4231310Y-24627071D01*
X4240833Y-24608024D01*
X4250357Y-24598500D01*
X4269405Y-24588976D01*
X4459881Y-24588976D02*
X4478929Y-24588976D01*
X4497976Y-24598500D01*
X4507500Y-24608024D01*
X4517024Y-24627071D01*
X4526548Y-24665167D01*
X4526548Y-24712786D01*
X4517024Y-24750881D01*
X4507500Y-24769928D01*
X4497976Y-24779452D01*
X4478929Y-24788976D01*
X4459881Y-24788976D01*
X4440833Y-24779452D01*
X4431310Y-24769928D01*
X4421786Y-24750881D01*
X4412262Y-24712786D01*
X4412262Y-24665167D01*
X4421786Y-24627071D01*
X4431310Y-24608024D01*
X4440833Y-24598500D01*
X4459881Y-24588976D01*
X4612262Y-24788976D02*
X4612262Y-24655643D01*
X4612262Y-24674690D02*
X4621786Y-24665167D01*
X4640833Y-24655643D01*
X4669405Y-24655643D01*
X4688452Y-24665167D01*
X4697976Y-24684214D01*
X4697976Y-24788976D01*
X4697976Y-24684214D02*
X4707500Y-24665167D01*
X4726548Y-24655643D01*
X4755119Y-24655643D01*
X4774167Y-24665167D01*
X4783690Y-24684214D01*
X4783690Y-24788976D01*
X4878929Y-24788976D02*
X4878929Y-24655643D01*
X4878929Y-24674690D02*
X4888452Y-24665167D01*
X4907500Y-24655643D01*
X4936071Y-24655643D01*
X4955119Y-24665167D01*
X4964643Y-24684214D01*
X4964643Y-24788976D01*
X4964643Y-24684214D02*
X4974167Y-24665167D01*
X4993214Y-24655643D01*
X5021786Y-24655643D01*
X5040833Y-24665167D01*
X5050357Y-24684214D01*
X5050357Y-24788976D01*
X5440833Y-24579452D02*
X5269405Y-24836595D01*
X5697976Y-24588976D02*
X5717024Y-24588976D01*
X5736071Y-24598500D01*
X5745595Y-24608024D01*
X5755119Y-24627071D01*
X5764643Y-24665167D01*
X5764643Y-24712786D01*
X5755119Y-24750881D01*
X5745595Y-24769928D01*
X5736071Y-24779452D01*
X5717024Y-24788976D01*
X5697976Y-24788976D01*
X5678928Y-24779452D01*
X5669405Y-24769928D01*
X5659881Y-24750881D01*
X5650357Y-24712786D01*
X5650357Y-24665167D01*
X5659881Y-24627071D01*
X5669405Y-24608024D01*
X5678928Y-24598500D01*
X5697976Y-24588976D01*
X5850357Y-24769928D02*
X5859881Y-24779452D01*
X5850357Y-24788976D01*
X5840833Y-24779452D01*
X5850357Y-24769928D01*
X5850357Y-24788976D01*
X5983690Y-24588976D02*
X6002738Y-24588976D01*
X6021786Y-24598500D01*
X6031309Y-24608024D01*
X6040833Y-24627071D01*
X6050357Y-24665167D01*
X6050357Y-24712786D01*
X6040833Y-24750881D01*
X6031309Y-24769928D01*
X6021786Y-24779452D01*
X6002738Y-24788976D01*
X5983690Y-24788976D01*
X5964643Y-24779452D01*
X5955119Y-24769928D01*
X5945595Y-24750881D01*
X5936071Y-24712786D01*
X5936071Y-24665167D01*
X5945595Y-24627071D01*
X5955119Y-24608024D01*
X5964643Y-24598500D01*
X5983690Y-24588976D01*
X6117024Y-24588976D02*
X6240833Y-24588976D01*
X6174167Y-24665167D01*
X6202738Y-24665167D01*
X6221786Y-24674690D01*
X6231309Y-24684214D01*
X6240833Y-24703262D01*
X6240833Y-24750881D01*
X6231309Y-24769928D01*
X6221786Y-24779452D01*
X6202738Y-24788976D01*
X6145595Y-24788976D01*
X6126548Y-24779452D01*
X6117024Y-24769928D01*
X6421786Y-24588976D02*
X6326548Y-24588976D01*
X6317024Y-24684214D01*
X6326548Y-24674690D01*
X6345595Y-24665167D01*
X6393214Y-24665167D01*
X6412262Y-24674690D01*
X6421786Y-24684214D01*
X6431309Y-24703262D01*
X6431309Y-24750881D01*
X6421786Y-24769928D01*
X6412262Y-24779452D01*
X6393214Y-24788976D01*
X6345595Y-24788976D01*
X6326548Y-24779452D01*
X6317024Y-24769928D01*
X6602738Y-24655643D02*
X6602738Y-24788976D01*
X6555119Y-24579452D02*
X6507500Y-24722309D01*
X6631309Y-24722309D01*
X6697976Y-24588976D02*
X6697976Y-24627071D01*
X6774167Y-24588976D02*
X6774167Y-24627071D01*
X7069405Y-24865167D02*
X7059881Y-24855643D01*
X7040833Y-24827071D01*
X7031309Y-24808024D01*
X7021786Y-24779452D01*
X7012262Y-24731833D01*
X7012262Y-24693738D01*
X7021786Y-24646119D01*
X7031309Y-24617548D01*
X7040833Y-24598500D01*
X7059881Y-24569928D01*
X7069405Y-24560405D01*
X7231309Y-24655643D02*
X7231309Y-24788976D01*
X7183690Y-24579452D02*
X7136071Y-24722309D01*
X7259881Y-24722309D01*
X7488452Y-24788976D02*
X7488452Y-24588976D01*
X7574167Y-24788976D02*
X7574167Y-24684214D01*
X7564643Y-24665167D01*
X7545595Y-24655643D01*
X7517024Y-24655643D01*
X7497976Y-24665167D01*
X7488452Y-24674690D01*
X7697976Y-24788976D02*
X7678928Y-24779452D01*
X7669405Y-24769928D01*
X7659881Y-24750881D01*
X7659881Y-24693738D01*
X7669405Y-24674690D01*
X7678928Y-24665167D01*
X7697976Y-24655643D01*
X7726548Y-24655643D01*
X7745595Y-24665167D01*
X7755119Y-24674690D01*
X7764643Y-24693738D01*
X7764643Y-24750881D01*
X7755119Y-24769928D01*
X7745595Y-24779452D01*
X7726548Y-24788976D01*
X7697976Y-24788976D01*
X7878928Y-24788976D02*
X7859881Y-24779452D01*
X7850357Y-24760405D01*
X7850357Y-24588976D01*
X8031309Y-24779452D02*
X8012262Y-24788976D01*
X7974167Y-24788976D01*
X7955119Y-24779452D01*
X7945595Y-24760405D01*
X7945595Y-24684214D01*
X7955119Y-24665167D01*
X7974167Y-24655643D01*
X8012262Y-24655643D01*
X8031309Y-24665167D01*
X8040833Y-24684214D01*
X8040833Y-24703262D01*
X7945595Y-24722309D01*
X8117024Y-24779452D02*
X8136071Y-24788976D01*
X8174167Y-24788976D01*
X8193214Y-24779452D01*
X8202738Y-24760405D01*
X8202738Y-24750881D01*
X8193214Y-24731833D01*
X8174167Y-24722309D01*
X8145595Y-24722309D01*
X8126548Y-24712786D01*
X8117024Y-24693738D01*
X8117024Y-24684214D01*
X8126548Y-24665167D01*
X8145595Y-24655643D01*
X8174167Y-24655643D01*
X8193214Y-24665167D01*
X8269405Y-24865167D02*
X8278928Y-24855643D01*
X8297976Y-24827071D01*
X8307500Y-24808024D01*
X8317024Y-24779452D01*
X8326548Y-24731833D01*
X8326548Y-24693738D01*
X8317024Y-24646119D01*
X8307500Y-24617548D01*
X8297976Y-24598500D01*
X8278928Y-24569928D01*
X8269405Y-24560405D01*
D17*
X3397500Y-24912500D02*
X3497500Y-25012500D01*
X3497500Y-24912500D02*
X3397500Y-25012500D01*
X3497500Y-24962500D02*
G75*
G03*
X3497500Y-24962500I-50000J0D01*
G01*
D11*
X3859881Y-25052976D02*
X3745595Y-25052976D01*
X3802738Y-25052976D02*
X3802738Y-24852976D01*
X3783690Y-24881548D01*
X3764643Y-24900595D01*
X3745595Y-24910119D01*
X3945595Y-25033928D02*
X3955119Y-25043452D01*
X3945595Y-25052976D01*
X3936071Y-25043452D01*
X3945595Y-25033928D01*
X3945595Y-25052976D01*
X4078928Y-24852976D02*
X4097976Y-24852976D01*
X4117024Y-24862500D01*
X4126548Y-24872024D01*
X4136071Y-24891071D01*
X4145595Y-24929167D01*
X4145595Y-24976786D01*
X4136071Y-25014881D01*
X4126548Y-25033928D01*
X4117024Y-25043452D01*
X4097976Y-25052976D01*
X4078928Y-25052976D01*
X4059881Y-25043452D01*
X4050357Y-25033928D01*
X4040833Y-25014881D01*
X4031309Y-24976786D01*
X4031309Y-24929167D01*
X4040833Y-24891071D01*
X4050357Y-24872024D01*
X4059881Y-24862500D01*
X4078928Y-24852976D01*
X4269405Y-24852976D02*
X4288452Y-24852976D01*
X4307500Y-24862500D01*
X4317024Y-24872024D01*
X4326548Y-24891071D01*
X4336071Y-24929167D01*
X4336071Y-24976786D01*
X4326548Y-25014881D01*
X4317024Y-25033928D01*
X4307500Y-25043452D01*
X4288452Y-25052976D01*
X4269405Y-25052976D01*
X4250357Y-25043452D01*
X4240833Y-25033928D01*
X4231310Y-25014881D01*
X4221786Y-24976786D01*
X4221786Y-24929167D01*
X4231310Y-24891071D01*
X4240833Y-24872024D01*
X4250357Y-24862500D01*
X4269405Y-24852976D01*
X4459881Y-24852976D02*
X4478929Y-24852976D01*
X4497976Y-24862500D01*
X4507500Y-24872024D01*
X4517024Y-24891071D01*
X4526548Y-24929167D01*
X4526548Y-24976786D01*
X4517024Y-25014881D01*
X4507500Y-25033928D01*
X4497976Y-25043452D01*
X4478929Y-25052976D01*
X4459881Y-25052976D01*
X4440833Y-25043452D01*
X4431310Y-25033928D01*
X4421786Y-25014881D01*
X4412262Y-24976786D01*
X4412262Y-24929167D01*
X4421786Y-24891071D01*
X4431310Y-24872024D01*
X4440833Y-24862500D01*
X4459881Y-24852976D01*
X4612262Y-25052976D02*
X4612262Y-24919643D01*
X4612262Y-24938690D02*
X4621786Y-24929167D01*
X4640833Y-24919643D01*
X4669405Y-24919643D01*
X4688452Y-24929167D01*
X4697976Y-24948214D01*
X4697976Y-25052976D01*
X4697976Y-24948214D02*
X4707500Y-24929167D01*
X4726548Y-24919643D01*
X4755119Y-24919643D01*
X4774167Y-24929167D01*
X4783690Y-24948214D01*
X4783690Y-25052976D01*
X4878929Y-25052976D02*
X4878929Y-24919643D01*
X4878929Y-24938690D02*
X4888452Y-24929167D01*
X4907500Y-24919643D01*
X4936071Y-24919643D01*
X4955119Y-24929167D01*
X4964643Y-24948214D01*
X4964643Y-25052976D01*
X4964643Y-24948214D02*
X4974167Y-24929167D01*
X4993214Y-24919643D01*
X5021786Y-24919643D01*
X5040833Y-24929167D01*
X5050357Y-24948214D01*
X5050357Y-25052976D01*
X5440833Y-24843452D02*
X5269405Y-25100595D01*
X5697976Y-24852976D02*
X5717024Y-24852976D01*
X5736071Y-24862500D01*
X5745595Y-24872024D01*
X5755119Y-24891071D01*
X5764643Y-24929167D01*
X5764643Y-24976786D01*
X5755119Y-25014881D01*
X5745595Y-25033928D01*
X5736071Y-25043452D01*
X5717024Y-25052976D01*
X5697976Y-25052976D01*
X5678928Y-25043452D01*
X5669405Y-25033928D01*
X5659881Y-25014881D01*
X5650357Y-24976786D01*
X5650357Y-24929167D01*
X5659881Y-24891071D01*
X5669405Y-24872024D01*
X5678928Y-24862500D01*
X5697976Y-24852976D01*
X5850357Y-25033928D02*
X5859881Y-25043452D01*
X5850357Y-25052976D01*
X5840833Y-25043452D01*
X5850357Y-25033928D01*
X5850357Y-25052976D01*
X5983690Y-24852976D02*
X6002738Y-24852976D01*
X6021786Y-24862500D01*
X6031309Y-24872024D01*
X6040833Y-24891071D01*
X6050357Y-24929167D01*
X6050357Y-24976786D01*
X6040833Y-25014881D01*
X6031309Y-25033928D01*
X6021786Y-25043452D01*
X6002738Y-25052976D01*
X5983690Y-25052976D01*
X5964643Y-25043452D01*
X5955119Y-25033928D01*
X5945595Y-25014881D01*
X5936071Y-24976786D01*
X5936071Y-24929167D01*
X5945595Y-24891071D01*
X5955119Y-24872024D01*
X5964643Y-24862500D01*
X5983690Y-24852976D01*
X6117024Y-24852976D02*
X6240833Y-24852976D01*
X6174167Y-24929167D01*
X6202738Y-24929167D01*
X6221786Y-24938690D01*
X6231309Y-24948214D01*
X6240833Y-24967262D01*
X6240833Y-25014881D01*
X6231309Y-25033928D01*
X6221786Y-25043452D01*
X6202738Y-25052976D01*
X6145595Y-25052976D01*
X6126548Y-25043452D01*
X6117024Y-25033928D01*
X6336071Y-25052976D02*
X6374167Y-25052976D01*
X6393214Y-25043452D01*
X6402738Y-25033928D01*
X6421786Y-25005357D01*
X6431309Y-24967262D01*
X6431309Y-24891071D01*
X6421786Y-24872024D01*
X6412262Y-24862500D01*
X6393214Y-24852976D01*
X6355119Y-24852976D01*
X6336071Y-24862500D01*
X6326548Y-24872024D01*
X6317024Y-24891071D01*
X6317024Y-24938690D01*
X6326548Y-24957738D01*
X6336071Y-24967262D01*
X6355119Y-24976786D01*
X6393214Y-24976786D01*
X6412262Y-24967262D01*
X6421786Y-24957738D01*
X6431309Y-24938690D01*
X6602738Y-24919643D02*
X6602738Y-25052976D01*
X6555119Y-24843452D02*
X6507500Y-24986309D01*
X6631309Y-24986309D01*
X6697976Y-24852976D02*
X6697976Y-24891071D01*
X6774167Y-24852976D02*
X6774167Y-24891071D01*
X7069405Y-25129167D02*
X7059881Y-25119643D01*
X7040833Y-25091071D01*
X7031309Y-25072024D01*
X7021786Y-25043452D01*
X7012262Y-24995833D01*
X7012262Y-24957738D01*
X7021786Y-24910119D01*
X7031309Y-24881548D01*
X7040833Y-24862500D01*
X7059881Y-24833928D01*
X7069405Y-24824405D01*
X7250357Y-25052976D02*
X7136071Y-25052976D01*
X7193214Y-25052976D02*
X7193214Y-24852976D01*
X7174167Y-24881548D01*
X7155119Y-24900595D01*
X7136071Y-24910119D01*
X7345595Y-25052976D02*
X7383690Y-25052976D01*
X7402738Y-25043452D01*
X7412262Y-25033928D01*
X7431309Y-25005357D01*
X7440833Y-24967262D01*
X7440833Y-24891071D01*
X7431309Y-24872024D01*
X7421786Y-24862500D01*
X7402738Y-24852976D01*
X7364643Y-24852976D01*
X7345595Y-24862500D01*
X7336071Y-24872024D01*
X7326548Y-24891071D01*
X7326548Y-24938690D01*
X7336071Y-24957738D01*
X7345595Y-24967262D01*
X7364643Y-24976786D01*
X7402738Y-24976786D01*
X7421786Y-24967262D01*
X7431309Y-24957738D01*
X7440833Y-24938690D01*
X7631309Y-25052976D02*
X7517024Y-25052976D01*
X7574167Y-25052976D02*
X7574167Y-24852976D01*
X7555119Y-24881548D01*
X7536071Y-24900595D01*
X7517024Y-24910119D01*
X7869405Y-25052976D02*
X7869405Y-24852976D01*
X7955119Y-25052976D02*
X7955119Y-24948214D01*
X7945595Y-24929167D01*
X7926548Y-24919643D01*
X7897976Y-24919643D01*
X7878928Y-24929167D01*
X7869405Y-24938690D01*
X8078928Y-25052976D02*
X8059881Y-25043452D01*
X8050357Y-25033928D01*
X8040833Y-25014881D01*
X8040833Y-24957738D01*
X8050357Y-24938690D01*
X8059881Y-24929167D01*
X8078928Y-24919643D01*
X8107500Y-24919643D01*
X8126548Y-24929167D01*
X8136071Y-24938690D01*
X8145595Y-24957738D01*
X8145595Y-25014881D01*
X8136071Y-25033928D01*
X8126548Y-25043452D01*
X8107500Y-25052976D01*
X8078928Y-25052976D01*
X8259881Y-25052976D02*
X8240833Y-25043452D01*
X8231309Y-25024405D01*
X8231309Y-24852976D01*
X8412262Y-25043452D02*
X8393214Y-25052976D01*
X8355119Y-25052976D01*
X8336071Y-25043452D01*
X8326548Y-25024405D01*
X8326548Y-24948214D01*
X8336071Y-24929167D01*
X8355119Y-24919643D01*
X8393214Y-24919643D01*
X8412262Y-24929167D01*
X8421786Y-24948214D01*
X8421786Y-24967262D01*
X8326548Y-24986309D01*
X8497976Y-25043452D02*
X8517024Y-25052976D01*
X8555119Y-25052976D01*
X8574167Y-25043452D01*
X8583690Y-25024405D01*
X8583690Y-25014881D01*
X8574167Y-24995833D01*
X8555119Y-24986309D01*
X8526548Y-24986309D01*
X8507500Y-24976786D01*
X8497976Y-24957738D01*
X8497976Y-24948214D01*
X8507500Y-24929167D01*
X8526548Y-24919643D01*
X8555119Y-24919643D01*
X8574167Y-24929167D01*
X8650357Y-25129167D02*
X8659881Y-25119643D01*
X8678929Y-25091071D01*
X8688452Y-25072024D01*
X8697976Y-25043452D01*
X8707500Y-24995833D01*
X8707500Y-24957738D01*
X8697976Y-24910119D01*
X8688452Y-24881548D01*
X8678929Y-24862500D01*
X8659881Y-24833928D01*
X8650357Y-24824405D01*
X3297500Y-25126500D02*
X3497500Y-25326500D01*
X3497500Y-25126500D02*
X3297500Y-25326500D01*
X3397500Y-25126500D02*
X3397500Y-25326500D01*
X3297500Y-25226500D02*
X3497500Y-25226500D01*
X3745595Y-25136024D02*
X3755119Y-25126500D01*
X3774167Y-25116976D01*
X3821786Y-25116976D01*
X3840833Y-25126500D01*
X3850357Y-25136024D01*
X3859881Y-25155071D01*
X3859881Y-25174119D01*
X3850357Y-25202690D01*
X3736071Y-25316976D01*
X3859881Y-25316976D01*
X3945595Y-25297928D02*
X3955119Y-25307452D01*
X3945595Y-25316976D01*
X3936071Y-25307452D01*
X3945595Y-25297928D01*
X3945595Y-25316976D01*
X4031309Y-25136024D02*
X4040833Y-25126500D01*
X4059881Y-25116976D01*
X4107500Y-25116976D01*
X4126548Y-25126500D01*
X4136071Y-25136024D01*
X4145595Y-25155071D01*
X4145595Y-25174119D01*
X4136071Y-25202690D01*
X4021786Y-25316976D01*
X4145595Y-25316976D01*
X4269405Y-25116976D02*
X4288452Y-25116976D01*
X4307500Y-25126500D01*
X4317024Y-25136024D01*
X4326548Y-25155071D01*
X4336071Y-25193167D01*
X4336071Y-25240786D01*
X4326548Y-25278881D01*
X4317024Y-25297928D01*
X4307500Y-25307452D01*
X4288452Y-25316976D01*
X4269405Y-25316976D01*
X4250357Y-25307452D01*
X4240833Y-25297928D01*
X4231310Y-25278881D01*
X4221786Y-25240786D01*
X4221786Y-25193167D01*
X4231310Y-25155071D01*
X4240833Y-25136024D01*
X4250357Y-25126500D01*
X4269405Y-25116976D01*
X4459881Y-25116976D02*
X4478929Y-25116976D01*
X4497976Y-25126500D01*
X4507500Y-25136024D01*
X4517024Y-25155071D01*
X4526548Y-25193167D01*
X4526548Y-25240786D01*
X4517024Y-25278881D01*
X4507500Y-25297928D01*
X4497976Y-25307452D01*
X4478929Y-25316976D01*
X4459881Y-25316976D01*
X4440833Y-25307452D01*
X4431310Y-25297928D01*
X4421786Y-25278881D01*
X4412262Y-25240786D01*
X4412262Y-25193167D01*
X4421786Y-25155071D01*
X4431310Y-25136024D01*
X4440833Y-25126500D01*
X4459881Y-25116976D01*
X4612262Y-25316976D02*
X4612262Y-25183643D01*
X4612262Y-25202690D02*
X4621786Y-25193167D01*
X4640833Y-25183643D01*
X4669405Y-25183643D01*
X4688452Y-25193167D01*
X4697976Y-25212214D01*
X4697976Y-25316976D01*
X4697976Y-25212214D02*
X4707500Y-25193167D01*
X4726548Y-25183643D01*
X4755119Y-25183643D01*
X4774167Y-25193167D01*
X4783690Y-25212214D01*
X4783690Y-25316976D01*
X4878929Y-25316976D02*
X4878929Y-25183643D01*
X4878929Y-25202690D02*
X4888452Y-25193167D01*
X4907500Y-25183643D01*
X4936071Y-25183643D01*
X4955119Y-25193167D01*
X4964643Y-25212214D01*
X4964643Y-25316976D01*
X4964643Y-25212214D02*
X4974167Y-25193167D01*
X4993214Y-25183643D01*
X5021786Y-25183643D01*
X5040833Y-25193167D01*
X5050357Y-25212214D01*
X5050357Y-25316976D01*
X5440833Y-25107452D02*
X5269405Y-25364595D01*
X5697976Y-25116976D02*
X5717024Y-25116976D01*
X5736071Y-25126500D01*
X5745595Y-25136024D01*
X5755119Y-25155071D01*
X5764643Y-25193167D01*
X5764643Y-25240786D01*
X5755119Y-25278881D01*
X5745595Y-25297928D01*
X5736071Y-25307452D01*
X5717024Y-25316976D01*
X5697976Y-25316976D01*
X5678928Y-25307452D01*
X5669405Y-25297928D01*
X5659881Y-25278881D01*
X5650357Y-25240786D01*
X5650357Y-25193167D01*
X5659881Y-25155071D01*
X5669405Y-25136024D01*
X5678928Y-25126500D01*
X5697976Y-25116976D01*
X5850357Y-25297928D02*
X5859881Y-25307452D01*
X5850357Y-25316976D01*
X5840833Y-25307452D01*
X5850357Y-25297928D01*
X5850357Y-25316976D01*
X5983690Y-25116976D02*
X6002738Y-25116976D01*
X6021786Y-25126500D01*
X6031309Y-25136024D01*
X6040833Y-25155071D01*
X6050357Y-25193167D01*
X6050357Y-25240786D01*
X6040833Y-25278881D01*
X6031309Y-25297928D01*
X6021786Y-25307452D01*
X6002738Y-25316976D01*
X5983690Y-25316976D01*
X5964643Y-25307452D01*
X5955119Y-25297928D01*
X5945595Y-25278881D01*
X5936071Y-25240786D01*
X5936071Y-25193167D01*
X5945595Y-25155071D01*
X5955119Y-25136024D01*
X5964643Y-25126500D01*
X5983690Y-25116976D01*
X6164643Y-25202690D02*
X6145595Y-25193167D01*
X6136071Y-25183643D01*
X6126548Y-25164595D01*
X6126548Y-25155071D01*
X6136071Y-25136024D01*
X6145595Y-25126500D01*
X6164643Y-25116976D01*
X6202738Y-25116976D01*
X6221786Y-25126500D01*
X6231309Y-25136024D01*
X6240833Y-25155071D01*
X6240833Y-25164595D01*
X6231309Y-25183643D01*
X6221786Y-25193167D01*
X6202738Y-25202690D01*
X6164643Y-25202690D01*
X6145595Y-25212214D01*
X6136071Y-25221738D01*
X6126548Y-25240786D01*
X6126548Y-25278881D01*
X6136071Y-25297928D01*
X6145595Y-25307452D01*
X6164643Y-25316976D01*
X6202738Y-25316976D01*
X6221786Y-25307452D01*
X6231309Y-25297928D01*
X6240833Y-25278881D01*
X6240833Y-25240786D01*
X6231309Y-25221738D01*
X6221786Y-25212214D01*
X6202738Y-25202690D01*
X6412262Y-25116976D02*
X6374167Y-25116976D01*
X6355119Y-25126500D01*
X6345595Y-25136024D01*
X6326548Y-25164595D01*
X6317024Y-25202690D01*
X6317024Y-25278881D01*
X6326548Y-25297928D01*
X6336071Y-25307452D01*
X6355119Y-25316976D01*
X6393214Y-25316976D01*
X6412262Y-25307452D01*
X6421786Y-25297928D01*
X6431309Y-25278881D01*
X6431309Y-25231262D01*
X6421786Y-25212214D01*
X6412262Y-25202690D01*
X6393214Y-25193167D01*
X6355119Y-25193167D01*
X6336071Y-25202690D01*
X6326548Y-25212214D01*
X6317024Y-25231262D01*
X6602738Y-25116976D02*
X6564643Y-25116976D01*
X6545595Y-25126500D01*
X6536071Y-25136024D01*
X6517024Y-25164595D01*
X6507500Y-25202690D01*
X6507500Y-25278881D01*
X6517024Y-25297928D01*
X6526548Y-25307452D01*
X6545595Y-25316976D01*
X6583690Y-25316976D01*
X6602738Y-25307452D01*
X6612262Y-25297928D01*
X6621786Y-25278881D01*
X6621786Y-25231262D01*
X6612262Y-25212214D01*
X6602738Y-25202690D01*
X6583690Y-25193167D01*
X6545595Y-25193167D01*
X6526548Y-25202690D01*
X6517024Y-25212214D01*
X6507500Y-25231262D01*
X6697976Y-25116976D02*
X6697976Y-25155071D01*
X6774167Y-25116976D02*
X6774167Y-25155071D01*
X7069405Y-25393167D02*
X7059881Y-25383643D01*
X7040833Y-25355071D01*
X7031309Y-25336024D01*
X7021786Y-25307452D01*
X7012262Y-25259833D01*
X7012262Y-25221738D01*
X7021786Y-25174119D01*
X7031309Y-25145548D01*
X7040833Y-25126500D01*
X7059881Y-25097928D01*
X7069405Y-25088405D01*
X7136071Y-25136024D02*
X7145595Y-25126500D01*
X7164643Y-25116976D01*
X7212262Y-25116976D01*
X7231309Y-25126500D01*
X7240833Y-25136024D01*
X7250357Y-25155071D01*
X7250357Y-25174119D01*
X7240833Y-25202690D01*
X7126548Y-25316976D01*
X7250357Y-25316976D01*
X7488452Y-25316976D02*
X7488452Y-25116976D01*
X7574167Y-25316976D02*
X7574167Y-25212214D01*
X7564643Y-25193167D01*
X7545595Y-25183643D01*
X7517024Y-25183643D01*
X7497976Y-25193167D01*
X7488452Y-25202690D01*
X7697976Y-25316976D02*
X7678928Y-25307452D01*
X7669405Y-25297928D01*
X7659881Y-25278881D01*
X7659881Y-25221738D01*
X7669405Y-25202690D01*
X7678928Y-25193167D01*
X7697976Y-25183643D01*
X7726548Y-25183643D01*
X7745595Y-25193167D01*
X7755119Y-25202690D01*
X7764643Y-25221738D01*
X7764643Y-25278881D01*
X7755119Y-25297928D01*
X7745595Y-25307452D01*
X7726548Y-25316976D01*
X7697976Y-25316976D01*
X7878928Y-25316976D02*
X7859881Y-25307452D01*
X7850357Y-25288405D01*
X7850357Y-25116976D01*
X8031309Y-25307452D02*
X8012262Y-25316976D01*
X7974167Y-25316976D01*
X7955119Y-25307452D01*
X7945595Y-25288405D01*
X7945595Y-25212214D01*
X7955119Y-25193167D01*
X7974167Y-25183643D01*
X8012262Y-25183643D01*
X8031309Y-25193167D01*
X8040833Y-25212214D01*
X8040833Y-25231262D01*
X7945595Y-25250309D01*
X8117024Y-25307452D02*
X8136071Y-25316976D01*
X8174167Y-25316976D01*
X8193214Y-25307452D01*
X8202738Y-25288405D01*
X8202738Y-25278881D01*
X8193214Y-25259833D01*
X8174167Y-25250309D01*
X8145595Y-25250309D01*
X8126548Y-25240786D01*
X8117024Y-25221738D01*
X8117024Y-25212214D01*
X8126548Y-25193167D01*
X8145595Y-25183643D01*
X8174167Y-25183643D01*
X8193214Y-25193167D01*
X8269405Y-25393167D02*
X8278928Y-25383643D01*
X8297976Y-25355071D01*
X8307500Y-25336024D01*
X8317024Y-25307452D01*
X8326548Y-25259833D01*
X8326548Y-25221738D01*
X8317024Y-25174119D01*
X8307500Y-25145548D01*
X8297976Y-25126500D01*
X8278928Y-25097928D01*
X8269405Y-25088405D01*
X3297500Y-25446500D02*
X3497500Y-25646500D01*
X3497500Y-25446500D02*
X3297500Y-25646500D01*
X3468211Y-25617211D02*
X3468211Y-25475789D01*
X3326789Y-25475789D01*
X3326789Y-25617211D01*
X3468211Y-25617211D01*
X3736071Y-25436976D02*
X3859881Y-25436976D01*
X3793214Y-25513167D01*
X3821786Y-25513167D01*
X3840833Y-25522690D01*
X3850357Y-25532214D01*
X3859881Y-25551262D01*
X3859881Y-25598881D01*
X3850357Y-25617928D01*
X3840833Y-25627452D01*
X3821786Y-25636976D01*
X3764643Y-25636976D01*
X3745595Y-25627452D01*
X3736071Y-25617928D01*
X3945595Y-25617928D02*
X3955119Y-25627452D01*
X3945595Y-25636976D01*
X3936071Y-25627452D01*
X3945595Y-25617928D01*
X3945595Y-25636976D01*
X4031309Y-25456024D02*
X4040833Y-25446500D01*
X4059881Y-25436976D01*
X4107500Y-25436976D01*
X4126548Y-25446500D01*
X4136071Y-25456024D01*
X4145595Y-25475071D01*
X4145595Y-25494119D01*
X4136071Y-25522690D01*
X4021786Y-25636976D01*
X4145595Y-25636976D01*
X4269405Y-25436976D02*
X4288452Y-25436976D01*
X4307500Y-25446500D01*
X4317024Y-25456024D01*
X4326548Y-25475071D01*
X4336071Y-25513167D01*
X4336071Y-25560786D01*
X4326548Y-25598881D01*
X4317024Y-25617928D01*
X4307500Y-25627452D01*
X4288452Y-25636976D01*
X4269405Y-25636976D01*
X4250357Y-25627452D01*
X4240833Y-25617928D01*
X4231310Y-25598881D01*
X4221786Y-25560786D01*
X4221786Y-25513167D01*
X4231310Y-25475071D01*
X4240833Y-25456024D01*
X4250357Y-25446500D01*
X4269405Y-25436976D01*
X4459881Y-25436976D02*
X4478929Y-25436976D01*
X4497976Y-25446500D01*
X4507500Y-25456024D01*
X4517024Y-25475071D01*
X4526548Y-25513167D01*
X4526548Y-25560786D01*
X4517024Y-25598881D01*
X4507500Y-25617928D01*
X4497976Y-25627452D01*
X4478929Y-25636976D01*
X4459881Y-25636976D01*
X4440833Y-25627452D01*
X4431310Y-25617928D01*
X4421786Y-25598881D01*
X4412262Y-25560786D01*
X4412262Y-25513167D01*
X4421786Y-25475071D01*
X4431310Y-25456024D01*
X4440833Y-25446500D01*
X4459881Y-25436976D01*
X4612262Y-25636976D02*
X4612262Y-25503643D01*
X4612262Y-25522690D02*
X4621786Y-25513167D01*
X4640833Y-25503643D01*
X4669405Y-25503643D01*
X4688452Y-25513167D01*
X4697976Y-25532214D01*
X4697976Y-25636976D01*
X4697976Y-25532214D02*
X4707500Y-25513167D01*
X4726548Y-25503643D01*
X4755119Y-25503643D01*
X4774167Y-25513167D01*
X4783690Y-25532214D01*
X4783690Y-25636976D01*
X4878929Y-25636976D02*
X4878929Y-25503643D01*
X4878929Y-25522690D02*
X4888452Y-25513167D01*
X4907500Y-25503643D01*
X4936071Y-25503643D01*
X4955119Y-25513167D01*
X4964643Y-25532214D01*
X4964643Y-25636976D01*
X4964643Y-25532214D02*
X4974167Y-25513167D01*
X4993214Y-25503643D01*
X5021786Y-25503643D01*
X5040833Y-25513167D01*
X5050357Y-25532214D01*
X5050357Y-25636976D01*
X5440833Y-25427452D02*
X5269405Y-25684595D01*
X5697976Y-25436976D02*
X5717024Y-25436976D01*
X5736071Y-25446500D01*
X5745595Y-25456024D01*
X5755119Y-25475071D01*
X5764643Y-25513167D01*
X5764643Y-25560786D01*
X5755119Y-25598881D01*
X5745595Y-25617928D01*
X5736071Y-25627452D01*
X5717024Y-25636976D01*
X5697976Y-25636976D01*
X5678928Y-25627452D01*
X5669405Y-25617928D01*
X5659881Y-25598881D01*
X5650357Y-25560786D01*
X5650357Y-25513167D01*
X5659881Y-25475071D01*
X5669405Y-25456024D01*
X5678928Y-25446500D01*
X5697976Y-25436976D01*
X5850357Y-25617928D02*
X5859881Y-25627452D01*
X5850357Y-25636976D01*
X5840833Y-25627452D01*
X5850357Y-25617928D01*
X5850357Y-25636976D01*
X6050357Y-25636976D02*
X5936071Y-25636976D01*
X5993214Y-25636976D02*
X5993214Y-25436976D01*
X5974167Y-25465548D01*
X5955119Y-25484595D01*
X5936071Y-25494119D01*
X6126548Y-25456024D02*
X6136071Y-25446500D01*
X6155119Y-25436976D01*
X6202738Y-25436976D01*
X6221786Y-25446500D01*
X6231309Y-25456024D01*
X6240833Y-25475071D01*
X6240833Y-25494119D01*
X6231309Y-25522690D01*
X6117024Y-25636976D01*
X6240833Y-25636976D01*
X6412262Y-25436976D02*
X6374167Y-25436976D01*
X6355119Y-25446500D01*
X6345595Y-25456024D01*
X6326548Y-25484595D01*
X6317024Y-25522690D01*
X6317024Y-25598881D01*
X6326548Y-25617928D01*
X6336071Y-25627452D01*
X6355119Y-25636976D01*
X6393214Y-25636976D01*
X6412262Y-25627452D01*
X6421786Y-25617928D01*
X6431309Y-25598881D01*
X6431309Y-25551262D01*
X6421786Y-25532214D01*
X6412262Y-25522690D01*
X6393214Y-25513167D01*
X6355119Y-25513167D01*
X6336071Y-25522690D01*
X6326548Y-25532214D01*
X6317024Y-25551262D01*
X6555119Y-25436976D02*
X6574167Y-25436976D01*
X6593214Y-25446500D01*
X6602738Y-25456024D01*
X6612262Y-25475071D01*
X6621786Y-25513167D01*
X6621786Y-25560786D01*
X6612262Y-25598881D01*
X6602738Y-25617928D01*
X6593214Y-25627452D01*
X6574167Y-25636976D01*
X6555119Y-25636976D01*
X6536071Y-25627452D01*
X6526548Y-25617928D01*
X6517024Y-25598881D01*
X6507500Y-25560786D01*
X6507500Y-25513167D01*
X6517024Y-25475071D01*
X6526548Y-25456024D01*
X6536071Y-25446500D01*
X6555119Y-25436976D01*
X6697976Y-25436976D02*
X6697976Y-25475071D01*
X6774167Y-25436976D02*
X6774167Y-25475071D01*
X7069405Y-25713167D02*
X7059881Y-25703643D01*
X7040833Y-25675071D01*
X7031309Y-25656024D01*
X7021786Y-25627452D01*
X7012262Y-25579833D01*
X7012262Y-25541738D01*
X7021786Y-25494119D01*
X7031309Y-25465548D01*
X7040833Y-25446500D01*
X7059881Y-25417928D01*
X7069405Y-25408405D01*
X7231309Y-25503643D02*
X7231309Y-25636976D01*
X7183690Y-25427452D02*
X7136071Y-25570309D01*
X7259881Y-25570309D01*
X7488452Y-25636976D02*
X7488452Y-25436976D01*
X7574167Y-25636976D02*
X7574167Y-25532214D01*
X7564643Y-25513167D01*
X7545595Y-25503643D01*
X7517024Y-25503643D01*
X7497976Y-25513167D01*
X7488452Y-25522690D01*
X7697976Y-25636976D02*
X7678928Y-25627452D01*
X7669405Y-25617928D01*
X7659881Y-25598881D01*
X7659881Y-25541738D01*
X7669405Y-25522690D01*
X7678928Y-25513167D01*
X7697976Y-25503643D01*
X7726548Y-25503643D01*
X7745595Y-25513167D01*
X7755119Y-25522690D01*
X7764643Y-25541738D01*
X7764643Y-25598881D01*
X7755119Y-25617928D01*
X7745595Y-25627452D01*
X7726548Y-25636976D01*
X7697976Y-25636976D01*
X7878928Y-25636976D02*
X7859881Y-25627452D01*
X7850357Y-25608405D01*
X7850357Y-25436976D01*
X8031309Y-25627452D02*
X8012262Y-25636976D01*
X7974167Y-25636976D01*
X7955119Y-25627452D01*
X7945595Y-25608405D01*
X7945595Y-25532214D01*
X7955119Y-25513167D01*
X7974167Y-25503643D01*
X8012262Y-25503643D01*
X8031309Y-25513167D01*
X8040833Y-25532214D01*
X8040833Y-25551262D01*
X7945595Y-25570309D01*
X8117024Y-25627452D02*
X8136071Y-25636976D01*
X8174167Y-25636976D01*
X8193214Y-25627452D01*
X8202738Y-25608405D01*
X8202738Y-25598881D01*
X8193214Y-25579833D01*
X8174167Y-25570309D01*
X8145595Y-25570309D01*
X8126548Y-25560786D01*
X8117024Y-25541738D01*
X8117024Y-25532214D01*
X8126548Y-25513167D01*
X8145595Y-25503643D01*
X8174167Y-25503643D01*
X8193214Y-25513167D01*
X8269405Y-25713167D02*
X8278928Y-25703643D01*
X8297976Y-25675071D01*
X8307500Y-25656024D01*
X8317024Y-25627452D01*
X8326548Y-25579833D01*
X8326548Y-25541738D01*
X8317024Y-25494119D01*
X8307500Y-25465548D01*
X8297976Y-25446500D01*
X8278928Y-25417928D01*
X8269405Y-25408405D01*
M02*
