%TF.GenerationSoftware,KiCad,Pcbnew,(6.0.11)*%
%TF.CreationDate,2023-05-28T18:52:28-04:00*%
%TF.ProjectId,processor.Z80,70726f63-6573-4736-9f72-2e5a38302e6b,rev?*%
%TF.SameCoordinates,Original*%
%TF.FileFunction,Soldermask,Top*%
%TF.FilePolarity,Negative*%
%FSLAX46Y46*%
G04 Gerber Fmt 4.6, Leading zero omitted, Abs format (unit mm)*
G04 Created by KiCad (PCBNEW (6.0.11)) date 2023-05-28 18:52:28*
%MOMM*%
%LPD*%
G01*
G04 APERTURE LIST*
G04 Aperture macros list*
%AMRoundRect*
0 Rectangle with rounded corners*
0 $1 Rounding radius*
0 $2 $3 $4 $5 $6 $7 $8 $9 X,Y pos of 4 corners*
0 Add a 4 corners polygon primitive as box body*
4,1,4,$2,$3,$4,$5,$6,$7,$8,$9,$2,$3,0*
0 Add four circle primitives for the rounded corners*
1,1,$1+$1,$2,$3*
1,1,$1+$1,$4,$5*
1,1,$1+$1,$6,$7*
1,1,$1+$1,$8,$9*
0 Add four rect primitives between the rounded corners*
20,1,$1+$1,$2,$3,$4,$5,0*
20,1,$1+$1,$4,$5,$6,$7,0*
20,1,$1+$1,$6,$7,$8,$9,0*
20,1,$1+$1,$8,$9,$2,$3,0*%
G04 Aperture macros list end*
%ADD10RoundRect,0.250000X-0.600000X0.600000X-0.600000X-0.600000X0.600000X-0.600000X0.600000X0.600000X0*%
%ADD11C,1.700000*%
%ADD12C,1.600000*%
%ADD13R,1.600000X1.600000*%
%ADD14R,1.800000X1.800000*%
%ADD15C,1.800000*%
%ADD16O,1.600000X1.600000*%
%ADD17C,6.400000*%
%ADD18R,1.700000X1.700000*%
%ADD19O,1.700000X1.700000*%
%ADD20R,1.422400X1.422400*%
%ADD21C,1.422400*%
%ADD22RoundRect,0.250000X0.600000X-0.600000X0.600000X0.600000X-0.600000X0.600000X-0.600000X-0.600000X0*%
%ADD23C,2.100000*%
%ADD24C,1.750000*%
%ADD25C,3.800000*%
G04 APERTURE END LIST*
D10*
%TO.C,P1*%
X108000000Y-223000000D03*
D11*
X108000000Y-225540000D03*
X105460000Y-223000000D03*
X105460000Y-225540000D03*
X102920000Y-223000000D03*
X102920000Y-225540000D03*
X100380000Y-223000000D03*
X100380000Y-225540000D03*
X97840000Y-223000000D03*
X97840000Y-225540000D03*
X95300000Y-223000000D03*
X95300000Y-225540000D03*
X92760000Y-223000000D03*
X92760000Y-225540000D03*
X90220000Y-223000000D03*
X90220000Y-225540000D03*
X87680000Y-223000000D03*
X87680000Y-225540000D03*
X85140000Y-223000000D03*
X85140000Y-225540000D03*
X82600000Y-223000000D03*
X82600000Y-225540000D03*
X80060000Y-223000000D03*
X80060000Y-225540000D03*
X77520000Y-223000000D03*
X77520000Y-225540000D03*
X74980000Y-223000000D03*
X74980000Y-225540000D03*
X72440000Y-223000000D03*
X72440000Y-225540000D03*
X69900000Y-223000000D03*
X69900000Y-225540000D03*
X67360000Y-223000000D03*
X67360000Y-225540000D03*
X64820000Y-223000000D03*
X64820000Y-225540000D03*
X62280000Y-223000000D03*
X62280000Y-225540000D03*
X59740000Y-223000000D03*
X59740000Y-225540000D03*
X57200000Y-223000000D03*
X57200000Y-225540000D03*
X54660000Y-223000000D03*
X54660000Y-225540000D03*
X52120000Y-223000000D03*
X52120000Y-225540000D03*
X49580000Y-223000000D03*
X49580000Y-225540000D03*
X47040000Y-223000000D03*
X47040000Y-225540000D03*
%TD*%
D12*
%TO.C,C2*%
X124000000Y-208000000D03*
X124000000Y-213000000D03*
%TD*%
%TO.C,C3*%
X239125000Y-149800000D03*
X239125000Y-154800000D03*
%TD*%
%TO.C,C4*%
X157750000Y-159550000D03*
X157750000Y-164550000D03*
%TD*%
%TO.C,C5*%
X77075000Y-190300000D03*
X77075000Y-195300000D03*
%TD*%
%TO.C,C6*%
X43000000Y-158200000D03*
X43000000Y-163200000D03*
%TD*%
%TO.C,C8*%
X166000000Y-208000000D03*
X166000000Y-213000000D03*
%TD*%
%TO.C,C9*%
X200075000Y-195250000D03*
X200075000Y-200250000D03*
%TD*%
%TO.C,C10*%
X43000000Y-173200000D03*
X43000000Y-178200000D03*
%TD*%
%TO.C,C11*%
X43375000Y-122750000D03*
X43375000Y-127750000D03*
%TD*%
%TO.C,C14*%
X239250000Y-123000000D03*
X239250000Y-128000000D03*
%TD*%
%TO.C,C15*%
X137250000Y-134400000D03*
X137250000Y-139400000D03*
%TD*%
D13*
%TO.C,C25*%
X42929600Y-218750000D03*
D12*
X45429600Y-218750000D03*
%TD*%
D13*
%TO.C,C26*%
X68019900Y-164900000D03*
D12*
X70519900Y-164900000D03*
%TD*%
%TO.C,C17*%
X87750000Y-135390000D03*
X87750000Y-140390000D03*
%TD*%
%TO.C,C20*%
X124000000Y-195300000D03*
X124000000Y-200300000D03*
%TD*%
%TO.C,C21*%
X77075000Y-175300000D03*
X77075000Y-180300000D03*
%TD*%
%TO.C,C22*%
X165825000Y-195300000D03*
X165825000Y-200300000D03*
%TD*%
%TO.C,C23*%
X117500000Y-159550000D03*
X117500000Y-164550000D03*
%TD*%
D13*
%TO.C,C27*%
X117000000Y-218750000D03*
D12*
X119500000Y-218750000D03*
%TD*%
D13*
%TO.C,C28*%
X192884700Y-218750000D03*
D12*
X195384700Y-218750000D03*
%TD*%
D13*
%TO.C,C29*%
X188044900Y-111000000D03*
D12*
X190544900Y-111000000D03*
%TD*%
D14*
%TO.C,D4*%
X81000000Y-81000000D03*
D15*
X78460000Y-81000000D03*
%TD*%
D14*
%TO.C,D5*%
X61000000Y-81000000D03*
D15*
X58460000Y-81000000D03*
%TD*%
D14*
%TO.C,D6*%
X71000000Y-81000000D03*
D15*
X68460000Y-81000000D03*
%TD*%
D14*
%TO.C,D1*%
X91000000Y-81000000D03*
D15*
X88460000Y-81000000D03*
%TD*%
D14*
%TO.C,D2*%
X101000000Y-81000000D03*
D15*
X98460000Y-81000000D03*
%TD*%
D12*
%TO.C,R5*%
X76000000Y-89000000D03*
D16*
X83620000Y-89000000D03*
%TD*%
D12*
%TO.C,R6*%
X56000000Y-89000000D03*
D16*
X63620000Y-89000000D03*
%TD*%
D13*
%TO.C,RN2*%
X42075000Y-199000000D03*
D16*
X44615000Y-199000000D03*
X47155000Y-199000000D03*
X49695000Y-199000000D03*
X52235000Y-199000000D03*
X54775000Y-199000000D03*
X57315000Y-199000000D03*
X59855000Y-199000000D03*
X62395000Y-199000000D03*
%TD*%
D13*
%TO.C,U4*%
X48000000Y-163200000D03*
D16*
X50540000Y-163200000D03*
X53080000Y-163200000D03*
X55620000Y-163200000D03*
X58160000Y-163200000D03*
X60700000Y-163200000D03*
X63240000Y-163200000D03*
X63240000Y-155580000D03*
X60700000Y-155580000D03*
X58160000Y-155580000D03*
X55620000Y-155580000D03*
X53080000Y-155580000D03*
X50540000Y-155580000D03*
X48000000Y-155580000D03*
%TD*%
D13*
%TO.C,U5*%
X129000000Y-213000000D03*
D16*
X131540000Y-213000000D03*
X134080000Y-213000000D03*
X136620000Y-213000000D03*
X139160000Y-213000000D03*
X141700000Y-213000000D03*
X144240000Y-213000000D03*
X146780000Y-213000000D03*
X149320000Y-213000000D03*
X151860000Y-213000000D03*
X151860000Y-205380000D03*
X149320000Y-205380000D03*
X146780000Y-205380000D03*
X144240000Y-205380000D03*
X141700000Y-205380000D03*
X139160000Y-205380000D03*
X136620000Y-205380000D03*
X134080000Y-205380000D03*
X131540000Y-205380000D03*
X129000000Y-205380000D03*
%TD*%
D13*
%TO.C,U6*%
X81575000Y-180300000D03*
D16*
X84115000Y-180300000D03*
X86655000Y-180300000D03*
X89195000Y-180300000D03*
X91735000Y-180300000D03*
X94275000Y-180300000D03*
X96815000Y-180300000D03*
X99355000Y-180300000D03*
X101895000Y-180300000D03*
X104435000Y-180300000D03*
X104435000Y-172680000D03*
X101895000Y-172680000D03*
X99355000Y-172680000D03*
X96815000Y-172680000D03*
X94275000Y-172680000D03*
X91735000Y-172680000D03*
X89195000Y-172680000D03*
X86655000Y-172680000D03*
X84115000Y-172680000D03*
X81575000Y-172680000D03*
%TD*%
D13*
%TO.C,U8*%
X129000000Y-200300000D03*
D16*
X131540000Y-200300000D03*
X134080000Y-200300000D03*
X136620000Y-200300000D03*
X139160000Y-200300000D03*
X141700000Y-200300000D03*
X144240000Y-200300000D03*
X146780000Y-200300000D03*
X149320000Y-200300000D03*
X151860000Y-200300000D03*
X151860000Y-192680000D03*
X149320000Y-192680000D03*
X146780000Y-192680000D03*
X144240000Y-192680000D03*
X141700000Y-192680000D03*
X139160000Y-192680000D03*
X136620000Y-192680000D03*
X134080000Y-192680000D03*
X131540000Y-192680000D03*
X129000000Y-192680000D03*
%TD*%
D13*
%TO.C,U15*%
X48000000Y-193200000D03*
D16*
X50540000Y-193200000D03*
X53080000Y-193200000D03*
X55620000Y-193200000D03*
X58160000Y-193200000D03*
X60700000Y-193200000D03*
X63240000Y-193200000D03*
X65780000Y-193200000D03*
X65780000Y-185580000D03*
X63240000Y-185580000D03*
X60700000Y-185580000D03*
X58160000Y-185580000D03*
X55620000Y-185580000D03*
X53080000Y-185580000D03*
X50540000Y-185580000D03*
X48000000Y-185580000D03*
%TD*%
D13*
%TO.C,U1*%
X81575000Y-195300000D03*
D16*
X84115000Y-195300000D03*
X86655000Y-195300000D03*
X89195000Y-195300000D03*
X91735000Y-195300000D03*
X94275000Y-195300000D03*
X96815000Y-195300000D03*
X99355000Y-195300000D03*
X101895000Y-195300000D03*
X104435000Y-195300000D03*
X104435000Y-187680000D03*
X101895000Y-187680000D03*
X99355000Y-187680000D03*
X96815000Y-187680000D03*
X94275000Y-187680000D03*
X91735000Y-187680000D03*
X89195000Y-187680000D03*
X86655000Y-187680000D03*
X84115000Y-187680000D03*
X81575000Y-187680000D03*
%TD*%
D10*
%TO.C,P2*%
X182000000Y-223000000D03*
D11*
X182000000Y-225540000D03*
X179460000Y-223000000D03*
X179460000Y-225540000D03*
X176920000Y-223000000D03*
X176920000Y-225540000D03*
X174380000Y-223000000D03*
X174380000Y-225540000D03*
X171840000Y-223000000D03*
X171840000Y-225540000D03*
X169300000Y-223000000D03*
X169300000Y-225540000D03*
X166760000Y-223000000D03*
X166760000Y-225540000D03*
X164220000Y-223000000D03*
X164220000Y-225540000D03*
X161680000Y-223000000D03*
X161680000Y-225540000D03*
X159140000Y-223000000D03*
X159140000Y-225540000D03*
X156600000Y-223000000D03*
X156600000Y-225540000D03*
X154060000Y-223000000D03*
X154060000Y-225540000D03*
X151520000Y-223000000D03*
X151520000Y-225540000D03*
X148980000Y-223000000D03*
X148980000Y-225540000D03*
X146440000Y-223000000D03*
X146440000Y-225540000D03*
X143900000Y-223000000D03*
X143900000Y-225540000D03*
X141360000Y-223000000D03*
X141360000Y-225540000D03*
X138820000Y-223000000D03*
X138820000Y-225540000D03*
X136280000Y-223000000D03*
X136280000Y-225540000D03*
X133740000Y-223000000D03*
X133740000Y-225540000D03*
X131200000Y-223000000D03*
X131200000Y-225540000D03*
X128660000Y-223000000D03*
X128660000Y-225540000D03*
X126120000Y-223000000D03*
X126120000Y-225540000D03*
X123580000Y-223000000D03*
X123580000Y-225540000D03*
X121040000Y-223000000D03*
X121040000Y-225540000D03*
%TD*%
D17*
%TO.C,H2*%
X265000000Y-75000000D03*
%TD*%
D13*
%TO.C,RN1*%
X81800000Y-201000000D03*
D16*
X84340000Y-201000000D03*
X86880000Y-201000000D03*
X89420000Y-201000000D03*
X91960000Y-201000000D03*
X94500000Y-201000000D03*
X97040000Y-201000000D03*
X99580000Y-201000000D03*
X102120000Y-201000000D03*
%TD*%
D13*
%TO.C,U11*%
X87075000Y-213025000D03*
D16*
X89615000Y-213025000D03*
X92155000Y-213025000D03*
X94695000Y-213025000D03*
X97235000Y-213025000D03*
X99775000Y-213025000D03*
X102315000Y-213025000D03*
X104855000Y-213025000D03*
X107395000Y-213025000D03*
X109935000Y-213025000D03*
X109935000Y-205405000D03*
X107395000Y-205405000D03*
X104855000Y-205405000D03*
X102315000Y-205405000D03*
X99775000Y-205405000D03*
X97235000Y-205405000D03*
X94695000Y-205405000D03*
X92155000Y-205405000D03*
X89615000Y-205405000D03*
X87075000Y-205405000D03*
%TD*%
D13*
%TO.C,U16*%
X205075000Y-213050000D03*
D16*
X207615000Y-213050000D03*
X210155000Y-213050000D03*
X212695000Y-213050000D03*
X215235000Y-213050000D03*
X217775000Y-213050000D03*
X220315000Y-213050000D03*
X222855000Y-213050000D03*
X225395000Y-213050000D03*
X227935000Y-213050000D03*
X227935000Y-205430000D03*
X225395000Y-205430000D03*
X222855000Y-205430000D03*
X220315000Y-205430000D03*
X217775000Y-205430000D03*
X215235000Y-205430000D03*
X212695000Y-205430000D03*
X210155000Y-205430000D03*
X207615000Y-205430000D03*
X205075000Y-205430000D03*
%TD*%
D18*
%TO.C,J3*%
X83500000Y-94500000D03*
D19*
X86040000Y-94500000D03*
X83500000Y-97040000D03*
X86040000Y-97040000D03*
X83500000Y-99580000D03*
X86040000Y-99580000D03*
X83500000Y-102120000D03*
X86040000Y-102120000D03*
X83500000Y-104660000D03*
X86040000Y-104660000D03*
X83500000Y-107200000D03*
X86040000Y-107200000D03*
X83500000Y-109740000D03*
X86040000Y-109740000D03*
X83500000Y-112280000D03*
X86040000Y-112280000D03*
%TD*%
D18*
%TO.C,J1*%
X103500000Y-94500000D03*
D19*
X106040000Y-94500000D03*
X103500000Y-97040000D03*
X106040000Y-97040000D03*
X103500000Y-99580000D03*
X106040000Y-99580000D03*
X103500000Y-102120000D03*
X106040000Y-102120000D03*
X103500000Y-104660000D03*
X106040000Y-104660000D03*
X103500000Y-107200000D03*
X106040000Y-107200000D03*
X103500000Y-109740000D03*
X106040000Y-109740000D03*
X103500000Y-112280000D03*
X106040000Y-112280000D03*
%TD*%
D12*
%TO.C,C19*%
X43000000Y-188200000D03*
X43000000Y-193200000D03*
%TD*%
%TO.C,C18*%
X43125000Y-143300000D03*
X43125000Y-148300000D03*
%TD*%
%TO.C,C12*%
X77250000Y-159550000D03*
X77250000Y-164550000D03*
%TD*%
%TO.C,C16*%
X82575000Y-208025000D03*
X82575000Y-213025000D03*
%TD*%
D13*
%TO.C,U3*%
X48000000Y-178200000D03*
D16*
X50540000Y-178200000D03*
X53080000Y-178200000D03*
X55620000Y-178200000D03*
X58160000Y-178200000D03*
X60700000Y-178200000D03*
X63240000Y-178200000D03*
X63240000Y-170580000D03*
X60700000Y-170580000D03*
X58160000Y-170580000D03*
X55620000Y-170580000D03*
X53080000Y-170580000D03*
X50540000Y-170580000D03*
X48000000Y-170580000D03*
%TD*%
D17*
%TO.C,H1*%
X40000000Y-75000000D03*
%TD*%
D14*
%TO.C,D7*%
X51000000Y-81000000D03*
D15*
X48460000Y-81000000D03*
%TD*%
D10*
%TO.C,P3*%
X258000000Y-223000000D03*
D11*
X258000000Y-225540000D03*
X255460000Y-223000000D03*
X255460000Y-225540000D03*
X252920000Y-223000000D03*
X252920000Y-225540000D03*
X250380000Y-223000000D03*
X250380000Y-225540000D03*
X247840000Y-223000000D03*
X247840000Y-225540000D03*
X245300000Y-223000000D03*
X245300000Y-225540000D03*
X242760000Y-223000000D03*
X242760000Y-225540000D03*
X240220000Y-223000000D03*
X240220000Y-225540000D03*
X237680000Y-223000000D03*
X237680000Y-225540000D03*
X235140000Y-223000000D03*
X235140000Y-225540000D03*
X232600000Y-223000000D03*
X232600000Y-225540000D03*
X230060000Y-223000000D03*
X230060000Y-225540000D03*
X227520000Y-223000000D03*
X227520000Y-225540000D03*
X224980000Y-223000000D03*
X224980000Y-225540000D03*
X222440000Y-223000000D03*
X222440000Y-225540000D03*
X219900000Y-223000000D03*
X219900000Y-225540000D03*
X217360000Y-223000000D03*
X217360000Y-225540000D03*
X214820000Y-223000000D03*
X214820000Y-225540000D03*
X212280000Y-223000000D03*
X212280000Y-225540000D03*
X209740000Y-223000000D03*
X209740000Y-225540000D03*
X207200000Y-223000000D03*
X207200000Y-225540000D03*
X204660000Y-223000000D03*
X204660000Y-225540000D03*
X202120000Y-223000000D03*
X202120000Y-225540000D03*
X199580000Y-223000000D03*
X199580000Y-225540000D03*
X197040000Y-223000000D03*
X197040000Y-225540000D03*
%TD*%
D13*
%TO.C,U13*%
X48375000Y-127750000D03*
D16*
X50915000Y-127750000D03*
X53455000Y-127750000D03*
X55995000Y-127750000D03*
X58535000Y-127750000D03*
X61075000Y-127750000D03*
X63615000Y-127750000D03*
X63615000Y-120130000D03*
X61075000Y-120130000D03*
X58535000Y-120130000D03*
X55995000Y-120130000D03*
X53455000Y-120130000D03*
X50915000Y-120130000D03*
X48375000Y-120130000D03*
%TD*%
D12*
%TO.C,C36*%
X188000000Y-97000000D03*
X188000000Y-102000000D03*
%TD*%
%TO.C,C38*%
X124075000Y-182050000D03*
X124075000Y-187050000D03*
%TD*%
D13*
%TO.C,C46*%
X114544900Y-113250000D03*
D12*
X117044900Y-113250000D03*
%TD*%
D14*
%TO.C,D8*%
X121000000Y-81000000D03*
D15*
X118460000Y-81000000D03*
%TD*%
D14*
%TO.C,D10*%
X131000000Y-81000000D03*
D15*
X128460000Y-81000000D03*
%TD*%
D18*
%TO.C,JP4*%
X173250000Y-179800000D03*
D19*
X173250000Y-177260000D03*
X175790000Y-179800000D03*
X175790000Y-177260000D03*
X178330000Y-179800000D03*
X178330000Y-177260000D03*
X180870000Y-179800000D03*
X180870000Y-177260000D03*
X183410000Y-179800000D03*
X183410000Y-177260000D03*
X185950000Y-179800000D03*
X185950000Y-177260000D03*
%TD*%
D12*
%TO.C,R21*%
X126000000Y-89000000D03*
D16*
X133620000Y-89000000D03*
%TD*%
D13*
%TO.C,RN3*%
X170825000Y-187300000D03*
D16*
X173365000Y-187300000D03*
X175905000Y-187300000D03*
X178445000Y-187300000D03*
X180985000Y-187300000D03*
X183525000Y-187300000D03*
X186065000Y-187300000D03*
X188605000Y-187300000D03*
X191145000Y-187300000D03*
%TD*%
D13*
%TO.C,U17*%
X244125000Y-167800000D03*
D16*
X246665000Y-167800000D03*
X249205000Y-167800000D03*
X251745000Y-167800000D03*
X254285000Y-167800000D03*
X256825000Y-167800000D03*
X259365000Y-167800000D03*
X259365000Y-160180000D03*
X256825000Y-160180000D03*
X254285000Y-160180000D03*
X251745000Y-160180000D03*
X249205000Y-160180000D03*
X246665000Y-160180000D03*
X244125000Y-160180000D03*
%TD*%
D20*
%TO.C,U19*%
X153750000Y-127400000D03*
D21*
X151210000Y-124860000D03*
X151210000Y-127400000D03*
X148670000Y-124860000D03*
X148670000Y-127400000D03*
X146130000Y-124860000D03*
X143590000Y-127400000D03*
X146130000Y-127400000D03*
X143590000Y-129940000D03*
X146130000Y-129940000D03*
X143590000Y-132480000D03*
X146130000Y-132480000D03*
X143590000Y-135020000D03*
X146130000Y-135020000D03*
X143590000Y-137560000D03*
X146130000Y-137560000D03*
X143590000Y-140100000D03*
X146130000Y-142640000D03*
X146130000Y-140100000D03*
X148670000Y-142640000D03*
X148670000Y-140100000D03*
X151210000Y-142640000D03*
X151210000Y-140100000D03*
X153750000Y-142640000D03*
X153750000Y-140100000D03*
X156290000Y-142640000D03*
X156290000Y-140100000D03*
X158830000Y-142640000D03*
X161370000Y-140100000D03*
X158830000Y-140100000D03*
X161370000Y-137560000D03*
X158830000Y-137560000D03*
X161370000Y-135020000D03*
X158830000Y-135020000D03*
X161370000Y-132480000D03*
X158830000Y-132480000D03*
X161370000Y-129940000D03*
X158830000Y-129940000D03*
X161370000Y-127400000D03*
X158830000Y-124860000D03*
X158830000Y-127400000D03*
X156290000Y-124860000D03*
X156290000Y-127400000D03*
X153750000Y-124860000D03*
%TD*%
D13*
%TO.C,U21*%
X170825000Y-200300000D03*
D16*
X173365000Y-200300000D03*
X175905000Y-200300000D03*
X178445000Y-200300000D03*
X180985000Y-200300000D03*
X183525000Y-200300000D03*
X186065000Y-200300000D03*
X188605000Y-200300000D03*
X191145000Y-200300000D03*
X193685000Y-200300000D03*
X193685000Y-192680000D03*
X191145000Y-192680000D03*
X188605000Y-192680000D03*
X186065000Y-192680000D03*
X183525000Y-192680000D03*
X180985000Y-192680000D03*
X178445000Y-192680000D03*
X175905000Y-192680000D03*
X173365000Y-192680000D03*
X170825000Y-192680000D03*
%TD*%
D20*
%TO.C,U7*%
X104250000Y-127390000D03*
D21*
X101710000Y-124850000D03*
X101710000Y-127390000D03*
X99170000Y-124850000D03*
X99170000Y-127390000D03*
X96630000Y-124850000D03*
X94090000Y-127390000D03*
X96630000Y-127390000D03*
X94090000Y-129930000D03*
X96630000Y-129930000D03*
X94090000Y-132470000D03*
X96630000Y-132470000D03*
X94090000Y-135010000D03*
X96630000Y-135010000D03*
X94090000Y-137550000D03*
X96630000Y-137550000D03*
X94090000Y-140090000D03*
X96630000Y-142630000D03*
X96630000Y-140090000D03*
X99170000Y-142630000D03*
X99170000Y-140090000D03*
X101710000Y-142630000D03*
X101710000Y-140090000D03*
X104250000Y-142630000D03*
X104250000Y-140090000D03*
X106790000Y-142630000D03*
X106790000Y-140090000D03*
X109330000Y-142630000D03*
X111870000Y-140090000D03*
X109330000Y-140090000D03*
X111870000Y-137550000D03*
X109330000Y-137550000D03*
X111870000Y-135010000D03*
X109330000Y-135010000D03*
X111870000Y-132470000D03*
X109330000Y-132470000D03*
X111870000Y-129930000D03*
X109330000Y-129930000D03*
X111870000Y-127390000D03*
X109330000Y-124850000D03*
X109330000Y-127390000D03*
X106790000Y-124850000D03*
X106790000Y-127390000D03*
X104250000Y-124850000D03*
%TD*%
D18*
%TO.C,J4*%
X73500000Y-94500000D03*
D19*
X76040000Y-94500000D03*
X73500000Y-97040000D03*
X76040000Y-97040000D03*
X73500000Y-99580000D03*
X76040000Y-99580000D03*
X73500000Y-102120000D03*
X76040000Y-102120000D03*
X73500000Y-104660000D03*
X76040000Y-104660000D03*
X73500000Y-107200000D03*
X76040000Y-107200000D03*
X73500000Y-109740000D03*
X76040000Y-109740000D03*
X73500000Y-112280000D03*
X76040000Y-112280000D03*
%TD*%
D18*
%TO.C,J2*%
X93500000Y-94500000D03*
D19*
X96040000Y-94500000D03*
X93500000Y-97040000D03*
X96040000Y-97040000D03*
X93500000Y-99580000D03*
X96040000Y-99580000D03*
X93500000Y-102120000D03*
X96040000Y-102120000D03*
X93500000Y-104660000D03*
X96040000Y-104660000D03*
X93500000Y-107200000D03*
X96040000Y-107200000D03*
X93500000Y-109740000D03*
X96040000Y-109740000D03*
X93500000Y-112280000D03*
X96040000Y-112280000D03*
%TD*%
D13*
%TO.C,C1*%
X231794900Y-126000000D03*
D12*
X234294900Y-126000000D03*
%TD*%
D13*
%TO.C,J5*%
X246500000Y-104500000D03*
D16*
X249040000Y-104500000D03*
X251580000Y-104500000D03*
X254120000Y-104500000D03*
X256660000Y-104500000D03*
X259200000Y-104500000D03*
X261740000Y-104500000D03*
X261740000Y-96880000D03*
X259200000Y-96880000D03*
X256660000Y-96880000D03*
X254120000Y-96880000D03*
X251580000Y-96880000D03*
X249040000Y-96880000D03*
X246500000Y-96880000D03*
%TD*%
D13*
%TO.C,J6*%
X246500000Y-93500000D03*
D16*
X249040000Y-93500000D03*
X251580000Y-93500000D03*
X254120000Y-93500000D03*
X256660000Y-93500000D03*
X259200000Y-93500000D03*
X261740000Y-93500000D03*
X261740000Y-85880000D03*
X259200000Y-85880000D03*
X256660000Y-85880000D03*
X254120000Y-85880000D03*
X251580000Y-85880000D03*
X249040000Y-85880000D03*
X246500000Y-85880000D03*
%TD*%
D13*
%TO.C,J7*%
X222500000Y-104500000D03*
D16*
X225040000Y-104500000D03*
X227580000Y-104500000D03*
X230120000Y-104500000D03*
X232660000Y-104500000D03*
X235200000Y-104500000D03*
X237740000Y-104500000D03*
X240280000Y-104500000D03*
X240280000Y-96880000D03*
X237740000Y-96880000D03*
X235200000Y-96880000D03*
X232660000Y-96880000D03*
X230120000Y-96880000D03*
X227580000Y-96880000D03*
X225040000Y-96880000D03*
X222500000Y-96880000D03*
%TD*%
D13*
%TO.C,J8*%
X222500000Y-93500000D03*
D16*
X225040000Y-93500000D03*
X227580000Y-93500000D03*
X230120000Y-93500000D03*
X232660000Y-93500000D03*
X235200000Y-93500000D03*
X237740000Y-93500000D03*
X240280000Y-93500000D03*
X240280000Y-85880000D03*
X237740000Y-85880000D03*
X235200000Y-85880000D03*
X232660000Y-85880000D03*
X230120000Y-85880000D03*
X227580000Y-85880000D03*
X225040000Y-85880000D03*
X222500000Y-85880000D03*
%TD*%
D14*
%TO.C,D9*%
X141000000Y-81000000D03*
D15*
X138460000Y-81000000D03*
%TD*%
D14*
%TO.C,D11*%
X111000000Y-81000000D03*
D15*
X108460000Y-81000000D03*
%TD*%
D14*
%TO.C,D12*%
X151000000Y-81000000D03*
D15*
X148460000Y-81000000D03*
%TD*%
D13*
%TO.C,U24*%
X244125000Y-154800000D03*
D16*
X246665000Y-154800000D03*
X249205000Y-154800000D03*
X251745000Y-154800000D03*
X254285000Y-154800000D03*
X256825000Y-154800000D03*
X259365000Y-154800000D03*
X259365000Y-147180000D03*
X256825000Y-147180000D03*
X254285000Y-147180000D03*
X251745000Y-147180000D03*
X249205000Y-147180000D03*
X246665000Y-147180000D03*
X244125000Y-147180000D03*
%TD*%
D18*
%TO.C,JP7*%
X69700000Y-213025000D03*
D19*
X69700000Y-210485000D03*
X72240000Y-213025000D03*
X72240000Y-210485000D03*
X74780000Y-213025000D03*
X74780000Y-210485000D03*
X77320000Y-213025000D03*
X77320000Y-210485000D03*
%TD*%
D13*
%TO.C,RN4*%
X42075000Y-204250000D03*
D16*
X44615000Y-204250000D03*
X47155000Y-204250000D03*
X49695000Y-204250000D03*
X52235000Y-204250000D03*
X54775000Y-204250000D03*
X57315000Y-204250000D03*
X59855000Y-204250000D03*
X62395000Y-204250000D03*
%TD*%
D22*
%TO.C,J11*%
X162370000Y-83947500D03*
D11*
X162370000Y-81407500D03*
X164910000Y-83947500D03*
X164910000Y-81407500D03*
X167450000Y-83947500D03*
X167450000Y-81407500D03*
X169990000Y-83947500D03*
X169990000Y-81407500D03*
X172530000Y-83947500D03*
X172530000Y-81407500D03*
X175070000Y-83947500D03*
X175070000Y-81407500D03*
X177610000Y-83947500D03*
X177610000Y-81407500D03*
X180150000Y-83947500D03*
X180150000Y-81407500D03*
X182690000Y-83947500D03*
X182690000Y-81407500D03*
X185230000Y-83947500D03*
X185230000Y-81407500D03*
X187770000Y-83947500D03*
X187770000Y-81407500D03*
X190310000Y-83947500D03*
X190310000Y-81407500D03*
X192850000Y-83947500D03*
X192850000Y-81407500D03*
X195390000Y-83947500D03*
X195390000Y-81407500D03*
X197930000Y-83947500D03*
X197930000Y-81407500D03*
X200470000Y-83947500D03*
X200470000Y-81407500D03*
X203010000Y-83947500D03*
X203010000Y-81407500D03*
X205550000Y-83947500D03*
X205550000Y-81407500D03*
X208090000Y-83947500D03*
X208090000Y-81407500D03*
X210630000Y-83947500D03*
X210630000Y-81407500D03*
%TD*%
D12*
%TO.C,R10*%
X137250000Y-130900000D03*
D16*
X137250000Y-123280000D03*
%TD*%
D13*
%TO.C,RN5*%
X193000000Y-106500000D03*
D16*
X195540000Y-106500000D03*
X198080000Y-106500000D03*
X200620000Y-106500000D03*
X203160000Y-106500000D03*
X205700000Y-106500000D03*
X208240000Y-106500000D03*
X210780000Y-106500000D03*
X213320000Y-106500000D03*
%TD*%
D13*
%TO.C,U31*%
X193000000Y-102000000D03*
D16*
X195540000Y-102000000D03*
X198080000Y-102000000D03*
X200620000Y-102000000D03*
X203160000Y-102000000D03*
X205700000Y-102000000D03*
X208240000Y-102000000D03*
X210780000Y-102000000D03*
X213320000Y-102000000D03*
X215860000Y-102000000D03*
X215860000Y-94380000D03*
X213320000Y-94380000D03*
X210780000Y-94380000D03*
X208240000Y-94380000D03*
X205700000Y-94380000D03*
X203160000Y-94380000D03*
X200620000Y-94380000D03*
X198080000Y-94380000D03*
X195540000Y-94380000D03*
X193000000Y-94380000D03*
%TD*%
D18*
%TO.C,JP8*%
X167000000Y-182300000D03*
D19*
X167000000Y-179760000D03*
X167000000Y-177220000D03*
X167000000Y-174680000D03*
%TD*%
D13*
%TO.C,RN6*%
X129500000Y-173500000D03*
D16*
X132040000Y-173500000D03*
X134580000Y-173500000D03*
X137120000Y-173500000D03*
X139660000Y-173500000D03*
X142200000Y-173500000D03*
X144740000Y-173500000D03*
X147280000Y-173500000D03*
X149820000Y-173500000D03*
%TD*%
D13*
%TO.C,U34*%
X162725000Y-164500000D03*
D16*
X165265000Y-164500000D03*
X167805000Y-164500000D03*
X170345000Y-164500000D03*
X172885000Y-164500000D03*
X175425000Y-164500000D03*
X177965000Y-164500000D03*
X180505000Y-164500000D03*
X183045000Y-164500000D03*
X185585000Y-164500000D03*
X188125000Y-164500000D03*
X190665000Y-164500000D03*
X190665000Y-156880000D03*
X188125000Y-156880000D03*
X185585000Y-156880000D03*
X183045000Y-156880000D03*
X180505000Y-156880000D03*
X177965000Y-156880000D03*
X175425000Y-156880000D03*
X172885000Y-156880000D03*
X170345000Y-156880000D03*
X167805000Y-156880000D03*
X165265000Y-156880000D03*
X162725000Y-156880000D03*
%TD*%
D13*
%TO.C,U35*%
X129075000Y-187050000D03*
D16*
X131615000Y-187050000D03*
X134155000Y-187050000D03*
X136695000Y-187050000D03*
X139235000Y-187050000D03*
X141775000Y-187050000D03*
X144315000Y-187050000D03*
X146855000Y-187050000D03*
X149395000Y-187050000D03*
X151935000Y-187050000D03*
X151935000Y-179430000D03*
X149395000Y-179430000D03*
X146855000Y-179430000D03*
X144315000Y-179430000D03*
X141775000Y-179430000D03*
X139235000Y-179430000D03*
X136695000Y-179430000D03*
X134155000Y-179430000D03*
X131615000Y-179430000D03*
X129075000Y-179430000D03*
%TD*%
D13*
%TO.C,U36*%
X122500000Y-164550000D03*
D16*
X125040000Y-164550000D03*
X127580000Y-164550000D03*
X130120000Y-164550000D03*
X132660000Y-164550000D03*
X135200000Y-164550000D03*
X137740000Y-164550000D03*
X140280000Y-164550000D03*
X142820000Y-164550000D03*
X145360000Y-164550000D03*
X147900000Y-164550000D03*
X150440000Y-164550000D03*
X150440000Y-156930000D03*
X147900000Y-156930000D03*
X145360000Y-156930000D03*
X142820000Y-156930000D03*
X140280000Y-156930000D03*
X137740000Y-156930000D03*
X135200000Y-156930000D03*
X132660000Y-156930000D03*
X130120000Y-156930000D03*
X127580000Y-156930000D03*
X125040000Y-156930000D03*
X122500000Y-156930000D03*
%TD*%
D13*
%TO.C,U33*%
X159000000Y-102000000D03*
D16*
X161540000Y-102000000D03*
X164080000Y-102000000D03*
X166620000Y-102000000D03*
X169160000Y-102000000D03*
X171700000Y-102000000D03*
X174240000Y-102000000D03*
X176780000Y-102000000D03*
X179320000Y-102000000D03*
X181860000Y-102000000D03*
X181860000Y-94380000D03*
X179320000Y-94380000D03*
X176780000Y-94380000D03*
X174240000Y-94380000D03*
X171700000Y-94380000D03*
X169160000Y-94380000D03*
X166620000Y-94380000D03*
X164080000Y-94380000D03*
X161540000Y-94380000D03*
X159000000Y-94380000D03*
%TD*%
D13*
%TO.C,U37*%
X81750000Y-164550000D03*
D16*
X84290000Y-164550000D03*
X86830000Y-164550000D03*
X89370000Y-164550000D03*
X91910000Y-164550000D03*
X94450000Y-164550000D03*
X96990000Y-164550000D03*
X99530000Y-164550000D03*
X102070000Y-164550000D03*
X104610000Y-164550000D03*
X107150000Y-164550000D03*
X109690000Y-164550000D03*
X109690000Y-156930000D03*
X107150000Y-156930000D03*
X104610000Y-156930000D03*
X102070000Y-156930000D03*
X99530000Y-156930000D03*
X96990000Y-156930000D03*
X94450000Y-156930000D03*
X91910000Y-156930000D03*
X89370000Y-156930000D03*
X86830000Y-156930000D03*
X84290000Y-156930000D03*
X81750000Y-156930000D03*
%TD*%
D13*
%TO.C,U20*%
X48125000Y-148300000D03*
D16*
X50665000Y-148300000D03*
X53205000Y-148300000D03*
X55745000Y-148300000D03*
X58285000Y-148300000D03*
X60825000Y-148300000D03*
X63365000Y-148300000D03*
X65905000Y-148300000D03*
X65905000Y-140680000D03*
X63365000Y-140680000D03*
X60825000Y-140680000D03*
X58285000Y-140680000D03*
X55745000Y-140680000D03*
X53205000Y-140680000D03*
X50665000Y-140680000D03*
X48125000Y-140680000D03*
%TD*%
D18*
%TO.C,JP9*%
X226000000Y-181025000D03*
D19*
X226000000Y-178485000D03*
X226000000Y-175945000D03*
%TD*%
D12*
%TO.C,C37*%
X200075000Y-208050000D03*
X200075000Y-213050000D03*
%TD*%
D13*
%TO.C,J9*%
X43000000Y-113000000D03*
D16*
X45540000Y-113000000D03*
X48080000Y-113000000D03*
X50620000Y-113000000D03*
X53160000Y-113000000D03*
X55700000Y-113000000D03*
X58240000Y-113000000D03*
X60780000Y-113000000D03*
X63320000Y-113000000D03*
X65860000Y-113000000D03*
X65860000Y-105380000D03*
X63320000Y-105380000D03*
X60780000Y-105380000D03*
X58240000Y-105380000D03*
X55700000Y-105380000D03*
X53160000Y-105380000D03*
X50620000Y-105380000D03*
X48080000Y-105380000D03*
X45540000Y-105380000D03*
X43000000Y-105380000D03*
%TD*%
D13*
%TO.C,J10*%
X43000000Y-102000000D03*
D16*
X45540000Y-102000000D03*
X48080000Y-102000000D03*
X50620000Y-102000000D03*
X53160000Y-102000000D03*
X55700000Y-102000000D03*
X58240000Y-102000000D03*
X60780000Y-102000000D03*
X63320000Y-102000000D03*
X65860000Y-102000000D03*
X65860000Y-94380000D03*
X63320000Y-94380000D03*
X60780000Y-94380000D03*
X58240000Y-94380000D03*
X55700000Y-94380000D03*
X53160000Y-94380000D03*
X50620000Y-94380000D03*
X48080000Y-94380000D03*
X45540000Y-94380000D03*
X43000000Y-94380000D03*
%TD*%
D18*
%TO.C,JP10*%
X207500000Y-179775000D03*
D19*
X207500000Y-177235000D03*
X210040000Y-179775000D03*
X210040000Y-177235000D03*
X212580000Y-179775000D03*
X212580000Y-177235000D03*
X215120000Y-179775000D03*
X215120000Y-177235000D03*
%TD*%
D13*
%TO.C,RN7*%
X241340000Y-186800000D03*
D16*
X243880000Y-186800000D03*
X246420000Y-186800000D03*
X248960000Y-186800000D03*
X251500000Y-186800000D03*
X254040000Y-186800000D03*
X256580000Y-186800000D03*
X259120000Y-186800000D03*
X261660000Y-186800000D03*
%TD*%
D13*
%TO.C,RN8*%
X205075000Y-187250000D03*
D16*
X207615000Y-187250000D03*
X210155000Y-187250000D03*
X212695000Y-187250000D03*
X215235000Y-187250000D03*
X217775000Y-187250000D03*
X220315000Y-187250000D03*
X222855000Y-187250000D03*
X225395000Y-187250000D03*
%TD*%
D13*
%TO.C,U9*%
X244125000Y-199800000D03*
D16*
X246665000Y-199800000D03*
X249205000Y-199800000D03*
X251745000Y-199800000D03*
X254285000Y-199800000D03*
X256825000Y-199800000D03*
X259365000Y-199800000D03*
X261905000Y-199800000D03*
X261905000Y-192180000D03*
X259365000Y-192180000D03*
X256825000Y-192180000D03*
X254285000Y-192180000D03*
X251745000Y-192180000D03*
X249205000Y-192180000D03*
X246665000Y-192180000D03*
X244125000Y-192180000D03*
%TD*%
D13*
%TO.C,U10*%
X244125000Y-141800000D03*
D16*
X246665000Y-141800000D03*
X249205000Y-141800000D03*
X251745000Y-141800000D03*
X254285000Y-141800000D03*
X256825000Y-141800000D03*
X259365000Y-141800000D03*
X259365000Y-134180000D03*
X256825000Y-134180000D03*
X254285000Y-134180000D03*
X251745000Y-134180000D03*
X249205000Y-134180000D03*
X246665000Y-134180000D03*
X244125000Y-134180000D03*
%TD*%
D13*
%TO.C,U12*%
X205075000Y-200250000D03*
D16*
X207615000Y-200250000D03*
X210155000Y-200250000D03*
X212695000Y-200250000D03*
X215235000Y-200250000D03*
X217775000Y-200250000D03*
X220315000Y-200250000D03*
X222855000Y-200250000D03*
X225395000Y-200250000D03*
X227935000Y-200250000D03*
X227935000Y-192630000D03*
X225395000Y-192630000D03*
X222855000Y-192630000D03*
X220315000Y-192630000D03*
X217775000Y-192630000D03*
X215235000Y-192630000D03*
X212695000Y-192630000D03*
X210155000Y-192630000D03*
X207615000Y-192630000D03*
X205075000Y-192630000D03*
%TD*%
D13*
%TO.C,U22*%
X244125000Y-180800000D03*
D16*
X246665000Y-180800000D03*
X249205000Y-180800000D03*
X251745000Y-180800000D03*
X254285000Y-180800000D03*
X256825000Y-180800000D03*
X259365000Y-180800000D03*
X261905000Y-180800000D03*
X261905000Y-173180000D03*
X259365000Y-173180000D03*
X256825000Y-173180000D03*
X254285000Y-173180000D03*
X251745000Y-173180000D03*
X249205000Y-173180000D03*
X246665000Y-173180000D03*
X244125000Y-173180000D03*
%TD*%
D13*
%TO.C,U23*%
X171000000Y-213000000D03*
D16*
X173540000Y-213000000D03*
X176080000Y-213000000D03*
X178620000Y-213000000D03*
X181160000Y-213000000D03*
X183700000Y-213000000D03*
X186240000Y-213000000D03*
X188780000Y-213000000D03*
X191320000Y-213000000D03*
X193860000Y-213000000D03*
X193860000Y-205380000D03*
X191320000Y-205380000D03*
X188780000Y-205380000D03*
X186240000Y-205380000D03*
X183700000Y-205380000D03*
X181160000Y-205380000D03*
X178620000Y-205380000D03*
X176080000Y-205380000D03*
X173540000Y-205380000D03*
X171000000Y-205380000D03*
%TD*%
D13*
%TO.C,U32*%
X244250000Y-128000000D03*
D16*
X246790000Y-128000000D03*
X249330000Y-128000000D03*
X251870000Y-128000000D03*
X251870000Y-120380000D03*
X249330000Y-120380000D03*
X246790000Y-120380000D03*
X244250000Y-120380000D03*
%TD*%
D12*
%TO.C,C30*%
X239125000Y-175800000D03*
X239125000Y-180800000D03*
%TD*%
%TO.C,C31*%
X154000000Y-97000000D03*
X154000000Y-102000000D03*
%TD*%
%TO.C,C32*%
X239125000Y-194800000D03*
X239125000Y-199800000D03*
%TD*%
%TO.C,C33*%
X239125000Y-136800000D03*
X239125000Y-141800000D03*
%TD*%
%TO.C,C34*%
X239125000Y-162800000D03*
X239125000Y-167800000D03*
%TD*%
D13*
%TO.C,U26*%
X227000000Y-115500000D03*
D16*
X229540000Y-115500000D03*
X232080000Y-115500000D03*
X234620000Y-115500000D03*
X237160000Y-115500000D03*
X239700000Y-115500000D03*
X242240000Y-115500000D03*
X244780000Y-115500000D03*
X247320000Y-115500000D03*
X249860000Y-115500000D03*
X252400000Y-115500000D03*
X254940000Y-115500000D03*
X254940000Y-107880000D03*
X252400000Y-107880000D03*
X249860000Y-107880000D03*
X247320000Y-107880000D03*
X244780000Y-107880000D03*
X242240000Y-107880000D03*
X239700000Y-107880000D03*
X237160000Y-107880000D03*
X234620000Y-107880000D03*
X232080000Y-107880000D03*
X229540000Y-107880000D03*
X227000000Y-107880000D03*
%TD*%
D12*
%TO.C,C7*%
X221500000Y-110500000D03*
X221500000Y-115500000D03*
%TD*%
%TO.C,C35*%
X136500000Y-89000000D03*
X141500000Y-89000000D03*
%TD*%
D20*
%TO.C,U14*%
X135500000Y-98000000D03*
D21*
X132960000Y-95460000D03*
X132960000Y-98000000D03*
X130420000Y-95460000D03*
X130420000Y-98000000D03*
X127880000Y-95460000D03*
X125340000Y-98000000D03*
X127880000Y-98000000D03*
X125340000Y-100540000D03*
X127880000Y-100540000D03*
X125340000Y-103080000D03*
X127880000Y-103080000D03*
X125340000Y-105620000D03*
X127880000Y-105620000D03*
X125340000Y-108160000D03*
X127880000Y-108160000D03*
X125340000Y-110700000D03*
X127880000Y-113240000D03*
X127880000Y-110700000D03*
X130420000Y-113240000D03*
X130420000Y-110700000D03*
X132960000Y-113240000D03*
X132960000Y-110700000D03*
X135500000Y-113240000D03*
X135500000Y-110700000D03*
X138040000Y-113240000D03*
X138040000Y-110700000D03*
X140580000Y-113240000D03*
X143120000Y-110700000D03*
X140580000Y-110700000D03*
X143120000Y-108160000D03*
X140580000Y-108160000D03*
X143120000Y-105620000D03*
X140580000Y-105620000D03*
X143120000Y-103080000D03*
X140580000Y-103080000D03*
X143120000Y-100540000D03*
X140580000Y-100540000D03*
X143120000Y-98000000D03*
X140580000Y-95460000D03*
X140580000Y-98000000D03*
X138040000Y-95460000D03*
X138040000Y-98000000D03*
X135500000Y-95460000D03*
%TD*%
D13*
%TO.C,U2*%
X160000000Y-115000000D03*
D16*
X162540000Y-115000000D03*
X165080000Y-115000000D03*
X167620000Y-115000000D03*
X170160000Y-115000000D03*
X172700000Y-115000000D03*
X175240000Y-115000000D03*
X175240000Y-107380000D03*
X172700000Y-107380000D03*
X170160000Y-107380000D03*
X167620000Y-107380000D03*
X165080000Y-107380000D03*
X162540000Y-107380000D03*
X160000000Y-107380000D03*
%TD*%
D13*
%TO.C,U25*%
X202500000Y-164550000D03*
D16*
X205040000Y-164550000D03*
X207580000Y-164550000D03*
X210120000Y-164550000D03*
X212660000Y-164550000D03*
X215200000Y-164550000D03*
X217740000Y-164550000D03*
X220280000Y-164550000D03*
X222820000Y-164550000D03*
X225360000Y-164550000D03*
X227900000Y-164550000D03*
X230440000Y-164550000D03*
X230440000Y-156930000D03*
X227900000Y-156930000D03*
X225360000Y-156930000D03*
X222820000Y-156930000D03*
X220280000Y-156930000D03*
X217740000Y-156930000D03*
X215200000Y-156930000D03*
X212660000Y-156930000D03*
X210120000Y-156930000D03*
X207580000Y-156930000D03*
X205040000Y-156930000D03*
X202500000Y-156930000D03*
%TD*%
D18*
%TO.C,JP13*%
X183000000Y-110000000D03*
D19*
X183000000Y-112540000D03*
%TD*%
D13*
%TO.C,D3*%
X225500000Y-141810000D03*
D16*
X225500000Y-134190000D03*
%TD*%
D12*
%TO.C,R4*%
X225500000Y-129810000D03*
D16*
X225500000Y-122190000D03*
%TD*%
D23*
%TO.C,SW1*%
X255985000Y-78452500D03*
X248975000Y-78452500D03*
D24*
X250225000Y-75962500D03*
X254725000Y-75962500D03*
%TD*%
D12*
%TO.C,C39*%
X155000000Y-110000000D03*
X155000000Y-115000000D03*
%TD*%
D13*
%TO.C,RN9*%
X88500000Y-89000000D03*
D16*
X91040000Y-89000000D03*
X93580000Y-89000000D03*
X96120000Y-89000000D03*
X98660000Y-89000000D03*
X101200000Y-89000000D03*
X103740000Y-89000000D03*
X106280000Y-89000000D03*
X108820000Y-89000000D03*
%TD*%
D12*
%TO.C,R1*%
X258250000Y-128000000D03*
D16*
X258250000Y-120380000D03*
%TD*%
D20*
%TO.C,U18*%
X203250000Y-127400000D03*
D21*
X200710000Y-124860000D03*
X200710000Y-127400000D03*
X198170000Y-124860000D03*
X198170000Y-127400000D03*
X195630000Y-124860000D03*
X193090000Y-127400000D03*
X195630000Y-127400000D03*
X193090000Y-129940000D03*
X195630000Y-129940000D03*
X193090000Y-132480000D03*
X195630000Y-132480000D03*
X193090000Y-135020000D03*
X195630000Y-135020000D03*
X193090000Y-137560000D03*
X195630000Y-137560000D03*
X193090000Y-140100000D03*
X195630000Y-142640000D03*
X195630000Y-140100000D03*
X198170000Y-142640000D03*
X198170000Y-140100000D03*
X200710000Y-142640000D03*
X200710000Y-140100000D03*
X203250000Y-142640000D03*
X203250000Y-140100000D03*
X205790000Y-142640000D03*
X205790000Y-140100000D03*
X208330000Y-142640000D03*
X210870000Y-140100000D03*
X208330000Y-140100000D03*
X210870000Y-137560000D03*
X208330000Y-137560000D03*
X210870000Y-135020000D03*
X208330000Y-135020000D03*
X210870000Y-132480000D03*
X208330000Y-132480000D03*
X210870000Y-129940000D03*
X208330000Y-129940000D03*
X210870000Y-127400000D03*
X208330000Y-124860000D03*
X208330000Y-127400000D03*
X205790000Y-124860000D03*
X205790000Y-127400000D03*
X203250000Y-124860000D03*
%TD*%
D18*
%TO.C,JP6*%
X196750000Y-182300000D03*
D19*
X196750000Y-179760000D03*
X196750000Y-177220000D03*
X196750000Y-174680000D03*
%TD*%
D12*
%TO.C,C13*%
X197500000Y-159550000D03*
X197500000Y-164550000D03*
%TD*%
%TO.C,C24*%
X186750000Y-134400000D03*
X186750000Y-139400000D03*
%TD*%
D18*
%TO.C,P4*%
X52018000Y-218500000D03*
D19*
X54558000Y-218500000D03*
X57098000Y-218500000D03*
X59638000Y-218500000D03*
%TD*%
D12*
%TO.C,R3*%
X233250000Y-191500000D03*
D16*
X233250000Y-183880000D03*
%TD*%
D13*
%TO.C,U27*%
X239075000Y-213050000D03*
D16*
X241615000Y-213050000D03*
X244155000Y-213050000D03*
X246695000Y-213050000D03*
X249235000Y-213050000D03*
X251775000Y-213050000D03*
X254315000Y-213050000D03*
X256855000Y-213050000D03*
X259395000Y-213050000D03*
X261935000Y-213050000D03*
X261935000Y-205430000D03*
X259395000Y-205430000D03*
X256855000Y-205430000D03*
X254315000Y-205430000D03*
X251775000Y-205430000D03*
X249235000Y-205430000D03*
X246695000Y-205430000D03*
X244155000Y-205430000D03*
X241615000Y-205430000D03*
X239075000Y-205430000D03*
%TD*%
D12*
%TO.C,C40*%
X234075000Y-208050000D03*
X234075000Y-213050000D03*
%TD*%
%TO.C,R7*%
X233000000Y-141810000D03*
D16*
X233000000Y-134190000D03*
%TD*%
D25*
%TO.C,H3*%
X152000000Y-90000000D03*
%TD*%
D18*
%TO.C,JP14*%
X93475000Y-218500000D03*
D19*
X96015000Y-218500000D03*
X98555000Y-218500000D03*
%TD*%
D12*
%TO.C,R9*%
X72000000Y-197190000D03*
D16*
X72000000Y-204810000D03*
%TD*%
D12*
%TO.C,R2*%
X233250000Y-180750000D03*
D16*
X233250000Y-173130000D03*
%TD*%
D12*
%TO.C,R8*%
X72000000Y-181940000D03*
D16*
X72000000Y-189560000D03*
%TD*%
D25*
%TO.C,H4*%
X157500000Y-212000000D03*
%TD*%
D18*
%TO.C,J12*%
X43050000Y-213025000D03*
D19*
X43050000Y-210485000D03*
X45590000Y-213025000D03*
X45590000Y-210485000D03*
X48130000Y-213025000D03*
X48130000Y-210485000D03*
X50670000Y-213025000D03*
X50670000Y-210485000D03*
X53210000Y-213025000D03*
X53210000Y-210485000D03*
X55750000Y-213025000D03*
X55750000Y-210485000D03*
X58290000Y-213025000D03*
X58290000Y-210485000D03*
X60830000Y-213025000D03*
X60830000Y-210485000D03*
X63370000Y-213025000D03*
X63370000Y-210485000D03*
%TD*%
M02*
