M48
; DRILL file {KiCad (6.0.11)} date Fri Dec 29 06:12:35 2023
; FORMAT={-:-/ absolute / inch / decimal}
; #@! TF.CreationDate,2023-12-29T06:12:35-05:00
; #@! TF.GenerationSoftware,Kicad,Pcbnew,(6.0.11)
; #@! TF.FileFunction,Plated,1,2,PTH
FMAT,2
INCH
; #@! TA.AperFunction,Plated,PTH,ComponentDrill
T1C0.0118
; #@! TA.AperFunction,Plated,PTH,ViaDrill
T2C0.0157
; #@! TA.AperFunction,Plated,PTH,ComponentDrill
T3C0.0295
; #@! TA.AperFunction,Plated,PTH,ComponentDrill
T4C0.0315
; #@! TA.AperFunction,Plated,PTH,ComponentDrill
T5C0.0354
; #@! TA.AperFunction,Plated,PTH,ComponentDrill
T6C0.0360
; #@! TA.AperFunction,Plated,PTH,ComponentDrill
T7C0.0394
; #@! TA.AperFunction,Plated,PTH,ComponentDrill
T8C0.0433
; #@! TA.AperFunction,Plated,PTH,ComponentDrill
T9C0.0591
; #@! TA.AperFunction,Plated,PTH,ComponentDrill
T10C0.1079
; #@! TA.AperFunction,Plated,PTH,ComponentDrill
T11C0.1083
; #@! TA.AperFunction,Plated,PTH,ComponentDrill
T12C0.1260
%
G90
G05
T1
X4.2657Y-5.7343
X4.2657Y-5.7815
X6.6201Y-7.4508
X6.6673Y-7.4508
X6.7421Y-6.8465
X6.7421Y-6.8937
T2
X2.0474Y-7.7998
X2.2377Y-7.6955
X2.6676Y-5.2788
X2.6791Y-7.8614
X2.6802Y-8.075
X2.707Y-6.695
X2.716Y-7.9256
X2.922Y-5.6737
X2.9226Y-5.3686
X3.1051Y-8.1096
X3.1925Y-7.1759
X3.1934Y-3.6765
X3.2107Y-7.406
X3.2213Y-5.3381
X3.2228Y-6.6077
X3.2351Y-5.2811
X3.2391Y-5.5111
X3.2568Y-5.5721
X3.288Y-6.6539
X3.2923Y-6.3407
X3.31Y-6.3013
X3.3168Y-5.1118
X3.3168Y-5.2023
X3.3221Y-4.8636
X3.323Y-4.4862
X3.4074Y-7.2067
X3.8364Y-5.4972
X4.2929Y-5.6667
X4.3762Y-6.0784
X4.4038Y-5.0913
X4.4851Y-6.2903
X4.5242Y-6.2602
X4.5731Y-6.1722
X4.7076Y-8.8275
X4.7369Y-6.5678
X4.7673Y-6.5377
X4.9516Y-6.4256
X4.9711Y-6.3858
X5.1694Y-8.3038
X5.1722Y-7.9814
X5.198Y-6.0119
X5.2182Y-5.0165
X5.2374Y-6.0254
X5.2531Y-8.0659
X5.2734Y-5.9767
X5.4827Y-7.6657
X5.5617Y-8.139
X5.6279Y-7.7136
X5.6876Y-4.1125
X5.6946Y-7.7147
X5.7495Y-6.9933
X5.7641Y-6.9529
X5.8329Y-5.8484
X5.9107Y-5.0178
X5.9684Y-4.9444
X5.9712Y-5.0118
X5.9892Y-4.9019
X6.1465Y-8.0393
X6.1927Y-6.6388
X6.2169Y-7.7817
X6.2589Y-8.4259
X6.2705Y-8.3182
X6.3215Y-5.4489
X6.3554Y-8.3364
X6.3608Y-8.5528
X6.3828Y-8.1112
X6.4132Y-7.9814
X6.5474Y-8.0942
X6.7634Y-8.0768
X7.0524Y-6.7742
X7.0588Y-6.5011
X7.0687Y-7.8181
X7.1384Y-8.061
X7.157Y-8.286
X7.1733Y-5.383
X7.2635Y-8.1196
X7.3031Y-8.0982
X7.7565Y-6.3746
X7.7632Y-5.4876
X8.1766Y-6.1671
X8.5339Y-5.0837
X8.655Y-5.4958
X9.1375Y-5.2854
X9.1745Y-6.1006
X9.2999Y-8.1702
X9.6224Y-8.2099
X9.7885Y-8.4264
X9.8117Y-8.3927
X9.9379Y-8.2802
T3
X6.3575Y-7.5461
X6.4075Y-7.4961
X6.4575Y-7.5461
T4
X1.7126Y-3.4819
X1.7126Y-3.7819
X1.7144Y-4.1929
X1.7144Y-4.8425
X1.7242Y-5.6496
X1.7698Y-6.3484
X1.7698Y-6.4272
X1.7698Y-6.5059
X1.8128Y-4.1929
X1.8128Y-4.8425
X1.8226Y-5.6496
X1.9228Y-7.8614
X1.9228Y-8.1614
X1.9268Y-4.065
X1.9277Y-7.7362
X1.9291Y-4.7146
X1.9291Y-5.5217
X1.9291Y-7.2713
X1.9291Y-7.5713
X1.9487Y-4.1921
X1.9487Y-4.4921
X1.9528Y-4.8398
X1.9528Y-5.1398
X1.9528Y-5.6469
X1.9528Y-5.9469
X1.9587Y-3.4917
X1.9587Y-3.7917
X2.003Y-6.2768
X2.003Y-6.5768
X2.0079Y-6.1516
X2.0228Y-7.8614
X2.0228Y-8.1614
X2.0487Y-4.1921
X2.0487Y-4.4921
X2.0528Y-4.8398
X2.0528Y-5.1398
X2.0528Y-5.6469
X2.0528Y-5.9469
X2.103Y-6.2768
X2.103Y-6.5768
X2.1228Y-7.8614
X2.1228Y-8.1614
X2.1236Y-4.065
X2.1246Y-7.7362
X2.126Y-4.7146
X2.126Y-5.5217
X2.1487Y-4.1921
X2.1487Y-4.4921
X2.1528Y-4.8398
X2.1528Y-5.1398
X2.1528Y-5.6469
X2.1528Y-5.9469
X2.1752Y-7.2713
X2.1752Y-7.5713
X2.203Y-6.2768
X2.203Y-6.5768
X2.2047Y-3.4819
X2.2047Y-3.7819
X2.2047Y-6.1516
X2.2098Y-4.065
X2.2122Y-4.7146
X2.2122Y-5.5217
X2.2228Y-7.8614
X2.2228Y-8.1614
X2.2487Y-4.1921
X2.2487Y-4.4921
X2.2528Y-4.8398
X2.2528Y-5.1398
X2.2528Y-5.6469
X2.2528Y-5.9469
X2.303Y-6.2768
X2.303Y-6.5768
X2.3228Y-7.8614
X2.3228Y-8.1614
X2.3487Y-4.1921
X2.3487Y-4.4921
X2.3528Y-4.8398
X2.3528Y-5.1398
X2.3528Y-5.6469
X2.3528Y-5.9469
X2.403Y-6.2768
X2.403Y-6.5768
X2.4213Y-7.2713
X2.4213Y-7.5713
X2.4228Y-7.8614
X2.4228Y-8.1614
X2.4487Y-4.1921
X2.4487Y-4.4921
X2.4508Y-3.4819
X2.4508Y-3.7819
X2.4528Y-4.8398
X2.4528Y-5.1398
X2.4528Y-5.6469
X2.4528Y-5.9469
X2.503Y-6.2768
X2.503Y-6.5768
X2.5098Y-4.065
X2.5122Y-4.7146
X2.5122Y-5.5217
X2.5228Y-7.8614
X2.5228Y-8.1614
X2.5487Y-4.1921
X2.5487Y-4.4921
X2.5528Y-4.8398
X2.5528Y-5.1398
X2.5528Y-5.6469
X2.5528Y-5.9469
X2.5961Y-4.065
X2.5984Y-4.7146
X2.5984Y-5.5217
X2.603Y-6.2768
X2.603Y-6.5768
X2.6487Y-4.1921
X2.6487Y-4.4921
X2.6528Y-4.8398
X2.6528Y-5.1398
X2.6528Y-5.6469
X2.6528Y-5.9469
X2.6673Y-7.2713
X2.6673Y-7.5713
X2.6969Y-3.4843
X2.6969Y-3.7843
X2.7594Y-7.8614
X2.7594Y-8.1614
X2.7663Y-7.7362
X2.7854Y-4.4193
X2.7854Y-4.5177
X2.7872Y-5.1378
X2.7872Y-5.9449
X2.8594Y-7.8614
X2.8594Y-8.1614
X2.8856Y-5.1378
X2.8856Y-5.9449
X2.8961Y-4.065
X2.8984Y-4.7146
X2.8984Y-5.5217
X2.9134Y-7.2713
X2.9134Y-7.5713
X2.9429Y-3.4819
X2.9429Y-3.7819
X2.9594Y-7.8614
X2.9594Y-8.1614
X2.9632Y-7.7362
X3.0594Y-7.8614
X3.0594Y-8.1614
X3.1594Y-7.8614
X3.1594Y-8.1614
X3.1594Y-7.2713
X3.1594Y-7.5713
X3.2594Y-7.8614
X3.2594Y-8.1614
X3.3465Y-4.1929
X3.3465Y-4.3898
X3.3594Y-7.8614
X3.3594Y-8.1614
X3.4055Y-7.2713
X3.4055Y-7.5713
X3.4594Y-7.8614
X3.4594Y-8.1614
X3.4685Y-6.1516
X3.4685Y-6.2748
X3.4685Y-6.5748
X3.4715Y-5.9449
X3.4734Y-4.8378
X3.4734Y-5.1378
X3.4734Y-5.45
X3.4734Y-5.75
X3.4773Y-4.1921
X3.4773Y-4.4921
X3.4783Y-4.7146
X3.4783Y-5.3248
X3.5594Y-7.8614
X3.5594Y-8.1614
X3.5648Y-7.6181
X3.5685Y-6.2748
X3.5685Y-6.5748
X3.5715Y-5.9449
X3.5734Y-4.8378
X3.5734Y-5.1378
X3.5734Y-5.45
X3.5734Y-5.75
X3.5773Y-4.1921
X3.5773Y-4.4921
X3.5797Y-3.3132
X3.6594Y-7.8614
X3.6594Y-8.1614
X3.6632Y-7.6181
X3.6654Y-6.1516
X3.6685Y-6.2748
X3.6685Y-6.5748
X3.6715Y-5.9449
X3.6734Y-4.8378
X3.6734Y-5.1378
X3.6734Y-5.45
X3.6734Y-5.75
X3.6752Y-4.7146
X3.6752Y-5.3248
X3.6773Y-4.1921
X3.6773Y-4.4921
X3.6797Y-3.3132
X3.7685Y-6.2748
X3.7685Y-6.5748
X3.7715Y-5.9449
X3.7734Y-4.8378
X3.7734Y-5.1378
X3.7734Y-5.45
X3.7734Y-5.75
X3.7773Y-4.1921
X3.7773Y-4.4921
X3.7797Y-3.3132
X3.8685Y-6.2748
X3.8685Y-6.5748
X3.8715Y-5.9449
X3.8734Y-4.8378
X3.8734Y-5.1378
X3.8734Y-5.45
X3.8734Y-5.75
X3.8773Y-4.1921
X3.8773Y-4.4921
X3.8797Y-3.3132
X3.9012Y-7.7461
X3.9012Y-7.8693
X3.9012Y-8.1693
X3.9685Y-6.2748
X3.9685Y-6.5748
X3.9715Y-5.9449
X3.9734Y-4.8378
X3.9734Y-5.1378
X3.9734Y-5.45
X3.9734Y-5.75
X3.9773Y-4.1921
X3.9773Y-4.4921
X3.9797Y-3.3132
X4.0012Y-7.8693
X4.0012Y-8.1693
X4.0685Y-6.2748
X4.0685Y-6.5748
X4.0715Y-5.9449
X4.0734Y-4.8378
X4.0734Y-5.1378
X4.0734Y-5.45
X4.0734Y-5.75
X4.0773Y-4.1921
X4.0773Y-4.4921
X4.0797Y-3.3132
X4.098Y-7.7461
X4.1012Y-7.8693
X4.1012Y-8.1693
X4.1685Y-6.2748
X4.1685Y-6.5748
X4.1715Y-5.9449
X4.1773Y-4.1921
X4.1773Y-4.4921
X4.1797Y-3.3132
X4.2012Y-7.8693
X4.2012Y-8.1693
X4.2715Y-5.9449
X4.2773Y-4.1921
X4.2773Y-4.4921
X4.2797Y-3.3132
X4.3012Y-7.8693
X4.3012Y-8.1693
X4.3773Y-4.1921
X4.3773Y-4.4921
X4.3797Y-3.3132
X4.4012Y-7.8693
X4.4012Y-8.1693
X4.5012Y-7.8693
X4.5012Y-8.1693
X4.6012Y-7.8693
X4.6012Y-8.1693
X4.7012Y-7.8693
X4.7012Y-8.1693
X4.8012Y-7.8693
X4.8012Y-8.1693
X4.8697Y-5.3248
X4.9252Y-6.2768
X4.9252Y-6.5768
X4.935Y-6.1516
X4.9408Y-4.1902
X4.9408Y-4.4902
X4.9449Y-4.065
X4.9449Y-4.7146
X4.9449Y-4.8378
X4.9449Y-5.1378
X4.9882Y-5.4389
X4.9882Y-5.7389
X5.0252Y-6.2768
X5.0252Y-6.5768
X5.0364Y-3.3132
X5.0408Y-4.1902
X5.0408Y-4.4902
X5.0449Y-4.8378
X5.0449Y-5.1378
X5.0882Y-5.4389
X5.0882Y-5.7389
X5.1252Y-6.2768
X5.1252Y-6.5768
X5.1319Y-6.1516
X5.1364Y-3.3132
X5.1408Y-4.1902
X5.1408Y-4.4902
X5.1417Y-4.065
X5.1417Y-4.7146
X5.1449Y-4.8378
X5.1449Y-5.1378
X5.1697Y-5.3248
X5.1882Y-5.4389
X5.1882Y-5.7389
X5.2205Y-6.1516
X5.2252Y-6.2768
X5.2252Y-6.5768
X5.2307Y-7.4961
X5.2307Y-7.5961
X5.2307Y-7.6961
X5.2307Y-7.7961
X5.2307Y-7.8961
X5.2307Y-7.9961
X5.2364Y-3.3132
X5.2408Y-4.1902
X5.2408Y-4.4902
X5.2449Y-4.8378
X5.2449Y-5.1378
X5.2634Y-5.3248
X5.2882Y-5.4389
X5.2882Y-5.7389
X5.3189Y-6.1516
X5.3252Y-6.2768
X5.3252Y-6.5768
X5.3307Y-7.3961
X5.3307Y-7.4961
X5.3307Y-7.5961
X5.3307Y-7.6961
X5.3307Y-7.7961
X5.3307Y-7.8961
X5.3307Y-7.9961
X5.3307Y-8.0961
X5.3364Y-3.3132
X5.3408Y-4.1902
X5.3408Y-4.4902
X5.3449Y-4.8378
X5.3449Y-5.1378
X5.3882Y-5.4389
X5.3882Y-5.7389
X5.4252Y-6.2768
X5.4252Y-6.5768
X5.4291Y-7.2024
X5.4307Y-7.3961
X5.4307Y-7.4961
X5.4307Y-7.9961
X5.4307Y-8.0961
X5.4364Y-3.3132
X5.4408Y-4.1902
X5.4408Y-4.4902
X5.4449Y-4.8378
X5.4449Y-5.1378
X5.4882Y-5.4389
X5.4882Y-5.7389
X5.5252Y-6.2768
X5.5252Y-6.5768
X5.5307Y-7.3961
X5.5307Y-7.4961
X5.5307Y-7.9961
X5.5307Y-8.0961
X5.5364Y-3.3132
X5.5408Y-4.1902
X5.5408Y-4.4902
X5.5449Y-4.8378
X5.5449Y-5.1378
X5.5634Y-5.3248
X5.5882Y-5.4389
X5.5882Y-5.7389
X5.6252Y-6.2768
X5.6252Y-6.5768
X5.626Y-7.2024
X5.6307Y-7.3961
X5.6307Y-7.4961
X5.6307Y-7.9961
X5.6307Y-8.0961
X5.6364Y-3.3132
X5.6408Y-4.1902
X5.6408Y-4.4902
X5.6449Y-4.8378
X5.6449Y-5.1378
X5.6594Y-5.3248
X5.6882Y-5.4389
X5.6882Y-5.7389
X5.7307Y-7.3961
X5.7307Y-7.4961
X5.7307Y-7.9961
X5.7307Y-8.0961
X5.7364Y-3.3132
X5.7408Y-4.1902
X5.7408Y-4.4902
X5.7449Y-4.8378
X5.7449Y-5.1378
X5.8285Y-7.0866
X5.8307Y-7.3961
X5.8307Y-7.4961
X5.8307Y-7.5961
X5.8307Y-7.6961
X5.8307Y-7.7961
X5.8307Y-7.8961
X5.8307Y-7.9961
X5.8307Y-8.0961
X5.8364Y-3.3132
X5.8408Y-4.1902
X5.8408Y-4.4902
X5.8449Y-4.8378
X5.8449Y-5.1378
X5.927Y-7.0866
X5.9307Y-7.4961
X5.9307Y-7.5961
X5.9307Y-7.6961
X5.9307Y-7.7961
X5.9307Y-7.8961
X5.9307Y-7.9961
X5.9594Y-5.3248
X6.1984Y-7.1177
X6.3091Y-7.8673
X6.3091Y-8.1673
X6.3159Y-7.7421
X6.3809Y-5.2756
X6.3946Y-4.1843
X6.3946Y-4.4843
X6.3957Y-4.0551
X6.3986Y-4.8299
X6.3986Y-5.1299
X6.4016Y-6.2669
X6.4016Y-6.5669
X6.4055Y-4.7047
X6.4055Y-6.1417
X6.4091Y-7.8673
X6.4091Y-8.1673
X6.4203Y-7.3091
X6.439Y-5.431
X6.439Y-5.731
X6.4809Y-5.2756
X6.4946Y-4.1843
X6.4946Y-4.4843
X6.497Y-3.3053
X6.4984Y-7.1177
X6.4986Y-4.8299
X6.4986Y-5.1299
X6.5016Y-6.2669
X6.5016Y-6.5669
X6.5091Y-7.8673
X6.5091Y-8.1673
X6.5128Y-7.7421
X6.5203Y-7.3091
X6.539Y-5.431
X6.539Y-5.731
X6.5809Y-5.2756
X6.5921Y-7.1177
X6.5925Y-4.0551
X6.5946Y-4.1843
X6.5946Y-4.4843
X6.597Y-3.3053
X6.5986Y-4.8299
X6.5986Y-5.1299
X6.6016Y-6.2669
X6.6016Y-6.5669
X6.6024Y-4.7047
X6.6024Y-6.1417
X6.6091Y-7.8673
X6.6091Y-8.1673
X6.6203Y-7.3091
X6.639Y-5.431
X6.639Y-5.731
X6.6809Y-5.2756
X6.6946Y-4.1843
X6.6946Y-4.4843
X6.697Y-3.3053
X6.6986Y-4.8299
X6.6986Y-5.1299
X6.7016Y-6.2669
X6.7016Y-6.5669
X6.7091Y-7.8673
X6.7091Y-8.1673
X6.7203Y-7.3091
X6.739Y-5.431
X6.739Y-5.731
X6.7809Y-5.2756
X6.7946Y-4.1843
X6.7946Y-4.4843
X6.797Y-3.3053
X6.7986Y-4.8299
X6.7986Y-5.1299
X6.8016Y-6.2669
X6.8016Y-6.5669
X6.8091Y-7.8673
X6.8091Y-8.1673
X6.8203Y-7.3091
X6.839Y-5.431
X6.839Y-5.731
X6.8809Y-5.2756
X6.8921Y-7.1177
X6.8946Y-4.1843
X6.8946Y-4.4843
X6.897Y-3.3053
X6.8986Y-4.8299
X6.8986Y-5.1299
X6.9016Y-6.2669
X6.9016Y-6.5669
X6.9091Y-7.8673
X6.9091Y-8.1673
X6.9203Y-7.3091
X6.939Y-5.431
X6.939Y-5.731
X6.9809Y-5.2756
X6.9858Y-7.1177
X6.9946Y-4.1843
X6.9946Y-4.4843
X6.997Y-3.3053
X6.9986Y-4.8299
X6.9986Y-5.1299
X7.0016Y-6.2669
X7.0016Y-6.5669
X7.0091Y-7.8673
X7.0091Y-8.1673
X7.0203Y-7.3091
X7.039Y-5.431
X7.039Y-5.731
X7.0809Y-5.2756
X7.0946Y-4.1843
X7.0946Y-4.4843
X7.097Y-3.3053
X7.0986Y-4.8299
X7.0986Y-5.1299
X7.1016Y-6.2669
X7.1016Y-6.5669
X7.1091Y-7.8673
X7.1091Y-8.1673
X7.1203Y-7.3091
X7.139Y-5.431
X7.139Y-5.731
X7.1809Y-5.2756
X7.1946Y-4.1843
X7.1946Y-4.4843
X7.197Y-3.3053
X7.1986Y-4.8299
X7.1986Y-5.1299
X7.2091Y-7.8673
X7.2091Y-8.1673
X7.2203Y-7.3091
X7.2858Y-7.1177
X7.2946Y-4.1843
X7.2946Y-4.4843
X7.297Y-3.3053
X7.2986Y-4.8299
X7.2986Y-5.1299
X7.5984Y-8.6024
X7.6969Y-8.6024
X7.7215Y-8.0531
X7.7215Y-8.25
X7.8583Y-6.2669
X7.8583Y-6.5669
X7.8642Y-6.1417
X7.8671Y-5.2854
X7.8797Y-4.1921
X7.8797Y-4.4921
X7.8838Y-4.8378
X7.8838Y-5.1378
X7.8839Y-4.065
X7.8937Y-4.7146
X7.9173Y-5.448
X7.9173Y-5.748
X7.9183Y-8.0484
X7.9183Y-8.3484
X7.9583Y-6.2669
X7.9583Y-6.5669
X7.9671Y-5.2854
X7.9793Y-3.3132
X7.9797Y-4.1921
X7.9797Y-4.4921
X7.9838Y-4.8378
X7.9838Y-5.1378
X8.0173Y-5.448
X8.0173Y-5.748
X8.0183Y-8.0484
X8.0183Y-8.3484
X8.0583Y-6.2669
X8.0583Y-6.5669
X8.061Y-6.1417
X8.0671Y-5.2854
X8.0793Y-3.3132
X8.0797Y-4.1921
X8.0797Y-4.4921
X8.0807Y-4.065
X8.0838Y-4.8378
X8.0838Y-5.1378
X8.0906Y-4.7146
X8.1173Y-5.448
X8.1173Y-5.748
X8.1183Y-8.0484
X8.1183Y-8.3484
X8.1583Y-6.2669
X8.1583Y-6.5669
X8.1671Y-5.2854
X8.1693Y-4.065
X8.1793Y-3.3132
X8.1797Y-4.1921
X8.1797Y-4.4921
X8.1838Y-4.8378
X8.1838Y-5.1378
X8.2173Y-5.448
X8.2173Y-5.748
X8.2183Y-8.0484
X8.2183Y-8.3484
X8.2583Y-6.2669
X8.2583Y-6.5669
X8.2671Y-5.2854
X8.2793Y-3.3132
X8.2797Y-4.1921
X8.2797Y-4.4921
X8.2838Y-4.8378
X8.2838Y-5.1378
X8.3173Y-5.448
X8.3173Y-5.748
X8.3183Y-8.0484
X8.3183Y-8.3484
X8.3583Y-6.2669
X8.3583Y-6.5669
X8.3671Y-5.2854
X8.3793Y-3.3132
X8.3797Y-4.1921
X8.3797Y-4.4921
X8.3838Y-4.8378
X8.3838Y-5.1378
X8.4173Y-5.448
X8.4173Y-5.748
X8.4183Y-8.0484
X8.4183Y-8.3484
X8.4583Y-6.2669
X8.4583Y-6.5669
X8.4671Y-5.2854
X8.4693Y-4.065
X8.4793Y-3.3132
X8.4797Y-4.1921
X8.4797Y-4.4921
X8.4838Y-4.8378
X8.4838Y-5.1378
X8.5173Y-5.448
X8.5173Y-5.748
X8.5183Y-8.0484
X8.5183Y-8.3484
X8.5583Y-6.2669
X8.5583Y-6.5669
X8.5671Y-5.2854
X8.5793Y-3.3132
X8.5797Y-4.1921
X8.5797Y-4.4921
X8.5838Y-4.8378
X8.5838Y-5.1378
X8.6173Y-5.448
X8.6173Y-5.748
X8.6671Y-5.2854
X8.6793Y-3.3132
X8.6797Y-4.1921
X8.6797Y-4.4921
X8.6838Y-4.8378
X8.6838Y-5.1378
X8.7598Y-8.061
X8.7598Y-8.2579
X8.7793Y-3.3132
X8.7797Y-4.1921
X8.7797Y-4.4921
X8.7838Y-4.8378
X8.7838Y-5.1378
X8.9469Y-8.0484
X8.9469Y-8.3484
X9.0469Y-8.0484
X9.0469Y-8.3484
X9.1469Y-8.0484
X9.1469Y-8.3484
X9.2469Y-8.0484
X9.2469Y-8.3484
X9.314Y-5.2854
X9.3238Y-4.1902
X9.3238Y-4.4902
X9.3279Y-4.8378
X9.3279Y-5.1378
X9.3307Y-4.065
X9.3307Y-4.7146
X9.3469Y-8.0484
X9.3469Y-8.3484
X9.3642Y-5.4487
X9.3642Y-5.7487
X9.3947Y-6.2669
X9.3947Y-6.5669
X9.3996Y-6.1417
X9.414Y-5.2854
X9.4222Y-3.3132
X9.4238Y-4.1902
X9.4238Y-4.4902
X9.4279Y-4.8378
X9.4279Y-5.1378
X9.4469Y-8.0484
X9.4469Y-8.3484
X9.4642Y-5.4487
X9.4642Y-5.7487
X9.4947Y-6.2669
X9.4947Y-6.5669
X9.514Y-5.2854
X9.5222Y-3.3132
X9.5238Y-4.1902
X9.5238Y-4.4902
X9.5276Y-4.065
X9.5276Y-4.7146
X9.5279Y-4.8378
X9.5279Y-5.1378
X9.5469Y-8.0484
X9.5469Y-8.3484
X9.5642Y-5.4487
X9.5642Y-5.7487
X9.5947Y-6.2669
X9.5947Y-6.5669
X9.5965Y-6.1417
X9.614Y-5.2854
X9.6222Y-3.3132
X9.6238Y-4.1902
X9.6238Y-4.4902
X9.6279Y-4.8378
X9.6279Y-5.1378
X9.6469Y-8.0484
X9.6469Y-8.3484
X9.6642Y-5.4487
X9.6642Y-5.7487
X9.6947Y-6.2669
X9.6947Y-6.5669
X9.714Y-5.2854
X9.7222Y-3.3132
X9.7238Y-4.1902
X9.7238Y-4.4902
X9.7279Y-4.8378
X9.7279Y-5.1378
X9.7469Y-8.0484
X9.7469Y-8.3484
X9.7642Y-5.4487
X9.7642Y-5.7487
X9.7947Y-6.2669
X9.7947Y-6.5669
X9.814Y-5.2854
X9.8222Y-3.3132
X9.8238Y-4.1902
X9.8238Y-4.4902
X9.8279Y-4.8378
X9.8279Y-5.1378
X9.8469Y-8.0484
X9.8469Y-8.3484
X9.8642Y-5.4487
X9.8642Y-5.7487
X9.8947Y-6.2669
X9.8947Y-6.5669
X9.914Y-5.2854
X9.9222Y-3.3132
X9.9238Y-4.1902
X9.9238Y-4.4902
X9.9279Y-4.8378
X9.9279Y-5.1378
X9.9642Y-5.4487
X9.9642Y-5.7487
X9.9947Y-6.2669
X9.9947Y-6.5669
X10.014Y-5.2854
X10.0222Y-3.3132
X10.0238Y-4.1902
X10.0238Y-4.4902
X10.0279Y-4.8378
X10.0279Y-5.1378
X10.0642Y-5.4487
X10.0642Y-5.7487
X10.114Y-5.2854
X10.1222Y-3.3132
X10.1238Y-4.1902
X10.1238Y-4.4902
X10.1279Y-4.8378
X10.1279Y-5.1378
X10.2222Y-3.3132
X10.2238Y-4.1902
X10.2238Y-4.4902
X10.2279Y-4.8378
X10.2279Y-5.1378
T5
X1.839Y-3.1831
X1.939Y-3.1831
X2.0866Y-3.1831
X2.1866Y-3.1831
X2.3327Y-3.1831
X2.4327Y-3.1831
X2.5787Y-3.1831
X2.6787Y-3.1831
X2.8248Y-3.1831
X2.9248Y-3.1831
X3.0709Y-3.1831
X3.1709Y-3.1831
X3.3169Y-3.1831
X3.4169Y-3.1831
T6
X3.4853Y-3.4856
X3.4853Y-3.7856
X3.5853Y-3.4856
X3.5853Y-3.7856
X3.6853Y-3.4856
X3.6853Y-3.7856
X3.7853Y-3.4856
X3.7853Y-3.7856
X3.8853Y-3.4856
X3.8853Y-3.7856
X3.9853Y-3.4856
X3.9853Y-3.7856
X4.0853Y-3.4856
X4.0853Y-3.7856
X4.1853Y-3.4856
X4.1853Y-3.7856
X4.2853Y-3.4856
X4.2853Y-3.7856
X4.3853Y-3.4856
X4.3853Y-3.7856
X4.9449Y-3.4856
X4.9449Y-3.7856
X5.0449Y-3.4856
X5.0449Y-3.7856
X5.1449Y-3.4856
X5.1449Y-3.7856
X5.2449Y-3.4856
X5.2449Y-3.7856
X5.3449Y-3.4856
X5.3449Y-3.7856
X5.4449Y-3.4856
X5.4449Y-3.7856
X5.5449Y-3.4856
X5.5449Y-3.7856
X5.6449Y-3.4856
X5.6449Y-3.7856
X5.7449Y-3.4856
X5.7449Y-3.7856
X5.8449Y-3.4856
X5.8449Y-3.7856
X6.4027Y-3.4778
X6.4027Y-3.7778
X6.5027Y-3.4778
X6.5027Y-3.7778
X6.6027Y-3.4778
X6.6027Y-3.7778
X6.7027Y-3.4778
X6.7027Y-3.7778
X6.8027Y-3.4778
X6.8027Y-3.7778
X6.9027Y-3.4778
X6.9027Y-3.7778
X7.0027Y-3.4778
X7.0027Y-3.7778
X7.1027Y-3.4778
X7.1027Y-3.7778
X7.2027Y-3.4778
X7.2027Y-3.7778
X7.3027Y-3.4778
X7.3027Y-3.7778
X7.8878Y-3.4856
X7.8878Y-3.7856
X7.9878Y-3.4856
X7.9878Y-3.7856
X8.0878Y-3.4856
X8.0878Y-3.7856
X8.1878Y-3.4856
X8.1878Y-3.7856
X8.2878Y-3.4856
X8.2878Y-3.7856
X8.3878Y-3.4856
X8.3878Y-3.7856
X8.4878Y-3.4856
X8.4878Y-3.7856
X8.5878Y-3.4856
X8.5878Y-3.7856
X8.6878Y-3.4856
X8.6878Y-3.7856
X8.7878Y-3.4856
X8.7878Y-3.7856
X9.3279Y-3.4856
X9.3279Y-3.7856
X9.4279Y-3.4856
X9.4279Y-3.7856
X9.5279Y-3.4856
X9.5279Y-3.7856
X9.6279Y-3.4856
X9.6279Y-3.7856
X9.7279Y-3.4856
X9.7279Y-3.7856
X9.8279Y-3.4856
X9.8279Y-3.7856
X9.9279Y-3.4856
X9.9279Y-3.7856
X10.0279Y-3.4856
X10.0279Y-3.7856
X10.1279Y-3.4856
X10.1279Y-3.7856
X10.2279Y-3.4856
X10.2279Y-3.7856
T7
X1.852Y-8.7795
X1.852Y-8.8795
X1.952Y-8.7795
X1.952Y-8.8795
X2.0453Y-8.622
X2.052Y-8.7795
X2.052Y-8.8795
X2.1453Y-8.622
X2.152Y-8.7795
X2.152Y-8.8795
X2.2453Y-8.622
X2.252Y-8.7795
X2.252Y-8.8795
X2.3453Y-8.622
X2.352Y-8.7795
X2.352Y-8.8795
X2.452Y-8.7795
X2.452Y-8.8795
X2.552Y-8.7795
X2.552Y-8.8795
X2.652Y-8.7795
X2.652Y-8.8795
X2.752Y-8.7795
X2.752Y-8.8795
X2.852Y-8.7795
X2.852Y-8.8795
X2.952Y-8.7795
X2.952Y-8.8795
X3.052Y-8.7795
X3.052Y-8.8795
X3.152Y-8.7795
X3.152Y-8.8795
X3.252Y-8.7795
X3.252Y-8.8795
X3.352Y-8.7795
X3.352Y-8.8795
X3.452Y-8.7795
X3.452Y-8.8795
X3.552Y-8.7795
X3.552Y-8.8795
X3.652Y-8.7795
X3.652Y-8.8795
X3.7392Y-8.622
X3.752Y-8.7795
X3.752Y-8.8795
X3.8392Y-8.622
X3.852Y-8.7795
X3.852Y-8.8795
X3.9392Y-8.622
X3.952Y-8.7795
X3.952Y-8.8795
X4.052Y-8.7795
X4.052Y-8.8795
X4.152Y-8.7795
X4.152Y-8.8795
X4.252Y-8.7795
X4.252Y-8.8795
X4.2756Y-5.4616
X4.2756Y-5.5616
X4.4547Y-3.1742
X4.5547Y-3.1742
X4.6547Y-3.1742
X4.7547Y-3.1742
X4.7654Y-8.7795
X4.7654Y-8.8795
X4.8547Y-3.1742
X4.8654Y-8.7795
X4.8654Y-8.8795
X4.9547Y-3.1742
X4.9654Y-8.7795
X4.9654Y-8.8795
X5.0654Y-8.7795
X5.0654Y-8.8795
X5.1654Y-8.7795
X5.1654Y-8.8795
X5.2654Y-8.7795
X5.2654Y-8.8795
X5.3654Y-8.7795
X5.3654Y-8.8795
X5.4654Y-8.7795
X5.4654Y-8.8795
X5.5654Y-8.7795
X5.5654Y-8.8795
X5.6654Y-8.7795
X5.6654Y-8.8795
X5.7654Y-8.7795
X5.7654Y-8.8795
X5.8654Y-8.7795
X5.8654Y-8.8795
X5.9654Y-8.7795
X5.9654Y-8.8795
X6.0654Y-8.7795
X6.0654Y-8.8795
X6.1654Y-8.7795
X6.1654Y-8.8795
X6.2283Y-6.876
X6.2654Y-8.7795
X6.2654Y-8.8795
X6.3283Y-6.876
X6.3654Y-8.7795
X6.3654Y-8.8795
X6.4283Y-6.876
X6.4654Y-8.7795
X6.4654Y-8.8795
X6.5283Y-6.876
X6.5654Y-8.7795
X6.5654Y-8.8795
X6.6654Y-8.7795
X6.6654Y-8.8795
X6.7654Y-8.7795
X6.7654Y-8.8795
X6.7982Y-7.5841
X6.7982Y-7.6841
X6.8654Y-8.7795
X6.8654Y-8.8795
X6.8982Y-7.5841
X6.8982Y-7.6841
X6.9567Y-6.8787
X6.9654Y-8.7795
X6.9654Y-8.8795
X6.9982Y-7.5841
X6.9982Y-7.6841
X7.0567Y-6.8787
X7.0654Y-8.7795
X7.0654Y-8.8795
X7.0982Y-7.5841
X7.0982Y-7.6841
X7.1567Y-6.8787
X7.1654Y-8.7795
X7.1654Y-8.8795
X7.1982Y-7.5841
X7.1982Y-7.6841
X7.2567Y-6.8787
X7.7575Y-8.7795
X7.7575Y-8.8795
X7.8008Y-7.7362
X7.8008Y-7.8362
X7.8575Y-8.7795
X7.8575Y-8.8795
X7.9008Y-7.7362
X7.9008Y-7.8362
X7.9575Y-8.7795
X7.9575Y-8.8795
X8.0008Y-7.7362
X8.0008Y-7.8362
X8.0575Y-8.7795
X8.0575Y-8.8795
X8.1008Y-7.7362
X8.1008Y-7.8362
X8.1575Y-8.7795
X8.1575Y-8.8795
X8.2008Y-7.7362
X8.2008Y-7.8362
X8.2575Y-8.7795
X8.2575Y-8.8795
X8.3008Y-7.7362
X8.3008Y-7.8362
X8.3575Y-8.7795
X8.3575Y-8.8795
X8.4008Y-7.7362
X8.4008Y-7.8362
X8.4575Y-8.7795
X8.4575Y-8.8795
X8.5008Y-7.7362
X8.5008Y-7.8362
X8.5575Y-8.7795
X8.5575Y-8.8795
X8.6008Y-7.7362
X8.6008Y-7.8362
X8.6575Y-8.7795
X8.6575Y-8.8795
X8.7008Y-7.7362
X8.7008Y-7.8362
X8.7575Y-8.7795
X8.7575Y-8.8795
X8.8008Y-7.7362
X8.8008Y-7.8362
X8.8575Y-8.7795
X8.8575Y-8.8795
X8.9008Y-7.7362
X8.9008Y-7.8362
X8.9575Y-8.7795
X8.9575Y-8.8795
X9.0008Y-7.7362
X9.0008Y-7.8362
X9.0575Y-8.7795
X9.0575Y-8.8795
X9.1008Y-7.7362
X9.1008Y-7.8362
X9.1575Y-8.7795
X9.1575Y-8.8795
X9.2008Y-7.7362
X9.2008Y-7.8362
X9.2575Y-8.7795
X9.2575Y-8.8795
X9.3008Y-7.7362
X9.3008Y-7.8362
X9.3575Y-8.7795
X9.3575Y-8.8795
X9.4008Y-7.7362
X9.4008Y-7.8362
X9.4575Y-8.7795
X9.4575Y-8.8795
X9.5008Y-7.7362
X9.5008Y-7.8362
X9.5575Y-8.7795
X9.5575Y-8.8795
X9.6008Y-7.7362
X9.6008Y-7.8362
X9.6575Y-8.7795
X9.6575Y-8.8795
X9.7008Y-7.7362
X9.7008Y-7.8362
X9.7575Y-8.7795
X9.7575Y-8.8795
X9.8575Y-8.7795
X9.8575Y-8.8795
X9.9575Y-8.7795
X9.9575Y-8.8795
X10.0575Y-8.7795
X10.0575Y-8.8795
X10.1575Y-8.7795
X10.1575Y-8.8795
T8
X4.315Y-4.8382
X4.315Y-5.1382
T9
X1.7698Y-6.2657
X1.7698Y-6.5886
T10
X7.6083Y-7.7874
T11
X7.6083Y-6.8819
X9.8917Y-6.8819
X9.8917Y-7.7874
T12
X1.5748Y-2.9528
X10.4331Y-2.9528
T0
M30
