%TF.GenerationSoftware,KiCad,Pcbnew,(6.0.11)*%
%TF.CreationDate,2023-12-29T06:12:26-05:00*%
%TF.ProjectId,input-output.SelfHost,696e7075-742d-46f7-9574-7075742e5365,rev?*%
%TF.SameCoordinates,Original*%
%TF.FileFunction,Legend,Bot*%
%TF.FilePolarity,Positive*%
%FSLAX46Y46*%
G04 Gerber Fmt 4.6, Leading zero omitted, Abs format (unit mm)*
G04 Created by KiCad (PCBNEW (6.0.11)) date 2023-12-29 06:12:26*
%MOMM*%
%LPD*%
G01*
G04 APERTURE LIST*
%ADD10C,0.150000*%
%ADD11C,0.120000*%
%ADD12C,0.100000*%
%ADD13C,0.114000*%
G04 APERTURE END LIST*
D10*
%TO.C,H2*%
X269261904Y-78452380D02*
X269261904Y-77452380D01*
X269261904Y-77928571D02*
X268690476Y-77928571D01*
X268690476Y-78452380D02*
X268690476Y-77452380D01*
X268261904Y-77547619D02*
X268214285Y-77500000D01*
X268119047Y-77452380D01*
X267880952Y-77452380D01*
X267785714Y-77500000D01*
X267738095Y-77547619D01*
X267690476Y-77642857D01*
X267690476Y-77738095D01*
X267738095Y-77880952D01*
X268309523Y-78452380D01*
X267690476Y-78452380D01*
%TO.C,H1*%
X37261904Y-78452380D02*
X37261904Y-77452380D01*
X37261904Y-77928571D02*
X36690476Y-77928571D01*
X36690476Y-78452380D02*
X36690476Y-77452380D01*
X35690476Y-78452380D02*
X36261904Y-78452380D01*
X35976190Y-78452380D02*
X35976190Y-77452380D01*
X36071428Y-77595238D01*
X36166666Y-77690476D01*
X36261904Y-77738095D01*
%TO.C,P2*%
X186738095Y-226452380D02*
X186738095Y-225452380D01*
X186357142Y-225452380D01*
X186261904Y-225500000D01*
X186214285Y-225547619D01*
X186166666Y-225642857D01*
X186166666Y-225785714D01*
X186214285Y-225880952D01*
X186261904Y-225928571D01*
X186357142Y-225976190D01*
X186738095Y-225976190D01*
X185785714Y-225547619D02*
X185738095Y-225500000D01*
X185642857Y-225452380D01*
X185404761Y-225452380D01*
X185309523Y-225500000D01*
X185261904Y-225547619D01*
X185214285Y-225642857D01*
X185214285Y-225738095D01*
X185261904Y-225880952D01*
X185833333Y-226452380D01*
X185214285Y-226452380D01*
%TO.C,P3*%
X262738095Y-226452380D02*
X262738095Y-225452380D01*
X262357142Y-225452380D01*
X262261904Y-225500000D01*
X262214285Y-225547619D01*
X262166666Y-225642857D01*
X262166666Y-225785714D01*
X262214285Y-225880952D01*
X262261904Y-225928571D01*
X262357142Y-225976190D01*
X262738095Y-225976190D01*
X261833333Y-225452380D02*
X261214285Y-225452380D01*
X261547619Y-225833333D01*
X261404761Y-225833333D01*
X261309523Y-225880952D01*
X261261904Y-225928571D01*
X261214285Y-226023809D01*
X261214285Y-226261904D01*
X261261904Y-226357142D01*
X261309523Y-226404761D01*
X261404761Y-226452380D01*
X261690476Y-226452380D01*
X261785714Y-226404761D01*
X261833333Y-226357142D01*
%TO.C,P1*%
X112738095Y-226452380D02*
X112738095Y-225452380D01*
X112357142Y-225452380D01*
X112261904Y-225500000D01*
X112214285Y-225547619D01*
X112166666Y-225642857D01*
X112166666Y-225785714D01*
X112214285Y-225880952D01*
X112261904Y-225928571D01*
X112357142Y-225976190D01*
X112738095Y-225976190D01*
X111214285Y-226452380D02*
X111785714Y-226452380D01*
X111500000Y-226452380D02*
X111500000Y-225452380D01*
X111595238Y-225595238D01*
X111690476Y-225690476D01*
X111785714Y-225738095D01*
%TO.C,R7*%
X61952380Y-188333333D02*
X61476190Y-188000000D01*
X61952380Y-187761904D02*
X60952380Y-187761904D01*
X60952380Y-188142857D01*
X61000000Y-188238095D01*
X61047619Y-188285714D01*
X61142857Y-188333333D01*
X61285714Y-188333333D01*
X61380952Y-188285714D01*
X61428571Y-188238095D01*
X61476190Y-188142857D01*
X61476190Y-187761904D01*
X60952380Y-188666666D02*
X60952380Y-189333333D01*
X61952380Y-188904761D01*
%TO.C,R18*%
X128142857Y-135702380D02*
X128476190Y-135226190D01*
X128714285Y-135702380D02*
X128714285Y-134702380D01*
X128333333Y-134702380D01*
X128238095Y-134750000D01*
X128190476Y-134797619D01*
X128142857Y-134892857D01*
X128142857Y-135035714D01*
X128190476Y-135130952D01*
X128238095Y-135178571D01*
X128333333Y-135226190D01*
X128714285Y-135226190D01*
X127190476Y-135702380D02*
X127761904Y-135702380D01*
X127476190Y-135702380D02*
X127476190Y-134702380D01*
X127571428Y-134845238D01*
X127666666Y-134940476D01*
X127761904Y-134988095D01*
X126619047Y-135130952D02*
X126714285Y-135083333D01*
X126761904Y-135035714D01*
X126809523Y-134940476D01*
X126809523Y-134892857D01*
X126761904Y-134797619D01*
X126714285Y-134750000D01*
X126619047Y-134702380D01*
X126428571Y-134702380D01*
X126333333Y-134750000D01*
X126285714Y-134797619D01*
X126238095Y-134892857D01*
X126238095Y-134940476D01*
X126285714Y-135035714D01*
X126333333Y-135083333D01*
X126428571Y-135130952D01*
X126619047Y-135130952D01*
X126714285Y-135178571D01*
X126761904Y-135226190D01*
X126809523Y-135321428D01*
X126809523Y-135511904D01*
X126761904Y-135607142D01*
X126714285Y-135654761D01*
X126619047Y-135702380D01*
X126428571Y-135702380D01*
X126333333Y-135654761D01*
X126285714Y-135607142D01*
X126238095Y-135511904D01*
X126238095Y-135321428D01*
X126285714Y-135226190D01*
X126333333Y-135178571D01*
X126428571Y-135130952D01*
D11*
%TO.C,SW3*%
X123573809Y-137433333D02*
X123611904Y-137547619D01*
X123611904Y-137738095D01*
X123573809Y-137814285D01*
X123535714Y-137852380D01*
X123459523Y-137890476D01*
X123383333Y-137890476D01*
X123307142Y-137852380D01*
X123269047Y-137814285D01*
X123230952Y-137738095D01*
X123192857Y-137585714D01*
X123154761Y-137509523D01*
X123116666Y-137471428D01*
X123040476Y-137433333D01*
X122964285Y-137433333D01*
X122888095Y-137471428D01*
X122850000Y-137509523D01*
X122811904Y-137585714D01*
X122811904Y-137776190D01*
X122850000Y-137890476D01*
X122811904Y-138157142D02*
X123611904Y-138347619D01*
X123040476Y-138500000D01*
X123611904Y-138652380D01*
X122811904Y-138842857D01*
X122811904Y-139071428D02*
X122811904Y-139566666D01*
X123116666Y-139300000D01*
X123116666Y-139414285D01*
X123154761Y-139490476D01*
X123192857Y-139528571D01*
X123269047Y-139566666D01*
X123459523Y-139566666D01*
X123535714Y-139528571D01*
X123573809Y-139490476D01*
X123611904Y-139414285D01*
X123611904Y-139185714D01*
X123573809Y-139109523D01*
X123535714Y-139071428D01*
D10*
%TO.C,C29*%
X128742857Y-120107142D02*
X128790476Y-120154761D01*
X128933333Y-120202380D01*
X129028571Y-120202380D01*
X129171428Y-120154761D01*
X129266666Y-120059523D01*
X129314285Y-119964285D01*
X129361904Y-119773809D01*
X129361904Y-119630952D01*
X129314285Y-119440476D01*
X129266666Y-119345238D01*
X129171428Y-119250000D01*
X129028571Y-119202380D01*
X128933333Y-119202380D01*
X128790476Y-119250000D01*
X128742857Y-119297619D01*
X128361904Y-119297619D02*
X128314285Y-119250000D01*
X128219047Y-119202380D01*
X127980952Y-119202380D01*
X127885714Y-119250000D01*
X127838095Y-119297619D01*
X127790476Y-119392857D01*
X127790476Y-119488095D01*
X127838095Y-119630952D01*
X128409523Y-120202380D01*
X127790476Y-120202380D01*
X127314285Y-120202380D02*
X127123809Y-120202380D01*
X127028571Y-120154761D01*
X126980952Y-120107142D01*
X126885714Y-119964285D01*
X126838095Y-119773809D01*
X126838095Y-119392857D01*
X126885714Y-119297619D01*
X126933333Y-119250000D01*
X127028571Y-119202380D01*
X127219047Y-119202380D01*
X127314285Y-119250000D01*
X127361904Y-119297619D01*
X127409523Y-119392857D01*
X127409523Y-119630952D01*
X127361904Y-119726190D01*
X127314285Y-119773809D01*
X127219047Y-119821428D01*
X127028571Y-119821428D01*
X126933333Y-119773809D01*
X126885714Y-119726190D01*
X126838095Y-119630952D01*
D12*
%TO.C,BAR4*%
X137528571Y-90821666D02*
X137576190Y-90964523D01*
X137623809Y-91012142D01*
X137719047Y-91059761D01*
X137861904Y-91059761D01*
X137957142Y-91012142D01*
X138004761Y-90964523D01*
X138052380Y-90869285D01*
X138052380Y-90488333D01*
X137052380Y-90488333D01*
X137052380Y-90821666D01*
X137100000Y-90916904D01*
X137147619Y-90964523D01*
X137242857Y-91012142D01*
X137338095Y-91012142D01*
X137433333Y-90964523D01*
X137480952Y-90916904D01*
X137528571Y-90821666D01*
X137528571Y-90488333D01*
X137766666Y-91440714D02*
X137766666Y-91916904D01*
X138052380Y-91345476D02*
X137052380Y-91678809D01*
X138052380Y-92012142D01*
X138052380Y-92916904D02*
X137576190Y-92583571D01*
X138052380Y-92345476D02*
X137052380Y-92345476D01*
X137052380Y-92726428D01*
X137100000Y-92821666D01*
X137147619Y-92869285D01*
X137242857Y-92916904D01*
X137385714Y-92916904D01*
X137480952Y-92869285D01*
X137528571Y-92821666D01*
X137576190Y-92726428D01*
X137576190Y-92345476D01*
X137385714Y-93774047D02*
X138052380Y-93774047D01*
X137004761Y-93535952D02*
X137719047Y-93297857D01*
X137719047Y-93916904D01*
D10*
%TO.C,J1*%
X222583333Y-184752380D02*
X222583333Y-185466666D01*
X222630952Y-185609523D01*
X222726190Y-185704761D01*
X222869047Y-185752380D01*
X222964285Y-185752380D01*
X221583333Y-185752380D02*
X222154761Y-185752380D01*
X221869047Y-185752380D02*
X221869047Y-184752380D01*
X221964285Y-184895238D01*
X222059523Y-184990476D01*
X222154761Y-185038095D01*
%TO.C,C15*%
X41857154Y-142857142D02*
X41904773Y-142809523D01*
X41952392Y-142666666D01*
X41952392Y-142571428D01*
X41904773Y-142428571D01*
X41809535Y-142333333D01*
X41714297Y-142285714D01*
X41523821Y-142238095D01*
X41380964Y-142238095D01*
X41190488Y-142285714D01*
X41095250Y-142333333D01*
X41000012Y-142428571D01*
X40952392Y-142571428D01*
X40952392Y-142666666D01*
X41000012Y-142809523D01*
X41047631Y-142857142D01*
X41952392Y-143809523D02*
X41952392Y-143238095D01*
X41952392Y-143523809D02*
X40952392Y-143523809D01*
X41095250Y-143428571D01*
X41190488Y-143333333D01*
X41238107Y-143238095D01*
X40952392Y-144714285D02*
X40952392Y-144238095D01*
X41428583Y-144190476D01*
X41380964Y-144238095D01*
X41333345Y-144333333D01*
X41333345Y-144571428D01*
X41380964Y-144666666D01*
X41428583Y-144714285D01*
X41523821Y-144761904D01*
X41761916Y-144761904D01*
X41857154Y-144714285D01*
X41904773Y-144666666D01*
X41952392Y-144571428D01*
X41952392Y-144333333D01*
X41904773Y-144238095D01*
X41857154Y-144190476D01*
%TO.C,C36*%
X52142857Y-140607142D02*
X52190476Y-140654761D01*
X52333333Y-140702380D01*
X52428571Y-140702380D01*
X52571428Y-140654761D01*
X52666666Y-140559523D01*
X52714285Y-140464285D01*
X52761904Y-140273809D01*
X52761904Y-140130952D01*
X52714285Y-139940476D01*
X52666666Y-139845238D01*
X52571428Y-139750000D01*
X52428571Y-139702380D01*
X52333333Y-139702380D01*
X52190476Y-139750000D01*
X52142857Y-139797619D01*
X51809523Y-139702380D02*
X51190476Y-139702380D01*
X51523809Y-140083333D01*
X51380952Y-140083333D01*
X51285714Y-140130952D01*
X51238095Y-140178571D01*
X51190476Y-140273809D01*
X51190476Y-140511904D01*
X51238095Y-140607142D01*
X51285714Y-140654761D01*
X51380952Y-140702380D01*
X51666666Y-140702380D01*
X51761904Y-140654761D01*
X51809523Y-140607142D01*
X50333333Y-139702380D02*
X50523809Y-139702380D01*
X50619047Y-139750000D01*
X50666666Y-139797619D01*
X50761904Y-139940476D01*
X50809523Y-140130952D01*
X50809523Y-140511904D01*
X50761904Y-140607142D01*
X50714285Y-140654761D01*
X50619047Y-140702380D01*
X50428571Y-140702380D01*
X50333333Y-140654761D01*
X50285714Y-140607142D01*
X50238095Y-140511904D01*
X50238095Y-140273809D01*
X50285714Y-140178571D01*
X50333333Y-140130952D01*
X50428571Y-140083333D01*
X50619047Y-140083333D01*
X50714285Y-140130952D01*
X50761904Y-140178571D01*
X50809523Y-140273809D01*
%TO.C,R2*%
X171416666Y-181242380D02*
X171750000Y-180766190D01*
X171988095Y-181242380D02*
X171988095Y-180242380D01*
X171607142Y-180242380D01*
X171511904Y-180290000D01*
X171464285Y-180337619D01*
X171416666Y-180432857D01*
X171416666Y-180575714D01*
X171464285Y-180670952D01*
X171511904Y-180718571D01*
X171607142Y-180766190D01*
X171988095Y-180766190D01*
X171035714Y-180337619D02*
X170988095Y-180290000D01*
X170892857Y-180242380D01*
X170654761Y-180242380D01*
X170559523Y-180290000D01*
X170511904Y-180337619D01*
X170464285Y-180432857D01*
X170464285Y-180528095D01*
X170511904Y-180670952D01*
X171083333Y-181242380D01*
X170464285Y-181242380D01*
%TO.C,U7*%
X136482380Y-127451904D02*
X137291904Y-127451904D01*
X137387142Y-127404285D01*
X137434761Y-127356666D01*
X137482380Y-127261428D01*
X137482380Y-127070952D01*
X137434761Y-126975714D01*
X137387142Y-126928095D01*
X137291904Y-126880476D01*
X136482380Y-126880476D01*
X136482380Y-126499523D02*
X136482380Y-125832857D01*
X137482380Y-126261428D01*
%TO.C,C22*%
X146107154Y-179357142D02*
X146154773Y-179309523D01*
X146202392Y-179166666D01*
X146202392Y-179071428D01*
X146154773Y-178928571D01*
X146059535Y-178833333D01*
X145964297Y-178785714D01*
X145773821Y-178738095D01*
X145630964Y-178738095D01*
X145440488Y-178785714D01*
X145345250Y-178833333D01*
X145250012Y-178928571D01*
X145202392Y-179071428D01*
X145202392Y-179166666D01*
X145250012Y-179309523D01*
X145297631Y-179357142D01*
X145297631Y-179738095D02*
X145250012Y-179785714D01*
X145202392Y-179880952D01*
X145202392Y-180119047D01*
X145250012Y-180214285D01*
X145297631Y-180261904D01*
X145392869Y-180309523D01*
X145488107Y-180309523D01*
X145630964Y-180261904D01*
X146202392Y-179690476D01*
X146202392Y-180309523D01*
X145297631Y-180690476D02*
X145250012Y-180738095D01*
X145202392Y-180833333D01*
X145202392Y-181071428D01*
X145250012Y-181166666D01*
X145297631Y-181214285D01*
X145392869Y-181261904D01*
X145488107Y-181261904D01*
X145630964Y-181214285D01*
X146202392Y-180642857D01*
X146202392Y-181261904D01*
%TO.C,C10*%
X141042857Y-183297142D02*
X141090476Y-183344761D01*
X141233333Y-183392380D01*
X141328571Y-183392380D01*
X141471428Y-183344761D01*
X141566666Y-183249523D01*
X141614285Y-183154285D01*
X141661904Y-182963809D01*
X141661904Y-182820952D01*
X141614285Y-182630476D01*
X141566666Y-182535238D01*
X141471428Y-182440000D01*
X141328571Y-182392380D01*
X141233333Y-182392380D01*
X141090476Y-182440000D01*
X141042857Y-182487619D01*
X140090476Y-183392380D02*
X140661904Y-183392380D01*
X140376190Y-183392380D02*
X140376190Y-182392380D01*
X140471428Y-182535238D01*
X140566666Y-182630476D01*
X140661904Y-182678095D01*
X139471428Y-182392380D02*
X139376190Y-182392380D01*
X139280952Y-182440000D01*
X139233333Y-182487619D01*
X139185714Y-182582857D01*
X139138095Y-182773333D01*
X139138095Y-183011428D01*
X139185714Y-183201904D01*
X139233333Y-183297142D01*
X139280952Y-183344761D01*
X139376190Y-183392380D01*
X139471428Y-183392380D01*
X139566666Y-183344761D01*
X139614285Y-183297142D01*
X139661904Y-183201904D01*
X139709523Y-183011428D01*
X139709523Y-182773333D01*
X139661904Y-182582857D01*
X139614285Y-182487619D01*
X139566666Y-182440000D01*
X139471428Y-182392380D01*
%TO.C,C34*%
X75857154Y-129857142D02*
X75904773Y-129809523D01*
X75952392Y-129666666D01*
X75952392Y-129571428D01*
X75904773Y-129428571D01*
X75809535Y-129333333D01*
X75714297Y-129285714D01*
X75523821Y-129238095D01*
X75380964Y-129238095D01*
X75190488Y-129285714D01*
X75095250Y-129333333D01*
X75000012Y-129428571D01*
X74952392Y-129571428D01*
X74952392Y-129666666D01*
X75000012Y-129809523D01*
X75047631Y-129857142D01*
X74952392Y-130190476D02*
X74952392Y-130809523D01*
X75333345Y-130476190D01*
X75333345Y-130619047D01*
X75380964Y-130714285D01*
X75428583Y-130761904D01*
X75523821Y-130809523D01*
X75761916Y-130809523D01*
X75857154Y-130761904D01*
X75904773Y-130714285D01*
X75952392Y-130619047D01*
X75952392Y-130333333D01*
X75904773Y-130238095D01*
X75857154Y-130190476D01*
X75285726Y-131666666D02*
X75952392Y-131666666D01*
X74904773Y-131428571D02*
X75619059Y-131190476D01*
X75619059Y-131809523D01*
%TO.C,J2*%
X186952380Y-174386666D02*
X187666666Y-174386666D01*
X187809523Y-174339047D01*
X187904761Y-174243809D01*
X187952380Y-174100952D01*
X187952380Y-174005714D01*
X187047619Y-174815238D02*
X187000000Y-174862857D01*
X186952380Y-174958095D01*
X186952380Y-175196190D01*
X187000000Y-175291428D01*
X187047619Y-175339047D01*
X187142857Y-175386666D01*
X187238095Y-175386666D01*
X187380952Y-175339047D01*
X187952380Y-174767619D01*
X187952380Y-175386666D01*
%TO.C,U24*%
X95297380Y-125451904D02*
X96106904Y-125451904D01*
X96202142Y-125499523D01*
X96249761Y-125547142D01*
X96297380Y-125642380D01*
X96297380Y-125832857D01*
X96249761Y-125928095D01*
X96202142Y-125975714D01*
X96106904Y-126023333D01*
X95297380Y-126023333D01*
X95392619Y-126451904D02*
X95345000Y-126499523D01*
X95297380Y-126594761D01*
X95297380Y-126832857D01*
X95345000Y-126928095D01*
X95392619Y-126975714D01*
X95487857Y-127023333D01*
X95583095Y-127023333D01*
X95725952Y-126975714D01*
X96297380Y-126404285D01*
X96297380Y-127023333D01*
X95630714Y-127880476D02*
X96297380Y-127880476D01*
X95249761Y-127642380D02*
X95964047Y-127404285D01*
X95964047Y-128023333D01*
%TO.C,C14*%
X163567857Y-197007142D02*
X163615476Y-197054761D01*
X163758333Y-197102380D01*
X163853571Y-197102380D01*
X163996428Y-197054761D01*
X164091666Y-196959523D01*
X164139285Y-196864285D01*
X164186904Y-196673809D01*
X164186904Y-196530952D01*
X164139285Y-196340476D01*
X164091666Y-196245238D01*
X163996428Y-196150000D01*
X163853571Y-196102380D01*
X163758333Y-196102380D01*
X163615476Y-196150000D01*
X163567857Y-196197619D01*
X162615476Y-197102380D02*
X163186904Y-197102380D01*
X162901190Y-197102380D02*
X162901190Y-196102380D01*
X162996428Y-196245238D01*
X163091666Y-196340476D01*
X163186904Y-196388095D01*
X161758333Y-196435714D02*
X161758333Y-197102380D01*
X161996428Y-196054761D02*
X162234523Y-196769047D01*
X161615476Y-196769047D01*
%TO.C,C7*%
X165116666Y-103357142D02*
X165164285Y-103404761D01*
X165307142Y-103452380D01*
X165402380Y-103452380D01*
X165545238Y-103404761D01*
X165640476Y-103309523D01*
X165688095Y-103214285D01*
X165735714Y-103023809D01*
X165735714Y-102880952D01*
X165688095Y-102690476D01*
X165640476Y-102595238D01*
X165545238Y-102500000D01*
X165402380Y-102452380D01*
X165307142Y-102452380D01*
X165164285Y-102500000D01*
X165116666Y-102547619D01*
X164783333Y-102452380D02*
X164116666Y-102452380D01*
X164545238Y-103452380D01*
%TO.C,R25*%
X70452857Y-140702380D02*
X70786190Y-140226190D01*
X71024285Y-140702380D02*
X71024285Y-139702380D01*
X70643333Y-139702380D01*
X70548095Y-139750000D01*
X70500476Y-139797619D01*
X70452857Y-139892857D01*
X70452857Y-140035714D01*
X70500476Y-140130952D01*
X70548095Y-140178571D01*
X70643333Y-140226190D01*
X71024285Y-140226190D01*
X70071904Y-139797619D02*
X70024285Y-139750000D01*
X69929047Y-139702380D01*
X69690952Y-139702380D01*
X69595714Y-139750000D01*
X69548095Y-139797619D01*
X69500476Y-139892857D01*
X69500476Y-139988095D01*
X69548095Y-140130952D01*
X70119523Y-140702380D01*
X69500476Y-140702380D01*
X68595714Y-139702380D02*
X69071904Y-139702380D01*
X69119523Y-140178571D01*
X69071904Y-140130952D01*
X68976666Y-140083333D01*
X68738571Y-140083333D01*
X68643333Y-140130952D01*
X68595714Y-140178571D01*
X68548095Y-140273809D01*
X68548095Y-140511904D01*
X68595714Y-140607142D01*
X68643333Y-140654761D01*
X68738571Y-140702380D01*
X68976666Y-140702380D01*
X69071904Y-140654761D01*
X69119523Y-140607142D01*
%TO.C,C20*%
X198357142Y-217857142D02*
X198404761Y-217809523D01*
X198452380Y-217666666D01*
X198452380Y-217571428D01*
X198404761Y-217428571D01*
X198309523Y-217333333D01*
X198214285Y-217285714D01*
X198023809Y-217238095D01*
X197880952Y-217238095D01*
X197690476Y-217285714D01*
X197595238Y-217333333D01*
X197500000Y-217428571D01*
X197452380Y-217571428D01*
X197452380Y-217666666D01*
X197500000Y-217809523D01*
X197547619Y-217857142D01*
X197547619Y-218238095D02*
X197500000Y-218285714D01*
X197452380Y-218380952D01*
X197452380Y-218619047D01*
X197500000Y-218714285D01*
X197547619Y-218761904D01*
X197642857Y-218809523D01*
X197738095Y-218809523D01*
X197880952Y-218761904D01*
X198452380Y-218190476D01*
X198452380Y-218809523D01*
X197452380Y-219428571D02*
X197452380Y-219523809D01*
X197500000Y-219619047D01*
X197547619Y-219666666D01*
X197642857Y-219714285D01*
X197833333Y-219761904D01*
X198071428Y-219761904D01*
X198261904Y-219714285D01*
X198357142Y-219666666D01*
X198404761Y-219619047D01*
X198452380Y-219523809D01*
X198452380Y-219428571D01*
X198404761Y-219333333D01*
X198357142Y-219285714D01*
X198261904Y-219238095D01*
X198071428Y-219190476D01*
X197833333Y-219190476D01*
X197642857Y-219238095D01*
X197547619Y-219285714D01*
X197500000Y-219333333D01*
X197452380Y-219428571D01*
%TO.C,RR8*%
X222952380Y-133583333D02*
X222476190Y-133250000D01*
X222952380Y-133011904D02*
X221952380Y-133011904D01*
X221952380Y-133392857D01*
X222000000Y-133488095D01*
X222047619Y-133535714D01*
X222142857Y-133583333D01*
X222285714Y-133583333D01*
X222380952Y-133535714D01*
X222428571Y-133488095D01*
X222476190Y-133392857D01*
X222476190Y-133011904D01*
X222952380Y-134583333D02*
X222476190Y-134250000D01*
X222952380Y-134011904D02*
X221952380Y-134011904D01*
X221952380Y-134392857D01*
X222000000Y-134488095D01*
X222047619Y-134535714D01*
X222142857Y-134583333D01*
X222285714Y-134583333D01*
X222380952Y-134535714D01*
X222428571Y-134488095D01*
X222476190Y-134392857D01*
X222476190Y-134011904D01*
X222380952Y-135154761D02*
X222333333Y-135059523D01*
X222285714Y-135011904D01*
X222190476Y-134964285D01*
X222142857Y-134964285D01*
X222047619Y-135011904D01*
X222000000Y-135059523D01*
X221952380Y-135154761D01*
X221952380Y-135345238D01*
X222000000Y-135440476D01*
X222047619Y-135488095D01*
X222142857Y-135535714D01*
X222190476Y-135535714D01*
X222285714Y-135488095D01*
X222333333Y-135440476D01*
X222380952Y-135345238D01*
X222380952Y-135154761D01*
X222428571Y-135059523D01*
X222476190Y-135011904D01*
X222571428Y-134964285D01*
X222761904Y-134964285D01*
X222857142Y-135011904D01*
X222904761Y-135059523D01*
X222952380Y-135154761D01*
X222952380Y-135345238D01*
X222904761Y-135440476D01*
X222857142Y-135488095D01*
X222761904Y-135535714D01*
X222571428Y-135535714D01*
X222476190Y-135488095D01*
X222428571Y-135440476D01*
X222380952Y-135345238D01*
%TO.C,U20*%
X96442380Y-161951904D02*
X97251904Y-161951904D01*
X97347142Y-161999523D01*
X97394761Y-162047142D01*
X97442380Y-162142380D01*
X97442380Y-162332857D01*
X97394761Y-162428095D01*
X97347142Y-162475714D01*
X97251904Y-162523333D01*
X96442380Y-162523333D01*
X96537619Y-162951904D02*
X96490000Y-162999523D01*
X96442380Y-163094761D01*
X96442380Y-163332857D01*
X96490000Y-163428095D01*
X96537619Y-163475714D01*
X96632857Y-163523333D01*
X96728095Y-163523333D01*
X96870952Y-163475714D01*
X97442380Y-162904285D01*
X97442380Y-163523333D01*
X96442380Y-164142380D02*
X96442380Y-164237619D01*
X96490000Y-164332857D01*
X96537619Y-164380476D01*
X96632857Y-164428095D01*
X96823333Y-164475714D01*
X97061428Y-164475714D01*
X97251904Y-164428095D01*
X97347142Y-164380476D01*
X97394761Y-164332857D01*
X97442380Y-164237619D01*
X97442380Y-164142380D01*
X97394761Y-164047142D01*
X97347142Y-163999523D01*
X97251904Y-163951904D01*
X97061428Y-163904285D01*
X96823333Y-163904285D01*
X96632857Y-163951904D01*
X96537619Y-163999523D01*
X96490000Y-164047142D01*
X96442380Y-164142380D01*
%TO.C,U23*%
X245697380Y-161751904D02*
X246506904Y-161751904D01*
X246602142Y-161799523D01*
X246649761Y-161847142D01*
X246697380Y-161942380D01*
X246697380Y-162132857D01*
X246649761Y-162228095D01*
X246602142Y-162275714D01*
X246506904Y-162323333D01*
X245697380Y-162323333D01*
X245792619Y-162751904D02*
X245745000Y-162799523D01*
X245697380Y-162894761D01*
X245697380Y-163132857D01*
X245745000Y-163228095D01*
X245792619Y-163275714D01*
X245887857Y-163323333D01*
X245983095Y-163323333D01*
X246125952Y-163275714D01*
X246697380Y-162704285D01*
X246697380Y-163323333D01*
X245697380Y-163656666D02*
X245697380Y-164275714D01*
X246078333Y-163942380D01*
X246078333Y-164085238D01*
X246125952Y-164180476D01*
X246173571Y-164228095D01*
X246268809Y-164275714D01*
X246506904Y-164275714D01*
X246602142Y-164228095D01*
X246649761Y-164180476D01*
X246697380Y-164085238D01*
X246697380Y-163799523D01*
X246649761Y-163704285D01*
X246602142Y-163656666D01*
%TO.C,U21*%
X171132380Y-202401904D02*
X171941904Y-202401904D01*
X172037142Y-202449523D01*
X172084761Y-202497142D01*
X172132380Y-202592380D01*
X172132380Y-202782857D01*
X172084761Y-202878095D01*
X172037142Y-202925714D01*
X171941904Y-202973333D01*
X171132380Y-202973333D01*
X171227619Y-203401904D02*
X171180000Y-203449523D01*
X171132380Y-203544761D01*
X171132380Y-203782857D01*
X171180000Y-203878095D01*
X171227619Y-203925714D01*
X171322857Y-203973333D01*
X171418095Y-203973333D01*
X171560952Y-203925714D01*
X172132380Y-203354285D01*
X172132380Y-203973333D01*
X172132380Y-204925714D02*
X172132380Y-204354285D01*
X172132380Y-204640000D02*
X171132380Y-204640000D01*
X171275238Y-204544761D01*
X171370476Y-204449523D01*
X171418095Y-204354285D01*
%TO.C,U4*%
X247809880Y-125928095D02*
X248619404Y-125928095D01*
X248714642Y-125975714D01*
X248762261Y-126023333D01*
X248809880Y-126118571D01*
X248809880Y-126309047D01*
X248762261Y-126404285D01*
X248714642Y-126451904D01*
X248619404Y-126499523D01*
X247809880Y-126499523D01*
X248143214Y-127404285D02*
X248809880Y-127404285D01*
X247762261Y-127166190D02*
X248476547Y-126928095D01*
X248476547Y-127547142D01*
%TO.C,C3*%
X241416666Y-156357142D02*
X241464285Y-156404761D01*
X241607142Y-156452380D01*
X241702380Y-156452380D01*
X241845238Y-156404761D01*
X241940476Y-156309523D01*
X241988095Y-156214285D01*
X242035714Y-156023809D01*
X242035714Y-155880952D01*
X241988095Y-155690476D01*
X241940476Y-155595238D01*
X241845238Y-155500000D01*
X241702380Y-155452380D01*
X241607142Y-155452380D01*
X241464285Y-155500000D01*
X241416666Y-155547619D01*
X241083333Y-155452380D02*
X240464285Y-155452380D01*
X240797619Y-155833333D01*
X240654761Y-155833333D01*
X240559523Y-155880952D01*
X240511904Y-155928571D01*
X240464285Y-156023809D01*
X240464285Y-156261904D01*
X240511904Y-156357142D01*
X240559523Y-156404761D01*
X240654761Y-156452380D01*
X240940476Y-156452380D01*
X241035714Y-156404761D01*
X241083333Y-156357142D01*
%TO.C,R24*%
X70392857Y-103702380D02*
X70726190Y-103226190D01*
X70964285Y-103702380D02*
X70964285Y-102702380D01*
X70583333Y-102702380D01*
X70488095Y-102750000D01*
X70440476Y-102797619D01*
X70392857Y-102892857D01*
X70392857Y-103035714D01*
X70440476Y-103130952D01*
X70488095Y-103178571D01*
X70583333Y-103226190D01*
X70964285Y-103226190D01*
X70011904Y-102797619D02*
X69964285Y-102750000D01*
X69869047Y-102702380D01*
X69630952Y-102702380D01*
X69535714Y-102750000D01*
X69488095Y-102797619D01*
X69440476Y-102892857D01*
X69440476Y-102988095D01*
X69488095Y-103130952D01*
X70059523Y-103702380D01*
X69440476Y-103702380D01*
X68583333Y-103035714D02*
X68583333Y-103702380D01*
X68821428Y-102654761D02*
X69059523Y-103369047D01*
X68440476Y-103369047D01*
%TO.C,C9*%
X196482142Y-206883333D02*
X196529761Y-206835714D01*
X196577380Y-206692857D01*
X196577380Y-206597619D01*
X196529761Y-206454761D01*
X196434523Y-206359523D01*
X196339285Y-206311904D01*
X196148809Y-206264285D01*
X196005952Y-206264285D01*
X195815476Y-206311904D01*
X195720238Y-206359523D01*
X195625000Y-206454761D01*
X195577380Y-206597619D01*
X195577380Y-206692857D01*
X195625000Y-206835714D01*
X195672619Y-206883333D01*
X196577380Y-207359523D02*
X196577380Y-207550000D01*
X196529761Y-207645238D01*
X196482142Y-207692857D01*
X196339285Y-207788095D01*
X196148809Y-207835714D01*
X195767857Y-207835714D01*
X195672619Y-207788095D01*
X195625000Y-207740476D01*
X195577380Y-207645238D01*
X195577380Y-207454761D01*
X195625000Y-207359523D01*
X195672619Y-207311904D01*
X195767857Y-207264285D01*
X196005952Y-207264285D01*
X196101190Y-207311904D01*
X196148809Y-207359523D01*
X196196428Y-207454761D01*
X196196428Y-207645238D01*
X196148809Y-207740476D01*
X196101190Y-207788095D01*
X196005952Y-207835714D01*
D11*
%TO.C,SW2*%
X247806666Y-136823809D02*
X247692380Y-136861904D01*
X247501904Y-136861904D01*
X247425714Y-136823809D01*
X247387619Y-136785714D01*
X247349523Y-136709523D01*
X247349523Y-136633333D01*
X247387619Y-136557142D01*
X247425714Y-136519047D01*
X247501904Y-136480952D01*
X247654285Y-136442857D01*
X247730476Y-136404761D01*
X247768571Y-136366666D01*
X247806666Y-136290476D01*
X247806666Y-136214285D01*
X247768571Y-136138095D01*
X247730476Y-136100000D01*
X247654285Y-136061904D01*
X247463809Y-136061904D01*
X247349523Y-136100000D01*
X247082857Y-136061904D02*
X246892380Y-136861904D01*
X246740000Y-136290476D01*
X246587619Y-136861904D01*
X246397142Y-136061904D01*
X246130476Y-136138095D02*
X246092380Y-136100000D01*
X246016190Y-136061904D01*
X245825714Y-136061904D01*
X245749523Y-136100000D01*
X245711428Y-136138095D01*
X245673333Y-136214285D01*
X245673333Y-136290476D01*
X245711428Y-136404761D01*
X246168571Y-136861904D01*
X245673333Y-136861904D01*
D10*
%TO.C,C37*%
X91492857Y-120107142D02*
X91540476Y-120154761D01*
X91683333Y-120202380D01*
X91778571Y-120202380D01*
X91921428Y-120154761D01*
X92016666Y-120059523D01*
X92064285Y-119964285D01*
X92111904Y-119773809D01*
X92111904Y-119630952D01*
X92064285Y-119440476D01*
X92016666Y-119345238D01*
X91921428Y-119250000D01*
X91778571Y-119202380D01*
X91683333Y-119202380D01*
X91540476Y-119250000D01*
X91492857Y-119297619D01*
X91159523Y-119202380D02*
X90540476Y-119202380D01*
X90873809Y-119583333D01*
X90730952Y-119583333D01*
X90635714Y-119630952D01*
X90588095Y-119678571D01*
X90540476Y-119773809D01*
X90540476Y-120011904D01*
X90588095Y-120107142D01*
X90635714Y-120154761D01*
X90730952Y-120202380D01*
X91016666Y-120202380D01*
X91111904Y-120154761D01*
X91159523Y-120107142D01*
X90207142Y-119202380D02*
X89540476Y-119202380D01*
X89969047Y-120202380D01*
%TO.C,J9*%
X101927380Y-218666666D02*
X102641666Y-218666666D01*
X102784523Y-218619047D01*
X102879761Y-218523809D01*
X102927380Y-218380952D01*
X102927380Y-218285714D01*
X102927380Y-219190476D02*
X102927380Y-219380952D01*
X102879761Y-219476190D01*
X102832142Y-219523809D01*
X102689285Y-219619047D01*
X102498809Y-219666666D01*
X102117857Y-219666666D01*
X102022619Y-219619047D01*
X101975000Y-219571428D01*
X101927380Y-219476190D01*
X101927380Y-219285714D01*
X101975000Y-219190476D01*
X102022619Y-219142857D01*
X102117857Y-219095238D01*
X102355952Y-219095238D01*
X102451190Y-219142857D01*
X102498809Y-219190476D01*
X102546428Y-219285714D01*
X102546428Y-219476190D01*
X102498809Y-219571428D01*
X102451190Y-219619047D01*
X102355952Y-219666666D01*
%TO.C,R1*%
X49452380Y-188333333D02*
X48976190Y-188000000D01*
X49452380Y-187761904D02*
X48452380Y-187761904D01*
X48452380Y-188142857D01*
X48500000Y-188238095D01*
X48547619Y-188285714D01*
X48642857Y-188333333D01*
X48785714Y-188333333D01*
X48880952Y-188285714D01*
X48928571Y-188238095D01*
X48976190Y-188142857D01*
X48976190Y-187761904D01*
X49452380Y-189285714D02*
X49452380Y-188714285D01*
X49452380Y-189000000D02*
X48452380Y-189000000D01*
X48595238Y-188904761D01*
X48690476Y-188809523D01*
X48738095Y-188714285D01*
%TO.C,U18*%
X170942380Y-161751904D02*
X171751904Y-161751904D01*
X171847142Y-161799523D01*
X171894761Y-161847142D01*
X171942380Y-161942380D01*
X171942380Y-162132857D01*
X171894761Y-162228095D01*
X171847142Y-162275714D01*
X171751904Y-162323333D01*
X170942380Y-162323333D01*
X171942380Y-163323333D02*
X171942380Y-162751904D01*
X171942380Y-163037619D02*
X170942380Y-163037619D01*
X171085238Y-162942380D01*
X171180476Y-162847142D01*
X171228095Y-162751904D01*
X171370952Y-163894761D02*
X171323333Y-163799523D01*
X171275714Y-163751904D01*
X171180476Y-163704285D01*
X171132857Y-163704285D01*
X171037619Y-163751904D01*
X170990000Y-163799523D01*
X170942380Y-163894761D01*
X170942380Y-164085238D01*
X170990000Y-164180476D01*
X171037619Y-164228095D01*
X171132857Y-164275714D01*
X171180476Y-164275714D01*
X171275714Y-164228095D01*
X171323333Y-164180476D01*
X171370952Y-164085238D01*
X171370952Y-163894761D01*
X171418571Y-163799523D01*
X171466190Y-163751904D01*
X171561428Y-163704285D01*
X171751904Y-163704285D01*
X171847142Y-163751904D01*
X171894761Y-163799523D01*
X171942380Y-163894761D01*
X171942380Y-164085238D01*
X171894761Y-164180476D01*
X171847142Y-164228095D01*
X171751904Y-164275714D01*
X171561428Y-164275714D01*
X171466190Y-164228095D01*
X171418571Y-164180476D01*
X171370952Y-164085238D01*
%TO.C,U12*%
X99204880Y-109051904D02*
X100014404Y-109051904D01*
X100109642Y-109099523D01*
X100157261Y-109147142D01*
X100204880Y-109242380D01*
X100204880Y-109432857D01*
X100157261Y-109528095D01*
X100109642Y-109575714D01*
X100014404Y-109623333D01*
X99204880Y-109623333D01*
X100204880Y-110623333D02*
X100204880Y-110051904D01*
X100204880Y-110337619D02*
X99204880Y-110337619D01*
X99347738Y-110242380D01*
X99442976Y-110147142D01*
X99490595Y-110051904D01*
X99300119Y-111004285D02*
X99252500Y-111051904D01*
X99204880Y-111147142D01*
X99204880Y-111385238D01*
X99252500Y-111480476D01*
X99300119Y-111528095D01*
X99395357Y-111575714D01*
X99490595Y-111575714D01*
X99633452Y-111528095D01*
X100204880Y-110956666D01*
X100204880Y-111575714D01*
%TO.C,U10*%
X173304880Y-108851904D02*
X174114404Y-108851904D01*
X174209642Y-108899523D01*
X174257261Y-108947142D01*
X174304880Y-109042380D01*
X174304880Y-109232857D01*
X174257261Y-109328095D01*
X174209642Y-109375714D01*
X174114404Y-109423333D01*
X173304880Y-109423333D01*
X174304880Y-110423333D02*
X174304880Y-109851904D01*
X174304880Y-110137619D02*
X173304880Y-110137619D01*
X173447738Y-110042380D01*
X173542976Y-109947142D01*
X173590595Y-109851904D01*
X173304880Y-111042380D02*
X173304880Y-111137619D01*
X173352500Y-111232857D01*
X173400119Y-111280476D01*
X173495357Y-111328095D01*
X173685833Y-111375714D01*
X173923928Y-111375714D01*
X174114404Y-111328095D01*
X174209642Y-111280476D01*
X174257261Y-111232857D01*
X174304880Y-111137619D01*
X174304880Y-111042380D01*
X174257261Y-110947142D01*
X174209642Y-110899523D01*
X174114404Y-110851904D01*
X173923928Y-110804285D01*
X173685833Y-110804285D01*
X173495357Y-110851904D01*
X173400119Y-110899523D01*
X173352500Y-110947142D01*
X173304880Y-111042380D01*
%TO.C,C19*%
X203642857Y-120107142D02*
X203690476Y-120154761D01*
X203833333Y-120202380D01*
X203928571Y-120202380D01*
X204071428Y-120154761D01*
X204166666Y-120059523D01*
X204214285Y-119964285D01*
X204261904Y-119773809D01*
X204261904Y-119630952D01*
X204214285Y-119440476D01*
X204166666Y-119345238D01*
X204071428Y-119250000D01*
X203928571Y-119202380D01*
X203833333Y-119202380D01*
X203690476Y-119250000D01*
X203642857Y-119297619D01*
X202690476Y-120202380D02*
X203261904Y-120202380D01*
X202976190Y-120202380D02*
X202976190Y-119202380D01*
X203071428Y-119345238D01*
X203166666Y-119440476D01*
X203261904Y-119488095D01*
X202214285Y-120202380D02*
X202023809Y-120202380D01*
X201928571Y-120154761D01*
X201880952Y-120107142D01*
X201785714Y-119964285D01*
X201738095Y-119773809D01*
X201738095Y-119392857D01*
X201785714Y-119297619D01*
X201833333Y-119250000D01*
X201928571Y-119202380D01*
X202119047Y-119202380D01*
X202214285Y-119250000D01*
X202261904Y-119297619D01*
X202309523Y-119392857D01*
X202309523Y-119630952D01*
X202261904Y-119726190D01*
X202214285Y-119773809D01*
X202119047Y-119821428D01*
X201928571Y-119821428D01*
X201833333Y-119773809D01*
X201785714Y-119726190D01*
X201738095Y-119630952D01*
%TO.C,R19*%
X138142857Y-135702380D02*
X138476190Y-135226190D01*
X138714285Y-135702380D02*
X138714285Y-134702380D01*
X138333333Y-134702380D01*
X138238095Y-134750000D01*
X138190476Y-134797619D01*
X138142857Y-134892857D01*
X138142857Y-135035714D01*
X138190476Y-135130952D01*
X138238095Y-135178571D01*
X138333333Y-135226190D01*
X138714285Y-135226190D01*
X137190476Y-135702380D02*
X137761904Y-135702380D01*
X137476190Y-135702380D02*
X137476190Y-134702380D01*
X137571428Y-134845238D01*
X137666666Y-134940476D01*
X137761904Y-134988095D01*
X136714285Y-135702380D02*
X136523809Y-135702380D01*
X136428571Y-135654761D01*
X136380952Y-135607142D01*
X136285714Y-135464285D01*
X136238095Y-135273809D01*
X136238095Y-134892857D01*
X136285714Y-134797619D01*
X136333333Y-134750000D01*
X136428571Y-134702380D01*
X136619047Y-134702380D01*
X136714285Y-134750000D01*
X136761904Y-134797619D01*
X136809523Y-134892857D01*
X136809523Y-135130952D01*
X136761904Y-135226190D01*
X136714285Y-135273809D01*
X136619047Y-135321428D01*
X136428571Y-135321428D01*
X136333333Y-135273809D01*
X136285714Y-135226190D01*
X136238095Y-135130952D01*
%TO.C,C6*%
X128266666Y-103607142D02*
X128314285Y-103654761D01*
X128457142Y-103702380D01*
X128552380Y-103702380D01*
X128695238Y-103654761D01*
X128790476Y-103559523D01*
X128838095Y-103464285D01*
X128885714Y-103273809D01*
X128885714Y-103130952D01*
X128838095Y-102940476D01*
X128790476Y-102845238D01*
X128695238Y-102750000D01*
X128552380Y-102702380D01*
X128457142Y-102702380D01*
X128314285Y-102750000D01*
X128266666Y-102797619D01*
X127409523Y-102702380D02*
X127600000Y-102702380D01*
X127695238Y-102750000D01*
X127742857Y-102797619D01*
X127838095Y-102940476D01*
X127885714Y-103130952D01*
X127885714Y-103511904D01*
X127838095Y-103607142D01*
X127790476Y-103654761D01*
X127695238Y-103702380D01*
X127504761Y-103702380D01*
X127409523Y-103654761D01*
X127361904Y-103607142D01*
X127314285Y-103511904D01*
X127314285Y-103273809D01*
X127361904Y-103178571D01*
X127409523Y-103130952D01*
X127504761Y-103083333D01*
X127695238Y-103083333D01*
X127790476Y-103130952D01*
X127838095Y-103178571D01*
X127885714Y-103273809D01*
%TO.C,U14*%
X238132380Y-207001904D02*
X238941904Y-207001904D01*
X239037142Y-207049523D01*
X239084761Y-207097142D01*
X239132380Y-207192380D01*
X239132380Y-207382857D01*
X239084761Y-207478095D01*
X239037142Y-207525714D01*
X238941904Y-207573333D01*
X238132380Y-207573333D01*
X239132380Y-208573333D02*
X239132380Y-208001904D01*
X239132380Y-208287619D02*
X238132380Y-208287619D01*
X238275238Y-208192380D01*
X238370476Y-208097142D01*
X238418095Y-208001904D01*
X238465714Y-209430476D02*
X239132380Y-209430476D01*
X238084761Y-209192380D02*
X238799047Y-208954285D01*
X238799047Y-209573333D01*
%TO.C,RR9*%
X185252380Y-133283333D02*
X184776190Y-132950000D01*
X185252380Y-132711904D02*
X184252380Y-132711904D01*
X184252380Y-133092857D01*
X184300000Y-133188095D01*
X184347619Y-133235714D01*
X184442857Y-133283333D01*
X184585714Y-133283333D01*
X184680952Y-133235714D01*
X184728571Y-133188095D01*
X184776190Y-133092857D01*
X184776190Y-132711904D01*
X185252380Y-134283333D02*
X184776190Y-133950000D01*
X185252380Y-133711904D02*
X184252380Y-133711904D01*
X184252380Y-134092857D01*
X184300000Y-134188095D01*
X184347619Y-134235714D01*
X184442857Y-134283333D01*
X184585714Y-134283333D01*
X184680952Y-134235714D01*
X184728571Y-134188095D01*
X184776190Y-134092857D01*
X184776190Y-133711904D01*
X185252380Y-134759523D02*
X185252380Y-134950000D01*
X185204761Y-135045238D01*
X185157142Y-135092857D01*
X185014285Y-135188095D01*
X184823809Y-135235714D01*
X184442857Y-135235714D01*
X184347619Y-135188095D01*
X184300000Y-135140476D01*
X184252380Y-135045238D01*
X184252380Y-134854761D01*
X184300000Y-134759523D01*
X184347619Y-134711904D01*
X184442857Y-134664285D01*
X184680952Y-134664285D01*
X184776190Y-134711904D01*
X184823809Y-134759523D01*
X184871428Y-134854761D01*
X184871428Y-135045238D01*
X184823809Y-135140476D01*
X184776190Y-135188095D01*
X184680952Y-135235714D01*
%TO.C,P7*%
X62452380Y-218261904D02*
X61452380Y-218261904D01*
X61452380Y-218642857D01*
X61500000Y-218738095D01*
X61547619Y-218785714D01*
X61642857Y-218833333D01*
X61785714Y-218833333D01*
X61880952Y-218785714D01*
X61928571Y-218738095D01*
X61976190Y-218642857D01*
X61976190Y-218261904D01*
X61452380Y-219166666D02*
X61452380Y-219833333D01*
X62452380Y-219404761D01*
D11*
%TO.C,SW_HEX_3_1*%
X175963809Y-136373809D02*
X175849523Y-136411904D01*
X175659047Y-136411904D01*
X175582857Y-136373809D01*
X175544761Y-136335714D01*
X175506666Y-136259523D01*
X175506666Y-136183333D01*
X175544761Y-136107142D01*
X175582857Y-136069047D01*
X175659047Y-136030952D01*
X175811428Y-135992857D01*
X175887619Y-135954761D01*
X175925714Y-135916666D01*
X175963809Y-135840476D01*
X175963809Y-135764285D01*
X175925714Y-135688095D01*
X175887619Y-135650000D01*
X175811428Y-135611904D01*
X175620952Y-135611904D01*
X175506666Y-135650000D01*
X175240000Y-135611904D02*
X175049523Y-136411904D01*
X174897142Y-135840476D01*
X174744761Y-136411904D01*
X174554285Y-135611904D01*
X174440000Y-136488095D02*
X173830476Y-136488095D01*
X173640000Y-136411904D02*
X173640000Y-135611904D01*
X173640000Y-135992857D02*
X173182857Y-135992857D01*
X173182857Y-136411904D02*
X173182857Y-135611904D01*
X172801904Y-135992857D02*
X172535238Y-135992857D01*
X172420952Y-136411904D02*
X172801904Y-136411904D01*
X172801904Y-135611904D01*
X172420952Y-135611904D01*
X172154285Y-135611904D02*
X171620952Y-136411904D01*
X171620952Y-135611904D02*
X172154285Y-136411904D01*
X171506666Y-136488095D02*
X170897142Y-136488095D01*
X170782857Y-135611904D02*
X170287619Y-135611904D01*
X170554285Y-135916666D01*
X170440000Y-135916666D01*
X170363809Y-135954761D01*
X170325714Y-135992857D01*
X170287619Y-136069047D01*
X170287619Y-136259523D01*
X170325714Y-136335714D01*
X170363809Y-136373809D01*
X170440000Y-136411904D01*
X170668571Y-136411904D01*
X170744761Y-136373809D01*
X170782857Y-136335714D01*
X170135238Y-136488095D02*
X169525714Y-136488095D01*
X168916190Y-136411904D02*
X169373333Y-136411904D01*
X169144761Y-136411904D02*
X169144761Y-135611904D01*
X169220952Y-135726190D01*
X169297142Y-135802380D01*
X169373333Y-135840476D01*
D10*
%TO.C,D2*%
X112152380Y-122628095D02*
X111152380Y-122628095D01*
X112152380Y-123199523D02*
X111580952Y-122770952D01*
X111152380Y-123199523D02*
X111723809Y-122628095D01*
X110052380Y-126351904D02*
X109052380Y-126351904D01*
X109052380Y-126590000D01*
X109100000Y-126732857D01*
X109195238Y-126828095D01*
X109290476Y-126875714D01*
X109480952Y-126923333D01*
X109623809Y-126923333D01*
X109814285Y-126875714D01*
X109909523Y-126828095D01*
X110004761Y-126732857D01*
X110052380Y-126590000D01*
X110052380Y-126351904D01*
X109147619Y-127304285D02*
X109100000Y-127351904D01*
X109052380Y-127447142D01*
X109052380Y-127685238D01*
X109100000Y-127780476D01*
X109147619Y-127828095D01*
X109242857Y-127875714D01*
X109338095Y-127875714D01*
X109480952Y-127828095D01*
X110052380Y-127256666D01*
X110052380Y-127875714D01*
%TO.C,RR2*%
X225702380Y-83583333D02*
X225226190Y-83250000D01*
X225702380Y-83011904D02*
X224702380Y-83011904D01*
X224702380Y-83392857D01*
X224750000Y-83488095D01*
X224797619Y-83535714D01*
X224892857Y-83583333D01*
X225035714Y-83583333D01*
X225130952Y-83535714D01*
X225178571Y-83488095D01*
X225226190Y-83392857D01*
X225226190Y-83011904D01*
X225702380Y-84583333D02*
X225226190Y-84250000D01*
X225702380Y-84011904D02*
X224702380Y-84011904D01*
X224702380Y-84392857D01*
X224750000Y-84488095D01*
X224797619Y-84535714D01*
X224892857Y-84583333D01*
X225035714Y-84583333D01*
X225130952Y-84535714D01*
X225178571Y-84488095D01*
X225226190Y-84392857D01*
X225226190Y-84011904D01*
X224797619Y-84964285D02*
X224750000Y-85011904D01*
X224702380Y-85107142D01*
X224702380Y-85345238D01*
X224750000Y-85440476D01*
X224797619Y-85488095D01*
X224892857Y-85535714D01*
X224988095Y-85535714D01*
X225130952Y-85488095D01*
X225702380Y-84916666D01*
X225702380Y-85535714D01*
%TO.C,C18*%
X85357142Y-108357142D02*
X85404761Y-108309523D01*
X85452380Y-108166666D01*
X85452380Y-108071428D01*
X85404761Y-107928571D01*
X85309523Y-107833333D01*
X85214285Y-107785714D01*
X85023809Y-107738095D01*
X84880952Y-107738095D01*
X84690476Y-107785714D01*
X84595238Y-107833333D01*
X84500000Y-107928571D01*
X84452380Y-108071428D01*
X84452380Y-108166666D01*
X84500000Y-108309523D01*
X84547619Y-108357142D01*
X85452380Y-109309523D02*
X85452380Y-108738095D01*
X85452380Y-109023809D02*
X84452380Y-109023809D01*
X84595238Y-108928571D01*
X84690476Y-108833333D01*
X84738095Y-108738095D01*
X84880952Y-109880952D02*
X84833333Y-109785714D01*
X84785714Y-109738095D01*
X84690476Y-109690476D01*
X84642857Y-109690476D01*
X84547619Y-109738095D01*
X84500000Y-109785714D01*
X84452380Y-109880952D01*
X84452380Y-110071428D01*
X84500000Y-110166666D01*
X84547619Y-110214285D01*
X84642857Y-110261904D01*
X84690476Y-110261904D01*
X84785714Y-110214285D01*
X84833333Y-110166666D01*
X84880952Y-110071428D01*
X84880952Y-109880952D01*
X84928571Y-109785714D01*
X84976190Y-109738095D01*
X85071428Y-109690476D01*
X85261904Y-109690476D01*
X85357142Y-109738095D01*
X85404761Y-109785714D01*
X85452380Y-109880952D01*
X85452380Y-110071428D01*
X85404761Y-110166666D01*
X85357142Y-110214285D01*
X85261904Y-110261904D01*
X85071428Y-110261904D01*
X84976190Y-110214285D01*
X84928571Y-110166666D01*
X84880952Y-110071428D01*
%TO.C,R4*%
X161416666Y-181242380D02*
X161750000Y-180766190D01*
X161988095Y-181242380D02*
X161988095Y-180242380D01*
X161607142Y-180242380D01*
X161511904Y-180290000D01*
X161464285Y-180337619D01*
X161416666Y-180432857D01*
X161416666Y-180575714D01*
X161464285Y-180670952D01*
X161511904Y-180718571D01*
X161607142Y-180766190D01*
X161988095Y-180766190D01*
X160559523Y-180575714D02*
X160559523Y-181242380D01*
X160797619Y-180194761D02*
X161035714Y-180909047D01*
X160416666Y-180909047D01*
D12*
%TO.C,BAR1*%
X248856071Y-90821666D02*
X248903690Y-90964523D01*
X248951309Y-91012142D01*
X249046547Y-91059761D01*
X249189404Y-91059761D01*
X249284642Y-91012142D01*
X249332261Y-90964523D01*
X249379880Y-90869285D01*
X249379880Y-90488333D01*
X248379880Y-90488333D01*
X248379880Y-90821666D01*
X248427500Y-90916904D01*
X248475119Y-90964523D01*
X248570357Y-91012142D01*
X248665595Y-91012142D01*
X248760833Y-90964523D01*
X248808452Y-90916904D01*
X248856071Y-90821666D01*
X248856071Y-90488333D01*
X249094166Y-91440714D02*
X249094166Y-91916904D01*
X249379880Y-91345476D02*
X248379880Y-91678809D01*
X249379880Y-92012142D01*
X249379880Y-92916904D02*
X248903690Y-92583571D01*
X249379880Y-92345476D02*
X248379880Y-92345476D01*
X248379880Y-92726428D01*
X248427500Y-92821666D01*
X248475119Y-92869285D01*
X248570357Y-92916904D01*
X248713214Y-92916904D01*
X248808452Y-92869285D01*
X248856071Y-92821666D01*
X248903690Y-92726428D01*
X248903690Y-92345476D01*
X249379880Y-93869285D02*
X249379880Y-93297857D01*
X249379880Y-93583571D02*
X248379880Y-93583571D01*
X248522738Y-93488333D01*
X248617976Y-93393095D01*
X248665595Y-93297857D01*
D10*
%TO.C,C16*%
X41607154Y-122357142D02*
X41654773Y-122309523D01*
X41702392Y-122166666D01*
X41702392Y-122071428D01*
X41654773Y-121928571D01*
X41559535Y-121833333D01*
X41464297Y-121785714D01*
X41273821Y-121738095D01*
X41130964Y-121738095D01*
X40940488Y-121785714D01*
X40845250Y-121833333D01*
X40750012Y-121928571D01*
X40702392Y-122071428D01*
X40702392Y-122166666D01*
X40750012Y-122309523D01*
X40797631Y-122357142D01*
X41702392Y-123309523D02*
X41702392Y-122738095D01*
X41702392Y-123023809D02*
X40702392Y-123023809D01*
X40845250Y-122928571D01*
X40940488Y-122833333D01*
X40988107Y-122738095D01*
X40702392Y-124166666D02*
X40702392Y-123976190D01*
X40750012Y-123880952D01*
X40797631Y-123833333D01*
X40940488Y-123738095D01*
X41130964Y-123690476D01*
X41511916Y-123690476D01*
X41607154Y-123738095D01*
X41654773Y-123785714D01*
X41702392Y-123880952D01*
X41702392Y-124071428D01*
X41654773Y-124166666D01*
X41607154Y-124214285D01*
X41511916Y-124261904D01*
X41273821Y-124261904D01*
X41178583Y-124214285D01*
X41130964Y-124166666D01*
X41083345Y-124071428D01*
X41083345Y-123880952D01*
X41130964Y-123785714D01*
X41178583Y-123738095D01*
X41273821Y-123690476D01*
%TO.C,U22*%
X95297380Y-141001904D02*
X96106904Y-141001904D01*
X96202142Y-141049523D01*
X96249761Y-141097142D01*
X96297380Y-141192380D01*
X96297380Y-141382857D01*
X96249761Y-141478095D01*
X96202142Y-141525714D01*
X96106904Y-141573333D01*
X95297380Y-141573333D01*
X95392619Y-142001904D02*
X95345000Y-142049523D01*
X95297380Y-142144761D01*
X95297380Y-142382857D01*
X95345000Y-142478095D01*
X95392619Y-142525714D01*
X95487857Y-142573333D01*
X95583095Y-142573333D01*
X95725952Y-142525714D01*
X96297380Y-141954285D01*
X96297380Y-142573333D01*
X95392619Y-142954285D02*
X95345000Y-143001904D01*
X95297380Y-143097142D01*
X95297380Y-143335238D01*
X95345000Y-143430476D01*
X95392619Y-143478095D01*
X95487857Y-143525714D01*
X95583095Y-143525714D01*
X95725952Y-143478095D01*
X96297380Y-142906666D01*
X96297380Y-143525714D01*
%TO.C,C28*%
X91492857Y-135607142D02*
X91540476Y-135654761D01*
X91683333Y-135702380D01*
X91778571Y-135702380D01*
X91921428Y-135654761D01*
X92016666Y-135559523D01*
X92064285Y-135464285D01*
X92111904Y-135273809D01*
X92111904Y-135130952D01*
X92064285Y-134940476D01*
X92016666Y-134845238D01*
X91921428Y-134750000D01*
X91778571Y-134702380D01*
X91683333Y-134702380D01*
X91540476Y-134750000D01*
X91492857Y-134797619D01*
X91111904Y-134797619D02*
X91064285Y-134750000D01*
X90969047Y-134702380D01*
X90730952Y-134702380D01*
X90635714Y-134750000D01*
X90588095Y-134797619D01*
X90540476Y-134892857D01*
X90540476Y-134988095D01*
X90588095Y-135130952D01*
X91159523Y-135702380D01*
X90540476Y-135702380D01*
X89969047Y-135130952D02*
X90064285Y-135083333D01*
X90111904Y-135035714D01*
X90159523Y-134940476D01*
X90159523Y-134892857D01*
X90111904Y-134797619D01*
X90064285Y-134750000D01*
X89969047Y-134702380D01*
X89778571Y-134702380D01*
X89683333Y-134750000D01*
X89635714Y-134797619D01*
X89588095Y-134892857D01*
X89588095Y-134940476D01*
X89635714Y-135035714D01*
X89683333Y-135083333D01*
X89778571Y-135130952D01*
X89969047Y-135130952D01*
X90064285Y-135178571D01*
X90111904Y-135226190D01*
X90159523Y-135321428D01*
X90159523Y-135511904D01*
X90111904Y-135607142D01*
X90064285Y-135654761D01*
X89969047Y-135702380D01*
X89778571Y-135702380D01*
X89683333Y-135654761D01*
X89635714Y-135607142D01*
X89588095Y-135511904D01*
X89588095Y-135321428D01*
X89635714Y-135226190D01*
X89683333Y-135178571D01*
X89778571Y-135130952D01*
%TO.C,R21*%
X60582857Y-103702380D02*
X60916190Y-103226190D01*
X61154285Y-103702380D02*
X61154285Y-102702380D01*
X60773333Y-102702380D01*
X60678095Y-102750000D01*
X60630476Y-102797619D01*
X60582857Y-102892857D01*
X60582857Y-103035714D01*
X60630476Y-103130952D01*
X60678095Y-103178571D01*
X60773333Y-103226190D01*
X61154285Y-103226190D01*
X60201904Y-102797619D02*
X60154285Y-102750000D01*
X60059047Y-102702380D01*
X59820952Y-102702380D01*
X59725714Y-102750000D01*
X59678095Y-102797619D01*
X59630476Y-102892857D01*
X59630476Y-102988095D01*
X59678095Y-103130952D01*
X60249523Y-103702380D01*
X59630476Y-103702380D01*
X58678095Y-103702380D02*
X59249523Y-103702380D01*
X58963809Y-103702380D02*
X58963809Y-102702380D01*
X59059047Y-102845238D01*
X59154285Y-102940476D01*
X59249523Y-102988095D01*
%TO.C,R14*%
X50202380Y-91857142D02*
X49726190Y-91523809D01*
X50202380Y-91285714D02*
X49202380Y-91285714D01*
X49202380Y-91666666D01*
X49250000Y-91761904D01*
X49297619Y-91809523D01*
X49392857Y-91857142D01*
X49535714Y-91857142D01*
X49630952Y-91809523D01*
X49678571Y-91761904D01*
X49726190Y-91666666D01*
X49726190Y-91285714D01*
X50202380Y-92809523D02*
X50202380Y-92238095D01*
X50202380Y-92523809D02*
X49202380Y-92523809D01*
X49345238Y-92428571D01*
X49440476Y-92333333D01*
X49488095Y-92238095D01*
X49535714Y-93666666D02*
X50202380Y-93666666D01*
X49154761Y-93428571D02*
X49869047Y-93190476D01*
X49869047Y-93809523D01*
%TO.C,C26*%
X165842857Y-119857142D02*
X165890476Y-119904761D01*
X166033333Y-119952380D01*
X166128571Y-119952380D01*
X166271428Y-119904761D01*
X166366666Y-119809523D01*
X166414285Y-119714285D01*
X166461904Y-119523809D01*
X166461904Y-119380952D01*
X166414285Y-119190476D01*
X166366666Y-119095238D01*
X166271428Y-119000000D01*
X166128571Y-118952380D01*
X166033333Y-118952380D01*
X165890476Y-119000000D01*
X165842857Y-119047619D01*
X165461904Y-119047619D02*
X165414285Y-119000000D01*
X165319047Y-118952380D01*
X165080952Y-118952380D01*
X164985714Y-119000000D01*
X164938095Y-119047619D01*
X164890476Y-119142857D01*
X164890476Y-119238095D01*
X164938095Y-119380952D01*
X165509523Y-119952380D01*
X164890476Y-119952380D01*
X164033333Y-118952380D02*
X164223809Y-118952380D01*
X164319047Y-119000000D01*
X164366666Y-119047619D01*
X164461904Y-119190476D01*
X164509523Y-119380952D01*
X164509523Y-119761904D01*
X164461904Y-119857142D01*
X164414285Y-119904761D01*
X164319047Y-119952380D01*
X164128571Y-119952380D01*
X164033333Y-119904761D01*
X163985714Y-119857142D01*
X163938095Y-119761904D01*
X163938095Y-119523809D01*
X163985714Y-119428571D01*
X164033333Y-119380952D01*
X164128571Y-119333333D01*
X164319047Y-119333333D01*
X164414285Y-119380952D01*
X164461904Y-119428571D01*
X164509523Y-119523809D01*
%TO.C,C21*%
X95607154Y-192857142D02*
X95654773Y-192809523D01*
X95702392Y-192666666D01*
X95702392Y-192571428D01*
X95654773Y-192428571D01*
X95559535Y-192333333D01*
X95464297Y-192285714D01*
X95273821Y-192238095D01*
X95130964Y-192238095D01*
X94940488Y-192285714D01*
X94845250Y-192333333D01*
X94750012Y-192428571D01*
X94702392Y-192571428D01*
X94702392Y-192666666D01*
X94750012Y-192809523D01*
X94797631Y-192857142D01*
X94797631Y-193238095D02*
X94750012Y-193285714D01*
X94702392Y-193380952D01*
X94702392Y-193619047D01*
X94750012Y-193714285D01*
X94797631Y-193761904D01*
X94892869Y-193809523D01*
X94988107Y-193809523D01*
X95130964Y-193761904D01*
X95702392Y-193190476D01*
X95702392Y-193809523D01*
X95702392Y-194761904D02*
X95702392Y-194190476D01*
X95702392Y-194476190D02*
X94702392Y-194476190D01*
X94845250Y-194380952D01*
X94940488Y-194285714D01*
X94988107Y-194190476D01*
%TO.C,C12*%
X102232657Y-197107142D02*
X102280276Y-197154761D01*
X102423133Y-197202380D01*
X102518371Y-197202380D01*
X102661228Y-197154761D01*
X102756466Y-197059523D01*
X102804085Y-196964285D01*
X102851704Y-196773809D01*
X102851704Y-196630952D01*
X102804085Y-196440476D01*
X102756466Y-196345238D01*
X102661228Y-196250000D01*
X102518371Y-196202380D01*
X102423133Y-196202380D01*
X102280276Y-196250000D01*
X102232657Y-196297619D01*
X101280276Y-197202380D02*
X101851704Y-197202380D01*
X101565990Y-197202380D02*
X101565990Y-196202380D01*
X101661228Y-196345238D01*
X101756466Y-196440476D01*
X101851704Y-196488095D01*
X100899323Y-196297619D02*
X100851704Y-196250000D01*
X100756466Y-196202380D01*
X100518371Y-196202380D01*
X100423133Y-196250000D01*
X100375514Y-196297619D01*
X100327895Y-196392857D01*
X100327895Y-196488095D01*
X100375514Y-196630952D01*
X100946942Y-197202380D01*
X100327895Y-197202380D01*
%TO.C,RR1*%
X262702380Y-83583333D02*
X262226190Y-83250000D01*
X262702380Y-83011904D02*
X261702380Y-83011904D01*
X261702380Y-83392857D01*
X261750000Y-83488095D01*
X261797619Y-83535714D01*
X261892857Y-83583333D01*
X262035714Y-83583333D01*
X262130952Y-83535714D01*
X262178571Y-83488095D01*
X262226190Y-83392857D01*
X262226190Y-83011904D01*
X262702380Y-84583333D02*
X262226190Y-84250000D01*
X262702380Y-84011904D02*
X261702380Y-84011904D01*
X261702380Y-84392857D01*
X261750000Y-84488095D01*
X261797619Y-84535714D01*
X261892857Y-84583333D01*
X262035714Y-84583333D01*
X262130952Y-84535714D01*
X262178571Y-84488095D01*
X262226190Y-84392857D01*
X262226190Y-84011904D01*
X262702380Y-85535714D02*
X262702380Y-84964285D01*
X262702380Y-85250000D02*
X261702380Y-85250000D01*
X261845238Y-85154761D01*
X261940476Y-85059523D01*
X261988095Y-84964285D01*
%TO.C,RR4*%
X151202380Y-83488333D02*
X150726190Y-83155000D01*
X151202380Y-82916904D02*
X150202380Y-82916904D01*
X150202380Y-83297857D01*
X150250000Y-83393095D01*
X150297619Y-83440714D01*
X150392857Y-83488333D01*
X150535714Y-83488333D01*
X150630952Y-83440714D01*
X150678571Y-83393095D01*
X150726190Y-83297857D01*
X150726190Y-82916904D01*
X151202380Y-84488333D02*
X150726190Y-84155000D01*
X151202380Y-83916904D02*
X150202380Y-83916904D01*
X150202380Y-84297857D01*
X150250000Y-84393095D01*
X150297619Y-84440714D01*
X150392857Y-84488333D01*
X150535714Y-84488333D01*
X150630952Y-84440714D01*
X150678571Y-84393095D01*
X150726190Y-84297857D01*
X150726190Y-83916904D01*
X150535714Y-85345476D02*
X151202380Y-85345476D01*
X150154761Y-85107380D02*
X150869047Y-84869285D01*
X150869047Y-85488333D01*
%TO.C,R17*%
X75202380Y-91607142D02*
X74726190Y-91273809D01*
X75202380Y-91035714D02*
X74202380Y-91035714D01*
X74202380Y-91416666D01*
X74250000Y-91511904D01*
X74297619Y-91559523D01*
X74392857Y-91607142D01*
X74535714Y-91607142D01*
X74630952Y-91559523D01*
X74678571Y-91511904D01*
X74726190Y-91416666D01*
X74726190Y-91035714D01*
X75202380Y-92559523D02*
X75202380Y-91988095D01*
X75202380Y-92273809D02*
X74202380Y-92273809D01*
X74345238Y-92178571D01*
X74440476Y-92083333D01*
X74488095Y-91988095D01*
X74202380Y-92892857D02*
X74202380Y-93559523D01*
X75202380Y-93130952D01*
%TO.C,U6*%
X173407380Y-125728095D02*
X174216904Y-125728095D01*
X174312142Y-125775714D01*
X174359761Y-125823333D01*
X174407380Y-125918571D01*
X174407380Y-126109047D01*
X174359761Y-126204285D01*
X174312142Y-126251904D01*
X174216904Y-126299523D01*
X173407380Y-126299523D01*
X173407380Y-127204285D02*
X173407380Y-127013809D01*
X173455000Y-126918571D01*
X173502619Y-126870952D01*
X173645476Y-126775714D01*
X173835952Y-126728095D01*
X174216904Y-126728095D01*
X174312142Y-126775714D01*
X174359761Y-126823333D01*
X174407380Y-126918571D01*
X174407380Y-127109047D01*
X174359761Y-127204285D01*
X174312142Y-127251904D01*
X174216904Y-127299523D01*
X173978809Y-127299523D01*
X173883571Y-127251904D01*
X173835952Y-127204285D01*
X173788333Y-127109047D01*
X173788333Y-126918571D01*
X173835952Y-126823333D01*
X173883571Y-126775714D01*
X173978809Y-126728095D01*
%TO.C,R9*%
X74452380Y-188333333D02*
X73976190Y-188000000D01*
X74452380Y-187761904D02*
X73452380Y-187761904D01*
X73452380Y-188142857D01*
X73500000Y-188238095D01*
X73547619Y-188285714D01*
X73642857Y-188333333D01*
X73785714Y-188333333D01*
X73880952Y-188285714D01*
X73928571Y-188238095D01*
X73976190Y-188142857D01*
X73976190Y-187761904D01*
X74452380Y-188809523D02*
X74452380Y-189000000D01*
X74404761Y-189095238D01*
X74357142Y-189142857D01*
X74214285Y-189238095D01*
X74023809Y-189285714D01*
X73642857Y-189285714D01*
X73547619Y-189238095D01*
X73500000Y-189190476D01*
X73452380Y-189095238D01*
X73452380Y-188904761D01*
X73500000Y-188809523D01*
X73547619Y-188761904D01*
X73642857Y-188714285D01*
X73880952Y-188714285D01*
X73976190Y-188761904D01*
X74023809Y-188809523D01*
X74071428Y-188904761D01*
X74071428Y-189095238D01*
X74023809Y-189190476D01*
X73976190Y-189238095D01*
X73880952Y-189285714D01*
%TO.C,C35*%
X91242857Y-156607142D02*
X91290476Y-156654761D01*
X91433333Y-156702380D01*
X91528571Y-156702380D01*
X91671428Y-156654761D01*
X91766666Y-156559523D01*
X91814285Y-156464285D01*
X91861904Y-156273809D01*
X91861904Y-156130952D01*
X91814285Y-155940476D01*
X91766666Y-155845238D01*
X91671428Y-155750000D01*
X91528571Y-155702380D01*
X91433333Y-155702380D01*
X91290476Y-155750000D01*
X91242857Y-155797619D01*
X90909523Y-155702380D02*
X90290476Y-155702380D01*
X90623809Y-156083333D01*
X90480952Y-156083333D01*
X90385714Y-156130952D01*
X90338095Y-156178571D01*
X90290476Y-156273809D01*
X90290476Y-156511904D01*
X90338095Y-156607142D01*
X90385714Y-156654761D01*
X90480952Y-156702380D01*
X90766666Y-156702380D01*
X90861904Y-156654761D01*
X90909523Y-156607142D01*
X89385714Y-155702380D02*
X89861904Y-155702380D01*
X89909523Y-156178571D01*
X89861904Y-156130952D01*
X89766666Y-156083333D01*
X89528571Y-156083333D01*
X89433333Y-156130952D01*
X89385714Y-156178571D01*
X89338095Y-156273809D01*
X89338095Y-156511904D01*
X89385714Y-156607142D01*
X89433333Y-156654761D01*
X89528571Y-156702380D01*
X89766666Y-156702380D01*
X89861904Y-156654761D01*
X89909523Y-156607142D01*
%TO.C,R15*%
X211952857Y-103702380D02*
X212286190Y-103226190D01*
X212524285Y-103702380D02*
X212524285Y-102702380D01*
X212143333Y-102702380D01*
X212048095Y-102750000D01*
X212000476Y-102797619D01*
X211952857Y-102892857D01*
X211952857Y-103035714D01*
X212000476Y-103130952D01*
X212048095Y-103178571D01*
X212143333Y-103226190D01*
X212524285Y-103226190D01*
X211000476Y-103702380D02*
X211571904Y-103702380D01*
X211286190Y-103702380D02*
X211286190Y-102702380D01*
X211381428Y-102845238D01*
X211476666Y-102940476D01*
X211571904Y-102988095D01*
X210095714Y-102702380D02*
X210571904Y-102702380D01*
X210619523Y-103178571D01*
X210571904Y-103130952D01*
X210476666Y-103083333D01*
X210238571Y-103083333D01*
X210143333Y-103130952D01*
X210095714Y-103178571D01*
X210048095Y-103273809D01*
X210048095Y-103511904D01*
X210095714Y-103607142D01*
X210143333Y-103654761D01*
X210238571Y-103702380D01*
X210476666Y-103702380D01*
X210571904Y-103654761D01*
X210619523Y-103607142D01*
%TO.C,RR3*%
X188202380Y-83083333D02*
X187726190Y-82750000D01*
X188202380Y-82511904D02*
X187202380Y-82511904D01*
X187202380Y-82892857D01*
X187250000Y-82988095D01*
X187297619Y-83035714D01*
X187392857Y-83083333D01*
X187535714Y-83083333D01*
X187630952Y-83035714D01*
X187678571Y-82988095D01*
X187726190Y-82892857D01*
X187726190Y-82511904D01*
X188202380Y-84083333D02*
X187726190Y-83750000D01*
X188202380Y-83511904D02*
X187202380Y-83511904D01*
X187202380Y-83892857D01*
X187250000Y-83988095D01*
X187297619Y-84035714D01*
X187392857Y-84083333D01*
X187535714Y-84083333D01*
X187630952Y-84035714D01*
X187678571Y-83988095D01*
X187726190Y-83892857D01*
X187726190Y-83511904D01*
X187202380Y-84416666D02*
X187202380Y-85035714D01*
X187583333Y-84702380D01*
X187583333Y-84845238D01*
X187630952Y-84940476D01*
X187678571Y-84988095D01*
X187773809Y-85035714D01*
X188011904Y-85035714D01*
X188107142Y-84988095D01*
X188154761Y-84940476D01*
X188202380Y-84845238D01*
X188202380Y-84559523D01*
X188154761Y-84464285D01*
X188107142Y-84416666D01*
%TO.C,R3*%
X181416666Y-181242380D02*
X181750000Y-180766190D01*
X181988095Y-181242380D02*
X181988095Y-180242380D01*
X181607142Y-180242380D01*
X181511904Y-180290000D01*
X181464285Y-180337619D01*
X181416666Y-180432857D01*
X181416666Y-180575714D01*
X181464285Y-180670952D01*
X181511904Y-180718571D01*
X181607142Y-180766190D01*
X181988095Y-180766190D01*
X181083333Y-180242380D02*
X180464285Y-180242380D01*
X180797619Y-180623333D01*
X180654761Y-180623333D01*
X180559523Y-180670952D01*
X180511904Y-180718571D01*
X180464285Y-180813809D01*
X180464285Y-181051904D01*
X180511904Y-181147142D01*
X180559523Y-181194761D01*
X180654761Y-181242380D01*
X180940476Y-181242380D01*
X181035714Y-181194761D01*
X181083333Y-181147142D01*
%TO.C,C13*%
X41607154Y-105607142D02*
X41654773Y-105559523D01*
X41702392Y-105416666D01*
X41702392Y-105321428D01*
X41654773Y-105178571D01*
X41559535Y-105083333D01*
X41464297Y-105035714D01*
X41273821Y-104988095D01*
X41130964Y-104988095D01*
X40940488Y-105035714D01*
X40845250Y-105083333D01*
X40750012Y-105178571D01*
X40702392Y-105321428D01*
X40702392Y-105416666D01*
X40750012Y-105559523D01*
X40797631Y-105607142D01*
X41702392Y-106559523D02*
X41702392Y-105988095D01*
X41702392Y-106273809D02*
X40702392Y-106273809D01*
X40845250Y-106178571D01*
X40940488Y-106083333D01*
X40988107Y-105988095D01*
X40702392Y-106892857D02*
X40702392Y-107511904D01*
X41083345Y-107178571D01*
X41083345Y-107321428D01*
X41130964Y-107416666D01*
X41178583Y-107464285D01*
X41273821Y-107511904D01*
X41511916Y-107511904D01*
X41607154Y-107464285D01*
X41654773Y-107416666D01*
X41702392Y-107321428D01*
X41702392Y-107035714D01*
X41654773Y-106940476D01*
X41607154Y-106892857D01*
%TO.C,JP1*%
X110083333Y-143202380D02*
X110083333Y-143916666D01*
X110130952Y-144059523D01*
X110226190Y-144154761D01*
X110369047Y-144202380D01*
X110464285Y-144202380D01*
X109607142Y-144202380D02*
X109607142Y-143202380D01*
X109226190Y-143202380D01*
X109130952Y-143250000D01*
X109083333Y-143297619D01*
X109035714Y-143392857D01*
X109035714Y-143535714D01*
X109083333Y-143630952D01*
X109130952Y-143678571D01*
X109226190Y-143726190D01*
X109607142Y-143726190D01*
X108083333Y-144202380D02*
X108654761Y-144202380D01*
X108369047Y-144202380D02*
X108369047Y-143202380D01*
X108464285Y-143345238D01*
X108559523Y-143440476D01*
X108654761Y-143488095D01*
%TO.C,SW1*%
X179058333Y-198054761D02*
X178915476Y-198102380D01*
X178677380Y-198102380D01*
X178582142Y-198054761D01*
X178534523Y-198007142D01*
X178486904Y-197911904D01*
X178486904Y-197816666D01*
X178534523Y-197721428D01*
X178582142Y-197673809D01*
X178677380Y-197626190D01*
X178867857Y-197578571D01*
X178963095Y-197530952D01*
X179010714Y-197483333D01*
X179058333Y-197388095D01*
X179058333Y-197292857D01*
X179010714Y-197197619D01*
X178963095Y-197150000D01*
X178867857Y-197102380D01*
X178629761Y-197102380D01*
X178486904Y-197150000D01*
X178153571Y-197102380D02*
X177915476Y-198102380D01*
X177725000Y-197388095D01*
X177534523Y-198102380D01*
X177296428Y-197102380D01*
X176391666Y-198102380D02*
X176963095Y-198102380D01*
X176677380Y-198102380D02*
X176677380Y-197102380D01*
X176772619Y-197245238D01*
X176867857Y-197340476D01*
X176963095Y-197388095D01*
%TO.C,C1*%
X51631466Y-196857142D02*
X51679085Y-196904761D01*
X51821942Y-196952380D01*
X51917180Y-196952380D01*
X52060038Y-196904761D01*
X52155276Y-196809523D01*
X52202895Y-196714285D01*
X52250514Y-196523809D01*
X52250514Y-196380952D01*
X52202895Y-196190476D01*
X52155276Y-196095238D01*
X52060038Y-196000000D01*
X51917180Y-195952380D01*
X51821942Y-195952380D01*
X51679085Y-196000000D01*
X51631466Y-196047619D01*
X50679085Y-196952380D02*
X51250514Y-196952380D01*
X50964800Y-196952380D02*
X50964800Y-195952380D01*
X51060038Y-196095238D01*
X51155276Y-196190476D01*
X51250514Y-196238095D01*
%TO.C,R23*%
X60642857Y-120202380D02*
X60976190Y-119726190D01*
X61214285Y-120202380D02*
X61214285Y-119202380D01*
X60833333Y-119202380D01*
X60738095Y-119250000D01*
X60690476Y-119297619D01*
X60642857Y-119392857D01*
X60642857Y-119535714D01*
X60690476Y-119630952D01*
X60738095Y-119678571D01*
X60833333Y-119726190D01*
X61214285Y-119726190D01*
X60261904Y-119297619D02*
X60214285Y-119250000D01*
X60119047Y-119202380D01*
X59880952Y-119202380D01*
X59785714Y-119250000D01*
X59738095Y-119297619D01*
X59690476Y-119392857D01*
X59690476Y-119488095D01*
X59738095Y-119630952D01*
X60309523Y-120202380D01*
X59690476Y-120202380D01*
X59357142Y-119202380D02*
X58738095Y-119202380D01*
X59071428Y-119583333D01*
X58928571Y-119583333D01*
X58833333Y-119630952D01*
X58785714Y-119678571D01*
X58738095Y-119773809D01*
X58738095Y-120011904D01*
X58785714Y-120107142D01*
X58833333Y-120154761D01*
X58928571Y-120202380D01*
X59214285Y-120202380D01*
X59309523Y-120154761D01*
X59357142Y-120107142D01*
D12*
%TO.C,BAR2*%
X212278571Y-90821666D02*
X212326190Y-90964523D01*
X212373809Y-91012142D01*
X212469047Y-91059761D01*
X212611904Y-91059761D01*
X212707142Y-91012142D01*
X212754761Y-90964523D01*
X212802380Y-90869285D01*
X212802380Y-90488333D01*
X211802380Y-90488333D01*
X211802380Y-90821666D01*
X211850000Y-90916904D01*
X211897619Y-90964523D01*
X211992857Y-91012142D01*
X212088095Y-91012142D01*
X212183333Y-90964523D01*
X212230952Y-90916904D01*
X212278571Y-90821666D01*
X212278571Y-90488333D01*
X212516666Y-91440714D02*
X212516666Y-91916904D01*
X212802380Y-91345476D02*
X211802380Y-91678809D01*
X212802380Y-92012142D01*
X212802380Y-92916904D02*
X212326190Y-92583571D01*
X212802380Y-92345476D02*
X211802380Y-92345476D01*
X211802380Y-92726428D01*
X211850000Y-92821666D01*
X211897619Y-92869285D01*
X211992857Y-92916904D01*
X212135714Y-92916904D01*
X212230952Y-92869285D01*
X212278571Y-92821666D01*
X212326190Y-92726428D01*
X212326190Y-92345476D01*
X211897619Y-93297857D02*
X211850000Y-93345476D01*
X211802380Y-93440714D01*
X211802380Y-93678809D01*
X211850000Y-93774047D01*
X211897619Y-93821666D01*
X211992857Y-93869285D01*
X212088095Y-93869285D01*
X212230952Y-93821666D01*
X212802380Y-93250238D01*
X212802380Y-93869285D01*
D10*
%TO.C,C25*%
X240142857Y-103607142D02*
X240190476Y-103654761D01*
X240333333Y-103702380D01*
X240428571Y-103702380D01*
X240571428Y-103654761D01*
X240666666Y-103559523D01*
X240714285Y-103464285D01*
X240761904Y-103273809D01*
X240761904Y-103130952D01*
X240714285Y-102940476D01*
X240666666Y-102845238D01*
X240571428Y-102750000D01*
X240428571Y-102702380D01*
X240333333Y-102702380D01*
X240190476Y-102750000D01*
X240142857Y-102797619D01*
X239761904Y-102797619D02*
X239714285Y-102750000D01*
X239619047Y-102702380D01*
X239380952Y-102702380D01*
X239285714Y-102750000D01*
X239238095Y-102797619D01*
X239190476Y-102892857D01*
X239190476Y-102988095D01*
X239238095Y-103130952D01*
X239809523Y-103702380D01*
X239190476Y-103702380D01*
X238285714Y-102702380D02*
X238761904Y-102702380D01*
X238809523Y-103178571D01*
X238761904Y-103130952D01*
X238666666Y-103083333D01*
X238428571Y-103083333D01*
X238333333Y-103130952D01*
X238285714Y-103178571D01*
X238238095Y-103273809D01*
X238238095Y-103511904D01*
X238285714Y-103607142D01*
X238333333Y-103654761D01*
X238428571Y-103702380D01*
X238666666Y-103702380D01*
X238761904Y-103654761D01*
X238809523Y-103607142D01*
%TO.C,R20*%
X148202857Y-135702380D02*
X148536190Y-135226190D01*
X148774285Y-135702380D02*
X148774285Y-134702380D01*
X148393333Y-134702380D01*
X148298095Y-134750000D01*
X148250476Y-134797619D01*
X148202857Y-134892857D01*
X148202857Y-135035714D01*
X148250476Y-135130952D01*
X148298095Y-135178571D01*
X148393333Y-135226190D01*
X148774285Y-135226190D01*
X147821904Y-134797619D02*
X147774285Y-134750000D01*
X147679047Y-134702380D01*
X147440952Y-134702380D01*
X147345714Y-134750000D01*
X147298095Y-134797619D01*
X147250476Y-134892857D01*
X147250476Y-134988095D01*
X147298095Y-135130952D01*
X147869523Y-135702380D01*
X147250476Y-135702380D01*
X146631428Y-134702380D02*
X146536190Y-134702380D01*
X146440952Y-134750000D01*
X146393333Y-134797619D01*
X146345714Y-134892857D01*
X146298095Y-135083333D01*
X146298095Y-135321428D01*
X146345714Y-135511904D01*
X146393333Y-135607142D01*
X146440952Y-135654761D01*
X146536190Y-135702380D01*
X146631428Y-135702380D01*
X146726666Y-135654761D01*
X146774285Y-135607142D01*
X146821904Y-135511904D01*
X146869523Y-135321428D01*
X146869523Y-135083333D01*
X146821904Y-134892857D01*
X146774285Y-134797619D01*
X146726666Y-134750000D01*
X146631428Y-134702380D01*
D11*
%TO.C,SW_HEX_1_1*%
X213513809Y-136823809D02*
X213399523Y-136861904D01*
X213209047Y-136861904D01*
X213132857Y-136823809D01*
X213094761Y-136785714D01*
X213056666Y-136709523D01*
X213056666Y-136633333D01*
X213094761Y-136557142D01*
X213132857Y-136519047D01*
X213209047Y-136480952D01*
X213361428Y-136442857D01*
X213437619Y-136404761D01*
X213475714Y-136366666D01*
X213513809Y-136290476D01*
X213513809Y-136214285D01*
X213475714Y-136138095D01*
X213437619Y-136100000D01*
X213361428Y-136061904D01*
X213170952Y-136061904D01*
X213056666Y-136100000D01*
X212790000Y-136061904D02*
X212599523Y-136861904D01*
X212447142Y-136290476D01*
X212294761Y-136861904D01*
X212104285Y-136061904D01*
X211990000Y-136938095D02*
X211380476Y-136938095D01*
X211190000Y-136861904D02*
X211190000Y-136061904D01*
X211190000Y-136442857D02*
X210732857Y-136442857D01*
X210732857Y-136861904D02*
X210732857Y-136061904D01*
X210351904Y-136442857D02*
X210085238Y-136442857D01*
X209970952Y-136861904D02*
X210351904Y-136861904D01*
X210351904Y-136061904D01*
X209970952Y-136061904D01*
X209704285Y-136061904D02*
X209170952Y-136861904D01*
X209170952Y-136061904D02*
X209704285Y-136861904D01*
X209056666Y-136938095D02*
X208447142Y-136938095D01*
X207837619Y-136861904D02*
X208294761Y-136861904D01*
X208066190Y-136861904D02*
X208066190Y-136061904D01*
X208142380Y-136176190D01*
X208218571Y-136252380D01*
X208294761Y-136290476D01*
X207685238Y-136938095D02*
X207075714Y-136938095D01*
X206466190Y-136861904D02*
X206923333Y-136861904D01*
X206694761Y-136861904D02*
X206694761Y-136061904D01*
X206770952Y-136176190D01*
X206847142Y-136252380D01*
X206923333Y-136290476D01*
D10*
%TO.C,C4*%
X51666666Y-120107142D02*
X51714285Y-120154761D01*
X51857142Y-120202380D01*
X51952380Y-120202380D01*
X52095238Y-120154761D01*
X52190476Y-120059523D01*
X52238095Y-119964285D01*
X52285714Y-119773809D01*
X52285714Y-119630952D01*
X52238095Y-119440476D01*
X52190476Y-119345238D01*
X52095238Y-119250000D01*
X51952380Y-119202380D01*
X51857142Y-119202380D01*
X51714285Y-119250000D01*
X51666666Y-119297619D01*
X50809523Y-119535714D02*
X50809523Y-120202380D01*
X51047619Y-119154761D02*
X51285714Y-119869047D01*
X50666666Y-119869047D01*
D13*
%TO.C,C2*%
X137021428Y-156873333D02*
X137057619Y-156837142D01*
X137093809Y-156728571D01*
X137093809Y-156656190D01*
X137057619Y-156547619D01*
X136985238Y-156475238D01*
X136912857Y-156439047D01*
X136768095Y-156402857D01*
X136659523Y-156402857D01*
X136514761Y-156439047D01*
X136442380Y-156475238D01*
X136370000Y-156547619D01*
X136333809Y-156656190D01*
X136333809Y-156728571D01*
X136370000Y-156837142D01*
X136406190Y-156873333D01*
X136406190Y-157162857D02*
X136370000Y-157199047D01*
X136333809Y-157271428D01*
X136333809Y-157452380D01*
X136370000Y-157524761D01*
X136406190Y-157560952D01*
X136478571Y-157597142D01*
X136550952Y-157597142D01*
X136659523Y-157560952D01*
X137093809Y-157126666D01*
X137093809Y-157597142D01*
D10*
%TO.C,U5*%
X211129880Y-125928095D02*
X211939404Y-125928095D01*
X212034642Y-125975714D01*
X212082261Y-126023333D01*
X212129880Y-126118571D01*
X212129880Y-126309047D01*
X212082261Y-126404285D01*
X212034642Y-126451904D01*
X211939404Y-126499523D01*
X211129880Y-126499523D01*
X211129880Y-127451904D02*
X211129880Y-126975714D01*
X211606071Y-126928095D01*
X211558452Y-126975714D01*
X211510833Y-127070952D01*
X211510833Y-127309047D01*
X211558452Y-127404285D01*
X211606071Y-127451904D01*
X211701309Y-127499523D01*
X211939404Y-127499523D01*
X212034642Y-127451904D01*
X212082261Y-127404285D01*
X212129880Y-127309047D01*
X212129880Y-127070952D01*
X212082261Y-126975714D01*
X212034642Y-126928095D01*
%TO.C,R13*%
X43952380Y-91607142D02*
X43476190Y-91273809D01*
X43952380Y-91035714D02*
X42952380Y-91035714D01*
X42952380Y-91416666D01*
X43000000Y-91511904D01*
X43047619Y-91559523D01*
X43142857Y-91607142D01*
X43285714Y-91607142D01*
X43380952Y-91559523D01*
X43428571Y-91511904D01*
X43476190Y-91416666D01*
X43476190Y-91035714D01*
X43952380Y-92559523D02*
X43952380Y-91988095D01*
X43952380Y-92273809D02*
X42952380Y-92273809D01*
X43095238Y-92178571D01*
X43190476Y-92083333D01*
X43238095Y-91988095D01*
X42952380Y-92892857D02*
X42952380Y-93511904D01*
X43333333Y-93178571D01*
X43333333Y-93321428D01*
X43380952Y-93416666D01*
X43428571Y-93464285D01*
X43523809Y-93511904D01*
X43761904Y-93511904D01*
X43857142Y-93464285D01*
X43904761Y-93416666D01*
X43952380Y-93321428D01*
X43952380Y-93035714D01*
X43904761Y-92940476D01*
X43857142Y-92892857D01*
%TO.C,U16*%
X57947380Y-162001904D02*
X58756904Y-162001904D01*
X58852142Y-162049523D01*
X58899761Y-162097142D01*
X58947380Y-162192380D01*
X58947380Y-162382857D01*
X58899761Y-162478095D01*
X58852142Y-162525714D01*
X58756904Y-162573333D01*
X57947380Y-162573333D01*
X58947380Y-163573333D02*
X58947380Y-163001904D01*
X58947380Y-163287619D02*
X57947380Y-163287619D01*
X58090238Y-163192380D01*
X58185476Y-163097142D01*
X58233095Y-163001904D01*
X57947380Y-164430476D02*
X57947380Y-164240000D01*
X57995000Y-164144761D01*
X58042619Y-164097142D01*
X58185476Y-164001904D01*
X58375952Y-163954285D01*
X58756904Y-163954285D01*
X58852142Y-164001904D01*
X58899761Y-164049523D01*
X58947380Y-164144761D01*
X58947380Y-164335238D01*
X58899761Y-164430476D01*
X58852142Y-164478095D01*
X58756904Y-164525714D01*
X58518809Y-164525714D01*
X58423571Y-164478095D01*
X58375952Y-164430476D01*
X58328333Y-164335238D01*
X58328333Y-164144761D01*
X58375952Y-164049523D01*
X58423571Y-164001904D01*
X58518809Y-163954285D01*
%TO.C,U1*%
X55912180Y-202728095D02*
X56721704Y-202728095D01*
X56816942Y-202775714D01*
X56864561Y-202823333D01*
X56912180Y-202918571D01*
X56912180Y-203109047D01*
X56864561Y-203204285D01*
X56816942Y-203251904D01*
X56721704Y-203299523D01*
X55912180Y-203299523D01*
X56912180Y-204299523D02*
X56912180Y-203728095D01*
X56912180Y-204013809D02*
X55912180Y-204013809D01*
X56055038Y-203918571D01*
X56150276Y-203823333D01*
X56197895Y-203728095D01*
%TO.C,R22*%
X60642857Y-140702380D02*
X60976190Y-140226190D01*
X61214285Y-140702380D02*
X61214285Y-139702380D01*
X60833333Y-139702380D01*
X60738095Y-139750000D01*
X60690476Y-139797619D01*
X60642857Y-139892857D01*
X60642857Y-140035714D01*
X60690476Y-140130952D01*
X60738095Y-140178571D01*
X60833333Y-140226190D01*
X61214285Y-140226190D01*
X60261904Y-139797619D02*
X60214285Y-139750000D01*
X60119047Y-139702380D01*
X59880952Y-139702380D01*
X59785714Y-139750000D01*
X59738095Y-139797619D01*
X59690476Y-139892857D01*
X59690476Y-139988095D01*
X59738095Y-140130952D01*
X60309523Y-140702380D01*
X59690476Y-140702380D01*
X59309523Y-139797619D02*
X59261904Y-139750000D01*
X59166666Y-139702380D01*
X58928571Y-139702380D01*
X58833333Y-139750000D01*
X58785714Y-139797619D01*
X58738095Y-139892857D01*
X58738095Y-139988095D01*
X58785714Y-140130952D01*
X59357142Y-140702380D01*
X58738095Y-140702380D01*
%TO.C,U19*%
X133442380Y-162001904D02*
X134251904Y-162001904D01*
X134347142Y-162049523D01*
X134394761Y-162097142D01*
X134442380Y-162192380D01*
X134442380Y-162382857D01*
X134394761Y-162478095D01*
X134347142Y-162525714D01*
X134251904Y-162573333D01*
X133442380Y-162573333D01*
X134442380Y-163573333D02*
X134442380Y-163001904D01*
X134442380Y-163287619D02*
X133442380Y-163287619D01*
X133585238Y-163192380D01*
X133680476Y-163097142D01*
X133728095Y-163001904D01*
X134442380Y-164049523D02*
X134442380Y-164240000D01*
X134394761Y-164335238D01*
X134347142Y-164382857D01*
X134204285Y-164478095D01*
X134013809Y-164525714D01*
X133632857Y-164525714D01*
X133537619Y-164478095D01*
X133490000Y-164430476D01*
X133442380Y-164335238D01*
X133442380Y-164144761D01*
X133490000Y-164049523D01*
X133537619Y-164001904D01*
X133632857Y-163954285D01*
X133870952Y-163954285D01*
X133966190Y-164001904D01*
X134013809Y-164049523D01*
X134061428Y-164144761D01*
X134061428Y-164335238D01*
X134013809Y-164430476D01*
X133966190Y-164478095D01*
X133870952Y-164525714D01*
%TO.C,R16*%
X62702380Y-91607142D02*
X62226190Y-91273809D01*
X62702380Y-91035714D02*
X61702380Y-91035714D01*
X61702380Y-91416666D01*
X61750000Y-91511904D01*
X61797619Y-91559523D01*
X61892857Y-91607142D01*
X62035714Y-91607142D01*
X62130952Y-91559523D01*
X62178571Y-91511904D01*
X62226190Y-91416666D01*
X62226190Y-91035714D01*
X62702380Y-92559523D02*
X62702380Y-91988095D01*
X62702380Y-92273809D02*
X61702380Y-92273809D01*
X61845238Y-92178571D01*
X61940476Y-92083333D01*
X61988095Y-91988095D01*
X61702380Y-93416666D02*
X61702380Y-93226190D01*
X61750000Y-93130952D01*
X61797619Y-93083333D01*
X61940476Y-92988095D01*
X62130952Y-92940476D01*
X62511904Y-92940476D01*
X62607142Y-92988095D01*
X62654761Y-93035714D01*
X62702380Y-93130952D01*
X62702380Y-93321428D01*
X62654761Y-93416666D01*
X62607142Y-93464285D01*
X62511904Y-93511904D01*
X62273809Y-93511904D01*
X62178571Y-93464285D01*
X62130952Y-93416666D01*
X62083333Y-93321428D01*
X62083333Y-93130952D01*
X62130952Y-93035714D01*
X62178571Y-92988095D01*
X62273809Y-92940476D01*
%TO.C,RR6*%
X111452380Y-150333333D02*
X110976190Y-150000000D01*
X111452380Y-149761904D02*
X110452380Y-149761904D01*
X110452380Y-150142857D01*
X110500000Y-150238095D01*
X110547619Y-150285714D01*
X110642857Y-150333333D01*
X110785714Y-150333333D01*
X110880952Y-150285714D01*
X110928571Y-150238095D01*
X110976190Y-150142857D01*
X110976190Y-149761904D01*
X111452380Y-151333333D02*
X110976190Y-151000000D01*
X111452380Y-150761904D02*
X110452380Y-150761904D01*
X110452380Y-151142857D01*
X110500000Y-151238095D01*
X110547619Y-151285714D01*
X110642857Y-151333333D01*
X110785714Y-151333333D01*
X110880952Y-151285714D01*
X110928571Y-151238095D01*
X110976190Y-151142857D01*
X110976190Y-150761904D01*
X110452380Y-152190476D02*
X110452380Y-152000000D01*
X110500000Y-151904761D01*
X110547619Y-151857142D01*
X110690476Y-151761904D01*
X110880952Y-151714285D01*
X111261904Y-151714285D01*
X111357142Y-151761904D01*
X111404761Y-151809523D01*
X111452380Y-151904761D01*
X111452380Y-152095238D01*
X111404761Y-152190476D01*
X111357142Y-152238095D01*
X111261904Y-152285714D01*
X111023809Y-152285714D01*
X110928571Y-152238095D01*
X110880952Y-152190476D01*
X110833333Y-152095238D01*
X110833333Y-151904761D01*
X110880952Y-151809523D01*
X110928571Y-151761904D01*
X111023809Y-151714285D01*
%TO.C,C11*%
X128492857Y-156607142D02*
X128540476Y-156654761D01*
X128683333Y-156702380D01*
X128778571Y-156702380D01*
X128921428Y-156654761D01*
X129016666Y-156559523D01*
X129064285Y-156464285D01*
X129111904Y-156273809D01*
X129111904Y-156130952D01*
X129064285Y-155940476D01*
X129016666Y-155845238D01*
X128921428Y-155750000D01*
X128778571Y-155702380D01*
X128683333Y-155702380D01*
X128540476Y-155750000D01*
X128492857Y-155797619D01*
X127540476Y-156702380D02*
X128111904Y-156702380D01*
X127826190Y-156702380D02*
X127826190Y-155702380D01*
X127921428Y-155845238D01*
X128016666Y-155940476D01*
X128111904Y-155988095D01*
X126588095Y-156702380D02*
X127159523Y-156702380D01*
X126873809Y-156702380D02*
X126873809Y-155702380D01*
X126969047Y-155845238D01*
X127064285Y-155940476D01*
X127159523Y-155988095D01*
%TO.C,C33*%
X75857154Y-150357142D02*
X75904773Y-150309523D01*
X75952392Y-150166666D01*
X75952392Y-150071428D01*
X75904773Y-149928571D01*
X75809535Y-149833333D01*
X75714297Y-149785714D01*
X75523821Y-149738095D01*
X75380964Y-149738095D01*
X75190488Y-149785714D01*
X75095250Y-149833333D01*
X75000012Y-149928571D01*
X74952392Y-150071428D01*
X74952392Y-150166666D01*
X75000012Y-150309523D01*
X75047631Y-150357142D01*
X74952392Y-150690476D02*
X74952392Y-151309523D01*
X75333345Y-150976190D01*
X75333345Y-151119047D01*
X75380964Y-151214285D01*
X75428583Y-151261904D01*
X75523821Y-151309523D01*
X75761916Y-151309523D01*
X75857154Y-151261904D01*
X75904773Y-151214285D01*
X75952392Y-151119047D01*
X75952392Y-150833333D01*
X75904773Y-150738095D01*
X75857154Y-150690476D01*
X74952392Y-151642857D02*
X74952392Y-152261904D01*
X75333345Y-151928571D01*
X75333345Y-152071428D01*
X75380964Y-152166666D01*
X75428583Y-152214285D01*
X75523821Y-152261904D01*
X75761916Y-152261904D01*
X75857154Y-152214285D01*
X75904773Y-152166666D01*
X75952392Y-152071428D01*
X75952392Y-151785714D01*
X75904773Y-151690476D01*
X75857154Y-151642857D01*
%TO.C,C17*%
X73407657Y-196857142D02*
X73455276Y-196904761D01*
X73598133Y-196952380D01*
X73693371Y-196952380D01*
X73836228Y-196904761D01*
X73931466Y-196809523D01*
X73979085Y-196714285D01*
X74026704Y-196523809D01*
X74026704Y-196380952D01*
X73979085Y-196190476D01*
X73931466Y-196095238D01*
X73836228Y-196000000D01*
X73693371Y-195952380D01*
X73598133Y-195952380D01*
X73455276Y-196000000D01*
X73407657Y-196047619D01*
X72455276Y-196952380D02*
X73026704Y-196952380D01*
X72740990Y-196952380D02*
X72740990Y-195952380D01*
X72836228Y-196095238D01*
X72931466Y-196190476D01*
X73026704Y-196238095D01*
X72121942Y-195952380D02*
X71455276Y-195952380D01*
X71883847Y-196952380D01*
%TO.C,C23*%
X52082857Y-103607142D02*
X52130476Y-103654761D01*
X52273333Y-103702380D01*
X52368571Y-103702380D01*
X52511428Y-103654761D01*
X52606666Y-103559523D01*
X52654285Y-103464285D01*
X52701904Y-103273809D01*
X52701904Y-103130952D01*
X52654285Y-102940476D01*
X52606666Y-102845238D01*
X52511428Y-102750000D01*
X52368571Y-102702380D01*
X52273333Y-102702380D01*
X52130476Y-102750000D01*
X52082857Y-102797619D01*
X51701904Y-102797619D02*
X51654285Y-102750000D01*
X51559047Y-102702380D01*
X51320952Y-102702380D01*
X51225714Y-102750000D01*
X51178095Y-102797619D01*
X51130476Y-102892857D01*
X51130476Y-102988095D01*
X51178095Y-103130952D01*
X51749523Y-103702380D01*
X51130476Y-103702380D01*
X50797142Y-102702380D02*
X50178095Y-102702380D01*
X50511428Y-103083333D01*
X50368571Y-103083333D01*
X50273333Y-103130952D01*
X50225714Y-103178571D01*
X50178095Y-103273809D01*
X50178095Y-103511904D01*
X50225714Y-103607142D01*
X50273333Y-103654761D01*
X50368571Y-103702380D01*
X50654285Y-103702380D01*
X50749523Y-103654761D01*
X50797142Y-103607142D01*
%TO.C,U2*%
X208197380Y-207478095D02*
X209006904Y-207478095D01*
X209102142Y-207525714D01*
X209149761Y-207573333D01*
X209197380Y-207668571D01*
X209197380Y-207859047D01*
X209149761Y-207954285D01*
X209102142Y-208001904D01*
X209006904Y-208049523D01*
X208197380Y-208049523D01*
X208292619Y-208478095D02*
X208245000Y-208525714D01*
X208197380Y-208620952D01*
X208197380Y-208859047D01*
X208245000Y-208954285D01*
X208292619Y-209001904D01*
X208387857Y-209049523D01*
X208483095Y-209049523D01*
X208625952Y-209001904D01*
X209197380Y-208430476D01*
X209197380Y-209049523D01*
%TO.C,U13*%
X109972180Y-202451904D02*
X110781704Y-202451904D01*
X110876942Y-202499523D01*
X110924561Y-202547142D01*
X110972180Y-202642380D01*
X110972180Y-202832857D01*
X110924561Y-202928095D01*
X110876942Y-202975714D01*
X110781704Y-203023333D01*
X109972180Y-203023333D01*
X110972180Y-204023333D02*
X110972180Y-203451904D01*
X110972180Y-203737619D02*
X109972180Y-203737619D01*
X110115038Y-203642380D01*
X110210276Y-203547142D01*
X110257895Y-203451904D01*
X109972180Y-204356666D02*
X109972180Y-204975714D01*
X110353133Y-204642380D01*
X110353133Y-204785238D01*
X110400752Y-204880476D01*
X110448371Y-204928095D01*
X110543609Y-204975714D01*
X110781704Y-204975714D01*
X110876942Y-204928095D01*
X110924561Y-204880476D01*
X110972180Y-204785238D01*
X110972180Y-204499523D01*
X110924561Y-204404285D01*
X110876942Y-204356666D01*
%TO.C,R26*%
X70452857Y-120202380D02*
X70786190Y-119726190D01*
X71024285Y-120202380D02*
X71024285Y-119202380D01*
X70643333Y-119202380D01*
X70548095Y-119250000D01*
X70500476Y-119297619D01*
X70452857Y-119392857D01*
X70452857Y-119535714D01*
X70500476Y-119630952D01*
X70548095Y-119678571D01*
X70643333Y-119726190D01*
X71024285Y-119726190D01*
X70071904Y-119297619D02*
X70024285Y-119250000D01*
X69929047Y-119202380D01*
X69690952Y-119202380D01*
X69595714Y-119250000D01*
X69548095Y-119297619D01*
X69500476Y-119392857D01*
X69500476Y-119488095D01*
X69548095Y-119630952D01*
X70119523Y-120202380D01*
X69500476Y-120202380D01*
X68643333Y-119202380D02*
X68833809Y-119202380D01*
X68929047Y-119250000D01*
X68976666Y-119297619D01*
X69071904Y-119440476D01*
X69119523Y-119630952D01*
X69119523Y-120011904D01*
X69071904Y-120107142D01*
X69024285Y-120154761D01*
X68929047Y-120202380D01*
X68738571Y-120202380D01*
X68643333Y-120154761D01*
X68595714Y-120107142D01*
X68548095Y-120011904D01*
X68548095Y-119773809D01*
X68595714Y-119678571D01*
X68643333Y-119630952D01*
X68738571Y-119583333D01*
X68929047Y-119583333D01*
X69024285Y-119630952D01*
X69071904Y-119678571D01*
X69119523Y-119773809D01*
%TO.C,C24*%
X240142857Y-120107142D02*
X240190476Y-120154761D01*
X240333333Y-120202380D01*
X240428571Y-120202380D01*
X240571428Y-120154761D01*
X240666666Y-120059523D01*
X240714285Y-119964285D01*
X240761904Y-119773809D01*
X240761904Y-119630952D01*
X240714285Y-119440476D01*
X240666666Y-119345238D01*
X240571428Y-119250000D01*
X240428571Y-119202380D01*
X240333333Y-119202380D01*
X240190476Y-119250000D01*
X240142857Y-119297619D01*
X239761904Y-119297619D02*
X239714285Y-119250000D01*
X239619047Y-119202380D01*
X239380952Y-119202380D01*
X239285714Y-119250000D01*
X239238095Y-119297619D01*
X239190476Y-119392857D01*
X239190476Y-119488095D01*
X239238095Y-119630952D01*
X239809523Y-120202380D01*
X239190476Y-120202380D01*
X238333333Y-119535714D02*
X238333333Y-120202380D01*
X238571428Y-119154761D02*
X238809523Y-119869047D01*
X238190476Y-119869047D01*
D13*
%TO.C,C32*%
X71238571Y-116521428D02*
X71274761Y-116557619D01*
X71383333Y-116593809D01*
X71455714Y-116593809D01*
X71564285Y-116557619D01*
X71636666Y-116485238D01*
X71672857Y-116412857D01*
X71709047Y-116268095D01*
X71709047Y-116159523D01*
X71672857Y-116014761D01*
X71636666Y-115942380D01*
X71564285Y-115870000D01*
X71455714Y-115833809D01*
X71383333Y-115833809D01*
X71274761Y-115870000D01*
X71238571Y-115906190D01*
X70985238Y-115833809D02*
X70514761Y-115833809D01*
X70768095Y-116123333D01*
X70659523Y-116123333D01*
X70587142Y-116159523D01*
X70550952Y-116195714D01*
X70514761Y-116268095D01*
X70514761Y-116449047D01*
X70550952Y-116521428D01*
X70587142Y-116557619D01*
X70659523Y-116593809D01*
X70876666Y-116593809D01*
X70949047Y-116557619D01*
X70985238Y-116521428D01*
X70225238Y-115906190D02*
X70189047Y-115870000D01*
X70116666Y-115833809D01*
X69935714Y-115833809D01*
X69863333Y-115870000D01*
X69827142Y-115906190D01*
X69790952Y-115978571D01*
X69790952Y-116050952D01*
X69827142Y-116159523D01*
X70261428Y-116593809D01*
X69790952Y-116593809D01*
D10*
%TO.C,C30*%
X203392857Y-103607142D02*
X203440476Y-103654761D01*
X203583333Y-103702380D01*
X203678571Y-103702380D01*
X203821428Y-103654761D01*
X203916666Y-103559523D01*
X203964285Y-103464285D01*
X204011904Y-103273809D01*
X204011904Y-103130952D01*
X203964285Y-102940476D01*
X203916666Y-102845238D01*
X203821428Y-102750000D01*
X203678571Y-102702380D01*
X203583333Y-102702380D01*
X203440476Y-102750000D01*
X203392857Y-102797619D01*
X203059523Y-102702380D02*
X202440476Y-102702380D01*
X202773809Y-103083333D01*
X202630952Y-103083333D01*
X202535714Y-103130952D01*
X202488095Y-103178571D01*
X202440476Y-103273809D01*
X202440476Y-103511904D01*
X202488095Y-103607142D01*
X202535714Y-103654761D01*
X202630952Y-103702380D01*
X202916666Y-103702380D01*
X203011904Y-103654761D01*
X203059523Y-103607142D01*
X201821428Y-102702380D02*
X201726190Y-102702380D01*
X201630952Y-102750000D01*
X201583333Y-102797619D01*
X201535714Y-102892857D01*
X201488095Y-103083333D01*
X201488095Y-103321428D01*
X201535714Y-103511904D01*
X201583333Y-103607142D01*
X201630952Y-103654761D01*
X201726190Y-103702380D01*
X201821428Y-103702380D01*
X201916666Y-103654761D01*
X201964285Y-103607142D01*
X202011904Y-103511904D01*
X202059523Y-103321428D01*
X202059523Y-103083333D01*
X202011904Y-102892857D01*
X201964285Y-102797619D01*
X201916666Y-102750000D01*
X201821428Y-102702380D01*
%TO.C,R5*%
X56452380Y-92083333D02*
X55976190Y-91750000D01*
X56452380Y-91511904D02*
X55452380Y-91511904D01*
X55452380Y-91892857D01*
X55500000Y-91988095D01*
X55547619Y-92035714D01*
X55642857Y-92083333D01*
X55785714Y-92083333D01*
X55880952Y-92035714D01*
X55928571Y-91988095D01*
X55976190Y-91892857D01*
X55976190Y-91511904D01*
X55452380Y-92988095D02*
X55452380Y-92511904D01*
X55928571Y-92464285D01*
X55880952Y-92511904D01*
X55833333Y-92607142D01*
X55833333Y-92845238D01*
X55880952Y-92940476D01*
X55928571Y-92988095D01*
X56023809Y-93035714D01*
X56261904Y-93035714D01*
X56357142Y-92988095D01*
X56404761Y-92940476D01*
X56452380Y-92845238D01*
X56452380Y-92607142D01*
X56404761Y-92511904D01*
X56357142Y-92464285D01*
%TO.C,R8*%
X68202380Y-188333333D02*
X67726190Y-188000000D01*
X68202380Y-187761904D02*
X67202380Y-187761904D01*
X67202380Y-188142857D01*
X67250000Y-188238095D01*
X67297619Y-188285714D01*
X67392857Y-188333333D01*
X67535714Y-188333333D01*
X67630952Y-188285714D01*
X67678571Y-188238095D01*
X67726190Y-188142857D01*
X67726190Y-187761904D01*
X67630952Y-188904761D02*
X67583333Y-188809523D01*
X67535714Y-188761904D01*
X67440476Y-188714285D01*
X67392857Y-188714285D01*
X67297619Y-188761904D01*
X67250000Y-188809523D01*
X67202380Y-188904761D01*
X67202380Y-189095238D01*
X67250000Y-189190476D01*
X67297619Y-189238095D01*
X67392857Y-189285714D01*
X67440476Y-189285714D01*
X67535714Y-189238095D01*
X67583333Y-189190476D01*
X67630952Y-189095238D01*
X67630952Y-188904761D01*
X67678571Y-188809523D01*
X67726190Y-188761904D01*
X67821428Y-188714285D01*
X68011904Y-188714285D01*
X68107142Y-188761904D01*
X68154761Y-188809523D01*
X68202380Y-188904761D01*
X68202380Y-189095238D01*
X68154761Y-189190476D01*
X68107142Y-189238095D01*
X68011904Y-189285714D01*
X67821428Y-189285714D01*
X67726190Y-189238095D01*
X67678571Y-189190476D01*
X67630952Y-189095238D01*
%TO.C,J3*%
X167732380Y-174316666D02*
X168446666Y-174316666D01*
X168589523Y-174269047D01*
X168684761Y-174173809D01*
X168732380Y-174030952D01*
X168732380Y-173935714D01*
X167732380Y-174697619D02*
X167732380Y-175316666D01*
X168113333Y-174983333D01*
X168113333Y-175126190D01*
X168160952Y-175221428D01*
X168208571Y-175269047D01*
X168303809Y-175316666D01*
X168541904Y-175316666D01*
X168637142Y-175269047D01*
X168684761Y-175221428D01*
X168732380Y-175126190D01*
X168732380Y-174840476D01*
X168684761Y-174745238D01*
X168637142Y-174697619D01*
%TO.C,R11*%
X86952380Y-187857142D02*
X86476190Y-187523809D01*
X86952380Y-187285714D02*
X85952380Y-187285714D01*
X85952380Y-187666666D01*
X86000000Y-187761904D01*
X86047619Y-187809523D01*
X86142857Y-187857142D01*
X86285714Y-187857142D01*
X86380952Y-187809523D01*
X86428571Y-187761904D01*
X86476190Y-187666666D01*
X86476190Y-187285714D01*
X86952380Y-188809523D02*
X86952380Y-188238095D01*
X86952380Y-188523809D02*
X85952380Y-188523809D01*
X86095238Y-188428571D01*
X86190476Y-188333333D01*
X86238095Y-188238095D01*
X86952380Y-189761904D02*
X86952380Y-189190476D01*
X86952380Y-189476190D02*
X85952380Y-189476190D01*
X86095238Y-189380952D01*
X86190476Y-189285714D01*
X86238095Y-189190476D01*
%TO.C,U9*%
X211027380Y-109528095D02*
X211836904Y-109528095D01*
X211932142Y-109575714D01*
X211979761Y-109623333D01*
X212027380Y-109718571D01*
X212027380Y-109909047D01*
X211979761Y-110004285D01*
X211932142Y-110051904D01*
X211836904Y-110099523D01*
X211027380Y-110099523D01*
X212027380Y-110623333D02*
X212027380Y-110813809D01*
X211979761Y-110909047D01*
X211932142Y-110956666D01*
X211789285Y-111051904D01*
X211598809Y-111099523D01*
X211217857Y-111099523D01*
X211122619Y-111051904D01*
X211075000Y-111004285D01*
X211027380Y-110909047D01*
X211027380Y-110718571D01*
X211075000Y-110623333D01*
X211122619Y-110575714D01*
X211217857Y-110528095D01*
X211455952Y-110528095D01*
X211551190Y-110575714D01*
X211598809Y-110623333D01*
X211646428Y-110718571D01*
X211646428Y-110909047D01*
X211598809Y-111004285D01*
X211551190Y-111051904D01*
X211455952Y-111099523D01*
%TO.C,RR7*%
X259702380Y-133583333D02*
X259226190Y-133250000D01*
X259702380Y-133011904D02*
X258702380Y-133011904D01*
X258702380Y-133392857D01*
X258750000Y-133488095D01*
X258797619Y-133535714D01*
X258892857Y-133583333D01*
X259035714Y-133583333D01*
X259130952Y-133535714D01*
X259178571Y-133488095D01*
X259226190Y-133392857D01*
X259226190Y-133011904D01*
X259702380Y-134583333D02*
X259226190Y-134250000D01*
X259702380Y-134011904D02*
X258702380Y-134011904D01*
X258702380Y-134392857D01*
X258750000Y-134488095D01*
X258797619Y-134535714D01*
X258892857Y-134583333D01*
X259035714Y-134583333D01*
X259130952Y-134535714D01*
X259178571Y-134488095D01*
X259226190Y-134392857D01*
X259226190Y-134011904D01*
X258702380Y-134916666D02*
X258702380Y-135583333D01*
X259702380Y-135154761D01*
%TO.C,U27*%
X57942380Y-125501904D02*
X58751904Y-125501904D01*
X58847142Y-125549523D01*
X58894761Y-125597142D01*
X58942380Y-125692380D01*
X58942380Y-125882857D01*
X58894761Y-125978095D01*
X58847142Y-126025714D01*
X58751904Y-126073333D01*
X57942380Y-126073333D01*
X58037619Y-126501904D02*
X57990000Y-126549523D01*
X57942380Y-126644761D01*
X57942380Y-126882857D01*
X57990000Y-126978095D01*
X58037619Y-127025714D01*
X58132857Y-127073333D01*
X58228095Y-127073333D01*
X58370952Y-127025714D01*
X58942380Y-126454285D01*
X58942380Y-127073333D01*
X57942380Y-127406666D02*
X57942380Y-128073333D01*
X58942380Y-127644761D01*
%TO.C,U8*%
X247707380Y-109478095D02*
X248516904Y-109478095D01*
X248612142Y-109525714D01*
X248659761Y-109573333D01*
X248707380Y-109668571D01*
X248707380Y-109859047D01*
X248659761Y-109954285D01*
X248612142Y-110001904D01*
X248516904Y-110049523D01*
X247707380Y-110049523D01*
X248135952Y-110668571D02*
X248088333Y-110573333D01*
X248040714Y-110525714D01*
X247945476Y-110478095D01*
X247897857Y-110478095D01*
X247802619Y-110525714D01*
X247755000Y-110573333D01*
X247707380Y-110668571D01*
X247707380Y-110859047D01*
X247755000Y-110954285D01*
X247802619Y-111001904D01*
X247897857Y-111049523D01*
X247945476Y-111049523D01*
X248040714Y-111001904D01*
X248088333Y-110954285D01*
X248135952Y-110859047D01*
X248135952Y-110668571D01*
X248183571Y-110573333D01*
X248231190Y-110525714D01*
X248326428Y-110478095D01*
X248516904Y-110478095D01*
X248612142Y-110525714D01*
X248659761Y-110573333D01*
X248707380Y-110668571D01*
X248707380Y-110859047D01*
X248659761Y-110954285D01*
X248612142Y-111001904D01*
X248516904Y-111049523D01*
X248326428Y-111049523D01*
X248231190Y-111001904D01*
X248183571Y-110954285D01*
X248135952Y-110859047D01*
%TO.C,U15*%
X80972180Y-202251904D02*
X81781704Y-202251904D01*
X81876942Y-202299523D01*
X81924561Y-202347142D01*
X81972180Y-202442380D01*
X81972180Y-202632857D01*
X81924561Y-202728095D01*
X81876942Y-202775714D01*
X81781704Y-202823333D01*
X80972180Y-202823333D01*
X81972180Y-203823333D02*
X81972180Y-203251904D01*
X81972180Y-203537619D02*
X80972180Y-203537619D01*
X81115038Y-203442380D01*
X81210276Y-203347142D01*
X81257895Y-203251904D01*
X80972180Y-204728095D02*
X80972180Y-204251904D01*
X81448371Y-204204285D01*
X81400752Y-204251904D01*
X81353133Y-204347142D01*
X81353133Y-204585238D01*
X81400752Y-204680476D01*
X81448371Y-204728095D01*
X81543609Y-204775714D01*
X81781704Y-204775714D01*
X81876942Y-204728095D01*
X81924561Y-204680476D01*
X81972180Y-204585238D01*
X81972180Y-204347142D01*
X81924561Y-204251904D01*
X81876942Y-204204285D01*
%TO.C,C5*%
X222857142Y-207083333D02*
X222904761Y-207035714D01*
X222952380Y-206892857D01*
X222952380Y-206797619D01*
X222904761Y-206654761D01*
X222809523Y-206559523D01*
X222714285Y-206511904D01*
X222523809Y-206464285D01*
X222380952Y-206464285D01*
X222190476Y-206511904D01*
X222095238Y-206559523D01*
X222000000Y-206654761D01*
X221952380Y-206797619D01*
X221952380Y-206892857D01*
X222000000Y-207035714D01*
X222047619Y-207083333D01*
X221952380Y-207988095D02*
X221952380Y-207511904D01*
X222428571Y-207464285D01*
X222380952Y-207511904D01*
X222333333Y-207607142D01*
X222333333Y-207845238D01*
X222380952Y-207940476D01*
X222428571Y-207988095D01*
X222523809Y-208035714D01*
X222761904Y-208035714D01*
X222857142Y-207988095D01*
X222904761Y-207940476D01*
X222952380Y-207845238D01*
X222952380Y-207607142D01*
X222904761Y-207511904D01*
X222857142Y-207464285D01*
%TO.C,U11*%
X136379880Y-109001904D02*
X137189404Y-109001904D01*
X137284642Y-109049523D01*
X137332261Y-109097142D01*
X137379880Y-109192380D01*
X137379880Y-109382857D01*
X137332261Y-109478095D01*
X137284642Y-109525714D01*
X137189404Y-109573333D01*
X136379880Y-109573333D01*
X137379880Y-110573333D02*
X137379880Y-110001904D01*
X137379880Y-110287619D02*
X136379880Y-110287619D01*
X136522738Y-110192380D01*
X136617976Y-110097142D01*
X136665595Y-110001904D01*
X137379880Y-111525714D02*
X137379880Y-110954285D01*
X137379880Y-111240000D02*
X136379880Y-111240000D01*
X136522738Y-111144761D01*
X136617976Y-111049523D01*
X136665595Y-110954285D01*
%TO.C,C31*%
X165842857Y-156357142D02*
X165890476Y-156404761D01*
X166033333Y-156452380D01*
X166128571Y-156452380D01*
X166271428Y-156404761D01*
X166366666Y-156309523D01*
X166414285Y-156214285D01*
X166461904Y-156023809D01*
X166461904Y-155880952D01*
X166414285Y-155690476D01*
X166366666Y-155595238D01*
X166271428Y-155500000D01*
X166128571Y-155452380D01*
X166033333Y-155452380D01*
X165890476Y-155500000D01*
X165842857Y-155547619D01*
X165509523Y-155452380D02*
X164890476Y-155452380D01*
X165223809Y-155833333D01*
X165080952Y-155833333D01*
X164985714Y-155880952D01*
X164938095Y-155928571D01*
X164890476Y-156023809D01*
X164890476Y-156261904D01*
X164938095Y-156357142D01*
X164985714Y-156404761D01*
X165080952Y-156452380D01*
X165366666Y-156452380D01*
X165461904Y-156404761D01*
X165509523Y-156357142D01*
X163938095Y-156452380D02*
X164509523Y-156452380D01*
X164223809Y-156452380D02*
X164223809Y-155452380D01*
X164319047Y-155595238D01*
X164414285Y-155690476D01*
X164509523Y-155738095D01*
%TO.C,J4*%
X120833333Y-77307380D02*
X120833333Y-78021666D01*
X120880952Y-78164523D01*
X120976190Y-78259761D01*
X121119047Y-78307380D01*
X121214285Y-78307380D01*
X119928571Y-77640714D02*
X119928571Y-78307380D01*
X120166666Y-77259761D02*
X120404761Y-77974047D01*
X119785714Y-77974047D01*
D12*
%TO.C,BAR3*%
X174556071Y-90621666D02*
X174603690Y-90764523D01*
X174651309Y-90812142D01*
X174746547Y-90859761D01*
X174889404Y-90859761D01*
X174984642Y-90812142D01*
X175032261Y-90764523D01*
X175079880Y-90669285D01*
X175079880Y-90288333D01*
X174079880Y-90288333D01*
X174079880Y-90621666D01*
X174127500Y-90716904D01*
X174175119Y-90764523D01*
X174270357Y-90812142D01*
X174365595Y-90812142D01*
X174460833Y-90764523D01*
X174508452Y-90716904D01*
X174556071Y-90621666D01*
X174556071Y-90288333D01*
X174794166Y-91240714D02*
X174794166Y-91716904D01*
X175079880Y-91145476D02*
X174079880Y-91478809D01*
X175079880Y-91812142D01*
X175079880Y-92716904D02*
X174603690Y-92383571D01*
X175079880Y-92145476D02*
X174079880Y-92145476D01*
X174079880Y-92526428D01*
X174127500Y-92621666D01*
X174175119Y-92669285D01*
X174270357Y-92716904D01*
X174413214Y-92716904D01*
X174508452Y-92669285D01*
X174556071Y-92621666D01*
X174603690Y-92526428D01*
X174603690Y-92145476D01*
X174079880Y-93050238D02*
X174079880Y-93669285D01*
X174460833Y-93335952D01*
X174460833Y-93478809D01*
X174508452Y-93574047D01*
X174556071Y-93621666D01*
X174651309Y-93669285D01*
X174889404Y-93669285D01*
X174984642Y-93621666D01*
X175032261Y-93574047D01*
X175079880Y-93478809D01*
X175079880Y-93193095D01*
X175032261Y-93097857D01*
X174984642Y-93050238D01*
D10*
%TO.C,U3*%
X142511904Y-196202380D02*
X142511904Y-197011904D01*
X142464285Y-197107142D01*
X142416666Y-197154761D01*
X142321428Y-197202380D01*
X142130952Y-197202380D01*
X142035714Y-197154761D01*
X141988095Y-197107142D01*
X141940476Y-197011904D01*
X141940476Y-196202380D01*
X141559523Y-196202380D02*
X140940476Y-196202380D01*
X141273809Y-196583333D01*
X141130952Y-196583333D01*
X141035714Y-196630952D01*
X140988095Y-196678571D01*
X140940476Y-196773809D01*
X140940476Y-197011904D01*
X140988095Y-197107142D01*
X141035714Y-197154761D01*
X141130952Y-197202380D01*
X141416666Y-197202380D01*
X141511904Y-197154761D01*
X141559523Y-197107142D01*
%TO.C,R12*%
X68952380Y-91667142D02*
X68476190Y-91333809D01*
X68952380Y-91095714D02*
X67952380Y-91095714D01*
X67952380Y-91476666D01*
X68000000Y-91571904D01*
X68047619Y-91619523D01*
X68142857Y-91667142D01*
X68285714Y-91667142D01*
X68380952Y-91619523D01*
X68428571Y-91571904D01*
X68476190Y-91476666D01*
X68476190Y-91095714D01*
X68952380Y-92619523D02*
X68952380Y-92048095D01*
X68952380Y-92333809D02*
X67952380Y-92333809D01*
X68095238Y-92238571D01*
X68190476Y-92143333D01*
X68238095Y-92048095D01*
X68047619Y-93000476D02*
X68000000Y-93048095D01*
X67952380Y-93143333D01*
X67952380Y-93381428D01*
X68000000Y-93476666D01*
X68047619Y-93524285D01*
X68142857Y-93571904D01*
X68238095Y-93571904D01*
X68380952Y-93524285D01*
X68952380Y-92952857D01*
X68952380Y-93571904D01*
%TO.C,R6*%
X55702380Y-188333333D02*
X55226190Y-188000000D01*
X55702380Y-187761904D02*
X54702380Y-187761904D01*
X54702380Y-188142857D01*
X54750000Y-188238095D01*
X54797619Y-188285714D01*
X54892857Y-188333333D01*
X55035714Y-188333333D01*
X55130952Y-188285714D01*
X55178571Y-188238095D01*
X55226190Y-188142857D01*
X55226190Y-187761904D01*
X54702380Y-189190476D02*
X54702380Y-189000000D01*
X54750000Y-188904761D01*
X54797619Y-188857142D01*
X54940476Y-188761904D01*
X55130952Y-188714285D01*
X55511904Y-188714285D01*
X55607142Y-188761904D01*
X55654761Y-188809523D01*
X55702380Y-188904761D01*
X55702380Y-189095238D01*
X55654761Y-189190476D01*
X55607142Y-189238095D01*
X55511904Y-189285714D01*
X55273809Y-189285714D01*
X55178571Y-189238095D01*
X55130952Y-189190476D01*
X55083333Y-189095238D01*
X55083333Y-188904761D01*
X55130952Y-188809523D01*
X55178571Y-188761904D01*
X55273809Y-188714285D01*
%TO.C,T1*%
X45761904Y-168952380D02*
X45190476Y-168952380D01*
X45476190Y-169952380D02*
X45476190Y-168952380D01*
X44333333Y-169952380D02*
X44904761Y-169952380D01*
X44619047Y-169952380D02*
X44619047Y-168952380D01*
X44714285Y-169095238D01*
X44809523Y-169190476D01*
X44904761Y-169238095D01*
D12*
%TO.C,BAR5*%
X100456071Y-90821666D02*
X100503690Y-90964523D01*
X100551309Y-91012142D01*
X100646547Y-91059761D01*
X100789404Y-91059761D01*
X100884642Y-91012142D01*
X100932261Y-90964523D01*
X100979880Y-90869285D01*
X100979880Y-90488333D01*
X99979880Y-90488333D01*
X99979880Y-90821666D01*
X100027500Y-90916904D01*
X100075119Y-90964523D01*
X100170357Y-91012142D01*
X100265595Y-91012142D01*
X100360833Y-90964523D01*
X100408452Y-90916904D01*
X100456071Y-90821666D01*
X100456071Y-90488333D01*
X100694166Y-91440714D02*
X100694166Y-91916904D01*
X100979880Y-91345476D02*
X99979880Y-91678809D01*
X100979880Y-92012142D01*
X100979880Y-92916904D02*
X100503690Y-92583571D01*
X100979880Y-92345476D02*
X99979880Y-92345476D01*
X99979880Y-92726428D01*
X100027500Y-92821666D01*
X100075119Y-92869285D01*
X100170357Y-92916904D01*
X100313214Y-92916904D01*
X100408452Y-92869285D01*
X100456071Y-92821666D01*
X100503690Y-92726428D01*
X100503690Y-92345476D01*
X99979880Y-93821666D02*
X99979880Y-93345476D01*
X100456071Y-93297857D01*
X100408452Y-93345476D01*
X100360833Y-93440714D01*
X100360833Y-93678809D01*
X100408452Y-93774047D01*
X100456071Y-93821666D01*
X100551309Y-93869285D01*
X100789404Y-93869285D01*
X100884642Y-93821666D01*
X100932261Y-93774047D01*
X100979880Y-93678809D01*
X100979880Y-93440714D01*
X100932261Y-93345476D01*
X100884642Y-93297857D01*
D10*
%TO.C,U25*%
X57839880Y-109051904D02*
X58649404Y-109051904D01*
X58744642Y-109099523D01*
X58792261Y-109147142D01*
X58839880Y-109242380D01*
X58839880Y-109432857D01*
X58792261Y-109528095D01*
X58744642Y-109575714D01*
X58649404Y-109623333D01*
X57839880Y-109623333D01*
X57935119Y-110051904D02*
X57887500Y-110099523D01*
X57839880Y-110194761D01*
X57839880Y-110432857D01*
X57887500Y-110528095D01*
X57935119Y-110575714D01*
X58030357Y-110623333D01*
X58125595Y-110623333D01*
X58268452Y-110575714D01*
X58839880Y-110004285D01*
X58839880Y-110623333D01*
X57839880Y-111528095D02*
X57839880Y-111051904D01*
X58316071Y-111004285D01*
X58268452Y-111051904D01*
X58220833Y-111147142D01*
X58220833Y-111385238D01*
X58268452Y-111480476D01*
X58316071Y-111528095D01*
X58411309Y-111575714D01*
X58649404Y-111575714D01*
X58744642Y-111528095D01*
X58792261Y-111480476D01*
X58839880Y-111385238D01*
X58839880Y-111147142D01*
X58792261Y-111051904D01*
X58744642Y-111004285D01*
%TO.C,RN1*%
X186232380Y-184959523D02*
X185756190Y-184626190D01*
X186232380Y-184388095D02*
X185232380Y-184388095D01*
X185232380Y-184769047D01*
X185280000Y-184864285D01*
X185327619Y-184911904D01*
X185422857Y-184959523D01*
X185565714Y-184959523D01*
X185660952Y-184911904D01*
X185708571Y-184864285D01*
X185756190Y-184769047D01*
X185756190Y-184388095D01*
X186232380Y-185388095D02*
X185232380Y-185388095D01*
X186232380Y-185959523D01*
X185232380Y-185959523D01*
X186232380Y-186959523D02*
X186232380Y-186388095D01*
X186232380Y-186673809D02*
X185232380Y-186673809D01*
X185375238Y-186578571D01*
X185470476Y-186483333D01*
X185518095Y-186388095D01*
%TO.C,C27*%
X54142857Y-156607142D02*
X54190476Y-156654761D01*
X54333333Y-156702380D01*
X54428571Y-156702380D01*
X54571428Y-156654761D01*
X54666666Y-156559523D01*
X54714285Y-156464285D01*
X54761904Y-156273809D01*
X54761904Y-156130952D01*
X54714285Y-155940476D01*
X54666666Y-155845238D01*
X54571428Y-155750000D01*
X54428571Y-155702380D01*
X54333333Y-155702380D01*
X54190476Y-155750000D01*
X54142857Y-155797619D01*
X53761904Y-155797619D02*
X53714285Y-155750000D01*
X53619047Y-155702380D01*
X53380952Y-155702380D01*
X53285714Y-155750000D01*
X53238095Y-155797619D01*
X53190476Y-155892857D01*
X53190476Y-155988095D01*
X53238095Y-156130952D01*
X53809523Y-156702380D01*
X53190476Y-156702380D01*
X52857142Y-155702380D02*
X52190476Y-155702380D01*
X52619047Y-156702380D01*
%TO.C,R10*%
X80702380Y-187857142D02*
X80226190Y-187523809D01*
X80702380Y-187285714D02*
X79702380Y-187285714D01*
X79702380Y-187666666D01*
X79750000Y-187761904D01*
X79797619Y-187809523D01*
X79892857Y-187857142D01*
X80035714Y-187857142D01*
X80130952Y-187809523D01*
X80178571Y-187761904D01*
X80226190Y-187666666D01*
X80226190Y-187285714D01*
X80702380Y-188809523D02*
X80702380Y-188238095D01*
X80702380Y-188523809D02*
X79702380Y-188523809D01*
X79845238Y-188428571D01*
X79940476Y-188333333D01*
X79988095Y-188238095D01*
X79702380Y-189428571D02*
X79702380Y-189523809D01*
X79750000Y-189619047D01*
X79797619Y-189666666D01*
X79892857Y-189714285D01*
X80083333Y-189761904D01*
X80321428Y-189761904D01*
X80511904Y-189714285D01*
X80607142Y-189666666D01*
X80654761Y-189619047D01*
X80702380Y-189523809D01*
X80702380Y-189428571D01*
X80654761Y-189333333D01*
X80607142Y-189285714D01*
X80511904Y-189238095D01*
X80321428Y-189190476D01*
X80083333Y-189190476D01*
X79892857Y-189238095D01*
X79797619Y-189285714D01*
X79750000Y-189333333D01*
X79702380Y-189428571D01*
%TO.C,Q1*%
X167027619Y-191574761D02*
X166980000Y-191479523D01*
X166884761Y-191384285D01*
X166741904Y-191241428D01*
X166694285Y-191146190D01*
X166694285Y-191050952D01*
X166932380Y-191098571D02*
X166884761Y-191003333D01*
X166789523Y-190908095D01*
X166599047Y-190860476D01*
X166265714Y-190860476D01*
X166075238Y-190908095D01*
X165980000Y-191003333D01*
X165932380Y-191098571D01*
X165932380Y-191289047D01*
X165980000Y-191384285D01*
X166075238Y-191479523D01*
X166265714Y-191527142D01*
X166599047Y-191527142D01*
X166789523Y-191479523D01*
X166884761Y-191384285D01*
X166932380Y-191289047D01*
X166932380Y-191098571D01*
X166932380Y-192479523D02*
X166932380Y-191908095D01*
X166932380Y-192193809D02*
X165932380Y-192193809D01*
X166075238Y-192098571D01*
X166170476Y-192003333D01*
X166218095Y-191908095D01*
%TO.C,C8*%
X202416666Y-156357142D02*
X202464285Y-156404761D01*
X202607142Y-156452380D01*
X202702380Y-156452380D01*
X202845238Y-156404761D01*
X202940476Y-156309523D01*
X202988095Y-156214285D01*
X203035714Y-156023809D01*
X203035714Y-155880952D01*
X202988095Y-155690476D01*
X202940476Y-155595238D01*
X202845238Y-155500000D01*
X202702380Y-155452380D01*
X202607142Y-155452380D01*
X202464285Y-155500000D01*
X202416666Y-155547619D01*
X201845238Y-155880952D02*
X201940476Y-155833333D01*
X201988095Y-155785714D01*
X202035714Y-155690476D01*
X202035714Y-155642857D01*
X201988095Y-155547619D01*
X201940476Y-155500000D01*
X201845238Y-155452380D01*
X201654761Y-155452380D01*
X201559523Y-155500000D01*
X201511904Y-155547619D01*
X201464285Y-155642857D01*
X201464285Y-155690476D01*
X201511904Y-155785714D01*
X201559523Y-155833333D01*
X201654761Y-155880952D01*
X201845238Y-155880952D01*
X201940476Y-155928571D01*
X201988095Y-155976190D01*
X202035714Y-156071428D01*
X202035714Y-156261904D01*
X201988095Y-156357142D01*
X201940476Y-156404761D01*
X201845238Y-156452380D01*
X201654761Y-156452380D01*
X201559523Y-156404761D01*
X201511904Y-156357142D01*
X201464285Y-156261904D01*
X201464285Y-156071428D01*
X201511904Y-155976190D01*
X201559523Y-155928571D01*
X201654761Y-155880952D01*
%TO.C,U17*%
X207942380Y-161751904D02*
X208751904Y-161751904D01*
X208847142Y-161799523D01*
X208894761Y-161847142D01*
X208942380Y-161942380D01*
X208942380Y-162132857D01*
X208894761Y-162228095D01*
X208847142Y-162275714D01*
X208751904Y-162323333D01*
X207942380Y-162323333D01*
X208942380Y-163323333D02*
X208942380Y-162751904D01*
X208942380Y-163037619D02*
X207942380Y-163037619D01*
X208085238Y-162942380D01*
X208180476Y-162847142D01*
X208228095Y-162751904D01*
X207942380Y-163656666D02*
X207942380Y-164323333D01*
X208942380Y-163894761D01*
%TO.C,U26*%
X57942380Y-146001904D02*
X58751904Y-146001904D01*
X58847142Y-146049523D01*
X58894761Y-146097142D01*
X58942380Y-146192380D01*
X58942380Y-146382857D01*
X58894761Y-146478095D01*
X58847142Y-146525714D01*
X58751904Y-146573333D01*
X57942380Y-146573333D01*
X58037619Y-147001904D02*
X57990000Y-147049523D01*
X57942380Y-147144761D01*
X57942380Y-147382857D01*
X57990000Y-147478095D01*
X58037619Y-147525714D01*
X58132857Y-147573333D01*
X58228095Y-147573333D01*
X58370952Y-147525714D01*
X58942380Y-146954285D01*
X58942380Y-147573333D01*
X57942380Y-148430476D02*
X57942380Y-148240000D01*
X57990000Y-148144761D01*
X58037619Y-148097142D01*
X58180476Y-148001904D01*
X58370952Y-147954285D01*
X58751904Y-147954285D01*
X58847142Y-148001904D01*
X58894761Y-148049523D01*
X58942380Y-148144761D01*
X58942380Y-148335238D01*
X58894761Y-148430476D01*
X58847142Y-148478095D01*
X58751904Y-148525714D01*
X58513809Y-148525714D01*
X58418571Y-148478095D01*
X58370952Y-148430476D01*
X58323333Y-148335238D01*
X58323333Y-148144761D01*
X58370952Y-148049523D01*
X58418571Y-148001904D01*
X58513809Y-147954285D01*
%TO.C,RR5*%
X114202380Y-83488333D02*
X113726190Y-83155000D01*
X114202380Y-82916904D02*
X113202380Y-82916904D01*
X113202380Y-83297857D01*
X113250000Y-83393095D01*
X113297619Y-83440714D01*
X113392857Y-83488333D01*
X113535714Y-83488333D01*
X113630952Y-83440714D01*
X113678571Y-83393095D01*
X113726190Y-83297857D01*
X113726190Y-82916904D01*
X114202380Y-84488333D02*
X113726190Y-84155000D01*
X114202380Y-83916904D02*
X113202380Y-83916904D01*
X113202380Y-84297857D01*
X113250000Y-84393095D01*
X113297619Y-84440714D01*
X113392857Y-84488333D01*
X113535714Y-84488333D01*
X113630952Y-84440714D01*
X113678571Y-84393095D01*
X113726190Y-84297857D01*
X113726190Y-83916904D01*
X113202380Y-85393095D02*
X113202380Y-84916904D01*
X113678571Y-84869285D01*
X113630952Y-84916904D01*
X113583333Y-85012142D01*
X113583333Y-85250238D01*
X113630952Y-85345476D01*
X113678571Y-85393095D01*
X113773809Y-85440714D01*
X114011904Y-85440714D01*
X114107142Y-85393095D01*
X114154761Y-85345476D01*
X114202380Y-85250238D01*
X114202380Y-85012142D01*
X114154761Y-84916904D01*
X114107142Y-84869285D01*
%TD*%
M02*
