<?xml version="1.0" encoding="UTF-8" standalone="no"?>
<!-- Created with Digital by H.Neemann -->
<!-- created: Sat Mar 23 10:45:00 EDT 2024 -->

<svg
   xmlns:svg="http://www.w3.org/2000/svg"
   xmlns="http://www.w3.org/2000/svg"
   width="135.6mm"
   height="74.85mm"
   viewBox="-75 138 904 499">
<g stroke-linecap="square">
<path d="M 540,320 L 580,320" stroke="#0000b2" stroke-width="4.0" fill="none"/>
<path d="M 120,320 L 220,320 L 240,320" stroke="#0000b2" stroke-width="4.0" fill="none"/>
<path d="M 120,480 L 420,480 L 420,340 L 460,340 L 464,340" stroke="#0000b2" stroke-width="4.0" fill="none"/>
<path d="M 200,260 L 240,260" stroke="#0000b2" stroke-width="4.0" fill="none"/>
<path d="M 340,360 L 580,360" stroke="#0000b2" stroke-width="4.0" fill="none"/>
<path d="M 120,360 L 140,360 L 140,340 L 240,340" stroke="#0000b2" stroke-width="4.0" fill="none"/>
<path d="M 420,480 L 420,520 L 460,520 L 464,520" stroke="#0000b2" stroke-width="4.0" fill="none"/>
<path d="M 120,620 L 460,620" stroke="#0000b2" stroke-width="4.0" fill="none"/>
<path d="M 500,620 L 580,620" stroke="#0000b2" stroke-width="4.0" fill="none"/>
<path d="M 340,300 L 460,300 L 464,300" stroke="#0000b2" stroke-width="4.0" fill="none"/>
<path d="M 220,320 L 220,300 L 240,300" stroke="#0000b2" stroke-width="4.0" fill="none"/>
<path d="M 200,240 L 240,240" stroke="#0000b2" stroke-width="4.0" fill="none"/>
<path d="M 340,240 L 380,240 L 580,240" stroke="#0000b2" stroke-width="4.0" fill="none"/>
<path d="M 120,400 L 180,400 L 180,360 L 240,360" stroke="#0000b2" stroke-width="4.0" fill="none"/>
<path d="M 400,280 L 400,560 L 460,560 L 464,560" stroke="#0000b2" stroke-width="4.0" fill="none"/>
<path d="M 340,280 L 400,280 L 580,280" stroke="#0000b2" stroke-width="4.0" fill="none"/>
<path d="M 200,280 L 240,280" stroke="#0000b2" stroke-width="4.0" fill="none"/>
<path d="M 120,440 L 220,440 L 220,380 L 240,380" stroke="#0000b2" stroke-width="4.0" fill="none"/>
<path d="M 380,240 L 380,440 L 460,440" stroke="#0000b2" stroke-width="4.0" fill="none"/>
<path d="M 500,440 L 580,440" stroke="#0000b2" stroke-width="4.0" fill="none"/>
<path d="M 340,380 L 460,380 L 460,400 L 580,400" stroke="#0000b2" stroke-width="4.0" fill="none"/>
<path d="M 540,540 L 580,540" stroke="#0000b2" stroke-width="4.0" fill="none"/>
<path d="M 190,260 L 210,260" stroke="#000000" stroke-width="6.0" fill="none"/>
<path d="M 200,234 L 200,240" stroke="#000000" stroke-width="4.0" fill="none"/>
<g>
<circle cx="220.0" cy="320.0" r="4.0" stroke="#0000b2" stroke-width="4.0" fill="#0000b2" />
<circle cx="420.0" cy="480.0" r="4.0" stroke="#0000b2" stroke-width="4.0" fill="#0000b2" />
<circle cx="380.0" cy="240.0" r="4.0" stroke="#0000b2" stroke-width="4.0" fill="#0000b2" />
<circle cx="400.0" cy="280.0" r="4.0" stroke="#0000b2" stroke-width="4.0" fill="#0000b2" />
</g>
<g>
<text text-anchor="start" x="180.0" y="158.0" fill="#000000" style="font-size:24px">VOICE CS V2 GAL16V8</text>
</g>
<g>
<path d="M 240,220 L 340,220 L 340,400 L 240,400 Z" stroke="#ffffb4" stroke-width="0.0" fill="#ffffb4" fill-opacity="0.7843137254901961"/>
<path d="M 240,220 L 340,220 L 340,400 L 240,400 Z" stroke="#000000" stroke-width="4.0" fill="none"/>
<text text-anchor="middle" x="290.0" y="417.5" fill="#808080" style="font-size:18px">74138</text>
<text text-anchor="start" x="244.0" y="246.75" fill="#808080" style="font-size:18px">VCC</text>
<text text-anchor="start" x="244.0" y="266.75" fill="#808080" style="font-size:18px">GND</text>
<text text-anchor="start" x="244.0" y="286.75" fill="#808080" style="font-size:18px">G</text>
<text text-anchor="start" x="244.0" y="306.75" fill="#808080" style="font-size:18px"><tspan style="text-decoration:overline;">GB</tspan></text>
<text text-anchor="start" x="244.0" y="326.75" fill="#808080" style="font-size:18px"><tspan style="text-decoration:overline;">GA</tspan></text>
<text text-anchor="start" x="244.0" y="346.75" fill="#808080" style="font-size:18px">A</text>
<text text-anchor="start" x="244.0" y="366.75" fill="#808080" style="font-size:18px">B</text>
<text text-anchor="start" x="244.0" y="386.75" fill="#808080" style="font-size:18px">C</text>
<text text-anchor="end" x="336.0" y="246.75" fill="#808080" style="font-size:18px"><tspan style="text-decoration:overline;">Y0</tspan></text>
<text text-anchor="end" x="336.0" y="266.75" fill="#808080" style="font-size:18px"><tspan style="text-decoration:overline;">Y1</tspan></text>
<text text-anchor="end" x="336.0" y="286.75" fill="#808080" style="font-size:18px"><tspan style="text-decoration:overline;">Y2</tspan></text>
<text text-anchor="end" x="336.0" y="306.75" fill="#808080" style="font-size:18px"><tspan style="text-decoration:overline;">Y3</tspan></text>
<text text-anchor="end" x="336.0" y="326.75" fill="#808080" style="font-size:18px"><tspan style="text-decoration:overline;">Y4</tspan></text>
<text text-anchor="end" x="336.0" y="346.75" fill="#808080" style="font-size:18px"><tspan style="text-decoration:overline;">Y5</tspan></text>
<text text-anchor="end" x="336.0" y="366.75" fill="#808080" style="font-size:18px"><tspan style="text-decoration:overline;">Y6</tspan></text>
<text text-anchor="end" x="336.0" y="386.75" fill="#808080" style="font-size:18px"><tspan style="text-decoration:overline;">Y7</tspan></text>
<circle cx="240.0" cy="340.0" r="2.0" stroke="#0000b2" stroke-width="4.0" fill="#0000b2" />
<circle cx="240.0" cy="360.0" r="2.0" stroke="#0000b2" stroke-width="4.0" fill="#0000b2" />
<circle cx="240.0" cy="380.0" r="2.0" stroke="#0000b2" stroke-width="4.0" fill="#0000b2" />
<circle cx="240.0" cy="280.0" r="2.0" stroke="#0000b2" stroke-width="4.0" fill="#0000b2" />
<circle cx="240.0" cy="300.0" r="2.0" stroke="#0000b2" stroke-width="4.0" fill="#0000b2" />
<circle cx="240.0" cy="320.0" r="2.0" stroke="#0000b2" stroke-width="4.0" fill="#0000b2" />
<circle cx="240.0" cy="240.0" r="2.0" stroke="#0000b2" stroke-width="4.0" fill="#0000b2" />
<circle cx="240.0" cy="260.0" r="2.0" stroke="#0000b2" stroke-width="4.0" fill="#0000b2" />
<circle cx="340.0" cy="240.0" r="2.0" stroke="#b20000" stroke-width="4.0" fill="#b20000" />
<circle cx="340.0" cy="260.0" r="2.0" stroke="#b20000" stroke-width="4.0" fill="#b20000" />
<circle cx="340.0" cy="280.0" r="2.0" stroke="#b20000" stroke-width="4.0" fill="#b20000" />
<circle cx="340.0" cy="300.0" r="2.0" stroke="#b20000" stroke-width="4.0" fill="#b20000" />
<circle cx="340.0" cy="320.0" r="2.0" stroke="#b20000" stroke-width="4.0" fill="#b20000" />
<circle cx="340.0" cy="340.0" r="2.0" stroke="#b20000" stroke-width="4.0" fill="#b20000" />
<circle cx="340.0" cy="360.0" r="2.0" stroke="#b20000" stroke-width="4.0" fill="#b20000" />
<circle cx="340.0" cy="380.0" r="2.0" stroke="#b20000" stroke-width="4.0" fill="#b20000" />
</g>
<g>
<circle cx="200.0" cy="260.0" r="2.0" stroke="#b20000" stroke-width="4.0" fill="#b20000" />
</g>
<g>
<path d="M 190,244 L 200,231 L 210,244" stroke="#000000" stroke-width="4.0" fill="none"/>
<circle cx="200.0" cy="240.0" r="2.0" stroke="#b20000" stroke-width="4.0" fill="#b20000" />
</g>
<g>
<path d="M 490,350 L 460,350 C 470,334 470,306 460,290 L 480,290 C 510,290 530,300 540,320 C 530,340 510,350 490,350 Z" stroke="#000000" stroke-width="4.0" fill="none"/>
<circle cx="460.0" cy="300.0" r="2.0" stroke="#0000b2" stroke-width="4.0" fill="#0000b2" />
<circle cx="460.0" cy="340.0" r="2.0" stroke="#0000b2" stroke-width="4.0" fill="#0000b2" />
<circle cx="540.0" cy="320.0" r="2.0" stroke="#b20000" stroke-width="4.0" fill="#b20000" />
</g>
<g>
<circle cx="596.0" cy="320.0" r="9.0" stroke="#000000" stroke-width="4.0" fill="none" />
<circle cx="596.0" cy="320.0" r="15.0" stroke="#000000" stroke-width="4.0" fill="none" />
<text text-anchor="start" x="625.0" y="329.0" fill="#000000" style="font-size:24px"><tspan style="font-style:italic;"><tspan style="text-decoration:overline;">CSxDACxWR</tspan> (17)</tspan></text>
<circle cx="580.0" cy="320.0" r="2.0" stroke="#0000b2" stroke-width="4.0" fill="#0000b2" />
</g>
<g>
<circle cx="596.0" cy="280.0" r="9.0" stroke="#000000" stroke-width="4.0" fill="none" />
<circle cx="596.0" cy="280.0" r="15.0" stroke="#000000" stroke-width="4.0" fill="none" />
<text text-anchor="start" x="625.0" y="289.0" fill="#000000" style="font-size:24px"><tspan style="font-style:italic;"><tspan style="text-decoration:overline;">CSxADC</tspan> (18)</tspan></text>
<circle cx="580.0" cy="280.0" r="2.0" stroke="#0000b2" stroke-width="4.0" fill="#0000b2" />
</g>
<g>
<circle cx="596.0" cy="240.0" r="9.0" stroke="#000000" stroke-width="4.0" fill="none" />
<circle cx="596.0" cy="240.0" r="15.0" stroke="#000000" stroke-width="4.0" fill="none" />
<text text-anchor="start" x="625.0" y="249.0" fill="#000000" style="font-size:24px"><tspan style="font-style:italic;"><tspan style="text-decoration:overline;">CSxTTS</tspan> (19)</tspan></text>
<circle cx="580.0" cy="240.0" r="2.0" stroke="#0000b2" stroke-width="4.0" fill="#0000b2" />
</g>
<g>
<circle cx="596.0" cy="360.0" r="9.0" stroke="#000000" stroke-width="4.0" fill="none" />
<circle cx="596.0" cy="360.0" r="15.0" stroke="#000000" stroke-width="4.0" fill="none" />
<text text-anchor="start" x="625.0" y="369.0" fill="#000000" style="font-size:24px"><tspan style="font-style:italic;"><tspan style="text-decoration:overline;">CSxSN1</tspan> (16)</tspan></text>
<circle cx="580.0" cy="360.0" r="2.0" stroke="#0000b2" stroke-width="4.0" fill="#0000b2" />
</g>
<g>
<circle cx="596.0" cy="400.0" r="9.0" stroke="#000000" stroke-width="4.0" fill="none" />
<circle cx="596.0" cy="400.0" r="15.0" stroke="#000000" stroke-width="4.0" fill="none" />
<text text-anchor="start" x="625.0" y="409.0" fill="#000000" style="font-size:24px"><tspan style="font-style:italic;"><tspan style="text-decoration:overline;">CSxSN2</tspan> (15)</tspan></text>
<circle cx="580.0" cy="400.0" r="2.0" stroke="#0000b2" stroke-width="4.0" fill="#0000b2" />
</g>
<g>
<text text-anchor="end" x="197.0" y="289.0" fill="#000000" style="font-size:24px">1</text>
<circle cx="200.0" cy="280.0" r="2.0" stroke="#b20000" stroke-width="4.0" fill="#b20000" />
</g>
<g>
<path d="M 89,305 L 119,305 L 119,335 L 89,335 Z" stroke="#000000" stroke-width="4.0" fill="none"/>
<circle cx="104.0" cy="320.0" r="9.0" stroke="#000000" stroke-width="4.0" fill="none" />
<text text-anchor="end" x="75.0" y="329.0" fill="#000000" style="font-size:24px"><tspan style="font-style:italic;"><tspan style="text-decoration:overline;">BRDxSEL</tspan> (2)</tspan></text>
<circle cx="120.0" cy="320.0" r="2.0" stroke="#b20000" stroke-width="4.0" fill="#b20000" />
</g>
<g>
<path d="M 89,345 L 119,345 L 119,375 L 89,375 Z" stroke="#000000" stroke-width="4.0" fill="none"/>
<circle cx="104.0" cy="360.0" r="9.0" stroke="#000000" stroke-width="4.0" fill="none" />
<text text-anchor="end" x="75.0" y="369.0" fill="#000000" style="font-size:24px"><tspan style="font-style:italic;">bA0 (4)</tspan></text>
<circle cx="120.0" cy="360.0" r="2.0" stroke="#b20000" stroke-width="4.0" fill="#b20000" />
</g>
<g>
<path d="M 89,385 L 119,385 L 119,415 L 89,415 Z" stroke="#000000" stroke-width="4.0" fill="none"/>
<circle cx="104.0" cy="400.0" r="9.0" stroke="#000000" stroke-width="4.0" fill="none" />
<text text-anchor="end" x="75.0" y="409.0" fill="#000000" style="font-size:24px"><tspan style="font-style:italic;">bA1 (3)</tspan></text>
<circle cx="120.0" cy="400.0" r="2.0" stroke="#b20000" stroke-width="4.0" fill="#b20000" />
</g>
<g>
<path d="M 89,425 L 119,425 L 119,455 L 89,455 Z" stroke="#000000" stroke-width="4.0" fill="none"/>
<circle cx="104.0" cy="440.0" r="9.0" stroke="#000000" stroke-width="4.0" fill="none" />
<text text-anchor="end" x="75.0" y="449.0" fill="#000000" style="font-size:24px"><tspan style="font-style:italic;">bA2 (5)</tspan></text>
<circle cx="120.0" cy="440.0" r="2.0" stroke="#b20000" stroke-width="4.0" fill="#b20000" />
</g>
<g>
<path d="M 461,428 L 479,440 L 461,452 Z" stroke="#000000" stroke-width="4.0" fill="none"/>
<circle cx="490.0" cy="440.0" r="9.0" stroke="#000000" stroke-width="4.0" fill="none" />
<circle cx="460.0" cy="440.0" r="2.0" stroke="#0000b2" stroke-width="4.0" fill="#0000b2" />
<circle cx="500.0" cy="440.0" r="2.0" stroke="#b20000" stroke-width="4.0" fill="#b20000" />
</g>
<g>
<circle cx="596.0" cy="440.0" r="9.0" stroke="#000000" stroke-width="4.0" fill="none" />
<circle cx="596.0" cy="440.0" r="15.0" stroke="#000000" stroke-width="4.0" fill="none" />
<text text-anchor="start" x="625.0" y="449.0" fill="#000000" style="font-size:24px"><tspan style="font-style:italic;">CSxTTS (14)</tspan></text>
<circle cx="580.0" cy="440.0" r="2.0" stroke="#0000b2" stroke-width="4.0" fill="#0000b2" />
</g>
<g>
<path d="M 89,605 L 119,605 L 119,635 L 89,635 Z" stroke="#000000" stroke-width="4.0" fill="none"/>
<circle cx="104.0" cy="620.0" r="9.0" stroke="#000000" stroke-width="4.0" fill="none" />
<text text-anchor="end" x="75.0" y="629.0" fill="#000000" style="font-size:24px"><tspan style="font-style:italic;">A15xTTS (7)</tspan></text>
<circle cx="120.0" cy="620.0" r="2.0" stroke="#b20000" stroke-width="4.0" fill="#b20000" />
</g>
<g>
<path d="M 461,608 L 479,620 L 461,632 Z" stroke="#000000" stroke-width="4.0" fill="none"/>
<circle cx="490.0" cy="620.0" r="9.0" stroke="#000000" stroke-width="4.0" fill="none" />
<circle cx="460.0" cy="620.0" r="2.0" stroke="#0000b2" stroke-width="4.0" fill="#0000b2" />
<circle cx="500.0" cy="620.0" r="2.0" stroke="#b20000" stroke-width="4.0" fill="#b20000" />
</g>
<g>
<circle cx="596.0" cy="620.0" r="9.0" stroke="#000000" stroke-width="4.0" fill="none" />
<circle cx="596.0" cy="620.0" r="15.0" stroke="#000000" stroke-width="4.0" fill="none" />
<text text-anchor="start" x="625.0" y="629.0" fill="#000000" style="font-size:24px"><tspan style="font-style:italic;"><tspan style="text-decoration:overline;">A15</tspan> (12)</tspan></text>
<circle cx="580.0" cy="620.0" r="2.0" stroke="#0000b2" stroke-width="4.0" fill="#0000b2" />
</g>
<g>
<path d="M 89,465 L 119,465 L 119,495 L 89,495 Z" stroke="#000000" stroke-width="4.0" fill="none"/>
<circle cx="104.0" cy="480.0" r="9.0" stroke="#000000" stroke-width="4.0" fill="none" />
<text text-anchor="end" x="75.0" y="489.0" fill="#000000" style="font-size:24px"><tspan style="font-style:italic;"><tspan style="text-decoration:overline;">bWR</tspan> (6)</tspan></text>
<circle cx="120.0" cy="480.0" r="2.0" stroke="#b20000" stroke-width="4.0" fill="#b20000" />
</g>
<g>
<circle cx="596.0" cy="540.0" r="9.0" stroke="#000000" stroke-width="4.0" fill="none" />
<circle cx="596.0" cy="540.0" r="15.0" stroke="#000000" stroke-width="4.0" fill="none" />
<text text-anchor="start" x="625.0" y="549.0" fill="#000000" style="font-size:24px"><tspan style="font-style:italic;"><tspan style="text-decoration:overline;">CSxADCxWR</tspan> (13)</tspan></text>
<circle cx="580.0" cy="540.0" r="2.0" stroke="#0000b2" stroke-width="4.0" fill="#0000b2" />
</g>
<g>
<path d="M 490,570 L 460,570 C 470,554 470,526 460,510 L 480,510 C 510,510 530,520 540,540 C 530,560 510,570 490,570 Z" stroke="#000000" stroke-width="4.0" fill="none"/>
<circle cx="460.0" cy="520.0" r="2.0" stroke="#0000b2" stroke-width="4.0" fill="#0000b2" />
<circle cx="460.0" cy="560.0" r="2.0" stroke="#0000b2" stroke-width="4.0" fill="#0000b2" />
<circle cx="540.0" cy="540.0" r="2.0" stroke="#b20000" stroke-width="4.0" fill="#b20000" />
</g>
</g>
</svg>