M48
; DRILL file {KiCad (6.0.11)} date Thu Apr 11 16:40:27 2024
; FORMAT={-:-/ absolute / inch / decimal}
; #@! TF.CreationDate,2024-04-11T16:40:27-04:00
; #@! TF.GenerationSoftware,Kicad,Pcbnew,(6.0.11)
; #@! TF.FileFunction,Plated,1,2,PTH
FMAT,2
INCH
; #@! TA.AperFunction,Plated,PTH,ComponentDrill
T1C0.0118
; #@! TA.AperFunction,Plated,PTH,ViaDrill
T2C0.0157
; #@! TA.AperFunction,Plated,PTH,ComponentDrill
T3C0.0236
; #@! TA.AperFunction,Plated,PTH,ComponentDrill
T4C0.0315
; #@! TA.AperFunction,Plated,PTH,ComponentDrill
T5C0.0354
; #@! TA.AperFunction,Plated,PTH,ComponentDrill
T6C0.0394
; #@! TA.AperFunction,Plated,PTH,ComponentDrill
T7C0.0433
; #@! TA.AperFunction,Plated,PTH,ComponentDrill
T8C0.0866
; #@! TA.AperFunction,Plated,PTH,ComponentDrill
T9C0.1260
%
G90
G05
T1
X3.6673Y-5.2559
X3.7146Y-5.2559
X4.248Y-5.5217
X4.2953Y-5.5217
X4.6909Y-7.2539
X4.7382Y-7.2539
X6.5256Y-7.5945
X6.5256Y-7.6417
T2
X2.5357Y-8.312
X2.6088Y-8.4247
X3.4517Y-5.7797
X3.5045Y-6.4776
X4.1031Y-6.0215
X4.1383Y-5.1354
X4.18Y-5.3902
X4.2914Y-5.4583
X4.7228Y-6.3438
X4.8078Y-6.5991
X4.8228Y-6.4862
X4.881Y-6.4397
X4.912Y-6.5195
X4.9705Y-6.5059
X4.9732Y-6.3544
X4.9931Y-6.5453
X5.0337Y-5.3151
X5.2854Y-7.4016
X5.3231Y-7.2299
X5.3346Y-6.4567
X5.3569Y-7.0053
X5.4178Y-5.261
X5.5282Y-5.6725
X5.5605Y-6.1913
X5.5864Y-5.7087
X5.6127Y-5.6785
X5.6981Y-5.8799
X5.6988Y-7.1555
X5.8298Y-5.7987
X6.2962Y-5.345
X6.3134Y-7.9536
X6.4011Y-5.2568
X6.4245Y-8.25
X6.4459Y-8.1869
X6.5307Y-8.2459
X6.6294Y-7.0013
X7.4421Y-6.1541
X7.8361Y-6.0822
X7.9176Y-6.0651
X8.0183Y-6.789
X8.0852Y-7.7162
X8.1879Y-5.7771
X8.2032Y-4.0133
X8.3478Y-5.7523
X8.4813Y-5.0716
X9.2825Y-8.4636
X9.5992Y-6.3773
T4
X1.6413Y-3.5039
X1.6906Y-3.7083
X1.6906Y-4.0083
X1.6906Y-4.1803
X1.6906Y-4.4803
X1.6929Y-5.6055
X1.6929Y-5.9055
X1.6929Y-6.0898
X1.6929Y-6.3898
X1.6929Y-6.5819
X1.6929Y-6.8819
X1.6969Y-4.6528
X1.6969Y-4.9528
X1.6969Y-5.1252
X1.6969Y-5.4252
X1.7126Y-8.4646
X1.7906Y-3.7083
X1.7906Y-4.0083
X1.7906Y-4.1803
X1.7906Y-4.4803
X1.7929Y-5.6055
X1.7929Y-5.9055
X1.7929Y-6.0898
X1.7929Y-6.3898
X1.7929Y-6.5819
X1.7929Y-6.8819
X1.7969Y-4.6528
X1.7969Y-4.9528
X1.7969Y-5.1252
X1.7969Y-5.4252
X1.811Y-8.4646
X1.8906Y-3.7083
X1.8906Y-4.0083
X1.8906Y-4.1803
X1.8906Y-4.4803
X1.8929Y-5.6055
X1.8929Y-5.9055
X1.8929Y-6.0898
X1.8929Y-6.3898
X1.8929Y-6.5819
X1.8929Y-6.8819
X1.8969Y-4.6528
X1.8969Y-4.9528
X1.8969Y-5.1252
X1.8969Y-5.4252
X1.9413Y-3.5039
X1.9906Y-3.7083
X1.9906Y-4.0083
X1.9906Y-4.1803
X1.9906Y-4.4803
X1.9929Y-5.6055
X1.9929Y-5.9055
X1.9929Y-6.0898
X1.9929Y-6.3898
X1.9929Y-6.5819
X1.9929Y-6.8819
X1.9969Y-4.6528
X1.9969Y-4.9528
X1.9969Y-5.1252
X1.9969Y-5.4252
X2.035Y-3.5039
X2.0906Y-3.7083
X2.0906Y-4.0083
X2.0906Y-4.1803
X2.0906Y-4.4803
X2.0929Y-5.6055
X2.0929Y-5.9055
X2.0929Y-6.0898
X2.0929Y-6.3898
X2.0929Y-6.5819
X2.0929Y-6.8819
X2.0969Y-4.6528
X2.0969Y-4.9528
X2.0969Y-5.1252
X2.0969Y-5.4252
X2.1906Y-3.7083
X2.1906Y-4.0083
X2.1906Y-4.1803
X2.1906Y-4.4803
X2.1929Y-5.6055
X2.1929Y-5.9055
X2.1929Y-6.0898
X2.1929Y-6.3898
X2.1929Y-6.5819
X2.1929Y-6.8819
X2.1969Y-4.6528
X2.1969Y-4.9528
X2.1969Y-5.1252
X2.1969Y-5.4252
X2.2906Y-3.7083
X2.2906Y-4.0083
X2.2906Y-4.1803
X2.2906Y-4.4803
X2.2929Y-5.6055
X2.2929Y-5.9055
X2.2929Y-6.0898
X2.2929Y-6.3898
X2.2929Y-6.5819
X2.2929Y-6.8819
X2.2969Y-4.6528
X2.2969Y-4.9528
X2.2969Y-5.1252
X2.2969Y-5.4252
X2.335Y-3.5039
X2.3929Y-5.6055
X2.3929Y-5.9055
X2.3929Y-6.0898
X2.3929Y-6.3898
X2.3929Y-6.5819
X2.3929Y-6.8819
X2.3969Y-4.6528
X2.3969Y-4.9528
X2.3969Y-5.1252
X2.3969Y-5.4252
X2.4929Y-5.6055
X2.4929Y-5.9055
X2.4929Y-6.0898
X2.4929Y-6.3898
X2.4929Y-6.5819
X2.4929Y-6.8819
X2.5929Y-5.6055
X2.5929Y-5.9055
X2.5929Y-6.0898
X2.5929Y-6.3898
X2.5929Y-6.5819
X2.5929Y-6.8819
X2.6181Y-4.4484
X2.6181Y-4.6453
X2.7165Y-8.189
X2.7165Y-8.3858
X2.7281Y-5.4724
X2.8199Y-4.3575
X2.8199Y-4.6575
X2.8266Y-5.4724
X2.8346Y-5.0492
X2.8346Y-5.2461
X2.9163Y-8.078
X2.9163Y-8.378
X2.9199Y-4.3575
X2.9199Y-4.6575
X2.9281Y-5.689
X2.9281Y-5.8858
X3.0163Y-8.078
X3.0163Y-8.378
X3.0199Y-4.3575
X3.0199Y-4.6575
X3.039Y-4.948
X3.039Y-5.248
X3.0699Y-6.3976
X3.0699Y-6.5945
X3.0699Y-6.7004
X3.0699Y-7.0004
X3.1163Y-8.078
X3.1163Y-8.378
X3.1199Y-4.3575
X3.1199Y-4.6575
X3.1329Y-5.5632
X3.1329Y-5.8632
X3.139Y-4.948
X3.139Y-5.248
X3.2163Y-8.078
X3.2163Y-8.378
X3.2199Y-4.3575
X3.2199Y-4.6575
X3.2329Y-5.5632
X3.2329Y-5.8632
X3.239Y-4.948
X3.239Y-5.248
X3.2717Y-6.1569
X3.2717Y-6.7569
X3.3163Y-8.078
X3.3163Y-8.378
X3.3199Y-4.3575
X3.3199Y-4.6575
X3.3329Y-5.5632
X3.3329Y-5.8632
X3.339Y-4.948
X3.339Y-5.248
X3.3717Y-6.1569
X3.3717Y-6.7569
X3.4163Y-8.078
X3.4163Y-8.378
X3.4199Y-4.3575
X3.4199Y-4.6575
X3.4329Y-5.5632
X3.4329Y-5.8632
X3.4717Y-6.1569
X3.4717Y-6.7569
X3.5163Y-8.078
X3.5163Y-8.378
X3.5199Y-4.3575
X3.5199Y-4.6575
X3.5329Y-5.5632
X3.5329Y-5.8632
X3.5539Y-7.2047
X3.5717Y-6.1569
X3.5717Y-6.7569
X3.6163Y-8.078
X3.6163Y-8.378
X3.6329Y-5.5632
X3.6329Y-5.8632
X3.6524Y-7.2047
X3.6717Y-6.1569
X3.6717Y-6.7569
X3.6732Y-6.9488
X3.6829Y-4.8622
X3.6829Y-5.0591
X3.7163Y-8.078
X3.7163Y-8.378
X3.7222Y-4.3996
X3.7222Y-4.498
X3.7329Y-5.5632
X3.7329Y-5.8632
X3.7717Y-6.1569
X3.7717Y-6.7569
X3.7732Y-6.9488
X3.8163Y-8.078
X3.8163Y-8.378
X3.8329Y-5.5632
X3.8329Y-5.8632
X3.8563Y-3.1102
X3.8563Y-3.3661
X3.8563Y-3.622
X3.8563Y-3.878
X3.8563Y-4.1142
X3.8717Y-6.1569
X3.8717Y-6.7569
X3.8732Y-6.9488
X3.877Y-4.6608
X3.877Y-5.2608
X3.912Y-4.4291
X3.9329Y-5.5632
X3.9329Y-5.8632
X3.9642Y-8.563
X3.9717Y-6.1569
X3.9717Y-6.7569
X3.9732Y-6.9488
X3.977Y-4.6608
X3.977Y-5.2608
X3.988Y-7.9331
X4.0329Y-5.5632
X4.0329Y-5.8632
X4.0531Y-3.1102
X4.0531Y-3.3661
X4.0531Y-3.622
X4.0531Y-3.878
X4.0531Y-4.1142
X4.0717Y-6.1569
X4.0717Y-6.7569
X4.0732Y-6.9488
X4.077Y-4.6608
X4.077Y-5.2608
X4.0864Y-7.9331
X4.0945Y-8.1693
X4.0945Y-8.3661
X4.1041Y-4.4291
X4.1681Y-3.1693
X4.1717Y-6.1569
X4.1717Y-6.7569
X4.1732Y-6.9488
X4.177Y-4.6608
X4.177Y-5.2608
X4.1878Y-3.878
X4.1878Y-4.1142
X4.2642Y-8.563
X4.2717Y-5.689
X4.2717Y-5.8858
X4.2717Y-6.1569
X4.2717Y-6.7569
X4.2732Y-6.9488
X4.277Y-4.6608
X4.277Y-5.2608
X4.2791Y-7.874
X4.2864Y-8.078
X4.2864Y-8.378
X4.2878Y-3.5439
X4.2931Y-4.3996
X4.2931Y-4.498
X4.3579Y-8.563
X4.3717Y-6.1569
X4.3717Y-6.7569
X4.3732Y-6.9488
X4.377Y-4.6608
X4.377Y-5.2608
X4.3864Y-8.078
X4.3864Y-8.378
X4.3878Y-3.6439
X4.4717Y-6.1569
X4.4717Y-6.7569
X4.4724Y-5.5632
X4.4724Y-5.8632
X4.4732Y-6.9488
X4.477Y-4.6608
X4.477Y-5.2608
X4.4864Y-8.078
X4.4864Y-8.378
X4.4878Y-3.5439
X4.5681Y-3.1693
X4.5717Y-6.1569
X4.5717Y-6.7569
X4.5724Y-5.5632
X4.5724Y-5.8632
X4.577Y-4.6608
X4.577Y-5.2608
X4.5791Y-7.874
X4.5864Y-8.078
X4.5864Y-8.378
X4.5878Y-3.878
X4.5878Y-4.1142
X4.6053Y-6.9291
X4.6053Y-7.0276
X4.6579Y-8.563
X4.6717Y-6.1569
X4.6717Y-6.7569
X4.6724Y-5.5632
X4.6724Y-5.8632
X4.6728Y-7.874
X4.677Y-4.6608
X4.677Y-5.2608
X4.6864Y-8.078
X4.6864Y-8.378
X4.6929Y-4.1142
X4.7027Y-2.8811
X4.7027Y-3.1811
X4.7192Y-3.878
X4.7717Y-6.1569
X4.7717Y-6.7569
X4.7724Y-5.5632
X4.7724Y-5.8632
X4.777Y-4.6608
X4.777Y-5.2608
X4.7864Y-8.078
X4.7864Y-8.378
X4.7913Y-4.1142
X4.8027Y-2.8811
X4.8027Y-3.1811
X4.814Y-6.9882
X4.8192Y-3.5439
X4.8717Y-6.1569
X4.8717Y-6.7569
X4.8724Y-5.5632
X4.8724Y-5.8632
X4.877Y-4.6608
X4.877Y-5.2608
X4.8864Y-8.078
X4.8864Y-8.378
X4.8964Y-4.1142
X4.9027Y-2.8811
X4.9027Y-3.1811
X4.9192Y-3.6439
X4.9717Y-6.1569
X4.9717Y-6.7569
X4.9724Y-5.5632
X4.9724Y-5.8632
X4.9728Y-7.874
X4.977Y-4.6608
X4.977Y-5.2608
X5.0027Y-2.8811
X5.0027Y-3.1811
X5.0061Y-6.9882
X5.0192Y-3.5439
X5.0717Y-6.1569
X5.0717Y-6.7569
X5.0724Y-5.5632
X5.0724Y-5.8632
X5.077Y-4.6608
X5.077Y-5.2608
X5.1027Y-2.8811
X5.1027Y-3.1811
X5.1192Y-3.878
X5.1575Y-7.6969
X5.1575Y-7.8937
X5.1575Y-8.189
X5.1575Y-8.3858
X5.1717Y-6.1569
X5.1717Y-6.7569
X5.1724Y-5.5632
X5.1724Y-5.8632
X5.177Y-4.6608
X5.177Y-5.2608
X5.2027Y-2.8811
X5.2027Y-3.1811
X5.2156Y-6.9291
X5.2156Y-7.0276
X5.2507Y-3.878
X5.2964Y-4.1142
X5.3027Y-2.8811
X5.3027Y-3.1811
X5.3463Y-4.4882
X5.3507Y-3.5439
X5.3573Y-7.5858
X5.3573Y-7.8858
X5.3573Y-8.078
X5.3573Y-8.378
X5.4015Y-4.1142
X5.4331Y-4.9803
X5.4331Y-5.1772
X5.4331Y-5.6102
X5.4331Y-5.8071
X5.4331Y-6.4419
X5.4331Y-6.6388
X5.4331Y-7.2047
X5.4331Y-7.4016
X5.4447Y-4.4882
X5.4507Y-3.6439
X5.4573Y-7.5858
X5.4573Y-7.8858
X5.4573Y-8.078
X5.4573Y-8.378
X5.4704Y-3.1693
X5.5Y-4.1142
X5.5507Y-3.5439
X5.5573Y-7.5858
X5.5573Y-7.8858
X5.5573Y-8.078
X5.5573Y-8.378
X5.6082Y-4.1142
X5.6299Y-6.2356
X5.6299Y-6.8356
X5.6309Y-5.4089
X5.6309Y-6.0089
X5.6329Y-4.8693
X5.6329Y-5.1693
X5.6329Y-7.074
X5.6329Y-7.374
X5.6427Y-4.685
X5.6507Y-3.878
X5.6573Y-7.5858
X5.6573Y-7.8858
X5.6573Y-8.078
X5.6573Y-8.378
X5.7299Y-6.2356
X5.7299Y-6.8356
X5.7309Y-5.4089
X5.7309Y-6.0089
X5.7329Y-4.8693
X5.7329Y-5.1693
X5.7329Y-7.074
X5.7329Y-7.374
X5.7427Y-4.685
X5.7573Y-7.5858
X5.7573Y-7.8858
X5.7573Y-8.078
X5.7573Y-8.378
X5.8051Y-4.1142
X5.8299Y-6.2356
X5.8299Y-6.8356
X5.8309Y-5.4089
X5.8309Y-6.0089
X5.8329Y-4.8693
X5.8329Y-5.1693
X5.8329Y-7.074
X5.8329Y-7.374
X5.8427Y-4.685
X5.8573Y-7.5858
X5.8573Y-7.8858
X5.8573Y-8.078
X5.8573Y-8.378
X5.8704Y-3.1693
X5.9171Y-3.8583
X5.922Y-4.1142
X5.9299Y-6.2356
X5.9299Y-6.8356
X5.9309Y-5.4089
X5.9309Y-6.0089
X5.9329Y-4.8693
X5.9329Y-5.1693
X5.9329Y-7.074
X5.9329Y-7.374
X5.9427Y-4.685
X5.9573Y-7.5858
X5.9573Y-7.8858
X5.9573Y-8.078
X5.9573Y-8.378
X6.0155Y-3.8583
X6.0299Y-6.2356
X6.0299Y-6.8356
X6.0309Y-5.4089
X6.0309Y-6.0089
X6.0329Y-4.8693
X6.0329Y-5.1693
X6.0329Y-7.074
X6.0329Y-7.374
X6.0427Y-4.685
X6.0573Y-7.5858
X6.0573Y-7.8858
X6.0573Y-8.078
X6.0573Y-8.378
X6.1299Y-6.2356
X6.1299Y-6.8356
X6.1309Y-5.4089
X6.1309Y-6.0089
X6.1329Y-4.8693
X6.1329Y-5.1693
X6.1329Y-7.074
X6.1329Y-7.374
X6.1427Y-4.685
X6.1573Y-7.5858
X6.1573Y-7.8858
X6.1573Y-8.078
X6.1573Y-8.378
X6.2299Y-6.2356
X6.2299Y-6.8356
X6.2309Y-5.4089
X6.2309Y-6.0089
X6.2329Y-4.8693
X6.2329Y-5.1693
X6.2329Y-7.074
X6.2329Y-7.374
X6.2427Y-4.685
X6.2498Y-3.8583
X6.2573Y-7.5858
X6.2573Y-7.8858
X6.2573Y-8.078
X6.2573Y-8.378
X6.322Y-4.1142
X6.3299Y-6.2356
X6.3299Y-6.8356
X6.3309Y-5.4089
X6.3309Y-6.0089
X6.3329Y-4.8693
X6.3329Y-5.1693
X6.3329Y-7.074
X6.3329Y-7.374
X6.3427Y-4.685
X6.3482Y-3.8583
X6.4299Y-6.2356
X6.4299Y-6.8356
X6.4309Y-5.4089
X6.4309Y-6.0089
X6.4318Y-4.1142
X6.4329Y-4.8693
X6.4329Y-5.1693
X6.4329Y-7.074
X6.4329Y-7.374
X6.4427Y-4.685
X6.5157Y-8.189
X6.5157Y-8.3858
X6.5299Y-6.2356
X6.5299Y-6.8356
X6.5309Y-5.4089
X6.5309Y-6.0089
X6.5329Y-4.8693
X6.5329Y-5.1693
X6.5329Y-7.074
X6.5329Y-7.374
X6.5334Y-3.8583
X6.6299Y-6.2356
X6.6299Y-6.8356
X6.6309Y-5.4089
X6.6309Y-6.0089
X6.7156Y-8.078
X6.7156Y-8.378
X6.7254Y-7.874
X6.7299Y-6.2356
X6.7299Y-6.8356
X6.7303Y-3.8583
X6.7309Y-5.4089
X6.7309Y-6.0089
X6.8156Y-8.078
X6.8156Y-8.378
X6.8254Y-7.874
X6.8318Y-4.1142
X6.9156Y-8.078
X6.9156Y-8.378
X6.9254Y-7.874
X6.939Y-6.0433
X6.939Y-6.2402
X6.9665Y-3.1102
X6.9665Y-3.3661
X6.9665Y-3.622
X6.9665Y-3.878
X6.9665Y-4.1142
X6.9703Y-5.8169
X6.9957Y-4.7047
X6.9957Y-4.9409
X6.9957Y-5.1772
X7.0156Y-8.078
X7.0156Y-8.378
X7.0254Y-7.874
X7.0374Y-4.4488
X7.0472Y-5.4035
X7.0687Y-5.8169
X7.1156Y-8.078
X7.1156Y-8.378
X7.1254Y-7.874
X7.1633Y-3.1102
X7.1633Y-3.3661
X7.1633Y-3.622
X7.1633Y-3.878
X7.1633Y-4.1142
X7.1683Y-5.9913
X7.1683Y-6.2913
X7.2156Y-8.078
X7.2156Y-8.378
X7.2254Y-7.874
X7.2343Y-4.4488
X7.2441Y-5.4035
X7.2683Y-5.9913
X7.2683Y-6.2913
X7.2783Y-3.1693
X7.2927Y-5.689
X7.2957Y-4.7047
X7.2957Y-4.9409
X7.2957Y-5.1772
X7.298Y-3.878
X7.298Y-4.1142
X7.3156Y-8.078
X7.3156Y-8.378
X7.3254Y-7.874
X7.3683Y-5.9913
X7.3683Y-6.2913
X7.3911Y-5.689
X7.398Y-3.5439
X7.4156Y-8.078
X7.4156Y-8.378
X7.4254Y-7.874
X7.4683Y-5.9913
X7.4683Y-6.2913
X7.4685Y-4.6331
X7.4685Y-4.9331
X7.4699Y-5.5512
X7.498Y-3.6439
X7.5156Y-8.078
X7.5156Y-8.378
X7.5181Y-5.227
X7.5215Y-5.7874
X7.5254Y-7.874
X7.5683Y-5.9913
X7.5683Y-6.2913
X7.5685Y-4.6331
X7.5685Y-4.9331
X7.598Y-3.5439
X7.6156Y-8.078
X7.6156Y-8.378
X7.6181Y-5.327
X7.6683Y-5.9913
X7.6683Y-6.2913
X7.6685Y-4.6331
X7.6685Y-4.9331
X7.6783Y-3.1693
X7.698Y-3.878
X7.698Y-4.1142
X7.7181Y-5.227
X7.7183Y-5.7874
X7.7683Y-5.9913
X7.7683Y-6.2913
X7.7685Y-4.6331
X7.7685Y-4.9331
X7.7699Y-5.5512
X7.7872Y-7.9331
X7.8031Y-4.1142
X7.808Y-2.8811
X7.808Y-3.1811
X7.8295Y-3.878
X7.848Y-5.689
X7.8661Y-8.189
X7.8661Y-8.3858
X7.8683Y-5.9913
X7.8683Y-6.2913
X7.8856Y-7.9331
X7.9015Y-4.1142
X7.908Y-2.8811
X7.908Y-3.1811
X7.9295Y-3.5399
X7.9406Y-4.9409
X7.9406Y-5.1772
X7.9429Y-4.7047
X7.9464Y-5.689
X7.9683Y-5.9913
X7.9683Y-6.2913
X7.9921Y-4.4488
X7.9921Y-5.4134
X8.008Y-2.8811
X8.008Y-3.1811
X8.0098Y-4.1142
X8.0295Y-3.6399
X8.0541Y-8.078
X8.0541Y-8.378
X8.0683Y-5.9913
X8.0683Y-6.2913
X8.0709Y-5.8071
X8.108Y-2.8811
X8.108Y-3.1811
X8.1295Y-3.5399
X8.1541Y-8.078
X8.1541Y-8.378
X8.189Y-4.4488
X8.189Y-5.4134
X8.208Y-2.8811
X8.208Y-3.1811
X8.2295Y-3.878
X8.2406Y-4.9409
X8.2406Y-5.1772
X8.2429Y-4.7047
X8.2541Y-8.078
X8.2541Y-8.378
X8.2677Y-5.8071
X8.308Y-2.8811
X8.308Y-3.1811
X8.3541Y-8.078
X8.3541Y-8.378
X8.361Y-3.878
X8.408Y-2.8811
X8.408Y-3.1811
X8.4098Y-4.1142
X8.4541Y-8.078
X8.4541Y-8.378
X8.461Y-3.5439
X8.5118Y-4.1142
X8.5541Y-8.078
X8.5541Y-8.378
X8.561Y-3.6439
X8.5705Y-4.9409
X8.5705Y-5.1772
X8.5775Y-3.1693
X8.5834Y-6.2205
X8.6102Y-4.1142
X8.622Y-4.5276
X8.622Y-4.7244
X8.622Y-5.4331
X8.6417Y-5.7087
X8.6417Y-5.9055
X8.6541Y-8.078
X8.6541Y-8.378
X8.661Y-3.5439
X8.6819Y-6.2205
X8.7185Y-4.1142
X8.7541Y-8.078
X8.7541Y-8.378
X8.761Y-3.878
X8.8189Y-5.4331
X8.8238Y-4.4362
X8.8238Y-4.7362
X8.8409Y-5.6094
X8.8409Y-5.9094
X8.8541Y-8.078
X8.8541Y-8.378
X8.8705Y-4.9409
X8.8705Y-5.1772
X8.9153Y-4.1142
X8.9238Y-4.4362
X8.9238Y-4.7362
X8.9409Y-5.6094
X8.9409Y-5.9094
X8.9541Y-8.078
X8.9541Y-8.378
X8.9775Y-3.1693
X9.0238Y-4.4362
X9.0238Y-4.7362
X9.0409Y-5.6094
X9.0409Y-5.9094
X9.0433Y-4.9283
X9.0433Y-5.2283
X9.0667Y-4.1142
X9.0945Y-5.4331
X9.1238Y-4.4362
X9.1238Y-4.7362
X9.1409Y-5.6094
X9.1409Y-5.9094
X9.1433Y-4.9283
X9.1433Y-5.2283
X9.1652Y-4.1142
X9.2156Y-8.189
X9.2156Y-8.3858
X9.2238Y-4.4362
X9.2238Y-4.7362
X9.2409Y-5.6094
X9.2409Y-5.9094
X9.2433Y-4.9283
X9.2433Y-5.2283
X9.2913Y-5.4331
X9.3238Y-4.4362
X9.3238Y-4.7362
X9.3409Y-5.6094
X9.3409Y-5.9094
X9.3433Y-4.9283
X9.3433Y-5.2283
X9.4124Y-8.078
X9.4124Y-8.378
X9.4238Y-4.4362
X9.4238Y-4.7362
X9.4409Y-5.6094
X9.4409Y-5.9094
X9.5124Y-8.078
X9.5124Y-8.378
X9.5154Y-4.9409
X9.5154Y-5.1772
X9.5238Y-4.4362
X9.5238Y-4.7362
X9.5409Y-5.6094
X9.5409Y-5.9094
X9.5669Y-5.4331
X9.6124Y-8.078
X9.6124Y-8.378
X9.7124Y-8.078
X9.7124Y-8.378
X9.7638Y-5.4331
X9.8124Y-8.078
X9.8124Y-8.378
X9.8154Y-4.9409
X9.8154Y-5.1772
X9.9124Y-8.078
X9.9124Y-8.378
X10.0124Y-8.078
X10.0124Y-8.378
X10.1124Y-8.078
X10.1124Y-8.378
X10.2124Y-8.078
X10.2124Y-8.378
X10.3124Y-8.078
X10.3124Y-8.378
T5
X1.8783Y-3.1941
X1.9783Y-3.1941
X2.1539Y-3.1929
X2.2539Y-3.1929
T6
X1.688Y-8.0703
X1.688Y-8.1703
X1.788Y-8.0703
X1.788Y-8.1703
X1.852Y-8.7795
X1.852Y-8.8795
X1.888Y-8.0703
X1.888Y-8.1703
X1.952Y-8.7795
X1.952Y-8.8795
X1.988Y-8.0703
X1.988Y-8.1703
X2.052Y-8.7795
X2.052Y-8.8795
X2.0551Y-8.622
X2.0659Y-8.4055
X2.088Y-8.0703
X2.088Y-8.1703
X2.152Y-8.7795
X2.152Y-8.8795
X2.1551Y-8.622
X2.1659Y-8.4055
X2.188Y-8.0703
X2.188Y-8.1703
X2.252Y-8.7795
X2.252Y-8.8795
X2.2551Y-8.622
X2.2659Y-8.4055
X2.288Y-8.0703
X2.288Y-8.1703
X2.352Y-8.7795
X2.352Y-8.8795
X2.3551Y-8.622
X2.388Y-8.0703
X2.388Y-8.1703
X2.452Y-8.7795
X2.452Y-8.8795
X2.552Y-8.7795
X2.552Y-8.8795
X2.652Y-8.7795
X2.652Y-8.8795
X2.752Y-8.7795
X2.752Y-8.8795
X2.776Y-3.3661
X2.814Y-6.187
X2.814Y-6.287
X2.814Y-6.387
X2.814Y-6.487
X2.814Y-6.587
X2.814Y-6.687
X2.814Y-6.8957
X2.814Y-6.9957
X2.852Y-8.7795
X2.852Y-8.8795
X2.952Y-8.7795
X2.952Y-8.8795
X3.052Y-8.7795
X3.052Y-8.8795
X3.0699Y-6.1703
X3.0699Y-6.2703
X3.152Y-8.7795
X3.152Y-8.8795
X3.252Y-8.7795
X3.252Y-8.8795
X3.352Y-8.7795
X3.352Y-8.8795
X3.3665Y-3.3661
X3.452Y-8.7795
X3.452Y-8.8795
X3.552Y-8.7795
X3.552Y-8.8795
X3.652Y-8.7795
X3.652Y-8.8795
X3.752Y-8.7795
X3.752Y-8.8795
X3.852Y-8.7795
X3.852Y-8.8795
X3.8632Y-7.1549
X3.8632Y-7.2549
X3.9045Y-2.9134
X3.952Y-8.7795
X3.952Y-8.8795
X3.9632Y-7.1549
X3.9632Y-7.2549
X4.0045Y-2.9134
X4.052Y-8.7795
X4.052Y-8.8795
X4.0632Y-7.1549
X4.0632Y-7.2549
X4.152Y-8.7795
X4.152Y-8.8795
X4.1632Y-7.1549
X4.1632Y-7.2549
X4.252Y-8.7795
X4.252Y-8.8795
X4.2632Y-7.1549
X4.2632Y-7.2549
X4.2687Y-2.9724
X4.3632Y-7.1549
X4.3632Y-7.2549
X4.3687Y-2.9724
X4.4687Y-2.9724
X4.7654Y-8.7795
X4.7654Y-8.8795
X4.8654Y-8.7795
X4.8654Y-8.8795
X4.9654Y-8.7795
X4.9654Y-8.8795
X5.0187Y-7.2835
X5.0654Y-8.7795
X5.0654Y-8.8795
X5.1187Y-7.2835
X5.1654Y-8.7795
X5.1654Y-8.8795
X5.2187Y-7.2835
X5.2654Y-8.7795
X5.2654Y-8.8795
X5.3654Y-8.7795
X5.3654Y-8.8795
X5.4654Y-8.7795
X5.4654Y-8.8795
X5.5654Y-8.7795
X5.5654Y-8.8795
X5.5679Y-2.9724
X5.6545Y-4.3793
X5.6545Y-4.4793
X5.6654Y-8.7795
X5.6654Y-8.8795
X5.6679Y-2.9724
X5.7545Y-4.3793
X5.7545Y-4.4793
X5.7654Y-8.7795
X5.7654Y-8.8795
X5.7679Y-2.9724
X5.8051Y-3.4931
X5.8051Y-3.5931
X5.8545Y-4.3793
X5.8545Y-4.4793
X5.8654Y-8.7795
X5.8654Y-8.8795
X5.9545Y-4.3793
X5.9545Y-4.4793
X5.9654Y-8.7795
X5.9654Y-8.8795
X6.0545Y-4.3793
X6.0545Y-4.4793
X6.0654Y-8.7795
X6.0654Y-8.8795
X6.1545Y-4.3793
X6.1545Y-4.4793
X6.1654Y-8.7795
X6.1654Y-8.8795
X6.2545Y-4.3793
X6.2545Y-4.4793
X6.2654Y-8.7795
X6.2654Y-8.8795
X6.3545Y-4.3793
X6.3545Y-4.4793
X6.3654Y-8.7795
X6.3654Y-8.8795
X6.4654Y-8.7795
X6.4654Y-8.8795
X6.5654Y-8.7795
X6.5654Y-8.8795
X6.6654Y-8.7795
X6.6654Y-8.8795
X6.7293Y-7.5683
X6.7293Y-7.6683
X6.7654Y-8.7795
X6.7654Y-8.8795
X6.8293Y-7.5683
X6.8293Y-7.6683
X6.8654Y-8.7795
X6.8654Y-8.8795
X6.9293Y-7.5683
X6.9293Y-7.6683
X6.9654Y-8.7795
X6.9654Y-8.8795
X7.0147Y-2.9134
X7.0293Y-7.5683
X7.0293Y-7.6683
X7.0654Y-8.7795
X7.0654Y-8.8795
X7.1147Y-2.9134
X7.1293Y-7.5683
X7.1293Y-7.6683
X7.1654Y-8.7795
X7.1654Y-8.8795
X7.3789Y-2.9724
X7.4789Y-2.9724
X7.5789Y-2.9724
X7.7575Y-8.7795
X7.7575Y-8.8795
X7.8575Y-8.7795
X7.8575Y-8.8795
X7.9575Y-8.7795
X7.9575Y-8.8795
X8.0575Y-8.7795
X8.0575Y-8.8795
X8.1575Y-8.7795
X8.1575Y-8.8795
X8.2575Y-8.7795
X8.2575Y-8.8795
X8.3575Y-8.7795
X8.3575Y-8.8795
X8.4575Y-8.7795
X8.4575Y-8.8795
X8.5575Y-8.7795
X8.5575Y-8.8795
X8.6575Y-8.7795
X8.6575Y-8.8795
X8.6781Y-2.9724
X8.7575Y-8.7795
X8.7575Y-8.8795
X8.7781Y-2.9724
X8.8575Y-8.7795
X8.8575Y-8.8795
X8.8781Y-2.9724
X8.9153Y-3.4929
X8.9153Y-3.5929
X8.9575Y-8.7795
X8.9575Y-8.8795
X9.0575Y-8.7795
X9.0575Y-8.8795
X9.1575Y-8.7795
X9.1575Y-8.8795
X9.2575Y-8.7795
X9.2575Y-8.8795
X9.3575Y-8.7795
X9.3575Y-8.8795
X9.4098Y-3.3661
X9.4575Y-8.7795
X9.4575Y-8.8795
X9.5575Y-8.7795
X9.5575Y-8.8795
X9.6575Y-8.7795
X9.6575Y-8.8795
X9.7575Y-8.7795
X9.7575Y-8.8795
X9.8575Y-8.7795
X9.8575Y-8.8795
X9.9575Y-8.7795
X9.9575Y-8.8795
X10.0004Y-3.3661
X10.0575Y-8.7795
X10.0575Y-8.8795
X10.1575Y-8.7795
X10.1575Y-8.8795
T7
X7.4181Y-4.4488
X7.8181Y-4.4488
T8
X6.7323Y-4.4291
X6.8701Y-7.2047
T9
X1.5748Y-2.9528
X10.4331Y-2.9528
T3
G00X6.0728Y-2.9705
M15
G01X6.0728Y-2.9941
M16
G05
G00X6.0728Y-3.0886
M15
G01X6.0728Y-3.1122
M16
G05
G00X6.0728Y-3.2461
M15
G01X6.0728Y-3.2697
M16
G05
G00X6.25Y-3.3051
M15
G01X6.25Y-3.3287
M16
G05
G00X6.2894Y-2.9705
M15
G01X6.2894Y-2.9941
M16
G05
G00X6.5256Y-2.9705
M15
G01X6.5256Y-2.9941
M16
G05
G00X6.5256Y-3.0886
M15
G01X6.5256Y-3.1122
M16
G05
G00X6.5256Y-3.2461
M15
G01X6.5256Y-3.2697
M16
G05
G00X6.7028Y-3.3051
M15
G01X6.7028Y-3.3287
M16
G05
G00X6.7421Y-2.9705
M15
G01X6.7421Y-2.9941
M16
G05
T0
M30
