M48
; DRILL file {KiCad (6.0.11)} date Sat Oct 14 12:13:21 2023
; FORMAT={-:-/ absolute / inch / decimal}
; #@! TF.CreationDate,2023-10-14T12:13:21-04:00
; #@! TF.GenerationSoftware,Kicad,Pcbnew,(6.0.11)
; #@! TF.FileFunction,Plated,1,2,PTH
FMAT,2
INCH
; #@! TA.AperFunction,Plated,PTH,ViaDrill
T1C0.0157
; #@! TA.AperFunction,Plated,PTH,ComponentDrill
T2C0.0315
; #@! TA.AperFunction,Plated,PTH,ComponentDrill
T3C0.0354
; #@! TA.AperFunction,Plated,PTH,ComponentDrill
T4C0.0394
; #@! TA.AperFunction,Plated,PTH,ComponentDrill
T5C0.0433
; #@! TA.AperFunction,Plated,PTH,ComponentDrill
T6C0.0512
%
G90
G05
T1
X2.3727Y-3.6732
X2.5544Y-4.6415
X2.6119Y-4.5152
X2.6238Y-3.2016
X2.6599Y-5.5423
X2.6851Y-4.6461
X2.6887Y-5.3806
X2.716Y-3.918
X2.7163Y-3.9591
X2.7275Y-3.8646
X2.7774Y-5.248
X2.7793Y-3.8473
X2.816Y-4.1937
X2.9131Y-3.6974
X2.94Y-3.1388
X2.9871Y-4.5259
X3.069Y-2.2241
X3.2166Y-3.9227
X3.2531Y-5.1419
X3.2612Y-3.7265
X3.3221Y-3.7989
X3.35Y-4.1865
X3.3503Y-4.1468
X3.3963Y-4.6076
X3.4672Y-4.2465
X3.4757Y-5.149
X3.5005Y-4.1852
X3.5323Y-2.7324
X3.5855Y-4.1882
X3.6189Y-4.5678
X3.674Y-4.9796
X3.6771Y-3.9175
X3.6972Y-4.5503
X3.7234Y-3.85
X3.7321Y-2.9877
X3.7462Y-4.0153
X3.7794Y-4.5617
X3.7865Y-4.2562
X3.8097Y-4.2182
X3.8272Y-2.1213
X3.8597Y-3.4082
X3.8623Y-2.6675
X3.8787Y-2.1506
X3.8914Y-4.5513
X3.9098Y-4.0252
X3.943Y-4.5472
X3.9467Y-2.9445
X3.9475Y-3.2626
X3.9891Y-4.607
X3.9997Y-4.957
X4.0079Y-3.6715
X4.0323Y-4.9296
X4.0815Y-4.9892
X4.0963Y-3.7001
X4.1368Y-4.9259
X4.2302Y-4.2467
X4.2542Y-4.8036
X4.3057Y-4.6256
X4.3346Y-4.4219
X4.3638Y-4.4507
X4.475Y-3.6906
X4.4759Y-3.1701
X4.4771Y-2.9526
X4.4907Y-2.6381
X4.4925Y-4.8976
X4.516Y-3.4945
X4.5423Y-4.3868
X4.5607Y-3.6122
X4.6045Y-3.2747
X4.6068Y-4.6823
X4.62Y-3.3885
X4.6342Y-3.23
X4.6599Y-4.8892
X4.7285Y-4.4756
X4.7832Y-3.7876
X4.8717Y-5.111
X4.8811Y-3.7502
X4.8968Y-3.6742
X4.9288Y-3.1916
X4.9293Y-3.2524
X4.9428Y-3.9981
X5.0281Y-4.2069
X5.0715Y-2.3881
X5.0974Y-2.3474
X5.1267Y-2.1347
X5.1348Y-3.2606
X5.1497Y-2.3759
X5.179Y-3.15
X5.1913Y-4.7171
X5.1917Y-2.3361
X5.2337Y-2.4479
X5.2363Y-5.5903
X5.2623Y-4.1835
X5.2775Y-2.7443
X5.2805Y-2.4136
X5.2881Y-2.2193
X5.2999Y-3.813
X5.3145Y-4.2121
X5.3285Y-2.1789
X5.3293Y-2.5085
X5.3575Y-2.4556
X5.3611Y-2.3276
X5.4013Y-3.0403
X5.4186Y-2.1258
X5.4217Y-3.3587
X5.4337Y-2.2567
X5.4354Y-3.0023
X5.464Y-3.2761
X5.4695Y-2.8571
X5.4768Y-2.973
X5.5038Y-2.2803
X5.5161Y-2.1422
X5.5255Y-5.1778
X5.5379Y-2.9513
X5.5424Y-2.8909
X5.6093Y-3.7721
X5.6306Y-3.8358
X5.6919Y-4.7953
X5.7073Y-3.8414
X5.7316Y-3.8052
X5.7382Y-2.5066
X5.8001Y-3.9822
X5.8075Y-3.0995
X5.8114Y-2.333
X5.8178Y-2.7374
X5.8456Y-4.0446
X5.8582Y-4.1585
X5.8951Y-2.0983
X5.8971Y-5.6248
X5.9068Y-4.6594
X5.9068Y-4.7727
X5.9098Y-3.7432
X5.938Y-2.906
X5.9399Y-3.4634
X5.9573Y-3.1314
X5.9626Y-3.0734
X6.0026Y-2.5925
X6.0151Y-2.8672
X6.0228Y-2.1346
X6.0332Y-2.3879
X6.0482Y-5.679
X6.0524Y-2.3437
X6.0534Y-3.5912
X6.056Y-3.0489
X6.0821Y-3.2635
X6.0901Y-3.4758
X6.0915Y-3.0744
X6.1266Y-4.5396
X6.1296Y-2.4559
X6.1349Y-3.4446
X6.1471Y-3.6844
X6.1788Y-2.2678
X6.1876Y-3.6482
X6.2065Y-3.7098
X6.2087Y-4.0509
X6.2198Y-2.228
X6.2242Y-5.6806
X6.253Y-3.2627
X6.2631Y-2.6186
X6.285Y-2.2595
X6.286Y-2.218
X6.3215Y-2.7847
X6.3417Y-5.233
X6.3449Y-3.1279
X6.406Y-5.165
X6.4149Y-3.4968
X6.485Y-4.3284
X6.5232Y-3.1416
X6.5654Y-5.4815
X6.5663Y-5.4008
X6.6586Y-2.5672
X6.6932Y-2.9311
X6.6951Y-4.4928
X6.7286Y-4.5543
X7.1687Y-2.6
X7.2051Y-2.0382
T2
X2.1376Y-2.7264
X2.236Y-2.7264
X2.2819Y-3.6827
X2.2835Y-3.9961
X2.3638Y-3.2972
X2.3819Y-3.5827
X2.3819Y-3.7827
X2.3969Y-2.7528
X2.4346Y-4.8443
X2.4346Y-4.9443
X2.4346Y-5.0443
X2.4346Y-5.1443
X2.4346Y-5.2443
X2.4346Y-5.3443
X2.4803Y-3.9961
X2.5346Y-4.7443
X2.5346Y-4.8443
X2.5346Y-4.9443
X2.5346Y-5.0443
X2.5346Y-5.1443
X2.5346Y-5.2443
X2.5346Y-5.3443
X2.5346Y-5.4443
X2.6346Y-4.7443
X2.6346Y-4.8443
X2.6346Y-5.3443
X2.6346Y-5.4443
X2.6575Y-3.5311
X2.6575Y-3.8311
X2.6638Y-3.2972
X2.6969Y-2.7528
X2.7346Y-4.7443
X2.7346Y-4.8443
X2.7346Y-5.3443
X2.7346Y-5.4443
X2.8346Y-4.7443
X2.8346Y-4.8443
X2.8346Y-5.3443
X2.8346Y-5.4443
X2.8659Y-2.7921
X2.9272Y-3.0193
X2.9272Y-3.3193
X2.9331Y-5.6415
X2.9346Y-4.7443
X2.9346Y-4.8443
X2.9346Y-5.3443
X2.9346Y-5.4443
X2.9644Y-2.7921
X3.0346Y-4.7443
X3.0346Y-4.8443
X3.0346Y-4.9443
X3.0346Y-5.0443
X3.0346Y-5.1443
X3.0346Y-5.2443
X3.0346Y-5.3443
X3.0346Y-5.4443
X3.1022Y-2.7921
X3.1043Y-3.0193
X3.1043Y-3.3193
X3.1299Y-5.6415
X3.1346Y-4.8443
X3.1346Y-4.9443
X3.1346Y-5.0443
X3.1346Y-5.1443
X3.1346Y-5.2443
X3.1346Y-5.3443
X3.2006Y-2.7921
X3.3366Y-2.8634
X3.3366Y-3.0602
X3.3366Y-3.3661
X3.3366Y-3.563
X3.3366Y-3.8583
X3.3366Y-4.0551
X3.4144Y-4.813
X3.4144Y-5.0098
X3.5039Y-3.7945
X3.5039Y-4.0945
X3.5138Y-3.3122
X3.5138Y-3.6122
X3.5167Y-2.8114
X3.5167Y-3.1114
X3.5925Y-4.761
X3.5925Y-5.061
X3.6039Y-3.7945
X3.6039Y-4.0945
X3.6138Y-3.3122
X3.6138Y-3.6122
X3.6167Y-2.8114
X3.6167Y-3.1114
X3.6831Y-5.6201
X3.6925Y-4.761
X3.6925Y-5.061
X3.7039Y-3.7945
X3.7039Y-4.0945
X3.7138Y-3.3122
X3.7138Y-3.6122
X3.7167Y-2.8114
X3.7167Y-3.1114
X3.7697Y-2.6346
X3.7831Y-5.6201
X3.7925Y-4.761
X3.7925Y-5.061
X3.8039Y-3.7945
X3.8039Y-4.0945
X3.8138Y-3.3122
X3.8138Y-3.6122
X3.8167Y-2.8114
X3.8167Y-3.1114
X3.8287Y-2.3197
X3.8831Y-5.6201
X3.8925Y-4.761
X3.8925Y-5.061
X3.9039Y-3.7945
X3.9039Y-4.0945
X3.9138Y-3.3122
X3.9138Y-3.6122
X3.9167Y-2.8114
X3.9167Y-3.1114
X3.9272Y-2.3197
X3.9665Y-2.6346
X3.9831Y-5.6201
X3.9925Y-4.761
X3.9925Y-5.061
X4.0039Y-3.7945
X4.0039Y-4.0945
X4.0138Y-3.3122
X4.0138Y-3.6122
X4.0167Y-2.8114
X4.0167Y-3.1114
X4.0831Y-5.6201
X4.0925Y-4.761
X4.0925Y-5.061
X4.1039Y-3.7945
X4.1039Y-4.0945
X4.1138Y-3.3122
X4.1138Y-3.6122
X4.1167Y-2.8114
X4.1167Y-3.1114
X4.1831Y-5.6201
X4.1925Y-4.761
X4.1925Y-5.061
X4.2039Y-3.7945
X4.2039Y-4.0945
X4.2138Y-3.3122
X4.2138Y-3.6122
X4.2167Y-2.8114
X4.2167Y-3.1114
X4.2831Y-5.6201
X4.2925Y-4.761
X4.2925Y-5.061
X4.3039Y-3.7945
X4.3039Y-4.0945
X4.3138Y-3.3122
X4.3138Y-3.6122
X4.3167Y-2.8114
X4.3167Y-3.1114
X4.3831Y-5.6201
X4.3925Y-4.761
X4.3925Y-5.061
X4.4039Y-3.7945
X4.4039Y-4.0945
X4.4138Y-3.3122
X4.4138Y-3.6122
X4.4167Y-2.8114
X4.4167Y-3.1114
X4.4831Y-5.6201
X4.4925Y-4.761
X4.4925Y-5.061
X4.5039Y-3.7945
X4.5039Y-4.0945
X4.5925Y-4.761
X4.5925Y-5.061
X4.6039Y-3.7945
X4.6039Y-4.0945
X4.6555Y-2.372
X4.6925Y-4.761
X4.6925Y-5.061
X4.7264Y-2.6634
X4.7264Y-2.7634
X4.7264Y-2.8634
X4.7264Y-2.9634
X4.7264Y-3.0634
X4.7264Y-3.1634
X4.7264Y-3.2634
X4.7264Y-3.3634
X4.7264Y-3.4634
X4.8228Y-3.8878
X4.8228Y-4.0846
X4.8264Y-2.5634
X4.8264Y-2.6634
X4.8264Y-2.7634
X4.8264Y-2.8634
X4.8264Y-2.9634
X4.8264Y-3.0634
X4.8264Y-3.1634
X4.8264Y-3.2634
X4.8264Y-3.3634
X4.8264Y-3.4634
X4.8264Y-3.5634
X4.8524Y-2.372
X4.9264Y-2.5634
X4.9264Y-2.6634
X4.9264Y-3.4634
X4.9264Y-3.5634
X4.9587Y-3.8931
X4.9587Y-4.4931
X5.0264Y-2.5634
X5.0264Y-2.6634
X5.0264Y-3.4634
X5.0264Y-3.5634
X5.0587Y-3.8931
X5.0587Y-4.4931
X5.1264Y-2.5634
X5.1264Y-2.6634
X5.1264Y-3.4634
X5.1264Y-3.5634
X5.1587Y-3.8931
X5.1587Y-4.4931
X5.2264Y-2.5634
X5.2264Y-2.6634
X5.2264Y-3.4634
X5.2264Y-3.5634
X5.2587Y-3.8931
X5.2587Y-4.4931
X5.3248Y-2.372
X5.3248Y-3.7598
X5.3264Y-2.5634
X5.3264Y-2.6634
X5.3264Y-3.4634
X5.3264Y-3.5634
X5.3587Y-3.8931
X5.3587Y-4.4931
X5.4264Y-2.5634
X5.4264Y-2.6634
X5.4264Y-3.4634
X5.4264Y-3.5634
X5.4587Y-3.8931
X5.4587Y-4.4931
X5.5217Y-2.372
X5.5217Y-3.7598
X5.5264Y-2.5634
X5.5264Y-2.6634
X5.5264Y-3.4634
X5.5264Y-3.5634
X5.5587Y-3.8931
X5.5587Y-4.4931
X5.5906Y-4.7047
X5.5906Y-4.8047
X5.5906Y-4.9047
X5.5906Y-5.0047
X5.5906Y-5.1047
X5.5906Y-5.2047
X5.5906Y-5.3047
X5.5906Y-5.4047
X5.5906Y-5.5047
X5.6264Y-2.5634
X5.6264Y-2.6634
X5.6264Y-2.7634
X5.6264Y-2.8634
X5.6264Y-2.9634
X5.6264Y-3.0634
X5.6264Y-3.1634
X5.6264Y-3.2634
X5.6264Y-3.3634
X5.6264Y-3.4634
X5.6264Y-3.5634
X5.6587Y-3.8931
X5.6587Y-4.4931
X5.7264Y-2.6634
X5.7264Y-2.7634
X5.7264Y-2.8634
X5.7264Y-2.9634
X5.7264Y-3.0634
X5.7264Y-3.1634
X5.7264Y-3.2634
X5.7264Y-3.3634
X5.7264Y-3.4634
X5.7587Y-3.8931
X5.7587Y-4.4931
X5.8587Y-3.8931
X5.8587Y-4.4931
X5.8945Y-4.8443
X5.8945Y-4.9443
X5.8945Y-5.0443
X5.8945Y-5.1443
X5.8945Y-5.2443
X5.8945Y-5.3443
X5.9252Y-3.376
X5.9252Y-3.676
X5.9587Y-3.8931
X5.9587Y-4.4931
X5.9945Y-4.7443
X5.9945Y-4.8443
X5.9945Y-4.9443
X5.9945Y-5.0443
X5.9945Y-5.1443
X5.9945Y-5.2443
X5.9945Y-5.3443
X5.9945Y-5.4443
X6.0531Y-3.376
X6.0531Y-3.676
X6.0587Y-3.8931
X6.0587Y-4.4931
X6.0878Y-2.5264
X6.0878Y-2.6264
X6.0878Y-2.7264
X6.0878Y-2.8264
X6.0878Y-2.9264
X6.0945Y-4.7443
X6.0945Y-4.8443
X6.0945Y-5.3443
X6.0945Y-5.4443
X6.1587Y-3.8931
X6.1587Y-4.4931
X6.1878Y-2.4264
X6.1878Y-2.5264
X6.1878Y-2.6264
X6.1878Y-2.7264
X6.1878Y-2.8264
X6.1878Y-2.9264
X6.1878Y-3.0264
X6.1945Y-4.7443
X6.1945Y-4.8443
X6.1945Y-5.3443
X6.1945Y-5.4443
X6.2303Y-3.3858
X6.2303Y-3.578
X6.2587Y-3.8931
X6.2587Y-4.4931
X6.2878Y-2.4264
X6.2878Y-2.5264
X6.2878Y-2.9264
X6.2878Y-3.0264
X6.2945Y-4.7443
X6.2945Y-4.8443
X6.2945Y-5.3443
X6.2945Y-5.4443
X6.3587Y-3.8931
X6.3587Y-4.4931
X6.3878Y-2.2343
X6.3878Y-2.4264
X6.3878Y-2.5264
X6.3878Y-2.9264
X6.3878Y-3.0264
X6.3945Y-4.7443
X6.3945Y-4.8443
X6.3945Y-5.3443
X6.3945Y-5.4443
X6.3976Y-3.2972
X6.3976Y-3.3957
X6.3976Y-3.563
X6.3976Y-3.6614
X6.3976Y-5.6415
X6.4587Y-3.8931
X6.4587Y-4.4931
X6.4878Y-2.4264
X6.4878Y-2.5264
X6.4878Y-2.6264
X6.4878Y-2.7264
X6.4878Y-2.8264
X6.4878Y-2.9264
X6.4878Y-3.0264
X6.4945Y-4.7443
X6.4945Y-4.8443
X6.4945Y-4.9443
X6.4945Y-5.0443
X6.4945Y-5.1443
X6.4945Y-5.2443
X6.4945Y-5.3443
X6.4945Y-5.4443
X6.5846Y-2.2343
X6.5878Y-2.5264
X6.5878Y-2.6264
X6.5878Y-2.7264
X6.5878Y-2.8264
X6.5878Y-2.9264
X6.5945Y-4.8443
X6.5945Y-4.9443
X6.5945Y-5.0443
X6.5945Y-5.1443
X6.5945Y-5.2443
X6.5945Y-5.3443
X6.5945Y-5.6415
T3
X2.2661Y-3.0906
X2.3661Y-3.0906
X2.463Y-3.0906
X2.563Y-3.0906
X2.6598Y-3.0906
X2.7598Y-3.0906
X3.3929Y-5.3543
X3.4929Y-5.3543
X3.5915Y-5.3543
X3.6915Y-5.3543
X3.7884Y-5.3543
X3.8884Y-5.3543
X3.9852Y-5.3543
X4.0852Y-5.3543
X4.1819Y-5.3543
X4.2819Y-5.3543
X4.3787Y-5.3543
X4.4787Y-5.3543
X4.5758Y-5.3543
X4.6758Y-5.3543
X4.7726Y-5.3543
X4.8726Y-5.3543
T4
X2.0472Y-2.9906
X2.0472Y-3.0906
X2.0472Y-3.1906
X2.0472Y-3.2906
X2.0472Y-3.3906
X2.0472Y-3.4906
X2.0472Y-3.7293
X2.0472Y-3.8293
X2.0472Y-4.061
X2.0472Y-4.161
X2.0472Y-4.261
X2.0472Y-4.361
X2.0472Y-4.461
X2.0472Y-4.561
X2.0472Y-4.7923
X2.0472Y-4.8923
X2.0472Y-5.126
X2.0472Y-5.226
X2.0472Y-5.326
X2.0472Y-5.426
X2.1703Y-2.0463
X2.19Y-5.8258
X2.2638Y-4.252
X2.2638Y-4.352
X2.2638Y-4.452
X2.2703Y-2.0463
X2.29Y-5.8258
X2.3638Y-4.252
X2.3638Y-4.352
X2.3638Y-4.452
X2.3703Y-2.0463
X2.39Y-5.8258
X2.4703Y-2.0463
X2.49Y-5.8258
X2.5703Y-2.0463
X2.59Y-5.8258
X2.6053Y-4.34
X2.6053Y-4.44
X2.6703Y-2.0463
X2.69Y-5.8258
X2.7053Y-4.34
X2.7053Y-4.44
X2.7703Y-2.0463
X2.79Y-5.8258
X2.8053Y-4.34
X2.8053Y-4.44
X2.8703Y-2.0463
X2.89Y-5.8258
X2.9053Y-4.34
X2.9053Y-4.44
X3.0014Y-3.5191
X3.0014Y-3.6191
X3.0014Y-3.7191
X3.0014Y-3.8191
X3.0014Y-3.9191
X3.0014Y-4.0191
X3.0014Y-4.1191
X3.0053Y-4.34
X3.0053Y-4.44
X3.1014Y-3.5191
X3.1014Y-3.6191
X3.1014Y-3.7191
X3.1014Y-3.8191
X3.1014Y-3.9191
X3.1014Y-4.0191
X3.1014Y-4.1191
X3.1053Y-4.34
X3.1053Y-4.44
X3.1348Y-2.0463
X3.1545Y-5.8258
X3.2053Y-4.34
X3.2053Y-4.44
X3.2348Y-2.0463
X3.2545Y-5.8258
X3.3053Y-4.34
X3.3053Y-4.44
X3.3348Y-2.0463
X3.3545Y-5.8258
X3.4053Y-4.34
X3.4053Y-4.44
X3.4348Y-2.0463
X3.4545Y-5.8258
X3.5053Y-4.34
X3.5053Y-4.44
X3.5348Y-2.0463
X3.5545Y-5.8258
X3.6053Y-4.34
X3.6053Y-4.44
X3.6348Y-2.0463
X3.6545Y-5.8258
X3.7053Y-4.34
X3.7053Y-4.44
X3.7348Y-2.0463
X3.7545Y-5.8258
X3.8053Y-4.34
X3.8053Y-4.44
X3.8348Y-2.0463
X3.8545Y-5.8258
X3.9053Y-4.34
X3.9053Y-4.44
X4.0053Y-4.34
X4.0053Y-4.44
X4.0994Y-2.0463
X4.1053Y-4.34
X4.1053Y-4.44
X4.1191Y-5.8258
X4.1994Y-2.0463
X4.2053Y-4.34
X4.2053Y-4.44
X4.2191Y-5.8258
X4.2994Y-2.0463
X4.3191Y-5.8258
X4.3994Y-2.0463
X4.4191Y-5.8258
X4.4994Y-2.0463
X4.5191Y-5.8258
X4.5994Y-2.0463
X4.6171Y-4.3406
X4.6171Y-4.4406
X4.6191Y-5.8258
X4.6994Y-2.0463
X4.7191Y-5.8258
X4.7994Y-2.0463
X4.8191Y-5.8258
X4.9498Y-4.812
X4.9498Y-4.912
X4.9498Y-5.012
X5.0498Y-4.812
X5.0498Y-4.912
X5.0498Y-5.012
X5.064Y-2.0463
X5.0837Y-5.8258
X5.164Y-2.0463
X5.1837Y-5.8258
X5.264Y-2.0463
X5.2837Y-5.8258
X5.364Y-2.0463
X5.3837Y-5.8258
X5.464Y-2.0463
X5.4837Y-5.8258
X5.564Y-2.0463
X5.5837Y-5.8258
X5.664Y-2.0463
X5.6837Y-5.8258
X5.764Y-2.0463
X5.7837Y-5.8258
X6.0285Y-2.0463
X6.0482Y-5.8258
X6.1285Y-2.0463
X6.1482Y-5.8258
X6.2285Y-2.0463
X6.2482Y-5.8258
X6.3285Y-2.0463
X6.3482Y-5.8258
X6.4285Y-2.0463
X6.4482Y-5.8258
X6.5285Y-2.0463
X6.5482Y-5.8258
X6.6285Y-2.0463
X6.6482Y-5.8258
X6.7285Y-2.0463
X6.7482Y-5.8258
X6.8Y-2.25
X6.8Y-2.35
X6.8Y-2.45
X6.8Y-2.55
X6.8Y-2.65
X6.8Y-2.75
X6.8Y-2.85
X6.8Y-2.95
X6.8Y-3.05
X6.8Y-3.15
X6.8Y-3.25
X6.8Y-3.35
X6.8Y-3.45
X6.8Y-3.55
X6.8Y-3.65
X6.8Y-3.75
X6.8Y-3.85
X6.8Y-3.95
X6.8Y-4.05
X6.8Y-4.15
X6.8Y-4.25
X6.8Y-4.35
X6.8Y-4.45
X6.8Y-4.55
X6.8Y-4.65
X6.8Y-4.75
X6.8Y-4.85
X6.8Y-4.95
X6.8Y-5.05
X6.8Y-5.15
X6.8Y-5.25
X6.8Y-5.35
X6.8Y-5.45
X6.8Y-5.55
X6.8Y-5.65
X6.9Y-2.25
X6.9Y-2.35
X6.9Y-2.45
X6.9Y-2.55
X6.9Y-2.65
X6.9Y-2.75
X6.9Y-2.85
X6.9Y-2.95
X6.9Y-3.05
X6.9Y-3.15
X6.9Y-3.25
X6.9Y-3.35
X6.9Y-3.45
X6.9Y-3.55
X6.9Y-3.65
X6.9Y-3.75
X6.9Y-3.85
X6.9Y-3.95
X6.9Y-4.05
X6.9Y-4.15
X6.9Y-4.25
X6.9Y-4.35
X6.9Y-4.45
X6.9Y-4.55
X6.9Y-4.65
X6.9Y-4.75
X6.9Y-4.85
X6.9Y-4.95
X6.9Y-5.05
X6.9Y-5.15
X6.9Y-5.25
X6.9Y-5.35
X6.9Y-5.45
X6.9Y-5.55
X6.9Y-5.65
X7.0Y-2.25
X7.0Y-2.35
X7.0Y-2.45
X7.0Y-2.55
X7.0Y-2.65
X7.0Y-2.75
X7.0Y-2.85
X7.0Y-2.95
X7.0Y-3.05
X7.0Y-3.15
X7.0Y-3.25
X7.0Y-3.35
X7.0Y-3.45
X7.0Y-3.55
X7.0Y-3.65
X7.0Y-3.75
X7.0Y-3.85
X7.0Y-3.95
X7.0Y-4.05
X7.0Y-4.15
X7.0Y-4.25
X7.0Y-4.35
X7.0Y-4.45
X7.0Y-4.55
X7.0Y-4.65
X7.0Y-4.75
X7.0Y-4.85
X7.0Y-4.95
X7.0Y-5.05
X7.0Y-5.15
X7.0Y-5.25
X7.0Y-5.35
X7.0Y-5.45
X7.0Y-5.55
X7.0Y-5.65
X7.0276Y-5.8258
X7.0472Y-2.0472
X7.1Y-2.25
X7.1Y-2.35
X7.1Y-2.45
X7.1Y-2.55
X7.1Y-2.65
X7.1Y-2.75
X7.1Y-2.85
X7.1Y-2.95
X7.1Y-3.05
X7.1Y-3.15
X7.1Y-3.25
X7.1Y-3.35
X7.1Y-3.45
X7.1Y-3.55
X7.1Y-3.65
X7.1Y-3.75
X7.1Y-3.85
X7.1Y-3.95
X7.1Y-4.05
X7.1Y-4.15
X7.1Y-4.25
X7.1Y-4.35
X7.1Y-4.45
X7.1Y-4.55
X7.1Y-4.65
X7.1Y-4.75
X7.1Y-4.85
X7.1Y-4.95
X7.1Y-5.05
X7.1Y-5.15
X7.1Y-5.25
X7.1Y-5.35
X7.1Y-5.45
X7.1Y-5.55
X7.1Y-5.65
X7.1276Y-5.8258
X7.1472Y-2.0472
X7.2Y-2.25
X7.2Y-2.35
X7.2Y-2.45
X7.2Y-2.55
X7.2Y-2.65
X7.2Y-2.75
X7.2Y-2.85
X7.2Y-2.95
X7.2Y-3.05
X7.2Y-3.15
X7.2Y-3.25
X7.2Y-3.35
X7.2Y-3.45
X7.2Y-3.55
X7.2Y-3.65
X7.2Y-3.75
X7.2Y-3.85
X7.2Y-3.95
X7.2Y-4.05
X7.2Y-4.15
X7.2Y-4.25
X7.2Y-4.35
X7.2Y-4.45
X7.2Y-4.55
X7.2Y-4.65
X7.2Y-4.75
X7.2Y-4.85
X7.2Y-4.95
X7.2Y-5.05
X7.2Y-5.15
X7.2Y-5.25
X7.2Y-5.35
X7.2Y-5.45
X7.2Y-5.55
X7.2Y-5.65
X7.3Y-2.25
X7.3Y-2.35
X7.3Y-2.45
X7.3Y-2.55
X7.3Y-2.65
X7.3Y-2.75
X7.3Y-2.85
X7.3Y-2.95
X7.3Y-3.05
X7.3Y-3.15
X7.3Y-3.25
X7.3Y-3.35
X7.3Y-3.45
X7.3Y-3.55
X7.3Y-3.65
X7.3Y-3.75
X7.3Y-3.85
X7.3Y-3.95
X7.3Y-4.05
X7.3Y-4.15
X7.3Y-4.25
X7.3Y-4.35
X7.3Y-4.45
X7.3Y-4.55
X7.3Y-4.65
X7.3Y-4.75
X7.3Y-4.85
X7.3Y-4.95
X7.3Y-5.05
X7.3Y-5.15
X7.3Y-5.25
X7.3Y-5.35
X7.3Y-5.45
X7.3Y-5.55
X7.3Y-5.65
X7.4Y-2.25
X7.4Y-2.35
X7.4Y-2.45
X7.4Y-2.55
X7.4Y-2.65
X7.4Y-2.75
X7.4Y-2.85
X7.4Y-2.95
X7.4Y-3.05
X7.4Y-3.15
X7.4Y-3.25
X7.4Y-3.35
X7.4Y-3.45
X7.4Y-3.55
X7.4Y-3.65
X7.4Y-3.75
X7.4Y-3.85
X7.4Y-3.95
X7.4Y-4.05
X7.4Y-4.15
X7.4Y-4.25
X7.4Y-4.35
X7.4Y-4.45
X7.4Y-4.55
X7.4Y-4.65
X7.4Y-4.75
X7.4Y-4.85
X7.4Y-4.95
X7.4Y-5.05
X7.4Y-5.15
X7.4Y-5.25
X7.4Y-5.35
X7.4Y-5.45
X7.4Y-5.55
X7.4Y-5.65
X7.4262Y-2.0463
X7.4262Y-5.8258
X7.5Y-2.25
X7.5Y-2.35
X7.5Y-2.45
X7.5Y-2.55
X7.5Y-2.65
X7.5Y-2.75
X7.5Y-2.85
X7.5Y-2.95
X7.5Y-3.05
X7.5Y-3.15
X7.5Y-3.25
X7.5Y-3.35
X7.5Y-3.45
X7.5Y-3.55
X7.5Y-3.65
X7.5Y-3.75
X7.5Y-3.85
X7.5Y-3.95
X7.5Y-4.05
X7.5Y-4.15
X7.5Y-4.25
X7.5Y-4.35
X7.5Y-4.45
X7.5Y-4.55
X7.5Y-4.65
X7.5Y-4.75
X7.5Y-4.85
X7.5Y-4.95
X7.5Y-5.05
X7.5Y-5.15
X7.5Y-5.25
X7.5Y-5.35
X7.5Y-5.45
X7.5Y-5.55
X7.5Y-5.65
X7.5262Y-2.0463
X7.5262Y-5.8258
X7.6Y-2.25
X7.6Y-2.35
X7.6Y-2.45
X7.6Y-2.55
X7.6Y-2.65
X7.6Y-2.75
X7.6Y-2.85
X7.6Y-2.95
X7.6Y-3.05
X7.6Y-3.15
X7.6Y-3.25
X7.6Y-3.35
X7.6Y-3.45
X7.6Y-3.55
X7.6Y-3.65
X7.6Y-3.75
X7.6Y-3.85
X7.6Y-3.95
X7.6Y-4.05
X7.6Y-4.15
X7.6Y-4.25
X7.6Y-4.35
X7.6Y-4.45
X7.6Y-4.55
X7.6Y-4.65
X7.6Y-4.75
X7.6Y-4.85
X7.6Y-4.95
X7.6Y-5.05
X7.6Y-5.15
X7.6Y-5.25
X7.6Y-5.35
X7.6Y-5.45
X7.6Y-5.55
X7.6Y-5.65
X7.6262Y-2.0463
X7.6262Y-5.8258
X7.7Y-2.25
X7.7Y-2.35
X7.7Y-2.45
X7.7Y-2.55
X7.7Y-2.65
X7.7Y-2.75
X7.7Y-2.85
X7.7Y-2.95
X7.7Y-3.05
X7.7Y-3.15
X7.7Y-3.25
X7.7Y-3.35
X7.7Y-3.45
X7.7Y-3.55
X7.7Y-3.65
X7.7Y-3.75
X7.7Y-3.85
X7.7Y-3.95
X7.7Y-4.05
X7.7Y-4.15
X7.7Y-4.25
X7.7Y-4.35
X7.7Y-4.45
X7.7Y-4.55
X7.7Y-4.65
X7.7Y-4.75
X7.7Y-4.85
X7.7Y-4.95
X7.7Y-5.05
X7.7Y-5.15
X7.7Y-5.25
X7.7Y-5.35
X7.7Y-5.45
X7.7Y-5.55
X7.7Y-5.65
X7.7262Y-2.0463
X7.7262Y-5.8258
X7.8Y-2.25
X7.8Y-2.35
X7.8Y-2.45
X7.8Y-2.55
X7.8Y-2.65
X7.8Y-2.75
X7.8Y-2.85
X7.8Y-2.95
X7.8Y-3.05
X7.8Y-3.15
X7.8Y-3.25
X7.8Y-3.35
X7.8Y-3.45
X7.8Y-3.55
X7.8Y-3.65
X7.8Y-3.75
X7.8Y-3.85
X7.8Y-3.95
X7.8Y-4.05
X7.8Y-4.15
X7.8Y-4.25
X7.8Y-4.35
X7.8Y-4.45
X7.8Y-4.55
X7.8Y-4.65
X7.8Y-4.75
X7.8Y-4.85
X7.8Y-4.95
X7.8Y-5.05
X7.8Y-5.15
X7.8Y-5.25
X7.8Y-5.35
X7.8Y-5.45
X7.8Y-5.55
X7.8Y-5.65
X7.8262Y-2.0463
X7.8262Y-5.8258
X7.9Y-2.25
X7.9Y-2.35
X7.9Y-2.45
X7.9Y-2.55
X7.9Y-2.65
X7.9Y-2.75
X7.9Y-2.85
X7.9Y-2.95
X7.9Y-3.05
X7.9Y-3.15
X7.9Y-3.25
X7.9Y-3.35
X7.9Y-3.45
X7.9Y-3.55
X7.9Y-3.65
X7.9Y-3.75
X7.9Y-3.85
X7.9Y-3.95
X7.9Y-4.05
X7.9Y-4.15
X7.9Y-4.25
X7.9Y-4.35
X7.9Y-4.45
X7.9Y-4.55
X7.9Y-4.65
X7.9Y-4.75
X7.9Y-4.85
X7.9Y-4.95
X7.9Y-5.05
X7.9Y-5.15
X7.9Y-5.25
X7.9Y-5.35
X7.9Y-5.45
X7.9Y-5.55
X7.9Y-5.65
X7.9262Y-2.0463
X7.9262Y-5.8258
X8.0Y-2.25
X8.0Y-2.35
X8.0Y-2.45
X8.0Y-2.55
X8.0Y-2.65
X8.0Y-2.75
X8.0Y-2.85
X8.0Y-2.95
X8.0Y-3.05
X8.0Y-3.15
X8.0Y-3.25
X8.0Y-3.35
X8.0Y-3.45
X8.0Y-3.55
X8.0Y-3.65
X8.0Y-3.75
X8.0Y-3.85
X8.0Y-3.95
X8.0Y-4.05
X8.0Y-4.15
X8.0Y-4.25
X8.0Y-4.35
X8.0Y-4.45
X8.0Y-4.55
X8.0Y-4.65
X8.0Y-4.75
X8.0Y-4.85
X8.0Y-4.95
X8.0Y-5.05
X8.0Y-5.15
X8.0Y-5.25
X8.0Y-5.35
X8.0Y-5.45
X8.0Y-5.55
X8.0Y-5.65
X8.0262Y-2.0463
X8.0262Y-5.8258
X8.1Y-2.25
X8.1Y-2.35
X8.1Y-2.45
X8.1Y-2.55
X8.1Y-2.65
X8.1Y-2.75
X8.1Y-2.85
X8.1Y-2.95
X8.1Y-3.05
X8.1Y-3.15
X8.1Y-3.25
X8.1Y-3.35
X8.1Y-3.45
X8.1Y-3.55
X8.1Y-3.65
X8.1Y-3.75
X8.1Y-3.85
X8.1Y-3.95
X8.1Y-4.05
X8.1Y-4.15
X8.1Y-4.25
X8.1Y-4.35
X8.1Y-4.45
X8.1Y-4.55
X8.1Y-4.65
X8.1Y-4.75
X8.1Y-4.85
X8.1Y-4.95
X8.1Y-5.05
X8.1Y-5.15
X8.1Y-5.25
X8.1Y-5.35
X8.1Y-5.45
X8.1Y-5.55
X8.1Y-5.65
X8.1262Y-2.0463
X8.1262Y-5.8258
X8.2Y-2.25
X8.2Y-2.35
X8.2Y-2.45
X8.2Y-2.55
X8.2Y-2.65
X8.2Y-2.75
X8.2Y-2.85
X8.2Y-2.95
X8.2Y-3.05
X8.2Y-3.15
X8.2Y-3.25
X8.2Y-3.35
X8.2Y-3.45
X8.2Y-3.55
X8.2Y-3.65
X8.2Y-3.75
X8.2Y-3.85
X8.2Y-3.95
X8.2Y-4.05
X8.2Y-4.15
X8.2Y-4.25
X8.2Y-4.35
X8.2Y-4.45
X8.2Y-4.55
X8.2Y-4.65
X8.2Y-4.75
X8.2Y-4.85
X8.2Y-4.95
X8.2Y-5.05
X8.2Y-5.15
X8.2Y-5.25
X8.2Y-5.35
X8.2Y-5.45
X8.2Y-5.55
X8.2Y-5.65
T5
X2.687Y-2.2803
X2.687Y-2.4575
X2.9429Y-2.2803
X2.9429Y-2.4575
X3.6181Y-2.1984
X3.6181Y-2.5984
X4.1831Y-2.2409
X4.1831Y-2.3409
X4.1831Y-2.4409
T6
X3.1581Y-2.3864
X3.3581Y-2.3864
T4
G00X2.2933Y-2.3214
M15
G01X2.2933Y-2.4001
M16
G05
G00X2.372Y-2.5458
M15
G01X2.4508Y-2.5458
M16
G05
G00X2.5295Y-2.3214
M15
G01X2.5295Y-2.4001
M16
G05
T0
M30
