M48
; DRILL file {KiCad (6.0.11)} date Mon Dec 18 18:03:02 2023
; FORMAT={-:-/ absolute / inch / decimal}
; #@! TF.CreationDate,2023-12-18T18:03:02-06:00
; #@! TF.GenerationSoftware,Kicad,Pcbnew,(6.0.11)
; #@! TF.FileFunction,Plated,1,2,PTH
FMAT,2
INCH
; #@! TA.AperFunction,Plated,PTH,ComponentDrill
T1C0.0118
; #@! TA.AperFunction,Plated,PTH,ViaDrill
T2C0.0157
; #@! TA.AperFunction,Plated,PTH,ComponentDrill
T3C0.0295
; #@! TA.AperFunction,Plated,PTH,ComponentDrill
T4C0.0315
; #@! TA.AperFunction,Plated,PTH,ComponentDrill
T5C0.0354
; #@! TA.AperFunction,Plated,PTH,ComponentDrill
T6C0.0390
; #@! TA.AperFunction,Plated,PTH,ComponentDrill
T7C0.0394
; #@! TA.AperFunction,Plated,PTH,ComponentDrill
T8C0.0512
; #@! TA.AperFunction,Plated,PTH,ComponentDrill
T9C0.1260
%
G90
G05
T1
X5.8465Y-3.8642
X5.8465Y-3.9114
X7.8937Y-7.3484
X7.8937Y-7.3957
T2
X2.0764Y-7.4422
X2.353Y-5.2551
X2.353Y-6.3051
X2.403Y-5.2051
X2.4401Y-6.6099
X2.4707Y-7.3175
X2.6062Y-6.6201
X2.6237Y-7.4801
X2.628Y-4.9551
X2.643Y-7.5459
X2.6535Y-4.35
X2.678Y-5.6051
X2.703Y-5.0801
X2.703Y-5.2301
X2.7371Y-7.4384
X2.8338Y-6.0785
X2.8405Y-3.79
X2.8838Y-4.4148
X2.8845Y-7.0546
X2.9115Y-7.5786
X2.9124Y-6.6489
X2.9419Y-6.078
X2.9729Y-4.4261
X3.0311Y-5.9484
X3.0749Y-7.9159
X3.0956Y-5.3916
X3.1344Y-4.6076
X3.1442Y-8.0493
X3.1478Y-6.1786
X3.2649Y-7.3298
X3.2848Y-8.5107
X3.2965Y-6.8167
X3.5067Y-5.5407
X3.6104Y-5.692
X3.6224Y-8.5196
X3.6402Y-5.3118
X3.7378Y-7.7772
X3.753Y-4.7801
X3.803Y-4.7301
X3.8588Y-6.1793
X3.8896Y-7.7662
X3.946Y-6.8061
X3.9946Y-7.8335
X4.0615Y-6.0025
X4.1668Y-6.5803
X4.2915Y-6.2008
X4.387Y-7.5517
X4.487Y-8.1373
X4.5351Y-6.7951
X4.5465Y-7.4197
X4.6032Y-7.4634
X4.6698Y-6.7407
X4.683Y-7.2015
X4.6833Y-4.4696
X4.6883Y-5.4088
X4.7543Y-7.9628
X4.7856Y-5.6044
X4.7859Y-7.1803
X4.8366Y-7.5578
X4.8472Y-4.3043
X4.9486Y-4.4133
X4.9573Y-5.8485
X4.9708Y-6.7421
X5.0263Y-5.0703
X5.14Y-8.2911
X5.2302Y-5.3509
X5.2505Y-3.9973
X5.2529Y-6.4157
X5.2796Y-4.71
X5.2799Y-3.9584
X5.2925Y-7.7232
X5.321Y-5.7178
X5.3224Y-6.399
X5.3388Y-3.3347
X5.416Y-7.8053
X5.4397Y-7.1804
X5.4404Y-6.9629
X5.4649Y-6.8137
X5.474Y-5.9802
X5.481Y-6.9438
X5.4848Y-5.5269
X5.4932Y-5.5855
X5.5096Y-8.2976
X5.5231Y-6.7938
X5.5309Y-6.3513
X5.5537Y-6.4529
X5.559Y-6.5796
X5.5868Y-7.263
X5.6622Y-7.7039
X5.6881Y-7.9932
X5.7416Y-6.9192
X5.7567Y-5.426
X5.7711Y-5.7206
X5.7812Y-8.2956
X5.8033Y-8.5
X5.8092Y-7.4888
X5.8392Y-6.0081
X5.905Y-7.7424
X5.9117Y-7.2481
X5.9763Y-8.4969
X6.0179Y-6.3528
X6.0243Y-5.9789
X6.036Y-6.4438
X6.0488Y-8.1121
X6.0886Y-7.1127
X6.097Y-6.7088
X6.0975Y-7.7662
X6.0992Y-6.7516
X6.1234Y-6.6795
X6.1414Y-4.9378
X6.1489Y-3.6231
X6.1552Y-6.6361
X6.1757Y-7.9828
X6.1876Y-5.9641
X6.1905Y-7.8685
X6.2105Y-7.9515
X6.2117Y-7.2447
X6.221Y-5.0824
X6.2253Y-7.0975
X6.2267Y-8.1581
X6.2344Y-8.1186
X6.25Y-8.0234
X6.2573Y-7.2297
X6.2923Y-5.8555
X6.3318Y-7.7874
X6.39Y-5.9959
X6.4473Y-5.0671
X6.4474Y-6.1784
X6.4603Y-6.0135
X6.5106Y-8.4865
X6.5116Y-8.685
X6.5217Y-7.7715
X6.5334Y-7.7316
X6.572Y-7.3278
X6.5867Y-4.3616
X6.5929Y-5.9407
X6.6089Y-5.4798
X6.6297Y-5.7469
X6.6387Y-7.5184
X6.676Y-8.0501
X6.6846Y-6.9997
X6.691Y-7.9139
X6.7073Y-7.8418
X6.739Y-7.8794
X6.7595Y-3.6086
X6.7703Y-7.8479
X6.8169Y-5.7702
X6.8964Y-5.452
X6.9686Y-3.5755
X7.0184Y-3.8112
X7.0689Y-3.257
X7.0723Y-8.6054
X7.0758Y-3.8398
X7.1302Y-7.1551
X7.2023Y-3.9606
X7.2428Y-3.9439
X7.2529Y-5.795
X7.3354Y-5.3954
X7.3976Y-4.9977
X7.436Y-8.575
X7.4476Y-4.6128
X7.4865Y-5.1109
X7.5496Y-8.7084
X7.5847Y-7.2858
X7.6279Y-4.7104
X7.6426Y-5.6382
X7.6656Y-3.4712
X7.6951Y-8.2721
X7.7484Y-7.1398
X7.752Y-4.0785
X7.7648Y-3.467
X7.7925Y-6.8097
X7.8248Y-6.1775
X7.8565Y-7.3518
X7.8617Y-7.2947
X7.8728Y-3.603
X7.9262Y-8.2544
X7.9345Y-3.6328
X7.9427Y-3.7666
X7.9484Y-8.1572
X7.9538Y-3.9651
X8.0132Y-5.3668
X8.0336Y-7.2715
X8.0773Y-7.1376
X8.0903Y-3.4278
X8.0938Y-5.3489
X8.1041Y-8.2454
X8.123Y-7.1319
X8.1573Y-6.9203
X8.1704Y-3.5744
X8.1726Y-3.4506
X8.1913Y-4.2662
X8.2007Y-3.4787
X8.2196Y-4.4732
X8.2213Y-6.1176
X8.23Y-3.5826
X8.2529Y-7.8013
X8.2871Y-4.4571
X8.3581Y-3.9339
X8.3591Y-7.214
X8.3736Y-8.2205
X8.3802Y-3.4337
X8.4121Y-3.2576
X8.4525Y-8.2004
X8.4679Y-4.1015
X8.4802Y-7.7089
X8.4808Y-6.8097
X8.4889Y-4.7574
X8.4957Y-6.8944
X8.5319Y-3.835
X8.5439Y-4.7752
X8.5603Y-4.5625
X8.5687Y-8.2196
X8.6236Y-7.9904
X8.6242Y-3.9402
X8.7141Y-3.9259
X8.8001Y-8.3125
X8.8221Y-7.51
X8.8525Y-6.6919
X8.9795Y-5.3942
X8.9871Y-4.1269
X9.0557Y-7.7453
X9.1321Y-7.5994
X9.1358Y-7.1481
X9.153Y-8.0651
X9.202Y-7.7806
X9.3985Y-6.5829
X9.591Y-7.3668
X9.5912Y-7.5606
X9.6613Y-7.8988
X9.7561Y-7.997
X9.8284Y-7.6933
X9.9414Y-7.5909
X10.0908Y-7.5954
T3
X1.8398Y-7.5563
X1.8898Y-7.5063
X1.8898Y-7.6063
T4
X1.6565Y-8.0413
X1.6901Y-8.6122
X1.6929Y-6.1567
X1.6929Y-6.3535
X1.6929Y-7.4094
X1.6929Y-7.6063
X1.6978Y-5.6417
X1.6978Y-5.8386
X1.703Y-4.1067
X1.703Y-4.3035
X1.703Y-4.6317
X1.703Y-4.8285
X1.703Y-5.1067
X1.703Y-5.3035
X1.703Y-6.7567
X1.703Y-6.9535
X1.7565Y-8.0413
X1.7886Y-8.6122
X1.8565Y-8.0413
X1.8898Y-6.1252
X1.8898Y-6.4252
X1.8898Y-6.7157
X1.8898Y-7.0157
X1.8998Y-4.577
X1.8998Y-4.877
X1.9028Y-4.0547
X1.9028Y-4.3547
X1.903Y-3.4801
X1.903Y-3.7801
X1.903Y-5.0551
X1.903Y-5.3551
X1.903Y-5.5801
X1.903Y-5.8801
X1.9565Y-8.0413
X1.9898Y-6.1252
X1.9898Y-6.4252
X1.9898Y-6.7157
X1.9898Y-7.0157
X1.9998Y-4.577
X1.9998Y-4.877
X2.0028Y-4.0547
X2.0028Y-4.3547
X2.003Y-5.0551
X2.003Y-5.3551
X2.003Y-5.5801
X2.003Y-5.8801
X2.0565Y-8.0413
X2.0898Y-6.1252
X2.0898Y-6.4252
X2.0898Y-6.7157
X2.0898Y-7.0157
X2.0998Y-4.577
X2.0998Y-4.877
X2.1028Y-4.0547
X2.1028Y-4.3547
X2.103Y-5.0551
X2.103Y-5.3551
X2.103Y-5.5801
X2.103Y-5.8801
X2.1565Y-8.0413
X2.1898Y-6.1252
X2.1898Y-6.4252
X2.1898Y-6.7157
X2.1898Y-7.0157
X2.1998Y-4.577
X2.1998Y-4.877
X2.2028Y-4.0547
X2.2028Y-4.3547
X2.203Y-5.0551
X2.203Y-5.3551
X2.203Y-5.5801
X2.203Y-5.8801
X2.2565Y-8.0413
X2.2898Y-6.1252
X2.2898Y-6.4252
X2.2898Y-6.7157
X2.2898Y-7.0157
X2.2998Y-4.577
X2.2998Y-4.877
X2.3028Y-4.0547
X2.3028Y-4.3547
X2.303Y-3.4801
X2.303Y-3.7801
X2.303Y-5.0551
X2.303Y-5.3551
X2.303Y-5.5801
X2.303Y-5.8801
X2.3565Y-8.0413
X2.3898Y-6.1252
X2.3898Y-6.4252
X2.3898Y-6.7157
X2.3898Y-7.0157
X2.3998Y-4.577
X2.3998Y-4.877
X2.4028Y-4.0547
X2.4028Y-4.3547
X2.403Y-5.0551
X2.403Y-5.3551
X2.403Y-5.5801
X2.403Y-5.8801
X2.4565Y-8.0413
X2.4898Y-6.1252
X2.4898Y-6.4252
X2.4898Y-6.7157
X2.4898Y-7.0157
X2.4998Y-4.577
X2.4998Y-4.877
X2.5028Y-4.0547
X2.5028Y-4.3547
X2.503Y-5.0551
X2.503Y-5.3551
X2.503Y-5.5801
X2.503Y-5.8801
X2.6779Y-6.4921
X2.703Y-3.4801
X2.703Y-3.7801
X2.728Y-6.1301
X2.7764Y-6.4921
X3.028Y-6.1301
X3.0344Y-6.9016
X3.0344Y-7.0984
X3.0344Y-7.4921
X3.0344Y-7.689
X3.0413Y-6.2815
X3.0413Y-6.4783
X3.103Y-3.4801
X3.103Y-3.7801
X3.178Y-5.3303
X3.178Y-5.5272
X3.2116Y-7.385
X3.2116Y-7.685
X3.2205Y-7.9134
X3.2278Y-6.8797
X3.2278Y-7.1797
X3.228Y-6.0801
X3.228Y-6.6801
X3.251Y-8.19
X3.251Y-8.3868
X3.303Y-4.3051
X3.303Y-4.502
X3.3116Y-7.385
X3.3116Y-7.685
X3.3205Y-7.9134
X3.3278Y-6.8797
X3.3278Y-7.1797
X3.328Y-6.0801
X3.328Y-6.6801
X3.4116Y-7.385
X3.4116Y-7.685
X3.4205Y-7.9134
X3.4278Y-6.8797
X3.4278Y-7.1797
X3.428Y-6.0801
X3.428Y-6.6801
X3.4281Y-8.0868
X3.4281Y-8.3868
X3.478Y-3.4801
X3.478Y-3.7801
X3.4915Y-4.2494
X3.4915Y-4.5494
X3.5116Y-7.385
X3.5116Y-7.685
X3.5205Y-7.9134
X3.5278Y-6.8797
X3.5278Y-7.1797
X3.528Y-6.0801
X3.528Y-6.6801
X3.5281Y-8.0868
X3.5281Y-8.3868
X3.5915Y-4.2494
X3.5915Y-4.5494
X3.6116Y-7.385
X3.6116Y-7.685
X3.6205Y-7.9134
X3.6278Y-6.8797
X3.6278Y-7.1797
X3.628Y-6.0801
X3.628Y-6.6801
X3.6281Y-8.0868
X3.6281Y-8.3868
X3.6783Y-5.1303
X3.6783Y-5.7303
X3.6915Y-4.2494
X3.6915Y-4.5494
X3.7116Y-7.385
X3.7116Y-7.685
X3.7205Y-7.9134
X3.7278Y-6.8797
X3.7278Y-7.1797
X3.728Y-6.0801
X3.728Y-6.6801
X3.7281Y-8.0868
X3.7281Y-8.3868
X3.7783Y-5.1303
X3.7783Y-5.7303
X3.7915Y-4.2494
X3.7915Y-4.5494
X3.8116Y-7.385
X3.8116Y-7.685
X3.8205Y-7.9134
X3.8278Y-6.8797
X3.8278Y-7.1797
X3.828Y-6.0801
X3.828Y-6.6801
X3.8281Y-8.0868
X3.8281Y-8.3868
X3.853Y-3.4801
X3.853Y-3.7801
X3.8783Y-5.1303
X3.8783Y-5.7303
X3.8915Y-4.2494
X3.8915Y-4.5494
X3.9116Y-7.385
X3.9116Y-7.685
X3.9205Y-7.9134
X3.928Y-6.0801
X3.928Y-6.6801
X3.9281Y-8.0868
X3.9281Y-8.3868
X3.9783Y-5.1303
X3.9783Y-5.7303
X3.9915Y-4.2494
X3.9915Y-4.5494
X4.0116Y-7.385
X4.0116Y-7.685
X4.0205Y-7.9134
X4.028Y-6.0801
X4.028Y-6.6801
X4.0281Y-8.0868
X4.0281Y-8.3868
X4.0783Y-5.1303
X4.0783Y-5.7303
X4.0915Y-4.2494
X4.0915Y-4.5494
X4.1116Y-7.385
X4.1116Y-7.685
X4.128Y-6.0801
X4.128Y-6.6801
X4.1281Y-8.0868
X4.1281Y-8.3868
X4.1783Y-5.1303
X4.1783Y-5.7303
X4.228Y-6.0801
X4.228Y-6.6801
X4.2281Y-8.0868
X4.2281Y-8.3868
X4.278Y-3.4801
X4.278Y-3.7801
X4.2783Y-5.1303
X4.2783Y-5.7303
X4.328Y-6.0801
X4.328Y-6.6801
X4.3281Y-8.0868
X4.3281Y-8.3868
X4.3783Y-5.1303
X4.3783Y-5.7303
X4.428Y-6.0801
X4.428Y-6.6801
X4.4783Y-5.1303
X4.4783Y-5.7303
X4.5096Y-4.4587
X4.528Y-6.0801
X4.528Y-6.6801
X4.5783Y-5.1303
X4.5783Y-5.7303
X4.6063Y-8.6122
X4.6081Y-4.4587
X4.628Y-6.0801
X4.628Y-6.6801
X4.653Y-3.4801
X4.653Y-3.7801
X4.6783Y-5.1303
X4.6783Y-5.7303
X4.7047Y-8.6122
X4.728Y-6.0801
X4.728Y-6.6801
X4.7783Y-5.1303
X4.7783Y-5.7303
X4.828Y-6.0801
X4.828Y-6.6801
X4.8783Y-5.1303
X4.8783Y-5.7303
X4.8819Y-7.689
X4.8819Y-7.8858
X4.8819Y-8.189
X4.8819Y-8.3858
X4.8848Y-7.1673
X4.8848Y-7.3642
X4.928Y-6.0801
X4.928Y-6.6801
X4.9346Y-3.8583
X4.9346Y-3.9583
X4.9346Y-4.0583
X4.9346Y-4.1583
X4.9346Y-4.2583
X4.9346Y-4.3583
X4.9783Y-5.1303
X4.9783Y-5.7303
X5.028Y-6.0801
X5.028Y-6.6801
X5.0346Y-3.7583
X5.0346Y-3.8583
X5.0346Y-3.9583
X5.0346Y-4.0583
X5.0346Y-4.1583
X5.0346Y-4.2583
X5.0346Y-4.3583
X5.0346Y-4.4583
X5.0768Y-7.0622
X5.0768Y-7.3622
X5.0778Y-7.5819
X5.0778Y-7.8819
X5.0778Y-8.0858
X5.0778Y-8.3858
X5.128Y-6.0801
X5.128Y-6.6801
X5.1346Y-3.7583
X5.1346Y-3.8583
X5.1346Y-4.3583
X5.1346Y-4.4583
X5.1768Y-7.0622
X5.1768Y-7.3622
X5.1778Y-7.5819
X5.1778Y-7.8819
X5.1778Y-8.0858
X5.1778Y-8.3858
X5.2346Y-3.7583
X5.2346Y-3.8583
X5.2346Y-4.3583
X5.2346Y-4.4583
X5.2768Y-7.0622
X5.2768Y-7.3622
X5.2778Y-7.5819
X5.2778Y-7.8819
X5.2778Y-8.0858
X5.2778Y-8.3858
X5.328Y-6.3067
X5.328Y-6.5035
X5.3346Y-3.7583
X5.3346Y-3.8583
X5.3346Y-4.3583
X5.3346Y-4.4583
X5.374Y-3.5039
X5.3768Y-7.0622
X5.3768Y-7.3622
X5.3778Y-7.5819
X5.3778Y-7.8819
X5.3778Y-8.0858
X5.3778Y-8.3858
X5.4346Y-3.7583
X5.4346Y-3.8583
X5.4346Y-4.3583
X5.4346Y-4.4583
X5.4768Y-7.0622
X5.4768Y-7.3622
X5.4778Y-7.5819
X5.4778Y-7.8819
X5.4778Y-8.0858
X5.4778Y-8.3858
X5.5346Y-3.7583
X5.5346Y-3.8583
X5.5346Y-3.9583
X5.5346Y-4.0583
X5.5346Y-4.1583
X5.5346Y-4.2583
X5.5346Y-4.3583
X5.5346Y-4.4583
X5.5709Y-3.5039
X5.5768Y-7.0622
X5.5768Y-7.3622
X5.5778Y-7.5819
X5.5778Y-7.8819
X5.5778Y-8.0858
X5.5778Y-8.3858
X5.6346Y-3.8583
X5.6346Y-3.9583
X5.6346Y-4.0583
X5.6346Y-4.1583
X5.6346Y-4.2583
X5.6346Y-4.3583
X5.653Y-4.8051
X5.653Y-5.1051
X5.6535Y-5.2913
X5.6535Y-5.4882
X5.6768Y-7.0622
X5.6768Y-7.3622
X5.6778Y-7.5819
X5.6778Y-7.8819
X5.6778Y-8.0858
X5.6778Y-8.3858
X5.7768Y-7.0622
X5.7768Y-7.3622
X5.7778Y-7.5819
X5.7778Y-7.8819
X5.7778Y-8.0858
X5.7778Y-8.3858
X5.8531Y-5.2547
X5.8531Y-5.5547
X5.8768Y-7.0622
X5.8768Y-7.3622
X5.8778Y-7.5819
X5.8778Y-7.8819
X5.8778Y-8.0858
X5.8778Y-8.3858
X5.9531Y-5.2547
X5.9531Y-5.5547
X5.9768Y-7.0622
X5.9768Y-7.3622
X5.9778Y-7.5819
X5.9778Y-7.8819
X5.9778Y-8.0858
X5.9778Y-8.3858
X6.0531Y-5.2547
X6.0531Y-5.5547
X6.063Y-3.8189
X6.063Y-4.0157
X6.1024Y-4.3307
X6.1024Y-4.5276
X6.1531Y-5.2547
X6.1531Y-5.5547
X6.2106Y-6.2815
X6.2106Y-6.4783
X6.2531Y-5.2547
X6.2531Y-5.5547
X6.2598Y-3.7157
X6.2598Y-4.0157
X6.2992Y-4.2276
X6.2992Y-4.5276
X6.3531Y-5.2547
X6.3531Y-5.5547
X6.3598Y-3.7157
X6.3598Y-4.0157
X6.3992Y-4.2276
X6.3992Y-4.5276
X6.4028Y-6.2297
X6.4028Y-6.5297
X6.4531Y-5.2547
X6.4531Y-5.5547
X6.4598Y-3.7157
X6.4598Y-4.0157
X6.478Y-7.1317
X6.478Y-7.3285
X6.4992Y-4.2276
X6.4992Y-4.5276
X6.5028Y-6.2297
X6.5028Y-6.5297
X6.5354Y-8.189
X6.5354Y-8.3858
X6.5531Y-5.2547
X6.5531Y-5.5547
X6.5598Y-3.7157
X6.5598Y-4.0157
X6.5992Y-4.2276
X6.5992Y-4.5276
X6.6028Y-6.2297
X6.6028Y-6.5297
X6.6531Y-5.2547
X6.6531Y-5.5547
X6.6598Y-3.7157
X6.6598Y-4.0157
X6.6992Y-4.2276
X6.6992Y-4.5276
X6.7028Y-6.2297
X6.7028Y-6.5297
X6.7281Y-7.0797
X6.7281Y-7.3797
X6.7323Y-8.0858
X6.7323Y-8.3858
X6.753Y-6.8051
X6.7531Y-5.2547
X6.7531Y-5.5547
X6.7598Y-3.7157
X6.7598Y-4.0157
X6.7992Y-4.2276
X6.7992Y-4.5276
X6.8028Y-6.2297
X6.8028Y-6.5297
X6.8281Y-7.0797
X6.8281Y-7.3797
X6.8323Y-8.0858
X6.8323Y-8.3858
X6.853Y-6.8051
X6.8531Y-5.2547
X6.8531Y-5.5547
X6.8598Y-3.7157
X6.8598Y-4.0157
X6.8992Y-4.2276
X6.8992Y-4.5276
X6.9028Y-6.2297
X6.9028Y-6.5297
X6.9281Y-7.0797
X6.9281Y-7.3797
X6.9323Y-8.0858
X6.9323Y-8.3858
X6.953Y-6.8051
X6.9531Y-5.2547
X6.9531Y-5.5547
X6.9598Y-3.7157
X6.9598Y-4.0157
X7.0028Y-6.2297
X7.0028Y-6.5297
X7.0281Y-7.0797
X7.0281Y-7.3797
X7.0323Y-8.0858
X7.0323Y-8.3858
X7.053Y-6.8051
X7.0598Y-3.7157
X7.0598Y-4.0157
X7.1028Y-6.2297
X7.1028Y-6.5297
X7.1281Y-7.0797
X7.1281Y-7.3797
X7.1323Y-8.0858
X7.1323Y-8.3858
X7.153Y-6.8051
X7.1598Y-3.7157
X7.1598Y-4.0157
X7.2028Y-6.2297
X7.2028Y-6.5297
X7.2281Y-7.0797
X7.2281Y-7.3797
X7.2323Y-8.0858
X7.2323Y-8.3858
X7.253Y-6.8051
X7.3028Y-6.2297
X7.3028Y-6.5297
X7.3281Y-7.0797
X7.3281Y-7.3797
X7.3323Y-8.0858
X7.3323Y-8.3858
X7.3524Y-5.2913
X7.3524Y-5.4882
X7.353Y-6.8051
X7.4016Y-3.8189
X7.4016Y-4.0157
X7.4028Y-6.2297
X7.4028Y-6.5297
X7.4033Y-4.3701
X7.4281Y-7.0797
X7.4281Y-7.3797
X7.4323Y-8.0858
X7.4323Y-8.3858
X7.453Y-6.8051
X7.478Y-4.7317
X7.478Y-4.9285
X7.5018Y-4.3701
X7.5028Y-6.2297
X7.5028Y-6.5297
X7.5278Y-5.2297
X7.5278Y-5.5297
X7.5281Y-7.0797
X7.5281Y-7.3797
X7.5323Y-8.0858
X7.5323Y-8.3858
X7.553Y-6.8051
X7.5939Y-8.6122
X7.5984Y-3.7157
X7.5984Y-4.0157
X7.5984Y-4.1929
X7.6278Y-5.2297
X7.6278Y-5.5297
X7.6281Y-7.0797
X7.6281Y-7.3797
X7.6323Y-8.0858
X7.6323Y-8.3858
X7.6923Y-8.6122
X7.6984Y-3.7157
X7.6984Y-4.0157
X7.6984Y-4.1929
X7.7031Y-4.6797
X7.7031Y-4.9797
X7.7278Y-5.2297
X7.7278Y-5.5297
X7.7756Y-6.2815
X7.7756Y-6.4783
X7.7984Y-3.7157
X7.7984Y-4.0157
X7.7984Y-4.1929
X7.8031Y-4.6797
X7.8031Y-4.9797
X7.8278Y-5.2297
X7.8278Y-5.5297
X7.877Y-7.687
X7.877Y-7.8839
X7.877Y-8.1909
X7.877Y-8.3878
X7.8984Y-3.7157
X7.8984Y-4.0157
X7.8984Y-4.1929
X7.9031Y-4.6797
X7.9031Y-4.9797
X7.9278Y-5.2297
X7.9278Y-5.5297
X7.978Y-6.2301
X7.978Y-6.5301
X7.9984Y-3.7157
X7.9984Y-4.0157
X7.9984Y-4.1929
X8.0031Y-4.6797
X8.0031Y-4.9797
X8.0278Y-5.2297
X8.0278Y-5.5297
X8.053Y-8.0801
X8.053Y-8.3801
X8.0738Y-7.372
X8.0738Y-7.5839
X8.0738Y-7.8839
X8.078Y-6.2301
X8.078Y-6.5301
X8.0984Y-3.7157
X8.0984Y-4.0157
X8.0984Y-4.1929
X8.1031Y-4.6797
X8.1031Y-4.9797
X8.1278Y-5.2297
X8.1278Y-5.5297
X8.153Y-8.0801
X8.153Y-8.3801
X8.1738Y-7.372
X8.1738Y-7.5839
X8.1738Y-7.8839
X8.178Y-6.2301
X8.178Y-6.5301
X8.1984Y-3.7157
X8.1984Y-4.0157
X8.1984Y-4.1929
X8.2031Y-4.6797
X8.2031Y-4.9797
X8.2278Y-5.2297
X8.2278Y-5.5297
X8.253Y-8.0801
X8.253Y-8.3801
X8.2738Y-7.372
X8.2738Y-7.5839
X8.2738Y-7.8839
X8.278Y-6.2301
X8.278Y-6.5301
X8.2984Y-3.7157
X8.2984Y-4.0157
X8.2984Y-4.1929
X8.3031Y-4.6797
X8.3031Y-4.9797
X8.3278Y-5.2297
X8.3278Y-5.5297
X8.353Y-8.0801
X8.353Y-8.3801
X8.3738Y-7.372
X8.3738Y-7.5839
X8.3738Y-7.8839
X8.378Y-6.2301
X8.378Y-6.5301
X8.3984Y-3.7157
X8.3984Y-4.0157
X8.3984Y-4.1929
X8.4031Y-4.6797
X8.4031Y-4.9797
X8.4278Y-5.2297
X8.4278Y-5.5297
X8.453Y-8.0801
X8.453Y-8.3801
X8.4738Y-7.372
X8.4738Y-7.5839
X8.4738Y-7.8839
X8.478Y-6.2301
X8.478Y-6.5301
X8.4984Y-3.7157
X8.4984Y-4.0157
X8.5031Y-4.6797
X8.5031Y-4.9797
X8.553Y-8.0801
X8.553Y-8.3801
X8.5738Y-7.372
X8.5738Y-7.5839
X8.5738Y-7.8839
X8.578Y-6.2301
X8.578Y-6.5301
X8.6031Y-4.6797
X8.6031Y-4.9797
X8.653Y-8.0801
X8.653Y-8.3801
X8.6738Y-7.372
X8.6738Y-7.5839
X8.6738Y-7.8839
X8.678Y-6.2301
X8.678Y-6.5301
X8.753Y-8.0801
X8.753Y-8.3801
X8.7738Y-7.372
X8.7738Y-7.5839
X8.7738Y-7.8839
X8.778Y-6.2301
X8.778Y-6.5301
X8.853Y-8.0801
X8.853Y-8.3801
X8.8738Y-7.372
X8.8738Y-7.5839
X8.8738Y-7.8839
X8.878Y-6.2301
X8.878Y-6.5301
X8.953Y-8.0801
X8.953Y-8.3801
X8.9738Y-7.5839
X8.9738Y-7.8839
X9.1258Y-4.9606
X9.1732Y-5.2831
X9.1732Y-5.5831
X9.1831Y-6.8161
X9.1831Y-7.1161
X9.1831Y-7.2394
X9.1831Y-7.5394
X9.2156Y-8.1909
X9.2156Y-8.3878
X9.2242Y-4.9606
X9.4124Y-8.0878
X9.4124Y-8.3878
X9.4144Y-6.9213
X9.4144Y-7.1181
X9.4144Y-7.6693
X9.4144Y-7.8661
X9.5124Y-8.0878
X9.5124Y-8.3878
X9.6124Y-8.0878
X9.6124Y-8.3878
X9.7124Y-8.0878
X9.7124Y-8.3878
X9.8124Y-8.0878
X9.8124Y-8.3878
X9.9124Y-8.0878
X9.9124Y-8.3878
X10.0124Y-8.0878
X10.0124Y-8.3878
X10.1124Y-8.0878
X10.1124Y-8.3878
X10.2124Y-8.0878
X10.2124Y-8.3878
X10.3124Y-8.0878
X10.3124Y-8.3878
T5
X1.9079Y-3.189
X2.0079Y-3.189
X2.3016Y-3.189
X2.4016Y-3.189
X2.7022Y-3.1915
X2.8022Y-3.1915
X3.089Y-3.189
X3.189Y-3.189
X3.4827Y-3.189
X3.5827Y-3.189
X3.8764Y-3.189
X3.9764Y-3.189
X4.2772Y-3.189
X4.3772Y-3.189
X4.6638Y-3.189
X4.7638Y-3.189
T6
X9.8514Y-2.9906
X10.0285Y-2.9906
T7
X1.852Y-8.7795
X1.852Y-8.8795
X1.952Y-8.7795
X1.952Y-8.8795
X2.052Y-8.7795
X2.052Y-8.8795
X2.152Y-8.7795
X2.152Y-8.8795
X2.228Y-7.4801
X2.228Y-7.5801
X2.252Y-8.7795
X2.252Y-8.8795
X2.352Y-8.7795
X2.352Y-8.8795
X2.452Y-8.7795
X2.452Y-8.8795
X2.503Y-7.3801
X2.503Y-7.4801
X2.503Y-7.5801
X2.552Y-8.7795
X2.552Y-8.8795
X2.652Y-8.7795
X2.652Y-8.8795
X2.7441Y-8.2868
X2.7441Y-8.3868
X2.752Y-8.7795
X2.752Y-8.8795
X2.8441Y-8.2868
X2.8441Y-8.3868
X2.852Y-8.7795
X2.852Y-8.8795
X2.9441Y-8.2868
X2.9441Y-8.3868
X2.952Y-8.7795
X2.952Y-8.8795
X3.0441Y-8.2868
X3.0441Y-8.3868
X3.052Y-8.7795
X3.052Y-8.8795
X3.152Y-8.7795
X3.152Y-8.8795
X3.252Y-8.7795
X3.252Y-8.8795
X3.352Y-8.7795
X3.352Y-8.8795
X3.452Y-8.7795
X3.452Y-8.8795
X3.552Y-8.7795
X3.552Y-8.8795
X3.652Y-8.7795
X3.652Y-8.8795
X3.752Y-8.7795
X3.752Y-8.8795
X3.852Y-8.7795
X3.852Y-8.8795
X3.952Y-8.7795
X3.952Y-8.8795
X4.052Y-8.7795
X4.052Y-8.8795
X4.152Y-8.7795
X4.152Y-8.8795
X4.252Y-8.7795
X4.252Y-8.8795
X4.4528Y-7.0055
X4.4528Y-7.1055
X4.4528Y-7.2055
X4.4528Y-7.3055
X4.5528Y-7.0055
X4.5528Y-7.1055
X4.5528Y-7.2055
X4.5528Y-7.3055
X4.7654Y-8.7795
X4.7654Y-8.8795
X4.8654Y-8.7795
X4.8654Y-8.8795
X4.9654Y-8.7795
X4.9654Y-8.8795
X4.9785Y-3.2024
X5.0654Y-8.7795
X5.0654Y-8.8795
X5.0785Y-3.2024
X5.1654Y-8.7795
X5.1654Y-8.8795
X5.1785Y-3.2024
X5.2654Y-8.7795
X5.2654Y-8.8795
X5.3654Y-8.7795
X5.3654Y-8.8795
X5.453Y-3.2051
X5.4654Y-8.7795
X5.4654Y-8.8795
X5.553Y-3.2051
X5.5654Y-8.7795
X5.5654Y-8.8795
X5.653Y-3.2051
X5.6654Y-8.7795
X5.6654Y-8.8795
X5.7654Y-8.7795
X5.7654Y-8.8795
X5.8654Y-8.7795
X5.8654Y-8.8795
X5.9035Y-3.2024
X5.9654Y-8.7795
X5.9654Y-8.8795
X6.0035Y-3.2024
X6.0654Y-8.7795
X6.0654Y-8.8795
X6.1035Y-3.2024
X6.1654Y-8.7795
X6.1654Y-8.8795
X6.2654Y-8.7795
X6.2654Y-8.8795
X6.3528Y-3.2024
X6.3654Y-8.7795
X6.3654Y-8.8795
X6.4528Y-3.2024
X6.4654Y-8.7795
X6.4654Y-8.8795
X6.5654Y-8.7795
X6.5654Y-8.8795
X6.6654Y-8.7795
X6.6654Y-8.8795
X6.7654Y-8.7795
X6.7654Y-8.8795
X6.8159Y-7.5959
X6.8159Y-7.6959
X6.8654Y-8.7795
X6.8654Y-8.8795
X6.9159Y-7.5959
X6.9159Y-7.6959
X6.9654Y-8.7795
X6.9654Y-8.8795
X7.0159Y-7.5959
X7.0159Y-7.6959
X7.0654Y-8.7795
X7.0654Y-8.8795
X7.1159Y-7.5959
X7.1159Y-7.6959
X7.1654Y-8.7795
X7.1654Y-8.8795
X7.2047Y-4.3307
X7.2047Y-4.4307
X7.2159Y-7.5959
X7.2159Y-7.6959
X7.3159Y-7.5959
X7.3159Y-7.6959
X7.376Y-3.2038
X7.376Y-3.3038
X7.4159Y-7.5959
X7.4159Y-7.6959
X7.476Y-3.2038
X7.476Y-3.3038
X7.5159Y-7.5959
X7.5159Y-7.6959
X7.576Y-3.2038
X7.576Y-3.3038
X7.676Y-3.2038
X7.676Y-3.3038
X7.7575Y-8.7795
X7.7575Y-8.8795
X7.776Y-3.2038
X7.776Y-3.3038
X7.8575Y-8.7795
X7.8575Y-8.8795
X7.876Y-3.2038
X7.876Y-3.3038
X7.9575Y-8.7795
X7.9575Y-8.8795
X7.976Y-3.2038
X7.976Y-3.3038
X8.0575Y-8.7795
X8.0575Y-8.8795
X8.076Y-3.2038
X8.076Y-3.3038
X8.1575Y-8.7795
X8.1575Y-8.8795
X8.1693Y-6.9778
X8.1693Y-7.0778
X8.176Y-3.2038
X8.176Y-3.3038
X8.2575Y-8.7795
X8.2575Y-8.8795
X8.2693Y-6.9778
X8.2693Y-7.0778
X8.276Y-3.2038
X8.276Y-3.3038
X8.3575Y-8.7795
X8.3575Y-8.8795
X8.3693Y-6.9778
X8.3693Y-7.0778
X8.376Y-3.2038
X8.376Y-3.3038
X8.4575Y-8.7795
X8.4575Y-8.8795
X8.4693Y-6.9778
X8.4693Y-7.0778
X8.476Y-3.2038
X8.476Y-3.3038
X8.5575Y-8.7795
X8.5575Y-8.8795
X8.576Y-3.2038
X8.576Y-3.3038
X8.6575Y-8.7795
X8.6575Y-8.8795
X8.676Y-3.2038
X8.676Y-3.3038
X8.7575Y-8.7795
X8.7575Y-8.8795
X8.776Y-3.2038
X8.776Y-3.3038
X8.8575Y-8.7795
X8.8575Y-8.8795
X8.876Y-3.2038
X8.876Y-3.3038
X8.9575Y-8.7795
X8.9575Y-8.8795
X8.976Y-3.2038
X8.976Y-3.3038
X9.0575Y-8.7795
X9.0575Y-8.8795
X9.076Y-3.2038
X9.076Y-3.3038
X9.1575Y-8.7795
X9.1575Y-8.8795
X9.176Y-3.2038
X9.176Y-3.3038
X9.2575Y-8.7795
X9.2575Y-8.8795
X9.276Y-3.2038
X9.276Y-3.3038
X9.3575Y-8.7795
X9.3575Y-8.8795
X9.4575Y-8.7795
X9.4575Y-8.8795
X9.5575Y-8.7795
X9.5575Y-8.8795
X9.6575Y-8.7795
X9.6575Y-8.8795
X9.7575Y-8.7795
X9.7575Y-8.8795
X9.8575Y-8.7795
X9.8575Y-8.8795
X9.9575Y-8.7795
X9.9575Y-8.8795
X10.0575Y-8.7795
X10.0575Y-8.8795
X10.1575Y-8.7795
X10.1575Y-8.8795
T8
X9.8022Y-3.0887
X10.0781Y-3.0887
T9
X1.5748Y-2.9528
X10.4331Y-2.9528
T0
M30
