M48
; DRILL file {KiCad (6.0.11)} date Sat Dec 30 19:43:06 2023
; FORMAT={-:-/ absolute / inch / decimal}
; #@! TF.CreationDate,2023-12-30T19:43:06-06:00
; #@! TF.GenerationSoftware,Kicad,Pcbnew,(6.0.11)
; #@! TF.FileFunction,Plated,1,2,PTH
FMAT,2
INCH
; #@! TA.AperFunction,Plated,PTH,ComponentDrill
T1C0.0118
; #@! TA.AperFunction,Plated,PTH,ViaDrill
T2C0.0157
; #@! TA.AperFunction,Plated,PTH,ComponentDrill
T3C0.0295
; #@! TA.AperFunction,Plated,PTH,ComponentDrill
T4C0.0315
; #@! TA.AperFunction,Plated,PTH,ComponentDrill
T5C0.0354
; #@! TA.AperFunction,Plated,PTH,ComponentDrill
T6C0.0390
; #@! TA.AperFunction,Plated,PTH,ComponentDrill
T7C0.0394
; #@! TA.AperFunction,Plated,PTH,ComponentDrill
T8C0.0512
; #@! TA.AperFunction,Plated,PTH,ComponentDrill
T9C0.1260
%
G90
G05
T1
X3.628Y-4.2579
X3.628Y-4.3051
X7.8937Y-7.3484
X7.8937Y-7.3957
T2
X1.8088Y-5.9006
X2.0194Y-5.2694
X2.0969Y-6.6725
X2.2223Y-6.865
X2.3967Y-6.2307
X2.4078Y-8.7417
X2.4484Y-7.2986
X2.4507Y-7.2172
X2.5001Y-5.8363
X2.6356Y-7.7265
X2.7129Y-8.2618
X2.779Y-6.3711
X2.8626Y-6.7264
X2.8834Y-8.7298
X2.9635Y-6.2614
X3.1156Y-4.2689
X3.1314Y-7.4831
X3.1817Y-6.7469
X3.2076Y-7.3338
X3.2905Y-4.7091
X3.3534Y-6.1994
X3.3736Y-3.8309
X3.3868Y-6.7793
X3.4449Y-4.3674
X3.4609Y-7.1184
X3.6489Y-7.0191
X3.7368Y-5.5454
X3.7821Y-5.583
X3.8208Y-4.4656
X3.9088Y-5.4436
X3.9334Y-8.4773
X3.9793Y-5.3544
X4.014Y-5.9923
X4.0826Y-8.3357
X4.0842Y-5.9159
X4.1256Y-5.9819
X4.1358Y-6.4337
X4.1796Y-5.4029
X4.2856Y-5.5258
X4.3211Y-6.417
X4.3744Y-5.3307
X4.4147Y-7.0532
X4.4843Y-7.0423
X4.5037Y-4.7999
X4.5106Y-4.6739
X4.524Y-5.4624
X4.5261Y-7.5827
X4.5283Y-7.0204
X4.5605Y-5.3018
X4.5751Y-5.3984
X4.5808Y-7.4625
X4.5821Y-5.6803
X4.6152Y-6.4252
X4.6224Y-7.4633
X4.6578Y-5.6383
X4.7068Y-5.4338
X4.7539Y-7.9062
X4.8012Y-7.8584
X4.8078Y-5.4889
X4.9073Y-4.1561
X4.9899Y-7.2028
X5.0033Y-7.4688
X5.0442Y-7.6258
X5.0705Y-4.9222
X5.0815Y-5.5492
X5.1069Y-6.1903
X5.1315Y-6.2215
X5.149Y-7.6027
X5.2097Y-5.0668
X5.2326Y-7.7151
X5.2723Y-7.6778
X5.3493Y-5.022
X5.4085Y-5.0812
X5.4256Y-7.7081
X5.4489Y-5.8262
X5.4571Y-4.4184
X5.4764Y-8.5163
X5.5043Y-5.5751
X5.5549Y-8.3536
X5.6595Y-5.5507
X5.7245Y-8.2445
X5.7352Y-5.9407
X5.7961Y-3.9889
X5.8035Y-7.6338
X5.8121Y-4.343
X5.8203Y-8.715
X5.8541Y-8.2623
X5.8837Y-5.148
X5.9613Y-5.5156
X5.9634Y-6.5555
X5.9676Y-7.6202
X6.0397Y-7.9498
X6.0401Y-8.1257
X6.0596Y-4.0911
X6.0689Y-5.6832
X6.073Y-5.953
X6.1013Y-5.7972
X6.1676Y-7.9002
X6.1748Y-6.5706
X6.1978Y-8.4005
X6.2283Y-5.7652
X6.2564Y-3.9604
X6.2589Y-8.0549
X6.2665Y-6.4888
X6.305Y-8.5219
X6.3104Y-6.415
X6.3458Y-6.1423
X6.3994Y-4.6458
X6.4099Y-3.6935
X6.4142Y-6.8606
X6.4934Y-5.8634
X6.5085Y-4.4158
X6.5344Y-6.9703
X6.5344Y-7.0108
X6.5379Y-4.6832
X6.5386Y-4.4554
X6.6459Y-6.403
X6.6506Y-7.5965
X6.6657Y-4.4034
X6.684Y-5.9719
X6.7322Y-5.4157
X6.7507Y-7.631
X6.7664Y-5.1499
X6.7791Y-6.4803
X6.7798Y-5.7806
X6.7888Y-3.4849
X6.8025Y-3.8665
X6.8613Y-5.7074
X6.9242Y-6.0541
X6.9304Y-5.7852
X6.9531Y-6.0256
X6.965Y-3.994
X7.0149Y-6.057
X7.0326Y-6.9025
X7.045Y-6.7281
X7.1639Y-6.6179
X7.1773Y-5.3914
X7.1869Y-6.7137
X7.2121Y-7.4326
X7.2616Y-6.6295
X7.2792Y-7.4421
X7.4389Y-7.5891
X7.4597Y-5.6422
X7.5103Y-5.6791
X7.545Y-5.9144
X7.5837Y-7.9424
X7.6076Y-6.7134
X7.6163Y-4.6232
X7.6239Y-7.9274
X7.6266Y-6.0477
X7.6365Y-3.4439
X7.6639Y-7.927
X7.694Y-5.9057
X7.7699Y-3.4662
X7.8576Y-3.9499
X7.9235Y-3.5643
X7.9464Y-3.4351
X7.9491Y-8.0903
X7.9795Y-8.1205
X8.0611Y-4.4839
X8.0705Y-4.6535
X8.0819Y-3.4197
X8.0846Y-6.743
X8.1398Y-3.5646
X8.1606Y-3.8673
X8.1615Y-6.0065
X8.1976Y-4.7051
X8.238Y-5.8324
X8.2785Y-4.2279
X8.3565Y-3.8218
X8.3823Y-3.5646
X8.5067Y-6.7514
X8.5745Y-3.9413
X8.6072Y-5.4224
X8.6173Y-5.3285
X8.7058Y-3.3817
X8.7827Y-6.8141
X8.8016Y-6.4639
X8.9639Y-5.0836
X8.9692Y-6.477
X8.9824Y-5.7477
X9.0193Y-5.6089
X9.0847Y-5.0655
X9.123Y-5.4028
X9.1336Y-8.3442
X9.1622Y-8.2111
X9.2625Y-6.0775
X9.406Y-6.377
X9.4174Y-6.2153
X9.7159Y-5.4301
X9.7572Y-5.3857
X9.7659Y-5.0831
X9.8013Y-7.8697
X10.0223Y-7.1435
X10.051Y-6.7326
T3
X1.8398Y-7.5563
X1.8898Y-7.5063
X1.8898Y-7.6063
T4
X1.678Y-6.8301
X1.6901Y-8.6122
X1.6929Y-6.1772
X1.6929Y-6.374
X1.6929Y-7.4094
X1.6929Y-7.6063
X1.6978Y-5.6595
X1.6978Y-5.8564
X1.703Y-4.1067
X1.703Y-4.3035
X1.703Y-4.6243
X1.703Y-4.8212
X1.703Y-5.1419
X1.703Y-5.3388
X1.753Y-8.2801
X1.7774Y-7.8801
X1.778Y-6.8301
X1.7886Y-8.6122
X1.8774Y-7.8801
X1.878Y-6.8301
X1.8898Y-4.0547
X1.8898Y-4.3547
X1.8898Y-4.5723
X1.8898Y-4.8723
X1.8898Y-5.09
X1.8898Y-5.39
X1.8898Y-5.6076
X1.8898Y-5.9076
X1.8898Y-6.1252
X1.8898Y-6.4252
X1.9774Y-7.8801
X1.978Y-3.4551
X1.978Y-3.7551
X1.978Y-6.8301
X1.9898Y-4.0547
X1.9898Y-4.3547
X1.9898Y-4.5723
X1.9898Y-4.8723
X1.9898Y-5.09
X1.9898Y-5.39
X1.9898Y-5.6076
X1.9898Y-5.9076
X1.9898Y-6.1252
X1.9898Y-6.4252
X2.053Y-8.2801
X2.0774Y-7.8801
X2.078Y-6.8301
X2.0898Y-4.0547
X2.0898Y-4.3547
X2.0898Y-4.5723
X2.0898Y-4.8723
X2.0898Y-5.09
X2.0898Y-5.39
X2.0898Y-5.6076
X2.0898Y-5.9076
X2.0898Y-6.1252
X2.0898Y-6.4252
X2.1774Y-7.8801
X2.178Y-6.8301
X2.1898Y-4.0547
X2.1898Y-4.3547
X2.1898Y-4.5723
X2.1898Y-4.8723
X2.1898Y-5.09
X2.1898Y-5.39
X2.1898Y-5.6076
X2.1898Y-5.9076
X2.1898Y-6.1252
X2.1898Y-6.4252
X2.2774Y-7.8801
X2.278Y-6.8301
X2.2898Y-4.0547
X2.2898Y-4.3547
X2.2898Y-4.5723
X2.2898Y-4.8723
X2.2898Y-5.09
X2.2898Y-5.39
X2.2898Y-5.6076
X2.2898Y-5.9076
X2.2898Y-6.1252
X2.2898Y-6.4252
X2.303Y-3.4551
X2.303Y-3.7551
X2.353Y-8.2051
X2.353Y-8.5051
X2.3774Y-7.8801
X2.378Y-6.8301
X2.3898Y-4.0547
X2.3898Y-4.3547
X2.3898Y-4.5723
X2.3898Y-4.8723
X2.3898Y-5.09
X2.3898Y-5.39
X2.3898Y-5.6076
X2.3898Y-5.9076
X2.3898Y-6.1252
X2.3898Y-6.4252
X2.4774Y-7.8801
X2.478Y-6.8301
X2.4898Y-4.0547
X2.4898Y-4.3547
X2.4898Y-4.5723
X2.4898Y-4.8723
X2.4898Y-5.09
X2.4898Y-5.39
X2.4898Y-5.6076
X2.4898Y-5.9076
X2.4898Y-6.1252
X2.4898Y-6.4252
X2.5774Y-7.8801
X2.628Y-3.4551
X2.628Y-3.7551
X2.6779Y-6.4921
X2.7764Y-6.4921
X2.778Y-4.5817
X2.778Y-4.7785
X2.803Y-4.0801
X2.803Y-4.277
X2.953Y-3.4551
X2.953Y-3.7551
X2.9785Y-4.5547
X2.9785Y-4.8547
X3.003Y-5.8051
X3.003Y-6.1051
X3.003Y-6.3083
X3.003Y-6.5051
X3.028Y-6.9551
X3.028Y-7.152
X3.028Y-7.5567
X3.028Y-7.7535
X3.028Y-8.1602
X3.028Y-8.3571
X3.0785Y-4.5547
X3.0785Y-4.8547
X3.178Y-5.3303
X3.178Y-5.5272
X3.1785Y-4.5547
X3.1785Y-4.8547
X3.2512Y-6.0803
X3.2512Y-6.6803
X3.2531Y-6.9047
X3.2531Y-7.2047
X3.2531Y-7.5047
X3.2531Y-7.8047
X3.2531Y-8.1047
X3.2531Y-8.4047
X3.278Y-3.4551
X3.278Y-3.7551
X3.2785Y-4.5547
X3.2785Y-4.8547
X3.3512Y-6.0803
X3.3512Y-6.6803
X3.3531Y-6.9047
X3.3531Y-7.2047
X3.3531Y-7.5047
X3.3531Y-7.8047
X3.3531Y-8.1047
X3.3531Y-8.4047
X3.3785Y-4.5547
X3.3785Y-4.8547
X3.4512Y-6.0803
X3.4512Y-6.6803
X3.4531Y-6.9047
X3.4531Y-7.2047
X3.4531Y-7.5047
X3.4531Y-7.8047
X3.4531Y-8.1047
X3.4531Y-8.4047
X3.4785Y-4.5547
X3.4785Y-4.8547
X3.5512Y-6.0803
X3.5512Y-6.6803
X3.5531Y-6.9047
X3.5531Y-7.2047
X3.5531Y-7.5047
X3.5531Y-7.8047
X3.5531Y-8.1047
X3.5531Y-8.4047
X3.5785Y-4.5547
X3.5785Y-4.8547
X3.6512Y-6.0803
X3.6512Y-6.6803
X3.653Y-5.1451
X3.653Y-5.7451
X3.6531Y-6.9047
X3.6531Y-7.2047
X3.6531Y-7.5047
X3.6531Y-7.8047
X3.6531Y-8.1047
X3.6531Y-8.4047
X3.6785Y-4.5547
X3.6785Y-4.8547
X3.7512Y-6.0803
X3.7512Y-6.6803
X3.753Y-5.1451
X3.753Y-5.7451
X3.7531Y-6.9047
X3.7531Y-7.2047
X3.7531Y-7.5047
X3.7531Y-7.8047
X3.7531Y-8.1047
X3.7531Y-8.4047
X3.8512Y-6.0803
X3.8512Y-6.6803
X3.853Y-5.1451
X3.853Y-5.7451
X3.8531Y-6.9047
X3.8531Y-7.2047
X3.8531Y-7.5047
X3.8531Y-7.8047
X3.8531Y-8.1047
X3.8531Y-8.4047
X3.928Y-4.0801
X3.928Y-4.277
X3.928Y-4.5817
X3.928Y-4.7785
X3.9512Y-6.0803
X3.9512Y-6.6803
X3.953Y-5.1451
X3.953Y-5.7451
X3.9531Y-6.9047
X3.9531Y-7.2047
X3.9531Y-7.5047
X3.9531Y-7.8047
X3.9531Y-8.1047
X3.9531Y-8.4047
X4.0512Y-6.0803
X4.0512Y-6.6803
X4.053Y-5.1451
X4.053Y-5.7451
X4.0531Y-6.9047
X4.0531Y-7.2047
X4.0531Y-7.5047
X4.0531Y-7.8047
X4.0531Y-8.1047
X4.0531Y-8.4047
X4.1285Y-4.5547
X4.1285Y-4.8547
X4.1305Y-4.0301
X4.1305Y-4.3301
X4.1512Y-6.0803
X4.1512Y-6.6803
X4.153Y-5.1451
X4.153Y-5.7451
X4.1531Y-6.9047
X4.1531Y-7.2047
X4.1531Y-7.5047
X4.1531Y-7.8047
X4.1531Y-8.1047
X4.1531Y-8.4047
X4.2285Y-4.5547
X4.2285Y-4.8547
X4.2305Y-4.0301
X4.2305Y-4.3301
X4.2512Y-6.0803
X4.2512Y-6.6803
X4.253Y-5.1451
X4.253Y-5.7451
X4.3285Y-4.5547
X4.3285Y-4.8547
X4.3305Y-4.0301
X4.3305Y-4.3301
X4.3512Y-6.0803
X4.3512Y-6.6803
X4.353Y-5.1451
X4.353Y-5.7451
X4.4285Y-4.5547
X4.4285Y-4.8547
X4.4305Y-4.0301
X4.4305Y-4.3301
X4.4512Y-6.0803
X4.4512Y-6.6803
X4.453Y-5.1451
X4.453Y-5.7451
X4.5285Y-4.5547
X4.5285Y-4.8547
X4.5305Y-4.0301
X4.5305Y-4.3301
X4.5512Y-6.0803
X4.5512Y-6.6803
X4.553Y-5.1451
X4.553Y-5.7451
X4.6063Y-8.6122
X4.6285Y-4.5547
X4.6285Y-4.8547
X4.6305Y-4.0301
X4.6305Y-4.3301
X4.6512Y-6.0803
X4.6512Y-6.6803
X4.653Y-5.1451
X4.653Y-5.7451
X4.678Y-7.5567
X4.678Y-7.7535
X4.7047Y-8.6122
X4.728Y-8.0833
X4.728Y-8.2801
X4.7285Y-4.5547
X4.7285Y-4.8547
X4.7305Y-4.0301
X4.7305Y-4.3301
X4.7512Y-6.0803
X4.7512Y-6.6803
X4.753Y-5.1451
X4.753Y-5.7451
X4.8055Y-3.6801
X4.8285Y-4.5547
X4.8285Y-4.8547
X4.8305Y-4.0301
X4.8305Y-4.3301
X4.8512Y-6.0803
X4.8512Y-6.6803
X4.853Y-5.1451
X4.853Y-5.7451
X4.9039Y-3.6801
X4.9305Y-4.0301
X4.9305Y-4.3301
X4.9512Y-6.0803
X4.9512Y-6.6803
X4.953Y-5.1451
X4.953Y-5.7451
X4.9531Y-7.5297
X4.9531Y-7.8297
X4.9531Y-8.1297
X4.9531Y-8.4297
X5.003Y-7.0817
X5.003Y-7.2785
X5.0305Y-4.0301
X5.0305Y-4.3301
X5.0512Y-6.0803
X5.0512Y-6.6803
X5.053Y-5.1451
X5.053Y-5.7451
X5.0531Y-7.5297
X5.0531Y-7.8297
X5.0531Y-8.1297
X5.0531Y-8.4297
X5.1305Y-4.0301
X5.1305Y-4.3301
X5.1512Y-6.0803
X5.1512Y-6.6803
X5.153Y-5.1451
X5.153Y-5.7451
X5.1531Y-7.5297
X5.1531Y-7.8297
X5.1531Y-8.1297
X5.1531Y-8.4297
X5.2305Y-4.0301
X5.2305Y-4.3301
X5.2524Y-7.0297
X5.2524Y-7.3297
X5.2531Y-7.5297
X5.2531Y-7.8297
X5.2531Y-8.1297
X5.2531Y-8.4297
X5.3524Y-7.0297
X5.3524Y-7.3297
X5.3531Y-7.5297
X5.3531Y-7.8297
X5.3531Y-8.1297
X5.3531Y-8.4297
X5.3695Y-6.3114
X5.3695Y-6.5083
X5.374Y-3.5039
X5.4524Y-7.0297
X5.4524Y-7.3297
X5.4531Y-7.5297
X5.4531Y-7.8297
X5.4531Y-8.1297
X5.4531Y-8.4297
X5.5524Y-7.0297
X5.5524Y-7.3297
X5.5531Y-7.5297
X5.5531Y-7.8297
X5.5531Y-8.1297
X5.5531Y-8.4297
X5.5709Y-3.5039
X5.6524Y-7.0297
X5.6524Y-7.3297
X5.6531Y-7.5297
X5.6531Y-7.8297
X5.6531Y-8.1297
X5.6531Y-8.4297
X5.6535Y-3.8567
X5.6535Y-4.0535
X5.6535Y-4.7817
X5.6535Y-4.9785
X5.6535Y-5.2913
X5.6535Y-5.4882
X5.7524Y-7.0297
X5.7524Y-7.3297
X5.7531Y-7.5297
X5.7531Y-7.8297
X5.7531Y-8.1297
X5.7531Y-8.4297
X5.8276Y-5.2797
X5.8276Y-5.5797
X5.8281Y-3.8547
X5.8281Y-4.1547
X5.8281Y-4.7547
X5.8281Y-5.0547
X5.8524Y-7.0297
X5.8524Y-7.3297
X5.8531Y-7.5297
X5.8531Y-7.8297
X5.8531Y-8.1297
X5.8531Y-8.4297
X5.9276Y-5.2797
X5.9276Y-5.5797
X5.9281Y-3.8547
X5.9281Y-4.1547
X5.9281Y-4.7547
X5.9281Y-5.0547
X6.0276Y-5.2797
X6.0276Y-5.5797
X6.0281Y-3.8547
X6.0281Y-4.1547
X6.0281Y-4.7547
X6.0281Y-5.0547
X6.1276Y-5.2797
X6.1276Y-5.5797
X6.1281Y-3.8547
X6.1281Y-4.1547
X6.1281Y-4.7547
X6.1281Y-5.0547
X6.2276Y-5.2797
X6.2276Y-5.5797
X6.2281Y-3.8547
X6.2281Y-4.1547
X6.2281Y-4.7547
X6.2281Y-5.0547
X6.278Y-8.1567
X6.278Y-8.3535
X6.3276Y-5.2797
X6.3276Y-5.5797
X6.3281Y-3.8547
X6.3281Y-4.1547
X6.3281Y-4.7547
X6.3281Y-5.0547
X6.378Y-6.2801
X6.378Y-6.3801
X6.378Y-6.4801
X6.378Y-6.5801
X6.378Y-6.6801
X6.378Y-6.7801
X6.4274Y-7.8051
X6.4276Y-5.2797
X6.4276Y-5.5797
X6.4281Y-3.8547
X6.4281Y-4.1547
X6.4281Y-4.7547
X6.4281Y-5.0547
X6.478Y-6.1801
X6.478Y-6.2801
X6.478Y-6.3801
X6.478Y-6.4801
X6.478Y-6.5801
X6.478Y-6.6801
X6.478Y-6.7801
X6.478Y-6.8801
X6.478Y-8.1047
X6.478Y-8.4047
X6.5274Y-7.8051
X6.5276Y-5.2797
X6.5276Y-5.5797
X6.5281Y-3.8547
X6.5281Y-4.1547
X6.5281Y-4.7547
X6.5281Y-5.0547
X6.578Y-6.1801
X6.578Y-6.2801
X6.578Y-6.7801
X6.578Y-6.8801
X6.578Y-8.1047
X6.578Y-8.4047
X6.6274Y-7.8051
X6.6281Y-3.8547
X6.6281Y-4.1547
X6.6281Y-4.7547
X6.6281Y-5.0547
X6.678Y-6.1801
X6.678Y-6.2801
X6.678Y-6.7801
X6.678Y-6.8801
X6.678Y-8.1047
X6.678Y-8.4047
X6.7274Y-7.8051
X6.7281Y-3.8547
X6.7281Y-4.1547
X6.7281Y-4.7547
X6.7281Y-5.0547
X6.778Y-6.1801
X6.778Y-6.2801
X6.778Y-6.7801
X6.778Y-6.8801
X6.778Y-8.1047
X6.778Y-8.4047
X6.8274Y-7.8051
X6.878Y-5.9301
X6.878Y-6.1801
X6.878Y-6.2801
X6.878Y-6.7801
X6.878Y-6.8801
X6.878Y-8.1047
X6.878Y-8.4047
X6.9274Y-7.8051
X6.978Y-6.1801
X6.978Y-6.2801
X6.978Y-6.3801
X6.978Y-6.4801
X6.978Y-6.5801
X6.978Y-6.6801
X6.978Y-6.7801
X6.978Y-6.8801
X6.978Y-8.1047
X6.978Y-8.4047
X7.0274Y-7.8051
X7.0748Y-5.9301
X7.078Y-6.2801
X7.078Y-6.3801
X7.078Y-6.4801
X7.078Y-6.5801
X7.078Y-6.6801
X7.078Y-6.7801
X7.078Y-8.1047
X7.078Y-8.4047
X7.1274Y-7.8051
X7.178Y-8.1047
X7.178Y-8.4047
X7.2274Y-7.8051
X7.278Y-8.1047
X7.278Y-8.4047
X7.3524Y-5.2913
X7.3524Y-5.4882
X7.378Y-8.1047
X7.378Y-8.4047
X7.4033Y-4.3701
X7.478Y-3.7567
X7.478Y-3.9535
X7.478Y-4.7317
X7.478Y-4.9285
X7.478Y-6.3551
X7.478Y-6.552
X7.5018Y-4.3701
X7.5278Y-5.2297
X7.5278Y-5.5297
X7.5774Y-5.7551
X7.5939Y-8.6122
X7.6278Y-5.2297
X7.6278Y-5.5297
X7.6774Y-5.7551
X7.6803Y-6.3037
X7.6803Y-6.6037
X7.6923Y-8.6122
X7.7278Y-5.2297
X7.7278Y-5.5297
X7.7285Y-3.7157
X7.7285Y-4.0157
X7.7774Y-5.7551
X7.7803Y-6.3037
X7.7803Y-6.6037
X7.823Y-4.1929
X7.8278Y-5.2297
X7.8278Y-5.5297
X7.8285Y-3.7157
X7.8285Y-4.0157
X7.853Y-7.6317
X7.853Y-7.8285
X7.853Y-8.1801
X7.853Y-8.377
X7.8774Y-5.7551
X7.8803Y-6.3037
X7.8803Y-6.6037
X7.923Y-4.1929
X7.9278Y-5.2297
X7.9278Y-5.5297
X7.9285Y-3.7157
X7.9285Y-4.0157
X7.9774Y-5.7551
X7.9803Y-6.3037
X7.9803Y-6.6037
X8.023Y-4.1929
X8.0278Y-5.2297
X8.0278Y-5.5297
X8.0285Y-3.7157
X8.0285Y-4.0157
X8.0531Y-8.1297
X8.0531Y-8.4297
X8.0738Y-7.372
X8.0738Y-7.5839
X8.0738Y-7.8839
X8.0774Y-5.7551
X8.0803Y-6.3037
X8.0803Y-6.6037
X8.123Y-4.1929
X8.1278Y-5.2297
X8.1278Y-5.5297
X8.1285Y-3.7157
X8.1285Y-4.0157
X8.1531Y-8.1297
X8.1531Y-8.4297
X8.1738Y-7.372
X8.1738Y-7.5839
X8.1738Y-7.8839
X8.1774Y-5.7551
X8.1803Y-6.3037
X8.1803Y-6.6037
X8.223Y-4.1929
X8.2278Y-5.2297
X8.2278Y-5.5297
X8.2285Y-3.7157
X8.2285Y-4.0157
X8.2531Y-8.1297
X8.2531Y-8.4297
X8.2738Y-7.372
X8.2738Y-7.5839
X8.2738Y-7.8839
X8.2774Y-5.7551
X8.2803Y-6.3037
X8.2803Y-6.6037
X8.323Y-4.1929
X8.3278Y-5.2297
X8.3278Y-5.5297
X8.3285Y-3.7157
X8.3285Y-4.0157
X8.3531Y-8.1297
X8.3531Y-8.4297
X8.3738Y-7.372
X8.3738Y-7.5839
X8.3738Y-7.8839
X8.3774Y-5.7551
X8.423Y-4.1929
X8.4278Y-5.2297
X8.4278Y-5.5297
X8.4285Y-3.7157
X8.4285Y-4.0157
X8.4531Y-8.1297
X8.4531Y-8.4297
X8.4738Y-7.372
X8.4738Y-7.5839
X8.4738Y-7.8839
X8.523Y-4.1929
X8.5278Y-5.2297
X8.5278Y-5.5297
X8.5285Y-3.7157
X8.5285Y-4.0157
X8.5531Y-8.1297
X8.5531Y-8.4297
X8.5738Y-7.372
X8.5738Y-7.5839
X8.5738Y-7.8839
X8.603Y-6.3317
X8.603Y-6.5285
X8.623Y-4.1929
X8.6278Y-5.2297
X8.6278Y-5.5297
X8.6285Y-3.7157
X8.6285Y-4.0157
X8.6531Y-8.1297
X8.6531Y-8.4297
X8.6738Y-7.372
X8.6738Y-7.5839
X8.6738Y-7.8839
X8.7531Y-8.1297
X8.7531Y-8.4297
X8.7738Y-7.372
X8.7738Y-7.5839
X8.7738Y-7.8839
X8.8281Y-6.3047
X8.8281Y-6.6047
X8.8531Y-8.1297
X8.8531Y-8.4297
X8.8738Y-7.372
X8.8738Y-7.5839
X8.8738Y-7.8839
X8.9281Y-6.3047
X8.9281Y-6.6047
X8.9531Y-8.1297
X8.9531Y-8.4297
X8.9738Y-7.5839
X8.9738Y-7.8839
X9.0281Y-6.3047
X9.0281Y-6.6047
X9.1281Y-6.3047
X9.1281Y-6.6047
X9.1831Y-6.8161
X9.1831Y-7.1161
X9.1831Y-7.2394
X9.1831Y-7.5394
X9.2281Y-6.3047
X9.2281Y-6.6047
X9.3281Y-6.3047
X9.3281Y-6.6047
X9.4144Y-6.9213
X9.4144Y-7.1181
X9.4281Y-6.3047
X9.4281Y-6.6047
X9.5281Y-6.3047
X9.5281Y-6.6047
X9.6281Y-6.3047
X9.6281Y-6.6047
X9.7281Y-6.3047
X9.7281Y-6.6047
T5
X1.9079Y-3.1915
X2.0079Y-3.1915
X2.2377Y-3.1915
X2.3377Y-3.1915
X2.5675Y-3.1915
X2.6675Y-3.1915
X2.8973Y-3.1915
X2.9973Y-3.1915
X3.2272Y-3.1915
X3.3272Y-3.1915
T6
X9.8514Y-2.9906
X10.0285Y-2.9906
T7
X1.852Y-8.7795
X1.852Y-8.8795
X1.952Y-8.7795
X1.952Y-8.8795
X2.052Y-8.7795
X2.052Y-8.8795
X2.0776Y-7.0799
X2.0776Y-7.1799
X2.152Y-8.7795
X2.152Y-8.8795
X2.1776Y-7.0799
X2.1776Y-7.1799
X2.252Y-8.7795
X2.252Y-8.8795
X2.2776Y-7.0799
X2.2776Y-7.1799
X2.352Y-8.7795
X2.352Y-8.8795
X2.3776Y-7.0799
X2.3776Y-7.1799
X2.452Y-8.7795
X2.452Y-8.8795
X2.503Y-7.3801
X2.503Y-7.4801
X2.552Y-8.7795
X2.552Y-8.8795
X2.603Y-8.2299
X2.603Y-8.3299
X2.652Y-8.7795
X2.652Y-8.8795
X2.752Y-8.7795
X2.752Y-8.8795
X2.753Y-5.8557
X2.753Y-5.9557
X2.753Y-6.0557
X2.852Y-8.7795
X2.852Y-8.8795
X2.952Y-8.7795
X2.952Y-8.8795
X3.052Y-8.7795
X3.052Y-8.8795
X3.152Y-8.7795
X3.152Y-8.8795
X3.252Y-8.7795
X3.252Y-8.8795
X3.352Y-8.7795
X3.352Y-8.8795
X3.452Y-8.7795
X3.452Y-8.8795
X3.552Y-8.7795
X3.552Y-8.8795
X3.652Y-8.7795
X3.652Y-8.8795
X3.752Y-8.7795
X3.752Y-8.8795
X3.852Y-8.7795
X3.852Y-8.8795
X3.952Y-8.7795
X3.952Y-8.8795
X4.052Y-8.7795
X4.052Y-8.8795
X4.152Y-8.7795
X4.152Y-8.8795
X4.252Y-8.7795
X4.252Y-8.8795
X4.7654Y-8.7795
X4.7654Y-8.8795
X4.8654Y-8.7795
X4.8654Y-8.8795
X4.9654Y-8.7795
X4.9654Y-8.8795
X4.9785Y-3.2024
X5.0654Y-8.7795
X5.0654Y-8.8795
X5.0785Y-3.2024
X5.1654Y-8.7795
X5.1654Y-8.8795
X5.1785Y-3.2024
X5.2654Y-8.7795
X5.2654Y-8.8795
X5.3654Y-8.7795
X5.3654Y-8.8795
X5.453Y-3.2051
X5.4654Y-8.7795
X5.4654Y-8.8795
X5.553Y-3.2051
X5.5654Y-8.7795
X5.5654Y-8.8795
X5.653Y-3.2051
X5.6654Y-8.7795
X5.6654Y-8.8795
X5.7654Y-8.7795
X5.7654Y-8.8795
X5.8654Y-8.7795
X5.8654Y-8.8795
X5.9278Y-3.2024
X5.9654Y-8.7795
X5.9654Y-8.8795
X6.0278Y-3.2024
X6.0654Y-8.7795
X6.0654Y-8.8795
X6.1654Y-8.7795
X6.1654Y-8.8795
X6.2654Y-8.7795
X6.2654Y-8.8795
X6.3654Y-8.7795
X6.3654Y-8.8795
X6.403Y-7.3801
X6.403Y-7.4801
X6.4654Y-8.7795
X6.4654Y-8.8795
X6.503Y-7.3801
X6.503Y-7.4801
X6.5654Y-8.7795
X6.5654Y-8.8795
X6.603Y-7.3801
X6.603Y-7.4801
X6.6654Y-8.7795
X6.6654Y-8.8795
X6.703Y-7.3801
X6.703Y-7.4801
X6.7654Y-8.7795
X6.7654Y-8.8795
X6.803Y-7.3801
X6.803Y-7.4801
X6.8654Y-8.7795
X6.8654Y-8.8795
X6.903Y-7.3801
X6.903Y-7.4801
X6.9654Y-8.7795
X6.9654Y-8.8795
X7.003Y-7.3801
X7.003Y-7.4801
X7.0654Y-8.7795
X7.0654Y-8.8795
X7.103Y-7.3801
X7.103Y-7.4801
X7.1654Y-8.7795
X7.1654Y-8.8795
X7.376Y-3.2038
X7.376Y-3.3038
X7.476Y-3.2038
X7.476Y-3.3038
X7.576Y-3.2038
X7.576Y-3.3038
X7.676Y-3.2038
X7.676Y-3.3038
X7.7575Y-8.7795
X7.7575Y-8.8795
X7.776Y-3.2038
X7.776Y-3.3038
X7.8575Y-8.7795
X7.8575Y-8.8795
X7.876Y-3.2038
X7.876Y-3.3038
X7.9575Y-8.7795
X7.9575Y-8.8795
X7.976Y-3.2038
X7.976Y-3.3038
X8.0575Y-8.7795
X8.0575Y-8.8795
X8.076Y-3.2038
X8.076Y-3.3038
X8.1575Y-8.7795
X8.1575Y-8.8795
X8.1693Y-6.9778
X8.1693Y-7.0778
X8.176Y-3.2038
X8.176Y-3.3038
X8.2575Y-8.7795
X8.2575Y-8.8795
X8.2693Y-6.9778
X8.2693Y-7.0778
X8.276Y-3.2038
X8.276Y-3.3038
X8.3575Y-8.7795
X8.3575Y-8.8795
X8.3693Y-6.9778
X8.3693Y-7.0778
X8.376Y-3.2038
X8.376Y-3.3038
X8.4575Y-8.7795
X8.4575Y-8.8795
X8.4693Y-6.9778
X8.4693Y-7.0778
X8.476Y-3.2038
X8.476Y-3.3038
X8.5575Y-8.7795
X8.5575Y-8.8795
X8.576Y-3.2038
X8.576Y-3.3038
X8.6575Y-8.7795
X8.6575Y-8.8795
X8.676Y-3.2038
X8.676Y-3.3038
X8.7575Y-8.7795
X8.7575Y-8.8795
X8.776Y-3.2038
X8.776Y-3.3038
X8.8575Y-8.7795
X8.8575Y-8.8795
X8.876Y-3.2038
X8.876Y-3.3038
X8.9575Y-8.7795
X8.9575Y-8.8795
X8.976Y-3.2038
X8.976Y-3.3038
X9.0575Y-8.7795
X9.0575Y-8.8795
X9.076Y-3.2038
X9.076Y-3.3038
X9.1575Y-8.7795
X9.1575Y-8.8795
X9.176Y-3.2038
X9.176Y-3.3038
X9.1778Y-3.7805
X9.1778Y-3.8805
X9.1778Y-3.9805
X9.1778Y-4.0805
X9.1778Y-4.1805
X9.1778Y-4.2805
X9.1778Y-4.3805
X9.1778Y-4.4805
X9.1778Y-4.5805
X9.1778Y-4.9301
X9.1778Y-5.0301
X9.1778Y-5.1301
X9.1778Y-5.2301
X9.1778Y-5.3301
X9.1778Y-5.4301
X9.1778Y-5.5301
X9.1778Y-5.6301
X9.1778Y-5.7301
X9.2575Y-8.7795
X9.2575Y-8.8795
X9.276Y-3.2038
X9.276Y-3.3038
X9.2778Y-3.7805
X9.2778Y-3.8805
X9.2778Y-3.9805
X9.2778Y-4.0805
X9.2778Y-4.1805
X9.2778Y-4.2805
X9.2778Y-4.3805
X9.2778Y-4.4805
X9.2778Y-4.5805
X9.2778Y-4.9301
X9.2778Y-5.0301
X9.2778Y-5.1301
X9.2778Y-5.2301
X9.2778Y-5.3301
X9.2778Y-5.4301
X9.2778Y-5.5301
X9.2778Y-5.6301
X9.2778Y-5.7301
X9.3575Y-8.7795
X9.3575Y-8.8795
X9.4575Y-8.7795
X9.4575Y-8.8795
X9.5575Y-8.7795
X9.5575Y-8.8795
X9.6575Y-8.7795
X9.6575Y-8.8795
X9.7575Y-8.7795
X9.7575Y-8.8795
X9.8575Y-8.7795
X9.8575Y-8.8795
X9.878Y-6.9801
X9.878Y-7.0801
X9.878Y-7.1801
X9.878Y-7.2801
X9.878Y-7.3801
X9.878Y-7.4801
X9.878Y-7.5801
X9.878Y-7.6801
X9.878Y-7.7801
X9.903Y-3.7805
X9.903Y-3.8805
X9.903Y-3.9805
X9.903Y-4.0805
X9.903Y-4.1805
X9.903Y-4.2805
X9.903Y-4.3805
X9.903Y-4.4805
X9.903Y-4.5805
X9.903Y-4.9301
X9.903Y-5.0301
X9.903Y-5.1301
X9.903Y-5.2301
X9.903Y-5.3301
X9.903Y-5.4301
X9.903Y-5.5301
X9.903Y-5.6301
X9.903Y-5.7301
X9.9575Y-8.7795
X9.9575Y-8.8795
X9.978Y-6.9801
X9.978Y-7.0801
X9.978Y-7.1801
X9.978Y-7.2801
X9.978Y-7.3801
X9.978Y-7.4801
X9.978Y-7.5801
X9.978Y-7.6801
X9.978Y-7.7801
X10.003Y-3.7805
X10.003Y-3.8805
X10.003Y-3.9805
X10.003Y-4.0805
X10.003Y-4.1805
X10.003Y-4.2805
X10.003Y-4.3805
X10.003Y-4.4805
X10.003Y-4.5805
X10.003Y-4.9301
X10.003Y-5.0301
X10.003Y-5.1301
X10.003Y-5.2301
X10.003Y-5.3301
X10.003Y-5.4301
X10.003Y-5.5301
X10.003Y-5.6301
X10.003Y-5.7301
X10.0575Y-8.7795
X10.0575Y-8.8795
X10.1575Y-8.7795
X10.1575Y-8.8795
T8
X9.8022Y-3.0887
X10.0781Y-3.0887
T9
X1.5748Y-2.9528
X10.4331Y-2.9528
T0
M30
