M48
; DRILL file {KiCad (6.0.11)} date Tue May 14 10:13:46 2024
; FORMAT={-:-/ absolute / inch / decimal}
; #@! TF.CreationDate,2024-05-14T10:13:46-05:00
; #@! TF.GenerationSoftware,Kicad,Pcbnew,(6.0.11)
; #@! TF.FileFunction,Plated,1,2,PTH
FMAT,2
INCH
; #@! TA.AperFunction,Plated,PTH,ComponentDrill
T1C0.0118
; #@! TA.AperFunction,Plated,PTH,ViaDrill
T2C0.0157
; #@! TA.AperFunction,Plated,PTH,ComponentDrill
T3C0.0295
; #@! TA.AperFunction,Plated,PTH,ComponentDrill
T4C0.0315
; #@! TA.AperFunction,Plated,PTH,ComponentDrill
T5C0.0354
; #@! TA.AperFunction,Plated,PTH,ComponentDrill
T6C0.0390
; #@! TA.AperFunction,Plated,PTH,ComponentDrill
T7C0.0394
; #@! TA.AperFunction,Plated,PTH,ComponentDrill
T8C0.0512
; #@! TA.AperFunction,Plated,PTH,ComponentDrill
T9C0.1260
%
G90
G05
T1
X3.628Y-4.2579
X3.628Y-4.3051
X7.8937Y-7.3484
X7.8937Y-7.3957
T2
X2.078Y-6.5551
X2.2299Y-7.8111
X2.253Y-3.9551
X2.2739Y-7.7734
X2.4343Y-6.6389
X2.4417Y-7.5563
X2.478Y-6.5301
X2.5567Y-5.206
X2.5939Y-6.2091
X2.603Y-6.5801
X2.6101Y-6.0984
X2.6384Y-6.8274
X2.653Y-4.0051
X2.7395Y-7.4506
X2.918Y-4.4642
X2.928Y-4.1801
X2.9859Y-4.428
X2.9918Y-3.1078
X3.0716Y-7.3921
X3.0727Y-7.3528
X3.3364Y-4.6949
X3.3771Y-7.2813
X3.4098Y-8.2424
X3.4146Y-6.7809
X3.4447Y-7.0198
X3.4676Y-5.0366
X3.4812Y-8.6459
X3.528Y-6.5301
X3.5459Y-4.7273
X3.6236Y-7.0933
X3.6974Y-7.0148
X3.7496Y-4.4259
X3.7555Y-5.2575
X3.7731Y-7.6834
X3.9334Y-5.2793
X3.9505Y-7.9315
X3.9766Y-5.5966
X4.007Y-5.6643
X4.0825Y-5.9041
X4.0947Y-7.9889
X4.1564Y-7.3754
X4.2139Y-4.7366
X4.2333Y-5.9781
X4.2563Y-6.5641
X4.2769Y-5.9496
X4.4104Y-5.0366
X4.4585Y-6.2793
X4.4659Y-3.9522
X4.479Y-4.954
X4.4955Y-6.7549
X4.5322Y-5.2374
X4.5398Y-5.8735
X4.5613Y-7.3182
X4.5636Y-5.05
X4.5769Y-6.5295
X4.5895Y-6.4886
X4.5955Y-6.1637
X4.6127Y-7.4108
X4.6243Y-6.0038
X4.6249Y-7.1684
X4.6659Y-7.0815
X4.7033Y-7.1087
X4.7321Y-5.4904
X4.753Y-3.4801
X4.7769Y-6.8199
X4.79Y-4.9456
X4.7903Y-4.7454
X4.8441Y-7.8118
X4.8631Y-5.9212
X4.9149Y-6.4843
X4.9195Y-8.2219
X4.953Y-8.5376
X4.9896Y-6.2386
X5.0003Y-5.3826
X5.0097Y-5.2162
X5.0515Y-5.0184
X5.0949Y-5.008
X5.0949Y-5.0487
X5.1347Y-5.006
X5.137Y-4.4367
X5.157Y-4.8135
X5.1968Y-7.5935
X5.207Y-4.7635
X5.2154Y-8.5736
X5.2278Y-6.3518
X5.298Y-7.6368
X5.4047Y-6.6533
X5.405Y-6.6132
X5.4083Y-6.4639
X5.4116Y-5.4694
X5.4269Y-5.7917
X5.4729Y-5.5468
X5.5074Y-6.5286
X5.5087Y-5.5824
X5.5341Y-4.329
X5.5519Y-5.7462
X5.5529Y-4.2526
X5.5561Y-8.5739
X5.5811Y-5.4694
X5.6653Y-5.5622
X5.6888Y-3.9707
X5.7006Y-5.4318
X5.731Y-5.403
X5.7432Y-6.0803
X5.8817Y-5.5032
X5.9518Y-5.8403
X5.968Y-7.2782
X5.9723Y-7.0078
X6.0094Y-6.0372
X6.0096Y-8.0638
X6.013Y-8.1839
X6.0431Y-5.8715
X6.0475Y-7.8739
X6.0672Y-8.0343
X6.075Y-6.7929
X6.1067Y-7.938
X6.13Y-8.0121
X6.1547Y-4.9828
X6.1879Y-5.9999
X6.2139Y-8.3114
X6.2401Y-7.7963
X6.2883Y-4.2722
X6.353Y-4.5801
X6.363Y-4.6947
X6.3919Y-5.8647
X6.3954Y-5.6672
X6.3984Y-7.2417
X6.4188Y-5.8357
X6.4195Y-5.7039
X6.487Y-5.4533
X6.5209Y-4.3089
X6.553Y-4.5801
X6.5743Y-6.1274
X6.6346Y-6.5636
X6.655Y-6.5014
X6.6587Y-7.2231
X6.678Y-4.5051
X6.7072Y-6.6301
X6.7392Y-7.1022
X6.7854Y-4.3034
X6.825Y-4.2039
X6.8532Y-4.62
X6.8851Y-5.1161
X6.8928Y-7.0047
X6.9044Y-4.2426
X6.9557Y-3.8471
X6.9756Y-5.5596
X6.9818Y-5.1547
X7.0259Y-6.967
X7.0755Y-6.9202
X7.1983Y-6.3113
X7.3478Y-7.1679
X7.3535Y-6.399
X7.3626Y-7.0195
X7.404Y-7.2717
X7.4246Y-5.6037
X7.5003Y-3.6853
X7.6198Y-6.2182
X7.7194Y-6.8908
X7.7266Y-6.2446
X7.7731Y-6.216
X7.778Y-4.7301
X7.7927Y-3.4933
X7.8893Y-5.8252
X7.8967Y-6.8571
X7.9223Y-3.3643
X7.9351Y-8.3816
X7.9838Y-3.8934
X8.0147Y-6.4219
X8.032Y-7.0828
X8.0403Y-3.6159
X8.058Y-7.0248
X8.0589Y-5.9661
X8.0765Y-3.5797
X8.0884Y-3.7957
X8.1095Y-4.1148
X8.129Y-3.5272
X8.1562Y-3.6473
X8.207Y-6.8817
X8.2147Y-6.0818
X8.2433Y-7.5002
X8.2531Y-7.1388
X8.2637Y-6.6993
X8.3295Y-7.2133
X8.3966Y-4.7918
X8.4053Y-4.6224
X8.4983Y-5.7979
X8.5351Y-6.7032
X8.5362Y-3.5636
X8.5811Y-5.6022
X8.6888Y-4.8548
X8.8753Y-6.245
X8.8784Y-5.1047
X8.9379Y-6.0683
X9.4373Y-8.0104
X9.4776Y-7.8942
X9.4954Y-8.0502
X9.5066Y-7.7481
X9.5707Y-7.7662
X9.6002Y-7.7098
X9.6562Y-7.692
X9.7383Y-7.5548
X9.7442Y-7.1982
X9.7557Y-6.1809
X9.7596Y-5.3831
X9.8089Y-4.9301
X9.8749Y-5.7961
T3
X1.8398Y-7.5563
X1.8898Y-7.5063
X1.8898Y-7.6063
T4
X1.678Y-6.8301
X1.6901Y-8.6122
X1.6929Y-6.1772
X1.6929Y-6.374
X1.6929Y-7.4094
X1.6929Y-7.6063
X1.6978Y-5.6595
X1.6978Y-5.8564
X1.703Y-4.1067
X1.703Y-4.3035
X1.703Y-4.6243
X1.703Y-4.8212
X1.703Y-5.1419
X1.703Y-5.3388
X1.753Y-8.2801
X1.7774Y-7.8801
X1.778Y-6.8301
X1.7886Y-8.6122
X1.8774Y-7.8801
X1.878Y-6.8301
X1.8898Y-4.0547
X1.8898Y-4.3547
X1.8898Y-4.5723
X1.8898Y-4.8723
X1.8898Y-5.09
X1.8898Y-5.39
X1.8898Y-5.6076
X1.8898Y-5.9076
X1.8898Y-6.1252
X1.8898Y-6.4252
X1.9774Y-7.8801
X1.978Y-3.4551
X1.978Y-3.7551
X1.978Y-6.8301
X1.9898Y-4.0547
X1.9898Y-4.3547
X1.9898Y-4.5723
X1.9898Y-4.8723
X1.9898Y-5.09
X1.9898Y-5.39
X1.9898Y-5.6076
X1.9898Y-5.9076
X1.9898Y-6.1252
X1.9898Y-6.4252
X2.053Y-8.2801
X2.0774Y-7.8801
X2.078Y-6.8301
X2.0898Y-4.0547
X2.0898Y-4.3547
X2.0898Y-4.5723
X2.0898Y-4.8723
X2.0898Y-5.09
X2.0898Y-5.39
X2.0898Y-5.6076
X2.0898Y-5.9076
X2.0898Y-6.1252
X2.0898Y-6.4252
X2.1774Y-7.8801
X2.178Y-6.8301
X2.1898Y-4.0547
X2.1898Y-4.3547
X2.1898Y-4.5723
X2.1898Y-4.8723
X2.1898Y-5.09
X2.1898Y-5.39
X2.1898Y-5.6076
X2.1898Y-5.9076
X2.1898Y-6.1252
X2.1898Y-6.4252
X2.2774Y-7.8801
X2.278Y-6.8301
X2.2898Y-4.0547
X2.2898Y-4.3547
X2.2898Y-4.5723
X2.2898Y-4.8723
X2.2898Y-5.09
X2.2898Y-5.39
X2.2898Y-5.6076
X2.2898Y-5.9076
X2.2898Y-6.1252
X2.2898Y-6.4252
X2.303Y-3.4551
X2.303Y-3.7551
X2.353Y-8.2051
X2.353Y-8.5051
X2.3774Y-7.8801
X2.378Y-6.8301
X2.3898Y-4.0547
X2.3898Y-4.3547
X2.3898Y-4.5723
X2.3898Y-4.8723
X2.3898Y-5.09
X2.3898Y-5.39
X2.3898Y-5.6076
X2.3898Y-5.9076
X2.3898Y-6.1252
X2.3898Y-6.4252
X2.4774Y-7.8801
X2.478Y-6.8301
X2.4898Y-4.0547
X2.4898Y-4.3547
X2.4898Y-4.5723
X2.4898Y-4.8723
X2.4898Y-5.09
X2.4898Y-5.39
X2.4898Y-5.6076
X2.4898Y-5.9076
X2.4898Y-6.1252
X2.4898Y-6.4252
X2.5774Y-7.8801
X2.628Y-3.4551
X2.628Y-3.7551
X2.6779Y-6.4921
X2.7764Y-6.4921
X2.778Y-4.5817
X2.778Y-4.7785
X2.803Y-4.0801
X2.803Y-4.277
X2.903Y-5.2801
X2.903Y-5.5801
X2.953Y-3.4551
X2.953Y-3.7551
X2.9785Y-4.5547
X2.9785Y-4.8547
X3.003Y-5.8051
X3.003Y-6.1051
X3.003Y-6.3083
X3.003Y-6.5051
X3.028Y-6.9551
X3.028Y-7.152
X3.028Y-7.5567
X3.028Y-7.7535
X3.028Y-8.1602
X3.028Y-8.3571
X3.0785Y-4.5547
X3.0785Y-4.8547
X3.128Y-3.8801
X3.128Y-4.1801
X3.178Y-5.3303
X3.178Y-5.5272
X3.1785Y-4.5547
X3.1785Y-4.8547
X3.2512Y-6.0803
X3.2512Y-6.6803
X3.2531Y-6.9047
X3.2531Y-7.2047
X3.2531Y-7.5047
X3.2531Y-7.8047
X3.2531Y-8.1047
X3.2531Y-8.4047
X3.278Y-3.4551
X3.278Y-3.7551
X3.2785Y-4.5547
X3.2785Y-4.8547
X3.3512Y-6.0803
X3.3512Y-6.6803
X3.3531Y-6.9047
X3.3531Y-7.2047
X3.3531Y-7.5047
X3.3531Y-7.8047
X3.3531Y-8.1047
X3.3531Y-8.4047
X3.3785Y-4.5547
X3.3785Y-4.8547
X3.4512Y-6.0803
X3.4512Y-6.6803
X3.4531Y-6.9047
X3.4531Y-7.2047
X3.4531Y-7.5047
X3.4531Y-7.8047
X3.4531Y-8.1047
X3.4531Y-8.4047
X3.4785Y-4.5547
X3.4785Y-4.8547
X3.5512Y-6.0803
X3.5512Y-6.6803
X3.5531Y-6.9047
X3.5531Y-7.2047
X3.5531Y-7.5047
X3.5531Y-7.8047
X3.5531Y-8.1047
X3.5531Y-8.4047
X3.5785Y-4.5547
X3.5785Y-4.8547
X3.6512Y-6.0803
X3.6512Y-6.6803
X3.653Y-5.1451
X3.653Y-5.7451
X3.6531Y-6.9047
X3.6531Y-7.2047
X3.6531Y-7.5047
X3.6531Y-7.8047
X3.6531Y-8.1047
X3.6531Y-8.4047
X3.6785Y-4.5547
X3.6785Y-4.8547
X3.7512Y-6.0803
X3.7512Y-6.6803
X3.753Y-5.1451
X3.753Y-5.7451
X3.7531Y-6.9047
X3.7531Y-7.2047
X3.7531Y-7.5047
X3.7531Y-7.8047
X3.7531Y-8.1047
X3.7531Y-8.4047
X3.8512Y-6.0803
X3.8512Y-6.6803
X3.853Y-5.1451
X3.853Y-5.7451
X3.8531Y-6.9047
X3.8531Y-7.2047
X3.8531Y-7.5047
X3.8531Y-7.8047
X3.8531Y-8.1047
X3.8531Y-8.4047
X3.928Y-4.0801
X3.928Y-4.277
X3.928Y-4.5817
X3.928Y-4.7785
X3.9512Y-6.0803
X3.9512Y-6.6803
X3.953Y-5.1451
X3.953Y-5.7451
X3.9531Y-6.9047
X3.9531Y-7.2047
X3.9531Y-7.5047
X3.9531Y-7.8047
X3.9531Y-8.1047
X3.9531Y-8.4047
X4.0512Y-6.0803
X4.0512Y-6.6803
X4.053Y-5.1451
X4.053Y-5.7451
X4.0531Y-6.9047
X4.0531Y-7.2047
X4.0531Y-7.5047
X4.0531Y-7.8047
X4.0531Y-8.1047
X4.0531Y-8.4047
X4.1285Y-4.5547
X4.1285Y-4.8547
X4.1305Y-4.0301
X4.1305Y-4.3301
X4.1512Y-6.0803
X4.1512Y-6.6803
X4.153Y-5.1451
X4.153Y-5.7451
X4.1531Y-6.9047
X4.1531Y-7.2047
X4.1531Y-7.5047
X4.1531Y-7.8047
X4.1531Y-8.1047
X4.1531Y-8.4047
X4.2285Y-4.5547
X4.2285Y-4.8547
X4.2305Y-4.0301
X4.2305Y-4.3301
X4.2512Y-6.0803
X4.2512Y-6.6803
X4.253Y-5.1451
X4.253Y-5.7451
X4.3285Y-4.5547
X4.3285Y-4.8547
X4.3305Y-4.0301
X4.3305Y-4.3301
X4.3512Y-6.0803
X4.3512Y-6.6803
X4.353Y-5.1451
X4.353Y-5.7451
X4.4285Y-4.5547
X4.4285Y-4.8547
X4.4305Y-4.0301
X4.4305Y-4.3301
X4.4512Y-6.0803
X4.4512Y-6.6803
X4.453Y-5.1451
X4.453Y-5.7451
X4.5285Y-4.5547
X4.5285Y-4.8547
X4.5305Y-4.0301
X4.5305Y-4.3301
X4.5512Y-6.0803
X4.5512Y-6.6803
X4.553Y-5.1451
X4.553Y-5.7451
X4.6063Y-8.6122
X4.6285Y-4.5547
X4.6285Y-4.8547
X4.6305Y-4.0301
X4.6305Y-4.3301
X4.6512Y-6.0803
X4.6512Y-6.6803
X4.653Y-5.1451
X4.653Y-5.7451
X4.678Y-7.5567
X4.678Y-7.7535
X4.7047Y-8.6122
X4.728Y-8.0833
X4.728Y-8.2801
X4.7285Y-4.5547
X4.7285Y-4.8547
X4.7305Y-4.0301
X4.7305Y-4.3301
X4.7512Y-6.0803
X4.7512Y-6.6803
X4.753Y-5.1451
X4.753Y-5.7451
X4.8055Y-3.6801
X4.8285Y-4.5547
X4.8285Y-4.8547
X4.8305Y-4.0301
X4.8305Y-4.3301
X4.8512Y-6.0803
X4.8512Y-6.6803
X4.853Y-5.1451
X4.853Y-5.7451
X4.9039Y-3.6801
X4.9305Y-4.0301
X4.9305Y-4.3301
X4.9512Y-6.0803
X4.9512Y-6.6803
X4.953Y-5.1451
X4.953Y-5.7451
X4.9531Y-7.5297
X4.9531Y-7.8297
X4.9531Y-8.1297
X4.9531Y-8.4297
X5.003Y-7.0817
X5.003Y-7.2785
X5.0305Y-4.0301
X5.0305Y-4.3301
X5.0512Y-6.0803
X5.0512Y-6.6803
X5.053Y-5.1451
X5.053Y-5.7451
X5.0531Y-7.5297
X5.0531Y-7.8297
X5.0531Y-8.1297
X5.0531Y-8.4297
X5.1305Y-4.0301
X5.1305Y-4.3301
X5.1512Y-6.0803
X5.1512Y-6.6803
X5.153Y-5.1451
X5.153Y-5.7451
X5.1531Y-7.5297
X5.1531Y-7.8297
X5.1531Y-8.1297
X5.1531Y-8.4297
X5.2305Y-4.0301
X5.2305Y-4.3301
X5.2524Y-7.0297
X5.2524Y-7.3297
X5.2531Y-7.5297
X5.2531Y-7.8297
X5.2531Y-8.1297
X5.2531Y-8.4297
X5.3524Y-7.0297
X5.3524Y-7.3297
X5.3531Y-7.5297
X5.3531Y-7.8297
X5.3531Y-8.1297
X5.3531Y-8.4297
X5.3695Y-6.3114
X5.3695Y-6.5083
X5.374Y-3.5039
X5.4524Y-7.0297
X5.4524Y-7.3297
X5.4531Y-7.5297
X5.4531Y-7.8297
X5.4531Y-8.1297
X5.4531Y-8.4297
X5.5524Y-7.0297
X5.5524Y-7.3297
X5.5531Y-7.5297
X5.5531Y-7.8297
X5.5531Y-8.1297
X5.5531Y-8.4297
X5.5709Y-3.5039
X5.6524Y-7.0297
X5.6524Y-7.3297
X5.6531Y-7.5297
X5.6531Y-7.8297
X5.6531Y-8.1297
X5.6531Y-8.4297
X5.6535Y-3.8567
X5.6535Y-4.0535
X5.6535Y-4.7817
X5.6535Y-4.9785
X5.6535Y-5.2913
X5.6535Y-5.4882
X5.7524Y-7.0297
X5.7524Y-7.3297
X5.7531Y-7.5297
X5.7531Y-7.8297
X5.7531Y-8.1297
X5.7531Y-8.4297
X5.8276Y-5.2797
X5.8276Y-5.5797
X5.8281Y-3.8547
X5.8281Y-4.1547
X5.8281Y-4.7547
X5.8281Y-5.0547
X5.8524Y-7.0297
X5.8524Y-7.3297
X5.8531Y-7.5297
X5.8531Y-7.8297
X5.8531Y-8.1297
X5.8531Y-8.4297
X5.9276Y-5.2797
X5.9276Y-5.5797
X5.9281Y-3.8547
X5.9281Y-4.1547
X5.9281Y-4.7547
X5.9281Y-5.0547
X6.0276Y-5.2797
X6.0276Y-5.5797
X6.0281Y-3.8547
X6.0281Y-4.1547
X6.0281Y-4.7547
X6.0281Y-5.0547
X6.1276Y-5.2797
X6.1276Y-5.5797
X6.1281Y-3.8547
X6.1281Y-4.1547
X6.1281Y-4.7547
X6.1281Y-5.0547
X6.2276Y-5.2797
X6.2276Y-5.5797
X6.2281Y-3.8547
X6.2281Y-4.1547
X6.2281Y-4.7547
X6.2281Y-5.0547
X6.278Y-8.1567
X6.278Y-8.3535
X6.3276Y-5.2797
X6.3276Y-5.5797
X6.3281Y-3.8547
X6.3281Y-4.1547
X6.3281Y-4.7547
X6.3281Y-5.0547
X6.378Y-6.2801
X6.378Y-6.3801
X6.378Y-6.4801
X6.378Y-6.5801
X6.378Y-6.6801
X6.378Y-6.7801
X6.4274Y-7.8051
X6.4276Y-5.2797
X6.4276Y-5.5797
X6.4281Y-3.8547
X6.4281Y-4.1547
X6.4281Y-4.7547
X6.4281Y-5.0547
X6.478Y-6.1801
X6.478Y-6.2801
X6.478Y-6.3801
X6.478Y-6.4801
X6.478Y-6.5801
X6.478Y-6.6801
X6.478Y-6.7801
X6.478Y-6.8801
X6.478Y-8.1047
X6.478Y-8.4047
X6.5274Y-7.8051
X6.5276Y-5.2797
X6.5276Y-5.5797
X6.5281Y-3.8547
X6.5281Y-4.1547
X6.5281Y-4.7547
X6.5281Y-5.0547
X6.578Y-6.1801
X6.578Y-6.2801
X6.578Y-6.7801
X6.578Y-6.8801
X6.578Y-8.1047
X6.578Y-8.4047
X6.6274Y-7.8051
X6.6281Y-3.8547
X6.6281Y-4.1547
X6.6281Y-4.7547
X6.6281Y-5.0547
X6.678Y-6.1801
X6.678Y-6.2801
X6.678Y-6.7801
X6.678Y-6.8801
X6.678Y-8.1047
X6.678Y-8.4047
X6.7274Y-7.8051
X6.7281Y-3.8547
X6.7281Y-4.1547
X6.7281Y-4.7547
X6.7281Y-5.0547
X6.778Y-6.1801
X6.778Y-6.2801
X6.778Y-6.7801
X6.778Y-6.8801
X6.778Y-8.1047
X6.778Y-8.4047
X6.8274Y-7.8051
X6.878Y-5.9301
X6.878Y-6.1801
X6.878Y-6.2801
X6.878Y-6.7801
X6.878Y-6.8801
X6.878Y-8.1047
X6.878Y-8.4047
X6.9274Y-7.8051
X6.978Y-6.1801
X6.978Y-6.2801
X6.978Y-6.3801
X6.978Y-6.4801
X6.978Y-6.5801
X6.978Y-6.6801
X6.978Y-6.7801
X6.978Y-6.8801
X6.978Y-8.1047
X6.978Y-8.4047
X7.0274Y-7.8051
X7.0748Y-5.9301
X7.078Y-6.2801
X7.078Y-6.3801
X7.078Y-6.4801
X7.078Y-6.5801
X7.078Y-6.6801
X7.078Y-6.7801
X7.078Y-8.1047
X7.078Y-8.4047
X7.1274Y-7.8051
X7.178Y-8.1047
X7.178Y-8.4047
X7.2274Y-7.8051
X7.278Y-8.1047
X7.278Y-8.4047
X7.3524Y-5.2913
X7.3524Y-5.4882
X7.378Y-8.1047
X7.378Y-8.4047
X7.4033Y-4.3701
X7.478Y-3.7567
X7.478Y-3.9535
X7.478Y-4.7317
X7.478Y-4.9285
X7.478Y-6.3551
X7.478Y-6.552
X7.5018Y-4.3701
X7.5278Y-5.2297
X7.5278Y-5.5297
X7.5774Y-5.7551
X7.5939Y-8.6122
X7.6278Y-5.2297
X7.6278Y-5.5297
X7.6774Y-5.7551
X7.6803Y-6.3037
X7.6803Y-6.6037
X7.6923Y-8.6122
X7.7278Y-5.2297
X7.7278Y-5.5297
X7.7285Y-3.7157
X7.7285Y-4.0157
X7.7774Y-5.7551
X7.7803Y-6.3037
X7.7803Y-6.6037
X7.823Y-4.1929
X7.8278Y-5.2297
X7.8278Y-5.5297
X7.8285Y-3.7157
X7.8285Y-4.0157
X7.853Y-7.6317
X7.853Y-7.8285
X7.853Y-8.1801
X7.853Y-8.377
X7.8774Y-5.7551
X7.8803Y-6.3037
X7.8803Y-6.6037
X7.923Y-4.1929
X7.9278Y-5.2297
X7.9278Y-5.5297
X7.9285Y-3.7157
X7.9285Y-4.0157
X7.9774Y-5.7551
X7.9803Y-6.3037
X7.9803Y-6.6037
X8.023Y-4.1929
X8.0278Y-5.2297
X8.0278Y-5.5297
X8.0285Y-3.7157
X8.0285Y-4.0157
X8.0531Y-8.1297
X8.0531Y-8.4297
X8.0738Y-7.372
X8.0738Y-7.5839
X8.0738Y-7.8839
X8.0774Y-5.7551
X8.0803Y-6.3037
X8.0803Y-6.6037
X8.123Y-4.1929
X8.1278Y-5.2297
X8.1278Y-5.5297
X8.1285Y-3.7157
X8.1285Y-4.0157
X8.1531Y-8.1297
X8.1531Y-8.4297
X8.1738Y-7.372
X8.1738Y-7.5839
X8.1738Y-7.8839
X8.1774Y-5.7551
X8.1803Y-6.3037
X8.1803Y-6.6037
X8.223Y-4.1929
X8.2278Y-5.2297
X8.2278Y-5.5297
X8.2285Y-3.7157
X8.2285Y-4.0157
X8.2531Y-8.1297
X8.2531Y-8.4297
X8.2738Y-7.372
X8.2738Y-7.5839
X8.2738Y-7.8839
X8.2774Y-5.7551
X8.2803Y-6.3037
X8.2803Y-6.6037
X8.323Y-4.1929
X8.3278Y-5.2297
X8.3278Y-5.5297
X8.3285Y-3.7157
X8.3285Y-4.0157
X8.3531Y-8.1297
X8.3531Y-8.4297
X8.3738Y-7.372
X8.3738Y-7.5839
X8.3738Y-7.8839
X8.3774Y-5.7551
X8.423Y-4.1929
X8.4278Y-5.2297
X8.4278Y-5.5297
X8.4285Y-3.7157
X8.4285Y-4.0157
X8.4531Y-8.1297
X8.4531Y-8.4297
X8.4738Y-7.372
X8.4738Y-7.5839
X8.4738Y-7.8839
X8.523Y-4.1929
X8.5278Y-5.2297
X8.5278Y-5.5297
X8.5285Y-3.7157
X8.5285Y-4.0157
X8.5531Y-8.1297
X8.5531Y-8.4297
X8.5738Y-7.372
X8.5738Y-7.5839
X8.5738Y-7.8839
X8.603Y-6.3317
X8.603Y-6.5285
X8.623Y-4.1929
X8.6278Y-5.2297
X8.6278Y-5.5297
X8.6285Y-3.7157
X8.6285Y-4.0157
X8.6531Y-8.1297
X8.6531Y-8.4297
X8.6738Y-7.372
X8.6738Y-7.5839
X8.6738Y-7.8839
X8.7531Y-8.1297
X8.7531Y-8.4297
X8.7738Y-7.372
X8.7738Y-7.5839
X8.7738Y-7.8839
X8.8281Y-6.3047
X8.8281Y-6.6047
X8.8531Y-8.1297
X8.8531Y-8.4297
X8.8738Y-7.372
X8.8738Y-7.5839
X8.8738Y-7.8839
X8.9281Y-6.3047
X8.9281Y-6.6047
X8.9531Y-8.1297
X8.9531Y-8.4297
X8.9738Y-7.5839
X8.9738Y-7.8839
X9.0281Y-6.3047
X9.0281Y-6.6047
X9.1281Y-6.3047
X9.1281Y-6.6047
X9.1831Y-6.8161
X9.1831Y-7.1161
X9.1831Y-7.2394
X9.1831Y-7.5394
X9.2281Y-6.3047
X9.2281Y-6.6047
X9.3281Y-6.3047
X9.3281Y-6.6047
X9.4144Y-6.9213
X9.4144Y-7.1181
X9.4281Y-6.3047
X9.4281Y-6.6047
X9.5281Y-6.3047
X9.5281Y-6.6047
X9.6281Y-6.3047
X9.6281Y-6.6047
X9.7281Y-6.3047
X9.7281Y-6.6047
T5
X1.9079Y-3.1915
X2.0079Y-3.1915
X2.2377Y-3.1915
X2.3377Y-3.1915
X2.5675Y-3.1915
X2.6675Y-3.1915
X2.8973Y-3.1915
X2.9973Y-3.1915
X3.2272Y-3.1915
X3.3272Y-3.1915
T6
X9.8514Y-2.9906
X10.0285Y-2.9906
T7
X1.852Y-8.7795
X1.852Y-8.8795
X1.952Y-8.7795
X1.952Y-8.8795
X2.052Y-8.7795
X2.052Y-8.8795
X2.0776Y-7.0799
X2.0776Y-7.1799
X2.152Y-8.7795
X2.152Y-8.8795
X2.1776Y-7.0799
X2.1776Y-7.1799
X2.252Y-8.7795
X2.252Y-8.8795
X2.2776Y-7.0799
X2.2776Y-7.1799
X2.352Y-8.7795
X2.352Y-8.8795
X2.3776Y-7.0799
X2.3776Y-7.1799
X2.452Y-8.7795
X2.452Y-8.8795
X2.503Y-7.3801
X2.503Y-7.4801
X2.552Y-8.7795
X2.552Y-8.8795
X2.603Y-8.2299
X2.603Y-8.3299
X2.652Y-8.7795
X2.652Y-8.8795
X2.752Y-8.7795
X2.752Y-8.8795
X2.753Y-5.8557
X2.753Y-5.9557
X2.753Y-6.0557
X2.852Y-8.7795
X2.852Y-8.8795
X2.952Y-8.7795
X2.952Y-8.8795
X3.052Y-8.7795
X3.052Y-8.8795
X3.152Y-8.7795
X3.152Y-8.8795
X3.252Y-8.7795
X3.252Y-8.8795
X3.352Y-8.7795
X3.352Y-8.8795
X3.452Y-8.7795
X3.452Y-8.8795
X3.552Y-8.7795
X3.552Y-8.8795
X3.652Y-8.7795
X3.652Y-8.8795
X3.752Y-8.7795
X3.752Y-8.8795
X3.852Y-8.7795
X3.852Y-8.8795
X3.952Y-8.7795
X3.952Y-8.8795
X4.052Y-8.7795
X4.052Y-8.8795
X4.152Y-8.7795
X4.152Y-8.8795
X4.252Y-8.7795
X4.252Y-8.8795
X4.7654Y-8.7795
X4.7654Y-8.8795
X4.8654Y-8.7795
X4.8654Y-8.8795
X4.9654Y-8.7795
X4.9654Y-8.8795
X4.9785Y-3.2024
X5.0654Y-8.7795
X5.0654Y-8.8795
X5.0785Y-3.2024
X5.1654Y-8.7795
X5.1654Y-8.8795
X5.1785Y-3.2024
X5.2654Y-8.7795
X5.2654Y-8.8795
X5.3654Y-8.7795
X5.3654Y-8.8795
X5.453Y-3.2051
X5.4654Y-8.7795
X5.4654Y-8.8795
X5.553Y-3.2051
X5.5654Y-8.7795
X5.5654Y-8.8795
X5.653Y-3.2051
X5.6654Y-8.7795
X5.6654Y-8.8795
X5.7654Y-8.7795
X5.7654Y-8.8795
X5.8654Y-8.7795
X5.8654Y-8.8795
X5.9278Y-3.2024
X5.9654Y-8.7795
X5.9654Y-8.8795
X6.0278Y-3.2024
X6.0654Y-8.7795
X6.0654Y-8.8795
X6.1654Y-8.7795
X6.1654Y-8.8795
X6.2654Y-8.7795
X6.2654Y-8.8795
X6.3654Y-8.7795
X6.3654Y-8.8795
X6.403Y-7.3801
X6.403Y-7.4801
X6.4654Y-8.7795
X6.4654Y-8.8795
X6.503Y-7.3801
X6.503Y-7.4801
X6.5654Y-8.7795
X6.5654Y-8.8795
X6.603Y-7.3801
X6.603Y-7.4801
X6.6654Y-8.7795
X6.6654Y-8.8795
X6.703Y-7.3801
X6.703Y-7.4801
X6.7654Y-8.7795
X6.7654Y-8.8795
X6.803Y-7.3801
X6.803Y-7.4801
X6.8654Y-8.7795
X6.8654Y-8.8795
X6.903Y-7.3801
X6.903Y-7.4801
X6.9654Y-8.7795
X6.9654Y-8.8795
X7.003Y-7.3801
X7.003Y-7.4801
X7.0654Y-8.7795
X7.0654Y-8.8795
X7.103Y-7.3801
X7.103Y-7.4801
X7.1654Y-8.7795
X7.1654Y-8.8795
X7.376Y-3.2038
X7.376Y-3.3038
X7.476Y-3.2038
X7.476Y-3.3038
X7.576Y-3.2038
X7.576Y-3.3038
X7.676Y-3.2038
X7.676Y-3.3038
X7.7575Y-8.7795
X7.7575Y-8.8795
X7.776Y-3.2038
X7.776Y-3.3038
X7.8575Y-8.7795
X7.8575Y-8.8795
X7.876Y-3.2038
X7.876Y-3.3038
X7.9575Y-8.7795
X7.9575Y-8.8795
X7.976Y-3.2038
X7.976Y-3.3038
X8.0575Y-8.7795
X8.0575Y-8.8795
X8.076Y-3.2038
X8.076Y-3.3038
X8.1575Y-8.7795
X8.1575Y-8.8795
X8.1693Y-6.9778
X8.1693Y-7.0778
X8.176Y-3.2038
X8.176Y-3.3038
X8.2575Y-8.7795
X8.2575Y-8.8795
X8.2693Y-6.9778
X8.2693Y-7.0778
X8.276Y-3.2038
X8.276Y-3.3038
X8.3575Y-8.7795
X8.3575Y-8.8795
X8.3693Y-6.9778
X8.3693Y-7.0778
X8.376Y-3.2038
X8.376Y-3.3038
X8.4575Y-8.7795
X8.4575Y-8.8795
X8.4693Y-6.9778
X8.4693Y-7.0778
X8.476Y-3.2038
X8.476Y-3.3038
X8.5575Y-8.7795
X8.5575Y-8.8795
X8.576Y-3.2038
X8.576Y-3.3038
X8.6575Y-8.7795
X8.6575Y-8.8795
X8.676Y-3.2038
X8.676Y-3.3038
X8.7575Y-8.7795
X8.7575Y-8.8795
X8.776Y-3.2038
X8.776Y-3.3038
X8.8575Y-8.7795
X8.8575Y-8.8795
X8.876Y-3.2038
X8.876Y-3.3038
X8.9575Y-8.7795
X8.9575Y-8.8795
X8.976Y-3.2038
X8.976Y-3.3038
X9.0575Y-8.7795
X9.0575Y-8.8795
X9.076Y-3.2038
X9.076Y-3.3038
X9.1575Y-8.7795
X9.1575Y-8.8795
X9.176Y-3.2038
X9.176Y-3.3038
X9.1778Y-3.7805
X9.1778Y-3.8805
X9.1778Y-3.9805
X9.1778Y-4.0805
X9.1778Y-4.1805
X9.1778Y-4.2805
X9.1778Y-4.3805
X9.1778Y-4.4805
X9.1778Y-4.5805
X9.1778Y-4.9301
X9.1778Y-5.0301
X9.1778Y-5.1301
X9.1778Y-5.2301
X9.1778Y-5.3301
X9.1778Y-5.4301
X9.1778Y-5.5301
X9.1778Y-5.6301
X9.1778Y-5.7301
X9.2575Y-8.7795
X9.2575Y-8.8795
X9.276Y-3.2038
X9.276Y-3.3038
X9.2778Y-3.7805
X9.2778Y-3.8805
X9.2778Y-3.9805
X9.2778Y-4.0805
X9.2778Y-4.1805
X9.2778Y-4.2805
X9.2778Y-4.3805
X9.2778Y-4.4805
X9.2778Y-4.5805
X9.2778Y-4.9301
X9.2778Y-5.0301
X9.2778Y-5.1301
X9.2778Y-5.2301
X9.2778Y-5.3301
X9.2778Y-5.4301
X9.2778Y-5.5301
X9.2778Y-5.6301
X9.2778Y-5.7301
X9.3575Y-8.7795
X9.3575Y-8.8795
X9.4575Y-8.7795
X9.4575Y-8.8795
X9.5575Y-8.7795
X9.5575Y-8.8795
X9.6575Y-8.7795
X9.6575Y-8.8795
X9.7575Y-8.7795
X9.7575Y-8.8795
X9.8575Y-8.7795
X9.8575Y-8.8795
X9.878Y-6.9801
X9.878Y-7.0801
X9.878Y-7.1801
X9.878Y-7.2801
X9.878Y-7.3801
X9.878Y-7.4801
X9.878Y-7.5801
X9.878Y-7.6801
X9.878Y-7.7801
X9.903Y-3.7805
X9.903Y-3.8805
X9.903Y-3.9805
X9.903Y-4.0805
X9.903Y-4.1805
X9.903Y-4.2805
X9.903Y-4.3805
X9.903Y-4.4805
X9.903Y-4.5805
X9.903Y-4.9301
X9.903Y-5.0301
X9.903Y-5.1301
X9.903Y-5.2301
X9.903Y-5.3301
X9.903Y-5.4301
X9.903Y-5.5301
X9.903Y-5.6301
X9.903Y-5.7301
X9.9575Y-8.7795
X9.9575Y-8.8795
X9.978Y-6.9801
X9.978Y-7.0801
X9.978Y-7.1801
X9.978Y-7.2801
X9.978Y-7.3801
X9.978Y-7.4801
X9.978Y-7.5801
X9.978Y-7.6801
X9.978Y-7.7801
X10.003Y-3.7805
X10.003Y-3.8805
X10.003Y-3.9805
X10.003Y-4.0805
X10.003Y-4.1805
X10.003Y-4.2805
X10.003Y-4.3805
X10.003Y-4.4805
X10.003Y-4.5805
X10.003Y-4.9301
X10.003Y-5.0301
X10.003Y-5.1301
X10.003Y-5.2301
X10.003Y-5.3301
X10.003Y-5.4301
X10.003Y-5.5301
X10.003Y-5.6301
X10.003Y-5.7301
X10.0575Y-8.7795
X10.0575Y-8.8795
X10.1575Y-8.7795
X10.1575Y-8.8795
T8
X9.8022Y-3.0887
X10.0781Y-3.0887
T9
X1.5748Y-2.9528
X10.4331Y-2.9528
T0
M30
