%TF.GenerationSoftware,KiCad,Pcbnew,(6.0.11)*%
%TF.CreationDate,2024-01-05T16:14:16-06:00*%
%TF.ProjectId,processor.tms9995,70726f63-6573-4736-9f72-2e746d733939,v1.0*%
%TF.SameCoordinates,Original*%
%TF.FileFunction,Drillmap*%
%TF.FilePolarity,Positive*%
%FSLAX45Y45*%
G04 Gerber Fmt 4.5, Leading zero omitted, Abs format (unit mm)*
G04 Created by KiCad (PCBNEW (6.0.11)) date 2024-01-05 16:14:16*
%MOMM*%
%LPD*%
G01*
G04 APERTURE LIST*
%ADD10C,0.050000*%
%ADD11C,0.200000*%
%ADD12C,0.040000*%
%ADD13C,0.075000*%
%ADD14C,0.080000*%
%ADD15C,0.090000*%
%ADD16C,0.099000*%
%ADD17C,0.100000*%
%ADD18C,0.130000*%
%ADD19C,0.320000*%
G04 APERTURE END LIST*
D10*
X3500000Y-7500000D02*
X3500000Y-22500000D01*
X4000000Y-23000000D02*
X26500000Y-23000000D01*
X27000000Y-22500000D02*
X27000000Y-7500000D01*
X26500000Y-7000000D02*
X4000000Y-7000000D01*
X26500000Y-23000000D02*
G75*
G03*
X27000000Y-22500000I0J500000D01*
G01*
X3500000Y-22500000D02*
G75*
G03*
X4000000Y-23000000I500000J0D01*
G01*
X4000000Y-7000000D02*
G75*
G03*
X3500000Y-7500000I0J-500000D01*
G01*
X27000000Y-7500000D02*
G75*
G03*
X26500000Y-7000000I-500000J0D01*
G01*
D11*
D12*
X4493550Y-13035620D02*
X4533550Y-13075620D01*
X4533550Y-13035620D02*
X4493550Y-13075620D01*
X5181120Y-20187260D02*
X5221120Y-20227260D01*
X5221120Y-20187260D02*
X5181120Y-20227260D01*
X5505630Y-16615560D02*
X5545630Y-16655560D01*
X5545630Y-16615560D02*
X5505630Y-16655560D01*
X5581210Y-16461490D02*
X5621210Y-16501490D01*
X5621210Y-16461490D02*
X5581210Y-16501490D01*
X5755940Y-13810580D02*
X5795940Y-13850580D01*
X5795940Y-13810580D02*
X5755940Y-13850580D01*
X6019390Y-14944680D02*
X6059390Y-14984680D01*
X6059390Y-14944680D02*
X6019390Y-14984680D01*
X6089930Y-16276920D02*
X6129930Y-16316920D01*
X6129930Y-16276920D02*
X6089930Y-16316920D01*
X6551230Y-12925200D02*
X6591230Y-12965200D01*
X6591230Y-12925200D02*
X6551230Y-12965200D01*
X6977790Y-12981690D02*
X7017790Y-13021690D01*
X7017790Y-12981690D02*
X6977790Y-13021690D01*
X6997140Y-11310000D02*
X7037140Y-11350000D01*
X7037140Y-11310000D02*
X6997140Y-11350000D01*
X7377360Y-13760240D02*
X7417360Y-13800240D01*
X7417360Y-13760240D02*
X7377360Y-13800240D01*
X7832030Y-14696950D02*
X7872030Y-14736950D01*
X7872030Y-14696950D02*
X7832030Y-14736950D01*
X7921740Y-17827970D02*
X7961740Y-17867970D01*
X7961740Y-17827970D02*
X7921740Y-17867970D01*
X8045880Y-13833370D02*
X8085880Y-13873370D01*
X8085880Y-13833370D02*
X8045880Y-13873370D01*
X8113140Y-15682280D02*
X8153140Y-15722280D01*
X8153140Y-15682280D02*
X8113140Y-15722280D01*
X8189720Y-17047720D02*
X8229720Y-17087720D01*
X8229720Y-17047720D02*
X8189720Y-17087720D01*
X8283070Y-11345360D02*
X8323070Y-11385360D01*
X8323070Y-11345360D02*
X8283070Y-11385360D01*
X8555540Y-10962250D02*
X8595540Y-11002250D01*
X8595540Y-10962250D02*
X8555540Y-11002250D01*
X8937630Y-15374070D02*
X8977630Y-15414070D01*
X8977630Y-15374070D02*
X8937630Y-15414070D01*
X8942100Y-12904160D02*
X8982100Y-12944160D01*
X8982100Y-12904160D02*
X8942100Y-12944160D01*
X8999130Y-20657800D02*
X9039130Y-20697800D01*
X9039130Y-20657800D02*
X8999130Y-20697800D01*
X9034200Y-15200590D02*
X9074200Y-15240590D01*
X9074200Y-15200590D02*
X9034200Y-15240590D01*
X9268190Y-15496320D02*
X9308190Y-15536320D01*
X9308190Y-15496320D02*
X9268190Y-15536320D01*
X9271750Y-19565440D02*
X9311750Y-19605440D01*
X9311750Y-19565440D02*
X9271750Y-19605440D01*
X9430270Y-15559240D02*
X9470270Y-15599240D01*
X9470270Y-15559240D02*
X9430270Y-15599240D01*
X9509580Y-15669210D02*
X9549580Y-15709210D01*
X9549580Y-15669210D02*
X9509580Y-15709210D01*
X9564660Y-13802160D02*
X9604660Y-13842160D01*
X9604660Y-13802160D02*
X9564660Y-13842160D01*
X9610350Y-15741720D02*
X9650350Y-15781720D01*
X9650350Y-15741720D02*
X9610350Y-15781720D01*
X9956490Y-15618010D02*
X9996490Y-15658010D01*
X9996490Y-15618010D02*
X9956490Y-15658010D01*
X10126860Y-10733030D02*
X10166860Y-10773030D01*
X10166860Y-10733030D02*
X10126860Y-10773030D01*
X10359950Y-17801540D02*
X10399950Y-17841540D01*
X10399950Y-17801540D02*
X10359950Y-17841540D01*
X10510340Y-15061980D02*
X10550340Y-15101980D01*
X10550340Y-15061980D02*
X10510340Y-15101980D01*
X10669390Y-17894870D02*
X10709390Y-17934870D01*
X10709390Y-17894870D02*
X10669390Y-17934870D01*
X10824390Y-20121450D02*
X10864390Y-20161450D01*
X10864390Y-20121450D02*
X10824390Y-20161450D01*
X10943150Y-17239430D02*
X10983150Y-17279430D01*
X10983150Y-17239430D02*
X10943150Y-17279430D01*
X11245000Y-12579450D02*
X11285000Y-12619450D01*
X11285000Y-12579450D02*
X11245000Y-12619450D01*
X11306070Y-12128750D02*
X11346070Y-12168750D01*
X11346070Y-12128750D02*
X11306070Y-12168750D01*
X11370990Y-15200590D02*
X11410990Y-15240590D01*
X11410990Y-15200590D02*
X11370990Y-15240590D01*
X11484070Y-13708300D02*
X11524070Y-13748300D01*
X11524070Y-13708300D02*
X11484070Y-13748300D01*
X11872530Y-8884820D02*
X11912530Y-8924820D01*
X11912530Y-8884820D02*
X11872530Y-8924820D01*
X11898010Y-21746010D02*
X11938010Y-21786010D01*
X11938010Y-21746010D02*
X11898010Y-21786010D01*
X12124980Y-20780170D02*
X12164980Y-20820170D01*
X12164980Y-20780170D02*
X12124980Y-20820170D01*
X12200870Y-16432280D02*
X12240870Y-16472280D01*
X12240870Y-16432280D02*
X12200870Y-16472280D01*
X12230530Y-21527590D02*
X12270530Y-21567590D01*
X12270530Y-21527590D02*
X12230530Y-21567590D01*
X12249240Y-17360870D02*
X12289240Y-17400870D01*
X12289240Y-17360870D02*
X12249240Y-17400870D01*
X12262140Y-20893150D02*
X12302140Y-20933150D01*
X12302140Y-20893150D02*
X12262140Y-20933150D01*
X12327450Y-16892870D02*
X12367450Y-16932870D01*
X12367450Y-16892870D02*
X12327450Y-16932870D01*
X12388930Y-16795220D02*
X12428930Y-16835220D01*
X12428930Y-16795220D02*
X12388930Y-16835220D01*
X12403540Y-14067930D02*
X12443540Y-14107930D01*
X12443540Y-14067930D02*
X12403540Y-14107930D01*
X12579150Y-17655550D02*
X12619150Y-17695550D01*
X12619150Y-17655550D02*
X12579150Y-17695550D01*
X12893400Y-14824170D02*
X12933400Y-14864170D01*
X12933400Y-14824170D02*
X12893400Y-14864170D01*
X12967190Y-12520690D02*
X13007190Y-12560690D01*
X13007190Y-12520690D02*
X12967190Y-12560690D01*
X13078550Y-10982710D02*
X13118550Y-11022710D01*
X13118550Y-10982710D02*
X13078550Y-11022710D01*
X13097610Y-12603530D02*
X13137610Y-12643530D01*
X13137610Y-12603530D02*
X13097610Y-12643530D01*
X13209780Y-13802160D02*
X13249780Y-13842160D01*
X13249780Y-13802160D02*
X13209780Y-13842160D01*
X13281530Y-15405680D02*
X13321530Y-15445680D01*
X13321530Y-15405680D02*
X13281530Y-15445680D01*
X13389210Y-14036330D02*
X13429210Y-14076330D01*
X13429210Y-14036330D02*
X13389210Y-14076330D01*
X13401100Y-10648440D02*
X13441100Y-10688440D01*
X13441100Y-10648440D02*
X13401100Y-10688440D01*
X13402310Y-15044220D02*
X13442310Y-15084220D01*
X13442310Y-15044220D02*
X13402310Y-15084220D01*
X13463460Y-9113060D02*
X13503460Y-9153060D01*
X13503460Y-9113060D02*
X13463460Y-9153060D01*
X13472890Y-13061810D02*
X13512890Y-13101810D01*
X13512890Y-13061810D02*
X13472890Y-13101810D01*
X13498020Y-18678690D02*
X13538020Y-18718690D01*
X13538020Y-18678690D02*
X13498020Y-18718690D01*
X13503800Y-14661840D02*
X13543800Y-14701840D01*
X13543800Y-14661840D02*
X13503800Y-14701840D01*
X13665700Y-12884830D02*
X13705700Y-12924830D01*
X13705700Y-12884830D02*
X13665700Y-12924830D01*
X13678960Y-13296410D02*
X13718960Y-13336410D01*
X13718960Y-13296410D02*
X13678960Y-13336410D01*
X13705320Y-18382660D02*
X13745320Y-18422660D01*
X13745320Y-18382660D02*
X13705320Y-18422660D01*
X13715470Y-15625810D02*
X13755470Y-15665810D01*
X13755470Y-15625810D02*
X13715470Y-15665810D01*
X13725170Y-20959160D02*
X13765170Y-20999160D01*
X13765170Y-20959160D02*
X13725170Y-20999160D01*
X13862180Y-12256930D02*
X13902180Y-12296930D01*
X13902180Y-12256930D02*
X13862180Y-12296930D01*
X13868740Y-13153750D02*
X13908740Y-13193750D01*
X13908740Y-13153750D02*
X13868740Y-13193750D01*
X13869000Y-13266130D02*
X13909000Y-13306130D01*
X13909000Y-13266130D02*
X13869000Y-13306130D01*
X13884300Y-13912770D02*
X13924300Y-13952770D01*
X13924300Y-13912770D02*
X13884300Y-13952770D01*
X13959140Y-12205760D02*
X13999140Y-12245760D01*
X13999140Y-12205760D02*
X13959140Y-12245760D01*
X13965130Y-13088450D02*
X14005130Y-13128450D01*
X14005130Y-13088450D02*
X13965130Y-13128450D01*
X13989530Y-11776800D02*
X14029530Y-11816800D01*
X14029530Y-11776800D02*
X13989530Y-11816800D01*
X14007060Y-19661200D02*
X14047060Y-19701200D01*
X14047060Y-19661200D02*
X14007060Y-19701200D01*
X14024080Y-15217000D02*
X14064080Y-15257000D01*
X14064080Y-15217000D02*
X14024080Y-15257000D01*
X14052810Y-11093970D02*
X14092810Y-11133970D01*
X14092810Y-11093970D02*
X14052810Y-11133970D01*
X14132870Y-16232820D02*
X14172870Y-16272820D01*
X14172870Y-16232820D02*
X14132870Y-16272820D01*
X14143600Y-11702300D02*
X14183600Y-11742300D01*
X14183600Y-11702300D02*
X14143600Y-11742300D01*
X14209520Y-13946470D02*
X14249520Y-13986470D01*
X14249520Y-13946470D02*
X14209520Y-13986470D01*
X14354840Y-11629090D02*
X14394840Y-11669090D01*
X14394840Y-11629090D02*
X14354840Y-11669090D01*
X14426050Y-19474550D02*
X14466050Y-19514550D01*
X14466050Y-19474550D02*
X14426050Y-19514550D01*
X14525350Y-19548130D02*
X14565350Y-19588130D01*
X14565350Y-19548130D02*
X14525350Y-19588130D01*
X14531570Y-14938440D02*
X14571570Y-14978440D01*
X14571570Y-14938440D02*
X14531570Y-14978440D01*
X14558090Y-17867570D02*
X14598090Y-17907570D01*
X14598090Y-17867570D02*
X14558090Y-17907570D01*
X14573650Y-13042380D02*
X14613650Y-13082380D01*
X14613650Y-13042380D02*
X14573650Y-13082380D01*
X14598010Y-19630000D02*
X14638010Y-19670000D01*
X14638010Y-19630000D02*
X14598010Y-19670000D01*
X14600600Y-15381650D02*
X14640600Y-15421650D01*
X14640600Y-15381650D02*
X14600600Y-15421650D01*
X14665590Y-19938250D02*
X14705590Y-19978250D01*
X14705590Y-19938250D02*
X14665590Y-19978250D01*
X14683700Y-16064030D02*
X14723700Y-16104030D01*
X14723700Y-16064030D02*
X14683700Y-16104030D01*
X14734080Y-15559490D02*
X14774080Y-15599490D01*
X14774080Y-15559490D02*
X14734080Y-15599490D01*
X14750970Y-15659510D02*
X14790970Y-15699510D01*
X14790970Y-15659510D02*
X14750970Y-15699510D01*
X14912720Y-12878300D02*
X14952720Y-12918300D01*
X14952720Y-12878300D02*
X14912720Y-12918300D01*
X15145450Y-19624800D02*
X15185450Y-19664800D01*
X15185450Y-19624800D02*
X15145450Y-19664800D01*
X15215900Y-14082180D02*
X15255900Y-14122180D01*
X15255900Y-14082180D02*
X15215900Y-14122180D01*
X15294860Y-15632340D02*
X15334860Y-15672340D01*
X15334860Y-15632340D02*
X15294860Y-15672340D01*
X15343750Y-16448640D02*
X15383750Y-16488640D01*
X15383750Y-16448640D02*
X15343750Y-16488640D01*
X15393820Y-15893030D02*
X15433820Y-15933030D01*
X15433820Y-15893030D02*
X15393820Y-15933030D01*
X15515300Y-15816890D02*
X15555300Y-15856890D01*
X15555300Y-15816890D02*
X15515300Y-15856890D01*
X15536530Y-17139340D02*
X15576530Y-17179340D01*
X15576530Y-17139340D02*
X15536530Y-17179340D01*
X15629430Y-20121050D02*
X15669430Y-20161050D01*
X15669430Y-20121050D02*
X15629430Y-20161050D01*
X15639740Y-19975470D02*
X15679740Y-20015470D01*
X15679740Y-19975470D02*
X15639740Y-20015470D01*
X15642220Y-19823620D02*
X15682220Y-19863620D01*
X15682220Y-19823620D02*
X15642220Y-19863620D01*
X15645130Y-20728720D02*
X15685130Y-20768720D01*
X15685130Y-20728720D02*
X15645130Y-20768720D01*
X15728020Y-19916460D02*
X15768020Y-19956460D01*
X15768020Y-19916460D02*
X15728020Y-19956460D01*
X15763050Y-21616200D02*
X15803050Y-21656200D01*
X15803050Y-21616200D02*
X15763050Y-21656200D01*
X15840490Y-21771100D02*
X15880490Y-21811100D01*
X15880490Y-21771100D02*
X15840490Y-21811100D01*
X15848470Y-11944440D02*
X15888470Y-11984440D01*
X15888470Y-11944440D02*
X15848470Y-11984440D01*
X15970740Y-21484340D02*
X16010740Y-21524340D01*
X16010740Y-21484340D02*
X15970740Y-21524340D01*
X16190010Y-19742330D02*
X16230010Y-19782330D01*
X16230010Y-19742330D02*
X16190010Y-19782330D01*
X16233740Y-20121050D02*
X16273740Y-20161050D01*
X16273740Y-20121050D02*
X16233740Y-20161050D01*
X16416510Y-16470590D02*
X16456510Y-16510590D01*
X16456510Y-16470590D02*
X16416510Y-16510590D01*
X16485310Y-20913150D02*
X16525310Y-20953150D01*
X16525310Y-20913150D02*
X16485310Y-20953150D01*
X16505100Y-16377630D02*
X16545100Y-16417630D01*
X16545100Y-16377630D02*
X16505100Y-16417630D01*
X16585400Y-14723800D02*
X16625400Y-14763800D01*
X16625400Y-14723800D02*
X16585400Y-14763800D01*
X16659090Y-13151020D02*
X16699090Y-13191020D01*
X16699090Y-13151020D02*
X16659090Y-13191020D01*
X16683850Y-19880290D02*
X16723850Y-19920290D01*
X16723850Y-19880290D02*
X16683850Y-19920290D01*
X16795350Y-13314970D02*
X16835350Y-13354970D01*
X16835350Y-13314970D02*
X16795350Y-13354970D01*
X16812320Y-12769700D02*
X16852320Y-12809700D01*
X16852320Y-12769700D02*
X16812320Y-12809700D01*
X16920850Y-18718030D02*
X16960850Y-18758030D01*
X16960850Y-18718030D02*
X16920850Y-18758030D01*
X17065740Y-17637190D02*
X17105740Y-17677190D01*
X17105740Y-17637190D02*
X17065740Y-17677190D01*
X17147470Y-19550540D02*
X17187470Y-19590540D01*
X17187470Y-19550540D02*
X17147470Y-19590540D01*
X17221880Y-19440510D02*
X17261880Y-19480510D01*
X17261880Y-19440510D02*
X17221880Y-19480510D01*
X17334190Y-19520220D02*
X17374190Y-19560220D01*
X17374190Y-19520220D02*
X17334190Y-19560220D01*
X17536960Y-14329360D02*
X17576960Y-14369360D01*
X17576960Y-14329360D02*
X17536960Y-14369360D01*
X17594530Y-17059770D02*
X17634530Y-17099770D01*
X17634530Y-17059770D02*
X17594530Y-17099770D01*
X17628320Y-16923440D02*
X17668320Y-16963440D01*
X17668320Y-16923440D02*
X17628320Y-16963440D01*
X17666670Y-10701380D02*
X17706670Y-10741380D01*
X17706670Y-10701380D02*
X17666670Y-10741380D01*
X17717970Y-21409010D02*
X17757970Y-21449010D01*
X17757970Y-21409010D02*
X17717970Y-21449010D01*
X17723500Y-19134600D02*
X17763500Y-19174600D01*
X17763500Y-19134600D02*
X17723500Y-19174600D01*
X17923860Y-16850930D02*
X17963860Y-16890930D01*
X17963860Y-16850930D02*
X17923860Y-16890930D01*
X17987880Y-14277780D02*
X18027880Y-14317780D01*
X18027880Y-14277780D02*
X17987880Y-14317780D01*
X17991270Y-21362520D02*
X18031270Y-21402520D01*
X18031270Y-21362520D02*
X17991270Y-21402520D01*
X18010440Y-10313420D02*
X18050440Y-10353420D01*
X18050440Y-10313420D02*
X18010440Y-10353420D01*
X18018660Y-16792100D02*
X18058660Y-16832100D01*
X18058660Y-16792100D02*
X18018660Y-16832100D01*
X18085330Y-14764120D02*
X18125330Y-14804120D01*
X18125330Y-14764120D02*
X18085330Y-14804120D01*
X18126530Y-17708740D02*
X18166530Y-17748740D01*
X18166530Y-17708740D02*
X18126530Y-17748740D01*
X18135250Y-10298880D02*
X18175250Y-10338880D01*
X18175250Y-10298880D02*
X18135250Y-10338880D01*
X18226560Y-17019190D02*
X18266560Y-17059190D01*
X18266560Y-17019190D02*
X18226560Y-17059190D01*
X18333140Y-12537120D02*
X18373140Y-12577120D01*
X18373140Y-12537120D02*
X18333140Y-12577120D01*
X18470560Y-22586940D02*
X18510560Y-22626940D01*
X18510560Y-22586940D02*
X18470560Y-22626940D01*
X18639600Y-13454960D02*
X18679600Y-13494960D01*
X18679600Y-13454960D02*
X18639600Y-13494960D01*
X18678420Y-21272910D02*
X18718420Y-21312910D01*
X18718420Y-21272910D02*
X18678420Y-21312910D01*
X18689620Y-16060280D02*
X18729620Y-16100280D01*
X18729620Y-16060280D02*
X18689620Y-16100280D01*
X18749070Y-13552990D02*
X18789070Y-13592990D01*
X18789070Y-13552990D02*
X18749070Y-13592990D01*
X18782960Y-16156950D02*
X18822960Y-16196950D01*
X18822960Y-16156950D02*
X18782960Y-16196950D01*
X18792360Y-18536750D02*
X18832360Y-18576750D01*
X18832360Y-18536750D02*
X18792360Y-18576750D01*
X18961910Y-18556890D02*
X19001910Y-18596890D01*
X19001910Y-18556890D02*
X18961910Y-18596890D01*
X19080600Y-20724250D02*
X19120600Y-20764250D01*
X19120600Y-20724250D02*
X19080600Y-20764250D01*
X19150130Y-19276320D02*
X19190130Y-19316320D01*
X19190130Y-19276320D02*
X19150130Y-19316320D01*
X19375680Y-20819460D02*
X19415680Y-20859460D01*
X19415680Y-20819460D02*
X19375680Y-20859460D01*
X19458430Y-14085220D02*
X19498430Y-14125220D01*
X19498430Y-14085220D02*
X19458430Y-14125220D01*
X19469280Y-20879220D02*
X19509280Y-20919220D01*
X19509280Y-20879220D02*
X19469280Y-20919220D01*
X19485530Y-20980510D02*
X19525530Y-21020510D01*
X19525530Y-20980510D02*
X19485530Y-21020510D01*
X19512330Y-17357260D02*
X19552330Y-17397260D01*
X19552330Y-17357260D02*
X19512330Y-17397260D01*
X19690660Y-18161500D02*
X19730660Y-18201500D01*
X19730660Y-18161500D02*
X19690660Y-18201500D01*
X19734980Y-20586100D02*
X19774980Y-20626100D01*
X19774980Y-20586100D02*
X19734980Y-20626100D01*
X19777810Y-21865700D02*
X19817810Y-21905700D01*
X19817810Y-21865700D02*
X19777810Y-21905700D01*
X19863060Y-13878340D02*
X19903060Y-13918340D01*
X19903060Y-13878340D02*
X19863060Y-13918340D01*
X19879990Y-15841150D02*
X19919990Y-15881150D01*
X19919990Y-15841150D02*
X19879990Y-15881150D01*
X19879990Y-17266120D02*
X19919990Y-17306120D01*
X19919990Y-17266120D02*
X19879990Y-17306120D01*
X19997230Y-18792750D02*
X20037230Y-18832750D01*
X20037230Y-18792750D02*
X19997230Y-18832750D01*
X20056980Y-18967140D02*
X20096980Y-19007140D01*
X20096980Y-18967140D02*
X20056980Y-19007140D01*
X20164760Y-13480480D02*
X20204760Y-13520480D01*
X20204760Y-13480480D02*
X20164760Y-13520480D01*
X20255830Y-16412990D02*
X20295830Y-16452990D01*
X20295830Y-16412990D02*
X20255830Y-16452990D01*
X20331100Y-16973750D02*
X20371100Y-17013750D01*
X20371100Y-16973750D02*
X20331100Y-17013750D01*
X20410580Y-14158760D02*
X20450580Y-14198760D01*
X20450580Y-14158760D02*
X20410580Y-14198760D01*
X20830840Y-18667760D02*
X20870840Y-18707760D01*
X20870840Y-18667760D02*
X20830840Y-18707760D01*
X20842820Y-13560320D02*
X20882820Y-13600320D01*
X20882820Y-13560320D02*
X20842820Y-13600320D01*
X20939440Y-15282490D02*
X20979440Y-15322490D01*
X20979440Y-15282490D02*
X20939440Y-15322490D01*
X21019960Y-16883160D02*
X21059960Y-16923160D01*
X21059960Y-16883160D02*
X21019960Y-16923160D01*
X21122400Y-13862640D02*
X21162400Y-13902640D01*
X21162400Y-13862640D02*
X21122400Y-13902640D01*
X21165160Y-14629450D02*
X21205160Y-14669450D01*
X21205160Y-14629450D02*
X21165160Y-14669450D01*
X21238960Y-14402920D02*
X21278960Y-14442920D01*
X21278960Y-14402920D02*
X21238960Y-14442920D01*
X21342660Y-17737300D02*
X21382660Y-17777300D01*
X21382660Y-17737300D02*
X21342660Y-17777300D01*
X21385000Y-17863290D02*
X21425000Y-17903290D01*
X21425000Y-17863290D02*
X21385000Y-17903290D01*
X21406160Y-18083320D02*
X21446160Y-18123320D01*
X21446160Y-18083320D02*
X21406160Y-18123320D01*
X21415540Y-17664890D02*
X21455540Y-17704890D01*
X21455540Y-17664890D02*
X21415540Y-17704890D01*
X21502130Y-17174990D02*
X21542130Y-17214990D01*
X21542130Y-17174990D02*
X21502130Y-17214990D01*
X21630950Y-17457680D02*
X21670950Y-17497680D01*
X21670950Y-17457680D02*
X21630950Y-17497680D01*
X21742170Y-13487810D02*
X21782170Y-13527810D01*
X21782170Y-13487810D02*
X21742170Y-13527810D01*
X21971310Y-14677180D02*
X22011310Y-14717180D01*
X22011310Y-14677180D02*
X21971310Y-14717180D01*
X22148590Y-16726760D02*
X22188590Y-16766760D01*
X22188590Y-16726760D02*
X22148590Y-16766760D01*
X22323380Y-18169440D02*
X22363380Y-18209440D01*
X22363380Y-18169440D02*
X22323380Y-18209440D01*
X22330310Y-19012190D02*
X22370310Y-19052190D01*
X22370310Y-19012190D02*
X22330310Y-19052190D01*
X23070740Y-13267140D02*
X23110740Y-13307140D01*
X23110740Y-13267140D02*
X23070740Y-13307140D01*
X23251550Y-13918550D02*
X23291550Y-13958550D01*
X23291550Y-13918550D02*
X23251550Y-13958550D01*
X23412030Y-18369790D02*
X23452030Y-18409790D01*
X23452030Y-18369790D02*
X23412030Y-18409790D01*
X23527970Y-13080790D02*
X23567970Y-13120790D01*
X23567970Y-13080790D02*
X23527970Y-13120790D01*
X23589420Y-20386990D02*
X23629420Y-20426990D01*
X23629420Y-20386990D02*
X23589420Y-20426990D01*
X23683670Y-12864080D02*
X23723670Y-12904080D01*
X23723670Y-12864080D02*
X23683670Y-12904080D01*
X23728160Y-19322110D02*
X23768160Y-19362110D01*
X23768160Y-19322110D02*
X23728160Y-19362110D01*
X23855450Y-15165960D02*
X23895450Y-15205960D01*
X23895450Y-15165960D02*
X23855450Y-15205960D01*
X24001440Y-14578970D02*
X24041440Y-14618970D01*
X24041440Y-14578970D02*
X24001440Y-14618970D01*
X24014490Y-21584020D02*
X24054490Y-21624020D01*
X24054490Y-21584020D02*
X24014490Y-21624020D01*
X24257980Y-20557790D02*
X24297980Y-20597790D01*
X24297980Y-20557790D02*
X24257980Y-20597790D01*
X24489770Y-15657220D02*
X24529770Y-15697220D01*
X24529770Y-15657220D02*
X24489770Y-15697220D01*
X24514990Y-14646980D02*
X24554990Y-14686980D01*
X24554990Y-14646980D02*
X24514990Y-14686980D01*
X24890730Y-14839290D02*
X24930730Y-14879290D01*
X24930730Y-14839290D02*
X24890730Y-14879290D01*
X25426950Y-15520890D02*
X25466950Y-15560890D01*
X25466950Y-15520890D02*
X25426950Y-15560890D01*
D13*
X5252000Y-19952000D02*
G75*
G03*
X5252000Y-19952000I-37500J0D01*
G01*
X5379000Y-19825000D02*
G75*
G03*
X5379000Y-19825000I-37500J0D01*
G01*
X5379000Y-20079000D02*
G75*
G03*
X5379000Y-20079000I-37500J0D01*
G01*
D14*
X4300000Y-18646000D02*
X4300000Y-18726000D01*
X4260000Y-18686000D02*
X4340000Y-18686000D01*
X4300000Y-19146000D02*
X4300000Y-19226000D01*
X4260000Y-19186000D02*
X4340000Y-19186000D01*
X4325500Y-12042000D02*
X4325500Y-12122000D01*
X4285500Y-12082000D02*
X4365500Y-12082000D01*
X4325500Y-12542000D02*
X4325500Y-12622000D01*
X4285500Y-12582000D02*
X4365500Y-12582000D01*
X4325500Y-13697000D02*
X4325500Y-13777000D01*
X4285500Y-13737000D02*
X4365500Y-13737000D01*
X4325500Y-14197000D02*
X4325500Y-14277000D01*
X4285500Y-14237000D02*
X4365500Y-14237000D01*
X4325500Y-15348000D02*
X4325500Y-15428000D01*
X4285500Y-15388000D02*
X4365500Y-15388000D01*
X4325500Y-15848000D02*
X4325500Y-15928000D01*
X4285500Y-15888000D02*
X4365500Y-15888000D01*
X4325500Y-16995000D02*
X4325500Y-17075000D01*
X4285500Y-17035000D02*
X4365500Y-17035000D01*
X4325500Y-17495000D02*
X4325500Y-17575000D01*
X4285500Y-17535000D02*
X4365500Y-17535000D01*
X4389000Y-10391000D02*
X4389000Y-10471000D01*
X4349000Y-10431000D02*
X4429000Y-10431000D01*
X4389000Y-10891000D02*
X4389000Y-10971000D01*
X4349000Y-10931000D02*
X4429000Y-10931000D01*
X4770000Y-8672500D02*
X4770000Y-8752500D01*
X4730000Y-8712500D02*
X4810000Y-8712500D01*
X4770000Y-9434500D02*
X4770000Y-9514500D01*
X4730000Y-9474500D02*
X4810000Y-9474500D01*
X4833000Y-10259000D02*
X4833000Y-10339000D01*
X4793000Y-10299000D02*
X4873000Y-10299000D01*
X4833000Y-11021000D02*
X4833000Y-11101000D01*
X4793000Y-11061000D02*
X4873000Y-11061000D01*
X4833000Y-11910800D02*
X4833000Y-11990800D01*
X4793000Y-11950800D02*
X4873000Y-11950800D01*
X4833000Y-12672800D02*
X4833000Y-12752800D01*
X4793000Y-12712800D02*
X4873000Y-12712800D01*
X4833000Y-13562600D02*
X4833000Y-13642600D01*
X4793000Y-13602600D02*
X4873000Y-13602600D01*
X4833000Y-14324600D02*
X4833000Y-14404600D01*
X4793000Y-14364600D02*
X4873000Y-14364600D01*
X4833000Y-15214400D02*
X4833000Y-15294400D01*
X4793000Y-15254400D02*
X4873000Y-15254400D01*
X4833000Y-15976400D02*
X4833000Y-16056400D01*
X4793000Y-16016400D02*
X4873000Y-16016400D01*
X4833000Y-16866200D02*
X4833000Y-16946200D01*
X4793000Y-16906200D02*
X4873000Y-16906200D01*
X4833000Y-17628200D02*
X4833000Y-17708200D01*
X4793000Y-17668200D02*
X4873000Y-17668200D01*
X4833000Y-18518000D02*
X4833000Y-18598000D01*
X4793000Y-18558000D02*
X4873000Y-18558000D01*
X4833000Y-19280000D02*
X4833000Y-19360000D01*
X4793000Y-19320000D02*
X4873000Y-19320000D01*
X4960500Y-21499500D02*
X4960500Y-21579500D01*
X4920500Y-21539500D02*
X5000500Y-21539500D01*
X5087000Y-10259000D02*
X5087000Y-10339000D01*
X5047000Y-10299000D02*
X5127000Y-10299000D01*
X5087000Y-11021000D02*
X5087000Y-11101000D01*
X5047000Y-11061000D02*
X5127000Y-11061000D01*
X5087000Y-11910800D02*
X5087000Y-11990800D01*
X5047000Y-11950800D02*
X5127000Y-11950800D01*
X5087000Y-12672800D02*
X5087000Y-12752800D01*
X5047000Y-12712800D02*
X5127000Y-12712800D01*
X5087000Y-13562600D02*
X5087000Y-13642600D01*
X5047000Y-13602600D02*
X5127000Y-13602600D01*
X5087000Y-14324600D02*
X5087000Y-14404600D01*
X5047000Y-14364600D02*
X5127000Y-14364600D01*
X5087000Y-15214400D02*
X5087000Y-15294400D01*
X5047000Y-15254400D02*
X5127000Y-15254400D01*
X5087000Y-15976400D02*
X5087000Y-16056400D01*
X5047000Y-16016400D02*
X5127000Y-16016400D01*
X5087000Y-16866200D02*
X5087000Y-16946200D01*
X5047000Y-16906200D02*
X5127000Y-16906200D01*
X5087000Y-17628200D02*
X5087000Y-17708200D01*
X5047000Y-17668200D02*
X5127000Y-17668200D01*
X5087000Y-18518000D02*
X5087000Y-18598000D01*
X5047000Y-18558000D02*
X5127000Y-18558000D01*
X5087000Y-19280000D02*
X5087000Y-19360000D01*
X5047000Y-19320000D02*
X5127000Y-19320000D01*
X5341000Y-10259000D02*
X5341000Y-10339000D01*
X5301000Y-10299000D02*
X5381000Y-10299000D01*
X5341000Y-11021000D02*
X5341000Y-11101000D01*
X5301000Y-11061000D02*
X5381000Y-11061000D01*
X5341000Y-11910800D02*
X5341000Y-11990800D01*
X5301000Y-11950800D02*
X5381000Y-11950800D01*
X5341000Y-12672800D02*
X5341000Y-12752800D01*
X5301000Y-12712800D02*
X5381000Y-12712800D01*
X5341000Y-13562600D02*
X5341000Y-13642600D01*
X5301000Y-13602600D02*
X5381000Y-13602600D01*
X5341000Y-14324600D02*
X5341000Y-14404600D01*
X5301000Y-14364600D02*
X5381000Y-14364600D01*
X5341000Y-15214400D02*
X5341000Y-15294400D01*
X5301000Y-15254400D02*
X5381000Y-15254400D01*
X5341000Y-15976400D02*
X5341000Y-16056400D01*
X5301000Y-16016400D02*
X5381000Y-16016400D01*
X5341000Y-16866200D02*
X5341000Y-16946200D01*
X5301000Y-16906200D02*
X5381000Y-16906200D01*
X5341000Y-17628200D02*
X5341000Y-17708200D01*
X5301000Y-17668200D02*
X5381000Y-17668200D01*
X5341000Y-18518000D02*
X5341000Y-18598000D01*
X5301000Y-18558000D02*
X5381000Y-18558000D01*
X5341000Y-19280000D02*
X5341000Y-19360000D01*
X5301000Y-19320000D02*
X5381000Y-19320000D01*
X5595000Y-10259000D02*
X5595000Y-10339000D01*
X5555000Y-10299000D02*
X5635000Y-10299000D01*
X5595000Y-11021000D02*
X5595000Y-11101000D01*
X5555000Y-11061000D02*
X5635000Y-11061000D01*
X5595000Y-11910800D02*
X5595000Y-11990800D01*
X5555000Y-11950800D02*
X5635000Y-11950800D01*
X5595000Y-12672800D02*
X5595000Y-12752800D01*
X5555000Y-12712800D02*
X5635000Y-12712800D01*
X5595000Y-13562600D02*
X5595000Y-13642600D01*
X5555000Y-13602600D02*
X5635000Y-13602600D01*
X5595000Y-14324600D02*
X5595000Y-14404600D01*
X5555000Y-14364600D02*
X5635000Y-14364600D01*
X5595000Y-15214400D02*
X5595000Y-15294400D01*
X5555000Y-15254400D02*
X5635000Y-15254400D01*
X5595000Y-15976400D02*
X5595000Y-16056400D01*
X5555000Y-16016400D02*
X5635000Y-16016400D01*
X5595000Y-16866200D02*
X5595000Y-16946200D01*
X5555000Y-16906200D02*
X5635000Y-16906200D01*
X5595000Y-17628200D02*
X5595000Y-17708200D01*
X5555000Y-17668200D02*
X5635000Y-17668200D01*
X5595000Y-18518000D02*
X5595000Y-18598000D01*
X5555000Y-18558000D02*
X5635000Y-18558000D01*
X5595000Y-19280000D02*
X5595000Y-19360000D01*
X5555000Y-19320000D02*
X5635000Y-19320000D01*
X5722500Y-8672500D02*
X5722500Y-8752500D01*
X5682500Y-8712500D02*
X5762500Y-8712500D01*
X5722500Y-9434500D02*
X5722500Y-9514500D01*
X5682500Y-9474500D02*
X5762500Y-9474500D01*
X5722500Y-21499500D02*
X5722500Y-21579500D01*
X5682500Y-21539500D02*
X5762500Y-21539500D01*
X5849000Y-10259000D02*
X5849000Y-10339000D01*
X5809000Y-10299000D02*
X5889000Y-10299000D01*
X5849000Y-11021000D02*
X5849000Y-11101000D01*
X5809000Y-11061000D02*
X5889000Y-11061000D01*
X5849000Y-11910800D02*
X5849000Y-11990800D01*
X5809000Y-11950800D02*
X5889000Y-11950800D01*
X5849000Y-12672800D02*
X5849000Y-12752800D01*
X5809000Y-12712800D02*
X5889000Y-12712800D01*
X5849000Y-13562600D02*
X5849000Y-13642600D01*
X5809000Y-13602600D02*
X5889000Y-13602600D01*
X5849000Y-14324600D02*
X5849000Y-14404600D01*
X5809000Y-14364600D02*
X5889000Y-14364600D01*
X5849000Y-15214400D02*
X5849000Y-15294400D01*
X5809000Y-15254400D02*
X5889000Y-15254400D01*
X5849000Y-15976400D02*
X5849000Y-16056400D01*
X5809000Y-16016400D02*
X5889000Y-16016400D01*
X5849000Y-16866200D02*
X5849000Y-16946200D01*
X5809000Y-16906200D02*
X5889000Y-16906200D01*
X5849000Y-17628200D02*
X5849000Y-17708200D01*
X5809000Y-17668200D02*
X5889000Y-17668200D01*
X5849000Y-18518000D02*
X5849000Y-18598000D01*
X5809000Y-18558000D02*
X5889000Y-18558000D01*
X5849000Y-19280000D02*
X5849000Y-19360000D01*
X5809000Y-19320000D02*
X5889000Y-19320000D01*
X6103000Y-10259000D02*
X6103000Y-10339000D01*
X6063000Y-10299000D02*
X6143000Y-10299000D01*
X6103000Y-11021000D02*
X6103000Y-11101000D01*
X6063000Y-11061000D02*
X6143000Y-11061000D01*
X6103000Y-11910800D02*
X6103000Y-11990800D01*
X6063000Y-11950800D02*
X6143000Y-11950800D01*
X6103000Y-12672800D02*
X6103000Y-12752800D01*
X6063000Y-12712800D02*
X6143000Y-12712800D01*
X6103000Y-13562600D02*
X6103000Y-13642600D01*
X6063000Y-13602600D02*
X6143000Y-13602600D01*
X6103000Y-14324600D02*
X6103000Y-14404600D01*
X6063000Y-14364600D02*
X6143000Y-14364600D01*
X6103000Y-15214400D02*
X6103000Y-15294400D01*
X6063000Y-15254400D02*
X6143000Y-15254400D01*
X6103000Y-15976400D02*
X6103000Y-16056400D01*
X6063000Y-16016400D02*
X6143000Y-16016400D01*
X6103000Y-16866200D02*
X6103000Y-16946200D01*
X6063000Y-16906200D02*
X6143000Y-16906200D01*
X6103000Y-17628200D02*
X6103000Y-17708200D01*
X6063000Y-17668200D02*
X6143000Y-17668200D01*
X6103000Y-18518000D02*
X6103000Y-18598000D01*
X6063000Y-18558000D02*
X6143000Y-18558000D01*
X6103000Y-19280000D02*
X6103000Y-19360000D01*
X6063000Y-19320000D02*
X6143000Y-19320000D01*
X6230500Y-21499500D02*
X6230500Y-21579500D01*
X6190500Y-21539500D02*
X6270500Y-21539500D01*
X6357000Y-10259000D02*
X6357000Y-10339000D01*
X6317000Y-10299000D02*
X6397000Y-10299000D01*
X6357000Y-11021000D02*
X6357000Y-11101000D01*
X6317000Y-11061000D02*
X6397000Y-11061000D01*
X6357000Y-11910800D02*
X6357000Y-11990800D01*
X6317000Y-11950800D02*
X6397000Y-11950800D01*
X6357000Y-12672800D02*
X6357000Y-12752800D01*
X6317000Y-12712800D02*
X6397000Y-12712800D01*
X6357000Y-13562600D02*
X6357000Y-13642600D01*
X6317000Y-13602600D02*
X6397000Y-13602600D01*
X6357000Y-14324600D02*
X6357000Y-14404600D01*
X6317000Y-14364600D02*
X6397000Y-14364600D01*
X6357000Y-15214400D02*
X6357000Y-15294400D01*
X6317000Y-15254400D02*
X6397000Y-15254400D01*
X6357000Y-15976400D02*
X6357000Y-16056400D01*
X6317000Y-16016400D02*
X6397000Y-16016400D01*
X6357000Y-16866200D02*
X6357000Y-16946200D01*
X6317000Y-16906200D02*
X6397000Y-16906200D01*
X6357000Y-17628200D02*
X6357000Y-17708200D01*
X6317000Y-17668200D02*
X6397000Y-17668200D01*
X6357000Y-18518000D02*
X6357000Y-18598000D01*
X6317000Y-18558000D02*
X6397000Y-18558000D01*
X6357000Y-19280000D02*
X6357000Y-19360000D01*
X6317000Y-19320000D02*
X6397000Y-19320000D01*
X6611000Y-10259000D02*
X6611000Y-10339000D01*
X6571000Y-10299000D02*
X6651000Y-10299000D01*
X6611000Y-11021000D02*
X6611000Y-11101000D01*
X6571000Y-11061000D02*
X6651000Y-11061000D01*
X6611000Y-11910800D02*
X6611000Y-11990800D01*
X6571000Y-11950800D02*
X6651000Y-11950800D01*
X6611000Y-12672800D02*
X6611000Y-12752800D01*
X6571000Y-12712800D02*
X6651000Y-12712800D01*
X6611000Y-13562600D02*
X6611000Y-13642600D01*
X6571000Y-13602600D02*
X6651000Y-13602600D01*
X6611000Y-14324600D02*
X6611000Y-14404600D01*
X6571000Y-14364600D02*
X6651000Y-14364600D01*
X6611000Y-18518000D02*
X6611000Y-18598000D01*
X6571000Y-18558000D02*
X6651000Y-18558000D01*
X6611000Y-19280000D02*
X6611000Y-19360000D01*
X6571000Y-19320000D02*
X6651000Y-19320000D01*
X6675000Y-8672500D02*
X6675000Y-8752500D01*
X6635000Y-8712500D02*
X6715000Y-8712500D01*
X6675000Y-9434500D02*
X6675000Y-9514500D01*
X6635000Y-9474500D02*
X6715000Y-9474500D01*
X6865000Y-10259000D02*
X6865000Y-10339000D01*
X6825000Y-10299000D02*
X6905000Y-10299000D01*
X6865000Y-11021000D02*
X6865000Y-11101000D01*
X6825000Y-11061000D02*
X6905000Y-11061000D01*
X6865000Y-11910800D02*
X6865000Y-11990800D01*
X6825000Y-11950800D02*
X6905000Y-11950800D01*
X6865000Y-12672800D02*
X6865000Y-12752800D01*
X6825000Y-12712800D02*
X6905000Y-12712800D01*
X6865000Y-13562600D02*
X6865000Y-13642600D01*
X6825000Y-13602600D02*
X6905000Y-13602600D01*
X6865000Y-14324600D02*
X6865000Y-14404600D01*
X6825000Y-14364600D02*
X6905000Y-14364600D01*
X6992500Y-21499500D02*
X6992500Y-21579500D01*
X6952500Y-21539500D02*
X7032500Y-21539500D01*
X7119000Y-11910800D02*
X7119000Y-11990800D01*
X7079000Y-11950800D02*
X7159000Y-11950800D01*
X7119000Y-12672800D02*
X7119000Y-12752800D01*
X7079000Y-12712800D02*
X7159000Y-12712800D01*
X7119000Y-13562600D02*
X7119000Y-13642600D01*
X7079000Y-13602600D02*
X7159000Y-13602600D01*
X7119000Y-14324600D02*
X7119000Y-14404600D01*
X7079000Y-14364600D02*
X7159000Y-14364600D01*
X7316490Y-15086000D02*
X7316490Y-15166000D01*
X7276490Y-15126000D02*
X7356490Y-15126000D01*
X7564000Y-8672500D02*
X7564000Y-8752500D01*
X7524000Y-8712500D02*
X7604000Y-8712500D01*
X7564000Y-9434500D02*
X7564000Y-9514500D01*
X7524000Y-9474500D02*
X7604000Y-9474500D01*
X7566490Y-15086000D02*
X7566490Y-15166000D01*
X7526490Y-15126000D02*
X7606490Y-15126000D01*
X7625000Y-16335000D02*
X7625000Y-16415000D01*
X7585000Y-16375000D02*
X7665000Y-16375000D01*
X7625000Y-16835000D02*
X7625000Y-16915000D01*
X7585000Y-16875000D02*
X7665000Y-16875000D01*
X7627500Y-18644000D02*
X7627500Y-18724000D01*
X7587500Y-18684000D02*
X7667500Y-18684000D01*
X7627500Y-19144000D02*
X7627500Y-19224000D01*
X7587500Y-19184000D02*
X7667500Y-19184000D01*
X7818000Y-12423000D02*
X7818000Y-12503000D01*
X7778000Y-12463000D02*
X7858000Y-12463000D01*
X7818000Y-12923000D02*
X7818000Y-13003000D01*
X7778000Y-12963000D02*
X7858000Y-12963000D01*
X7881500Y-19848500D02*
X7881500Y-19928500D01*
X7841500Y-19888500D02*
X7921500Y-19888500D01*
X8071500Y-20534000D02*
X8071500Y-20614000D01*
X8031500Y-20574000D02*
X8111500Y-20574000D01*
X8071500Y-21034000D02*
X8071500Y-21114000D01*
X8031500Y-21074000D02*
X8111500Y-21074000D01*
X8135500Y-19848500D02*
X8135500Y-19928500D01*
X8095500Y-19888500D02*
X8175500Y-19888500D01*
X8157500Y-18529500D02*
X8157500Y-18609500D01*
X8117500Y-18569500D02*
X8197500Y-18569500D01*
X8157500Y-19291500D02*
X8157500Y-19371500D01*
X8117500Y-19331500D02*
X8197500Y-19331500D01*
X8287000Y-16610000D02*
X8287000Y-16690000D01*
X8247000Y-16650000D02*
X8327000Y-16650000D01*
X8387500Y-11965000D02*
X8387500Y-12045000D01*
X8347500Y-12005000D02*
X8427500Y-12005000D01*
X8387500Y-13489000D02*
X8387500Y-13569000D01*
X8347500Y-13529000D02*
X8427500Y-13529000D01*
X8387500Y-14515000D02*
X8387500Y-14595000D01*
X8347500Y-14555000D02*
X8427500Y-14555000D01*
X8387500Y-16039000D02*
X8387500Y-16119000D01*
X8347500Y-16079000D02*
X8427500Y-16079000D01*
X8389500Y-19848500D02*
X8389500Y-19928500D01*
X8349500Y-19888500D02*
X8429500Y-19888500D01*
X8411500Y-18529500D02*
X8411500Y-18609500D01*
X8371500Y-18569500D02*
X8451500Y-18569500D01*
X8411500Y-19291500D02*
X8411500Y-19371500D01*
X8371500Y-19331500D02*
X8451500Y-19331500D01*
X8516500Y-8672500D02*
X8516500Y-8752500D01*
X8476500Y-8712500D02*
X8556500Y-8712500D01*
X8516500Y-9434500D02*
X8516500Y-9514500D01*
X8476500Y-9474500D02*
X8556500Y-9474500D01*
X8580000Y-10704500D02*
X8580000Y-10784500D01*
X8540000Y-10744500D02*
X8620000Y-10744500D01*
X8580000Y-20420000D02*
X8580000Y-20500000D01*
X8540000Y-20460000D02*
X8620000Y-20460000D01*
X8580000Y-21182000D02*
X8580000Y-21262000D01*
X8540000Y-21222000D02*
X8620000Y-21222000D01*
X8641500Y-11965000D02*
X8641500Y-12045000D01*
X8601500Y-12005000D02*
X8681500Y-12005000D01*
X8641500Y-13489000D02*
X8641500Y-13569000D01*
X8601500Y-13529000D02*
X8681500Y-13529000D01*
X8641500Y-14515000D02*
X8641500Y-14595000D01*
X8601500Y-14555000D02*
X8681500Y-14555000D01*
X8641500Y-16039000D02*
X8641500Y-16119000D01*
X8601500Y-16079000D02*
X8681500Y-16079000D01*
X8643500Y-19848500D02*
X8643500Y-19928500D01*
X8603500Y-19888500D02*
X8683500Y-19888500D01*
X8665500Y-18529500D02*
X8665500Y-18609500D01*
X8625500Y-18569500D02*
X8705500Y-18569500D01*
X8665500Y-19291500D02*
X8665500Y-19371500D01*
X8625500Y-19331500D02*
X8705500Y-19331500D01*
X8775000Y-16610000D02*
X8775000Y-16690000D01*
X8735000Y-16650000D02*
X8815000Y-16650000D01*
X8834000Y-20420000D02*
X8834000Y-20500000D01*
X8794000Y-20460000D02*
X8874000Y-20460000D01*
X8834000Y-21182000D02*
X8834000Y-21262000D01*
X8794000Y-21222000D02*
X8874000Y-21222000D01*
X8834000Y-21690000D02*
X8834000Y-21770000D01*
X8794000Y-21730000D02*
X8874000Y-21730000D01*
X8895500Y-11965000D02*
X8895500Y-12045000D01*
X8855500Y-12005000D02*
X8935500Y-12005000D01*
X8895500Y-13489000D02*
X8895500Y-13569000D01*
X8855500Y-13529000D02*
X8935500Y-13529000D01*
X8895500Y-14515000D02*
X8895500Y-14595000D01*
X8855500Y-14555000D02*
X8935500Y-14555000D01*
X8895500Y-16039000D02*
X8895500Y-16119000D01*
X8855500Y-16079000D02*
X8935500Y-16079000D01*
X8897500Y-19848500D02*
X8897500Y-19928500D01*
X8857500Y-19888500D02*
X8937500Y-19888500D01*
X8919500Y-18529500D02*
X8919500Y-18609500D01*
X8879500Y-18569500D02*
X8959500Y-18569500D01*
X8919500Y-19291500D02*
X8919500Y-19371500D01*
X8879500Y-19331500D02*
X8959500Y-19331500D01*
X9088000Y-20420000D02*
X9088000Y-20500000D01*
X9048000Y-20460000D02*
X9128000Y-20460000D01*
X9088000Y-21182000D02*
X9088000Y-21262000D01*
X9048000Y-21222000D02*
X9128000Y-21222000D01*
X9088000Y-21690000D02*
X9088000Y-21770000D01*
X9048000Y-21730000D02*
X9128000Y-21730000D01*
X9149500Y-11965000D02*
X9149500Y-12045000D01*
X9109500Y-12005000D02*
X9189500Y-12005000D01*
X9149500Y-13489000D02*
X9149500Y-13569000D01*
X9109500Y-13529000D02*
X9189500Y-13529000D01*
X9149500Y-14515000D02*
X9149500Y-14595000D01*
X9109500Y-14555000D02*
X9189500Y-14555000D01*
X9149500Y-16039000D02*
X9149500Y-16119000D01*
X9109500Y-16079000D02*
X9189500Y-16079000D01*
X9151500Y-19848500D02*
X9151500Y-19928500D01*
X9111500Y-19888500D02*
X9191500Y-19888500D01*
X9173500Y-18529500D02*
X9173500Y-18609500D01*
X9133500Y-18569500D02*
X9213500Y-18569500D01*
X9173500Y-19291500D02*
X9173500Y-19371500D01*
X9133500Y-19331500D02*
X9213500Y-19331500D01*
X9342000Y-8672500D02*
X9342000Y-8752500D01*
X9302000Y-8712500D02*
X9382000Y-8712500D01*
X9342000Y-9434500D02*
X9342000Y-9514500D01*
X9302000Y-9474500D02*
X9382000Y-9474500D01*
X9342000Y-10704500D02*
X9342000Y-10784500D01*
X9302000Y-10744500D02*
X9382000Y-10744500D01*
X9342000Y-20420000D02*
X9342000Y-20500000D01*
X9302000Y-20460000D02*
X9382000Y-20460000D01*
X9342000Y-21182000D02*
X9342000Y-21262000D01*
X9302000Y-21222000D02*
X9382000Y-21222000D01*
X9342000Y-21690000D02*
X9342000Y-21770000D01*
X9302000Y-21730000D02*
X9382000Y-21730000D01*
X9403500Y-11965000D02*
X9403500Y-12045000D01*
X9363500Y-12005000D02*
X9443500Y-12005000D01*
X9403500Y-13489000D02*
X9403500Y-13569000D01*
X9363500Y-13529000D02*
X9443500Y-13529000D01*
X9403500Y-14515000D02*
X9403500Y-14595000D01*
X9363500Y-14555000D02*
X9443500Y-14555000D01*
X9403500Y-16039000D02*
X9403500Y-16119000D01*
X9363500Y-16079000D02*
X9443500Y-16079000D01*
X9405500Y-19848500D02*
X9405500Y-19928500D01*
X9365500Y-19888500D02*
X9445500Y-19888500D01*
X9427500Y-18529500D02*
X9427500Y-18609500D01*
X9387500Y-18569500D02*
X9467500Y-18569500D01*
X9427500Y-19291500D02*
X9427500Y-19371500D01*
X9387500Y-19331500D02*
X9467500Y-19331500D01*
X9450000Y-16335000D02*
X9450000Y-16415000D01*
X9410000Y-16375000D02*
X9490000Y-16375000D01*
X9450000Y-16835000D02*
X9450000Y-16915000D01*
X9410000Y-16875000D02*
X9490000Y-16875000D01*
X9596000Y-20420000D02*
X9596000Y-20500000D01*
X9556000Y-20460000D02*
X9636000Y-20460000D01*
X9596000Y-21182000D02*
X9596000Y-21262000D01*
X9556000Y-21222000D02*
X9636000Y-21222000D01*
X9596000Y-21690000D02*
X9596000Y-21770000D01*
X9556000Y-21730000D02*
X9636000Y-21730000D01*
X9657500Y-11965000D02*
X9657500Y-12045000D01*
X9617500Y-12005000D02*
X9697500Y-12005000D01*
X9657500Y-13489000D02*
X9657500Y-13569000D01*
X9617500Y-13529000D02*
X9697500Y-13529000D01*
X9657500Y-14515000D02*
X9657500Y-14595000D01*
X9617500Y-14555000D02*
X9697500Y-14555000D01*
X9657500Y-16039000D02*
X9657500Y-16119000D01*
X9617500Y-16079000D02*
X9697500Y-16079000D01*
X9659500Y-19848500D02*
X9659500Y-19928500D01*
X9619500Y-19888500D02*
X9699500Y-19888500D01*
X9681500Y-18529500D02*
X9681500Y-18609500D01*
X9641500Y-18569500D02*
X9721500Y-18569500D01*
X9681500Y-19291500D02*
X9681500Y-19371500D01*
X9641500Y-19331500D02*
X9721500Y-19331500D01*
X9850000Y-20420000D02*
X9850000Y-20500000D01*
X9810000Y-20460000D02*
X9890000Y-20460000D01*
X9850000Y-21182000D02*
X9850000Y-21262000D01*
X9810000Y-21222000D02*
X9890000Y-21222000D01*
X9850000Y-21690000D02*
X9850000Y-21770000D01*
X9810000Y-21730000D02*
X9890000Y-21730000D01*
X9911500Y-11965000D02*
X9911500Y-12045000D01*
X9871500Y-12005000D02*
X9951500Y-12005000D01*
X9911500Y-13489000D02*
X9911500Y-13569000D01*
X9871500Y-13529000D02*
X9951500Y-13529000D01*
X9911500Y-14515000D02*
X9911500Y-14595000D01*
X9871500Y-14555000D02*
X9951500Y-14555000D01*
X9911500Y-16039000D02*
X9911500Y-16119000D01*
X9871500Y-16079000D02*
X9951500Y-16079000D01*
X9913500Y-19848500D02*
X9913500Y-19928500D01*
X9873500Y-19888500D02*
X9953500Y-19888500D01*
X9935500Y-18529500D02*
X9935500Y-18609500D01*
X9895500Y-18569500D02*
X9975500Y-18569500D01*
X9935500Y-19291500D02*
X9935500Y-19371500D01*
X9895500Y-19331500D02*
X9975500Y-19331500D01*
X10104000Y-20420000D02*
X10104000Y-20500000D01*
X10064000Y-20460000D02*
X10144000Y-20460000D01*
X10104000Y-21182000D02*
X10104000Y-21262000D01*
X10064000Y-21222000D02*
X10144000Y-21222000D01*
X10104000Y-21690000D02*
X10104000Y-21770000D01*
X10064000Y-21730000D02*
X10144000Y-21730000D01*
X10165500Y-11965000D02*
X10165500Y-12045000D01*
X10125500Y-12005000D02*
X10205500Y-12005000D01*
X10165500Y-13489000D02*
X10165500Y-13569000D01*
X10125500Y-13529000D02*
X10205500Y-13529000D01*
X10165500Y-14515000D02*
X10165500Y-14595000D01*
X10125500Y-14555000D02*
X10205500Y-14555000D01*
X10165500Y-16039000D02*
X10165500Y-16119000D01*
X10125500Y-16079000D02*
X10205500Y-16079000D01*
X10358000Y-20420000D02*
X10358000Y-20500000D01*
X10318000Y-20460000D02*
X10398000Y-20460000D01*
X10358000Y-21182000D02*
X10358000Y-21262000D01*
X10318000Y-21222000D02*
X10398000Y-21222000D01*
X10358000Y-21690000D02*
X10358000Y-21770000D01*
X10318000Y-21730000D02*
X10398000Y-21730000D01*
X10419500Y-11965000D02*
X10419500Y-12045000D01*
X10379500Y-12005000D02*
X10459500Y-12005000D01*
X10419500Y-13489000D02*
X10419500Y-13569000D01*
X10379500Y-13529000D02*
X10459500Y-13529000D01*
X10419500Y-14515000D02*
X10419500Y-14595000D01*
X10379500Y-14555000D02*
X10459500Y-14555000D01*
X10419500Y-16039000D02*
X10419500Y-16119000D01*
X10379500Y-16079000D02*
X10459500Y-16079000D01*
X10612000Y-20420000D02*
X10612000Y-20500000D01*
X10572000Y-20460000D02*
X10652000Y-20460000D01*
X10612000Y-21182000D02*
X10612000Y-21262000D01*
X10572000Y-21222000D02*
X10652000Y-21222000D01*
X10612000Y-21690000D02*
X10612000Y-21770000D01*
X10572000Y-21730000D02*
X10652000Y-21730000D01*
X10673500Y-11965000D02*
X10673500Y-12045000D01*
X10633500Y-12005000D02*
X10713500Y-12005000D01*
X10673500Y-13489000D02*
X10673500Y-13569000D01*
X10633500Y-13529000D02*
X10713500Y-13529000D01*
X10673500Y-14515000D02*
X10673500Y-14595000D01*
X10633500Y-14555000D02*
X10713500Y-14555000D01*
X10673500Y-16039000D02*
X10673500Y-16119000D01*
X10633500Y-16079000D02*
X10713500Y-16079000D01*
X10675500Y-18834500D02*
X10675500Y-18914500D01*
X10635500Y-18874500D02*
X10715500Y-18874500D01*
X10739000Y-8799500D02*
X10739000Y-8879500D01*
X10699000Y-8839500D02*
X10779000Y-8839500D01*
X10739000Y-9561500D02*
X10739000Y-9641500D01*
X10699000Y-9601500D02*
X10779000Y-9601500D01*
X10866000Y-20420000D02*
X10866000Y-20500000D01*
X10826000Y-20460000D02*
X10906000Y-20460000D01*
X10866000Y-21182000D02*
X10866000Y-21262000D01*
X10826000Y-21222000D02*
X10906000Y-21222000D01*
X10866000Y-21690000D02*
X10866000Y-21770000D01*
X10826000Y-21730000D02*
X10906000Y-21730000D01*
X10927500Y-11965000D02*
X10927500Y-12045000D01*
X10887500Y-12005000D02*
X10967500Y-12005000D01*
X10927500Y-13489000D02*
X10927500Y-13569000D01*
X10887500Y-13529000D02*
X10967500Y-13529000D01*
X10927500Y-14515000D02*
X10927500Y-14595000D01*
X10887500Y-14555000D02*
X10967500Y-14555000D01*
X10927500Y-16039000D02*
X10927500Y-16119000D01*
X10887500Y-16079000D02*
X10967500Y-16079000D01*
X11104490Y-17285000D02*
X11104490Y-17365000D01*
X11064490Y-17325000D02*
X11144490Y-17325000D01*
X11181500Y-11965000D02*
X11181500Y-12045000D01*
X11141500Y-12005000D02*
X11221500Y-12005000D01*
X11181500Y-13489000D02*
X11181500Y-13569000D01*
X11141500Y-13529000D02*
X11221500Y-13529000D01*
X11181500Y-14515000D02*
X11181500Y-14595000D01*
X11141500Y-14555000D02*
X11221500Y-14555000D01*
X11181500Y-16039000D02*
X11181500Y-16119000D01*
X11141500Y-16079000D02*
X11221500Y-16079000D01*
X11354490Y-17285000D02*
X11354490Y-17365000D01*
X11314490Y-17325000D02*
X11394490Y-17325000D01*
X11435500Y-11965000D02*
X11435500Y-12045000D01*
X11395500Y-12005000D02*
X11475500Y-12005000D01*
X11435500Y-13489000D02*
X11435500Y-13569000D01*
X11395500Y-13529000D02*
X11475500Y-13529000D01*
X11435500Y-14515000D02*
X11435500Y-14595000D01*
X11395500Y-14555000D02*
X11475500Y-14555000D01*
X11435500Y-16039000D02*
X11435500Y-16119000D01*
X11395500Y-16079000D02*
X11475500Y-16079000D01*
X11437500Y-18834500D02*
X11437500Y-18914500D01*
X11397500Y-18874500D02*
X11477500Y-18874500D01*
X11689500Y-11965000D02*
X11689500Y-12045000D01*
X11649500Y-12005000D02*
X11729500Y-12005000D01*
X11689500Y-13489000D02*
X11689500Y-13569000D01*
X11649500Y-13529000D02*
X11729500Y-13529000D01*
X11689500Y-14515000D02*
X11689500Y-14595000D01*
X11649500Y-14555000D02*
X11729500Y-14555000D01*
X11689500Y-16039000D02*
X11689500Y-16119000D01*
X11649500Y-16079000D02*
X11729500Y-16079000D01*
X11943500Y-11965000D02*
X11943500Y-12045000D01*
X11903500Y-12005000D02*
X11983500Y-12005000D01*
X11943500Y-13489000D02*
X11943500Y-13569000D01*
X11903500Y-13529000D02*
X11983500Y-13529000D01*
X11943500Y-14515000D02*
X11943500Y-14595000D01*
X11903500Y-14555000D02*
X11983500Y-14555000D01*
X11943500Y-16039000D02*
X11943500Y-16119000D01*
X11903500Y-16079000D02*
X11983500Y-16079000D01*
X12131500Y-16979000D02*
X12131500Y-17059000D01*
X12091500Y-17019000D02*
X12171500Y-17019000D01*
X12131500Y-17479000D02*
X12131500Y-17559000D01*
X12091500Y-17519000D02*
X12171500Y-17519000D01*
X12197500Y-11965000D02*
X12197500Y-12045000D01*
X12157500Y-12005000D02*
X12237500Y-12005000D01*
X12197500Y-13489000D02*
X12197500Y-13569000D01*
X12157500Y-13529000D02*
X12237500Y-13529000D01*
X12197500Y-14515000D02*
X12197500Y-14595000D01*
X12157500Y-14555000D02*
X12237500Y-14555000D01*
X12197500Y-16039000D02*
X12197500Y-16119000D01*
X12157500Y-16079000D02*
X12237500Y-16079000D01*
X12326500Y-18515000D02*
X12326500Y-18595000D01*
X12286500Y-18555000D02*
X12366500Y-18555000D01*
X12326500Y-19344500D02*
X12326500Y-19424500D01*
X12286500Y-19384500D02*
X12366500Y-19384500D01*
X12326500Y-19844500D02*
X12326500Y-19924500D01*
X12286500Y-19884500D02*
X12366500Y-19884500D01*
X12400000Y-20760000D02*
X12400000Y-20840000D01*
X12360000Y-20800000D02*
X12440000Y-20800000D01*
X12400000Y-21260000D02*
X12400000Y-21340000D01*
X12360000Y-21300000D02*
X12440000Y-21300000D01*
X12451500Y-11965000D02*
X12451500Y-12045000D01*
X12411500Y-12005000D02*
X12491500Y-12005000D01*
X12451500Y-13489000D02*
X12451500Y-13569000D01*
X12411500Y-13529000D02*
X12491500Y-13529000D01*
X12451500Y-14515000D02*
X12451500Y-14595000D01*
X12411500Y-14555000D02*
X12491500Y-14555000D01*
X12451500Y-16039000D02*
X12451500Y-16119000D01*
X12411500Y-16079000D02*
X12491500Y-16079000D01*
X12705500Y-11965000D02*
X12705500Y-12045000D01*
X12665500Y-12005000D02*
X12745500Y-12005000D01*
X12705500Y-13489000D02*
X12705500Y-13569000D01*
X12665500Y-13529000D02*
X12745500Y-13529000D01*
X12705500Y-14515000D02*
X12705500Y-14595000D01*
X12665500Y-14555000D02*
X12745500Y-14555000D01*
X12705500Y-16039000D02*
X12705500Y-16119000D01*
X12665500Y-16079000D02*
X12745500Y-16079000D01*
X12756500Y-16842000D02*
X12756500Y-16922000D01*
X12716500Y-16882000D02*
X12796500Y-16882000D01*
X12756500Y-17604000D02*
X12756500Y-17684000D01*
X12716500Y-17644000D02*
X12796500Y-17644000D01*
X12897500Y-19218000D02*
X12897500Y-19298000D01*
X12857500Y-19258000D02*
X12937500Y-19258000D01*
X12897500Y-19980000D02*
X12897500Y-20060000D01*
X12857500Y-20020000D02*
X12937500Y-20020000D01*
X12897500Y-20498000D02*
X12897500Y-20578000D01*
X12857500Y-20538000D02*
X12937500Y-20538000D01*
X12897500Y-21260000D02*
X12897500Y-21340000D01*
X12857500Y-21300000D02*
X12937500Y-21300000D01*
X12959500Y-11965000D02*
X12959500Y-12045000D01*
X12919500Y-12005000D02*
X12999500Y-12005000D01*
X12959500Y-13489000D02*
X12959500Y-13569000D01*
X12919500Y-13529000D02*
X12999500Y-13529000D01*
X12959500Y-14515000D02*
X12959500Y-14595000D01*
X12919500Y-14555000D02*
X12999500Y-14555000D01*
X12959500Y-16039000D02*
X12959500Y-16119000D01*
X12919500Y-16079000D02*
X12999500Y-16079000D01*
X13010500Y-16842000D02*
X13010500Y-16922000D01*
X12970500Y-16882000D02*
X13050500Y-16882000D01*
X13010500Y-17604000D02*
X13010500Y-17684000D01*
X12970500Y-17644000D02*
X13050500Y-17644000D01*
X13088500Y-18515000D02*
X13088500Y-18595000D01*
X13048500Y-18555000D02*
X13128500Y-18555000D01*
X13151500Y-19218000D02*
X13151500Y-19298000D01*
X13111500Y-19258000D02*
X13191500Y-19258000D01*
X13151500Y-19980000D02*
X13151500Y-20060000D01*
X13111500Y-20020000D02*
X13191500Y-20020000D01*
X13151500Y-20498000D02*
X13151500Y-20578000D01*
X13111500Y-20538000D02*
X13191500Y-20538000D01*
X13151500Y-21260000D02*
X13151500Y-21340000D01*
X13111500Y-21300000D02*
X13191500Y-21300000D01*
X13213500Y-11965000D02*
X13213500Y-12045000D01*
X13173500Y-12005000D02*
X13253500Y-12005000D01*
X13213500Y-13489000D02*
X13213500Y-13569000D01*
X13173500Y-13529000D02*
X13253500Y-13529000D01*
X13213500Y-14515000D02*
X13213500Y-14595000D01*
X13173500Y-14555000D02*
X13253500Y-14555000D01*
X13213500Y-16039000D02*
X13213500Y-16119000D01*
X13173500Y-16079000D02*
X13253500Y-16079000D01*
X13264500Y-16842000D02*
X13264500Y-16922000D01*
X13224500Y-16882000D02*
X13304500Y-16882000D01*
X13264500Y-17604000D02*
X13264500Y-17684000D01*
X13224500Y-17644000D02*
X13304500Y-17644000D01*
X13405500Y-19218000D02*
X13405500Y-19298000D01*
X13365500Y-19258000D02*
X13445500Y-19258000D01*
X13405500Y-19980000D02*
X13405500Y-20060000D01*
X13365500Y-20020000D02*
X13445500Y-20020000D01*
X13405500Y-20498000D02*
X13405500Y-20578000D01*
X13365500Y-20538000D02*
X13445500Y-20538000D01*
X13405500Y-21260000D02*
X13405500Y-21340000D01*
X13365500Y-21300000D02*
X13445500Y-21300000D01*
X13518500Y-16842000D02*
X13518500Y-16922000D01*
X13478500Y-16882000D02*
X13558500Y-16882000D01*
X13518500Y-17604000D02*
X13518500Y-17684000D01*
X13478500Y-17644000D02*
X13558500Y-17644000D01*
X13659500Y-19218000D02*
X13659500Y-19298000D01*
X13619500Y-19258000D02*
X13699500Y-19258000D01*
X13659500Y-19980000D02*
X13659500Y-20060000D01*
X13619500Y-20020000D02*
X13699500Y-20020000D01*
X13659500Y-20498000D02*
X13659500Y-20578000D01*
X13619500Y-20538000D02*
X13699500Y-20538000D01*
X13659500Y-21260000D02*
X13659500Y-21340000D01*
X13619500Y-21300000D02*
X13699500Y-21300000D01*
X13772500Y-16842000D02*
X13772500Y-16922000D01*
X13732500Y-16882000D02*
X13812500Y-16882000D01*
X13772500Y-17604000D02*
X13772500Y-17684000D01*
X13732500Y-17644000D02*
X13812500Y-17644000D01*
X13913500Y-19218000D02*
X13913500Y-19298000D01*
X13873500Y-19258000D02*
X13953500Y-19258000D01*
X13913500Y-19980000D02*
X13913500Y-20060000D01*
X13873500Y-20020000D02*
X13953500Y-20020000D01*
X13913500Y-20498000D02*
X13913500Y-20578000D01*
X13873500Y-20538000D02*
X13953500Y-20538000D01*
X13913500Y-21260000D02*
X13913500Y-21340000D01*
X13873500Y-21300000D02*
X13953500Y-21300000D01*
X14026500Y-16842000D02*
X14026500Y-16922000D01*
X13986500Y-16882000D02*
X14066500Y-16882000D01*
X14026500Y-17604000D02*
X14026500Y-17684000D01*
X13986500Y-17644000D02*
X14066500Y-17644000D01*
X14167500Y-19218000D02*
X14167500Y-19298000D01*
X14127500Y-19258000D02*
X14207500Y-19258000D01*
X14167500Y-19980000D02*
X14167500Y-20060000D01*
X14127500Y-20020000D02*
X14207500Y-20020000D01*
X14167500Y-20498000D02*
X14167500Y-20578000D01*
X14127500Y-20538000D02*
X14207500Y-20538000D01*
X14167500Y-21260000D02*
X14167500Y-21340000D01*
X14127500Y-21300000D02*
X14207500Y-21300000D01*
X14237990Y-13562000D02*
X14237990Y-13642000D01*
X14197990Y-13602000D02*
X14277990Y-13602000D01*
X14280500Y-16842000D02*
X14280500Y-16922000D01*
X14240500Y-16882000D02*
X14320500Y-16882000D01*
X14280500Y-17604000D02*
X14280500Y-17684000D01*
X14240500Y-17644000D02*
X14320500Y-17644000D01*
X14421500Y-19218000D02*
X14421500Y-19298000D01*
X14381500Y-19258000D02*
X14461500Y-19258000D01*
X14421500Y-19980000D02*
X14421500Y-20060000D01*
X14381500Y-20020000D02*
X14461500Y-20020000D01*
X14421500Y-20498000D02*
X14421500Y-20578000D01*
X14381500Y-20538000D02*
X14461500Y-20538000D01*
X14421500Y-21260000D02*
X14421500Y-21340000D01*
X14381500Y-21300000D02*
X14461500Y-21300000D01*
X14487990Y-13562000D02*
X14487990Y-13642000D01*
X14447990Y-13602000D02*
X14527990Y-13602000D01*
X14534500Y-16842000D02*
X14534500Y-16922000D01*
X14494500Y-16882000D02*
X14574500Y-16882000D01*
X14534500Y-17604000D02*
X14534500Y-17684000D01*
X14494500Y-17644000D02*
X14574500Y-17644000D01*
X14788500Y-16842000D02*
X14788500Y-16922000D01*
X14748500Y-16882000D02*
X14828500Y-16882000D01*
X14788500Y-17604000D02*
X14788500Y-17684000D01*
X14748500Y-17644000D02*
X14828500Y-17644000D01*
X15042500Y-16842000D02*
X15042500Y-16922000D01*
X15002500Y-16882000D02*
X15082500Y-16882000D01*
X15042500Y-17604000D02*
X15042500Y-17684000D01*
X15002500Y-17644000D02*
X15082500Y-17644000D01*
X15296500Y-16842000D02*
X15296500Y-16922000D01*
X15256500Y-16882000D02*
X15336500Y-16882000D01*
X15296500Y-17604000D02*
X15296500Y-17684000D01*
X15256500Y-17644000D02*
X15336500Y-17644000D01*
X15311000Y-10831500D02*
X15311000Y-10911500D01*
X15271000Y-10871500D02*
X15351000Y-10871500D01*
X15311000Y-11331500D02*
X15311000Y-11411500D01*
X15271000Y-11371500D02*
X15351000Y-11371500D01*
X15550500Y-16842000D02*
X15550500Y-16922000D01*
X15510500Y-16882000D02*
X15590500Y-16882000D01*
X15550500Y-17604000D02*
X15550500Y-17684000D01*
X15510500Y-17644000D02*
X15590500Y-17644000D01*
X15888990Y-18261000D02*
X15888990Y-18341000D01*
X15848990Y-18301000D02*
X15928990Y-18301000D01*
X16000000Y-10698000D02*
X16000000Y-10778000D01*
X15960000Y-10738000D02*
X16040000Y-10738000D01*
X16000000Y-11460000D02*
X16000000Y-11540000D01*
X15960000Y-11500000D02*
X16040000Y-11500000D01*
X16009500Y-11974500D02*
X16009500Y-12054500D01*
X15969500Y-12014500D02*
X16049500Y-12014500D01*
X16017000Y-20617500D02*
X16017000Y-20697500D01*
X15977000Y-20657500D02*
X16057000Y-20657500D01*
X16017000Y-21117500D02*
X16017000Y-21197500D01*
X15977000Y-21157500D02*
X16057000Y-21157500D01*
X16138990Y-18261000D02*
X16138990Y-18341000D01*
X16098990Y-18301000D02*
X16178990Y-18301000D01*
X16254000Y-10698000D02*
X16254000Y-10778000D01*
X16214000Y-10738000D02*
X16294000Y-10738000D01*
X16254000Y-11460000D02*
X16254000Y-11540000D01*
X16214000Y-11500000D02*
X16294000Y-11500000D01*
X16390500Y-13316000D02*
X16390500Y-13396000D01*
X16350500Y-13356000D02*
X16430500Y-13356000D01*
X16390500Y-13816000D02*
X16390500Y-13896000D01*
X16350500Y-13856000D02*
X16430500Y-13856000D01*
X16454000Y-16677000D02*
X16454000Y-16757000D01*
X16414000Y-16717000D02*
X16494000Y-16717000D01*
X16454000Y-17177000D02*
X16454000Y-17257000D01*
X16414000Y-17217000D02*
X16494000Y-17217000D01*
X16508000Y-10698000D02*
X16508000Y-10778000D01*
X16468000Y-10738000D02*
X16548000Y-10738000D01*
X16508000Y-11460000D02*
X16508000Y-11540000D01*
X16468000Y-11500000D02*
X16548000Y-11500000D01*
X16517000Y-20355500D02*
X16517000Y-20435500D01*
X16477000Y-20395500D02*
X16557000Y-20395500D01*
X16517000Y-21117500D02*
X16517000Y-21197500D01*
X16477000Y-21157500D02*
X16557000Y-21157500D01*
X16762000Y-10698000D02*
X16762000Y-10778000D01*
X16722000Y-10738000D02*
X16802000Y-10738000D01*
X16762000Y-11460000D02*
X16762000Y-11540000D01*
X16722000Y-11500000D02*
X16802000Y-11500000D01*
X16771000Y-20355500D02*
X16771000Y-20435500D01*
X16731000Y-20395500D02*
X16811000Y-20395500D01*
X16771000Y-21117500D02*
X16771000Y-21197500D01*
X16731000Y-21157500D02*
X16811000Y-21157500D01*
X16771500Y-11974500D02*
X16771500Y-12054500D01*
X16731500Y-12014500D02*
X16811500Y-12014500D01*
X16835000Y-18963500D02*
X16835000Y-19043500D01*
X16795000Y-19003500D02*
X16875000Y-19003500D01*
X16835000Y-19463500D02*
X16835000Y-19543500D01*
X16795000Y-19503500D02*
X16875000Y-19503500D01*
X17016000Y-10698000D02*
X17016000Y-10778000D01*
X16976000Y-10738000D02*
X17056000Y-10738000D01*
X17016000Y-11460000D02*
X17016000Y-11540000D01*
X16976000Y-11500000D02*
X17056000Y-11500000D01*
X17025000Y-20355500D02*
X17025000Y-20435500D01*
X16985000Y-20395500D02*
X17065000Y-20395500D01*
X17025000Y-21117500D02*
X17025000Y-21197500D01*
X16985000Y-21157500D02*
X17065000Y-21157500D01*
X17026000Y-13180000D02*
X17026000Y-13260000D01*
X16986000Y-13220000D02*
X17066000Y-13220000D01*
X17026000Y-13942000D02*
X17026000Y-14022000D01*
X16986000Y-13982000D02*
X17066000Y-13982000D01*
X17027000Y-16545500D02*
X17027000Y-16625500D01*
X16987000Y-16585500D02*
X17067000Y-16585500D01*
X17027000Y-17307500D02*
X17027000Y-17387500D01*
X16987000Y-17347500D02*
X17067000Y-17347500D01*
X17082500Y-15810000D02*
X17082500Y-15890000D01*
X17042500Y-15850000D02*
X17122500Y-15850000D01*
X17267000Y-18141500D02*
X17267000Y-18221500D01*
X17227000Y-18181500D02*
X17307000Y-18181500D01*
X17270000Y-10698000D02*
X17270000Y-10778000D01*
X17230000Y-10738000D02*
X17310000Y-10738000D01*
X17270000Y-11460000D02*
X17270000Y-11540000D01*
X17230000Y-11500000D02*
X17310000Y-11500000D01*
X17279000Y-20355500D02*
X17279000Y-20435500D01*
X17239000Y-20395500D02*
X17319000Y-20395500D01*
X17279000Y-21117500D02*
X17279000Y-21197500D01*
X17239000Y-21157500D02*
X17319000Y-21157500D01*
X17280000Y-13180000D02*
X17280000Y-13260000D01*
X17240000Y-13220000D02*
X17320000Y-13220000D01*
X17280000Y-13942000D02*
X17280000Y-14022000D01*
X17240000Y-13982000D02*
X17320000Y-13982000D01*
X17281000Y-16545500D02*
X17281000Y-16625500D01*
X17241000Y-16585500D02*
X17321000Y-16585500D01*
X17281000Y-17307500D02*
X17281000Y-17387500D01*
X17241000Y-17347500D02*
X17321000Y-17347500D01*
X17336500Y-15810000D02*
X17336500Y-15890000D01*
X17296500Y-15850000D02*
X17376500Y-15850000D01*
X17521000Y-18141500D02*
X17521000Y-18221500D01*
X17481000Y-18181500D02*
X17561000Y-18181500D01*
X17524000Y-10698000D02*
X17524000Y-10778000D01*
X17484000Y-10738000D02*
X17564000Y-10738000D01*
X17524000Y-11460000D02*
X17524000Y-11540000D01*
X17484000Y-11500000D02*
X17564000Y-11500000D01*
X17532000Y-18831500D02*
X17532000Y-18911500D01*
X17492000Y-18871500D02*
X17572000Y-18871500D01*
X17532000Y-19593500D02*
X17532000Y-19673500D01*
X17492000Y-19633500D02*
X17572000Y-19633500D01*
X17533000Y-20355500D02*
X17533000Y-20435500D01*
X17493000Y-20395500D02*
X17573000Y-20395500D01*
X17533000Y-21117500D02*
X17533000Y-21197500D01*
X17493000Y-21157500D02*
X17573000Y-21157500D01*
X17534000Y-13180000D02*
X17534000Y-13260000D01*
X17494000Y-13220000D02*
X17574000Y-13220000D01*
X17534000Y-13942000D02*
X17534000Y-14022000D01*
X17494000Y-13982000D02*
X17574000Y-13982000D01*
X17535000Y-16545500D02*
X17535000Y-16625500D01*
X17495000Y-16585500D02*
X17575000Y-16585500D01*
X17535000Y-17307500D02*
X17535000Y-17387500D01*
X17495000Y-17347500D02*
X17575000Y-17347500D01*
X17590500Y-15810000D02*
X17590500Y-15890000D01*
X17550500Y-15850000D02*
X17630500Y-15850000D01*
X17775000Y-18141500D02*
X17775000Y-18221500D01*
X17735000Y-18181500D02*
X17815000Y-18181500D01*
X17786000Y-18831500D02*
X17786000Y-18911500D01*
X17746000Y-18871500D02*
X17826000Y-18871500D01*
X17786000Y-19593500D02*
X17786000Y-19673500D01*
X17746000Y-19633500D02*
X17826000Y-19633500D01*
X17787000Y-20355500D02*
X17787000Y-20435500D01*
X17747000Y-20395500D02*
X17827000Y-20395500D01*
X17787000Y-21117500D02*
X17787000Y-21197500D01*
X17747000Y-21157500D02*
X17827000Y-21157500D01*
X17788000Y-13180000D02*
X17788000Y-13260000D01*
X17748000Y-13220000D02*
X17828000Y-13220000D01*
X17788000Y-13942000D02*
X17788000Y-14022000D01*
X17748000Y-13982000D02*
X17828000Y-13982000D01*
X17789000Y-16545500D02*
X17789000Y-16625500D01*
X17749000Y-16585500D02*
X17829000Y-16585500D01*
X17789000Y-17307500D02*
X17789000Y-17387500D01*
X17749000Y-17347500D02*
X17829000Y-17347500D01*
X17844500Y-15810000D02*
X17844500Y-15890000D01*
X17804500Y-15850000D02*
X17884500Y-15850000D01*
X18029000Y-18141500D02*
X18029000Y-18221500D01*
X17989000Y-18181500D02*
X18069000Y-18181500D01*
X18040000Y-18831500D02*
X18040000Y-18911500D01*
X18000000Y-18871500D02*
X18080000Y-18871500D01*
X18040000Y-19593500D02*
X18040000Y-19673500D01*
X18000000Y-19633500D02*
X18080000Y-19633500D01*
X18041000Y-20355500D02*
X18041000Y-20435500D01*
X18001000Y-20395500D02*
X18081000Y-20395500D01*
X18041000Y-21117500D02*
X18041000Y-21197500D01*
X18001000Y-21157500D02*
X18081000Y-21157500D01*
X18042000Y-13180000D02*
X18042000Y-13260000D01*
X18002000Y-13220000D02*
X18082000Y-13220000D01*
X18042000Y-13942000D02*
X18042000Y-14022000D01*
X18002000Y-13982000D02*
X18082000Y-13982000D01*
X18043000Y-16545500D02*
X18043000Y-16625500D01*
X18003000Y-16585500D02*
X18083000Y-16585500D01*
X18043000Y-17307500D02*
X18043000Y-17387500D01*
X18003000Y-17347500D02*
X18083000Y-17347500D01*
X18044000Y-10685000D02*
X18044000Y-10765000D01*
X18004000Y-10725000D02*
X18084000Y-10725000D01*
X18044000Y-11460000D02*
X18044000Y-11540000D01*
X18004000Y-11500000D02*
X18084000Y-11500000D01*
X18098500Y-15810000D02*
X18098500Y-15890000D01*
X18058500Y-15850000D02*
X18138500Y-15850000D01*
X18283000Y-18141500D02*
X18283000Y-18221500D01*
X18243000Y-18181500D02*
X18323000Y-18181500D01*
X18294000Y-18831500D02*
X18294000Y-18911500D01*
X18254000Y-18871500D02*
X18334000Y-18871500D01*
X18294000Y-19593500D02*
X18294000Y-19673500D01*
X18254000Y-19633500D02*
X18334000Y-19633500D01*
X18295000Y-20355500D02*
X18295000Y-20435500D01*
X18255000Y-20395500D02*
X18335000Y-20395500D01*
X18295000Y-21117500D02*
X18295000Y-21197500D01*
X18255000Y-21157500D02*
X18335000Y-21157500D01*
X18296000Y-13180000D02*
X18296000Y-13260000D01*
X18256000Y-13220000D02*
X18336000Y-13220000D01*
X18296000Y-13942000D02*
X18296000Y-14022000D01*
X18256000Y-13982000D02*
X18336000Y-13982000D01*
X18297000Y-16545500D02*
X18297000Y-16625500D01*
X18257000Y-16585500D02*
X18337000Y-16585500D01*
X18297000Y-17307500D02*
X18297000Y-17387500D01*
X18257000Y-17347500D02*
X18337000Y-17347500D01*
X18352500Y-15810000D02*
X18352500Y-15890000D01*
X18312500Y-15850000D02*
X18392500Y-15850000D01*
X18359000Y-9244000D02*
X18359000Y-9324000D01*
X18319000Y-9284000D02*
X18399000Y-9284000D01*
X18537000Y-18141500D02*
X18537000Y-18221500D01*
X18497000Y-18181500D02*
X18577000Y-18181500D01*
X18548000Y-18831500D02*
X18548000Y-18911500D01*
X18508000Y-18871500D02*
X18588000Y-18871500D01*
X18548000Y-19593500D02*
X18548000Y-19673500D01*
X18508000Y-19633500D02*
X18588000Y-19633500D01*
X18549000Y-20355500D02*
X18549000Y-20435500D01*
X18509000Y-20395500D02*
X18589000Y-20395500D01*
X18549000Y-21117500D02*
X18549000Y-21197500D01*
X18509000Y-21157500D02*
X18589000Y-21157500D01*
X18550000Y-13180000D02*
X18550000Y-13260000D01*
X18510000Y-13220000D02*
X18590000Y-13220000D01*
X18550000Y-13942000D02*
X18550000Y-14022000D01*
X18510000Y-13982000D02*
X18590000Y-13982000D01*
X18551000Y-16545500D02*
X18551000Y-16625500D01*
X18511000Y-16585500D02*
X18591000Y-16585500D01*
X18551000Y-17307500D02*
X18551000Y-17387500D01*
X18511000Y-17347500D02*
X18591000Y-17347500D01*
X18606500Y-15810000D02*
X18606500Y-15890000D01*
X18566500Y-15850000D02*
X18646500Y-15850000D01*
X18791000Y-18141500D02*
X18791000Y-18221500D01*
X18751000Y-18181500D02*
X18831000Y-18181500D01*
X18802000Y-18831500D02*
X18802000Y-18911500D01*
X18762000Y-18871500D02*
X18842000Y-18871500D01*
X18802000Y-19593500D02*
X18802000Y-19673500D01*
X18762000Y-19633500D02*
X18842000Y-19633500D01*
X18803000Y-20355500D02*
X18803000Y-20435500D01*
X18763000Y-20395500D02*
X18843000Y-20395500D01*
X18803000Y-21117500D02*
X18803000Y-21197500D01*
X18763000Y-21157500D02*
X18843000Y-21157500D01*
X18804000Y-13180000D02*
X18804000Y-13260000D01*
X18764000Y-13220000D02*
X18844000Y-13220000D01*
X18804000Y-13942000D02*
X18804000Y-14022000D01*
X18764000Y-13982000D02*
X18844000Y-13982000D01*
X18805000Y-16545500D02*
X18805000Y-16625500D01*
X18765000Y-16585500D02*
X18845000Y-16585500D01*
X18805000Y-17307500D02*
X18805000Y-17387500D01*
X18765000Y-17347500D02*
X18845000Y-17347500D01*
X18806000Y-10685000D02*
X18806000Y-10765000D01*
X18766000Y-10725000D02*
X18846000Y-10725000D01*
X18806000Y-11460000D02*
X18806000Y-11540000D01*
X18766000Y-11500000D02*
X18846000Y-11500000D01*
X18860500Y-15810000D02*
X18860500Y-15890000D01*
X18820500Y-15850000D02*
X18900500Y-15850000D01*
X19045000Y-18141500D02*
X19045000Y-18221500D01*
X19005000Y-18181500D02*
X19085000Y-18181500D01*
X19056000Y-18831500D02*
X19056000Y-18911500D01*
X19016000Y-18871500D02*
X19096000Y-18871500D01*
X19056000Y-19593500D02*
X19056000Y-19673500D01*
X19016000Y-19633500D02*
X19096000Y-19633500D01*
X19057000Y-20355500D02*
X19057000Y-20435500D01*
X19017000Y-20395500D02*
X19097000Y-20395500D01*
X19057000Y-21117500D02*
X19057000Y-21197500D01*
X19017000Y-21157500D02*
X19097000Y-21157500D01*
X19058000Y-13180000D02*
X19058000Y-13260000D01*
X19018000Y-13220000D02*
X19098000Y-13220000D01*
X19058000Y-13942000D02*
X19058000Y-14022000D01*
X19018000Y-13982000D02*
X19098000Y-13982000D01*
X19059000Y-16545500D02*
X19059000Y-16625500D01*
X19019000Y-16585500D02*
X19099000Y-16585500D01*
X19059000Y-17307500D02*
X19059000Y-17387500D01*
X19019000Y-17347500D02*
X19099000Y-17347500D01*
X19114500Y-15810000D02*
X19114500Y-15890000D01*
X19074500Y-15850000D02*
X19154500Y-15850000D01*
X19121000Y-9244000D02*
X19121000Y-9324000D01*
X19081000Y-9284000D02*
X19161000Y-9284000D01*
X19299000Y-18141500D02*
X19299000Y-18221500D01*
X19259000Y-18181500D02*
X19339000Y-18181500D01*
X19310000Y-18831500D02*
X19310000Y-18911500D01*
X19270000Y-18871500D02*
X19350000Y-18871500D01*
X19310000Y-19593500D02*
X19310000Y-19673500D01*
X19270000Y-19633500D02*
X19350000Y-19633500D01*
X19311000Y-20355500D02*
X19311000Y-20435500D01*
X19271000Y-20395500D02*
X19351000Y-20395500D01*
X19311000Y-21117500D02*
X19311000Y-21197500D01*
X19271000Y-21157500D02*
X19351000Y-21157500D01*
X19311500Y-21753500D02*
X19311500Y-21833500D01*
X19271500Y-21793500D02*
X19351500Y-21793500D01*
X19312000Y-13180000D02*
X19312000Y-13260000D01*
X19272000Y-13220000D02*
X19352000Y-13220000D01*
X19312000Y-13942000D02*
X19312000Y-14022000D01*
X19272000Y-13982000D02*
X19352000Y-13982000D01*
X19313000Y-16545500D02*
X19313000Y-16625500D01*
X19273000Y-16585500D02*
X19353000Y-16585500D01*
X19313000Y-17307500D02*
X19313000Y-17387500D01*
X19273000Y-17347500D02*
X19353000Y-17347500D01*
X19561500Y-21753500D02*
X19561500Y-21833500D01*
X19521500Y-21793500D02*
X19601500Y-21793500D01*
X20524490Y-18007000D02*
X20524490Y-18087000D01*
X20484490Y-18047000D02*
X20564490Y-18047000D01*
X20708500Y-14768500D02*
X20708500Y-14848500D01*
X20668500Y-14808500D02*
X20748500Y-14808500D01*
X20708500Y-15268500D02*
X20708500Y-15348500D01*
X20668500Y-15308500D02*
X20748500Y-15308500D01*
X20774490Y-18007000D02*
X20774490Y-18087000D01*
X20734490Y-18047000D02*
X20814490Y-18047000D01*
X22294500Y-14324500D02*
X22294500Y-14404500D01*
X22254500Y-14364500D02*
X22334500Y-14364500D01*
X22294500Y-15848500D02*
X22294500Y-15928500D01*
X22254500Y-15888500D02*
X22334500Y-15888500D01*
X22548500Y-14324500D02*
X22548500Y-14404500D01*
X22508500Y-14364500D02*
X22588500Y-14364500D01*
X22548500Y-15848500D02*
X22548500Y-15928500D01*
X22508500Y-15888500D02*
X22588500Y-15888500D01*
X22613500Y-10458500D02*
X22613500Y-10538500D01*
X22573500Y-10498500D02*
X22653500Y-10498500D01*
X22613500Y-10958500D02*
X22613500Y-11038500D01*
X22573500Y-10998500D02*
X22653500Y-10998500D01*
X22613500Y-17316500D02*
X22613500Y-17396500D01*
X22573500Y-17356500D02*
X22653500Y-17356500D01*
X22613500Y-17816500D02*
X22613500Y-17896500D01*
X22573500Y-17856500D02*
X22653500Y-17856500D01*
X22613500Y-18900000D02*
X22613500Y-18980000D01*
X22573500Y-18940000D02*
X22653500Y-18940000D01*
X22613500Y-19400000D02*
X22613500Y-19480000D01*
X22573500Y-19440000D02*
X22653500Y-19440000D01*
X22677000Y-11982500D02*
X22677000Y-12062500D01*
X22637000Y-12022500D02*
X22717000Y-12022500D01*
X22677000Y-12482500D02*
X22677000Y-12562500D01*
X22637000Y-12522500D02*
X22717000Y-12522500D01*
X22802500Y-14324500D02*
X22802500Y-14404500D01*
X22762500Y-14364500D02*
X22842500Y-14364500D01*
X22802500Y-15848500D02*
X22802500Y-15928500D01*
X22762500Y-15888500D02*
X22842500Y-15888500D01*
X23056500Y-14324500D02*
X23056500Y-14404500D01*
X23016500Y-14364500D02*
X23096500Y-14364500D01*
X23056500Y-15848500D02*
X23056500Y-15928500D01*
X23016500Y-15888500D02*
X23096500Y-15888500D01*
X23310500Y-14324500D02*
X23310500Y-14404500D01*
X23270500Y-14364500D02*
X23350500Y-14364500D01*
X23310500Y-15848500D02*
X23310500Y-15928500D01*
X23270500Y-15888500D02*
X23350500Y-15888500D01*
X23312000Y-10386000D02*
X23312000Y-10466000D01*
X23272000Y-10426000D02*
X23352000Y-10426000D01*
X23312000Y-11148000D02*
X23312000Y-11228000D01*
X23272000Y-11188000D02*
X23352000Y-11188000D01*
X23314500Y-11910000D02*
X23314500Y-11990000D01*
X23274500Y-11950000D02*
X23354500Y-11950000D01*
X23314500Y-12672000D02*
X23314500Y-12752000D01*
X23274500Y-12712000D02*
X23354500Y-12712000D01*
X23314500Y-17181500D02*
X23314500Y-17261500D01*
X23274500Y-17221500D02*
X23354500Y-17221500D01*
X23314500Y-17943500D02*
X23314500Y-18023500D01*
X23274500Y-17983500D02*
X23354500Y-17983500D01*
X23314500Y-18768500D02*
X23314500Y-18848500D01*
X23274500Y-18808500D02*
X23354500Y-18808500D01*
X23314500Y-19530500D02*
X23314500Y-19610500D01*
X23274500Y-19570500D02*
X23354500Y-19570500D01*
X23439000Y-20491500D02*
X23439000Y-20571500D01*
X23399000Y-20531500D02*
X23479000Y-20531500D01*
X23439000Y-20991500D02*
X23439000Y-21071500D01*
X23399000Y-21031500D02*
X23479000Y-21031500D01*
X23564500Y-14324500D02*
X23564500Y-14404500D01*
X23524500Y-14364500D02*
X23604500Y-14364500D01*
X23564500Y-15848500D02*
X23564500Y-15928500D01*
X23524500Y-15888500D02*
X23604500Y-15888500D01*
X23566000Y-10386000D02*
X23566000Y-10466000D01*
X23526000Y-10426000D02*
X23606000Y-10426000D01*
X23566000Y-11148000D02*
X23566000Y-11228000D01*
X23526000Y-11188000D02*
X23606000Y-11188000D01*
X23568500Y-11910000D02*
X23568500Y-11990000D01*
X23528500Y-11950000D02*
X23608500Y-11950000D01*
X23568500Y-12672000D02*
X23568500Y-12752000D01*
X23528500Y-12712000D02*
X23608500Y-12712000D01*
X23568500Y-17181500D02*
X23568500Y-17261500D01*
X23528500Y-17221500D02*
X23608500Y-17221500D01*
X23568500Y-17943500D02*
X23568500Y-18023500D01*
X23528500Y-17983500D02*
X23608500Y-17983500D01*
X23568500Y-18768500D02*
X23568500Y-18848500D01*
X23528500Y-18808500D02*
X23608500Y-18808500D01*
X23568500Y-19530500D02*
X23568500Y-19610500D01*
X23528500Y-19570500D02*
X23608500Y-19570500D01*
X23818500Y-14324500D02*
X23818500Y-14404500D01*
X23778500Y-14364500D02*
X23858500Y-14364500D01*
X23818500Y-15848500D02*
X23818500Y-15928500D01*
X23778500Y-15888500D02*
X23858500Y-15888500D01*
X23820000Y-10386000D02*
X23820000Y-10466000D01*
X23780000Y-10426000D02*
X23860000Y-10426000D01*
X23820000Y-11148000D02*
X23820000Y-11228000D01*
X23780000Y-11188000D02*
X23860000Y-11188000D01*
X23822500Y-11910000D02*
X23822500Y-11990000D01*
X23782500Y-11950000D02*
X23862500Y-11950000D01*
X23822500Y-12672000D02*
X23822500Y-12752000D01*
X23782500Y-12712000D02*
X23862500Y-12712000D01*
X23822500Y-17181500D02*
X23822500Y-17261500D01*
X23782500Y-17221500D02*
X23862500Y-17221500D01*
X23822500Y-17943500D02*
X23822500Y-18023500D01*
X23782500Y-17983500D02*
X23862500Y-17983500D01*
X23822500Y-18768500D02*
X23822500Y-18848500D01*
X23782500Y-18808500D02*
X23862500Y-18808500D01*
X23822500Y-19530500D02*
X23822500Y-19610500D01*
X23782500Y-19570500D02*
X23862500Y-19570500D01*
X24072500Y-14324500D02*
X24072500Y-14404500D01*
X24032500Y-14364500D02*
X24112500Y-14364500D01*
X24072500Y-15848500D02*
X24072500Y-15928500D01*
X24032500Y-15888500D02*
X24112500Y-15888500D01*
X24074000Y-10386000D02*
X24074000Y-10466000D01*
X24034000Y-10426000D02*
X24114000Y-10426000D01*
X24074000Y-11148000D02*
X24074000Y-11228000D01*
X24034000Y-11188000D02*
X24114000Y-11188000D01*
X24074500Y-20355500D02*
X24074500Y-20435500D01*
X24034500Y-20395500D02*
X24114500Y-20395500D01*
X24074500Y-21117500D02*
X24074500Y-21197500D01*
X24034500Y-21157500D02*
X24114500Y-21157500D01*
X24076500Y-11910000D02*
X24076500Y-11990000D01*
X24036500Y-11950000D02*
X24116500Y-11950000D01*
X24076500Y-12672000D02*
X24076500Y-12752000D01*
X24036500Y-12712000D02*
X24116500Y-12712000D01*
X24076500Y-17181500D02*
X24076500Y-17261500D01*
X24036500Y-17221500D02*
X24116500Y-17221500D01*
X24076500Y-17943500D02*
X24076500Y-18023500D01*
X24036500Y-17983500D02*
X24116500Y-17983500D01*
X24076500Y-18768500D02*
X24076500Y-18848500D01*
X24036500Y-18808500D02*
X24116500Y-18808500D01*
X24076500Y-19530500D02*
X24076500Y-19610500D01*
X24036500Y-19570500D02*
X24116500Y-19570500D01*
X24326500Y-14324500D02*
X24326500Y-14404500D01*
X24286500Y-14364500D02*
X24366500Y-14364500D01*
X24326500Y-15848500D02*
X24326500Y-15928500D01*
X24286500Y-15888500D02*
X24366500Y-15888500D01*
X24328000Y-10386000D02*
X24328000Y-10466000D01*
X24288000Y-10426000D02*
X24368000Y-10426000D01*
X24328000Y-11148000D02*
X24328000Y-11228000D01*
X24288000Y-11188000D02*
X24368000Y-11188000D01*
X24328500Y-20355500D02*
X24328500Y-20435500D01*
X24288500Y-20395500D02*
X24368500Y-20395500D01*
X24328500Y-21117500D02*
X24328500Y-21197500D01*
X24288500Y-21157500D02*
X24368500Y-21157500D01*
X24330500Y-11910000D02*
X24330500Y-11990000D01*
X24290500Y-11950000D02*
X24370500Y-11950000D01*
X24330500Y-12672000D02*
X24330500Y-12752000D01*
X24290500Y-12712000D02*
X24370500Y-12712000D01*
X24330500Y-17181500D02*
X24330500Y-17261500D01*
X24290500Y-17221500D02*
X24370500Y-17221500D01*
X24330500Y-17943500D02*
X24330500Y-18023500D01*
X24290500Y-17983500D02*
X24370500Y-17983500D01*
X24330500Y-18768500D02*
X24330500Y-18848500D01*
X24290500Y-18808500D02*
X24370500Y-18808500D01*
X24330500Y-19530500D02*
X24330500Y-19610500D01*
X24290500Y-19570500D02*
X24370500Y-19570500D01*
X24580500Y-14324500D02*
X24580500Y-14404500D01*
X24540500Y-14364500D02*
X24620500Y-14364500D01*
X24580500Y-15848500D02*
X24580500Y-15928500D01*
X24540500Y-15888500D02*
X24620500Y-15888500D01*
X24582000Y-10386000D02*
X24582000Y-10466000D01*
X24542000Y-10426000D02*
X24622000Y-10426000D01*
X24582000Y-11148000D02*
X24582000Y-11228000D01*
X24542000Y-11188000D02*
X24622000Y-11188000D01*
X24582500Y-20355500D02*
X24582500Y-20435500D01*
X24542500Y-20395500D02*
X24622500Y-20395500D01*
X24582500Y-21117500D02*
X24582500Y-21197500D01*
X24542500Y-21157500D02*
X24622500Y-21157500D01*
X24584500Y-11910000D02*
X24584500Y-11990000D01*
X24544500Y-11950000D02*
X24624500Y-11950000D01*
X24584500Y-12672000D02*
X24584500Y-12752000D01*
X24544500Y-12712000D02*
X24624500Y-12712000D01*
X24584500Y-17181500D02*
X24584500Y-17261500D01*
X24544500Y-17221500D02*
X24624500Y-17221500D01*
X24584500Y-17943500D02*
X24584500Y-18023500D01*
X24544500Y-17983500D02*
X24624500Y-17983500D01*
X24584500Y-18768500D02*
X24584500Y-18848500D01*
X24544500Y-18808500D02*
X24624500Y-18808500D01*
X24584500Y-19530500D02*
X24584500Y-19610500D01*
X24544500Y-19570500D02*
X24624500Y-19570500D01*
X24834500Y-14324500D02*
X24834500Y-14404500D01*
X24794500Y-14364500D02*
X24874500Y-14364500D01*
X24834500Y-15848500D02*
X24834500Y-15928500D01*
X24794500Y-15888500D02*
X24874500Y-15888500D01*
X24836000Y-10386000D02*
X24836000Y-10466000D01*
X24796000Y-10426000D02*
X24876000Y-10426000D01*
X24836000Y-11148000D02*
X24836000Y-11228000D01*
X24796000Y-11188000D02*
X24876000Y-11188000D01*
X24836500Y-20355500D02*
X24836500Y-20435500D01*
X24796500Y-20395500D02*
X24876500Y-20395500D01*
X24836500Y-21117500D02*
X24836500Y-21197500D01*
X24796500Y-21157500D02*
X24876500Y-21157500D01*
X24838500Y-11910000D02*
X24838500Y-11990000D01*
X24798500Y-11950000D02*
X24878500Y-11950000D01*
X24838500Y-12672000D02*
X24838500Y-12752000D01*
X24798500Y-12712000D02*
X24878500Y-12712000D01*
X24838500Y-17181500D02*
X24838500Y-17261500D01*
X24798500Y-17221500D02*
X24878500Y-17221500D01*
X24838500Y-17943500D02*
X24838500Y-18023500D01*
X24798500Y-17983500D02*
X24878500Y-17983500D01*
X24838500Y-18768500D02*
X24838500Y-18848500D01*
X24798500Y-18808500D02*
X24878500Y-18808500D01*
X24838500Y-19530500D02*
X24838500Y-19610500D01*
X24798500Y-19570500D02*
X24878500Y-19570500D01*
X25088500Y-14324500D02*
X25088500Y-14404500D01*
X25048500Y-14364500D02*
X25128500Y-14364500D01*
X25088500Y-15848500D02*
X25088500Y-15928500D01*
X25048500Y-15888500D02*
X25128500Y-15888500D01*
X25090500Y-20355500D02*
X25090500Y-20435500D01*
X25050500Y-20395500D02*
X25130500Y-20395500D01*
X25090500Y-21117500D02*
X25090500Y-21197500D01*
X25050500Y-21157500D02*
X25130500Y-21157500D01*
X25092500Y-11910000D02*
X25092500Y-11990000D01*
X25052500Y-11950000D02*
X25132500Y-11950000D01*
X25092500Y-12672000D02*
X25092500Y-12752000D01*
X25052500Y-12712000D02*
X25132500Y-12712000D01*
X25092500Y-17181500D02*
X25092500Y-17261500D01*
X25052500Y-17221500D02*
X25132500Y-17221500D01*
X25092500Y-17943500D02*
X25092500Y-18023500D01*
X25052500Y-17983500D02*
X25132500Y-17983500D01*
X25092500Y-18768500D02*
X25092500Y-18848500D01*
X25052500Y-18808500D02*
X25132500Y-18808500D01*
X25092500Y-19530500D02*
X25092500Y-19610500D01*
X25052500Y-19570500D02*
X25132500Y-19570500D01*
X25342500Y-14324500D02*
X25342500Y-14404500D01*
X25302500Y-14364500D02*
X25382500Y-14364500D01*
X25342500Y-15848500D02*
X25342500Y-15928500D01*
X25302500Y-15888500D02*
X25382500Y-15888500D01*
X25344500Y-20355500D02*
X25344500Y-20435500D01*
X25304500Y-20395500D02*
X25384500Y-20395500D01*
X25344500Y-21117500D02*
X25344500Y-21197500D01*
X25304500Y-21157500D02*
X25384500Y-21157500D01*
X25346500Y-11910000D02*
X25346500Y-11990000D01*
X25306500Y-11950000D02*
X25386500Y-11950000D01*
X25346500Y-12672000D02*
X25346500Y-12752000D01*
X25306500Y-12712000D02*
X25386500Y-12712000D01*
X25346500Y-17181500D02*
X25346500Y-17261500D01*
X25306500Y-17221500D02*
X25386500Y-17221500D01*
X25346500Y-17943500D02*
X25346500Y-18023500D01*
X25306500Y-17983500D02*
X25386500Y-17983500D01*
X25346500Y-18768500D02*
X25346500Y-18848500D01*
X25306500Y-18808500D02*
X25386500Y-18808500D01*
X25346500Y-19530500D02*
X25346500Y-19610500D01*
X25306500Y-19570500D02*
X25386500Y-19570500D01*
X25596500Y-14324500D02*
X25596500Y-14404500D01*
X25556500Y-14364500D02*
X25636500Y-14364500D01*
X25596500Y-15848500D02*
X25596500Y-15928500D01*
X25556500Y-15888500D02*
X25636500Y-15888500D01*
X25598500Y-20355500D02*
X25598500Y-20435500D01*
X25558500Y-20395500D02*
X25638500Y-20395500D01*
X25598500Y-21117500D02*
X25598500Y-21197500D01*
X25558500Y-21157500D02*
X25638500Y-21157500D01*
X25600500Y-11910000D02*
X25600500Y-11990000D01*
X25560500Y-11950000D02*
X25640500Y-11950000D01*
X25600500Y-12672000D02*
X25600500Y-12752000D01*
X25560500Y-12712000D02*
X25640500Y-12712000D01*
X25600500Y-17181500D02*
X25600500Y-17261500D01*
X25560500Y-17221500D02*
X25640500Y-17221500D01*
X25600500Y-17943500D02*
X25600500Y-18023500D01*
X25560500Y-17983500D02*
X25640500Y-17983500D01*
X25600500Y-18768500D02*
X25600500Y-18848500D01*
X25560500Y-18808500D02*
X25640500Y-18808500D01*
X25600500Y-19530500D02*
X25600500Y-19610500D01*
X25560500Y-19570500D02*
X25640500Y-19570500D01*
D15*
X4831570Y-8138320D02*
X4831570Y-8074680D01*
X4767930Y-8074680D01*
X4767930Y-8138320D01*
X4831570Y-8138320D01*
X5085570Y-8138320D02*
X5085570Y-8074680D01*
X5021930Y-8074680D01*
X5021930Y-8138320D01*
X5085570Y-8138320D01*
X5752320Y-8138320D02*
X5752320Y-8074680D01*
X5688680Y-8074680D01*
X5688680Y-8138320D01*
X5752320Y-8138320D01*
X6006320Y-8138320D02*
X6006320Y-8074680D01*
X5942680Y-8074680D01*
X5942680Y-8138320D01*
X6006320Y-8138320D01*
X6673070Y-8138320D02*
X6673070Y-8074680D01*
X6609430Y-8074680D01*
X6609430Y-8138320D01*
X6673070Y-8138320D01*
X6927070Y-8138320D02*
X6927070Y-8074680D01*
X6863430Y-8074680D01*
X6863430Y-8138320D01*
X6927070Y-8138320D01*
X7593820Y-8138320D02*
X7593820Y-8074680D01*
X7530180Y-8074680D01*
X7530180Y-8138320D01*
X7593820Y-8138320D01*
X7847820Y-8138320D02*
X7847820Y-8074680D01*
X7784180Y-8074680D01*
X7784180Y-8138320D01*
X7847820Y-8138320D01*
X8514570Y-8138320D02*
X8514570Y-8074680D01*
X8450930Y-8074680D01*
X8450930Y-8138320D01*
X8514570Y-8138320D01*
X8768570Y-8138320D02*
X8768570Y-8074680D01*
X8704930Y-8074680D01*
X8704930Y-8138320D01*
X8768570Y-8138320D01*
X9371820Y-8138320D02*
X9371820Y-8074680D01*
X9308180Y-8074680D01*
X9308180Y-8138320D01*
X9371820Y-8138320D01*
X9625820Y-8138320D02*
X9625820Y-8074680D01*
X9562180Y-8074680D01*
X9562180Y-8138320D01*
X9625820Y-8138320D01*
X22829320Y-9006820D02*
X22829320Y-8943180D01*
X22765680Y-8943180D01*
X22765680Y-9006820D01*
X22829320Y-9006820D01*
X23083320Y-9006820D02*
X23083320Y-8943180D01*
X23019680Y-8943180D01*
X23019680Y-9006820D01*
X23083320Y-9006820D01*
X23854320Y-9006820D02*
X23854320Y-8943180D01*
X23790680Y-8943180D01*
X23790680Y-9006820D01*
X23854320Y-9006820D01*
X24108320Y-9006820D02*
X24108320Y-8943180D01*
X24044680Y-8943180D01*
X24044680Y-9006820D01*
X24108320Y-9006820D01*
D16*
X25022500Y-7645750D02*
X25072000Y-7596250D01*
X25022500Y-7546750D01*
X24973000Y-7596250D01*
X25022500Y-7645750D01*
X25472500Y-7645750D02*
X25522000Y-7596250D01*
X25472500Y-7546750D01*
X25423000Y-7596250D01*
X25472500Y-7645750D01*
D17*
X4654000Y-22250000D02*
X4754000Y-22350000D01*
X4754000Y-22250000D02*
X4654000Y-22350000D01*
X4754000Y-22300000D02*
G75*
G03*
X4754000Y-22300000I-50000J0D01*
G01*
X4654000Y-22504000D02*
X4754000Y-22604000D01*
X4754000Y-22504000D02*
X4654000Y-22604000D01*
X4754000Y-22554000D02*
G75*
G03*
X4754000Y-22554000I-50000J0D01*
G01*
X4908000Y-22250000D02*
X5008000Y-22350000D01*
X5008000Y-22250000D02*
X4908000Y-22350000D01*
X5008000Y-22300000D02*
G75*
G03*
X5008000Y-22300000I-50000J0D01*
G01*
X4908000Y-22504000D02*
X5008000Y-22604000D01*
X5008000Y-22504000D02*
X4908000Y-22604000D01*
X5008000Y-22554000D02*
G75*
G03*
X5008000Y-22554000I-50000J0D01*
G01*
X4974000Y-20727500D02*
X5074000Y-20827500D01*
X5074000Y-20727500D02*
X4974000Y-20827500D01*
X5074000Y-20777500D02*
G75*
G03*
X5074000Y-20777500I-50000J0D01*
G01*
X5162000Y-22250000D02*
X5262000Y-22350000D01*
X5262000Y-22250000D02*
X5162000Y-22350000D01*
X5262000Y-22300000D02*
G75*
G03*
X5262000Y-22300000I-50000J0D01*
G01*
X5162000Y-22504000D02*
X5262000Y-22604000D01*
X5262000Y-22504000D02*
X5162000Y-22604000D01*
X5262000Y-22554000D02*
G75*
G03*
X5262000Y-22554000I-50000J0D01*
G01*
X5228000Y-20727500D02*
X5328000Y-20827500D01*
X5328000Y-20727500D02*
X5228000Y-20827500D01*
X5328000Y-20777500D02*
G75*
G03*
X5328000Y-20777500I-50000J0D01*
G01*
X5416000Y-22250000D02*
X5516000Y-22350000D01*
X5516000Y-22250000D02*
X5416000Y-22350000D01*
X5516000Y-22300000D02*
G75*
G03*
X5516000Y-22300000I-50000J0D01*
G01*
X5416000Y-22504000D02*
X5516000Y-22604000D01*
X5516000Y-22504000D02*
X5416000Y-22604000D01*
X5516000Y-22554000D02*
G75*
G03*
X5516000Y-22554000I-50000J0D01*
G01*
X5670000Y-22250000D02*
X5770000Y-22350000D01*
X5770000Y-22250000D02*
X5670000Y-22350000D01*
X5770000Y-22300000D02*
G75*
G03*
X5770000Y-22300000I-50000J0D01*
G01*
X5670000Y-22504000D02*
X5770000Y-22604000D01*
X5770000Y-22504000D02*
X5670000Y-22604000D01*
X5770000Y-22554000D02*
G75*
G03*
X5770000Y-22554000I-50000J0D01*
G01*
X5924000Y-22250000D02*
X6024000Y-22350000D01*
X6024000Y-22250000D02*
X5924000Y-22350000D01*
X6024000Y-22300000D02*
G75*
G03*
X6024000Y-22300000I-50000J0D01*
G01*
X5924000Y-22504000D02*
X6024000Y-22604000D01*
X6024000Y-22504000D02*
X5924000Y-22604000D01*
X6024000Y-22554000D02*
G75*
G03*
X6024000Y-22554000I-50000J0D01*
G01*
X6178000Y-22250000D02*
X6278000Y-22350000D01*
X6278000Y-22250000D02*
X6178000Y-22350000D01*
X6278000Y-22300000D02*
G75*
G03*
X6278000Y-22300000I-50000J0D01*
G01*
X6178000Y-22504000D02*
X6278000Y-22604000D01*
X6278000Y-22504000D02*
X6178000Y-22604000D01*
X6278000Y-22554000D02*
G75*
G03*
X6278000Y-22554000I-50000J0D01*
G01*
X6244000Y-20029000D02*
X6344000Y-20129000D01*
X6344000Y-20029000D02*
X6244000Y-20129000D01*
X6344000Y-20079000D02*
G75*
G03*
X6344000Y-20079000I-50000J0D01*
G01*
X6244000Y-20283000D02*
X6344000Y-20383000D01*
X6344000Y-20283000D02*
X6244000Y-20383000D01*
X6344000Y-20333000D02*
G75*
G03*
X6344000Y-20333000I-50000J0D01*
G01*
X6432000Y-22250000D02*
X6532000Y-22350000D01*
X6532000Y-22250000D02*
X6432000Y-22350000D01*
X6532000Y-22300000D02*
G75*
G03*
X6532000Y-22300000I-50000J0D01*
G01*
X6432000Y-22504000D02*
X6532000Y-22604000D01*
X6532000Y-22504000D02*
X6432000Y-22604000D01*
X6532000Y-22554000D02*
G75*
G03*
X6532000Y-22554000I-50000J0D01*
G01*
X6498000Y-20029000D02*
X6598000Y-20129000D01*
X6598000Y-20029000D02*
X6498000Y-20129000D01*
X6598000Y-20079000D02*
G75*
G03*
X6598000Y-20079000I-50000J0D01*
G01*
X6498000Y-20283000D02*
X6598000Y-20383000D01*
X6598000Y-20283000D02*
X6498000Y-20383000D01*
X6598000Y-20333000D02*
G75*
G03*
X6598000Y-20333000I-50000J0D01*
G01*
X6686000Y-22250000D02*
X6786000Y-22350000D01*
X6786000Y-22250000D02*
X6686000Y-22350000D01*
X6786000Y-22300000D02*
G75*
G03*
X6786000Y-22300000I-50000J0D01*
G01*
X6686000Y-22504000D02*
X6786000Y-22604000D01*
X6786000Y-22504000D02*
X6686000Y-22604000D01*
X6786000Y-22554000D02*
G75*
G03*
X6786000Y-22554000I-50000J0D01*
G01*
X6752000Y-20029000D02*
X6852000Y-20129000D01*
X6852000Y-20029000D02*
X6752000Y-20129000D01*
X6852000Y-20079000D02*
G75*
G03*
X6852000Y-20079000I-50000J0D01*
G01*
X6752000Y-20283000D02*
X6852000Y-20383000D01*
X6852000Y-20283000D02*
X6752000Y-20383000D01*
X6852000Y-20333000D02*
G75*
G03*
X6852000Y-20333000I-50000J0D01*
G01*
X6940000Y-22250000D02*
X7040000Y-22350000D01*
X7040000Y-22250000D02*
X6940000Y-22350000D01*
X7040000Y-22300000D02*
G75*
G03*
X7040000Y-22300000I-50000J0D01*
G01*
X6940000Y-22504000D02*
X7040000Y-22604000D01*
X7040000Y-22504000D02*
X6940000Y-22604000D01*
X7040000Y-22554000D02*
G75*
G03*
X7040000Y-22554000I-50000J0D01*
G01*
X7006000Y-20029000D02*
X7106000Y-20129000D01*
X7106000Y-20029000D02*
X7006000Y-20129000D01*
X7106000Y-20079000D02*
G75*
G03*
X7106000Y-20079000I-50000J0D01*
G01*
X7006000Y-20283000D02*
X7106000Y-20383000D01*
X7106000Y-20283000D02*
X7006000Y-20383000D01*
X7106000Y-20333000D02*
G75*
G03*
X7106000Y-20333000I-50000J0D01*
G01*
X7194000Y-22250000D02*
X7294000Y-22350000D01*
X7294000Y-22250000D02*
X7194000Y-22350000D01*
X7294000Y-22300000D02*
G75*
G03*
X7294000Y-22300000I-50000J0D01*
G01*
X7194000Y-22504000D02*
X7294000Y-22604000D01*
X7294000Y-22504000D02*
X7194000Y-22604000D01*
X7294000Y-22554000D02*
G75*
G03*
X7294000Y-22554000I-50000J0D01*
G01*
X7448000Y-22250000D02*
X7548000Y-22350000D01*
X7548000Y-22250000D02*
X7448000Y-22350000D01*
X7548000Y-22300000D02*
G75*
G03*
X7548000Y-22300000I-50000J0D01*
G01*
X7448000Y-22504000D02*
X7548000Y-22604000D01*
X7548000Y-22504000D02*
X7448000Y-22604000D01*
X7548000Y-22554000D02*
G75*
G03*
X7548000Y-22554000I-50000J0D01*
G01*
X7702000Y-22250000D02*
X7802000Y-22350000D01*
X7802000Y-22250000D02*
X7702000Y-22350000D01*
X7802000Y-22300000D02*
G75*
G03*
X7802000Y-22300000I-50000J0D01*
G01*
X7702000Y-22504000D02*
X7802000Y-22604000D01*
X7802000Y-22504000D02*
X7702000Y-22604000D01*
X7802000Y-22554000D02*
G75*
G03*
X7802000Y-22554000I-50000J0D01*
G01*
X7799250Y-10694500D02*
X7899250Y-10794500D01*
X7899250Y-10694500D02*
X7799250Y-10794500D01*
X7899250Y-10744500D02*
G75*
G03*
X7899250Y-10744500I-50000J0D01*
G01*
X7956000Y-22250000D02*
X8056000Y-22350000D01*
X8056000Y-22250000D02*
X7956000Y-22350000D01*
X8056000Y-22300000D02*
G75*
G03*
X8056000Y-22300000I-50000J0D01*
G01*
X7956000Y-22504000D02*
X8056000Y-22604000D01*
X8056000Y-22504000D02*
X7956000Y-22604000D01*
X8056000Y-22554000D02*
G75*
G03*
X8056000Y-22554000I-50000J0D01*
G01*
X8053250Y-10694500D02*
X8153250Y-10794500D01*
X8153250Y-10694500D02*
X8053250Y-10794500D01*
X8153250Y-10744500D02*
G75*
G03*
X8153250Y-10744500I-50000J0D01*
G01*
X8210000Y-22250000D02*
X8310000Y-22350000D01*
X8310000Y-22250000D02*
X8210000Y-22350000D01*
X8310000Y-22300000D02*
G75*
G03*
X8310000Y-22300000I-50000J0D01*
G01*
X8210000Y-22504000D02*
X8310000Y-22604000D01*
X8310000Y-22504000D02*
X8210000Y-22604000D01*
X8310000Y-22554000D02*
G75*
G03*
X8310000Y-22554000I-50000J0D01*
G01*
X8464000Y-22250000D02*
X8564000Y-22350000D01*
X8564000Y-22250000D02*
X8464000Y-22350000D01*
X8564000Y-22300000D02*
G75*
G03*
X8564000Y-22300000I-50000J0D01*
G01*
X8464000Y-22504000D02*
X8564000Y-22604000D01*
X8564000Y-22504000D02*
X8464000Y-22604000D01*
X8564000Y-22554000D02*
G75*
G03*
X8564000Y-22554000I-50000J0D01*
G01*
X8718000Y-22250000D02*
X8818000Y-22350000D01*
X8818000Y-22250000D02*
X8718000Y-22350000D01*
X8818000Y-22300000D02*
G75*
G03*
X8818000Y-22300000I-50000J0D01*
G01*
X8718000Y-22504000D02*
X8818000Y-22604000D01*
X8818000Y-22504000D02*
X8718000Y-22604000D01*
X8818000Y-22554000D02*
G75*
G03*
X8818000Y-22554000I-50000J0D01*
G01*
X8972000Y-22250000D02*
X9072000Y-22350000D01*
X9072000Y-22250000D02*
X8972000Y-22350000D01*
X9072000Y-22300000D02*
G75*
G03*
X9072000Y-22300000I-50000J0D01*
G01*
X8972000Y-22504000D02*
X9072000Y-22604000D01*
X9072000Y-22504000D02*
X8972000Y-22604000D01*
X9072000Y-22554000D02*
G75*
G03*
X9072000Y-22554000I-50000J0D01*
G01*
X9226000Y-22250000D02*
X9326000Y-22350000D01*
X9326000Y-22250000D02*
X9226000Y-22350000D01*
X9326000Y-22300000D02*
G75*
G03*
X9326000Y-22300000I-50000J0D01*
G01*
X9226000Y-22504000D02*
X9326000Y-22604000D01*
X9326000Y-22504000D02*
X9226000Y-22604000D01*
X9326000Y-22554000D02*
G75*
G03*
X9326000Y-22554000I-50000J0D01*
G01*
X9480000Y-22250000D02*
X9580000Y-22350000D01*
X9580000Y-22250000D02*
X9480000Y-22350000D01*
X9580000Y-22300000D02*
G75*
G03*
X9580000Y-22300000I-50000J0D01*
G01*
X9480000Y-22504000D02*
X9580000Y-22604000D01*
X9580000Y-22504000D02*
X9480000Y-22604000D01*
X9580000Y-22554000D02*
G75*
G03*
X9580000Y-22554000I-50000J0D01*
G01*
X9734000Y-22250000D02*
X9834000Y-22350000D01*
X9834000Y-22250000D02*
X9734000Y-22350000D01*
X9834000Y-22300000D02*
G75*
G03*
X9834000Y-22300000I-50000J0D01*
G01*
X9734000Y-22504000D02*
X9834000Y-22604000D01*
X9834000Y-22504000D02*
X9734000Y-22604000D01*
X9834000Y-22554000D02*
G75*
G03*
X9834000Y-22554000I-50000J0D01*
G01*
X9988000Y-22250000D02*
X10088000Y-22350000D01*
X10088000Y-22250000D02*
X9988000Y-22350000D01*
X10088000Y-22300000D02*
G75*
G03*
X10088000Y-22300000I-50000J0D01*
G01*
X9988000Y-22504000D02*
X10088000Y-22604000D01*
X10088000Y-22504000D02*
X9988000Y-22604000D01*
X10088000Y-22554000D02*
G75*
G03*
X10088000Y-22554000I-50000J0D01*
G01*
X10242000Y-22250000D02*
X10342000Y-22350000D01*
X10342000Y-22250000D02*
X10242000Y-22350000D01*
X10342000Y-22300000D02*
G75*
G03*
X10342000Y-22300000I-50000J0D01*
G01*
X10242000Y-22504000D02*
X10342000Y-22604000D01*
X10342000Y-22504000D02*
X10242000Y-22604000D01*
X10342000Y-22554000D02*
G75*
G03*
X10342000Y-22554000I-50000J0D01*
G01*
X10436000Y-8077000D02*
X10536000Y-8177000D01*
X10536000Y-8077000D02*
X10436000Y-8177000D01*
X10536000Y-8127000D02*
G75*
G03*
X10536000Y-8127000I-50000J0D01*
G01*
X10496000Y-22250000D02*
X10596000Y-22350000D01*
X10596000Y-22250000D02*
X10496000Y-22350000D01*
X10596000Y-22300000D02*
G75*
G03*
X10596000Y-22300000I-50000J0D01*
G01*
X10496000Y-22504000D02*
X10596000Y-22604000D01*
X10596000Y-22504000D02*
X10496000Y-22604000D01*
X10596000Y-22554000D02*
G75*
G03*
X10596000Y-22554000I-50000J0D01*
G01*
X10690000Y-8077000D02*
X10790000Y-8177000D01*
X10790000Y-8077000D02*
X10690000Y-8177000D01*
X10790000Y-8127000D02*
G75*
G03*
X10790000Y-8127000I-50000J0D01*
G01*
X10750000Y-22250000D02*
X10850000Y-22350000D01*
X10850000Y-22250000D02*
X10750000Y-22350000D01*
X10850000Y-22300000D02*
G75*
G03*
X10850000Y-22300000I-50000J0D01*
G01*
X10750000Y-22504000D02*
X10850000Y-22604000D01*
X10850000Y-22504000D02*
X10750000Y-22604000D01*
X10850000Y-22554000D02*
G75*
G03*
X10850000Y-22554000I-50000J0D01*
G01*
X10944000Y-8077000D02*
X11044000Y-8177000D01*
X11044000Y-8077000D02*
X10944000Y-8177000D01*
X11044000Y-8127000D02*
G75*
G03*
X11044000Y-8127000I-50000J0D01*
G01*
X11643000Y-8084000D02*
X11743000Y-8184000D01*
X11743000Y-8084000D02*
X11643000Y-8184000D01*
X11743000Y-8134000D02*
G75*
G03*
X11743000Y-8134000I-50000J0D01*
G01*
X11897000Y-8084000D02*
X11997000Y-8184000D01*
X11997000Y-8084000D02*
X11897000Y-8184000D01*
X11997000Y-8134000D02*
G75*
G03*
X11997000Y-8134000I-50000J0D01*
G01*
X12054000Y-22250000D02*
X12154000Y-22350000D01*
X12154000Y-22250000D02*
X12054000Y-22350000D01*
X12154000Y-22300000D02*
G75*
G03*
X12154000Y-22300000I-50000J0D01*
G01*
X12054000Y-22504000D02*
X12154000Y-22604000D01*
X12154000Y-22504000D02*
X12054000Y-22604000D01*
X12154000Y-22554000D02*
G75*
G03*
X12154000Y-22554000I-50000J0D01*
G01*
X12151000Y-8084000D02*
X12251000Y-8184000D01*
X12251000Y-8084000D02*
X12151000Y-8184000D01*
X12251000Y-8134000D02*
G75*
G03*
X12251000Y-8134000I-50000J0D01*
G01*
X12308000Y-22250000D02*
X12408000Y-22350000D01*
X12408000Y-22250000D02*
X12308000Y-22350000D01*
X12408000Y-22300000D02*
G75*
G03*
X12408000Y-22300000I-50000J0D01*
G01*
X12308000Y-22504000D02*
X12408000Y-22604000D01*
X12408000Y-22504000D02*
X12308000Y-22604000D01*
X12408000Y-22554000D02*
G75*
G03*
X12408000Y-22554000I-50000J0D01*
G01*
X12562000Y-22250000D02*
X12662000Y-22350000D01*
X12662000Y-22250000D02*
X12562000Y-22350000D01*
X12662000Y-22300000D02*
G75*
G03*
X12662000Y-22300000I-50000J0D01*
G01*
X12562000Y-22504000D02*
X12662000Y-22604000D01*
X12662000Y-22504000D02*
X12562000Y-22604000D01*
X12662000Y-22554000D02*
G75*
G03*
X12662000Y-22554000I-50000J0D01*
G01*
X12816000Y-22250000D02*
X12916000Y-22350000D01*
X12916000Y-22250000D02*
X12816000Y-22350000D01*
X12916000Y-22300000D02*
G75*
G03*
X12916000Y-22300000I-50000J0D01*
G01*
X12816000Y-22504000D02*
X12916000Y-22604000D01*
X12916000Y-22504000D02*
X12816000Y-22604000D01*
X12916000Y-22554000D02*
G75*
G03*
X12916000Y-22554000I-50000J0D01*
G01*
X12848000Y-8091000D02*
X12948000Y-8191000D01*
X12948000Y-8091000D02*
X12848000Y-8191000D01*
X12948000Y-8141000D02*
G75*
G03*
X12948000Y-8141000I-50000J0D01*
G01*
X13070000Y-22250000D02*
X13170000Y-22350000D01*
X13170000Y-22250000D02*
X13070000Y-22350000D01*
X13170000Y-22300000D02*
G75*
G03*
X13170000Y-22300000I-50000J0D01*
G01*
X13070000Y-22504000D02*
X13170000Y-22604000D01*
X13170000Y-22504000D02*
X13070000Y-22604000D01*
X13170000Y-22554000D02*
G75*
G03*
X13170000Y-22554000I-50000J0D01*
G01*
X13102000Y-8091000D02*
X13202000Y-8191000D01*
X13202000Y-8091000D02*
X13102000Y-8191000D01*
X13202000Y-8141000D02*
G75*
G03*
X13202000Y-8141000I-50000J0D01*
G01*
X13324000Y-22250000D02*
X13424000Y-22350000D01*
X13424000Y-22250000D02*
X13324000Y-22350000D01*
X13424000Y-22300000D02*
G75*
G03*
X13424000Y-22300000I-50000J0D01*
G01*
X13324000Y-22504000D02*
X13424000Y-22604000D01*
X13424000Y-22504000D02*
X13324000Y-22604000D01*
X13424000Y-22554000D02*
G75*
G03*
X13424000Y-22554000I-50000J0D01*
G01*
X13356000Y-8091000D02*
X13456000Y-8191000D01*
X13456000Y-8091000D02*
X13356000Y-8191000D01*
X13456000Y-8141000D02*
G75*
G03*
X13456000Y-8141000I-50000J0D01*
G01*
X13578000Y-22250000D02*
X13678000Y-22350000D01*
X13678000Y-22250000D02*
X13578000Y-22350000D01*
X13678000Y-22300000D02*
G75*
G03*
X13678000Y-22300000I-50000J0D01*
G01*
X13578000Y-22504000D02*
X13678000Y-22604000D01*
X13678000Y-22504000D02*
X13578000Y-22604000D01*
X13678000Y-22554000D02*
G75*
G03*
X13678000Y-22554000I-50000J0D01*
G01*
X13832000Y-22250000D02*
X13932000Y-22350000D01*
X13932000Y-22250000D02*
X13832000Y-22350000D01*
X13932000Y-22300000D02*
G75*
G03*
X13932000Y-22300000I-50000J0D01*
G01*
X13832000Y-22504000D02*
X13932000Y-22604000D01*
X13932000Y-22504000D02*
X13832000Y-22604000D01*
X13932000Y-22554000D02*
G75*
G03*
X13932000Y-22554000I-50000J0D01*
G01*
X14086000Y-22250000D02*
X14186000Y-22350000D01*
X14186000Y-22250000D02*
X14086000Y-22350000D01*
X14186000Y-22300000D02*
G75*
G03*
X14186000Y-22300000I-50000J0D01*
G01*
X14086000Y-22504000D02*
X14186000Y-22604000D01*
X14186000Y-22504000D02*
X14086000Y-22604000D01*
X14186000Y-22554000D02*
G75*
G03*
X14186000Y-22554000I-50000J0D01*
G01*
X14340000Y-22250000D02*
X14440000Y-22350000D01*
X14440000Y-22250000D02*
X14340000Y-22350000D01*
X14440000Y-22300000D02*
G75*
G03*
X14440000Y-22300000I-50000J0D01*
G01*
X14340000Y-22504000D02*
X14440000Y-22604000D01*
X14440000Y-22504000D02*
X14340000Y-22604000D01*
X14440000Y-22554000D02*
G75*
G03*
X14440000Y-22554000I-50000J0D01*
G01*
X14499000Y-8161250D02*
X14599000Y-8261250D01*
X14599000Y-8161250D02*
X14499000Y-8261250D01*
X14599000Y-8211250D02*
G75*
G03*
X14599000Y-8211250I-50000J0D01*
G01*
X14499000Y-8415250D02*
X14599000Y-8515250D01*
X14599000Y-8415250D02*
X14499000Y-8515250D01*
X14599000Y-8465250D02*
G75*
G03*
X14599000Y-8465250I-50000J0D01*
G01*
X14594000Y-22250000D02*
X14694000Y-22350000D01*
X14694000Y-22250000D02*
X14594000Y-22350000D01*
X14694000Y-22300000D02*
G75*
G03*
X14694000Y-22300000I-50000J0D01*
G01*
X14594000Y-22504000D02*
X14694000Y-22604000D01*
X14694000Y-22504000D02*
X14594000Y-22604000D01*
X14694000Y-22554000D02*
G75*
G03*
X14694000Y-22554000I-50000J0D01*
G01*
X14753000Y-8161250D02*
X14853000Y-8261250D01*
X14853000Y-8161250D02*
X14753000Y-8261250D01*
X14853000Y-8211250D02*
G75*
G03*
X14853000Y-8211250I-50000J0D01*
G01*
X14753000Y-8415250D02*
X14853000Y-8515250D01*
X14853000Y-8415250D02*
X14753000Y-8515250D01*
X14853000Y-8465250D02*
G75*
G03*
X14853000Y-8465250I-50000J0D01*
G01*
X14848000Y-22250000D02*
X14948000Y-22350000D01*
X14948000Y-22250000D02*
X14848000Y-22350000D01*
X14948000Y-22300000D02*
G75*
G03*
X14948000Y-22300000I-50000J0D01*
G01*
X14848000Y-22504000D02*
X14948000Y-22604000D01*
X14948000Y-22504000D02*
X14848000Y-22604000D01*
X14948000Y-22554000D02*
G75*
G03*
X14948000Y-22554000I-50000J0D01*
G01*
X15007000Y-8161250D02*
X15107000Y-8261250D01*
X15107000Y-8161250D02*
X15007000Y-8261250D01*
X15107000Y-8211250D02*
G75*
G03*
X15107000Y-8211250I-50000J0D01*
G01*
X15007000Y-8415250D02*
X15107000Y-8515250D01*
X15107000Y-8415250D02*
X15007000Y-8515250D01*
X15107000Y-8465250D02*
G75*
G03*
X15107000Y-8465250I-50000J0D01*
G01*
X15102000Y-22250000D02*
X15202000Y-22350000D01*
X15202000Y-22250000D02*
X15102000Y-22350000D01*
X15202000Y-22300000D02*
G75*
G03*
X15202000Y-22300000I-50000J0D01*
G01*
X15102000Y-22504000D02*
X15202000Y-22604000D01*
X15202000Y-22504000D02*
X15102000Y-22604000D01*
X15202000Y-22554000D02*
G75*
G03*
X15202000Y-22554000I-50000J0D01*
G01*
X15261000Y-8161250D02*
X15361000Y-8261250D01*
X15361000Y-8161250D02*
X15261000Y-8261250D01*
X15361000Y-8211250D02*
G75*
G03*
X15361000Y-8211250I-50000J0D01*
G01*
X15261000Y-8415250D02*
X15361000Y-8515250D01*
X15361000Y-8415250D02*
X15261000Y-8515250D01*
X15361000Y-8465250D02*
G75*
G03*
X15361000Y-8465250I-50000J0D01*
G01*
X15356000Y-22250000D02*
X15456000Y-22350000D01*
X15456000Y-22250000D02*
X15356000Y-22350000D01*
X15456000Y-22300000D02*
G75*
G03*
X15456000Y-22300000I-50000J0D01*
G01*
X15356000Y-22504000D02*
X15456000Y-22604000D01*
X15456000Y-22504000D02*
X15356000Y-22604000D01*
X15456000Y-22554000D02*
G75*
G03*
X15456000Y-22554000I-50000J0D01*
G01*
X15515000Y-8161250D02*
X15615000Y-8261250D01*
X15615000Y-8161250D02*
X15515000Y-8261250D01*
X15615000Y-8211250D02*
G75*
G03*
X15615000Y-8211250I-50000J0D01*
G01*
X15515000Y-8415250D02*
X15615000Y-8515250D01*
X15615000Y-8415250D02*
X15515000Y-8515250D01*
X15615000Y-8465250D02*
G75*
G03*
X15615000Y-8465250I-50000J0D01*
G01*
X15610000Y-22250000D02*
X15710000Y-22350000D01*
X15710000Y-22250000D02*
X15610000Y-22350000D01*
X15710000Y-22300000D02*
G75*
G03*
X15710000Y-22300000I-50000J0D01*
G01*
X15610000Y-22504000D02*
X15710000Y-22604000D01*
X15710000Y-22504000D02*
X15610000Y-22604000D01*
X15710000Y-22554000D02*
G75*
G03*
X15710000Y-22554000I-50000J0D01*
G01*
X15700000Y-9250000D02*
X15800000Y-9350000D01*
X15800000Y-9250000D02*
X15700000Y-9350000D01*
X15800000Y-9300000D02*
G75*
G03*
X15800000Y-9300000I-50000J0D01*
G01*
X15769000Y-8161250D02*
X15869000Y-8261250D01*
X15869000Y-8161250D02*
X15769000Y-8261250D01*
X15869000Y-8211250D02*
G75*
G03*
X15869000Y-8211250I-50000J0D01*
G01*
X15769000Y-8415250D02*
X15869000Y-8515250D01*
X15869000Y-8415250D02*
X15769000Y-8515250D01*
X15869000Y-8465250D02*
G75*
G03*
X15869000Y-8465250I-50000J0D01*
G01*
X15864000Y-22250000D02*
X15964000Y-22350000D01*
X15964000Y-22250000D02*
X15864000Y-22350000D01*
X15964000Y-22300000D02*
G75*
G03*
X15964000Y-22300000I-50000J0D01*
G01*
X15864000Y-22504000D02*
X15964000Y-22604000D01*
X15964000Y-22504000D02*
X15864000Y-22604000D01*
X15964000Y-22554000D02*
G75*
G03*
X15964000Y-22554000I-50000J0D01*
G01*
X15954000Y-9250000D02*
X16054000Y-9350000D01*
X16054000Y-9250000D02*
X15954000Y-9350000D01*
X16054000Y-9300000D02*
G75*
G03*
X16054000Y-9300000I-50000J0D01*
G01*
X16023000Y-8161250D02*
X16123000Y-8261250D01*
X16123000Y-8161250D02*
X16023000Y-8261250D01*
X16123000Y-8211250D02*
G75*
G03*
X16123000Y-8211250I-50000J0D01*
G01*
X16023000Y-8415250D02*
X16123000Y-8515250D01*
X16123000Y-8415250D02*
X16023000Y-8515250D01*
X16123000Y-8465250D02*
G75*
G03*
X16123000Y-8465250I-50000J0D01*
G01*
X16118000Y-22250000D02*
X16218000Y-22350000D01*
X16218000Y-22250000D02*
X16118000Y-22350000D01*
X16218000Y-22300000D02*
G75*
G03*
X16218000Y-22300000I-50000J0D01*
G01*
X16118000Y-22504000D02*
X16218000Y-22604000D01*
X16218000Y-22504000D02*
X16118000Y-22604000D01*
X16218000Y-22554000D02*
G75*
G03*
X16218000Y-22554000I-50000J0D01*
G01*
X16208000Y-9250000D02*
X16308000Y-9350000D01*
X16308000Y-9250000D02*
X16208000Y-9350000D01*
X16308000Y-9300000D02*
G75*
G03*
X16308000Y-9300000I-50000J0D01*
G01*
X16277000Y-8161250D02*
X16377000Y-8261250D01*
X16377000Y-8161250D02*
X16277000Y-8261250D01*
X16377000Y-8211250D02*
G75*
G03*
X16377000Y-8211250I-50000J0D01*
G01*
X16277000Y-8415250D02*
X16377000Y-8515250D01*
X16377000Y-8415250D02*
X16277000Y-8515250D01*
X16377000Y-8465250D02*
G75*
G03*
X16377000Y-8465250I-50000J0D01*
G01*
X16372000Y-22250000D02*
X16472000Y-22350000D01*
X16472000Y-22250000D02*
X16372000Y-22350000D01*
X16472000Y-22300000D02*
G75*
G03*
X16472000Y-22300000I-50000J0D01*
G01*
X16372000Y-22504000D02*
X16472000Y-22604000D01*
X16472000Y-22504000D02*
X16372000Y-22604000D01*
X16472000Y-22554000D02*
G75*
G03*
X16472000Y-22554000I-50000J0D01*
G01*
X16531000Y-8161250D02*
X16631000Y-8261250D01*
X16631000Y-8161250D02*
X16531000Y-8261250D01*
X16631000Y-8211250D02*
G75*
G03*
X16631000Y-8211250I-50000J0D01*
G01*
X16531000Y-8415250D02*
X16631000Y-8515250D01*
X16631000Y-8415250D02*
X16531000Y-8515250D01*
X16631000Y-8465250D02*
G75*
G03*
X16631000Y-8465250I-50000J0D01*
G01*
X16626000Y-22250000D02*
X16726000Y-22350000D01*
X16726000Y-22250000D02*
X16626000Y-22350000D01*
X16726000Y-22300000D02*
G75*
G03*
X16726000Y-22300000I-50000J0D01*
G01*
X16626000Y-22504000D02*
X16726000Y-22604000D01*
X16726000Y-22504000D02*
X16626000Y-22604000D01*
X16726000Y-22554000D02*
G75*
G03*
X16726000Y-22554000I-50000J0D01*
G01*
X16785000Y-8161250D02*
X16885000Y-8261250D01*
X16885000Y-8161250D02*
X16785000Y-8261250D01*
X16885000Y-8211250D02*
G75*
G03*
X16885000Y-8211250I-50000J0D01*
G01*
X16785000Y-8415250D02*
X16885000Y-8515250D01*
X16885000Y-8415250D02*
X16785000Y-8515250D01*
X16885000Y-8465250D02*
G75*
G03*
X16885000Y-8465250I-50000J0D01*
G01*
X16880000Y-22250000D02*
X16980000Y-22350000D01*
X16980000Y-22250000D02*
X16880000Y-22350000D01*
X16980000Y-22300000D02*
G75*
G03*
X16980000Y-22300000I-50000J0D01*
G01*
X16880000Y-22504000D02*
X16980000Y-22604000D01*
X16980000Y-22504000D02*
X16880000Y-22604000D01*
X16980000Y-22554000D02*
G75*
G03*
X16980000Y-22554000I-50000J0D01*
G01*
X17039000Y-8161250D02*
X17139000Y-8261250D01*
X17139000Y-8161250D02*
X17039000Y-8261250D01*
X17139000Y-8211250D02*
G75*
G03*
X17139000Y-8211250I-50000J0D01*
G01*
X17039000Y-8415250D02*
X17139000Y-8515250D01*
X17139000Y-8415250D02*
X17039000Y-8515250D01*
X17139000Y-8465250D02*
G75*
G03*
X17139000Y-8465250I-50000J0D01*
G01*
X17134000Y-22250000D02*
X17234000Y-22350000D01*
X17234000Y-22250000D02*
X17134000Y-22350000D01*
X17234000Y-22300000D02*
G75*
G03*
X17234000Y-22300000I-50000J0D01*
G01*
X17134000Y-22504000D02*
X17234000Y-22604000D01*
X17234000Y-22504000D02*
X17134000Y-22604000D01*
X17234000Y-22554000D02*
G75*
G03*
X17234000Y-22554000I-50000J0D01*
G01*
X17293000Y-8161250D02*
X17393000Y-8261250D01*
X17393000Y-8161250D02*
X17293000Y-8261250D01*
X17393000Y-8211250D02*
G75*
G03*
X17393000Y-8211250I-50000J0D01*
G01*
X17293000Y-8415250D02*
X17393000Y-8515250D01*
X17393000Y-8415250D02*
X17293000Y-8515250D01*
X17393000Y-8465250D02*
G75*
G03*
X17393000Y-8465250I-50000J0D01*
G01*
X17297000Y-15000000D02*
X17397000Y-15100000D01*
X17397000Y-15000000D02*
X17297000Y-15100000D01*
X17397000Y-15050000D02*
G75*
G03*
X17397000Y-15050000I-50000J0D01*
G01*
X17297000Y-15254000D02*
X17397000Y-15354000D01*
X17397000Y-15254000D02*
X17297000Y-15354000D01*
X17397000Y-15304000D02*
G75*
G03*
X17397000Y-15304000I-50000J0D01*
G01*
X17356500Y-9234000D02*
X17456500Y-9334000D01*
X17456500Y-9234000D02*
X17356500Y-9334000D01*
X17456500Y-9284000D02*
G75*
G03*
X17456500Y-9284000I-50000J0D01*
G01*
X17388000Y-22250000D02*
X17488000Y-22350000D01*
X17488000Y-22250000D02*
X17388000Y-22350000D01*
X17488000Y-22300000D02*
G75*
G03*
X17488000Y-22300000I-50000J0D01*
G01*
X17388000Y-22504000D02*
X17488000Y-22604000D01*
X17488000Y-22504000D02*
X17388000Y-22604000D01*
X17488000Y-22554000D02*
G75*
G03*
X17488000Y-22554000I-50000J0D01*
G01*
X17547000Y-8161250D02*
X17647000Y-8261250D01*
X17647000Y-8161250D02*
X17547000Y-8261250D01*
X17647000Y-8211250D02*
G75*
G03*
X17647000Y-8211250I-50000J0D01*
G01*
X17547000Y-8415250D02*
X17647000Y-8515250D01*
X17647000Y-8415250D02*
X17547000Y-8515250D01*
X17647000Y-8465250D02*
G75*
G03*
X17647000Y-8465250I-50000J0D01*
G01*
X17551000Y-15000000D02*
X17651000Y-15100000D01*
X17651000Y-15000000D02*
X17551000Y-15100000D01*
X17651000Y-15050000D02*
G75*
G03*
X17651000Y-15050000I-50000J0D01*
G01*
X17551000Y-15254000D02*
X17651000Y-15354000D01*
X17651000Y-15254000D02*
X17551000Y-15354000D01*
X17651000Y-15304000D02*
G75*
G03*
X17651000Y-15304000I-50000J0D01*
G01*
X17610500Y-9234000D02*
X17710500Y-9334000D01*
X17710500Y-9234000D02*
X17610500Y-9334000D01*
X17710500Y-9284000D02*
G75*
G03*
X17710500Y-9284000I-50000J0D01*
G01*
X17642000Y-22250000D02*
X17742000Y-22350000D01*
X17742000Y-22250000D02*
X17642000Y-22350000D01*
X17742000Y-22300000D02*
G75*
G03*
X17742000Y-22300000I-50000J0D01*
G01*
X17642000Y-22504000D02*
X17742000Y-22604000D01*
X17742000Y-22504000D02*
X17642000Y-22604000D01*
X17742000Y-22554000D02*
G75*
G03*
X17742000Y-22554000I-50000J0D01*
G01*
X17801000Y-8161250D02*
X17901000Y-8261250D01*
X17901000Y-8161250D02*
X17801000Y-8261250D01*
X17901000Y-8211250D02*
G75*
G03*
X17901000Y-8211250I-50000J0D01*
G01*
X17801000Y-8415250D02*
X17901000Y-8515250D01*
X17901000Y-8415250D02*
X17801000Y-8515250D01*
X17901000Y-8465250D02*
G75*
G03*
X17901000Y-8465250I-50000J0D01*
G01*
X17805000Y-15000000D02*
X17905000Y-15100000D01*
X17905000Y-15000000D02*
X17805000Y-15100000D01*
X17905000Y-15050000D02*
G75*
G03*
X17905000Y-15050000I-50000J0D01*
G01*
X17805000Y-15254000D02*
X17905000Y-15354000D01*
X17905000Y-15254000D02*
X17805000Y-15354000D01*
X17905000Y-15304000D02*
G75*
G03*
X17905000Y-15304000I-50000J0D01*
G01*
X17896000Y-22250000D02*
X17996000Y-22350000D01*
X17996000Y-22250000D02*
X17896000Y-22350000D01*
X17996000Y-22300000D02*
G75*
G03*
X17996000Y-22300000I-50000J0D01*
G01*
X17896000Y-22504000D02*
X17996000Y-22604000D01*
X17996000Y-22504000D02*
X17896000Y-22604000D01*
X17996000Y-22554000D02*
G75*
G03*
X17996000Y-22554000I-50000J0D01*
G01*
X18055000Y-8161250D02*
X18155000Y-8261250D01*
X18155000Y-8161250D02*
X18055000Y-8261250D01*
X18155000Y-8211250D02*
G75*
G03*
X18155000Y-8211250I-50000J0D01*
G01*
X18055000Y-8415250D02*
X18155000Y-8515250D01*
X18155000Y-8415250D02*
X18055000Y-8515250D01*
X18155000Y-8465250D02*
G75*
G03*
X18155000Y-8465250I-50000J0D01*
G01*
X18059000Y-15000000D02*
X18159000Y-15100000D01*
X18159000Y-15000000D02*
X18059000Y-15100000D01*
X18159000Y-15050000D02*
G75*
G03*
X18159000Y-15050000I-50000J0D01*
G01*
X18059000Y-15254000D02*
X18159000Y-15354000D01*
X18159000Y-15254000D02*
X18059000Y-15354000D01*
X18159000Y-15304000D02*
G75*
G03*
X18159000Y-15304000I-50000J0D01*
G01*
X18150000Y-22250000D02*
X18250000Y-22350000D01*
X18250000Y-22250000D02*
X18150000Y-22350000D01*
X18250000Y-22300000D02*
G75*
G03*
X18250000Y-22300000I-50000J0D01*
G01*
X18150000Y-22504000D02*
X18250000Y-22604000D01*
X18250000Y-22504000D02*
X18150000Y-22604000D01*
X18250000Y-22554000D02*
G75*
G03*
X18250000Y-22554000I-50000J0D01*
G01*
X18309000Y-8161250D02*
X18409000Y-8261250D01*
X18409000Y-8161250D02*
X18309000Y-8261250D01*
X18409000Y-8211250D02*
G75*
G03*
X18409000Y-8211250I-50000J0D01*
G01*
X18309000Y-8415250D02*
X18409000Y-8515250D01*
X18409000Y-8415250D02*
X18309000Y-8515250D01*
X18409000Y-8465250D02*
G75*
G03*
X18409000Y-8465250I-50000J0D01*
G01*
X18313000Y-15000000D02*
X18413000Y-15100000D01*
X18413000Y-15000000D02*
X18313000Y-15100000D01*
X18413000Y-15050000D02*
G75*
G03*
X18413000Y-15050000I-50000J0D01*
G01*
X18313000Y-15254000D02*
X18413000Y-15354000D01*
X18413000Y-15254000D02*
X18313000Y-15354000D01*
X18413000Y-15304000D02*
G75*
G03*
X18413000Y-15304000I-50000J0D01*
G01*
X18563000Y-8161250D02*
X18663000Y-8261250D01*
X18663000Y-8161250D02*
X18563000Y-8261250D01*
X18663000Y-8211250D02*
G75*
G03*
X18663000Y-8211250I-50000J0D01*
G01*
X18563000Y-8415250D02*
X18663000Y-8515250D01*
X18663000Y-8415250D02*
X18563000Y-8515250D01*
X18663000Y-8465250D02*
G75*
G03*
X18663000Y-8465250I-50000J0D01*
G01*
X18567000Y-15000000D02*
X18667000Y-15100000D01*
X18667000Y-15000000D02*
X18567000Y-15100000D01*
X18667000Y-15050000D02*
G75*
G03*
X18667000Y-15050000I-50000J0D01*
G01*
X18567000Y-15254000D02*
X18667000Y-15354000D01*
X18667000Y-15254000D02*
X18567000Y-15354000D01*
X18667000Y-15304000D02*
G75*
G03*
X18667000Y-15304000I-50000J0D01*
G01*
X18817000Y-8161250D02*
X18917000Y-8261250D01*
X18917000Y-8161250D02*
X18817000Y-8261250D01*
X18917000Y-8211250D02*
G75*
G03*
X18917000Y-8211250I-50000J0D01*
G01*
X18817000Y-8415250D02*
X18917000Y-8515250D01*
X18917000Y-8415250D02*
X18817000Y-8515250D01*
X18917000Y-8465250D02*
G75*
G03*
X18917000Y-8465250I-50000J0D01*
G01*
X18821000Y-15000000D02*
X18921000Y-15100000D01*
X18921000Y-15000000D02*
X18821000Y-15100000D01*
X18921000Y-15050000D02*
G75*
G03*
X18921000Y-15050000I-50000J0D01*
G01*
X18821000Y-15254000D02*
X18921000Y-15354000D01*
X18921000Y-15254000D02*
X18821000Y-15354000D01*
X18921000Y-15304000D02*
G75*
G03*
X18921000Y-15304000I-50000J0D01*
G01*
X19071000Y-8161250D02*
X19171000Y-8261250D01*
X19171000Y-8161250D02*
X19071000Y-8261250D01*
X19171000Y-8211250D02*
G75*
G03*
X19171000Y-8211250I-50000J0D01*
G01*
X19071000Y-8415250D02*
X19171000Y-8515250D01*
X19171000Y-8415250D02*
X19071000Y-8515250D01*
X19171000Y-8465250D02*
G75*
G03*
X19171000Y-8465250I-50000J0D01*
G01*
X19075000Y-15000000D02*
X19175000Y-15100000D01*
X19175000Y-15000000D02*
X19075000Y-15100000D01*
X19175000Y-15050000D02*
G75*
G03*
X19175000Y-15050000I-50000J0D01*
G01*
X19075000Y-15254000D02*
X19175000Y-15354000D01*
X19175000Y-15254000D02*
X19075000Y-15354000D01*
X19175000Y-15304000D02*
G75*
G03*
X19175000Y-15304000I-50000J0D01*
G01*
X19325000Y-8161250D02*
X19425000Y-8261250D01*
X19425000Y-8161250D02*
X19325000Y-8261250D01*
X19425000Y-8211250D02*
G75*
G03*
X19425000Y-8211250I-50000J0D01*
G01*
X19325000Y-8415250D02*
X19425000Y-8515250D01*
X19425000Y-8415250D02*
X19325000Y-8515250D01*
X19425000Y-8465250D02*
G75*
G03*
X19425000Y-8465250I-50000J0D01*
G01*
X19654000Y-22250000D02*
X19754000Y-22350000D01*
X19754000Y-22250000D02*
X19654000Y-22350000D01*
X19754000Y-22300000D02*
G75*
G03*
X19754000Y-22300000I-50000J0D01*
G01*
X19654000Y-22504000D02*
X19754000Y-22604000D01*
X19754000Y-22504000D02*
X19654000Y-22604000D01*
X19754000Y-22554000D02*
G75*
G03*
X19754000Y-22554000I-50000J0D01*
G01*
X19908000Y-22250000D02*
X20008000Y-22350000D01*
X20008000Y-22250000D02*
X19908000Y-22350000D01*
X20008000Y-22300000D02*
G75*
G03*
X20008000Y-22300000I-50000J0D01*
G01*
X19908000Y-22504000D02*
X20008000Y-22604000D01*
X20008000Y-22504000D02*
X19908000Y-22604000D01*
X20008000Y-22554000D02*
G75*
G03*
X20008000Y-22554000I-50000J0D01*
G01*
X20162000Y-22250000D02*
X20262000Y-22350000D01*
X20262000Y-22250000D02*
X20162000Y-22350000D01*
X20262000Y-22300000D02*
G75*
G03*
X20262000Y-22300000I-50000J0D01*
G01*
X20162000Y-22504000D02*
X20262000Y-22604000D01*
X20262000Y-22504000D02*
X20162000Y-22604000D01*
X20262000Y-22554000D02*
G75*
G03*
X20262000Y-22554000I-50000J0D01*
G01*
X20404000Y-8120000D02*
X20504000Y-8220000D01*
X20504000Y-8120000D02*
X20404000Y-8220000D01*
X20504000Y-8170000D02*
G75*
G03*
X20504000Y-8170000I-50000J0D01*
G01*
X20416000Y-22250000D02*
X20516000Y-22350000D01*
X20516000Y-22250000D02*
X20416000Y-22350000D01*
X20516000Y-22300000D02*
G75*
G03*
X20516000Y-22300000I-50000J0D01*
G01*
X20416000Y-22504000D02*
X20516000Y-22604000D01*
X20516000Y-22504000D02*
X20416000Y-22604000D01*
X20516000Y-22554000D02*
G75*
G03*
X20516000Y-22554000I-50000J0D01*
G01*
X20658000Y-8120000D02*
X20758000Y-8220000D01*
X20758000Y-8120000D02*
X20658000Y-8220000D01*
X20758000Y-8170000D02*
G75*
G03*
X20758000Y-8170000I-50000J0D01*
G01*
X20670000Y-22250000D02*
X20770000Y-22350000D01*
X20770000Y-22250000D02*
X20670000Y-22350000D01*
X20770000Y-22300000D02*
G75*
G03*
X20770000Y-22300000I-50000J0D01*
G01*
X20670000Y-22504000D02*
X20770000Y-22604000D01*
X20770000Y-22504000D02*
X20670000Y-22604000D01*
X20770000Y-22554000D02*
G75*
G03*
X20770000Y-22554000I-50000J0D01*
G01*
X20912000Y-8120000D02*
X21012000Y-8220000D01*
X21012000Y-8120000D02*
X20912000Y-8220000D01*
X21012000Y-8170000D02*
G75*
G03*
X21012000Y-8170000I-50000J0D01*
G01*
X20924000Y-22250000D02*
X21024000Y-22350000D01*
X21024000Y-22250000D02*
X20924000Y-22350000D01*
X21024000Y-22300000D02*
G75*
G03*
X21024000Y-22300000I-50000J0D01*
G01*
X20924000Y-22504000D02*
X21024000Y-22604000D01*
X21024000Y-22504000D02*
X20924000Y-22604000D01*
X21024000Y-22554000D02*
G75*
G03*
X21024000Y-22554000I-50000J0D01*
G01*
X21166000Y-8120000D02*
X21266000Y-8220000D01*
X21266000Y-8120000D02*
X21166000Y-8220000D01*
X21266000Y-8170000D02*
G75*
G03*
X21266000Y-8170000I-50000J0D01*
G01*
X21178000Y-22250000D02*
X21278000Y-22350000D01*
X21278000Y-22250000D02*
X21178000Y-22350000D01*
X21278000Y-22300000D02*
G75*
G03*
X21278000Y-22300000I-50000J0D01*
G01*
X21178000Y-22504000D02*
X21278000Y-22604000D01*
X21278000Y-22504000D02*
X21178000Y-22604000D01*
X21278000Y-22554000D02*
G75*
G03*
X21278000Y-22554000I-50000J0D01*
G01*
X21293000Y-8925000D02*
X21393000Y-9025000D01*
X21393000Y-8925000D02*
X21293000Y-9025000D01*
X21393000Y-8975000D02*
G75*
G03*
X21393000Y-8975000I-50000J0D01*
G01*
X21420000Y-8120000D02*
X21520000Y-8220000D01*
X21520000Y-8120000D02*
X21420000Y-8220000D01*
X21520000Y-8170000D02*
G75*
G03*
X21520000Y-8170000I-50000J0D01*
G01*
X21432000Y-22250000D02*
X21532000Y-22350000D01*
X21532000Y-22250000D02*
X21432000Y-22350000D01*
X21532000Y-22300000D02*
G75*
G03*
X21532000Y-22300000I-50000J0D01*
G01*
X21432000Y-22504000D02*
X21532000Y-22604000D01*
X21532000Y-22504000D02*
X21432000Y-22604000D01*
X21532000Y-22554000D02*
G75*
G03*
X21532000Y-22554000I-50000J0D01*
G01*
X21547000Y-8925000D02*
X21647000Y-9025000D01*
X21647000Y-8925000D02*
X21547000Y-9025000D01*
X21647000Y-8975000D02*
G75*
G03*
X21647000Y-8975000I-50000J0D01*
G01*
X21674000Y-8120000D02*
X21774000Y-8220000D01*
X21774000Y-8120000D02*
X21674000Y-8220000D01*
X21774000Y-8170000D02*
G75*
G03*
X21774000Y-8170000I-50000J0D01*
G01*
X21686000Y-22250000D02*
X21786000Y-22350000D01*
X21786000Y-22250000D02*
X21686000Y-22350000D01*
X21786000Y-22300000D02*
G75*
G03*
X21786000Y-22300000I-50000J0D01*
G01*
X21686000Y-22504000D02*
X21786000Y-22604000D01*
X21786000Y-22504000D02*
X21686000Y-22604000D01*
X21786000Y-22554000D02*
G75*
G03*
X21786000Y-22554000I-50000J0D01*
G01*
X21940000Y-22250000D02*
X22040000Y-22350000D01*
X22040000Y-22250000D02*
X21940000Y-22350000D01*
X22040000Y-22300000D02*
G75*
G03*
X22040000Y-22300000I-50000J0D01*
G01*
X21940000Y-22504000D02*
X22040000Y-22604000D01*
X22040000Y-22504000D02*
X21940000Y-22604000D01*
X22040000Y-22554000D02*
G75*
G03*
X22040000Y-22554000I-50000J0D01*
G01*
X22194000Y-22250000D02*
X22294000Y-22350000D01*
X22294000Y-22250000D02*
X22194000Y-22350000D01*
X22294000Y-22300000D02*
G75*
G03*
X22294000Y-22300000I-50000J0D01*
G01*
X22194000Y-22504000D02*
X22294000Y-22604000D01*
X22294000Y-22504000D02*
X22194000Y-22604000D01*
X22294000Y-22554000D02*
G75*
G03*
X22294000Y-22554000I-50000J0D01*
G01*
X22448000Y-22250000D02*
X22548000Y-22350000D01*
X22548000Y-22250000D02*
X22448000Y-22350000D01*
X22548000Y-22300000D02*
G75*
G03*
X22548000Y-22300000I-50000J0D01*
G01*
X22448000Y-22504000D02*
X22548000Y-22604000D01*
X22548000Y-22504000D02*
X22448000Y-22604000D01*
X22548000Y-22554000D02*
G75*
G03*
X22548000Y-22554000I-50000J0D01*
G01*
X22702000Y-22250000D02*
X22802000Y-22350000D01*
X22802000Y-22250000D02*
X22702000Y-22350000D01*
X22802000Y-22300000D02*
G75*
G03*
X22802000Y-22300000I-50000J0D01*
G01*
X22702000Y-22504000D02*
X22802000Y-22604000D01*
X22802000Y-22504000D02*
X22702000Y-22604000D01*
X22802000Y-22554000D02*
G75*
G03*
X22802000Y-22554000I-50000J0D01*
G01*
X22754000Y-8092500D02*
X22854000Y-8192500D01*
X22854000Y-8092500D02*
X22754000Y-8192500D01*
X22854000Y-8142500D02*
G75*
G03*
X22854000Y-8142500I-50000J0D01*
G01*
X22956000Y-22250000D02*
X23056000Y-22350000D01*
X23056000Y-22250000D02*
X22956000Y-22350000D01*
X23056000Y-22300000D02*
G75*
G03*
X23056000Y-22300000I-50000J0D01*
G01*
X22956000Y-22504000D02*
X23056000Y-22604000D01*
X23056000Y-22504000D02*
X22956000Y-22604000D01*
X23056000Y-22554000D02*
G75*
G03*
X23056000Y-22554000I-50000J0D01*
G01*
X23008000Y-8092500D02*
X23108000Y-8192500D01*
X23108000Y-8092500D02*
X23008000Y-8192500D01*
X23108000Y-8142500D02*
G75*
G03*
X23108000Y-8142500I-50000J0D01*
G01*
X23210000Y-22250000D02*
X23310000Y-22350000D01*
X23310000Y-22250000D02*
X23210000Y-22350000D01*
X23310000Y-22300000D02*
G75*
G03*
X23310000Y-22300000I-50000J0D01*
G01*
X23210000Y-22504000D02*
X23310000Y-22604000D01*
X23310000Y-22504000D02*
X23210000Y-22604000D01*
X23310000Y-22554000D02*
G75*
G03*
X23310000Y-22554000I-50000J0D01*
G01*
X23262000Y-8092500D02*
X23362000Y-8192500D01*
X23362000Y-8092500D02*
X23262000Y-8192500D01*
X23362000Y-8142500D02*
G75*
G03*
X23362000Y-8142500I-50000J0D01*
G01*
X23464000Y-22250000D02*
X23564000Y-22350000D01*
X23564000Y-22250000D02*
X23464000Y-22350000D01*
X23564000Y-22300000D02*
G75*
G03*
X23564000Y-22300000I-50000J0D01*
G01*
X23464000Y-22504000D02*
X23564000Y-22604000D01*
X23564000Y-22504000D02*
X23464000Y-22604000D01*
X23564000Y-22554000D02*
G75*
G03*
X23564000Y-22554000I-50000J0D01*
G01*
X23516000Y-8092500D02*
X23616000Y-8192500D01*
X23616000Y-8092500D02*
X23516000Y-8192500D01*
X23616000Y-8142500D02*
G75*
G03*
X23616000Y-8142500I-50000J0D01*
G01*
X23718000Y-22250000D02*
X23818000Y-22350000D01*
X23818000Y-22250000D02*
X23718000Y-22350000D01*
X23818000Y-22300000D02*
G75*
G03*
X23818000Y-22300000I-50000J0D01*
G01*
X23718000Y-22504000D02*
X23818000Y-22604000D01*
X23818000Y-22504000D02*
X23718000Y-22604000D01*
X23818000Y-22554000D02*
G75*
G03*
X23818000Y-22554000I-50000J0D01*
G01*
X23770000Y-8092500D02*
X23870000Y-8192500D01*
X23870000Y-8092500D02*
X23770000Y-8192500D01*
X23870000Y-8142500D02*
G75*
G03*
X23870000Y-8142500I-50000J0D01*
G01*
X23972000Y-22250000D02*
X24072000Y-22350000D01*
X24072000Y-22250000D02*
X23972000Y-22350000D01*
X24072000Y-22300000D02*
G75*
G03*
X24072000Y-22300000I-50000J0D01*
G01*
X23972000Y-22504000D02*
X24072000Y-22604000D01*
X24072000Y-22504000D02*
X23972000Y-22604000D01*
X24072000Y-22554000D02*
G75*
G03*
X24072000Y-22554000I-50000J0D01*
G01*
X24024000Y-8092500D02*
X24124000Y-8192500D01*
X24124000Y-8092500D02*
X24024000Y-8192500D01*
X24124000Y-8142500D02*
G75*
G03*
X24124000Y-8142500I-50000J0D01*
G01*
X24226000Y-22250000D02*
X24326000Y-22350000D01*
X24326000Y-22250000D02*
X24226000Y-22350000D01*
X24326000Y-22300000D02*
G75*
G03*
X24326000Y-22300000I-50000J0D01*
G01*
X24226000Y-22504000D02*
X24326000Y-22604000D01*
X24326000Y-22504000D02*
X24226000Y-22604000D01*
X24326000Y-22554000D02*
G75*
G03*
X24326000Y-22554000I-50000J0D01*
G01*
X24480000Y-22250000D02*
X24580000Y-22350000D01*
X24580000Y-22250000D02*
X24480000Y-22350000D01*
X24580000Y-22300000D02*
G75*
G03*
X24580000Y-22300000I-50000J0D01*
G01*
X24480000Y-22504000D02*
X24580000Y-22604000D01*
X24580000Y-22504000D02*
X24480000Y-22604000D01*
X24580000Y-22554000D02*
G75*
G03*
X24580000Y-22554000I-50000J0D01*
G01*
X24734000Y-22250000D02*
X24834000Y-22350000D01*
X24834000Y-22250000D02*
X24734000Y-22350000D01*
X24834000Y-22300000D02*
G75*
G03*
X24834000Y-22300000I-50000J0D01*
G01*
X24734000Y-22504000D02*
X24834000Y-22604000D01*
X24834000Y-22504000D02*
X24734000Y-22604000D01*
X24834000Y-22554000D02*
G75*
G03*
X24834000Y-22554000I-50000J0D01*
G01*
X24988000Y-22250000D02*
X25088000Y-22350000D01*
X25088000Y-22250000D02*
X24988000Y-22350000D01*
X25088000Y-22300000D02*
G75*
G03*
X25088000Y-22300000I-50000J0D01*
G01*
X24988000Y-22504000D02*
X25088000Y-22604000D01*
X25088000Y-22504000D02*
X24988000Y-22604000D01*
X25088000Y-22554000D02*
G75*
G03*
X25088000Y-22554000I-50000J0D01*
G01*
X25242000Y-22250000D02*
X25342000Y-22350000D01*
X25342000Y-22250000D02*
X25242000Y-22350000D01*
X25342000Y-22300000D02*
G75*
G03*
X25342000Y-22300000I-50000J0D01*
G01*
X25242000Y-22504000D02*
X25342000Y-22604000D01*
X25342000Y-22504000D02*
X25242000Y-22604000D01*
X25342000Y-22554000D02*
G75*
G03*
X25342000Y-22554000I-50000J0D01*
G01*
X25496000Y-22250000D02*
X25596000Y-22350000D01*
X25596000Y-22250000D02*
X25496000Y-22350000D01*
X25596000Y-22300000D02*
G75*
G03*
X25596000Y-22300000I-50000J0D01*
G01*
X25496000Y-22504000D02*
X25596000Y-22604000D01*
X25596000Y-22504000D02*
X25496000Y-22604000D01*
X25596000Y-22554000D02*
G75*
G03*
X25596000Y-22554000I-50000J0D01*
G01*
X25750000Y-22250000D02*
X25850000Y-22350000D01*
X25850000Y-22250000D02*
X25750000Y-22350000D01*
X25850000Y-22300000D02*
G75*
G03*
X25850000Y-22300000I-50000J0D01*
G01*
X25750000Y-22504000D02*
X25850000Y-22604000D01*
X25850000Y-22504000D02*
X25750000Y-22604000D01*
X25850000Y-22554000D02*
G75*
G03*
X25850000Y-22554000I-50000J0D01*
G01*
D18*
X24832500Y-7780250D02*
X24962500Y-7910250D01*
X24962500Y-7780250D02*
X24832500Y-7910250D01*
X24897500Y-7780250D02*
X24897500Y-7910250D01*
X24832500Y-7845250D02*
X24962500Y-7845250D01*
X25533500Y-7780250D02*
X25663500Y-7910250D01*
X25663500Y-7780250D02*
X25533500Y-7910250D01*
X25598500Y-7780250D02*
X25598500Y-7910250D01*
X25533500Y-7845250D02*
X25663500Y-7845250D01*
D19*
X3840000Y-7340000D02*
X4160000Y-7660000D01*
X4160000Y-7340000D02*
X3840000Y-7660000D01*
X4113138Y-7613138D02*
X4113138Y-7386862D01*
X3886862Y-7386862D01*
X3886862Y-7613138D01*
X4113138Y-7613138D01*
X26340000Y-7340000D02*
X26660000Y-7660000D01*
X26660000Y-7340000D02*
X26340000Y-7660000D01*
X26613138Y-7613138D02*
X26613138Y-7386862D01*
X26386862Y-7386862D01*
X26386862Y-7613138D01*
X26613138Y-7613138D01*
D11*
X3755119Y-23312976D02*
X3755119Y-23112976D01*
X3802738Y-23112976D01*
X3831309Y-23122500D01*
X3850357Y-23141548D01*
X3859881Y-23160595D01*
X3869405Y-23198690D01*
X3869405Y-23227262D01*
X3859881Y-23265357D01*
X3850357Y-23284405D01*
X3831309Y-23303452D01*
X3802738Y-23312976D01*
X3755119Y-23312976D01*
X3955119Y-23312976D02*
X3955119Y-23179643D01*
X3955119Y-23217738D02*
X3964643Y-23198690D01*
X3974167Y-23189167D01*
X3993214Y-23179643D01*
X4012262Y-23179643D01*
X4078928Y-23312976D02*
X4078928Y-23179643D01*
X4078928Y-23112976D02*
X4069405Y-23122500D01*
X4078928Y-23132024D01*
X4088452Y-23122500D01*
X4078928Y-23112976D01*
X4078928Y-23132024D01*
X4202738Y-23312976D02*
X4183690Y-23303452D01*
X4174167Y-23284405D01*
X4174167Y-23112976D01*
X4307500Y-23312976D02*
X4288452Y-23303452D01*
X4278929Y-23284405D01*
X4278929Y-23112976D01*
X4536071Y-23312976D02*
X4536071Y-23112976D01*
X4602738Y-23255833D01*
X4669405Y-23112976D01*
X4669405Y-23312976D01*
X4850357Y-23312976D02*
X4850357Y-23208214D01*
X4840833Y-23189167D01*
X4821786Y-23179643D01*
X4783690Y-23179643D01*
X4764643Y-23189167D01*
X4850357Y-23303452D02*
X4831310Y-23312976D01*
X4783690Y-23312976D01*
X4764643Y-23303452D01*
X4755119Y-23284405D01*
X4755119Y-23265357D01*
X4764643Y-23246309D01*
X4783690Y-23236786D01*
X4831310Y-23236786D01*
X4850357Y-23227262D01*
X4945595Y-23179643D02*
X4945595Y-23379643D01*
X4945595Y-23189167D02*
X4964643Y-23179643D01*
X5002738Y-23179643D01*
X5021786Y-23189167D01*
X5031310Y-23198690D01*
X5040833Y-23217738D01*
X5040833Y-23274881D01*
X5031310Y-23293928D01*
X5021786Y-23303452D01*
X5002738Y-23312976D01*
X4964643Y-23312976D01*
X4945595Y-23303452D01*
X5126548Y-23293928D02*
X5136071Y-23303452D01*
X5126548Y-23312976D01*
X5117024Y-23303452D01*
X5126548Y-23293928D01*
X5126548Y-23312976D01*
X5126548Y-23189167D02*
X5136071Y-23198690D01*
X5126548Y-23208214D01*
X5117024Y-23198690D01*
X5126548Y-23189167D01*
X5126548Y-23208214D01*
D12*
X3457500Y-23622500D02*
X3497500Y-23662500D01*
X3497500Y-23622500D02*
X3457500Y-23662500D01*
D11*
X3793214Y-23532976D02*
X3812262Y-23532976D01*
X3831309Y-23542500D01*
X3840833Y-23552024D01*
X3850357Y-23571071D01*
X3859881Y-23609167D01*
X3859881Y-23656786D01*
X3850357Y-23694881D01*
X3840833Y-23713928D01*
X3831309Y-23723452D01*
X3812262Y-23732976D01*
X3793214Y-23732976D01*
X3774167Y-23723452D01*
X3764643Y-23713928D01*
X3755119Y-23694881D01*
X3745595Y-23656786D01*
X3745595Y-23609167D01*
X3755119Y-23571071D01*
X3764643Y-23552024D01*
X3774167Y-23542500D01*
X3793214Y-23532976D01*
X3945595Y-23713928D02*
X3955119Y-23723452D01*
X3945595Y-23732976D01*
X3936071Y-23723452D01*
X3945595Y-23713928D01*
X3945595Y-23732976D01*
X4126548Y-23599643D02*
X4126548Y-23732976D01*
X4078928Y-23523452D02*
X4031309Y-23666309D01*
X4155119Y-23666309D01*
X4269405Y-23532976D02*
X4288452Y-23532976D01*
X4307500Y-23542500D01*
X4317024Y-23552024D01*
X4326548Y-23571071D01*
X4336071Y-23609167D01*
X4336071Y-23656786D01*
X4326548Y-23694881D01*
X4317024Y-23713928D01*
X4307500Y-23723452D01*
X4288452Y-23732976D01*
X4269405Y-23732976D01*
X4250357Y-23723452D01*
X4240833Y-23713928D01*
X4231310Y-23694881D01*
X4221786Y-23656786D01*
X4221786Y-23609167D01*
X4231310Y-23571071D01*
X4240833Y-23552024D01*
X4250357Y-23542500D01*
X4269405Y-23532976D01*
X4459881Y-23532976D02*
X4478929Y-23532976D01*
X4497976Y-23542500D01*
X4507500Y-23552024D01*
X4517024Y-23571071D01*
X4526548Y-23609167D01*
X4526548Y-23656786D01*
X4517024Y-23694881D01*
X4507500Y-23713928D01*
X4497976Y-23723452D01*
X4478929Y-23732976D01*
X4459881Y-23732976D01*
X4440833Y-23723452D01*
X4431310Y-23713928D01*
X4421786Y-23694881D01*
X4412262Y-23656786D01*
X4412262Y-23609167D01*
X4421786Y-23571071D01*
X4431310Y-23552024D01*
X4440833Y-23542500D01*
X4459881Y-23532976D01*
X4612262Y-23732976D02*
X4612262Y-23599643D01*
X4612262Y-23618690D02*
X4621786Y-23609167D01*
X4640833Y-23599643D01*
X4669405Y-23599643D01*
X4688452Y-23609167D01*
X4697976Y-23628214D01*
X4697976Y-23732976D01*
X4697976Y-23628214D02*
X4707500Y-23609167D01*
X4726548Y-23599643D01*
X4755119Y-23599643D01*
X4774167Y-23609167D01*
X4783690Y-23628214D01*
X4783690Y-23732976D01*
X4878929Y-23732976D02*
X4878929Y-23599643D01*
X4878929Y-23618690D02*
X4888452Y-23609167D01*
X4907500Y-23599643D01*
X4936071Y-23599643D01*
X4955119Y-23609167D01*
X4964643Y-23628214D01*
X4964643Y-23732976D01*
X4964643Y-23628214D02*
X4974167Y-23609167D01*
X4993214Y-23599643D01*
X5021786Y-23599643D01*
X5040833Y-23609167D01*
X5050357Y-23628214D01*
X5050357Y-23732976D01*
X5440833Y-23523452D02*
X5269405Y-23780595D01*
X5697976Y-23532976D02*
X5717024Y-23532976D01*
X5736071Y-23542500D01*
X5745595Y-23552024D01*
X5755119Y-23571071D01*
X5764643Y-23609167D01*
X5764643Y-23656786D01*
X5755119Y-23694881D01*
X5745595Y-23713928D01*
X5736071Y-23723452D01*
X5717024Y-23732976D01*
X5697976Y-23732976D01*
X5678928Y-23723452D01*
X5669405Y-23713928D01*
X5659881Y-23694881D01*
X5650357Y-23656786D01*
X5650357Y-23609167D01*
X5659881Y-23571071D01*
X5669405Y-23552024D01*
X5678928Y-23542500D01*
X5697976Y-23532976D01*
X5850357Y-23713928D02*
X5859881Y-23723452D01*
X5850357Y-23732976D01*
X5840833Y-23723452D01*
X5850357Y-23713928D01*
X5850357Y-23732976D01*
X5983690Y-23532976D02*
X6002738Y-23532976D01*
X6021786Y-23542500D01*
X6031309Y-23552024D01*
X6040833Y-23571071D01*
X6050357Y-23609167D01*
X6050357Y-23656786D01*
X6040833Y-23694881D01*
X6031309Y-23713928D01*
X6021786Y-23723452D01*
X6002738Y-23732976D01*
X5983690Y-23732976D01*
X5964643Y-23723452D01*
X5955119Y-23713928D01*
X5945595Y-23694881D01*
X5936071Y-23656786D01*
X5936071Y-23609167D01*
X5945595Y-23571071D01*
X5955119Y-23552024D01*
X5964643Y-23542500D01*
X5983690Y-23532976D01*
X6240833Y-23732976D02*
X6126548Y-23732976D01*
X6183690Y-23732976D02*
X6183690Y-23532976D01*
X6164643Y-23561548D01*
X6145595Y-23580595D01*
X6126548Y-23590119D01*
X6421786Y-23532976D02*
X6326548Y-23532976D01*
X6317024Y-23628214D01*
X6326548Y-23618690D01*
X6345595Y-23609167D01*
X6393214Y-23609167D01*
X6412262Y-23618690D01*
X6421786Y-23628214D01*
X6431309Y-23647262D01*
X6431309Y-23694881D01*
X6421786Y-23713928D01*
X6412262Y-23723452D01*
X6393214Y-23732976D01*
X6345595Y-23732976D01*
X6326548Y-23723452D01*
X6317024Y-23713928D01*
X6497976Y-23532976D02*
X6631309Y-23532976D01*
X6545595Y-23732976D01*
X6697976Y-23532976D02*
X6697976Y-23571071D01*
X6774167Y-23532976D02*
X6774167Y-23571071D01*
X7069405Y-23809167D02*
X7059881Y-23799643D01*
X7040833Y-23771071D01*
X7031309Y-23752024D01*
X7021786Y-23723452D01*
X7012262Y-23675833D01*
X7012262Y-23637738D01*
X7021786Y-23590119D01*
X7031309Y-23561548D01*
X7040833Y-23542500D01*
X7059881Y-23513928D01*
X7069405Y-23504405D01*
X7136071Y-23552024D02*
X7145595Y-23542500D01*
X7164643Y-23532976D01*
X7212262Y-23532976D01*
X7231309Y-23542500D01*
X7240833Y-23552024D01*
X7250357Y-23571071D01*
X7250357Y-23590119D01*
X7240833Y-23618690D01*
X7126548Y-23732976D01*
X7250357Y-23732976D01*
X7374167Y-23532976D02*
X7393214Y-23532976D01*
X7412262Y-23542500D01*
X7421786Y-23552024D01*
X7431309Y-23571071D01*
X7440833Y-23609167D01*
X7440833Y-23656786D01*
X7431309Y-23694881D01*
X7421786Y-23713928D01*
X7412262Y-23723452D01*
X7393214Y-23732976D01*
X7374167Y-23732976D01*
X7355119Y-23723452D01*
X7345595Y-23713928D01*
X7336071Y-23694881D01*
X7326548Y-23656786D01*
X7326548Y-23609167D01*
X7336071Y-23571071D01*
X7345595Y-23552024D01*
X7355119Y-23542500D01*
X7374167Y-23532976D01*
X7631309Y-23732976D02*
X7517024Y-23732976D01*
X7574167Y-23732976D02*
X7574167Y-23532976D01*
X7555119Y-23561548D01*
X7536071Y-23580595D01*
X7517024Y-23590119D01*
X7869405Y-23732976D02*
X7869405Y-23532976D01*
X7955119Y-23732976D02*
X7955119Y-23628214D01*
X7945595Y-23609167D01*
X7926548Y-23599643D01*
X7897976Y-23599643D01*
X7878928Y-23609167D01*
X7869405Y-23618690D01*
X8078928Y-23732976D02*
X8059881Y-23723452D01*
X8050357Y-23713928D01*
X8040833Y-23694881D01*
X8040833Y-23637738D01*
X8050357Y-23618690D01*
X8059881Y-23609167D01*
X8078928Y-23599643D01*
X8107500Y-23599643D01*
X8126548Y-23609167D01*
X8136071Y-23618690D01*
X8145595Y-23637738D01*
X8145595Y-23694881D01*
X8136071Y-23713928D01*
X8126548Y-23723452D01*
X8107500Y-23732976D01*
X8078928Y-23732976D01*
X8259881Y-23732976D02*
X8240833Y-23723452D01*
X8231309Y-23704405D01*
X8231309Y-23532976D01*
X8412262Y-23723452D02*
X8393214Y-23732976D01*
X8355119Y-23732976D01*
X8336071Y-23723452D01*
X8326548Y-23704405D01*
X8326548Y-23628214D01*
X8336071Y-23609167D01*
X8355119Y-23599643D01*
X8393214Y-23599643D01*
X8412262Y-23609167D01*
X8421786Y-23628214D01*
X8421786Y-23647262D01*
X8326548Y-23666309D01*
X8497976Y-23723452D02*
X8517024Y-23732976D01*
X8555119Y-23732976D01*
X8574167Y-23723452D01*
X8583690Y-23704405D01*
X8583690Y-23694881D01*
X8574167Y-23675833D01*
X8555119Y-23666309D01*
X8526548Y-23666309D01*
X8507500Y-23656786D01*
X8497976Y-23637738D01*
X8497976Y-23628214D01*
X8507500Y-23609167D01*
X8526548Y-23599643D01*
X8555119Y-23599643D01*
X8574167Y-23609167D01*
X8650357Y-23809167D02*
X8659881Y-23799643D01*
X8678929Y-23771071D01*
X8688452Y-23752024D01*
X8697976Y-23723452D01*
X8707500Y-23675833D01*
X8707500Y-23637738D01*
X8697976Y-23590119D01*
X8688452Y-23561548D01*
X8678929Y-23542500D01*
X8659881Y-23513928D01*
X8650357Y-23504405D01*
D13*
X3497500Y-23906500D02*
G75*
G03*
X3497500Y-23906500I-37500J0D01*
G01*
D11*
X3793214Y-23796976D02*
X3812262Y-23796976D01*
X3831309Y-23806500D01*
X3840833Y-23816024D01*
X3850357Y-23835071D01*
X3859881Y-23873167D01*
X3859881Y-23920786D01*
X3850357Y-23958881D01*
X3840833Y-23977928D01*
X3831309Y-23987452D01*
X3812262Y-23996976D01*
X3793214Y-23996976D01*
X3774167Y-23987452D01*
X3764643Y-23977928D01*
X3755119Y-23958881D01*
X3745595Y-23920786D01*
X3745595Y-23873167D01*
X3755119Y-23835071D01*
X3764643Y-23816024D01*
X3774167Y-23806500D01*
X3793214Y-23796976D01*
X3945595Y-23977928D02*
X3955119Y-23987452D01*
X3945595Y-23996976D01*
X3936071Y-23987452D01*
X3945595Y-23977928D01*
X3945595Y-23996976D01*
X4021786Y-23796976D02*
X4155119Y-23796976D01*
X4069405Y-23996976D01*
X4326548Y-23796976D02*
X4231310Y-23796976D01*
X4221786Y-23892214D01*
X4231310Y-23882690D01*
X4250357Y-23873167D01*
X4297976Y-23873167D01*
X4317024Y-23882690D01*
X4326548Y-23892214D01*
X4336071Y-23911262D01*
X4336071Y-23958881D01*
X4326548Y-23977928D01*
X4317024Y-23987452D01*
X4297976Y-23996976D01*
X4250357Y-23996976D01*
X4231310Y-23987452D01*
X4221786Y-23977928D01*
X4459881Y-23796976D02*
X4478929Y-23796976D01*
X4497976Y-23806500D01*
X4507500Y-23816024D01*
X4517024Y-23835071D01*
X4526548Y-23873167D01*
X4526548Y-23920786D01*
X4517024Y-23958881D01*
X4507500Y-23977928D01*
X4497976Y-23987452D01*
X4478929Y-23996976D01*
X4459881Y-23996976D01*
X4440833Y-23987452D01*
X4431310Y-23977928D01*
X4421786Y-23958881D01*
X4412262Y-23920786D01*
X4412262Y-23873167D01*
X4421786Y-23835071D01*
X4431310Y-23816024D01*
X4440833Y-23806500D01*
X4459881Y-23796976D01*
X4612262Y-23996976D02*
X4612262Y-23863643D01*
X4612262Y-23882690D02*
X4621786Y-23873167D01*
X4640833Y-23863643D01*
X4669405Y-23863643D01*
X4688452Y-23873167D01*
X4697976Y-23892214D01*
X4697976Y-23996976D01*
X4697976Y-23892214D02*
X4707500Y-23873167D01*
X4726548Y-23863643D01*
X4755119Y-23863643D01*
X4774167Y-23873167D01*
X4783690Y-23892214D01*
X4783690Y-23996976D01*
X4878929Y-23996976D02*
X4878929Y-23863643D01*
X4878929Y-23882690D02*
X4888452Y-23873167D01*
X4907500Y-23863643D01*
X4936071Y-23863643D01*
X4955119Y-23873167D01*
X4964643Y-23892214D01*
X4964643Y-23996976D01*
X4964643Y-23892214D02*
X4974167Y-23873167D01*
X4993214Y-23863643D01*
X5021786Y-23863643D01*
X5040833Y-23873167D01*
X5050357Y-23892214D01*
X5050357Y-23996976D01*
X5440833Y-23787452D02*
X5269405Y-24044595D01*
X5697976Y-23796976D02*
X5717024Y-23796976D01*
X5736071Y-23806500D01*
X5745595Y-23816024D01*
X5755119Y-23835071D01*
X5764643Y-23873167D01*
X5764643Y-23920786D01*
X5755119Y-23958881D01*
X5745595Y-23977928D01*
X5736071Y-23987452D01*
X5717024Y-23996976D01*
X5697976Y-23996976D01*
X5678928Y-23987452D01*
X5669405Y-23977928D01*
X5659881Y-23958881D01*
X5650357Y-23920786D01*
X5650357Y-23873167D01*
X5659881Y-23835071D01*
X5669405Y-23816024D01*
X5678928Y-23806500D01*
X5697976Y-23796976D01*
X5850357Y-23977928D02*
X5859881Y-23987452D01*
X5850357Y-23996976D01*
X5840833Y-23987452D01*
X5850357Y-23977928D01*
X5850357Y-23996976D01*
X5983690Y-23796976D02*
X6002738Y-23796976D01*
X6021786Y-23806500D01*
X6031309Y-23816024D01*
X6040833Y-23835071D01*
X6050357Y-23873167D01*
X6050357Y-23920786D01*
X6040833Y-23958881D01*
X6031309Y-23977928D01*
X6021786Y-23987452D01*
X6002738Y-23996976D01*
X5983690Y-23996976D01*
X5964643Y-23987452D01*
X5955119Y-23977928D01*
X5945595Y-23958881D01*
X5936071Y-23920786D01*
X5936071Y-23873167D01*
X5945595Y-23835071D01*
X5955119Y-23816024D01*
X5964643Y-23806500D01*
X5983690Y-23796976D01*
X6126548Y-23816024D02*
X6136071Y-23806500D01*
X6155119Y-23796976D01*
X6202738Y-23796976D01*
X6221786Y-23806500D01*
X6231309Y-23816024D01*
X6240833Y-23835071D01*
X6240833Y-23854119D01*
X6231309Y-23882690D01*
X6117024Y-23996976D01*
X6240833Y-23996976D01*
X6336071Y-23996976D02*
X6374167Y-23996976D01*
X6393214Y-23987452D01*
X6402738Y-23977928D01*
X6421786Y-23949357D01*
X6431309Y-23911262D01*
X6431309Y-23835071D01*
X6421786Y-23816024D01*
X6412262Y-23806500D01*
X6393214Y-23796976D01*
X6355119Y-23796976D01*
X6336071Y-23806500D01*
X6326548Y-23816024D01*
X6317024Y-23835071D01*
X6317024Y-23882690D01*
X6326548Y-23901738D01*
X6336071Y-23911262D01*
X6355119Y-23920786D01*
X6393214Y-23920786D01*
X6412262Y-23911262D01*
X6421786Y-23901738D01*
X6431309Y-23882690D01*
X6612262Y-23796976D02*
X6517024Y-23796976D01*
X6507500Y-23892214D01*
X6517024Y-23882690D01*
X6536071Y-23873167D01*
X6583690Y-23873167D01*
X6602738Y-23882690D01*
X6612262Y-23892214D01*
X6621786Y-23911262D01*
X6621786Y-23958881D01*
X6612262Y-23977928D01*
X6602738Y-23987452D01*
X6583690Y-23996976D01*
X6536071Y-23996976D01*
X6517024Y-23987452D01*
X6507500Y-23977928D01*
X6697976Y-23796976D02*
X6697976Y-23835071D01*
X6774167Y-23796976D02*
X6774167Y-23835071D01*
X7069405Y-24073167D02*
X7059881Y-24063643D01*
X7040833Y-24035071D01*
X7031309Y-24016024D01*
X7021786Y-23987452D01*
X7012262Y-23939833D01*
X7012262Y-23901738D01*
X7021786Y-23854119D01*
X7031309Y-23825548D01*
X7040833Y-23806500D01*
X7059881Y-23777928D01*
X7069405Y-23768405D01*
X7126548Y-23796976D02*
X7250357Y-23796976D01*
X7183690Y-23873167D01*
X7212262Y-23873167D01*
X7231309Y-23882690D01*
X7240833Y-23892214D01*
X7250357Y-23911262D01*
X7250357Y-23958881D01*
X7240833Y-23977928D01*
X7231309Y-23987452D01*
X7212262Y-23996976D01*
X7155119Y-23996976D01*
X7136071Y-23987452D01*
X7126548Y-23977928D01*
X7488452Y-23996976D02*
X7488452Y-23796976D01*
X7574167Y-23996976D02*
X7574167Y-23892214D01*
X7564643Y-23873167D01*
X7545595Y-23863643D01*
X7517024Y-23863643D01*
X7497976Y-23873167D01*
X7488452Y-23882690D01*
X7697976Y-23996976D02*
X7678928Y-23987452D01*
X7669405Y-23977928D01*
X7659881Y-23958881D01*
X7659881Y-23901738D01*
X7669405Y-23882690D01*
X7678928Y-23873167D01*
X7697976Y-23863643D01*
X7726548Y-23863643D01*
X7745595Y-23873167D01*
X7755119Y-23882690D01*
X7764643Y-23901738D01*
X7764643Y-23958881D01*
X7755119Y-23977928D01*
X7745595Y-23987452D01*
X7726548Y-23996976D01*
X7697976Y-23996976D01*
X7878928Y-23996976D02*
X7859881Y-23987452D01*
X7850357Y-23968405D01*
X7850357Y-23796976D01*
X8031309Y-23987452D02*
X8012262Y-23996976D01*
X7974167Y-23996976D01*
X7955119Y-23987452D01*
X7945595Y-23968405D01*
X7945595Y-23892214D01*
X7955119Y-23873167D01*
X7974167Y-23863643D01*
X8012262Y-23863643D01*
X8031309Y-23873167D01*
X8040833Y-23892214D01*
X8040833Y-23911262D01*
X7945595Y-23930309D01*
X8117024Y-23987452D02*
X8136071Y-23996976D01*
X8174167Y-23996976D01*
X8193214Y-23987452D01*
X8202738Y-23968405D01*
X8202738Y-23958881D01*
X8193214Y-23939833D01*
X8174167Y-23930309D01*
X8145595Y-23930309D01*
X8126548Y-23920786D01*
X8117024Y-23901738D01*
X8117024Y-23892214D01*
X8126548Y-23873167D01*
X8145595Y-23863643D01*
X8174167Y-23863643D01*
X8193214Y-23873167D01*
X8269405Y-24073167D02*
X8278928Y-24063643D01*
X8297976Y-24035071D01*
X8307500Y-24016024D01*
X8317024Y-23987452D01*
X8326548Y-23939833D01*
X8326548Y-23901738D01*
X8317024Y-23854119D01*
X8307500Y-23825548D01*
X8297976Y-23806500D01*
X8278928Y-23777928D01*
X8269405Y-23768405D01*
D14*
X3457500Y-24130500D02*
X3457500Y-24210500D01*
X3417500Y-24170500D02*
X3497500Y-24170500D01*
D11*
X3793214Y-24060976D02*
X3812262Y-24060976D01*
X3831309Y-24070500D01*
X3840833Y-24080024D01*
X3850357Y-24099071D01*
X3859881Y-24137167D01*
X3859881Y-24184786D01*
X3850357Y-24222881D01*
X3840833Y-24241928D01*
X3831309Y-24251452D01*
X3812262Y-24260976D01*
X3793214Y-24260976D01*
X3774167Y-24251452D01*
X3764643Y-24241928D01*
X3755119Y-24222881D01*
X3745595Y-24184786D01*
X3745595Y-24137167D01*
X3755119Y-24099071D01*
X3764643Y-24080024D01*
X3774167Y-24070500D01*
X3793214Y-24060976D01*
X3945595Y-24241928D02*
X3955119Y-24251452D01*
X3945595Y-24260976D01*
X3936071Y-24251452D01*
X3945595Y-24241928D01*
X3945595Y-24260976D01*
X4069405Y-24146690D02*
X4050357Y-24137167D01*
X4040833Y-24127643D01*
X4031309Y-24108595D01*
X4031309Y-24099071D01*
X4040833Y-24080024D01*
X4050357Y-24070500D01*
X4069405Y-24060976D01*
X4107500Y-24060976D01*
X4126548Y-24070500D01*
X4136071Y-24080024D01*
X4145595Y-24099071D01*
X4145595Y-24108595D01*
X4136071Y-24127643D01*
X4126548Y-24137167D01*
X4107500Y-24146690D01*
X4069405Y-24146690D01*
X4050357Y-24156214D01*
X4040833Y-24165738D01*
X4031309Y-24184786D01*
X4031309Y-24222881D01*
X4040833Y-24241928D01*
X4050357Y-24251452D01*
X4069405Y-24260976D01*
X4107500Y-24260976D01*
X4126548Y-24251452D01*
X4136071Y-24241928D01*
X4145595Y-24222881D01*
X4145595Y-24184786D01*
X4136071Y-24165738D01*
X4126548Y-24156214D01*
X4107500Y-24146690D01*
X4269405Y-24060976D02*
X4288452Y-24060976D01*
X4307500Y-24070500D01*
X4317024Y-24080024D01*
X4326548Y-24099071D01*
X4336071Y-24137167D01*
X4336071Y-24184786D01*
X4326548Y-24222881D01*
X4317024Y-24241928D01*
X4307500Y-24251452D01*
X4288452Y-24260976D01*
X4269405Y-24260976D01*
X4250357Y-24251452D01*
X4240833Y-24241928D01*
X4231310Y-24222881D01*
X4221786Y-24184786D01*
X4221786Y-24137167D01*
X4231310Y-24099071D01*
X4240833Y-24080024D01*
X4250357Y-24070500D01*
X4269405Y-24060976D01*
X4459881Y-24060976D02*
X4478929Y-24060976D01*
X4497976Y-24070500D01*
X4507500Y-24080024D01*
X4517024Y-24099071D01*
X4526548Y-24137167D01*
X4526548Y-24184786D01*
X4517024Y-24222881D01*
X4507500Y-24241928D01*
X4497976Y-24251452D01*
X4478929Y-24260976D01*
X4459881Y-24260976D01*
X4440833Y-24251452D01*
X4431310Y-24241928D01*
X4421786Y-24222881D01*
X4412262Y-24184786D01*
X4412262Y-24137167D01*
X4421786Y-24099071D01*
X4431310Y-24080024D01*
X4440833Y-24070500D01*
X4459881Y-24060976D01*
X4612262Y-24260976D02*
X4612262Y-24127643D01*
X4612262Y-24146690D02*
X4621786Y-24137167D01*
X4640833Y-24127643D01*
X4669405Y-24127643D01*
X4688452Y-24137167D01*
X4697976Y-24156214D01*
X4697976Y-24260976D01*
X4697976Y-24156214D02*
X4707500Y-24137167D01*
X4726548Y-24127643D01*
X4755119Y-24127643D01*
X4774167Y-24137167D01*
X4783690Y-24156214D01*
X4783690Y-24260976D01*
X4878929Y-24260976D02*
X4878929Y-24127643D01*
X4878929Y-24146690D02*
X4888452Y-24137167D01*
X4907500Y-24127643D01*
X4936071Y-24127643D01*
X4955119Y-24137167D01*
X4964643Y-24156214D01*
X4964643Y-24260976D01*
X4964643Y-24156214D02*
X4974167Y-24137167D01*
X4993214Y-24127643D01*
X5021786Y-24127643D01*
X5040833Y-24137167D01*
X5050357Y-24156214D01*
X5050357Y-24260976D01*
X5440833Y-24051452D02*
X5269405Y-24308595D01*
X5697976Y-24060976D02*
X5717024Y-24060976D01*
X5736071Y-24070500D01*
X5745595Y-24080024D01*
X5755119Y-24099071D01*
X5764643Y-24137167D01*
X5764643Y-24184786D01*
X5755119Y-24222881D01*
X5745595Y-24241928D01*
X5736071Y-24251452D01*
X5717024Y-24260976D01*
X5697976Y-24260976D01*
X5678928Y-24251452D01*
X5669405Y-24241928D01*
X5659881Y-24222881D01*
X5650357Y-24184786D01*
X5650357Y-24137167D01*
X5659881Y-24099071D01*
X5669405Y-24080024D01*
X5678928Y-24070500D01*
X5697976Y-24060976D01*
X5850357Y-24241928D02*
X5859881Y-24251452D01*
X5850357Y-24260976D01*
X5840833Y-24251452D01*
X5850357Y-24241928D01*
X5850357Y-24260976D01*
X5983690Y-24060976D02*
X6002738Y-24060976D01*
X6021786Y-24070500D01*
X6031309Y-24080024D01*
X6040833Y-24099071D01*
X6050357Y-24137167D01*
X6050357Y-24184786D01*
X6040833Y-24222881D01*
X6031309Y-24241928D01*
X6021786Y-24251452D01*
X6002738Y-24260976D01*
X5983690Y-24260976D01*
X5964643Y-24251452D01*
X5955119Y-24241928D01*
X5945595Y-24222881D01*
X5936071Y-24184786D01*
X5936071Y-24137167D01*
X5945595Y-24099071D01*
X5955119Y-24080024D01*
X5964643Y-24070500D01*
X5983690Y-24060976D01*
X6117024Y-24060976D02*
X6240833Y-24060976D01*
X6174167Y-24137167D01*
X6202738Y-24137167D01*
X6221786Y-24146690D01*
X6231309Y-24156214D01*
X6240833Y-24175262D01*
X6240833Y-24222881D01*
X6231309Y-24241928D01*
X6221786Y-24251452D01*
X6202738Y-24260976D01*
X6145595Y-24260976D01*
X6126548Y-24251452D01*
X6117024Y-24241928D01*
X6431309Y-24260976D02*
X6317024Y-24260976D01*
X6374167Y-24260976D02*
X6374167Y-24060976D01*
X6355119Y-24089548D01*
X6336071Y-24108595D01*
X6317024Y-24118119D01*
X6612262Y-24060976D02*
X6517024Y-24060976D01*
X6507500Y-24156214D01*
X6517024Y-24146690D01*
X6536071Y-24137167D01*
X6583690Y-24137167D01*
X6602738Y-24146690D01*
X6612262Y-24156214D01*
X6621786Y-24175262D01*
X6621786Y-24222881D01*
X6612262Y-24241928D01*
X6602738Y-24251452D01*
X6583690Y-24260976D01*
X6536071Y-24260976D01*
X6517024Y-24251452D01*
X6507500Y-24241928D01*
X6697976Y-24060976D02*
X6697976Y-24099071D01*
X6774167Y-24060976D02*
X6774167Y-24099071D01*
X7069405Y-24337167D02*
X7059881Y-24327643D01*
X7040833Y-24299071D01*
X7031309Y-24280024D01*
X7021786Y-24251452D01*
X7012262Y-24203833D01*
X7012262Y-24165738D01*
X7021786Y-24118119D01*
X7031309Y-24089548D01*
X7040833Y-24070500D01*
X7059881Y-24041928D01*
X7069405Y-24032405D01*
X7231309Y-24060976D02*
X7193214Y-24060976D01*
X7174167Y-24070500D01*
X7164643Y-24080024D01*
X7145595Y-24108595D01*
X7136071Y-24146690D01*
X7136071Y-24222881D01*
X7145595Y-24241928D01*
X7155119Y-24251452D01*
X7174167Y-24260976D01*
X7212262Y-24260976D01*
X7231309Y-24251452D01*
X7240833Y-24241928D01*
X7250357Y-24222881D01*
X7250357Y-24175262D01*
X7240833Y-24156214D01*
X7231309Y-24146690D01*
X7212262Y-24137167D01*
X7174167Y-24137167D01*
X7155119Y-24146690D01*
X7145595Y-24156214D01*
X7136071Y-24175262D01*
X7440833Y-24260976D02*
X7326548Y-24260976D01*
X7383690Y-24260976D02*
X7383690Y-24060976D01*
X7364643Y-24089548D01*
X7345595Y-24108595D01*
X7326548Y-24118119D01*
X7517024Y-24080024D02*
X7526548Y-24070500D01*
X7545595Y-24060976D01*
X7593214Y-24060976D01*
X7612262Y-24070500D01*
X7621786Y-24080024D01*
X7631309Y-24099071D01*
X7631309Y-24118119D01*
X7621786Y-24146690D01*
X7507500Y-24260976D01*
X7631309Y-24260976D01*
X7869405Y-24260976D02*
X7869405Y-24060976D01*
X7955119Y-24260976D02*
X7955119Y-24156214D01*
X7945595Y-24137167D01*
X7926548Y-24127643D01*
X7897976Y-24127643D01*
X7878928Y-24137167D01*
X7869405Y-24146690D01*
X8078928Y-24260976D02*
X8059881Y-24251452D01*
X8050357Y-24241928D01*
X8040833Y-24222881D01*
X8040833Y-24165738D01*
X8050357Y-24146690D01*
X8059881Y-24137167D01*
X8078928Y-24127643D01*
X8107500Y-24127643D01*
X8126548Y-24137167D01*
X8136071Y-24146690D01*
X8145595Y-24165738D01*
X8145595Y-24222881D01*
X8136071Y-24241928D01*
X8126548Y-24251452D01*
X8107500Y-24260976D01*
X8078928Y-24260976D01*
X8259881Y-24260976D02*
X8240833Y-24251452D01*
X8231309Y-24232405D01*
X8231309Y-24060976D01*
X8412262Y-24251452D02*
X8393214Y-24260976D01*
X8355119Y-24260976D01*
X8336071Y-24251452D01*
X8326548Y-24232405D01*
X8326548Y-24156214D01*
X8336071Y-24137167D01*
X8355119Y-24127643D01*
X8393214Y-24127643D01*
X8412262Y-24137167D01*
X8421786Y-24156214D01*
X8421786Y-24175262D01*
X8326548Y-24194309D01*
X8497976Y-24251452D02*
X8517024Y-24260976D01*
X8555119Y-24260976D01*
X8574167Y-24251452D01*
X8583690Y-24232405D01*
X8583690Y-24222881D01*
X8574167Y-24203833D01*
X8555119Y-24194309D01*
X8526548Y-24194309D01*
X8507500Y-24184786D01*
X8497976Y-24165738D01*
X8497976Y-24156214D01*
X8507500Y-24137167D01*
X8526548Y-24127643D01*
X8555119Y-24127643D01*
X8574167Y-24137167D01*
X8650357Y-24337167D02*
X8659881Y-24327643D01*
X8678929Y-24299071D01*
X8688452Y-24280024D01*
X8697976Y-24251452D01*
X8707500Y-24203833D01*
X8707500Y-24165738D01*
X8697976Y-24118119D01*
X8688452Y-24089548D01*
X8678929Y-24070500D01*
X8659881Y-24041928D01*
X8650357Y-24032405D01*
D15*
X3484320Y-24466320D02*
X3484320Y-24402680D01*
X3420680Y-24402680D01*
X3420680Y-24466320D01*
X3484320Y-24466320D01*
D11*
X3793214Y-24324976D02*
X3812262Y-24324976D01*
X3831309Y-24334500D01*
X3840833Y-24344024D01*
X3850357Y-24363071D01*
X3859881Y-24401167D01*
X3859881Y-24448786D01*
X3850357Y-24486881D01*
X3840833Y-24505928D01*
X3831309Y-24515452D01*
X3812262Y-24524976D01*
X3793214Y-24524976D01*
X3774167Y-24515452D01*
X3764643Y-24505928D01*
X3755119Y-24486881D01*
X3745595Y-24448786D01*
X3745595Y-24401167D01*
X3755119Y-24363071D01*
X3764643Y-24344024D01*
X3774167Y-24334500D01*
X3793214Y-24324976D01*
X3945595Y-24505928D02*
X3955119Y-24515452D01*
X3945595Y-24524976D01*
X3936071Y-24515452D01*
X3945595Y-24505928D01*
X3945595Y-24524976D01*
X4050357Y-24524976D02*
X4088452Y-24524976D01*
X4107500Y-24515452D01*
X4117024Y-24505928D01*
X4136071Y-24477357D01*
X4145595Y-24439262D01*
X4145595Y-24363071D01*
X4136071Y-24344024D01*
X4126548Y-24334500D01*
X4107500Y-24324976D01*
X4069405Y-24324976D01*
X4050357Y-24334500D01*
X4040833Y-24344024D01*
X4031309Y-24363071D01*
X4031309Y-24410690D01*
X4040833Y-24429738D01*
X4050357Y-24439262D01*
X4069405Y-24448786D01*
X4107500Y-24448786D01*
X4126548Y-24439262D01*
X4136071Y-24429738D01*
X4145595Y-24410690D01*
X4269405Y-24324976D02*
X4288452Y-24324976D01*
X4307500Y-24334500D01*
X4317024Y-24344024D01*
X4326548Y-24363071D01*
X4336071Y-24401167D01*
X4336071Y-24448786D01*
X4326548Y-24486881D01*
X4317024Y-24505928D01*
X4307500Y-24515452D01*
X4288452Y-24524976D01*
X4269405Y-24524976D01*
X4250357Y-24515452D01*
X4240833Y-24505928D01*
X4231310Y-24486881D01*
X4221786Y-24448786D01*
X4221786Y-24401167D01*
X4231310Y-24363071D01*
X4240833Y-24344024D01*
X4250357Y-24334500D01*
X4269405Y-24324976D01*
X4459881Y-24324976D02*
X4478929Y-24324976D01*
X4497976Y-24334500D01*
X4507500Y-24344024D01*
X4517024Y-24363071D01*
X4526548Y-24401167D01*
X4526548Y-24448786D01*
X4517024Y-24486881D01*
X4507500Y-24505928D01*
X4497976Y-24515452D01*
X4478929Y-24524976D01*
X4459881Y-24524976D01*
X4440833Y-24515452D01*
X4431310Y-24505928D01*
X4421786Y-24486881D01*
X4412262Y-24448786D01*
X4412262Y-24401167D01*
X4421786Y-24363071D01*
X4431310Y-24344024D01*
X4440833Y-24334500D01*
X4459881Y-24324976D01*
X4612262Y-24524976D02*
X4612262Y-24391643D01*
X4612262Y-24410690D02*
X4621786Y-24401167D01*
X4640833Y-24391643D01*
X4669405Y-24391643D01*
X4688452Y-24401167D01*
X4697976Y-24420214D01*
X4697976Y-24524976D01*
X4697976Y-24420214D02*
X4707500Y-24401167D01*
X4726548Y-24391643D01*
X4755119Y-24391643D01*
X4774167Y-24401167D01*
X4783690Y-24420214D01*
X4783690Y-24524976D01*
X4878929Y-24524976D02*
X4878929Y-24391643D01*
X4878929Y-24410690D02*
X4888452Y-24401167D01*
X4907500Y-24391643D01*
X4936071Y-24391643D01*
X4955119Y-24401167D01*
X4964643Y-24420214D01*
X4964643Y-24524976D01*
X4964643Y-24420214D02*
X4974167Y-24401167D01*
X4993214Y-24391643D01*
X5021786Y-24391643D01*
X5040833Y-24401167D01*
X5050357Y-24420214D01*
X5050357Y-24524976D01*
X5440833Y-24315452D02*
X5269405Y-24572595D01*
X5697976Y-24324976D02*
X5717024Y-24324976D01*
X5736071Y-24334500D01*
X5745595Y-24344024D01*
X5755119Y-24363071D01*
X5764643Y-24401167D01*
X5764643Y-24448786D01*
X5755119Y-24486881D01*
X5745595Y-24505928D01*
X5736071Y-24515452D01*
X5717024Y-24524976D01*
X5697976Y-24524976D01*
X5678928Y-24515452D01*
X5669405Y-24505928D01*
X5659881Y-24486881D01*
X5650357Y-24448786D01*
X5650357Y-24401167D01*
X5659881Y-24363071D01*
X5669405Y-24344024D01*
X5678928Y-24334500D01*
X5697976Y-24324976D01*
X5850357Y-24505928D02*
X5859881Y-24515452D01*
X5850357Y-24524976D01*
X5840833Y-24515452D01*
X5850357Y-24505928D01*
X5850357Y-24524976D01*
X5983690Y-24324976D02*
X6002738Y-24324976D01*
X6021786Y-24334500D01*
X6031309Y-24344024D01*
X6040833Y-24363071D01*
X6050357Y-24401167D01*
X6050357Y-24448786D01*
X6040833Y-24486881D01*
X6031309Y-24505928D01*
X6021786Y-24515452D01*
X6002738Y-24524976D01*
X5983690Y-24524976D01*
X5964643Y-24515452D01*
X5955119Y-24505928D01*
X5945595Y-24486881D01*
X5936071Y-24448786D01*
X5936071Y-24401167D01*
X5945595Y-24363071D01*
X5955119Y-24344024D01*
X5964643Y-24334500D01*
X5983690Y-24324976D01*
X6117024Y-24324976D02*
X6240833Y-24324976D01*
X6174167Y-24401167D01*
X6202738Y-24401167D01*
X6221786Y-24410690D01*
X6231309Y-24420214D01*
X6240833Y-24439262D01*
X6240833Y-24486881D01*
X6231309Y-24505928D01*
X6221786Y-24515452D01*
X6202738Y-24524976D01*
X6145595Y-24524976D01*
X6126548Y-24515452D01*
X6117024Y-24505928D01*
X6421786Y-24324976D02*
X6326548Y-24324976D01*
X6317024Y-24420214D01*
X6326548Y-24410690D01*
X6345595Y-24401167D01*
X6393214Y-24401167D01*
X6412262Y-24410690D01*
X6421786Y-24420214D01*
X6431309Y-24439262D01*
X6431309Y-24486881D01*
X6421786Y-24505928D01*
X6412262Y-24515452D01*
X6393214Y-24524976D01*
X6345595Y-24524976D01*
X6326548Y-24515452D01*
X6317024Y-24505928D01*
X6602738Y-24391643D02*
X6602738Y-24524976D01*
X6555119Y-24315452D02*
X6507500Y-24458309D01*
X6631309Y-24458309D01*
X6697976Y-24324976D02*
X6697976Y-24363071D01*
X6774167Y-24324976D02*
X6774167Y-24363071D01*
X7069405Y-24601167D02*
X7059881Y-24591643D01*
X7040833Y-24563071D01*
X7031309Y-24544024D01*
X7021786Y-24515452D01*
X7012262Y-24467833D01*
X7012262Y-24429738D01*
X7021786Y-24382119D01*
X7031309Y-24353548D01*
X7040833Y-24334500D01*
X7059881Y-24305928D01*
X7069405Y-24296405D01*
X7250357Y-24524976D02*
X7136071Y-24524976D01*
X7193214Y-24524976D02*
X7193214Y-24324976D01*
X7174167Y-24353548D01*
X7155119Y-24372595D01*
X7136071Y-24382119D01*
X7421786Y-24324976D02*
X7383690Y-24324976D01*
X7364643Y-24334500D01*
X7355119Y-24344024D01*
X7336071Y-24372595D01*
X7326548Y-24410690D01*
X7326548Y-24486881D01*
X7336071Y-24505928D01*
X7345595Y-24515452D01*
X7364643Y-24524976D01*
X7402738Y-24524976D01*
X7421786Y-24515452D01*
X7431309Y-24505928D01*
X7440833Y-24486881D01*
X7440833Y-24439262D01*
X7431309Y-24420214D01*
X7421786Y-24410690D01*
X7402738Y-24401167D01*
X7364643Y-24401167D01*
X7345595Y-24410690D01*
X7336071Y-24420214D01*
X7326548Y-24439262D01*
X7678928Y-24524976D02*
X7678928Y-24324976D01*
X7764643Y-24524976D02*
X7764643Y-24420214D01*
X7755119Y-24401167D01*
X7736071Y-24391643D01*
X7707500Y-24391643D01*
X7688452Y-24401167D01*
X7678928Y-24410690D01*
X7888452Y-24524976D02*
X7869405Y-24515452D01*
X7859881Y-24505928D01*
X7850357Y-24486881D01*
X7850357Y-24429738D01*
X7859881Y-24410690D01*
X7869405Y-24401167D01*
X7888452Y-24391643D01*
X7917024Y-24391643D01*
X7936071Y-24401167D01*
X7945595Y-24410690D01*
X7955119Y-24429738D01*
X7955119Y-24486881D01*
X7945595Y-24505928D01*
X7936071Y-24515452D01*
X7917024Y-24524976D01*
X7888452Y-24524976D01*
X8069405Y-24524976D02*
X8050357Y-24515452D01*
X8040833Y-24496405D01*
X8040833Y-24324976D01*
X8221786Y-24515452D02*
X8202738Y-24524976D01*
X8164643Y-24524976D01*
X8145595Y-24515452D01*
X8136071Y-24496405D01*
X8136071Y-24420214D01*
X8145595Y-24401167D01*
X8164643Y-24391643D01*
X8202738Y-24391643D01*
X8221786Y-24401167D01*
X8231309Y-24420214D01*
X8231309Y-24439262D01*
X8136071Y-24458309D01*
X8307500Y-24515452D02*
X8326548Y-24524976D01*
X8364643Y-24524976D01*
X8383690Y-24515452D01*
X8393214Y-24496405D01*
X8393214Y-24486881D01*
X8383690Y-24467833D01*
X8364643Y-24458309D01*
X8336071Y-24458309D01*
X8317024Y-24448786D01*
X8307500Y-24429738D01*
X8307500Y-24420214D01*
X8317024Y-24401167D01*
X8336071Y-24391643D01*
X8364643Y-24391643D01*
X8383690Y-24401167D01*
X8459881Y-24601167D02*
X8469405Y-24591643D01*
X8488452Y-24563071D01*
X8497976Y-24544024D01*
X8507500Y-24515452D01*
X8517024Y-24467833D01*
X8517024Y-24429738D01*
X8507500Y-24382119D01*
X8497976Y-24353548D01*
X8488452Y-24334500D01*
X8469405Y-24305928D01*
X8459881Y-24296405D01*
D16*
X3448000Y-24748000D02*
X3497500Y-24698500D01*
X3448000Y-24649000D01*
X3398500Y-24698500D01*
X3448000Y-24748000D01*
D11*
X3793214Y-24588976D02*
X3812262Y-24588976D01*
X3831309Y-24598500D01*
X3840833Y-24608024D01*
X3850357Y-24627071D01*
X3859881Y-24665167D01*
X3859881Y-24712786D01*
X3850357Y-24750881D01*
X3840833Y-24769928D01*
X3831309Y-24779452D01*
X3812262Y-24788976D01*
X3793214Y-24788976D01*
X3774167Y-24779452D01*
X3764643Y-24769928D01*
X3755119Y-24750881D01*
X3745595Y-24712786D01*
X3745595Y-24665167D01*
X3755119Y-24627071D01*
X3764643Y-24608024D01*
X3774167Y-24598500D01*
X3793214Y-24588976D01*
X3945595Y-24769928D02*
X3955119Y-24779452D01*
X3945595Y-24788976D01*
X3936071Y-24779452D01*
X3945595Y-24769928D01*
X3945595Y-24788976D01*
X4050357Y-24788976D02*
X4088452Y-24788976D01*
X4107500Y-24779452D01*
X4117024Y-24769928D01*
X4136071Y-24741357D01*
X4145595Y-24703262D01*
X4145595Y-24627071D01*
X4136071Y-24608024D01*
X4126548Y-24598500D01*
X4107500Y-24588976D01*
X4069405Y-24588976D01*
X4050357Y-24598500D01*
X4040833Y-24608024D01*
X4031309Y-24627071D01*
X4031309Y-24674690D01*
X4040833Y-24693738D01*
X4050357Y-24703262D01*
X4069405Y-24712786D01*
X4107500Y-24712786D01*
X4126548Y-24703262D01*
X4136071Y-24693738D01*
X4145595Y-24674690D01*
X4240833Y-24788976D02*
X4278929Y-24788976D01*
X4297976Y-24779452D01*
X4307500Y-24769928D01*
X4326548Y-24741357D01*
X4336071Y-24703262D01*
X4336071Y-24627071D01*
X4326548Y-24608024D01*
X4317024Y-24598500D01*
X4297976Y-24588976D01*
X4259881Y-24588976D01*
X4240833Y-24598500D01*
X4231310Y-24608024D01*
X4221786Y-24627071D01*
X4221786Y-24674690D01*
X4231310Y-24693738D01*
X4240833Y-24703262D01*
X4259881Y-24712786D01*
X4297976Y-24712786D01*
X4317024Y-24703262D01*
X4326548Y-24693738D01*
X4336071Y-24674690D01*
X4459881Y-24588976D02*
X4478929Y-24588976D01*
X4497976Y-24598500D01*
X4507500Y-24608024D01*
X4517024Y-24627071D01*
X4526548Y-24665167D01*
X4526548Y-24712786D01*
X4517024Y-24750881D01*
X4507500Y-24769928D01*
X4497976Y-24779452D01*
X4478929Y-24788976D01*
X4459881Y-24788976D01*
X4440833Y-24779452D01*
X4431310Y-24769928D01*
X4421786Y-24750881D01*
X4412262Y-24712786D01*
X4412262Y-24665167D01*
X4421786Y-24627071D01*
X4431310Y-24608024D01*
X4440833Y-24598500D01*
X4459881Y-24588976D01*
X4612262Y-24788976D02*
X4612262Y-24655643D01*
X4612262Y-24674690D02*
X4621786Y-24665167D01*
X4640833Y-24655643D01*
X4669405Y-24655643D01*
X4688452Y-24665167D01*
X4697976Y-24684214D01*
X4697976Y-24788976D01*
X4697976Y-24684214D02*
X4707500Y-24665167D01*
X4726548Y-24655643D01*
X4755119Y-24655643D01*
X4774167Y-24665167D01*
X4783690Y-24684214D01*
X4783690Y-24788976D01*
X4878929Y-24788976D02*
X4878929Y-24655643D01*
X4878929Y-24674690D02*
X4888452Y-24665167D01*
X4907500Y-24655643D01*
X4936071Y-24655643D01*
X4955119Y-24665167D01*
X4964643Y-24684214D01*
X4964643Y-24788976D01*
X4964643Y-24684214D02*
X4974167Y-24665167D01*
X4993214Y-24655643D01*
X5021786Y-24655643D01*
X5040833Y-24665167D01*
X5050357Y-24684214D01*
X5050357Y-24788976D01*
X5440833Y-24579452D02*
X5269405Y-24836595D01*
X5697976Y-24588976D02*
X5717024Y-24588976D01*
X5736071Y-24598500D01*
X5745595Y-24608024D01*
X5755119Y-24627071D01*
X5764643Y-24665167D01*
X5764643Y-24712786D01*
X5755119Y-24750881D01*
X5745595Y-24769928D01*
X5736071Y-24779452D01*
X5717024Y-24788976D01*
X5697976Y-24788976D01*
X5678928Y-24779452D01*
X5669405Y-24769928D01*
X5659881Y-24750881D01*
X5650357Y-24712786D01*
X5650357Y-24665167D01*
X5659881Y-24627071D01*
X5669405Y-24608024D01*
X5678928Y-24598500D01*
X5697976Y-24588976D01*
X5850357Y-24769928D02*
X5859881Y-24779452D01*
X5850357Y-24788976D01*
X5840833Y-24779452D01*
X5850357Y-24769928D01*
X5850357Y-24788976D01*
X5983690Y-24588976D02*
X6002738Y-24588976D01*
X6021786Y-24598500D01*
X6031309Y-24608024D01*
X6040833Y-24627071D01*
X6050357Y-24665167D01*
X6050357Y-24712786D01*
X6040833Y-24750881D01*
X6031309Y-24769928D01*
X6021786Y-24779452D01*
X6002738Y-24788976D01*
X5983690Y-24788976D01*
X5964643Y-24779452D01*
X5955119Y-24769928D01*
X5945595Y-24750881D01*
X5936071Y-24712786D01*
X5936071Y-24665167D01*
X5945595Y-24627071D01*
X5955119Y-24608024D01*
X5964643Y-24598500D01*
X5983690Y-24588976D01*
X6117024Y-24588976D02*
X6240833Y-24588976D01*
X6174167Y-24665167D01*
X6202738Y-24665167D01*
X6221786Y-24674690D01*
X6231309Y-24684214D01*
X6240833Y-24703262D01*
X6240833Y-24750881D01*
X6231309Y-24769928D01*
X6221786Y-24779452D01*
X6202738Y-24788976D01*
X6145595Y-24788976D01*
X6126548Y-24779452D01*
X6117024Y-24769928D01*
X6336071Y-24788976D02*
X6374167Y-24788976D01*
X6393214Y-24779452D01*
X6402738Y-24769928D01*
X6421786Y-24741357D01*
X6431309Y-24703262D01*
X6431309Y-24627071D01*
X6421786Y-24608024D01*
X6412262Y-24598500D01*
X6393214Y-24588976D01*
X6355119Y-24588976D01*
X6336071Y-24598500D01*
X6326548Y-24608024D01*
X6317024Y-24627071D01*
X6317024Y-24674690D01*
X6326548Y-24693738D01*
X6336071Y-24703262D01*
X6355119Y-24712786D01*
X6393214Y-24712786D01*
X6412262Y-24703262D01*
X6421786Y-24693738D01*
X6431309Y-24674690D01*
X6555119Y-24588976D02*
X6574167Y-24588976D01*
X6593214Y-24598500D01*
X6602738Y-24608024D01*
X6612262Y-24627071D01*
X6621786Y-24665167D01*
X6621786Y-24712786D01*
X6612262Y-24750881D01*
X6602738Y-24769928D01*
X6593214Y-24779452D01*
X6574167Y-24788976D01*
X6555119Y-24788976D01*
X6536071Y-24779452D01*
X6526548Y-24769928D01*
X6517024Y-24750881D01*
X6507500Y-24712786D01*
X6507500Y-24665167D01*
X6517024Y-24627071D01*
X6526548Y-24608024D01*
X6536071Y-24598500D01*
X6555119Y-24588976D01*
X6697976Y-24588976D02*
X6697976Y-24627071D01*
X6774167Y-24588976D02*
X6774167Y-24627071D01*
X7069405Y-24865167D02*
X7059881Y-24855643D01*
X7040833Y-24827071D01*
X7031309Y-24808024D01*
X7021786Y-24779452D01*
X7012262Y-24731833D01*
X7012262Y-24693738D01*
X7021786Y-24646119D01*
X7031309Y-24617548D01*
X7040833Y-24598500D01*
X7059881Y-24569928D01*
X7069405Y-24560405D01*
X7136071Y-24608024D02*
X7145595Y-24598500D01*
X7164643Y-24588976D01*
X7212262Y-24588976D01*
X7231309Y-24598500D01*
X7240833Y-24608024D01*
X7250357Y-24627071D01*
X7250357Y-24646119D01*
X7240833Y-24674690D01*
X7126548Y-24788976D01*
X7250357Y-24788976D01*
X7488452Y-24788976D02*
X7488452Y-24588976D01*
X7574167Y-24788976D02*
X7574167Y-24684214D01*
X7564643Y-24665167D01*
X7545595Y-24655643D01*
X7517024Y-24655643D01*
X7497976Y-24665167D01*
X7488452Y-24674690D01*
X7697976Y-24788976D02*
X7678928Y-24779452D01*
X7669405Y-24769928D01*
X7659881Y-24750881D01*
X7659881Y-24693738D01*
X7669405Y-24674690D01*
X7678928Y-24665167D01*
X7697976Y-24655643D01*
X7726548Y-24655643D01*
X7745595Y-24665167D01*
X7755119Y-24674690D01*
X7764643Y-24693738D01*
X7764643Y-24750881D01*
X7755119Y-24769928D01*
X7745595Y-24779452D01*
X7726548Y-24788976D01*
X7697976Y-24788976D01*
X7878928Y-24788976D02*
X7859881Y-24779452D01*
X7850357Y-24760405D01*
X7850357Y-24588976D01*
X8031309Y-24779452D02*
X8012262Y-24788976D01*
X7974167Y-24788976D01*
X7955119Y-24779452D01*
X7945595Y-24760405D01*
X7945595Y-24684214D01*
X7955119Y-24665167D01*
X7974167Y-24655643D01*
X8012262Y-24655643D01*
X8031309Y-24665167D01*
X8040833Y-24684214D01*
X8040833Y-24703262D01*
X7945595Y-24722309D01*
X8117024Y-24779452D02*
X8136071Y-24788976D01*
X8174167Y-24788976D01*
X8193214Y-24779452D01*
X8202738Y-24760405D01*
X8202738Y-24750881D01*
X8193214Y-24731833D01*
X8174167Y-24722309D01*
X8145595Y-24722309D01*
X8126548Y-24712786D01*
X8117024Y-24693738D01*
X8117024Y-24684214D01*
X8126548Y-24665167D01*
X8145595Y-24655643D01*
X8174167Y-24655643D01*
X8193214Y-24665167D01*
X8269405Y-24865167D02*
X8278928Y-24855643D01*
X8297976Y-24827071D01*
X8307500Y-24808024D01*
X8317024Y-24779452D01*
X8326548Y-24731833D01*
X8326548Y-24693738D01*
X8317024Y-24646119D01*
X8307500Y-24617548D01*
X8297976Y-24598500D01*
X8278928Y-24569928D01*
X8269405Y-24560405D01*
D17*
X3397500Y-24912500D02*
X3497500Y-25012500D01*
X3497500Y-24912500D02*
X3397500Y-25012500D01*
X3497500Y-24962500D02*
G75*
G03*
X3497500Y-24962500I-50000J0D01*
G01*
D11*
X3859881Y-25052976D02*
X3745595Y-25052976D01*
X3802738Y-25052976D02*
X3802738Y-24852976D01*
X3783690Y-24881548D01*
X3764643Y-24900595D01*
X3745595Y-24910119D01*
X3945595Y-25033928D02*
X3955119Y-25043452D01*
X3945595Y-25052976D01*
X3936071Y-25043452D01*
X3945595Y-25033928D01*
X3945595Y-25052976D01*
X4078928Y-24852976D02*
X4097976Y-24852976D01*
X4117024Y-24862500D01*
X4126548Y-24872024D01*
X4136071Y-24891071D01*
X4145595Y-24929167D01*
X4145595Y-24976786D01*
X4136071Y-25014881D01*
X4126548Y-25033928D01*
X4117024Y-25043452D01*
X4097976Y-25052976D01*
X4078928Y-25052976D01*
X4059881Y-25043452D01*
X4050357Y-25033928D01*
X4040833Y-25014881D01*
X4031309Y-24976786D01*
X4031309Y-24929167D01*
X4040833Y-24891071D01*
X4050357Y-24872024D01*
X4059881Y-24862500D01*
X4078928Y-24852976D01*
X4269405Y-24852976D02*
X4288452Y-24852976D01*
X4307500Y-24862500D01*
X4317024Y-24872024D01*
X4326548Y-24891071D01*
X4336071Y-24929167D01*
X4336071Y-24976786D01*
X4326548Y-25014881D01*
X4317024Y-25033928D01*
X4307500Y-25043452D01*
X4288452Y-25052976D01*
X4269405Y-25052976D01*
X4250357Y-25043452D01*
X4240833Y-25033928D01*
X4231310Y-25014881D01*
X4221786Y-24976786D01*
X4221786Y-24929167D01*
X4231310Y-24891071D01*
X4240833Y-24872024D01*
X4250357Y-24862500D01*
X4269405Y-24852976D01*
X4459881Y-24852976D02*
X4478929Y-24852976D01*
X4497976Y-24862500D01*
X4507500Y-24872024D01*
X4517024Y-24891071D01*
X4526548Y-24929167D01*
X4526548Y-24976786D01*
X4517024Y-25014881D01*
X4507500Y-25033928D01*
X4497976Y-25043452D01*
X4478929Y-25052976D01*
X4459881Y-25052976D01*
X4440833Y-25043452D01*
X4431310Y-25033928D01*
X4421786Y-25014881D01*
X4412262Y-24976786D01*
X4412262Y-24929167D01*
X4421786Y-24891071D01*
X4431310Y-24872024D01*
X4440833Y-24862500D01*
X4459881Y-24852976D01*
X4612262Y-25052976D02*
X4612262Y-24919643D01*
X4612262Y-24938690D02*
X4621786Y-24929167D01*
X4640833Y-24919643D01*
X4669405Y-24919643D01*
X4688452Y-24929167D01*
X4697976Y-24948214D01*
X4697976Y-25052976D01*
X4697976Y-24948214D02*
X4707500Y-24929167D01*
X4726548Y-24919643D01*
X4755119Y-24919643D01*
X4774167Y-24929167D01*
X4783690Y-24948214D01*
X4783690Y-25052976D01*
X4878929Y-25052976D02*
X4878929Y-24919643D01*
X4878929Y-24938690D02*
X4888452Y-24929167D01*
X4907500Y-24919643D01*
X4936071Y-24919643D01*
X4955119Y-24929167D01*
X4964643Y-24948214D01*
X4964643Y-25052976D01*
X4964643Y-24948214D02*
X4974167Y-24929167D01*
X4993214Y-24919643D01*
X5021786Y-24919643D01*
X5040833Y-24929167D01*
X5050357Y-24948214D01*
X5050357Y-25052976D01*
X5440833Y-24843452D02*
X5269405Y-25100595D01*
X5697976Y-24852976D02*
X5717024Y-24852976D01*
X5736071Y-24862500D01*
X5745595Y-24872024D01*
X5755119Y-24891071D01*
X5764643Y-24929167D01*
X5764643Y-24976786D01*
X5755119Y-25014881D01*
X5745595Y-25033928D01*
X5736071Y-25043452D01*
X5717024Y-25052976D01*
X5697976Y-25052976D01*
X5678928Y-25043452D01*
X5669405Y-25033928D01*
X5659881Y-25014881D01*
X5650357Y-24976786D01*
X5650357Y-24929167D01*
X5659881Y-24891071D01*
X5669405Y-24872024D01*
X5678928Y-24862500D01*
X5697976Y-24852976D01*
X5850357Y-25033928D02*
X5859881Y-25043452D01*
X5850357Y-25052976D01*
X5840833Y-25043452D01*
X5850357Y-25033928D01*
X5850357Y-25052976D01*
X5983690Y-24852976D02*
X6002738Y-24852976D01*
X6021786Y-24862500D01*
X6031309Y-24872024D01*
X6040833Y-24891071D01*
X6050357Y-24929167D01*
X6050357Y-24976786D01*
X6040833Y-25014881D01*
X6031309Y-25033928D01*
X6021786Y-25043452D01*
X6002738Y-25052976D01*
X5983690Y-25052976D01*
X5964643Y-25043452D01*
X5955119Y-25033928D01*
X5945595Y-25014881D01*
X5936071Y-24976786D01*
X5936071Y-24929167D01*
X5945595Y-24891071D01*
X5955119Y-24872024D01*
X5964643Y-24862500D01*
X5983690Y-24852976D01*
X6117024Y-24852976D02*
X6240833Y-24852976D01*
X6174167Y-24929167D01*
X6202738Y-24929167D01*
X6221786Y-24938690D01*
X6231309Y-24948214D01*
X6240833Y-24967262D01*
X6240833Y-25014881D01*
X6231309Y-25033928D01*
X6221786Y-25043452D01*
X6202738Y-25052976D01*
X6145595Y-25052976D01*
X6126548Y-25043452D01*
X6117024Y-25033928D01*
X6336071Y-25052976D02*
X6374167Y-25052976D01*
X6393214Y-25043452D01*
X6402738Y-25033928D01*
X6421786Y-25005357D01*
X6431309Y-24967262D01*
X6431309Y-24891071D01*
X6421786Y-24872024D01*
X6412262Y-24862500D01*
X6393214Y-24852976D01*
X6355119Y-24852976D01*
X6336071Y-24862500D01*
X6326548Y-24872024D01*
X6317024Y-24891071D01*
X6317024Y-24938690D01*
X6326548Y-24957738D01*
X6336071Y-24967262D01*
X6355119Y-24976786D01*
X6393214Y-24976786D01*
X6412262Y-24967262D01*
X6421786Y-24957738D01*
X6431309Y-24938690D01*
X6602738Y-24919643D02*
X6602738Y-25052976D01*
X6555119Y-24843452D02*
X6507500Y-24986309D01*
X6631309Y-24986309D01*
X6697976Y-24852976D02*
X6697976Y-24891071D01*
X6774167Y-24852976D02*
X6774167Y-24891071D01*
X7069405Y-25129167D02*
X7059881Y-25119643D01*
X7040833Y-25091071D01*
X7031309Y-25072024D01*
X7021786Y-25043452D01*
X7012262Y-24995833D01*
X7012262Y-24957738D01*
X7021786Y-24910119D01*
X7031309Y-24881548D01*
X7040833Y-24862500D01*
X7059881Y-24833928D01*
X7069405Y-24824405D01*
X7136071Y-24872024D02*
X7145595Y-24862500D01*
X7164643Y-24852976D01*
X7212262Y-24852976D01*
X7231309Y-24862500D01*
X7240833Y-24872024D01*
X7250357Y-24891071D01*
X7250357Y-24910119D01*
X7240833Y-24938690D01*
X7126548Y-25052976D01*
X7250357Y-25052976D01*
X7421786Y-24919643D02*
X7421786Y-25052976D01*
X7374167Y-24843452D02*
X7326548Y-24986309D01*
X7450357Y-24986309D01*
X7612262Y-24852976D02*
X7574167Y-24852976D01*
X7555119Y-24862500D01*
X7545595Y-24872024D01*
X7526548Y-24900595D01*
X7517024Y-24938690D01*
X7517024Y-25014881D01*
X7526548Y-25033928D01*
X7536071Y-25043452D01*
X7555119Y-25052976D01*
X7593214Y-25052976D01*
X7612262Y-25043452D01*
X7621786Y-25033928D01*
X7631309Y-25014881D01*
X7631309Y-24967262D01*
X7621786Y-24948214D01*
X7612262Y-24938690D01*
X7593214Y-24929167D01*
X7555119Y-24929167D01*
X7536071Y-24938690D01*
X7526548Y-24948214D01*
X7517024Y-24967262D01*
X7869405Y-25052976D02*
X7869405Y-24852976D01*
X7955119Y-25052976D02*
X7955119Y-24948214D01*
X7945595Y-24929167D01*
X7926548Y-24919643D01*
X7897976Y-24919643D01*
X7878928Y-24929167D01*
X7869405Y-24938690D01*
X8078928Y-25052976D02*
X8059881Y-25043452D01*
X8050357Y-25033928D01*
X8040833Y-25014881D01*
X8040833Y-24957738D01*
X8050357Y-24938690D01*
X8059881Y-24929167D01*
X8078928Y-24919643D01*
X8107500Y-24919643D01*
X8126548Y-24929167D01*
X8136071Y-24938690D01*
X8145595Y-24957738D01*
X8145595Y-25014881D01*
X8136071Y-25033928D01*
X8126548Y-25043452D01*
X8107500Y-25052976D01*
X8078928Y-25052976D01*
X8259881Y-25052976D02*
X8240833Y-25043452D01*
X8231309Y-25024405D01*
X8231309Y-24852976D01*
X8412262Y-25043452D02*
X8393214Y-25052976D01*
X8355119Y-25052976D01*
X8336071Y-25043452D01*
X8326548Y-25024405D01*
X8326548Y-24948214D01*
X8336071Y-24929167D01*
X8355119Y-24919643D01*
X8393214Y-24919643D01*
X8412262Y-24929167D01*
X8421786Y-24948214D01*
X8421786Y-24967262D01*
X8326548Y-24986309D01*
X8497976Y-25043452D02*
X8517024Y-25052976D01*
X8555119Y-25052976D01*
X8574167Y-25043452D01*
X8583690Y-25024405D01*
X8583690Y-25014881D01*
X8574167Y-24995833D01*
X8555119Y-24986309D01*
X8526548Y-24986309D01*
X8507500Y-24976786D01*
X8497976Y-24957738D01*
X8497976Y-24948214D01*
X8507500Y-24929167D01*
X8526548Y-24919643D01*
X8555119Y-24919643D01*
X8574167Y-24929167D01*
X8650357Y-25129167D02*
X8659881Y-25119643D01*
X8678929Y-25091071D01*
X8688452Y-25072024D01*
X8697976Y-25043452D01*
X8707500Y-24995833D01*
X8707500Y-24957738D01*
X8697976Y-24910119D01*
X8688452Y-24881548D01*
X8678929Y-24862500D01*
X8659881Y-24833928D01*
X8650357Y-24824405D01*
D18*
X3367500Y-25161500D02*
X3497500Y-25291500D01*
X3497500Y-25161500D02*
X3367500Y-25291500D01*
X3432500Y-25161500D02*
X3432500Y-25291500D01*
X3367500Y-25226500D02*
X3497500Y-25226500D01*
D11*
X3859881Y-25316976D02*
X3745595Y-25316976D01*
X3802738Y-25316976D02*
X3802738Y-25116976D01*
X3783690Y-25145548D01*
X3764643Y-25164595D01*
X3745595Y-25174119D01*
X3945595Y-25297928D02*
X3955119Y-25307452D01*
X3945595Y-25316976D01*
X3936071Y-25307452D01*
X3945595Y-25297928D01*
X3945595Y-25316976D01*
X4021786Y-25116976D02*
X4145595Y-25116976D01*
X4078928Y-25193167D01*
X4107500Y-25193167D01*
X4126548Y-25202690D01*
X4136071Y-25212214D01*
X4145595Y-25231262D01*
X4145595Y-25278881D01*
X4136071Y-25297928D01*
X4126548Y-25307452D01*
X4107500Y-25316976D01*
X4050357Y-25316976D01*
X4031309Y-25307452D01*
X4021786Y-25297928D01*
X4269405Y-25116976D02*
X4288452Y-25116976D01*
X4307500Y-25126500D01*
X4317024Y-25136024D01*
X4326548Y-25155071D01*
X4336071Y-25193167D01*
X4336071Y-25240786D01*
X4326548Y-25278881D01*
X4317024Y-25297928D01*
X4307500Y-25307452D01*
X4288452Y-25316976D01*
X4269405Y-25316976D01*
X4250357Y-25307452D01*
X4240833Y-25297928D01*
X4231310Y-25278881D01*
X4221786Y-25240786D01*
X4221786Y-25193167D01*
X4231310Y-25155071D01*
X4240833Y-25136024D01*
X4250357Y-25126500D01*
X4269405Y-25116976D01*
X4459881Y-25116976D02*
X4478929Y-25116976D01*
X4497976Y-25126500D01*
X4507500Y-25136024D01*
X4517024Y-25155071D01*
X4526548Y-25193167D01*
X4526548Y-25240786D01*
X4517024Y-25278881D01*
X4507500Y-25297928D01*
X4497976Y-25307452D01*
X4478929Y-25316976D01*
X4459881Y-25316976D01*
X4440833Y-25307452D01*
X4431310Y-25297928D01*
X4421786Y-25278881D01*
X4412262Y-25240786D01*
X4412262Y-25193167D01*
X4421786Y-25155071D01*
X4431310Y-25136024D01*
X4440833Y-25126500D01*
X4459881Y-25116976D01*
X4612262Y-25316976D02*
X4612262Y-25183643D01*
X4612262Y-25202690D02*
X4621786Y-25193167D01*
X4640833Y-25183643D01*
X4669405Y-25183643D01*
X4688452Y-25193167D01*
X4697976Y-25212214D01*
X4697976Y-25316976D01*
X4697976Y-25212214D02*
X4707500Y-25193167D01*
X4726548Y-25183643D01*
X4755119Y-25183643D01*
X4774167Y-25193167D01*
X4783690Y-25212214D01*
X4783690Y-25316976D01*
X4878929Y-25316976D02*
X4878929Y-25183643D01*
X4878929Y-25202690D02*
X4888452Y-25193167D01*
X4907500Y-25183643D01*
X4936071Y-25183643D01*
X4955119Y-25193167D01*
X4964643Y-25212214D01*
X4964643Y-25316976D01*
X4964643Y-25212214D02*
X4974167Y-25193167D01*
X4993214Y-25183643D01*
X5021786Y-25183643D01*
X5040833Y-25193167D01*
X5050357Y-25212214D01*
X5050357Y-25316976D01*
X5440833Y-25107452D02*
X5269405Y-25364595D01*
X5697976Y-25116976D02*
X5717024Y-25116976D01*
X5736071Y-25126500D01*
X5745595Y-25136024D01*
X5755119Y-25155071D01*
X5764643Y-25193167D01*
X5764643Y-25240786D01*
X5755119Y-25278881D01*
X5745595Y-25297928D01*
X5736071Y-25307452D01*
X5717024Y-25316976D01*
X5697976Y-25316976D01*
X5678928Y-25307452D01*
X5669405Y-25297928D01*
X5659881Y-25278881D01*
X5650357Y-25240786D01*
X5650357Y-25193167D01*
X5659881Y-25155071D01*
X5669405Y-25136024D01*
X5678928Y-25126500D01*
X5697976Y-25116976D01*
X5850357Y-25297928D02*
X5859881Y-25307452D01*
X5850357Y-25316976D01*
X5840833Y-25307452D01*
X5850357Y-25297928D01*
X5850357Y-25316976D01*
X5983690Y-25116976D02*
X6002738Y-25116976D01*
X6021786Y-25126500D01*
X6031309Y-25136024D01*
X6040833Y-25155071D01*
X6050357Y-25193167D01*
X6050357Y-25240786D01*
X6040833Y-25278881D01*
X6031309Y-25297928D01*
X6021786Y-25307452D01*
X6002738Y-25316976D01*
X5983690Y-25316976D01*
X5964643Y-25307452D01*
X5955119Y-25297928D01*
X5945595Y-25278881D01*
X5936071Y-25240786D01*
X5936071Y-25193167D01*
X5945595Y-25155071D01*
X5955119Y-25136024D01*
X5964643Y-25126500D01*
X5983690Y-25116976D01*
X6231309Y-25116976D02*
X6136071Y-25116976D01*
X6126548Y-25212214D01*
X6136071Y-25202690D01*
X6155119Y-25193167D01*
X6202738Y-25193167D01*
X6221786Y-25202690D01*
X6231309Y-25212214D01*
X6240833Y-25231262D01*
X6240833Y-25278881D01*
X6231309Y-25297928D01*
X6221786Y-25307452D01*
X6202738Y-25316976D01*
X6155119Y-25316976D01*
X6136071Y-25307452D01*
X6126548Y-25297928D01*
X6431309Y-25316976D02*
X6317024Y-25316976D01*
X6374167Y-25316976D02*
X6374167Y-25116976D01*
X6355119Y-25145548D01*
X6336071Y-25164595D01*
X6317024Y-25174119D01*
X6507500Y-25136024D02*
X6517024Y-25126500D01*
X6536071Y-25116976D01*
X6583690Y-25116976D01*
X6602738Y-25126500D01*
X6612262Y-25136024D01*
X6621786Y-25155071D01*
X6621786Y-25174119D01*
X6612262Y-25202690D01*
X6497976Y-25316976D01*
X6621786Y-25316976D01*
X6697976Y-25116976D02*
X6697976Y-25155071D01*
X6774167Y-25116976D02*
X6774167Y-25155071D01*
X7069405Y-25393167D02*
X7059881Y-25383643D01*
X7040833Y-25355071D01*
X7031309Y-25336024D01*
X7021786Y-25307452D01*
X7012262Y-25259833D01*
X7012262Y-25221738D01*
X7021786Y-25174119D01*
X7031309Y-25145548D01*
X7040833Y-25126500D01*
X7059881Y-25097928D01*
X7069405Y-25088405D01*
X7136071Y-25136024D02*
X7145595Y-25126500D01*
X7164643Y-25116976D01*
X7212262Y-25116976D01*
X7231309Y-25126500D01*
X7240833Y-25136024D01*
X7250357Y-25155071D01*
X7250357Y-25174119D01*
X7240833Y-25202690D01*
X7126548Y-25316976D01*
X7250357Y-25316976D01*
X7488452Y-25316976D02*
X7488452Y-25116976D01*
X7574167Y-25316976D02*
X7574167Y-25212214D01*
X7564643Y-25193167D01*
X7545595Y-25183643D01*
X7517024Y-25183643D01*
X7497976Y-25193167D01*
X7488452Y-25202690D01*
X7697976Y-25316976D02*
X7678928Y-25307452D01*
X7669405Y-25297928D01*
X7659881Y-25278881D01*
X7659881Y-25221738D01*
X7669405Y-25202690D01*
X7678928Y-25193167D01*
X7697976Y-25183643D01*
X7726548Y-25183643D01*
X7745595Y-25193167D01*
X7755119Y-25202690D01*
X7764643Y-25221738D01*
X7764643Y-25278881D01*
X7755119Y-25297928D01*
X7745595Y-25307452D01*
X7726548Y-25316976D01*
X7697976Y-25316976D01*
X7878928Y-25316976D02*
X7859881Y-25307452D01*
X7850357Y-25288405D01*
X7850357Y-25116976D01*
X8031309Y-25307452D02*
X8012262Y-25316976D01*
X7974167Y-25316976D01*
X7955119Y-25307452D01*
X7945595Y-25288405D01*
X7945595Y-25212214D01*
X7955119Y-25193167D01*
X7974167Y-25183643D01*
X8012262Y-25183643D01*
X8031309Y-25193167D01*
X8040833Y-25212214D01*
X8040833Y-25231262D01*
X7945595Y-25250309D01*
X8117024Y-25307452D02*
X8136071Y-25316976D01*
X8174167Y-25316976D01*
X8193214Y-25307452D01*
X8202738Y-25288405D01*
X8202738Y-25278881D01*
X8193214Y-25259833D01*
X8174167Y-25250309D01*
X8145595Y-25250309D01*
X8126548Y-25240786D01*
X8117024Y-25221738D01*
X8117024Y-25212214D01*
X8126548Y-25193167D01*
X8145595Y-25183643D01*
X8174167Y-25183643D01*
X8193214Y-25193167D01*
X8269405Y-25393167D02*
X8278928Y-25383643D01*
X8297976Y-25355071D01*
X8307500Y-25336024D01*
X8317024Y-25307452D01*
X8326548Y-25259833D01*
X8326548Y-25221738D01*
X8317024Y-25174119D01*
X8307500Y-25145548D01*
X8297976Y-25126500D01*
X8278928Y-25097928D01*
X8269405Y-25088405D01*
X3297500Y-25390500D02*
X3497500Y-25590500D01*
X3497500Y-25390500D02*
X3297500Y-25590500D01*
X3468211Y-25561211D02*
X3468211Y-25419789D01*
X3326789Y-25419789D01*
X3326789Y-25561211D01*
X3468211Y-25561211D01*
X3736071Y-25380976D02*
X3859881Y-25380976D01*
X3793214Y-25457167D01*
X3821786Y-25457167D01*
X3840833Y-25466690D01*
X3850357Y-25476214D01*
X3859881Y-25495262D01*
X3859881Y-25542881D01*
X3850357Y-25561928D01*
X3840833Y-25571452D01*
X3821786Y-25580976D01*
X3764643Y-25580976D01*
X3745595Y-25571452D01*
X3736071Y-25561928D01*
X3945595Y-25561928D02*
X3955119Y-25571452D01*
X3945595Y-25580976D01*
X3936071Y-25571452D01*
X3945595Y-25561928D01*
X3945595Y-25580976D01*
X4031309Y-25400024D02*
X4040833Y-25390500D01*
X4059881Y-25380976D01*
X4107500Y-25380976D01*
X4126548Y-25390500D01*
X4136071Y-25400024D01*
X4145595Y-25419071D01*
X4145595Y-25438119D01*
X4136071Y-25466690D01*
X4021786Y-25580976D01*
X4145595Y-25580976D01*
X4269405Y-25380976D02*
X4288452Y-25380976D01*
X4307500Y-25390500D01*
X4317024Y-25400024D01*
X4326548Y-25419071D01*
X4336071Y-25457167D01*
X4336071Y-25504786D01*
X4326548Y-25542881D01*
X4317024Y-25561928D01*
X4307500Y-25571452D01*
X4288452Y-25580976D01*
X4269405Y-25580976D01*
X4250357Y-25571452D01*
X4240833Y-25561928D01*
X4231310Y-25542881D01*
X4221786Y-25504786D01*
X4221786Y-25457167D01*
X4231310Y-25419071D01*
X4240833Y-25400024D01*
X4250357Y-25390500D01*
X4269405Y-25380976D01*
X4459881Y-25380976D02*
X4478929Y-25380976D01*
X4497976Y-25390500D01*
X4507500Y-25400024D01*
X4517024Y-25419071D01*
X4526548Y-25457167D01*
X4526548Y-25504786D01*
X4517024Y-25542881D01*
X4507500Y-25561928D01*
X4497976Y-25571452D01*
X4478929Y-25580976D01*
X4459881Y-25580976D01*
X4440833Y-25571452D01*
X4431310Y-25561928D01*
X4421786Y-25542881D01*
X4412262Y-25504786D01*
X4412262Y-25457167D01*
X4421786Y-25419071D01*
X4431310Y-25400024D01*
X4440833Y-25390500D01*
X4459881Y-25380976D01*
X4612262Y-25580976D02*
X4612262Y-25447643D01*
X4612262Y-25466690D02*
X4621786Y-25457167D01*
X4640833Y-25447643D01*
X4669405Y-25447643D01*
X4688452Y-25457167D01*
X4697976Y-25476214D01*
X4697976Y-25580976D01*
X4697976Y-25476214D02*
X4707500Y-25457167D01*
X4726548Y-25447643D01*
X4755119Y-25447643D01*
X4774167Y-25457167D01*
X4783690Y-25476214D01*
X4783690Y-25580976D01*
X4878929Y-25580976D02*
X4878929Y-25447643D01*
X4878929Y-25466690D02*
X4888452Y-25457167D01*
X4907500Y-25447643D01*
X4936071Y-25447643D01*
X4955119Y-25457167D01*
X4964643Y-25476214D01*
X4964643Y-25580976D01*
X4964643Y-25476214D02*
X4974167Y-25457167D01*
X4993214Y-25447643D01*
X5021786Y-25447643D01*
X5040833Y-25457167D01*
X5050357Y-25476214D01*
X5050357Y-25580976D01*
X5440833Y-25371452D02*
X5269405Y-25628595D01*
X5697976Y-25380976D02*
X5717024Y-25380976D01*
X5736071Y-25390500D01*
X5745595Y-25400024D01*
X5755119Y-25419071D01*
X5764643Y-25457167D01*
X5764643Y-25504786D01*
X5755119Y-25542881D01*
X5745595Y-25561928D01*
X5736071Y-25571452D01*
X5717024Y-25580976D01*
X5697976Y-25580976D01*
X5678928Y-25571452D01*
X5669405Y-25561928D01*
X5659881Y-25542881D01*
X5650357Y-25504786D01*
X5650357Y-25457167D01*
X5659881Y-25419071D01*
X5669405Y-25400024D01*
X5678928Y-25390500D01*
X5697976Y-25380976D01*
X5850357Y-25561928D02*
X5859881Y-25571452D01*
X5850357Y-25580976D01*
X5840833Y-25571452D01*
X5850357Y-25561928D01*
X5850357Y-25580976D01*
X6050357Y-25580976D02*
X5936071Y-25580976D01*
X5993214Y-25580976D02*
X5993214Y-25380976D01*
X5974167Y-25409548D01*
X5955119Y-25428595D01*
X5936071Y-25438119D01*
X6126548Y-25400024D02*
X6136071Y-25390500D01*
X6155119Y-25380976D01*
X6202738Y-25380976D01*
X6221786Y-25390500D01*
X6231309Y-25400024D01*
X6240833Y-25419071D01*
X6240833Y-25438119D01*
X6231309Y-25466690D01*
X6117024Y-25580976D01*
X6240833Y-25580976D01*
X6412262Y-25380976D02*
X6374167Y-25380976D01*
X6355119Y-25390500D01*
X6345595Y-25400024D01*
X6326548Y-25428595D01*
X6317024Y-25466690D01*
X6317024Y-25542881D01*
X6326548Y-25561928D01*
X6336071Y-25571452D01*
X6355119Y-25580976D01*
X6393214Y-25580976D01*
X6412262Y-25571452D01*
X6421786Y-25561928D01*
X6431309Y-25542881D01*
X6431309Y-25495262D01*
X6421786Y-25476214D01*
X6412262Y-25466690D01*
X6393214Y-25457167D01*
X6355119Y-25457167D01*
X6336071Y-25466690D01*
X6326548Y-25476214D01*
X6317024Y-25495262D01*
X6555119Y-25380976D02*
X6574167Y-25380976D01*
X6593214Y-25390500D01*
X6602738Y-25400024D01*
X6612262Y-25419071D01*
X6621786Y-25457167D01*
X6621786Y-25504786D01*
X6612262Y-25542881D01*
X6602738Y-25561928D01*
X6593214Y-25571452D01*
X6574167Y-25580976D01*
X6555119Y-25580976D01*
X6536071Y-25571452D01*
X6526548Y-25561928D01*
X6517024Y-25542881D01*
X6507500Y-25504786D01*
X6507500Y-25457167D01*
X6517024Y-25419071D01*
X6526548Y-25400024D01*
X6536071Y-25390500D01*
X6555119Y-25380976D01*
X6697976Y-25380976D02*
X6697976Y-25419071D01*
X6774167Y-25380976D02*
X6774167Y-25419071D01*
X7069405Y-25657167D02*
X7059881Y-25647643D01*
X7040833Y-25619071D01*
X7031309Y-25600024D01*
X7021786Y-25571452D01*
X7012262Y-25523833D01*
X7012262Y-25485738D01*
X7021786Y-25438119D01*
X7031309Y-25409548D01*
X7040833Y-25390500D01*
X7059881Y-25361928D01*
X7069405Y-25352405D01*
X7136071Y-25400024D02*
X7145595Y-25390500D01*
X7164643Y-25380976D01*
X7212262Y-25380976D01*
X7231309Y-25390500D01*
X7240833Y-25400024D01*
X7250357Y-25419071D01*
X7250357Y-25438119D01*
X7240833Y-25466690D01*
X7126548Y-25580976D01*
X7250357Y-25580976D01*
X7488452Y-25580976D02*
X7488452Y-25380976D01*
X7574167Y-25580976D02*
X7574167Y-25476214D01*
X7564643Y-25457167D01*
X7545595Y-25447643D01*
X7517024Y-25447643D01*
X7497976Y-25457167D01*
X7488452Y-25466690D01*
X7697976Y-25580976D02*
X7678928Y-25571452D01*
X7669405Y-25561928D01*
X7659881Y-25542881D01*
X7659881Y-25485738D01*
X7669405Y-25466690D01*
X7678928Y-25457167D01*
X7697976Y-25447643D01*
X7726548Y-25447643D01*
X7745595Y-25457167D01*
X7755119Y-25466690D01*
X7764643Y-25485738D01*
X7764643Y-25542881D01*
X7755119Y-25561928D01*
X7745595Y-25571452D01*
X7726548Y-25580976D01*
X7697976Y-25580976D01*
X7878928Y-25580976D02*
X7859881Y-25571452D01*
X7850357Y-25552405D01*
X7850357Y-25380976D01*
X8031309Y-25571452D02*
X8012262Y-25580976D01*
X7974167Y-25580976D01*
X7955119Y-25571452D01*
X7945595Y-25552405D01*
X7945595Y-25476214D01*
X7955119Y-25457167D01*
X7974167Y-25447643D01*
X8012262Y-25447643D01*
X8031309Y-25457167D01*
X8040833Y-25476214D01*
X8040833Y-25495262D01*
X7945595Y-25514309D01*
X8117024Y-25571452D02*
X8136071Y-25580976D01*
X8174167Y-25580976D01*
X8193214Y-25571452D01*
X8202738Y-25552405D01*
X8202738Y-25542881D01*
X8193214Y-25523833D01*
X8174167Y-25514309D01*
X8145595Y-25514309D01*
X8126548Y-25504786D01*
X8117024Y-25485738D01*
X8117024Y-25476214D01*
X8126548Y-25457167D01*
X8145595Y-25447643D01*
X8174167Y-25447643D01*
X8193214Y-25457167D01*
X8269405Y-25657167D02*
X8278928Y-25647643D01*
X8297976Y-25619071D01*
X8307500Y-25600024D01*
X8317024Y-25571452D01*
X8326548Y-25523833D01*
X8326548Y-25485738D01*
X8317024Y-25438119D01*
X8307500Y-25409548D01*
X8297976Y-25390500D01*
X8278928Y-25361928D01*
X8269405Y-25352405D01*
M02*
