M48
; DRILL file {KiCad (6.0.11)} date Sat Sep  7 16:40:05 2024
; FORMAT={-:-/ absolute / inch / decimal}
; #@! TF.CreationDate,2024-09-07T16:40:05-05:00
; #@! TF.GenerationSoftware,Kicad,Pcbnew,(6.0.11)
; #@! TF.FileFunction,Plated,1,2,PTH
FMAT,2
INCH
; #@! TA.AperFunction,Plated,PTH,ComponentDrill
T1C0.0118
; #@! TA.AperFunction,Plated,PTH,ViaDrill
T2C0.0157
; #@! TA.AperFunction,Plated,PTH,ComponentDrill
T3C0.0295
; #@! TA.AperFunction,Plated,PTH,ComponentDrill
T4C0.0315
; #@! TA.AperFunction,Plated,PTH,ComponentDrill
T5C0.0320
; #@! TA.AperFunction,Plated,PTH,ComponentDrill
T6C0.0354
; #@! TA.AperFunction,Plated,PTH,ComponentDrill
T7C0.0390
; #@! TA.AperFunction,Plated,PTH,ComponentDrill
T8C0.0394
; #@! TA.AperFunction,Plated,PTH,ComponentDrill
T9C0.0512
; #@! TA.AperFunction,Plated,PTH,ComponentDrill
T10C0.1260
%
G90
G05
T1
X5.753Y-6.7329
X5.753Y-6.7801
X5.778Y-6.0301
X5.8252Y-6.0301
T2
X1.6239Y-7.29
X1.6308Y-6.1657
X1.7026Y-7.5061
X1.7185Y-4.9432
X1.7451Y-5.5475
X1.7595Y-7.5463
X1.7597Y-7.4739
X1.7911Y-5.0798
X1.8367Y-6.8575
X1.9042Y-5.1556
X1.911Y-7.902
X1.9594Y-5.0798
X2.0345Y-5.7516
X2.0449Y-6.8626
X2.0775Y-8.0863
X2.1321Y-7.6971
X2.1423Y-6.1778
X2.1611Y-7.0814
X2.2121Y-7.449
X2.2536Y-7.6872
X2.2684Y-8.2057
X2.2871Y-8.1678
X2.3253Y-7.6888
X2.3772Y-6.9839
X2.3934Y-8.0863
X2.3987Y-5.761
X2.41Y-6.3086
X2.4242Y-7.4932
X2.4554Y-6.9654
X2.4587Y-7.5419
X2.4608Y-8.5856
X2.5131Y-7.7711
X2.5134Y-5.7655
X2.5151Y-8.4749
X2.5168Y-5.4677
X2.5426Y-7.9225
X2.546Y-7.1361
X2.5661Y-5.5929
X2.5697Y-8.5105
X2.5765Y-6.9005
X2.5893Y-5.7973
X2.5977Y-5.4855
X2.6021Y-7.7323
X2.6028Y-7.9467
X2.6064Y-6.8467
X2.6103Y-8.6962
X2.6123Y-8.082
X2.6313Y-7.6674
X2.6386Y-6.6803
X2.6458Y-8.4819
X2.6545Y-6.1944
X2.6564Y-5.5018
X2.6574Y-8.5922
X2.6626Y-7.4681
X2.6794Y-5.6684
X2.6829Y-7.7323
X2.6862Y-8.7139
X2.6897Y-6.5507
X2.6923Y-7.5207
X2.694Y-7.9953
X2.6999Y-6.2404
X2.7018Y-7.8223
X2.704Y-8.8134
X2.7069Y-6.8604
X2.7077Y-6.6292
X2.7179Y-6.9826
X2.753Y-6.93
X2.7658Y-7.409
X2.767Y-7.9953
X2.7686Y-9.0206
X2.7694Y-7.8547
X2.7845Y-8.6104
X2.7876Y-6.5786
X2.8009Y-7.1739
X2.8053Y-6.3648
X2.8152Y-7.4375
X2.8179Y-5.8922
X2.8201Y-7.243
X2.8311Y-3.8455
X2.8314Y-6.8726
X2.8326Y-8.0619
X2.8378Y-6.269
X2.8439Y-7.3804
X2.8452Y-7.6663
X2.8738Y-7.4297
X2.8801Y-5.3416
X2.8862Y-7.7225
X2.8871Y-7.8686
X2.9136Y-7.4454
X2.9158Y-8.4181
X2.9195Y-6.7218
X2.9272Y-7.6629
X2.9334Y-8.7129
X2.9611Y-8.2628
X3.0224Y-7.2273
X3.0234Y-5.6306
X3.0246Y-3.5987
X3.0355Y-5.909
X3.0374Y-8.5922
X3.0534Y-8.001
X3.0576Y-5.6856
X3.063Y-6.4242
X3.0631Y-7.616
X3.0632Y-7.7841
X3.0671Y-8.4152
X3.0695Y-3.5757
X3.1026Y-5.8273
X3.1034Y-4.8448
X3.1052Y-8.5778
X3.1249Y-4.9229
X3.1403Y-6.477
X3.1489Y-8.0384
X3.1666Y-5.6712
X3.1707Y-4.9148
X3.1738Y-5.873
X3.1758Y-7.8904
X3.1772Y-7.6227
X3.1782Y-5.4147
X3.1941Y-7.3238
X3.2025Y-5.4481
X3.203Y-8.7421
X3.2077Y-6.1871
X3.2591Y-6.6922
X3.2863Y-8.7031
X3.2903Y-4.9409
X3.3528Y-5.203
X3.3567Y-4.365
X3.3658Y-8.6016
X3.3862Y-6.68
X3.4002Y-8.4559
X3.4151Y-8.6331
X3.4256Y-7.6674
X3.4437Y-4.8478
X3.4544Y-5.3676
X3.4753Y-4.944
X3.4842Y-4.8928
X3.4916Y-4.3161
X3.4965Y-4.8117
X3.498Y-4.6305
X3.4989Y-6.0467
X3.517Y-8.0466
X3.5237Y-5.1884
X3.5511Y-4.2959
X3.5514Y-4.944
X3.5668Y-3.8726
X3.6137Y-5.092
X3.6291Y-5.442
X3.6297Y-7.7314
X3.6551Y-8.5927
X3.6636Y-6.018
X3.6781Y-7.6104
X3.7036Y-7.8589
X3.7095Y-4.4303
X3.7224Y-7.7397
X3.7463Y-8.6292
X3.7578Y-4.2841
X3.7589Y-5.9996
X3.8067Y-4.9447
X3.8106Y-4.8465
X3.8611Y-4.9063
X3.8636Y-5.7899
X3.8669Y-6.1111
X3.8775Y-4.8084
X3.9022Y-4.5807
X3.9111Y-8.4689
X3.9115Y-4.8556
X3.9461Y-3.7984
X3.9567Y-4.0902
X3.9848Y-5.3313
X3.9876Y-3.7518
X3.9924Y-6.2906
X3.9958Y-7.9681
X3.9973Y-4.3321
X4.0037Y-6.1871
X4.0103Y-7.1171
X4.0127Y-5.7713
X4.0251Y-8.4824
X4.0346Y-8.6501
X4.0409Y-6.3462
X4.0409Y-5.2959
X4.0437Y-4.1189
X4.0583Y-6.2253
X4.0673Y-7.9972
X4.0769Y-8.6345
X4.077Y-4.8691
X4.0951Y-6.1885
X4.1021Y-8.9753
X4.1111Y-4.3321
X4.1143Y-7.5843
X4.1155Y-7.9874
X4.1198Y-5.6301
X4.12Y-8.4736
X4.1487Y-5.2461
X4.1491Y-8.5754
X4.1495Y-5.1042
X4.1668Y-5.1667
X4.177Y-8.6032
X4.179Y-6.3281
X4.1824Y-5.0749
X4.188Y-6.4097
X4.1931Y-4.7898
X4.2052Y-4.3697
X4.2087Y-4.5791
X4.2092Y-8.1308
X4.2193Y-7.2629
X4.2232Y-4.4081
X4.2262Y-7.9323
X4.2273Y-6.4097
X4.2319Y-7.1734
X4.2386Y-7.4652
X4.244Y-8.4992
X4.2542Y-7.7446
X4.2558Y-5.257
X4.2669Y-6.3032
X4.2733Y-7.2276
X4.2742Y-7.1456
X4.2766Y-7.4412
X4.2779Y-5.6707
X4.307Y-4.2956
X4.3159Y-4.564
X4.3304Y-5.5793
X4.3319Y-5.5121
X4.3361Y-7.8757
X4.3723Y-8.9162
X4.3813Y-7.4412
X4.3885Y-7.8927
X4.3893Y-8.5679
X4.3924Y-7.5427
X4.3934Y-7.4806
X4.3946Y-5.2798
X4.3981Y-7.2773
X4.4028Y-3.3375
X4.4178Y-6.7936
X4.4288Y-4.5208
X4.4388Y-5.0519
X4.4514Y-4.8764
X4.4566Y-7.1704
X4.4703Y-5.0804
X4.4845Y-6.1068
X4.4914Y-7.5065
X4.5012Y-6.0047
X4.5063Y-8.4687
X4.513Y-6.7399
X4.5289Y-8.3586
X4.5314Y-8.5358
X4.5339Y-6.0332
X4.5472Y-8.2983
X4.5678Y-8.4901
X4.5848Y-8.2084
X4.5919Y-7.6199
X4.6043Y-7.395
X4.6136Y-8.0557
X4.6141Y-6.7635
X4.6183Y-6.3799
X4.6247Y-8.4337
X4.6289Y-6.224
X4.633Y-7.6064
X4.6356Y-6.2816
X4.6583Y-8.9448
X4.6615Y-6.7386
X4.6682Y-5.9761
X4.682Y-6.4605
X4.6839Y-8.1837
X4.6891Y-5.6629
X4.6969Y-8.3276
X4.7047Y-5.4591
X4.7136Y-6.6417
X4.7174Y-5.2069
X4.7246Y-6.3482
X4.7246Y-6.8493
X4.7285Y-6.2245
X4.7289Y-7.2598
X4.7556Y-6.761
X4.7559Y-7.9464
X4.7736Y-5.4877
X4.7817Y-6.3332
X4.7844Y-8.5821
X4.7854Y-5.4069
X4.7876Y-8.6779
X4.7896Y-6.1707
X4.7905Y-6.2205
X4.7943Y-4.5648
X4.7953Y-6.7839
X4.7957Y-6.738
X4.8007Y-7.6045
X4.8086Y-6.8332
X4.8489Y-5.3964
X4.8555Y-5.9301
X4.8595Y-8.5202
X4.8716Y-8.2245
X4.8903Y-8.0263
X4.897Y-8.4046
X4.9109Y-7.0879
X4.9195Y-6.9204
X4.9198Y-7.9296
X4.9219Y-6.2871
X4.9237Y-7.0485
X4.9263Y-5.1143
X4.9315Y-8.6718
X4.9645Y-8.7169
X4.9681Y-6.7059
X4.9818Y-7.3807
X4.9856Y-7.9287
X5.0096Y-3.2356
X5.0097Y-6.8425
X5.0114Y-5.8397
X5.0187Y-6.6779
X5.0275Y-7.9543
X5.0295Y-5.9444
X5.0501Y-5.1715
X5.0564Y-7.1609
X5.07Y-4.0671
X5.0724Y-8.2746
X5.0733Y-8.2334
X5.0798Y-6.0783
X5.0852Y-7.0949
X5.1066Y-7.7453
X5.1162Y-6.3621
X5.1238Y-7.3903
X5.1247Y-7.3461
X5.1312Y-5.4624
X5.1323Y-6.2998
X5.1493Y-7.0686
X5.1497Y-8.5202
X5.1519Y-6.1266
X5.1544Y-7.4234
X5.159Y-6.4845
X5.1733Y-6.0409
X5.1781Y-5.4445
X5.1816Y-7.6273
X5.1982Y-6.7671
X5.1988Y-8.5395
X5.2154Y-8.6179
X5.228Y-4.9419
X5.2298Y-7.719
X5.2298Y-7.9525
X5.2415Y-7.3156
X5.2428Y-5.3735
X5.2689Y-6.9429
X5.2696Y-7.7046
X5.2701Y-5.7698
X5.2744Y-6.6036
X5.2809Y-7.3122
X5.2931Y-7.916
X5.3102Y-7.2833
X5.3136Y-4.0254
X5.3389Y-5.3703
X5.3435Y-7.2582
X5.3494Y-4.0
X5.3495Y-8.5507
X5.3612Y-7.6761
X5.3854Y-4.9455
X5.387Y-5.3826
X5.387Y-6.5733
X5.3954Y-5.6153
X5.4043Y-6.2305
X5.4053Y-8.0686
X5.4113Y-5.5441
X5.4153Y-6.1094
X5.4276Y-8.5038
X5.4297Y-6.5315
X5.4427Y-6.8227
X5.4441Y-5.5671
X5.488Y-6.5347
X5.4946Y-6.0301
X5.5156Y-7.9849
X5.5278Y-4.891
X5.5332Y-8.6703
X5.5333Y-5.3102
X5.5373Y-4.3321
X5.5443Y-5.8078
X5.5477Y-5.6944
X5.5646Y-6.456
X5.5745Y-4.4254
X5.589Y-4.9173
X5.5956Y-5.2847
X5.6031Y-7.4064
X5.6124Y-7.6383
X5.6362Y-7.6702
X5.6363Y-6.8052
X5.6455Y-5.0293
X5.6561Y-5.499
X5.6711Y-6.7716
X5.672Y-4.274
X5.6849Y-4.3564
X5.7074Y-8.3428
X5.7191Y-5.7992
X5.727Y-5.499
X5.7388Y-5.6437
X5.7457Y-6.1504
X5.7648Y-6.2312
X5.768Y-5.6923
X5.774Y-4.3036
X5.7756Y-3.2792
X5.7859Y-5.8423
X5.787Y-5.2222
X5.795Y-6.2698
X5.8128Y-5.0847
X5.8162Y-7.669
X5.8185Y-8.0666
X5.8223Y-4.1825
X5.8284Y-6.4737
X5.8471Y-4.8998
X5.8613Y-5.792
X5.8693Y-8.2029
X5.8697Y-8.2888
X5.8878Y-3.3239
X5.8957Y-4.1788
X5.8999Y-5.2791
X5.9087Y-5.131
X5.9114Y-7.5338
X5.9114Y-7.7276
X5.9147Y-8.6769
X5.9208Y-5.4602
X5.9229Y-6.5022
X5.9239Y-5.7153
X5.9345Y-7.0999
X5.9399Y-4.9492
X5.98Y-8.2837
X5.998Y-5.4116
X6.0073Y-5.9135
X6.0085Y-4.4247
X6.0162Y-5.5038
X6.0164Y-5.7965
X6.0244Y-4.5648
X6.0251Y-3.3151
X6.0585Y-8.0666
X6.0621Y-7.1619
X6.0684Y-6.257
X6.0687Y-5.4572
X6.0722Y-4.9035
X6.0871Y-7.796
X6.1176Y-8.485
X6.1221Y-4.8925
X6.1296Y-6.4172
X6.1519Y-6.5497
X6.1597Y-8.103
X6.1641Y-6.4687
X6.1783Y-5.464
X6.1889Y-6.9347
X6.1993Y-8.5262
X6.2024Y-5.1614
X6.2049Y-8.2853
X6.2169Y-8.4368
X6.2185Y-8.5859
X6.2213Y-8.3471
X6.2245Y-7.706
X6.2591Y-5.1931
X6.2728Y-8.5331
X6.2795Y-6.0713
X6.2846Y-6.7216
X6.2943Y-4.8653
X6.3134Y-6.6568
X6.3354Y-8.5624
X6.3368Y-3.6568
X6.3423Y-4.644
X6.3549Y-5.4689
X6.3634Y-3.2502
X6.3866Y-8.4227
X6.3967Y-7.6402
X6.4013Y-8.3321
X6.4123Y-4.8406
X6.4136Y-8.6686
X6.4154Y-4.2944
X6.4175Y-5.9607
X6.4193Y-6.1641
X6.4224Y-6.2076
X6.4239Y-3.2688
X6.43Y-6.4328
X6.4539Y-6.0355
X6.4577Y-4.6741
X6.4708Y-3.3826
X6.4764Y-4.0037
X6.4856Y-7.5373
X6.4921Y-8.7119
X6.4957Y-6.1283
X6.5231Y-5.7324
X6.5231Y-5.8391
X6.5312Y-6.372
X6.5371Y-6.121
X6.5657Y-6.0773
X6.628Y-6.4473
X6.6292Y-3.5885
X6.6346Y-8.1744
X6.6409Y-6.3479
X6.685Y-3.8334
X6.7167Y-8.1661
X6.7173Y-6.6947
X6.7223Y-8.0412
X6.7635Y-4.5952
X6.7671Y-8.631
X6.782Y-4.8554
X6.8022Y-4.7895
X6.8111Y-4.8289
X6.8158Y-6.403
X6.8175Y-5.8599
X6.8277Y-5.1152
X6.836Y-5.165
X6.8437Y-5.0358
X6.8437Y-4.9565
X6.8481Y-8.5832
X6.8525Y-8.717
X6.8723Y-5.8313
X6.8849Y-5.9977
X6.8947Y-4.7694
X6.8997Y-7.7202
X6.9322Y-5.2069
X6.9499Y-5.9087
X6.9701Y-5.7464
X7.0131Y-4.9813
X7.0293Y-6.3069
X7.0389Y-6.1671
X7.0501Y-5.6255
X7.0503Y-5.6884
X7.0569Y-5.4253
X7.0619Y-7.874
X7.0865Y-5.3103
X7.1058Y-3.9584
X7.1076Y-7.1619
X7.1193Y-8.0411
X7.121Y-5.6866
X7.1258Y-5.5155
X7.1435Y-6.6667
X7.1558Y-5.4867
X7.183Y-3.9493
X7.2059Y-5.4568
X7.2212Y-6.9112
X7.2303Y-8.231
X7.2396Y-3.2356
X7.2397Y-8.4882
X7.2431Y-6.6899
X7.2462Y-8.6686
X7.2465Y-4.0342
X7.2582Y-5.4888
X7.26Y-4.8374
X7.2662Y-7.9093
X7.2689Y-5.4369
X7.2742Y-4.0623
X7.2752Y-7.6402
X7.2784Y-5.3087
X7.2839Y-4.2092
X7.2971Y-5.4095
X7.2976Y-4.8637
X7.309Y-5.0358
X7.3172Y-4.0242
X7.3186Y-5.2913
X7.3268Y-8.631
X7.3757Y-6.928
X7.4098Y-6.8584
X7.412Y-8.5946
X7.417Y-5.4573
X7.4514Y-7.6851
X7.4713Y-8.4969
X7.4738Y-4.3127
X7.4786Y-8.4482
X7.4893Y-3.0906
X7.4954Y-5.3701
X7.5214Y-5.2101
X7.5617Y-8.8795
X7.5723Y-7.9275
X7.5735Y-3.4741
X7.5757Y-7.866
X7.607Y-7.7108
X7.621Y-7.8781
X7.6718Y-6.7714
X7.6758Y-3.9493
X7.6873Y-8.9406
X7.6921Y-7.7535
X7.703Y-3.664
X7.7794Y-4.766
X7.9295Y-7.1392
X8.0093Y-7.2604
X8.0179Y-7.8133
X8.0345Y-5.5813
X8.0432Y-4.727
X8.0801Y-5.3837
X8.0986Y-5.0968
X8.138Y-5.599
X8.1513Y-4.6514
X8.1774Y-3.3619
X8.1884Y-5.6647
X8.213Y-8.3483
X8.2192Y-5.5646
X8.2461Y-4.9392
X8.2483Y-4.5684
X8.2547Y-5.6858
X8.2716Y-5.3081
X8.2816Y-7.9744
X8.3726Y-8.2306
X8.3866Y-5.6277
X8.3977Y-5.2793
X8.4489Y-5.4005
X8.4894Y-6.0734
X8.5022Y-8.8339
X8.5097Y-8.2834
X8.526Y-4.9824
X8.5289Y-6.0698
X8.5472Y-7.331
X8.5864Y-7.4167
X8.5888Y-5.5985
X8.6274Y-7.4179
X8.6459Y-8.0121
X8.6668Y-8.3274
X8.6698Y-6.269
X8.6721Y-6.9823
X8.741Y-6.0441
X8.8036Y-4.4551
X8.8101Y-8.0754
X8.8519Y-8.2408
X8.8621Y-8.3564
X8.8696Y-4.4551
X8.8775Y-5.702
X8.9356Y-5.8005
X8.9475Y-8.3216
X8.986Y-8.202
X8.9939Y-6.6984
X8.9945Y-4.3412
X9.0075Y-8.7392
X9.0226Y-7.9137
X9.0419Y-7.1351
X9.046Y-7.3219
X9.097Y-7.9497
X9.143Y-7.1122
X9.1558Y-6.4068
X9.1711Y-8.0121
X9.2048Y-8.0469
X9.2328Y-8.3699
X9.2777Y-8.3811
X9.2999Y-3.9071
X9.2999Y-6.7274
X9.3078Y-8.2245
X9.3954Y-7.7339
X9.4544Y-8.202
X9.4831Y-7.9447
X9.4998Y-9.0038
X9.5715Y-9.0309
X9.6479Y-4.4957
X9.6679Y-7.7018
X9.6786Y-7.7523
X9.6816Y-4.4333
X9.6854Y-6.4166
X9.77Y-8.7107
X9.779Y-8.6597
X9.8246Y-6.3669
X9.9422Y-6.5443
X10.0621Y-6.939
X10.1055Y-7.0658
X10.1339Y-5.2901
X10.1584Y-3.4441
T3
X1.953Y-5.2801
X2.003Y-5.2301
X2.003Y-5.3301
T4
X1.6901Y-8.6122
X1.6929Y-6.1772
X1.6929Y-6.374
X1.6929Y-7.4094
X1.6929Y-7.6063
X1.6978Y-5.6595
X1.6978Y-5.8564
X1.703Y-4.1067
X1.703Y-4.3035
X1.703Y-4.6243
X1.703Y-4.8212
X1.703Y-5.1419
X1.703Y-5.3388
X1.7274Y-6.7301
X1.753Y-8.2801
X1.7886Y-8.6122
X1.803Y-8.0051
X1.8274Y-6.7301
X1.8774Y-3.8051
X1.8898Y-4.0547
X1.8898Y-4.3547
X1.8898Y-4.5723
X1.8898Y-4.8723
X1.8898Y-5.6076
X1.8898Y-5.9076
X1.8898Y-6.1252
X1.8898Y-6.4252
X1.8898Y-7.3063
X1.8898Y-7.6063
X1.903Y-8.0051
X1.9274Y-6.7301
X1.9774Y-3.8051
X1.9898Y-4.0547
X1.9898Y-4.3547
X1.9898Y-4.5723
X1.9898Y-4.8723
X1.9898Y-5.6076
X1.9898Y-5.9076
X1.9898Y-6.1252
X1.9898Y-6.4252
X1.9898Y-7.3063
X1.9898Y-7.6063
X2.003Y-8.0051
X2.0274Y-6.7301
X2.053Y-8.2801
X2.0774Y-3.8051
X2.0898Y-4.0547
X2.0898Y-4.3547
X2.0898Y-4.5723
X2.0898Y-4.8723
X2.0898Y-5.6076
X2.0898Y-5.9076
X2.0898Y-6.1252
X2.0898Y-6.4252
X2.0898Y-7.3063
X2.0898Y-7.6063
X2.103Y-8.0051
X2.1274Y-6.7301
X2.1774Y-3.8051
X2.1898Y-4.0547
X2.1898Y-4.3547
X2.1898Y-4.5723
X2.1898Y-4.8723
X2.1898Y-5.6076
X2.1898Y-5.9076
X2.1898Y-6.1252
X2.1898Y-6.4252
X2.1898Y-7.3063
X2.1898Y-7.6063
X2.203Y-8.0051
X2.2274Y-6.7301
X2.228Y-5.1051
X2.228Y-5.3801
X2.2774Y-3.8051
X2.2898Y-4.0547
X2.2898Y-4.3547
X2.2898Y-4.5723
X2.2898Y-4.8723
X2.2898Y-5.6076
X2.2898Y-5.9076
X2.2898Y-6.1252
X2.2898Y-6.4252
X2.2898Y-7.3063
X2.2898Y-7.6063
X2.303Y-8.0051
X2.3274Y-6.7301
X2.3774Y-3.8051
X2.3898Y-4.0547
X2.3898Y-4.3547
X2.3898Y-4.5723
X2.3898Y-4.8723
X2.3898Y-5.6076
X2.3898Y-5.9076
X2.3898Y-6.1252
X2.3898Y-6.4252
X2.3898Y-7.3063
X2.3898Y-7.6063
X2.403Y-8.0051
X2.4274Y-6.7301
X2.4774Y-3.8051
X2.4898Y-4.0547
X2.4898Y-4.3547
X2.4898Y-4.5723
X2.4898Y-4.8723
X2.4898Y-5.6076
X2.4898Y-5.9076
X2.4898Y-6.1252
X2.4898Y-6.4252
X2.4898Y-7.3063
X2.4898Y-7.6063
X2.503Y-8.0051
X2.5274Y-6.7301
X2.528Y-5.1051
X2.528Y-5.3801
X2.5774Y-3.8051
X2.5898Y-7.3063
X2.5898Y-7.6063
X2.603Y-8.0051
X2.6774Y-3.8051
X2.6779Y-6.4921
X2.6898Y-7.3063
X2.6898Y-7.6063
X2.728Y-5.8301
X2.728Y-6.1301
X2.7764Y-6.4921
X2.7898Y-7.3063
X2.7898Y-7.6063
X2.8898Y-7.3063
X2.8898Y-7.6063
X2.953Y-4.2317
X2.953Y-4.4285
X2.978Y-4.7801
X2.978Y-4.977
X2.978Y-5.3051
X2.978Y-5.502
X2.978Y-7.7817
X2.978Y-7.9785
X2.9898Y-7.3063
X2.9898Y-7.6063
X3.003Y-6.3083
X3.003Y-6.5051
X3.028Y-6.9551
X3.028Y-7.152
X3.028Y-8.1602
X3.028Y-8.3571
X3.1781Y-4.2055
X3.1781Y-4.5055
X3.1781Y-4.7297
X3.1781Y-5.0297
X3.1785Y-5.2781
X3.1785Y-5.5781
X3.2022Y-3.9301
X3.2028Y-6.3047
X3.2028Y-6.6047
X3.2531Y-6.9047
X3.2531Y-7.2047
X3.2531Y-7.5047
X3.2531Y-7.8047
X3.2531Y-8.1047
X3.2531Y-8.4047
X3.2781Y-4.2055
X3.2781Y-4.5055
X3.2781Y-4.7297
X3.2781Y-5.0297
X3.2785Y-5.2781
X3.2785Y-5.5781
X3.3022Y-3.9301
X3.3028Y-6.3047
X3.3028Y-6.6047
X3.3531Y-6.9047
X3.3531Y-7.2047
X3.3531Y-7.5047
X3.3531Y-7.8047
X3.3531Y-8.1047
X3.3531Y-8.4047
X3.3781Y-4.2055
X3.3781Y-4.5055
X3.3781Y-4.7297
X3.3781Y-5.0297
X3.3785Y-5.2781
X3.3785Y-5.5781
X3.4022Y-3.9301
X3.4028Y-6.3047
X3.4028Y-6.6047
X3.4531Y-6.9047
X3.4531Y-7.2047
X3.4531Y-7.5047
X3.4531Y-7.8047
X3.4531Y-8.1047
X3.4531Y-8.4047
X3.4781Y-4.2055
X3.4781Y-4.5055
X3.4781Y-4.7297
X3.4781Y-5.0297
X3.4785Y-5.2781
X3.4785Y-5.5781
X3.5022Y-3.9301
X3.5028Y-6.3047
X3.5028Y-6.6047
X3.5531Y-6.9047
X3.5531Y-7.2047
X3.5531Y-7.5047
X3.5531Y-7.8047
X3.5531Y-8.1047
X3.5531Y-8.4047
X3.5781Y-4.2055
X3.5781Y-4.5055
X3.5781Y-4.7297
X3.5781Y-5.0297
X3.5785Y-5.2781
X3.5785Y-5.5781
X3.6022Y-3.9301
X3.6028Y-6.3047
X3.6028Y-6.6047
X3.6531Y-6.9047
X3.6531Y-7.2047
X3.6531Y-7.5047
X3.6531Y-7.8047
X3.6531Y-8.1047
X3.6531Y-8.4047
X3.6781Y-4.2055
X3.6781Y-4.5055
X3.6781Y-4.7297
X3.6781Y-5.0297
X3.6785Y-5.2781
X3.6785Y-5.5781
X3.7028Y-6.3047
X3.7028Y-6.6047
X3.7531Y-6.9047
X3.7531Y-7.2047
X3.7531Y-7.5047
X3.7531Y-7.8047
X3.7531Y-8.1047
X3.7531Y-8.4047
X3.7781Y-4.2055
X3.7781Y-4.5055
X3.7781Y-4.7297
X3.7781Y-5.0297
X3.7785Y-5.2781
X3.7785Y-5.5781
X3.8028Y-6.3047
X3.8028Y-6.6047
X3.8531Y-6.9047
X3.8531Y-7.2047
X3.8531Y-7.5047
X3.8531Y-7.8047
X3.8531Y-8.1047
X3.8531Y-8.4047
X3.8781Y-4.2055
X3.8781Y-4.5055
X3.8781Y-4.7297
X3.8781Y-5.0297
X3.8785Y-5.2781
X3.8785Y-5.5781
X3.9531Y-6.9047
X3.9531Y-7.2047
X3.9531Y-7.5047
X3.9531Y-7.8047
X3.9531Y-8.1047
X3.9531Y-8.4047
X3.978Y-5.9067
X3.978Y-6.1035
X3.9781Y-4.2055
X3.9781Y-4.5055
X3.9781Y-4.7297
X3.9781Y-5.0297
X3.9805Y-3.9301
X4.0531Y-6.9047
X4.0531Y-7.2047
X4.0531Y-7.5047
X4.0531Y-7.8047
X4.0531Y-8.1047
X4.0531Y-8.4047
X4.0781Y-4.2055
X4.0781Y-4.5055
X4.0781Y-4.7297
X4.0781Y-5.0297
X4.0789Y-3.9301
X4.1531Y-6.9047
X4.1531Y-7.2047
X4.1531Y-7.5047
X4.1531Y-7.8047
X4.1531Y-8.1047
X4.1531Y-8.4047
X4.1781Y-4.2055
X4.1781Y-4.5055
X4.2781Y-4.2055
X4.2781Y-4.5055
X4.5031Y-4.7817
X4.5031Y-4.9785
X4.5535Y-4.2067
X4.5535Y-4.4035
X4.6063Y-8.6122
X4.6778Y-4.7547
X4.6778Y-5.0547
X4.678Y-7.5567
X4.678Y-7.7535
X4.7047Y-8.6122
X4.728Y-8.0833
X4.728Y-8.2801
X4.7281Y-4.2047
X4.7281Y-4.5047
X4.7778Y-4.7547
X4.7778Y-5.0547
X4.8281Y-4.2047
X4.8281Y-4.5047
X4.8778Y-4.7547
X4.8778Y-5.0547
X4.9281Y-4.2047
X4.9281Y-4.5047
X4.9531Y-7.5297
X4.9531Y-7.8297
X4.9531Y-8.1297
X4.9531Y-8.4297
X4.9545Y-6.8551
X4.9778Y-4.7547
X4.9778Y-5.0547
X5.0281Y-4.2047
X5.0281Y-4.5047
X5.0531Y-7.5297
X5.0531Y-7.8297
X5.0531Y-8.1297
X5.0531Y-8.4297
X5.0778Y-4.7547
X5.0778Y-5.0547
X5.1281Y-4.2047
X5.1281Y-4.5047
X5.1514Y-6.8551
X5.1531Y-7.5297
X5.1531Y-7.8297
X5.1531Y-8.1297
X5.1531Y-8.4297
X5.1778Y-4.7547
X5.1778Y-5.0547
X5.2281Y-4.2047
X5.2281Y-4.5047
X5.2531Y-7.5297
X5.2531Y-7.8297
X5.2531Y-8.1297
X5.2531Y-8.4297
X5.2778Y-4.7547
X5.2778Y-5.0547
X5.3281Y-4.2047
X5.3281Y-4.5047
X5.3531Y-7.5297
X5.3531Y-7.8297
X5.3531Y-8.1297
X5.3531Y-8.4297
X5.4281Y-4.2047
X5.4281Y-4.5047
X5.4531Y-7.5297
X5.4531Y-7.8297
X5.4531Y-8.1297
X5.4531Y-8.4297
X5.5281Y-4.2047
X5.5281Y-4.5047
X5.5531Y-7.5297
X5.5531Y-7.8297
X5.5531Y-8.1297
X5.5531Y-8.4297
X5.603Y-5.6567
X5.603Y-5.8535
X5.6281Y-4.2047
X5.6281Y-4.5047
X5.6531Y-7.5297
X5.6531Y-7.8297
X5.6531Y-8.1297
X5.6531Y-8.4297
X5.7531Y-7.5297
X5.7531Y-7.8297
X5.7531Y-8.1297
X5.7531Y-8.4297
X5.8531Y-7.5297
X5.8531Y-7.8297
X5.8531Y-8.1297
X5.8531Y-8.4297
X5.878Y-4.8067
X5.878Y-5.0035
X5.8791Y-5.3663
X5.8791Y-5.5632
X5.903Y-4.2567
X5.903Y-4.4535
X6.053Y-6.4067
X6.053Y-6.6035
X6.0531Y-5.3547
X6.0531Y-5.6547
X6.078Y-4.7551
X6.078Y-5.0551
X6.0781Y-4.2047
X6.0781Y-4.5047
X6.1531Y-5.3547
X6.1531Y-5.6547
X6.178Y-4.7551
X6.178Y-5.0551
X6.1781Y-4.2047
X6.1781Y-4.5047
X6.2531Y-5.3547
X6.2531Y-5.6547
X6.278Y-4.7551
X6.278Y-5.0551
X6.278Y-8.1567
X6.278Y-8.3535
X6.2781Y-4.2047
X6.2781Y-4.5047
X6.3531Y-5.3547
X6.3531Y-5.6547
X6.378Y-4.7551
X6.378Y-5.0551
X6.378Y-6.2801
X6.378Y-6.3801
X6.378Y-6.4801
X6.378Y-6.5801
X6.378Y-6.6801
X6.378Y-6.7801
X6.3781Y-4.2047
X6.3781Y-4.5047
X6.4274Y-7.8051
X6.4531Y-5.3547
X6.4531Y-5.6547
X6.478Y-4.7551
X6.478Y-5.0551
X6.478Y-6.1801
X6.478Y-6.2801
X6.478Y-6.3801
X6.478Y-6.4801
X6.478Y-6.5801
X6.478Y-6.6801
X6.478Y-6.7801
X6.478Y-6.8801
X6.478Y-8.1047
X6.478Y-8.4047
X6.4781Y-4.2047
X6.4781Y-4.5047
X6.5274Y-7.8051
X6.5531Y-5.3547
X6.5531Y-5.6547
X6.578Y-4.7551
X6.578Y-5.0551
X6.578Y-6.1801
X6.578Y-6.2801
X6.578Y-6.7801
X6.578Y-6.8801
X6.578Y-8.1047
X6.578Y-8.4047
X6.5781Y-4.2047
X6.5781Y-4.5047
X6.6274Y-7.8051
X6.6531Y-5.3547
X6.6531Y-5.6547
X6.678Y-4.7551
X6.678Y-5.0551
X6.678Y-6.1801
X6.678Y-6.2801
X6.678Y-6.7801
X6.678Y-6.8801
X6.678Y-8.1047
X6.678Y-8.4047
X6.6781Y-4.2047
X6.6781Y-4.5047
X6.7274Y-7.8051
X6.7531Y-5.3547
X6.7531Y-5.6547
X6.778Y-6.1801
X6.778Y-6.2801
X6.778Y-6.7801
X6.778Y-6.8801
X6.778Y-8.1047
X6.778Y-8.4047
X6.7781Y-4.2047
X6.7781Y-4.5047
X6.8274Y-7.8051
X6.8531Y-5.3547
X6.8531Y-5.6547
X6.878Y-5.9301
X6.878Y-6.1801
X6.878Y-6.2801
X6.878Y-6.7801
X6.878Y-6.8801
X6.878Y-8.1047
X6.878Y-8.4047
X6.8781Y-4.2047
X6.8781Y-4.5047
X6.9274Y-7.8051
X6.9531Y-5.3547
X6.9531Y-5.6547
X6.978Y-6.1801
X6.978Y-6.2801
X6.978Y-6.3801
X6.978Y-6.4801
X6.978Y-6.5801
X6.978Y-6.6801
X6.978Y-6.7801
X6.978Y-6.8801
X6.978Y-8.1047
X6.978Y-8.4047
X6.9781Y-4.2047
X6.9781Y-4.5047
X7.003Y-3.5801
X7.0274Y-7.8051
X7.0748Y-5.9301
X7.078Y-6.2801
X7.078Y-6.3801
X7.078Y-6.4801
X7.078Y-6.5801
X7.078Y-6.6801
X7.078Y-6.7801
X7.078Y-8.1047
X7.078Y-8.4047
X7.103Y-3.5801
X7.1274Y-7.8051
X7.178Y-8.1047
X7.178Y-8.4047
X7.203Y-3.5801
X7.2274Y-7.8051
X7.278Y-8.1047
X7.278Y-8.4047
X7.303Y-3.5801
X7.378Y-8.1047
X7.378Y-8.4047
X7.403Y-3.5801
X7.478Y-5.0567
X7.478Y-5.2535
X7.478Y-6.3551
X7.478Y-6.552
X7.503Y-3.5801
X7.5274Y-5.7913
X7.5274Y-5.9882
X7.528Y-7.4067
X7.528Y-7.6035
X7.5555Y-4.0801
X7.5939Y-8.6122
X7.603Y-3.5801
X7.6539Y-4.0801
X7.6803Y-6.3037
X7.6803Y-6.6037
X7.6923Y-8.6122
X7.7028Y-5.7547
X7.7028Y-6.0547
X7.703Y-3.5801
X7.7033Y-4.8553
X7.7033Y-5.4553
X7.7803Y-6.3037
X7.7803Y-6.6037
X7.8028Y-5.7547
X7.8028Y-6.0547
X7.803Y-3.5801
X7.8033Y-4.8553
X7.8033Y-5.4553
X7.853Y-8.1801
X7.853Y-8.377
X7.8803Y-6.3037
X7.8803Y-6.6037
X7.9028Y-5.7547
X7.9028Y-6.0547
X7.9033Y-4.8553
X7.9033Y-5.4553
X7.9803Y-6.3037
X7.9803Y-6.6037
X8.0028Y-5.7547
X8.0028Y-6.0547
X8.0033Y-4.8553
X8.0033Y-5.4553
X8.0531Y-8.1297
X8.0531Y-8.4297
X8.0545Y-6.8801
X8.078Y-7.2301
X8.078Y-7.8301
X8.0803Y-6.3037
X8.0803Y-6.6037
X8.1028Y-5.7547
X8.1028Y-6.0547
X8.1033Y-4.8553
X8.1033Y-5.4553
X8.1531Y-8.1297
X8.1531Y-8.4297
X8.178Y-7.2301
X8.178Y-7.8301
X8.1803Y-6.3037
X8.1803Y-6.6037
X8.2028Y-5.7547
X8.2028Y-6.0547
X8.2033Y-4.8553
X8.2033Y-5.4553
X8.2514Y-6.8801
X8.2531Y-8.1297
X8.2531Y-8.4297
X8.278Y-7.2301
X8.278Y-7.8301
X8.2803Y-6.3037
X8.2803Y-6.6037
X8.3028Y-5.7547
X8.3028Y-6.0547
X8.3033Y-4.8553
X8.3033Y-5.4553
X8.3531Y-8.1297
X8.3531Y-8.4297
X8.378Y-7.2301
X8.378Y-7.8301
X8.4033Y-4.8553
X8.4033Y-5.4553
X8.4531Y-8.1297
X8.4531Y-8.4297
X8.478Y-7.2301
X8.478Y-7.8301
X8.5033Y-4.8553
X8.5033Y-5.4553
X8.5531Y-8.1297
X8.5531Y-8.4297
X8.578Y-7.2301
X8.578Y-7.8301
X8.603Y-6.0801
X8.603Y-6.3317
X8.603Y-6.5285
X8.6033Y-4.8553
X8.6033Y-5.4553
X8.6531Y-8.1297
X8.6531Y-8.4297
X8.678Y-7.2301
X8.678Y-7.8301
X8.7033Y-4.8553
X8.7033Y-5.4553
X8.7531Y-8.1297
X8.7531Y-8.4297
X8.778Y-7.2301
X8.778Y-7.8301
X8.8033Y-4.8553
X8.8033Y-5.4553
X8.8281Y-6.3047
X8.8281Y-6.6047
X8.8531Y-8.1297
X8.8531Y-8.4297
X8.878Y-7.2301
X8.878Y-7.8301
X8.903Y-6.0801
X8.9033Y-4.8553
X8.9033Y-5.4553
X8.9281Y-6.3047
X8.9281Y-6.6047
X8.9531Y-8.1297
X8.9531Y-8.4297
X8.978Y-7.2301
X8.978Y-7.8301
X9.0033Y-4.8553
X9.0033Y-5.4553
X9.0281Y-6.3047
X9.0281Y-6.6047
X9.078Y-7.2301
X9.078Y-7.8301
X9.1281Y-6.3047
X9.1281Y-6.6047
X9.178Y-7.2301
X9.178Y-7.8301
X9.2281Y-6.3047
X9.2281Y-6.6047
X9.278Y-7.2301
X9.278Y-7.8301
X9.3281Y-6.3047
X9.3281Y-6.6047
X9.378Y-7.2301
X9.378Y-7.8301
X9.4281Y-6.3047
X9.4281Y-6.6047
X9.478Y-7.2301
X9.478Y-7.8301
X9.5281Y-6.3047
X9.5281Y-6.6047
X9.578Y-7.2301
X9.578Y-7.8301
X9.6281Y-6.3047
X9.6281Y-6.6047
X9.7281Y-6.3047
X9.7281Y-6.6047
X10.003Y-6.3051
X10.003Y-6.6051
T5
X4.328Y-5.6301
X4.328Y-5.7301
X4.328Y-5.8301
X4.328Y-5.9301
X4.328Y-6.0301
X4.328Y-6.1301
X4.328Y-6.2301
X4.328Y-6.3301
X4.328Y-6.4301
X4.428Y-5.5301
X4.428Y-5.6301
X4.428Y-5.7301
X4.428Y-5.8301
X4.428Y-5.9301
X4.428Y-6.0301
X4.428Y-6.1301
X4.428Y-6.2301
X4.428Y-6.3301
X4.428Y-6.4301
X4.428Y-6.5301
X4.528Y-5.5301
X4.528Y-5.6301
X4.528Y-6.4301
X4.528Y-6.5301
X4.628Y-5.5301
X4.628Y-5.6301
X4.628Y-6.4301
X4.628Y-6.5301
X4.728Y-5.5301
X4.728Y-5.6301
X4.728Y-6.4301
X4.728Y-6.5301
X4.828Y-5.5301
X4.828Y-5.6301
X4.828Y-6.4301
X4.828Y-6.5301
X4.928Y-5.5301
X4.928Y-5.6301
X4.928Y-6.4301
X4.928Y-6.5301
X5.028Y-5.5301
X5.028Y-5.6301
X5.028Y-6.4301
X5.028Y-6.5301
X5.128Y-5.5301
X5.128Y-5.6301
X5.128Y-6.4301
X5.128Y-6.5301
X5.228Y-5.5301
X5.228Y-5.6301
X5.228Y-5.7301
X5.228Y-5.8301
X5.228Y-5.9301
X5.228Y-6.0301
X5.228Y-6.1301
X5.228Y-6.2301
X5.228Y-6.3301
X5.228Y-6.4301
X5.228Y-6.5301
X5.328Y-5.6301
X5.328Y-5.7301
X5.328Y-5.8301
X5.328Y-5.9301
X5.328Y-6.0301
X5.328Y-6.1301
X5.328Y-6.2301
X5.328Y-6.3301
X5.328Y-6.4301
T6
X1.9071Y-3.1801
X2.0071Y-3.1801
X2.4411Y-3.1801
X2.5411Y-3.1801
X2.7081Y-3.1801
X2.8081Y-3.1801
X2.9751Y-3.1801
X3.0751Y-3.1801
X3.2421Y-3.1801
X3.3421Y-3.1801
X3.5091Y-3.1801
X3.6091Y-3.1801
X3.7761Y-3.1801
X3.8761Y-3.1801
X4.0431Y-3.1801
X4.1431Y-3.1801
X4.3102Y-3.1801
X4.4102Y-3.1801
X4.5772Y-3.1801
X4.6772Y-3.1801
T7
X9.8514Y-2.9906
X10.0285Y-2.9906
T8
X1.852Y-8.7795
X1.852Y-8.8795
X1.928Y-7.0301
X1.928Y-7.1301
X1.952Y-8.7795
X1.952Y-8.8795
X2.028Y-7.0301
X2.028Y-7.1301
X2.052Y-8.7795
X2.052Y-8.8795
X2.128Y-7.0301
X2.128Y-7.1301
X2.152Y-8.7795
X2.152Y-8.8795
X2.228Y-7.0301
X2.228Y-7.1301
X2.252Y-8.7795
X2.252Y-8.8795
X2.352Y-8.7795
X2.352Y-8.8795
X2.452Y-8.7795
X2.452Y-8.8795
X2.552Y-8.7795
X2.552Y-8.8795
X2.603Y-8.2299
X2.603Y-8.3299
X2.652Y-8.7795
X2.652Y-8.8795
X2.6528Y-7.0551
X2.752Y-8.7795
X2.752Y-8.8795
X2.7528Y-7.0551
X2.852Y-8.7795
X2.852Y-8.8795
X2.952Y-8.7795
X2.952Y-8.8795
X3.052Y-8.7795
X3.052Y-8.8795
X3.152Y-8.7795
X3.152Y-8.8795
X3.252Y-8.7795
X3.252Y-8.8795
X3.352Y-8.7795
X3.352Y-8.8795
X3.452Y-8.7795
X3.452Y-8.8795
X3.552Y-8.7795
X3.552Y-8.8795
X3.652Y-8.7795
X3.652Y-8.8795
X3.752Y-8.7795
X3.752Y-8.8795
X3.852Y-8.7795
X3.852Y-8.8795
X3.952Y-8.7795
X3.952Y-8.8795
X4.052Y-8.7795
X4.052Y-8.8795
X4.152Y-8.7795
X4.152Y-8.8795
X4.252Y-8.7795
X4.252Y-8.8795
X4.7654Y-8.7795
X4.7654Y-8.8795
X4.8654Y-8.7795
X4.8654Y-8.8795
X4.9654Y-8.7795
X4.9654Y-8.8795
X5.0654Y-8.7795
X5.0654Y-8.8795
X5.1654Y-8.7795
X5.1654Y-8.8795
X5.2654Y-8.7795
X5.2654Y-8.8795
X5.3654Y-8.7795
X5.3654Y-8.8795
X5.4654Y-8.7795
X5.4654Y-8.8795
X5.5654Y-8.7795
X5.5654Y-8.8795
X5.6654Y-8.7795
X5.6654Y-8.8795
X5.7654Y-8.7795
X5.7654Y-8.8795
X5.8654Y-8.7795
X5.8654Y-8.8795
X5.9285Y-3.1774
X5.9654Y-8.7795
X5.9654Y-8.8795
X6.0285Y-3.1774
X6.0654Y-8.7795
X6.0654Y-8.8795
X6.1285Y-3.1774
X6.1654Y-8.7795
X6.1654Y-8.8795
X6.2654Y-8.7795
X6.2654Y-8.8795
X6.3654Y-8.7795
X6.3654Y-8.8795
X6.403Y-7.3801
X6.403Y-7.4801
X6.4285Y-3.1774
X6.4654Y-8.7795
X6.4654Y-8.8795
X6.503Y-7.3801
X6.503Y-7.4801
X6.5285Y-3.1774
X6.5654Y-8.7795
X6.5654Y-8.8795
X6.603Y-7.3801
X6.603Y-7.4801
X6.6285Y-3.1774
X6.6654Y-8.7795
X6.6654Y-8.8795
X6.703Y-7.3801
X6.703Y-7.4801
X6.7654Y-8.7795
X6.7654Y-8.8795
X6.803Y-7.3801
X6.803Y-7.4801
X6.8654Y-8.7795
X6.8654Y-8.8795
X6.903Y-7.3801
X6.903Y-7.4801
X6.9654Y-8.7795
X6.9654Y-8.8795
X7.003Y-7.3801
X7.003Y-7.4801
X7.0654Y-8.7795
X7.0654Y-8.8795
X7.103Y-7.3801
X7.103Y-7.4801
X7.1654Y-8.7795
X7.1654Y-8.8795
X7.376Y-3.2038
X7.376Y-3.3038
X7.476Y-3.2038
X7.476Y-3.3038
X7.576Y-3.2038
X7.576Y-3.3038
X7.676Y-3.2038
X7.676Y-3.3038
X7.7575Y-8.7795
X7.7575Y-8.8795
X7.776Y-3.2038
X7.776Y-3.3038
X7.8575Y-8.7795
X7.8575Y-8.8795
X7.876Y-3.2038
X7.876Y-3.3038
X7.9575Y-8.7795
X7.9575Y-8.8795
X7.976Y-3.2038
X7.976Y-3.3038
X8.0575Y-8.7795
X8.0575Y-8.8795
X8.076Y-3.2038
X8.076Y-3.3038
X8.1575Y-8.7795
X8.1575Y-8.8795
X8.176Y-3.2038
X8.176Y-3.3038
X8.2575Y-8.7795
X8.2575Y-8.8795
X8.276Y-3.2038
X8.276Y-3.3038
X8.3575Y-8.7795
X8.3575Y-8.8795
X8.376Y-3.2038
X8.376Y-3.3038
X8.4575Y-8.7795
X8.4575Y-8.8795
X8.476Y-3.2038
X8.476Y-3.3038
X8.5575Y-8.7795
X8.5575Y-8.8795
X8.576Y-3.2038
X8.576Y-3.3038
X8.6575Y-8.7795
X8.6575Y-8.8795
X8.676Y-3.2038
X8.676Y-3.3038
X8.7575Y-8.7795
X8.7575Y-8.8795
X8.776Y-3.2038
X8.776Y-3.3038
X8.8575Y-8.7795
X8.8575Y-8.8795
X8.876Y-3.2038
X8.876Y-3.3038
X8.9575Y-8.7795
X8.9575Y-8.8795
X8.976Y-3.2038
X8.976Y-3.3038
X9.0575Y-8.7795
X9.0575Y-8.8795
X9.076Y-3.2038
X9.076Y-3.3038
X9.1575Y-8.7795
X9.1575Y-8.8795
X9.176Y-3.2038
X9.176Y-3.3038
X9.2575Y-8.7795
X9.2575Y-8.8795
X9.276Y-3.2038
X9.276Y-3.3038
X9.3575Y-8.7795
X9.3575Y-8.8795
X9.378Y-8.1557
X9.378Y-8.2557
X9.378Y-8.3557
X9.453Y-3.7801
X9.453Y-3.8801
X9.453Y-3.9801
X9.453Y-4.0801
X9.453Y-4.1801
X9.453Y-4.2801
X9.453Y-4.3801
X9.453Y-4.4801
X9.453Y-4.5801
X9.4575Y-8.7795
X9.4575Y-8.8795
X9.553Y-3.7801
X9.553Y-3.8801
X9.553Y-3.9801
X9.553Y-4.0801
X9.553Y-4.1801
X9.553Y-4.2801
X9.553Y-4.3801
X9.553Y-4.4801
X9.553Y-4.5801
X9.5575Y-8.7795
X9.5575Y-8.8795
X9.6575Y-8.7795
X9.6575Y-8.8795
X9.7575Y-8.7795
X9.7575Y-8.8795
X9.8575Y-8.7795
X9.8575Y-8.8795
X9.878Y-8.1557
X9.878Y-8.2557
X9.878Y-8.3557
X9.903Y-3.7805
X9.903Y-3.8805
X9.903Y-3.9805
X9.903Y-4.0805
X9.903Y-4.1805
X9.903Y-4.2805
X9.903Y-4.3805
X9.903Y-4.4805
X9.903Y-4.5805
X9.9575Y-8.7795
X9.9575Y-8.8795
X10.003Y-3.7805
X10.003Y-3.8805
X10.003Y-3.9805
X10.003Y-4.0805
X10.003Y-4.1805
X10.003Y-4.2805
X10.003Y-4.3805
X10.003Y-4.4805
X10.003Y-4.5805
X10.0575Y-8.7795
X10.0575Y-8.8795
X10.1575Y-8.7795
X10.1575Y-8.8795
T9
X9.8022Y-3.0887
X10.0781Y-3.0887
T10
X1.5748Y-2.9528
X10.4331Y-2.9528
T0
M30
