M48
; DRILL file {KiCad (6.0.11)} date Sat Sep 14 19:18:08 2024
; FORMAT={-:-/ absolute / inch / decimal}
; #@! TF.CreationDate,2024-09-14T19:18:08-05:00
; #@! TF.GenerationSoftware,Kicad,Pcbnew,(6.0.11)
; #@! TF.FileFunction,Plated,1,2,PTH
FMAT,2
INCH
; #@! TA.AperFunction,Plated,PTH,ComponentDrill
T1C0.0118
; #@! TA.AperFunction,Plated,PTH,ViaDrill
T2C0.0157
; #@! TA.AperFunction,Plated,PTH,ComponentDrill
T3C0.0295
; #@! TA.AperFunction,Plated,PTH,ComponentDrill
T4C0.0315
; #@! TA.AperFunction,Plated,PTH,ComponentDrill
T5C0.0320
; #@! TA.AperFunction,Plated,PTH,ComponentDrill
T6C0.0354
; #@! TA.AperFunction,Plated,PTH,ComponentDrill
T7C0.0390
; #@! TA.AperFunction,Plated,PTH,ComponentDrill
T8C0.0394
; #@! TA.AperFunction,Plated,PTH,ComponentDrill
T9C0.0512
; #@! TA.AperFunction,Plated,PTH,ComponentDrill
T10C0.1260
%
G90
G05
T1
X5.753Y-6.7329
X5.753Y-6.7801
X5.778Y-6.0301
X5.8252Y-6.0301
T2
X1.6387Y-4.3023
X1.6661Y-6.0494
X1.6824Y-5.7152
X1.7103Y-6.0474
X1.7987Y-7.4294
X2.0203Y-7.3894
X2.1743Y-8.1428
X2.1972Y-5.9794
X2.1994Y-7.3774
X2.2372Y-8.5197
X2.2897Y-7.9336
X2.3051Y-7.8716
X2.3055Y-8.0656
X2.3603Y-6.9766
X2.3932Y-6.6243
X2.4102Y-7.6937
X2.4299Y-6.2086
X2.4497Y-7.1901
X2.461Y-8.5705
X2.5158Y-6.6559
X2.5435Y-5.744
X2.5866Y-5.8938
X2.6174Y-5.8616
X2.6388Y-7.9266
X2.6876Y-7.4185
X2.7325Y-6.7807
X2.8107Y-7.9147
X2.8168Y-5.6071
X2.853Y-8.2127
X2.858Y-5.5676
X2.8717Y-7.6855
X2.8914Y-8.9347
X2.9037Y-7.7491
X2.9187Y-8.2796
X2.9972Y-8.6532
X3.0033Y-5.7714
X3.0037Y-8.9155
X3.0055Y-7.0863
X3.0154Y-3.2848
X3.0441Y-8.0892
X3.0641Y-8.4707
X3.0909Y-5.1776
X3.1338Y-7.8565
X3.2434Y-5.138
X3.3148Y-3.0817
X3.3247Y-5.3259
X3.3527Y-3.9008
X3.3925Y-5.1829
X3.3984Y-7.2831
X3.4313Y-8.5213
X3.4498Y-5.4316
X3.4579Y-4.8284
X3.4885Y-7.5665
X3.4893Y-8.5499
X3.4897Y-3.251
X3.4947Y-5.9724
X3.5031Y-7.0288
X3.5225Y-8.2141
X3.5352Y-5.4214
X3.586Y-7.9067
X3.6086Y-4.8985
X3.6298Y-4.3713
X3.6663Y-5.2047
X3.687Y-8.5938
X3.6908Y-7.5679
X3.6961Y-5.3757
X3.7068Y-7.3786
X3.7152Y-5.6414
X3.7186Y-6.1517
X3.7531Y-7.3964
X3.8145Y-5.3793
X3.8312Y-5.7007
X3.8347Y-5.7746
X3.8378Y-5.4124
X3.8897Y-6.6182
X3.9152Y-5.5104
X3.9486Y-5.2206
X3.9558Y-5.3039
X3.9684Y-5.3508
X3.9865Y-5.2384
X4.001Y-6.3584
X4.0129Y-6.7275
X4.0253Y-6.6188
X4.0326Y-5.1282
X4.0447Y-4.3419
X4.0497Y-5.396
X4.0609Y-5.4818
X4.0837Y-5.2858
X4.0958Y-4.3134
X4.0996Y-8.179
X4.1029Y-5.403
X4.1125Y-8.5247
X4.1131Y-5.5104
X4.1171Y-5.5547
X4.1191Y-5.4604
X4.1262Y-6.4449
X4.155Y-5.3454
X4.1621Y-5.1302
X4.1733Y-5.8034
X4.1875Y-4.8912
X4.226Y-5.4999
X4.2323Y-7.0905
X4.238Y-6.1485
X4.2414Y-6.1075
X4.2418Y-7.3975
X4.2564Y-8.1201
X4.2569Y-5.9287
X4.2704Y-7.2838
X4.2737Y-4.8926
X4.3134Y-4.8963
X4.3173Y-4.9938
X4.337Y-5.4118
X4.34Y-5.4914
X4.3468Y-7.9053
X4.3624Y-4.9034
X4.3766Y-8.041
X4.379Y-6.1517
X4.3795Y-6.8858
X4.3799Y-5.5066
X4.3925Y-7.2838
X4.3927Y-7.2161
X4.428Y-5.0996
X4.4329Y-5.8801
X4.4417Y-6.8979
X4.4682Y-8.5291
X4.4979Y-8.4943
X4.5315Y-6.0912
X4.5397Y-7.8918
X4.5437Y-7.4107
X4.5457Y-8.9339
X4.5518Y-8.2614
X4.5598Y-5.1967
X4.5632Y-8.3843
X4.5668Y-3.4194
X4.5868Y-5.3607
X4.5986Y-7.5043
X4.599Y-6.1911
X4.6155Y-5.3877
X4.625Y-6.0738
X4.6255Y-5.2505
X4.6342Y-7.3443
X4.6699Y-8.8295
X4.6781Y-5.5382
X4.6986Y-4.6547
X4.6988Y-5.2084
X4.7107Y-5.3718
X4.7214Y-6.7915
X4.7504Y-6.9457
X4.7555Y-5.9005
X4.7708Y-5.1907
X4.773Y-5.5704
X4.7859Y-8.1992
X4.8299Y-6.3478
X4.8368Y-5.4728
X4.8419Y-8.1484
X4.9515Y-6.2245
X4.9598Y-4.862
X4.9775Y-6.3764
X4.9897Y-8.0298
X4.9907Y-5.7483
X5.0057Y-8.4898
X5.0244Y-5.7145
X5.0462Y-8.2715
X5.0499Y-5.2923
X5.0618Y-8.647
X5.0724Y-5.8498
X5.0898Y-5.4444
X5.1028Y-6.2916
X5.1064Y-6.252
X5.1209Y-5.2637
X5.1295Y-6.1072
X5.1358Y-5.9304
X5.1386Y-6.3777
X5.1566Y-5.7604
X5.1752Y-5.9174
X5.1882Y-6.1627
X5.2079Y-4.6211
X5.2242Y-6.8876
X5.2679Y-6.921
X5.2937Y-5.5826
X5.3133Y-6.7269
X5.3381Y-4.9329
X5.4068Y-4.9008
X5.4165Y-6.2088
X5.4411Y-5.1148
X5.5017Y-3.0363
X5.5117Y-6.2088
X5.5163Y-4.7966
X5.5247Y-5.6124
X5.5291Y-7.6995
X5.5308Y-5.0857
X5.5352Y-5.309
X5.5515Y-6.8259
X5.5534Y-4.5926
X5.5852Y-5.474
X5.6469Y-6.1326
X5.6481Y-5.5641
X5.6863Y-5.5335
X5.708Y-5.6971
X5.8236Y-5.5796
X5.8847Y-3.4732
X5.9397Y-3.3464
X5.9397Y-7.9095
X5.9428Y-3.386
X5.9586Y-3.3089
X5.974Y-5.6152
X5.9791Y-8.0116
X5.9927Y-8.1819
X6.004Y-2.9826
X6.0613Y-5.1939
X6.1396Y-6.4301
X6.1579Y-5.9746
X6.1693Y-6.7059
X6.1709Y-8.3195
X6.1886Y-8.0012
X6.1889Y-7.3204
X6.1985Y-5.1567
X6.208Y-6.0323
X6.2224Y-5.4796
X6.2387Y-7.3249
X6.248Y-5.2173
X6.2662Y-5.4505
X6.2802Y-5.9089
X6.2804Y-6.2495
X6.3031Y-6.7393
X6.3068Y-8.0789
X6.3224Y-8.0389
X6.3333Y-8.8295
X6.3429Y-5.4259
X6.3587Y-4.9465
X6.3607Y-6.8569
X6.3913Y-7.9278
X6.4225Y-8.4648
X6.467Y-4.8261
X6.4747Y-5.2835
X6.4992Y-7.5528
X6.5272Y-8.302
X6.5778Y-6.0762
X6.6045Y-5.1344
X6.683Y-6.9346
X6.8005Y-5.213
X6.8136Y-4.0313
X6.8276Y-8.0206
X6.8515Y-4.793
X6.8928Y-6.3364
X6.893Y-4.8392
X6.9259Y-4.0251
X6.9408Y-6.6301
X6.9411Y-6.9197
X6.9554Y-5.9145
X6.9829Y-4.06
X7.0355Y-7.2033
X7.0417Y-5.4809
X7.0425Y-6.8586
X7.0786Y-7.9079
X7.0803Y-5.4388
X7.1022Y-6.1883
X7.1341Y-5.3868
X7.1551Y-6.2387
X7.1628Y-7.9262
X7.2054Y-5.3711
X7.2156Y-6.6931
X7.2672Y-6.0284
X7.2827Y-6.9823
X7.283Y-6.4393
X7.2834Y-5.3541
X7.3068Y-8.1763
X7.3289Y-8.3173
X7.3574Y-7.6414
X7.4052Y-6.0762
X7.4076Y-5.2866
X7.4261Y-5.4587
X7.4291Y-7.3429
X7.4308Y-8.8976
X7.4925Y-7.7003
X7.5691Y-7.671
X7.5944Y-8.2055
X7.596Y-5.632
X7.6341Y-7.7345
X7.6434Y-8.2055
X7.6482Y-5.7148
X7.7304Y-7.7597
X7.7615Y-5.6922
X7.7957Y-8.2855
X7.9296Y-7.4909
X7.9622Y-7.9271
X8.0314Y-7.9659
X8.1293Y-4.9323
X8.183Y-6.6931
X8.2052Y-7.6997
X8.214Y-4.4456
X8.3248Y-7.3837
X8.3328Y-5.3156
X8.3517Y-7.7327
X8.3533Y-4.4896
X8.3911Y-6.381
X8.4158Y-6.2036
X8.4609Y-4.3088
X8.4895Y-4.2801
X8.5471Y-4.6755
X8.5699Y-7.5275
X8.5781Y-5.2897
X8.6334Y-5.9212
X8.6644Y-6.0265
X8.6865Y-7.4581
X8.6932Y-6.2788
X8.7394Y-6.1367
X8.7979Y-8.3485
X8.8137Y-6.1464
X8.9309Y-4.3216
X8.9473Y-4.5604
X8.9584Y-6.0724
X9.0008Y-6.6942
X9.0059Y-8.5207
X9.0079Y-6.7445
X9.0218Y-8.4713
X9.0653Y-7.3155
X9.1329Y-7.2902
X9.1396Y-4.7776
X9.1859Y-4.7055
X9.187Y-4.0801
X9.1939Y-6.715
X9.2288Y-3.0363
X9.3569Y-9.0053
X9.5257Y-8.6745
X9.5313Y-7.7813
X9.7892Y-6.715
X9.8489Y-6.9823
X9.9533Y-7.5275
X9.9716Y-8.1985
X10.1099Y-4.9824
T3
X1.953Y-5.2801
X2.003Y-5.2301
X2.003Y-5.3301
T4
X1.6901Y-8.6122
X1.6929Y-6.1772
X1.6929Y-6.374
X1.6929Y-7.4094
X1.6929Y-7.6063
X1.6978Y-5.6595
X1.6978Y-5.8564
X1.703Y-4.1067
X1.703Y-4.3035
X1.703Y-4.6243
X1.703Y-4.8212
X1.703Y-5.1419
X1.703Y-5.3388
X1.7274Y-6.7301
X1.753Y-8.2801
X1.7886Y-8.6122
X1.803Y-8.0051
X1.8274Y-6.7301
X1.8774Y-3.8051
X1.8898Y-4.0547
X1.8898Y-4.3547
X1.8898Y-4.5723
X1.8898Y-4.8723
X1.8898Y-5.6076
X1.8898Y-5.9076
X1.8898Y-6.1252
X1.8898Y-6.4252
X1.8898Y-7.3063
X1.8898Y-7.6063
X1.903Y-8.0051
X1.9274Y-6.7301
X1.9774Y-3.8051
X1.9898Y-4.0547
X1.9898Y-4.3547
X1.9898Y-4.5723
X1.9898Y-4.8723
X1.9898Y-5.6076
X1.9898Y-5.9076
X1.9898Y-6.1252
X1.9898Y-6.4252
X1.9898Y-7.3063
X1.9898Y-7.6063
X2.003Y-8.0051
X2.0274Y-6.7301
X2.053Y-8.2801
X2.0774Y-3.8051
X2.0898Y-4.0547
X2.0898Y-4.3547
X2.0898Y-4.5723
X2.0898Y-4.8723
X2.0898Y-5.6076
X2.0898Y-5.9076
X2.0898Y-6.1252
X2.0898Y-6.4252
X2.0898Y-7.3063
X2.0898Y-7.6063
X2.103Y-8.0051
X2.1274Y-6.7301
X2.1774Y-3.8051
X2.1898Y-4.0547
X2.1898Y-4.3547
X2.1898Y-4.5723
X2.1898Y-4.8723
X2.1898Y-5.6076
X2.1898Y-5.9076
X2.1898Y-6.1252
X2.1898Y-6.4252
X2.1898Y-7.3063
X2.1898Y-7.6063
X2.203Y-8.0051
X2.2274Y-6.7301
X2.228Y-5.1051
X2.228Y-5.3801
X2.2774Y-3.8051
X2.2898Y-4.0547
X2.2898Y-4.3547
X2.2898Y-4.5723
X2.2898Y-4.8723
X2.2898Y-5.6076
X2.2898Y-5.9076
X2.2898Y-6.1252
X2.2898Y-6.4252
X2.2898Y-7.3063
X2.2898Y-7.6063
X2.303Y-8.0051
X2.3274Y-6.7301
X2.3774Y-3.8051
X2.3898Y-4.0547
X2.3898Y-4.3547
X2.3898Y-4.5723
X2.3898Y-4.8723
X2.3898Y-5.6076
X2.3898Y-5.9076
X2.3898Y-6.1252
X2.3898Y-6.4252
X2.3898Y-7.3063
X2.3898Y-7.6063
X2.403Y-8.0051
X2.4274Y-6.7301
X2.4774Y-3.8051
X2.4898Y-4.0547
X2.4898Y-4.3547
X2.4898Y-4.5723
X2.4898Y-4.8723
X2.4898Y-5.6076
X2.4898Y-5.9076
X2.4898Y-6.1252
X2.4898Y-6.4252
X2.4898Y-7.3063
X2.4898Y-7.6063
X2.503Y-8.0051
X2.5274Y-6.7301
X2.528Y-5.1051
X2.528Y-5.3801
X2.5774Y-3.8051
X2.5898Y-7.3063
X2.5898Y-7.6063
X2.603Y-8.0051
X2.6774Y-3.8051
X2.6779Y-6.4921
X2.6898Y-7.3063
X2.6898Y-7.6063
X2.728Y-5.8301
X2.728Y-6.1301
X2.7764Y-6.4921
X2.7898Y-7.3063
X2.7898Y-7.6063
X2.8898Y-7.3063
X2.8898Y-7.6063
X2.953Y-4.2317
X2.953Y-4.4285
X2.978Y-4.7801
X2.978Y-4.977
X2.978Y-5.3051
X2.978Y-5.502
X2.978Y-7.7817
X2.978Y-7.9785
X2.9898Y-7.3063
X2.9898Y-7.6063
X3.003Y-6.3083
X3.003Y-6.5051
X3.028Y-6.9551
X3.028Y-7.152
X3.028Y-8.1602
X3.028Y-8.3571
X3.1781Y-4.7297
X3.1781Y-5.0297
X3.1785Y-5.2781
X3.1785Y-5.5781
X3.182Y-4.2191
X3.182Y-4.5191
X3.2022Y-3.9301
X3.2028Y-6.3047
X3.2028Y-6.6047
X3.2531Y-6.9047
X3.2531Y-7.2047
X3.2531Y-7.5047
X3.2531Y-7.8047
X3.2531Y-8.1047
X3.2531Y-8.4047
X3.2781Y-4.7297
X3.2781Y-5.0297
X3.2785Y-5.2781
X3.2785Y-5.5781
X3.282Y-4.2191
X3.282Y-4.5191
X3.3022Y-3.9301
X3.3028Y-6.3047
X3.3028Y-6.6047
X3.3531Y-6.9047
X3.3531Y-7.2047
X3.3531Y-7.5047
X3.3531Y-7.8047
X3.3531Y-8.1047
X3.3531Y-8.4047
X3.3781Y-4.7297
X3.3781Y-5.0297
X3.3785Y-5.2781
X3.3785Y-5.5781
X3.382Y-4.2191
X3.382Y-4.5191
X3.4022Y-3.9301
X3.4028Y-6.3047
X3.4028Y-6.6047
X3.4531Y-6.9047
X3.4531Y-7.2047
X3.4531Y-7.5047
X3.4531Y-7.8047
X3.4531Y-8.1047
X3.4531Y-8.4047
X3.4781Y-4.7297
X3.4781Y-5.0297
X3.4785Y-5.2781
X3.4785Y-5.5781
X3.482Y-4.2191
X3.482Y-4.5191
X3.5022Y-3.9301
X3.5028Y-6.3047
X3.5028Y-6.6047
X3.5531Y-6.9047
X3.5531Y-7.2047
X3.5531Y-7.5047
X3.5531Y-7.8047
X3.5531Y-8.1047
X3.5531Y-8.4047
X3.5781Y-4.7297
X3.5781Y-5.0297
X3.5785Y-5.2781
X3.5785Y-5.5781
X3.582Y-4.2191
X3.582Y-4.5191
X3.6022Y-3.9301
X3.6028Y-6.3047
X3.6028Y-6.6047
X3.6531Y-6.9047
X3.6531Y-7.2047
X3.6531Y-7.5047
X3.6531Y-7.8047
X3.6531Y-8.1047
X3.6531Y-8.4047
X3.6781Y-4.7297
X3.6781Y-5.0297
X3.6785Y-5.2781
X3.6785Y-5.5781
X3.682Y-4.2191
X3.682Y-4.5191
X3.7028Y-6.3047
X3.7028Y-6.6047
X3.7531Y-6.9047
X3.7531Y-7.2047
X3.7531Y-7.5047
X3.7531Y-7.8047
X3.7531Y-8.1047
X3.7531Y-8.4047
X3.7781Y-4.7297
X3.7781Y-5.0297
X3.7785Y-5.2781
X3.7785Y-5.5781
X3.782Y-4.2191
X3.782Y-4.5191
X3.8028Y-6.3047
X3.8028Y-6.6047
X3.8531Y-6.9047
X3.8531Y-7.2047
X3.8531Y-7.5047
X3.8531Y-7.8047
X3.8531Y-8.1047
X3.8531Y-8.4047
X3.8781Y-4.7297
X3.8781Y-5.0297
X3.8785Y-5.2781
X3.8785Y-5.5781
X3.882Y-4.2191
X3.882Y-4.5191
X3.9531Y-6.9047
X3.9531Y-7.2047
X3.9531Y-7.5047
X3.9531Y-7.8047
X3.9531Y-8.1047
X3.9531Y-8.4047
X3.978Y-5.9067
X3.978Y-6.1035
X3.9781Y-4.7297
X3.9781Y-5.0297
X3.9805Y-3.9301
X3.982Y-4.2191
X3.982Y-4.5191
X4.0531Y-6.9047
X4.0531Y-7.2047
X4.0531Y-7.5047
X4.0531Y-7.8047
X4.0531Y-8.1047
X4.0531Y-8.4047
X4.0781Y-4.7297
X4.0781Y-5.0297
X4.0789Y-3.9301
X4.082Y-4.2191
X4.082Y-4.5191
X4.1531Y-6.9047
X4.1531Y-7.2047
X4.1531Y-7.5047
X4.1531Y-7.8047
X4.1531Y-8.1047
X4.1531Y-8.4047
X4.182Y-4.2191
X4.182Y-4.5191
X4.282Y-4.2191
X4.282Y-4.5191
X4.5031Y-4.7817
X4.5031Y-4.9785
X4.5535Y-4.2067
X4.5535Y-4.4035
X4.6063Y-8.6122
X4.6778Y-4.7547
X4.6778Y-5.0547
X4.678Y-7.5567
X4.678Y-7.7535
X4.7047Y-8.6122
X4.728Y-8.0833
X4.728Y-8.2801
X4.7281Y-4.2047
X4.7281Y-4.5047
X4.7778Y-4.7547
X4.7778Y-5.0547
X4.8281Y-4.2047
X4.8281Y-4.5047
X4.8778Y-4.7547
X4.8778Y-5.0547
X4.9281Y-4.2047
X4.9281Y-4.5047
X4.9531Y-7.5297
X4.9531Y-7.8297
X4.9531Y-8.1297
X4.9531Y-8.4297
X4.9545Y-6.8551
X4.9778Y-4.7547
X4.9778Y-5.0547
X5.0281Y-4.2047
X5.0281Y-4.5047
X5.05Y-3.7421
X5.0531Y-7.5297
X5.0531Y-7.8297
X5.0531Y-8.1297
X5.0531Y-8.4297
X5.054Y-3.4941
X5.0778Y-4.7547
X5.0778Y-5.0547
X5.1281Y-4.2047
X5.1281Y-4.5047
X5.1514Y-6.8551
X5.1531Y-7.5297
X5.1531Y-7.8297
X5.1531Y-8.1297
X5.1531Y-8.4297
X5.1778Y-4.7547
X5.1778Y-5.0547
X5.2281Y-4.2047
X5.2281Y-4.5047
X5.2531Y-7.5297
X5.2531Y-7.8297
X5.2531Y-8.1297
X5.2531Y-8.4297
X5.2778Y-4.7547
X5.2778Y-5.0547
X5.3281Y-4.2047
X5.3281Y-4.5047
X5.35Y-3.7421
X5.3531Y-7.5297
X5.3531Y-7.8297
X5.3531Y-8.1297
X5.3531Y-8.4297
X5.354Y-3.4941
X5.4281Y-4.2047
X5.4281Y-4.5047
X5.4531Y-7.5297
X5.4531Y-7.8297
X5.4531Y-8.1297
X5.4531Y-8.4297
X5.5281Y-4.2047
X5.5281Y-4.5047
X5.5531Y-7.5297
X5.5531Y-7.8297
X5.5531Y-8.1297
X5.5531Y-8.4297
X5.603Y-5.6567
X5.603Y-5.8535
X5.6281Y-4.2047
X5.6281Y-4.5047
X5.6531Y-7.5297
X5.6531Y-7.8297
X5.6531Y-8.1297
X5.6531Y-8.4297
X5.7531Y-7.5297
X5.7531Y-7.8297
X5.7531Y-8.1297
X5.7531Y-8.4297
X5.8531Y-7.5297
X5.8531Y-7.8297
X5.8531Y-8.1297
X5.8531Y-8.4297
X5.878Y-4.8067
X5.878Y-5.0035
X5.8791Y-5.3663
X5.8791Y-5.5632
X5.903Y-4.2567
X5.903Y-4.4535
X6.053Y-6.4067
X6.053Y-6.6035
X6.0531Y-5.3547
X6.0531Y-5.6547
X6.078Y-4.7551
X6.078Y-5.0551
X6.0781Y-4.2047
X6.0781Y-4.5047
X6.1531Y-5.3547
X6.1531Y-5.6547
X6.178Y-4.7551
X6.178Y-5.0551
X6.1781Y-4.2047
X6.1781Y-4.5047
X6.2531Y-5.3547
X6.2531Y-5.6547
X6.278Y-4.7551
X6.278Y-5.0551
X6.278Y-8.1567
X6.278Y-8.3535
X6.2781Y-4.2047
X6.2781Y-4.5047
X6.3531Y-5.3547
X6.3531Y-5.6547
X6.378Y-4.7551
X6.378Y-5.0551
X6.378Y-6.2801
X6.378Y-6.3801
X6.378Y-6.4801
X6.378Y-6.5801
X6.378Y-6.6801
X6.378Y-6.7801
X6.3781Y-4.2047
X6.3781Y-4.5047
X6.4274Y-7.8051
X6.4531Y-5.3547
X6.4531Y-5.6547
X6.478Y-4.7551
X6.478Y-5.0551
X6.478Y-6.1801
X6.478Y-6.2801
X6.478Y-6.3801
X6.478Y-6.4801
X6.478Y-6.5801
X6.478Y-6.6801
X6.478Y-6.7801
X6.478Y-6.8801
X6.478Y-8.1047
X6.478Y-8.4047
X6.4781Y-4.2047
X6.4781Y-4.5047
X6.5274Y-7.8051
X6.5531Y-5.3547
X6.5531Y-5.6547
X6.578Y-4.7551
X6.578Y-5.0551
X6.578Y-6.1801
X6.578Y-6.2801
X6.578Y-6.7801
X6.578Y-6.8801
X6.578Y-8.1047
X6.578Y-8.4047
X6.5781Y-4.2047
X6.5781Y-4.5047
X6.6274Y-7.8051
X6.6531Y-5.3547
X6.6531Y-5.6547
X6.678Y-4.7551
X6.678Y-5.0551
X6.678Y-6.1801
X6.678Y-6.2801
X6.678Y-6.7801
X6.678Y-6.8801
X6.678Y-8.1047
X6.678Y-8.4047
X6.6781Y-4.2047
X6.6781Y-4.5047
X6.7274Y-7.8051
X6.7531Y-5.3547
X6.7531Y-5.6547
X6.778Y-6.1801
X6.778Y-6.2801
X6.778Y-6.7801
X6.778Y-6.8801
X6.778Y-8.1047
X6.778Y-8.4047
X6.7781Y-4.2047
X6.7781Y-4.5047
X6.8274Y-7.8051
X6.8531Y-5.3547
X6.8531Y-5.6547
X6.878Y-5.9301
X6.878Y-6.1801
X6.878Y-6.2801
X6.878Y-6.7801
X6.878Y-6.8801
X6.878Y-8.1047
X6.878Y-8.4047
X6.8781Y-4.2047
X6.8781Y-4.5047
X6.9274Y-7.8051
X6.9531Y-5.3547
X6.9531Y-5.6547
X6.978Y-6.1801
X6.978Y-6.2801
X6.978Y-6.3801
X6.978Y-6.4801
X6.978Y-6.5801
X6.978Y-6.6801
X6.978Y-6.7801
X6.978Y-6.8801
X6.978Y-8.1047
X6.978Y-8.4047
X6.9781Y-4.2047
X6.9781Y-4.5047
X7.003Y-3.5801
X7.0274Y-7.8051
X7.0748Y-5.9301
X7.078Y-6.2801
X7.078Y-6.3801
X7.078Y-6.4801
X7.078Y-6.5801
X7.078Y-6.6801
X7.078Y-6.7801
X7.078Y-8.1047
X7.078Y-8.4047
X7.103Y-3.5801
X7.1274Y-7.8051
X7.178Y-8.1047
X7.178Y-8.4047
X7.203Y-3.5801
X7.2274Y-7.8051
X7.278Y-8.1047
X7.278Y-8.4047
X7.303Y-3.5801
X7.378Y-8.1047
X7.378Y-8.4047
X7.403Y-3.5801
X7.478Y-5.0567
X7.478Y-5.2535
X7.478Y-6.3551
X7.478Y-6.552
X7.503Y-3.5801
X7.5274Y-5.7913
X7.5274Y-5.9882
X7.528Y-7.4067
X7.528Y-7.6035
X7.5555Y-4.0801
X7.5939Y-8.6122
X7.603Y-3.5801
X7.6539Y-4.0801
X7.6803Y-6.3037
X7.6803Y-6.6037
X7.6923Y-8.6122
X7.7028Y-5.7547
X7.7028Y-6.0547
X7.703Y-3.5801
X7.7033Y-4.8553
X7.7033Y-5.4553
X7.7803Y-6.3037
X7.7803Y-6.6037
X7.8028Y-5.7547
X7.8028Y-6.0547
X7.803Y-3.5801
X7.8033Y-4.8553
X7.8033Y-5.4553
X7.853Y-8.1801
X7.853Y-8.377
X7.8803Y-6.3037
X7.8803Y-6.6037
X7.9028Y-5.7547
X7.9028Y-6.0547
X7.9033Y-4.8553
X7.9033Y-5.4553
X7.9803Y-6.3037
X7.9803Y-6.6037
X8.0028Y-5.7547
X8.0028Y-6.0547
X8.0033Y-4.8553
X8.0033Y-5.4553
X8.0531Y-8.1297
X8.0531Y-8.4297
X8.0545Y-6.8801
X8.078Y-7.2301
X8.078Y-7.8301
X8.0803Y-6.3037
X8.0803Y-6.6037
X8.1028Y-5.7547
X8.1028Y-6.0547
X8.1033Y-4.8553
X8.1033Y-5.4553
X8.1531Y-8.1297
X8.1531Y-8.4297
X8.178Y-7.2301
X8.178Y-7.8301
X8.1803Y-6.3037
X8.1803Y-6.6037
X8.2028Y-5.7547
X8.2028Y-6.0547
X8.2033Y-4.8553
X8.2033Y-5.4553
X8.2514Y-6.8801
X8.2531Y-8.1297
X8.2531Y-8.4297
X8.278Y-7.2301
X8.278Y-7.8301
X8.2803Y-6.3037
X8.2803Y-6.6037
X8.3028Y-5.7547
X8.3028Y-6.0547
X8.3033Y-4.8553
X8.3033Y-5.4553
X8.3531Y-8.1297
X8.3531Y-8.4297
X8.378Y-7.2301
X8.378Y-7.8301
X8.4033Y-4.8553
X8.4033Y-5.4553
X8.4531Y-8.1297
X8.4531Y-8.4297
X8.478Y-7.2301
X8.478Y-7.8301
X8.5033Y-4.8553
X8.5033Y-5.4553
X8.5531Y-8.1297
X8.5531Y-8.4297
X8.578Y-7.2301
X8.578Y-7.8301
X8.603Y-6.0801
X8.603Y-6.3317
X8.603Y-6.5285
X8.6033Y-4.8553
X8.6033Y-5.4553
X8.6531Y-8.1297
X8.6531Y-8.4297
X8.678Y-7.2301
X8.678Y-7.8301
X8.7033Y-4.8553
X8.7033Y-5.4553
X8.7531Y-8.1297
X8.7531Y-8.4297
X8.778Y-7.2301
X8.778Y-7.8301
X8.8033Y-4.8553
X8.8033Y-5.4553
X8.8281Y-6.3047
X8.8281Y-6.6047
X8.8531Y-8.1297
X8.8531Y-8.4297
X8.878Y-7.2301
X8.878Y-7.8301
X8.903Y-6.0801
X8.9033Y-4.8553
X8.9033Y-5.4553
X8.9281Y-6.3047
X8.9281Y-6.6047
X8.9531Y-8.1297
X8.9531Y-8.4297
X8.978Y-7.2301
X8.978Y-7.8301
X9.0033Y-4.8553
X9.0033Y-5.4553
X9.0281Y-6.3047
X9.0281Y-6.6047
X9.078Y-7.2301
X9.078Y-7.8301
X9.1281Y-6.3047
X9.1281Y-6.6047
X9.178Y-7.2301
X9.178Y-7.8301
X9.2281Y-6.3047
X9.2281Y-6.6047
X9.278Y-7.2301
X9.278Y-7.8301
X9.3281Y-6.3047
X9.3281Y-6.6047
X9.378Y-7.2301
X9.378Y-7.8301
X9.4281Y-6.3047
X9.4281Y-6.6047
X9.478Y-7.2301
X9.478Y-7.8301
X9.5281Y-6.3047
X9.5281Y-6.6047
X9.578Y-7.2301
X9.578Y-7.8301
X9.6281Y-6.3047
X9.6281Y-6.6047
X9.7281Y-6.3047
X9.7281Y-6.6047
X10.003Y-6.3051
X10.003Y-6.6051
T5
X4.328Y-5.6301
X4.328Y-5.7301
X4.328Y-5.8301
X4.328Y-5.9301
X4.328Y-6.0301
X4.328Y-6.1301
X4.328Y-6.2301
X4.328Y-6.3301
X4.328Y-6.4301
X4.428Y-5.5301
X4.428Y-5.6301
X4.428Y-5.7301
X4.428Y-5.8301
X4.428Y-5.9301
X4.428Y-6.0301
X4.428Y-6.1301
X4.428Y-6.2301
X4.428Y-6.3301
X4.428Y-6.4301
X4.428Y-6.5301
X4.528Y-5.5301
X4.528Y-5.6301
X4.528Y-6.4301
X4.528Y-6.5301
X4.628Y-5.5301
X4.628Y-5.6301
X4.628Y-6.4301
X4.628Y-6.5301
X4.728Y-5.5301
X4.728Y-5.6301
X4.728Y-6.4301
X4.728Y-6.5301
X4.828Y-5.5301
X4.828Y-5.6301
X4.828Y-6.4301
X4.828Y-6.5301
X4.928Y-5.5301
X4.928Y-5.6301
X4.928Y-6.4301
X4.928Y-6.5301
X5.028Y-5.5301
X5.028Y-5.6301
X5.028Y-6.4301
X5.028Y-6.5301
X5.128Y-5.5301
X5.128Y-5.6301
X5.128Y-6.4301
X5.128Y-6.5301
X5.228Y-5.5301
X5.228Y-5.6301
X5.228Y-5.7301
X5.228Y-5.8301
X5.228Y-5.9301
X5.228Y-6.0301
X5.228Y-6.1301
X5.228Y-6.2301
X5.228Y-6.3301
X5.228Y-6.4301
X5.228Y-6.5301
X5.328Y-5.6301
X5.328Y-5.7301
X5.328Y-5.8301
X5.328Y-5.9301
X5.328Y-6.0301
X5.328Y-6.1301
X5.328Y-6.2301
X5.328Y-6.3301
X5.328Y-6.4301
T6
X1.9071Y-3.1801
X2.0071Y-3.1801
X2.4411Y-3.1801
X2.5411Y-3.1801
X2.7081Y-3.1801
X2.8081Y-3.1801
X2.9751Y-3.1801
X3.0751Y-3.1801
X3.2421Y-3.1801
X3.3421Y-3.1801
X3.5091Y-3.1801
X3.6091Y-3.1801
X3.7761Y-3.1801
X3.8761Y-3.1801
X4.0431Y-3.1801
X4.1431Y-3.1801
X4.3102Y-3.1801
X4.4102Y-3.1801
T7
X9.8514Y-2.9906
X10.0285Y-2.9906
T8
X1.852Y-8.7795
X1.852Y-8.8795
X1.928Y-7.0301
X1.928Y-7.1301
X1.952Y-8.7795
X1.952Y-8.8795
X2.028Y-7.0301
X2.028Y-7.1301
X2.052Y-8.7795
X2.052Y-8.8795
X2.128Y-7.0301
X2.128Y-7.1301
X2.152Y-8.7795
X2.152Y-8.8795
X2.228Y-7.0301
X2.228Y-7.1301
X2.252Y-8.7795
X2.252Y-8.8795
X2.352Y-8.7795
X2.352Y-8.8795
X2.452Y-8.7795
X2.452Y-8.8795
X2.552Y-8.7795
X2.552Y-8.8795
X2.603Y-8.2299
X2.603Y-8.3299
X2.652Y-8.7795
X2.652Y-8.8795
X2.6528Y-7.0551
X2.752Y-8.7795
X2.752Y-8.8795
X2.7528Y-7.0551
X2.852Y-8.7795
X2.852Y-8.8795
X2.952Y-8.7795
X2.952Y-8.8795
X3.052Y-8.7795
X3.052Y-8.8795
X3.152Y-8.7795
X3.152Y-8.8795
X3.252Y-8.7795
X3.252Y-8.8795
X3.352Y-8.7795
X3.352Y-8.8795
X3.452Y-8.7795
X3.452Y-8.8795
X3.552Y-8.7795
X3.552Y-8.8795
X3.652Y-8.7795
X3.652Y-8.8795
X3.752Y-8.7795
X3.752Y-8.8795
X3.852Y-8.7795
X3.852Y-8.8795
X3.952Y-8.7795
X3.952Y-8.8795
X4.052Y-8.7795
X4.052Y-8.8795
X4.152Y-8.7795
X4.152Y-8.8795
X4.252Y-8.7795
X4.252Y-8.8795
X4.7654Y-8.7795
X4.7654Y-8.8795
X4.8654Y-8.7795
X4.8654Y-8.8795
X4.9654Y-8.7795
X4.9654Y-8.8795
X5.0654Y-8.7795
X5.0654Y-8.8795
X5.1654Y-8.7795
X5.1654Y-8.8795
X5.2654Y-8.7795
X5.2654Y-8.8795
X5.3654Y-8.7795
X5.3654Y-8.8795
X5.4654Y-8.7795
X5.4654Y-8.8795
X5.5654Y-8.7795
X5.5654Y-8.8795
X5.6654Y-8.7795
X5.6654Y-8.8795
X5.7654Y-8.7795
X5.7654Y-8.8795
X5.8654Y-8.7795
X5.8654Y-8.8795
X5.9285Y-3.1774
X5.9654Y-8.7795
X5.9654Y-8.8795
X6.0285Y-3.1774
X6.0654Y-8.7795
X6.0654Y-8.8795
X6.1285Y-3.1774
X6.1654Y-8.7795
X6.1654Y-8.8795
X6.2654Y-8.7795
X6.2654Y-8.8795
X6.3654Y-8.7795
X6.3654Y-8.8795
X6.403Y-7.3801
X6.403Y-7.4801
X6.4285Y-3.1774
X6.4654Y-8.7795
X6.4654Y-8.8795
X6.503Y-7.3801
X6.503Y-7.4801
X6.5285Y-3.1774
X6.5654Y-8.7795
X6.5654Y-8.8795
X6.603Y-7.3801
X6.603Y-7.4801
X6.6285Y-3.1774
X6.6654Y-8.7795
X6.6654Y-8.8795
X6.703Y-7.3801
X6.703Y-7.4801
X6.7654Y-8.7795
X6.7654Y-8.8795
X6.803Y-7.3801
X6.803Y-7.4801
X6.8654Y-8.7795
X6.8654Y-8.8795
X6.903Y-7.3801
X6.903Y-7.4801
X6.9654Y-8.7795
X6.9654Y-8.8795
X7.003Y-7.3801
X7.003Y-7.4801
X7.0654Y-8.7795
X7.0654Y-8.8795
X7.103Y-7.3801
X7.103Y-7.4801
X7.1654Y-8.7795
X7.1654Y-8.8795
X7.376Y-3.2038
X7.376Y-3.3038
X7.476Y-3.2038
X7.476Y-3.3038
X7.576Y-3.2038
X7.576Y-3.3038
X7.676Y-3.2038
X7.676Y-3.3038
X7.7575Y-8.7795
X7.7575Y-8.8795
X7.776Y-3.2038
X7.776Y-3.3038
X7.8575Y-8.7795
X7.8575Y-8.8795
X7.876Y-3.2038
X7.876Y-3.3038
X7.9575Y-8.7795
X7.9575Y-8.8795
X7.976Y-3.2038
X7.976Y-3.3038
X8.0575Y-8.7795
X8.0575Y-8.8795
X8.076Y-3.2038
X8.076Y-3.3038
X8.1575Y-8.7795
X8.1575Y-8.8795
X8.176Y-3.2038
X8.176Y-3.3038
X8.2575Y-8.7795
X8.2575Y-8.8795
X8.276Y-3.2038
X8.276Y-3.3038
X8.3575Y-8.7795
X8.3575Y-8.8795
X8.376Y-3.2038
X8.376Y-3.3038
X8.4575Y-8.7795
X8.4575Y-8.8795
X8.476Y-3.2038
X8.476Y-3.3038
X8.5575Y-8.7795
X8.5575Y-8.8795
X8.576Y-3.2038
X8.576Y-3.3038
X8.6575Y-8.7795
X8.6575Y-8.8795
X8.676Y-3.2038
X8.676Y-3.3038
X8.7575Y-8.7795
X8.7575Y-8.8795
X8.776Y-3.2038
X8.776Y-3.3038
X8.8575Y-8.7795
X8.8575Y-8.8795
X8.876Y-3.2038
X8.876Y-3.3038
X8.9575Y-8.7795
X8.9575Y-8.8795
X8.976Y-3.2038
X8.976Y-3.3038
X9.0575Y-8.7795
X9.0575Y-8.8795
X9.076Y-3.2038
X9.076Y-3.3038
X9.1575Y-8.7795
X9.1575Y-8.8795
X9.176Y-3.2038
X9.176Y-3.3038
X9.2575Y-8.7795
X9.2575Y-8.8795
X9.276Y-3.2038
X9.276Y-3.3038
X9.3575Y-8.7795
X9.3575Y-8.8795
X9.378Y-8.1557
X9.378Y-8.2557
X9.378Y-8.3557
X9.453Y-3.7801
X9.453Y-3.8801
X9.453Y-3.9801
X9.453Y-4.0801
X9.453Y-4.1801
X9.453Y-4.2801
X9.453Y-4.3801
X9.453Y-4.4801
X9.453Y-4.5801
X9.4575Y-8.7795
X9.4575Y-8.8795
X9.553Y-3.7801
X9.553Y-3.8801
X9.553Y-3.9801
X9.553Y-4.0801
X9.553Y-4.1801
X9.553Y-4.2801
X9.553Y-4.3801
X9.553Y-4.4801
X9.553Y-4.5801
X9.5575Y-8.7795
X9.5575Y-8.8795
X9.6575Y-8.7795
X9.6575Y-8.8795
X9.7575Y-8.7795
X9.7575Y-8.8795
X9.8575Y-8.7795
X9.8575Y-8.8795
X9.878Y-8.1557
X9.878Y-8.2557
X9.878Y-8.3557
X9.903Y-3.7805
X9.903Y-3.8805
X9.903Y-3.9805
X9.903Y-4.0805
X9.903Y-4.1805
X9.903Y-4.2805
X9.903Y-4.3805
X9.903Y-4.4805
X9.903Y-4.5805
X9.9575Y-8.7795
X9.9575Y-8.8795
X10.003Y-3.7805
X10.003Y-3.8805
X10.003Y-3.9805
X10.003Y-4.0805
X10.003Y-4.1805
X10.003Y-4.2805
X10.003Y-4.3805
X10.003Y-4.4805
X10.003Y-4.5805
X10.0575Y-8.7795
X10.0575Y-8.8795
X10.1575Y-8.7795
X10.1575Y-8.8795
T9
X9.8022Y-3.0887
X10.0781Y-3.0887
T10
X1.5748Y-2.9528
X10.4331Y-2.9528
T0
M30
