M48
; DRILL file {KiCad (6.0.11)} date Sun Oct 20 20:54:56 2024
; FORMAT={-:-/ absolute / inch / decimal}
; #@! TF.CreationDate,2024-10-20T20:54:56-05:00
; #@! TF.GenerationSoftware,Kicad,Pcbnew,(6.0.11)
; #@! TF.FileFunction,Plated,1,2,PTH
FMAT,2
INCH
; #@! TA.AperFunction,Plated,PTH,ComponentDrill
T1C0.0118
; #@! TA.AperFunction,Plated,PTH,ViaDrill
T2C0.0157
; #@! TA.AperFunction,Plated,PTH,ComponentDrill
T3C0.0295
; #@! TA.AperFunction,Plated,PTH,ComponentDrill
T4C0.0315
; #@! TA.AperFunction,Plated,PTH,ComponentDrill
T5C0.0320
; #@! TA.AperFunction,Plated,PTH,ComponentDrill
T6C0.0354
; #@! TA.AperFunction,Plated,PTH,ComponentDrill
T7C0.0390
; #@! TA.AperFunction,Plated,PTH,ComponentDrill
T8C0.0394
; #@! TA.AperFunction,Plated,PTH,ComponentDrill
T9C0.0512
; #@! TA.AperFunction,Plated,PTH,ComponentDrill
T10C0.1260
%
G90
G05
T1
X5.753Y-6.7329
X5.753Y-6.7801
X5.778Y-6.0301
X5.8252Y-6.0301
T2
X1.8409Y-7.4553
X1.8733Y-5.2618
X2.1368Y-6.8948
X2.2058Y-5.2686
X2.3808Y-6.7696
X2.5136Y-6.8566
X2.6823Y-5.6945
X2.7105Y-8.0522
X2.7508Y-5.6908
X2.7778Y-6.0227
X2.8239Y-5.2295
X2.9268Y-5.4751
X2.9614Y-6.7419
X2.9856Y-5.432
X3.0441Y-5.6826
X3.0656Y-7.3925
X3.0927Y-7.3184
X3.1147Y-5.3735
X3.1203Y-7.9165
X3.1349Y-5.4376
X3.1507Y-7.1447
X3.1508Y-5.7923
X3.3233Y-8.3169
X3.3236Y-5.3564
X3.3297Y-5.4484
X3.3399Y-5.1949
X3.3554Y-8.6396
X3.3703Y-8.2873
X3.3974Y-7.1544
X3.4473Y-4.4119
X3.4883Y-8.1962
X3.5166Y-5.3973
X3.5992Y-4.3615
X3.6029Y-5.2018
X3.705Y-5.7797
X3.7645Y-8.5739
X3.7996Y-7.5579
X3.8041Y-8.3093
X3.8264Y-5.1009
X3.8682Y-8.5454
X3.9082Y-5.9112
X3.9343Y-5.6008
X3.9359Y-8.7015
X3.942Y-6.3023
X3.9493Y-5.3845
X3.9689Y-5.309
X4.0216Y-7.3297
X4.0239Y-8.5062
X4.0645Y-4.4197
X4.0729Y-6.6648
X4.0748Y-7.353
X4.0769Y-5.4479
X4.0794Y-5.515
X4.1523Y-5.9021
X4.182Y-6.6353
X4.1917Y-5.9439
X4.198Y-7.0211
X4.2043Y-7.0789
X4.2317Y-8.07
X4.2405Y-4.8683
X4.2584Y-7.8851
X4.2915Y-5.2856
X4.318Y-8.1133
X4.3248Y-7.4435
X4.3336Y-5.2446
X4.346Y-7.2095
X4.3886Y-7.5532
X4.3939Y-5.3866
X4.4282Y-6.9823
X4.4814Y-6.1929
X4.5629Y-8.1793
X4.5631Y-5.327
X4.5752Y-6.6603
X4.6012Y-6.1129
X4.6365Y-7.2547
X4.6371Y-7.0069
X4.6528Y-5.9633
X4.6657Y-7.3699
X4.6696Y-7.3295
X4.7114Y-4.9588
X4.7209Y-7.9532
X4.734Y-7.0121
X4.7425Y-5.3593
X4.7545Y-4.8826
X4.7691Y-4.9824
X4.7875Y-7.0735
X4.7951Y-6.1193
X4.8034Y-6.043
X4.8098Y-4.8975
X4.8171Y-6.0033
X4.8272Y-7.7634
X4.8392Y-5.7216
X4.8622Y-4.8603
X4.8775Y-6.9973
X4.9012Y-7.0307
X4.9095Y-7.4697
X4.9163Y-7.3955
X4.9262Y-7.1478
X4.9405Y-4.0619
X4.946Y-5.4736
X4.9485Y-5.3534
X4.9546Y-7.1198
X4.966Y-7.2396
X5.0027Y-6.2015
X5.0289Y-6.3702
X5.029Y-7.2608
X5.0368Y-5.7815
X5.0413Y-8.0147
X5.1022Y-8.4898
X5.1571Y-5.1264
X5.1788Y-5.7522
X5.2474Y-6.5889
X5.2483Y-6.941
X5.2508Y-4.0291
X5.3266Y-5.5468
X5.3416Y-8.6257
X5.3632Y-7.4402
X5.3794Y-5.853
X5.3802Y-6.9375
X5.4017Y-6.6552
X5.4066Y-6.8711
X5.4192Y-5.7626
X5.4261Y-7.014
X5.4331Y-4.7262
X5.4353Y-6.3182
X5.4453Y-7.9007
X5.476Y-5.8754
X5.5234Y-5.9862
X5.525Y-6.6262
X5.544Y-8.0397
X5.5832Y-6.2087
X5.5927Y-6.8902
X5.608Y-3.7649
X5.6454Y-6.8309
X5.7078Y-6.8932
X5.7274Y-8.7018
X5.7988Y-5.1606
X5.9099Y-6.0301
X5.9338Y-4.1047
X5.9939Y-8.1898
X6.045Y-4.3866
X6.121Y-5.197
X6.132Y-4.4359
X6.1997Y-6.2558
X6.2183Y-4.4451
X6.2279Y-5.9958
X6.2624Y-4.8749
X6.2681Y-6.0045
X6.2886Y-8.235
X6.3093Y-6.6521
X6.3283Y-6.0459
X6.3592Y-5.9517
X6.3885Y-5.8901
X6.4227Y-4.6454
X6.4784Y-7.3033
X6.4897Y-4.0606
X6.6252Y-7.1923
X6.6878Y-6.9824
X6.7765Y-4.0023
X6.7827Y-5.0809
X6.8212Y-5.185
X6.8962Y-7.8708
X6.917Y-6.0763
X6.9712Y-5.7946
X6.9872Y-7.917
X6.9978Y-5.8404
X7.0297Y-4.121
X7.0332Y-5.3841
X7.0487Y-6.9335
X7.0712Y-7.2211
X7.1117Y-7.1152
X7.1442Y-7.1504
X7.1704Y-5.4848
X7.1725Y-5.1448
X7.1855Y-7.5896
X7.1887Y-3.4734
X7.2174Y-7.21
X7.2297Y-8.4716
X7.2465Y-5.5876
X7.2623Y-7.3263
X7.2684Y-5.3047
X7.2726Y-7.2692
X7.276Y-5.671
X7.3007Y-7.0156
X7.3216Y-7.1055
X7.337Y-7.1813
X7.3615Y-7.5264
X7.368Y-6.962
X7.4116Y-5.6169
X7.4318Y-7.3098
X7.5539Y-5.3065
X7.6079Y-5.0792
X7.6387Y-4.8246
X7.6875Y-6.9932
X7.6898Y-4.6556
X7.7444Y-8.3515
X7.7605Y-6.8516
X7.8156Y-6.8384
X8.0529Y-7.3719
X8.0922Y-7.3794
X8.1677Y-7.4372
X8.1791Y-7.5773
X8.2304Y-7.6942
X8.2419Y-7.6001
X8.2955Y-5.5664
X8.3047Y-7.4605
X8.3484Y-7.6588
X8.3866Y-6.1628
X8.4745Y-7.4807
X8.476Y-3.8416
X8.4997Y-5.8448
X8.5293Y-5.9274
X8.5497Y-8.2834
X8.7999Y-7.5596
X8.986Y-6.7106
X9.0422Y-7.506
X9.052Y-8.4354
X9.0537Y-8.3021
X9.0783Y-8.3863
X9.0921Y-5.4999
X9.1022Y-8.6094
X9.1337Y-7.2806
X9.1482Y-7.3902
X9.2139Y-8.6869
X9.2212Y-8.6379
X9.2376Y-8.5518
X9.2645Y-8.2148
X9.2771Y-8.5581
X9.3332Y-4.7894
X9.4417Y-5.8674
X9.4481Y-4.8184
X9.5159Y-4.8307
T3
X1.953Y-5.2801
X2.003Y-5.2301
X2.003Y-5.3301
T4
X1.6901Y-8.6122
X1.6929Y-6.1772
X1.6929Y-6.374
X1.6929Y-7.4094
X1.6929Y-7.6063
X1.6978Y-5.6595
X1.6978Y-5.8564
X1.703Y-4.1067
X1.703Y-4.3035
X1.703Y-4.6243
X1.703Y-4.8212
X1.703Y-5.1419
X1.703Y-5.3388
X1.7274Y-6.7301
X1.753Y-8.2801
X1.7886Y-8.6122
X1.803Y-8.0051
X1.8274Y-6.7301
X1.8774Y-3.8051
X1.8898Y-4.0547
X1.8898Y-4.3547
X1.8898Y-4.5723
X1.8898Y-4.8723
X1.8898Y-5.6076
X1.8898Y-5.9076
X1.8898Y-6.1252
X1.8898Y-6.4252
X1.8898Y-7.3063
X1.8898Y-7.6063
X1.903Y-8.0051
X1.9274Y-6.7301
X1.9774Y-3.8051
X1.9898Y-4.0547
X1.9898Y-4.3547
X1.9898Y-4.5723
X1.9898Y-4.8723
X1.9898Y-5.6076
X1.9898Y-5.9076
X1.9898Y-6.1252
X1.9898Y-6.4252
X1.9898Y-7.3063
X1.9898Y-7.6063
X2.003Y-8.0051
X2.0274Y-6.7301
X2.053Y-8.2801
X2.0774Y-3.8051
X2.0898Y-4.0547
X2.0898Y-4.3547
X2.0898Y-4.5723
X2.0898Y-4.8723
X2.0898Y-5.6076
X2.0898Y-5.9076
X2.0898Y-6.1252
X2.0898Y-6.4252
X2.0898Y-7.3063
X2.0898Y-7.6063
X2.103Y-8.0051
X2.1274Y-6.7301
X2.1774Y-3.8051
X2.1898Y-4.0547
X2.1898Y-4.3547
X2.1898Y-4.5723
X2.1898Y-4.8723
X2.1898Y-5.6076
X2.1898Y-5.9076
X2.1898Y-6.1252
X2.1898Y-6.4252
X2.1898Y-7.3063
X2.1898Y-7.6063
X2.203Y-8.0051
X2.2274Y-6.7301
X2.228Y-5.1051
X2.228Y-5.3801
X2.2774Y-3.8051
X2.2898Y-4.0547
X2.2898Y-4.3547
X2.2898Y-4.5723
X2.2898Y-4.8723
X2.2898Y-5.6076
X2.2898Y-5.9076
X2.2898Y-6.1252
X2.2898Y-6.4252
X2.2898Y-7.3063
X2.2898Y-7.6063
X2.303Y-8.0051
X2.3274Y-6.7301
X2.3774Y-3.8051
X2.3898Y-4.0547
X2.3898Y-4.3547
X2.3898Y-4.5723
X2.3898Y-4.8723
X2.3898Y-5.6076
X2.3898Y-5.9076
X2.3898Y-6.1252
X2.3898Y-6.4252
X2.3898Y-7.3063
X2.3898Y-7.6063
X2.403Y-8.0051
X2.4274Y-6.7301
X2.4774Y-3.8051
X2.4898Y-4.0547
X2.4898Y-4.3547
X2.4898Y-4.5723
X2.4898Y-4.8723
X2.4898Y-5.6076
X2.4898Y-5.9076
X2.4898Y-6.1252
X2.4898Y-6.4252
X2.4898Y-7.3063
X2.4898Y-7.6063
X2.503Y-8.0051
X2.5274Y-6.7301
X2.528Y-5.1051
X2.528Y-5.3801
X2.5774Y-3.8051
X2.5898Y-7.3063
X2.5898Y-7.6063
X2.603Y-8.0051
X2.6774Y-3.8051
X2.6779Y-6.4921
X2.6898Y-7.3063
X2.6898Y-7.6063
X2.728Y-5.8301
X2.728Y-6.1301
X2.7764Y-6.4921
X2.7898Y-7.3063
X2.7898Y-7.6063
X2.8898Y-7.3063
X2.8898Y-7.6063
X2.953Y-4.2317
X2.953Y-4.4285
X2.978Y-4.7801
X2.978Y-4.977
X2.978Y-5.3051
X2.978Y-5.502
X2.978Y-7.7817
X2.978Y-7.9785
X2.9898Y-7.3063
X2.9898Y-7.6063
X3.003Y-6.3083
X3.003Y-6.5051
X3.028Y-6.9551
X3.028Y-7.152
X3.028Y-8.1602
X3.028Y-8.3571
X3.1781Y-4.7297
X3.1781Y-5.0297
X3.1785Y-5.2781
X3.1785Y-5.5781
X3.182Y-4.2191
X3.182Y-4.5191
X3.2022Y-3.9301
X3.2028Y-6.3047
X3.2028Y-6.6047
X3.2531Y-6.9047
X3.2531Y-7.2047
X3.2531Y-7.5047
X3.2531Y-7.8047
X3.2531Y-8.1047
X3.2531Y-8.4047
X3.2781Y-4.7297
X3.2781Y-5.0297
X3.2785Y-5.2781
X3.2785Y-5.5781
X3.282Y-4.2191
X3.282Y-4.5191
X3.3022Y-3.9301
X3.3028Y-6.3047
X3.3028Y-6.6047
X3.3531Y-6.9047
X3.3531Y-7.2047
X3.3531Y-7.5047
X3.3531Y-7.8047
X3.3531Y-8.1047
X3.3531Y-8.4047
X3.3781Y-4.7297
X3.3781Y-5.0297
X3.3785Y-5.2781
X3.3785Y-5.5781
X3.382Y-4.2191
X3.382Y-4.5191
X3.4022Y-3.9301
X3.4028Y-6.3047
X3.4028Y-6.6047
X3.4531Y-6.9047
X3.4531Y-7.2047
X3.4531Y-7.5047
X3.4531Y-7.8047
X3.4531Y-8.1047
X3.4531Y-8.4047
X3.4781Y-4.7297
X3.4781Y-5.0297
X3.4785Y-5.2781
X3.4785Y-5.5781
X3.482Y-4.2191
X3.482Y-4.5191
X3.5022Y-3.9301
X3.5028Y-6.3047
X3.5028Y-6.6047
X3.5531Y-6.9047
X3.5531Y-7.2047
X3.5531Y-7.5047
X3.5531Y-7.8047
X3.5531Y-8.1047
X3.5531Y-8.4047
X3.5781Y-4.7297
X3.5781Y-5.0297
X3.5785Y-5.2781
X3.5785Y-5.5781
X3.582Y-4.2191
X3.582Y-4.5191
X3.6022Y-3.9301
X3.6028Y-6.3047
X3.6028Y-6.6047
X3.6531Y-6.9047
X3.6531Y-7.2047
X3.6531Y-7.5047
X3.6531Y-7.8047
X3.6531Y-8.1047
X3.6531Y-8.4047
X3.6781Y-4.7297
X3.6781Y-5.0297
X3.6785Y-5.2781
X3.6785Y-5.5781
X3.682Y-4.2191
X3.682Y-4.5191
X3.7028Y-6.3047
X3.7028Y-6.6047
X3.7531Y-6.9047
X3.7531Y-7.2047
X3.7531Y-7.5047
X3.7531Y-7.8047
X3.7531Y-8.1047
X3.7531Y-8.4047
X3.7781Y-4.7297
X3.7781Y-5.0297
X3.7785Y-5.2781
X3.7785Y-5.5781
X3.782Y-4.2191
X3.782Y-4.5191
X3.8028Y-6.3047
X3.8028Y-6.6047
X3.8531Y-6.9047
X3.8531Y-7.2047
X3.8531Y-7.5047
X3.8531Y-7.8047
X3.8531Y-8.1047
X3.8531Y-8.4047
X3.8781Y-4.7297
X3.8781Y-5.0297
X3.8785Y-5.2781
X3.8785Y-5.5781
X3.882Y-4.2191
X3.882Y-4.5191
X3.9531Y-6.9047
X3.9531Y-7.2047
X3.9531Y-7.5047
X3.9531Y-7.8047
X3.9531Y-8.1047
X3.9531Y-8.4047
X3.978Y-5.9067
X3.978Y-6.1035
X3.9781Y-4.7297
X3.9781Y-5.0297
X3.9805Y-3.9301
X3.982Y-4.2191
X3.982Y-4.5191
X4.0531Y-6.9047
X4.0531Y-7.2047
X4.0531Y-7.5047
X4.0531Y-7.8047
X4.0531Y-8.1047
X4.0531Y-8.4047
X4.0781Y-4.7297
X4.0781Y-5.0297
X4.0789Y-3.9301
X4.082Y-4.2191
X4.082Y-4.5191
X4.1531Y-6.9047
X4.1531Y-7.2047
X4.1531Y-7.5047
X4.1531Y-7.8047
X4.1531Y-8.1047
X4.1531Y-8.4047
X4.182Y-4.2191
X4.182Y-4.5191
X4.282Y-4.2191
X4.282Y-4.5191
X4.5031Y-4.7817
X4.5031Y-4.9785
X4.5535Y-4.2067
X4.5535Y-4.4035
X4.6063Y-8.6122
X4.6778Y-4.7547
X4.6778Y-5.0547
X4.678Y-7.5567
X4.678Y-7.7535
X4.7047Y-8.6122
X4.728Y-8.0833
X4.728Y-8.2801
X4.7281Y-4.2047
X4.7281Y-4.5047
X4.7778Y-4.7547
X4.7778Y-5.0547
X4.8281Y-4.2047
X4.8281Y-4.5047
X4.8778Y-4.7547
X4.8778Y-5.0547
X4.9281Y-4.2047
X4.9281Y-4.5047
X4.9531Y-7.5297
X4.9531Y-7.8297
X4.9531Y-8.1297
X4.9531Y-8.4297
X4.9545Y-6.8551
X4.9778Y-4.7547
X4.9778Y-5.0547
X5.0281Y-4.2047
X5.0281Y-4.5047
X5.05Y-3.7421
X5.0531Y-7.5297
X5.0531Y-7.8297
X5.0531Y-8.1297
X5.0531Y-8.4297
X5.054Y-3.4941
X5.0778Y-4.7547
X5.0778Y-5.0547
X5.1281Y-4.2047
X5.1281Y-4.5047
X5.1514Y-6.8551
X5.1531Y-7.5297
X5.1531Y-7.8297
X5.1531Y-8.1297
X5.1531Y-8.4297
X5.1778Y-4.7547
X5.1778Y-5.0547
X5.2281Y-4.2047
X5.2281Y-4.5047
X5.2531Y-7.5297
X5.2531Y-7.8297
X5.2531Y-8.1297
X5.2531Y-8.4297
X5.2778Y-4.7547
X5.2778Y-5.0547
X5.3281Y-4.2047
X5.3281Y-4.5047
X5.35Y-3.7421
X5.3531Y-7.5297
X5.3531Y-7.8297
X5.3531Y-8.1297
X5.3531Y-8.4297
X5.354Y-3.4941
X5.4281Y-4.2047
X5.4281Y-4.5047
X5.4531Y-7.5297
X5.4531Y-7.8297
X5.4531Y-8.1297
X5.4531Y-8.4297
X5.5281Y-4.2047
X5.5281Y-4.5047
X5.5531Y-7.5297
X5.5531Y-7.8297
X5.5531Y-8.1297
X5.5531Y-8.4297
X5.603Y-5.6567
X5.603Y-5.8535
X5.6281Y-4.2047
X5.6281Y-4.5047
X5.6531Y-7.5297
X5.6531Y-7.8297
X5.6531Y-8.1297
X5.6531Y-8.4297
X5.7531Y-7.5297
X5.7531Y-7.8297
X5.7531Y-8.1297
X5.7531Y-8.4297
X5.8531Y-7.5297
X5.8531Y-7.8297
X5.8531Y-8.1297
X5.8531Y-8.4297
X5.878Y-4.8067
X5.878Y-5.0035
X5.8791Y-5.3663
X5.8791Y-5.5632
X5.903Y-4.2567
X5.903Y-4.4535
X6.053Y-6.4067
X6.053Y-6.6035
X6.0531Y-5.3547
X6.0531Y-5.6547
X6.078Y-4.7551
X6.078Y-5.0551
X6.0781Y-4.2047
X6.0781Y-4.5047
X6.1531Y-5.3547
X6.1531Y-5.6547
X6.178Y-4.7551
X6.178Y-5.0551
X6.1781Y-4.2047
X6.1781Y-4.5047
X6.2531Y-5.3547
X6.2531Y-5.6547
X6.278Y-4.7551
X6.278Y-5.0551
X6.278Y-8.1567
X6.278Y-8.3535
X6.2781Y-4.2047
X6.2781Y-4.5047
X6.3531Y-5.3547
X6.3531Y-5.6547
X6.378Y-4.7551
X6.378Y-5.0551
X6.378Y-6.2801
X6.378Y-6.3801
X6.378Y-6.4801
X6.378Y-6.5801
X6.378Y-6.6801
X6.378Y-6.7801
X6.3781Y-4.2047
X6.3781Y-4.5047
X6.4274Y-7.8051
X6.4531Y-5.3547
X6.4531Y-5.6547
X6.478Y-4.7551
X6.478Y-5.0551
X6.478Y-6.1801
X6.478Y-6.2801
X6.478Y-6.3801
X6.478Y-6.4801
X6.478Y-6.5801
X6.478Y-6.6801
X6.478Y-6.7801
X6.478Y-6.8801
X6.478Y-8.1047
X6.478Y-8.4047
X6.4781Y-4.2047
X6.4781Y-4.5047
X6.5274Y-7.8051
X6.5531Y-5.3547
X6.5531Y-5.6547
X6.578Y-4.7551
X6.578Y-5.0551
X6.578Y-6.1801
X6.578Y-6.2801
X6.578Y-6.7801
X6.578Y-6.8801
X6.578Y-8.1047
X6.578Y-8.4047
X6.5781Y-4.2047
X6.5781Y-4.5047
X6.6274Y-7.8051
X6.6531Y-5.3547
X6.6531Y-5.6547
X6.678Y-4.7551
X6.678Y-5.0551
X6.678Y-6.1801
X6.678Y-6.2801
X6.678Y-6.7801
X6.678Y-6.8801
X6.678Y-8.1047
X6.678Y-8.4047
X6.6781Y-4.2047
X6.6781Y-4.5047
X6.7274Y-7.8051
X6.7531Y-5.3547
X6.7531Y-5.6547
X6.778Y-6.1801
X6.778Y-6.2801
X6.778Y-6.7801
X6.778Y-6.8801
X6.778Y-8.1047
X6.778Y-8.4047
X6.7781Y-4.2047
X6.7781Y-4.5047
X6.8274Y-7.8051
X6.8531Y-5.3547
X6.8531Y-5.6547
X6.878Y-5.9301
X6.878Y-6.1801
X6.878Y-6.2801
X6.878Y-6.7801
X6.878Y-6.8801
X6.878Y-8.1047
X6.878Y-8.4047
X6.8781Y-4.2047
X6.8781Y-4.5047
X6.9274Y-7.8051
X6.9531Y-5.3547
X6.9531Y-5.6547
X6.978Y-6.1801
X6.978Y-6.2801
X6.978Y-6.3801
X6.978Y-6.4801
X6.978Y-6.5801
X6.978Y-6.6801
X6.978Y-6.7801
X6.978Y-6.8801
X6.978Y-8.1047
X6.978Y-8.4047
X6.9781Y-4.2047
X6.9781Y-4.5047
X7.003Y-3.5801
X7.0274Y-7.8051
X7.0748Y-5.9301
X7.078Y-6.2801
X7.078Y-6.3801
X7.078Y-6.4801
X7.078Y-6.5801
X7.078Y-6.6801
X7.078Y-6.7801
X7.078Y-8.1047
X7.078Y-8.4047
X7.103Y-3.5801
X7.1274Y-7.8051
X7.178Y-8.1047
X7.178Y-8.4047
X7.203Y-3.5801
X7.2274Y-7.8051
X7.278Y-8.1047
X7.278Y-8.4047
X7.303Y-3.5801
X7.378Y-8.1047
X7.378Y-8.4047
X7.403Y-3.5801
X7.478Y-5.0567
X7.478Y-5.2535
X7.478Y-6.3551
X7.478Y-6.552
X7.503Y-3.5801
X7.5274Y-5.7913
X7.5274Y-5.9882
X7.528Y-7.4067
X7.528Y-7.6035
X7.5555Y-4.0801
X7.5939Y-8.6122
X7.603Y-3.5801
X7.6539Y-4.0801
X7.6803Y-6.3037
X7.6803Y-6.6037
X7.6923Y-8.6122
X7.7028Y-5.7547
X7.7028Y-6.0547
X7.703Y-3.5801
X7.7033Y-4.8553
X7.7033Y-5.4553
X7.7803Y-6.3037
X7.7803Y-6.6037
X7.8028Y-5.7547
X7.8028Y-6.0547
X7.803Y-3.5801
X7.8033Y-4.8553
X7.8033Y-5.4553
X7.853Y-8.1801
X7.853Y-8.377
X7.8803Y-6.3037
X7.8803Y-6.6037
X7.9028Y-5.7547
X7.9028Y-6.0547
X7.9033Y-4.8553
X7.9033Y-5.4553
X7.9803Y-6.3037
X7.9803Y-6.6037
X8.0028Y-5.7547
X8.0028Y-6.0547
X8.0033Y-4.8553
X8.0033Y-5.4553
X8.0531Y-8.1297
X8.0531Y-8.4297
X8.0545Y-6.8801
X8.078Y-7.2301
X8.078Y-7.8301
X8.0803Y-6.3037
X8.0803Y-6.6037
X8.1028Y-5.7547
X8.1028Y-6.0547
X8.1033Y-4.8553
X8.1033Y-5.4553
X8.1531Y-8.1297
X8.1531Y-8.4297
X8.178Y-7.2301
X8.178Y-7.8301
X8.1803Y-6.3037
X8.1803Y-6.6037
X8.2028Y-5.7547
X8.2028Y-6.0547
X8.2033Y-4.8553
X8.2033Y-5.4553
X8.2514Y-6.8801
X8.2531Y-8.1297
X8.2531Y-8.4297
X8.278Y-7.2301
X8.278Y-7.8301
X8.2803Y-6.3037
X8.2803Y-6.6037
X8.3028Y-5.7547
X8.3028Y-6.0547
X8.3033Y-4.8553
X8.3033Y-5.4553
X8.3531Y-8.1297
X8.3531Y-8.4297
X8.378Y-7.2301
X8.378Y-7.8301
X8.4033Y-4.8553
X8.4033Y-5.4553
X8.4531Y-8.1297
X8.4531Y-8.4297
X8.478Y-7.2301
X8.478Y-7.8301
X8.5033Y-4.8553
X8.5033Y-5.4553
X8.5531Y-8.1297
X8.5531Y-8.4297
X8.578Y-7.2301
X8.578Y-7.8301
X8.603Y-6.0801
X8.603Y-6.3317
X8.603Y-6.5285
X8.6033Y-4.8553
X8.6033Y-5.4553
X8.6531Y-8.1297
X8.6531Y-8.4297
X8.678Y-7.2301
X8.678Y-7.8301
X8.7033Y-4.8553
X8.7033Y-5.4553
X8.7531Y-8.1297
X8.7531Y-8.4297
X8.778Y-7.2301
X8.778Y-7.8301
X8.8033Y-4.8553
X8.8033Y-5.4553
X8.8281Y-6.3047
X8.8281Y-6.6047
X8.8531Y-8.1297
X8.8531Y-8.4297
X8.878Y-7.2301
X8.878Y-7.8301
X8.903Y-6.0801
X8.9033Y-4.8553
X8.9033Y-5.4553
X8.9281Y-6.3047
X8.9281Y-6.6047
X8.9531Y-8.1297
X8.9531Y-8.4297
X8.978Y-7.2301
X8.978Y-7.8301
X9.0033Y-4.8553
X9.0033Y-5.4553
X9.0281Y-6.3047
X9.0281Y-6.6047
X9.078Y-7.2301
X9.078Y-7.8301
X9.1281Y-6.3047
X9.1281Y-6.6047
X9.178Y-7.2301
X9.178Y-7.8301
X9.2281Y-6.3047
X9.2281Y-6.6047
X9.278Y-7.2301
X9.278Y-7.8301
X9.3281Y-6.3047
X9.3281Y-6.6047
X9.378Y-7.2301
X9.378Y-7.8301
X9.4281Y-6.3047
X9.4281Y-6.6047
X9.478Y-7.2301
X9.478Y-7.8301
X9.5281Y-6.3047
X9.5281Y-6.6047
X9.578Y-7.2301
X9.578Y-7.8301
X9.6281Y-6.3047
X9.6281Y-6.6047
X9.7281Y-6.3047
X9.7281Y-6.6047
X10.003Y-6.3051
X10.003Y-6.6051
T5
X4.328Y-5.6301
X4.328Y-5.7301
X4.328Y-5.8301
X4.328Y-5.9301
X4.328Y-6.0301
X4.328Y-6.1301
X4.328Y-6.2301
X4.328Y-6.3301
X4.328Y-6.4301
X4.428Y-5.5301
X4.428Y-5.6301
X4.428Y-5.7301
X4.428Y-5.8301
X4.428Y-5.9301
X4.428Y-6.0301
X4.428Y-6.1301
X4.428Y-6.2301
X4.428Y-6.3301
X4.428Y-6.4301
X4.428Y-6.5301
X4.528Y-5.5301
X4.528Y-5.6301
X4.528Y-6.4301
X4.528Y-6.5301
X4.628Y-5.5301
X4.628Y-5.6301
X4.628Y-6.4301
X4.628Y-6.5301
X4.728Y-5.5301
X4.728Y-5.6301
X4.728Y-6.4301
X4.728Y-6.5301
X4.828Y-5.5301
X4.828Y-5.6301
X4.828Y-6.4301
X4.828Y-6.5301
X4.928Y-5.5301
X4.928Y-5.6301
X4.928Y-6.4301
X4.928Y-6.5301
X5.028Y-5.5301
X5.028Y-5.6301
X5.028Y-6.4301
X5.028Y-6.5301
X5.128Y-5.5301
X5.128Y-5.6301
X5.128Y-6.4301
X5.128Y-6.5301
X5.228Y-5.5301
X5.228Y-5.6301
X5.228Y-5.7301
X5.228Y-5.8301
X5.228Y-5.9301
X5.228Y-6.0301
X5.228Y-6.1301
X5.228Y-6.2301
X5.228Y-6.3301
X5.228Y-6.4301
X5.228Y-6.5301
X5.328Y-5.6301
X5.328Y-5.7301
X5.328Y-5.8301
X5.328Y-5.9301
X5.328Y-6.0301
X5.328Y-6.1301
X5.328Y-6.2301
X5.328Y-6.3301
X5.328Y-6.4301
T6
X1.9071Y-3.1801
X2.0071Y-3.1801
X2.4411Y-3.1801
X2.5411Y-3.1801
X2.7081Y-3.1801
X2.8081Y-3.1801
X2.9751Y-3.1801
X3.0751Y-3.1801
X3.2421Y-3.1801
X3.3421Y-3.1801
X3.5091Y-3.1801
X3.6091Y-3.1801
X3.7761Y-3.1801
X3.8761Y-3.1801
X4.0431Y-3.1801
X4.1431Y-3.1801
X4.3102Y-3.1801
X4.4102Y-3.1801
T7
X9.8514Y-2.9906
X10.0285Y-2.9906
T8
X1.852Y-8.7795
X1.852Y-8.8795
X1.928Y-7.0301
X1.928Y-7.1301
X1.952Y-8.7795
X1.952Y-8.8795
X2.028Y-7.0301
X2.028Y-7.1301
X2.052Y-8.7795
X2.052Y-8.8795
X2.128Y-7.0301
X2.128Y-7.1301
X2.152Y-8.7795
X2.152Y-8.8795
X2.228Y-7.0301
X2.228Y-7.1301
X2.252Y-8.7795
X2.252Y-8.8795
X2.352Y-8.7795
X2.352Y-8.8795
X2.452Y-8.7795
X2.452Y-8.8795
X2.552Y-8.7795
X2.552Y-8.8795
X2.603Y-8.2299
X2.603Y-8.3299
X2.652Y-8.7795
X2.652Y-8.8795
X2.6528Y-7.0551
X2.752Y-8.7795
X2.752Y-8.8795
X2.7528Y-7.0551
X2.852Y-8.7795
X2.852Y-8.8795
X2.952Y-8.7795
X2.952Y-8.8795
X3.052Y-8.7795
X3.052Y-8.8795
X3.152Y-8.7795
X3.152Y-8.8795
X3.252Y-8.7795
X3.252Y-8.8795
X3.352Y-8.7795
X3.352Y-8.8795
X3.452Y-8.7795
X3.452Y-8.8795
X3.552Y-8.7795
X3.552Y-8.8795
X3.652Y-8.7795
X3.652Y-8.8795
X3.752Y-8.7795
X3.752Y-8.8795
X3.852Y-8.7795
X3.852Y-8.8795
X3.952Y-8.7795
X3.952Y-8.8795
X4.052Y-8.7795
X4.052Y-8.8795
X4.152Y-8.7795
X4.152Y-8.8795
X4.252Y-8.7795
X4.252Y-8.8795
X4.7654Y-8.7795
X4.7654Y-8.8795
X4.8654Y-8.7795
X4.8654Y-8.8795
X4.9654Y-8.7795
X4.9654Y-8.8795
X5.0654Y-8.7795
X5.0654Y-8.8795
X5.1654Y-8.7795
X5.1654Y-8.8795
X5.2654Y-8.7795
X5.2654Y-8.8795
X5.3654Y-8.7795
X5.3654Y-8.8795
X5.4654Y-8.7795
X5.4654Y-8.8795
X5.5654Y-8.7795
X5.5654Y-8.8795
X5.6654Y-8.7795
X5.6654Y-8.8795
X5.7654Y-8.7795
X5.7654Y-8.8795
X5.8654Y-8.7795
X5.8654Y-8.8795
X5.9285Y-3.1774
X5.9654Y-8.7795
X5.9654Y-8.8795
X6.0285Y-3.1774
X6.0654Y-8.7795
X6.0654Y-8.8795
X6.1285Y-3.1774
X6.1654Y-8.7795
X6.1654Y-8.8795
X6.2654Y-8.7795
X6.2654Y-8.8795
X6.3654Y-8.7795
X6.3654Y-8.8795
X6.403Y-7.3801
X6.403Y-7.4801
X6.4285Y-3.1774
X6.4654Y-8.7795
X6.4654Y-8.8795
X6.503Y-7.3801
X6.503Y-7.4801
X6.5285Y-3.1774
X6.5654Y-8.7795
X6.5654Y-8.8795
X6.603Y-7.3801
X6.603Y-7.4801
X6.6285Y-3.1774
X6.6654Y-8.7795
X6.6654Y-8.8795
X6.703Y-7.3801
X6.703Y-7.4801
X6.7654Y-8.7795
X6.7654Y-8.8795
X6.803Y-7.3801
X6.803Y-7.4801
X6.8654Y-8.7795
X6.8654Y-8.8795
X6.903Y-7.3801
X6.903Y-7.4801
X6.9654Y-8.7795
X6.9654Y-8.8795
X7.003Y-7.3801
X7.003Y-7.4801
X7.0654Y-8.7795
X7.0654Y-8.8795
X7.103Y-7.3801
X7.103Y-7.4801
X7.1654Y-8.7795
X7.1654Y-8.8795
X7.376Y-3.2038
X7.376Y-3.3038
X7.476Y-3.2038
X7.476Y-3.3038
X7.576Y-3.2038
X7.576Y-3.3038
X7.676Y-3.2038
X7.676Y-3.3038
X7.7575Y-8.7795
X7.7575Y-8.8795
X7.776Y-3.2038
X7.776Y-3.3038
X7.8575Y-8.7795
X7.8575Y-8.8795
X7.876Y-3.2038
X7.876Y-3.3038
X7.9575Y-8.7795
X7.9575Y-8.8795
X7.976Y-3.2038
X7.976Y-3.3038
X8.0575Y-8.7795
X8.0575Y-8.8795
X8.076Y-3.2038
X8.076Y-3.3038
X8.1575Y-8.7795
X8.1575Y-8.8795
X8.176Y-3.2038
X8.176Y-3.3038
X8.2575Y-8.7795
X8.2575Y-8.8795
X8.276Y-3.2038
X8.276Y-3.3038
X8.3575Y-8.7795
X8.3575Y-8.8795
X8.376Y-3.2038
X8.376Y-3.3038
X8.4575Y-8.7795
X8.4575Y-8.8795
X8.476Y-3.2038
X8.476Y-3.3038
X8.5575Y-8.7795
X8.5575Y-8.8795
X8.576Y-3.2038
X8.576Y-3.3038
X8.6575Y-8.7795
X8.6575Y-8.8795
X8.676Y-3.2038
X8.676Y-3.3038
X8.7575Y-8.7795
X8.7575Y-8.8795
X8.776Y-3.2038
X8.776Y-3.3038
X8.8575Y-8.7795
X8.8575Y-8.8795
X8.876Y-3.2038
X8.876Y-3.3038
X8.9575Y-8.7795
X8.9575Y-8.8795
X8.976Y-3.2038
X8.976Y-3.3038
X9.0575Y-8.7795
X9.0575Y-8.8795
X9.076Y-3.2038
X9.076Y-3.3038
X9.1575Y-8.7795
X9.1575Y-8.8795
X9.176Y-3.2038
X9.176Y-3.3038
X9.2575Y-8.7795
X9.2575Y-8.8795
X9.276Y-3.2038
X9.276Y-3.3038
X9.3575Y-8.7795
X9.3575Y-8.8795
X9.378Y-8.1557
X9.378Y-8.2557
X9.378Y-8.3557
X9.453Y-3.7801
X9.453Y-3.8801
X9.453Y-3.9801
X9.453Y-4.0801
X9.453Y-4.1801
X9.453Y-4.2801
X9.453Y-4.3801
X9.453Y-4.4801
X9.453Y-4.5801
X9.4575Y-8.7795
X9.4575Y-8.8795
X9.553Y-3.7801
X9.553Y-3.8801
X9.553Y-3.9801
X9.553Y-4.0801
X9.553Y-4.1801
X9.553Y-4.2801
X9.553Y-4.3801
X9.553Y-4.4801
X9.553Y-4.5801
X9.5575Y-8.7795
X9.5575Y-8.8795
X9.6575Y-8.7795
X9.6575Y-8.8795
X9.7575Y-8.7795
X9.7575Y-8.8795
X9.8575Y-8.7795
X9.8575Y-8.8795
X9.878Y-8.1557
X9.878Y-8.2557
X9.878Y-8.3557
X9.903Y-3.7805
X9.903Y-3.8805
X9.903Y-3.9805
X9.903Y-4.0805
X9.903Y-4.1805
X9.903Y-4.2805
X9.903Y-4.3805
X9.903Y-4.4805
X9.903Y-4.5805
X9.9575Y-8.7795
X9.9575Y-8.8795
X10.003Y-3.7805
X10.003Y-3.8805
X10.003Y-3.9805
X10.003Y-4.0805
X10.003Y-4.1805
X10.003Y-4.2805
X10.003Y-4.3805
X10.003Y-4.4805
X10.003Y-4.5805
X10.0575Y-8.7795
X10.0575Y-8.8795
X10.1575Y-8.7795
X10.1575Y-8.8795
T9
X9.8022Y-3.0887
X10.0781Y-3.0887
T10
X1.5748Y-2.9528
X10.4331Y-2.9528
T0
M30
