M48
; DRILL file {KiCad (6.0.11)} date Sun Oct 27 22:59:09 2024
; FORMAT={-:-/ absolute / inch / decimal}
; #@! TF.CreationDate,2024-10-27T22:59:09-05:00
; #@! TF.GenerationSoftware,Kicad,Pcbnew,(6.0.11)
; #@! TF.FileFunction,Plated,1,2,PTH
FMAT,2
INCH
; #@! TA.AperFunction,Plated,PTH,ComponentDrill
T1C0.0118
; #@! TA.AperFunction,Plated,PTH,ViaDrill
T2C0.0157
; #@! TA.AperFunction,Plated,PTH,ComponentDrill
T3C0.0295
; #@! TA.AperFunction,Plated,PTH,ComponentDrill
T4C0.0315
; #@! TA.AperFunction,Plated,PTH,ComponentDrill
T5C0.0320
; #@! TA.AperFunction,Plated,PTH,ComponentDrill
T6C0.0354
; #@! TA.AperFunction,Plated,PTH,ComponentDrill
T7C0.0390
; #@! TA.AperFunction,Plated,PTH,ComponentDrill
T8C0.0394
; #@! TA.AperFunction,Plated,PTH,ComponentDrill
T9C0.0512
; #@! TA.AperFunction,Plated,PTH,ComponentDrill
T10C0.1260
%
G90
G05
T1
X5.753Y-6.7329
X5.753Y-6.7801
X5.778Y-6.0301
X5.8252Y-6.0301
T2
X1.8612Y-7.4881
X1.8637Y-7.4273
X1.9341Y-5.819
X2.1302Y-5.8341
X2.2067Y-7.6897
X2.2398Y-5.8341
X2.3258Y-5.9985
X2.4127Y-7.7117
X2.4986Y-7.8226
X2.5444Y-7.7716
X2.6046Y-5.6349
X2.6775Y-6.7476
X2.6867Y-8.9481
X2.718Y-7.8676
X2.7248Y-5.6517
X2.7631Y-7.1581
X2.7917Y-6.6764
X2.815Y-6.7787
X2.8993Y-8.0936
X2.8998Y-6.8117
X2.966Y-6.7237
X2.9868Y-5.8079
X3.0172Y-4.2491
X3.02Y-5.0731
X3.0564Y-4.4737
X3.0645Y-7.8983
X3.0648Y-4.1943
X3.0774Y-5.1615
X3.133Y-5.4332
X3.1485Y-8.3707
X3.2867Y-7.1161
X3.3006Y-8.198
X3.3237Y-7.6682
X3.3406Y-7.0703
X3.4406Y-7.0404
X3.4539Y-6.059
X3.4978Y-6.1721
X3.502Y-5.1513
X3.5249Y-4.1531
X3.5475Y-4.8564
X3.5988Y-7.6265
X3.6728Y-4.8745
X3.6828Y-7.7141
X3.7205Y-7.2912
X3.7763Y-7.6792
X3.8221Y-4.462
X3.8266Y-8.2876
X3.8281Y-4.0989
X3.8447Y-6.1517
X3.8572Y-4.623
X3.8824Y-8.2463
X3.8882Y-4.9577
X3.9034Y-5.417
X3.9128Y-4.5831
X3.9158Y-8.1648
X3.9281Y-5.8177
X3.9344Y-6.2695
X3.9811Y-7.7313
X3.9812Y-7.9206
X3.9976Y-4.6271
X4.0247Y-4.8525
X4.0569Y-7.0272
X4.073Y-5.8517
X4.0738Y-5.4232
X4.0849Y-5.5601
X4.1168Y-5.8993
X4.1429Y-6.6462
X4.1816Y-5.1098
X4.2155Y-6.5529
X4.2187Y-5.3083
X4.2316Y-5.2286
X4.2333Y-6.9827
X4.2728Y-5.2219
X4.2746Y-6.8595
X4.3392Y-5.3973
X4.4383Y-6.9114
X4.4423Y-5.2862
X4.4479Y-5.0524
X4.5076Y-5.1996
X4.5204Y-5.2567
X4.5282Y-5.0724
X4.5344Y-6.1593
X4.5365Y-5.356
X4.5735Y-4.8585
X4.6187Y-7.1342
X4.6549Y-5.1337
X4.6984Y-5.6866
X4.733Y-6.091
X4.7438Y-7.4154
X4.797Y-6.2306
X4.8002Y-7.7867
X4.8112Y-6.0548
X4.8213Y-7.197
X4.8437Y-7.1087
X4.8457Y-7.4232
X4.8546Y-5.1622
X4.8581Y-7.7697
X4.8584Y-7.166
X4.8724Y-4.6814
X4.8862Y-4.5937
X4.9061Y-6.5946
X4.9199Y-7.1984
X4.921Y-7.4167
X4.9952Y-8.0267
X5.0055Y-6.2323
X5.0402Y-5.2801
X5.0494Y-7.458
X5.0659Y-4.361
X5.0923Y-6.3121
X5.1111Y-8.1898
X5.1175Y-6.1257
X5.1545Y-4.6171
X5.1562Y-6.3111
X5.1566Y-5.4362
X5.1838Y-4.6457
X5.2033Y-6.7596
X5.238Y-7.0155
X5.2438Y-5.4412
X5.2601Y-8.5537
X5.3446Y-5.0243
X5.3828Y-6.9396
X5.3966Y-5.0243
X5.4264Y-6.4758
X5.4294Y-8.2376
X5.4322Y-7.4308
X5.5016Y-5.4264
X5.5105Y-4.3998
X5.5141Y-5.486
X5.5205Y-6.5004
X5.523Y-8.2781
X5.5267Y-5.7342
X5.5307Y-6.9849
X5.5664Y-8.3154
X5.6265Y-8.3504
X5.7151Y-5.0472
X5.7237Y-8.7158
X5.7686Y-4.9541
X5.779Y-5.0155
X5.7843Y-5.1451
X5.7906Y-5.1057
X5.8097Y-4.9543
X5.9016Y-7.9158
X5.9217Y-5.1652
X5.9602Y-7.934
X5.9991Y-8.1991
X6.0348Y-4.1167
X6.0448Y-8.1131
X6.1061Y-4.585
X6.1379Y-6.7142
X6.146Y-7.6863
X6.1533Y-7.8916
X6.1843Y-6.4221
X6.1871Y-7.7997
X6.198Y-4.105
X6.2517Y-7.967
X6.2738Y-3.4844
X6.2855Y-8.247
X6.3422Y-5.9016
X6.3569Y-5.8386
X6.4174Y-6.1721
X6.4331Y-8.2184
X6.4553Y-5.4475
X6.4553Y-5.8533
X6.491Y-7.6042
X6.5031Y-5.5864
X6.5338Y-5.9301
X6.5542Y-7.5503
X6.577Y-6.1112
X6.5841Y-6.3318
X6.6456Y-6.4719
X6.6747Y-5.9351
X6.6795Y-5.1355
X6.7376Y-8.9335
X6.8847Y-5.2306
X6.9127Y-6.3301
X7.0323Y-4.1515
X7.1995Y-7.856
X7.2552Y-7.1218
X7.3262Y-4.0009
X7.3553Y-5.3256
X7.5622Y-7.5041
X7.621Y-7.5333
X7.6743Y-4.3666
X7.6749Y-4.1594
X7.6781Y-7.975
X7.694Y-7.6539
X7.7571Y-8.0116
X7.7589Y-5.2112
X7.7809Y-4.1785
X7.7944Y-8.6261
X7.8804Y-3.3821
X7.9832Y-4.9362
X8.0071Y-5.2575
X8.2773Y-8.2704
X8.3016Y-8.2389
X8.3392Y-7.3099
X8.3796Y-4.4706
X8.5373Y-5.5539
X8.6172Y-4.9421
X8.627Y-6.4267
X8.6876Y-6.3938
X8.7653Y-7.076
X8.781Y-6.4445
X8.8021Y-7.5542
X8.8376Y-6.9951
X8.8598Y-7.5375
X8.8637Y-6.4467
X8.8729Y-4.673
X8.8781Y-6.5416
X8.9398Y-5.5865
X8.9404Y-8.2676
X8.9428Y-5.5154
X8.9488Y-7.1387
X8.9757Y-7.4335
X9.0246Y-8.3983
X9.0875Y-7.403
X9.0904Y-8.6046
X9.1102Y-4.5766
X9.2894Y-6.1797
X9.3361Y-8.5133
X9.7618Y-7.1361
X9.7739Y-6.4828
X9.8267Y-6.1596
X9.9204Y-6.3609
X10.1329Y-5.8864
T3
X1.953Y-5.2801
X2.003Y-5.2301
X2.003Y-5.3301
T4
X1.6901Y-8.6122
X1.6929Y-6.1772
X1.6929Y-6.374
X1.6929Y-7.4094
X1.6929Y-7.6063
X1.6978Y-5.6595
X1.6978Y-5.8564
X1.703Y-4.1067
X1.703Y-4.3035
X1.703Y-4.6243
X1.703Y-4.8212
X1.703Y-5.1419
X1.703Y-5.3388
X1.7274Y-6.7301
X1.753Y-8.2801
X1.7886Y-8.6122
X1.803Y-8.0051
X1.8274Y-6.7301
X1.8774Y-3.8051
X1.8898Y-4.0547
X1.8898Y-4.3547
X1.8898Y-4.5723
X1.8898Y-4.8723
X1.8898Y-5.6076
X1.8898Y-5.9076
X1.8898Y-6.1252
X1.8898Y-6.4252
X1.8898Y-7.3063
X1.8898Y-7.6063
X1.903Y-8.0051
X1.9274Y-6.7301
X1.9774Y-3.8051
X1.9898Y-4.0547
X1.9898Y-4.3547
X1.9898Y-4.5723
X1.9898Y-4.8723
X1.9898Y-5.6076
X1.9898Y-5.9076
X1.9898Y-6.1252
X1.9898Y-6.4252
X1.9898Y-7.3063
X1.9898Y-7.6063
X2.003Y-8.0051
X2.0274Y-6.7301
X2.053Y-8.2801
X2.0774Y-3.8051
X2.0898Y-4.0547
X2.0898Y-4.3547
X2.0898Y-4.5723
X2.0898Y-4.8723
X2.0898Y-5.6076
X2.0898Y-5.9076
X2.0898Y-6.1252
X2.0898Y-6.4252
X2.0898Y-7.3063
X2.0898Y-7.6063
X2.103Y-8.0051
X2.1274Y-6.7301
X2.1774Y-3.8051
X2.1898Y-4.0547
X2.1898Y-4.3547
X2.1898Y-4.5723
X2.1898Y-4.8723
X2.1898Y-5.6076
X2.1898Y-5.9076
X2.1898Y-6.1252
X2.1898Y-6.4252
X2.1898Y-7.3063
X2.1898Y-7.6063
X2.203Y-8.0051
X2.2274Y-6.7301
X2.228Y-5.1051
X2.228Y-5.3801
X2.2774Y-3.8051
X2.2898Y-4.0547
X2.2898Y-4.3547
X2.2898Y-4.5723
X2.2898Y-4.8723
X2.2898Y-5.6076
X2.2898Y-5.9076
X2.2898Y-6.1252
X2.2898Y-6.4252
X2.2898Y-7.3063
X2.2898Y-7.6063
X2.303Y-8.0051
X2.3274Y-6.7301
X2.3774Y-3.8051
X2.3898Y-4.0547
X2.3898Y-4.3547
X2.3898Y-4.5723
X2.3898Y-4.8723
X2.3898Y-5.6076
X2.3898Y-5.9076
X2.3898Y-6.1252
X2.3898Y-6.4252
X2.3898Y-7.3063
X2.3898Y-7.6063
X2.403Y-8.0051
X2.4274Y-6.7301
X2.4774Y-3.8051
X2.4898Y-4.0547
X2.4898Y-4.3547
X2.4898Y-4.5723
X2.4898Y-4.8723
X2.4898Y-5.6076
X2.4898Y-5.9076
X2.4898Y-6.1252
X2.4898Y-6.4252
X2.4898Y-7.3063
X2.4898Y-7.6063
X2.503Y-8.0051
X2.5274Y-6.7301
X2.528Y-5.1051
X2.528Y-5.3801
X2.5774Y-3.8051
X2.5898Y-7.3063
X2.5898Y-7.6063
X2.603Y-8.0051
X2.6774Y-3.8051
X2.6779Y-6.4921
X2.6898Y-7.3063
X2.6898Y-7.6063
X2.728Y-5.8301
X2.728Y-6.1301
X2.7764Y-6.4921
X2.7898Y-7.3063
X2.7898Y-7.6063
X2.8898Y-7.3063
X2.8898Y-7.6063
X2.953Y-4.2317
X2.953Y-4.4285
X2.978Y-4.7801
X2.978Y-4.977
X2.978Y-5.3051
X2.978Y-5.502
X2.978Y-7.7817
X2.978Y-7.9785
X2.9898Y-7.3063
X2.9898Y-7.6063
X3.003Y-6.3083
X3.003Y-6.5051
X3.028Y-6.9551
X3.028Y-7.152
X3.028Y-8.1602
X3.028Y-8.3571
X3.1781Y-4.7297
X3.1781Y-5.0297
X3.1785Y-5.2781
X3.1785Y-5.5781
X3.182Y-4.2191
X3.182Y-4.5191
X3.2022Y-3.9301
X3.2028Y-6.3047
X3.2028Y-6.6047
X3.2531Y-6.9047
X3.2531Y-7.2047
X3.2531Y-7.5047
X3.2531Y-7.8047
X3.2531Y-8.1047
X3.2531Y-8.4047
X3.2781Y-4.7297
X3.2781Y-5.0297
X3.2785Y-5.2781
X3.2785Y-5.5781
X3.282Y-4.2191
X3.282Y-4.5191
X3.3022Y-3.9301
X3.3028Y-6.3047
X3.3028Y-6.6047
X3.3531Y-6.9047
X3.3531Y-7.2047
X3.3531Y-7.5047
X3.3531Y-7.8047
X3.3531Y-8.1047
X3.3531Y-8.4047
X3.3781Y-4.7297
X3.3781Y-5.0297
X3.3785Y-5.2781
X3.3785Y-5.5781
X3.382Y-4.2191
X3.382Y-4.5191
X3.4022Y-3.9301
X3.4028Y-6.3047
X3.4028Y-6.6047
X3.4531Y-6.9047
X3.4531Y-7.2047
X3.4531Y-7.5047
X3.4531Y-7.8047
X3.4531Y-8.1047
X3.4531Y-8.4047
X3.4781Y-4.7297
X3.4781Y-5.0297
X3.4785Y-5.2781
X3.4785Y-5.5781
X3.482Y-4.2191
X3.482Y-4.5191
X3.5022Y-3.9301
X3.5028Y-6.3047
X3.5028Y-6.6047
X3.5531Y-6.9047
X3.5531Y-7.2047
X3.5531Y-7.5047
X3.5531Y-7.8047
X3.5531Y-8.1047
X3.5531Y-8.4047
X3.5781Y-4.7297
X3.5781Y-5.0297
X3.5785Y-5.2781
X3.5785Y-5.5781
X3.582Y-4.2191
X3.582Y-4.5191
X3.6022Y-3.9301
X3.6028Y-6.3047
X3.6028Y-6.6047
X3.6531Y-6.9047
X3.6531Y-7.2047
X3.6531Y-7.5047
X3.6531Y-7.8047
X3.6531Y-8.1047
X3.6531Y-8.4047
X3.6781Y-4.7297
X3.6781Y-5.0297
X3.6785Y-5.2781
X3.6785Y-5.5781
X3.682Y-4.2191
X3.682Y-4.5191
X3.7028Y-6.3047
X3.7028Y-6.6047
X3.7531Y-6.9047
X3.7531Y-7.2047
X3.7531Y-7.5047
X3.7531Y-7.8047
X3.7531Y-8.1047
X3.7531Y-8.4047
X3.7781Y-4.7297
X3.7781Y-5.0297
X3.7785Y-5.2781
X3.7785Y-5.5781
X3.782Y-4.2191
X3.782Y-4.5191
X3.8028Y-6.3047
X3.8028Y-6.6047
X3.8531Y-6.9047
X3.8531Y-7.2047
X3.8531Y-7.5047
X3.8531Y-7.8047
X3.8531Y-8.1047
X3.8531Y-8.4047
X3.8781Y-4.7297
X3.8781Y-5.0297
X3.8785Y-5.2781
X3.8785Y-5.5781
X3.882Y-4.2191
X3.882Y-4.5191
X3.9531Y-6.9047
X3.9531Y-7.2047
X3.9531Y-7.5047
X3.9531Y-7.8047
X3.9531Y-8.1047
X3.9531Y-8.4047
X3.978Y-5.9067
X3.978Y-6.1035
X3.9781Y-4.7297
X3.9781Y-5.0297
X3.9805Y-3.9301
X3.982Y-4.2191
X3.982Y-4.5191
X4.0531Y-6.9047
X4.0531Y-7.2047
X4.0531Y-7.5047
X4.0531Y-7.8047
X4.0531Y-8.1047
X4.0531Y-8.4047
X4.0781Y-4.7297
X4.0781Y-5.0297
X4.0789Y-3.9301
X4.082Y-4.2191
X4.082Y-4.5191
X4.1531Y-6.9047
X4.1531Y-7.2047
X4.1531Y-7.5047
X4.1531Y-7.8047
X4.1531Y-8.1047
X4.1531Y-8.4047
X4.182Y-4.2191
X4.182Y-4.5191
X4.282Y-4.2191
X4.282Y-4.5191
X4.5031Y-4.7817
X4.5031Y-4.9785
X4.5535Y-4.2067
X4.5535Y-4.4035
X4.6063Y-8.6122
X4.6778Y-4.7547
X4.6778Y-5.0547
X4.678Y-7.5567
X4.678Y-7.7535
X4.7047Y-8.6122
X4.728Y-8.0833
X4.728Y-8.2801
X4.7281Y-4.2047
X4.7281Y-4.5047
X4.7778Y-4.7547
X4.7778Y-5.0547
X4.8281Y-4.2047
X4.8281Y-4.5047
X4.8778Y-4.7547
X4.8778Y-5.0547
X4.9281Y-4.2047
X4.9281Y-4.5047
X4.9531Y-7.5297
X4.9531Y-7.8297
X4.9531Y-8.1297
X4.9531Y-8.4297
X4.9545Y-6.8551
X4.9778Y-4.7547
X4.9778Y-5.0547
X5.0281Y-4.2047
X5.0281Y-4.5047
X5.05Y-3.7421
X5.0531Y-7.5297
X5.0531Y-7.8297
X5.0531Y-8.1297
X5.0531Y-8.4297
X5.054Y-3.4941
X5.0778Y-4.7547
X5.0778Y-5.0547
X5.1281Y-4.2047
X5.1281Y-4.5047
X5.1514Y-6.8551
X5.1531Y-7.5297
X5.1531Y-7.8297
X5.1531Y-8.1297
X5.1531Y-8.4297
X5.1778Y-4.7547
X5.1778Y-5.0547
X5.2281Y-4.2047
X5.2281Y-4.5047
X5.2531Y-7.5297
X5.2531Y-7.8297
X5.2531Y-8.1297
X5.2531Y-8.4297
X5.2778Y-4.7547
X5.2778Y-5.0547
X5.3281Y-4.2047
X5.3281Y-4.5047
X5.35Y-3.7421
X5.3531Y-7.5297
X5.3531Y-7.8297
X5.3531Y-8.1297
X5.3531Y-8.4297
X5.354Y-3.4941
X5.4281Y-4.2047
X5.4281Y-4.5047
X5.4531Y-7.5297
X5.4531Y-7.8297
X5.4531Y-8.1297
X5.4531Y-8.4297
X5.5281Y-4.2047
X5.5281Y-4.5047
X5.5531Y-7.5297
X5.5531Y-7.8297
X5.5531Y-8.1297
X5.5531Y-8.4297
X5.599Y-4.7601
X5.599Y-5.0601
X5.603Y-5.6567
X5.603Y-5.8535
X5.6281Y-4.2047
X5.6281Y-4.5047
X5.6531Y-7.5297
X5.6531Y-7.8297
X5.6531Y-8.1297
X5.6531Y-8.4297
X5.7531Y-7.5297
X5.7531Y-7.8297
X5.7531Y-8.1297
X5.7531Y-8.4297
X5.8531Y-7.5297
X5.8531Y-7.8297
X5.8531Y-8.1297
X5.8531Y-8.4297
X5.878Y-4.8067
X5.878Y-5.0035
X5.8791Y-5.3663
X5.8791Y-5.5632
X5.903Y-4.2567
X5.903Y-4.4535
X6.053Y-6.4067
X6.053Y-6.6035
X6.0531Y-5.3547
X6.0531Y-5.6547
X6.078Y-4.7551
X6.078Y-5.0551
X6.0781Y-4.2047
X6.0781Y-4.5047
X6.1531Y-5.3547
X6.1531Y-5.6547
X6.178Y-4.7551
X6.178Y-5.0551
X6.1781Y-4.2047
X6.1781Y-4.5047
X6.2531Y-5.3547
X6.2531Y-5.6547
X6.278Y-4.7551
X6.278Y-5.0551
X6.278Y-8.1567
X6.278Y-8.3535
X6.2781Y-4.2047
X6.2781Y-4.5047
X6.3531Y-5.3547
X6.3531Y-5.6547
X6.378Y-4.7551
X6.378Y-5.0551
X6.378Y-6.2801
X6.378Y-6.3801
X6.378Y-6.4801
X6.378Y-6.5801
X6.378Y-6.6801
X6.378Y-6.7801
X6.3781Y-4.2047
X6.3781Y-4.5047
X6.4274Y-7.8051
X6.4531Y-5.3547
X6.4531Y-5.6547
X6.478Y-4.7551
X6.478Y-5.0551
X6.478Y-6.1801
X6.478Y-6.2801
X6.478Y-6.3801
X6.478Y-6.4801
X6.478Y-6.5801
X6.478Y-6.6801
X6.478Y-6.7801
X6.478Y-6.8801
X6.478Y-8.1047
X6.478Y-8.4047
X6.4781Y-4.2047
X6.4781Y-4.5047
X6.5274Y-7.8051
X6.5531Y-5.3547
X6.5531Y-5.6547
X6.578Y-4.7551
X6.578Y-5.0551
X6.578Y-6.1801
X6.578Y-6.2801
X6.578Y-6.7801
X6.578Y-6.8801
X6.578Y-8.1047
X6.578Y-8.4047
X6.5781Y-4.2047
X6.5781Y-4.5047
X6.6274Y-7.8051
X6.6531Y-5.3547
X6.6531Y-5.6547
X6.678Y-4.7551
X6.678Y-5.0551
X6.678Y-6.1801
X6.678Y-6.2801
X6.678Y-6.7801
X6.678Y-6.8801
X6.678Y-8.1047
X6.678Y-8.4047
X6.6781Y-4.2047
X6.6781Y-4.5047
X6.7274Y-7.8051
X6.7531Y-5.3547
X6.7531Y-5.6547
X6.778Y-6.1801
X6.778Y-6.2801
X6.778Y-6.7801
X6.778Y-6.8801
X6.778Y-8.1047
X6.778Y-8.4047
X6.7781Y-4.2047
X6.7781Y-4.5047
X6.8274Y-7.8051
X6.8531Y-5.3547
X6.8531Y-5.6547
X6.878Y-5.9301
X6.878Y-6.1801
X6.878Y-6.2801
X6.878Y-6.7801
X6.878Y-6.8801
X6.878Y-8.1047
X6.878Y-8.4047
X6.8781Y-4.2047
X6.8781Y-4.5047
X6.9274Y-7.8051
X6.9531Y-5.3547
X6.9531Y-5.6547
X6.978Y-6.1801
X6.978Y-6.2801
X6.978Y-6.3801
X6.978Y-6.4801
X6.978Y-6.5801
X6.978Y-6.6801
X6.978Y-6.7801
X6.978Y-6.8801
X6.978Y-8.1047
X6.978Y-8.4047
X6.9781Y-4.2047
X6.9781Y-4.5047
X7.003Y-3.5801
X7.0274Y-7.8051
X7.0748Y-5.9301
X7.078Y-6.2801
X7.078Y-6.3801
X7.078Y-6.4801
X7.078Y-6.5801
X7.078Y-6.6801
X7.078Y-6.7801
X7.078Y-8.1047
X7.078Y-8.4047
X7.103Y-3.5801
X7.1274Y-7.8051
X7.178Y-8.1047
X7.178Y-8.4047
X7.203Y-3.5801
X7.2274Y-7.8051
X7.278Y-8.1047
X7.278Y-8.4047
X7.303Y-3.5801
X7.378Y-8.1047
X7.378Y-8.4047
X7.403Y-3.5801
X7.478Y-5.0567
X7.478Y-5.2535
X7.478Y-6.3551
X7.478Y-6.552
X7.503Y-3.5801
X7.5274Y-5.7913
X7.5274Y-5.9882
X7.528Y-7.4067
X7.528Y-7.6035
X7.5555Y-4.0801
X7.5939Y-8.6122
X7.603Y-3.5801
X7.6539Y-4.0801
X7.6803Y-6.3037
X7.6803Y-6.6037
X7.6923Y-8.6122
X7.7028Y-5.7547
X7.7028Y-6.0547
X7.703Y-3.5801
X7.7033Y-4.8553
X7.7033Y-5.4553
X7.7803Y-6.3037
X7.7803Y-6.6037
X7.8028Y-5.7547
X7.8028Y-6.0547
X7.803Y-3.5801
X7.8033Y-4.8553
X7.8033Y-5.4553
X7.853Y-8.1801
X7.853Y-8.377
X7.8803Y-6.3037
X7.8803Y-6.6037
X7.9028Y-5.7547
X7.9028Y-6.0547
X7.9033Y-4.8553
X7.9033Y-5.4553
X7.9803Y-6.3037
X7.9803Y-6.6037
X8.0028Y-5.7547
X8.0028Y-6.0547
X8.0033Y-4.8553
X8.0033Y-5.4553
X8.0531Y-8.1297
X8.0531Y-8.4297
X8.078Y-7.2301
X8.078Y-7.8301
X8.0803Y-6.3037
X8.0803Y-6.6037
X8.1028Y-5.7547
X8.1028Y-6.0547
X8.1033Y-4.8553
X8.1033Y-5.4553
X8.1531Y-8.1297
X8.1531Y-8.4297
X8.178Y-7.2301
X8.178Y-7.8301
X8.1803Y-6.3037
X8.1803Y-6.6037
X8.2028Y-5.7547
X8.2028Y-6.0547
X8.2033Y-4.8553
X8.2033Y-5.4553
X8.2531Y-8.1297
X8.2531Y-8.4297
X8.278Y-7.2301
X8.278Y-7.8301
X8.2803Y-6.3037
X8.2803Y-6.6037
X8.3028Y-5.7547
X8.3028Y-6.0547
X8.3033Y-4.8553
X8.3033Y-5.4553
X8.3531Y-8.1297
X8.3531Y-8.4297
X8.378Y-7.2301
X8.378Y-7.8301
X8.4033Y-4.8553
X8.4033Y-5.4553
X8.4531Y-8.1297
X8.4531Y-8.4297
X8.478Y-7.2301
X8.478Y-7.8301
X8.5033Y-4.8553
X8.5033Y-5.4553
X8.5531Y-8.1297
X8.5531Y-8.4297
X8.578Y-7.2301
X8.578Y-7.8301
X8.603Y-6.0801
X8.603Y-6.3317
X8.603Y-6.5285
X8.6033Y-4.8553
X8.6033Y-5.4553
X8.6531Y-8.1297
X8.6531Y-8.4297
X8.678Y-7.2301
X8.678Y-7.8301
X8.7033Y-4.8553
X8.7033Y-5.4553
X8.7531Y-8.1297
X8.7531Y-8.4297
X8.778Y-7.2301
X8.778Y-7.8301
X8.8033Y-4.8553
X8.8033Y-5.4553
X8.8281Y-6.3047
X8.8281Y-6.6047
X8.8531Y-8.1297
X8.8531Y-8.4297
X8.878Y-7.2301
X8.878Y-7.8301
X8.903Y-6.0801
X8.9033Y-4.8553
X8.9033Y-5.4553
X8.9281Y-6.3047
X8.9281Y-6.6047
X8.9531Y-8.1297
X8.9531Y-8.4297
X8.978Y-7.2301
X8.978Y-7.8301
X9.0033Y-4.8553
X9.0033Y-5.4553
X9.0281Y-6.3047
X9.0281Y-6.6047
X9.078Y-7.2301
X9.078Y-7.8301
X9.1281Y-6.3047
X9.1281Y-6.6047
X9.178Y-7.2301
X9.178Y-7.8301
X9.2281Y-6.3047
X9.2281Y-6.6047
X9.278Y-7.2301
X9.278Y-7.8301
X9.3281Y-6.3047
X9.3281Y-6.6047
X9.378Y-7.2301
X9.378Y-7.8301
X9.4281Y-6.3047
X9.4281Y-6.6047
X9.478Y-7.2301
X9.478Y-7.8301
X9.5281Y-6.3047
X9.5281Y-6.6047
X9.578Y-7.2301
X9.578Y-7.8301
X9.6281Y-6.3047
X9.6281Y-6.6047
X9.712Y-5.0181
X9.712Y-5.1181
X9.712Y-5.2181
X9.712Y-5.3181
X9.712Y-5.4181
X9.712Y-5.5181
X9.712Y-5.6181
X9.712Y-5.7181
X9.712Y-5.8181
X9.712Y-5.9181
X9.7281Y-6.3047
X9.7281Y-6.6047
X10.003Y-6.3051
X10.003Y-6.6051
X10.012Y-5.0181
X10.012Y-5.1181
X10.012Y-5.2181
X10.012Y-5.3181
X10.012Y-5.4181
X10.012Y-5.5181
X10.012Y-5.6181
X10.012Y-5.7181
X10.012Y-5.8181
X10.012Y-5.9181
X10.253Y-5.0061
X10.253Y-5.203
T5
X4.328Y-5.6301
X4.328Y-5.7301
X4.328Y-5.8301
X4.328Y-5.9301
X4.328Y-6.0301
X4.328Y-6.1301
X4.328Y-6.2301
X4.328Y-6.3301
X4.328Y-6.4301
X4.428Y-5.5301
X4.428Y-5.6301
X4.428Y-5.7301
X4.428Y-5.8301
X4.428Y-5.9301
X4.428Y-6.0301
X4.428Y-6.1301
X4.428Y-6.2301
X4.428Y-6.3301
X4.428Y-6.4301
X4.428Y-6.5301
X4.528Y-5.5301
X4.528Y-5.6301
X4.528Y-6.4301
X4.528Y-6.5301
X4.628Y-5.5301
X4.628Y-5.6301
X4.628Y-6.4301
X4.628Y-6.5301
X4.728Y-5.5301
X4.728Y-5.6301
X4.728Y-6.4301
X4.728Y-6.5301
X4.828Y-5.5301
X4.828Y-5.6301
X4.828Y-6.4301
X4.828Y-6.5301
X4.928Y-5.5301
X4.928Y-5.6301
X4.928Y-6.4301
X4.928Y-6.5301
X5.028Y-5.5301
X5.028Y-5.6301
X5.028Y-6.4301
X5.028Y-6.5301
X5.128Y-5.5301
X5.128Y-5.6301
X5.128Y-6.4301
X5.128Y-6.5301
X5.228Y-5.5301
X5.228Y-5.6301
X5.228Y-5.7301
X5.228Y-5.8301
X5.228Y-5.9301
X5.228Y-6.0301
X5.228Y-6.1301
X5.228Y-6.2301
X5.228Y-6.3301
X5.228Y-6.4301
X5.228Y-6.5301
X5.328Y-5.6301
X5.328Y-5.7301
X5.328Y-5.8301
X5.328Y-5.9301
X5.328Y-6.0301
X5.328Y-6.1301
X5.328Y-6.2301
X5.328Y-6.3301
X5.328Y-6.4301
T6
X1.9071Y-3.1801
X2.0071Y-3.1801
X2.4411Y-3.1801
X2.5411Y-3.1801
X2.7081Y-3.1801
X2.8081Y-3.1801
X2.9751Y-3.1801
X3.0751Y-3.1801
X3.2421Y-3.1801
X3.3421Y-3.1801
X3.5091Y-3.1801
X3.6091Y-3.1801
X3.7761Y-3.1801
X3.8761Y-3.1801
X4.0431Y-3.1801
X4.1431Y-3.1801
X4.3102Y-3.1801
X4.4102Y-3.1801
T7
X9.8514Y-2.9906
X10.0285Y-2.9906
T8
X1.852Y-8.7795
X1.852Y-8.8795
X1.928Y-7.0301
X1.928Y-7.1301
X1.952Y-8.7795
X1.952Y-8.8795
X2.028Y-7.0301
X2.028Y-7.1301
X2.052Y-8.7795
X2.052Y-8.8795
X2.128Y-7.0301
X2.128Y-7.1301
X2.152Y-8.7795
X2.152Y-8.8795
X2.228Y-7.0301
X2.228Y-7.1301
X2.252Y-8.7795
X2.252Y-8.8795
X2.352Y-8.7795
X2.352Y-8.8795
X2.452Y-8.7795
X2.452Y-8.8795
X2.552Y-8.7795
X2.552Y-8.8795
X2.603Y-8.2299
X2.603Y-8.3299
X2.652Y-8.7795
X2.652Y-8.8795
X2.6528Y-7.0551
X2.752Y-8.7795
X2.752Y-8.8795
X2.7528Y-7.0551
X2.852Y-8.7795
X2.852Y-8.8795
X2.952Y-8.7795
X2.952Y-8.8795
X3.052Y-8.7795
X3.052Y-8.8795
X3.152Y-8.7795
X3.152Y-8.8795
X3.252Y-8.7795
X3.252Y-8.8795
X3.352Y-8.7795
X3.352Y-8.8795
X3.452Y-8.7795
X3.452Y-8.8795
X3.552Y-8.7795
X3.552Y-8.8795
X3.652Y-8.7795
X3.652Y-8.8795
X3.752Y-8.7795
X3.752Y-8.8795
X3.852Y-8.7795
X3.852Y-8.8795
X3.952Y-8.7795
X3.952Y-8.8795
X4.052Y-8.7795
X4.052Y-8.8795
X4.152Y-8.7795
X4.152Y-8.8795
X4.252Y-8.7795
X4.252Y-8.8795
X4.7654Y-8.7795
X4.7654Y-8.8795
X4.8654Y-8.7795
X4.8654Y-8.8795
X4.9654Y-8.7795
X4.9654Y-8.8795
X5.0654Y-8.7795
X5.0654Y-8.8795
X5.1654Y-8.7795
X5.1654Y-8.8795
X5.2654Y-8.7795
X5.2654Y-8.8795
X5.3654Y-8.7795
X5.3654Y-8.8795
X5.4654Y-8.7795
X5.4654Y-8.8795
X5.5654Y-8.7795
X5.5654Y-8.8795
X5.6654Y-8.7795
X5.6654Y-8.8795
X5.7654Y-8.7795
X5.7654Y-8.8795
X5.8654Y-8.7795
X5.8654Y-8.8795
X5.9285Y-3.1774
X5.9654Y-8.7795
X5.9654Y-8.8795
X6.0285Y-3.1774
X6.0654Y-8.7795
X6.0654Y-8.8795
X6.1285Y-3.1774
X6.1654Y-8.7795
X6.1654Y-8.8795
X6.2654Y-8.7795
X6.2654Y-8.8795
X6.3654Y-8.7795
X6.3654Y-8.8795
X6.403Y-7.3801
X6.403Y-7.4801
X6.4285Y-3.1774
X6.4654Y-8.7795
X6.4654Y-8.8795
X6.503Y-7.3801
X6.503Y-7.4801
X6.5285Y-3.1774
X6.5654Y-8.7795
X6.5654Y-8.8795
X6.603Y-7.3801
X6.603Y-7.4801
X6.6285Y-3.1774
X6.6654Y-8.7795
X6.6654Y-8.8795
X6.703Y-7.3801
X6.703Y-7.4801
X6.7654Y-8.7795
X6.7654Y-8.8795
X6.803Y-7.3801
X6.803Y-7.4801
X6.8654Y-8.7795
X6.8654Y-8.8795
X6.903Y-7.3801
X6.903Y-7.4801
X6.9654Y-8.7795
X6.9654Y-8.8795
X7.003Y-7.3801
X7.003Y-7.4801
X7.0654Y-8.7795
X7.0654Y-8.8795
X7.103Y-7.3801
X7.103Y-7.4801
X7.1654Y-8.7795
X7.1654Y-8.8795
X7.376Y-3.2038
X7.376Y-3.3038
X7.476Y-3.2038
X7.476Y-3.3038
X7.576Y-3.2038
X7.576Y-3.3038
X7.676Y-3.2038
X7.676Y-3.3038
X7.7575Y-8.7795
X7.7575Y-8.8795
X7.776Y-3.2038
X7.776Y-3.3038
X7.8575Y-8.7795
X7.8575Y-8.8795
X7.876Y-3.2038
X7.876Y-3.3038
X7.9575Y-8.7795
X7.9575Y-8.8795
X7.976Y-3.2038
X7.976Y-3.3038
X8.0575Y-8.7795
X8.0575Y-8.8795
X8.076Y-3.2038
X8.076Y-3.3038
X8.1575Y-8.7795
X8.1575Y-8.8795
X8.176Y-3.2038
X8.176Y-3.3038
X8.2575Y-8.7795
X8.2575Y-8.8795
X8.276Y-3.2038
X8.276Y-3.3038
X8.3575Y-8.7795
X8.3575Y-8.8795
X8.376Y-3.2038
X8.376Y-3.3038
X8.4575Y-8.7795
X8.4575Y-8.8795
X8.476Y-3.2038
X8.476Y-3.3038
X8.5575Y-8.7795
X8.5575Y-8.8795
X8.576Y-3.2038
X8.576Y-3.3038
X8.6575Y-8.7795
X8.6575Y-8.8795
X8.676Y-3.2038
X8.676Y-3.3038
X8.7575Y-8.7795
X8.7575Y-8.8795
X8.776Y-3.2038
X8.776Y-3.3038
X8.8575Y-8.7795
X8.8575Y-8.8795
X8.876Y-3.2038
X8.876Y-3.3038
X8.9575Y-8.7795
X8.9575Y-8.8795
X8.976Y-3.2038
X8.976Y-3.3038
X9.0575Y-8.7795
X9.0575Y-8.8795
X9.076Y-3.2038
X9.076Y-3.3038
X9.1575Y-8.7795
X9.1575Y-8.8795
X9.176Y-3.2038
X9.176Y-3.3038
X9.2575Y-8.7795
X9.2575Y-8.8795
X9.276Y-3.2038
X9.276Y-3.3038
X9.3575Y-8.7795
X9.3575Y-8.8795
X9.378Y-8.1557
X9.378Y-8.2557
X9.378Y-8.3557
X9.453Y-3.7801
X9.453Y-3.8801
X9.453Y-3.9801
X9.453Y-4.0801
X9.453Y-4.1801
X9.453Y-4.2801
X9.453Y-4.3801
X9.453Y-4.4801
X9.453Y-4.5801
X9.4575Y-8.7795
X9.4575Y-8.8795
X9.553Y-3.7801
X9.553Y-3.8801
X9.553Y-3.9801
X9.553Y-4.0801
X9.553Y-4.1801
X9.553Y-4.2801
X9.553Y-4.3801
X9.553Y-4.4801
X9.553Y-4.5801
X9.5575Y-8.7795
X9.5575Y-8.8795
X9.6575Y-8.7795
X9.6575Y-8.8795
X9.7575Y-8.7795
X9.7575Y-8.8795
X9.8575Y-8.7795
X9.8575Y-8.8795
X9.878Y-8.1557
X9.878Y-8.2557
X9.878Y-8.3557
X9.903Y-3.7805
X9.903Y-3.8805
X9.903Y-3.9805
X9.903Y-4.0805
X9.903Y-4.1805
X9.903Y-4.2805
X9.903Y-4.3805
X9.903Y-4.4805
X9.903Y-4.5805
X9.9575Y-8.7795
X9.9575Y-8.8795
X10.003Y-3.7805
X10.003Y-3.8805
X10.003Y-3.9805
X10.003Y-4.0805
X10.003Y-4.1805
X10.003Y-4.2805
X10.003Y-4.3805
X10.003Y-4.4805
X10.003Y-4.5805
X10.0575Y-8.7795
X10.0575Y-8.8795
X10.1575Y-8.7795
X10.1575Y-8.8795
T9
X9.8022Y-3.0887
X10.0781Y-3.0887
T10
X1.5748Y-2.9528
X10.4331Y-2.9528
T0
M30
