%TF.GenerationSoftware,KiCad,Pcbnew,(6.0.11)*%
%TF.CreationDate,2023-10-28T13:54:11-04:00*%
%TF.ProjectId,memory.ROMRAM,6d656d6f-7279-42e5-924f-4d52414d2e6b,rev?*%
%TF.SameCoordinates,Original*%
%TF.FileFunction,Legend,Bot*%
%TF.FilePolarity,Positive*%
%FSLAX46Y46*%
G04 Gerber Fmt 4.6, Leading zero omitted, Abs format (unit mm)*
G04 Created by KiCad (PCBNEW (6.0.11)) date 2023-10-28 13:54:11*
%MOMM*%
%LPD*%
G01*
G04 APERTURE LIST*
%ADD10C,0.150000*%
%ADD11C,0.120000*%
G04 APERTURE END LIST*
D10*
%TO.C,P3*%
X262738095Y-226452380D02*
X262738095Y-225452380D01*
X262357142Y-225452380D01*
X262261904Y-225500000D01*
X262214285Y-225547619D01*
X262166666Y-225642857D01*
X262166666Y-225785714D01*
X262214285Y-225880952D01*
X262261904Y-225928571D01*
X262357142Y-225976190D01*
X262738095Y-225976190D01*
X261833333Y-225452380D02*
X261214285Y-225452380D01*
X261547619Y-225833333D01*
X261404761Y-225833333D01*
X261309523Y-225880952D01*
X261261904Y-225928571D01*
X261214285Y-226023809D01*
X261214285Y-226261904D01*
X261261904Y-226357142D01*
X261309523Y-226404761D01*
X261404761Y-226452380D01*
X261690476Y-226452380D01*
X261785714Y-226404761D01*
X261833333Y-226357142D01*
%TO.C,H1*%
X44761904Y-77952380D02*
X44761904Y-76952380D01*
X44761904Y-77428571D02*
X44190476Y-77428571D01*
X44190476Y-77952380D02*
X44190476Y-76952380D01*
X43190476Y-77952380D02*
X43761904Y-77952380D01*
X43476190Y-77952380D02*
X43476190Y-76952380D01*
X43571428Y-77095238D01*
X43666666Y-77190476D01*
X43761904Y-77238095D01*
%TO.C,H2*%
X269761904Y-78452380D02*
X269761904Y-77452380D01*
X269761904Y-77928571D02*
X269190476Y-77928571D01*
X269190476Y-78452380D02*
X269190476Y-77452380D01*
X268761904Y-77547619D02*
X268714285Y-77500000D01*
X268619047Y-77452380D01*
X268380952Y-77452380D01*
X268285714Y-77500000D01*
X268238095Y-77547619D01*
X268190476Y-77642857D01*
X268190476Y-77738095D01*
X268238095Y-77880952D01*
X268809523Y-78452380D01*
X268190476Y-78452380D01*
%TO.C,C15*%
X226102857Y-177252142D02*
X226150476Y-177299761D01*
X226293333Y-177347380D01*
X226388571Y-177347380D01*
X226531428Y-177299761D01*
X226626666Y-177204523D01*
X226674285Y-177109285D01*
X226721904Y-176918809D01*
X226721904Y-176775952D01*
X226674285Y-176585476D01*
X226626666Y-176490238D01*
X226531428Y-176395000D01*
X226388571Y-176347380D01*
X226293333Y-176347380D01*
X226150476Y-176395000D01*
X226102857Y-176442619D01*
X225150476Y-177347380D02*
X225721904Y-177347380D01*
X225436190Y-177347380D02*
X225436190Y-176347380D01*
X225531428Y-176490238D01*
X225626666Y-176585476D01*
X225721904Y-176633095D01*
X224245714Y-176347380D02*
X224721904Y-176347380D01*
X224769523Y-176823571D01*
X224721904Y-176775952D01*
X224626666Y-176728333D01*
X224388571Y-176728333D01*
X224293333Y-176775952D01*
X224245714Y-176823571D01*
X224198095Y-176918809D01*
X224198095Y-177156904D01*
X224245714Y-177252142D01*
X224293333Y-177299761D01*
X224388571Y-177347380D01*
X224626666Y-177347380D01*
X224721904Y-177299761D01*
X224769523Y-177252142D01*
%TO.C,C16*%
X226102857Y-152047142D02*
X226150476Y-152094761D01*
X226293333Y-152142380D01*
X226388571Y-152142380D01*
X226531428Y-152094761D01*
X226626666Y-151999523D01*
X226674285Y-151904285D01*
X226721904Y-151713809D01*
X226721904Y-151570952D01*
X226674285Y-151380476D01*
X226626666Y-151285238D01*
X226531428Y-151190000D01*
X226388571Y-151142380D01*
X226293333Y-151142380D01*
X226150476Y-151190000D01*
X226102857Y-151237619D01*
X225150476Y-152142380D02*
X225721904Y-152142380D01*
X225436190Y-152142380D02*
X225436190Y-151142380D01*
X225531428Y-151285238D01*
X225626666Y-151380476D01*
X225721904Y-151428095D01*
X224293333Y-151142380D02*
X224483809Y-151142380D01*
X224579047Y-151190000D01*
X224626666Y-151237619D01*
X224721904Y-151380476D01*
X224769523Y-151570952D01*
X224769523Y-151951904D01*
X224721904Y-152047142D01*
X224674285Y-152094761D01*
X224579047Y-152142380D01*
X224388571Y-152142380D01*
X224293333Y-152094761D01*
X224245714Y-152047142D01*
X224198095Y-151951904D01*
X224198095Y-151713809D01*
X224245714Y-151618571D01*
X224293333Y-151570952D01*
X224388571Y-151523333D01*
X224579047Y-151523333D01*
X224674285Y-151570952D01*
X224721904Y-151618571D01*
X224769523Y-151713809D01*
%TO.C,C11*%
X150357142Y-209797142D02*
X150404761Y-209749523D01*
X150452380Y-209606666D01*
X150452380Y-209511428D01*
X150404761Y-209368571D01*
X150309523Y-209273333D01*
X150214285Y-209225714D01*
X150023809Y-209178095D01*
X149880952Y-209178095D01*
X149690476Y-209225714D01*
X149595238Y-209273333D01*
X149500000Y-209368571D01*
X149452380Y-209511428D01*
X149452380Y-209606666D01*
X149500000Y-209749523D01*
X149547619Y-209797142D01*
X150452380Y-210749523D02*
X150452380Y-210178095D01*
X150452380Y-210463809D02*
X149452380Y-210463809D01*
X149595238Y-210368571D01*
X149690476Y-210273333D01*
X149738095Y-210178095D01*
X150452380Y-211701904D02*
X150452380Y-211130476D01*
X150452380Y-211416190D02*
X149452380Y-211416190D01*
X149595238Y-211320952D01*
X149690476Y-211225714D01*
X149738095Y-211130476D01*
%TO.C,C12*%
X45357142Y-209797142D02*
X45404761Y-209749523D01*
X45452380Y-209606666D01*
X45452380Y-209511428D01*
X45404761Y-209368571D01*
X45309523Y-209273333D01*
X45214285Y-209225714D01*
X45023809Y-209178095D01*
X44880952Y-209178095D01*
X44690476Y-209225714D01*
X44595238Y-209273333D01*
X44500000Y-209368571D01*
X44452380Y-209511428D01*
X44452380Y-209606666D01*
X44500000Y-209749523D01*
X44547619Y-209797142D01*
X45452380Y-210749523D02*
X45452380Y-210178095D01*
X45452380Y-210463809D02*
X44452380Y-210463809D01*
X44595238Y-210368571D01*
X44690476Y-210273333D01*
X44738095Y-210178095D01*
X44547619Y-211130476D02*
X44500000Y-211178095D01*
X44452380Y-211273333D01*
X44452380Y-211511428D01*
X44500000Y-211606666D01*
X44547619Y-211654285D01*
X44642857Y-211701904D01*
X44738095Y-211701904D01*
X44880952Y-211654285D01*
X45452380Y-211082857D01*
X45452380Y-211701904D01*
%TO.C,C1*%
X43547142Y-175213333D02*
X43594761Y-175165714D01*
X43642380Y-175022857D01*
X43642380Y-174927619D01*
X43594761Y-174784761D01*
X43499523Y-174689523D01*
X43404285Y-174641904D01*
X43213809Y-174594285D01*
X43070952Y-174594285D01*
X42880476Y-174641904D01*
X42785238Y-174689523D01*
X42690000Y-174784761D01*
X42642380Y-174927619D01*
X42642380Y-175022857D01*
X42690000Y-175165714D01*
X42737619Y-175213333D01*
X43642380Y-176165714D02*
X43642380Y-175594285D01*
X43642380Y-175880000D02*
X42642380Y-175880000D01*
X42785238Y-175784761D01*
X42880476Y-175689523D01*
X42928095Y-175594285D01*
%TO.C,C4*%
X115357142Y-210273333D02*
X115404761Y-210225714D01*
X115452380Y-210082857D01*
X115452380Y-209987619D01*
X115404761Y-209844761D01*
X115309523Y-209749523D01*
X115214285Y-209701904D01*
X115023809Y-209654285D01*
X114880952Y-209654285D01*
X114690476Y-209701904D01*
X114595238Y-209749523D01*
X114500000Y-209844761D01*
X114452380Y-209987619D01*
X114452380Y-210082857D01*
X114500000Y-210225714D01*
X114547619Y-210273333D01*
X114785714Y-211130476D02*
X115452380Y-211130476D01*
X114404761Y-210892380D02*
X115119047Y-210654285D01*
X115119047Y-211273333D01*
%TO.C,C9*%
X80357142Y-210273333D02*
X80404761Y-210225714D01*
X80452380Y-210082857D01*
X80452380Y-209987619D01*
X80404761Y-209844761D01*
X80309523Y-209749523D01*
X80214285Y-209701904D01*
X80023809Y-209654285D01*
X79880952Y-209654285D01*
X79690476Y-209701904D01*
X79595238Y-209749523D01*
X79500000Y-209844761D01*
X79452380Y-209987619D01*
X79452380Y-210082857D01*
X79500000Y-210225714D01*
X79547619Y-210273333D01*
X80452380Y-210749523D02*
X80452380Y-210940000D01*
X80404761Y-211035238D01*
X80357142Y-211082857D01*
X80214285Y-211178095D01*
X80023809Y-211225714D01*
X79642857Y-211225714D01*
X79547619Y-211178095D01*
X79500000Y-211130476D01*
X79452380Y-211035238D01*
X79452380Y-210844761D01*
X79500000Y-210749523D01*
X79547619Y-210701904D01*
X79642857Y-210654285D01*
X79880952Y-210654285D01*
X79976190Y-210701904D01*
X80023809Y-210749523D01*
X80071428Y-210844761D01*
X80071428Y-211035238D01*
X80023809Y-211130476D01*
X79976190Y-211178095D01*
X79880952Y-211225714D01*
%TO.C,C25*%
X115236742Y-217857142D02*
X115284361Y-217809523D01*
X115331980Y-217666666D01*
X115331980Y-217571428D01*
X115284361Y-217428571D01*
X115189123Y-217333333D01*
X115093885Y-217285714D01*
X114903409Y-217238095D01*
X114760552Y-217238095D01*
X114570076Y-217285714D01*
X114474838Y-217333333D01*
X114379600Y-217428571D01*
X114331980Y-217571428D01*
X114331980Y-217666666D01*
X114379600Y-217809523D01*
X114427219Y-217857142D01*
X114427219Y-218238095D02*
X114379600Y-218285714D01*
X114331980Y-218380952D01*
X114331980Y-218619047D01*
X114379600Y-218714285D01*
X114427219Y-218761904D01*
X114522457Y-218809523D01*
X114617695Y-218809523D01*
X114760552Y-218761904D01*
X115331980Y-218190476D01*
X115331980Y-218809523D01*
X114331980Y-219714285D02*
X114331980Y-219238095D01*
X114808171Y-219190476D01*
X114760552Y-219238095D01*
X114712933Y-219333333D01*
X114712933Y-219571428D01*
X114760552Y-219666666D01*
X114808171Y-219714285D01*
X114903409Y-219761904D01*
X115141504Y-219761904D01*
X115236742Y-219714285D01*
X115284361Y-219666666D01*
X115331980Y-219571428D01*
X115331980Y-219333333D01*
X115284361Y-219238095D01*
X115236742Y-219190476D01*
%TO.C,C26*%
X41106942Y-217857142D02*
X41154561Y-217809523D01*
X41202180Y-217666666D01*
X41202180Y-217571428D01*
X41154561Y-217428571D01*
X41059323Y-217333333D01*
X40964085Y-217285714D01*
X40773609Y-217238095D01*
X40630752Y-217238095D01*
X40440276Y-217285714D01*
X40345038Y-217333333D01*
X40249800Y-217428571D01*
X40202180Y-217571428D01*
X40202180Y-217666666D01*
X40249800Y-217809523D01*
X40297419Y-217857142D01*
X40297419Y-218238095D02*
X40249800Y-218285714D01*
X40202180Y-218380952D01*
X40202180Y-218619047D01*
X40249800Y-218714285D01*
X40297419Y-218761904D01*
X40392657Y-218809523D01*
X40487895Y-218809523D01*
X40630752Y-218761904D01*
X41202180Y-218190476D01*
X41202180Y-218809523D01*
X40202180Y-219666666D02*
X40202180Y-219476190D01*
X40249800Y-219380952D01*
X40297419Y-219333333D01*
X40440276Y-219238095D01*
X40630752Y-219190476D01*
X41011704Y-219190476D01*
X41106942Y-219238095D01*
X41154561Y-219285714D01*
X41202180Y-219380952D01*
X41202180Y-219571428D01*
X41154561Y-219666666D01*
X41106942Y-219714285D01*
X41011704Y-219761904D01*
X40773609Y-219761904D01*
X40678371Y-219714285D01*
X40630752Y-219666666D01*
X40583133Y-219571428D01*
X40583133Y-219380952D01*
X40630752Y-219285714D01*
X40678371Y-219238095D01*
X40773609Y-219190476D01*
%TO.C,R7*%
X48976666Y-90452380D02*
X49310000Y-89976190D01*
X49548095Y-90452380D02*
X49548095Y-89452380D01*
X49167142Y-89452380D01*
X49071904Y-89500000D01*
X49024285Y-89547619D01*
X48976666Y-89642857D01*
X48976666Y-89785714D01*
X49024285Y-89880952D01*
X49071904Y-89928571D01*
X49167142Y-89976190D01*
X49548095Y-89976190D01*
X48643333Y-89452380D02*
X47976666Y-89452380D01*
X48405238Y-90452380D01*
%TO.C,U6*%
X95882380Y-208368095D02*
X96691904Y-208368095D01*
X96787142Y-208415714D01*
X96834761Y-208463333D01*
X96882380Y-208558571D01*
X96882380Y-208749047D01*
X96834761Y-208844285D01*
X96787142Y-208891904D01*
X96691904Y-208939523D01*
X95882380Y-208939523D01*
X95882380Y-209844285D02*
X95882380Y-209653809D01*
X95930000Y-209558571D01*
X95977619Y-209510952D01*
X96120476Y-209415714D01*
X96310952Y-209368095D01*
X96691904Y-209368095D01*
X96787142Y-209415714D01*
X96834761Y-209463333D01*
X96882380Y-209558571D01*
X96882380Y-209749047D01*
X96834761Y-209844285D01*
X96787142Y-209891904D01*
X96691904Y-209939523D01*
X96453809Y-209939523D01*
X96358571Y-209891904D01*
X96310952Y-209844285D01*
X96263333Y-209749047D01*
X96263333Y-209558571D01*
X96310952Y-209463333D01*
X96358571Y-209415714D01*
X96453809Y-209368095D01*
%TO.C,U2*%
X240192380Y-188603095D02*
X241001904Y-188603095D01*
X241097142Y-188650714D01*
X241144761Y-188698333D01*
X241192380Y-188793571D01*
X241192380Y-188984047D01*
X241144761Y-189079285D01*
X241097142Y-189126904D01*
X241001904Y-189174523D01*
X240192380Y-189174523D01*
X240287619Y-189603095D02*
X240240000Y-189650714D01*
X240192380Y-189745952D01*
X240192380Y-189984047D01*
X240240000Y-190079285D01*
X240287619Y-190126904D01*
X240382857Y-190174523D01*
X240478095Y-190174523D01*
X240620952Y-190126904D01*
X241192380Y-189555476D01*
X241192380Y-190174523D01*
%TO.C,U3*%
X240192380Y-163203095D02*
X241001904Y-163203095D01*
X241097142Y-163250714D01*
X241144761Y-163298333D01*
X241192380Y-163393571D01*
X241192380Y-163584047D01*
X241144761Y-163679285D01*
X241097142Y-163726904D01*
X241001904Y-163774523D01*
X240192380Y-163774523D01*
X240192380Y-164155476D02*
X240192380Y-164774523D01*
X240573333Y-164441190D01*
X240573333Y-164584047D01*
X240620952Y-164679285D01*
X240668571Y-164726904D01*
X240763809Y-164774523D01*
X241001904Y-164774523D01*
X241097142Y-164726904D01*
X241144761Y-164679285D01*
X241192380Y-164584047D01*
X241192380Y-164298333D01*
X241144761Y-164203095D01*
X241097142Y-164155476D01*
%TO.C,U17*%
X60882380Y-207891904D02*
X61691904Y-207891904D01*
X61787142Y-207939523D01*
X61834761Y-207987142D01*
X61882380Y-208082380D01*
X61882380Y-208272857D01*
X61834761Y-208368095D01*
X61787142Y-208415714D01*
X61691904Y-208463333D01*
X60882380Y-208463333D01*
X61882380Y-209463333D02*
X61882380Y-208891904D01*
X61882380Y-209177619D02*
X60882380Y-209177619D01*
X61025238Y-209082380D01*
X61120476Y-208987142D01*
X61168095Y-208891904D01*
X60882380Y-209796666D02*
X60882380Y-210463333D01*
X61882380Y-210034761D01*
%TO.C,U16*%
X55262380Y-142831904D02*
X56071904Y-142831904D01*
X56167142Y-142879523D01*
X56214761Y-142927142D01*
X56262380Y-143022380D01*
X56262380Y-143212857D01*
X56214761Y-143308095D01*
X56167142Y-143355714D01*
X56071904Y-143403333D01*
X55262380Y-143403333D01*
X56262380Y-144403333D02*
X56262380Y-143831904D01*
X56262380Y-144117619D02*
X55262380Y-144117619D01*
X55405238Y-144022380D01*
X55500476Y-143927142D01*
X55548095Y-143831904D01*
X55262380Y-145260476D02*
X55262380Y-145070000D01*
X55310000Y-144974761D01*
X55357619Y-144927142D01*
X55500476Y-144831904D01*
X55690952Y-144784285D01*
X56071904Y-144784285D01*
X56167142Y-144831904D01*
X56214761Y-144879523D01*
X56262380Y-144974761D01*
X56262380Y-145165238D01*
X56214761Y-145260476D01*
X56167142Y-145308095D01*
X56071904Y-145355714D01*
X55833809Y-145355714D01*
X55738571Y-145308095D01*
X55690952Y-145260476D01*
X55643333Y-145165238D01*
X55643333Y-144974761D01*
X55690952Y-144879523D01*
X55738571Y-144831904D01*
X55833809Y-144784285D01*
%TO.C,C10*%
X185357142Y-209797142D02*
X185404761Y-209749523D01*
X185452380Y-209606666D01*
X185452380Y-209511428D01*
X185404761Y-209368571D01*
X185309523Y-209273333D01*
X185214285Y-209225714D01*
X185023809Y-209178095D01*
X184880952Y-209178095D01*
X184690476Y-209225714D01*
X184595238Y-209273333D01*
X184500000Y-209368571D01*
X184452380Y-209511428D01*
X184452380Y-209606666D01*
X184500000Y-209749523D01*
X184547619Y-209797142D01*
X185452380Y-210749523D02*
X185452380Y-210178095D01*
X185452380Y-210463809D02*
X184452380Y-210463809D01*
X184595238Y-210368571D01*
X184690476Y-210273333D01*
X184738095Y-210178095D01*
X184452380Y-211368571D02*
X184452380Y-211463809D01*
X184500000Y-211559047D01*
X184547619Y-211606666D01*
X184642857Y-211654285D01*
X184833333Y-211701904D01*
X185071428Y-211701904D01*
X185261904Y-211654285D01*
X185357142Y-211606666D01*
X185404761Y-211559047D01*
X185452380Y-211463809D01*
X185452380Y-211368571D01*
X185404761Y-211273333D01*
X185357142Y-211225714D01*
X185261904Y-211178095D01*
X185071428Y-211130476D01*
X184833333Y-211130476D01*
X184642857Y-211178095D01*
X184547619Y-211225714D01*
X184500000Y-211273333D01*
X184452380Y-211368571D01*
%TO.C,U7*%
X130882380Y-208368095D02*
X131691904Y-208368095D01*
X131787142Y-208415714D01*
X131834761Y-208463333D01*
X131882380Y-208558571D01*
X131882380Y-208749047D01*
X131834761Y-208844285D01*
X131787142Y-208891904D01*
X131691904Y-208939523D01*
X130882380Y-208939523D01*
X130882380Y-209320476D02*
X130882380Y-209987142D01*
X131882380Y-209558571D01*
%TO.C,U4*%
X59072380Y-129308095D02*
X59881904Y-129308095D01*
X59977142Y-129355714D01*
X60024761Y-129403333D01*
X60072380Y-129498571D01*
X60072380Y-129689047D01*
X60024761Y-129784285D01*
X59977142Y-129831904D01*
X59881904Y-129879523D01*
X59072380Y-129879523D01*
X59405714Y-130784285D02*
X60072380Y-130784285D01*
X59024761Y-130546190D02*
X59739047Y-130308095D01*
X59739047Y-130927142D01*
%TO.C,RN1*%
X46202380Y-106189523D02*
X45726190Y-105856190D01*
X46202380Y-105618095D02*
X45202380Y-105618095D01*
X45202380Y-105999047D01*
X45250000Y-106094285D01*
X45297619Y-106141904D01*
X45392857Y-106189523D01*
X45535714Y-106189523D01*
X45630952Y-106141904D01*
X45678571Y-106094285D01*
X45726190Y-105999047D01*
X45726190Y-105618095D01*
X46202380Y-106618095D02*
X45202380Y-106618095D01*
X46202380Y-107189523D01*
X45202380Y-107189523D01*
X46202380Y-108189523D02*
X46202380Y-107618095D01*
X46202380Y-107903809D02*
X45202380Y-107903809D01*
X45345238Y-107808571D01*
X45440476Y-107713333D01*
X45488095Y-107618095D01*
%TO.C,C5*%
X43547142Y-131213333D02*
X43594761Y-131165714D01*
X43642380Y-131022857D01*
X43642380Y-130927619D01*
X43594761Y-130784761D01*
X43499523Y-130689523D01*
X43404285Y-130641904D01*
X43213809Y-130594285D01*
X43070952Y-130594285D01*
X42880476Y-130641904D01*
X42785238Y-130689523D01*
X42690000Y-130784761D01*
X42642380Y-130927619D01*
X42642380Y-131022857D01*
X42690000Y-131165714D01*
X42737619Y-131213333D01*
X42642380Y-132118095D02*
X42642380Y-131641904D01*
X43118571Y-131594285D01*
X43070952Y-131641904D01*
X43023333Y-131737142D01*
X43023333Y-131975238D01*
X43070952Y-132070476D01*
X43118571Y-132118095D01*
X43213809Y-132165714D01*
X43451904Y-132165714D01*
X43547142Y-132118095D01*
X43594761Y-132070476D01*
X43642380Y-131975238D01*
X43642380Y-131737142D01*
X43594761Y-131641904D01*
X43547142Y-131594285D01*
%TO.C,JP3*%
X69952380Y-114776666D02*
X70666666Y-114776666D01*
X70809523Y-114729047D01*
X70904761Y-114633809D01*
X70952380Y-114490952D01*
X70952380Y-114395714D01*
X70952380Y-115252857D02*
X69952380Y-115252857D01*
X69952380Y-115633809D01*
X70000000Y-115729047D01*
X70047619Y-115776666D01*
X70142857Y-115824285D01*
X70285714Y-115824285D01*
X70380952Y-115776666D01*
X70428571Y-115729047D01*
X70476190Y-115633809D01*
X70476190Y-115252857D01*
X69952380Y-116157619D02*
X69952380Y-116776666D01*
X70333333Y-116443333D01*
X70333333Y-116586190D01*
X70380952Y-116681428D01*
X70428571Y-116729047D01*
X70523809Y-116776666D01*
X70761904Y-116776666D01*
X70857142Y-116729047D01*
X70904761Y-116681428D01*
X70952380Y-116586190D01*
X70952380Y-116300476D01*
X70904761Y-116205238D01*
X70857142Y-116157619D01*
%TO.C,C3*%
X243406666Y-72877142D02*
X243454285Y-72924761D01*
X243597142Y-72972380D01*
X243692380Y-72972380D01*
X243835238Y-72924761D01*
X243930476Y-72829523D01*
X243978095Y-72734285D01*
X244025714Y-72543809D01*
X244025714Y-72400952D01*
X243978095Y-72210476D01*
X243930476Y-72115238D01*
X243835238Y-72020000D01*
X243692380Y-71972380D01*
X243597142Y-71972380D01*
X243454285Y-72020000D01*
X243406666Y-72067619D01*
X243073333Y-71972380D02*
X242454285Y-71972380D01*
X242787619Y-72353333D01*
X242644761Y-72353333D01*
X242549523Y-72400952D01*
X242501904Y-72448571D01*
X242454285Y-72543809D01*
X242454285Y-72781904D01*
X242501904Y-72877142D01*
X242549523Y-72924761D01*
X242644761Y-72972380D01*
X242930476Y-72972380D01*
X243025714Y-72924761D01*
X243073333Y-72877142D01*
%TO.C,C27*%
X191106942Y-217857142D02*
X191154561Y-217809523D01*
X191202180Y-217666666D01*
X191202180Y-217571428D01*
X191154561Y-217428571D01*
X191059323Y-217333333D01*
X190964085Y-217285714D01*
X190773609Y-217238095D01*
X190630752Y-217238095D01*
X190440276Y-217285714D01*
X190345038Y-217333333D01*
X190249800Y-217428571D01*
X190202180Y-217571428D01*
X190202180Y-217666666D01*
X190249800Y-217809523D01*
X190297419Y-217857142D01*
X190297419Y-218238095D02*
X190249800Y-218285714D01*
X190202180Y-218380952D01*
X190202180Y-218619047D01*
X190249800Y-218714285D01*
X190297419Y-218761904D01*
X190392657Y-218809523D01*
X190487895Y-218809523D01*
X190630752Y-218761904D01*
X191202180Y-218190476D01*
X191202180Y-218809523D01*
X190202180Y-219142857D02*
X190202180Y-219809523D01*
X191202180Y-219380952D01*
%TO.C,C28*%
X149657142Y-90927142D02*
X149704761Y-90879523D01*
X149752380Y-90736666D01*
X149752380Y-90641428D01*
X149704761Y-90498571D01*
X149609523Y-90403333D01*
X149514285Y-90355714D01*
X149323809Y-90308095D01*
X149180952Y-90308095D01*
X148990476Y-90355714D01*
X148895238Y-90403333D01*
X148800000Y-90498571D01*
X148752380Y-90641428D01*
X148752380Y-90736666D01*
X148800000Y-90879523D01*
X148847619Y-90927142D01*
X148847619Y-91308095D02*
X148800000Y-91355714D01*
X148752380Y-91450952D01*
X148752380Y-91689047D01*
X148800000Y-91784285D01*
X148847619Y-91831904D01*
X148942857Y-91879523D01*
X149038095Y-91879523D01*
X149180952Y-91831904D01*
X149752380Y-91260476D01*
X149752380Y-91879523D01*
X149180952Y-92450952D02*
X149133333Y-92355714D01*
X149085714Y-92308095D01*
X148990476Y-92260476D01*
X148942857Y-92260476D01*
X148847619Y-92308095D01*
X148800000Y-92355714D01*
X148752380Y-92450952D01*
X148752380Y-92641428D01*
X148800000Y-92736666D01*
X148847619Y-92784285D01*
X148942857Y-92831904D01*
X148990476Y-92831904D01*
X149085714Y-92784285D01*
X149133333Y-92736666D01*
X149180952Y-92641428D01*
X149180952Y-92450952D01*
X149228571Y-92355714D01*
X149276190Y-92308095D01*
X149371428Y-92260476D01*
X149561904Y-92260476D01*
X149657142Y-92308095D01*
X149704761Y-92355714D01*
X149752380Y-92450952D01*
X149752380Y-92641428D01*
X149704761Y-92736666D01*
X149657142Y-92784285D01*
X149561904Y-92831904D01*
X149371428Y-92831904D01*
X149276190Y-92784285D01*
X149228571Y-92736666D01*
X149180952Y-92641428D01*
%TO.C,C30*%
X223317142Y-79537142D02*
X223364761Y-79489523D01*
X223412380Y-79346666D01*
X223412380Y-79251428D01*
X223364761Y-79108571D01*
X223269523Y-79013333D01*
X223174285Y-78965714D01*
X222983809Y-78918095D01*
X222840952Y-78918095D01*
X222650476Y-78965714D01*
X222555238Y-79013333D01*
X222460000Y-79108571D01*
X222412380Y-79251428D01*
X222412380Y-79346666D01*
X222460000Y-79489523D01*
X222507619Y-79537142D01*
X222412380Y-79870476D02*
X222412380Y-80489523D01*
X222793333Y-80156190D01*
X222793333Y-80299047D01*
X222840952Y-80394285D01*
X222888571Y-80441904D01*
X222983809Y-80489523D01*
X223221904Y-80489523D01*
X223317142Y-80441904D01*
X223364761Y-80394285D01*
X223412380Y-80299047D01*
X223412380Y-80013333D01*
X223364761Y-79918095D01*
X223317142Y-79870476D01*
X222412380Y-81108571D02*
X222412380Y-81203809D01*
X222460000Y-81299047D01*
X222507619Y-81346666D01*
X222602857Y-81394285D01*
X222793333Y-81441904D01*
X223031428Y-81441904D01*
X223221904Y-81394285D01*
X223317142Y-81346666D01*
X223364761Y-81299047D01*
X223412380Y-81203809D01*
X223412380Y-81108571D01*
X223364761Y-81013333D01*
X223317142Y-80965714D01*
X223221904Y-80918095D01*
X223031428Y-80870476D01*
X222793333Y-80870476D01*
X222602857Y-80918095D01*
X222507619Y-80965714D01*
X222460000Y-81013333D01*
X222412380Y-81108571D01*
%TO.C,C32*%
X43547142Y-144737142D02*
X43594761Y-144689523D01*
X43642380Y-144546666D01*
X43642380Y-144451428D01*
X43594761Y-144308571D01*
X43499523Y-144213333D01*
X43404285Y-144165714D01*
X43213809Y-144118095D01*
X43070952Y-144118095D01*
X42880476Y-144165714D01*
X42785238Y-144213333D01*
X42690000Y-144308571D01*
X42642380Y-144451428D01*
X42642380Y-144546666D01*
X42690000Y-144689523D01*
X42737619Y-144737142D01*
X42642380Y-145070476D02*
X42642380Y-145689523D01*
X43023333Y-145356190D01*
X43023333Y-145499047D01*
X43070952Y-145594285D01*
X43118571Y-145641904D01*
X43213809Y-145689523D01*
X43451904Y-145689523D01*
X43547142Y-145641904D01*
X43594761Y-145594285D01*
X43642380Y-145499047D01*
X43642380Y-145213333D01*
X43594761Y-145118095D01*
X43547142Y-145070476D01*
X42737619Y-146070476D02*
X42690000Y-146118095D01*
X42642380Y-146213333D01*
X42642380Y-146451428D01*
X42690000Y-146546666D01*
X42737619Y-146594285D01*
X42832857Y-146641904D01*
X42928095Y-146641904D01*
X43070952Y-146594285D01*
X43642380Y-146022857D01*
X43642380Y-146641904D01*
%TO.C,C33*%
X43547142Y-159737142D02*
X43594761Y-159689523D01*
X43642380Y-159546666D01*
X43642380Y-159451428D01*
X43594761Y-159308571D01*
X43499523Y-159213333D01*
X43404285Y-159165714D01*
X43213809Y-159118095D01*
X43070952Y-159118095D01*
X42880476Y-159165714D01*
X42785238Y-159213333D01*
X42690000Y-159308571D01*
X42642380Y-159451428D01*
X42642380Y-159546666D01*
X42690000Y-159689523D01*
X42737619Y-159737142D01*
X42642380Y-160070476D02*
X42642380Y-160689523D01*
X43023333Y-160356190D01*
X43023333Y-160499047D01*
X43070952Y-160594285D01*
X43118571Y-160641904D01*
X43213809Y-160689523D01*
X43451904Y-160689523D01*
X43547142Y-160641904D01*
X43594761Y-160594285D01*
X43642380Y-160499047D01*
X43642380Y-160213333D01*
X43594761Y-160118095D01*
X43547142Y-160070476D01*
X42642380Y-161022857D02*
X42642380Y-161641904D01*
X43023333Y-161308571D01*
X43023333Y-161451428D01*
X43070952Y-161546666D01*
X43118571Y-161594285D01*
X43213809Y-161641904D01*
X43451904Y-161641904D01*
X43547142Y-161594285D01*
X43594761Y-161546666D01*
X43642380Y-161451428D01*
X43642380Y-161165714D01*
X43594761Y-161070476D01*
X43547142Y-161022857D01*
%TO.C,C34*%
X236017142Y-94697142D02*
X236064761Y-94649523D01*
X236112380Y-94506666D01*
X236112380Y-94411428D01*
X236064761Y-94268571D01*
X235969523Y-94173333D01*
X235874285Y-94125714D01*
X235683809Y-94078095D01*
X235540952Y-94078095D01*
X235350476Y-94125714D01*
X235255238Y-94173333D01*
X235160000Y-94268571D01*
X235112380Y-94411428D01*
X235112380Y-94506666D01*
X235160000Y-94649523D01*
X235207619Y-94697142D01*
X235112380Y-95030476D02*
X235112380Y-95649523D01*
X235493333Y-95316190D01*
X235493333Y-95459047D01*
X235540952Y-95554285D01*
X235588571Y-95601904D01*
X235683809Y-95649523D01*
X235921904Y-95649523D01*
X236017142Y-95601904D01*
X236064761Y-95554285D01*
X236112380Y-95459047D01*
X236112380Y-95173333D01*
X236064761Y-95078095D01*
X236017142Y-95030476D01*
X235445714Y-96506666D02*
X236112380Y-96506666D01*
X235064761Y-96268571D02*
X235779047Y-96030476D01*
X235779047Y-96649523D01*
%TO.C,JP9*%
X112702380Y-76166666D02*
X113416666Y-76166666D01*
X113559523Y-76119047D01*
X113654761Y-76023809D01*
X113702380Y-75880952D01*
X113702380Y-75785714D01*
X113702380Y-76642857D02*
X112702380Y-76642857D01*
X112702380Y-77023809D01*
X112750000Y-77119047D01*
X112797619Y-77166666D01*
X112892857Y-77214285D01*
X113035714Y-77214285D01*
X113130952Y-77166666D01*
X113178571Y-77119047D01*
X113226190Y-77023809D01*
X113226190Y-76642857D01*
X113702380Y-77690476D02*
X113702380Y-77880952D01*
X113654761Y-77976190D01*
X113607142Y-78023809D01*
X113464285Y-78119047D01*
X113273809Y-78166666D01*
X112892857Y-78166666D01*
X112797619Y-78119047D01*
X112750000Y-78071428D01*
X112702380Y-77976190D01*
X112702380Y-77785714D01*
X112750000Y-77690476D01*
X112797619Y-77642857D01*
X112892857Y-77595238D01*
X113130952Y-77595238D01*
X113226190Y-77642857D01*
X113273809Y-77690476D01*
X113321428Y-77785714D01*
X113321428Y-77976190D01*
X113273809Y-78071428D01*
X113226190Y-78119047D01*
X113130952Y-78166666D01*
%TO.C,JP10*%
X212252380Y-101690476D02*
X212966666Y-101690476D01*
X213109523Y-101642857D01*
X213204761Y-101547619D01*
X213252380Y-101404761D01*
X213252380Y-101309523D01*
X213252380Y-102166666D02*
X212252380Y-102166666D01*
X212252380Y-102547619D01*
X212300000Y-102642857D01*
X212347619Y-102690476D01*
X212442857Y-102738095D01*
X212585714Y-102738095D01*
X212680952Y-102690476D01*
X212728571Y-102642857D01*
X212776190Y-102547619D01*
X212776190Y-102166666D01*
X213252380Y-103690476D02*
X213252380Y-103119047D01*
X213252380Y-103404761D02*
X212252380Y-103404761D01*
X212395238Y-103309523D01*
X212490476Y-103214285D01*
X212538095Y-103119047D01*
X212252380Y-104309523D02*
X212252380Y-104404761D01*
X212300000Y-104500000D01*
X212347619Y-104547619D01*
X212442857Y-104595238D01*
X212633333Y-104642857D01*
X212871428Y-104642857D01*
X213061904Y-104595238D01*
X213157142Y-104547619D01*
X213204761Y-104500000D01*
X213252380Y-104404761D01*
X213252380Y-104309523D01*
X213204761Y-104214285D01*
X213157142Y-104166666D01*
X213061904Y-104119047D01*
X212871428Y-104071428D01*
X212633333Y-104071428D01*
X212442857Y-104119047D01*
X212347619Y-104166666D01*
X212300000Y-104214285D01*
X212252380Y-104309523D01*
%TO.C,P1*%
X112738095Y-226452380D02*
X112738095Y-225452380D01*
X112357142Y-225452380D01*
X112261904Y-225500000D01*
X112214285Y-225547619D01*
X112166666Y-225642857D01*
X112166666Y-225785714D01*
X112214285Y-225880952D01*
X112261904Y-225928571D01*
X112357142Y-225976190D01*
X112738095Y-225976190D01*
X111214285Y-226452380D02*
X111785714Y-226452380D01*
X111500000Y-226452380D02*
X111500000Y-225452380D01*
X111595238Y-225595238D01*
X111690476Y-225690476D01*
X111785714Y-225738095D01*
%TO.C,P2*%
X186738095Y-226452380D02*
X186738095Y-225452380D01*
X186357142Y-225452380D01*
X186261904Y-225500000D01*
X186214285Y-225547619D01*
X186166666Y-225642857D01*
X186166666Y-225785714D01*
X186214285Y-225880952D01*
X186261904Y-225928571D01*
X186357142Y-225976190D01*
X186738095Y-225976190D01*
X185785714Y-225547619D02*
X185738095Y-225500000D01*
X185642857Y-225452380D01*
X185404761Y-225452380D01*
X185309523Y-225500000D01*
X185261904Y-225547619D01*
X185214285Y-225642857D01*
X185214285Y-225738095D01*
X185261904Y-225880952D01*
X185833333Y-226452380D01*
X185214285Y-226452380D01*
%TO.C,Q1*%
X156047640Y-82707161D02*
X156000021Y-82611923D01*
X155904782Y-82516685D01*
X155761925Y-82373828D01*
X155714306Y-82278590D01*
X155714306Y-82183352D01*
X155952401Y-82230971D02*
X155904782Y-82135733D01*
X155809544Y-82040495D01*
X155619068Y-81992876D01*
X155285735Y-81992876D01*
X155095259Y-82040495D01*
X155000021Y-82135733D01*
X154952401Y-82230971D01*
X154952401Y-82421447D01*
X155000021Y-82516685D01*
X155095259Y-82611923D01*
X155285735Y-82659542D01*
X155619068Y-82659542D01*
X155809544Y-82611923D01*
X155904782Y-82516685D01*
X155952401Y-82421447D01*
X155952401Y-82230971D01*
X155952401Y-83611923D02*
X155952401Y-83040495D01*
X155952401Y-83326209D02*
X154952401Y-83326209D01*
X155095259Y-83230971D01*
X155190497Y-83135733D01*
X155238116Y-83040495D01*
%TO.C,R8*%
X132956666Y-88192380D02*
X133290000Y-87716190D01*
X133528095Y-88192380D02*
X133528095Y-87192380D01*
X133147142Y-87192380D01*
X133051904Y-87240000D01*
X133004285Y-87287619D01*
X132956666Y-87382857D01*
X132956666Y-87525714D01*
X133004285Y-87620952D01*
X133051904Y-87668571D01*
X133147142Y-87716190D01*
X133528095Y-87716190D01*
X132385238Y-87620952D02*
X132480476Y-87573333D01*
X132528095Y-87525714D01*
X132575714Y-87430476D01*
X132575714Y-87382857D01*
X132528095Y-87287619D01*
X132480476Y-87240000D01*
X132385238Y-87192380D01*
X132194761Y-87192380D01*
X132099523Y-87240000D01*
X132051904Y-87287619D01*
X132004285Y-87382857D01*
X132004285Y-87430476D01*
X132051904Y-87525714D01*
X132099523Y-87573333D01*
X132194761Y-87620952D01*
X132385238Y-87620952D01*
X132480476Y-87668571D01*
X132528095Y-87716190D01*
X132575714Y-87811428D01*
X132575714Y-88001904D01*
X132528095Y-88097142D01*
X132480476Y-88144761D01*
X132385238Y-88192380D01*
X132194761Y-88192380D01*
X132099523Y-88144761D01*
X132051904Y-88097142D01*
X132004285Y-88001904D01*
X132004285Y-87811428D01*
X132051904Y-87716190D01*
X132099523Y-87668571D01*
X132194761Y-87620952D01*
%TO.C,R9*%
X143116666Y-88172380D02*
X143450000Y-87696190D01*
X143688095Y-88172380D02*
X143688095Y-87172380D01*
X143307142Y-87172380D01*
X143211904Y-87220000D01*
X143164285Y-87267619D01*
X143116666Y-87362857D01*
X143116666Y-87505714D01*
X143164285Y-87600952D01*
X143211904Y-87648571D01*
X143307142Y-87696190D01*
X143688095Y-87696190D01*
X142640476Y-88172380D02*
X142450000Y-88172380D01*
X142354761Y-88124761D01*
X142307142Y-88077142D01*
X142211904Y-87934285D01*
X142164285Y-87743809D01*
X142164285Y-87362857D01*
X142211904Y-87267619D01*
X142259523Y-87220000D01*
X142354761Y-87172380D01*
X142545238Y-87172380D01*
X142640476Y-87220000D01*
X142688095Y-87267619D01*
X142735714Y-87362857D01*
X142735714Y-87600952D01*
X142688095Y-87696190D01*
X142640476Y-87743809D01*
X142545238Y-87791428D01*
X142354761Y-87791428D01*
X142259523Y-87743809D01*
X142211904Y-87696190D01*
X142164285Y-87600952D01*
%TO.C,R10*%
X143592857Y-82042380D02*
X143926190Y-81566190D01*
X144164285Y-82042380D02*
X144164285Y-81042380D01*
X143783333Y-81042380D01*
X143688095Y-81090000D01*
X143640476Y-81137619D01*
X143592857Y-81232857D01*
X143592857Y-81375714D01*
X143640476Y-81470952D01*
X143688095Y-81518571D01*
X143783333Y-81566190D01*
X144164285Y-81566190D01*
X142640476Y-82042380D02*
X143211904Y-82042380D01*
X142926190Y-82042380D02*
X142926190Y-81042380D01*
X143021428Y-81185238D01*
X143116666Y-81280476D01*
X143211904Y-81328095D01*
X142021428Y-81042380D02*
X141926190Y-81042380D01*
X141830952Y-81090000D01*
X141783333Y-81137619D01*
X141735714Y-81232857D01*
X141688095Y-81423333D01*
X141688095Y-81661428D01*
X141735714Y-81851904D01*
X141783333Y-81947142D01*
X141830952Y-81994761D01*
X141926190Y-82042380D01*
X142021428Y-82042380D01*
X142116666Y-81994761D01*
X142164285Y-81947142D01*
X142211904Y-81851904D01*
X142259523Y-81661428D01*
X142259523Y-81423333D01*
X142211904Y-81232857D01*
X142164285Y-81137619D01*
X142116666Y-81090000D01*
X142021428Y-81042380D01*
%TO.C,R11*%
X133432857Y-82042380D02*
X133766190Y-81566190D01*
X134004285Y-82042380D02*
X134004285Y-81042380D01*
X133623333Y-81042380D01*
X133528095Y-81090000D01*
X133480476Y-81137619D01*
X133432857Y-81232857D01*
X133432857Y-81375714D01*
X133480476Y-81470952D01*
X133528095Y-81518571D01*
X133623333Y-81566190D01*
X134004285Y-81566190D01*
X132480476Y-82042380D02*
X133051904Y-82042380D01*
X132766190Y-82042380D02*
X132766190Y-81042380D01*
X132861428Y-81185238D01*
X132956666Y-81280476D01*
X133051904Y-81328095D01*
X131528095Y-82042380D02*
X132099523Y-82042380D01*
X131813809Y-82042380D02*
X131813809Y-81042380D01*
X131909047Y-81185238D01*
X132004285Y-81280476D01*
X132099523Y-81328095D01*
%TO.C,R12*%
X133432857Y-75472380D02*
X133766190Y-74996190D01*
X134004285Y-75472380D02*
X134004285Y-74472380D01*
X133623333Y-74472380D01*
X133528095Y-74520000D01*
X133480476Y-74567619D01*
X133432857Y-74662857D01*
X133432857Y-74805714D01*
X133480476Y-74900952D01*
X133528095Y-74948571D01*
X133623333Y-74996190D01*
X134004285Y-74996190D01*
X132480476Y-75472380D02*
X133051904Y-75472380D01*
X132766190Y-75472380D02*
X132766190Y-74472380D01*
X132861428Y-74615238D01*
X132956666Y-74710476D01*
X133051904Y-74758095D01*
X132099523Y-74567619D02*
X132051904Y-74520000D01*
X131956666Y-74472380D01*
X131718571Y-74472380D01*
X131623333Y-74520000D01*
X131575714Y-74567619D01*
X131528095Y-74662857D01*
X131528095Y-74758095D01*
X131575714Y-74900952D01*
X132147142Y-75472380D01*
X131528095Y-75472380D01*
%TO.C,R13*%
X143592857Y-75512380D02*
X143926190Y-75036190D01*
X144164285Y-75512380D02*
X144164285Y-74512380D01*
X143783333Y-74512380D01*
X143688095Y-74560000D01*
X143640476Y-74607619D01*
X143592857Y-74702857D01*
X143592857Y-74845714D01*
X143640476Y-74940952D01*
X143688095Y-74988571D01*
X143783333Y-75036190D01*
X144164285Y-75036190D01*
X142640476Y-75512380D02*
X143211904Y-75512380D01*
X142926190Y-75512380D02*
X142926190Y-74512380D01*
X143021428Y-74655238D01*
X143116666Y-74750476D01*
X143211904Y-74798095D01*
X142307142Y-74512380D02*
X141688095Y-74512380D01*
X142021428Y-74893333D01*
X141878571Y-74893333D01*
X141783333Y-74940952D01*
X141735714Y-74988571D01*
X141688095Y-75083809D01*
X141688095Y-75321904D01*
X141735714Y-75417142D01*
X141783333Y-75464761D01*
X141878571Y-75512380D01*
X142164285Y-75512380D01*
X142259523Y-75464761D01*
X142307142Y-75417142D01*
%TO.C,R15*%
X69452857Y-90452380D02*
X69786190Y-89976190D01*
X70024285Y-90452380D02*
X70024285Y-89452380D01*
X69643333Y-89452380D01*
X69548095Y-89500000D01*
X69500476Y-89547619D01*
X69452857Y-89642857D01*
X69452857Y-89785714D01*
X69500476Y-89880952D01*
X69548095Y-89928571D01*
X69643333Y-89976190D01*
X70024285Y-89976190D01*
X68500476Y-90452380D02*
X69071904Y-90452380D01*
X68786190Y-90452380D02*
X68786190Y-89452380D01*
X68881428Y-89595238D01*
X68976666Y-89690476D01*
X69071904Y-89738095D01*
X67595714Y-89452380D02*
X68071904Y-89452380D01*
X68119523Y-89928571D01*
X68071904Y-89880952D01*
X67976666Y-89833333D01*
X67738571Y-89833333D01*
X67643333Y-89880952D01*
X67595714Y-89928571D01*
X67548095Y-90023809D01*
X67548095Y-90261904D01*
X67595714Y-90357142D01*
X67643333Y-90404761D01*
X67738571Y-90452380D01*
X67976666Y-90452380D01*
X68071904Y-90404761D01*
X68119523Y-90357142D01*
%TO.C,R17*%
X79452857Y-90452380D02*
X79786190Y-89976190D01*
X80024285Y-90452380D02*
X80024285Y-89452380D01*
X79643333Y-89452380D01*
X79548095Y-89500000D01*
X79500476Y-89547619D01*
X79452857Y-89642857D01*
X79452857Y-89785714D01*
X79500476Y-89880952D01*
X79548095Y-89928571D01*
X79643333Y-89976190D01*
X80024285Y-89976190D01*
X78500476Y-90452380D02*
X79071904Y-90452380D01*
X78786190Y-90452380D02*
X78786190Y-89452380D01*
X78881428Y-89595238D01*
X78976666Y-89690476D01*
X79071904Y-89738095D01*
X78167142Y-89452380D02*
X77500476Y-89452380D01*
X77929047Y-90452380D01*
%TO.C,R18*%
X89452857Y-90452380D02*
X89786190Y-89976190D01*
X90024285Y-90452380D02*
X90024285Y-89452380D01*
X89643333Y-89452380D01*
X89548095Y-89500000D01*
X89500476Y-89547619D01*
X89452857Y-89642857D01*
X89452857Y-89785714D01*
X89500476Y-89880952D01*
X89548095Y-89928571D01*
X89643333Y-89976190D01*
X90024285Y-89976190D01*
X88500476Y-90452380D02*
X89071904Y-90452380D01*
X88786190Y-90452380D02*
X88786190Y-89452380D01*
X88881428Y-89595238D01*
X88976666Y-89690476D01*
X89071904Y-89738095D01*
X87929047Y-89880952D02*
X88024285Y-89833333D01*
X88071904Y-89785714D01*
X88119523Y-89690476D01*
X88119523Y-89642857D01*
X88071904Y-89547619D01*
X88024285Y-89500000D01*
X87929047Y-89452380D01*
X87738571Y-89452380D01*
X87643333Y-89500000D01*
X87595714Y-89547619D01*
X87548095Y-89642857D01*
X87548095Y-89690476D01*
X87595714Y-89785714D01*
X87643333Y-89833333D01*
X87738571Y-89880952D01*
X87929047Y-89880952D01*
X88024285Y-89928571D01*
X88071904Y-89976190D01*
X88119523Y-90071428D01*
X88119523Y-90261904D01*
X88071904Y-90357142D01*
X88024285Y-90404761D01*
X87929047Y-90452380D01*
X87738571Y-90452380D01*
X87643333Y-90404761D01*
X87595714Y-90357142D01*
X87548095Y-90261904D01*
X87548095Y-90071428D01*
X87595714Y-89976190D01*
X87643333Y-89928571D01*
X87738571Y-89880952D01*
%TO.C,SP1*%
X203901904Y-83084761D02*
X203759047Y-83132380D01*
X203520952Y-83132380D01*
X203425714Y-83084761D01*
X203378095Y-83037142D01*
X203330476Y-82941904D01*
X203330476Y-82846666D01*
X203378095Y-82751428D01*
X203425714Y-82703809D01*
X203520952Y-82656190D01*
X203711428Y-82608571D01*
X203806666Y-82560952D01*
X203854285Y-82513333D01*
X203901904Y-82418095D01*
X203901904Y-82322857D01*
X203854285Y-82227619D01*
X203806666Y-82180000D01*
X203711428Y-82132380D01*
X203473333Y-82132380D01*
X203330476Y-82180000D01*
X202901904Y-83132380D02*
X202901904Y-82132380D01*
X202520952Y-82132380D01*
X202425714Y-82180000D01*
X202378095Y-82227619D01*
X202330476Y-82322857D01*
X202330476Y-82465714D01*
X202378095Y-82560952D01*
X202425714Y-82608571D01*
X202520952Y-82656190D01*
X202901904Y-82656190D01*
X201378095Y-83132380D02*
X201949523Y-83132380D01*
X201663809Y-83132380D02*
X201663809Y-82132380D01*
X201759047Y-82275238D01*
X201854285Y-82370476D01*
X201949523Y-82418095D01*
%TO.C,SW1*%
X122403333Y-79684761D02*
X122260476Y-79732380D01*
X122022380Y-79732380D01*
X121927142Y-79684761D01*
X121879523Y-79637142D01*
X121831904Y-79541904D01*
X121831904Y-79446666D01*
X121879523Y-79351428D01*
X121927142Y-79303809D01*
X122022380Y-79256190D01*
X122212857Y-79208571D01*
X122308095Y-79160952D01*
X122355714Y-79113333D01*
X122403333Y-79018095D01*
X122403333Y-78922857D01*
X122355714Y-78827619D01*
X122308095Y-78780000D01*
X122212857Y-78732380D01*
X121974761Y-78732380D01*
X121831904Y-78780000D01*
X121498571Y-78732380D02*
X121260476Y-79732380D01*
X121070000Y-79018095D01*
X120879523Y-79732380D01*
X120641428Y-78732380D01*
X119736666Y-79732380D02*
X120308095Y-79732380D01*
X120022380Y-79732380D02*
X120022380Y-78732380D01*
X120117619Y-78875238D01*
X120212857Y-78970476D01*
X120308095Y-79018095D01*
%TO.C,U24*%
X235882380Y-207891904D02*
X236691904Y-207891904D01*
X236787142Y-207939523D01*
X236834761Y-207987142D01*
X236882380Y-208082380D01*
X236882380Y-208272857D01*
X236834761Y-208368095D01*
X236787142Y-208415714D01*
X236691904Y-208463333D01*
X235882380Y-208463333D01*
X235977619Y-208891904D02*
X235930000Y-208939523D01*
X235882380Y-209034761D01*
X235882380Y-209272857D01*
X235930000Y-209368095D01*
X235977619Y-209415714D01*
X236072857Y-209463333D01*
X236168095Y-209463333D01*
X236310952Y-209415714D01*
X236882380Y-208844285D01*
X236882380Y-209463333D01*
X236215714Y-210320476D02*
X236882380Y-210320476D01*
X235834761Y-210082380D02*
X236549047Y-209844285D01*
X236549047Y-210463333D01*
%TO.C,U26*%
X247807380Y-94131904D02*
X248616904Y-94131904D01*
X248712142Y-94179523D01*
X248759761Y-94227142D01*
X248807380Y-94322380D01*
X248807380Y-94512857D01*
X248759761Y-94608095D01*
X248712142Y-94655714D01*
X248616904Y-94703333D01*
X247807380Y-94703333D01*
X247902619Y-95131904D02*
X247855000Y-95179523D01*
X247807380Y-95274761D01*
X247807380Y-95512857D01*
X247855000Y-95608095D01*
X247902619Y-95655714D01*
X247997857Y-95703333D01*
X248093095Y-95703333D01*
X248235952Y-95655714D01*
X248807380Y-95084285D01*
X248807380Y-95703333D01*
X247807380Y-96560476D02*
X247807380Y-96370000D01*
X247855000Y-96274761D01*
X247902619Y-96227142D01*
X248045476Y-96131904D01*
X248235952Y-96084285D01*
X248616904Y-96084285D01*
X248712142Y-96131904D01*
X248759761Y-96179523D01*
X248807380Y-96274761D01*
X248807380Y-96465238D01*
X248759761Y-96560476D01*
X248712142Y-96608095D01*
X248616904Y-96655714D01*
X248378809Y-96655714D01*
X248283571Y-96608095D01*
X248235952Y-96560476D01*
X248188333Y-96465238D01*
X248188333Y-96274761D01*
X248235952Y-96179523D01*
X248283571Y-96131904D01*
X248378809Y-96084285D01*
%TO.C,U27*%
X230042380Y-78771904D02*
X230851904Y-78771904D01*
X230947142Y-78819523D01*
X230994761Y-78867142D01*
X231042380Y-78962380D01*
X231042380Y-79152857D01*
X230994761Y-79248095D01*
X230947142Y-79295714D01*
X230851904Y-79343333D01*
X230042380Y-79343333D01*
X230137619Y-79771904D02*
X230090000Y-79819523D01*
X230042380Y-79914761D01*
X230042380Y-80152857D01*
X230090000Y-80248095D01*
X230137619Y-80295714D01*
X230232857Y-80343333D01*
X230328095Y-80343333D01*
X230470952Y-80295714D01*
X231042380Y-79724285D01*
X231042380Y-80343333D01*
X230042380Y-80676666D02*
X230042380Y-81343333D01*
X231042380Y-80914761D01*
%TO.C,U28*%
X247807380Y-78771904D02*
X248616904Y-78771904D01*
X248712142Y-78819523D01*
X248759761Y-78867142D01*
X248807380Y-78962380D01*
X248807380Y-79152857D01*
X248759761Y-79248095D01*
X248712142Y-79295714D01*
X248616904Y-79343333D01*
X247807380Y-79343333D01*
X247902619Y-79771904D02*
X247855000Y-79819523D01*
X247807380Y-79914761D01*
X247807380Y-80152857D01*
X247855000Y-80248095D01*
X247902619Y-80295714D01*
X247997857Y-80343333D01*
X248093095Y-80343333D01*
X248235952Y-80295714D01*
X248807380Y-79724285D01*
X248807380Y-80343333D01*
X248235952Y-80914761D02*
X248188333Y-80819523D01*
X248140714Y-80771904D01*
X248045476Y-80724285D01*
X247997857Y-80724285D01*
X247902619Y-80771904D01*
X247855000Y-80819523D01*
X247807380Y-80914761D01*
X247807380Y-81105238D01*
X247855000Y-81200476D01*
X247902619Y-81248095D01*
X247997857Y-81295714D01*
X248045476Y-81295714D01*
X248140714Y-81248095D01*
X248188333Y-81200476D01*
X248235952Y-81105238D01*
X248235952Y-80914761D01*
X248283571Y-80819523D01*
X248331190Y-80771904D01*
X248426428Y-80724285D01*
X248616904Y-80724285D01*
X248712142Y-80771904D01*
X248759761Y-80819523D01*
X248807380Y-80914761D01*
X248807380Y-81105238D01*
X248759761Y-81200476D01*
X248712142Y-81248095D01*
X248616904Y-81295714D01*
X248426428Y-81295714D01*
X248331190Y-81248095D01*
X248283571Y-81200476D01*
X248235952Y-81105238D01*
D11*
%TO.C,X1*%
X226687619Y-87271904D02*
X226154285Y-88071904D01*
X226154285Y-87271904D02*
X226687619Y-88071904D01*
X225430476Y-88071904D02*
X225887619Y-88071904D01*
X225659047Y-88071904D02*
X225659047Y-87271904D01*
X225735238Y-87386190D01*
X225811428Y-87462380D01*
X225887619Y-87500476D01*
D10*
%TO.C,U14*%
X200882380Y-207891904D02*
X201691904Y-207891904D01*
X201787142Y-207939523D01*
X201834761Y-207987142D01*
X201882380Y-208082380D01*
X201882380Y-208272857D01*
X201834761Y-208368095D01*
X201787142Y-208415714D01*
X201691904Y-208463333D01*
X200882380Y-208463333D01*
X201882380Y-209463333D02*
X201882380Y-208891904D01*
X201882380Y-209177619D02*
X200882380Y-209177619D01*
X201025238Y-209082380D01*
X201120476Y-208987142D01*
X201168095Y-208891904D01*
X201215714Y-210320476D02*
X201882380Y-210320476D01*
X200834761Y-210082380D02*
X201549047Y-209844285D01*
X201549047Y-210463333D01*
%TO.C,JP4*%
X199472380Y-183446666D02*
X200186666Y-183446666D01*
X200329523Y-183399047D01*
X200424761Y-183303809D01*
X200472380Y-183160952D01*
X200472380Y-183065714D01*
X200472380Y-183922857D02*
X199472380Y-183922857D01*
X199472380Y-184303809D01*
X199520000Y-184399047D01*
X199567619Y-184446666D01*
X199662857Y-184494285D01*
X199805714Y-184494285D01*
X199900952Y-184446666D01*
X199948571Y-184399047D01*
X199996190Y-184303809D01*
X199996190Y-183922857D01*
X199805714Y-185351428D02*
X200472380Y-185351428D01*
X199424761Y-185113333D02*
X200139047Y-184875238D01*
X200139047Y-185494285D01*
%TO.C,JP5*%
X199472380Y-163126666D02*
X200186666Y-163126666D01*
X200329523Y-163079047D01*
X200424761Y-162983809D01*
X200472380Y-162840952D01*
X200472380Y-162745714D01*
X200472380Y-163602857D02*
X199472380Y-163602857D01*
X199472380Y-163983809D01*
X199520000Y-164079047D01*
X199567619Y-164126666D01*
X199662857Y-164174285D01*
X199805714Y-164174285D01*
X199900952Y-164126666D01*
X199948571Y-164079047D01*
X199996190Y-163983809D01*
X199996190Y-163602857D01*
X199472380Y-165079047D02*
X199472380Y-164602857D01*
X199948571Y-164555238D01*
X199900952Y-164602857D01*
X199853333Y-164698095D01*
X199853333Y-164936190D01*
X199900952Y-165031428D01*
X199948571Y-165079047D01*
X200043809Y-165126666D01*
X200281904Y-165126666D01*
X200377142Y-165079047D01*
X200424761Y-165031428D01*
X200472380Y-164936190D01*
X200472380Y-164698095D01*
X200424761Y-164602857D01*
X200377142Y-164555238D01*
%TO.C,K5*%
X203092380Y-168301904D02*
X202092380Y-168301904D01*
X203092380Y-168873333D02*
X202520952Y-168444761D01*
X202092380Y-168873333D02*
X202663809Y-168301904D01*
X202092380Y-169778095D02*
X202092380Y-169301904D01*
X202568571Y-169254285D01*
X202520952Y-169301904D01*
X202473333Y-169397142D01*
X202473333Y-169635238D01*
X202520952Y-169730476D01*
X202568571Y-169778095D01*
X202663809Y-169825714D01*
X202901904Y-169825714D01*
X202997142Y-169778095D01*
X203044761Y-169730476D01*
X203092380Y-169635238D01*
X203092380Y-169397142D01*
X203044761Y-169301904D01*
X202997142Y-169254285D01*
%TO.C,JP6*%
X199472380Y-158046666D02*
X200186666Y-158046666D01*
X200329523Y-157999047D01*
X200424761Y-157903809D01*
X200472380Y-157760952D01*
X200472380Y-157665714D01*
X200472380Y-158522857D02*
X199472380Y-158522857D01*
X199472380Y-158903809D01*
X199520000Y-158999047D01*
X199567619Y-159046666D01*
X199662857Y-159094285D01*
X199805714Y-159094285D01*
X199900952Y-159046666D01*
X199948571Y-158999047D01*
X199996190Y-158903809D01*
X199996190Y-158522857D01*
X199472380Y-159951428D02*
X199472380Y-159760952D01*
X199520000Y-159665714D01*
X199567619Y-159618095D01*
X199710476Y-159522857D01*
X199900952Y-159475238D01*
X200281904Y-159475238D01*
X200377142Y-159522857D01*
X200424761Y-159570476D01*
X200472380Y-159665714D01*
X200472380Y-159856190D01*
X200424761Y-159951428D01*
X200377142Y-159999047D01*
X200281904Y-160046666D01*
X200043809Y-160046666D01*
X199948571Y-159999047D01*
X199900952Y-159951428D01*
X199853333Y-159856190D01*
X199853333Y-159665714D01*
X199900952Y-159570476D01*
X199948571Y-159522857D01*
X200043809Y-159475238D01*
%TO.C,JP1*%
X199472380Y-188526666D02*
X200186666Y-188526666D01*
X200329523Y-188479047D01*
X200424761Y-188383809D01*
X200472380Y-188240952D01*
X200472380Y-188145714D01*
X200472380Y-189002857D02*
X199472380Y-189002857D01*
X199472380Y-189383809D01*
X199520000Y-189479047D01*
X199567619Y-189526666D01*
X199662857Y-189574285D01*
X199805714Y-189574285D01*
X199900952Y-189526666D01*
X199948571Y-189479047D01*
X199996190Y-189383809D01*
X199996190Y-189002857D01*
X200472380Y-190526666D02*
X200472380Y-189955238D01*
X200472380Y-190240952D02*
X199472380Y-190240952D01*
X199615238Y-190145714D01*
X199710476Y-190050476D01*
X199758095Y-189955238D01*
%TO.C,C7*%
X184986666Y-182097142D02*
X185034285Y-182144761D01*
X185177142Y-182192380D01*
X185272380Y-182192380D01*
X185415238Y-182144761D01*
X185510476Y-182049523D01*
X185558095Y-181954285D01*
X185605714Y-181763809D01*
X185605714Y-181620952D01*
X185558095Y-181430476D01*
X185510476Y-181335238D01*
X185415238Y-181240000D01*
X185272380Y-181192380D01*
X185177142Y-181192380D01*
X185034285Y-181240000D01*
X184986666Y-181287619D01*
X184653333Y-181192380D02*
X183986666Y-181192380D01*
X184415238Y-182192380D01*
%TO.C,K1*%
X203092380Y-193701904D02*
X202092380Y-193701904D01*
X203092380Y-194273333D02*
X202520952Y-193844761D01*
X202092380Y-194273333D02*
X202663809Y-193701904D01*
X203092380Y-195225714D02*
X203092380Y-194654285D01*
X203092380Y-194940000D02*
X202092380Y-194940000D01*
X202235238Y-194844761D01*
X202330476Y-194749523D01*
X202378095Y-194654285D01*
%TO.C,U5*%
X184322380Y-188588095D02*
X185131904Y-188588095D01*
X185227142Y-188635714D01*
X185274761Y-188683333D01*
X185322380Y-188778571D01*
X185322380Y-188969047D01*
X185274761Y-189064285D01*
X185227142Y-189111904D01*
X185131904Y-189159523D01*
X184322380Y-189159523D01*
X184322380Y-190111904D02*
X184322380Y-189635714D01*
X184798571Y-189588095D01*
X184750952Y-189635714D01*
X184703333Y-189730952D01*
X184703333Y-189969047D01*
X184750952Y-190064285D01*
X184798571Y-190111904D01*
X184893809Y-190159523D01*
X185131904Y-190159523D01*
X185227142Y-190111904D01*
X185274761Y-190064285D01*
X185322380Y-189969047D01*
X185322380Y-189730952D01*
X185274761Y-189635714D01*
X185227142Y-189588095D01*
%TO.C,U13*%
X184322380Y-162711904D02*
X185131904Y-162711904D01*
X185227142Y-162759523D01*
X185274761Y-162807142D01*
X185322380Y-162902380D01*
X185322380Y-163092857D01*
X185274761Y-163188095D01*
X185227142Y-163235714D01*
X185131904Y-163283333D01*
X184322380Y-163283333D01*
X185322380Y-164283333D02*
X185322380Y-163711904D01*
X185322380Y-163997619D02*
X184322380Y-163997619D01*
X184465238Y-163902380D01*
X184560476Y-163807142D01*
X184608095Y-163711904D01*
X184322380Y-164616666D02*
X184322380Y-165235714D01*
X184703333Y-164902380D01*
X184703333Y-165045238D01*
X184750952Y-165140476D01*
X184798571Y-165188095D01*
X184893809Y-165235714D01*
X185131904Y-165235714D01*
X185227142Y-165188095D01*
X185274761Y-165140476D01*
X185322380Y-165045238D01*
X185322380Y-164759523D01*
X185274761Y-164664285D01*
X185227142Y-164616666D01*
%TO.C,JP2*%
X184478333Y-100007380D02*
X184478333Y-100721666D01*
X184525952Y-100864523D01*
X184621190Y-100959761D01*
X184764047Y-101007380D01*
X184859285Y-101007380D01*
X184002142Y-101007380D02*
X184002142Y-100007380D01*
X183621190Y-100007380D01*
X183525952Y-100055000D01*
X183478333Y-100102619D01*
X183430714Y-100197857D01*
X183430714Y-100340714D01*
X183478333Y-100435952D01*
X183525952Y-100483571D01*
X183621190Y-100531190D01*
X184002142Y-100531190D01*
X183049761Y-100102619D02*
X183002142Y-100055000D01*
X182906904Y-100007380D01*
X182668809Y-100007380D01*
X182573571Y-100055000D01*
X182525952Y-100102619D01*
X182478333Y-100197857D01*
X182478333Y-100293095D01*
X182525952Y-100435952D01*
X183097380Y-101007380D01*
X182478333Y-101007380D01*
%TO.C,D6*%
X157191904Y-73512380D02*
X157191904Y-72512380D01*
X156620476Y-73512380D02*
X157049047Y-72940952D01*
X156620476Y-72512380D02*
X157191904Y-73083809D01*
D11*
X153410476Y-75421904D02*
X153410476Y-74621904D01*
X153220000Y-74621904D01*
X153105714Y-74660000D01*
X153029523Y-74736190D01*
X152991428Y-74812380D01*
X152953333Y-74964761D01*
X152953333Y-75079047D01*
X152991428Y-75231428D01*
X153029523Y-75307619D01*
X153105714Y-75383809D01*
X153220000Y-75421904D01*
X153410476Y-75421904D01*
X152267619Y-74621904D02*
X152420000Y-74621904D01*
X152496190Y-74660000D01*
X152534285Y-74698095D01*
X152610476Y-74812380D01*
X152648571Y-74964761D01*
X152648571Y-75269523D01*
X152610476Y-75345714D01*
X152572380Y-75383809D01*
X152496190Y-75421904D01*
X152343809Y-75421904D01*
X152267619Y-75383809D01*
X152229523Y-75345714D01*
X152191428Y-75269523D01*
X152191428Y-75079047D01*
X152229523Y-75002857D01*
X152267619Y-74964761D01*
X152343809Y-74926666D01*
X152496190Y-74926666D01*
X152572380Y-74964761D01*
X152610476Y-75002857D01*
X152648571Y-75079047D01*
D10*
%TO.C,C6*%
X220357142Y-210273333D02*
X220404761Y-210225714D01*
X220452380Y-210082857D01*
X220452380Y-209987619D01*
X220404761Y-209844761D01*
X220309523Y-209749523D01*
X220214285Y-209701904D01*
X220023809Y-209654285D01*
X219880952Y-209654285D01*
X219690476Y-209701904D01*
X219595238Y-209749523D01*
X219500000Y-209844761D01*
X219452380Y-209987619D01*
X219452380Y-210082857D01*
X219500000Y-210225714D01*
X219547619Y-210273333D01*
X219452380Y-211130476D02*
X219452380Y-210940000D01*
X219500000Y-210844761D01*
X219547619Y-210797142D01*
X219690476Y-210701904D01*
X219880952Y-210654285D01*
X220261904Y-210654285D01*
X220357142Y-210701904D01*
X220404761Y-210749523D01*
X220452380Y-210844761D01*
X220452380Y-211035238D01*
X220404761Y-211130476D01*
X220357142Y-211178095D01*
X220261904Y-211225714D01*
X220023809Y-211225714D01*
X219928571Y-211178095D01*
X219880952Y-211130476D01*
X219833333Y-211035238D01*
X219833333Y-210844761D01*
X219880952Y-210749523D01*
X219928571Y-210701904D01*
X220023809Y-210654285D01*
%TO.C,C13*%
X185462857Y-156697142D02*
X185510476Y-156744761D01*
X185653333Y-156792380D01*
X185748571Y-156792380D01*
X185891428Y-156744761D01*
X185986666Y-156649523D01*
X186034285Y-156554285D01*
X186081904Y-156363809D01*
X186081904Y-156220952D01*
X186034285Y-156030476D01*
X185986666Y-155935238D01*
X185891428Y-155840000D01*
X185748571Y-155792380D01*
X185653333Y-155792380D01*
X185510476Y-155840000D01*
X185462857Y-155887619D01*
X184510476Y-156792380D02*
X185081904Y-156792380D01*
X184796190Y-156792380D02*
X184796190Y-155792380D01*
X184891428Y-155935238D01*
X184986666Y-156030476D01*
X185081904Y-156078095D01*
X184177142Y-155792380D02*
X183558095Y-155792380D01*
X183891428Y-156173333D01*
X183748571Y-156173333D01*
X183653333Y-156220952D01*
X183605714Y-156268571D01*
X183558095Y-156363809D01*
X183558095Y-156601904D01*
X183605714Y-156697142D01*
X183653333Y-156744761D01*
X183748571Y-156792380D01*
X184034285Y-156792380D01*
X184129523Y-156744761D01*
X184177142Y-156697142D01*
%TO.C,C17*%
X226102857Y-126217142D02*
X226150476Y-126264761D01*
X226293333Y-126312380D01*
X226388571Y-126312380D01*
X226531428Y-126264761D01*
X226626666Y-126169523D01*
X226674285Y-126074285D01*
X226721904Y-125883809D01*
X226721904Y-125740952D01*
X226674285Y-125550476D01*
X226626666Y-125455238D01*
X226531428Y-125360000D01*
X226388571Y-125312380D01*
X226293333Y-125312380D01*
X226150476Y-125360000D01*
X226102857Y-125407619D01*
X225150476Y-126312380D02*
X225721904Y-126312380D01*
X225436190Y-126312380D02*
X225436190Y-125312380D01*
X225531428Y-125455238D01*
X225626666Y-125550476D01*
X225721904Y-125598095D01*
X224817142Y-125312380D02*
X224150476Y-125312380D01*
X224579047Y-126312380D01*
%TO.C,U29*%
X61612380Y-172831904D02*
X62421904Y-172831904D01*
X62517142Y-172879523D01*
X62564761Y-172927142D01*
X62612380Y-173022380D01*
X62612380Y-173212857D01*
X62564761Y-173308095D01*
X62517142Y-173355714D01*
X62421904Y-173403333D01*
X61612380Y-173403333D01*
X61707619Y-173831904D02*
X61660000Y-173879523D01*
X61612380Y-173974761D01*
X61612380Y-174212857D01*
X61660000Y-174308095D01*
X61707619Y-174355714D01*
X61802857Y-174403333D01*
X61898095Y-174403333D01*
X62040952Y-174355714D01*
X62612380Y-173784285D01*
X62612380Y-174403333D01*
X62612380Y-174879523D02*
X62612380Y-175070000D01*
X62564761Y-175165238D01*
X62517142Y-175212857D01*
X62374285Y-175308095D01*
X62183809Y-175355714D01*
X61802857Y-175355714D01*
X61707619Y-175308095D01*
X61660000Y-175260476D01*
X61612380Y-175165238D01*
X61612380Y-174974761D01*
X61660000Y-174879523D01*
X61707619Y-174831904D01*
X61802857Y-174784285D01*
X62040952Y-174784285D01*
X62136190Y-174831904D01*
X62183809Y-174879523D01*
X62231428Y-174974761D01*
X62231428Y-175165238D01*
X62183809Y-175260476D01*
X62136190Y-175308095D01*
X62040952Y-175355714D01*
%TO.C,C8*%
X225626666Y-100817142D02*
X225674285Y-100864761D01*
X225817142Y-100912380D01*
X225912380Y-100912380D01*
X226055238Y-100864761D01*
X226150476Y-100769523D01*
X226198095Y-100674285D01*
X226245714Y-100483809D01*
X226245714Y-100340952D01*
X226198095Y-100150476D01*
X226150476Y-100055238D01*
X226055238Y-99960000D01*
X225912380Y-99912380D01*
X225817142Y-99912380D01*
X225674285Y-99960000D01*
X225626666Y-100007619D01*
X225055238Y-100340952D02*
X225150476Y-100293333D01*
X225198095Y-100245714D01*
X225245714Y-100150476D01*
X225245714Y-100102857D01*
X225198095Y-100007619D01*
X225150476Y-99960000D01*
X225055238Y-99912380D01*
X224864761Y-99912380D01*
X224769523Y-99960000D01*
X224721904Y-100007619D01*
X224674285Y-100102857D01*
X224674285Y-100150476D01*
X224721904Y-100245714D01*
X224769523Y-100293333D01*
X224864761Y-100340952D01*
X225055238Y-100340952D01*
X225150476Y-100388571D01*
X225198095Y-100436190D01*
X225245714Y-100531428D01*
X225245714Y-100721904D01*
X225198095Y-100817142D01*
X225150476Y-100864761D01*
X225055238Y-100912380D01*
X224864761Y-100912380D01*
X224769523Y-100864761D01*
X224721904Y-100817142D01*
X224674285Y-100721904D01*
X224674285Y-100531428D01*
X224721904Y-100436190D01*
X224769523Y-100388571D01*
X224864761Y-100340952D01*
%TO.C,J2*%
X204842380Y-194106666D02*
X205556666Y-194106666D01*
X205699523Y-194059047D01*
X205794761Y-193963809D01*
X205842380Y-193820952D01*
X205842380Y-193725714D01*
X204937619Y-194535238D02*
X204890000Y-194582857D01*
X204842380Y-194678095D01*
X204842380Y-194916190D01*
X204890000Y-195011428D01*
X204937619Y-195059047D01*
X205032857Y-195106666D01*
X205128095Y-195106666D01*
X205270952Y-195059047D01*
X205842380Y-194487619D01*
X205842380Y-195106666D01*
%TO.C,J3*%
X204842380Y-189026666D02*
X205556666Y-189026666D01*
X205699523Y-188979047D01*
X205794761Y-188883809D01*
X205842380Y-188740952D01*
X205842380Y-188645714D01*
X204842380Y-189407619D02*
X204842380Y-190026666D01*
X205223333Y-189693333D01*
X205223333Y-189836190D01*
X205270952Y-189931428D01*
X205318571Y-189979047D01*
X205413809Y-190026666D01*
X205651904Y-190026666D01*
X205747142Y-189979047D01*
X205794761Y-189931428D01*
X205842380Y-189836190D01*
X205842380Y-189550476D01*
X205794761Y-189455238D01*
X205747142Y-189407619D01*
%TO.C,J4*%
X204842380Y-168706666D02*
X205556666Y-168706666D01*
X205699523Y-168659047D01*
X205794761Y-168563809D01*
X205842380Y-168420952D01*
X205842380Y-168325714D01*
X205175714Y-169611428D02*
X205842380Y-169611428D01*
X204794761Y-169373333D02*
X205509047Y-169135238D01*
X205509047Y-169754285D01*
%TO.C,J11*%
X204842380Y-163150476D02*
X205556666Y-163150476D01*
X205699523Y-163102857D01*
X205794761Y-163007619D01*
X205842380Y-162864761D01*
X205842380Y-162769523D01*
X205842380Y-164150476D02*
X205842380Y-163579047D01*
X205842380Y-163864761D02*
X204842380Y-163864761D01*
X204985238Y-163769523D01*
X205080476Y-163674285D01*
X205128095Y-163579047D01*
X205842380Y-165102857D02*
X205842380Y-164531428D01*
X205842380Y-164817142D02*
X204842380Y-164817142D01*
X204985238Y-164721904D01*
X205080476Y-164626666D01*
X205128095Y-164531428D01*
%TO.C,J12*%
X204842380Y-183470476D02*
X205556666Y-183470476D01*
X205699523Y-183422857D01*
X205794761Y-183327619D01*
X205842380Y-183184761D01*
X205842380Y-183089523D01*
X205842380Y-184470476D02*
X205842380Y-183899047D01*
X205842380Y-184184761D02*
X204842380Y-184184761D01*
X204985238Y-184089523D01*
X205080476Y-183994285D01*
X205128095Y-183899047D01*
X204937619Y-184851428D02*
X204890000Y-184899047D01*
X204842380Y-184994285D01*
X204842380Y-185232380D01*
X204890000Y-185327619D01*
X204937619Y-185375238D01*
X205032857Y-185422857D01*
X205128095Y-185422857D01*
X205270952Y-185375238D01*
X205842380Y-184803809D01*
X205842380Y-185422857D01*
%TO.C,J13*%
X204842380Y-158070476D02*
X205556666Y-158070476D01*
X205699523Y-158022857D01*
X205794761Y-157927619D01*
X205842380Y-157784761D01*
X205842380Y-157689523D01*
X205842380Y-159070476D02*
X205842380Y-158499047D01*
X205842380Y-158784761D02*
X204842380Y-158784761D01*
X204985238Y-158689523D01*
X205080476Y-158594285D01*
X205128095Y-158499047D01*
X204842380Y-159403809D02*
X204842380Y-160022857D01*
X205223333Y-159689523D01*
X205223333Y-159832380D01*
X205270952Y-159927619D01*
X205318571Y-159975238D01*
X205413809Y-160022857D01*
X205651904Y-160022857D01*
X205747142Y-159975238D01*
X205794761Y-159927619D01*
X205842380Y-159832380D01*
X205842380Y-159546666D01*
X205794761Y-159451428D01*
X205747142Y-159403809D01*
%TO.C,J15*%
X118482380Y-193910476D02*
X119196666Y-193910476D01*
X119339523Y-193862857D01*
X119434761Y-193767619D01*
X119482380Y-193624761D01*
X119482380Y-193529523D01*
X119482380Y-194910476D02*
X119482380Y-194339047D01*
X119482380Y-194624761D02*
X118482380Y-194624761D01*
X118625238Y-194529523D01*
X118720476Y-194434285D01*
X118768095Y-194339047D01*
X118482380Y-195815238D02*
X118482380Y-195339047D01*
X118958571Y-195291428D01*
X118910952Y-195339047D01*
X118863333Y-195434285D01*
X118863333Y-195672380D01*
X118910952Y-195767619D01*
X118958571Y-195815238D01*
X119053809Y-195862857D01*
X119291904Y-195862857D01*
X119387142Y-195815238D01*
X119434761Y-195767619D01*
X119482380Y-195672380D01*
X119482380Y-195434285D01*
X119434761Y-195339047D01*
X119387142Y-195291428D01*
%TO.C,J16*%
X118482380Y-183750476D02*
X119196666Y-183750476D01*
X119339523Y-183702857D01*
X119434761Y-183607619D01*
X119482380Y-183464761D01*
X119482380Y-183369523D01*
X119482380Y-184750476D02*
X119482380Y-184179047D01*
X119482380Y-184464761D02*
X118482380Y-184464761D01*
X118625238Y-184369523D01*
X118720476Y-184274285D01*
X118768095Y-184179047D01*
X118482380Y-185607619D02*
X118482380Y-185417142D01*
X118530000Y-185321904D01*
X118577619Y-185274285D01*
X118720476Y-185179047D01*
X118910952Y-185131428D01*
X119291904Y-185131428D01*
X119387142Y-185179047D01*
X119434761Y-185226666D01*
X119482380Y-185321904D01*
X119482380Y-185512380D01*
X119434761Y-185607619D01*
X119387142Y-185655238D01*
X119291904Y-185702857D01*
X119053809Y-185702857D01*
X118958571Y-185655238D01*
X118910952Y-185607619D01*
X118863333Y-185512380D01*
X118863333Y-185321904D01*
X118910952Y-185226666D01*
X118958571Y-185179047D01*
X119053809Y-185131428D01*
%TO.C,J19*%
X118482380Y-158350476D02*
X119196666Y-158350476D01*
X119339523Y-158302857D01*
X119434761Y-158207619D01*
X119482380Y-158064761D01*
X119482380Y-157969523D01*
X119482380Y-159350476D02*
X119482380Y-158779047D01*
X119482380Y-159064761D02*
X118482380Y-159064761D01*
X118625238Y-158969523D01*
X118720476Y-158874285D01*
X118768095Y-158779047D01*
X119482380Y-159826666D02*
X119482380Y-160017142D01*
X119434761Y-160112380D01*
X119387142Y-160160000D01*
X119244285Y-160255238D01*
X119053809Y-160302857D01*
X118672857Y-160302857D01*
X118577619Y-160255238D01*
X118530000Y-160207619D01*
X118482380Y-160112380D01*
X118482380Y-159921904D01*
X118530000Y-159826666D01*
X118577619Y-159779047D01*
X118672857Y-159731428D01*
X118910952Y-159731428D01*
X119006190Y-159779047D01*
X119053809Y-159826666D01*
X119101428Y-159921904D01*
X119101428Y-160112380D01*
X119053809Y-160207619D01*
X119006190Y-160255238D01*
X118910952Y-160302857D01*
%TO.C,J18*%
X118482380Y-168350476D02*
X119196666Y-168350476D01*
X119339523Y-168302857D01*
X119434761Y-168207619D01*
X119482380Y-168064761D01*
X119482380Y-167969523D01*
X119482380Y-169350476D02*
X119482380Y-168779047D01*
X119482380Y-169064761D02*
X118482380Y-169064761D01*
X118625238Y-168969523D01*
X118720476Y-168874285D01*
X118768095Y-168779047D01*
X118910952Y-169921904D02*
X118863333Y-169826666D01*
X118815714Y-169779047D01*
X118720476Y-169731428D01*
X118672857Y-169731428D01*
X118577619Y-169779047D01*
X118530000Y-169826666D01*
X118482380Y-169921904D01*
X118482380Y-170112380D01*
X118530000Y-170207619D01*
X118577619Y-170255238D01*
X118672857Y-170302857D01*
X118720476Y-170302857D01*
X118815714Y-170255238D01*
X118863333Y-170207619D01*
X118910952Y-170112380D01*
X118910952Y-169921904D01*
X118958571Y-169826666D01*
X119006190Y-169779047D01*
X119101428Y-169731428D01*
X119291904Y-169731428D01*
X119387142Y-169779047D01*
X119434761Y-169826666D01*
X119482380Y-169921904D01*
X119482380Y-170112380D01*
X119434761Y-170207619D01*
X119387142Y-170255238D01*
X119291904Y-170302857D01*
X119101428Y-170302857D01*
X119006190Y-170255238D01*
X118958571Y-170207619D01*
X118910952Y-170112380D01*
%TO.C,J17*%
X118482380Y-163430476D02*
X119196666Y-163430476D01*
X119339523Y-163382857D01*
X119434761Y-163287619D01*
X119482380Y-163144761D01*
X119482380Y-163049523D01*
X119482380Y-164430476D02*
X119482380Y-163859047D01*
X119482380Y-164144761D02*
X118482380Y-164144761D01*
X118625238Y-164049523D01*
X118720476Y-163954285D01*
X118768095Y-163859047D01*
X118482380Y-164763809D02*
X118482380Y-165430476D01*
X119482380Y-165001904D01*
%TO.C,J14*%
X118482380Y-188830476D02*
X119196666Y-188830476D01*
X119339523Y-188782857D01*
X119434761Y-188687619D01*
X119482380Y-188544761D01*
X119482380Y-188449523D01*
X119482380Y-189830476D02*
X119482380Y-189259047D01*
X119482380Y-189544761D02*
X118482380Y-189544761D01*
X118625238Y-189449523D01*
X118720476Y-189354285D01*
X118768095Y-189259047D01*
X118815714Y-190687619D02*
X119482380Y-190687619D01*
X118434761Y-190449523D02*
X119149047Y-190211428D01*
X119149047Y-190830476D01*
%TO.C,JP7*%
X101702380Y-77416666D02*
X102416666Y-77416666D01*
X102559523Y-77369047D01*
X102654761Y-77273809D01*
X102702380Y-77130952D01*
X102702380Y-77035714D01*
X102702380Y-77892857D02*
X101702380Y-77892857D01*
X101702380Y-78273809D01*
X101750000Y-78369047D01*
X101797619Y-78416666D01*
X101892857Y-78464285D01*
X102035714Y-78464285D01*
X102130952Y-78416666D01*
X102178571Y-78369047D01*
X102226190Y-78273809D01*
X102226190Y-77892857D01*
X101702380Y-78797619D02*
X101702380Y-79464285D01*
X102702380Y-79035714D01*
%TO.C,R14*%
X72452380Y-158547142D02*
X71976190Y-158213809D01*
X72452380Y-157975714D02*
X71452380Y-157975714D01*
X71452380Y-158356666D01*
X71500000Y-158451904D01*
X71547619Y-158499523D01*
X71642857Y-158547142D01*
X71785714Y-158547142D01*
X71880952Y-158499523D01*
X71928571Y-158451904D01*
X71976190Y-158356666D01*
X71976190Y-157975714D01*
X72452380Y-159499523D02*
X72452380Y-158928095D01*
X72452380Y-159213809D02*
X71452380Y-159213809D01*
X71595238Y-159118571D01*
X71690476Y-159023333D01*
X71738095Y-158928095D01*
X71785714Y-160356666D02*
X72452380Y-160356666D01*
X71404761Y-160118571D02*
X72119047Y-159880476D01*
X72119047Y-160499523D01*
%TO.C,J20*%
X118482380Y-138030476D02*
X119196666Y-138030476D01*
X119339523Y-137982857D01*
X119434761Y-137887619D01*
X119482380Y-137744761D01*
X119482380Y-137649523D01*
X118577619Y-138459047D02*
X118530000Y-138506666D01*
X118482380Y-138601904D01*
X118482380Y-138840000D01*
X118530000Y-138935238D01*
X118577619Y-138982857D01*
X118672857Y-139030476D01*
X118768095Y-139030476D01*
X118910952Y-138982857D01*
X119482380Y-138411428D01*
X119482380Y-139030476D01*
X118482380Y-139649523D02*
X118482380Y-139744761D01*
X118530000Y-139840000D01*
X118577619Y-139887619D01*
X118672857Y-139935238D01*
X118863333Y-139982857D01*
X119101428Y-139982857D01*
X119291904Y-139935238D01*
X119387142Y-139887619D01*
X119434761Y-139840000D01*
X119482380Y-139744761D01*
X119482380Y-139649523D01*
X119434761Y-139554285D01*
X119387142Y-139506666D01*
X119291904Y-139459047D01*
X119101428Y-139411428D01*
X118863333Y-139411428D01*
X118672857Y-139459047D01*
X118577619Y-139506666D01*
X118530000Y-139554285D01*
X118482380Y-139649523D01*
%TO.C,J21*%
X118482380Y-112630476D02*
X119196666Y-112630476D01*
X119339523Y-112582857D01*
X119434761Y-112487619D01*
X119482380Y-112344761D01*
X119482380Y-112249523D01*
X118577619Y-113059047D02*
X118530000Y-113106666D01*
X118482380Y-113201904D01*
X118482380Y-113440000D01*
X118530000Y-113535238D01*
X118577619Y-113582857D01*
X118672857Y-113630476D01*
X118768095Y-113630476D01*
X118910952Y-113582857D01*
X119482380Y-113011428D01*
X119482380Y-113630476D01*
X119482380Y-114582857D02*
X119482380Y-114011428D01*
X119482380Y-114297142D02*
X118482380Y-114297142D01*
X118625238Y-114201904D01*
X118720476Y-114106666D01*
X118768095Y-114011428D01*
%TO.C,J22*%
X118482380Y-143110476D02*
X119196666Y-143110476D01*
X119339523Y-143062857D01*
X119434761Y-142967619D01*
X119482380Y-142824761D01*
X119482380Y-142729523D01*
X118577619Y-143539047D02*
X118530000Y-143586666D01*
X118482380Y-143681904D01*
X118482380Y-143920000D01*
X118530000Y-144015238D01*
X118577619Y-144062857D01*
X118672857Y-144110476D01*
X118768095Y-144110476D01*
X118910952Y-144062857D01*
X119482380Y-143491428D01*
X119482380Y-144110476D01*
X118577619Y-144491428D02*
X118530000Y-144539047D01*
X118482380Y-144634285D01*
X118482380Y-144872380D01*
X118530000Y-144967619D01*
X118577619Y-145015238D01*
X118672857Y-145062857D01*
X118768095Y-145062857D01*
X118910952Y-145015238D01*
X119482380Y-144443809D01*
X119482380Y-145062857D01*
%TO.C,J23*%
X118482380Y-117710476D02*
X119196666Y-117710476D01*
X119339523Y-117662857D01*
X119434761Y-117567619D01*
X119482380Y-117424761D01*
X119482380Y-117329523D01*
X118577619Y-118139047D02*
X118530000Y-118186666D01*
X118482380Y-118281904D01*
X118482380Y-118520000D01*
X118530000Y-118615238D01*
X118577619Y-118662857D01*
X118672857Y-118710476D01*
X118768095Y-118710476D01*
X118910952Y-118662857D01*
X119482380Y-118091428D01*
X119482380Y-118710476D01*
X118482380Y-119043809D02*
X118482380Y-119662857D01*
X118863333Y-119329523D01*
X118863333Y-119472380D01*
X118910952Y-119567619D01*
X118958571Y-119615238D01*
X119053809Y-119662857D01*
X119291904Y-119662857D01*
X119387142Y-119615238D01*
X119434761Y-119567619D01*
X119482380Y-119472380D01*
X119482380Y-119186666D01*
X119434761Y-119091428D01*
X119387142Y-119043809D01*
%TO.C,J24*%
X118482380Y-132950476D02*
X119196666Y-132950476D01*
X119339523Y-132902857D01*
X119434761Y-132807619D01*
X119482380Y-132664761D01*
X119482380Y-132569523D01*
X118577619Y-133379047D02*
X118530000Y-133426666D01*
X118482380Y-133521904D01*
X118482380Y-133760000D01*
X118530000Y-133855238D01*
X118577619Y-133902857D01*
X118672857Y-133950476D01*
X118768095Y-133950476D01*
X118910952Y-133902857D01*
X119482380Y-133331428D01*
X119482380Y-133950476D01*
X118815714Y-134807619D02*
X119482380Y-134807619D01*
X118434761Y-134569523D02*
X119149047Y-134331428D01*
X119149047Y-134950476D01*
%TO.C,J25*%
X118482380Y-107550476D02*
X119196666Y-107550476D01*
X119339523Y-107502857D01*
X119434761Y-107407619D01*
X119482380Y-107264761D01*
X119482380Y-107169523D01*
X118577619Y-107979047D02*
X118530000Y-108026666D01*
X118482380Y-108121904D01*
X118482380Y-108360000D01*
X118530000Y-108455238D01*
X118577619Y-108502857D01*
X118672857Y-108550476D01*
X118768095Y-108550476D01*
X118910952Y-108502857D01*
X119482380Y-107931428D01*
X119482380Y-108550476D01*
X118482380Y-109455238D02*
X118482380Y-108979047D01*
X118958571Y-108931428D01*
X118910952Y-108979047D01*
X118863333Y-109074285D01*
X118863333Y-109312380D01*
X118910952Y-109407619D01*
X118958571Y-109455238D01*
X119053809Y-109502857D01*
X119291904Y-109502857D01*
X119387142Y-109455238D01*
X119434761Y-109407619D01*
X119482380Y-109312380D01*
X119482380Y-109074285D01*
X119434761Y-108979047D01*
X119387142Y-108931428D01*
%TO.C,J27*%
X204842380Y-117430476D02*
X205556666Y-117430476D01*
X205699523Y-117382857D01*
X205794761Y-117287619D01*
X205842380Y-117144761D01*
X205842380Y-117049523D01*
X204937619Y-117859047D02*
X204890000Y-117906666D01*
X204842380Y-118001904D01*
X204842380Y-118240000D01*
X204890000Y-118335238D01*
X204937619Y-118382857D01*
X205032857Y-118430476D01*
X205128095Y-118430476D01*
X205270952Y-118382857D01*
X205842380Y-117811428D01*
X205842380Y-118430476D01*
X204842380Y-118763809D02*
X204842380Y-119430476D01*
X205842380Y-119001904D01*
%TO.C,J28*%
X204842380Y-137750476D02*
X205556666Y-137750476D01*
X205699523Y-137702857D01*
X205794761Y-137607619D01*
X205842380Y-137464761D01*
X205842380Y-137369523D01*
X204937619Y-138179047D02*
X204890000Y-138226666D01*
X204842380Y-138321904D01*
X204842380Y-138560000D01*
X204890000Y-138655238D01*
X204937619Y-138702857D01*
X205032857Y-138750476D01*
X205128095Y-138750476D01*
X205270952Y-138702857D01*
X205842380Y-138131428D01*
X205842380Y-138750476D01*
X205270952Y-139321904D02*
X205223333Y-139226666D01*
X205175714Y-139179047D01*
X205080476Y-139131428D01*
X205032857Y-139131428D01*
X204937619Y-139179047D01*
X204890000Y-139226666D01*
X204842380Y-139321904D01*
X204842380Y-139512380D01*
X204890000Y-139607619D01*
X204937619Y-139655238D01*
X205032857Y-139702857D01*
X205080476Y-139702857D01*
X205175714Y-139655238D01*
X205223333Y-139607619D01*
X205270952Y-139512380D01*
X205270952Y-139321904D01*
X205318571Y-139226666D01*
X205366190Y-139179047D01*
X205461428Y-139131428D01*
X205651904Y-139131428D01*
X205747142Y-139179047D01*
X205794761Y-139226666D01*
X205842380Y-139321904D01*
X205842380Y-139512380D01*
X205794761Y-139607619D01*
X205747142Y-139655238D01*
X205651904Y-139702857D01*
X205461428Y-139702857D01*
X205366190Y-139655238D01*
X205318571Y-139607619D01*
X205270952Y-139512380D01*
%TO.C,J29*%
X204842380Y-112350476D02*
X205556666Y-112350476D01*
X205699523Y-112302857D01*
X205794761Y-112207619D01*
X205842380Y-112064761D01*
X205842380Y-111969523D01*
X204937619Y-112779047D02*
X204890000Y-112826666D01*
X204842380Y-112921904D01*
X204842380Y-113160000D01*
X204890000Y-113255238D01*
X204937619Y-113302857D01*
X205032857Y-113350476D01*
X205128095Y-113350476D01*
X205270952Y-113302857D01*
X205842380Y-112731428D01*
X205842380Y-113350476D01*
X205842380Y-113826666D02*
X205842380Y-114017142D01*
X205794761Y-114112380D01*
X205747142Y-114160000D01*
X205604285Y-114255238D01*
X205413809Y-114302857D01*
X205032857Y-114302857D01*
X204937619Y-114255238D01*
X204890000Y-114207619D01*
X204842380Y-114112380D01*
X204842380Y-113921904D01*
X204890000Y-113826666D01*
X204937619Y-113779047D01*
X205032857Y-113731428D01*
X205270952Y-113731428D01*
X205366190Y-113779047D01*
X205413809Y-113826666D01*
X205461428Y-113921904D01*
X205461428Y-114112380D01*
X205413809Y-114207619D01*
X205366190Y-114255238D01*
X205270952Y-114302857D01*
%TO.C,J30*%
X204842380Y-132730476D02*
X205556666Y-132730476D01*
X205699523Y-132682857D01*
X205794761Y-132587619D01*
X205842380Y-132444761D01*
X205842380Y-132349523D01*
X204842380Y-133111428D02*
X204842380Y-133730476D01*
X205223333Y-133397142D01*
X205223333Y-133540000D01*
X205270952Y-133635238D01*
X205318571Y-133682857D01*
X205413809Y-133730476D01*
X205651904Y-133730476D01*
X205747142Y-133682857D01*
X205794761Y-133635238D01*
X205842380Y-133540000D01*
X205842380Y-133254285D01*
X205794761Y-133159047D01*
X205747142Y-133111428D01*
X204842380Y-134349523D02*
X204842380Y-134444761D01*
X204890000Y-134540000D01*
X204937619Y-134587619D01*
X205032857Y-134635238D01*
X205223333Y-134682857D01*
X205461428Y-134682857D01*
X205651904Y-134635238D01*
X205747142Y-134587619D01*
X205794761Y-134540000D01*
X205842380Y-134444761D01*
X205842380Y-134349523D01*
X205794761Y-134254285D01*
X205747142Y-134206666D01*
X205651904Y-134159047D01*
X205461428Y-134111428D01*
X205223333Y-134111428D01*
X205032857Y-134159047D01*
X204937619Y-134206666D01*
X204890000Y-134254285D01*
X204842380Y-134349523D01*
%TO.C,J31*%
X204842380Y-107270476D02*
X205556666Y-107270476D01*
X205699523Y-107222857D01*
X205794761Y-107127619D01*
X205842380Y-106984761D01*
X205842380Y-106889523D01*
X204842380Y-107651428D02*
X204842380Y-108270476D01*
X205223333Y-107937142D01*
X205223333Y-108080000D01*
X205270952Y-108175238D01*
X205318571Y-108222857D01*
X205413809Y-108270476D01*
X205651904Y-108270476D01*
X205747142Y-108222857D01*
X205794761Y-108175238D01*
X205842380Y-108080000D01*
X205842380Y-107794285D01*
X205794761Y-107699047D01*
X205747142Y-107651428D01*
X205842380Y-109222857D02*
X205842380Y-108651428D01*
X205842380Y-108937142D02*
X204842380Y-108937142D01*
X204985238Y-108841904D01*
X205080476Y-108746666D01*
X205128095Y-108651428D01*
%TO.C,U8*%
X165882380Y-208368095D02*
X166691904Y-208368095D01*
X166787142Y-208415714D01*
X166834761Y-208463333D01*
X166882380Y-208558571D01*
X166882380Y-208749047D01*
X166834761Y-208844285D01*
X166787142Y-208891904D01*
X166691904Y-208939523D01*
X165882380Y-208939523D01*
X166310952Y-209558571D02*
X166263333Y-209463333D01*
X166215714Y-209415714D01*
X166120476Y-209368095D01*
X166072857Y-209368095D01*
X165977619Y-209415714D01*
X165930000Y-209463333D01*
X165882380Y-209558571D01*
X165882380Y-209749047D01*
X165930000Y-209844285D01*
X165977619Y-209891904D01*
X166072857Y-209939523D01*
X166120476Y-209939523D01*
X166215714Y-209891904D01*
X166263333Y-209844285D01*
X166310952Y-209749047D01*
X166310952Y-209558571D01*
X166358571Y-209463333D01*
X166406190Y-209415714D01*
X166501428Y-209368095D01*
X166691904Y-209368095D01*
X166787142Y-209415714D01*
X166834761Y-209463333D01*
X166882380Y-209558571D01*
X166882380Y-209749047D01*
X166834761Y-209844285D01*
X166787142Y-209891904D01*
X166691904Y-209939523D01*
X166501428Y-209939523D01*
X166406190Y-209891904D01*
X166358571Y-209844285D01*
X166310952Y-209749047D01*
%TO.C,U10*%
X153832380Y-137326904D02*
X154641904Y-137326904D01*
X154737142Y-137374523D01*
X154784761Y-137422142D01*
X154832380Y-137517380D01*
X154832380Y-137707857D01*
X154784761Y-137803095D01*
X154737142Y-137850714D01*
X154641904Y-137898333D01*
X153832380Y-137898333D01*
X154832380Y-138898333D02*
X154832380Y-138326904D01*
X154832380Y-138612619D02*
X153832380Y-138612619D01*
X153975238Y-138517380D01*
X154070476Y-138422142D01*
X154118095Y-138326904D01*
X153832380Y-139517380D02*
X153832380Y-139612619D01*
X153880000Y-139707857D01*
X153927619Y-139755476D01*
X154022857Y-139803095D01*
X154213333Y-139850714D01*
X154451428Y-139850714D01*
X154641904Y-139803095D01*
X154737142Y-139755476D01*
X154784761Y-139707857D01*
X154832380Y-139612619D01*
X154832380Y-139517380D01*
X154784761Y-139422142D01*
X154737142Y-139374523D01*
X154641904Y-139326904D01*
X154451428Y-139279285D01*
X154213333Y-139279285D01*
X154022857Y-139326904D01*
X153927619Y-139374523D01*
X153880000Y-139422142D01*
X153832380Y-139517380D01*
%TO.C,U11*%
X153832380Y-111926904D02*
X154641904Y-111926904D01*
X154737142Y-111974523D01*
X154784761Y-112022142D01*
X154832380Y-112117380D01*
X154832380Y-112307857D01*
X154784761Y-112403095D01*
X154737142Y-112450714D01*
X154641904Y-112498333D01*
X153832380Y-112498333D01*
X154832380Y-113498333D02*
X154832380Y-112926904D01*
X154832380Y-113212619D02*
X153832380Y-113212619D01*
X153975238Y-113117380D01*
X154070476Y-113022142D01*
X154118095Y-112926904D01*
X154832380Y-114450714D02*
X154832380Y-113879285D01*
X154832380Y-114165000D02*
X153832380Y-114165000D01*
X153975238Y-114069761D01*
X154070476Y-113974523D01*
X154118095Y-113879285D01*
%TO.C,U12*%
X240192380Y-137326904D02*
X241001904Y-137326904D01*
X241097142Y-137374523D01*
X241144761Y-137422142D01*
X241192380Y-137517380D01*
X241192380Y-137707857D01*
X241144761Y-137803095D01*
X241097142Y-137850714D01*
X241001904Y-137898333D01*
X240192380Y-137898333D01*
X241192380Y-138898333D02*
X241192380Y-138326904D01*
X241192380Y-138612619D02*
X240192380Y-138612619D01*
X240335238Y-138517380D01*
X240430476Y-138422142D01*
X240478095Y-138326904D01*
X240287619Y-139279285D02*
X240240000Y-139326904D01*
X240192380Y-139422142D01*
X240192380Y-139660238D01*
X240240000Y-139755476D01*
X240287619Y-139803095D01*
X240382857Y-139850714D01*
X240478095Y-139850714D01*
X240620952Y-139803095D01*
X241192380Y-139231666D01*
X241192380Y-139850714D01*
%TO.C,U1*%
X56532380Y-158308095D02*
X57341904Y-158308095D01*
X57437142Y-158355714D01*
X57484761Y-158403333D01*
X57532380Y-158498571D01*
X57532380Y-158689047D01*
X57484761Y-158784285D01*
X57437142Y-158831904D01*
X57341904Y-158879523D01*
X56532380Y-158879523D01*
X57532380Y-159879523D02*
X57532380Y-159308095D01*
X57532380Y-159593809D02*
X56532380Y-159593809D01*
X56675238Y-159498571D01*
X56770476Y-159403333D01*
X56818095Y-159308095D01*
%TO.C,U15*%
X240192380Y-111926904D02*
X241001904Y-111926904D01*
X241097142Y-111974523D01*
X241144761Y-112022142D01*
X241192380Y-112117380D01*
X241192380Y-112307857D01*
X241144761Y-112403095D01*
X241097142Y-112450714D01*
X241001904Y-112498333D01*
X240192380Y-112498333D01*
X241192380Y-113498333D02*
X241192380Y-112926904D01*
X241192380Y-113212619D02*
X240192380Y-113212619D01*
X240335238Y-113117380D01*
X240430476Y-113022142D01*
X240478095Y-112926904D01*
X240192380Y-114403095D02*
X240192380Y-113926904D01*
X240668571Y-113879285D01*
X240620952Y-113926904D01*
X240573333Y-114022142D01*
X240573333Y-114260238D01*
X240620952Y-114355476D01*
X240668571Y-114403095D01*
X240763809Y-114450714D01*
X241001904Y-114450714D01*
X241097142Y-114403095D01*
X241144761Y-114355476D01*
X241192380Y-114260238D01*
X241192380Y-114022142D01*
X241144761Y-113926904D01*
X241097142Y-113879285D01*
%TO.C,J26*%
X204842380Y-142830476D02*
X205556666Y-142830476D01*
X205699523Y-142782857D01*
X205794761Y-142687619D01*
X205842380Y-142544761D01*
X205842380Y-142449523D01*
X204937619Y-143259047D02*
X204890000Y-143306666D01*
X204842380Y-143401904D01*
X204842380Y-143640000D01*
X204890000Y-143735238D01*
X204937619Y-143782857D01*
X205032857Y-143830476D01*
X205128095Y-143830476D01*
X205270952Y-143782857D01*
X205842380Y-143211428D01*
X205842380Y-143830476D01*
X204842380Y-144687619D02*
X204842380Y-144497142D01*
X204890000Y-144401904D01*
X204937619Y-144354285D01*
X205080476Y-144259047D01*
X205270952Y-144211428D01*
X205651904Y-144211428D01*
X205747142Y-144259047D01*
X205794761Y-144306666D01*
X205842380Y-144401904D01*
X205842380Y-144592380D01*
X205794761Y-144687619D01*
X205747142Y-144735238D01*
X205651904Y-144782857D01*
X205413809Y-144782857D01*
X205318571Y-144735238D01*
X205270952Y-144687619D01*
X205223333Y-144592380D01*
X205223333Y-144401904D01*
X205270952Y-144306666D01*
X205318571Y-144259047D01*
X205413809Y-144211428D01*
%TO.C,C14*%
X213697142Y-150617142D02*
X213744761Y-150569523D01*
X213792380Y-150426666D01*
X213792380Y-150331428D01*
X213744761Y-150188571D01*
X213649523Y-150093333D01*
X213554285Y-150045714D01*
X213363809Y-149998095D01*
X213220952Y-149998095D01*
X213030476Y-150045714D01*
X212935238Y-150093333D01*
X212840000Y-150188571D01*
X212792380Y-150331428D01*
X212792380Y-150426666D01*
X212840000Y-150569523D01*
X212887619Y-150617142D01*
X213792380Y-151569523D02*
X213792380Y-150998095D01*
X213792380Y-151283809D02*
X212792380Y-151283809D01*
X212935238Y-151188571D01*
X213030476Y-151093333D01*
X213078095Y-150998095D01*
X213125714Y-152426666D02*
X213792380Y-152426666D01*
X212744761Y-152188571D02*
X213459047Y-151950476D01*
X213459047Y-152569523D01*
%TO.C,U21*%
X153832380Y-162726904D02*
X154641904Y-162726904D01*
X154737142Y-162774523D01*
X154784761Y-162822142D01*
X154832380Y-162917380D01*
X154832380Y-163107857D01*
X154784761Y-163203095D01*
X154737142Y-163250714D01*
X154641904Y-163298333D01*
X153832380Y-163298333D01*
X153927619Y-163726904D02*
X153880000Y-163774523D01*
X153832380Y-163869761D01*
X153832380Y-164107857D01*
X153880000Y-164203095D01*
X153927619Y-164250714D01*
X154022857Y-164298333D01*
X154118095Y-164298333D01*
X154260952Y-164250714D01*
X154832380Y-163679285D01*
X154832380Y-164298333D01*
X154832380Y-165250714D02*
X154832380Y-164679285D01*
X154832380Y-164965000D02*
X153832380Y-164965000D01*
X153975238Y-164869761D01*
X154070476Y-164774523D01*
X154118095Y-164679285D01*
%TO.C,U20*%
X153832380Y-188126904D02*
X154641904Y-188126904D01*
X154737142Y-188174523D01*
X154784761Y-188222142D01*
X154832380Y-188317380D01*
X154832380Y-188507857D01*
X154784761Y-188603095D01*
X154737142Y-188650714D01*
X154641904Y-188698333D01*
X153832380Y-188698333D01*
X153927619Y-189126904D02*
X153880000Y-189174523D01*
X153832380Y-189269761D01*
X153832380Y-189507857D01*
X153880000Y-189603095D01*
X153927619Y-189650714D01*
X154022857Y-189698333D01*
X154118095Y-189698333D01*
X154260952Y-189650714D01*
X154832380Y-189079285D01*
X154832380Y-189698333D01*
X153832380Y-190317380D02*
X153832380Y-190412619D01*
X153880000Y-190507857D01*
X153927619Y-190555476D01*
X154022857Y-190603095D01*
X154213333Y-190650714D01*
X154451428Y-190650714D01*
X154641904Y-190603095D01*
X154737142Y-190555476D01*
X154784761Y-190507857D01*
X154832380Y-190412619D01*
X154832380Y-190317380D01*
X154784761Y-190222142D01*
X154737142Y-190174523D01*
X154641904Y-190126904D01*
X154451428Y-190079285D01*
X154213333Y-190079285D01*
X154022857Y-190126904D01*
X153927619Y-190174523D01*
X153880000Y-190222142D01*
X153832380Y-190317380D01*
%TO.C,C18*%
X139742857Y-100817142D02*
X139790476Y-100864761D01*
X139933333Y-100912380D01*
X140028571Y-100912380D01*
X140171428Y-100864761D01*
X140266666Y-100769523D01*
X140314285Y-100674285D01*
X140361904Y-100483809D01*
X140361904Y-100340952D01*
X140314285Y-100150476D01*
X140266666Y-100055238D01*
X140171428Y-99960000D01*
X140028571Y-99912380D01*
X139933333Y-99912380D01*
X139790476Y-99960000D01*
X139742857Y-100007619D01*
X138790476Y-100912380D02*
X139361904Y-100912380D01*
X139076190Y-100912380D02*
X139076190Y-99912380D01*
X139171428Y-100055238D01*
X139266666Y-100150476D01*
X139361904Y-100198095D01*
X138219047Y-100340952D02*
X138314285Y-100293333D01*
X138361904Y-100245714D01*
X138409523Y-100150476D01*
X138409523Y-100102857D01*
X138361904Y-100007619D01*
X138314285Y-99960000D01*
X138219047Y-99912380D01*
X138028571Y-99912380D01*
X137933333Y-99960000D01*
X137885714Y-100007619D01*
X137838095Y-100102857D01*
X137838095Y-100150476D01*
X137885714Y-100245714D01*
X137933333Y-100293333D01*
X138028571Y-100340952D01*
X138219047Y-100340952D01*
X138314285Y-100388571D01*
X138361904Y-100436190D01*
X138409523Y-100531428D01*
X138409523Y-100721904D01*
X138361904Y-100817142D01*
X138314285Y-100864761D01*
X138219047Y-100912380D01*
X138028571Y-100912380D01*
X137933333Y-100864761D01*
X137885714Y-100817142D01*
X137838095Y-100721904D01*
X137838095Y-100531428D01*
X137885714Y-100436190D01*
X137933333Y-100388571D01*
X138028571Y-100340952D01*
%TO.C,C19*%
X139742857Y-126497142D02*
X139790476Y-126544761D01*
X139933333Y-126592380D01*
X140028571Y-126592380D01*
X140171428Y-126544761D01*
X140266666Y-126449523D01*
X140314285Y-126354285D01*
X140361904Y-126163809D01*
X140361904Y-126020952D01*
X140314285Y-125830476D01*
X140266666Y-125735238D01*
X140171428Y-125640000D01*
X140028571Y-125592380D01*
X139933333Y-125592380D01*
X139790476Y-125640000D01*
X139742857Y-125687619D01*
X138790476Y-126592380D02*
X139361904Y-126592380D01*
X139076190Y-126592380D02*
X139076190Y-125592380D01*
X139171428Y-125735238D01*
X139266666Y-125830476D01*
X139361904Y-125878095D01*
X138314285Y-126592380D02*
X138123809Y-126592380D01*
X138028571Y-126544761D01*
X137980952Y-126497142D01*
X137885714Y-126354285D01*
X137838095Y-126163809D01*
X137838095Y-125782857D01*
X137885714Y-125687619D01*
X137933333Y-125640000D01*
X138028571Y-125592380D01*
X138219047Y-125592380D01*
X138314285Y-125640000D01*
X138361904Y-125687619D01*
X138409523Y-125782857D01*
X138409523Y-126020952D01*
X138361904Y-126116190D01*
X138314285Y-126163809D01*
X138219047Y-126211428D01*
X138028571Y-126211428D01*
X137933333Y-126163809D01*
X137885714Y-126116190D01*
X137838095Y-126020952D01*
%TO.C,C20*%
X139742857Y-151897142D02*
X139790476Y-151944761D01*
X139933333Y-151992380D01*
X140028571Y-151992380D01*
X140171428Y-151944761D01*
X140266666Y-151849523D01*
X140314285Y-151754285D01*
X140361904Y-151563809D01*
X140361904Y-151420952D01*
X140314285Y-151230476D01*
X140266666Y-151135238D01*
X140171428Y-151040000D01*
X140028571Y-150992380D01*
X139933333Y-150992380D01*
X139790476Y-151040000D01*
X139742857Y-151087619D01*
X139361904Y-151087619D02*
X139314285Y-151040000D01*
X139219047Y-150992380D01*
X138980952Y-150992380D01*
X138885714Y-151040000D01*
X138838095Y-151087619D01*
X138790476Y-151182857D01*
X138790476Y-151278095D01*
X138838095Y-151420952D01*
X139409523Y-151992380D01*
X138790476Y-151992380D01*
X138171428Y-150992380D02*
X138076190Y-150992380D01*
X137980952Y-151040000D01*
X137933333Y-151087619D01*
X137885714Y-151182857D01*
X137838095Y-151373333D01*
X137838095Y-151611428D01*
X137885714Y-151801904D01*
X137933333Y-151897142D01*
X137980952Y-151944761D01*
X138076190Y-151992380D01*
X138171428Y-151992380D01*
X138266666Y-151944761D01*
X138314285Y-151897142D01*
X138361904Y-151801904D01*
X138409523Y-151611428D01*
X138409523Y-151373333D01*
X138361904Y-151182857D01*
X138314285Y-151087619D01*
X138266666Y-151040000D01*
X138171428Y-150992380D01*
%TO.C,C21*%
X139742857Y-177297142D02*
X139790476Y-177344761D01*
X139933333Y-177392380D01*
X140028571Y-177392380D01*
X140171428Y-177344761D01*
X140266666Y-177249523D01*
X140314285Y-177154285D01*
X140361904Y-176963809D01*
X140361904Y-176820952D01*
X140314285Y-176630476D01*
X140266666Y-176535238D01*
X140171428Y-176440000D01*
X140028571Y-176392380D01*
X139933333Y-176392380D01*
X139790476Y-176440000D01*
X139742857Y-176487619D01*
X139361904Y-176487619D02*
X139314285Y-176440000D01*
X139219047Y-176392380D01*
X138980952Y-176392380D01*
X138885714Y-176440000D01*
X138838095Y-176487619D01*
X138790476Y-176582857D01*
X138790476Y-176678095D01*
X138838095Y-176820952D01*
X139409523Y-177392380D01*
X138790476Y-177392380D01*
X137838095Y-177392380D02*
X138409523Y-177392380D01*
X138123809Y-177392380D02*
X138123809Y-176392380D01*
X138219047Y-176535238D01*
X138314285Y-176630476D01*
X138409523Y-176678095D01*
%TO.C,JP8*%
X199472380Y-137726666D02*
X200186666Y-137726666D01*
X200329523Y-137679047D01*
X200424761Y-137583809D01*
X200472380Y-137440952D01*
X200472380Y-137345714D01*
X200472380Y-138202857D02*
X199472380Y-138202857D01*
X199472380Y-138583809D01*
X199520000Y-138679047D01*
X199567619Y-138726666D01*
X199662857Y-138774285D01*
X199805714Y-138774285D01*
X199900952Y-138726666D01*
X199948571Y-138679047D01*
X199996190Y-138583809D01*
X199996190Y-138202857D01*
X199900952Y-139345714D02*
X199853333Y-139250476D01*
X199805714Y-139202857D01*
X199710476Y-139155238D01*
X199662857Y-139155238D01*
X199567619Y-139202857D01*
X199520000Y-139250476D01*
X199472380Y-139345714D01*
X199472380Y-139536190D01*
X199520000Y-139631428D01*
X199567619Y-139679047D01*
X199662857Y-139726666D01*
X199710476Y-139726666D01*
X199805714Y-139679047D01*
X199853333Y-139631428D01*
X199900952Y-139536190D01*
X199900952Y-139345714D01*
X199948571Y-139250476D01*
X199996190Y-139202857D01*
X200091428Y-139155238D01*
X200281904Y-139155238D01*
X200377142Y-139202857D01*
X200424761Y-139250476D01*
X200472380Y-139345714D01*
X200472380Y-139536190D01*
X200424761Y-139631428D01*
X200377142Y-139679047D01*
X200281904Y-139726666D01*
X200091428Y-139726666D01*
X199996190Y-139679047D01*
X199948571Y-139631428D01*
X199900952Y-139536190D01*
%TO.C,JP11*%
X199472380Y-132170476D02*
X200186666Y-132170476D01*
X200329523Y-132122857D01*
X200424761Y-132027619D01*
X200472380Y-131884761D01*
X200472380Y-131789523D01*
X200472380Y-132646666D02*
X199472380Y-132646666D01*
X199472380Y-133027619D01*
X199520000Y-133122857D01*
X199567619Y-133170476D01*
X199662857Y-133218095D01*
X199805714Y-133218095D01*
X199900952Y-133170476D01*
X199948571Y-133122857D01*
X199996190Y-133027619D01*
X199996190Y-132646666D01*
X200472380Y-134170476D02*
X200472380Y-133599047D01*
X200472380Y-133884761D02*
X199472380Y-133884761D01*
X199615238Y-133789523D01*
X199710476Y-133694285D01*
X199758095Y-133599047D01*
X200472380Y-135122857D02*
X200472380Y-134551428D01*
X200472380Y-134837142D02*
X199472380Y-134837142D01*
X199615238Y-134741904D01*
X199710476Y-134646666D01*
X199758095Y-134551428D01*
%TO.C,JP12*%
X199472380Y-111850476D02*
X200186666Y-111850476D01*
X200329523Y-111802857D01*
X200424761Y-111707619D01*
X200472380Y-111564761D01*
X200472380Y-111469523D01*
X200472380Y-112326666D02*
X199472380Y-112326666D01*
X199472380Y-112707619D01*
X199520000Y-112802857D01*
X199567619Y-112850476D01*
X199662857Y-112898095D01*
X199805714Y-112898095D01*
X199900952Y-112850476D01*
X199948571Y-112802857D01*
X199996190Y-112707619D01*
X199996190Y-112326666D01*
X200472380Y-113850476D02*
X200472380Y-113279047D01*
X200472380Y-113564761D02*
X199472380Y-113564761D01*
X199615238Y-113469523D01*
X199710476Y-113374285D01*
X199758095Y-113279047D01*
X199567619Y-114231428D02*
X199520000Y-114279047D01*
X199472380Y-114374285D01*
X199472380Y-114612380D01*
X199520000Y-114707619D01*
X199567619Y-114755238D01*
X199662857Y-114802857D01*
X199758095Y-114802857D01*
X199900952Y-114755238D01*
X200472380Y-114183809D01*
X200472380Y-114802857D01*
%TO.C,JP13*%
X199472380Y-106770476D02*
X200186666Y-106770476D01*
X200329523Y-106722857D01*
X200424761Y-106627619D01*
X200472380Y-106484761D01*
X200472380Y-106389523D01*
X200472380Y-107246666D02*
X199472380Y-107246666D01*
X199472380Y-107627619D01*
X199520000Y-107722857D01*
X199567619Y-107770476D01*
X199662857Y-107818095D01*
X199805714Y-107818095D01*
X199900952Y-107770476D01*
X199948571Y-107722857D01*
X199996190Y-107627619D01*
X199996190Y-107246666D01*
X200472380Y-108770476D02*
X200472380Y-108199047D01*
X200472380Y-108484761D02*
X199472380Y-108484761D01*
X199615238Y-108389523D01*
X199710476Y-108294285D01*
X199758095Y-108199047D01*
X199472380Y-109103809D02*
X199472380Y-109722857D01*
X199853333Y-109389523D01*
X199853333Y-109532380D01*
X199900952Y-109627619D01*
X199948571Y-109675238D01*
X200043809Y-109722857D01*
X200281904Y-109722857D01*
X200377142Y-109675238D01*
X200424761Y-109627619D01*
X200472380Y-109532380D01*
X200472380Y-109246666D01*
X200424761Y-109151428D01*
X200377142Y-109103809D01*
%TO.C,K2*%
X203092380Y-142721904D02*
X202092380Y-142721904D01*
X203092380Y-143293333D02*
X202520952Y-142864761D01*
X202092380Y-143293333D02*
X202663809Y-142721904D01*
X202187619Y-143674285D02*
X202140000Y-143721904D01*
X202092380Y-143817142D01*
X202092380Y-144055238D01*
X202140000Y-144150476D01*
X202187619Y-144198095D01*
X202282857Y-144245714D01*
X202378095Y-144245714D01*
X202520952Y-144198095D01*
X203092380Y-143626666D01*
X203092380Y-144245714D01*
%TO.C,K3*%
X202997380Y-117251904D02*
X201997380Y-117251904D01*
X202997380Y-117823333D02*
X202425952Y-117394761D01*
X201997380Y-117823333D02*
X202568809Y-117251904D01*
X201997380Y-118156666D02*
X201997380Y-118775714D01*
X202378333Y-118442380D01*
X202378333Y-118585238D01*
X202425952Y-118680476D01*
X202473571Y-118728095D01*
X202568809Y-118775714D01*
X202806904Y-118775714D01*
X202902142Y-118728095D01*
X202949761Y-118680476D01*
X202997380Y-118585238D01*
X202997380Y-118299523D01*
X202949761Y-118204285D01*
X202902142Y-118156666D01*
%TO.C,U18*%
X184322380Y-137311904D02*
X185131904Y-137311904D01*
X185227142Y-137359523D01*
X185274761Y-137407142D01*
X185322380Y-137502380D01*
X185322380Y-137692857D01*
X185274761Y-137788095D01*
X185227142Y-137835714D01*
X185131904Y-137883333D01*
X184322380Y-137883333D01*
X185322380Y-138883333D02*
X185322380Y-138311904D01*
X185322380Y-138597619D02*
X184322380Y-138597619D01*
X184465238Y-138502380D01*
X184560476Y-138407142D01*
X184608095Y-138311904D01*
X184750952Y-139454761D02*
X184703333Y-139359523D01*
X184655714Y-139311904D01*
X184560476Y-139264285D01*
X184512857Y-139264285D01*
X184417619Y-139311904D01*
X184370000Y-139359523D01*
X184322380Y-139454761D01*
X184322380Y-139645238D01*
X184370000Y-139740476D01*
X184417619Y-139788095D01*
X184512857Y-139835714D01*
X184560476Y-139835714D01*
X184655714Y-139788095D01*
X184703333Y-139740476D01*
X184750952Y-139645238D01*
X184750952Y-139454761D01*
X184798571Y-139359523D01*
X184846190Y-139311904D01*
X184941428Y-139264285D01*
X185131904Y-139264285D01*
X185227142Y-139311904D01*
X185274761Y-139359523D01*
X185322380Y-139454761D01*
X185322380Y-139645238D01*
X185274761Y-139740476D01*
X185227142Y-139788095D01*
X185131904Y-139835714D01*
X184941428Y-139835714D01*
X184846190Y-139788095D01*
X184798571Y-139740476D01*
X184750952Y-139645238D01*
%TO.C,U19*%
X184322380Y-111911904D02*
X185131904Y-111911904D01*
X185227142Y-111959523D01*
X185274761Y-112007142D01*
X185322380Y-112102380D01*
X185322380Y-112292857D01*
X185274761Y-112388095D01*
X185227142Y-112435714D01*
X185131904Y-112483333D01*
X184322380Y-112483333D01*
X185322380Y-113483333D02*
X185322380Y-112911904D01*
X185322380Y-113197619D02*
X184322380Y-113197619D01*
X184465238Y-113102380D01*
X184560476Y-113007142D01*
X184608095Y-112911904D01*
X185322380Y-113959523D02*
X185322380Y-114150000D01*
X185274761Y-114245238D01*
X185227142Y-114292857D01*
X185084285Y-114388095D01*
X184893809Y-114435714D01*
X184512857Y-114435714D01*
X184417619Y-114388095D01*
X184370000Y-114340476D01*
X184322380Y-114245238D01*
X184322380Y-114054761D01*
X184370000Y-113959523D01*
X184417619Y-113911904D01*
X184512857Y-113864285D01*
X184750952Y-113864285D01*
X184846190Y-113911904D01*
X184893809Y-113959523D01*
X184941428Y-114054761D01*
X184941428Y-114245238D01*
X184893809Y-114340476D01*
X184846190Y-114388095D01*
X184750952Y-114435714D01*
%TO.C,C22*%
X185462857Y-105897142D02*
X185510476Y-105944761D01*
X185653333Y-105992380D01*
X185748571Y-105992380D01*
X185891428Y-105944761D01*
X185986666Y-105849523D01*
X186034285Y-105754285D01*
X186081904Y-105563809D01*
X186081904Y-105420952D01*
X186034285Y-105230476D01*
X185986666Y-105135238D01*
X185891428Y-105040000D01*
X185748571Y-104992380D01*
X185653333Y-104992380D01*
X185510476Y-105040000D01*
X185462857Y-105087619D01*
X185081904Y-105087619D02*
X185034285Y-105040000D01*
X184939047Y-104992380D01*
X184700952Y-104992380D01*
X184605714Y-105040000D01*
X184558095Y-105087619D01*
X184510476Y-105182857D01*
X184510476Y-105278095D01*
X184558095Y-105420952D01*
X185129523Y-105992380D01*
X184510476Y-105992380D01*
X184129523Y-105087619D02*
X184081904Y-105040000D01*
X183986666Y-104992380D01*
X183748571Y-104992380D01*
X183653333Y-105040000D01*
X183605714Y-105087619D01*
X183558095Y-105182857D01*
X183558095Y-105278095D01*
X183605714Y-105420952D01*
X184177142Y-105992380D01*
X183558095Y-105992380D01*
%TO.C,C23*%
X185462857Y-131297142D02*
X185510476Y-131344761D01*
X185653333Y-131392380D01*
X185748571Y-131392380D01*
X185891428Y-131344761D01*
X185986666Y-131249523D01*
X186034285Y-131154285D01*
X186081904Y-130963809D01*
X186081904Y-130820952D01*
X186034285Y-130630476D01*
X185986666Y-130535238D01*
X185891428Y-130440000D01*
X185748571Y-130392380D01*
X185653333Y-130392380D01*
X185510476Y-130440000D01*
X185462857Y-130487619D01*
X185081904Y-130487619D02*
X185034285Y-130440000D01*
X184939047Y-130392380D01*
X184700952Y-130392380D01*
X184605714Y-130440000D01*
X184558095Y-130487619D01*
X184510476Y-130582857D01*
X184510476Y-130678095D01*
X184558095Y-130820952D01*
X185129523Y-131392380D01*
X184510476Y-131392380D01*
X184177142Y-130392380D02*
X183558095Y-130392380D01*
X183891428Y-130773333D01*
X183748571Y-130773333D01*
X183653333Y-130820952D01*
X183605714Y-130868571D01*
X183558095Y-130963809D01*
X183558095Y-131201904D01*
X183605714Y-131297142D01*
X183653333Y-131344761D01*
X183748571Y-131392380D01*
X184034285Y-131392380D01*
X184129523Y-131344761D01*
X184177142Y-131297142D01*
%TO.C,P4*%
X62652380Y-217761904D02*
X61652380Y-217761904D01*
X61652380Y-218142857D01*
X61700000Y-218238095D01*
X61747619Y-218285714D01*
X61842857Y-218333333D01*
X61985714Y-218333333D01*
X62080952Y-218285714D01*
X62128571Y-218238095D01*
X62176190Y-218142857D01*
X62176190Y-217761904D01*
X61985714Y-219190476D02*
X62652380Y-219190476D01*
X61604761Y-218952380D02*
X62319047Y-218714285D01*
X62319047Y-219333333D01*
%TO.C,R5*%
X58976666Y-90452380D02*
X59310000Y-89976190D01*
X59548095Y-90452380D02*
X59548095Y-89452380D01*
X59167142Y-89452380D01*
X59071904Y-89500000D01*
X59024285Y-89547619D01*
X58976666Y-89642857D01*
X58976666Y-89785714D01*
X59024285Y-89880952D01*
X59071904Y-89928571D01*
X59167142Y-89976190D01*
X59548095Y-89976190D01*
X58071904Y-89452380D02*
X58548095Y-89452380D01*
X58595714Y-89928571D01*
X58548095Y-89880952D01*
X58452857Y-89833333D01*
X58214761Y-89833333D01*
X58119523Y-89880952D01*
X58071904Y-89928571D01*
X58024285Y-90023809D01*
X58024285Y-90261904D01*
X58071904Y-90357142D01*
X58119523Y-90404761D01*
X58214761Y-90452380D01*
X58452857Y-90452380D01*
X58548095Y-90404761D01*
X58595714Y-90357142D01*
%TO.C,J35*%
X109469523Y-126552380D02*
X109469523Y-127266666D01*
X109517142Y-127409523D01*
X109612380Y-127504761D01*
X109755238Y-127552380D01*
X109850476Y-127552380D01*
X109088571Y-126552380D02*
X108469523Y-126552380D01*
X108802857Y-126933333D01*
X108660000Y-126933333D01*
X108564761Y-126980952D01*
X108517142Y-127028571D01*
X108469523Y-127123809D01*
X108469523Y-127361904D01*
X108517142Y-127457142D01*
X108564761Y-127504761D01*
X108660000Y-127552380D01*
X108945714Y-127552380D01*
X109040952Y-127504761D01*
X109088571Y-127457142D01*
X107564761Y-126552380D02*
X108040952Y-126552380D01*
X108088571Y-127028571D01*
X108040952Y-126980952D01*
X107945714Y-126933333D01*
X107707619Y-126933333D01*
X107612380Y-126980952D01*
X107564761Y-127028571D01*
X107517142Y-127123809D01*
X107517142Y-127361904D01*
X107564761Y-127457142D01*
X107612380Y-127504761D01*
X107707619Y-127552380D01*
X107945714Y-127552380D01*
X108040952Y-127504761D01*
X108088571Y-127457142D01*
%TO.C,U25*%
X108122380Y-137591904D02*
X108931904Y-137591904D01*
X109027142Y-137639523D01*
X109074761Y-137687142D01*
X109122380Y-137782380D01*
X109122380Y-137972857D01*
X109074761Y-138068095D01*
X109027142Y-138115714D01*
X108931904Y-138163333D01*
X108122380Y-138163333D01*
X108217619Y-138591904D02*
X108170000Y-138639523D01*
X108122380Y-138734761D01*
X108122380Y-138972857D01*
X108170000Y-139068095D01*
X108217619Y-139115714D01*
X108312857Y-139163333D01*
X108408095Y-139163333D01*
X108550952Y-139115714D01*
X109122380Y-138544285D01*
X109122380Y-139163333D01*
X108122380Y-140068095D02*
X108122380Y-139591904D01*
X108598571Y-139544285D01*
X108550952Y-139591904D01*
X108503333Y-139687142D01*
X108503333Y-139925238D01*
X108550952Y-140020476D01*
X108598571Y-140068095D01*
X108693809Y-140115714D01*
X108931904Y-140115714D01*
X109027142Y-140068095D01*
X109074761Y-140020476D01*
X109122380Y-139925238D01*
X109122380Y-139687142D01*
X109074761Y-139591904D01*
X109027142Y-139544285D01*
%TO.C,RN3*%
X99190476Y-118772380D02*
X99523809Y-118296190D01*
X99761904Y-118772380D02*
X99761904Y-117772380D01*
X99380952Y-117772380D01*
X99285714Y-117820000D01*
X99238095Y-117867619D01*
X99190476Y-117962857D01*
X99190476Y-118105714D01*
X99238095Y-118200952D01*
X99285714Y-118248571D01*
X99380952Y-118296190D01*
X99761904Y-118296190D01*
X98761904Y-118772380D02*
X98761904Y-117772380D01*
X98190476Y-118772380D01*
X98190476Y-117772380D01*
X97809523Y-117772380D02*
X97190476Y-117772380D01*
X97523809Y-118153333D01*
X97380952Y-118153333D01*
X97285714Y-118200952D01*
X97238095Y-118248571D01*
X97190476Y-118343809D01*
X97190476Y-118581904D01*
X97238095Y-118677142D01*
X97285714Y-118724761D01*
X97380952Y-118772380D01*
X97666666Y-118772380D01*
X97761904Y-118724761D01*
X97809523Y-118677142D01*
%TO.C,U22*%
X108122380Y-188116904D02*
X108931904Y-188116904D01*
X109027142Y-188164523D01*
X109074761Y-188212142D01*
X109122380Y-188307380D01*
X109122380Y-188497857D01*
X109074761Y-188593095D01*
X109027142Y-188640714D01*
X108931904Y-188688333D01*
X108122380Y-188688333D01*
X108217619Y-189116904D02*
X108170000Y-189164523D01*
X108122380Y-189259761D01*
X108122380Y-189497857D01*
X108170000Y-189593095D01*
X108217619Y-189640714D01*
X108312857Y-189688333D01*
X108408095Y-189688333D01*
X108550952Y-189640714D01*
X109122380Y-189069285D01*
X109122380Y-189688333D01*
X108217619Y-190069285D02*
X108170000Y-190116904D01*
X108122380Y-190212142D01*
X108122380Y-190450238D01*
X108170000Y-190545476D01*
X108217619Y-190593095D01*
X108312857Y-190640714D01*
X108408095Y-190640714D01*
X108550952Y-190593095D01*
X109122380Y-190021666D01*
X109122380Y-190640714D01*
%TO.C,C29*%
X109262857Y-156977142D02*
X109310476Y-157024761D01*
X109453333Y-157072380D01*
X109548571Y-157072380D01*
X109691428Y-157024761D01*
X109786666Y-156929523D01*
X109834285Y-156834285D01*
X109881904Y-156643809D01*
X109881904Y-156500952D01*
X109834285Y-156310476D01*
X109786666Y-156215238D01*
X109691428Y-156120000D01*
X109548571Y-156072380D01*
X109453333Y-156072380D01*
X109310476Y-156120000D01*
X109262857Y-156167619D01*
X108881904Y-156167619D02*
X108834285Y-156120000D01*
X108739047Y-156072380D01*
X108500952Y-156072380D01*
X108405714Y-156120000D01*
X108358095Y-156167619D01*
X108310476Y-156262857D01*
X108310476Y-156358095D01*
X108358095Y-156500952D01*
X108929523Y-157072380D01*
X108310476Y-157072380D01*
X107834285Y-157072380D02*
X107643809Y-157072380D01*
X107548571Y-157024761D01*
X107500952Y-156977142D01*
X107405714Y-156834285D01*
X107358095Y-156643809D01*
X107358095Y-156262857D01*
X107405714Y-156167619D01*
X107453333Y-156120000D01*
X107548571Y-156072380D01*
X107739047Y-156072380D01*
X107834285Y-156120000D01*
X107881904Y-156167619D01*
X107929523Y-156262857D01*
X107929523Y-156500952D01*
X107881904Y-156596190D01*
X107834285Y-156643809D01*
X107739047Y-156691428D01*
X107548571Y-156691428D01*
X107453333Y-156643809D01*
X107405714Y-156596190D01*
X107358095Y-156500952D01*
%TO.C,J34*%
X109469523Y-177352380D02*
X109469523Y-178066666D01*
X109517142Y-178209523D01*
X109612380Y-178304761D01*
X109755238Y-178352380D01*
X109850476Y-178352380D01*
X109088571Y-177352380D02*
X108469523Y-177352380D01*
X108802857Y-177733333D01*
X108660000Y-177733333D01*
X108564761Y-177780952D01*
X108517142Y-177828571D01*
X108469523Y-177923809D01*
X108469523Y-178161904D01*
X108517142Y-178257142D01*
X108564761Y-178304761D01*
X108660000Y-178352380D01*
X108945714Y-178352380D01*
X109040952Y-178304761D01*
X109088571Y-178257142D01*
X107612380Y-177685714D02*
X107612380Y-178352380D01*
X107850476Y-177304761D02*
X108088571Y-178019047D01*
X107469523Y-178019047D01*
%TO.C,J33*%
X109809523Y-151952380D02*
X109809523Y-152666666D01*
X109857142Y-152809523D01*
X109952380Y-152904761D01*
X110095238Y-152952380D01*
X110190476Y-152952380D01*
X109428571Y-151952380D02*
X108809523Y-151952380D01*
X109142857Y-152333333D01*
X109000000Y-152333333D01*
X108904761Y-152380952D01*
X108857142Y-152428571D01*
X108809523Y-152523809D01*
X108809523Y-152761904D01*
X108857142Y-152857142D01*
X108904761Y-152904761D01*
X109000000Y-152952380D01*
X109285714Y-152952380D01*
X109380952Y-152904761D01*
X109428571Y-152857142D01*
X108476190Y-151952380D02*
X107857142Y-151952380D01*
X108190476Y-152333333D01*
X108047619Y-152333333D01*
X107952380Y-152380952D01*
X107904761Y-152428571D01*
X107857142Y-152523809D01*
X107857142Y-152761904D01*
X107904761Y-152857142D01*
X107952380Y-152904761D01*
X108047619Y-152952380D01*
X108333333Y-152952380D01*
X108428571Y-152904761D01*
X108476190Y-152857142D01*
%TO.C,U30*%
X108122380Y-112191904D02*
X108931904Y-112191904D01*
X109027142Y-112239523D01*
X109074761Y-112287142D01*
X109122380Y-112382380D01*
X109122380Y-112572857D01*
X109074761Y-112668095D01*
X109027142Y-112715714D01*
X108931904Y-112763333D01*
X108122380Y-112763333D01*
X108122380Y-113144285D02*
X108122380Y-113763333D01*
X108503333Y-113430000D01*
X108503333Y-113572857D01*
X108550952Y-113668095D01*
X108598571Y-113715714D01*
X108693809Y-113763333D01*
X108931904Y-113763333D01*
X109027142Y-113715714D01*
X109074761Y-113668095D01*
X109122380Y-113572857D01*
X109122380Y-113287142D01*
X109074761Y-113191904D01*
X109027142Y-113144285D01*
X108122380Y-114382380D02*
X108122380Y-114477619D01*
X108170000Y-114572857D01*
X108217619Y-114620476D01*
X108312857Y-114668095D01*
X108503333Y-114715714D01*
X108741428Y-114715714D01*
X108931904Y-114668095D01*
X109027142Y-114620476D01*
X109074761Y-114572857D01*
X109122380Y-114477619D01*
X109122380Y-114382380D01*
X109074761Y-114287142D01*
X109027142Y-114239523D01*
X108931904Y-114191904D01*
X108741428Y-114144285D01*
X108503333Y-114144285D01*
X108312857Y-114191904D01*
X108217619Y-114239523D01*
X108170000Y-114287142D01*
X108122380Y-114382380D01*
%TO.C,BT1*%
X167788571Y-96684285D02*
X167836190Y-96827142D01*
X167883809Y-96874761D01*
X167979047Y-96922380D01*
X168121904Y-96922380D01*
X168217142Y-96874761D01*
X168264761Y-96827142D01*
X168312380Y-96731904D01*
X168312380Y-96350952D01*
X167312380Y-96350952D01*
X167312380Y-96684285D01*
X167360000Y-96779523D01*
X167407619Y-96827142D01*
X167502857Y-96874761D01*
X167598095Y-96874761D01*
X167693333Y-96827142D01*
X167740952Y-96779523D01*
X167788571Y-96684285D01*
X167788571Y-96350952D01*
X167312380Y-97208095D02*
X167312380Y-97779523D01*
X168312380Y-97493809D02*
X167312380Y-97493809D01*
X168312380Y-98636666D02*
X168312380Y-98065238D01*
X168312380Y-98350952D02*
X167312380Y-98350952D01*
X167455238Y-98255714D01*
X167550476Y-98160476D01*
X167598095Y-98065238D01*
%TO.C,C24*%
X109262857Y-182377142D02*
X109310476Y-182424761D01*
X109453333Y-182472380D01*
X109548571Y-182472380D01*
X109691428Y-182424761D01*
X109786666Y-182329523D01*
X109834285Y-182234285D01*
X109881904Y-182043809D01*
X109881904Y-181900952D01*
X109834285Y-181710476D01*
X109786666Y-181615238D01*
X109691428Y-181520000D01*
X109548571Y-181472380D01*
X109453333Y-181472380D01*
X109310476Y-181520000D01*
X109262857Y-181567619D01*
X108881904Y-181567619D02*
X108834285Y-181520000D01*
X108739047Y-181472380D01*
X108500952Y-181472380D01*
X108405714Y-181520000D01*
X108358095Y-181567619D01*
X108310476Y-181662857D01*
X108310476Y-181758095D01*
X108358095Y-181900952D01*
X108929523Y-182472380D01*
X108310476Y-182472380D01*
X107453333Y-181805714D02*
X107453333Y-182472380D01*
X107691428Y-181424761D02*
X107929523Y-182139047D01*
X107310476Y-182139047D01*
%TO.C,U23*%
X108122380Y-162716904D02*
X108931904Y-162716904D01*
X109027142Y-162764523D01*
X109074761Y-162812142D01*
X109122380Y-162907380D01*
X109122380Y-163097857D01*
X109074761Y-163193095D01*
X109027142Y-163240714D01*
X108931904Y-163288333D01*
X108122380Y-163288333D01*
X108217619Y-163716904D02*
X108170000Y-163764523D01*
X108122380Y-163859761D01*
X108122380Y-164097857D01*
X108170000Y-164193095D01*
X108217619Y-164240714D01*
X108312857Y-164288333D01*
X108408095Y-164288333D01*
X108550952Y-164240714D01*
X109122380Y-163669285D01*
X109122380Y-164288333D01*
X108122380Y-164621666D02*
X108122380Y-165240714D01*
X108503333Y-164907380D01*
X108503333Y-165050238D01*
X108550952Y-165145476D01*
X108598571Y-165193095D01*
X108693809Y-165240714D01*
X108931904Y-165240714D01*
X109027142Y-165193095D01*
X109074761Y-165145476D01*
X109122380Y-165050238D01*
X109122380Y-164764523D01*
X109074761Y-164669285D01*
X109027142Y-164621666D01*
%TO.C,J1*%
X100927380Y-218166666D02*
X101641666Y-218166666D01*
X101784523Y-218119047D01*
X101879761Y-218023809D01*
X101927380Y-217880952D01*
X101927380Y-217785714D01*
X101927380Y-219166666D02*
X101927380Y-218595238D01*
X101927380Y-218880952D02*
X100927380Y-218880952D01*
X101070238Y-218785714D01*
X101165476Y-218690476D01*
X101213095Y-218595238D01*
%TO.C,J32*%
X109469523Y-202472380D02*
X109469523Y-203186666D01*
X109517142Y-203329523D01*
X109612380Y-203424761D01*
X109755238Y-203472380D01*
X109850476Y-203472380D01*
X109088571Y-202472380D02*
X108469523Y-202472380D01*
X108802857Y-202853333D01*
X108660000Y-202853333D01*
X108564761Y-202900952D01*
X108517142Y-202948571D01*
X108469523Y-203043809D01*
X108469523Y-203281904D01*
X108517142Y-203377142D01*
X108564761Y-203424761D01*
X108660000Y-203472380D01*
X108945714Y-203472380D01*
X109040952Y-203424761D01*
X109088571Y-203377142D01*
X108088571Y-202567619D02*
X108040952Y-202520000D01*
X107945714Y-202472380D01*
X107707619Y-202472380D01*
X107612380Y-202520000D01*
X107564761Y-202567619D01*
X107517142Y-202662857D01*
X107517142Y-202758095D01*
X107564761Y-202900952D01*
X108136190Y-203472380D01*
X107517142Y-203472380D01*
%TO.C,RN2*%
X99190476Y-174787380D02*
X99523809Y-174311190D01*
X99761904Y-174787380D02*
X99761904Y-173787380D01*
X99380952Y-173787380D01*
X99285714Y-173835000D01*
X99238095Y-173882619D01*
X99190476Y-173977857D01*
X99190476Y-174120714D01*
X99238095Y-174215952D01*
X99285714Y-174263571D01*
X99380952Y-174311190D01*
X99761904Y-174311190D01*
X98761904Y-174787380D02*
X98761904Y-173787380D01*
X98190476Y-174787380D01*
X98190476Y-173787380D01*
X97761904Y-173882619D02*
X97714285Y-173835000D01*
X97619047Y-173787380D01*
X97380952Y-173787380D01*
X97285714Y-173835000D01*
X97238095Y-173882619D01*
X97190476Y-173977857D01*
X97190476Y-174073095D01*
X97238095Y-174215952D01*
X97809523Y-174787380D01*
X97190476Y-174787380D01*
%TO.C,C35*%
X109262857Y-131577142D02*
X109310476Y-131624761D01*
X109453333Y-131672380D01*
X109548571Y-131672380D01*
X109691428Y-131624761D01*
X109786666Y-131529523D01*
X109834285Y-131434285D01*
X109881904Y-131243809D01*
X109881904Y-131100952D01*
X109834285Y-130910476D01*
X109786666Y-130815238D01*
X109691428Y-130720000D01*
X109548571Y-130672380D01*
X109453333Y-130672380D01*
X109310476Y-130720000D01*
X109262857Y-130767619D01*
X108929523Y-130672380D02*
X108310476Y-130672380D01*
X108643809Y-131053333D01*
X108500952Y-131053333D01*
X108405714Y-131100952D01*
X108358095Y-131148571D01*
X108310476Y-131243809D01*
X108310476Y-131481904D01*
X108358095Y-131577142D01*
X108405714Y-131624761D01*
X108500952Y-131672380D01*
X108786666Y-131672380D01*
X108881904Y-131624761D01*
X108929523Y-131577142D01*
X107405714Y-130672380D02*
X107881904Y-130672380D01*
X107929523Y-131148571D01*
X107881904Y-131100952D01*
X107786666Y-131053333D01*
X107548571Y-131053333D01*
X107453333Y-131100952D01*
X107405714Y-131148571D01*
X107358095Y-131243809D01*
X107358095Y-131481904D01*
X107405714Y-131577142D01*
X107453333Y-131624761D01*
X107548571Y-131672380D01*
X107786666Y-131672380D01*
X107881904Y-131624761D01*
X107929523Y-131577142D01*
%TO.C,C36*%
X109342857Y-106177142D02*
X109390476Y-106224761D01*
X109533333Y-106272380D01*
X109628571Y-106272380D01*
X109771428Y-106224761D01*
X109866666Y-106129523D01*
X109914285Y-106034285D01*
X109961904Y-105843809D01*
X109961904Y-105700952D01*
X109914285Y-105510476D01*
X109866666Y-105415238D01*
X109771428Y-105320000D01*
X109628571Y-105272380D01*
X109533333Y-105272380D01*
X109390476Y-105320000D01*
X109342857Y-105367619D01*
X109009523Y-105272380D02*
X108390476Y-105272380D01*
X108723809Y-105653333D01*
X108580952Y-105653333D01*
X108485714Y-105700952D01*
X108438095Y-105748571D01*
X108390476Y-105843809D01*
X108390476Y-106081904D01*
X108438095Y-106177142D01*
X108485714Y-106224761D01*
X108580952Y-106272380D01*
X108866666Y-106272380D01*
X108961904Y-106224761D01*
X109009523Y-106177142D01*
X107533333Y-105272380D02*
X107723809Y-105272380D01*
X107819047Y-105320000D01*
X107866666Y-105367619D01*
X107961904Y-105510476D01*
X108009523Y-105700952D01*
X108009523Y-106081904D01*
X107961904Y-106177142D01*
X107914285Y-106224761D01*
X107819047Y-106272380D01*
X107628571Y-106272380D01*
X107533333Y-106224761D01*
X107485714Y-106177142D01*
X107438095Y-106081904D01*
X107438095Y-105843809D01*
X107485714Y-105748571D01*
X107533333Y-105700952D01*
X107628571Y-105653333D01*
X107819047Y-105653333D01*
X107914285Y-105700952D01*
X107961904Y-105748571D01*
X108009523Y-105843809D01*
%TD*%
M02*
