%TF.GenerationSoftware,KiCad,Pcbnew,(6.0.11)*%
%TF.CreationDate,2023-10-14T12:13:22-04:00*%
%TF.ProjectId,SAB80535-Dev-Board,53414238-3035-4333-952d-4465762d426f,rev?*%
%TF.SameCoordinates,Original*%
%TF.FileFunction,Drillmap*%
%TF.FilePolarity,Positive*%
%FSLAX45Y45*%
G04 Gerber Fmt 4.5, Leading zero omitted, Abs format (unit mm)*
G04 Created by KiCad (PCBNEW (6.0.11)) date 2023-10-14 12:13:22*
%MOMM*%
%LPD*%
G01*
G04 APERTURE LIST*
%ADD10C,0.100000*%
%ADD11C,0.200000*%
%ADD12C,0.040000*%
%ADD13C,0.080000*%
%ADD14C,0.090000*%
%ADD15C,0.110000*%
%ADD16C,0.130000*%
G04 APERTURE END LIST*
D10*
X21000000Y-5000000D02*
X5000000Y-5000000D01*
X5000000Y-15000000D02*
X21000000Y-15000000D01*
X5000000Y-5000000D02*
X5000000Y-15000000D01*
X21000000Y-5000000D02*
X21000000Y-15000000D01*
D11*
D12*
X6006650Y-9310040D02*
X6046650Y-9350040D01*
X6046650Y-9310040D02*
X6006650Y-9350040D01*
X6468140Y-11769310D02*
X6508140Y-11809310D01*
X6508140Y-11769310D02*
X6468140Y-11809310D01*
X6614190Y-11448550D02*
X6654190Y-11488550D01*
X6654190Y-11448550D02*
X6614190Y-11488550D01*
X6644450Y-8112050D02*
X6684450Y-8152050D01*
X6684450Y-8112050D02*
X6644450Y-8152050D01*
X6736250Y-14057500D02*
X6776250Y-14097500D01*
X6776250Y-14057500D02*
X6736250Y-14097500D01*
X6800280Y-11781040D02*
X6840280Y-11821040D01*
X6840280Y-11781040D02*
X6800280Y-11821040D01*
X6809400Y-13646670D02*
X6849400Y-13686670D01*
X6849400Y-13646670D02*
X6809400Y-13686670D01*
X6878650Y-9931820D02*
X6918650Y-9971820D01*
X6918650Y-9931820D02*
X6878650Y-9971820D01*
X6879470Y-10036070D02*
X6919470Y-10076070D01*
X6919470Y-10036070D02*
X6879470Y-10076070D01*
X6907800Y-9796210D02*
X6947800Y-9836210D01*
X6947800Y-9796210D02*
X6907800Y-9836210D01*
X7034550Y-13309930D02*
X7074550Y-13349930D01*
X7074550Y-13309930D02*
X7034550Y-13349930D01*
X7039320Y-9752110D02*
X7079320Y-9792110D01*
X7079320Y-9752110D02*
X7039320Y-9792110D01*
X7132570Y-10631920D02*
X7172570Y-10671920D01*
X7172570Y-10631920D02*
X7132570Y-10671920D01*
X7379320Y-9371270D02*
X7419320Y-9411270D01*
X7419320Y-9371270D02*
X7379320Y-9411270D01*
X7447580Y-7952530D02*
X7487580Y-7992530D01*
X7487580Y-7952530D02*
X7447580Y-7992530D01*
X7567160Y-11475790D02*
X7607160Y-11515790D01*
X7607160Y-11475790D02*
X7567160Y-11515790D01*
X7775280Y-5629170D02*
X7815280Y-5669170D01*
X7815280Y-5629170D02*
X7775280Y-5669170D01*
X8150110Y-9943580D02*
X8190110Y-9983580D01*
X8190110Y-9943580D02*
X8150110Y-9983580D01*
X8242850Y-13040380D02*
X8282850Y-13080380D01*
X8282850Y-13040380D02*
X8242850Y-13080380D01*
X8263480Y-9445400D02*
X8303480Y-9485400D01*
X8303480Y-9445400D02*
X8263480Y-9485400D01*
X8418240Y-9629200D02*
X8458240Y-9669200D01*
X8458240Y-9629200D02*
X8418240Y-9669200D01*
X8489010Y-10613660D02*
X8529010Y-10653660D01*
X8529010Y-10613660D02*
X8489010Y-10653660D01*
X8489690Y-10512750D02*
X8529690Y-10552750D01*
X8529690Y-10512750D02*
X8489690Y-10552750D01*
X8606670Y-11683420D02*
X8646670Y-11723420D01*
X8646670Y-11683420D02*
X8606670Y-11723420D01*
X8786810Y-10766150D02*
X8826810Y-10806150D01*
X8826810Y-10766150D02*
X8786810Y-10806150D01*
X8808380Y-13058500D02*
X8848380Y-13098500D01*
X8848380Y-13058500D02*
X8808380Y-13098500D01*
X8871270Y-10610440D02*
X8911270Y-10650440D01*
X8911270Y-10610440D02*
X8871270Y-10650440D01*
X8952090Y-6920420D02*
X8992090Y-6960420D01*
X8992090Y-6920420D02*
X8952090Y-6960420D01*
X9087260Y-10617950D02*
X9127260Y-10657950D01*
X9127260Y-10617950D02*
X9087260Y-10657950D01*
X9172090Y-11582270D02*
X9212090Y-11622270D01*
X9212090Y-11582270D02*
X9172090Y-11622270D01*
X9311930Y-12628100D02*
X9351930Y-12668100D01*
X9351930Y-12628100D02*
X9311930Y-12668100D01*
X9319780Y-9930530D02*
X9359780Y-9970530D01*
X9359780Y-9930530D02*
X9319780Y-9970530D01*
X9371010Y-11537690D02*
X9411010Y-11577690D01*
X9411010Y-11537690D02*
X9371010Y-11577690D01*
X9437460Y-9759000D02*
X9477460Y-9799000D01*
X9477460Y-9759000D02*
X9437460Y-9799000D01*
X9459600Y-7568790D02*
X9499600Y-7608790D01*
X9499600Y-7568790D02*
X9459600Y-7608790D01*
X9495260Y-10178740D02*
X9535260Y-10218740D01*
X9535260Y-10178740D02*
X9495260Y-10218740D01*
X9579560Y-11566770D02*
X9619560Y-11606770D01*
X9619560Y-11566770D02*
X9579560Y-11606770D01*
X9597590Y-10790850D02*
X9637590Y-10830850D01*
X9637590Y-10790850D02*
X9597590Y-10830850D01*
X9656720Y-10694230D02*
X9696720Y-10734230D01*
X9696720Y-10694230D02*
X9656720Y-10734230D01*
X9701000Y-5368190D02*
X9741000Y-5408190D01*
X9741000Y-5368190D02*
X9701000Y-5408190D01*
X9783690Y-8636950D02*
X9823690Y-8676950D01*
X9823690Y-8636950D02*
X9783690Y-8676950D01*
X9790340Y-6755360D02*
X9830340Y-6795360D01*
X9830340Y-6755360D02*
X9790340Y-6795360D01*
X9832010Y-5442540D02*
X9872010Y-5482540D01*
X9872010Y-5442540D02*
X9832010Y-5482540D01*
X9864220Y-11540310D02*
X9904220Y-11580310D01*
X9904220Y-11540310D02*
X9864220Y-11580310D01*
X9910840Y-10204010D02*
X9950840Y-10244010D01*
X9950840Y-10204010D02*
X9910840Y-10244010D01*
X9995210Y-11529990D02*
X10035210Y-11569990D01*
X10035210Y-11529990D02*
X9995210Y-11569990D01*
X10004580Y-7458930D02*
X10044580Y-7498930D01*
X10044580Y-7458930D02*
X10004580Y-7498930D01*
X10006680Y-8266930D02*
X10046680Y-8306930D01*
X10046680Y-8266930D02*
X10006680Y-8306930D01*
X10112400Y-11681660D02*
X10152400Y-11721660D01*
X10152400Y-11681660D02*
X10112400Y-11721660D01*
X10139150Y-12570880D02*
X10179150Y-12610880D01*
X10179150Y-12570880D02*
X10139150Y-12610880D01*
X10160150Y-9305670D02*
X10200150Y-9345670D01*
X10200150Y-9305670D02*
X10160150Y-9345670D01*
X10221990Y-12501300D02*
X10261990Y-12541300D01*
X10261990Y-12501300D02*
X10221990Y-12541300D01*
X10347090Y-12652630D02*
X10387090Y-12692630D01*
X10387090Y-12652630D02*
X10347090Y-12692630D01*
X10384510Y-9378200D02*
X10424510Y-9418200D01*
X10424510Y-9378200D02*
X10384510Y-9418200D01*
X10487420Y-12491840D02*
X10527420Y-12531840D01*
X10527420Y-12491840D02*
X10487420Y-12531840D01*
X10724650Y-10766680D02*
X10764650Y-10806680D01*
X10764650Y-10766680D02*
X10724650Y-10806680D01*
X10785680Y-12181250D02*
X10825680Y-12221250D01*
X10825680Y-12181250D02*
X10785680Y-12221250D01*
X10916390Y-11728990D02*
X10956390Y-11768990D01*
X10956390Y-11728990D02*
X10916390Y-11768990D01*
X10989950Y-11211610D02*
X11029950Y-11251610D01*
X11029950Y-11211610D02*
X10989950Y-11251610D01*
X11064030Y-11284730D02*
X11104030Y-11324730D01*
X11104030Y-11284730D02*
X11064030Y-11324730D01*
X11346460Y-9354100D02*
X11386460Y-9394100D01*
X11386460Y-9354100D02*
X11346460Y-9394100D01*
X11348810Y-8031980D02*
X11388810Y-8071980D01*
X11388810Y-8031980D02*
X11348810Y-8071980D01*
X11351820Y-7479540D02*
X11391820Y-7519540D01*
X11391820Y-7479540D02*
X11351820Y-7519540D01*
X11386290Y-6680740D02*
X11426290Y-6720740D01*
X11426290Y-6680740D02*
X11386290Y-6720740D01*
X11390980Y-12420010D02*
X11430980Y-12460010D01*
X11430980Y-12420010D02*
X11390980Y-12460010D01*
X11450760Y-8855960D02*
X11490760Y-8895960D01*
X11490760Y-8855960D02*
X11450760Y-8895960D01*
X11517380Y-11122530D02*
X11557380Y-11162530D01*
X11557380Y-11122530D02*
X11517380Y-11162530D01*
X11564300Y-9155000D02*
X11604300Y-9195000D01*
X11604300Y-9155000D02*
X11564300Y-9195000D01*
X11675380Y-8297640D02*
X11715380Y-8337640D01*
X11715380Y-8297640D02*
X11675380Y-8337640D01*
X11681230Y-11873040D02*
X11721230Y-11913040D01*
X11721230Y-11873040D02*
X11681230Y-11913040D01*
X11714720Y-8586750D02*
X11754720Y-8626750D01*
X11754720Y-8586750D02*
X11714720Y-8626750D01*
X11750930Y-8184170D02*
X11790930Y-8224170D01*
X11790930Y-8184170D02*
X11750930Y-8224170D01*
X11816040Y-12398660D02*
X11856040Y-12438660D01*
X11856040Y-12398660D02*
X11816040Y-12438660D01*
X11990380Y-11347980D02*
X12030380Y-11387980D01*
X12030380Y-11347980D02*
X11990380Y-11387980D01*
X12129310Y-9600440D02*
X12169310Y-9640440D01*
X12169310Y-9600440D02*
X12129310Y-9640440D01*
X12354200Y-12961880D02*
X12394200Y-13001880D01*
X12394200Y-12961880D02*
X12354200Y-13001880D01*
X12378120Y-9505470D02*
X12418120Y-9545470D01*
X12418120Y-9505470D02*
X12378120Y-9545470D01*
X12417800Y-9312460D02*
X12457800Y-9352460D01*
X12457800Y-9312460D02*
X12417800Y-9352460D01*
X12499090Y-8086620D02*
X12539090Y-8126620D01*
X12539090Y-8086620D02*
X12499090Y-8126620D01*
X12500330Y-8241160D02*
X12540330Y-8281160D01*
X12540330Y-8241160D02*
X12500330Y-8281160D01*
X12534650Y-10135150D02*
X12574650Y-10175150D01*
X12574650Y-10135150D02*
X12534650Y-10175150D01*
X12751340Y-10665540D02*
X12791340Y-10705540D01*
X12791340Y-10665540D02*
X12751340Y-10705540D01*
X12861520Y-6045900D02*
X12901520Y-6085900D01*
X12901520Y-6045900D02*
X12861520Y-6085900D01*
X12927380Y-5942410D02*
X12967380Y-5982410D01*
X12967380Y-5942410D02*
X12927380Y-5982410D01*
X13001810Y-5402200D02*
X13041810Y-5442200D01*
X13041810Y-5402200D02*
X13001810Y-5442200D01*
X13022500Y-8262000D02*
X13062500Y-8302000D01*
X13062500Y-8262000D02*
X13022500Y-8302000D01*
X13060260Y-6014710D02*
X13100260Y-6054710D01*
X13100260Y-6014710D02*
X13060260Y-6054710D01*
X13134650Y-7980960D02*
X13174650Y-8020960D01*
X13174650Y-7980960D02*
X13134650Y-8020960D01*
X13165800Y-11961360D02*
X13205800Y-12001360D01*
X13205800Y-11961360D02*
X13165800Y-12001360D01*
X13166910Y-5913740D02*
X13206910Y-5953740D01*
X13206910Y-5913740D02*
X13166910Y-5953740D01*
X13273530Y-6197670D02*
X13313530Y-6237670D01*
X13313530Y-6197670D02*
X13273530Y-6237670D01*
X13280150Y-14179420D02*
X13320150Y-14219420D01*
X13320150Y-14179420D02*
X13280150Y-14219420D01*
X13346350Y-10606120D02*
X13386350Y-10646120D01*
X13386350Y-10606120D02*
X13346350Y-10646120D01*
X13384890Y-6950570D02*
X13424890Y-6990570D01*
X13424890Y-6950570D02*
X13384890Y-6990570D01*
X13392460Y-6110600D02*
X13432460Y-6150600D01*
X13432460Y-6110600D02*
X13392460Y-6150600D01*
X13411860Y-5617050D02*
X13451860Y-5657050D01*
X13451860Y-5617050D02*
X13411860Y-5657050D01*
X13441630Y-9665000D02*
X13481630Y-9705000D01*
X13481630Y-9665000D02*
X13441630Y-9705000D01*
X13478920Y-10678720D02*
X13518920Y-10718720D01*
X13518920Y-10678720D02*
X13478920Y-10718720D01*
X13514440Y-5514460D02*
X13554440Y-5554460D01*
X13554440Y-5514460D02*
X13514440Y-5554460D01*
X13516430Y-6351620D02*
X13556430Y-6391620D01*
X13556430Y-6351620D02*
X13516430Y-6391620D01*
X13588010Y-6217320D02*
X13628010Y-6257320D01*
X13628010Y-6217320D02*
X13588010Y-6257320D01*
X13597250Y-5892230D02*
X13637250Y-5932230D01*
X13637250Y-5892230D02*
X13597250Y-5932230D01*
X13699240Y-7702380D02*
X13739240Y-7742380D01*
X13739240Y-7702380D02*
X13699240Y-7742380D01*
X13743250Y-5379500D02*
X13783250Y-5419500D01*
X13783250Y-5379500D02*
X13743250Y-5419500D01*
X13751160Y-8511160D02*
X13791160Y-8551160D01*
X13791160Y-8511160D02*
X13751160Y-8551160D01*
X13781640Y-5711920D02*
X13821640Y-5751920D01*
X13821640Y-5711920D02*
X13781640Y-5751920D01*
X13786000Y-7605780D02*
X13826000Y-7645780D01*
X13826000Y-7605780D02*
X13786000Y-7645780D01*
X13858480Y-8301270D02*
X13898480Y-8341270D01*
X13898480Y-8301270D02*
X13858480Y-8341270D01*
X13872590Y-7237060D02*
X13912590Y-7277060D01*
X13912590Y-7237060D02*
X13872590Y-7277060D01*
X13890970Y-7531470D02*
X13930970Y-7571470D01*
X13930970Y-7531470D02*
X13890970Y-7571470D01*
X13959680Y-5772050D02*
X13999680Y-5812050D01*
X13999680Y-5772050D02*
X13959680Y-5812050D01*
X13990880Y-5421190D02*
X14030880Y-5461190D01*
X14030880Y-5421190D02*
X13990880Y-5461190D01*
X14014840Y-13131680D02*
X14054840Y-13171680D01*
X14054840Y-13131680D02*
X14014840Y-13171680D01*
X14046380Y-7476330D02*
X14086380Y-7516330D01*
X14086380Y-7476330D02*
X14046380Y-7516330D01*
X14057710Y-7322930D02*
X14097710Y-7362930D01*
X14097710Y-7322930D02*
X14057710Y-7362930D01*
X14227580Y-9561040D02*
X14267580Y-9601040D01*
X14267580Y-9561040D02*
X14227580Y-9601040D01*
X14281610Y-9722860D02*
X14321610Y-9762860D01*
X14321610Y-9722860D02*
X14281610Y-9762860D01*
X14437450Y-12160180D02*
X14477450Y-12200180D01*
X14477450Y-12160180D02*
X14437450Y-12200180D01*
X14476600Y-9737120D02*
X14516600Y-9777120D01*
X14516600Y-9737120D02*
X14476600Y-9777120D01*
X14538320Y-9645320D02*
X14578320Y-9685320D01*
X14578320Y-9645320D02*
X14538320Y-9685320D01*
X14555000Y-6346880D02*
X14595000Y-6386880D01*
X14595000Y-6346880D02*
X14555000Y-6386880D01*
X14712210Y-10094840D02*
X14752210Y-10134840D01*
X14752210Y-10094840D02*
X14712210Y-10134840D01*
X14730950Y-7852740D02*
X14770950Y-7892740D01*
X14770950Y-7852740D02*
X14730950Y-7892740D01*
X14740990Y-5905770D02*
X14780990Y-5945770D01*
X14780990Y-5905770D02*
X14740990Y-5945770D01*
X14757130Y-6932990D02*
X14797130Y-6972990D01*
X14797130Y-6932990D02*
X14757130Y-6972990D01*
X14827740Y-10253200D02*
X14867740Y-10293200D01*
X14867740Y-10253200D02*
X14827740Y-10293200D01*
X14859740Y-10542500D02*
X14899740Y-10582500D01*
X14899740Y-10542500D02*
X14859740Y-10582500D01*
X14953520Y-5309710D02*
X14993520Y-5349710D01*
X14993520Y-5309710D02*
X14953520Y-5349710D01*
X14958570Y-14266980D02*
X14998570Y-14306980D01*
X14998570Y-14266980D02*
X14958570Y-14306980D01*
X14983310Y-11814860D02*
X15023310Y-11854860D01*
X15023310Y-11814860D02*
X14983310Y-11854860D01*
X14983310Y-12102570D02*
X15023310Y-12142570D01*
X15023310Y-12102570D02*
X14983310Y-12142570D01*
X14990790Y-9487620D02*
X15030790Y-9527620D01*
X15030790Y-9487620D02*
X14990790Y-9527620D01*
X15062440Y-7361180D02*
X15102440Y-7401180D01*
X15102440Y-7361180D02*
X15062440Y-7401180D01*
X15067400Y-8777000D02*
X15107400Y-8817000D01*
X15107400Y-8777000D02*
X15067400Y-8817000D01*
X15111500Y-7933640D02*
X15151500Y-7973640D01*
X15151500Y-7933640D02*
X15111500Y-7973640D01*
X15124950Y-7786320D02*
X15164950Y-7826320D01*
X15164950Y-7786320D02*
X15124950Y-7826320D01*
X15226680Y-6564880D02*
X15266680Y-6604880D01*
X15266680Y-6564880D02*
X15226680Y-6604880D01*
X15258240Y-7262660D02*
X15298240Y-7302660D01*
X15298240Y-7262660D02*
X15258240Y-7302660D01*
X15277920Y-5401770D02*
X15317920Y-5441770D01*
X15317920Y-5401770D02*
X15277920Y-5441770D01*
X15304230Y-6045230D02*
X15344230Y-6085230D01*
X15344230Y-6045230D02*
X15304230Y-6085230D01*
X15342480Y-14404720D02*
X15382480Y-14444720D01*
X15382480Y-14404720D02*
X15342480Y-14444720D01*
X15353190Y-5933040D02*
X15393190Y-5973040D01*
X15393190Y-5933040D02*
X15353190Y-5973040D01*
X15355540Y-9101600D02*
X15395540Y-9141600D01*
X15395540Y-9101600D02*
X15355540Y-9141600D01*
X15362310Y-7724300D02*
X15402310Y-7764300D01*
X15402310Y-7724300D02*
X15362310Y-7764300D01*
X15428500Y-8269200D02*
X15468500Y-8309200D01*
X15468500Y-8269200D02*
X15428500Y-8309200D01*
X15448850Y-8808410D02*
X15488850Y-8848410D01*
X15488850Y-8808410D02*
X15448850Y-8848410D01*
X15452360Y-7789020D02*
X15492360Y-7829020D01*
X15492360Y-7789020D02*
X15452360Y-7829020D01*
X15541610Y-11510670D02*
X15581610Y-11550670D01*
X15581610Y-11510670D02*
X15541610Y-11550670D01*
X15549140Y-6217870D02*
X15589140Y-6257870D01*
X15589140Y-6217870D02*
X15549140Y-6257870D01*
X15562690Y-8729330D02*
X15602690Y-8769330D01*
X15602690Y-8729330D02*
X15562690Y-8769330D01*
X15593620Y-9338320D02*
X15633620Y-9378320D01*
X15633620Y-9338320D02*
X15593620Y-9378320D01*
X15674200Y-5740240D02*
X15714200Y-5780240D01*
X15714200Y-5740240D02*
X15674200Y-5780240D01*
X15696530Y-9246430D02*
X15736530Y-9286430D01*
X15736530Y-9246430D02*
X15696530Y-9286430D01*
X15744530Y-9402790D02*
X15784530Y-9442790D01*
X15784530Y-9402790D02*
X15744530Y-9442790D01*
X15750000Y-10269360D02*
X15790000Y-10309360D01*
X15790000Y-10269360D02*
X15750000Y-10309360D01*
X15778280Y-5639150D02*
X15818280Y-5679150D01*
X15818280Y-5639150D02*
X15778280Y-5679150D01*
X15789390Y-14408610D02*
X15829390Y-14448610D01*
X15829390Y-14408610D02*
X15789390Y-14448610D01*
X15862560Y-8267200D02*
X15902560Y-8307200D01*
X15902560Y-8267200D02*
X15862560Y-8307200D01*
X15888160Y-6631350D02*
X15928160Y-6671350D01*
X15928160Y-6631350D02*
X15888160Y-6671350D01*
X15943800Y-5719150D02*
X15983800Y-5759150D01*
X15983800Y-5719150D02*
X15943800Y-5759150D01*
X15946560Y-5613820D02*
X15986560Y-5653820D01*
X15986560Y-5613820D02*
X15946560Y-5653820D01*
X16036570Y-7053040D02*
X16076570Y-7093040D01*
X16076570Y-7053040D02*
X16036570Y-7093040D01*
X16088010Y-13271800D02*
X16128010Y-13311800D01*
X16128010Y-13271800D02*
X16088010Y-13311800D01*
X16096000Y-7924990D02*
X16136000Y-7964990D01*
X16136000Y-7924990D02*
X16096000Y-7964990D01*
X16251310Y-13099120D02*
X16291310Y-13139120D01*
X16291310Y-13099120D02*
X16251310Y-13139120D01*
X16273840Y-8861870D02*
X16313840Y-8901870D01*
X16313840Y-8861870D02*
X16273840Y-8901870D01*
X16452020Y-10974070D02*
X16492020Y-11014070D01*
X16492020Y-10974070D02*
X16452020Y-11014070D01*
X16548810Y-7959570D02*
X16588810Y-7999570D01*
X16588810Y-7959570D02*
X16548810Y-7999570D01*
X16656020Y-13902910D02*
X16696020Y-13942910D01*
X16696020Y-13902910D02*
X16656020Y-13942910D01*
X16658520Y-13697920D02*
X16698520Y-13737920D01*
X16698520Y-13697920D02*
X16658520Y-13737920D01*
X16892760Y-6500650D02*
X16932760Y-6540650D01*
X16932760Y-6500650D02*
X16892760Y-6540650D01*
X16980820Y-7424990D02*
X17020820Y-7464990D01*
X17020820Y-7424990D02*
X16980820Y-7464990D01*
X16985550Y-11391820D02*
X17025550Y-11431820D01*
X17025550Y-11391820D02*
X16985550Y-11431820D01*
X17070730Y-11547820D02*
X17110730Y-11587820D01*
X17110730Y-11547820D02*
X17070730Y-11587820D01*
X18188570Y-6584000D02*
X18228570Y-6624000D01*
X18228570Y-6584000D02*
X18188570Y-6624000D01*
X18281080Y-5157090D02*
X18321080Y-5197090D01*
X18321080Y-5157090D02*
X18281080Y-5197090D01*
D13*
X5469490Y-6925000D02*
G75*
G03*
X5469490Y-6925000I-40000J0D01*
G01*
X5719490Y-6925000D02*
G75*
G03*
X5719490Y-6925000I-40000J0D01*
G01*
X5836000Y-9354000D02*
G75*
G03*
X5836000Y-9354000I-40000J0D01*
G01*
X5840000Y-10150000D02*
G75*
G03*
X5840000Y-10150000I-40000J0D01*
G01*
X6044000Y-8375000D02*
G75*
G03*
X6044000Y-8375000I-40000J0D01*
G01*
X6090000Y-9100000D02*
G75*
G03*
X6090000Y-9100000I-40000J0D01*
G01*
X6090000Y-9608000D02*
G75*
G03*
X6090000Y-9608000I-40000J0D01*
G01*
X6128000Y-6992000D02*
G75*
G03*
X6128000Y-6992000I-40000J0D01*
G01*
X6224000Y-12304500D02*
G75*
G03*
X6224000Y-12304500I-40000J0D01*
G01*
X6224000Y-12558500D02*
G75*
G03*
X6224000Y-12558500I-40000J0D01*
G01*
X6224000Y-12812500D02*
G75*
G03*
X6224000Y-12812500I-40000J0D01*
G01*
X6224000Y-13066500D02*
G75*
G03*
X6224000Y-13066500I-40000J0D01*
G01*
X6224000Y-13320500D02*
G75*
G03*
X6224000Y-13320500I-40000J0D01*
G01*
X6224000Y-13574500D02*
G75*
G03*
X6224000Y-13574500I-40000J0D01*
G01*
X6340000Y-10150000D02*
G75*
G03*
X6340000Y-10150000I-40000J0D01*
G01*
X6478000Y-12050500D02*
G75*
G03*
X6478000Y-12050500I-40000J0D01*
G01*
X6478000Y-12304500D02*
G75*
G03*
X6478000Y-12304500I-40000J0D01*
G01*
X6478000Y-12558500D02*
G75*
G03*
X6478000Y-12558500I-40000J0D01*
G01*
X6478000Y-12812500D02*
G75*
G03*
X6478000Y-12812500I-40000J0D01*
G01*
X6478000Y-13066500D02*
G75*
G03*
X6478000Y-13066500I-40000J0D01*
G01*
X6478000Y-13320500D02*
G75*
G03*
X6478000Y-13320500I-40000J0D01*
G01*
X6478000Y-13574500D02*
G75*
G03*
X6478000Y-13574500I-40000J0D01*
G01*
X6478000Y-13828500D02*
G75*
G03*
X6478000Y-13828500I-40000J0D01*
G01*
X6732000Y-12050500D02*
G75*
G03*
X6732000Y-12050500I-40000J0D01*
G01*
X6732000Y-12304500D02*
G75*
G03*
X6732000Y-12304500I-40000J0D01*
G01*
X6732000Y-13574500D02*
G75*
G03*
X6732000Y-13574500I-40000J0D01*
G01*
X6732000Y-13828500D02*
G75*
G03*
X6732000Y-13828500I-40000J0D01*
G01*
X6790000Y-8969000D02*
G75*
G03*
X6790000Y-8969000I-40000J0D01*
G01*
X6790000Y-9731000D02*
G75*
G03*
X6790000Y-9731000I-40000J0D01*
G01*
X6806000Y-8375000D02*
G75*
G03*
X6806000Y-8375000I-40000J0D01*
G01*
X6890000Y-6992000D02*
G75*
G03*
X6890000Y-6992000I-40000J0D01*
G01*
X6986000Y-12050500D02*
G75*
G03*
X6986000Y-12050500I-40000J0D01*
G01*
X6986000Y-12304500D02*
G75*
G03*
X6986000Y-12304500I-40000J0D01*
G01*
X6986000Y-13574500D02*
G75*
G03*
X6986000Y-13574500I-40000J0D01*
G01*
X6986000Y-13828500D02*
G75*
G03*
X6986000Y-13828500I-40000J0D01*
G01*
X7240000Y-12050500D02*
G75*
G03*
X7240000Y-12050500I-40000J0D01*
G01*
X7240000Y-12304500D02*
G75*
G03*
X7240000Y-12304500I-40000J0D01*
G01*
X7240000Y-13574500D02*
G75*
G03*
X7240000Y-13574500I-40000J0D01*
G01*
X7240000Y-13828500D02*
G75*
G03*
X7240000Y-13828500I-40000J0D01*
G01*
X7319490Y-7092000D02*
G75*
G03*
X7319490Y-7092000I-40000J0D01*
G01*
X7475000Y-7669000D02*
G75*
G03*
X7475000Y-7669000I-40000J0D01*
G01*
X7475000Y-8431000D02*
G75*
G03*
X7475000Y-8431000I-40000J0D01*
G01*
X7490000Y-14329500D02*
G75*
G03*
X7490000Y-14329500I-40000J0D01*
G01*
X7494000Y-12050500D02*
G75*
G03*
X7494000Y-12050500I-40000J0D01*
G01*
X7494000Y-12304500D02*
G75*
G03*
X7494000Y-12304500I-40000J0D01*
G01*
X7494000Y-13574500D02*
G75*
G03*
X7494000Y-13574500I-40000J0D01*
G01*
X7494000Y-13828500D02*
G75*
G03*
X7494000Y-13828500I-40000J0D01*
G01*
X7569490Y-7092000D02*
G75*
G03*
X7569490Y-7092000I-40000J0D01*
G01*
X7748000Y-12050500D02*
G75*
G03*
X7748000Y-12050500I-40000J0D01*
G01*
X7748000Y-12304500D02*
G75*
G03*
X7748000Y-12304500I-40000J0D01*
G01*
X7748000Y-12558500D02*
G75*
G03*
X7748000Y-12558500I-40000J0D01*
G01*
X7748000Y-12812500D02*
G75*
G03*
X7748000Y-12812500I-40000J0D01*
G01*
X7748000Y-13066500D02*
G75*
G03*
X7748000Y-13066500I-40000J0D01*
G01*
X7748000Y-13320500D02*
G75*
G03*
X7748000Y-13320500I-40000J0D01*
G01*
X7748000Y-13574500D02*
G75*
G03*
X7748000Y-13574500I-40000J0D01*
G01*
X7748000Y-13828500D02*
G75*
G03*
X7748000Y-13828500I-40000J0D01*
G01*
X7919490Y-7092000D02*
G75*
G03*
X7919490Y-7092000I-40000J0D01*
G01*
X7925000Y-7669000D02*
G75*
G03*
X7925000Y-7669000I-40000J0D01*
G01*
X7925000Y-8431000D02*
G75*
G03*
X7925000Y-8431000I-40000J0D01*
G01*
X7990000Y-14329500D02*
G75*
G03*
X7990000Y-14329500I-40000J0D01*
G01*
X8002000Y-12304500D02*
G75*
G03*
X8002000Y-12304500I-40000J0D01*
G01*
X8002000Y-12558500D02*
G75*
G03*
X8002000Y-12558500I-40000J0D01*
G01*
X8002000Y-12812500D02*
G75*
G03*
X8002000Y-12812500I-40000J0D01*
G01*
X8002000Y-13066500D02*
G75*
G03*
X8002000Y-13066500I-40000J0D01*
G01*
X8002000Y-13320500D02*
G75*
G03*
X8002000Y-13320500I-40000J0D01*
G01*
X8002000Y-13574500D02*
G75*
G03*
X8002000Y-13574500I-40000J0D01*
G01*
X8169490Y-7092000D02*
G75*
G03*
X8169490Y-7092000I-40000J0D01*
G01*
X8515000Y-7273000D02*
G75*
G03*
X8515000Y-7273000I-40000J0D01*
G01*
X8515000Y-7773000D02*
G75*
G03*
X8515000Y-7773000I-40000J0D01*
G01*
X8515000Y-8550000D02*
G75*
G03*
X8515000Y-8550000I-40000J0D01*
G01*
X8515000Y-9050000D02*
G75*
G03*
X8515000Y-9050000I-40000J0D01*
G01*
X8515000Y-9800000D02*
G75*
G03*
X8515000Y-9800000I-40000J0D01*
G01*
X8515000Y-10300000D02*
G75*
G03*
X8515000Y-10300000I-40000J0D01*
G01*
X8712500Y-12225000D02*
G75*
G03*
X8712500Y-12225000I-40000J0D01*
G01*
X8712500Y-12725000D02*
G75*
G03*
X8712500Y-12725000I-40000J0D01*
G01*
X8940000Y-9638000D02*
G75*
G03*
X8940000Y-9638000I-40000J0D01*
G01*
X8940000Y-10400000D02*
G75*
G03*
X8940000Y-10400000I-40000J0D01*
G01*
X8965000Y-8413000D02*
G75*
G03*
X8965000Y-8413000I-40000J0D01*
G01*
X8965000Y-9175000D02*
G75*
G03*
X8965000Y-9175000I-40000J0D01*
G01*
X8972500Y-7141000D02*
G75*
G03*
X8972500Y-7141000I-40000J0D01*
G01*
X8972500Y-7903000D02*
G75*
G03*
X8972500Y-7903000I-40000J0D01*
G01*
X9165000Y-12093000D02*
G75*
G03*
X9165000Y-12093000I-40000J0D01*
G01*
X9165000Y-12855000D02*
G75*
G03*
X9165000Y-12855000I-40000J0D01*
G01*
X9194000Y-9638000D02*
G75*
G03*
X9194000Y-9638000I-40000J0D01*
G01*
X9194000Y-10400000D02*
G75*
G03*
X9194000Y-10400000I-40000J0D01*
G01*
X9219000Y-8413000D02*
G75*
G03*
X9219000Y-8413000I-40000J0D01*
G01*
X9219000Y-9175000D02*
G75*
G03*
X9219000Y-9175000I-40000J0D01*
G01*
X9226500Y-7141000D02*
G75*
G03*
X9226500Y-7141000I-40000J0D01*
G01*
X9226500Y-7903000D02*
G75*
G03*
X9226500Y-7903000I-40000J0D01*
G01*
X9395000Y-14275000D02*
G75*
G03*
X9395000Y-14275000I-40000J0D01*
G01*
X9419000Y-12093000D02*
G75*
G03*
X9419000Y-12093000I-40000J0D01*
G01*
X9419000Y-12855000D02*
G75*
G03*
X9419000Y-12855000I-40000J0D01*
G01*
X9448000Y-9638000D02*
G75*
G03*
X9448000Y-9638000I-40000J0D01*
G01*
X9448000Y-10400000D02*
G75*
G03*
X9448000Y-10400000I-40000J0D01*
G01*
X9473000Y-8413000D02*
G75*
G03*
X9473000Y-8413000I-40000J0D01*
G01*
X9473000Y-9175000D02*
G75*
G03*
X9473000Y-9175000I-40000J0D01*
G01*
X9480500Y-7141000D02*
G75*
G03*
X9480500Y-7141000I-40000J0D01*
G01*
X9480500Y-7903000D02*
G75*
G03*
X9480500Y-7903000I-40000J0D01*
G01*
X9615000Y-6692000D02*
G75*
G03*
X9615000Y-6692000I-40000J0D01*
G01*
X9649000Y-14275000D02*
G75*
G03*
X9649000Y-14275000I-40000J0D01*
G01*
X9673000Y-12093000D02*
G75*
G03*
X9673000Y-12093000I-40000J0D01*
G01*
X9673000Y-12855000D02*
G75*
G03*
X9673000Y-12855000I-40000J0D01*
G01*
X9702000Y-9638000D02*
G75*
G03*
X9702000Y-9638000I-40000J0D01*
G01*
X9702000Y-10400000D02*
G75*
G03*
X9702000Y-10400000I-40000J0D01*
G01*
X9727000Y-8413000D02*
G75*
G03*
X9727000Y-8413000I-40000J0D01*
G01*
X9727000Y-9175000D02*
G75*
G03*
X9727000Y-9175000I-40000J0D01*
G01*
X9734500Y-7141000D02*
G75*
G03*
X9734500Y-7141000I-40000J0D01*
G01*
X9734500Y-7903000D02*
G75*
G03*
X9734500Y-7903000I-40000J0D01*
G01*
X9765000Y-5892000D02*
G75*
G03*
X9765000Y-5892000I-40000J0D01*
G01*
X9903000Y-14275000D02*
G75*
G03*
X9903000Y-14275000I-40000J0D01*
G01*
X9927000Y-12093000D02*
G75*
G03*
X9927000Y-12093000I-40000J0D01*
G01*
X9927000Y-12855000D02*
G75*
G03*
X9927000Y-12855000I-40000J0D01*
G01*
X9956000Y-9638000D02*
G75*
G03*
X9956000Y-9638000I-40000J0D01*
G01*
X9956000Y-10400000D02*
G75*
G03*
X9956000Y-10400000I-40000J0D01*
G01*
X9981000Y-8413000D02*
G75*
G03*
X9981000Y-8413000I-40000J0D01*
G01*
X9981000Y-9175000D02*
G75*
G03*
X9981000Y-9175000I-40000J0D01*
G01*
X9988500Y-7141000D02*
G75*
G03*
X9988500Y-7141000I-40000J0D01*
G01*
X9988500Y-7903000D02*
G75*
G03*
X9988500Y-7903000I-40000J0D01*
G01*
X10015000Y-5892000D02*
G75*
G03*
X10015000Y-5892000I-40000J0D01*
G01*
X10115000Y-6692000D02*
G75*
G03*
X10115000Y-6692000I-40000J0D01*
G01*
X10157000Y-14275000D02*
G75*
G03*
X10157000Y-14275000I-40000J0D01*
G01*
X10181000Y-12093000D02*
G75*
G03*
X10181000Y-12093000I-40000J0D01*
G01*
X10181000Y-12855000D02*
G75*
G03*
X10181000Y-12855000I-40000J0D01*
G01*
X10210000Y-9638000D02*
G75*
G03*
X10210000Y-9638000I-40000J0D01*
G01*
X10210000Y-10400000D02*
G75*
G03*
X10210000Y-10400000I-40000J0D01*
G01*
X10235000Y-8413000D02*
G75*
G03*
X10235000Y-8413000I-40000J0D01*
G01*
X10235000Y-9175000D02*
G75*
G03*
X10235000Y-9175000I-40000J0D01*
G01*
X10242500Y-7141000D02*
G75*
G03*
X10242500Y-7141000I-40000J0D01*
G01*
X10242500Y-7903000D02*
G75*
G03*
X10242500Y-7903000I-40000J0D01*
G01*
X10411000Y-14275000D02*
G75*
G03*
X10411000Y-14275000I-40000J0D01*
G01*
X10435000Y-12093000D02*
G75*
G03*
X10435000Y-12093000I-40000J0D01*
G01*
X10435000Y-12855000D02*
G75*
G03*
X10435000Y-12855000I-40000J0D01*
G01*
X10464000Y-9638000D02*
G75*
G03*
X10464000Y-9638000I-40000J0D01*
G01*
X10464000Y-10400000D02*
G75*
G03*
X10464000Y-10400000I-40000J0D01*
G01*
X10489000Y-8413000D02*
G75*
G03*
X10489000Y-8413000I-40000J0D01*
G01*
X10489000Y-9175000D02*
G75*
G03*
X10489000Y-9175000I-40000J0D01*
G01*
X10496500Y-7141000D02*
G75*
G03*
X10496500Y-7141000I-40000J0D01*
G01*
X10496500Y-7903000D02*
G75*
G03*
X10496500Y-7903000I-40000J0D01*
G01*
X10665000Y-14275000D02*
G75*
G03*
X10665000Y-14275000I-40000J0D01*
G01*
X10689000Y-12093000D02*
G75*
G03*
X10689000Y-12093000I-40000J0D01*
G01*
X10689000Y-12855000D02*
G75*
G03*
X10689000Y-12855000I-40000J0D01*
G01*
X10718000Y-9638000D02*
G75*
G03*
X10718000Y-9638000I-40000J0D01*
G01*
X10718000Y-10400000D02*
G75*
G03*
X10718000Y-10400000I-40000J0D01*
G01*
X10743000Y-8413000D02*
G75*
G03*
X10743000Y-8413000I-40000J0D01*
G01*
X10743000Y-9175000D02*
G75*
G03*
X10743000Y-9175000I-40000J0D01*
G01*
X10750500Y-7141000D02*
G75*
G03*
X10750500Y-7141000I-40000J0D01*
G01*
X10750500Y-7903000D02*
G75*
G03*
X10750500Y-7903000I-40000J0D01*
G01*
X10919000Y-14275000D02*
G75*
G03*
X10919000Y-14275000I-40000J0D01*
G01*
X10943000Y-12093000D02*
G75*
G03*
X10943000Y-12093000I-40000J0D01*
G01*
X10943000Y-12855000D02*
G75*
G03*
X10943000Y-12855000I-40000J0D01*
G01*
X10972000Y-9638000D02*
G75*
G03*
X10972000Y-9638000I-40000J0D01*
G01*
X10972000Y-10400000D02*
G75*
G03*
X10972000Y-10400000I-40000J0D01*
G01*
X10997000Y-8413000D02*
G75*
G03*
X10997000Y-8413000I-40000J0D01*
G01*
X10997000Y-9175000D02*
G75*
G03*
X10997000Y-9175000I-40000J0D01*
G01*
X11004500Y-7141000D02*
G75*
G03*
X11004500Y-7141000I-40000J0D01*
G01*
X11004500Y-7903000D02*
G75*
G03*
X11004500Y-7903000I-40000J0D01*
G01*
X11173000Y-14275000D02*
G75*
G03*
X11173000Y-14275000I-40000J0D01*
G01*
X11197000Y-12093000D02*
G75*
G03*
X11197000Y-12093000I-40000J0D01*
G01*
X11197000Y-12855000D02*
G75*
G03*
X11197000Y-12855000I-40000J0D01*
G01*
X11226000Y-9638000D02*
G75*
G03*
X11226000Y-9638000I-40000J0D01*
G01*
X11226000Y-10400000D02*
G75*
G03*
X11226000Y-10400000I-40000J0D01*
G01*
X11251000Y-8413000D02*
G75*
G03*
X11251000Y-8413000I-40000J0D01*
G01*
X11251000Y-9175000D02*
G75*
G03*
X11251000Y-9175000I-40000J0D01*
G01*
X11258500Y-7141000D02*
G75*
G03*
X11258500Y-7141000I-40000J0D01*
G01*
X11258500Y-7903000D02*
G75*
G03*
X11258500Y-7903000I-40000J0D01*
G01*
X11427000Y-14275000D02*
G75*
G03*
X11427000Y-14275000I-40000J0D01*
G01*
X11451000Y-12093000D02*
G75*
G03*
X11451000Y-12093000I-40000J0D01*
G01*
X11451000Y-12855000D02*
G75*
G03*
X11451000Y-12855000I-40000J0D01*
G01*
X11480000Y-9638000D02*
G75*
G03*
X11480000Y-9638000I-40000J0D01*
G01*
X11480000Y-10400000D02*
G75*
G03*
X11480000Y-10400000I-40000J0D01*
G01*
X11705000Y-12093000D02*
G75*
G03*
X11705000Y-12093000I-40000J0D01*
G01*
X11705000Y-12855000D02*
G75*
G03*
X11705000Y-12855000I-40000J0D01*
G01*
X11734000Y-9638000D02*
G75*
G03*
X11734000Y-9638000I-40000J0D01*
G01*
X11734000Y-10400000D02*
G75*
G03*
X11734000Y-10400000I-40000J0D01*
G01*
X11865000Y-6025000D02*
G75*
G03*
X11865000Y-6025000I-40000J0D01*
G01*
X11959000Y-12093000D02*
G75*
G03*
X11959000Y-12093000I-40000J0D01*
G01*
X11959000Y-12855000D02*
G75*
G03*
X11959000Y-12855000I-40000J0D01*
G01*
X12045000Y-6765000D02*
G75*
G03*
X12045000Y-6765000I-40000J0D01*
G01*
X12045000Y-7019000D02*
G75*
G03*
X12045000Y-7019000I-40000J0D01*
G01*
X12045000Y-7273000D02*
G75*
G03*
X12045000Y-7273000I-40000J0D01*
G01*
X12045000Y-7527000D02*
G75*
G03*
X12045000Y-7527000I-40000J0D01*
G01*
X12045000Y-7781000D02*
G75*
G03*
X12045000Y-7781000I-40000J0D01*
G01*
X12045000Y-8035000D02*
G75*
G03*
X12045000Y-8035000I-40000J0D01*
G01*
X12045000Y-8289000D02*
G75*
G03*
X12045000Y-8289000I-40000J0D01*
G01*
X12045000Y-8543000D02*
G75*
G03*
X12045000Y-8543000I-40000J0D01*
G01*
X12045000Y-8797000D02*
G75*
G03*
X12045000Y-8797000I-40000J0D01*
G01*
X12290000Y-9875000D02*
G75*
G03*
X12290000Y-9875000I-40000J0D01*
G01*
X12290000Y-10375000D02*
G75*
G03*
X12290000Y-10375000I-40000J0D01*
G01*
X12299000Y-6511000D02*
G75*
G03*
X12299000Y-6511000I-40000J0D01*
G01*
X12299000Y-6765000D02*
G75*
G03*
X12299000Y-6765000I-40000J0D01*
G01*
X12299000Y-7019000D02*
G75*
G03*
X12299000Y-7019000I-40000J0D01*
G01*
X12299000Y-7273000D02*
G75*
G03*
X12299000Y-7273000I-40000J0D01*
G01*
X12299000Y-7527000D02*
G75*
G03*
X12299000Y-7527000I-40000J0D01*
G01*
X12299000Y-7781000D02*
G75*
G03*
X12299000Y-7781000I-40000J0D01*
G01*
X12299000Y-8035000D02*
G75*
G03*
X12299000Y-8035000I-40000J0D01*
G01*
X12299000Y-8289000D02*
G75*
G03*
X12299000Y-8289000I-40000J0D01*
G01*
X12299000Y-8543000D02*
G75*
G03*
X12299000Y-8543000I-40000J0D01*
G01*
X12299000Y-8797000D02*
G75*
G03*
X12299000Y-8797000I-40000J0D01*
G01*
X12299000Y-9051000D02*
G75*
G03*
X12299000Y-9051000I-40000J0D01*
G01*
X12365000Y-6025000D02*
G75*
G03*
X12365000Y-6025000I-40000J0D01*
G01*
X12553000Y-6511000D02*
G75*
G03*
X12553000Y-6511000I-40000J0D01*
G01*
X12553000Y-6765000D02*
G75*
G03*
X12553000Y-6765000I-40000J0D01*
G01*
X12553000Y-8797000D02*
G75*
G03*
X12553000Y-8797000I-40000J0D01*
G01*
X12553000Y-9051000D02*
G75*
G03*
X12553000Y-9051000I-40000J0D01*
G01*
X12635000Y-9888500D02*
G75*
G03*
X12635000Y-9888500I-40000J0D01*
G01*
X12635000Y-11412500D02*
G75*
G03*
X12635000Y-11412500I-40000J0D01*
G01*
X12807000Y-6511000D02*
G75*
G03*
X12807000Y-6511000I-40000J0D01*
G01*
X12807000Y-6765000D02*
G75*
G03*
X12807000Y-6765000I-40000J0D01*
G01*
X12807000Y-8797000D02*
G75*
G03*
X12807000Y-8797000I-40000J0D01*
G01*
X12807000Y-9051000D02*
G75*
G03*
X12807000Y-9051000I-40000J0D01*
G01*
X12889000Y-9888500D02*
G75*
G03*
X12889000Y-9888500I-40000J0D01*
G01*
X12889000Y-11412500D02*
G75*
G03*
X12889000Y-11412500I-40000J0D01*
G01*
X13061000Y-6511000D02*
G75*
G03*
X13061000Y-6511000I-40000J0D01*
G01*
X13061000Y-6765000D02*
G75*
G03*
X13061000Y-6765000I-40000J0D01*
G01*
X13061000Y-8797000D02*
G75*
G03*
X13061000Y-8797000I-40000J0D01*
G01*
X13061000Y-9051000D02*
G75*
G03*
X13061000Y-9051000I-40000J0D01*
G01*
X13143000Y-9888500D02*
G75*
G03*
X13143000Y-9888500I-40000J0D01*
G01*
X13143000Y-11412500D02*
G75*
G03*
X13143000Y-11412500I-40000J0D01*
G01*
X13315000Y-6511000D02*
G75*
G03*
X13315000Y-6511000I-40000J0D01*
G01*
X13315000Y-6765000D02*
G75*
G03*
X13315000Y-6765000I-40000J0D01*
G01*
X13315000Y-8797000D02*
G75*
G03*
X13315000Y-8797000I-40000J0D01*
G01*
X13315000Y-9051000D02*
G75*
G03*
X13315000Y-9051000I-40000J0D01*
G01*
X13397000Y-9888500D02*
G75*
G03*
X13397000Y-9888500I-40000J0D01*
G01*
X13397000Y-11412500D02*
G75*
G03*
X13397000Y-11412500I-40000J0D01*
G01*
X13565000Y-6025000D02*
G75*
G03*
X13565000Y-6025000I-40000J0D01*
G01*
X13565000Y-9550000D02*
G75*
G03*
X13565000Y-9550000I-40000J0D01*
G01*
X13569000Y-6511000D02*
G75*
G03*
X13569000Y-6511000I-40000J0D01*
G01*
X13569000Y-6765000D02*
G75*
G03*
X13569000Y-6765000I-40000J0D01*
G01*
X13569000Y-8797000D02*
G75*
G03*
X13569000Y-8797000I-40000J0D01*
G01*
X13569000Y-9051000D02*
G75*
G03*
X13569000Y-9051000I-40000J0D01*
G01*
X13651000Y-9888500D02*
G75*
G03*
X13651000Y-9888500I-40000J0D01*
G01*
X13651000Y-11412500D02*
G75*
G03*
X13651000Y-11412500I-40000J0D01*
G01*
X13823000Y-6511000D02*
G75*
G03*
X13823000Y-6511000I-40000J0D01*
G01*
X13823000Y-6765000D02*
G75*
G03*
X13823000Y-6765000I-40000J0D01*
G01*
X13823000Y-8797000D02*
G75*
G03*
X13823000Y-8797000I-40000J0D01*
G01*
X13823000Y-9051000D02*
G75*
G03*
X13823000Y-9051000I-40000J0D01*
G01*
X13905000Y-9888500D02*
G75*
G03*
X13905000Y-9888500I-40000J0D01*
G01*
X13905000Y-11412500D02*
G75*
G03*
X13905000Y-11412500I-40000J0D01*
G01*
X14065000Y-6025000D02*
G75*
G03*
X14065000Y-6025000I-40000J0D01*
G01*
X14065000Y-9550000D02*
G75*
G03*
X14065000Y-9550000I-40000J0D01*
G01*
X14077000Y-6511000D02*
G75*
G03*
X14077000Y-6511000I-40000J0D01*
G01*
X14077000Y-6765000D02*
G75*
G03*
X14077000Y-6765000I-40000J0D01*
G01*
X14077000Y-8797000D02*
G75*
G03*
X14077000Y-8797000I-40000J0D01*
G01*
X14077000Y-9051000D02*
G75*
G03*
X14077000Y-9051000I-40000J0D01*
G01*
X14159000Y-9888500D02*
G75*
G03*
X14159000Y-9888500I-40000J0D01*
G01*
X14159000Y-11412500D02*
G75*
G03*
X14159000Y-11412500I-40000J0D01*
G01*
X14240000Y-11950000D02*
G75*
G03*
X14240000Y-11950000I-40000J0D01*
G01*
X14240000Y-12204000D02*
G75*
G03*
X14240000Y-12204000I-40000J0D01*
G01*
X14240000Y-12458000D02*
G75*
G03*
X14240000Y-12458000I-40000J0D01*
G01*
X14240000Y-12712000D02*
G75*
G03*
X14240000Y-12712000I-40000J0D01*
G01*
X14240000Y-12966000D02*
G75*
G03*
X14240000Y-12966000I-40000J0D01*
G01*
X14240000Y-13220000D02*
G75*
G03*
X14240000Y-13220000I-40000J0D01*
G01*
X14240000Y-13474000D02*
G75*
G03*
X14240000Y-13474000I-40000J0D01*
G01*
X14240000Y-13728000D02*
G75*
G03*
X14240000Y-13728000I-40000J0D01*
G01*
X14240000Y-13982000D02*
G75*
G03*
X14240000Y-13982000I-40000J0D01*
G01*
X14331000Y-6511000D02*
G75*
G03*
X14331000Y-6511000I-40000J0D01*
G01*
X14331000Y-6765000D02*
G75*
G03*
X14331000Y-6765000I-40000J0D01*
G01*
X14331000Y-7019000D02*
G75*
G03*
X14331000Y-7019000I-40000J0D01*
G01*
X14331000Y-7273000D02*
G75*
G03*
X14331000Y-7273000I-40000J0D01*
G01*
X14331000Y-7527000D02*
G75*
G03*
X14331000Y-7527000I-40000J0D01*
G01*
X14331000Y-7781000D02*
G75*
G03*
X14331000Y-7781000I-40000J0D01*
G01*
X14331000Y-8035000D02*
G75*
G03*
X14331000Y-8035000I-40000J0D01*
G01*
X14331000Y-8289000D02*
G75*
G03*
X14331000Y-8289000I-40000J0D01*
G01*
X14331000Y-8543000D02*
G75*
G03*
X14331000Y-8543000I-40000J0D01*
G01*
X14331000Y-8797000D02*
G75*
G03*
X14331000Y-8797000I-40000J0D01*
G01*
X14331000Y-9051000D02*
G75*
G03*
X14331000Y-9051000I-40000J0D01*
G01*
X14413000Y-9888500D02*
G75*
G03*
X14413000Y-9888500I-40000J0D01*
G01*
X14413000Y-11412500D02*
G75*
G03*
X14413000Y-11412500I-40000J0D01*
G01*
X14585000Y-6765000D02*
G75*
G03*
X14585000Y-6765000I-40000J0D01*
G01*
X14585000Y-7019000D02*
G75*
G03*
X14585000Y-7019000I-40000J0D01*
G01*
X14585000Y-7273000D02*
G75*
G03*
X14585000Y-7273000I-40000J0D01*
G01*
X14585000Y-7527000D02*
G75*
G03*
X14585000Y-7527000I-40000J0D01*
G01*
X14585000Y-7781000D02*
G75*
G03*
X14585000Y-7781000I-40000J0D01*
G01*
X14585000Y-8035000D02*
G75*
G03*
X14585000Y-8035000I-40000J0D01*
G01*
X14585000Y-8289000D02*
G75*
G03*
X14585000Y-8289000I-40000J0D01*
G01*
X14585000Y-8543000D02*
G75*
G03*
X14585000Y-8543000I-40000J0D01*
G01*
X14585000Y-8797000D02*
G75*
G03*
X14585000Y-8797000I-40000J0D01*
G01*
X14667000Y-9888500D02*
G75*
G03*
X14667000Y-9888500I-40000J0D01*
G01*
X14667000Y-11412500D02*
G75*
G03*
X14667000Y-11412500I-40000J0D01*
G01*
X14921000Y-9888500D02*
G75*
G03*
X14921000Y-9888500I-40000J0D01*
G01*
X14921000Y-11412500D02*
G75*
G03*
X14921000Y-11412500I-40000J0D01*
G01*
X15012000Y-12304500D02*
G75*
G03*
X15012000Y-12304500I-40000J0D01*
G01*
X15012000Y-12558500D02*
G75*
G03*
X15012000Y-12558500I-40000J0D01*
G01*
X15012000Y-12812500D02*
G75*
G03*
X15012000Y-12812500I-40000J0D01*
G01*
X15012000Y-13066500D02*
G75*
G03*
X15012000Y-13066500I-40000J0D01*
G01*
X15012000Y-13320500D02*
G75*
G03*
X15012000Y-13320500I-40000J0D01*
G01*
X15012000Y-13574500D02*
G75*
G03*
X15012000Y-13574500I-40000J0D01*
G01*
X15090000Y-8575000D02*
G75*
G03*
X15090000Y-8575000I-40000J0D01*
G01*
X15090000Y-9337000D02*
G75*
G03*
X15090000Y-9337000I-40000J0D01*
G01*
X15175000Y-9888500D02*
G75*
G03*
X15175000Y-9888500I-40000J0D01*
G01*
X15175000Y-11412500D02*
G75*
G03*
X15175000Y-11412500I-40000J0D01*
G01*
X15266000Y-12050500D02*
G75*
G03*
X15266000Y-12050500I-40000J0D01*
G01*
X15266000Y-12304500D02*
G75*
G03*
X15266000Y-12304500I-40000J0D01*
G01*
X15266000Y-12558500D02*
G75*
G03*
X15266000Y-12558500I-40000J0D01*
G01*
X15266000Y-12812500D02*
G75*
G03*
X15266000Y-12812500I-40000J0D01*
G01*
X15266000Y-13066500D02*
G75*
G03*
X15266000Y-13066500I-40000J0D01*
G01*
X15266000Y-13320500D02*
G75*
G03*
X15266000Y-13320500I-40000J0D01*
G01*
X15266000Y-13574500D02*
G75*
G03*
X15266000Y-13574500I-40000J0D01*
G01*
X15266000Y-13828500D02*
G75*
G03*
X15266000Y-13828500I-40000J0D01*
G01*
X15415000Y-8575000D02*
G75*
G03*
X15415000Y-8575000I-40000J0D01*
G01*
X15415000Y-9337000D02*
G75*
G03*
X15415000Y-9337000I-40000J0D01*
G01*
X15429000Y-9888500D02*
G75*
G03*
X15429000Y-9888500I-40000J0D01*
G01*
X15429000Y-11412500D02*
G75*
G03*
X15429000Y-11412500I-40000J0D01*
G01*
X15503000Y-6417000D02*
G75*
G03*
X15503000Y-6417000I-40000J0D01*
G01*
X15503000Y-6671000D02*
G75*
G03*
X15503000Y-6671000I-40000J0D01*
G01*
X15503000Y-6925000D02*
G75*
G03*
X15503000Y-6925000I-40000J0D01*
G01*
X15503000Y-7179000D02*
G75*
G03*
X15503000Y-7179000I-40000J0D01*
G01*
X15503000Y-7433000D02*
G75*
G03*
X15503000Y-7433000I-40000J0D01*
G01*
X15520000Y-12050500D02*
G75*
G03*
X15520000Y-12050500I-40000J0D01*
G01*
X15520000Y-12304500D02*
G75*
G03*
X15520000Y-12304500I-40000J0D01*
G01*
X15520000Y-13574500D02*
G75*
G03*
X15520000Y-13574500I-40000J0D01*
G01*
X15520000Y-13828500D02*
G75*
G03*
X15520000Y-13828500I-40000J0D01*
G01*
X15683000Y-9888500D02*
G75*
G03*
X15683000Y-9888500I-40000J0D01*
G01*
X15683000Y-11412500D02*
G75*
G03*
X15683000Y-11412500I-40000J0D01*
G01*
X15757000Y-6163000D02*
G75*
G03*
X15757000Y-6163000I-40000J0D01*
G01*
X15757000Y-6417000D02*
G75*
G03*
X15757000Y-6417000I-40000J0D01*
G01*
X15757000Y-6671000D02*
G75*
G03*
X15757000Y-6671000I-40000J0D01*
G01*
X15757000Y-6925000D02*
G75*
G03*
X15757000Y-6925000I-40000J0D01*
G01*
X15757000Y-7179000D02*
G75*
G03*
X15757000Y-7179000I-40000J0D01*
G01*
X15757000Y-7433000D02*
G75*
G03*
X15757000Y-7433000I-40000J0D01*
G01*
X15757000Y-7687000D02*
G75*
G03*
X15757000Y-7687000I-40000J0D01*
G01*
X15774000Y-12050500D02*
G75*
G03*
X15774000Y-12050500I-40000J0D01*
G01*
X15774000Y-12304500D02*
G75*
G03*
X15774000Y-12304500I-40000J0D01*
G01*
X15774000Y-13574500D02*
G75*
G03*
X15774000Y-13574500I-40000J0D01*
G01*
X15774000Y-13828500D02*
G75*
G03*
X15774000Y-13828500I-40000J0D01*
G01*
X15865000Y-8600000D02*
G75*
G03*
X15865000Y-8600000I-40000J0D01*
G01*
X15865000Y-9088000D02*
G75*
G03*
X15865000Y-9088000I-40000J0D01*
G01*
X15937000Y-9888500D02*
G75*
G03*
X15937000Y-9888500I-40000J0D01*
G01*
X15937000Y-11412500D02*
G75*
G03*
X15937000Y-11412500I-40000J0D01*
G01*
X16011000Y-6163000D02*
G75*
G03*
X16011000Y-6163000I-40000J0D01*
G01*
X16011000Y-6417000D02*
G75*
G03*
X16011000Y-6417000I-40000J0D01*
G01*
X16011000Y-7433000D02*
G75*
G03*
X16011000Y-7433000I-40000J0D01*
G01*
X16011000Y-7687000D02*
G75*
G03*
X16011000Y-7687000I-40000J0D01*
G01*
X16028000Y-12050500D02*
G75*
G03*
X16028000Y-12050500I-40000J0D01*
G01*
X16028000Y-12304500D02*
G75*
G03*
X16028000Y-12304500I-40000J0D01*
G01*
X16028000Y-13574500D02*
G75*
G03*
X16028000Y-13574500I-40000J0D01*
G01*
X16028000Y-13828500D02*
G75*
G03*
X16028000Y-13828500I-40000J0D01*
G01*
X16191000Y-9888500D02*
G75*
G03*
X16191000Y-9888500I-40000J0D01*
G01*
X16191000Y-11412500D02*
G75*
G03*
X16191000Y-11412500I-40000J0D01*
G01*
X16265000Y-5675000D02*
G75*
G03*
X16265000Y-5675000I-40000J0D01*
G01*
X16265000Y-6163000D02*
G75*
G03*
X16265000Y-6163000I-40000J0D01*
G01*
X16265000Y-6417000D02*
G75*
G03*
X16265000Y-6417000I-40000J0D01*
G01*
X16265000Y-7433000D02*
G75*
G03*
X16265000Y-7433000I-40000J0D01*
G01*
X16265000Y-7687000D02*
G75*
G03*
X16265000Y-7687000I-40000J0D01*
G01*
X16282000Y-12050500D02*
G75*
G03*
X16282000Y-12050500I-40000J0D01*
G01*
X16282000Y-12304500D02*
G75*
G03*
X16282000Y-12304500I-40000J0D01*
G01*
X16282000Y-13574500D02*
G75*
G03*
X16282000Y-13574500I-40000J0D01*
G01*
X16282000Y-13828500D02*
G75*
G03*
X16282000Y-13828500I-40000J0D01*
G01*
X16290000Y-8375000D02*
G75*
G03*
X16290000Y-8375000I-40000J0D01*
G01*
X16290000Y-8625000D02*
G75*
G03*
X16290000Y-8625000I-40000J0D01*
G01*
X16290000Y-9050000D02*
G75*
G03*
X16290000Y-9050000I-40000J0D01*
G01*
X16290000Y-9300000D02*
G75*
G03*
X16290000Y-9300000I-40000J0D01*
G01*
X16290000Y-14329500D02*
G75*
G03*
X16290000Y-14329500I-40000J0D01*
G01*
X16445000Y-9888500D02*
G75*
G03*
X16445000Y-9888500I-40000J0D01*
G01*
X16445000Y-11412500D02*
G75*
G03*
X16445000Y-11412500I-40000J0D01*
G01*
X16519000Y-6163000D02*
G75*
G03*
X16519000Y-6163000I-40000J0D01*
G01*
X16519000Y-6417000D02*
G75*
G03*
X16519000Y-6417000I-40000J0D01*
G01*
X16519000Y-6671000D02*
G75*
G03*
X16519000Y-6671000I-40000J0D01*
G01*
X16519000Y-6925000D02*
G75*
G03*
X16519000Y-6925000I-40000J0D01*
G01*
X16519000Y-7179000D02*
G75*
G03*
X16519000Y-7179000I-40000J0D01*
G01*
X16519000Y-7433000D02*
G75*
G03*
X16519000Y-7433000I-40000J0D01*
G01*
X16519000Y-7687000D02*
G75*
G03*
X16519000Y-7687000I-40000J0D01*
G01*
X16536000Y-12050500D02*
G75*
G03*
X16536000Y-12050500I-40000J0D01*
G01*
X16536000Y-12304500D02*
G75*
G03*
X16536000Y-12304500I-40000J0D01*
G01*
X16536000Y-12558500D02*
G75*
G03*
X16536000Y-12558500I-40000J0D01*
G01*
X16536000Y-12812500D02*
G75*
G03*
X16536000Y-12812500I-40000J0D01*
G01*
X16536000Y-13066500D02*
G75*
G03*
X16536000Y-13066500I-40000J0D01*
G01*
X16536000Y-13320500D02*
G75*
G03*
X16536000Y-13320500I-40000J0D01*
G01*
X16536000Y-13574500D02*
G75*
G03*
X16536000Y-13574500I-40000J0D01*
G01*
X16536000Y-13828500D02*
G75*
G03*
X16536000Y-13828500I-40000J0D01*
G01*
X16765000Y-5675000D02*
G75*
G03*
X16765000Y-5675000I-40000J0D01*
G01*
X16773000Y-6417000D02*
G75*
G03*
X16773000Y-6417000I-40000J0D01*
G01*
X16773000Y-6671000D02*
G75*
G03*
X16773000Y-6671000I-40000J0D01*
G01*
X16773000Y-6925000D02*
G75*
G03*
X16773000Y-6925000I-40000J0D01*
G01*
X16773000Y-7179000D02*
G75*
G03*
X16773000Y-7179000I-40000J0D01*
G01*
X16773000Y-7433000D02*
G75*
G03*
X16773000Y-7433000I-40000J0D01*
G01*
X16790000Y-12304500D02*
G75*
G03*
X16790000Y-12304500I-40000J0D01*
G01*
X16790000Y-12558500D02*
G75*
G03*
X16790000Y-12558500I-40000J0D01*
G01*
X16790000Y-12812500D02*
G75*
G03*
X16790000Y-12812500I-40000J0D01*
G01*
X16790000Y-13066500D02*
G75*
G03*
X16790000Y-13066500I-40000J0D01*
G01*
X16790000Y-13320500D02*
G75*
G03*
X16790000Y-13320500I-40000J0D01*
G01*
X16790000Y-13574500D02*
G75*
G03*
X16790000Y-13574500I-40000J0D01*
G01*
X16790000Y-14329500D02*
G75*
G03*
X16790000Y-14329500I-40000J0D01*
G01*
D14*
X5756000Y-7805000D02*
X5756000Y-7895000D01*
X5711000Y-7850000D02*
X5801000Y-7850000D01*
X6010000Y-7805000D02*
X6010000Y-7895000D01*
X5965000Y-7850000D02*
X6055000Y-7850000D01*
X6256000Y-7805000D02*
X6256000Y-7895000D01*
X6211000Y-7850000D02*
X6301000Y-7850000D01*
X6510000Y-7805000D02*
X6510000Y-7895000D01*
X6465000Y-7850000D02*
X6555000Y-7850000D01*
X6756000Y-7805000D02*
X6756000Y-7895000D01*
X6711000Y-7850000D02*
X6801000Y-7850000D01*
X7010000Y-7805000D02*
X7010000Y-7895000D01*
X6965000Y-7850000D02*
X7055000Y-7850000D01*
X8618000Y-13555000D02*
X8618000Y-13645000D01*
X8573000Y-13600000D02*
X8663000Y-13600000D01*
X8872000Y-13555000D02*
X8872000Y-13645000D01*
X8827000Y-13600000D02*
X8917000Y-13600000D01*
X9122500Y-13555000D02*
X9122500Y-13645000D01*
X9077500Y-13600000D02*
X9167500Y-13600000D01*
X9376500Y-13555000D02*
X9376500Y-13645000D01*
X9331500Y-13600000D02*
X9421500Y-13600000D01*
X9622500Y-13555000D02*
X9622500Y-13645000D01*
X9577500Y-13600000D02*
X9667500Y-13600000D01*
X9876500Y-13555000D02*
X9876500Y-13645000D01*
X9831500Y-13600000D02*
X9921500Y-13600000D01*
X10122500Y-13555000D02*
X10122500Y-13645000D01*
X10077500Y-13600000D02*
X10167500Y-13600000D01*
X10376500Y-13555000D02*
X10376500Y-13645000D01*
X10331500Y-13600000D02*
X10421500Y-13600000D01*
X10622000Y-13555000D02*
X10622000Y-13645000D01*
X10577000Y-13600000D02*
X10667000Y-13600000D01*
X10876000Y-13555000D02*
X10876000Y-13645000D01*
X10831000Y-13600000D02*
X10921000Y-13600000D01*
X11122000Y-13555000D02*
X11122000Y-13645000D01*
X11077000Y-13600000D02*
X11167000Y-13600000D01*
X11376000Y-13555000D02*
X11376000Y-13645000D01*
X11331000Y-13600000D02*
X11421000Y-13600000D01*
X11622500Y-13555000D02*
X11622500Y-13645000D01*
X11577500Y-13600000D02*
X11667500Y-13600000D01*
X11876500Y-13555000D02*
X11876500Y-13645000D01*
X11831500Y-13600000D02*
X11921500Y-13600000D01*
X12122500Y-13555000D02*
X12122500Y-13645000D01*
X12077500Y-13600000D02*
X12167500Y-13600000D01*
X12376500Y-13555000D02*
X12376500Y-13645000D01*
X12331500Y-13600000D02*
X12421500Y-13600000D01*
D10*
X5235356Y-7631356D02*
X5235356Y-7560644D01*
X5164644Y-7560644D01*
X5164644Y-7631356D01*
X5235356Y-7631356D01*
X5235356Y-7885356D02*
X5235356Y-7814644D01*
X5164644Y-7814644D01*
X5164644Y-7885356D01*
X5235356Y-7885356D01*
X5235356Y-8139356D02*
X5235356Y-8068644D01*
X5164644Y-8068644D01*
X5164644Y-8139356D01*
X5235356Y-8139356D01*
X5235356Y-8393356D02*
X5235356Y-8322644D01*
X5164644Y-8322644D01*
X5164644Y-8393356D01*
X5235356Y-8393356D01*
X5235356Y-8647356D02*
X5235356Y-8576644D01*
X5164644Y-8576644D01*
X5164644Y-8647356D01*
X5235356Y-8647356D01*
X5235356Y-8901356D02*
X5235356Y-8830644D01*
X5164644Y-8830644D01*
X5164644Y-8901356D01*
X5235356Y-8901356D01*
X5235356Y-9507856D02*
X5235356Y-9437144D01*
X5164644Y-9437144D01*
X5164644Y-9507856D01*
X5235356Y-9507856D01*
X5235356Y-9761856D02*
X5235356Y-9691144D01*
X5164644Y-9691144D01*
X5164644Y-9761856D01*
X5235356Y-9761856D01*
X5235356Y-10350356D02*
X5235356Y-10279644D01*
X5164644Y-10279644D01*
X5164644Y-10350356D01*
X5235356Y-10350356D01*
X5235356Y-10604356D02*
X5235356Y-10533644D01*
X5164644Y-10533644D01*
X5164644Y-10604356D01*
X5235356Y-10604356D01*
X5235356Y-10858356D02*
X5235356Y-10787644D01*
X5164644Y-10787644D01*
X5164644Y-10858356D01*
X5235356Y-10858356D01*
X5235356Y-11112356D02*
X5235356Y-11041644D01*
X5164644Y-11041644D01*
X5164644Y-11112356D01*
X5235356Y-11112356D01*
X5235356Y-11366356D02*
X5235356Y-11295644D01*
X5164644Y-11295644D01*
X5164644Y-11366356D01*
X5235356Y-11366356D01*
X5235356Y-11620356D02*
X5235356Y-11549644D01*
X5164644Y-11549644D01*
X5164644Y-11620356D01*
X5235356Y-11620356D01*
X5235356Y-12207856D02*
X5235356Y-12137144D01*
X5164644Y-12137144D01*
X5164644Y-12207856D01*
X5235356Y-12207856D01*
X5235356Y-12461856D02*
X5235356Y-12391144D01*
X5164644Y-12391144D01*
X5164644Y-12461856D01*
X5235356Y-12461856D01*
X5235356Y-13055356D02*
X5235356Y-12984644D01*
X5164644Y-12984644D01*
X5164644Y-13055356D01*
X5235356Y-13055356D01*
X5235356Y-13309356D02*
X5235356Y-13238644D01*
X5164644Y-13238644D01*
X5164644Y-13309356D01*
X5235356Y-13309356D01*
X5235356Y-13563356D02*
X5235356Y-13492644D01*
X5164644Y-13492644D01*
X5164644Y-13563356D01*
X5235356Y-13563356D01*
X5235356Y-13817356D02*
X5235356Y-13746644D01*
X5164644Y-13746644D01*
X5164644Y-13817356D01*
X5235356Y-13817356D01*
X5547856Y-5232856D02*
X5547856Y-5162144D01*
X5477144Y-5162144D01*
X5477144Y-5232856D01*
X5547856Y-5232856D01*
X5597856Y-14832856D02*
X5597856Y-14762144D01*
X5527144Y-14762144D01*
X5527144Y-14832856D01*
X5597856Y-14832856D01*
X5785356Y-10835356D02*
X5785356Y-10764644D01*
X5714644Y-10764644D01*
X5714644Y-10835356D01*
X5785356Y-10835356D01*
X5785356Y-11089356D02*
X5785356Y-11018644D01*
X5714644Y-11018644D01*
X5714644Y-11089356D01*
X5785356Y-11089356D01*
X5785356Y-11343356D02*
X5785356Y-11272644D01*
X5714644Y-11272644D01*
X5714644Y-11343356D01*
X5785356Y-11343356D01*
X5801856Y-5232856D02*
X5801856Y-5162144D01*
X5731144Y-5162144D01*
X5731144Y-5232856D01*
X5801856Y-5232856D01*
X5851856Y-14832856D02*
X5851856Y-14762144D01*
X5781144Y-14762144D01*
X5781144Y-14832856D01*
X5851856Y-14832856D01*
X5860356Y-6031606D02*
X5860356Y-5960894D01*
X5789644Y-5960894D01*
X5789644Y-6031606D01*
X5860356Y-6031606D01*
D11*
X5775000Y-5896250D02*
X5775000Y-6096250D01*
X5875000Y-5896250D02*
X5875000Y-6096250D01*
X5775000Y-6096250D02*
G75*
G03*
X5875000Y-6096250I50000J0D01*
G01*
X5875000Y-5896250D02*
G75*
G03*
X5775000Y-5896250I-50000J0D01*
G01*
D10*
X6039356Y-10835356D02*
X6039356Y-10764644D01*
X5968644Y-10764644D01*
X5968644Y-10835356D01*
X6039356Y-10835356D01*
X6039356Y-11089356D02*
X6039356Y-11018644D01*
X5968644Y-11018644D01*
X5968644Y-11089356D01*
X6039356Y-11089356D01*
X6039356Y-11343356D02*
X6039356Y-11272644D01*
X5968644Y-11272644D01*
X5968644Y-11343356D01*
X6039356Y-11343356D01*
X6055856Y-5232856D02*
X6055856Y-5162144D01*
X5985144Y-5162144D01*
X5985144Y-5232856D01*
X6055856Y-5232856D01*
X6105856Y-14832856D02*
X6105856Y-14762144D01*
X6035144Y-14762144D01*
X6035144Y-14832856D01*
X6105856Y-14832856D01*
X6160356Y-6501606D02*
X6160356Y-6430894D01*
X6089644Y-6430894D01*
X6089644Y-6501606D01*
X6160356Y-6501606D01*
D11*
X6025000Y-6516250D02*
X6225000Y-6516250D01*
X6025000Y-6416250D02*
X6225000Y-6416250D01*
X6225000Y-6516250D02*
G75*
G03*
X6225000Y-6416250I0J50000D01*
G01*
X6025000Y-6416250D02*
G75*
G03*
X6025000Y-6516250I0J-50000D01*
G01*
D10*
X6309856Y-5232856D02*
X6309856Y-5162144D01*
X6239144Y-5162144D01*
X6239144Y-5232856D01*
X6309856Y-5232856D01*
X6359856Y-14832856D02*
X6359856Y-14762144D01*
X6289144Y-14762144D01*
X6289144Y-14832856D01*
X6359856Y-14832856D01*
X6460356Y-6031606D02*
X6460356Y-5960894D01*
X6389644Y-5960894D01*
X6389644Y-6031606D01*
X6460356Y-6031606D01*
D11*
X6375000Y-5896250D02*
X6375000Y-6096250D01*
X6475000Y-5896250D02*
X6475000Y-6096250D01*
X6375000Y-6096250D02*
G75*
G03*
X6475000Y-6096250I50000J0D01*
G01*
X6475000Y-5896250D02*
G75*
G03*
X6375000Y-5896250I-50000J0D01*
G01*
D10*
X6563856Y-5232856D02*
X6563856Y-5162144D01*
X6493144Y-5162144D01*
X6493144Y-5232856D01*
X6563856Y-5232856D01*
X6613856Y-14832856D02*
X6613856Y-14762144D01*
X6543144Y-14762144D01*
X6543144Y-14832856D01*
X6613856Y-14832856D01*
X6652856Y-11058856D02*
X6652856Y-10988144D01*
X6582144Y-10988144D01*
X6582144Y-11058856D01*
X6652856Y-11058856D01*
X6652856Y-11312856D02*
X6652856Y-11242144D01*
X6582144Y-11242144D01*
X6582144Y-11312856D01*
X6652856Y-11312856D01*
X6817856Y-5232856D02*
X6817856Y-5162144D01*
X6747144Y-5162144D01*
X6747144Y-5232856D01*
X6817856Y-5232856D01*
X6867856Y-14832856D02*
X6867856Y-14762144D01*
X6797144Y-14762144D01*
X6797144Y-14832856D01*
X6867856Y-14832856D01*
X6906856Y-11058856D02*
X6906856Y-10988144D01*
X6836144Y-10988144D01*
X6836144Y-11058856D01*
X6906856Y-11058856D01*
X6906856Y-11312856D02*
X6906856Y-11242144D01*
X6836144Y-11242144D01*
X6836144Y-11312856D01*
X6906856Y-11312856D01*
X7071856Y-5232856D02*
X7071856Y-5162144D01*
X7001144Y-5162144D01*
X7001144Y-5232856D01*
X7071856Y-5232856D01*
X7121856Y-14832856D02*
X7121856Y-14762144D01*
X7051144Y-14762144D01*
X7051144Y-14832856D01*
X7121856Y-14832856D01*
X7160856Y-11058856D02*
X7160856Y-10988144D01*
X7090144Y-10988144D01*
X7090144Y-11058856D01*
X7160856Y-11058856D01*
X7160856Y-11312856D02*
X7160856Y-11242144D01*
X7090144Y-11242144D01*
X7090144Y-11312856D01*
X7160856Y-11312856D01*
X7325856Y-5232856D02*
X7325856Y-5162144D01*
X7255144Y-5162144D01*
X7255144Y-5232856D01*
X7325856Y-5232856D01*
X7375856Y-14832856D02*
X7375856Y-14762144D01*
X7305144Y-14762144D01*
X7305144Y-14832856D01*
X7375856Y-14832856D01*
X7414856Y-11058856D02*
X7414856Y-10988144D01*
X7344144Y-10988144D01*
X7344144Y-11058856D01*
X7414856Y-11058856D01*
X7414856Y-11312856D02*
X7414856Y-11242144D01*
X7344144Y-11242144D01*
X7344144Y-11312856D01*
X7414856Y-11312856D01*
X7658856Y-8973856D02*
X7658856Y-8903144D01*
X7588144Y-8903144D01*
X7588144Y-8973856D01*
X7658856Y-8973856D01*
X7658856Y-9227856D02*
X7658856Y-9157144D01*
X7588144Y-9157144D01*
X7588144Y-9227856D01*
X7658856Y-9227856D01*
X7658856Y-9481856D02*
X7658856Y-9411144D01*
X7588144Y-9411144D01*
X7588144Y-9481856D01*
X7658856Y-9481856D01*
X7658856Y-9735856D02*
X7658856Y-9665144D01*
X7588144Y-9665144D01*
X7588144Y-9735856D01*
X7658856Y-9735856D01*
X7658856Y-9989856D02*
X7658856Y-9919144D01*
X7588144Y-9919144D01*
X7588144Y-9989856D01*
X7658856Y-9989856D01*
X7658856Y-10243856D02*
X7658856Y-10173144D01*
X7588144Y-10173144D01*
X7588144Y-10243856D01*
X7658856Y-10243856D01*
X7658856Y-10497856D02*
X7658856Y-10427144D01*
X7588144Y-10427144D01*
X7588144Y-10497856D01*
X7658856Y-10497856D01*
X7668856Y-11058856D02*
X7668856Y-10988144D01*
X7598144Y-10988144D01*
X7598144Y-11058856D01*
X7668856Y-11058856D01*
X7668856Y-11312856D02*
X7668856Y-11242144D01*
X7598144Y-11242144D01*
X7598144Y-11312856D01*
X7668856Y-11312856D01*
X7912856Y-8973856D02*
X7912856Y-8903144D01*
X7842144Y-8903144D01*
X7842144Y-8973856D01*
X7912856Y-8973856D01*
X7912856Y-9227856D02*
X7912856Y-9157144D01*
X7842144Y-9157144D01*
X7842144Y-9227856D01*
X7912856Y-9227856D01*
X7912856Y-9481856D02*
X7912856Y-9411144D01*
X7842144Y-9411144D01*
X7842144Y-9481856D01*
X7912856Y-9481856D01*
X7912856Y-9735856D02*
X7912856Y-9665144D01*
X7842144Y-9665144D01*
X7842144Y-9735856D01*
X7912856Y-9735856D01*
X7912856Y-9989856D02*
X7912856Y-9919144D01*
X7842144Y-9919144D01*
X7842144Y-9989856D01*
X7912856Y-9989856D01*
X7912856Y-10243856D02*
X7912856Y-10173144D01*
X7842144Y-10173144D01*
X7842144Y-10243856D01*
X7912856Y-10243856D01*
X7912856Y-10497856D02*
X7912856Y-10427144D01*
X7842144Y-10427144D01*
X7842144Y-10497856D01*
X7912856Y-10497856D01*
X7922856Y-11058856D02*
X7922856Y-10988144D01*
X7852144Y-10988144D01*
X7852144Y-11058856D01*
X7922856Y-11058856D01*
X7922856Y-11312856D02*
X7922856Y-11242144D01*
X7852144Y-11242144D01*
X7852144Y-11312856D01*
X7922856Y-11312856D01*
X7997856Y-5232856D02*
X7997856Y-5162144D01*
X7927144Y-5162144D01*
X7927144Y-5232856D01*
X7997856Y-5232856D01*
X8047856Y-14832856D02*
X8047856Y-14762144D01*
X7977144Y-14762144D01*
X7977144Y-14832856D01*
X8047856Y-14832856D01*
X8176856Y-11058856D02*
X8176856Y-10988144D01*
X8106144Y-10988144D01*
X8106144Y-11058856D01*
X8176856Y-11058856D01*
X8176856Y-11312856D02*
X8176856Y-11242144D01*
X8106144Y-11242144D01*
X8106144Y-11312856D01*
X8176856Y-11312856D01*
X8251856Y-5232856D02*
X8251856Y-5162144D01*
X8181144Y-5162144D01*
X8181144Y-5232856D01*
X8251856Y-5232856D01*
X8301856Y-14832856D02*
X8301856Y-14762144D01*
X8231144Y-14762144D01*
X8231144Y-14832856D01*
X8301856Y-14832856D01*
X8430856Y-11058856D02*
X8430856Y-10988144D01*
X8360144Y-10988144D01*
X8360144Y-11058856D01*
X8430856Y-11058856D01*
X8430856Y-11312856D02*
X8430856Y-11242144D01*
X8360144Y-11242144D01*
X8360144Y-11312856D01*
X8430856Y-11312856D01*
X8505856Y-5232856D02*
X8505856Y-5162144D01*
X8435144Y-5162144D01*
X8435144Y-5232856D01*
X8505856Y-5232856D01*
X8555856Y-14832856D02*
X8555856Y-14762144D01*
X8485144Y-14762144D01*
X8485144Y-14832856D01*
X8555856Y-14832856D01*
X8684856Y-11058856D02*
X8684856Y-10988144D01*
X8614144Y-10988144D01*
X8614144Y-11058856D01*
X8684856Y-11058856D01*
X8684856Y-11312856D02*
X8684856Y-11242144D01*
X8614144Y-11242144D01*
X8614144Y-11312856D01*
X8684856Y-11312856D01*
X8759856Y-5232856D02*
X8759856Y-5162144D01*
X8689144Y-5162144D01*
X8689144Y-5232856D01*
X8759856Y-5232856D01*
X8809856Y-14832856D02*
X8809856Y-14762144D01*
X8739144Y-14762144D01*
X8739144Y-14832856D01*
X8809856Y-14832856D01*
X8938856Y-11058856D02*
X8938856Y-10988144D01*
X8868144Y-10988144D01*
X8868144Y-11058856D01*
X8938856Y-11058856D01*
X8938856Y-11312856D02*
X8938856Y-11242144D01*
X8868144Y-11242144D01*
X8868144Y-11312856D01*
X8938856Y-11312856D01*
X9013856Y-5232856D02*
X9013856Y-5162144D01*
X8943144Y-5162144D01*
X8943144Y-5232856D01*
X9013856Y-5232856D01*
X9063856Y-14832856D02*
X9063856Y-14762144D01*
X8993144Y-14762144D01*
X8993144Y-14832856D01*
X9063856Y-14832856D01*
X9192856Y-11058856D02*
X9192856Y-10988144D01*
X9122144Y-10988144D01*
X9122144Y-11058856D01*
X9192856Y-11058856D01*
X9192856Y-11312856D02*
X9192856Y-11242144D01*
X9122144Y-11242144D01*
X9122144Y-11312856D01*
X9192856Y-11312856D01*
X9267856Y-5232856D02*
X9267856Y-5162144D01*
X9197144Y-5162144D01*
X9197144Y-5232856D01*
X9267856Y-5232856D01*
X9317856Y-14832856D02*
X9317856Y-14762144D01*
X9247144Y-14762144D01*
X9247144Y-14832856D01*
X9317856Y-14832856D01*
X9446856Y-11058856D02*
X9446856Y-10988144D01*
X9376144Y-10988144D01*
X9376144Y-11058856D01*
X9446856Y-11058856D01*
X9446856Y-11312856D02*
X9446856Y-11242144D01*
X9376144Y-11242144D01*
X9376144Y-11312856D01*
X9446856Y-11312856D01*
X9521856Y-5232856D02*
X9521856Y-5162144D01*
X9451144Y-5162144D01*
X9451144Y-5232856D01*
X9521856Y-5232856D01*
X9571856Y-14832856D02*
X9571856Y-14762144D01*
X9501144Y-14762144D01*
X9501144Y-14832856D01*
X9571856Y-14832856D01*
X9700856Y-11058856D02*
X9700856Y-10988144D01*
X9630144Y-10988144D01*
X9630144Y-11058856D01*
X9700856Y-11058856D01*
X9700856Y-11312856D02*
X9700856Y-11242144D01*
X9630144Y-11242144D01*
X9630144Y-11312856D01*
X9700856Y-11312856D01*
X9775856Y-5232856D02*
X9775856Y-5162144D01*
X9705144Y-5162144D01*
X9705144Y-5232856D01*
X9775856Y-5232856D01*
X9825856Y-14832856D02*
X9825856Y-14762144D01*
X9755144Y-14762144D01*
X9755144Y-14832856D01*
X9825856Y-14832856D01*
X9954856Y-11058856D02*
X9954856Y-10988144D01*
X9884144Y-10988144D01*
X9884144Y-11058856D01*
X9954856Y-11058856D01*
X9954856Y-11312856D02*
X9954856Y-11242144D01*
X9884144Y-11242144D01*
X9884144Y-11312856D01*
X9954856Y-11312856D01*
X10208856Y-11058856D02*
X10208856Y-10988144D01*
X10138144Y-10988144D01*
X10138144Y-11058856D01*
X10208856Y-11058856D01*
X10208856Y-11312856D02*
X10208856Y-11242144D01*
X10138144Y-11242144D01*
X10138144Y-11312856D01*
X10208856Y-11312856D01*
X10447856Y-5232856D02*
X10447856Y-5162144D01*
X10377144Y-5162144D01*
X10377144Y-5232856D01*
X10447856Y-5232856D01*
X10462856Y-11058856D02*
X10462856Y-10988144D01*
X10392144Y-10988144D01*
X10392144Y-11058856D01*
X10462856Y-11058856D01*
X10462856Y-11312856D02*
X10462856Y-11242144D01*
X10392144Y-11242144D01*
X10392144Y-11312856D01*
X10462856Y-11312856D01*
X10497856Y-14832856D02*
X10497856Y-14762144D01*
X10427144Y-14762144D01*
X10427144Y-14832856D01*
X10497856Y-14832856D01*
X10701856Y-5232856D02*
X10701856Y-5162144D01*
X10631144Y-5162144D01*
X10631144Y-5232856D01*
X10701856Y-5232856D01*
X10716856Y-11058856D02*
X10716856Y-10988144D01*
X10646144Y-10988144D01*
X10646144Y-11058856D01*
X10716856Y-11058856D01*
X10716856Y-11312856D02*
X10716856Y-11242144D01*
X10646144Y-11242144D01*
X10646144Y-11312856D01*
X10716856Y-11312856D01*
X10751856Y-14832856D02*
X10751856Y-14762144D01*
X10681144Y-14762144D01*
X10681144Y-14832856D01*
X10751856Y-14832856D01*
X10955856Y-5232856D02*
X10955856Y-5162144D01*
X10885144Y-5162144D01*
X10885144Y-5232856D01*
X10955856Y-5232856D01*
X11005856Y-14832856D02*
X11005856Y-14762144D01*
X10935144Y-14762144D01*
X10935144Y-14832856D01*
X11005856Y-14832856D01*
X11209856Y-5232856D02*
X11209856Y-5162144D01*
X11139144Y-5162144D01*
X11139144Y-5232856D01*
X11209856Y-5232856D01*
X11259856Y-14832856D02*
X11259856Y-14762144D01*
X11189144Y-14762144D01*
X11189144Y-14832856D01*
X11259856Y-14832856D01*
X11463856Y-5232856D02*
X11463856Y-5162144D01*
X11393144Y-5162144D01*
X11393144Y-5232856D01*
X11463856Y-5232856D01*
X11513856Y-14832856D02*
X11513856Y-14762144D01*
X11443144Y-14762144D01*
X11443144Y-14832856D01*
X11513856Y-14832856D01*
X11717856Y-5232856D02*
X11717856Y-5162144D01*
X11647144Y-5162144D01*
X11647144Y-5232856D01*
X11717856Y-5232856D01*
X11762856Y-11060356D02*
X11762856Y-10989644D01*
X11692144Y-10989644D01*
X11692144Y-11060356D01*
X11762856Y-11060356D01*
X11762856Y-11314356D02*
X11762856Y-11243644D01*
X11692144Y-11243644D01*
X11692144Y-11314356D01*
X11762856Y-11314356D01*
X11767856Y-14832856D02*
X11767856Y-14762144D01*
X11697144Y-14762144D01*
X11697144Y-14832856D01*
X11767856Y-14832856D01*
X11971856Y-5232856D02*
X11971856Y-5162144D01*
X11901144Y-5162144D01*
X11901144Y-5232856D01*
X11971856Y-5232856D01*
X12021856Y-14832856D02*
X12021856Y-14762144D01*
X11951144Y-14762144D01*
X11951144Y-14832856D01*
X12021856Y-14832856D01*
X12225856Y-5232856D02*
X12225856Y-5162144D01*
X12155144Y-5162144D01*
X12155144Y-5232856D01*
X12225856Y-5232856D01*
X12275856Y-14832856D02*
X12275856Y-14762144D01*
X12205144Y-14762144D01*
X12205144Y-14832856D01*
X12275856Y-14832856D01*
X12607856Y-12257856D02*
X12607856Y-12187144D01*
X12537144Y-12187144D01*
X12537144Y-12257856D01*
X12607856Y-12257856D01*
X12607856Y-12511856D02*
X12607856Y-12441144D01*
X12537144Y-12441144D01*
X12537144Y-12511856D01*
X12607856Y-12511856D01*
X12607856Y-12765856D02*
X12607856Y-12695144D01*
X12537144Y-12695144D01*
X12537144Y-12765856D01*
X12607856Y-12765856D01*
X12861856Y-12257856D02*
X12861856Y-12187144D01*
X12791144Y-12187144D01*
X12791144Y-12257856D01*
X12861856Y-12257856D01*
X12861856Y-12511856D02*
X12861856Y-12441144D01*
X12791144Y-12441144D01*
X12791144Y-12511856D01*
X12861856Y-12511856D01*
X12861856Y-12765856D02*
X12861856Y-12695144D01*
X12791144Y-12695144D01*
X12791144Y-12765856D01*
X12861856Y-12765856D01*
X12897856Y-5232856D02*
X12897856Y-5162144D01*
X12827144Y-5162144D01*
X12827144Y-5232856D01*
X12897856Y-5232856D01*
X12947856Y-14832856D02*
X12947856Y-14762144D01*
X12877144Y-14762144D01*
X12877144Y-14832856D01*
X12947856Y-14832856D01*
X13151856Y-5232856D02*
X13151856Y-5162144D01*
X13081144Y-5162144D01*
X13081144Y-5232856D01*
X13151856Y-5232856D01*
X13201856Y-14832856D02*
X13201856Y-14762144D01*
X13131144Y-14762144D01*
X13131144Y-14832856D01*
X13201856Y-14832856D01*
X13405856Y-5232856D02*
X13405856Y-5162144D01*
X13335144Y-5162144D01*
X13335144Y-5232856D01*
X13405856Y-5232856D01*
X13455856Y-14832856D02*
X13455856Y-14762144D01*
X13385144Y-14762144D01*
X13385144Y-14832856D01*
X13455856Y-14832856D01*
X13659856Y-5232856D02*
X13659856Y-5162144D01*
X13589144Y-5162144D01*
X13589144Y-5232856D01*
X13659856Y-5232856D01*
X13709856Y-14832856D02*
X13709856Y-14762144D01*
X13639144Y-14762144D01*
X13639144Y-14832856D01*
X13709856Y-14832856D01*
X13913856Y-5232856D02*
X13913856Y-5162144D01*
X13843144Y-5162144D01*
X13843144Y-5232856D01*
X13913856Y-5232856D01*
X13963856Y-14832856D02*
X13963856Y-14762144D01*
X13893144Y-14762144D01*
X13893144Y-14832856D01*
X13963856Y-14832856D01*
X14167856Y-5232856D02*
X14167856Y-5162144D01*
X14097144Y-5162144D01*
X14097144Y-5232856D01*
X14167856Y-5232856D01*
X14217856Y-14832856D02*
X14217856Y-14762144D01*
X14147144Y-14762144D01*
X14147144Y-14832856D01*
X14217856Y-14832856D01*
X14421856Y-5232856D02*
X14421856Y-5162144D01*
X14351144Y-5162144D01*
X14351144Y-5232856D01*
X14421856Y-5232856D01*
X14471856Y-14832856D02*
X14471856Y-14762144D01*
X14401144Y-14762144D01*
X14401144Y-14832856D01*
X14471856Y-14832856D01*
X14675856Y-5232856D02*
X14675856Y-5162144D01*
X14605144Y-5162144D01*
X14605144Y-5232856D01*
X14675856Y-5232856D01*
X14725856Y-14832856D02*
X14725856Y-14762144D01*
X14655144Y-14762144D01*
X14655144Y-14832856D01*
X14725856Y-14832856D01*
X15347856Y-5232856D02*
X15347856Y-5162144D01*
X15277144Y-5162144D01*
X15277144Y-5232856D01*
X15347856Y-5232856D01*
X15397856Y-14832856D02*
X15397856Y-14762144D01*
X15327144Y-14762144D01*
X15327144Y-14832856D01*
X15397856Y-14832856D01*
X15601856Y-5232856D02*
X15601856Y-5162144D01*
X15531144Y-5162144D01*
X15531144Y-5232856D01*
X15601856Y-5232856D01*
X15651856Y-14832856D02*
X15651856Y-14762144D01*
X15581144Y-14762144D01*
X15581144Y-14832856D01*
X15651856Y-14832856D01*
X15855856Y-5232856D02*
X15855856Y-5162144D01*
X15785144Y-5162144D01*
X15785144Y-5232856D01*
X15855856Y-5232856D01*
X15905856Y-14832856D02*
X15905856Y-14762144D01*
X15835144Y-14762144D01*
X15835144Y-14832856D01*
X15905856Y-14832856D01*
X16109856Y-5232856D02*
X16109856Y-5162144D01*
X16039144Y-5162144D01*
X16039144Y-5232856D01*
X16109856Y-5232856D01*
X16159856Y-14832856D02*
X16159856Y-14762144D01*
X16089144Y-14762144D01*
X16089144Y-14832856D01*
X16159856Y-14832856D01*
X16363856Y-5232856D02*
X16363856Y-5162144D01*
X16293144Y-5162144D01*
X16293144Y-5232856D01*
X16363856Y-5232856D01*
X16413856Y-14832856D02*
X16413856Y-14762144D01*
X16343144Y-14762144D01*
X16343144Y-14832856D01*
X16413856Y-14832856D01*
X16617856Y-5232856D02*
X16617856Y-5162144D01*
X16547144Y-5162144D01*
X16547144Y-5232856D01*
X16617856Y-5232856D01*
X16667856Y-14832856D02*
X16667856Y-14762144D01*
X16597144Y-14762144D01*
X16597144Y-14832856D01*
X16667856Y-14832856D01*
X16871856Y-5232856D02*
X16871856Y-5162144D01*
X16801144Y-5162144D01*
X16801144Y-5232856D01*
X16871856Y-5232856D01*
X16921856Y-14832856D02*
X16921856Y-14762144D01*
X16851144Y-14762144D01*
X16851144Y-14832856D01*
X16921856Y-14832856D01*
X17125856Y-5232856D02*
X17125856Y-5162144D01*
X17055144Y-5162144D01*
X17055144Y-5232856D01*
X17125856Y-5232856D01*
X17175856Y-14832856D02*
X17175856Y-14762144D01*
X17105144Y-14762144D01*
X17105144Y-14832856D01*
X17175856Y-14832856D01*
X17307356Y-5750356D02*
X17307356Y-5679644D01*
X17236644Y-5679644D01*
X17236644Y-5750356D01*
X17307356Y-5750356D01*
X17307356Y-6004356D02*
X17307356Y-5933644D01*
X17236644Y-5933644D01*
X17236644Y-6004356D01*
X17307356Y-6004356D01*
X17307356Y-6258356D02*
X17307356Y-6187644D01*
X17236644Y-6187644D01*
X17236644Y-6258356D01*
X17307356Y-6258356D01*
X17307356Y-6512356D02*
X17307356Y-6441644D01*
X17236644Y-6441644D01*
X17236644Y-6512356D01*
X17307356Y-6512356D01*
X17307356Y-6766356D02*
X17307356Y-6695644D01*
X17236644Y-6695644D01*
X17236644Y-6766356D01*
X17307356Y-6766356D01*
X17307356Y-7020356D02*
X17307356Y-6949644D01*
X17236644Y-6949644D01*
X17236644Y-7020356D01*
X17307356Y-7020356D01*
X17307356Y-7274356D02*
X17307356Y-7203644D01*
X17236644Y-7203644D01*
X17236644Y-7274356D01*
X17307356Y-7274356D01*
X17307356Y-7528356D02*
X17307356Y-7457644D01*
X17236644Y-7457644D01*
X17236644Y-7528356D01*
X17307356Y-7528356D01*
X17307356Y-7782356D02*
X17307356Y-7711644D01*
X17236644Y-7711644D01*
X17236644Y-7782356D01*
X17307356Y-7782356D01*
X17307356Y-8036356D02*
X17307356Y-7965644D01*
X17236644Y-7965644D01*
X17236644Y-8036356D01*
X17307356Y-8036356D01*
X17307356Y-8290356D02*
X17307356Y-8219644D01*
X17236644Y-8219644D01*
X17236644Y-8290356D01*
X17307356Y-8290356D01*
X17307356Y-8544356D02*
X17307356Y-8473644D01*
X17236644Y-8473644D01*
X17236644Y-8544356D01*
X17307356Y-8544356D01*
X17307356Y-8798356D02*
X17307356Y-8727644D01*
X17236644Y-8727644D01*
X17236644Y-8798356D01*
X17307356Y-8798356D01*
X17307356Y-9052356D02*
X17307356Y-8981644D01*
X17236644Y-8981644D01*
X17236644Y-9052356D01*
X17307356Y-9052356D01*
X17307356Y-9306356D02*
X17307356Y-9235644D01*
X17236644Y-9235644D01*
X17236644Y-9306356D01*
X17307356Y-9306356D01*
X17307356Y-9560356D02*
X17307356Y-9489644D01*
X17236644Y-9489644D01*
X17236644Y-9560356D01*
X17307356Y-9560356D01*
X17307356Y-9814356D02*
X17307356Y-9743644D01*
X17236644Y-9743644D01*
X17236644Y-9814356D01*
X17307356Y-9814356D01*
X17307356Y-10068356D02*
X17307356Y-9997644D01*
X17236644Y-9997644D01*
X17236644Y-10068356D01*
X17307356Y-10068356D01*
X17307356Y-10322356D02*
X17307356Y-10251644D01*
X17236644Y-10251644D01*
X17236644Y-10322356D01*
X17307356Y-10322356D01*
X17307356Y-10576356D02*
X17307356Y-10505644D01*
X17236644Y-10505644D01*
X17236644Y-10576356D01*
X17307356Y-10576356D01*
X17307356Y-10830356D02*
X17307356Y-10759644D01*
X17236644Y-10759644D01*
X17236644Y-10830356D01*
X17307356Y-10830356D01*
X17307356Y-11084356D02*
X17307356Y-11013644D01*
X17236644Y-11013644D01*
X17236644Y-11084356D01*
X17307356Y-11084356D01*
X17307356Y-11338356D02*
X17307356Y-11267644D01*
X17236644Y-11267644D01*
X17236644Y-11338356D01*
X17307356Y-11338356D01*
X17307356Y-11592356D02*
X17307356Y-11521644D01*
X17236644Y-11521644D01*
X17236644Y-11592356D01*
X17307356Y-11592356D01*
X17307356Y-11846356D02*
X17307356Y-11775644D01*
X17236644Y-11775644D01*
X17236644Y-11846356D01*
X17307356Y-11846356D01*
X17307356Y-12100356D02*
X17307356Y-12029644D01*
X17236644Y-12029644D01*
X17236644Y-12100356D01*
X17307356Y-12100356D01*
X17307356Y-12354356D02*
X17307356Y-12283644D01*
X17236644Y-12283644D01*
X17236644Y-12354356D01*
X17307356Y-12354356D01*
X17307356Y-12608356D02*
X17307356Y-12537644D01*
X17236644Y-12537644D01*
X17236644Y-12608356D01*
X17307356Y-12608356D01*
X17307356Y-12862356D02*
X17307356Y-12791644D01*
X17236644Y-12791644D01*
X17236644Y-12862356D01*
X17307356Y-12862356D01*
X17307356Y-13116356D02*
X17307356Y-13045644D01*
X17236644Y-13045644D01*
X17236644Y-13116356D01*
X17307356Y-13116356D01*
X17307356Y-13370356D02*
X17307356Y-13299644D01*
X17236644Y-13299644D01*
X17236644Y-13370356D01*
X17307356Y-13370356D01*
X17307356Y-13624356D02*
X17307356Y-13553644D01*
X17236644Y-13553644D01*
X17236644Y-13624356D01*
X17307356Y-13624356D01*
X17307356Y-13878356D02*
X17307356Y-13807644D01*
X17236644Y-13807644D01*
X17236644Y-13878356D01*
X17307356Y-13878356D01*
X17307356Y-14132356D02*
X17307356Y-14061644D01*
X17236644Y-14061644D01*
X17236644Y-14132356D01*
X17307356Y-14132356D01*
X17307356Y-14386356D02*
X17307356Y-14315644D01*
X17236644Y-14315644D01*
X17236644Y-14386356D01*
X17307356Y-14386356D01*
X17561356Y-5750356D02*
X17561356Y-5679644D01*
X17490644Y-5679644D01*
X17490644Y-5750356D01*
X17561356Y-5750356D01*
X17561356Y-6004356D02*
X17561356Y-5933644D01*
X17490644Y-5933644D01*
X17490644Y-6004356D01*
X17561356Y-6004356D01*
X17561356Y-6258356D02*
X17561356Y-6187644D01*
X17490644Y-6187644D01*
X17490644Y-6258356D01*
X17561356Y-6258356D01*
X17561356Y-6512356D02*
X17561356Y-6441644D01*
X17490644Y-6441644D01*
X17490644Y-6512356D01*
X17561356Y-6512356D01*
X17561356Y-6766356D02*
X17561356Y-6695644D01*
X17490644Y-6695644D01*
X17490644Y-6766356D01*
X17561356Y-6766356D01*
X17561356Y-7020356D02*
X17561356Y-6949644D01*
X17490644Y-6949644D01*
X17490644Y-7020356D01*
X17561356Y-7020356D01*
X17561356Y-7274356D02*
X17561356Y-7203644D01*
X17490644Y-7203644D01*
X17490644Y-7274356D01*
X17561356Y-7274356D01*
X17561356Y-7528356D02*
X17561356Y-7457644D01*
X17490644Y-7457644D01*
X17490644Y-7528356D01*
X17561356Y-7528356D01*
X17561356Y-7782356D02*
X17561356Y-7711644D01*
X17490644Y-7711644D01*
X17490644Y-7782356D01*
X17561356Y-7782356D01*
X17561356Y-8036356D02*
X17561356Y-7965644D01*
X17490644Y-7965644D01*
X17490644Y-8036356D01*
X17561356Y-8036356D01*
X17561356Y-8290356D02*
X17561356Y-8219644D01*
X17490644Y-8219644D01*
X17490644Y-8290356D01*
X17561356Y-8290356D01*
X17561356Y-8544356D02*
X17561356Y-8473644D01*
X17490644Y-8473644D01*
X17490644Y-8544356D01*
X17561356Y-8544356D01*
X17561356Y-8798356D02*
X17561356Y-8727644D01*
X17490644Y-8727644D01*
X17490644Y-8798356D01*
X17561356Y-8798356D01*
X17561356Y-9052356D02*
X17561356Y-8981644D01*
X17490644Y-8981644D01*
X17490644Y-9052356D01*
X17561356Y-9052356D01*
X17561356Y-9306356D02*
X17561356Y-9235644D01*
X17490644Y-9235644D01*
X17490644Y-9306356D01*
X17561356Y-9306356D01*
X17561356Y-9560356D02*
X17561356Y-9489644D01*
X17490644Y-9489644D01*
X17490644Y-9560356D01*
X17561356Y-9560356D01*
X17561356Y-9814356D02*
X17561356Y-9743644D01*
X17490644Y-9743644D01*
X17490644Y-9814356D01*
X17561356Y-9814356D01*
X17561356Y-10068356D02*
X17561356Y-9997644D01*
X17490644Y-9997644D01*
X17490644Y-10068356D01*
X17561356Y-10068356D01*
X17561356Y-10322356D02*
X17561356Y-10251644D01*
X17490644Y-10251644D01*
X17490644Y-10322356D01*
X17561356Y-10322356D01*
X17561356Y-10576356D02*
X17561356Y-10505644D01*
X17490644Y-10505644D01*
X17490644Y-10576356D01*
X17561356Y-10576356D01*
X17561356Y-10830356D02*
X17561356Y-10759644D01*
X17490644Y-10759644D01*
X17490644Y-10830356D01*
X17561356Y-10830356D01*
X17561356Y-11084356D02*
X17561356Y-11013644D01*
X17490644Y-11013644D01*
X17490644Y-11084356D01*
X17561356Y-11084356D01*
X17561356Y-11338356D02*
X17561356Y-11267644D01*
X17490644Y-11267644D01*
X17490644Y-11338356D01*
X17561356Y-11338356D01*
X17561356Y-11592356D02*
X17561356Y-11521644D01*
X17490644Y-11521644D01*
X17490644Y-11592356D01*
X17561356Y-11592356D01*
X17561356Y-11846356D02*
X17561356Y-11775644D01*
X17490644Y-11775644D01*
X17490644Y-11846356D01*
X17561356Y-11846356D01*
X17561356Y-12100356D02*
X17561356Y-12029644D01*
X17490644Y-12029644D01*
X17490644Y-12100356D01*
X17561356Y-12100356D01*
X17561356Y-12354356D02*
X17561356Y-12283644D01*
X17490644Y-12283644D01*
X17490644Y-12354356D01*
X17561356Y-12354356D01*
X17561356Y-12608356D02*
X17561356Y-12537644D01*
X17490644Y-12537644D01*
X17490644Y-12608356D01*
X17561356Y-12608356D01*
X17561356Y-12862356D02*
X17561356Y-12791644D01*
X17490644Y-12791644D01*
X17490644Y-12862356D01*
X17561356Y-12862356D01*
X17561356Y-13116356D02*
X17561356Y-13045644D01*
X17490644Y-13045644D01*
X17490644Y-13116356D01*
X17561356Y-13116356D01*
X17561356Y-13370356D02*
X17561356Y-13299644D01*
X17490644Y-13299644D01*
X17490644Y-13370356D01*
X17561356Y-13370356D01*
X17561356Y-13624356D02*
X17561356Y-13553644D01*
X17490644Y-13553644D01*
X17490644Y-13624356D01*
X17561356Y-13624356D01*
X17561356Y-13878356D02*
X17561356Y-13807644D01*
X17490644Y-13807644D01*
X17490644Y-13878356D01*
X17561356Y-13878356D01*
X17561356Y-14132356D02*
X17561356Y-14061644D01*
X17490644Y-14061644D01*
X17490644Y-14132356D01*
X17561356Y-14132356D01*
X17561356Y-14386356D02*
X17561356Y-14315644D01*
X17490644Y-14315644D01*
X17490644Y-14386356D01*
X17561356Y-14386356D01*
X17815356Y-5750356D02*
X17815356Y-5679644D01*
X17744644Y-5679644D01*
X17744644Y-5750356D01*
X17815356Y-5750356D01*
X17815356Y-6004356D02*
X17815356Y-5933644D01*
X17744644Y-5933644D01*
X17744644Y-6004356D01*
X17815356Y-6004356D01*
X17815356Y-6258356D02*
X17815356Y-6187644D01*
X17744644Y-6187644D01*
X17744644Y-6258356D01*
X17815356Y-6258356D01*
X17815356Y-6512356D02*
X17815356Y-6441644D01*
X17744644Y-6441644D01*
X17744644Y-6512356D01*
X17815356Y-6512356D01*
X17815356Y-6766356D02*
X17815356Y-6695644D01*
X17744644Y-6695644D01*
X17744644Y-6766356D01*
X17815356Y-6766356D01*
X17815356Y-7020356D02*
X17815356Y-6949644D01*
X17744644Y-6949644D01*
X17744644Y-7020356D01*
X17815356Y-7020356D01*
X17815356Y-7274356D02*
X17815356Y-7203644D01*
X17744644Y-7203644D01*
X17744644Y-7274356D01*
X17815356Y-7274356D01*
X17815356Y-7528356D02*
X17815356Y-7457644D01*
X17744644Y-7457644D01*
X17744644Y-7528356D01*
X17815356Y-7528356D01*
X17815356Y-7782356D02*
X17815356Y-7711644D01*
X17744644Y-7711644D01*
X17744644Y-7782356D01*
X17815356Y-7782356D01*
X17815356Y-8036356D02*
X17815356Y-7965644D01*
X17744644Y-7965644D01*
X17744644Y-8036356D01*
X17815356Y-8036356D01*
X17815356Y-8290356D02*
X17815356Y-8219644D01*
X17744644Y-8219644D01*
X17744644Y-8290356D01*
X17815356Y-8290356D01*
X17815356Y-8544356D02*
X17815356Y-8473644D01*
X17744644Y-8473644D01*
X17744644Y-8544356D01*
X17815356Y-8544356D01*
X17815356Y-8798356D02*
X17815356Y-8727644D01*
X17744644Y-8727644D01*
X17744644Y-8798356D01*
X17815356Y-8798356D01*
X17815356Y-9052356D02*
X17815356Y-8981644D01*
X17744644Y-8981644D01*
X17744644Y-9052356D01*
X17815356Y-9052356D01*
X17815356Y-9306356D02*
X17815356Y-9235644D01*
X17744644Y-9235644D01*
X17744644Y-9306356D01*
X17815356Y-9306356D01*
X17815356Y-9560356D02*
X17815356Y-9489644D01*
X17744644Y-9489644D01*
X17744644Y-9560356D01*
X17815356Y-9560356D01*
X17815356Y-9814356D02*
X17815356Y-9743644D01*
X17744644Y-9743644D01*
X17744644Y-9814356D01*
X17815356Y-9814356D01*
X17815356Y-10068356D02*
X17815356Y-9997644D01*
X17744644Y-9997644D01*
X17744644Y-10068356D01*
X17815356Y-10068356D01*
X17815356Y-10322356D02*
X17815356Y-10251644D01*
X17744644Y-10251644D01*
X17744644Y-10322356D01*
X17815356Y-10322356D01*
X17815356Y-10576356D02*
X17815356Y-10505644D01*
X17744644Y-10505644D01*
X17744644Y-10576356D01*
X17815356Y-10576356D01*
X17815356Y-10830356D02*
X17815356Y-10759644D01*
X17744644Y-10759644D01*
X17744644Y-10830356D01*
X17815356Y-10830356D01*
X17815356Y-11084356D02*
X17815356Y-11013644D01*
X17744644Y-11013644D01*
X17744644Y-11084356D01*
X17815356Y-11084356D01*
X17815356Y-11338356D02*
X17815356Y-11267644D01*
X17744644Y-11267644D01*
X17744644Y-11338356D01*
X17815356Y-11338356D01*
X17815356Y-11592356D02*
X17815356Y-11521644D01*
X17744644Y-11521644D01*
X17744644Y-11592356D01*
X17815356Y-11592356D01*
X17815356Y-11846356D02*
X17815356Y-11775644D01*
X17744644Y-11775644D01*
X17744644Y-11846356D01*
X17815356Y-11846356D01*
X17815356Y-12100356D02*
X17815356Y-12029644D01*
X17744644Y-12029644D01*
X17744644Y-12100356D01*
X17815356Y-12100356D01*
X17815356Y-12354356D02*
X17815356Y-12283644D01*
X17744644Y-12283644D01*
X17744644Y-12354356D01*
X17815356Y-12354356D01*
X17815356Y-12608356D02*
X17815356Y-12537644D01*
X17744644Y-12537644D01*
X17744644Y-12608356D01*
X17815356Y-12608356D01*
X17815356Y-12862356D02*
X17815356Y-12791644D01*
X17744644Y-12791644D01*
X17744644Y-12862356D01*
X17815356Y-12862356D01*
X17815356Y-13116356D02*
X17815356Y-13045644D01*
X17744644Y-13045644D01*
X17744644Y-13116356D01*
X17815356Y-13116356D01*
X17815356Y-13370356D02*
X17815356Y-13299644D01*
X17744644Y-13299644D01*
X17744644Y-13370356D01*
X17815356Y-13370356D01*
X17815356Y-13624356D02*
X17815356Y-13553644D01*
X17744644Y-13553644D01*
X17744644Y-13624356D01*
X17815356Y-13624356D01*
X17815356Y-13878356D02*
X17815356Y-13807644D01*
X17744644Y-13807644D01*
X17744644Y-13878356D01*
X17815356Y-13878356D01*
X17815356Y-14132356D02*
X17815356Y-14061644D01*
X17744644Y-14061644D01*
X17744644Y-14132356D01*
X17815356Y-14132356D01*
X17815356Y-14386356D02*
X17815356Y-14315644D01*
X17744644Y-14315644D01*
X17744644Y-14386356D01*
X17815356Y-14386356D01*
X17885356Y-14832856D02*
X17885356Y-14762144D01*
X17814644Y-14762144D01*
X17814644Y-14832856D01*
X17885356Y-14832856D01*
X17935356Y-5235356D02*
X17935356Y-5164644D01*
X17864644Y-5164644D01*
X17864644Y-5235356D01*
X17935356Y-5235356D01*
X18069356Y-5750356D02*
X18069356Y-5679644D01*
X17998644Y-5679644D01*
X17998644Y-5750356D01*
X18069356Y-5750356D01*
X18069356Y-6004356D02*
X18069356Y-5933644D01*
X17998644Y-5933644D01*
X17998644Y-6004356D01*
X18069356Y-6004356D01*
X18069356Y-6258356D02*
X18069356Y-6187644D01*
X17998644Y-6187644D01*
X17998644Y-6258356D01*
X18069356Y-6258356D01*
X18069356Y-6512356D02*
X18069356Y-6441644D01*
X17998644Y-6441644D01*
X17998644Y-6512356D01*
X18069356Y-6512356D01*
X18069356Y-6766356D02*
X18069356Y-6695644D01*
X17998644Y-6695644D01*
X17998644Y-6766356D01*
X18069356Y-6766356D01*
X18069356Y-7020356D02*
X18069356Y-6949644D01*
X17998644Y-6949644D01*
X17998644Y-7020356D01*
X18069356Y-7020356D01*
X18069356Y-7274356D02*
X18069356Y-7203644D01*
X17998644Y-7203644D01*
X17998644Y-7274356D01*
X18069356Y-7274356D01*
X18069356Y-7528356D02*
X18069356Y-7457644D01*
X17998644Y-7457644D01*
X17998644Y-7528356D01*
X18069356Y-7528356D01*
X18069356Y-7782356D02*
X18069356Y-7711644D01*
X17998644Y-7711644D01*
X17998644Y-7782356D01*
X18069356Y-7782356D01*
X18069356Y-8036356D02*
X18069356Y-7965644D01*
X17998644Y-7965644D01*
X17998644Y-8036356D01*
X18069356Y-8036356D01*
X18069356Y-8290356D02*
X18069356Y-8219644D01*
X17998644Y-8219644D01*
X17998644Y-8290356D01*
X18069356Y-8290356D01*
X18069356Y-8544356D02*
X18069356Y-8473644D01*
X17998644Y-8473644D01*
X17998644Y-8544356D01*
X18069356Y-8544356D01*
X18069356Y-8798356D02*
X18069356Y-8727644D01*
X17998644Y-8727644D01*
X17998644Y-8798356D01*
X18069356Y-8798356D01*
X18069356Y-9052356D02*
X18069356Y-8981644D01*
X17998644Y-8981644D01*
X17998644Y-9052356D01*
X18069356Y-9052356D01*
X18069356Y-9306356D02*
X18069356Y-9235644D01*
X17998644Y-9235644D01*
X17998644Y-9306356D01*
X18069356Y-9306356D01*
X18069356Y-9560356D02*
X18069356Y-9489644D01*
X17998644Y-9489644D01*
X17998644Y-9560356D01*
X18069356Y-9560356D01*
X18069356Y-9814356D02*
X18069356Y-9743644D01*
X17998644Y-9743644D01*
X17998644Y-9814356D01*
X18069356Y-9814356D01*
X18069356Y-10068356D02*
X18069356Y-9997644D01*
X17998644Y-9997644D01*
X17998644Y-10068356D01*
X18069356Y-10068356D01*
X18069356Y-10322356D02*
X18069356Y-10251644D01*
X17998644Y-10251644D01*
X17998644Y-10322356D01*
X18069356Y-10322356D01*
X18069356Y-10576356D02*
X18069356Y-10505644D01*
X17998644Y-10505644D01*
X17998644Y-10576356D01*
X18069356Y-10576356D01*
X18069356Y-10830356D02*
X18069356Y-10759644D01*
X17998644Y-10759644D01*
X17998644Y-10830356D01*
X18069356Y-10830356D01*
X18069356Y-11084356D02*
X18069356Y-11013644D01*
X17998644Y-11013644D01*
X17998644Y-11084356D01*
X18069356Y-11084356D01*
X18069356Y-11338356D02*
X18069356Y-11267644D01*
X17998644Y-11267644D01*
X17998644Y-11338356D01*
X18069356Y-11338356D01*
X18069356Y-11592356D02*
X18069356Y-11521644D01*
X17998644Y-11521644D01*
X17998644Y-11592356D01*
X18069356Y-11592356D01*
X18069356Y-11846356D02*
X18069356Y-11775644D01*
X17998644Y-11775644D01*
X17998644Y-11846356D01*
X18069356Y-11846356D01*
X18069356Y-12100356D02*
X18069356Y-12029644D01*
X17998644Y-12029644D01*
X17998644Y-12100356D01*
X18069356Y-12100356D01*
X18069356Y-12354356D02*
X18069356Y-12283644D01*
X17998644Y-12283644D01*
X17998644Y-12354356D01*
X18069356Y-12354356D01*
X18069356Y-12608356D02*
X18069356Y-12537644D01*
X17998644Y-12537644D01*
X17998644Y-12608356D01*
X18069356Y-12608356D01*
X18069356Y-12862356D02*
X18069356Y-12791644D01*
X17998644Y-12791644D01*
X17998644Y-12862356D01*
X18069356Y-12862356D01*
X18069356Y-13116356D02*
X18069356Y-13045644D01*
X17998644Y-13045644D01*
X17998644Y-13116356D01*
X18069356Y-13116356D01*
X18069356Y-13370356D02*
X18069356Y-13299644D01*
X17998644Y-13299644D01*
X17998644Y-13370356D01*
X18069356Y-13370356D01*
X18069356Y-13624356D02*
X18069356Y-13553644D01*
X17998644Y-13553644D01*
X17998644Y-13624356D01*
X18069356Y-13624356D01*
X18069356Y-13878356D02*
X18069356Y-13807644D01*
X17998644Y-13807644D01*
X17998644Y-13878356D01*
X18069356Y-13878356D01*
X18069356Y-14132356D02*
X18069356Y-14061644D01*
X17998644Y-14061644D01*
X17998644Y-14132356D01*
X18069356Y-14132356D01*
X18069356Y-14386356D02*
X18069356Y-14315644D01*
X17998644Y-14315644D01*
X17998644Y-14386356D01*
X18069356Y-14386356D01*
X18139356Y-14832856D02*
X18139356Y-14762144D01*
X18068644Y-14762144D01*
X18068644Y-14832856D01*
X18139356Y-14832856D01*
X18189356Y-5235356D02*
X18189356Y-5164644D01*
X18118644Y-5164644D01*
X18118644Y-5235356D01*
X18189356Y-5235356D01*
X18323356Y-5750356D02*
X18323356Y-5679644D01*
X18252644Y-5679644D01*
X18252644Y-5750356D01*
X18323356Y-5750356D01*
X18323356Y-6004356D02*
X18323356Y-5933644D01*
X18252644Y-5933644D01*
X18252644Y-6004356D01*
X18323356Y-6004356D01*
X18323356Y-6258356D02*
X18323356Y-6187644D01*
X18252644Y-6187644D01*
X18252644Y-6258356D01*
X18323356Y-6258356D01*
X18323356Y-6512356D02*
X18323356Y-6441644D01*
X18252644Y-6441644D01*
X18252644Y-6512356D01*
X18323356Y-6512356D01*
X18323356Y-6766356D02*
X18323356Y-6695644D01*
X18252644Y-6695644D01*
X18252644Y-6766356D01*
X18323356Y-6766356D01*
X18323356Y-7020356D02*
X18323356Y-6949644D01*
X18252644Y-6949644D01*
X18252644Y-7020356D01*
X18323356Y-7020356D01*
X18323356Y-7274356D02*
X18323356Y-7203644D01*
X18252644Y-7203644D01*
X18252644Y-7274356D01*
X18323356Y-7274356D01*
X18323356Y-7528356D02*
X18323356Y-7457644D01*
X18252644Y-7457644D01*
X18252644Y-7528356D01*
X18323356Y-7528356D01*
X18323356Y-7782356D02*
X18323356Y-7711644D01*
X18252644Y-7711644D01*
X18252644Y-7782356D01*
X18323356Y-7782356D01*
X18323356Y-8036356D02*
X18323356Y-7965644D01*
X18252644Y-7965644D01*
X18252644Y-8036356D01*
X18323356Y-8036356D01*
X18323356Y-8290356D02*
X18323356Y-8219644D01*
X18252644Y-8219644D01*
X18252644Y-8290356D01*
X18323356Y-8290356D01*
X18323356Y-8544356D02*
X18323356Y-8473644D01*
X18252644Y-8473644D01*
X18252644Y-8544356D01*
X18323356Y-8544356D01*
X18323356Y-8798356D02*
X18323356Y-8727644D01*
X18252644Y-8727644D01*
X18252644Y-8798356D01*
X18323356Y-8798356D01*
X18323356Y-9052356D02*
X18323356Y-8981644D01*
X18252644Y-8981644D01*
X18252644Y-9052356D01*
X18323356Y-9052356D01*
X18323356Y-9306356D02*
X18323356Y-9235644D01*
X18252644Y-9235644D01*
X18252644Y-9306356D01*
X18323356Y-9306356D01*
X18323356Y-9560356D02*
X18323356Y-9489644D01*
X18252644Y-9489644D01*
X18252644Y-9560356D01*
X18323356Y-9560356D01*
X18323356Y-9814356D02*
X18323356Y-9743644D01*
X18252644Y-9743644D01*
X18252644Y-9814356D01*
X18323356Y-9814356D01*
X18323356Y-10068356D02*
X18323356Y-9997644D01*
X18252644Y-9997644D01*
X18252644Y-10068356D01*
X18323356Y-10068356D01*
X18323356Y-10322356D02*
X18323356Y-10251644D01*
X18252644Y-10251644D01*
X18252644Y-10322356D01*
X18323356Y-10322356D01*
X18323356Y-10576356D02*
X18323356Y-10505644D01*
X18252644Y-10505644D01*
X18252644Y-10576356D01*
X18323356Y-10576356D01*
X18323356Y-10830356D02*
X18323356Y-10759644D01*
X18252644Y-10759644D01*
X18252644Y-10830356D01*
X18323356Y-10830356D01*
X18323356Y-11084356D02*
X18323356Y-11013644D01*
X18252644Y-11013644D01*
X18252644Y-11084356D01*
X18323356Y-11084356D01*
X18323356Y-11338356D02*
X18323356Y-11267644D01*
X18252644Y-11267644D01*
X18252644Y-11338356D01*
X18323356Y-11338356D01*
X18323356Y-11592356D02*
X18323356Y-11521644D01*
X18252644Y-11521644D01*
X18252644Y-11592356D01*
X18323356Y-11592356D01*
X18323356Y-11846356D02*
X18323356Y-11775644D01*
X18252644Y-11775644D01*
X18252644Y-11846356D01*
X18323356Y-11846356D01*
X18323356Y-12100356D02*
X18323356Y-12029644D01*
X18252644Y-12029644D01*
X18252644Y-12100356D01*
X18323356Y-12100356D01*
X18323356Y-12354356D02*
X18323356Y-12283644D01*
X18252644Y-12283644D01*
X18252644Y-12354356D01*
X18323356Y-12354356D01*
X18323356Y-12608356D02*
X18323356Y-12537644D01*
X18252644Y-12537644D01*
X18252644Y-12608356D01*
X18323356Y-12608356D01*
X18323356Y-12862356D02*
X18323356Y-12791644D01*
X18252644Y-12791644D01*
X18252644Y-12862356D01*
X18323356Y-12862356D01*
X18323356Y-13116356D02*
X18323356Y-13045644D01*
X18252644Y-13045644D01*
X18252644Y-13116356D01*
X18323356Y-13116356D01*
X18323356Y-13370356D02*
X18323356Y-13299644D01*
X18252644Y-13299644D01*
X18252644Y-13370356D01*
X18323356Y-13370356D01*
X18323356Y-13624356D02*
X18323356Y-13553644D01*
X18252644Y-13553644D01*
X18252644Y-13624356D01*
X18323356Y-13624356D01*
X18323356Y-13878356D02*
X18323356Y-13807644D01*
X18252644Y-13807644D01*
X18252644Y-13878356D01*
X18323356Y-13878356D01*
X18323356Y-14132356D02*
X18323356Y-14061644D01*
X18252644Y-14061644D01*
X18252644Y-14132356D01*
X18323356Y-14132356D01*
X18323356Y-14386356D02*
X18323356Y-14315644D01*
X18252644Y-14315644D01*
X18252644Y-14386356D01*
X18323356Y-14386356D01*
X18577356Y-5750356D02*
X18577356Y-5679644D01*
X18506644Y-5679644D01*
X18506644Y-5750356D01*
X18577356Y-5750356D01*
X18577356Y-6004356D02*
X18577356Y-5933644D01*
X18506644Y-5933644D01*
X18506644Y-6004356D01*
X18577356Y-6004356D01*
X18577356Y-6258356D02*
X18577356Y-6187644D01*
X18506644Y-6187644D01*
X18506644Y-6258356D01*
X18577356Y-6258356D01*
X18577356Y-6512356D02*
X18577356Y-6441644D01*
X18506644Y-6441644D01*
X18506644Y-6512356D01*
X18577356Y-6512356D01*
X18577356Y-6766356D02*
X18577356Y-6695644D01*
X18506644Y-6695644D01*
X18506644Y-6766356D01*
X18577356Y-6766356D01*
X18577356Y-7020356D02*
X18577356Y-6949644D01*
X18506644Y-6949644D01*
X18506644Y-7020356D01*
X18577356Y-7020356D01*
X18577356Y-7274356D02*
X18577356Y-7203644D01*
X18506644Y-7203644D01*
X18506644Y-7274356D01*
X18577356Y-7274356D01*
X18577356Y-7528356D02*
X18577356Y-7457644D01*
X18506644Y-7457644D01*
X18506644Y-7528356D01*
X18577356Y-7528356D01*
X18577356Y-7782356D02*
X18577356Y-7711644D01*
X18506644Y-7711644D01*
X18506644Y-7782356D01*
X18577356Y-7782356D01*
X18577356Y-8036356D02*
X18577356Y-7965644D01*
X18506644Y-7965644D01*
X18506644Y-8036356D01*
X18577356Y-8036356D01*
X18577356Y-8290356D02*
X18577356Y-8219644D01*
X18506644Y-8219644D01*
X18506644Y-8290356D01*
X18577356Y-8290356D01*
X18577356Y-8544356D02*
X18577356Y-8473644D01*
X18506644Y-8473644D01*
X18506644Y-8544356D01*
X18577356Y-8544356D01*
X18577356Y-8798356D02*
X18577356Y-8727644D01*
X18506644Y-8727644D01*
X18506644Y-8798356D01*
X18577356Y-8798356D01*
X18577356Y-9052356D02*
X18577356Y-8981644D01*
X18506644Y-8981644D01*
X18506644Y-9052356D01*
X18577356Y-9052356D01*
X18577356Y-9306356D02*
X18577356Y-9235644D01*
X18506644Y-9235644D01*
X18506644Y-9306356D01*
X18577356Y-9306356D01*
X18577356Y-9560356D02*
X18577356Y-9489644D01*
X18506644Y-9489644D01*
X18506644Y-9560356D01*
X18577356Y-9560356D01*
X18577356Y-9814356D02*
X18577356Y-9743644D01*
X18506644Y-9743644D01*
X18506644Y-9814356D01*
X18577356Y-9814356D01*
X18577356Y-10068356D02*
X18577356Y-9997644D01*
X18506644Y-9997644D01*
X18506644Y-10068356D01*
X18577356Y-10068356D01*
X18577356Y-10322356D02*
X18577356Y-10251644D01*
X18506644Y-10251644D01*
X18506644Y-10322356D01*
X18577356Y-10322356D01*
X18577356Y-10576356D02*
X18577356Y-10505644D01*
X18506644Y-10505644D01*
X18506644Y-10576356D01*
X18577356Y-10576356D01*
X18577356Y-10830356D02*
X18577356Y-10759644D01*
X18506644Y-10759644D01*
X18506644Y-10830356D01*
X18577356Y-10830356D01*
X18577356Y-11084356D02*
X18577356Y-11013644D01*
X18506644Y-11013644D01*
X18506644Y-11084356D01*
X18577356Y-11084356D01*
X18577356Y-11338356D02*
X18577356Y-11267644D01*
X18506644Y-11267644D01*
X18506644Y-11338356D01*
X18577356Y-11338356D01*
X18577356Y-11592356D02*
X18577356Y-11521644D01*
X18506644Y-11521644D01*
X18506644Y-11592356D01*
X18577356Y-11592356D01*
X18577356Y-11846356D02*
X18577356Y-11775644D01*
X18506644Y-11775644D01*
X18506644Y-11846356D01*
X18577356Y-11846356D01*
X18577356Y-12100356D02*
X18577356Y-12029644D01*
X18506644Y-12029644D01*
X18506644Y-12100356D01*
X18577356Y-12100356D01*
X18577356Y-12354356D02*
X18577356Y-12283644D01*
X18506644Y-12283644D01*
X18506644Y-12354356D01*
X18577356Y-12354356D01*
X18577356Y-12608356D02*
X18577356Y-12537644D01*
X18506644Y-12537644D01*
X18506644Y-12608356D01*
X18577356Y-12608356D01*
X18577356Y-12862356D02*
X18577356Y-12791644D01*
X18506644Y-12791644D01*
X18506644Y-12862356D01*
X18577356Y-12862356D01*
X18577356Y-13116356D02*
X18577356Y-13045644D01*
X18506644Y-13045644D01*
X18506644Y-13116356D01*
X18577356Y-13116356D01*
X18577356Y-13370356D02*
X18577356Y-13299644D01*
X18506644Y-13299644D01*
X18506644Y-13370356D01*
X18577356Y-13370356D01*
X18577356Y-13624356D02*
X18577356Y-13553644D01*
X18506644Y-13553644D01*
X18506644Y-13624356D01*
X18577356Y-13624356D01*
X18577356Y-13878356D02*
X18577356Y-13807644D01*
X18506644Y-13807644D01*
X18506644Y-13878356D01*
X18577356Y-13878356D01*
X18577356Y-14132356D02*
X18577356Y-14061644D01*
X18506644Y-14061644D01*
X18506644Y-14132356D01*
X18577356Y-14132356D01*
X18577356Y-14386356D02*
X18577356Y-14315644D01*
X18506644Y-14315644D01*
X18506644Y-14386356D01*
X18577356Y-14386356D01*
X18831356Y-5750356D02*
X18831356Y-5679644D01*
X18760644Y-5679644D01*
X18760644Y-5750356D01*
X18831356Y-5750356D01*
X18831356Y-6004356D02*
X18831356Y-5933644D01*
X18760644Y-5933644D01*
X18760644Y-6004356D01*
X18831356Y-6004356D01*
X18831356Y-6258356D02*
X18831356Y-6187644D01*
X18760644Y-6187644D01*
X18760644Y-6258356D01*
X18831356Y-6258356D01*
X18831356Y-6512356D02*
X18831356Y-6441644D01*
X18760644Y-6441644D01*
X18760644Y-6512356D01*
X18831356Y-6512356D01*
X18831356Y-6766356D02*
X18831356Y-6695644D01*
X18760644Y-6695644D01*
X18760644Y-6766356D01*
X18831356Y-6766356D01*
X18831356Y-7020356D02*
X18831356Y-6949644D01*
X18760644Y-6949644D01*
X18760644Y-7020356D01*
X18831356Y-7020356D01*
X18831356Y-7274356D02*
X18831356Y-7203644D01*
X18760644Y-7203644D01*
X18760644Y-7274356D01*
X18831356Y-7274356D01*
X18831356Y-7528356D02*
X18831356Y-7457644D01*
X18760644Y-7457644D01*
X18760644Y-7528356D01*
X18831356Y-7528356D01*
X18831356Y-7782356D02*
X18831356Y-7711644D01*
X18760644Y-7711644D01*
X18760644Y-7782356D01*
X18831356Y-7782356D01*
X18831356Y-8036356D02*
X18831356Y-7965644D01*
X18760644Y-7965644D01*
X18760644Y-8036356D01*
X18831356Y-8036356D01*
X18831356Y-8290356D02*
X18831356Y-8219644D01*
X18760644Y-8219644D01*
X18760644Y-8290356D01*
X18831356Y-8290356D01*
X18831356Y-8544356D02*
X18831356Y-8473644D01*
X18760644Y-8473644D01*
X18760644Y-8544356D01*
X18831356Y-8544356D01*
X18831356Y-8798356D02*
X18831356Y-8727644D01*
X18760644Y-8727644D01*
X18760644Y-8798356D01*
X18831356Y-8798356D01*
X18831356Y-9052356D02*
X18831356Y-8981644D01*
X18760644Y-8981644D01*
X18760644Y-9052356D01*
X18831356Y-9052356D01*
X18831356Y-9306356D02*
X18831356Y-9235644D01*
X18760644Y-9235644D01*
X18760644Y-9306356D01*
X18831356Y-9306356D01*
X18831356Y-9560356D02*
X18831356Y-9489644D01*
X18760644Y-9489644D01*
X18760644Y-9560356D01*
X18831356Y-9560356D01*
X18831356Y-9814356D02*
X18831356Y-9743644D01*
X18760644Y-9743644D01*
X18760644Y-9814356D01*
X18831356Y-9814356D01*
X18831356Y-10068356D02*
X18831356Y-9997644D01*
X18760644Y-9997644D01*
X18760644Y-10068356D01*
X18831356Y-10068356D01*
X18831356Y-10322356D02*
X18831356Y-10251644D01*
X18760644Y-10251644D01*
X18760644Y-10322356D01*
X18831356Y-10322356D01*
X18831356Y-10576356D02*
X18831356Y-10505644D01*
X18760644Y-10505644D01*
X18760644Y-10576356D01*
X18831356Y-10576356D01*
X18831356Y-10830356D02*
X18831356Y-10759644D01*
X18760644Y-10759644D01*
X18760644Y-10830356D01*
X18831356Y-10830356D01*
X18831356Y-11084356D02*
X18831356Y-11013644D01*
X18760644Y-11013644D01*
X18760644Y-11084356D01*
X18831356Y-11084356D01*
X18831356Y-11338356D02*
X18831356Y-11267644D01*
X18760644Y-11267644D01*
X18760644Y-11338356D01*
X18831356Y-11338356D01*
X18831356Y-11592356D02*
X18831356Y-11521644D01*
X18760644Y-11521644D01*
X18760644Y-11592356D01*
X18831356Y-11592356D01*
X18831356Y-11846356D02*
X18831356Y-11775644D01*
X18760644Y-11775644D01*
X18760644Y-11846356D01*
X18831356Y-11846356D01*
X18831356Y-12100356D02*
X18831356Y-12029644D01*
X18760644Y-12029644D01*
X18760644Y-12100356D01*
X18831356Y-12100356D01*
X18831356Y-12354356D02*
X18831356Y-12283644D01*
X18760644Y-12283644D01*
X18760644Y-12354356D01*
X18831356Y-12354356D01*
X18831356Y-12608356D02*
X18831356Y-12537644D01*
X18760644Y-12537644D01*
X18760644Y-12608356D01*
X18831356Y-12608356D01*
X18831356Y-12862356D02*
X18831356Y-12791644D01*
X18760644Y-12791644D01*
X18760644Y-12862356D01*
X18831356Y-12862356D01*
X18831356Y-13116356D02*
X18831356Y-13045644D01*
X18760644Y-13045644D01*
X18760644Y-13116356D01*
X18831356Y-13116356D01*
X18831356Y-13370356D02*
X18831356Y-13299644D01*
X18760644Y-13299644D01*
X18760644Y-13370356D01*
X18831356Y-13370356D01*
X18831356Y-13624356D02*
X18831356Y-13553644D01*
X18760644Y-13553644D01*
X18760644Y-13624356D01*
X18831356Y-13624356D01*
X18831356Y-13878356D02*
X18831356Y-13807644D01*
X18760644Y-13807644D01*
X18760644Y-13878356D01*
X18831356Y-13878356D01*
X18831356Y-14132356D02*
X18831356Y-14061644D01*
X18760644Y-14061644D01*
X18760644Y-14132356D01*
X18831356Y-14132356D01*
X18831356Y-14386356D02*
X18831356Y-14315644D01*
X18760644Y-14315644D01*
X18760644Y-14386356D01*
X18831356Y-14386356D01*
X18897856Y-5232856D02*
X18897856Y-5162144D01*
X18827144Y-5162144D01*
X18827144Y-5232856D01*
X18897856Y-5232856D01*
X18897856Y-14832856D02*
X18897856Y-14762144D01*
X18827144Y-14762144D01*
X18827144Y-14832856D01*
X18897856Y-14832856D01*
X19085356Y-5750356D02*
X19085356Y-5679644D01*
X19014644Y-5679644D01*
X19014644Y-5750356D01*
X19085356Y-5750356D01*
X19085356Y-6004356D02*
X19085356Y-5933644D01*
X19014644Y-5933644D01*
X19014644Y-6004356D01*
X19085356Y-6004356D01*
X19085356Y-6258356D02*
X19085356Y-6187644D01*
X19014644Y-6187644D01*
X19014644Y-6258356D01*
X19085356Y-6258356D01*
X19085356Y-6512356D02*
X19085356Y-6441644D01*
X19014644Y-6441644D01*
X19014644Y-6512356D01*
X19085356Y-6512356D01*
X19085356Y-6766356D02*
X19085356Y-6695644D01*
X19014644Y-6695644D01*
X19014644Y-6766356D01*
X19085356Y-6766356D01*
X19085356Y-7020356D02*
X19085356Y-6949644D01*
X19014644Y-6949644D01*
X19014644Y-7020356D01*
X19085356Y-7020356D01*
X19085356Y-7274356D02*
X19085356Y-7203644D01*
X19014644Y-7203644D01*
X19014644Y-7274356D01*
X19085356Y-7274356D01*
X19085356Y-7528356D02*
X19085356Y-7457644D01*
X19014644Y-7457644D01*
X19014644Y-7528356D01*
X19085356Y-7528356D01*
X19085356Y-7782356D02*
X19085356Y-7711644D01*
X19014644Y-7711644D01*
X19014644Y-7782356D01*
X19085356Y-7782356D01*
X19085356Y-8036356D02*
X19085356Y-7965644D01*
X19014644Y-7965644D01*
X19014644Y-8036356D01*
X19085356Y-8036356D01*
X19085356Y-8290356D02*
X19085356Y-8219644D01*
X19014644Y-8219644D01*
X19014644Y-8290356D01*
X19085356Y-8290356D01*
X19085356Y-8544356D02*
X19085356Y-8473644D01*
X19014644Y-8473644D01*
X19014644Y-8544356D01*
X19085356Y-8544356D01*
X19085356Y-8798356D02*
X19085356Y-8727644D01*
X19014644Y-8727644D01*
X19014644Y-8798356D01*
X19085356Y-8798356D01*
X19085356Y-9052356D02*
X19085356Y-8981644D01*
X19014644Y-8981644D01*
X19014644Y-9052356D01*
X19085356Y-9052356D01*
X19085356Y-9306356D02*
X19085356Y-9235644D01*
X19014644Y-9235644D01*
X19014644Y-9306356D01*
X19085356Y-9306356D01*
X19085356Y-9560356D02*
X19085356Y-9489644D01*
X19014644Y-9489644D01*
X19014644Y-9560356D01*
X19085356Y-9560356D01*
X19085356Y-9814356D02*
X19085356Y-9743644D01*
X19014644Y-9743644D01*
X19014644Y-9814356D01*
X19085356Y-9814356D01*
X19085356Y-10068356D02*
X19085356Y-9997644D01*
X19014644Y-9997644D01*
X19014644Y-10068356D01*
X19085356Y-10068356D01*
X19085356Y-10322356D02*
X19085356Y-10251644D01*
X19014644Y-10251644D01*
X19014644Y-10322356D01*
X19085356Y-10322356D01*
X19085356Y-10576356D02*
X19085356Y-10505644D01*
X19014644Y-10505644D01*
X19014644Y-10576356D01*
X19085356Y-10576356D01*
X19085356Y-10830356D02*
X19085356Y-10759644D01*
X19014644Y-10759644D01*
X19014644Y-10830356D01*
X19085356Y-10830356D01*
X19085356Y-11084356D02*
X19085356Y-11013644D01*
X19014644Y-11013644D01*
X19014644Y-11084356D01*
X19085356Y-11084356D01*
X19085356Y-11338356D02*
X19085356Y-11267644D01*
X19014644Y-11267644D01*
X19014644Y-11338356D01*
X19085356Y-11338356D01*
X19085356Y-11592356D02*
X19085356Y-11521644D01*
X19014644Y-11521644D01*
X19014644Y-11592356D01*
X19085356Y-11592356D01*
X19085356Y-11846356D02*
X19085356Y-11775644D01*
X19014644Y-11775644D01*
X19014644Y-11846356D01*
X19085356Y-11846356D01*
X19085356Y-12100356D02*
X19085356Y-12029644D01*
X19014644Y-12029644D01*
X19014644Y-12100356D01*
X19085356Y-12100356D01*
X19085356Y-12354356D02*
X19085356Y-12283644D01*
X19014644Y-12283644D01*
X19014644Y-12354356D01*
X19085356Y-12354356D01*
X19085356Y-12608356D02*
X19085356Y-12537644D01*
X19014644Y-12537644D01*
X19014644Y-12608356D01*
X19085356Y-12608356D01*
X19085356Y-12862356D02*
X19085356Y-12791644D01*
X19014644Y-12791644D01*
X19014644Y-12862356D01*
X19085356Y-12862356D01*
X19085356Y-13116356D02*
X19085356Y-13045644D01*
X19014644Y-13045644D01*
X19014644Y-13116356D01*
X19085356Y-13116356D01*
X19085356Y-13370356D02*
X19085356Y-13299644D01*
X19014644Y-13299644D01*
X19014644Y-13370356D01*
X19085356Y-13370356D01*
X19085356Y-13624356D02*
X19085356Y-13553644D01*
X19014644Y-13553644D01*
X19014644Y-13624356D01*
X19085356Y-13624356D01*
X19085356Y-13878356D02*
X19085356Y-13807644D01*
X19014644Y-13807644D01*
X19014644Y-13878356D01*
X19085356Y-13878356D01*
X19085356Y-14132356D02*
X19085356Y-14061644D01*
X19014644Y-14061644D01*
X19014644Y-14132356D01*
X19085356Y-14132356D01*
X19085356Y-14386356D02*
X19085356Y-14315644D01*
X19014644Y-14315644D01*
X19014644Y-14386356D01*
X19085356Y-14386356D01*
X19151856Y-5232856D02*
X19151856Y-5162144D01*
X19081144Y-5162144D01*
X19081144Y-5232856D01*
X19151856Y-5232856D01*
X19151856Y-14832856D02*
X19151856Y-14762144D01*
X19081144Y-14762144D01*
X19081144Y-14832856D01*
X19151856Y-14832856D01*
X19339356Y-5750356D02*
X19339356Y-5679644D01*
X19268644Y-5679644D01*
X19268644Y-5750356D01*
X19339356Y-5750356D01*
X19339356Y-6004356D02*
X19339356Y-5933644D01*
X19268644Y-5933644D01*
X19268644Y-6004356D01*
X19339356Y-6004356D01*
X19339356Y-6258356D02*
X19339356Y-6187644D01*
X19268644Y-6187644D01*
X19268644Y-6258356D01*
X19339356Y-6258356D01*
X19339356Y-6512356D02*
X19339356Y-6441644D01*
X19268644Y-6441644D01*
X19268644Y-6512356D01*
X19339356Y-6512356D01*
X19339356Y-6766356D02*
X19339356Y-6695644D01*
X19268644Y-6695644D01*
X19268644Y-6766356D01*
X19339356Y-6766356D01*
X19339356Y-7020356D02*
X19339356Y-6949644D01*
X19268644Y-6949644D01*
X19268644Y-7020356D01*
X19339356Y-7020356D01*
X19339356Y-7274356D02*
X19339356Y-7203644D01*
X19268644Y-7203644D01*
X19268644Y-7274356D01*
X19339356Y-7274356D01*
X19339356Y-7528356D02*
X19339356Y-7457644D01*
X19268644Y-7457644D01*
X19268644Y-7528356D01*
X19339356Y-7528356D01*
X19339356Y-7782356D02*
X19339356Y-7711644D01*
X19268644Y-7711644D01*
X19268644Y-7782356D01*
X19339356Y-7782356D01*
X19339356Y-8036356D02*
X19339356Y-7965644D01*
X19268644Y-7965644D01*
X19268644Y-8036356D01*
X19339356Y-8036356D01*
X19339356Y-8290356D02*
X19339356Y-8219644D01*
X19268644Y-8219644D01*
X19268644Y-8290356D01*
X19339356Y-8290356D01*
X19339356Y-8544356D02*
X19339356Y-8473644D01*
X19268644Y-8473644D01*
X19268644Y-8544356D01*
X19339356Y-8544356D01*
X19339356Y-8798356D02*
X19339356Y-8727644D01*
X19268644Y-8727644D01*
X19268644Y-8798356D01*
X19339356Y-8798356D01*
X19339356Y-9052356D02*
X19339356Y-8981644D01*
X19268644Y-8981644D01*
X19268644Y-9052356D01*
X19339356Y-9052356D01*
X19339356Y-9306356D02*
X19339356Y-9235644D01*
X19268644Y-9235644D01*
X19268644Y-9306356D01*
X19339356Y-9306356D01*
X19339356Y-9560356D02*
X19339356Y-9489644D01*
X19268644Y-9489644D01*
X19268644Y-9560356D01*
X19339356Y-9560356D01*
X19339356Y-9814356D02*
X19339356Y-9743644D01*
X19268644Y-9743644D01*
X19268644Y-9814356D01*
X19339356Y-9814356D01*
X19339356Y-10068356D02*
X19339356Y-9997644D01*
X19268644Y-9997644D01*
X19268644Y-10068356D01*
X19339356Y-10068356D01*
X19339356Y-10322356D02*
X19339356Y-10251644D01*
X19268644Y-10251644D01*
X19268644Y-10322356D01*
X19339356Y-10322356D01*
X19339356Y-10576356D02*
X19339356Y-10505644D01*
X19268644Y-10505644D01*
X19268644Y-10576356D01*
X19339356Y-10576356D01*
X19339356Y-10830356D02*
X19339356Y-10759644D01*
X19268644Y-10759644D01*
X19268644Y-10830356D01*
X19339356Y-10830356D01*
X19339356Y-11084356D02*
X19339356Y-11013644D01*
X19268644Y-11013644D01*
X19268644Y-11084356D01*
X19339356Y-11084356D01*
X19339356Y-11338356D02*
X19339356Y-11267644D01*
X19268644Y-11267644D01*
X19268644Y-11338356D01*
X19339356Y-11338356D01*
X19339356Y-11592356D02*
X19339356Y-11521644D01*
X19268644Y-11521644D01*
X19268644Y-11592356D01*
X19339356Y-11592356D01*
X19339356Y-11846356D02*
X19339356Y-11775644D01*
X19268644Y-11775644D01*
X19268644Y-11846356D01*
X19339356Y-11846356D01*
X19339356Y-12100356D02*
X19339356Y-12029644D01*
X19268644Y-12029644D01*
X19268644Y-12100356D01*
X19339356Y-12100356D01*
X19339356Y-12354356D02*
X19339356Y-12283644D01*
X19268644Y-12283644D01*
X19268644Y-12354356D01*
X19339356Y-12354356D01*
X19339356Y-12608356D02*
X19339356Y-12537644D01*
X19268644Y-12537644D01*
X19268644Y-12608356D01*
X19339356Y-12608356D01*
X19339356Y-12862356D02*
X19339356Y-12791644D01*
X19268644Y-12791644D01*
X19268644Y-12862356D01*
X19339356Y-12862356D01*
X19339356Y-13116356D02*
X19339356Y-13045644D01*
X19268644Y-13045644D01*
X19268644Y-13116356D01*
X19339356Y-13116356D01*
X19339356Y-13370356D02*
X19339356Y-13299644D01*
X19268644Y-13299644D01*
X19268644Y-13370356D01*
X19339356Y-13370356D01*
X19339356Y-13624356D02*
X19339356Y-13553644D01*
X19268644Y-13553644D01*
X19268644Y-13624356D01*
X19339356Y-13624356D01*
X19339356Y-13878356D02*
X19339356Y-13807644D01*
X19268644Y-13807644D01*
X19268644Y-13878356D01*
X19339356Y-13878356D01*
X19339356Y-14132356D02*
X19339356Y-14061644D01*
X19268644Y-14061644D01*
X19268644Y-14132356D01*
X19339356Y-14132356D01*
X19339356Y-14386356D02*
X19339356Y-14315644D01*
X19268644Y-14315644D01*
X19268644Y-14386356D01*
X19339356Y-14386356D01*
X19405856Y-5232856D02*
X19405856Y-5162144D01*
X19335144Y-5162144D01*
X19335144Y-5232856D01*
X19405856Y-5232856D01*
X19405856Y-14832856D02*
X19405856Y-14762144D01*
X19335144Y-14762144D01*
X19335144Y-14832856D01*
X19405856Y-14832856D01*
X19593356Y-5750356D02*
X19593356Y-5679644D01*
X19522644Y-5679644D01*
X19522644Y-5750356D01*
X19593356Y-5750356D01*
X19593356Y-6004356D02*
X19593356Y-5933644D01*
X19522644Y-5933644D01*
X19522644Y-6004356D01*
X19593356Y-6004356D01*
X19593356Y-6258356D02*
X19593356Y-6187644D01*
X19522644Y-6187644D01*
X19522644Y-6258356D01*
X19593356Y-6258356D01*
X19593356Y-6512356D02*
X19593356Y-6441644D01*
X19522644Y-6441644D01*
X19522644Y-6512356D01*
X19593356Y-6512356D01*
X19593356Y-6766356D02*
X19593356Y-6695644D01*
X19522644Y-6695644D01*
X19522644Y-6766356D01*
X19593356Y-6766356D01*
X19593356Y-7020356D02*
X19593356Y-6949644D01*
X19522644Y-6949644D01*
X19522644Y-7020356D01*
X19593356Y-7020356D01*
X19593356Y-7274356D02*
X19593356Y-7203644D01*
X19522644Y-7203644D01*
X19522644Y-7274356D01*
X19593356Y-7274356D01*
X19593356Y-7528356D02*
X19593356Y-7457644D01*
X19522644Y-7457644D01*
X19522644Y-7528356D01*
X19593356Y-7528356D01*
X19593356Y-7782356D02*
X19593356Y-7711644D01*
X19522644Y-7711644D01*
X19522644Y-7782356D01*
X19593356Y-7782356D01*
X19593356Y-8036356D02*
X19593356Y-7965644D01*
X19522644Y-7965644D01*
X19522644Y-8036356D01*
X19593356Y-8036356D01*
X19593356Y-8290356D02*
X19593356Y-8219644D01*
X19522644Y-8219644D01*
X19522644Y-8290356D01*
X19593356Y-8290356D01*
X19593356Y-8544356D02*
X19593356Y-8473644D01*
X19522644Y-8473644D01*
X19522644Y-8544356D01*
X19593356Y-8544356D01*
X19593356Y-8798356D02*
X19593356Y-8727644D01*
X19522644Y-8727644D01*
X19522644Y-8798356D01*
X19593356Y-8798356D01*
X19593356Y-9052356D02*
X19593356Y-8981644D01*
X19522644Y-8981644D01*
X19522644Y-9052356D01*
X19593356Y-9052356D01*
X19593356Y-9306356D02*
X19593356Y-9235644D01*
X19522644Y-9235644D01*
X19522644Y-9306356D01*
X19593356Y-9306356D01*
X19593356Y-9560356D02*
X19593356Y-9489644D01*
X19522644Y-9489644D01*
X19522644Y-9560356D01*
X19593356Y-9560356D01*
X19593356Y-9814356D02*
X19593356Y-9743644D01*
X19522644Y-9743644D01*
X19522644Y-9814356D01*
X19593356Y-9814356D01*
X19593356Y-10068356D02*
X19593356Y-9997644D01*
X19522644Y-9997644D01*
X19522644Y-10068356D01*
X19593356Y-10068356D01*
X19593356Y-10322356D02*
X19593356Y-10251644D01*
X19522644Y-10251644D01*
X19522644Y-10322356D01*
X19593356Y-10322356D01*
X19593356Y-10576356D02*
X19593356Y-10505644D01*
X19522644Y-10505644D01*
X19522644Y-10576356D01*
X19593356Y-10576356D01*
X19593356Y-10830356D02*
X19593356Y-10759644D01*
X19522644Y-10759644D01*
X19522644Y-10830356D01*
X19593356Y-10830356D01*
X19593356Y-11084356D02*
X19593356Y-11013644D01*
X19522644Y-11013644D01*
X19522644Y-11084356D01*
X19593356Y-11084356D01*
X19593356Y-11338356D02*
X19593356Y-11267644D01*
X19522644Y-11267644D01*
X19522644Y-11338356D01*
X19593356Y-11338356D01*
X19593356Y-11592356D02*
X19593356Y-11521644D01*
X19522644Y-11521644D01*
X19522644Y-11592356D01*
X19593356Y-11592356D01*
X19593356Y-11846356D02*
X19593356Y-11775644D01*
X19522644Y-11775644D01*
X19522644Y-11846356D01*
X19593356Y-11846356D01*
X19593356Y-12100356D02*
X19593356Y-12029644D01*
X19522644Y-12029644D01*
X19522644Y-12100356D01*
X19593356Y-12100356D01*
X19593356Y-12354356D02*
X19593356Y-12283644D01*
X19522644Y-12283644D01*
X19522644Y-12354356D01*
X19593356Y-12354356D01*
X19593356Y-12608356D02*
X19593356Y-12537644D01*
X19522644Y-12537644D01*
X19522644Y-12608356D01*
X19593356Y-12608356D01*
X19593356Y-12862356D02*
X19593356Y-12791644D01*
X19522644Y-12791644D01*
X19522644Y-12862356D01*
X19593356Y-12862356D01*
X19593356Y-13116356D02*
X19593356Y-13045644D01*
X19522644Y-13045644D01*
X19522644Y-13116356D01*
X19593356Y-13116356D01*
X19593356Y-13370356D02*
X19593356Y-13299644D01*
X19522644Y-13299644D01*
X19522644Y-13370356D01*
X19593356Y-13370356D01*
X19593356Y-13624356D02*
X19593356Y-13553644D01*
X19522644Y-13553644D01*
X19522644Y-13624356D01*
X19593356Y-13624356D01*
X19593356Y-13878356D02*
X19593356Y-13807644D01*
X19522644Y-13807644D01*
X19522644Y-13878356D01*
X19593356Y-13878356D01*
X19593356Y-14132356D02*
X19593356Y-14061644D01*
X19522644Y-14061644D01*
X19522644Y-14132356D01*
X19593356Y-14132356D01*
X19593356Y-14386356D02*
X19593356Y-14315644D01*
X19522644Y-14315644D01*
X19522644Y-14386356D01*
X19593356Y-14386356D01*
X19659856Y-5232856D02*
X19659856Y-5162144D01*
X19589144Y-5162144D01*
X19589144Y-5232856D01*
X19659856Y-5232856D01*
X19659856Y-14832856D02*
X19659856Y-14762144D01*
X19589144Y-14762144D01*
X19589144Y-14832856D01*
X19659856Y-14832856D01*
X19847356Y-5750356D02*
X19847356Y-5679644D01*
X19776644Y-5679644D01*
X19776644Y-5750356D01*
X19847356Y-5750356D01*
X19847356Y-6004356D02*
X19847356Y-5933644D01*
X19776644Y-5933644D01*
X19776644Y-6004356D01*
X19847356Y-6004356D01*
X19847356Y-6258356D02*
X19847356Y-6187644D01*
X19776644Y-6187644D01*
X19776644Y-6258356D01*
X19847356Y-6258356D01*
X19847356Y-6512356D02*
X19847356Y-6441644D01*
X19776644Y-6441644D01*
X19776644Y-6512356D01*
X19847356Y-6512356D01*
X19847356Y-6766356D02*
X19847356Y-6695644D01*
X19776644Y-6695644D01*
X19776644Y-6766356D01*
X19847356Y-6766356D01*
X19847356Y-7020356D02*
X19847356Y-6949644D01*
X19776644Y-6949644D01*
X19776644Y-7020356D01*
X19847356Y-7020356D01*
X19847356Y-7274356D02*
X19847356Y-7203644D01*
X19776644Y-7203644D01*
X19776644Y-7274356D01*
X19847356Y-7274356D01*
X19847356Y-7528356D02*
X19847356Y-7457644D01*
X19776644Y-7457644D01*
X19776644Y-7528356D01*
X19847356Y-7528356D01*
X19847356Y-7782356D02*
X19847356Y-7711644D01*
X19776644Y-7711644D01*
X19776644Y-7782356D01*
X19847356Y-7782356D01*
X19847356Y-8036356D02*
X19847356Y-7965644D01*
X19776644Y-7965644D01*
X19776644Y-8036356D01*
X19847356Y-8036356D01*
X19847356Y-8290356D02*
X19847356Y-8219644D01*
X19776644Y-8219644D01*
X19776644Y-8290356D01*
X19847356Y-8290356D01*
X19847356Y-8544356D02*
X19847356Y-8473644D01*
X19776644Y-8473644D01*
X19776644Y-8544356D01*
X19847356Y-8544356D01*
X19847356Y-8798356D02*
X19847356Y-8727644D01*
X19776644Y-8727644D01*
X19776644Y-8798356D01*
X19847356Y-8798356D01*
X19847356Y-9052356D02*
X19847356Y-8981644D01*
X19776644Y-8981644D01*
X19776644Y-9052356D01*
X19847356Y-9052356D01*
X19847356Y-9306356D02*
X19847356Y-9235644D01*
X19776644Y-9235644D01*
X19776644Y-9306356D01*
X19847356Y-9306356D01*
X19847356Y-9560356D02*
X19847356Y-9489644D01*
X19776644Y-9489644D01*
X19776644Y-9560356D01*
X19847356Y-9560356D01*
X19847356Y-9814356D02*
X19847356Y-9743644D01*
X19776644Y-9743644D01*
X19776644Y-9814356D01*
X19847356Y-9814356D01*
X19847356Y-10068356D02*
X19847356Y-9997644D01*
X19776644Y-9997644D01*
X19776644Y-10068356D01*
X19847356Y-10068356D01*
X19847356Y-10322356D02*
X19847356Y-10251644D01*
X19776644Y-10251644D01*
X19776644Y-10322356D01*
X19847356Y-10322356D01*
X19847356Y-10576356D02*
X19847356Y-10505644D01*
X19776644Y-10505644D01*
X19776644Y-10576356D01*
X19847356Y-10576356D01*
X19847356Y-10830356D02*
X19847356Y-10759644D01*
X19776644Y-10759644D01*
X19776644Y-10830356D01*
X19847356Y-10830356D01*
X19847356Y-11084356D02*
X19847356Y-11013644D01*
X19776644Y-11013644D01*
X19776644Y-11084356D01*
X19847356Y-11084356D01*
X19847356Y-11338356D02*
X19847356Y-11267644D01*
X19776644Y-11267644D01*
X19776644Y-11338356D01*
X19847356Y-11338356D01*
X19847356Y-11592356D02*
X19847356Y-11521644D01*
X19776644Y-11521644D01*
X19776644Y-11592356D01*
X19847356Y-11592356D01*
X19847356Y-11846356D02*
X19847356Y-11775644D01*
X19776644Y-11775644D01*
X19776644Y-11846356D01*
X19847356Y-11846356D01*
X19847356Y-12100356D02*
X19847356Y-12029644D01*
X19776644Y-12029644D01*
X19776644Y-12100356D01*
X19847356Y-12100356D01*
X19847356Y-12354356D02*
X19847356Y-12283644D01*
X19776644Y-12283644D01*
X19776644Y-12354356D01*
X19847356Y-12354356D01*
X19847356Y-12608356D02*
X19847356Y-12537644D01*
X19776644Y-12537644D01*
X19776644Y-12608356D01*
X19847356Y-12608356D01*
X19847356Y-12862356D02*
X19847356Y-12791644D01*
X19776644Y-12791644D01*
X19776644Y-12862356D01*
X19847356Y-12862356D01*
X19847356Y-13116356D02*
X19847356Y-13045644D01*
X19776644Y-13045644D01*
X19776644Y-13116356D01*
X19847356Y-13116356D01*
X19847356Y-13370356D02*
X19847356Y-13299644D01*
X19776644Y-13299644D01*
X19776644Y-13370356D01*
X19847356Y-13370356D01*
X19847356Y-13624356D02*
X19847356Y-13553644D01*
X19776644Y-13553644D01*
X19776644Y-13624356D01*
X19847356Y-13624356D01*
X19847356Y-13878356D02*
X19847356Y-13807644D01*
X19776644Y-13807644D01*
X19776644Y-13878356D01*
X19847356Y-13878356D01*
X19847356Y-14132356D02*
X19847356Y-14061644D01*
X19776644Y-14061644D01*
X19776644Y-14132356D01*
X19847356Y-14132356D01*
X19847356Y-14386356D02*
X19847356Y-14315644D01*
X19776644Y-14315644D01*
X19776644Y-14386356D01*
X19847356Y-14386356D01*
X19913856Y-5232856D02*
X19913856Y-5162144D01*
X19843144Y-5162144D01*
X19843144Y-5232856D01*
X19913856Y-5232856D01*
X19913856Y-14832856D02*
X19913856Y-14762144D01*
X19843144Y-14762144D01*
X19843144Y-14832856D01*
X19913856Y-14832856D01*
X20101356Y-5750356D02*
X20101356Y-5679644D01*
X20030644Y-5679644D01*
X20030644Y-5750356D01*
X20101356Y-5750356D01*
X20101356Y-6004356D02*
X20101356Y-5933644D01*
X20030644Y-5933644D01*
X20030644Y-6004356D01*
X20101356Y-6004356D01*
X20101356Y-6258356D02*
X20101356Y-6187644D01*
X20030644Y-6187644D01*
X20030644Y-6258356D01*
X20101356Y-6258356D01*
X20101356Y-6512356D02*
X20101356Y-6441644D01*
X20030644Y-6441644D01*
X20030644Y-6512356D01*
X20101356Y-6512356D01*
X20101356Y-6766356D02*
X20101356Y-6695644D01*
X20030644Y-6695644D01*
X20030644Y-6766356D01*
X20101356Y-6766356D01*
X20101356Y-7020356D02*
X20101356Y-6949644D01*
X20030644Y-6949644D01*
X20030644Y-7020356D01*
X20101356Y-7020356D01*
X20101356Y-7274356D02*
X20101356Y-7203644D01*
X20030644Y-7203644D01*
X20030644Y-7274356D01*
X20101356Y-7274356D01*
X20101356Y-7528356D02*
X20101356Y-7457644D01*
X20030644Y-7457644D01*
X20030644Y-7528356D01*
X20101356Y-7528356D01*
X20101356Y-7782356D02*
X20101356Y-7711644D01*
X20030644Y-7711644D01*
X20030644Y-7782356D01*
X20101356Y-7782356D01*
X20101356Y-8036356D02*
X20101356Y-7965644D01*
X20030644Y-7965644D01*
X20030644Y-8036356D01*
X20101356Y-8036356D01*
X20101356Y-8290356D02*
X20101356Y-8219644D01*
X20030644Y-8219644D01*
X20030644Y-8290356D01*
X20101356Y-8290356D01*
X20101356Y-8544356D02*
X20101356Y-8473644D01*
X20030644Y-8473644D01*
X20030644Y-8544356D01*
X20101356Y-8544356D01*
X20101356Y-8798356D02*
X20101356Y-8727644D01*
X20030644Y-8727644D01*
X20030644Y-8798356D01*
X20101356Y-8798356D01*
X20101356Y-9052356D02*
X20101356Y-8981644D01*
X20030644Y-8981644D01*
X20030644Y-9052356D01*
X20101356Y-9052356D01*
X20101356Y-9306356D02*
X20101356Y-9235644D01*
X20030644Y-9235644D01*
X20030644Y-9306356D01*
X20101356Y-9306356D01*
X20101356Y-9560356D02*
X20101356Y-9489644D01*
X20030644Y-9489644D01*
X20030644Y-9560356D01*
X20101356Y-9560356D01*
X20101356Y-9814356D02*
X20101356Y-9743644D01*
X20030644Y-9743644D01*
X20030644Y-9814356D01*
X20101356Y-9814356D01*
X20101356Y-10068356D02*
X20101356Y-9997644D01*
X20030644Y-9997644D01*
X20030644Y-10068356D01*
X20101356Y-10068356D01*
X20101356Y-10322356D02*
X20101356Y-10251644D01*
X20030644Y-10251644D01*
X20030644Y-10322356D01*
X20101356Y-10322356D01*
X20101356Y-10576356D02*
X20101356Y-10505644D01*
X20030644Y-10505644D01*
X20030644Y-10576356D01*
X20101356Y-10576356D01*
X20101356Y-10830356D02*
X20101356Y-10759644D01*
X20030644Y-10759644D01*
X20030644Y-10830356D01*
X20101356Y-10830356D01*
X20101356Y-11084356D02*
X20101356Y-11013644D01*
X20030644Y-11013644D01*
X20030644Y-11084356D01*
X20101356Y-11084356D01*
X20101356Y-11338356D02*
X20101356Y-11267644D01*
X20030644Y-11267644D01*
X20030644Y-11338356D01*
X20101356Y-11338356D01*
X20101356Y-11592356D02*
X20101356Y-11521644D01*
X20030644Y-11521644D01*
X20030644Y-11592356D01*
X20101356Y-11592356D01*
X20101356Y-11846356D02*
X20101356Y-11775644D01*
X20030644Y-11775644D01*
X20030644Y-11846356D01*
X20101356Y-11846356D01*
X20101356Y-12100356D02*
X20101356Y-12029644D01*
X20030644Y-12029644D01*
X20030644Y-12100356D01*
X20101356Y-12100356D01*
X20101356Y-12354356D02*
X20101356Y-12283644D01*
X20030644Y-12283644D01*
X20030644Y-12354356D01*
X20101356Y-12354356D01*
X20101356Y-12608356D02*
X20101356Y-12537644D01*
X20030644Y-12537644D01*
X20030644Y-12608356D01*
X20101356Y-12608356D01*
X20101356Y-12862356D02*
X20101356Y-12791644D01*
X20030644Y-12791644D01*
X20030644Y-12862356D01*
X20101356Y-12862356D01*
X20101356Y-13116356D02*
X20101356Y-13045644D01*
X20030644Y-13045644D01*
X20030644Y-13116356D01*
X20101356Y-13116356D01*
X20101356Y-13370356D02*
X20101356Y-13299644D01*
X20030644Y-13299644D01*
X20030644Y-13370356D01*
X20101356Y-13370356D01*
X20101356Y-13624356D02*
X20101356Y-13553644D01*
X20030644Y-13553644D01*
X20030644Y-13624356D01*
X20101356Y-13624356D01*
X20101356Y-13878356D02*
X20101356Y-13807644D01*
X20030644Y-13807644D01*
X20030644Y-13878356D01*
X20101356Y-13878356D01*
X20101356Y-14132356D02*
X20101356Y-14061644D01*
X20030644Y-14061644D01*
X20030644Y-14132356D01*
X20101356Y-14132356D01*
X20101356Y-14386356D02*
X20101356Y-14315644D01*
X20030644Y-14315644D01*
X20030644Y-14386356D01*
X20101356Y-14386356D01*
X20167856Y-5232856D02*
X20167856Y-5162144D01*
X20097144Y-5162144D01*
X20097144Y-5232856D01*
X20167856Y-5232856D01*
X20167856Y-14832856D02*
X20167856Y-14762144D01*
X20097144Y-14762144D01*
X20097144Y-14832856D01*
X20167856Y-14832856D01*
X20355356Y-5750356D02*
X20355356Y-5679644D01*
X20284644Y-5679644D01*
X20284644Y-5750356D01*
X20355356Y-5750356D01*
X20355356Y-6004356D02*
X20355356Y-5933644D01*
X20284644Y-5933644D01*
X20284644Y-6004356D01*
X20355356Y-6004356D01*
X20355356Y-6258356D02*
X20355356Y-6187644D01*
X20284644Y-6187644D01*
X20284644Y-6258356D01*
X20355356Y-6258356D01*
X20355356Y-6512356D02*
X20355356Y-6441644D01*
X20284644Y-6441644D01*
X20284644Y-6512356D01*
X20355356Y-6512356D01*
X20355356Y-6766356D02*
X20355356Y-6695644D01*
X20284644Y-6695644D01*
X20284644Y-6766356D01*
X20355356Y-6766356D01*
X20355356Y-7020356D02*
X20355356Y-6949644D01*
X20284644Y-6949644D01*
X20284644Y-7020356D01*
X20355356Y-7020356D01*
X20355356Y-7274356D02*
X20355356Y-7203644D01*
X20284644Y-7203644D01*
X20284644Y-7274356D01*
X20355356Y-7274356D01*
X20355356Y-7528356D02*
X20355356Y-7457644D01*
X20284644Y-7457644D01*
X20284644Y-7528356D01*
X20355356Y-7528356D01*
X20355356Y-7782356D02*
X20355356Y-7711644D01*
X20284644Y-7711644D01*
X20284644Y-7782356D01*
X20355356Y-7782356D01*
X20355356Y-8036356D02*
X20355356Y-7965644D01*
X20284644Y-7965644D01*
X20284644Y-8036356D01*
X20355356Y-8036356D01*
X20355356Y-8290356D02*
X20355356Y-8219644D01*
X20284644Y-8219644D01*
X20284644Y-8290356D01*
X20355356Y-8290356D01*
X20355356Y-8544356D02*
X20355356Y-8473644D01*
X20284644Y-8473644D01*
X20284644Y-8544356D01*
X20355356Y-8544356D01*
X20355356Y-8798356D02*
X20355356Y-8727644D01*
X20284644Y-8727644D01*
X20284644Y-8798356D01*
X20355356Y-8798356D01*
X20355356Y-9052356D02*
X20355356Y-8981644D01*
X20284644Y-8981644D01*
X20284644Y-9052356D01*
X20355356Y-9052356D01*
X20355356Y-9306356D02*
X20355356Y-9235644D01*
X20284644Y-9235644D01*
X20284644Y-9306356D01*
X20355356Y-9306356D01*
X20355356Y-9560356D02*
X20355356Y-9489644D01*
X20284644Y-9489644D01*
X20284644Y-9560356D01*
X20355356Y-9560356D01*
X20355356Y-9814356D02*
X20355356Y-9743644D01*
X20284644Y-9743644D01*
X20284644Y-9814356D01*
X20355356Y-9814356D01*
X20355356Y-10068356D02*
X20355356Y-9997644D01*
X20284644Y-9997644D01*
X20284644Y-10068356D01*
X20355356Y-10068356D01*
X20355356Y-10322356D02*
X20355356Y-10251644D01*
X20284644Y-10251644D01*
X20284644Y-10322356D01*
X20355356Y-10322356D01*
X20355356Y-10576356D02*
X20355356Y-10505644D01*
X20284644Y-10505644D01*
X20284644Y-10576356D01*
X20355356Y-10576356D01*
X20355356Y-10830356D02*
X20355356Y-10759644D01*
X20284644Y-10759644D01*
X20284644Y-10830356D01*
X20355356Y-10830356D01*
X20355356Y-11084356D02*
X20355356Y-11013644D01*
X20284644Y-11013644D01*
X20284644Y-11084356D01*
X20355356Y-11084356D01*
X20355356Y-11338356D02*
X20355356Y-11267644D01*
X20284644Y-11267644D01*
X20284644Y-11338356D01*
X20355356Y-11338356D01*
X20355356Y-11592356D02*
X20355356Y-11521644D01*
X20284644Y-11521644D01*
X20284644Y-11592356D01*
X20355356Y-11592356D01*
X20355356Y-11846356D02*
X20355356Y-11775644D01*
X20284644Y-11775644D01*
X20284644Y-11846356D01*
X20355356Y-11846356D01*
X20355356Y-12100356D02*
X20355356Y-12029644D01*
X20284644Y-12029644D01*
X20284644Y-12100356D01*
X20355356Y-12100356D01*
X20355356Y-12354356D02*
X20355356Y-12283644D01*
X20284644Y-12283644D01*
X20284644Y-12354356D01*
X20355356Y-12354356D01*
X20355356Y-12608356D02*
X20355356Y-12537644D01*
X20284644Y-12537644D01*
X20284644Y-12608356D01*
X20355356Y-12608356D01*
X20355356Y-12862356D02*
X20355356Y-12791644D01*
X20284644Y-12791644D01*
X20284644Y-12862356D01*
X20355356Y-12862356D01*
X20355356Y-13116356D02*
X20355356Y-13045644D01*
X20284644Y-13045644D01*
X20284644Y-13116356D01*
X20355356Y-13116356D01*
X20355356Y-13370356D02*
X20355356Y-13299644D01*
X20284644Y-13299644D01*
X20284644Y-13370356D01*
X20355356Y-13370356D01*
X20355356Y-13624356D02*
X20355356Y-13553644D01*
X20284644Y-13553644D01*
X20284644Y-13624356D01*
X20355356Y-13624356D01*
X20355356Y-13878356D02*
X20355356Y-13807644D01*
X20284644Y-13807644D01*
X20284644Y-13878356D01*
X20355356Y-13878356D01*
X20355356Y-14132356D02*
X20355356Y-14061644D01*
X20284644Y-14061644D01*
X20284644Y-14132356D01*
X20355356Y-14132356D01*
X20355356Y-14386356D02*
X20355356Y-14315644D01*
X20284644Y-14315644D01*
X20284644Y-14386356D01*
X20355356Y-14386356D01*
X20421856Y-5232856D02*
X20421856Y-5162144D01*
X20351144Y-5162144D01*
X20351144Y-5232856D01*
X20421856Y-5232856D01*
X20421856Y-14832856D02*
X20421856Y-14762144D01*
X20351144Y-14762144D01*
X20351144Y-14832856D01*
X20421856Y-14832856D01*
X20609356Y-5750356D02*
X20609356Y-5679644D01*
X20538644Y-5679644D01*
X20538644Y-5750356D01*
X20609356Y-5750356D01*
X20609356Y-6004356D02*
X20609356Y-5933644D01*
X20538644Y-5933644D01*
X20538644Y-6004356D01*
X20609356Y-6004356D01*
X20609356Y-6258356D02*
X20609356Y-6187644D01*
X20538644Y-6187644D01*
X20538644Y-6258356D01*
X20609356Y-6258356D01*
X20609356Y-6512356D02*
X20609356Y-6441644D01*
X20538644Y-6441644D01*
X20538644Y-6512356D01*
X20609356Y-6512356D01*
X20609356Y-6766356D02*
X20609356Y-6695644D01*
X20538644Y-6695644D01*
X20538644Y-6766356D01*
X20609356Y-6766356D01*
X20609356Y-7020356D02*
X20609356Y-6949644D01*
X20538644Y-6949644D01*
X20538644Y-7020356D01*
X20609356Y-7020356D01*
X20609356Y-7274356D02*
X20609356Y-7203644D01*
X20538644Y-7203644D01*
X20538644Y-7274356D01*
X20609356Y-7274356D01*
X20609356Y-7528356D02*
X20609356Y-7457644D01*
X20538644Y-7457644D01*
X20538644Y-7528356D01*
X20609356Y-7528356D01*
X20609356Y-7782356D02*
X20609356Y-7711644D01*
X20538644Y-7711644D01*
X20538644Y-7782356D01*
X20609356Y-7782356D01*
X20609356Y-8036356D02*
X20609356Y-7965644D01*
X20538644Y-7965644D01*
X20538644Y-8036356D01*
X20609356Y-8036356D01*
X20609356Y-8290356D02*
X20609356Y-8219644D01*
X20538644Y-8219644D01*
X20538644Y-8290356D01*
X20609356Y-8290356D01*
X20609356Y-8544356D02*
X20609356Y-8473644D01*
X20538644Y-8473644D01*
X20538644Y-8544356D01*
X20609356Y-8544356D01*
X20609356Y-8798356D02*
X20609356Y-8727644D01*
X20538644Y-8727644D01*
X20538644Y-8798356D01*
X20609356Y-8798356D01*
X20609356Y-9052356D02*
X20609356Y-8981644D01*
X20538644Y-8981644D01*
X20538644Y-9052356D01*
X20609356Y-9052356D01*
X20609356Y-9306356D02*
X20609356Y-9235644D01*
X20538644Y-9235644D01*
X20538644Y-9306356D01*
X20609356Y-9306356D01*
X20609356Y-9560356D02*
X20609356Y-9489644D01*
X20538644Y-9489644D01*
X20538644Y-9560356D01*
X20609356Y-9560356D01*
X20609356Y-9814356D02*
X20609356Y-9743644D01*
X20538644Y-9743644D01*
X20538644Y-9814356D01*
X20609356Y-9814356D01*
X20609356Y-10068356D02*
X20609356Y-9997644D01*
X20538644Y-9997644D01*
X20538644Y-10068356D01*
X20609356Y-10068356D01*
X20609356Y-10322356D02*
X20609356Y-10251644D01*
X20538644Y-10251644D01*
X20538644Y-10322356D01*
X20609356Y-10322356D01*
X20609356Y-10576356D02*
X20609356Y-10505644D01*
X20538644Y-10505644D01*
X20538644Y-10576356D01*
X20609356Y-10576356D01*
X20609356Y-10830356D02*
X20609356Y-10759644D01*
X20538644Y-10759644D01*
X20538644Y-10830356D01*
X20609356Y-10830356D01*
X20609356Y-11084356D02*
X20609356Y-11013644D01*
X20538644Y-11013644D01*
X20538644Y-11084356D01*
X20609356Y-11084356D01*
X20609356Y-11338356D02*
X20609356Y-11267644D01*
X20538644Y-11267644D01*
X20538644Y-11338356D01*
X20609356Y-11338356D01*
X20609356Y-11592356D02*
X20609356Y-11521644D01*
X20538644Y-11521644D01*
X20538644Y-11592356D01*
X20609356Y-11592356D01*
X20609356Y-11846356D02*
X20609356Y-11775644D01*
X20538644Y-11775644D01*
X20538644Y-11846356D01*
X20609356Y-11846356D01*
X20609356Y-12100356D02*
X20609356Y-12029644D01*
X20538644Y-12029644D01*
X20538644Y-12100356D01*
X20609356Y-12100356D01*
X20609356Y-12354356D02*
X20609356Y-12283644D01*
X20538644Y-12283644D01*
X20538644Y-12354356D01*
X20609356Y-12354356D01*
X20609356Y-12608356D02*
X20609356Y-12537644D01*
X20538644Y-12537644D01*
X20538644Y-12608356D01*
X20609356Y-12608356D01*
X20609356Y-12862356D02*
X20609356Y-12791644D01*
X20538644Y-12791644D01*
X20538644Y-12862356D01*
X20609356Y-12862356D01*
X20609356Y-13116356D02*
X20609356Y-13045644D01*
X20538644Y-13045644D01*
X20538644Y-13116356D01*
X20609356Y-13116356D01*
X20609356Y-13370356D02*
X20609356Y-13299644D01*
X20538644Y-13299644D01*
X20538644Y-13370356D01*
X20609356Y-13370356D01*
X20609356Y-13624356D02*
X20609356Y-13553644D01*
X20538644Y-13553644D01*
X20538644Y-13624356D01*
X20609356Y-13624356D01*
X20609356Y-13878356D02*
X20609356Y-13807644D01*
X20538644Y-13807644D01*
X20538644Y-13878356D01*
X20609356Y-13878356D01*
X20609356Y-14132356D02*
X20609356Y-14061644D01*
X20538644Y-14061644D01*
X20538644Y-14132356D01*
X20609356Y-14132356D01*
X20609356Y-14386356D02*
X20609356Y-14315644D01*
X20538644Y-14315644D01*
X20538644Y-14386356D01*
X20609356Y-14386356D01*
X20675856Y-5232856D02*
X20675856Y-5162144D01*
X20605144Y-5162144D01*
X20605144Y-5232856D01*
X20675856Y-5232856D01*
X20675856Y-14832856D02*
X20675856Y-14762144D01*
X20605144Y-14762144D01*
X20605144Y-14832856D01*
X20675856Y-14832856D01*
X20863356Y-5750356D02*
X20863356Y-5679644D01*
X20792644Y-5679644D01*
X20792644Y-5750356D01*
X20863356Y-5750356D01*
X20863356Y-6004356D02*
X20863356Y-5933644D01*
X20792644Y-5933644D01*
X20792644Y-6004356D01*
X20863356Y-6004356D01*
X20863356Y-6258356D02*
X20863356Y-6187644D01*
X20792644Y-6187644D01*
X20792644Y-6258356D01*
X20863356Y-6258356D01*
X20863356Y-6512356D02*
X20863356Y-6441644D01*
X20792644Y-6441644D01*
X20792644Y-6512356D01*
X20863356Y-6512356D01*
X20863356Y-6766356D02*
X20863356Y-6695644D01*
X20792644Y-6695644D01*
X20792644Y-6766356D01*
X20863356Y-6766356D01*
X20863356Y-7020356D02*
X20863356Y-6949644D01*
X20792644Y-6949644D01*
X20792644Y-7020356D01*
X20863356Y-7020356D01*
X20863356Y-7274356D02*
X20863356Y-7203644D01*
X20792644Y-7203644D01*
X20792644Y-7274356D01*
X20863356Y-7274356D01*
X20863356Y-7528356D02*
X20863356Y-7457644D01*
X20792644Y-7457644D01*
X20792644Y-7528356D01*
X20863356Y-7528356D01*
X20863356Y-7782356D02*
X20863356Y-7711644D01*
X20792644Y-7711644D01*
X20792644Y-7782356D01*
X20863356Y-7782356D01*
X20863356Y-8036356D02*
X20863356Y-7965644D01*
X20792644Y-7965644D01*
X20792644Y-8036356D01*
X20863356Y-8036356D01*
X20863356Y-8290356D02*
X20863356Y-8219644D01*
X20792644Y-8219644D01*
X20792644Y-8290356D01*
X20863356Y-8290356D01*
X20863356Y-8544356D02*
X20863356Y-8473644D01*
X20792644Y-8473644D01*
X20792644Y-8544356D01*
X20863356Y-8544356D01*
X20863356Y-8798356D02*
X20863356Y-8727644D01*
X20792644Y-8727644D01*
X20792644Y-8798356D01*
X20863356Y-8798356D01*
X20863356Y-9052356D02*
X20863356Y-8981644D01*
X20792644Y-8981644D01*
X20792644Y-9052356D01*
X20863356Y-9052356D01*
X20863356Y-9306356D02*
X20863356Y-9235644D01*
X20792644Y-9235644D01*
X20792644Y-9306356D01*
X20863356Y-9306356D01*
X20863356Y-9560356D02*
X20863356Y-9489644D01*
X20792644Y-9489644D01*
X20792644Y-9560356D01*
X20863356Y-9560356D01*
X20863356Y-9814356D02*
X20863356Y-9743644D01*
X20792644Y-9743644D01*
X20792644Y-9814356D01*
X20863356Y-9814356D01*
X20863356Y-10068356D02*
X20863356Y-9997644D01*
X20792644Y-9997644D01*
X20792644Y-10068356D01*
X20863356Y-10068356D01*
X20863356Y-10322356D02*
X20863356Y-10251644D01*
X20792644Y-10251644D01*
X20792644Y-10322356D01*
X20863356Y-10322356D01*
X20863356Y-10576356D02*
X20863356Y-10505644D01*
X20792644Y-10505644D01*
X20792644Y-10576356D01*
X20863356Y-10576356D01*
X20863356Y-10830356D02*
X20863356Y-10759644D01*
X20792644Y-10759644D01*
X20792644Y-10830356D01*
X20863356Y-10830356D01*
X20863356Y-11084356D02*
X20863356Y-11013644D01*
X20792644Y-11013644D01*
X20792644Y-11084356D01*
X20863356Y-11084356D01*
X20863356Y-11338356D02*
X20863356Y-11267644D01*
X20792644Y-11267644D01*
X20792644Y-11338356D01*
X20863356Y-11338356D01*
X20863356Y-11592356D02*
X20863356Y-11521644D01*
X20792644Y-11521644D01*
X20792644Y-11592356D01*
X20863356Y-11592356D01*
X20863356Y-11846356D02*
X20863356Y-11775644D01*
X20792644Y-11775644D01*
X20792644Y-11846356D01*
X20863356Y-11846356D01*
X20863356Y-12100356D02*
X20863356Y-12029644D01*
X20792644Y-12029644D01*
X20792644Y-12100356D01*
X20863356Y-12100356D01*
X20863356Y-12354356D02*
X20863356Y-12283644D01*
X20792644Y-12283644D01*
X20792644Y-12354356D01*
X20863356Y-12354356D01*
X20863356Y-12608356D02*
X20863356Y-12537644D01*
X20792644Y-12537644D01*
X20792644Y-12608356D01*
X20863356Y-12608356D01*
X20863356Y-12862356D02*
X20863356Y-12791644D01*
X20792644Y-12791644D01*
X20792644Y-12862356D01*
X20863356Y-12862356D01*
X20863356Y-13116356D02*
X20863356Y-13045644D01*
X20792644Y-13045644D01*
X20792644Y-13116356D01*
X20863356Y-13116356D01*
X20863356Y-13370356D02*
X20863356Y-13299644D01*
X20792644Y-13299644D01*
X20792644Y-13370356D01*
X20863356Y-13370356D01*
X20863356Y-13624356D02*
X20863356Y-13553644D01*
X20792644Y-13553644D01*
X20792644Y-13624356D01*
X20863356Y-13624356D01*
X20863356Y-13878356D02*
X20863356Y-13807644D01*
X20792644Y-13807644D01*
X20792644Y-13878356D01*
X20863356Y-13878356D01*
X20863356Y-14132356D02*
X20863356Y-14061644D01*
X20792644Y-14061644D01*
X20792644Y-14132356D01*
X20863356Y-14132356D01*
X20863356Y-14386356D02*
X20863356Y-14315644D01*
X20792644Y-14315644D01*
X20792644Y-14386356D01*
X20863356Y-14386356D01*
D15*
X6825000Y-5847000D02*
X6880000Y-5792000D01*
X6825000Y-5737000D01*
X6770000Y-5792000D01*
X6825000Y-5847000D01*
X6825000Y-6297000D02*
X6880000Y-6242000D01*
X6825000Y-6187000D01*
X6770000Y-6242000D01*
X6825000Y-6297000D01*
X7475000Y-5847000D02*
X7530000Y-5792000D01*
X7475000Y-5737000D01*
X7420000Y-5792000D01*
X7475000Y-5847000D01*
X7475000Y-6297000D02*
X7530000Y-6242000D01*
X7475000Y-6187000D01*
X7420000Y-6242000D01*
X7475000Y-6297000D01*
X9190000Y-5639000D02*
X9245000Y-5584000D01*
X9190000Y-5529000D01*
X9135000Y-5584000D01*
X9190000Y-5639000D01*
X9190000Y-6655000D02*
X9245000Y-6600000D01*
X9190000Y-6545000D01*
X9135000Y-6600000D01*
X9190000Y-6655000D01*
X10625000Y-5747000D02*
X10680000Y-5692000D01*
X10625000Y-5637000D01*
X10570000Y-5692000D01*
X10625000Y-5747000D01*
X10625000Y-6001000D02*
X10680000Y-5946000D01*
X10625000Y-5891000D01*
X10570000Y-5946000D01*
X10625000Y-6001000D01*
X10625000Y-6255000D02*
X10680000Y-6200000D01*
X10625000Y-6145000D01*
X10570000Y-6200000D01*
X10625000Y-6255000D01*
D16*
X7956500Y-5996500D02*
X8086500Y-6126500D01*
X8086500Y-5996500D02*
X7956500Y-6126500D01*
X8086500Y-6061500D02*
G75*
G03*
X8086500Y-6061500I-65000J0D01*
G01*
X8464500Y-5996500D02*
X8594500Y-6126500D01*
X8594500Y-5996500D02*
X8464500Y-6126500D01*
X8594500Y-6061500D02*
G75*
G03*
X8594500Y-6061500I-65000J0D01*
G01*
D11*
X5252619Y-15315476D02*
X5252619Y-15115476D01*
X5300238Y-15115476D01*
X5328810Y-15125000D01*
X5347857Y-15144048D01*
X5357381Y-15163095D01*
X5366905Y-15201190D01*
X5366905Y-15229762D01*
X5357381Y-15267857D01*
X5347857Y-15286905D01*
X5328810Y-15305952D01*
X5300238Y-15315476D01*
X5252619Y-15315476D01*
X5452619Y-15315476D02*
X5452619Y-15182143D01*
X5452619Y-15220238D02*
X5462143Y-15201190D01*
X5471667Y-15191667D01*
X5490714Y-15182143D01*
X5509762Y-15182143D01*
X5576429Y-15315476D02*
X5576429Y-15182143D01*
X5576429Y-15115476D02*
X5566905Y-15125000D01*
X5576429Y-15134524D01*
X5585952Y-15125000D01*
X5576429Y-15115476D01*
X5576429Y-15134524D01*
X5700238Y-15315476D02*
X5681190Y-15305952D01*
X5671667Y-15286905D01*
X5671667Y-15115476D01*
X5805000Y-15315476D02*
X5785952Y-15305952D01*
X5776428Y-15286905D01*
X5776428Y-15115476D01*
X6033571Y-15315476D02*
X6033571Y-15115476D01*
X6100238Y-15258333D01*
X6166905Y-15115476D01*
X6166905Y-15315476D01*
X6347857Y-15315476D02*
X6347857Y-15210714D01*
X6338333Y-15191667D01*
X6319286Y-15182143D01*
X6281190Y-15182143D01*
X6262143Y-15191667D01*
X6347857Y-15305952D02*
X6328809Y-15315476D01*
X6281190Y-15315476D01*
X6262143Y-15305952D01*
X6252619Y-15286905D01*
X6252619Y-15267857D01*
X6262143Y-15248809D01*
X6281190Y-15239286D01*
X6328809Y-15239286D01*
X6347857Y-15229762D01*
X6443095Y-15182143D02*
X6443095Y-15382143D01*
X6443095Y-15191667D02*
X6462143Y-15182143D01*
X6500238Y-15182143D01*
X6519286Y-15191667D01*
X6528809Y-15201190D01*
X6538333Y-15220238D01*
X6538333Y-15277381D01*
X6528809Y-15296428D01*
X6519286Y-15305952D01*
X6500238Y-15315476D01*
X6462143Y-15315476D01*
X6443095Y-15305952D01*
X6624048Y-15296428D02*
X6633571Y-15305952D01*
X6624048Y-15315476D01*
X6614524Y-15305952D01*
X6624048Y-15296428D01*
X6624048Y-15315476D01*
X6624048Y-15191667D02*
X6633571Y-15201190D01*
X6624048Y-15210714D01*
X6614524Y-15201190D01*
X6624048Y-15191667D01*
X6624048Y-15210714D01*
D12*
X4955000Y-15625000D02*
X4995000Y-15665000D01*
X4995000Y-15625000D02*
X4955000Y-15665000D01*
D11*
X5290714Y-15535476D02*
X5309762Y-15535476D01*
X5328810Y-15545000D01*
X5338333Y-15554524D01*
X5347857Y-15573571D01*
X5357381Y-15611667D01*
X5357381Y-15659286D01*
X5347857Y-15697381D01*
X5338333Y-15716428D01*
X5328810Y-15725952D01*
X5309762Y-15735476D01*
X5290714Y-15735476D01*
X5271667Y-15725952D01*
X5262143Y-15716428D01*
X5252619Y-15697381D01*
X5243095Y-15659286D01*
X5243095Y-15611667D01*
X5252619Y-15573571D01*
X5262143Y-15554524D01*
X5271667Y-15545000D01*
X5290714Y-15535476D01*
X5443095Y-15716428D02*
X5452619Y-15725952D01*
X5443095Y-15735476D01*
X5433571Y-15725952D01*
X5443095Y-15716428D01*
X5443095Y-15735476D01*
X5624048Y-15602143D02*
X5624048Y-15735476D01*
X5576429Y-15525952D02*
X5528810Y-15668809D01*
X5652619Y-15668809D01*
X5766905Y-15535476D02*
X5785952Y-15535476D01*
X5805000Y-15545000D01*
X5814524Y-15554524D01*
X5824048Y-15573571D01*
X5833571Y-15611667D01*
X5833571Y-15659286D01*
X5824048Y-15697381D01*
X5814524Y-15716428D01*
X5805000Y-15725952D01*
X5785952Y-15735476D01*
X5766905Y-15735476D01*
X5747857Y-15725952D01*
X5738333Y-15716428D01*
X5728809Y-15697381D01*
X5719286Y-15659286D01*
X5719286Y-15611667D01*
X5728809Y-15573571D01*
X5738333Y-15554524D01*
X5747857Y-15545000D01*
X5766905Y-15535476D01*
X5957381Y-15535476D02*
X5976428Y-15535476D01*
X5995476Y-15545000D01*
X6005000Y-15554524D01*
X6014524Y-15573571D01*
X6024048Y-15611667D01*
X6024048Y-15659286D01*
X6014524Y-15697381D01*
X6005000Y-15716428D01*
X5995476Y-15725952D01*
X5976428Y-15735476D01*
X5957381Y-15735476D01*
X5938333Y-15725952D01*
X5928809Y-15716428D01*
X5919286Y-15697381D01*
X5909762Y-15659286D01*
X5909762Y-15611667D01*
X5919286Y-15573571D01*
X5928809Y-15554524D01*
X5938333Y-15545000D01*
X5957381Y-15535476D01*
X6109762Y-15735476D02*
X6109762Y-15602143D01*
X6109762Y-15621190D02*
X6119286Y-15611667D01*
X6138333Y-15602143D01*
X6166905Y-15602143D01*
X6185952Y-15611667D01*
X6195476Y-15630714D01*
X6195476Y-15735476D01*
X6195476Y-15630714D02*
X6205000Y-15611667D01*
X6224048Y-15602143D01*
X6252619Y-15602143D01*
X6271667Y-15611667D01*
X6281190Y-15630714D01*
X6281190Y-15735476D01*
X6376428Y-15735476D02*
X6376428Y-15602143D01*
X6376428Y-15621190D02*
X6385952Y-15611667D01*
X6405000Y-15602143D01*
X6433571Y-15602143D01*
X6452619Y-15611667D01*
X6462143Y-15630714D01*
X6462143Y-15735476D01*
X6462143Y-15630714D02*
X6471667Y-15611667D01*
X6490714Y-15602143D01*
X6519286Y-15602143D01*
X6538333Y-15611667D01*
X6547857Y-15630714D01*
X6547857Y-15735476D01*
X6938333Y-15525952D02*
X6766905Y-15783095D01*
X7195476Y-15535476D02*
X7214524Y-15535476D01*
X7233571Y-15545000D01*
X7243095Y-15554524D01*
X7252619Y-15573571D01*
X7262143Y-15611667D01*
X7262143Y-15659286D01*
X7252619Y-15697381D01*
X7243095Y-15716428D01*
X7233571Y-15725952D01*
X7214524Y-15735476D01*
X7195476Y-15735476D01*
X7176428Y-15725952D01*
X7166905Y-15716428D01*
X7157381Y-15697381D01*
X7147857Y-15659286D01*
X7147857Y-15611667D01*
X7157381Y-15573571D01*
X7166905Y-15554524D01*
X7176428Y-15545000D01*
X7195476Y-15535476D01*
X7347857Y-15716428D02*
X7357381Y-15725952D01*
X7347857Y-15735476D01*
X7338333Y-15725952D01*
X7347857Y-15716428D01*
X7347857Y-15735476D01*
X7481190Y-15535476D02*
X7500238Y-15535476D01*
X7519286Y-15545000D01*
X7528809Y-15554524D01*
X7538333Y-15573571D01*
X7547857Y-15611667D01*
X7547857Y-15659286D01*
X7538333Y-15697381D01*
X7528809Y-15716428D01*
X7519286Y-15725952D01*
X7500238Y-15735476D01*
X7481190Y-15735476D01*
X7462143Y-15725952D01*
X7452619Y-15716428D01*
X7443095Y-15697381D01*
X7433571Y-15659286D01*
X7433571Y-15611667D01*
X7443095Y-15573571D01*
X7452619Y-15554524D01*
X7462143Y-15545000D01*
X7481190Y-15535476D01*
X7738333Y-15735476D02*
X7624048Y-15735476D01*
X7681190Y-15735476D02*
X7681190Y-15535476D01*
X7662143Y-15564048D01*
X7643095Y-15583095D01*
X7624048Y-15592619D01*
X7919286Y-15535476D02*
X7824048Y-15535476D01*
X7814524Y-15630714D01*
X7824048Y-15621190D01*
X7843095Y-15611667D01*
X7890714Y-15611667D01*
X7909762Y-15621190D01*
X7919286Y-15630714D01*
X7928809Y-15649762D01*
X7928809Y-15697381D01*
X7919286Y-15716428D01*
X7909762Y-15725952D01*
X7890714Y-15735476D01*
X7843095Y-15735476D01*
X7824048Y-15725952D01*
X7814524Y-15716428D01*
X7995476Y-15535476D02*
X8128809Y-15535476D01*
X8043095Y-15735476D01*
X8195476Y-15535476D02*
X8195476Y-15573571D01*
X8271667Y-15535476D02*
X8271667Y-15573571D01*
X8566905Y-15811667D02*
X8557381Y-15802143D01*
X8538333Y-15773571D01*
X8528810Y-15754524D01*
X8519286Y-15725952D01*
X8509762Y-15678333D01*
X8509762Y-15640238D01*
X8519286Y-15592619D01*
X8528810Y-15564048D01*
X8538333Y-15545000D01*
X8557381Y-15516428D01*
X8566905Y-15506905D01*
X8747857Y-15735476D02*
X8633571Y-15735476D01*
X8690714Y-15735476D02*
X8690714Y-15535476D01*
X8671667Y-15564048D01*
X8652619Y-15583095D01*
X8633571Y-15592619D01*
X8814524Y-15535476D02*
X8947857Y-15535476D01*
X8862143Y-15735476D01*
X9109762Y-15535476D02*
X9071667Y-15535476D01*
X9052619Y-15545000D01*
X9043095Y-15554524D01*
X9024048Y-15583095D01*
X9014524Y-15621190D01*
X9014524Y-15697381D01*
X9024048Y-15716428D01*
X9033571Y-15725952D01*
X9052619Y-15735476D01*
X9090714Y-15735476D01*
X9109762Y-15725952D01*
X9119286Y-15716428D01*
X9128810Y-15697381D01*
X9128810Y-15649762D01*
X9119286Y-15630714D01*
X9109762Y-15621190D01*
X9090714Y-15611667D01*
X9052619Y-15611667D01*
X9033571Y-15621190D01*
X9024048Y-15630714D01*
X9014524Y-15649762D01*
X9366905Y-15735476D02*
X9366905Y-15535476D01*
X9452619Y-15735476D02*
X9452619Y-15630714D01*
X9443095Y-15611667D01*
X9424048Y-15602143D01*
X9395476Y-15602143D01*
X9376429Y-15611667D01*
X9366905Y-15621190D01*
X9576429Y-15735476D02*
X9557381Y-15725952D01*
X9547857Y-15716428D01*
X9538333Y-15697381D01*
X9538333Y-15640238D01*
X9547857Y-15621190D01*
X9557381Y-15611667D01*
X9576429Y-15602143D01*
X9605000Y-15602143D01*
X9624048Y-15611667D01*
X9633571Y-15621190D01*
X9643095Y-15640238D01*
X9643095Y-15697381D01*
X9633571Y-15716428D01*
X9624048Y-15725952D01*
X9605000Y-15735476D01*
X9576429Y-15735476D01*
X9757381Y-15735476D02*
X9738333Y-15725952D01*
X9728810Y-15706905D01*
X9728810Y-15535476D01*
X9909762Y-15725952D02*
X9890714Y-15735476D01*
X9852619Y-15735476D01*
X9833571Y-15725952D01*
X9824048Y-15706905D01*
X9824048Y-15630714D01*
X9833571Y-15611667D01*
X9852619Y-15602143D01*
X9890714Y-15602143D01*
X9909762Y-15611667D01*
X9919286Y-15630714D01*
X9919286Y-15649762D01*
X9824048Y-15668809D01*
X9995476Y-15725952D02*
X10014524Y-15735476D01*
X10052619Y-15735476D01*
X10071667Y-15725952D01*
X10081190Y-15706905D01*
X10081190Y-15697381D01*
X10071667Y-15678333D01*
X10052619Y-15668809D01*
X10024048Y-15668809D01*
X10005000Y-15659286D01*
X9995476Y-15640238D01*
X9995476Y-15630714D01*
X10005000Y-15611667D01*
X10024048Y-15602143D01*
X10052619Y-15602143D01*
X10071667Y-15611667D01*
X10147857Y-15811667D02*
X10157381Y-15802143D01*
X10176429Y-15773571D01*
X10185952Y-15754524D01*
X10195476Y-15725952D01*
X10205000Y-15678333D01*
X10205000Y-15640238D01*
X10195476Y-15592619D01*
X10185952Y-15564048D01*
X10176429Y-15545000D01*
X10157381Y-15516428D01*
X10147857Y-15506905D01*
D13*
X4995000Y-15909000D02*
G75*
G03*
X4995000Y-15909000I-40000J0D01*
G01*
D11*
X5290714Y-15799476D02*
X5309762Y-15799476D01*
X5328810Y-15809000D01*
X5338333Y-15818524D01*
X5347857Y-15837571D01*
X5357381Y-15875667D01*
X5357381Y-15923286D01*
X5347857Y-15961381D01*
X5338333Y-15980428D01*
X5328810Y-15989952D01*
X5309762Y-15999476D01*
X5290714Y-15999476D01*
X5271667Y-15989952D01*
X5262143Y-15980428D01*
X5252619Y-15961381D01*
X5243095Y-15923286D01*
X5243095Y-15875667D01*
X5252619Y-15837571D01*
X5262143Y-15818524D01*
X5271667Y-15809000D01*
X5290714Y-15799476D01*
X5443095Y-15980428D02*
X5452619Y-15989952D01*
X5443095Y-15999476D01*
X5433571Y-15989952D01*
X5443095Y-15980428D01*
X5443095Y-15999476D01*
X5566905Y-15885190D02*
X5547857Y-15875667D01*
X5538333Y-15866143D01*
X5528810Y-15847095D01*
X5528810Y-15837571D01*
X5538333Y-15818524D01*
X5547857Y-15809000D01*
X5566905Y-15799476D01*
X5605000Y-15799476D01*
X5624048Y-15809000D01*
X5633571Y-15818524D01*
X5643095Y-15837571D01*
X5643095Y-15847095D01*
X5633571Y-15866143D01*
X5624048Y-15875667D01*
X5605000Y-15885190D01*
X5566905Y-15885190D01*
X5547857Y-15894714D01*
X5538333Y-15904238D01*
X5528810Y-15923286D01*
X5528810Y-15961381D01*
X5538333Y-15980428D01*
X5547857Y-15989952D01*
X5566905Y-15999476D01*
X5605000Y-15999476D01*
X5624048Y-15989952D01*
X5633571Y-15980428D01*
X5643095Y-15961381D01*
X5643095Y-15923286D01*
X5633571Y-15904238D01*
X5624048Y-15894714D01*
X5605000Y-15885190D01*
X5766905Y-15799476D02*
X5785952Y-15799476D01*
X5805000Y-15809000D01*
X5814524Y-15818524D01*
X5824048Y-15837571D01*
X5833571Y-15875667D01*
X5833571Y-15923286D01*
X5824048Y-15961381D01*
X5814524Y-15980428D01*
X5805000Y-15989952D01*
X5785952Y-15999476D01*
X5766905Y-15999476D01*
X5747857Y-15989952D01*
X5738333Y-15980428D01*
X5728809Y-15961381D01*
X5719286Y-15923286D01*
X5719286Y-15875667D01*
X5728809Y-15837571D01*
X5738333Y-15818524D01*
X5747857Y-15809000D01*
X5766905Y-15799476D01*
X5957381Y-15799476D02*
X5976428Y-15799476D01*
X5995476Y-15809000D01*
X6005000Y-15818524D01*
X6014524Y-15837571D01*
X6024048Y-15875667D01*
X6024048Y-15923286D01*
X6014524Y-15961381D01*
X6005000Y-15980428D01*
X5995476Y-15989952D01*
X5976428Y-15999476D01*
X5957381Y-15999476D01*
X5938333Y-15989952D01*
X5928809Y-15980428D01*
X5919286Y-15961381D01*
X5909762Y-15923286D01*
X5909762Y-15875667D01*
X5919286Y-15837571D01*
X5928809Y-15818524D01*
X5938333Y-15809000D01*
X5957381Y-15799476D01*
X6109762Y-15999476D02*
X6109762Y-15866143D01*
X6109762Y-15885190D02*
X6119286Y-15875667D01*
X6138333Y-15866143D01*
X6166905Y-15866143D01*
X6185952Y-15875667D01*
X6195476Y-15894714D01*
X6195476Y-15999476D01*
X6195476Y-15894714D02*
X6205000Y-15875667D01*
X6224048Y-15866143D01*
X6252619Y-15866143D01*
X6271667Y-15875667D01*
X6281190Y-15894714D01*
X6281190Y-15999476D01*
X6376428Y-15999476D02*
X6376428Y-15866143D01*
X6376428Y-15885190D02*
X6385952Y-15875667D01*
X6405000Y-15866143D01*
X6433571Y-15866143D01*
X6452619Y-15875667D01*
X6462143Y-15894714D01*
X6462143Y-15999476D01*
X6462143Y-15894714D02*
X6471667Y-15875667D01*
X6490714Y-15866143D01*
X6519286Y-15866143D01*
X6538333Y-15875667D01*
X6547857Y-15894714D01*
X6547857Y-15999476D01*
X6938333Y-15789952D02*
X6766905Y-16047095D01*
X7195476Y-15799476D02*
X7214524Y-15799476D01*
X7233571Y-15809000D01*
X7243095Y-15818524D01*
X7252619Y-15837571D01*
X7262143Y-15875667D01*
X7262143Y-15923286D01*
X7252619Y-15961381D01*
X7243095Y-15980428D01*
X7233571Y-15989952D01*
X7214524Y-15999476D01*
X7195476Y-15999476D01*
X7176428Y-15989952D01*
X7166905Y-15980428D01*
X7157381Y-15961381D01*
X7147857Y-15923286D01*
X7147857Y-15875667D01*
X7157381Y-15837571D01*
X7166905Y-15818524D01*
X7176428Y-15809000D01*
X7195476Y-15799476D01*
X7347857Y-15980428D02*
X7357381Y-15989952D01*
X7347857Y-15999476D01*
X7338333Y-15989952D01*
X7347857Y-15980428D01*
X7347857Y-15999476D01*
X7481190Y-15799476D02*
X7500238Y-15799476D01*
X7519286Y-15809000D01*
X7528809Y-15818524D01*
X7538333Y-15837571D01*
X7547857Y-15875667D01*
X7547857Y-15923286D01*
X7538333Y-15961381D01*
X7528809Y-15980428D01*
X7519286Y-15989952D01*
X7500238Y-15999476D01*
X7481190Y-15999476D01*
X7462143Y-15989952D01*
X7452619Y-15980428D01*
X7443095Y-15961381D01*
X7433571Y-15923286D01*
X7433571Y-15875667D01*
X7443095Y-15837571D01*
X7452619Y-15818524D01*
X7462143Y-15809000D01*
X7481190Y-15799476D01*
X7614524Y-15799476D02*
X7738333Y-15799476D01*
X7671667Y-15875667D01*
X7700238Y-15875667D01*
X7719286Y-15885190D01*
X7728809Y-15894714D01*
X7738333Y-15913762D01*
X7738333Y-15961381D01*
X7728809Y-15980428D01*
X7719286Y-15989952D01*
X7700238Y-15999476D01*
X7643095Y-15999476D01*
X7624048Y-15989952D01*
X7614524Y-15980428D01*
X7928809Y-15999476D02*
X7814524Y-15999476D01*
X7871667Y-15999476D02*
X7871667Y-15799476D01*
X7852619Y-15828048D01*
X7833571Y-15847095D01*
X7814524Y-15856619D01*
X8109762Y-15799476D02*
X8014524Y-15799476D01*
X8005000Y-15894714D01*
X8014524Y-15885190D01*
X8033571Y-15875667D01*
X8081190Y-15875667D01*
X8100238Y-15885190D01*
X8109762Y-15894714D01*
X8119286Y-15913762D01*
X8119286Y-15961381D01*
X8109762Y-15980428D01*
X8100238Y-15989952D01*
X8081190Y-15999476D01*
X8033571Y-15999476D01*
X8014524Y-15989952D01*
X8005000Y-15980428D01*
X8195476Y-15799476D02*
X8195476Y-15837571D01*
X8271667Y-15799476D02*
X8271667Y-15837571D01*
X8566905Y-16075667D02*
X8557381Y-16066143D01*
X8538333Y-16037571D01*
X8528810Y-16018524D01*
X8519286Y-15989952D01*
X8509762Y-15942333D01*
X8509762Y-15904238D01*
X8519286Y-15856619D01*
X8528810Y-15828048D01*
X8538333Y-15809000D01*
X8557381Y-15780428D01*
X8566905Y-15770905D01*
X8624048Y-15799476D02*
X8747857Y-15799476D01*
X8681190Y-15875667D01*
X8709762Y-15875667D01*
X8728810Y-15885190D01*
X8738333Y-15894714D01*
X8747857Y-15913762D01*
X8747857Y-15961381D01*
X8738333Y-15980428D01*
X8728810Y-15989952D01*
X8709762Y-15999476D01*
X8652619Y-15999476D01*
X8633571Y-15989952D01*
X8624048Y-15980428D01*
X8862143Y-15885190D02*
X8843095Y-15875667D01*
X8833571Y-15866143D01*
X8824048Y-15847095D01*
X8824048Y-15837571D01*
X8833571Y-15818524D01*
X8843095Y-15809000D01*
X8862143Y-15799476D01*
X8900238Y-15799476D01*
X8919286Y-15809000D01*
X8928810Y-15818524D01*
X8938333Y-15837571D01*
X8938333Y-15847095D01*
X8928810Y-15866143D01*
X8919286Y-15875667D01*
X8900238Y-15885190D01*
X8862143Y-15885190D01*
X8843095Y-15894714D01*
X8833571Y-15904238D01*
X8824048Y-15923286D01*
X8824048Y-15961381D01*
X8833571Y-15980428D01*
X8843095Y-15989952D01*
X8862143Y-15999476D01*
X8900238Y-15999476D01*
X8919286Y-15989952D01*
X8928810Y-15980428D01*
X8938333Y-15961381D01*
X8938333Y-15923286D01*
X8928810Y-15904238D01*
X8919286Y-15894714D01*
X8900238Y-15885190D01*
X9005000Y-15799476D02*
X9128810Y-15799476D01*
X9062143Y-15875667D01*
X9090714Y-15875667D01*
X9109762Y-15885190D01*
X9119286Y-15894714D01*
X9128810Y-15913762D01*
X9128810Y-15961381D01*
X9119286Y-15980428D01*
X9109762Y-15989952D01*
X9090714Y-15999476D01*
X9033571Y-15999476D01*
X9014524Y-15989952D01*
X9005000Y-15980428D01*
X9366905Y-15999476D02*
X9366905Y-15799476D01*
X9452619Y-15999476D02*
X9452619Y-15894714D01*
X9443095Y-15875667D01*
X9424048Y-15866143D01*
X9395476Y-15866143D01*
X9376429Y-15875667D01*
X9366905Y-15885190D01*
X9576429Y-15999476D02*
X9557381Y-15989952D01*
X9547857Y-15980428D01*
X9538333Y-15961381D01*
X9538333Y-15904238D01*
X9547857Y-15885190D01*
X9557381Y-15875667D01*
X9576429Y-15866143D01*
X9605000Y-15866143D01*
X9624048Y-15875667D01*
X9633571Y-15885190D01*
X9643095Y-15904238D01*
X9643095Y-15961381D01*
X9633571Y-15980428D01*
X9624048Y-15989952D01*
X9605000Y-15999476D01*
X9576429Y-15999476D01*
X9757381Y-15999476D02*
X9738333Y-15989952D01*
X9728810Y-15970905D01*
X9728810Y-15799476D01*
X9909762Y-15989952D02*
X9890714Y-15999476D01*
X9852619Y-15999476D01*
X9833571Y-15989952D01*
X9824048Y-15970905D01*
X9824048Y-15894714D01*
X9833571Y-15875667D01*
X9852619Y-15866143D01*
X9890714Y-15866143D01*
X9909762Y-15875667D01*
X9919286Y-15894714D01*
X9919286Y-15913762D01*
X9824048Y-15932809D01*
X9995476Y-15989952D02*
X10014524Y-15999476D01*
X10052619Y-15999476D01*
X10071667Y-15989952D01*
X10081190Y-15970905D01*
X10081190Y-15961381D01*
X10071667Y-15942333D01*
X10052619Y-15932809D01*
X10024048Y-15932809D01*
X10005000Y-15923286D01*
X9995476Y-15904238D01*
X9995476Y-15894714D01*
X10005000Y-15875667D01*
X10024048Y-15866143D01*
X10052619Y-15866143D01*
X10071667Y-15875667D01*
X10147857Y-16075667D02*
X10157381Y-16066143D01*
X10176429Y-16037571D01*
X10185952Y-16018524D01*
X10195476Y-15989952D01*
X10205000Y-15942333D01*
X10205000Y-15904238D01*
X10195476Y-15856619D01*
X10185952Y-15828048D01*
X10176429Y-15809000D01*
X10157381Y-15780428D01*
X10147857Y-15770905D01*
D14*
X4950000Y-16128000D02*
X4950000Y-16218000D01*
X4905000Y-16173000D02*
X4995000Y-16173000D01*
D11*
X5290714Y-16063476D02*
X5309762Y-16063476D01*
X5328810Y-16073000D01*
X5338333Y-16082524D01*
X5347857Y-16101571D01*
X5357381Y-16139667D01*
X5357381Y-16187286D01*
X5347857Y-16225381D01*
X5338333Y-16244428D01*
X5328810Y-16253952D01*
X5309762Y-16263476D01*
X5290714Y-16263476D01*
X5271667Y-16253952D01*
X5262143Y-16244428D01*
X5252619Y-16225381D01*
X5243095Y-16187286D01*
X5243095Y-16139667D01*
X5252619Y-16101571D01*
X5262143Y-16082524D01*
X5271667Y-16073000D01*
X5290714Y-16063476D01*
X5443095Y-16244428D02*
X5452619Y-16253952D01*
X5443095Y-16263476D01*
X5433571Y-16253952D01*
X5443095Y-16244428D01*
X5443095Y-16263476D01*
X5547857Y-16263476D02*
X5585952Y-16263476D01*
X5605000Y-16253952D01*
X5614524Y-16244428D01*
X5633571Y-16215857D01*
X5643095Y-16177762D01*
X5643095Y-16101571D01*
X5633571Y-16082524D01*
X5624048Y-16073000D01*
X5605000Y-16063476D01*
X5566905Y-16063476D01*
X5547857Y-16073000D01*
X5538333Y-16082524D01*
X5528810Y-16101571D01*
X5528810Y-16149190D01*
X5538333Y-16168238D01*
X5547857Y-16177762D01*
X5566905Y-16187286D01*
X5605000Y-16187286D01*
X5624048Y-16177762D01*
X5633571Y-16168238D01*
X5643095Y-16149190D01*
X5766905Y-16063476D02*
X5785952Y-16063476D01*
X5805000Y-16073000D01*
X5814524Y-16082524D01*
X5824048Y-16101571D01*
X5833571Y-16139667D01*
X5833571Y-16187286D01*
X5824048Y-16225381D01*
X5814524Y-16244428D01*
X5805000Y-16253952D01*
X5785952Y-16263476D01*
X5766905Y-16263476D01*
X5747857Y-16253952D01*
X5738333Y-16244428D01*
X5728809Y-16225381D01*
X5719286Y-16187286D01*
X5719286Y-16139667D01*
X5728809Y-16101571D01*
X5738333Y-16082524D01*
X5747857Y-16073000D01*
X5766905Y-16063476D01*
X5957381Y-16063476D02*
X5976428Y-16063476D01*
X5995476Y-16073000D01*
X6005000Y-16082524D01*
X6014524Y-16101571D01*
X6024048Y-16139667D01*
X6024048Y-16187286D01*
X6014524Y-16225381D01*
X6005000Y-16244428D01*
X5995476Y-16253952D01*
X5976428Y-16263476D01*
X5957381Y-16263476D01*
X5938333Y-16253952D01*
X5928809Y-16244428D01*
X5919286Y-16225381D01*
X5909762Y-16187286D01*
X5909762Y-16139667D01*
X5919286Y-16101571D01*
X5928809Y-16082524D01*
X5938333Y-16073000D01*
X5957381Y-16063476D01*
X6109762Y-16263476D02*
X6109762Y-16130143D01*
X6109762Y-16149190D02*
X6119286Y-16139667D01*
X6138333Y-16130143D01*
X6166905Y-16130143D01*
X6185952Y-16139667D01*
X6195476Y-16158714D01*
X6195476Y-16263476D01*
X6195476Y-16158714D02*
X6205000Y-16139667D01*
X6224048Y-16130143D01*
X6252619Y-16130143D01*
X6271667Y-16139667D01*
X6281190Y-16158714D01*
X6281190Y-16263476D01*
X6376428Y-16263476D02*
X6376428Y-16130143D01*
X6376428Y-16149190D02*
X6385952Y-16139667D01*
X6405000Y-16130143D01*
X6433571Y-16130143D01*
X6452619Y-16139667D01*
X6462143Y-16158714D01*
X6462143Y-16263476D01*
X6462143Y-16158714D02*
X6471667Y-16139667D01*
X6490714Y-16130143D01*
X6519286Y-16130143D01*
X6538333Y-16139667D01*
X6547857Y-16158714D01*
X6547857Y-16263476D01*
X6938333Y-16053952D02*
X6766905Y-16311095D01*
X7195476Y-16063476D02*
X7214524Y-16063476D01*
X7233571Y-16073000D01*
X7243095Y-16082524D01*
X7252619Y-16101571D01*
X7262143Y-16139667D01*
X7262143Y-16187286D01*
X7252619Y-16225381D01*
X7243095Y-16244428D01*
X7233571Y-16253952D01*
X7214524Y-16263476D01*
X7195476Y-16263476D01*
X7176428Y-16253952D01*
X7166905Y-16244428D01*
X7157381Y-16225381D01*
X7147857Y-16187286D01*
X7147857Y-16139667D01*
X7157381Y-16101571D01*
X7166905Y-16082524D01*
X7176428Y-16073000D01*
X7195476Y-16063476D01*
X7347857Y-16244428D02*
X7357381Y-16253952D01*
X7347857Y-16263476D01*
X7338333Y-16253952D01*
X7347857Y-16244428D01*
X7347857Y-16263476D01*
X7481190Y-16063476D02*
X7500238Y-16063476D01*
X7519286Y-16073000D01*
X7528809Y-16082524D01*
X7538333Y-16101571D01*
X7547857Y-16139667D01*
X7547857Y-16187286D01*
X7538333Y-16225381D01*
X7528809Y-16244428D01*
X7519286Y-16253952D01*
X7500238Y-16263476D01*
X7481190Y-16263476D01*
X7462143Y-16253952D01*
X7452619Y-16244428D01*
X7443095Y-16225381D01*
X7433571Y-16187286D01*
X7433571Y-16139667D01*
X7443095Y-16101571D01*
X7452619Y-16082524D01*
X7462143Y-16073000D01*
X7481190Y-16063476D01*
X7614524Y-16063476D02*
X7738333Y-16063476D01*
X7671667Y-16139667D01*
X7700238Y-16139667D01*
X7719286Y-16149190D01*
X7728809Y-16158714D01*
X7738333Y-16177762D01*
X7738333Y-16225381D01*
X7728809Y-16244428D01*
X7719286Y-16253952D01*
X7700238Y-16263476D01*
X7643095Y-16263476D01*
X7624048Y-16253952D01*
X7614524Y-16244428D01*
X7919286Y-16063476D02*
X7824048Y-16063476D01*
X7814524Y-16158714D01*
X7824048Y-16149190D01*
X7843095Y-16139667D01*
X7890714Y-16139667D01*
X7909762Y-16149190D01*
X7919286Y-16158714D01*
X7928809Y-16177762D01*
X7928809Y-16225381D01*
X7919286Y-16244428D01*
X7909762Y-16253952D01*
X7890714Y-16263476D01*
X7843095Y-16263476D01*
X7824048Y-16253952D01*
X7814524Y-16244428D01*
X8100238Y-16130143D02*
X8100238Y-16263476D01*
X8052619Y-16053952D02*
X8005000Y-16196809D01*
X8128809Y-16196809D01*
X8195476Y-16063476D02*
X8195476Y-16101571D01*
X8271667Y-16063476D02*
X8271667Y-16101571D01*
X8566905Y-16339667D02*
X8557381Y-16330143D01*
X8538333Y-16301571D01*
X8528810Y-16282524D01*
X8519286Y-16253952D01*
X8509762Y-16206333D01*
X8509762Y-16168238D01*
X8519286Y-16120619D01*
X8528810Y-16092048D01*
X8538333Y-16073000D01*
X8557381Y-16044428D01*
X8566905Y-16034905D01*
X8633571Y-16082524D02*
X8643095Y-16073000D01*
X8662143Y-16063476D01*
X8709762Y-16063476D01*
X8728810Y-16073000D01*
X8738333Y-16082524D01*
X8747857Y-16101571D01*
X8747857Y-16120619D01*
X8738333Y-16149190D01*
X8624048Y-16263476D01*
X8747857Y-16263476D01*
X8824048Y-16082524D02*
X8833571Y-16073000D01*
X8852619Y-16063476D01*
X8900238Y-16063476D01*
X8919286Y-16073000D01*
X8928810Y-16082524D01*
X8938333Y-16101571D01*
X8938333Y-16120619D01*
X8928810Y-16149190D01*
X8814524Y-16263476D01*
X8938333Y-16263476D01*
X9176429Y-16263476D02*
X9176429Y-16063476D01*
X9262143Y-16263476D02*
X9262143Y-16158714D01*
X9252619Y-16139667D01*
X9233571Y-16130143D01*
X9205000Y-16130143D01*
X9185952Y-16139667D01*
X9176429Y-16149190D01*
X9385952Y-16263476D02*
X9366905Y-16253952D01*
X9357381Y-16244428D01*
X9347857Y-16225381D01*
X9347857Y-16168238D01*
X9357381Y-16149190D01*
X9366905Y-16139667D01*
X9385952Y-16130143D01*
X9414524Y-16130143D01*
X9433571Y-16139667D01*
X9443095Y-16149190D01*
X9452619Y-16168238D01*
X9452619Y-16225381D01*
X9443095Y-16244428D01*
X9433571Y-16253952D01*
X9414524Y-16263476D01*
X9385952Y-16263476D01*
X9566905Y-16263476D02*
X9547857Y-16253952D01*
X9538333Y-16234905D01*
X9538333Y-16063476D01*
X9719286Y-16253952D02*
X9700238Y-16263476D01*
X9662143Y-16263476D01*
X9643095Y-16253952D01*
X9633571Y-16234905D01*
X9633571Y-16158714D01*
X9643095Y-16139667D01*
X9662143Y-16130143D01*
X9700238Y-16130143D01*
X9719286Y-16139667D01*
X9728810Y-16158714D01*
X9728810Y-16177762D01*
X9633571Y-16196809D01*
X9805000Y-16253952D02*
X9824048Y-16263476D01*
X9862143Y-16263476D01*
X9881190Y-16253952D01*
X9890714Y-16234905D01*
X9890714Y-16225381D01*
X9881190Y-16206333D01*
X9862143Y-16196809D01*
X9833571Y-16196809D01*
X9814524Y-16187286D01*
X9805000Y-16168238D01*
X9805000Y-16158714D01*
X9814524Y-16139667D01*
X9833571Y-16130143D01*
X9862143Y-16130143D01*
X9881190Y-16139667D01*
X9957381Y-16339667D02*
X9966905Y-16330143D01*
X9985952Y-16301571D01*
X9995476Y-16282524D01*
X10005000Y-16253952D01*
X10014524Y-16206333D01*
X10014524Y-16168238D01*
X10005000Y-16120619D01*
X9995476Y-16092048D01*
X9985952Y-16073000D01*
X9966905Y-16044428D01*
X9957381Y-16034905D01*
D10*
X4980356Y-16472356D02*
X4980356Y-16401644D01*
X4909644Y-16401644D01*
X4909644Y-16472356D01*
X4980356Y-16472356D01*
D11*
X5357381Y-16527476D02*
X5243095Y-16527476D01*
X5300238Y-16527476D02*
X5300238Y-16327476D01*
X5281190Y-16356048D01*
X5262143Y-16375095D01*
X5243095Y-16384619D01*
X5443095Y-16508428D02*
X5452619Y-16517952D01*
X5443095Y-16527476D01*
X5433571Y-16517952D01*
X5443095Y-16508428D01*
X5443095Y-16527476D01*
X5576429Y-16327476D02*
X5595476Y-16327476D01*
X5614524Y-16337000D01*
X5624048Y-16346524D01*
X5633571Y-16365571D01*
X5643095Y-16403667D01*
X5643095Y-16451286D01*
X5633571Y-16489381D01*
X5624048Y-16508428D01*
X5614524Y-16517952D01*
X5595476Y-16527476D01*
X5576429Y-16527476D01*
X5557381Y-16517952D01*
X5547857Y-16508428D01*
X5538333Y-16489381D01*
X5528810Y-16451286D01*
X5528810Y-16403667D01*
X5538333Y-16365571D01*
X5547857Y-16346524D01*
X5557381Y-16337000D01*
X5576429Y-16327476D01*
X5766905Y-16327476D02*
X5785952Y-16327476D01*
X5805000Y-16337000D01*
X5814524Y-16346524D01*
X5824048Y-16365571D01*
X5833571Y-16403667D01*
X5833571Y-16451286D01*
X5824048Y-16489381D01*
X5814524Y-16508428D01*
X5805000Y-16517952D01*
X5785952Y-16527476D01*
X5766905Y-16527476D01*
X5747857Y-16517952D01*
X5738333Y-16508428D01*
X5728809Y-16489381D01*
X5719286Y-16451286D01*
X5719286Y-16403667D01*
X5728809Y-16365571D01*
X5738333Y-16346524D01*
X5747857Y-16337000D01*
X5766905Y-16327476D01*
X5957381Y-16327476D02*
X5976428Y-16327476D01*
X5995476Y-16337000D01*
X6005000Y-16346524D01*
X6014524Y-16365571D01*
X6024048Y-16403667D01*
X6024048Y-16451286D01*
X6014524Y-16489381D01*
X6005000Y-16508428D01*
X5995476Y-16517952D01*
X5976428Y-16527476D01*
X5957381Y-16527476D01*
X5938333Y-16517952D01*
X5928809Y-16508428D01*
X5919286Y-16489381D01*
X5909762Y-16451286D01*
X5909762Y-16403667D01*
X5919286Y-16365571D01*
X5928809Y-16346524D01*
X5938333Y-16337000D01*
X5957381Y-16327476D01*
X6109762Y-16527476D02*
X6109762Y-16394143D01*
X6109762Y-16413190D02*
X6119286Y-16403667D01*
X6138333Y-16394143D01*
X6166905Y-16394143D01*
X6185952Y-16403667D01*
X6195476Y-16422714D01*
X6195476Y-16527476D01*
X6195476Y-16422714D02*
X6205000Y-16403667D01*
X6224048Y-16394143D01*
X6252619Y-16394143D01*
X6271667Y-16403667D01*
X6281190Y-16422714D01*
X6281190Y-16527476D01*
X6376428Y-16527476D02*
X6376428Y-16394143D01*
X6376428Y-16413190D02*
X6385952Y-16403667D01*
X6405000Y-16394143D01*
X6433571Y-16394143D01*
X6452619Y-16403667D01*
X6462143Y-16422714D01*
X6462143Y-16527476D01*
X6462143Y-16422714D02*
X6471667Y-16403667D01*
X6490714Y-16394143D01*
X6519286Y-16394143D01*
X6538333Y-16403667D01*
X6547857Y-16422714D01*
X6547857Y-16527476D01*
X6938333Y-16317952D02*
X6766905Y-16575095D01*
X7195476Y-16327476D02*
X7214524Y-16327476D01*
X7233571Y-16337000D01*
X7243095Y-16346524D01*
X7252619Y-16365571D01*
X7262143Y-16403667D01*
X7262143Y-16451286D01*
X7252619Y-16489381D01*
X7243095Y-16508428D01*
X7233571Y-16517952D01*
X7214524Y-16527476D01*
X7195476Y-16527476D01*
X7176428Y-16517952D01*
X7166905Y-16508428D01*
X7157381Y-16489381D01*
X7147857Y-16451286D01*
X7147857Y-16403667D01*
X7157381Y-16365571D01*
X7166905Y-16346524D01*
X7176428Y-16337000D01*
X7195476Y-16327476D01*
X7347857Y-16508428D02*
X7357381Y-16517952D01*
X7347857Y-16527476D01*
X7338333Y-16517952D01*
X7347857Y-16508428D01*
X7347857Y-16527476D01*
X7481190Y-16327476D02*
X7500238Y-16327476D01*
X7519286Y-16337000D01*
X7528809Y-16346524D01*
X7538333Y-16365571D01*
X7547857Y-16403667D01*
X7547857Y-16451286D01*
X7538333Y-16489381D01*
X7528809Y-16508428D01*
X7519286Y-16517952D01*
X7500238Y-16527476D01*
X7481190Y-16527476D01*
X7462143Y-16517952D01*
X7452619Y-16508428D01*
X7443095Y-16489381D01*
X7433571Y-16451286D01*
X7433571Y-16403667D01*
X7443095Y-16365571D01*
X7452619Y-16346524D01*
X7462143Y-16337000D01*
X7481190Y-16327476D01*
X7614524Y-16327476D02*
X7738333Y-16327476D01*
X7671667Y-16403667D01*
X7700238Y-16403667D01*
X7719286Y-16413190D01*
X7728809Y-16422714D01*
X7738333Y-16441762D01*
X7738333Y-16489381D01*
X7728809Y-16508428D01*
X7719286Y-16517952D01*
X7700238Y-16527476D01*
X7643095Y-16527476D01*
X7624048Y-16517952D01*
X7614524Y-16508428D01*
X7833571Y-16527476D02*
X7871667Y-16527476D01*
X7890714Y-16517952D01*
X7900238Y-16508428D01*
X7919286Y-16479857D01*
X7928809Y-16441762D01*
X7928809Y-16365571D01*
X7919286Y-16346524D01*
X7909762Y-16337000D01*
X7890714Y-16327476D01*
X7852619Y-16327476D01*
X7833571Y-16337000D01*
X7824048Y-16346524D01*
X7814524Y-16365571D01*
X7814524Y-16413190D01*
X7824048Y-16432238D01*
X7833571Y-16441762D01*
X7852619Y-16451286D01*
X7890714Y-16451286D01*
X7909762Y-16441762D01*
X7919286Y-16432238D01*
X7928809Y-16413190D01*
X8100238Y-16394143D02*
X8100238Y-16527476D01*
X8052619Y-16317952D02*
X8005000Y-16460809D01*
X8128809Y-16460809D01*
X8195476Y-16327476D02*
X8195476Y-16365571D01*
X8271667Y-16327476D02*
X8271667Y-16365571D01*
X8566905Y-16603667D02*
X8557381Y-16594143D01*
X8538333Y-16565571D01*
X8528810Y-16546524D01*
X8519286Y-16517952D01*
X8509762Y-16470333D01*
X8509762Y-16432238D01*
X8519286Y-16384619D01*
X8528810Y-16356048D01*
X8538333Y-16337000D01*
X8557381Y-16308428D01*
X8566905Y-16298905D01*
X8624048Y-16327476D02*
X8757381Y-16327476D01*
X8671667Y-16527476D01*
X8871667Y-16327476D02*
X8890714Y-16327476D01*
X8909762Y-16337000D01*
X8919286Y-16346524D01*
X8928810Y-16365571D01*
X8938333Y-16403667D01*
X8938333Y-16451286D01*
X8928810Y-16489381D01*
X8919286Y-16508428D01*
X8909762Y-16517952D01*
X8890714Y-16527476D01*
X8871667Y-16527476D01*
X8852619Y-16517952D01*
X8843095Y-16508428D01*
X8833571Y-16489381D01*
X8824048Y-16451286D01*
X8824048Y-16403667D01*
X8833571Y-16365571D01*
X8843095Y-16346524D01*
X8852619Y-16337000D01*
X8871667Y-16327476D01*
X9005000Y-16327476D02*
X9138333Y-16327476D01*
X9052619Y-16527476D01*
X9366905Y-16527476D02*
X9366905Y-16327476D01*
X9452619Y-16527476D02*
X9452619Y-16422714D01*
X9443095Y-16403667D01*
X9424048Y-16394143D01*
X9395476Y-16394143D01*
X9376429Y-16403667D01*
X9366905Y-16413190D01*
X9576429Y-16527476D02*
X9557381Y-16517952D01*
X9547857Y-16508428D01*
X9538333Y-16489381D01*
X9538333Y-16432238D01*
X9547857Y-16413190D01*
X9557381Y-16403667D01*
X9576429Y-16394143D01*
X9605000Y-16394143D01*
X9624048Y-16403667D01*
X9633571Y-16413190D01*
X9643095Y-16432238D01*
X9643095Y-16489381D01*
X9633571Y-16508428D01*
X9624048Y-16517952D01*
X9605000Y-16527476D01*
X9576429Y-16527476D01*
X9757381Y-16527476D02*
X9738333Y-16517952D01*
X9728810Y-16498905D01*
X9728810Y-16327476D01*
X9909762Y-16517952D02*
X9890714Y-16527476D01*
X9852619Y-16527476D01*
X9833571Y-16517952D01*
X9824048Y-16498905D01*
X9824048Y-16422714D01*
X9833571Y-16403667D01*
X9852619Y-16394143D01*
X9890714Y-16394143D01*
X9909762Y-16403667D01*
X9919286Y-16422714D01*
X9919286Y-16441762D01*
X9824048Y-16460809D01*
X9995476Y-16517952D02*
X10014524Y-16527476D01*
X10052619Y-16527476D01*
X10071667Y-16517952D01*
X10081190Y-16498905D01*
X10081190Y-16489381D01*
X10071667Y-16470333D01*
X10052619Y-16460809D01*
X10024048Y-16460809D01*
X10005000Y-16451286D01*
X9995476Y-16432238D01*
X9995476Y-16422714D01*
X10005000Y-16403667D01*
X10024048Y-16394143D01*
X10052619Y-16394143D01*
X10071667Y-16403667D01*
X10319286Y-16451286D02*
X10471667Y-16451286D01*
X10395476Y-16527476D02*
X10395476Y-16375095D01*
X10700238Y-16327476D02*
X10824048Y-16327476D01*
X10757381Y-16403667D01*
X10785952Y-16403667D01*
X10805000Y-16413190D01*
X10814524Y-16422714D01*
X10824048Y-16441762D01*
X10824048Y-16489381D01*
X10814524Y-16508428D01*
X10805000Y-16517952D01*
X10785952Y-16527476D01*
X10728810Y-16527476D01*
X10709762Y-16517952D01*
X10700238Y-16508428D01*
X11052619Y-16517952D02*
X11071667Y-16527476D01*
X11109762Y-16527476D01*
X11128810Y-16517952D01*
X11138333Y-16498905D01*
X11138333Y-16489381D01*
X11128810Y-16470333D01*
X11109762Y-16460809D01*
X11081190Y-16460809D01*
X11062143Y-16451286D01*
X11052619Y-16432238D01*
X11052619Y-16422714D01*
X11062143Y-16403667D01*
X11081190Y-16394143D01*
X11109762Y-16394143D01*
X11128810Y-16403667D01*
X11252619Y-16527476D02*
X11233571Y-16517952D01*
X11224048Y-16498905D01*
X11224048Y-16327476D01*
X11357381Y-16527476D02*
X11338333Y-16517952D01*
X11328809Y-16508428D01*
X11319286Y-16489381D01*
X11319286Y-16432238D01*
X11328809Y-16413190D01*
X11338333Y-16403667D01*
X11357381Y-16394143D01*
X11385952Y-16394143D01*
X11405000Y-16403667D01*
X11414524Y-16413190D01*
X11424048Y-16432238D01*
X11424048Y-16489381D01*
X11414524Y-16508428D01*
X11405000Y-16517952D01*
X11385952Y-16527476D01*
X11357381Y-16527476D01*
X11481190Y-16394143D02*
X11557381Y-16394143D01*
X11509762Y-16327476D02*
X11509762Y-16498905D01*
X11519286Y-16517952D01*
X11538333Y-16527476D01*
X11557381Y-16527476D01*
X11614524Y-16517952D02*
X11633571Y-16527476D01*
X11671667Y-16527476D01*
X11690714Y-16517952D01*
X11700238Y-16498905D01*
X11700238Y-16489381D01*
X11690714Y-16470333D01*
X11671667Y-16460809D01*
X11643095Y-16460809D01*
X11624048Y-16451286D01*
X11614524Y-16432238D01*
X11614524Y-16422714D01*
X11624048Y-16403667D01*
X11643095Y-16394143D01*
X11671667Y-16394143D01*
X11690714Y-16403667D01*
X11766905Y-16603667D02*
X11776428Y-16594143D01*
X11795476Y-16565571D01*
X11805000Y-16546524D01*
X11814524Y-16517952D01*
X11824048Y-16470333D01*
X11824048Y-16432238D01*
X11814524Y-16384619D01*
X11805000Y-16356048D01*
X11795476Y-16337000D01*
X11776428Y-16308428D01*
X11766905Y-16298905D01*
D15*
X4940000Y-16756000D02*
X4995000Y-16701000D01*
X4940000Y-16646000D01*
X4885000Y-16701000D01*
X4940000Y-16756000D01*
D11*
X5357381Y-16791476D02*
X5243095Y-16791476D01*
X5300238Y-16791476D02*
X5300238Y-16591476D01*
X5281190Y-16620048D01*
X5262143Y-16639095D01*
X5243095Y-16648619D01*
X5443095Y-16772428D02*
X5452619Y-16781952D01*
X5443095Y-16791476D01*
X5433571Y-16781952D01*
X5443095Y-16772428D01*
X5443095Y-16791476D01*
X5643095Y-16791476D02*
X5528810Y-16791476D01*
X5585952Y-16791476D02*
X5585952Y-16591476D01*
X5566905Y-16620048D01*
X5547857Y-16639095D01*
X5528810Y-16648619D01*
X5766905Y-16591476D02*
X5785952Y-16591476D01*
X5805000Y-16601000D01*
X5814524Y-16610524D01*
X5824048Y-16629571D01*
X5833571Y-16667667D01*
X5833571Y-16715286D01*
X5824048Y-16753381D01*
X5814524Y-16772428D01*
X5805000Y-16781952D01*
X5785952Y-16791476D01*
X5766905Y-16791476D01*
X5747857Y-16781952D01*
X5738333Y-16772428D01*
X5728809Y-16753381D01*
X5719286Y-16715286D01*
X5719286Y-16667667D01*
X5728809Y-16629571D01*
X5738333Y-16610524D01*
X5747857Y-16601000D01*
X5766905Y-16591476D01*
X5957381Y-16591476D02*
X5976428Y-16591476D01*
X5995476Y-16601000D01*
X6005000Y-16610524D01*
X6014524Y-16629571D01*
X6024048Y-16667667D01*
X6024048Y-16715286D01*
X6014524Y-16753381D01*
X6005000Y-16772428D01*
X5995476Y-16781952D01*
X5976428Y-16791476D01*
X5957381Y-16791476D01*
X5938333Y-16781952D01*
X5928809Y-16772428D01*
X5919286Y-16753381D01*
X5909762Y-16715286D01*
X5909762Y-16667667D01*
X5919286Y-16629571D01*
X5928809Y-16610524D01*
X5938333Y-16601000D01*
X5957381Y-16591476D01*
X6109762Y-16791476D02*
X6109762Y-16658143D01*
X6109762Y-16677190D02*
X6119286Y-16667667D01*
X6138333Y-16658143D01*
X6166905Y-16658143D01*
X6185952Y-16667667D01*
X6195476Y-16686714D01*
X6195476Y-16791476D01*
X6195476Y-16686714D02*
X6205000Y-16667667D01*
X6224048Y-16658143D01*
X6252619Y-16658143D01*
X6271667Y-16667667D01*
X6281190Y-16686714D01*
X6281190Y-16791476D01*
X6376428Y-16791476D02*
X6376428Y-16658143D01*
X6376428Y-16677190D02*
X6385952Y-16667667D01*
X6405000Y-16658143D01*
X6433571Y-16658143D01*
X6452619Y-16667667D01*
X6462143Y-16686714D01*
X6462143Y-16791476D01*
X6462143Y-16686714D02*
X6471667Y-16667667D01*
X6490714Y-16658143D01*
X6519286Y-16658143D01*
X6538333Y-16667667D01*
X6547857Y-16686714D01*
X6547857Y-16791476D01*
X6938333Y-16581952D02*
X6766905Y-16839095D01*
X7195476Y-16591476D02*
X7214524Y-16591476D01*
X7233571Y-16601000D01*
X7243095Y-16610524D01*
X7252619Y-16629571D01*
X7262143Y-16667667D01*
X7262143Y-16715286D01*
X7252619Y-16753381D01*
X7243095Y-16772428D01*
X7233571Y-16781952D01*
X7214524Y-16791476D01*
X7195476Y-16791476D01*
X7176428Y-16781952D01*
X7166905Y-16772428D01*
X7157381Y-16753381D01*
X7147857Y-16715286D01*
X7147857Y-16667667D01*
X7157381Y-16629571D01*
X7166905Y-16610524D01*
X7176428Y-16601000D01*
X7195476Y-16591476D01*
X7347857Y-16772428D02*
X7357381Y-16781952D01*
X7347857Y-16791476D01*
X7338333Y-16781952D01*
X7347857Y-16772428D01*
X7347857Y-16791476D01*
X7481190Y-16591476D02*
X7500238Y-16591476D01*
X7519286Y-16601000D01*
X7528809Y-16610524D01*
X7538333Y-16629571D01*
X7547857Y-16667667D01*
X7547857Y-16715286D01*
X7538333Y-16753381D01*
X7528809Y-16772428D01*
X7519286Y-16781952D01*
X7500238Y-16791476D01*
X7481190Y-16791476D01*
X7462143Y-16781952D01*
X7452619Y-16772428D01*
X7443095Y-16753381D01*
X7433571Y-16715286D01*
X7433571Y-16667667D01*
X7443095Y-16629571D01*
X7452619Y-16610524D01*
X7462143Y-16601000D01*
X7481190Y-16591476D01*
X7719286Y-16658143D02*
X7719286Y-16791476D01*
X7671667Y-16581952D02*
X7624048Y-16724809D01*
X7747857Y-16724809D01*
X7805000Y-16591476D02*
X7928809Y-16591476D01*
X7862143Y-16667667D01*
X7890714Y-16667667D01*
X7909762Y-16677190D01*
X7919286Y-16686714D01*
X7928809Y-16705762D01*
X7928809Y-16753381D01*
X7919286Y-16772428D01*
X7909762Y-16781952D01*
X7890714Y-16791476D01*
X7833571Y-16791476D01*
X7814524Y-16781952D01*
X7805000Y-16772428D01*
X7995476Y-16591476D02*
X8119286Y-16591476D01*
X8052619Y-16667667D01*
X8081190Y-16667667D01*
X8100238Y-16677190D01*
X8109762Y-16686714D01*
X8119286Y-16705762D01*
X8119286Y-16753381D01*
X8109762Y-16772428D01*
X8100238Y-16781952D01*
X8081190Y-16791476D01*
X8024048Y-16791476D01*
X8005000Y-16781952D01*
X7995476Y-16772428D01*
X8195476Y-16591476D02*
X8195476Y-16629571D01*
X8271667Y-16591476D02*
X8271667Y-16629571D01*
X8566905Y-16867667D02*
X8557381Y-16858143D01*
X8538333Y-16829571D01*
X8528810Y-16810524D01*
X8519286Y-16781952D01*
X8509762Y-16734333D01*
X8509762Y-16696238D01*
X8519286Y-16648619D01*
X8528810Y-16620048D01*
X8538333Y-16601000D01*
X8557381Y-16572428D01*
X8566905Y-16562905D01*
X8652619Y-16791476D02*
X8690714Y-16791476D01*
X8709762Y-16781952D01*
X8719286Y-16772428D01*
X8738333Y-16743857D01*
X8747857Y-16705762D01*
X8747857Y-16629571D01*
X8738333Y-16610524D01*
X8728810Y-16601000D01*
X8709762Y-16591476D01*
X8671667Y-16591476D01*
X8652619Y-16601000D01*
X8643095Y-16610524D01*
X8633571Y-16629571D01*
X8633571Y-16677190D01*
X8643095Y-16696238D01*
X8652619Y-16705762D01*
X8671667Y-16715286D01*
X8709762Y-16715286D01*
X8728810Y-16705762D01*
X8738333Y-16696238D01*
X8747857Y-16677190D01*
X8985952Y-16791476D02*
X8985952Y-16591476D01*
X9071667Y-16791476D02*
X9071667Y-16686714D01*
X9062143Y-16667667D01*
X9043095Y-16658143D01*
X9014524Y-16658143D01*
X8995476Y-16667667D01*
X8985952Y-16677190D01*
X9195476Y-16791476D02*
X9176429Y-16781952D01*
X9166905Y-16772428D01*
X9157381Y-16753381D01*
X9157381Y-16696238D01*
X9166905Y-16677190D01*
X9176429Y-16667667D01*
X9195476Y-16658143D01*
X9224048Y-16658143D01*
X9243095Y-16667667D01*
X9252619Y-16677190D01*
X9262143Y-16696238D01*
X9262143Y-16753381D01*
X9252619Y-16772428D01*
X9243095Y-16781952D01*
X9224048Y-16791476D01*
X9195476Y-16791476D01*
X9376429Y-16791476D02*
X9357381Y-16781952D01*
X9347857Y-16762905D01*
X9347857Y-16591476D01*
X9528810Y-16781952D02*
X9509762Y-16791476D01*
X9471667Y-16791476D01*
X9452619Y-16781952D01*
X9443095Y-16762905D01*
X9443095Y-16686714D01*
X9452619Y-16667667D01*
X9471667Y-16658143D01*
X9509762Y-16658143D01*
X9528810Y-16667667D01*
X9538333Y-16686714D01*
X9538333Y-16705762D01*
X9443095Y-16724809D01*
X9614524Y-16781952D02*
X9633571Y-16791476D01*
X9671667Y-16791476D01*
X9690714Y-16781952D01*
X9700238Y-16762905D01*
X9700238Y-16753381D01*
X9690714Y-16734333D01*
X9671667Y-16724809D01*
X9643095Y-16724809D01*
X9624048Y-16715286D01*
X9614524Y-16696238D01*
X9614524Y-16686714D01*
X9624048Y-16667667D01*
X9643095Y-16658143D01*
X9671667Y-16658143D01*
X9690714Y-16667667D01*
X9766905Y-16867667D02*
X9776429Y-16858143D01*
X9795476Y-16829571D01*
X9805000Y-16810524D01*
X9814524Y-16781952D01*
X9824048Y-16734333D01*
X9824048Y-16696238D01*
X9814524Y-16648619D01*
X9805000Y-16620048D01*
X9795476Y-16601000D01*
X9776429Y-16572428D01*
X9766905Y-16562905D01*
D16*
X4865000Y-16900000D02*
X4995000Y-17030000D01*
X4995000Y-16900000D02*
X4865000Y-17030000D01*
X4995000Y-16965000D02*
G75*
G03*
X4995000Y-16965000I-65000J0D01*
G01*
D11*
X5357381Y-17055476D02*
X5243095Y-17055476D01*
X5300238Y-17055476D02*
X5300238Y-16855476D01*
X5281190Y-16884048D01*
X5262143Y-16903095D01*
X5243095Y-16912619D01*
X5443095Y-17036429D02*
X5452619Y-17045952D01*
X5443095Y-17055476D01*
X5433571Y-17045952D01*
X5443095Y-17036429D01*
X5443095Y-17055476D01*
X5519286Y-16855476D02*
X5643095Y-16855476D01*
X5576429Y-16931667D01*
X5605000Y-16931667D01*
X5624048Y-16941190D01*
X5633571Y-16950714D01*
X5643095Y-16969762D01*
X5643095Y-17017381D01*
X5633571Y-17036429D01*
X5624048Y-17045952D01*
X5605000Y-17055476D01*
X5547857Y-17055476D01*
X5528810Y-17045952D01*
X5519286Y-17036429D01*
X5766905Y-16855476D02*
X5785952Y-16855476D01*
X5805000Y-16865000D01*
X5814524Y-16874524D01*
X5824048Y-16893571D01*
X5833571Y-16931667D01*
X5833571Y-16979286D01*
X5824048Y-17017381D01*
X5814524Y-17036429D01*
X5805000Y-17045952D01*
X5785952Y-17055476D01*
X5766905Y-17055476D01*
X5747857Y-17045952D01*
X5738333Y-17036429D01*
X5728809Y-17017381D01*
X5719286Y-16979286D01*
X5719286Y-16931667D01*
X5728809Y-16893571D01*
X5738333Y-16874524D01*
X5747857Y-16865000D01*
X5766905Y-16855476D01*
X5957381Y-16855476D02*
X5976428Y-16855476D01*
X5995476Y-16865000D01*
X6005000Y-16874524D01*
X6014524Y-16893571D01*
X6024048Y-16931667D01*
X6024048Y-16979286D01*
X6014524Y-17017381D01*
X6005000Y-17036429D01*
X5995476Y-17045952D01*
X5976428Y-17055476D01*
X5957381Y-17055476D01*
X5938333Y-17045952D01*
X5928809Y-17036429D01*
X5919286Y-17017381D01*
X5909762Y-16979286D01*
X5909762Y-16931667D01*
X5919286Y-16893571D01*
X5928809Y-16874524D01*
X5938333Y-16865000D01*
X5957381Y-16855476D01*
X6109762Y-17055476D02*
X6109762Y-16922143D01*
X6109762Y-16941190D02*
X6119286Y-16931667D01*
X6138333Y-16922143D01*
X6166905Y-16922143D01*
X6185952Y-16931667D01*
X6195476Y-16950714D01*
X6195476Y-17055476D01*
X6195476Y-16950714D02*
X6205000Y-16931667D01*
X6224048Y-16922143D01*
X6252619Y-16922143D01*
X6271667Y-16931667D01*
X6281190Y-16950714D01*
X6281190Y-17055476D01*
X6376428Y-17055476D02*
X6376428Y-16922143D01*
X6376428Y-16941190D02*
X6385952Y-16931667D01*
X6405000Y-16922143D01*
X6433571Y-16922143D01*
X6452619Y-16931667D01*
X6462143Y-16950714D01*
X6462143Y-17055476D01*
X6462143Y-16950714D02*
X6471667Y-16931667D01*
X6490714Y-16922143D01*
X6519286Y-16922143D01*
X6538333Y-16931667D01*
X6547857Y-16950714D01*
X6547857Y-17055476D01*
X6938333Y-16845952D02*
X6766905Y-17103095D01*
X7195476Y-16855476D02*
X7214524Y-16855476D01*
X7233571Y-16865000D01*
X7243095Y-16874524D01*
X7252619Y-16893571D01*
X7262143Y-16931667D01*
X7262143Y-16979286D01*
X7252619Y-17017381D01*
X7243095Y-17036429D01*
X7233571Y-17045952D01*
X7214524Y-17055476D01*
X7195476Y-17055476D01*
X7176428Y-17045952D01*
X7166905Y-17036429D01*
X7157381Y-17017381D01*
X7147857Y-16979286D01*
X7147857Y-16931667D01*
X7157381Y-16893571D01*
X7166905Y-16874524D01*
X7176428Y-16865000D01*
X7195476Y-16855476D01*
X7347857Y-17036429D02*
X7357381Y-17045952D01*
X7347857Y-17055476D01*
X7338333Y-17045952D01*
X7347857Y-17036429D01*
X7347857Y-17055476D01*
X7481190Y-16855476D02*
X7500238Y-16855476D01*
X7519286Y-16865000D01*
X7528809Y-16874524D01*
X7538333Y-16893571D01*
X7547857Y-16931667D01*
X7547857Y-16979286D01*
X7538333Y-17017381D01*
X7528809Y-17036429D01*
X7519286Y-17045952D01*
X7500238Y-17055476D01*
X7481190Y-17055476D01*
X7462143Y-17045952D01*
X7452619Y-17036429D01*
X7443095Y-17017381D01*
X7433571Y-16979286D01*
X7433571Y-16931667D01*
X7443095Y-16893571D01*
X7452619Y-16874524D01*
X7462143Y-16865000D01*
X7481190Y-16855476D01*
X7728809Y-16855476D02*
X7633571Y-16855476D01*
X7624048Y-16950714D01*
X7633571Y-16941190D01*
X7652619Y-16931667D01*
X7700238Y-16931667D01*
X7719286Y-16941190D01*
X7728809Y-16950714D01*
X7738333Y-16969762D01*
X7738333Y-17017381D01*
X7728809Y-17036429D01*
X7719286Y-17045952D01*
X7700238Y-17055476D01*
X7652619Y-17055476D01*
X7633571Y-17045952D01*
X7624048Y-17036429D01*
X7928809Y-17055476D02*
X7814524Y-17055476D01*
X7871667Y-17055476D02*
X7871667Y-16855476D01*
X7852619Y-16884048D01*
X7833571Y-16903095D01*
X7814524Y-16912619D01*
X8005000Y-16874524D02*
X8014524Y-16865000D01*
X8033571Y-16855476D01*
X8081190Y-16855476D01*
X8100238Y-16865000D01*
X8109762Y-16874524D01*
X8119286Y-16893571D01*
X8119286Y-16912619D01*
X8109762Y-16941190D01*
X7995476Y-17055476D01*
X8119286Y-17055476D01*
X8195476Y-16855476D02*
X8195476Y-16893571D01*
X8271667Y-16855476D02*
X8271667Y-16893571D01*
X8566905Y-17131667D02*
X8557381Y-17122143D01*
X8538333Y-17093571D01*
X8528810Y-17074524D01*
X8519286Y-17045952D01*
X8509762Y-16998333D01*
X8509762Y-16960238D01*
X8519286Y-16912619D01*
X8528810Y-16884048D01*
X8538333Y-16865000D01*
X8557381Y-16836429D01*
X8566905Y-16826905D01*
X8633571Y-16874524D02*
X8643095Y-16865000D01*
X8662143Y-16855476D01*
X8709762Y-16855476D01*
X8728810Y-16865000D01*
X8738333Y-16874524D01*
X8747857Y-16893571D01*
X8747857Y-16912619D01*
X8738333Y-16941190D01*
X8624048Y-17055476D01*
X8747857Y-17055476D01*
X8985952Y-17055476D02*
X8985952Y-16855476D01*
X9071667Y-17055476D02*
X9071667Y-16950714D01*
X9062143Y-16931667D01*
X9043095Y-16922143D01*
X9014524Y-16922143D01*
X8995476Y-16931667D01*
X8985952Y-16941190D01*
X9195476Y-17055476D02*
X9176429Y-17045952D01*
X9166905Y-17036429D01*
X9157381Y-17017381D01*
X9157381Y-16960238D01*
X9166905Y-16941190D01*
X9176429Y-16931667D01*
X9195476Y-16922143D01*
X9224048Y-16922143D01*
X9243095Y-16931667D01*
X9252619Y-16941190D01*
X9262143Y-16960238D01*
X9262143Y-17017381D01*
X9252619Y-17036429D01*
X9243095Y-17045952D01*
X9224048Y-17055476D01*
X9195476Y-17055476D01*
X9376429Y-17055476D02*
X9357381Y-17045952D01*
X9347857Y-17026905D01*
X9347857Y-16855476D01*
X9528810Y-17045952D02*
X9509762Y-17055476D01*
X9471667Y-17055476D01*
X9452619Y-17045952D01*
X9443095Y-17026905D01*
X9443095Y-16950714D01*
X9452619Y-16931667D01*
X9471667Y-16922143D01*
X9509762Y-16922143D01*
X9528810Y-16931667D01*
X9538333Y-16950714D01*
X9538333Y-16969762D01*
X9443095Y-16988810D01*
X9614524Y-17045952D02*
X9633571Y-17055476D01*
X9671667Y-17055476D01*
X9690714Y-17045952D01*
X9700238Y-17026905D01*
X9700238Y-17017381D01*
X9690714Y-16998333D01*
X9671667Y-16988810D01*
X9643095Y-16988810D01*
X9624048Y-16979286D01*
X9614524Y-16960238D01*
X9614524Y-16950714D01*
X9624048Y-16931667D01*
X9643095Y-16922143D01*
X9671667Y-16922143D01*
X9690714Y-16931667D01*
X9766905Y-17131667D02*
X9776429Y-17122143D01*
X9795476Y-17093571D01*
X9805000Y-17074524D01*
X9814524Y-17045952D01*
X9824048Y-16998333D01*
X9824048Y-16960238D01*
X9814524Y-16912619D01*
X9805000Y-16884048D01*
X9795476Y-16865000D01*
X9776429Y-16836429D01*
X9766905Y-16826905D01*
M02*
