M48
; DRILL file {KiCad (6.0.11)} date Sun Sep  3 08:35:40 2023
; FORMAT={-:-/ absolute / inch / decimal}
; #@! TF.CreationDate,2023-09-03T08:35:40-04:00
; #@! TF.GenerationSoftware,Kicad,Pcbnew,(6.0.11)
; #@! TF.FileFunction,Plated,1,2,PTH
FMAT,2
INCH
; #@! TA.AperFunction,Plated,PTH,ComponentDrill
T1C0.0315
; #@! TA.AperFunction,Plated,PTH,ComponentDrill
T2C0.0354
; #@! TA.AperFunction,Plated,PTH,ComponentDrill
T3C0.0394
; #@! TA.AperFunction,Plated,PTH,ComponentDrill
T4C0.1260
%
G90
G05
T1
X1.828Y-2.8851
X1.828Y-3.1851
T2
X1.968Y-3.1851
X2.068Y-3.1851
T3
X1.778Y-3.4551
X1.778Y-3.5551
X1.778Y-3.6551
X1.778Y-3.7551
X1.778Y-3.8551
X1.778Y-3.9551
X1.778Y-4.0551
X1.778Y-4.1551
X1.778Y-4.2551
X1.778Y-4.3551
X1.778Y-4.4551
X1.778Y-4.5551
X1.778Y-4.6551
X1.778Y-4.7551
X1.778Y-4.8551
X1.778Y-4.9551
X1.778Y-5.0551
X1.778Y-5.1551
X1.778Y-5.2551
X1.778Y-5.3551
X1.778Y-5.4551
X1.778Y-5.5551
X1.778Y-5.6551
X1.778Y-5.7551
X1.778Y-5.8551
X1.778Y-5.9551
X1.778Y-6.0551
X1.778Y-6.1551
X1.778Y-6.2551
X1.778Y-6.3551
X1.778Y-6.4551
X1.778Y-6.5551
X1.778Y-6.6551
X1.778Y-6.7551
X1.778Y-6.8551
X1.778Y-6.9551
X1.778Y-7.0551
X1.778Y-7.1551
X1.778Y-7.2551
X1.778Y-7.3551
X1.778Y-7.4551
X1.778Y-7.5551
X1.778Y-7.6551
X1.778Y-7.7551
X1.778Y-7.8551
X1.778Y-7.9551
X1.778Y-8.0551
X1.778Y-8.1551
X1.778Y-8.2551
X1.778Y-8.3551
X1.852Y-8.7795
X1.852Y-8.8795
X1.878Y-3.4551
X1.878Y-3.5551
X1.878Y-3.6551
X1.878Y-3.7551
X1.878Y-3.8551
X1.878Y-3.9551
X1.878Y-4.0551
X1.878Y-4.1551
X1.878Y-4.2551
X1.878Y-4.3551
X1.878Y-4.4551
X1.878Y-4.5551
X1.878Y-4.6551
X1.878Y-4.7551
X1.878Y-4.8551
X1.878Y-4.9551
X1.878Y-5.0551
X1.878Y-5.1551
X1.878Y-5.2551
X1.878Y-5.3551
X1.878Y-5.4551
X1.878Y-5.5551
X1.878Y-5.6551
X1.878Y-5.7551
X1.878Y-5.8551
X1.878Y-5.9551
X1.878Y-6.0551
X1.878Y-6.1551
X1.878Y-6.2551
X1.878Y-6.3551
X1.878Y-6.4551
X1.878Y-6.5551
X1.878Y-6.6551
X1.878Y-6.7551
X1.878Y-6.8551
X1.878Y-6.9551
X1.878Y-7.0551
X1.878Y-7.1551
X1.878Y-7.2551
X1.878Y-7.3551
X1.878Y-7.4551
X1.878Y-7.5551
X1.878Y-7.6551
X1.878Y-7.7551
X1.878Y-7.8551
X1.878Y-7.9551
X1.878Y-8.0551
X1.878Y-8.1551
X1.878Y-8.2551
X1.878Y-8.3551
X1.952Y-8.7795
X1.952Y-8.8795
X1.978Y-3.4551
X1.978Y-3.5551
X1.978Y-3.6551
X1.978Y-3.7551
X1.978Y-3.8551
X1.978Y-3.9551
X1.978Y-4.0551
X1.978Y-4.1551
X1.978Y-4.2551
X1.978Y-4.3551
X1.978Y-4.4551
X1.978Y-4.5551
X1.978Y-4.6551
X1.978Y-4.7551
X1.978Y-4.8551
X1.978Y-4.9551
X1.978Y-5.0551
X1.978Y-5.1551
X1.978Y-5.2551
X1.978Y-5.3551
X1.978Y-5.4551
X1.978Y-5.5551
X1.978Y-5.6551
X1.978Y-5.7551
X1.978Y-5.8551
X1.978Y-5.9551
X1.978Y-6.0551
X1.978Y-6.1551
X1.978Y-6.2551
X1.978Y-6.3551
X1.978Y-6.4551
X1.978Y-6.5551
X1.978Y-6.6551
X1.978Y-6.7551
X1.978Y-6.8551
X1.978Y-6.9551
X1.978Y-7.0551
X1.978Y-7.1551
X1.978Y-7.2551
X1.978Y-7.3551
X1.978Y-7.4551
X1.978Y-7.5551
X1.978Y-7.6551
X1.978Y-7.7551
X1.978Y-7.8551
X1.978Y-7.9551
X1.978Y-8.0551
X1.978Y-8.1551
X1.978Y-8.2551
X1.978Y-8.3551
X2.0472Y-8.6024
X2.052Y-8.7795
X2.052Y-8.8795
X2.078Y-3.4551
X2.078Y-3.5551
X2.078Y-3.6551
X2.078Y-3.7551
X2.078Y-3.8551
X2.078Y-3.9551
X2.078Y-4.0551
X2.078Y-4.1551
X2.078Y-4.2551
X2.078Y-4.3551
X2.078Y-4.4551
X2.078Y-4.5551
X2.078Y-4.6551
X2.078Y-4.7551
X2.078Y-4.8551
X2.078Y-4.9551
X2.078Y-5.0551
X2.078Y-5.1551
X2.078Y-5.2551
X2.078Y-5.3551
X2.078Y-5.4551
X2.078Y-5.5551
X2.078Y-5.6551
X2.078Y-5.7551
X2.078Y-5.8551
X2.078Y-5.9551
X2.078Y-6.0551
X2.078Y-6.1551
X2.078Y-6.2551
X2.078Y-6.3551
X2.078Y-6.4551
X2.078Y-6.5551
X2.078Y-6.6551
X2.078Y-6.7551
X2.078Y-6.8551
X2.078Y-6.9551
X2.078Y-7.0551
X2.078Y-7.1551
X2.078Y-7.2551
X2.078Y-7.3551
X2.078Y-7.4551
X2.078Y-7.5551
X2.078Y-7.6551
X2.078Y-7.7551
X2.078Y-7.8551
X2.078Y-7.9551
X2.078Y-8.0551
X2.078Y-8.1551
X2.078Y-8.2551
X2.078Y-8.3551
X2.1472Y-8.6024
X2.152Y-8.7795
X2.152Y-8.8795
X2.178Y-3.4551
X2.178Y-3.5551
X2.178Y-3.6551
X2.178Y-3.7551
X2.178Y-3.8551
X2.178Y-3.9551
X2.178Y-4.0551
X2.178Y-4.1551
X2.178Y-4.2551
X2.178Y-4.3551
X2.178Y-4.4551
X2.178Y-4.5551
X2.178Y-4.6551
X2.178Y-4.7551
X2.178Y-4.8551
X2.178Y-4.9551
X2.178Y-5.0551
X2.178Y-5.1551
X2.178Y-5.2551
X2.178Y-5.3551
X2.178Y-5.4551
X2.178Y-5.5551
X2.178Y-5.6551
X2.178Y-5.7551
X2.178Y-5.8551
X2.178Y-5.9551
X2.178Y-6.0551
X2.178Y-6.1551
X2.178Y-6.2551
X2.178Y-6.3551
X2.178Y-6.4551
X2.178Y-6.5551
X2.178Y-6.6551
X2.178Y-6.7551
X2.178Y-6.8551
X2.178Y-6.9551
X2.178Y-7.0551
X2.178Y-7.1551
X2.178Y-7.2551
X2.178Y-7.3551
X2.178Y-7.4551
X2.178Y-7.5551
X2.178Y-7.6551
X2.178Y-7.7551
X2.178Y-7.8551
X2.178Y-7.9551
X2.178Y-8.0551
X2.178Y-8.1551
X2.178Y-8.2551
X2.178Y-8.3551
X2.2472Y-8.6024
X2.252Y-8.7795
X2.252Y-8.8795
X2.278Y-2.9551
X2.278Y-3.0551
X2.278Y-3.1551
X2.278Y-3.2551
X2.278Y-3.3551
X2.278Y-3.4551
X2.278Y-3.5551
X2.278Y-3.6551
X2.278Y-3.7551
X2.278Y-3.8551
X2.278Y-3.9551
X2.278Y-4.0551
X2.278Y-4.1551
X2.278Y-4.2551
X2.278Y-4.3551
X2.278Y-4.4551
X2.278Y-4.5551
X2.278Y-4.6551
X2.278Y-4.7551
X2.278Y-4.8551
X2.278Y-4.9551
X2.278Y-5.0551
X2.278Y-5.1551
X2.278Y-5.2551
X2.278Y-5.3551
X2.278Y-5.4551
X2.278Y-5.5551
X2.278Y-5.6551
X2.278Y-5.7551
X2.278Y-5.8551
X2.278Y-5.9551
X2.278Y-6.0551
X2.278Y-6.1551
X2.278Y-6.2551
X2.278Y-6.3551
X2.278Y-6.4551
X2.278Y-6.5551
X2.278Y-6.6551
X2.278Y-6.7551
X2.278Y-6.8551
X2.278Y-6.9551
X2.278Y-7.0551
X2.278Y-7.1551
X2.278Y-7.2551
X2.278Y-7.3551
X2.278Y-7.4551
X2.278Y-7.5551
X2.278Y-7.6551
X2.278Y-7.7551
X2.278Y-7.8551
X2.278Y-7.9551
X2.278Y-8.0551
X2.278Y-8.1551
X2.278Y-8.2551
X2.278Y-8.3551
X2.3472Y-8.6024
X2.352Y-8.7795
X2.352Y-8.8795
X2.378Y-2.9551
X2.378Y-3.0551
X2.378Y-3.1551
X2.378Y-3.2551
X2.378Y-3.3551
X2.378Y-3.4551
X2.378Y-3.5551
X2.378Y-3.6551
X2.378Y-3.7551
X2.378Y-3.8551
X2.378Y-3.9551
X2.378Y-4.0551
X2.378Y-4.1551
X2.378Y-4.2551
X2.378Y-4.3551
X2.378Y-4.4551
X2.378Y-4.5551
X2.378Y-4.6551
X2.378Y-4.7551
X2.378Y-4.8551
X2.378Y-4.9551
X2.378Y-5.0551
X2.378Y-5.1551
X2.378Y-5.2551
X2.378Y-5.3551
X2.378Y-5.4551
X2.378Y-5.5551
X2.378Y-5.6551
X2.378Y-5.7551
X2.378Y-5.8551
X2.378Y-5.9551
X2.378Y-6.0551
X2.378Y-6.1551
X2.378Y-6.2551
X2.378Y-6.3551
X2.378Y-6.4551
X2.378Y-6.5551
X2.378Y-6.6551
X2.378Y-6.7551
X2.378Y-6.8551
X2.378Y-6.9551
X2.378Y-7.0551
X2.378Y-7.1551
X2.378Y-7.2551
X2.378Y-7.3551
X2.378Y-7.4551
X2.378Y-7.5551
X2.378Y-7.6551
X2.378Y-7.7551
X2.378Y-7.8551
X2.378Y-7.9551
X2.378Y-8.0551
X2.378Y-8.1551
X2.378Y-8.2551
X2.378Y-8.3551
X2.452Y-8.7795
X2.452Y-8.8795
X2.478Y-2.9551
X2.478Y-3.0551
X2.478Y-3.1551
X2.478Y-3.2551
X2.478Y-3.3551
X2.478Y-3.4551
X2.478Y-3.5551
X2.478Y-3.6551
X2.478Y-3.7551
X2.478Y-3.8551
X2.478Y-3.9551
X2.478Y-4.0551
X2.478Y-4.1551
X2.478Y-4.2551
X2.478Y-4.3551
X2.478Y-4.4551
X2.478Y-4.5551
X2.478Y-4.6551
X2.478Y-4.7551
X2.478Y-4.8551
X2.478Y-4.9551
X2.478Y-5.0551
X2.478Y-5.1551
X2.478Y-5.2551
X2.478Y-5.3551
X2.478Y-5.4551
X2.478Y-5.5551
X2.478Y-5.6551
X2.478Y-5.7551
X2.478Y-5.8551
X2.478Y-5.9551
X2.478Y-6.0551
X2.478Y-6.1551
X2.478Y-6.2551
X2.478Y-6.3551
X2.478Y-6.4551
X2.478Y-6.5551
X2.478Y-6.6551
X2.478Y-6.7551
X2.478Y-6.8551
X2.478Y-6.9551
X2.478Y-7.0551
X2.478Y-7.1551
X2.478Y-7.2551
X2.478Y-7.3551
X2.478Y-7.4551
X2.478Y-7.5551
X2.478Y-7.6551
X2.478Y-7.7551
X2.478Y-7.8551
X2.478Y-7.9551
X2.478Y-8.0551
X2.478Y-8.1551
X2.478Y-8.2551
X2.478Y-8.3551
X2.552Y-8.7795
X2.552Y-8.8795
X2.578Y-2.9551
X2.578Y-3.0551
X2.578Y-3.1551
X2.578Y-3.2551
X2.578Y-3.3551
X2.578Y-3.4551
X2.578Y-3.5551
X2.578Y-3.6551
X2.578Y-3.7551
X2.578Y-3.8551
X2.578Y-3.9551
X2.578Y-4.0551
X2.578Y-4.1551
X2.578Y-4.2551
X2.578Y-4.3551
X2.578Y-4.4551
X2.578Y-4.5551
X2.578Y-4.6551
X2.578Y-4.7551
X2.578Y-4.8551
X2.578Y-4.9551
X2.578Y-5.0551
X2.578Y-5.1551
X2.578Y-5.2551
X2.578Y-5.3551
X2.578Y-5.4551
X2.578Y-5.5551
X2.578Y-5.6551
X2.578Y-5.7551
X2.578Y-5.8551
X2.578Y-5.9551
X2.578Y-6.0551
X2.578Y-6.1551
X2.578Y-6.2551
X2.578Y-6.3551
X2.578Y-6.4551
X2.578Y-6.5551
X2.578Y-6.6551
X2.578Y-6.7551
X2.578Y-6.8551
X2.578Y-6.9551
X2.578Y-7.0551
X2.578Y-7.1551
X2.578Y-7.2551
X2.578Y-7.3551
X2.578Y-7.4551
X2.578Y-7.5551
X2.578Y-7.6551
X2.578Y-7.7551
X2.578Y-7.8551
X2.578Y-7.9551
X2.578Y-8.0551
X2.578Y-8.1551
X2.578Y-8.2551
X2.578Y-8.3551
X2.652Y-8.7795
X2.652Y-8.8795
X2.678Y-2.9551
X2.678Y-3.0551
X2.678Y-3.1551
X2.678Y-3.2551
X2.678Y-3.3551
X2.678Y-3.4551
X2.678Y-3.5551
X2.678Y-3.6551
X2.678Y-3.7551
X2.678Y-3.8551
X2.678Y-3.9551
X2.678Y-4.0551
X2.678Y-4.1551
X2.678Y-4.2551
X2.678Y-4.3551
X2.678Y-4.4551
X2.678Y-4.5551
X2.678Y-4.6551
X2.678Y-4.7551
X2.678Y-4.8551
X2.678Y-4.9551
X2.678Y-5.0551
X2.678Y-5.1551
X2.678Y-5.2551
X2.678Y-5.3551
X2.678Y-5.4551
X2.678Y-5.5551
X2.678Y-5.6551
X2.678Y-5.7551
X2.678Y-5.8551
X2.678Y-5.9551
X2.678Y-6.0551
X2.678Y-6.1551
X2.678Y-6.2551
X2.678Y-6.3551
X2.678Y-6.4551
X2.678Y-6.5551
X2.678Y-6.6551
X2.678Y-6.7551
X2.678Y-6.8551
X2.678Y-6.9551
X2.678Y-7.0551
X2.678Y-7.1551
X2.678Y-7.2551
X2.678Y-7.3551
X2.678Y-7.4551
X2.678Y-7.5551
X2.678Y-7.6551
X2.678Y-7.7551
X2.678Y-7.8551
X2.678Y-7.9551
X2.678Y-8.0551
X2.678Y-8.1551
X2.678Y-8.2551
X2.678Y-8.3551
X2.752Y-8.7795
X2.752Y-8.8795
X2.778Y-2.9551
X2.778Y-3.0551
X2.778Y-3.1551
X2.778Y-3.2551
X2.778Y-3.3551
X2.778Y-3.4551
X2.778Y-3.5551
X2.778Y-3.6551
X2.778Y-3.7551
X2.778Y-3.8551
X2.778Y-3.9551
X2.778Y-4.0551
X2.778Y-4.1551
X2.778Y-4.2551
X2.778Y-4.3551
X2.778Y-4.4551
X2.778Y-4.5551
X2.778Y-4.6551
X2.778Y-4.7551
X2.778Y-4.8551
X2.778Y-4.9551
X2.778Y-5.0551
X2.778Y-5.1551
X2.778Y-5.2551
X2.778Y-5.3551
X2.778Y-5.4551
X2.778Y-5.5551
X2.778Y-5.6551
X2.778Y-5.7551
X2.778Y-5.8551
X2.778Y-5.9551
X2.778Y-6.0551
X2.778Y-6.1551
X2.778Y-6.2551
X2.778Y-6.3551
X2.778Y-6.4551
X2.778Y-6.5551
X2.778Y-6.6551
X2.778Y-6.7551
X2.778Y-6.8551
X2.778Y-6.9551
X2.778Y-7.0551
X2.778Y-7.1551
X2.778Y-7.2551
X2.778Y-7.3551
X2.778Y-7.4551
X2.778Y-7.5551
X2.778Y-7.6551
X2.778Y-7.7551
X2.778Y-7.8551
X2.778Y-7.9551
X2.778Y-8.0551
X2.778Y-8.1551
X2.778Y-8.2551
X2.778Y-8.3551
X2.852Y-8.7795
X2.852Y-8.8795
X2.878Y-2.9551
X2.878Y-3.0551
X2.878Y-3.1551
X2.878Y-3.2551
X2.878Y-3.3551
X2.878Y-3.4551
X2.878Y-3.5551
X2.878Y-3.6551
X2.878Y-3.7551
X2.878Y-3.8551
X2.878Y-3.9551
X2.878Y-4.0551
X2.878Y-4.1551
X2.878Y-4.2551
X2.878Y-4.3551
X2.878Y-4.4551
X2.878Y-4.5551
X2.878Y-4.6551
X2.878Y-4.7551
X2.878Y-4.8551
X2.878Y-4.9551
X2.878Y-5.0551
X2.878Y-5.1551
X2.878Y-5.2551
X2.878Y-5.3551
X2.878Y-5.4551
X2.878Y-5.5551
X2.878Y-5.6551
X2.878Y-5.7551
X2.878Y-5.8551
X2.878Y-5.9551
X2.878Y-6.0551
X2.878Y-6.1551
X2.878Y-6.2551
X2.878Y-6.3551
X2.878Y-6.4551
X2.878Y-6.5551
X2.878Y-6.6551
X2.878Y-6.7551
X2.878Y-6.8551
X2.878Y-6.9551
X2.878Y-7.0551
X2.878Y-7.1551
X2.878Y-7.2551
X2.878Y-7.3551
X2.878Y-7.4551
X2.878Y-7.5551
X2.878Y-7.6551
X2.878Y-7.7551
X2.878Y-7.8551
X2.878Y-7.9551
X2.878Y-8.0551
X2.878Y-8.1551
X2.878Y-8.2551
X2.878Y-8.3551
X2.952Y-8.7795
X2.952Y-8.8795
X2.978Y-2.9551
X2.978Y-3.0551
X2.978Y-3.1551
X2.978Y-3.2551
X2.978Y-3.3551
X2.978Y-3.4551
X2.978Y-3.5551
X2.978Y-3.6551
X2.978Y-3.7551
X2.978Y-3.8551
X2.978Y-3.9551
X2.978Y-4.0551
X2.978Y-4.1551
X2.978Y-4.2551
X2.978Y-4.3551
X2.978Y-4.4551
X2.978Y-4.5551
X2.978Y-4.6551
X2.978Y-4.7551
X2.978Y-4.8551
X2.978Y-4.9551
X2.978Y-5.0551
X2.978Y-5.1551
X2.978Y-5.2551
X2.978Y-5.3551
X2.978Y-5.4551
X2.978Y-5.5551
X2.978Y-5.6551
X2.978Y-5.7551
X2.978Y-5.8551
X2.978Y-5.9551
X2.978Y-6.0551
X2.978Y-6.1551
X2.978Y-6.2551
X2.978Y-6.3551
X2.978Y-6.4551
X2.978Y-6.5551
X2.978Y-6.6551
X2.978Y-6.7551
X2.978Y-6.8551
X2.978Y-6.9551
X2.978Y-7.0551
X2.978Y-7.1551
X2.978Y-7.2551
X2.978Y-7.3551
X2.978Y-7.4551
X2.978Y-7.5551
X2.978Y-7.6551
X2.978Y-7.7551
X2.978Y-7.8551
X2.978Y-7.9551
X2.978Y-8.0551
X2.978Y-8.1551
X2.978Y-8.2551
X2.978Y-8.3551
X3.052Y-8.7795
X3.052Y-8.8795
X3.078Y-2.9551
X3.078Y-3.0551
X3.078Y-3.1551
X3.078Y-3.2551
X3.078Y-3.3551
X3.078Y-3.4551
X3.078Y-3.5551
X3.078Y-3.6551
X3.078Y-3.7551
X3.078Y-3.8551
X3.078Y-3.9551
X3.078Y-4.0551
X3.078Y-4.1551
X3.078Y-4.2551
X3.078Y-4.3551
X3.078Y-4.4551
X3.078Y-4.5551
X3.078Y-4.6551
X3.078Y-4.7551
X3.078Y-4.8551
X3.078Y-4.9551
X3.078Y-5.0551
X3.078Y-5.1551
X3.078Y-5.2551
X3.078Y-5.3551
X3.078Y-5.4551
X3.078Y-5.5551
X3.078Y-5.6551
X3.078Y-5.7551
X3.078Y-5.8551
X3.078Y-5.9551
X3.078Y-6.0551
X3.078Y-6.1551
X3.078Y-6.2551
X3.078Y-6.3551
X3.078Y-6.4551
X3.078Y-6.5551
X3.078Y-6.6551
X3.078Y-6.7551
X3.078Y-6.8551
X3.078Y-6.9551
X3.078Y-7.0551
X3.078Y-7.1551
X3.078Y-7.2551
X3.078Y-7.3551
X3.078Y-7.4551
X3.078Y-7.5551
X3.078Y-7.6551
X3.078Y-7.7551
X3.078Y-7.8551
X3.078Y-7.9551
X3.078Y-8.0551
X3.078Y-8.1551
X3.078Y-8.2551
X3.078Y-8.3551
X3.152Y-8.7795
X3.152Y-8.8795
X3.178Y-2.9551
X3.178Y-3.0551
X3.178Y-3.1551
X3.178Y-3.2551
X3.178Y-3.3551
X3.178Y-3.4551
X3.178Y-3.5551
X3.178Y-3.6551
X3.178Y-3.7551
X3.178Y-3.8551
X3.178Y-3.9551
X3.178Y-4.0551
X3.178Y-4.1551
X3.178Y-4.2551
X3.178Y-4.3551
X3.178Y-4.4551
X3.178Y-4.5551
X3.178Y-4.6551
X3.178Y-4.7551
X3.178Y-4.8551
X3.178Y-4.9551
X3.178Y-5.0551
X3.178Y-5.1551
X3.178Y-5.2551
X3.178Y-5.3551
X3.178Y-5.4551
X3.178Y-5.5551
X3.178Y-5.6551
X3.178Y-5.7551
X3.178Y-5.8551
X3.178Y-5.9551
X3.178Y-6.0551
X3.178Y-6.1551
X3.178Y-6.2551
X3.178Y-6.3551
X3.178Y-6.4551
X3.178Y-6.5551
X3.178Y-6.6551
X3.178Y-6.7551
X3.178Y-6.8551
X3.178Y-6.9551
X3.178Y-7.0551
X3.178Y-7.1551
X3.178Y-7.2551
X3.178Y-7.3551
X3.178Y-7.4551
X3.178Y-7.5551
X3.178Y-7.6551
X3.178Y-7.7551
X3.178Y-7.8551
X3.178Y-7.9551
X3.178Y-8.0551
X3.178Y-8.1551
X3.178Y-8.2551
X3.178Y-8.3551
X3.252Y-8.7795
X3.252Y-8.8795
X3.278Y-2.9551
X3.278Y-3.0551
X3.278Y-3.1551
X3.278Y-3.2551
X3.278Y-3.3551
X3.278Y-3.4551
X3.278Y-3.5551
X3.278Y-3.6551
X3.278Y-3.7551
X3.278Y-3.8551
X3.278Y-3.9551
X3.278Y-4.0551
X3.278Y-4.1551
X3.278Y-4.2551
X3.278Y-4.3551
X3.278Y-4.4551
X3.278Y-4.5551
X3.278Y-4.6551
X3.278Y-4.7551
X3.278Y-4.8551
X3.278Y-4.9551
X3.278Y-5.0551
X3.278Y-5.1551
X3.278Y-5.2551
X3.278Y-5.3551
X3.278Y-5.4551
X3.278Y-5.5551
X3.278Y-5.6551
X3.278Y-5.7551
X3.278Y-5.8551
X3.278Y-5.9551
X3.278Y-6.0551
X3.278Y-6.1551
X3.278Y-6.2551
X3.278Y-6.3551
X3.278Y-6.4551
X3.278Y-6.5551
X3.278Y-6.6551
X3.278Y-6.7551
X3.278Y-6.8551
X3.278Y-6.9551
X3.278Y-7.0551
X3.278Y-7.1551
X3.278Y-7.2551
X3.278Y-7.3551
X3.278Y-7.4551
X3.278Y-7.5551
X3.278Y-7.6551
X3.278Y-7.7551
X3.278Y-7.8551
X3.278Y-7.9551
X3.278Y-8.0551
X3.278Y-8.1551
X3.278Y-8.2551
X3.278Y-8.3551
X3.352Y-8.7795
X3.352Y-8.8795
X3.378Y-2.9551
X3.378Y-3.0551
X3.378Y-3.1551
X3.378Y-3.2551
X3.378Y-3.3551
X3.378Y-3.4551
X3.378Y-3.5551
X3.378Y-3.6551
X3.378Y-3.7551
X3.378Y-3.8551
X3.378Y-3.9551
X3.378Y-4.0551
X3.378Y-4.1551
X3.378Y-4.2551
X3.378Y-4.3551
X3.378Y-4.4551
X3.378Y-4.5551
X3.378Y-4.6551
X3.378Y-4.7551
X3.378Y-4.8551
X3.378Y-4.9551
X3.378Y-5.0551
X3.378Y-5.1551
X3.378Y-5.2551
X3.378Y-5.3551
X3.378Y-5.4551
X3.378Y-5.5551
X3.378Y-5.6551
X3.378Y-5.7551
X3.378Y-5.8551
X3.378Y-5.9551
X3.378Y-6.0551
X3.378Y-6.1551
X3.378Y-6.2551
X3.378Y-6.3551
X3.378Y-6.4551
X3.378Y-6.5551
X3.378Y-6.6551
X3.378Y-6.7551
X3.378Y-6.8551
X3.378Y-6.9551
X3.378Y-7.0551
X3.378Y-7.1551
X3.378Y-7.2551
X3.378Y-7.3551
X3.378Y-7.4551
X3.378Y-7.5551
X3.378Y-7.6551
X3.378Y-7.7551
X3.378Y-7.8551
X3.378Y-7.9551
X3.378Y-8.0551
X3.378Y-8.1551
X3.378Y-8.2551
X3.378Y-8.3551
X3.452Y-8.7795
X3.452Y-8.8795
X3.478Y-2.9551
X3.478Y-3.0551
X3.478Y-3.1551
X3.478Y-3.2551
X3.478Y-3.3551
X3.478Y-3.4551
X3.478Y-3.5551
X3.478Y-3.6551
X3.478Y-3.7551
X3.478Y-3.8551
X3.478Y-3.9551
X3.478Y-4.0551
X3.478Y-4.1551
X3.478Y-4.2551
X3.478Y-4.3551
X3.478Y-4.4551
X3.478Y-4.5551
X3.478Y-4.6551
X3.478Y-4.7551
X3.478Y-4.8551
X3.478Y-4.9551
X3.478Y-5.0551
X3.478Y-5.1551
X3.478Y-5.2551
X3.478Y-5.3551
X3.478Y-5.4551
X3.478Y-5.5551
X3.478Y-5.6551
X3.478Y-5.7551
X3.478Y-5.8551
X3.478Y-5.9551
X3.478Y-6.0551
X3.478Y-6.1551
X3.478Y-6.2551
X3.478Y-6.3551
X3.478Y-6.4551
X3.478Y-6.5551
X3.478Y-6.6551
X3.478Y-6.7551
X3.478Y-6.8551
X3.478Y-6.9551
X3.478Y-7.0551
X3.478Y-7.1551
X3.478Y-7.2551
X3.478Y-7.3551
X3.478Y-7.4551
X3.478Y-7.5551
X3.478Y-7.6551
X3.478Y-7.7551
X3.478Y-7.8551
X3.478Y-7.9551
X3.478Y-8.0551
X3.478Y-8.1551
X3.478Y-8.2551
X3.478Y-8.3551
X3.552Y-8.7795
X3.552Y-8.8795
X3.578Y-2.9551
X3.578Y-3.0551
X3.578Y-3.1551
X3.578Y-3.2551
X3.578Y-3.3551
X3.578Y-3.4551
X3.578Y-3.5551
X3.578Y-3.6551
X3.578Y-3.7551
X3.578Y-3.8551
X3.578Y-3.9551
X3.578Y-4.0551
X3.578Y-4.1551
X3.578Y-4.2551
X3.578Y-4.3551
X3.578Y-4.4551
X3.578Y-4.5551
X3.578Y-4.6551
X3.578Y-4.7551
X3.578Y-4.8551
X3.578Y-4.9551
X3.578Y-5.0551
X3.578Y-5.1551
X3.578Y-5.2551
X3.578Y-5.3551
X3.578Y-5.4551
X3.578Y-5.5551
X3.578Y-5.6551
X3.578Y-5.7551
X3.578Y-5.8551
X3.578Y-5.9551
X3.578Y-6.0551
X3.578Y-6.1551
X3.578Y-6.2551
X3.578Y-6.3551
X3.578Y-6.4551
X3.578Y-6.5551
X3.578Y-6.6551
X3.578Y-6.7551
X3.578Y-6.8551
X3.578Y-6.9551
X3.578Y-7.0551
X3.578Y-7.1551
X3.578Y-7.2551
X3.578Y-7.3551
X3.578Y-7.4551
X3.578Y-7.5551
X3.578Y-7.6551
X3.578Y-7.7551
X3.578Y-7.8551
X3.578Y-7.9551
X3.578Y-8.0551
X3.578Y-8.1551
X3.578Y-8.2551
X3.578Y-8.3551
X3.652Y-8.7795
X3.652Y-8.8795
X3.678Y-2.9551
X3.678Y-3.0551
X3.678Y-3.1551
X3.678Y-3.2551
X3.678Y-3.3551
X3.678Y-3.4551
X3.678Y-3.5551
X3.678Y-3.6551
X3.678Y-3.7551
X3.678Y-3.8551
X3.678Y-3.9551
X3.678Y-4.0551
X3.678Y-4.1551
X3.678Y-4.2551
X3.678Y-4.3551
X3.678Y-4.4551
X3.678Y-4.5551
X3.678Y-4.6551
X3.678Y-4.7551
X3.678Y-4.8551
X3.678Y-4.9551
X3.678Y-5.0551
X3.678Y-5.1551
X3.678Y-5.2551
X3.678Y-5.3551
X3.678Y-5.4551
X3.678Y-5.5551
X3.678Y-5.6551
X3.678Y-5.7551
X3.678Y-5.8551
X3.678Y-5.9551
X3.678Y-6.0551
X3.678Y-6.1551
X3.678Y-6.2551
X3.678Y-6.3551
X3.678Y-6.4551
X3.678Y-6.5551
X3.678Y-6.6551
X3.678Y-6.7551
X3.678Y-6.8551
X3.678Y-6.9551
X3.678Y-7.0551
X3.678Y-7.1551
X3.678Y-7.2551
X3.678Y-7.3551
X3.678Y-7.4551
X3.678Y-7.5551
X3.678Y-7.6551
X3.678Y-7.7551
X3.678Y-7.8551
X3.678Y-7.9551
X3.678Y-8.0551
X3.678Y-8.1551
X3.678Y-8.2551
X3.678Y-8.3551
X3.752Y-8.7795
X3.752Y-8.8795
X3.778Y-2.9551
X3.778Y-3.0551
X3.778Y-3.1551
X3.778Y-3.2551
X3.778Y-3.3551
X3.778Y-3.4551
X3.778Y-3.5551
X3.778Y-3.6551
X3.778Y-3.7551
X3.778Y-3.8551
X3.778Y-3.9551
X3.778Y-4.0551
X3.778Y-4.1551
X3.778Y-4.2551
X3.778Y-4.3551
X3.778Y-4.4551
X3.778Y-4.5551
X3.778Y-4.6551
X3.778Y-4.7551
X3.778Y-4.8551
X3.778Y-4.9551
X3.778Y-5.0551
X3.778Y-5.1551
X3.778Y-5.2551
X3.778Y-5.3551
X3.778Y-5.4551
X3.778Y-5.5551
X3.778Y-5.6551
X3.778Y-5.7551
X3.778Y-5.8551
X3.778Y-5.9551
X3.778Y-6.0551
X3.778Y-6.1551
X3.778Y-6.2551
X3.778Y-6.3551
X3.778Y-6.4551
X3.778Y-6.5551
X3.778Y-6.6551
X3.778Y-6.7551
X3.778Y-6.8551
X3.778Y-6.9551
X3.778Y-7.0551
X3.778Y-7.1551
X3.778Y-7.2551
X3.778Y-7.3551
X3.778Y-7.4551
X3.778Y-7.5551
X3.778Y-7.6551
X3.778Y-7.7551
X3.778Y-7.8551
X3.778Y-7.9551
X3.778Y-8.0551
X3.778Y-8.1551
X3.778Y-8.2551
X3.778Y-8.3551
X3.852Y-8.7795
X3.852Y-8.8795
X3.878Y-2.9551
X3.878Y-3.0551
X3.878Y-3.1551
X3.878Y-3.2551
X3.878Y-3.3551
X3.878Y-3.4551
X3.878Y-3.5551
X3.878Y-3.6551
X3.878Y-3.7551
X3.878Y-3.8551
X3.878Y-3.9551
X3.878Y-4.0551
X3.878Y-4.1551
X3.878Y-4.2551
X3.878Y-4.3551
X3.878Y-4.4551
X3.878Y-4.5551
X3.878Y-4.6551
X3.878Y-4.7551
X3.878Y-4.8551
X3.878Y-4.9551
X3.878Y-5.0551
X3.878Y-5.1551
X3.878Y-5.2551
X3.878Y-5.3551
X3.878Y-5.4551
X3.878Y-5.5551
X3.878Y-5.6551
X3.878Y-5.7551
X3.878Y-5.8551
X3.878Y-5.9551
X3.878Y-6.0551
X3.878Y-6.1551
X3.878Y-6.2551
X3.878Y-6.3551
X3.878Y-6.4551
X3.878Y-6.5551
X3.878Y-6.6551
X3.878Y-6.7551
X3.878Y-6.8551
X3.878Y-6.9551
X3.878Y-7.0551
X3.878Y-7.1551
X3.878Y-7.2551
X3.878Y-7.3551
X3.878Y-7.4551
X3.878Y-7.5551
X3.878Y-7.6551
X3.878Y-7.7551
X3.878Y-7.8551
X3.878Y-7.9551
X3.878Y-8.0551
X3.878Y-8.1551
X3.878Y-8.2551
X3.878Y-8.3551
X3.952Y-8.7795
X3.952Y-8.8795
X3.978Y-2.9551
X3.978Y-3.0551
X3.978Y-3.1551
X3.978Y-3.2551
X3.978Y-3.3551
X3.978Y-3.4551
X3.978Y-3.5551
X3.978Y-3.6551
X3.978Y-3.7551
X3.978Y-3.8551
X3.978Y-3.9551
X3.978Y-4.0551
X3.978Y-4.1551
X3.978Y-4.2551
X3.978Y-4.3551
X3.978Y-4.4551
X3.978Y-4.5551
X3.978Y-4.6551
X3.978Y-4.7551
X3.978Y-4.8551
X3.978Y-4.9551
X3.978Y-5.0551
X3.978Y-5.1551
X3.978Y-5.2551
X3.978Y-5.3551
X3.978Y-5.4551
X3.978Y-5.5551
X3.978Y-5.6551
X3.978Y-5.7551
X3.978Y-5.8551
X3.978Y-5.9551
X3.978Y-6.0551
X3.978Y-6.1551
X3.978Y-6.2551
X3.978Y-6.3551
X3.978Y-6.4551
X3.978Y-6.5551
X3.978Y-6.6551
X3.978Y-6.7551
X3.978Y-6.8551
X3.978Y-6.9551
X3.978Y-7.0551
X3.978Y-7.1551
X3.978Y-7.2551
X3.978Y-7.3551
X3.978Y-7.4551
X3.978Y-7.5551
X3.978Y-7.6551
X3.978Y-7.7551
X3.978Y-7.8551
X3.978Y-7.9551
X3.978Y-8.0551
X3.978Y-8.1551
X3.978Y-8.2551
X3.978Y-8.3551
X4.052Y-8.7795
X4.052Y-8.8795
X4.078Y-2.9551
X4.078Y-3.0551
X4.078Y-3.1551
X4.078Y-3.2551
X4.078Y-3.3551
X4.078Y-3.4551
X4.078Y-3.5551
X4.078Y-3.6551
X4.078Y-3.7551
X4.078Y-3.8551
X4.078Y-3.9551
X4.078Y-4.0551
X4.078Y-4.1551
X4.078Y-4.2551
X4.078Y-4.3551
X4.078Y-4.4551
X4.078Y-4.5551
X4.078Y-4.6551
X4.078Y-4.7551
X4.078Y-4.8551
X4.078Y-4.9551
X4.078Y-5.0551
X4.078Y-5.1551
X4.078Y-5.2551
X4.078Y-5.3551
X4.078Y-5.4551
X4.078Y-5.5551
X4.078Y-5.6551
X4.078Y-5.7551
X4.078Y-5.8551
X4.078Y-5.9551
X4.078Y-6.0551
X4.078Y-6.1551
X4.078Y-6.2551
X4.078Y-6.3551
X4.078Y-6.4551
X4.078Y-6.5551
X4.078Y-6.6551
X4.078Y-6.7551
X4.078Y-6.8551
X4.078Y-6.9551
X4.078Y-7.0551
X4.078Y-7.1551
X4.078Y-7.2551
X4.078Y-7.3551
X4.078Y-7.4551
X4.078Y-7.5551
X4.078Y-7.6551
X4.078Y-7.7551
X4.078Y-7.8551
X4.078Y-7.9551
X4.078Y-8.0551
X4.078Y-8.1551
X4.078Y-8.2551
X4.078Y-8.3551
X4.152Y-8.7795
X4.152Y-8.8795
X4.178Y-2.9551
X4.178Y-3.0551
X4.178Y-3.1551
X4.178Y-3.2551
X4.178Y-3.3551
X4.178Y-3.4551
X4.178Y-3.5551
X4.178Y-3.6551
X4.178Y-3.7551
X4.178Y-3.8551
X4.178Y-3.9551
X4.178Y-4.0551
X4.178Y-4.1551
X4.178Y-4.2551
X4.178Y-4.3551
X4.178Y-4.4551
X4.178Y-4.5551
X4.178Y-4.6551
X4.178Y-4.7551
X4.178Y-4.8551
X4.178Y-4.9551
X4.178Y-5.0551
X4.178Y-5.1551
X4.178Y-5.2551
X4.178Y-5.3551
X4.178Y-5.4551
X4.178Y-5.5551
X4.178Y-5.6551
X4.178Y-5.7551
X4.178Y-5.8551
X4.178Y-5.9551
X4.178Y-6.0551
X4.178Y-6.1551
X4.178Y-6.2551
X4.178Y-6.3551
X4.178Y-6.4551
X4.178Y-6.5551
X4.178Y-6.6551
X4.178Y-6.7551
X4.178Y-6.8551
X4.178Y-6.9551
X4.178Y-7.0551
X4.178Y-7.1551
X4.178Y-7.2551
X4.178Y-7.3551
X4.178Y-7.4551
X4.178Y-7.5551
X4.178Y-7.6551
X4.178Y-7.7551
X4.178Y-7.8551
X4.178Y-7.9551
X4.178Y-8.0551
X4.178Y-8.1551
X4.178Y-8.2551
X4.178Y-8.3551
X4.252Y-8.7795
X4.252Y-8.8795
X4.278Y-2.9551
X4.278Y-3.0551
X4.278Y-3.1551
X4.278Y-3.2551
X4.278Y-3.3551
X4.278Y-3.4551
X4.278Y-3.5551
X4.278Y-3.6551
X4.278Y-3.7551
X4.278Y-3.8551
X4.278Y-3.9551
X4.278Y-4.0551
X4.278Y-4.1551
X4.278Y-4.2551
X4.278Y-4.3551
X4.278Y-4.4551
X4.278Y-4.5551
X4.278Y-4.6551
X4.278Y-4.7551
X4.278Y-4.8551
X4.278Y-4.9551
X4.278Y-5.0551
X4.278Y-5.1551
X4.278Y-5.2551
X4.278Y-5.3551
X4.278Y-5.4551
X4.278Y-5.5551
X4.278Y-5.6551
X4.278Y-5.7551
X4.278Y-5.8551
X4.278Y-5.9551
X4.278Y-6.0551
X4.278Y-6.1551
X4.278Y-6.2551
X4.278Y-6.3551
X4.278Y-6.4551
X4.278Y-6.5551
X4.278Y-6.6551
X4.278Y-6.7551
X4.278Y-6.8551
X4.278Y-6.9551
X4.278Y-7.0551
X4.278Y-7.1551
X4.278Y-7.2551
X4.278Y-7.3551
X4.278Y-7.4551
X4.278Y-7.5551
X4.278Y-7.6551
X4.278Y-7.7551
X4.278Y-7.8551
X4.278Y-7.9551
X4.278Y-8.0551
X4.278Y-8.1551
X4.278Y-8.2551
X4.278Y-8.3551
X4.378Y-2.9551
X4.378Y-3.0551
X4.378Y-3.1551
X4.378Y-3.2551
X4.378Y-3.3551
X4.378Y-3.4551
X4.378Y-3.5551
X4.378Y-3.6551
X4.378Y-3.7551
X4.378Y-3.8551
X4.378Y-3.9551
X4.378Y-4.0551
X4.378Y-4.1551
X4.378Y-4.2551
X4.378Y-4.3551
X4.378Y-4.4551
X4.378Y-4.5551
X4.378Y-4.6551
X4.378Y-4.7551
X4.378Y-4.8551
X4.378Y-4.9551
X4.378Y-5.0551
X4.378Y-5.1551
X4.378Y-5.2551
X4.378Y-5.3551
X4.378Y-5.4551
X4.378Y-5.5551
X4.378Y-5.6551
X4.378Y-5.7551
X4.378Y-5.8551
X4.378Y-5.9551
X4.378Y-6.0551
X4.378Y-6.1551
X4.378Y-6.2551
X4.378Y-6.3551
X4.378Y-6.4551
X4.378Y-6.5551
X4.378Y-6.6551
X4.378Y-6.7551
X4.378Y-6.8551
X4.378Y-6.9551
X4.378Y-7.0551
X4.378Y-7.1551
X4.378Y-7.2551
X4.378Y-7.3551
X4.378Y-7.4551
X4.378Y-7.5551
X4.378Y-7.6551
X4.378Y-7.7551
X4.378Y-7.8551
X4.378Y-7.9551
X4.378Y-8.0551
X4.378Y-8.1551
X4.378Y-8.2551
X4.378Y-8.3551
X4.478Y-2.9551
X4.478Y-3.0551
X4.478Y-3.1551
X4.478Y-3.2551
X4.478Y-3.3551
X4.478Y-3.4551
X4.478Y-3.5551
X4.478Y-3.6551
X4.478Y-3.7551
X4.478Y-3.8551
X4.478Y-3.9551
X4.478Y-4.0551
X4.478Y-4.1551
X4.478Y-4.2551
X4.478Y-4.3551
X4.478Y-4.4551
X4.478Y-4.5551
X4.478Y-4.6551
X4.478Y-4.7551
X4.478Y-4.8551
X4.478Y-4.9551
X4.478Y-5.0551
X4.478Y-5.1551
X4.478Y-5.2551
X4.478Y-5.3551
X4.478Y-5.4551
X4.478Y-5.5551
X4.478Y-5.6551
X4.478Y-5.7551
X4.478Y-5.8551
X4.478Y-5.9551
X4.478Y-6.0551
X4.478Y-6.1551
X4.478Y-6.2551
X4.478Y-6.3551
X4.478Y-6.4551
X4.478Y-6.5551
X4.478Y-6.6551
X4.478Y-6.7551
X4.478Y-6.8551
X4.478Y-6.9551
X4.478Y-7.0551
X4.478Y-7.1551
X4.478Y-7.2551
X4.478Y-7.3551
X4.478Y-7.4551
X4.478Y-7.5551
X4.478Y-7.6551
X4.478Y-7.7551
X4.478Y-7.8551
X4.478Y-7.9551
X4.478Y-8.0551
X4.478Y-8.1551
X4.478Y-8.2551
X4.478Y-8.3551
X4.578Y-2.9551
X4.578Y-3.0551
X4.578Y-3.1551
X4.578Y-3.2551
X4.578Y-3.3551
X4.578Y-3.4551
X4.578Y-3.5551
X4.578Y-3.6551
X4.578Y-3.7551
X4.578Y-3.8551
X4.578Y-3.9551
X4.578Y-4.0551
X4.578Y-4.1551
X4.578Y-4.2551
X4.578Y-4.3551
X4.578Y-4.4551
X4.578Y-4.5551
X4.578Y-4.6551
X4.578Y-4.7551
X4.578Y-4.8551
X4.578Y-4.9551
X4.578Y-5.0551
X4.578Y-5.1551
X4.578Y-5.2551
X4.578Y-5.3551
X4.578Y-5.4551
X4.578Y-5.5551
X4.578Y-5.6551
X4.578Y-5.7551
X4.578Y-5.8551
X4.578Y-5.9551
X4.578Y-6.0551
X4.578Y-6.1551
X4.578Y-6.2551
X4.578Y-6.3551
X4.578Y-6.4551
X4.578Y-6.5551
X4.578Y-6.6551
X4.578Y-6.7551
X4.578Y-6.8551
X4.578Y-6.9551
X4.578Y-7.0551
X4.578Y-7.1551
X4.578Y-7.2551
X4.578Y-7.3551
X4.578Y-7.4551
X4.578Y-7.5551
X4.578Y-7.6551
X4.578Y-7.7551
X4.578Y-7.8551
X4.578Y-7.9551
X4.578Y-8.0551
X4.578Y-8.1551
X4.578Y-8.2551
X4.578Y-8.3551
X4.678Y-2.9551
X4.678Y-3.0551
X4.678Y-3.1551
X4.678Y-3.2551
X4.678Y-3.3551
X4.678Y-3.4551
X4.678Y-3.5551
X4.678Y-3.6551
X4.678Y-3.7551
X4.678Y-3.8551
X4.678Y-3.9551
X4.678Y-4.0551
X4.678Y-4.1551
X4.678Y-4.2551
X4.678Y-4.3551
X4.678Y-4.4551
X4.678Y-4.5551
X4.678Y-4.6551
X4.678Y-4.7551
X4.678Y-4.8551
X4.678Y-4.9551
X4.678Y-5.0551
X4.678Y-5.1551
X4.678Y-5.2551
X4.678Y-5.3551
X4.678Y-5.4551
X4.678Y-5.5551
X4.678Y-5.6551
X4.678Y-5.7551
X4.678Y-5.8551
X4.678Y-5.9551
X4.678Y-6.0551
X4.678Y-6.1551
X4.678Y-6.2551
X4.678Y-6.3551
X4.678Y-6.4551
X4.678Y-6.5551
X4.678Y-6.6551
X4.678Y-6.7551
X4.678Y-6.8551
X4.678Y-6.9551
X4.678Y-7.0551
X4.678Y-7.1551
X4.678Y-7.2551
X4.678Y-7.3551
X4.678Y-7.4551
X4.678Y-7.5551
X4.678Y-7.6551
X4.678Y-7.7551
X4.678Y-7.8551
X4.678Y-7.9551
X4.678Y-8.0551
X4.678Y-8.1551
X4.678Y-8.2551
X4.678Y-8.3551
X4.7654Y-8.7795
X4.7654Y-8.8795
X4.778Y-2.9551
X4.778Y-3.0551
X4.778Y-3.1551
X4.778Y-3.2551
X4.778Y-3.3551
X4.778Y-3.4551
X4.778Y-3.5551
X4.778Y-3.6551
X4.778Y-3.7551
X4.778Y-3.8551
X4.778Y-3.9551
X4.778Y-4.0551
X4.778Y-4.1551
X4.778Y-4.2551
X4.778Y-4.3551
X4.778Y-4.4551
X4.778Y-4.5551
X4.778Y-4.6551
X4.778Y-4.7551
X4.778Y-4.8551
X4.778Y-4.9551
X4.778Y-5.0551
X4.778Y-5.1551
X4.778Y-5.2551
X4.778Y-5.3551
X4.778Y-5.4551
X4.778Y-5.5551
X4.778Y-5.6551
X4.778Y-5.7551
X4.778Y-5.8551
X4.778Y-5.9551
X4.778Y-6.0551
X4.778Y-6.1551
X4.778Y-6.2551
X4.778Y-6.3551
X4.778Y-6.4551
X4.778Y-6.5551
X4.778Y-6.6551
X4.778Y-6.7551
X4.778Y-6.8551
X4.778Y-6.9551
X4.778Y-7.0551
X4.778Y-7.1551
X4.778Y-7.2551
X4.778Y-7.3551
X4.778Y-7.4551
X4.778Y-7.5551
X4.778Y-7.6551
X4.778Y-7.7551
X4.778Y-7.8551
X4.778Y-7.9551
X4.778Y-8.0551
X4.778Y-8.1551
X4.778Y-8.2551
X4.778Y-8.3551
X4.8654Y-8.7795
X4.8654Y-8.8795
X4.878Y-2.9551
X4.878Y-3.0551
X4.878Y-3.1551
X4.878Y-3.2551
X4.878Y-3.3551
X4.878Y-3.4551
X4.878Y-3.5551
X4.878Y-3.6551
X4.878Y-3.7551
X4.878Y-3.8551
X4.878Y-3.9551
X4.878Y-4.0551
X4.878Y-4.1551
X4.878Y-4.2551
X4.878Y-4.3551
X4.878Y-4.4551
X4.878Y-4.5551
X4.878Y-4.6551
X4.878Y-4.7551
X4.878Y-4.8551
X4.878Y-4.9551
X4.878Y-5.0551
X4.878Y-5.1551
X4.878Y-5.2551
X4.878Y-5.3551
X4.878Y-5.4551
X4.878Y-5.5551
X4.878Y-5.6551
X4.878Y-5.7551
X4.878Y-5.8551
X4.878Y-5.9551
X4.878Y-6.0551
X4.878Y-6.1551
X4.878Y-6.2551
X4.878Y-6.3551
X4.878Y-6.4551
X4.878Y-6.5551
X4.878Y-6.6551
X4.878Y-6.7551
X4.878Y-6.8551
X4.878Y-6.9551
X4.878Y-7.0551
X4.878Y-7.1551
X4.878Y-7.2551
X4.878Y-7.3551
X4.878Y-7.4551
X4.878Y-7.5551
X4.878Y-7.6551
X4.878Y-7.7551
X4.878Y-7.8551
X4.878Y-7.9551
X4.878Y-8.0551
X4.878Y-8.1551
X4.878Y-8.2551
X4.878Y-8.3551
X4.9654Y-8.7795
X4.9654Y-8.8795
X4.978Y-2.9551
X4.978Y-3.0551
X4.978Y-3.1551
X4.978Y-3.2551
X4.978Y-3.3551
X4.978Y-3.4551
X4.978Y-3.5551
X4.978Y-3.6551
X4.978Y-3.7551
X4.978Y-3.8551
X4.978Y-3.9551
X4.978Y-4.0551
X4.978Y-4.1551
X4.978Y-4.2551
X4.978Y-4.3551
X4.978Y-4.4551
X4.978Y-4.5551
X4.978Y-4.6551
X4.978Y-4.7551
X4.978Y-4.8551
X4.978Y-4.9551
X4.978Y-5.0551
X4.978Y-5.1551
X4.978Y-5.2551
X4.978Y-5.3551
X4.978Y-5.4551
X4.978Y-5.5551
X4.978Y-5.6551
X4.978Y-5.7551
X4.978Y-5.8551
X4.978Y-5.9551
X4.978Y-6.0551
X4.978Y-6.1551
X4.978Y-6.2551
X4.978Y-6.3551
X4.978Y-6.4551
X4.978Y-6.5551
X4.978Y-6.6551
X4.978Y-6.7551
X4.978Y-6.8551
X4.978Y-6.9551
X4.978Y-7.0551
X4.978Y-7.1551
X4.978Y-7.2551
X4.978Y-7.3551
X4.978Y-7.4551
X4.978Y-7.5551
X4.978Y-7.6551
X4.978Y-7.7551
X4.978Y-7.8551
X4.978Y-7.9551
X4.978Y-8.0551
X4.978Y-8.1551
X4.978Y-8.2551
X4.978Y-8.3551
X5.0654Y-8.7795
X5.0654Y-8.8795
X5.078Y-2.9551
X5.078Y-3.0551
X5.078Y-3.1551
X5.078Y-3.2551
X5.078Y-3.3551
X5.078Y-3.4551
X5.078Y-3.5551
X5.078Y-3.6551
X5.078Y-3.7551
X5.078Y-3.8551
X5.078Y-3.9551
X5.078Y-4.0551
X5.078Y-4.1551
X5.078Y-4.2551
X5.078Y-4.3551
X5.078Y-4.4551
X5.078Y-4.5551
X5.078Y-4.6551
X5.078Y-4.7551
X5.078Y-4.8551
X5.078Y-4.9551
X5.078Y-5.0551
X5.078Y-5.1551
X5.078Y-5.2551
X5.078Y-5.3551
X5.078Y-5.4551
X5.078Y-5.5551
X5.078Y-5.6551
X5.078Y-5.7551
X5.078Y-5.8551
X5.078Y-5.9551
X5.078Y-6.0551
X5.078Y-6.1551
X5.078Y-6.2551
X5.078Y-6.3551
X5.078Y-6.4551
X5.078Y-6.5551
X5.078Y-6.6551
X5.078Y-6.7551
X5.078Y-6.8551
X5.078Y-6.9551
X5.078Y-7.0551
X5.078Y-7.1551
X5.078Y-7.2551
X5.078Y-7.3551
X5.078Y-7.4551
X5.078Y-7.5551
X5.078Y-7.6551
X5.078Y-7.7551
X5.078Y-7.8551
X5.078Y-7.9551
X5.078Y-8.0551
X5.078Y-8.1551
X5.078Y-8.2551
X5.078Y-8.3551
X5.1654Y-8.7795
X5.1654Y-8.8795
X5.178Y-2.9551
X5.178Y-3.0551
X5.178Y-3.1551
X5.178Y-3.2551
X5.178Y-3.3551
X5.178Y-3.4551
X5.178Y-3.5551
X5.178Y-3.6551
X5.178Y-3.7551
X5.178Y-3.8551
X5.178Y-3.9551
X5.178Y-4.0551
X5.178Y-4.1551
X5.178Y-4.2551
X5.178Y-4.3551
X5.178Y-4.4551
X5.178Y-4.5551
X5.178Y-4.6551
X5.178Y-4.7551
X5.178Y-4.8551
X5.178Y-4.9551
X5.178Y-5.0551
X5.178Y-5.1551
X5.178Y-5.2551
X5.178Y-5.3551
X5.178Y-5.4551
X5.178Y-5.5551
X5.178Y-5.6551
X5.178Y-5.7551
X5.178Y-5.8551
X5.178Y-5.9551
X5.178Y-6.0551
X5.178Y-6.1551
X5.178Y-6.2551
X5.178Y-6.3551
X5.178Y-6.4551
X5.178Y-6.5551
X5.178Y-6.6551
X5.178Y-6.7551
X5.178Y-6.8551
X5.178Y-6.9551
X5.178Y-7.0551
X5.178Y-7.1551
X5.178Y-7.2551
X5.178Y-7.3551
X5.178Y-7.4551
X5.178Y-7.5551
X5.178Y-7.6551
X5.178Y-7.7551
X5.178Y-7.8551
X5.178Y-7.9551
X5.178Y-8.0551
X5.178Y-8.1551
X5.178Y-8.2551
X5.178Y-8.3551
X5.2654Y-8.7795
X5.2654Y-8.8795
X5.278Y-2.9551
X5.278Y-3.0551
X5.278Y-3.1551
X5.278Y-3.2551
X5.278Y-3.3551
X5.278Y-3.4551
X5.278Y-3.5551
X5.278Y-3.6551
X5.278Y-3.7551
X5.278Y-3.8551
X5.278Y-3.9551
X5.278Y-4.0551
X5.278Y-4.1551
X5.278Y-4.2551
X5.278Y-4.3551
X5.278Y-4.4551
X5.278Y-4.5551
X5.278Y-4.6551
X5.278Y-4.7551
X5.278Y-4.8551
X5.278Y-4.9551
X5.278Y-5.0551
X5.278Y-5.1551
X5.278Y-5.2551
X5.278Y-5.3551
X5.278Y-5.4551
X5.278Y-5.5551
X5.278Y-5.6551
X5.278Y-5.7551
X5.278Y-5.8551
X5.278Y-5.9551
X5.278Y-6.0551
X5.278Y-6.1551
X5.278Y-6.2551
X5.278Y-6.3551
X5.278Y-6.4551
X5.278Y-6.5551
X5.278Y-6.6551
X5.278Y-6.7551
X5.278Y-6.8551
X5.278Y-6.9551
X5.278Y-7.0551
X5.278Y-7.1551
X5.278Y-7.2551
X5.278Y-7.3551
X5.278Y-7.4551
X5.278Y-7.5551
X5.278Y-7.6551
X5.278Y-7.7551
X5.278Y-7.8551
X5.278Y-7.9551
X5.278Y-8.0551
X5.278Y-8.1551
X5.278Y-8.2551
X5.278Y-8.3551
X5.3654Y-8.7795
X5.3654Y-8.8795
X5.378Y-2.9551
X5.378Y-3.0551
X5.378Y-3.1551
X5.378Y-3.2551
X5.378Y-3.3551
X5.378Y-3.4551
X5.378Y-3.5551
X5.378Y-3.6551
X5.378Y-3.7551
X5.378Y-3.8551
X5.378Y-3.9551
X5.378Y-4.0551
X5.378Y-4.1551
X5.378Y-4.2551
X5.378Y-4.3551
X5.378Y-4.4551
X5.378Y-4.5551
X5.378Y-4.6551
X5.378Y-4.7551
X5.378Y-4.8551
X5.378Y-4.9551
X5.378Y-5.0551
X5.378Y-5.1551
X5.378Y-5.2551
X5.378Y-5.3551
X5.378Y-5.4551
X5.378Y-5.5551
X5.378Y-5.6551
X5.378Y-5.7551
X5.378Y-5.8551
X5.378Y-5.9551
X5.378Y-6.0551
X5.378Y-6.1551
X5.378Y-6.2551
X5.378Y-6.3551
X5.378Y-6.4551
X5.378Y-6.5551
X5.378Y-6.6551
X5.378Y-6.7551
X5.378Y-6.8551
X5.378Y-6.9551
X5.378Y-7.0551
X5.378Y-7.1551
X5.378Y-7.2551
X5.378Y-7.3551
X5.378Y-7.4551
X5.378Y-7.5551
X5.378Y-7.6551
X5.378Y-7.7551
X5.378Y-7.8551
X5.378Y-7.9551
X5.378Y-8.0551
X5.378Y-8.1551
X5.378Y-8.2551
X5.378Y-8.3551
X5.4654Y-8.7795
X5.4654Y-8.8795
X5.478Y-2.9551
X5.478Y-3.0551
X5.478Y-3.1551
X5.478Y-3.2551
X5.478Y-3.3551
X5.478Y-3.4551
X5.478Y-3.5551
X5.478Y-3.6551
X5.478Y-3.7551
X5.478Y-3.8551
X5.478Y-3.9551
X5.478Y-4.0551
X5.478Y-4.1551
X5.478Y-4.2551
X5.478Y-4.3551
X5.478Y-4.4551
X5.478Y-4.5551
X5.478Y-4.6551
X5.478Y-4.7551
X5.478Y-4.8551
X5.478Y-4.9551
X5.478Y-5.0551
X5.478Y-5.1551
X5.478Y-5.2551
X5.478Y-5.3551
X5.478Y-5.4551
X5.478Y-5.5551
X5.478Y-5.6551
X5.478Y-5.7551
X5.478Y-5.8551
X5.478Y-5.9551
X5.478Y-6.0551
X5.478Y-6.1551
X5.478Y-6.2551
X5.478Y-6.3551
X5.478Y-6.4551
X5.478Y-6.5551
X5.478Y-6.6551
X5.478Y-6.7551
X5.478Y-6.8551
X5.478Y-6.9551
X5.478Y-7.0551
X5.478Y-7.1551
X5.478Y-7.2551
X5.478Y-7.3551
X5.478Y-7.4551
X5.478Y-7.5551
X5.478Y-7.6551
X5.478Y-7.7551
X5.478Y-7.8551
X5.478Y-7.9551
X5.478Y-8.0551
X5.478Y-8.1551
X5.478Y-8.2551
X5.478Y-8.3551
X5.5654Y-8.7795
X5.5654Y-8.8795
X5.578Y-2.9551
X5.578Y-3.0551
X5.578Y-3.1551
X5.578Y-3.2551
X5.578Y-3.3551
X5.578Y-3.4551
X5.578Y-3.5551
X5.578Y-3.6551
X5.578Y-3.7551
X5.578Y-3.8551
X5.578Y-3.9551
X5.578Y-4.0551
X5.578Y-4.1551
X5.578Y-4.2551
X5.578Y-4.3551
X5.578Y-4.4551
X5.578Y-4.5551
X5.578Y-4.6551
X5.578Y-4.7551
X5.578Y-4.8551
X5.578Y-4.9551
X5.578Y-5.0551
X5.578Y-5.1551
X5.578Y-5.2551
X5.578Y-5.3551
X5.578Y-5.4551
X5.578Y-5.5551
X5.578Y-5.6551
X5.578Y-5.7551
X5.578Y-5.8551
X5.578Y-5.9551
X5.578Y-6.0551
X5.578Y-6.1551
X5.578Y-6.2551
X5.578Y-6.3551
X5.578Y-6.4551
X5.578Y-6.5551
X5.578Y-6.6551
X5.578Y-6.7551
X5.578Y-6.8551
X5.578Y-6.9551
X5.578Y-7.0551
X5.578Y-7.1551
X5.578Y-7.2551
X5.578Y-7.3551
X5.578Y-7.4551
X5.578Y-7.5551
X5.578Y-7.6551
X5.578Y-7.7551
X5.578Y-7.8551
X5.578Y-7.9551
X5.578Y-8.0551
X5.578Y-8.1551
X5.578Y-8.2551
X5.578Y-8.3551
X5.6654Y-8.7795
X5.6654Y-8.8795
X5.678Y-2.9551
X5.678Y-3.0551
X5.678Y-3.1551
X5.678Y-3.2551
X5.678Y-3.3551
X5.678Y-3.4551
X5.678Y-3.5551
X5.678Y-3.6551
X5.678Y-3.7551
X5.678Y-3.8551
X5.678Y-3.9551
X5.678Y-4.0551
X5.678Y-4.1551
X5.678Y-4.2551
X5.678Y-4.3551
X5.678Y-4.4551
X5.678Y-4.5551
X5.678Y-4.6551
X5.678Y-4.7551
X5.678Y-4.8551
X5.678Y-4.9551
X5.678Y-5.0551
X5.678Y-5.1551
X5.678Y-5.2551
X5.678Y-5.3551
X5.678Y-5.4551
X5.678Y-5.5551
X5.678Y-5.6551
X5.678Y-5.7551
X5.678Y-5.8551
X5.678Y-5.9551
X5.678Y-6.0551
X5.678Y-6.1551
X5.678Y-6.2551
X5.678Y-6.3551
X5.678Y-6.4551
X5.678Y-6.5551
X5.678Y-6.6551
X5.678Y-6.7551
X5.678Y-6.8551
X5.678Y-6.9551
X5.678Y-7.0551
X5.678Y-7.1551
X5.678Y-7.2551
X5.678Y-7.3551
X5.678Y-7.4551
X5.678Y-7.5551
X5.678Y-7.6551
X5.678Y-7.7551
X5.678Y-7.8551
X5.678Y-7.9551
X5.678Y-8.0551
X5.678Y-8.1551
X5.678Y-8.2551
X5.678Y-8.3551
X5.7654Y-8.7795
X5.7654Y-8.8795
X5.778Y-2.9551
X5.778Y-3.0551
X5.778Y-3.1551
X5.778Y-3.2551
X5.778Y-3.3551
X5.778Y-3.4551
X5.778Y-3.5551
X5.778Y-3.6551
X5.778Y-3.7551
X5.778Y-3.8551
X5.778Y-3.9551
X5.778Y-4.0551
X5.778Y-4.1551
X5.778Y-4.2551
X5.778Y-4.3551
X5.778Y-4.4551
X5.778Y-4.5551
X5.778Y-4.6551
X5.778Y-4.7551
X5.778Y-4.8551
X5.778Y-4.9551
X5.778Y-5.0551
X5.778Y-5.1551
X5.778Y-5.2551
X5.778Y-5.3551
X5.778Y-5.4551
X5.778Y-5.5551
X5.778Y-5.6551
X5.778Y-5.7551
X5.778Y-5.8551
X5.778Y-5.9551
X5.778Y-6.0551
X5.778Y-6.1551
X5.778Y-6.2551
X5.778Y-6.3551
X5.778Y-6.4551
X5.778Y-6.5551
X5.778Y-6.6551
X5.778Y-6.7551
X5.778Y-6.8551
X5.778Y-6.9551
X5.778Y-7.0551
X5.778Y-7.1551
X5.778Y-7.2551
X5.778Y-7.3551
X5.778Y-7.4551
X5.778Y-7.5551
X5.778Y-7.6551
X5.778Y-7.7551
X5.778Y-7.8551
X5.778Y-7.9551
X5.778Y-8.0551
X5.778Y-8.1551
X5.778Y-8.2551
X5.778Y-8.3551
X5.8654Y-8.7795
X5.8654Y-8.8795
X5.878Y-2.9551
X5.878Y-3.0551
X5.878Y-3.1551
X5.878Y-3.2551
X5.878Y-3.3551
X5.878Y-3.4551
X5.878Y-3.5551
X5.878Y-3.6551
X5.878Y-3.7551
X5.878Y-3.8551
X5.878Y-3.9551
X5.878Y-4.0551
X5.878Y-4.1551
X5.878Y-4.2551
X5.878Y-4.3551
X5.878Y-4.4551
X5.878Y-4.5551
X5.878Y-4.6551
X5.878Y-4.7551
X5.878Y-4.8551
X5.878Y-4.9551
X5.878Y-5.0551
X5.878Y-5.1551
X5.878Y-5.2551
X5.878Y-5.3551
X5.878Y-5.4551
X5.878Y-5.5551
X5.878Y-5.6551
X5.878Y-5.7551
X5.878Y-5.8551
X5.878Y-5.9551
X5.878Y-6.0551
X5.878Y-6.1551
X5.878Y-6.2551
X5.878Y-6.3551
X5.878Y-6.4551
X5.878Y-6.5551
X5.878Y-6.6551
X5.878Y-6.7551
X5.878Y-6.8551
X5.878Y-6.9551
X5.878Y-7.0551
X5.878Y-7.1551
X5.878Y-7.2551
X5.878Y-7.3551
X5.878Y-7.4551
X5.878Y-7.5551
X5.878Y-7.6551
X5.878Y-7.7551
X5.878Y-7.8551
X5.878Y-7.9551
X5.878Y-8.0551
X5.878Y-8.1551
X5.878Y-8.2551
X5.878Y-8.3551
X5.9654Y-8.7795
X5.9654Y-8.8795
X5.978Y-2.9551
X5.978Y-3.0551
X5.978Y-3.1551
X5.978Y-3.2551
X5.978Y-3.3551
X5.978Y-3.4551
X5.978Y-3.5551
X5.978Y-3.6551
X5.978Y-3.7551
X5.978Y-3.8551
X5.978Y-3.9551
X5.978Y-4.0551
X5.978Y-4.1551
X5.978Y-4.2551
X5.978Y-4.3551
X5.978Y-4.4551
X5.978Y-4.5551
X5.978Y-4.6551
X5.978Y-4.7551
X5.978Y-4.8551
X5.978Y-4.9551
X5.978Y-5.0551
X5.978Y-5.1551
X5.978Y-5.2551
X5.978Y-5.3551
X5.978Y-5.4551
X5.978Y-5.5551
X5.978Y-5.6551
X5.978Y-5.7551
X5.978Y-5.8551
X5.978Y-5.9551
X5.978Y-6.0551
X5.978Y-6.1551
X5.978Y-6.2551
X5.978Y-6.3551
X5.978Y-6.4551
X5.978Y-6.5551
X5.978Y-6.6551
X5.978Y-6.7551
X5.978Y-6.8551
X5.978Y-6.9551
X5.978Y-7.0551
X5.978Y-7.1551
X5.978Y-7.2551
X5.978Y-7.3551
X5.978Y-7.4551
X5.978Y-7.5551
X5.978Y-7.6551
X5.978Y-7.7551
X5.978Y-7.8551
X5.978Y-7.9551
X5.978Y-8.0551
X5.978Y-8.1551
X5.978Y-8.2551
X5.978Y-8.3551
X6.0654Y-8.7795
X6.0654Y-8.8795
X6.078Y-2.9551
X6.078Y-3.0551
X6.078Y-3.1551
X6.078Y-3.2551
X6.078Y-3.3551
X6.078Y-3.4551
X6.078Y-3.5551
X6.078Y-3.6551
X6.078Y-3.7551
X6.078Y-3.8551
X6.078Y-3.9551
X6.078Y-4.0551
X6.078Y-4.1551
X6.078Y-4.2551
X6.078Y-4.3551
X6.078Y-4.4551
X6.078Y-4.5551
X6.078Y-4.6551
X6.078Y-4.7551
X6.078Y-4.8551
X6.078Y-4.9551
X6.078Y-5.0551
X6.078Y-5.1551
X6.078Y-5.2551
X6.078Y-5.3551
X6.078Y-5.4551
X6.078Y-5.5551
X6.078Y-5.6551
X6.078Y-5.7551
X6.078Y-5.8551
X6.078Y-5.9551
X6.078Y-6.0551
X6.078Y-6.1551
X6.078Y-6.2551
X6.078Y-6.3551
X6.078Y-6.4551
X6.078Y-6.5551
X6.078Y-6.6551
X6.078Y-6.7551
X6.078Y-6.8551
X6.078Y-6.9551
X6.078Y-7.0551
X6.078Y-7.1551
X6.078Y-7.2551
X6.078Y-7.3551
X6.078Y-7.4551
X6.078Y-7.5551
X6.078Y-7.6551
X6.078Y-7.7551
X6.078Y-7.8551
X6.078Y-7.9551
X6.078Y-8.0551
X6.078Y-8.1551
X6.078Y-8.2551
X6.078Y-8.3551
X6.1654Y-8.7795
X6.1654Y-8.8795
X6.178Y-2.9551
X6.178Y-3.0551
X6.178Y-3.1551
X6.178Y-3.2551
X6.178Y-3.3551
X6.178Y-3.4551
X6.178Y-3.5551
X6.178Y-3.6551
X6.178Y-3.7551
X6.178Y-3.8551
X6.178Y-3.9551
X6.178Y-4.0551
X6.178Y-4.1551
X6.178Y-4.2551
X6.178Y-4.3551
X6.178Y-4.4551
X6.178Y-4.5551
X6.178Y-4.6551
X6.178Y-4.7551
X6.178Y-4.8551
X6.178Y-4.9551
X6.178Y-5.0551
X6.178Y-5.1551
X6.178Y-5.2551
X6.178Y-5.3551
X6.178Y-5.4551
X6.178Y-5.5551
X6.178Y-5.6551
X6.178Y-5.7551
X6.178Y-5.8551
X6.178Y-5.9551
X6.178Y-6.0551
X6.178Y-6.1551
X6.178Y-6.2551
X6.178Y-6.3551
X6.178Y-6.4551
X6.178Y-6.5551
X6.178Y-6.6551
X6.178Y-6.7551
X6.178Y-6.8551
X6.178Y-6.9551
X6.178Y-7.0551
X6.178Y-7.1551
X6.178Y-7.2551
X6.178Y-7.3551
X6.178Y-7.4551
X6.178Y-7.5551
X6.178Y-7.6551
X6.178Y-7.7551
X6.178Y-7.8551
X6.178Y-7.9551
X6.178Y-8.0551
X6.178Y-8.1551
X6.178Y-8.2551
X6.178Y-8.3551
X6.2654Y-8.7795
X6.2654Y-8.8795
X6.278Y-2.9551
X6.278Y-3.0551
X6.278Y-3.1551
X6.278Y-3.2551
X6.278Y-3.3551
X6.278Y-3.4551
X6.278Y-3.5551
X6.278Y-3.6551
X6.278Y-3.7551
X6.278Y-3.8551
X6.278Y-3.9551
X6.278Y-4.0551
X6.278Y-4.1551
X6.278Y-4.2551
X6.278Y-4.3551
X6.278Y-4.4551
X6.278Y-4.5551
X6.278Y-4.6551
X6.278Y-4.7551
X6.278Y-4.8551
X6.278Y-4.9551
X6.278Y-5.0551
X6.278Y-5.1551
X6.278Y-5.2551
X6.278Y-5.3551
X6.278Y-5.4551
X6.278Y-5.5551
X6.278Y-5.6551
X6.278Y-5.7551
X6.278Y-5.8551
X6.278Y-5.9551
X6.278Y-6.0551
X6.278Y-6.1551
X6.278Y-6.2551
X6.278Y-6.3551
X6.278Y-6.4551
X6.278Y-6.5551
X6.278Y-6.6551
X6.278Y-6.7551
X6.278Y-6.8551
X6.278Y-6.9551
X6.278Y-7.0551
X6.278Y-7.1551
X6.278Y-7.2551
X6.278Y-7.3551
X6.278Y-7.4551
X6.278Y-7.5551
X6.278Y-7.6551
X6.278Y-7.7551
X6.278Y-7.8551
X6.278Y-7.9551
X6.278Y-8.0551
X6.278Y-8.1551
X6.278Y-8.2551
X6.278Y-8.3551
X6.3654Y-8.7795
X6.3654Y-8.8795
X6.378Y-2.9551
X6.378Y-3.0551
X6.378Y-3.1551
X6.378Y-3.2551
X6.378Y-3.3551
X6.378Y-3.4551
X6.378Y-3.5551
X6.378Y-3.6551
X6.378Y-3.7551
X6.378Y-3.8551
X6.378Y-3.9551
X6.378Y-4.0551
X6.378Y-4.1551
X6.378Y-4.2551
X6.378Y-4.3551
X6.378Y-4.4551
X6.378Y-4.5551
X6.378Y-4.6551
X6.378Y-4.7551
X6.378Y-4.8551
X6.378Y-4.9551
X6.378Y-5.0551
X6.378Y-5.1551
X6.378Y-5.2551
X6.378Y-5.3551
X6.378Y-5.4551
X6.378Y-5.5551
X6.378Y-5.6551
X6.378Y-5.7551
X6.378Y-5.8551
X6.378Y-5.9551
X6.378Y-6.0551
X6.378Y-6.1551
X6.378Y-6.2551
X6.378Y-6.3551
X6.378Y-6.4551
X6.378Y-6.5551
X6.378Y-6.6551
X6.378Y-6.7551
X6.378Y-6.8551
X6.378Y-6.9551
X6.378Y-7.0551
X6.378Y-7.1551
X6.378Y-7.2551
X6.378Y-7.3551
X6.378Y-7.4551
X6.378Y-7.5551
X6.378Y-7.6551
X6.378Y-7.7551
X6.378Y-7.8551
X6.378Y-7.9551
X6.378Y-8.0551
X6.378Y-8.1551
X6.378Y-8.2551
X6.378Y-8.3551
X6.4654Y-8.7795
X6.4654Y-8.8795
X6.478Y-2.9551
X6.478Y-3.0551
X6.478Y-3.1551
X6.478Y-3.2551
X6.478Y-3.3551
X6.478Y-3.4551
X6.478Y-3.5551
X6.478Y-3.6551
X6.478Y-3.7551
X6.478Y-3.8551
X6.478Y-3.9551
X6.478Y-4.0551
X6.478Y-4.1551
X6.478Y-4.2551
X6.478Y-4.3551
X6.478Y-4.4551
X6.478Y-4.5551
X6.478Y-4.6551
X6.478Y-4.7551
X6.478Y-4.8551
X6.478Y-4.9551
X6.478Y-5.0551
X6.478Y-5.1551
X6.478Y-5.2551
X6.478Y-5.3551
X6.478Y-5.4551
X6.478Y-5.5551
X6.478Y-5.6551
X6.478Y-5.7551
X6.478Y-5.8551
X6.478Y-5.9551
X6.478Y-6.0551
X6.478Y-6.1551
X6.478Y-6.2551
X6.478Y-6.3551
X6.478Y-6.4551
X6.478Y-6.5551
X6.478Y-6.6551
X6.478Y-6.7551
X6.478Y-6.8551
X6.478Y-6.9551
X6.478Y-7.0551
X6.478Y-7.1551
X6.478Y-7.2551
X6.478Y-7.3551
X6.478Y-7.4551
X6.478Y-7.5551
X6.478Y-7.6551
X6.478Y-7.7551
X6.478Y-7.8551
X6.478Y-7.9551
X6.478Y-8.0551
X6.478Y-8.1551
X6.478Y-8.2551
X6.478Y-8.3551
X6.5654Y-8.7795
X6.5654Y-8.8795
X6.578Y-2.9551
X6.578Y-3.0551
X6.578Y-3.1551
X6.578Y-3.2551
X6.578Y-3.3551
X6.578Y-3.4551
X6.578Y-3.5551
X6.578Y-3.6551
X6.578Y-3.7551
X6.578Y-3.8551
X6.578Y-3.9551
X6.578Y-4.0551
X6.578Y-4.1551
X6.578Y-4.2551
X6.578Y-4.3551
X6.578Y-4.4551
X6.578Y-4.5551
X6.578Y-4.6551
X6.578Y-4.7551
X6.578Y-4.8551
X6.578Y-4.9551
X6.578Y-5.0551
X6.578Y-5.1551
X6.578Y-5.2551
X6.578Y-5.3551
X6.578Y-5.4551
X6.578Y-5.5551
X6.578Y-5.6551
X6.578Y-5.7551
X6.578Y-5.8551
X6.578Y-5.9551
X6.578Y-6.0551
X6.578Y-6.1551
X6.578Y-6.2551
X6.578Y-6.3551
X6.578Y-6.4551
X6.578Y-6.5551
X6.578Y-6.6551
X6.578Y-6.7551
X6.578Y-6.8551
X6.578Y-6.9551
X6.578Y-7.0551
X6.578Y-7.1551
X6.578Y-7.2551
X6.578Y-7.3551
X6.578Y-7.4551
X6.578Y-7.5551
X6.578Y-7.6551
X6.578Y-7.7551
X6.578Y-7.8551
X6.578Y-7.9551
X6.578Y-8.0551
X6.578Y-8.1551
X6.578Y-8.2551
X6.578Y-8.3551
X6.6654Y-8.7795
X6.6654Y-8.8795
X6.678Y-2.9551
X6.678Y-3.0551
X6.678Y-3.1551
X6.678Y-3.2551
X6.678Y-3.3551
X6.678Y-3.4551
X6.678Y-3.5551
X6.678Y-3.6551
X6.678Y-3.7551
X6.678Y-3.8551
X6.678Y-3.9551
X6.678Y-4.0551
X6.678Y-4.1551
X6.678Y-4.2551
X6.678Y-4.3551
X6.678Y-4.4551
X6.678Y-4.5551
X6.678Y-4.6551
X6.678Y-4.7551
X6.678Y-4.8551
X6.678Y-4.9551
X6.678Y-5.0551
X6.678Y-5.1551
X6.678Y-5.2551
X6.678Y-5.3551
X6.678Y-5.4551
X6.678Y-5.5551
X6.678Y-5.6551
X6.678Y-5.7551
X6.678Y-5.8551
X6.678Y-5.9551
X6.678Y-6.0551
X6.678Y-6.1551
X6.678Y-6.2551
X6.678Y-6.3551
X6.678Y-6.4551
X6.678Y-6.5551
X6.678Y-6.6551
X6.678Y-6.7551
X6.678Y-6.8551
X6.678Y-6.9551
X6.678Y-7.0551
X6.678Y-7.1551
X6.678Y-7.2551
X6.678Y-7.3551
X6.678Y-7.4551
X6.678Y-7.5551
X6.678Y-7.6551
X6.678Y-7.7551
X6.678Y-7.8551
X6.678Y-7.9551
X6.678Y-8.0551
X6.678Y-8.1551
X6.678Y-8.2551
X6.678Y-8.3551
X6.7654Y-8.7795
X6.7654Y-8.8795
X6.778Y-2.9551
X6.778Y-3.0551
X6.778Y-3.1551
X6.778Y-3.2551
X6.778Y-3.3551
X6.778Y-3.4551
X6.778Y-3.5551
X6.778Y-3.6551
X6.778Y-3.7551
X6.778Y-3.8551
X6.778Y-3.9551
X6.778Y-4.0551
X6.778Y-4.1551
X6.778Y-4.2551
X6.778Y-4.3551
X6.778Y-4.4551
X6.778Y-4.5551
X6.778Y-4.6551
X6.778Y-4.7551
X6.778Y-4.8551
X6.778Y-4.9551
X6.778Y-5.0551
X6.778Y-5.1551
X6.778Y-5.2551
X6.778Y-5.3551
X6.778Y-5.4551
X6.778Y-5.5551
X6.778Y-5.6551
X6.778Y-5.7551
X6.778Y-5.8551
X6.778Y-5.9551
X6.778Y-6.0551
X6.778Y-6.1551
X6.778Y-6.2551
X6.778Y-6.3551
X6.778Y-6.4551
X6.778Y-6.5551
X6.778Y-6.6551
X6.778Y-6.7551
X6.778Y-6.8551
X6.778Y-6.9551
X6.778Y-7.0551
X6.778Y-7.1551
X6.778Y-7.2551
X6.778Y-7.3551
X6.778Y-7.4551
X6.778Y-7.5551
X6.778Y-7.6551
X6.778Y-7.7551
X6.778Y-7.8551
X6.778Y-7.9551
X6.778Y-8.0551
X6.778Y-8.1551
X6.778Y-8.2551
X6.778Y-8.3551
X6.8654Y-8.7795
X6.8654Y-8.8795
X6.878Y-2.9551
X6.878Y-3.0551
X6.878Y-3.1551
X6.878Y-3.2551
X6.878Y-3.3551
X6.878Y-3.4551
X6.878Y-3.5551
X6.878Y-3.6551
X6.878Y-3.7551
X6.878Y-3.8551
X6.878Y-3.9551
X6.878Y-4.0551
X6.878Y-4.1551
X6.878Y-4.2551
X6.878Y-4.3551
X6.878Y-4.4551
X6.878Y-4.5551
X6.878Y-4.6551
X6.878Y-4.7551
X6.878Y-4.8551
X6.878Y-4.9551
X6.878Y-5.0551
X6.878Y-5.1551
X6.878Y-5.2551
X6.878Y-5.3551
X6.878Y-5.4551
X6.878Y-5.5551
X6.878Y-5.6551
X6.878Y-5.7551
X6.878Y-5.8551
X6.878Y-5.9551
X6.878Y-6.0551
X6.878Y-6.1551
X6.878Y-6.2551
X6.878Y-6.3551
X6.878Y-6.4551
X6.878Y-6.5551
X6.878Y-6.6551
X6.878Y-6.7551
X6.878Y-6.8551
X6.878Y-6.9551
X6.878Y-7.0551
X6.878Y-7.1551
X6.878Y-7.2551
X6.878Y-7.3551
X6.878Y-7.4551
X6.878Y-7.5551
X6.878Y-7.6551
X6.878Y-7.7551
X6.878Y-7.8551
X6.878Y-7.9551
X6.878Y-8.0551
X6.878Y-8.1551
X6.878Y-8.2551
X6.878Y-8.3551
X6.9654Y-8.7795
X6.9654Y-8.8795
X6.978Y-2.9551
X6.978Y-3.0551
X6.978Y-3.1551
X6.978Y-3.2551
X6.978Y-3.3551
X6.978Y-3.4551
X6.978Y-3.5551
X6.978Y-3.6551
X6.978Y-3.7551
X6.978Y-3.8551
X6.978Y-3.9551
X6.978Y-4.0551
X6.978Y-4.1551
X6.978Y-4.2551
X6.978Y-4.3551
X6.978Y-4.4551
X6.978Y-4.5551
X6.978Y-4.6551
X6.978Y-4.7551
X6.978Y-4.8551
X6.978Y-4.9551
X6.978Y-5.0551
X6.978Y-5.1551
X6.978Y-5.2551
X6.978Y-5.3551
X6.978Y-5.4551
X6.978Y-5.5551
X6.978Y-5.6551
X6.978Y-5.7551
X6.978Y-5.8551
X6.978Y-5.9551
X6.978Y-6.0551
X6.978Y-6.1551
X6.978Y-6.2551
X6.978Y-6.3551
X6.978Y-6.4551
X6.978Y-6.5551
X6.978Y-6.6551
X6.978Y-6.7551
X6.978Y-6.8551
X6.978Y-6.9551
X6.978Y-7.0551
X6.978Y-7.1551
X6.978Y-7.2551
X6.978Y-7.3551
X6.978Y-7.4551
X6.978Y-7.5551
X6.978Y-7.6551
X6.978Y-7.7551
X6.978Y-7.8551
X6.978Y-7.9551
X6.978Y-8.0551
X6.978Y-8.1551
X6.978Y-8.2551
X6.978Y-8.3551
X7.0654Y-8.7795
X7.0654Y-8.8795
X7.078Y-2.9551
X7.078Y-3.0551
X7.078Y-3.1551
X7.078Y-3.2551
X7.078Y-3.3551
X7.078Y-3.4551
X7.078Y-3.5551
X7.078Y-3.6551
X7.078Y-3.7551
X7.078Y-3.8551
X7.078Y-3.9551
X7.078Y-4.0551
X7.078Y-4.1551
X7.078Y-4.2551
X7.078Y-4.3551
X7.078Y-4.4551
X7.078Y-4.5551
X7.078Y-4.6551
X7.078Y-4.7551
X7.078Y-4.8551
X7.078Y-4.9551
X7.078Y-5.0551
X7.078Y-5.1551
X7.078Y-5.2551
X7.078Y-5.3551
X7.078Y-5.4551
X7.078Y-5.5551
X7.078Y-5.6551
X7.078Y-5.7551
X7.078Y-5.8551
X7.078Y-5.9551
X7.078Y-6.0551
X7.078Y-6.1551
X7.078Y-6.2551
X7.078Y-6.3551
X7.078Y-6.4551
X7.078Y-6.5551
X7.078Y-6.6551
X7.078Y-6.7551
X7.078Y-6.8551
X7.078Y-6.9551
X7.078Y-7.0551
X7.078Y-7.1551
X7.078Y-7.2551
X7.078Y-7.3551
X7.078Y-7.4551
X7.078Y-7.5551
X7.078Y-7.6551
X7.078Y-7.7551
X7.078Y-7.8551
X7.078Y-7.9551
X7.078Y-8.0551
X7.078Y-8.1551
X7.078Y-8.2551
X7.078Y-8.3551
X7.1654Y-8.7795
X7.1654Y-8.8795
X7.178Y-2.9551
X7.178Y-3.0551
X7.178Y-3.1551
X7.178Y-3.2551
X7.178Y-3.3551
X7.178Y-3.4551
X7.178Y-3.5551
X7.178Y-3.6551
X7.178Y-3.7551
X7.178Y-3.8551
X7.178Y-3.9551
X7.178Y-4.0551
X7.178Y-4.1551
X7.178Y-4.2551
X7.178Y-4.3551
X7.178Y-4.4551
X7.178Y-4.5551
X7.178Y-4.6551
X7.178Y-4.7551
X7.178Y-4.8551
X7.178Y-4.9551
X7.178Y-5.0551
X7.178Y-5.1551
X7.178Y-5.2551
X7.178Y-5.3551
X7.178Y-5.4551
X7.178Y-5.5551
X7.178Y-5.6551
X7.178Y-5.7551
X7.178Y-5.8551
X7.178Y-5.9551
X7.178Y-6.0551
X7.178Y-6.1551
X7.178Y-6.2551
X7.178Y-6.3551
X7.178Y-6.4551
X7.178Y-6.5551
X7.178Y-6.6551
X7.178Y-6.7551
X7.178Y-6.8551
X7.178Y-6.9551
X7.178Y-7.0551
X7.178Y-7.1551
X7.178Y-7.2551
X7.178Y-7.3551
X7.178Y-7.4551
X7.178Y-7.5551
X7.178Y-7.6551
X7.178Y-7.7551
X7.178Y-7.8551
X7.178Y-7.9551
X7.178Y-8.0551
X7.178Y-8.1551
X7.178Y-8.2551
X7.178Y-8.3551
X7.278Y-2.9551
X7.278Y-3.0551
X7.278Y-3.1551
X7.278Y-3.2551
X7.278Y-3.3551
X7.278Y-3.4551
X7.278Y-3.5551
X7.278Y-3.6551
X7.278Y-3.7551
X7.278Y-3.8551
X7.278Y-3.9551
X7.278Y-4.0551
X7.278Y-4.1551
X7.278Y-4.2551
X7.278Y-4.3551
X7.278Y-4.4551
X7.278Y-4.5551
X7.278Y-4.6551
X7.278Y-4.7551
X7.278Y-4.8551
X7.278Y-4.9551
X7.278Y-5.0551
X7.278Y-5.1551
X7.278Y-5.2551
X7.278Y-5.3551
X7.278Y-5.4551
X7.278Y-5.5551
X7.278Y-5.6551
X7.278Y-5.7551
X7.278Y-5.8551
X7.278Y-5.9551
X7.278Y-6.0551
X7.278Y-6.1551
X7.278Y-6.2551
X7.278Y-6.3551
X7.278Y-6.4551
X7.278Y-6.5551
X7.278Y-6.6551
X7.278Y-6.7551
X7.278Y-6.8551
X7.278Y-6.9551
X7.278Y-7.0551
X7.278Y-7.1551
X7.278Y-7.2551
X7.278Y-7.3551
X7.278Y-7.4551
X7.278Y-7.5551
X7.278Y-7.6551
X7.278Y-7.7551
X7.278Y-7.8551
X7.278Y-7.9551
X7.278Y-8.0551
X7.278Y-8.1551
X7.278Y-8.2551
X7.278Y-8.3551
X7.378Y-2.9551
X7.378Y-3.0551
X7.378Y-3.1551
X7.378Y-3.2551
X7.378Y-3.3551
X7.378Y-3.4551
X7.378Y-3.5551
X7.378Y-3.6551
X7.378Y-3.7551
X7.378Y-3.8551
X7.378Y-3.9551
X7.378Y-4.0551
X7.378Y-4.1551
X7.378Y-4.2551
X7.378Y-4.3551
X7.378Y-4.4551
X7.378Y-4.5551
X7.378Y-4.6551
X7.378Y-4.7551
X7.378Y-4.8551
X7.378Y-4.9551
X7.378Y-5.0551
X7.378Y-5.1551
X7.378Y-5.2551
X7.378Y-5.3551
X7.378Y-5.4551
X7.378Y-5.5551
X7.378Y-5.6551
X7.378Y-5.7551
X7.378Y-5.8551
X7.378Y-5.9551
X7.378Y-6.0551
X7.378Y-6.1551
X7.378Y-6.2551
X7.378Y-6.3551
X7.378Y-6.4551
X7.378Y-6.5551
X7.378Y-6.6551
X7.378Y-6.7551
X7.378Y-6.8551
X7.378Y-6.9551
X7.378Y-7.0551
X7.378Y-7.1551
X7.378Y-7.2551
X7.378Y-7.3551
X7.378Y-7.4551
X7.378Y-7.5551
X7.378Y-7.6551
X7.378Y-7.7551
X7.378Y-7.8551
X7.378Y-7.9551
X7.378Y-8.0551
X7.378Y-8.1551
X7.378Y-8.2551
X7.378Y-8.3551
X7.478Y-2.9551
X7.478Y-3.0551
X7.478Y-3.1551
X7.478Y-3.2551
X7.478Y-3.3551
X7.478Y-3.4551
X7.478Y-3.5551
X7.478Y-3.6551
X7.478Y-3.7551
X7.478Y-3.8551
X7.478Y-3.9551
X7.478Y-4.0551
X7.478Y-4.1551
X7.478Y-4.2551
X7.478Y-4.3551
X7.478Y-4.4551
X7.478Y-4.5551
X7.478Y-4.6551
X7.478Y-4.7551
X7.478Y-4.8551
X7.478Y-4.9551
X7.478Y-5.0551
X7.478Y-5.1551
X7.478Y-5.2551
X7.478Y-5.3551
X7.478Y-5.4551
X7.478Y-5.5551
X7.478Y-5.6551
X7.478Y-5.7551
X7.478Y-5.8551
X7.478Y-5.9551
X7.478Y-6.0551
X7.478Y-6.1551
X7.478Y-6.2551
X7.478Y-6.3551
X7.478Y-6.4551
X7.478Y-6.5551
X7.478Y-6.6551
X7.478Y-6.7551
X7.478Y-6.8551
X7.478Y-6.9551
X7.478Y-7.0551
X7.478Y-7.1551
X7.478Y-7.2551
X7.478Y-7.3551
X7.478Y-7.4551
X7.478Y-7.5551
X7.478Y-7.6551
X7.478Y-7.7551
X7.478Y-7.8551
X7.478Y-7.9551
X7.478Y-8.0551
X7.478Y-8.1551
X7.478Y-8.2551
X7.478Y-8.3551
X7.578Y-2.9551
X7.578Y-3.0551
X7.578Y-3.1551
X7.578Y-3.2551
X7.578Y-3.3551
X7.578Y-3.4551
X7.578Y-3.5551
X7.578Y-3.6551
X7.578Y-3.7551
X7.578Y-3.8551
X7.578Y-3.9551
X7.578Y-4.0551
X7.578Y-4.1551
X7.578Y-4.2551
X7.578Y-4.3551
X7.578Y-4.4551
X7.578Y-4.5551
X7.578Y-4.6551
X7.578Y-4.7551
X7.578Y-4.8551
X7.578Y-4.9551
X7.578Y-5.0551
X7.578Y-5.1551
X7.578Y-5.2551
X7.578Y-5.3551
X7.578Y-5.4551
X7.578Y-5.5551
X7.578Y-5.6551
X7.578Y-5.7551
X7.578Y-5.8551
X7.578Y-5.9551
X7.578Y-6.0551
X7.578Y-6.1551
X7.578Y-6.2551
X7.578Y-6.3551
X7.578Y-6.4551
X7.578Y-6.5551
X7.578Y-6.6551
X7.578Y-6.7551
X7.578Y-6.8551
X7.578Y-6.9551
X7.578Y-7.0551
X7.578Y-7.1551
X7.578Y-7.2551
X7.578Y-7.3551
X7.578Y-7.4551
X7.578Y-7.5551
X7.578Y-7.6551
X7.578Y-7.7551
X7.578Y-7.8551
X7.578Y-7.9551
X7.578Y-8.0551
X7.578Y-8.1551
X7.578Y-8.2551
X7.578Y-8.3551
X7.678Y-2.9551
X7.678Y-3.0551
X7.678Y-3.1551
X7.678Y-3.2551
X7.678Y-3.3551
X7.678Y-3.4551
X7.678Y-3.5551
X7.678Y-3.6551
X7.678Y-3.7551
X7.678Y-3.8551
X7.678Y-3.9551
X7.678Y-4.0551
X7.678Y-4.1551
X7.678Y-4.2551
X7.678Y-4.3551
X7.678Y-4.4551
X7.678Y-4.5551
X7.678Y-4.6551
X7.678Y-4.7551
X7.678Y-4.8551
X7.678Y-4.9551
X7.678Y-5.0551
X7.678Y-5.1551
X7.678Y-5.2551
X7.678Y-5.3551
X7.678Y-5.4551
X7.678Y-5.5551
X7.678Y-5.6551
X7.678Y-5.7551
X7.678Y-5.8551
X7.678Y-5.9551
X7.678Y-6.0551
X7.678Y-6.1551
X7.678Y-6.2551
X7.678Y-6.3551
X7.678Y-6.4551
X7.678Y-6.5551
X7.678Y-6.6551
X7.678Y-6.7551
X7.678Y-6.8551
X7.678Y-6.9551
X7.678Y-7.0551
X7.678Y-7.1551
X7.678Y-7.2551
X7.678Y-7.3551
X7.678Y-7.4551
X7.678Y-7.5551
X7.678Y-7.6551
X7.678Y-7.7551
X7.678Y-7.8551
X7.678Y-7.9551
X7.678Y-8.0551
X7.678Y-8.1551
X7.678Y-8.2551
X7.678Y-8.3551
X7.7575Y-8.7795
X7.7575Y-8.8795
X7.778Y-2.9551
X7.778Y-3.0551
X7.778Y-3.1551
X7.778Y-3.2551
X7.778Y-3.3551
X7.778Y-3.4551
X7.778Y-3.5551
X7.778Y-3.6551
X7.778Y-3.7551
X7.778Y-3.8551
X7.778Y-3.9551
X7.778Y-4.0551
X7.778Y-4.1551
X7.778Y-4.2551
X7.778Y-4.3551
X7.778Y-4.4551
X7.778Y-4.5551
X7.778Y-4.6551
X7.778Y-4.7551
X7.778Y-4.8551
X7.778Y-4.9551
X7.778Y-5.0551
X7.778Y-5.1551
X7.778Y-5.2551
X7.778Y-5.3551
X7.778Y-5.4551
X7.778Y-5.5551
X7.778Y-5.6551
X7.778Y-5.7551
X7.778Y-5.8551
X7.778Y-5.9551
X7.778Y-6.0551
X7.778Y-6.1551
X7.778Y-6.2551
X7.778Y-6.3551
X7.778Y-6.4551
X7.778Y-6.5551
X7.778Y-6.6551
X7.778Y-6.7551
X7.778Y-6.8551
X7.778Y-6.9551
X7.778Y-7.0551
X7.778Y-7.1551
X7.778Y-7.2551
X7.778Y-7.3551
X7.778Y-7.4551
X7.778Y-7.5551
X7.778Y-7.6551
X7.778Y-7.7551
X7.778Y-7.8551
X7.778Y-7.9551
X7.778Y-8.0551
X7.778Y-8.1551
X7.778Y-8.2551
X7.778Y-8.3551
X7.8575Y-8.7795
X7.8575Y-8.8795
X7.878Y-2.9551
X7.878Y-3.0551
X7.878Y-3.1551
X7.878Y-3.2551
X7.878Y-3.3551
X7.878Y-3.4551
X7.878Y-3.5551
X7.878Y-3.6551
X7.878Y-3.7551
X7.878Y-3.8551
X7.878Y-3.9551
X7.878Y-4.0551
X7.878Y-4.1551
X7.878Y-4.2551
X7.878Y-4.3551
X7.878Y-4.4551
X7.878Y-4.5551
X7.878Y-4.6551
X7.878Y-4.7551
X7.878Y-4.8551
X7.878Y-4.9551
X7.878Y-5.0551
X7.878Y-5.1551
X7.878Y-5.2551
X7.878Y-5.3551
X7.878Y-5.4551
X7.878Y-5.5551
X7.878Y-5.6551
X7.878Y-5.7551
X7.878Y-5.8551
X7.878Y-5.9551
X7.878Y-6.0551
X7.878Y-6.1551
X7.878Y-6.2551
X7.878Y-6.3551
X7.878Y-6.4551
X7.878Y-6.5551
X7.878Y-6.6551
X7.878Y-6.7551
X7.878Y-6.8551
X7.878Y-6.9551
X7.878Y-7.0551
X7.878Y-7.1551
X7.878Y-7.2551
X7.878Y-7.3551
X7.878Y-7.4551
X7.878Y-7.5551
X7.878Y-7.6551
X7.878Y-7.7551
X7.878Y-7.8551
X7.878Y-7.9551
X7.878Y-8.0551
X7.878Y-8.1551
X7.878Y-8.2551
X7.878Y-8.3551
X7.9575Y-8.7795
X7.9575Y-8.8795
X7.978Y-2.9551
X7.978Y-3.0551
X7.978Y-3.1551
X7.978Y-3.2551
X7.978Y-3.3551
X7.978Y-3.4551
X7.978Y-3.5551
X7.978Y-3.6551
X7.978Y-3.7551
X7.978Y-3.8551
X7.978Y-3.9551
X7.978Y-4.0551
X7.978Y-4.1551
X7.978Y-4.2551
X7.978Y-4.3551
X7.978Y-4.4551
X7.978Y-4.5551
X7.978Y-4.6551
X7.978Y-4.7551
X7.978Y-4.8551
X7.978Y-4.9551
X7.978Y-5.0551
X7.978Y-5.1551
X7.978Y-5.2551
X7.978Y-5.3551
X7.978Y-5.4551
X7.978Y-5.5551
X7.978Y-5.6551
X7.978Y-5.7551
X7.978Y-5.8551
X7.978Y-5.9551
X7.978Y-6.0551
X7.978Y-6.1551
X7.978Y-6.2551
X7.978Y-6.3551
X7.978Y-6.4551
X7.978Y-6.5551
X7.978Y-6.6551
X7.978Y-6.7551
X7.978Y-6.8551
X7.978Y-6.9551
X7.978Y-7.0551
X7.978Y-7.1551
X7.978Y-7.2551
X7.978Y-7.3551
X7.978Y-7.4551
X7.978Y-7.5551
X7.978Y-7.6551
X7.978Y-7.7551
X7.978Y-7.8551
X7.978Y-7.9551
X7.978Y-8.0551
X7.978Y-8.1551
X7.978Y-8.2551
X7.978Y-8.3551
X8.0575Y-8.7795
X8.0575Y-8.8795
X8.078Y-2.9551
X8.078Y-3.0551
X8.078Y-3.1551
X8.078Y-3.2551
X8.078Y-3.3551
X8.078Y-3.4551
X8.078Y-3.5551
X8.078Y-3.6551
X8.078Y-3.7551
X8.078Y-3.8551
X8.078Y-3.9551
X8.078Y-4.0551
X8.078Y-4.1551
X8.078Y-4.2551
X8.078Y-4.3551
X8.078Y-4.4551
X8.078Y-4.5551
X8.078Y-4.6551
X8.078Y-4.7551
X8.078Y-4.8551
X8.078Y-4.9551
X8.078Y-5.0551
X8.078Y-5.1551
X8.078Y-5.2551
X8.078Y-5.3551
X8.078Y-5.4551
X8.078Y-5.5551
X8.078Y-5.6551
X8.078Y-5.7551
X8.078Y-5.8551
X8.078Y-5.9551
X8.078Y-6.0551
X8.078Y-6.1551
X8.078Y-6.2551
X8.078Y-6.3551
X8.078Y-6.4551
X8.078Y-6.5551
X8.078Y-6.6551
X8.078Y-6.7551
X8.078Y-6.8551
X8.078Y-6.9551
X8.078Y-7.0551
X8.078Y-7.1551
X8.078Y-7.2551
X8.078Y-7.3551
X8.078Y-7.4551
X8.078Y-7.5551
X8.078Y-7.6551
X8.078Y-7.7551
X8.078Y-7.8551
X8.078Y-7.9551
X8.078Y-8.0551
X8.078Y-8.1551
X8.078Y-8.2551
X8.078Y-8.3551
X8.1575Y-8.7795
X8.1575Y-8.8795
X8.178Y-2.9551
X8.178Y-3.0551
X8.178Y-3.1551
X8.178Y-3.2551
X8.178Y-3.3551
X8.178Y-3.4551
X8.178Y-3.5551
X8.178Y-3.6551
X8.178Y-3.7551
X8.178Y-3.8551
X8.178Y-3.9551
X8.178Y-4.0551
X8.178Y-4.1551
X8.178Y-4.2551
X8.178Y-4.3551
X8.178Y-4.4551
X8.178Y-4.5551
X8.178Y-4.6551
X8.178Y-4.7551
X8.178Y-4.8551
X8.178Y-4.9551
X8.178Y-5.0551
X8.178Y-5.1551
X8.178Y-5.2551
X8.178Y-5.3551
X8.178Y-5.4551
X8.178Y-5.5551
X8.178Y-5.6551
X8.178Y-5.7551
X8.178Y-5.8551
X8.178Y-5.9551
X8.178Y-6.0551
X8.178Y-6.1551
X8.178Y-6.2551
X8.178Y-6.3551
X8.178Y-6.4551
X8.178Y-6.5551
X8.178Y-6.6551
X8.178Y-6.7551
X8.178Y-6.8551
X8.178Y-6.9551
X8.178Y-7.0551
X8.178Y-7.1551
X8.178Y-7.2551
X8.178Y-7.3551
X8.178Y-7.4551
X8.178Y-7.5551
X8.178Y-7.6551
X8.178Y-7.7551
X8.178Y-7.8551
X8.178Y-7.9551
X8.178Y-8.0551
X8.178Y-8.1551
X8.178Y-8.2551
X8.178Y-8.3551
X8.2575Y-8.7795
X8.2575Y-8.8795
X8.278Y-2.9551
X8.278Y-3.0551
X8.278Y-3.1551
X8.278Y-3.2551
X8.278Y-3.3551
X8.278Y-3.4551
X8.278Y-3.5551
X8.278Y-3.6551
X8.278Y-3.7551
X8.278Y-3.8551
X8.278Y-3.9551
X8.278Y-4.0551
X8.278Y-4.1551
X8.278Y-4.2551
X8.278Y-4.3551
X8.278Y-4.4551
X8.278Y-4.5551
X8.278Y-4.6551
X8.278Y-4.7551
X8.278Y-4.8551
X8.278Y-4.9551
X8.278Y-5.0551
X8.278Y-5.1551
X8.278Y-5.2551
X8.278Y-5.3551
X8.278Y-5.4551
X8.278Y-5.5551
X8.278Y-5.6551
X8.278Y-5.7551
X8.278Y-5.8551
X8.278Y-5.9551
X8.278Y-6.0551
X8.278Y-6.1551
X8.278Y-6.2551
X8.278Y-6.3551
X8.278Y-6.4551
X8.278Y-6.5551
X8.278Y-6.6551
X8.278Y-6.7551
X8.278Y-6.8551
X8.278Y-6.9551
X8.278Y-7.0551
X8.278Y-7.1551
X8.278Y-7.2551
X8.278Y-7.3551
X8.278Y-7.4551
X8.278Y-7.5551
X8.278Y-7.6551
X8.278Y-7.7551
X8.278Y-7.8551
X8.278Y-7.9551
X8.278Y-8.0551
X8.278Y-8.1551
X8.278Y-8.2551
X8.278Y-8.3551
X8.3575Y-8.7795
X8.3575Y-8.8795
X8.378Y-2.9551
X8.378Y-3.0551
X8.378Y-3.1551
X8.378Y-3.2551
X8.378Y-3.3551
X8.378Y-3.4551
X8.378Y-3.5551
X8.378Y-3.6551
X8.378Y-3.7551
X8.378Y-3.8551
X8.378Y-3.9551
X8.378Y-4.0551
X8.378Y-4.1551
X8.378Y-4.2551
X8.378Y-4.3551
X8.378Y-4.4551
X8.378Y-4.5551
X8.378Y-4.6551
X8.378Y-4.7551
X8.378Y-4.8551
X8.378Y-4.9551
X8.378Y-5.0551
X8.378Y-5.1551
X8.378Y-5.2551
X8.378Y-5.3551
X8.378Y-5.4551
X8.378Y-5.5551
X8.378Y-5.6551
X8.378Y-5.7551
X8.378Y-5.8551
X8.378Y-5.9551
X8.378Y-6.0551
X8.378Y-6.1551
X8.378Y-6.2551
X8.378Y-6.3551
X8.378Y-6.4551
X8.378Y-6.5551
X8.378Y-6.6551
X8.378Y-6.7551
X8.378Y-6.8551
X8.378Y-6.9551
X8.378Y-7.0551
X8.378Y-7.1551
X8.378Y-7.2551
X8.378Y-7.3551
X8.378Y-7.4551
X8.378Y-7.5551
X8.378Y-7.6551
X8.378Y-7.7551
X8.378Y-7.8551
X8.378Y-7.9551
X8.378Y-8.0551
X8.378Y-8.1551
X8.378Y-8.2551
X8.378Y-8.3551
X8.4575Y-8.7795
X8.4575Y-8.8795
X8.478Y-2.9551
X8.478Y-3.0551
X8.478Y-3.1551
X8.478Y-3.2551
X8.478Y-3.3551
X8.478Y-3.4551
X8.478Y-3.5551
X8.478Y-3.6551
X8.478Y-3.7551
X8.478Y-3.8551
X8.478Y-3.9551
X8.478Y-4.0551
X8.478Y-4.1551
X8.478Y-4.2551
X8.478Y-4.3551
X8.478Y-4.4551
X8.478Y-4.5551
X8.478Y-4.6551
X8.478Y-4.7551
X8.478Y-4.8551
X8.478Y-4.9551
X8.478Y-5.0551
X8.478Y-5.1551
X8.478Y-5.2551
X8.478Y-5.3551
X8.478Y-5.4551
X8.478Y-5.5551
X8.478Y-5.6551
X8.478Y-5.7551
X8.478Y-5.8551
X8.478Y-5.9551
X8.478Y-6.0551
X8.478Y-6.1551
X8.478Y-6.2551
X8.478Y-6.3551
X8.478Y-6.4551
X8.478Y-6.5551
X8.478Y-6.6551
X8.478Y-6.7551
X8.478Y-6.8551
X8.478Y-6.9551
X8.478Y-7.0551
X8.478Y-7.1551
X8.478Y-7.2551
X8.478Y-7.3551
X8.478Y-7.4551
X8.478Y-7.5551
X8.478Y-7.6551
X8.478Y-7.7551
X8.478Y-7.8551
X8.478Y-7.9551
X8.478Y-8.0551
X8.478Y-8.1551
X8.478Y-8.2551
X8.478Y-8.3551
X8.5575Y-8.7795
X8.5575Y-8.8795
X8.578Y-2.9551
X8.578Y-3.0551
X8.578Y-3.1551
X8.578Y-3.2551
X8.578Y-3.3551
X8.578Y-3.4551
X8.578Y-3.5551
X8.578Y-3.6551
X8.578Y-3.7551
X8.578Y-3.8551
X8.578Y-3.9551
X8.578Y-4.0551
X8.578Y-4.1551
X8.578Y-4.2551
X8.578Y-4.3551
X8.578Y-4.4551
X8.578Y-4.5551
X8.578Y-4.6551
X8.578Y-4.7551
X8.578Y-4.8551
X8.578Y-4.9551
X8.578Y-5.0551
X8.578Y-5.1551
X8.578Y-5.2551
X8.578Y-5.3551
X8.578Y-5.4551
X8.578Y-5.5551
X8.578Y-5.6551
X8.578Y-5.7551
X8.578Y-5.8551
X8.578Y-5.9551
X8.578Y-6.0551
X8.578Y-6.1551
X8.578Y-6.2551
X8.578Y-6.3551
X8.578Y-6.4551
X8.578Y-6.5551
X8.578Y-6.6551
X8.578Y-6.7551
X8.578Y-6.8551
X8.578Y-6.9551
X8.578Y-7.0551
X8.578Y-7.1551
X8.578Y-7.2551
X8.578Y-7.3551
X8.578Y-7.4551
X8.578Y-7.5551
X8.578Y-7.6551
X8.578Y-7.7551
X8.578Y-7.8551
X8.578Y-7.9551
X8.578Y-8.0551
X8.578Y-8.1551
X8.578Y-8.2551
X8.578Y-8.3551
X8.6575Y-8.7795
X8.6575Y-8.8795
X8.678Y-2.9551
X8.678Y-3.0551
X8.678Y-3.1551
X8.678Y-3.2551
X8.678Y-3.3551
X8.678Y-3.4551
X8.678Y-3.5551
X8.678Y-3.6551
X8.678Y-3.7551
X8.678Y-3.8551
X8.678Y-3.9551
X8.678Y-4.0551
X8.678Y-4.1551
X8.678Y-4.2551
X8.678Y-4.3551
X8.678Y-4.4551
X8.678Y-4.5551
X8.678Y-4.6551
X8.678Y-4.7551
X8.678Y-4.8551
X8.678Y-4.9551
X8.678Y-5.0551
X8.678Y-5.1551
X8.678Y-5.2551
X8.678Y-5.3551
X8.678Y-5.4551
X8.678Y-5.5551
X8.678Y-5.6551
X8.678Y-5.7551
X8.678Y-5.8551
X8.678Y-5.9551
X8.678Y-6.0551
X8.678Y-6.1551
X8.678Y-6.2551
X8.678Y-6.3551
X8.678Y-6.4551
X8.678Y-6.5551
X8.678Y-6.6551
X8.678Y-6.7551
X8.678Y-6.8551
X8.678Y-6.9551
X8.678Y-7.0551
X8.678Y-7.1551
X8.678Y-7.2551
X8.678Y-7.3551
X8.678Y-7.4551
X8.678Y-7.5551
X8.678Y-7.6551
X8.678Y-7.7551
X8.678Y-7.8551
X8.678Y-7.9551
X8.678Y-8.0551
X8.678Y-8.1551
X8.678Y-8.2551
X8.678Y-8.3551
X8.7575Y-8.7795
X8.7575Y-8.8795
X8.778Y-2.9551
X8.778Y-3.0551
X8.778Y-3.1551
X8.778Y-3.2551
X8.778Y-3.3551
X8.778Y-3.4551
X8.778Y-3.5551
X8.778Y-3.6551
X8.778Y-3.7551
X8.778Y-3.8551
X8.778Y-3.9551
X8.778Y-4.0551
X8.778Y-4.1551
X8.778Y-4.2551
X8.778Y-4.3551
X8.778Y-4.4551
X8.778Y-4.5551
X8.778Y-4.6551
X8.778Y-4.7551
X8.778Y-4.8551
X8.778Y-4.9551
X8.778Y-5.0551
X8.778Y-5.1551
X8.778Y-5.2551
X8.778Y-5.3551
X8.778Y-5.4551
X8.778Y-5.5551
X8.778Y-5.6551
X8.778Y-5.7551
X8.778Y-5.8551
X8.778Y-5.9551
X8.778Y-6.0551
X8.778Y-6.1551
X8.778Y-6.2551
X8.778Y-6.3551
X8.778Y-6.4551
X8.778Y-6.5551
X8.778Y-6.6551
X8.778Y-6.7551
X8.778Y-6.8551
X8.778Y-6.9551
X8.778Y-7.0551
X8.778Y-7.1551
X8.778Y-7.2551
X8.778Y-7.3551
X8.778Y-7.4551
X8.778Y-7.5551
X8.778Y-7.6551
X8.778Y-7.7551
X8.778Y-7.8551
X8.778Y-7.9551
X8.778Y-8.0551
X8.778Y-8.1551
X8.778Y-8.2551
X8.778Y-8.3551
X8.8575Y-8.7795
X8.8575Y-8.8795
X8.878Y-2.9551
X8.878Y-3.0551
X8.878Y-3.1551
X8.878Y-3.2551
X8.878Y-3.3551
X8.878Y-3.4551
X8.878Y-3.5551
X8.878Y-3.6551
X8.878Y-3.7551
X8.878Y-3.8551
X8.878Y-3.9551
X8.878Y-4.0551
X8.878Y-4.1551
X8.878Y-4.2551
X8.878Y-4.3551
X8.878Y-4.4551
X8.878Y-4.5551
X8.878Y-4.6551
X8.878Y-4.7551
X8.878Y-4.8551
X8.878Y-4.9551
X8.878Y-5.0551
X8.878Y-5.1551
X8.878Y-5.2551
X8.878Y-5.3551
X8.878Y-5.4551
X8.878Y-5.5551
X8.878Y-5.6551
X8.878Y-5.7551
X8.878Y-5.8551
X8.878Y-5.9551
X8.878Y-6.0551
X8.878Y-6.1551
X8.878Y-6.2551
X8.878Y-6.3551
X8.878Y-6.4551
X8.878Y-6.5551
X8.878Y-6.6551
X8.878Y-6.7551
X8.878Y-6.8551
X8.878Y-6.9551
X8.878Y-7.0551
X8.878Y-7.1551
X8.878Y-7.2551
X8.878Y-7.3551
X8.878Y-7.4551
X8.878Y-7.5551
X8.878Y-7.6551
X8.878Y-7.7551
X8.878Y-7.8551
X8.878Y-7.9551
X8.878Y-8.0551
X8.878Y-8.1551
X8.878Y-8.2551
X8.878Y-8.3551
X8.9575Y-8.7795
X8.9575Y-8.8795
X8.978Y-2.9551
X8.978Y-3.0551
X8.978Y-3.1551
X8.978Y-3.2551
X8.978Y-3.3551
X8.978Y-3.4551
X8.978Y-3.5551
X8.978Y-3.6551
X8.978Y-3.7551
X8.978Y-3.8551
X8.978Y-3.9551
X8.978Y-4.0551
X8.978Y-4.1551
X8.978Y-4.2551
X8.978Y-4.3551
X8.978Y-4.4551
X8.978Y-4.5551
X8.978Y-4.6551
X8.978Y-4.7551
X8.978Y-4.8551
X8.978Y-4.9551
X8.978Y-5.0551
X8.978Y-5.1551
X8.978Y-5.2551
X8.978Y-5.3551
X8.978Y-5.4551
X8.978Y-5.5551
X8.978Y-5.6551
X8.978Y-5.7551
X8.978Y-5.8551
X8.978Y-5.9551
X8.978Y-6.0551
X8.978Y-6.1551
X8.978Y-6.2551
X8.978Y-6.3551
X8.978Y-6.4551
X8.978Y-6.5551
X8.978Y-6.6551
X8.978Y-6.7551
X8.978Y-6.8551
X8.978Y-6.9551
X8.978Y-7.0551
X8.978Y-7.1551
X8.978Y-7.2551
X8.978Y-7.3551
X8.978Y-7.4551
X8.978Y-7.5551
X8.978Y-7.6551
X8.978Y-7.7551
X8.978Y-7.8551
X8.978Y-7.9551
X8.978Y-8.0551
X8.978Y-8.1551
X8.978Y-8.2551
X8.978Y-8.3551
X9.0575Y-8.7795
X9.0575Y-8.8795
X9.078Y-2.9551
X9.078Y-3.0551
X9.078Y-3.1551
X9.078Y-3.2551
X9.078Y-3.3551
X9.078Y-3.4551
X9.078Y-3.5551
X9.078Y-3.6551
X9.078Y-3.7551
X9.078Y-3.8551
X9.078Y-3.9551
X9.078Y-4.0551
X9.078Y-4.1551
X9.078Y-4.2551
X9.078Y-4.3551
X9.078Y-4.4551
X9.078Y-4.5551
X9.078Y-4.6551
X9.078Y-4.7551
X9.078Y-4.8551
X9.078Y-4.9551
X9.078Y-5.0551
X9.078Y-5.1551
X9.078Y-5.2551
X9.078Y-5.3551
X9.078Y-5.4551
X9.078Y-5.5551
X9.078Y-5.6551
X9.078Y-5.7551
X9.078Y-5.8551
X9.078Y-5.9551
X9.078Y-6.0551
X9.078Y-6.1551
X9.078Y-6.2551
X9.078Y-6.3551
X9.078Y-6.4551
X9.078Y-6.5551
X9.078Y-6.6551
X9.078Y-6.7551
X9.078Y-6.8551
X9.078Y-6.9551
X9.078Y-7.0551
X9.078Y-7.1551
X9.078Y-7.2551
X9.078Y-7.3551
X9.078Y-7.4551
X9.078Y-7.5551
X9.078Y-7.6551
X9.078Y-7.7551
X9.078Y-7.8551
X9.078Y-7.9551
X9.078Y-8.0551
X9.078Y-8.1551
X9.078Y-8.2551
X9.078Y-8.3551
X9.1575Y-8.7795
X9.1575Y-8.8795
X9.178Y-2.9551
X9.178Y-3.0551
X9.178Y-3.1551
X9.178Y-3.2551
X9.178Y-3.3551
X9.178Y-3.4551
X9.178Y-3.5551
X9.178Y-3.6551
X9.178Y-3.7551
X9.178Y-3.8551
X9.178Y-3.9551
X9.178Y-4.0551
X9.178Y-4.1551
X9.178Y-4.2551
X9.178Y-4.3551
X9.178Y-4.4551
X9.178Y-4.5551
X9.178Y-4.6551
X9.178Y-4.7551
X9.178Y-4.8551
X9.178Y-4.9551
X9.178Y-5.0551
X9.178Y-5.1551
X9.178Y-5.2551
X9.178Y-5.3551
X9.178Y-5.4551
X9.178Y-5.5551
X9.178Y-5.6551
X9.178Y-5.7551
X9.178Y-5.8551
X9.178Y-5.9551
X9.178Y-6.0551
X9.178Y-6.1551
X9.178Y-6.2551
X9.178Y-6.3551
X9.178Y-6.4551
X9.178Y-6.5551
X9.178Y-6.6551
X9.178Y-6.7551
X9.178Y-6.8551
X9.178Y-6.9551
X9.178Y-7.0551
X9.178Y-7.1551
X9.178Y-7.2551
X9.178Y-7.3551
X9.178Y-7.4551
X9.178Y-7.5551
X9.178Y-7.6551
X9.178Y-7.7551
X9.178Y-7.8551
X9.178Y-7.9551
X9.178Y-8.0551
X9.178Y-8.1551
X9.178Y-8.2551
X9.178Y-8.3551
X9.2575Y-8.7795
X9.2575Y-8.8795
X9.278Y-2.9551
X9.278Y-3.0551
X9.278Y-3.1551
X9.278Y-3.2551
X9.278Y-3.3551
X9.278Y-3.4551
X9.278Y-3.5551
X9.278Y-3.6551
X9.278Y-3.7551
X9.278Y-3.8551
X9.278Y-3.9551
X9.278Y-4.0551
X9.278Y-4.1551
X9.278Y-4.2551
X9.278Y-4.3551
X9.278Y-4.4551
X9.278Y-4.5551
X9.278Y-4.6551
X9.278Y-4.7551
X9.278Y-4.8551
X9.278Y-4.9551
X9.278Y-5.0551
X9.278Y-5.1551
X9.278Y-5.2551
X9.278Y-5.3551
X9.278Y-5.4551
X9.278Y-5.5551
X9.278Y-5.6551
X9.278Y-5.7551
X9.278Y-5.8551
X9.278Y-5.9551
X9.278Y-6.0551
X9.278Y-6.1551
X9.278Y-6.2551
X9.278Y-6.3551
X9.278Y-6.4551
X9.278Y-6.5551
X9.278Y-6.6551
X9.278Y-6.7551
X9.278Y-6.8551
X9.278Y-6.9551
X9.278Y-7.0551
X9.278Y-7.1551
X9.278Y-7.2551
X9.278Y-7.3551
X9.278Y-7.4551
X9.278Y-7.5551
X9.278Y-7.6551
X9.278Y-7.7551
X9.278Y-7.8551
X9.278Y-7.9551
X9.278Y-8.0551
X9.278Y-8.1551
X9.278Y-8.2551
X9.278Y-8.3551
X9.3575Y-8.7795
X9.3575Y-8.8795
X9.378Y-2.9551
X9.378Y-3.0551
X9.378Y-3.1551
X9.378Y-3.2551
X9.378Y-3.3551
X9.378Y-3.4551
X9.378Y-3.5551
X9.378Y-3.6551
X9.378Y-3.7551
X9.378Y-3.8551
X9.378Y-3.9551
X9.378Y-4.0551
X9.378Y-4.1551
X9.378Y-4.2551
X9.378Y-4.3551
X9.378Y-4.4551
X9.378Y-4.5551
X9.378Y-4.6551
X9.378Y-4.7551
X9.378Y-4.8551
X9.378Y-4.9551
X9.378Y-5.0551
X9.378Y-5.1551
X9.378Y-5.2551
X9.378Y-5.3551
X9.378Y-5.4551
X9.378Y-5.5551
X9.378Y-5.6551
X9.378Y-5.7551
X9.378Y-5.8551
X9.378Y-5.9551
X9.378Y-6.0551
X9.378Y-6.1551
X9.378Y-6.2551
X9.378Y-6.3551
X9.378Y-6.4551
X9.378Y-6.5551
X9.378Y-6.6551
X9.378Y-6.7551
X9.378Y-6.8551
X9.378Y-6.9551
X9.378Y-7.0551
X9.378Y-7.1551
X9.378Y-7.2551
X9.378Y-7.3551
X9.378Y-7.4551
X9.378Y-7.5551
X9.378Y-7.6551
X9.378Y-7.7551
X9.378Y-7.8551
X9.378Y-7.9551
X9.378Y-8.0551
X9.378Y-8.1551
X9.378Y-8.2551
X9.378Y-8.3551
X9.4575Y-8.7795
X9.4575Y-8.8795
X9.478Y-2.9551
X9.478Y-3.0551
X9.478Y-3.1551
X9.478Y-3.2551
X9.478Y-3.3551
X9.478Y-3.4551
X9.478Y-3.5551
X9.478Y-3.6551
X9.478Y-3.7551
X9.478Y-3.8551
X9.478Y-3.9551
X9.478Y-4.0551
X9.478Y-4.1551
X9.478Y-4.2551
X9.478Y-4.3551
X9.478Y-4.4551
X9.478Y-4.5551
X9.478Y-4.6551
X9.478Y-4.7551
X9.478Y-4.8551
X9.478Y-4.9551
X9.478Y-5.0551
X9.478Y-5.1551
X9.478Y-5.2551
X9.478Y-5.3551
X9.478Y-5.4551
X9.478Y-5.5551
X9.478Y-5.6551
X9.478Y-5.7551
X9.478Y-5.8551
X9.478Y-5.9551
X9.478Y-6.0551
X9.478Y-6.1551
X9.478Y-6.2551
X9.478Y-6.3551
X9.478Y-6.4551
X9.478Y-6.5551
X9.478Y-6.6551
X9.478Y-6.7551
X9.478Y-6.8551
X9.478Y-6.9551
X9.478Y-7.0551
X9.478Y-7.1551
X9.478Y-7.2551
X9.478Y-7.3551
X9.478Y-7.4551
X9.478Y-7.5551
X9.478Y-7.6551
X9.478Y-7.7551
X9.478Y-7.8551
X9.478Y-7.9551
X9.478Y-8.0551
X9.478Y-8.1551
X9.478Y-8.2551
X9.478Y-8.3551
X9.5575Y-8.7795
X9.5575Y-8.8795
X9.578Y-2.9551
X9.578Y-3.0551
X9.578Y-3.1551
X9.578Y-3.2551
X9.578Y-3.3551
X9.578Y-3.4551
X9.578Y-3.5551
X9.578Y-3.6551
X9.578Y-3.7551
X9.578Y-3.8551
X9.578Y-3.9551
X9.578Y-4.0551
X9.578Y-4.1551
X9.578Y-4.2551
X9.578Y-4.3551
X9.578Y-4.4551
X9.578Y-4.5551
X9.578Y-4.6551
X9.578Y-4.7551
X9.578Y-4.8551
X9.578Y-4.9551
X9.578Y-5.0551
X9.578Y-5.1551
X9.578Y-5.2551
X9.578Y-5.3551
X9.578Y-5.4551
X9.578Y-5.5551
X9.578Y-5.6551
X9.578Y-5.7551
X9.578Y-5.8551
X9.578Y-5.9551
X9.578Y-6.0551
X9.578Y-6.1551
X9.578Y-6.2551
X9.578Y-6.3551
X9.578Y-6.4551
X9.578Y-6.5551
X9.578Y-6.6551
X9.578Y-6.7551
X9.578Y-6.8551
X9.578Y-6.9551
X9.578Y-7.0551
X9.578Y-7.1551
X9.578Y-7.2551
X9.578Y-7.3551
X9.578Y-7.4551
X9.578Y-7.5551
X9.578Y-7.6551
X9.578Y-7.7551
X9.578Y-7.8551
X9.578Y-7.9551
X9.578Y-8.0551
X9.578Y-8.1551
X9.578Y-8.2551
X9.578Y-8.3551
X9.6575Y-8.7795
X9.6575Y-8.8795
X9.678Y-2.9551
X9.678Y-3.0551
X9.678Y-3.1551
X9.678Y-3.2551
X9.678Y-3.3551
X9.678Y-3.4551
X9.678Y-3.5551
X9.678Y-3.6551
X9.678Y-3.7551
X9.678Y-3.8551
X9.678Y-3.9551
X9.678Y-4.0551
X9.678Y-4.1551
X9.678Y-4.2551
X9.678Y-4.3551
X9.678Y-4.4551
X9.678Y-4.5551
X9.678Y-4.6551
X9.678Y-4.7551
X9.678Y-4.8551
X9.678Y-4.9551
X9.678Y-5.0551
X9.678Y-5.1551
X9.678Y-5.2551
X9.678Y-5.3551
X9.678Y-5.4551
X9.678Y-5.5551
X9.678Y-5.6551
X9.678Y-5.7551
X9.678Y-5.8551
X9.678Y-5.9551
X9.678Y-6.0551
X9.678Y-6.1551
X9.678Y-6.2551
X9.678Y-6.3551
X9.678Y-6.4551
X9.678Y-6.5551
X9.678Y-6.6551
X9.678Y-6.7551
X9.678Y-6.8551
X9.678Y-6.9551
X9.678Y-7.0551
X9.678Y-7.1551
X9.678Y-7.2551
X9.678Y-7.3551
X9.678Y-7.4551
X9.678Y-7.5551
X9.678Y-7.6551
X9.678Y-7.7551
X9.678Y-7.8551
X9.678Y-7.9551
X9.678Y-8.0551
X9.678Y-8.1551
X9.678Y-8.2551
X9.678Y-8.3551
X9.7575Y-8.7795
X9.7575Y-8.8795
X9.778Y-2.9551
X9.778Y-3.0551
X9.778Y-3.1551
X9.778Y-3.2551
X9.778Y-3.3551
X9.778Y-3.4551
X9.778Y-3.5551
X9.778Y-3.6551
X9.778Y-3.7551
X9.778Y-3.8551
X9.778Y-3.9551
X9.778Y-4.0551
X9.778Y-4.1551
X9.778Y-4.2551
X9.778Y-4.3551
X9.778Y-4.4551
X9.778Y-4.5551
X9.778Y-4.6551
X9.778Y-4.7551
X9.778Y-4.8551
X9.778Y-4.9551
X9.778Y-5.0551
X9.778Y-5.1551
X9.778Y-5.2551
X9.778Y-5.3551
X9.778Y-5.4551
X9.778Y-5.5551
X9.778Y-5.6551
X9.778Y-5.7551
X9.778Y-5.8551
X9.778Y-5.9551
X9.778Y-6.0551
X9.778Y-6.1551
X9.778Y-6.2551
X9.778Y-6.3551
X9.778Y-6.4551
X9.778Y-6.5551
X9.778Y-6.6551
X9.778Y-6.7551
X9.778Y-6.8551
X9.778Y-6.9551
X9.778Y-7.0551
X9.778Y-7.1551
X9.778Y-7.2551
X9.778Y-7.3551
X9.778Y-7.4551
X9.778Y-7.5551
X9.778Y-7.6551
X9.778Y-7.7551
X9.778Y-7.8551
X9.778Y-7.9551
X9.778Y-8.0551
X9.778Y-8.1551
X9.778Y-8.2551
X9.778Y-8.3551
X9.8575Y-8.7795
X9.8575Y-8.8795
X9.878Y-2.9551
X9.878Y-3.0551
X9.878Y-3.1551
X9.878Y-3.2551
X9.878Y-3.3551
X9.878Y-3.4551
X9.878Y-3.5551
X9.878Y-3.6551
X9.878Y-3.7551
X9.878Y-3.8551
X9.878Y-3.9551
X9.878Y-4.0551
X9.878Y-4.1551
X9.878Y-4.2551
X9.878Y-4.3551
X9.878Y-4.4551
X9.878Y-4.5551
X9.878Y-4.6551
X9.878Y-4.7551
X9.878Y-4.8551
X9.878Y-4.9551
X9.878Y-5.0551
X9.878Y-5.1551
X9.878Y-5.2551
X9.878Y-5.3551
X9.878Y-5.4551
X9.878Y-5.5551
X9.878Y-5.6551
X9.878Y-5.7551
X9.878Y-5.8551
X9.878Y-5.9551
X9.878Y-6.0551
X9.878Y-6.1551
X9.878Y-6.2551
X9.878Y-6.3551
X9.878Y-6.4551
X9.878Y-6.5551
X9.878Y-6.6551
X9.878Y-6.7551
X9.878Y-6.8551
X9.878Y-6.9551
X9.878Y-7.0551
X9.878Y-7.1551
X9.878Y-7.2551
X9.878Y-7.3551
X9.878Y-7.4551
X9.878Y-7.5551
X9.878Y-7.6551
X9.878Y-7.7551
X9.878Y-7.8551
X9.878Y-7.9551
X9.878Y-8.0551
X9.878Y-8.1551
X9.878Y-8.2551
X9.878Y-8.3551
X9.9575Y-8.7795
X9.9575Y-8.8795
X9.978Y-2.9551
X9.978Y-3.0551
X9.978Y-3.1551
X9.978Y-3.2551
X9.978Y-3.3551
X9.978Y-3.4551
X9.978Y-3.5551
X9.978Y-3.6551
X9.978Y-3.7551
X9.978Y-3.8551
X9.978Y-3.9551
X9.978Y-4.0551
X9.978Y-4.1551
X9.978Y-4.2551
X9.978Y-4.3551
X9.978Y-4.4551
X9.978Y-4.5551
X9.978Y-4.6551
X9.978Y-4.7551
X9.978Y-4.8551
X9.978Y-4.9551
X9.978Y-5.0551
X9.978Y-5.1551
X9.978Y-5.2551
X9.978Y-5.3551
X9.978Y-5.4551
X9.978Y-5.5551
X9.978Y-5.6551
X9.978Y-5.7551
X9.978Y-5.8551
X9.978Y-5.9551
X9.978Y-6.0551
X9.978Y-6.1551
X9.978Y-6.2551
X9.978Y-6.3551
X9.978Y-6.4551
X9.978Y-6.5551
X9.978Y-6.6551
X9.978Y-6.7551
X9.978Y-6.8551
X9.978Y-6.9551
X9.978Y-7.0551
X9.978Y-7.1551
X9.978Y-7.2551
X9.978Y-7.3551
X9.978Y-7.4551
X9.978Y-7.5551
X9.978Y-7.6551
X9.978Y-7.7551
X9.978Y-7.8551
X9.978Y-7.9551
X9.978Y-8.0551
X9.978Y-8.1551
X9.978Y-8.2551
X9.978Y-8.3551
X10.0575Y-8.7795
X10.0575Y-8.8795
X10.078Y-2.9551
X10.078Y-3.0551
X10.078Y-3.1551
X10.078Y-3.2551
X10.078Y-3.3551
X10.078Y-3.4551
X10.078Y-3.5551
X10.078Y-3.6551
X10.078Y-3.7551
X10.078Y-3.8551
X10.078Y-3.9551
X10.078Y-4.0551
X10.078Y-4.1551
X10.078Y-4.2551
X10.078Y-4.3551
X10.078Y-4.4551
X10.078Y-4.5551
X10.078Y-4.6551
X10.078Y-4.7551
X10.078Y-4.8551
X10.078Y-4.9551
X10.078Y-5.0551
X10.078Y-5.1551
X10.078Y-5.2551
X10.078Y-5.3551
X10.078Y-5.4551
X10.078Y-5.5551
X10.078Y-5.6551
X10.078Y-5.7551
X10.078Y-5.8551
X10.078Y-5.9551
X10.078Y-6.0551
X10.078Y-6.1551
X10.078Y-6.2551
X10.078Y-6.3551
X10.078Y-6.4551
X10.078Y-6.5551
X10.078Y-6.6551
X10.078Y-6.7551
X10.078Y-6.8551
X10.078Y-6.9551
X10.078Y-7.0551
X10.078Y-7.1551
X10.078Y-7.2551
X10.078Y-7.3551
X10.078Y-7.4551
X10.078Y-7.5551
X10.078Y-7.6551
X10.078Y-7.7551
X10.078Y-7.8551
X10.078Y-7.9551
X10.078Y-8.0551
X10.078Y-8.1551
X10.078Y-8.2551
X10.078Y-8.3551
X10.1575Y-8.7795
X10.1575Y-8.8795
X10.178Y-2.9551
X10.178Y-3.0551
X10.178Y-3.1551
X10.178Y-3.2551
X10.178Y-3.3551
X10.178Y-3.4551
X10.178Y-3.5551
X10.178Y-3.6551
X10.178Y-3.7551
X10.178Y-3.8551
X10.178Y-3.9551
X10.178Y-4.0551
X10.178Y-4.1551
X10.178Y-4.2551
X10.178Y-4.3551
X10.178Y-4.4551
X10.178Y-4.5551
X10.178Y-4.6551
X10.178Y-4.7551
X10.178Y-4.8551
X10.178Y-4.9551
X10.178Y-5.0551
X10.178Y-5.1551
X10.178Y-5.2551
X10.178Y-5.3551
X10.178Y-5.4551
X10.178Y-5.5551
X10.178Y-5.6551
X10.178Y-5.7551
X10.178Y-5.8551
X10.178Y-5.9551
X10.178Y-6.0551
X10.178Y-6.1551
X10.178Y-6.2551
X10.178Y-6.3551
X10.178Y-6.4551
X10.178Y-6.5551
X10.178Y-6.6551
X10.178Y-6.7551
X10.178Y-6.8551
X10.178Y-6.9551
X10.178Y-7.0551
X10.178Y-7.1551
X10.178Y-7.2551
X10.178Y-7.3551
X10.178Y-7.4551
X10.178Y-7.5551
X10.178Y-7.6551
X10.178Y-7.7551
X10.178Y-7.8551
X10.178Y-7.9551
X10.178Y-8.0551
X10.178Y-8.1551
X10.178Y-8.2551
X10.178Y-8.3551
T4
X1.5748Y-2.9528
X10.4331Y-2.9528
T0
M30
