%TF.GenerationSoftware,KiCad,Pcbnew,(6.0.11)*%
%TF.CreationDate,2023-09-03T08:35:34-04:00*%
%TF.ProjectId,template.prototyping,74656d70-6c61-4746-952e-70726f746f74,rev?*%
%TF.SameCoordinates,Original*%
%TF.FileFunction,Soldermask,Bot*%
%TF.FilePolarity,Negative*%
%FSLAX46Y46*%
G04 Gerber Fmt 4.6, Leading zero omitted, Abs format (unit mm)*
G04 Created by KiCad (PCBNEW (6.0.11)) date 2023-09-03 08:35:34*
%MOMM*%
%LPD*%
G01*
G04 APERTURE LIST*
G04 Aperture macros list*
%AMRoundRect*
0 Rectangle with rounded corners*
0 $1 Rounding radius*
0 $2 $3 $4 $5 $6 $7 $8 $9 X,Y pos of 4 corners*
0 Add a 4 corners polygon primitive as box body*
4,1,4,$2,$3,$4,$5,$6,$7,$8,$9,$2,$3,0*
0 Add four circle primitives for the rounded corners*
1,1,$1+$1,$2,$3*
1,1,$1+$1,$4,$5*
1,1,$1+$1,$6,$7*
1,1,$1+$1,$8,$9*
0 Add four rect primitives between the rounded corners*
20,1,$1+$1,$2,$3,$4,$5,0*
20,1,$1+$1,$4,$5,$6,$7,0*
20,1,$1+$1,$6,$7,$8,$9,0*
20,1,$1+$1,$8,$9,$2,$3,0*%
G04 Aperture macros list end*
%ADD10RoundRect,0.250000X-0.600000X0.600000X-0.600000X-0.600000X0.600000X-0.600000X0.600000X0.600000X0*%
%ADD11C,1.700000*%
%ADD12C,6.400000*%
%ADD13R,1.800000X1.800000*%
%ADD14C,1.800000*%
%ADD15C,1.600000*%
%ADD16O,1.600000X1.600000*%
%ADD17R,1.700000X1.700000*%
%ADD18O,1.700000X1.700000*%
G04 APERTURE END LIST*
D10*
%TO.C,P1*%
X108000000Y-223000000D03*
D11*
X108000000Y-225540000D03*
X105460000Y-223000000D03*
X105460000Y-225540000D03*
X102920000Y-223000000D03*
X102920000Y-225540000D03*
X100380000Y-223000000D03*
X100380000Y-225540000D03*
X97840000Y-223000000D03*
X97840000Y-225540000D03*
X95300000Y-223000000D03*
X95300000Y-225540000D03*
X92760000Y-223000000D03*
X92760000Y-225540000D03*
X90220000Y-223000000D03*
X90220000Y-225540000D03*
X87680000Y-223000000D03*
X87680000Y-225540000D03*
X85140000Y-223000000D03*
X85140000Y-225540000D03*
X82600000Y-223000000D03*
X82600000Y-225540000D03*
X80060000Y-223000000D03*
X80060000Y-225540000D03*
X77520000Y-223000000D03*
X77520000Y-225540000D03*
X74980000Y-223000000D03*
X74980000Y-225540000D03*
X72440000Y-223000000D03*
X72440000Y-225540000D03*
X69900000Y-223000000D03*
X69900000Y-225540000D03*
X67360000Y-223000000D03*
X67360000Y-225540000D03*
X64820000Y-223000000D03*
X64820000Y-225540000D03*
X62280000Y-223000000D03*
X62280000Y-225540000D03*
X59740000Y-223000000D03*
X59740000Y-225540000D03*
X57200000Y-223000000D03*
X57200000Y-225540000D03*
X54660000Y-223000000D03*
X54660000Y-225540000D03*
X52120000Y-223000000D03*
X52120000Y-225540000D03*
X49580000Y-223000000D03*
X49580000Y-225540000D03*
X47040000Y-223000000D03*
X47040000Y-225540000D03*
%TD*%
D10*
%TO.C,P2*%
X182000000Y-223000000D03*
D11*
X182000000Y-225540000D03*
X179460000Y-223000000D03*
X179460000Y-225540000D03*
X176920000Y-223000000D03*
X176920000Y-225540000D03*
X174380000Y-223000000D03*
X174380000Y-225540000D03*
X171840000Y-223000000D03*
X171840000Y-225540000D03*
X169300000Y-223000000D03*
X169300000Y-225540000D03*
X166760000Y-223000000D03*
X166760000Y-225540000D03*
X164220000Y-223000000D03*
X164220000Y-225540000D03*
X161680000Y-223000000D03*
X161680000Y-225540000D03*
X159140000Y-223000000D03*
X159140000Y-225540000D03*
X156600000Y-223000000D03*
X156600000Y-225540000D03*
X154060000Y-223000000D03*
X154060000Y-225540000D03*
X151520000Y-223000000D03*
X151520000Y-225540000D03*
X148980000Y-223000000D03*
X148980000Y-225540000D03*
X146440000Y-223000000D03*
X146440000Y-225540000D03*
X143900000Y-223000000D03*
X143900000Y-225540000D03*
X141360000Y-223000000D03*
X141360000Y-225540000D03*
X138820000Y-223000000D03*
X138820000Y-225540000D03*
X136280000Y-223000000D03*
X136280000Y-225540000D03*
X133740000Y-223000000D03*
X133740000Y-225540000D03*
X131200000Y-223000000D03*
X131200000Y-225540000D03*
X128660000Y-223000000D03*
X128660000Y-225540000D03*
X126120000Y-223000000D03*
X126120000Y-225540000D03*
X123580000Y-223000000D03*
X123580000Y-225540000D03*
X121040000Y-223000000D03*
X121040000Y-225540000D03*
%TD*%
D12*
%TO.C,H1*%
X40000000Y-75000000D03*
%TD*%
%TO.C,H2*%
X265000000Y-75000000D03*
%TD*%
D10*
%TO.C,P3*%
X258000000Y-223000000D03*
D11*
X258000000Y-225540000D03*
X255460000Y-223000000D03*
X255460000Y-225540000D03*
X252920000Y-223000000D03*
X252920000Y-225540000D03*
X250380000Y-223000000D03*
X250380000Y-225540000D03*
X247840000Y-223000000D03*
X247840000Y-225540000D03*
X245300000Y-223000000D03*
X245300000Y-225540000D03*
X242760000Y-223000000D03*
X242760000Y-225540000D03*
X240220000Y-223000000D03*
X240220000Y-225540000D03*
X237680000Y-223000000D03*
X237680000Y-225540000D03*
X235140000Y-223000000D03*
X235140000Y-225540000D03*
X232600000Y-223000000D03*
X232600000Y-225540000D03*
X230060000Y-223000000D03*
X230060000Y-225540000D03*
X227520000Y-223000000D03*
X227520000Y-225540000D03*
X224980000Y-223000000D03*
X224980000Y-225540000D03*
X222440000Y-223000000D03*
X222440000Y-225540000D03*
X219900000Y-223000000D03*
X219900000Y-225540000D03*
X217360000Y-223000000D03*
X217360000Y-225540000D03*
X214820000Y-223000000D03*
X214820000Y-225540000D03*
X212280000Y-223000000D03*
X212280000Y-225540000D03*
X209740000Y-223000000D03*
X209740000Y-225540000D03*
X207200000Y-223000000D03*
X207200000Y-225540000D03*
X204660000Y-223000000D03*
X204660000Y-225540000D03*
X202120000Y-223000000D03*
X202120000Y-225540000D03*
X199580000Y-223000000D03*
X199580000Y-225540000D03*
X197040000Y-223000000D03*
X197040000Y-225540000D03*
%TD*%
D13*
%TO.C,D1*%
X52526000Y-80902000D03*
D14*
X49986000Y-80902000D03*
%TD*%
D15*
%TO.C,R1*%
X46430000Y-73282000D03*
D16*
X46430000Y-80902000D03*
%TD*%
D17*
%TO.C,P4*%
X52000000Y-218500000D03*
D18*
X54540000Y-218500000D03*
X57080000Y-218500000D03*
X59620000Y-218500000D03*
%TD*%
D11*
%TO.C,J11*%
X57860000Y-75060000D03*
X60400000Y-75060000D03*
X62940000Y-75060000D03*
X65480000Y-75060000D03*
X68020000Y-75060000D03*
X57860000Y-77600000D03*
X60400000Y-77600000D03*
X62940000Y-77600000D03*
X65480000Y-77600000D03*
X68020000Y-77600000D03*
X57860000Y-80140000D03*
X60400000Y-80140000D03*
X62940000Y-80140000D03*
X65480000Y-80140000D03*
X68020000Y-80140000D03*
X57860000Y-82680000D03*
X60400000Y-82680000D03*
X62940000Y-82680000D03*
X65480000Y-82680000D03*
X68020000Y-82680000D03*
X57860000Y-85220000D03*
X60400000Y-85220000D03*
X62940000Y-85220000D03*
X65480000Y-85220000D03*
X68020000Y-85220000D03*
%TD*%
%TO.C,J12*%
X57860000Y-87760000D03*
X60400000Y-87760000D03*
X62940000Y-87760000D03*
X65480000Y-87760000D03*
X68020000Y-87760000D03*
X57860000Y-90300000D03*
X60400000Y-90300000D03*
X62940000Y-90300000D03*
X65480000Y-90300000D03*
X68020000Y-90300000D03*
X57860000Y-92840000D03*
X60400000Y-92840000D03*
X62940000Y-92840000D03*
X65480000Y-92840000D03*
X68020000Y-92840000D03*
X57860000Y-95380000D03*
X60400000Y-95380000D03*
X62940000Y-95380000D03*
X65480000Y-95380000D03*
X68020000Y-95380000D03*
X57860000Y-97920000D03*
X60400000Y-97920000D03*
X62940000Y-97920000D03*
X65480000Y-97920000D03*
X68020000Y-97920000D03*
%TD*%
%TO.C,J13*%
X57860000Y-100460000D03*
X60400000Y-100460000D03*
X62940000Y-100460000D03*
X65480000Y-100460000D03*
X68020000Y-100460000D03*
X57860000Y-103000000D03*
X60400000Y-103000000D03*
X62940000Y-103000000D03*
X65480000Y-103000000D03*
X68020000Y-103000000D03*
X57860000Y-105540000D03*
X60400000Y-105540000D03*
X62940000Y-105540000D03*
X65480000Y-105540000D03*
X68020000Y-105540000D03*
X57860000Y-108080000D03*
X60400000Y-108080000D03*
X62940000Y-108080000D03*
X65480000Y-108080000D03*
X68020000Y-108080000D03*
X57860000Y-110620000D03*
X60400000Y-110620000D03*
X62940000Y-110620000D03*
X65480000Y-110620000D03*
X68020000Y-110620000D03*
%TD*%
%TO.C,J14*%
X57860000Y-113160000D03*
X60400000Y-113160000D03*
X62940000Y-113160000D03*
X65480000Y-113160000D03*
X68020000Y-113160000D03*
X57860000Y-115700000D03*
X60400000Y-115700000D03*
X62940000Y-115700000D03*
X65480000Y-115700000D03*
X68020000Y-115700000D03*
X57860000Y-118240000D03*
X60400000Y-118240000D03*
X62940000Y-118240000D03*
X65480000Y-118240000D03*
X68020000Y-118240000D03*
X57860000Y-120780000D03*
X60400000Y-120780000D03*
X62940000Y-120780000D03*
X65480000Y-120780000D03*
X68020000Y-120780000D03*
X57860000Y-123320000D03*
X60400000Y-123320000D03*
X62940000Y-123320000D03*
X65480000Y-123320000D03*
X68020000Y-123320000D03*
%TD*%
%TO.C,J15*%
X57860000Y-125860000D03*
X60400000Y-125860000D03*
X62940000Y-125860000D03*
X65480000Y-125860000D03*
X68020000Y-125860000D03*
X57860000Y-128400000D03*
X60400000Y-128400000D03*
X62940000Y-128400000D03*
X65480000Y-128400000D03*
X68020000Y-128400000D03*
X57860000Y-130940000D03*
X60400000Y-130940000D03*
X62940000Y-130940000D03*
X65480000Y-130940000D03*
X68020000Y-130940000D03*
X57860000Y-133480000D03*
X60400000Y-133480000D03*
X62940000Y-133480000D03*
X65480000Y-133480000D03*
X68020000Y-133480000D03*
X57860000Y-136020000D03*
X60400000Y-136020000D03*
X62940000Y-136020000D03*
X65480000Y-136020000D03*
X68020000Y-136020000D03*
%TD*%
%TO.C,J16*%
X57860000Y-138560000D03*
X60400000Y-138560000D03*
X62940000Y-138560000D03*
X65480000Y-138560000D03*
X68020000Y-138560000D03*
X57860000Y-141100000D03*
X60400000Y-141100000D03*
X62940000Y-141100000D03*
X65480000Y-141100000D03*
X68020000Y-141100000D03*
X57860000Y-143640000D03*
X60400000Y-143640000D03*
X62940000Y-143640000D03*
X65480000Y-143640000D03*
X68020000Y-143640000D03*
X57860000Y-146180000D03*
X60400000Y-146180000D03*
X62940000Y-146180000D03*
X65480000Y-146180000D03*
X68020000Y-146180000D03*
X57860000Y-148720000D03*
X60400000Y-148720000D03*
X62940000Y-148720000D03*
X65480000Y-148720000D03*
X68020000Y-148720000D03*
%TD*%
%TO.C,J17*%
X57860000Y-151260000D03*
X60400000Y-151260000D03*
X62940000Y-151260000D03*
X65480000Y-151260000D03*
X68020000Y-151260000D03*
X57860000Y-153800000D03*
X60400000Y-153800000D03*
X62940000Y-153800000D03*
X65480000Y-153800000D03*
X68020000Y-153800000D03*
X57860000Y-156340000D03*
X60400000Y-156340000D03*
X62940000Y-156340000D03*
X65480000Y-156340000D03*
X68020000Y-156340000D03*
X57860000Y-158880000D03*
X60400000Y-158880000D03*
X62940000Y-158880000D03*
X65480000Y-158880000D03*
X68020000Y-158880000D03*
X57860000Y-161420000D03*
X60400000Y-161420000D03*
X62940000Y-161420000D03*
X65480000Y-161420000D03*
X68020000Y-161420000D03*
%TD*%
%TO.C,J18*%
X57860000Y-163960000D03*
X60400000Y-163960000D03*
X62940000Y-163960000D03*
X65480000Y-163960000D03*
X68020000Y-163960000D03*
X57860000Y-166500000D03*
X60400000Y-166500000D03*
X62940000Y-166500000D03*
X65480000Y-166500000D03*
X68020000Y-166500000D03*
X57860000Y-169040000D03*
X60400000Y-169040000D03*
X62940000Y-169040000D03*
X65480000Y-169040000D03*
X68020000Y-169040000D03*
X57860000Y-171580000D03*
X60400000Y-171580000D03*
X62940000Y-171580000D03*
X65480000Y-171580000D03*
X68020000Y-171580000D03*
X57860000Y-174120000D03*
X60400000Y-174120000D03*
X62940000Y-174120000D03*
X65480000Y-174120000D03*
X68020000Y-174120000D03*
%TD*%
%TO.C,J19*%
X57860000Y-176660000D03*
X60400000Y-176660000D03*
X62940000Y-176660000D03*
X65480000Y-176660000D03*
X68020000Y-176660000D03*
X57860000Y-179200000D03*
X60400000Y-179200000D03*
X62940000Y-179200000D03*
X65480000Y-179200000D03*
X68020000Y-179200000D03*
X57860000Y-181740000D03*
X60400000Y-181740000D03*
X62940000Y-181740000D03*
X65480000Y-181740000D03*
X68020000Y-181740000D03*
X57860000Y-184280000D03*
X60400000Y-184280000D03*
X62940000Y-184280000D03*
X65480000Y-184280000D03*
X68020000Y-184280000D03*
X57860000Y-186820000D03*
X60400000Y-186820000D03*
X62940000Y-186820000D03*
X65480000Y-186820000D03*
X68020000Y-186820000D03*
%TD*%
%TO.C,J20*%
X57860000Y-189360000D03*
X60400000Y-189360000D03*
X62940000Y-189360000D03*
X65480000Y-189360000D03*
X68020000Y-189360000D03*
X57860000Y-191900000D03*
X60400000Y-191900000D03*
X62940000Y-191900000D03*
X65480000Y-191900000D03*
X68020000Y-191900000D03*
X57860000Y-194440000D03*
X60400000Y-194440000D03*
X62940000Y-194440000D03*
X65480000Y-194440000D03*
X68020000Y-194440000D03*
X57860000Y-196980000D03*
X60400000Y-196980000D03*
X62940000Y-196980000D03*
X65480000Y-196980000D03*
X68020000Y-196980000D03*
X57860000Y-199520000D03*
X60400000Y-199520000D03*
X62940000Y-199520000D03*
X65480000Y-199520000D03*
X68020000Y-199520000D03*
%TD*%
%TO.C,J21*%
X57860000Y-202060000D03*
X60400000Y-202060000D03*
X62940000Y-202060000D03*
X65480000Y-202060000D03*
X68020000Y-202060000D03*
X57860000Y-204600000D03*
X60400000Y-204600000D03*
X62940000Y-204600000D03*
X65480000Y-204600000D03*
X68020000Y-204600000D03*
X57860000Y-207140000D03*
X60400000Y-207140000D03*
X62940000Y-207140000D03*
X65480000Y-207140000D03*
X68020000Y-207140000D03*
X57860000Y-209680000D03*
X60400000Y-209680000D03*
X62940000Y-209680000D03*
X65480000Y-209680000D03*
X68020000Y-209680000D03*
X57860000Y-212220000D03*
X60400000Y-212220000D03*
X62940000Y-212220000D03*
X65480000Y-212220000D03*
X68020000Y-212220000D03*
%TD*%
%TO.C,J22*%
X70560000Y-75060000D03*
X73100000Y-75060000D03*
X75640000Y-75060000D03*
X78180000Y-75060000D03*
X80720000Y-75060000D03*
X70560000Y-77600000D03*
X73100000Y-77600000D03*
X75640000Y-77600000D03*
X78180000Y-77600000D03*
X80720000Y-77600000D03*
X70560000Y-80140000D03*
X73100000Y-80140000D03*
X75640000Y-80140000D03*
X78180000Y-80140000D03*
X80720000Y-80140000D03*
X70560000Y-82680000D03*
X73100000Y-82680000D03*
X75640000Y-82680000D03*
X78180000Y-82680000D03*
X80720000Y-82680000D03*
X70560000Y-85220000D03*
X73100000Y-85220000D03*
X75640000Y-85220000D03*
X78180000Y-85220000D03*
X80720000Y-85220000D03*
%TD*%
%TO.C,J23*%
X70560000Y-87760000D03*
X73100000Y-87760000D03*
X75640000Y-87760000D03*
X78180000Y-87760000D03*
X80720000Y-87760000D03*
X70560000Y-90300000D03*
X73100000Y-90300000D03*
X75640000Y-90300000D03*
X78180000Y-90300000D03*
X80720000Y-90300000D03*
X70560000Y-92840000D03*
X73100000Y-92840000D03*
X75640000Y-92840000D03*
X78180000Y-92840000D03*
X80720000Y-92840000D03*
X70560000Y-95380000D03*
X73100000Y-95380000D03*
X75640000Y-95380000D03*
X78180000Y-95380000D03*
X80720000Y-95380000D03*
X70560000Y-97920000D03*
X73100000Y-97920000D03*
X75640000Y-97920000D03*
X78180000Y-97920000D03*
X80720000Y-97920000D03*
%TD*%
%TO.C,J24*%
X70560000Y-100460000D03*
X73100000Y-100460000D03*
X75640000Y-100460000D03*
X78180000Y-100460000D03*
X80720000Y-100460000D03*
X70560000Y-103000000D03*
X73100000Y-103000000D03*
X75640000Y-103000000D03*
X78180000Y-103000000D03*
X80720000Y-103000000D03*
X70560000Y-105540000D03*
X73100000Y-105540000D03*
X75640000Y-105540000D03*
X78180000Y-105540000D03*
X80720000Y-105540000D03*
X70560000Y-108080000D03*
X73100000Y-108080000D03*
X75640000Y-108080000D03*
X78180000Y-108080000D03*
X80720000Y-108080000D03*
X70560000Y-110620000D03*
X73100000Y-110620000D03*
X75640000Y-110620000D03*
X78180000Y-110620000D03*
X80720000Y-110620000D03*
%TD*%
%TO.C,J25*%
X70560000Y-113160000D03*
X73100000Y-113160000D03*
X75640000Y-113160000D03*
X78180000Y-113160000D03*
X80720000Y-113160000D03*
X70560000Y-115700000D03*
X73100000Y-115700000D03*
X75640000Y-115700000D03*
X78180000Y-115700000D03*
X80720000Y-115700000D03*
X70560000Y-118240000D03*
X73100000Y-118240000D03*
X75640000Y-118240000D03*
X78180000Y-118240000D03*
X80720000Y-118240000D03*
X70560000Y-120780000D03*
X73100000Y-120780000D03*
X75640000Y-120780000D03*
X78180000Y-120780000D03*
X80720000Y-120780000D03*
X70560000Y-123320000D03*
X73100000Y-123320000D03*
X75640000Y-123320000D03*
X78180000Y-123320000D03*
X80720000Y-123320000D03*
%TD*%
%TO.C,J26*%
X70560000Y-125860000D03*
X73100000Y-125860000D03*
X75640000Y-125860000D03*
X78180000Y-125860000D03*
X80720000Y-125860000D03*
X70560000Y-128400000D03*
X73100000Y-128400000D03*
X75640000Y-128400000D03*
X78180000Y-128400000D03*
X80720000Y-128400000D03*
X70560000Y-130940000D03*
X73100000Y-130940000D03*
X75640000Y-130940000D03*
X78180000Y-130940000D03*
X80720000Y-130940000D03*
X70560000Y-133480000D03*
X73100000Y-133480000D03*
X75640000Y-133480000D03*
X78180000Y-133480000D03*
X80720000Y-133480000D03*
X70560000Y-136020000D03*
X73100000Y-136020000D03*
X75640000Y-136020000D03*
X78180000Y-136020000D03*
X80720000Y-136020000D03*
%TD*%
%TO.C,J27*%
X70560000Y-138560000D03*
X73100000Y-138560000D03*
X75640000Y-138560000D03*
X78180000Y-138560000D03*
X80720000Y-138560000D03*
X70560000Y-141100000D03*
X73100000Y-141100000D03*
X75640000Y-141100000D03*
X78180000Y-141100000D03*
X80720000Y-141100000D03*
X70560000Y-143640000D03*
X73100000Y-143640000D03*
X75640000Y-143640000D03*
X78180000Y-143640000D03*
X80720000Y-143640000D03*
X70560000Y-146180000D03*
X73100000Y-146180000D03*
X75640000Y-146180000D03*
X78180000Y-146180000D03*
X80720000Y-146180000D03*
X70560000Y-148720000D03*
X73100000Y-148720000D03*
X75640000Y-148720000D03*
X78180000Y-148720000D03*
X80720000Y-148720000D03*
%TD*%
%TO.C,J28*%
X70560000Y-151260000D03*
X73100000Y-151260000D03*
X75640000Y-151260000D03*
X78180000Y-151260000D03*
X80720000Y-151260000D03*
X70560000Y-153800000D03*
X73100000Y-153800000D03*
X75640000Y-153800000D03*
X78180000Y-153800000D03*
X80720000Y-153800000D03*
X70560000Y-156340000D03*
X73100000Y-156340000D03*
X75640000Y-156340000D03*
X78180000Y-156340000D03*
X80720000Y-156340000D03*
X70560000Y-158880000D03*
X73100000Y-158880000D03*
X75640000Y-158880000D03*
X78180000Y-158880000D03*
X80720000Y-158880000D03*
X70560000Y-161420000D03*
X73100000Y-161420000D03*
X75640000Y-161420000D03*
X78180000Y-161420000D03*
X80720000Y-161420000D03*
%TD*%
%TO.C,J29*%
X70560000Y-163960000D03*
X73100000Y-163960000D03*
X75640000Y-163960000D03*
X78180000Y-163960000D03*
X80720000Y-163960000D03*
X70560000Y-166500000D03*
X73100000Y-166500000D03*
X75640000Y-166500000D03*
X78180000Y-166500000D03*
X80720000Y-166500000D03*
X70560000Y-169040000D03*
X73100000Y-169040000D03*
X75640000Y-169040000D03*
X78180000Y-169040000D03*
X80720000Y-169040000D03*
X70560000Y-171580000D03*
X73100000Y-171580000D03*
X75640000Y-171580000D03*
X78180000Y-171580000D03*
X80720000Y-171580000D03*
X70560000Y-174120000D03*
X73100000Y-174120000D03*
X75640000Y-174120000D03*
X78180000Y-174120000D03*
X80720000Y-174120000D03*
%TD*%
%TO.C,J30*%
X70560000Y-176660000D03*
X73100000Y-176660000D03*
X75640000Y-176660000D03*
X78180000Y-176660000D03*
X80720000Y-176660000D03*
X70560000Y-179200000D03*
X73100000Y-179200000D03*
X75640000Y-179200000D03*
X78180000Y-179200000D03*
X80720000Y-179200000D03*
X70560000Y-181740000D03*
X73100000Y-181740000D03*
X75640000Y-181740000D03*
X78180000Y-181740000D03*
X80720000Y-181740000D03*
X70560000Y-184280000D03*
X73100000Y-184280000D03*
X75640000Y-184280000D03*
X78180000Y-184280000D03*
X80720000Y-184280000D03*
X70560000Y-186820000D03*
X73100000Y-186820000D03*
X75640000Y-186820000D03*
X78180000Y-186820000D03*
X80720000Y-186820000D03*
%TD*%
%TO.C,J31*%
X70560000Y-189360000D03*
X73100000Y-189360000D03*
X75640000Y-189360000D03*
X78180000Y-189360000D03*
X80720000Y-189360000D03*
X70560000Y-191900000D03*
X73100000Y-191900000D03*
X75640000Y-191900000D03*
X78180000Y-191900000D03*
X80720000Y-191900000D03*
X70560000Y-194440000D03*
X73100000Y-194440000D03*
X75640000Y-194440000D03*
X78180000Y-194440000D03*
X80720000Y-194440000D03*
X70560000Y-196980000D03*
X73100000Y-196980000D03*
X75640000Y-196980000D03*
X78180000Y-196980000D03*
X80720000Y-196980000D03*
X70560000Y-199520000D03*
X73100000Y-199520000D03*
X75640000Y-199520000D03*
X78180000Y-199520000D03*
X80720000Y-199520000D03*
%TD*%
%TO.C,J32*%
X70560000Y-202060000D03*
X73100000Y-202060000D03*
X75640000Y-202060000D03*
X78180000Y-202060000D03*
X80720000Y-202060000D03*
X70560000Y-204600000D03*
X73100000Y-204600000D03*
X75640000Y-204600000D03*
X78180000Y-204600000D03*
X80720000Y-204600000D03*
X70560000Y-207140000D03*
X73100000Y-207140000D03*
X75640000Y-207140000D03*
X78180000Y-207140000D03*
X80720000Y-207140000D03*
X70560000Y-209680000D03*
X73100000Y-209680000D03*
X75640000Y-209680000D03*
X78180000Y-209680000D03*
X80720000Y-209680000D03*
X70560000Y-212220000D03*
X73100000Y-212220000D03*
X75640000Y-212220000D03*
X78180000Y-212220000D03*
X80720000Y-212220000D03*
%TD*%
%TO.C,J33*%
X83260000Y-75060000D03*
X85800000Y-75060000D03*
X88340000Y-75060000D03*
X90880000Y-75060000D03*
X93420000Y-75060000D03*
X83260000Y-77600000D03*
X85800000Y-77600000D03*
X88340000Y-77600000D03*
X90880000Y-77600000D03*
X93420000Y-77600000D03*
X83260000Y-80140000D03*
X85800000Y-80140000D03*
X88340000Y-80140000D03*
X90880000Y-80140000D03*
X93420000Y-80140000D03*
X83260000Y-82680000D03*
X85800000Y-82680000D03*
X88340000Y-82680000D03*
X90880000Y-82680000D03*
X93420000Y-82680000D03*
X83260000Y-85220000D03*
X85800000Y-85220000D03*
X88340000Y-85220000D03*
X90880000Y-85220000D03*
X93420000Y-85220000D03*
%TD*%
%TO.C,J34*%
X83260000Y-87760000D03*
X85800000Y-87760000D03*
X88340000Y-87760000D03*
X90880000Y-87760000D03*
X93420000Y-87760000D03*
X83260000Y-90300000D03*
X85800000Y-90300000D03*
X88340000Y-90300000D03*
X90880000Y-90300000D03*
X93420000Y-90300000D03*
X83260000Y-92840000D03*
X85800000Y-92840000D03*
X88340000Y-92840000D03*
X90880000Y-92840000D03*
X93420000Y-92840000D03*
X83260000Y-95380000D03*
X85800000Y-95380000D03*
X88340000Y-95380000D03*
X90880000Y-95380000D03*
X93420000Y-95380000D03*
X83260000Y-97920000D03*
X85800000Y-97920000D03*
X88340000Y-97920000D03*
X90880000Y-97920000D03*
X93420000Y-97920000D03*
%TD*%
%TO.C,J35*%
X83260000Y-100460000D03*
X85800000Y-100460000D03*
X88340000Y-100460000D03*
X90880000Y-100460000D03*
X93420000Y-100460000D03*
X83260000Y-103000000D03*
X85800000Y-103000000D03*
X88340000Y-103000000D03*
X90880000Y-103000000D03*
X93420000Y-103000000D03*
X83260000Y-105540000D03*
X85800000Y-105540000D03*
X88340000Y-105540000D03*
X90880000Y-105540000D03*
X93420000Y-105540000D03*
X83260000Y-108080000D03*
X85800000Y-108080000D03*
X88340000Y-108080000D03*
X90880000Y-108080000D03*
X93420000Y-108080000D03*
X83260000Y-110620000D03*
X85800000Y-110620000D03*
X88340000Y-110620000D03*
X90880000Y-110620000D03*
X93420000Y-110620000D03*
%TD*%
%TO.C,J36*%
X83260000Y-113160000D03*
X85800000Y-113160000D03*
X88340000Y-113160000D03*
X90880000Y-113160000D03*
X93420000Y-113160000D03*
X83260000Y-115700000D03*
X85800000Y-115700000D03*
X88340000Y-115700000D03*
X90880000Y-115700000D03*
X93420000Y-115700000D03*
X83260000Y-118240000D03*
X85800000Y-118240000D03*
X88340000Y-118240000D03*
X90880000Y-118240000D03*
X93420000Y-118240000D03*
X83260000Y-120780000D03*
X85800000Y-120780000D03*
X88340000Y-120780000D03*
X90880000Y-120780000D03*
X93420000Y-120780000D03*
X83260000Y-123320000D03*
X85800000Y-123320000D03*
X88340000Y-123320000D03*
X90880000Y-123320000D03*
X93420000Y-123320000D03*
%TD*%
%TO.C,J37*%
X83260000Y-125860000D03*
X85800000Y-125860000D03*
X88340000Y-125860000D03*
X90880000Y-125860000D03*
X93420000Y-125860000D03*
X83260000Y-128400000D03*
X85800000Y-128400000D03*
X88340000Y-128400000D03*
X90880000Y-128400000D03*
X93420000Y-128400000D03*
X83260000Y-130940000D03*
X85800000Y-130940000D03*
X88340000Y-130940000D03*
X90880000Y-130940000D03*
X93420000Y-130940000D03*
X83260000Y-133480000D03*
X85800000Y-133480000D03*
X88340000Y-133480000D03*
X90880000Y-133480000D03*
X93420000Y-133480000D03*
X83260000Y-136020000D03*
X85800000Y-136020000D03*
X88340000Y-136020000D03*
X90880000Y-136020000D03*
X93420000Y-136020000D03*
%TD*%
%TO.C,J38*%
X83260000Y-138560000D03*
X85800000Y-138560000D03*
X88340000Y-138560000D03*
X90880000Y-138560000D03*
X93420000Y-138560000D03*
X83260000Y-141100000D03*
X85800000Y-141100000D03*
X88340000Y-141100000D03*
X90880000Y-141100000D03*
X93420000Y-141100000D03*
X83260000Y-143640000D03*
X85800000Y-143640000D03*
X88340000Y-143640000D03*
X90880000Y-143640000D03*
X93420000Y-143640000D03*
X83260000Y-146180000D03*
X85800000Y-146180000D03*
X88340000Y-146180000D03*
X90880000Y-146180000D03*
X93420000Y-146180000D03*
X83260000Y-148720000D03*
X85800000Y-148720000D03*
X88340000Y-148720000D03*
X90880000Y-148720000D03*
X93420000Y-148720000D03*
%TD*%
%TO.C,J39*%
X83260000Y-151260000D03*
X85800000Y-151260000D03*
X88340000Y-151260000D03*
X90880000Y-151260000D03*
X93420000Y-151260000D03*
X83260000Y-153800000D03*
X85800000Y-153800000D03*
X88340000Y-153800000D03*
X90880000Y-153800000D03*
X93420000Y-153800000D03*
X83260000Y-156340000D03*
X85800000Y-156340000D03*
X88340000Y-156340000D03*
X90880000Y-156340000D03*
X93420000Y-156340000D03*
X83260000Y-158880000D03*
X85800000Y-158880000D03*
X88340000Y-158880000D03*
X90880000Y-158880000D03*
X93420000Y-158880000D03*
X83260000Y-161420000D03*
X85800000Y-161420000D03*
X88340000Y-161420000D03*
X90880000Y-161420000D03*
X93420000Y-161420000D03*
%TD*%
%TO.C,J40*%
X83260000Y-163960000D03*
X85800000Y-163960000D03*
X88340000Y-163960000D03*
X90880000Y-163960000D03*
X93420000Y-163960000D03*
X83260000Y-166500000D03*
X85800000Y-166500000D03*
X88340000Y-166500000D03*
X90880000Y-166500000D03*
X93420000Y-166500000D03*
X83260000Y-169040000D03*
X85800000Y-169040000D03*
X88340000Y-169040000D03*
X90880000Y-169040000D03*
X93420000Y-169040000D03*
X83260000Y-171580000D03*
X85800000Y-171580000D03*
X88340000Y-171580000D03*
X90880000Y-171580000D03*
X93420000Y-171580000D03*
X83260000Y-174120000D03*
X85800000Y-174120000D03*
X88340000Y-174120000D03*
X90880000Y-174120000D03*
X93420000Y-174120000D03*
%TD*%
%TO.C,J41*%
X83260000Y-176660000D03*
X85800000Y-176660000D03*
X88340000Y-176660000D03*
X90880000Y-176660000D03*
X93420000Y-176660000D03*
X83260000Y-179200000D03*
X85800000Y-179200000D03*
X88340000Y-179200000D03*
X90880000Y-179200000D03*
X93420000Y-179200000D03*
X83260000Y-181740000D03*
X85800000Y-181740000D03*
X88340000Y-181740000D03*
X90880000Y-181740000D03*
X93420000Y-181740000D03*
X83260000Y-184280000D03*
X85800000Y-184280000D03*
X88340000Y-184280000D03*
X90880000Y-184280000D03*
X93420000Y-184280000D03*
X83260000Y-186820000D03*
X85800000Y-186820000D03*
X88340000Y-186820000D03*
X90880000Y-186820000D03*
X93420000Y-186820000D03*
%TD*%
%TO.C,J42*%
X83260000Y-189360000D03*
X85800000Y-189360000D03*
X88340000Y-189360000D03*
X90880000Y-189360000D03*
X93420000Y-189360000D03*
X83260000Y-191900000D03*
X85800000Y-191900000D03*
X88340000Y-191900000D03*
X90880000Y-191900000D03*
X93420000Y-191900000D03*
X83260000Y-194440000D03*
X85800000Y-194440000D03*
X88340000Y-194440000D03*
X90880000Y-194440000D03*
X93420000Y-194440000D03*
X83260000Y-196980000D03*
X85800000Y-196980000D03*
X88340000Y-196980000D03*
X90880000Y-196980000D03*
X93420000Y-196980000D03*
X83260000Y-199520000D03*
X85800000Y-199520000D03*
X88340000Y-199520000D03*
X90880000Y-199520000D03*
X93420000Y-199520000D03*
%TD*%
%TO.C,J43*%
X83260000Y-202060000D03*
X85800000Y-202060000D03*
X88340000Y-202060000D03*
X90880000Y-202060000D03*
X93420000Y-202060000D03*
X83260000Y-204600000D03*
X85800000Y-204600000D03*
X88340000Y-204600000D03*
X90880000Y-204600000D03*
X93420000Y-204600000D03*
X83260000Y-207140000D03*
X85800000Y-207140000D03*
X88340000Y-207140000D03*
X90880000Y-207140000D03*
X93420000Y-207140000D03*
X83260000Y-209680000D03*
X85800000Y-209680000D03*
X88340000Y-209680000D03*
X90880000Y-209680000D03*
X93420000Y-209680000D03*
X83260000Y-212220000D03*
X85800000Y-212220000D03*
X88340000Y-212220000D03*
X90880000Y-212220000D03*
X93420000Y-212220000D03*
%TD*%
%TO.C,J44*%
X95960000Y-75060000D03*
X98500000Y-75060000D03*
X101040000Y-75060000D03*
X103580000Y-75060000D03*
X106120000Y-75060000D03*
X95960000Y-77600000D03*
X98500000Y-77600000D03*
X101040000Y-77600000D03*
X103580000Y-77600000D03*
X106120000Y-77600000D03*
X95960000Y-80140000D03*
X98500000Y-80140000D03*
X101040000Y-80140000D03*
X103580000Y-80140000D03*
X106120000Y-80140000D03*
X95960000Y-82680000D03*
X98500000Y-82680000D03*
X101040000Y-82680000D03*
X103580000Y-82680000D03*
X106120000Y-82680000D03*
X95960000Y-85220000D03*
X98500000Y-85220000D03*
X101040000Y-85220000D03*
X103580000Y-85220000D03*
X106120000Y-85220000D03*
%TD*%
%TO.C,J45*%
X95960000Y-87760000D03*
X98500000Y-87760000D03*
X101040000Y-87760000D03*
X103580000Y-87760000D03*
X106120000Y-87760000D03*
X95960000Y-90300000D03*
X98500000Y-90300000D03*
X101040000Y-90300000D03*
X103580000Y-90300000D03*
X106120000Y-90300000D03*
X95960000Y-92840000D03*
X98500000Y-92840000D03*
X101040000Y-92840000D03*
X103580000Y-92840000D03*
X106120000Y-92840000D03*
X95960000Y-95380000D03*
X98500000Y-95380000D03*
X101040000Y-95380000D03*
X103580000Y-95380000D03*
X106120000Y-95380000D03*
X95960000Y-97920000D03*
X98500000Y-97920000D03*
X101040000Y-97920000D03*
X103580000Y-97920000D03*
X106120000Y-97920000D03*
%TD*%
%TO.C,J46*%
X95960000Y-100460000D03*
X98500000Y-100460000D03*
X101040000Y-100460000D03*
X103580000Y-100460000D03*
X106120000Y-100460000D03*
X95960000Y-103000000D03*
X98500000Y-103000000D03*
X101040000Y-103000000D03*
X103580000Y-103000000D03*
X106120000Y-103000000D03*
X95960000Y-105540000D03*
X98500000Y-105540000D03*
X101040000Y-105540000D03*
X103580000Y-105540000D03*
X106120000Y-105540000D03*
X95960000Y-108080000D03*
X98500000Y-108080000D03*
X101040000Y-108080000D03*
X103580000Y-108080000D03*
X106120000Y-108080000D03*
X95960000Y-110620000D03*
X98500000Y-110620000D03*
X101040000Y-110620000D03*
X103580000Y-110620000D03*
X106120000Y-110620000D03*
%TD*%
%TO.C,J47*%
X95960000Y-113160000D03*
X98500000Y-113160000D03*
X101040000Y-113160000D03*
X103580000Y-113160000D03*
X106120000Y-113160000D03*
X95960000Y-115700000D03*
X98500000Y-115700000D03*
X101040000Y-115700000D03*
X103580000Y-115700000D03*
X106120000Y-115700000D03*
X95960000Y-118240000D03*
X98500000Y-118240000D03*
X101040000Y-118240000D03*
X103580000Y-118240000D03*
X106120000Y-118240000D03*
X95960000Y-120780000D03*
X98500000Y-120780000D03*
X101040000Y-120780000D03*
X103580000Y-120780000D03*
X106120000Y-120780000D03*
X95960000Y-123320000D03*
X98500000Y-123320000D03*
X101040000Y-123320000D03*
X103580000Y-123320000D03*
X106120000Y-123320000D03*
%TD*%
%TO.C,J48*%
X95960000Y-125860000D03*
X98500000Y-125860000D03*
X101040000Y-125860000D03*
X103580000Y-125860000D03*
X106120000Y-125860000D03*
X95960000Y-128400000D03*
X98500000Y-128400000D03*
X101040000Y-128400000D03*
X103580000Y-128400000D03*
X106120000Y-128400000D03*
X95960000Y-130940000D03*
X98500000Y-130940000D03*
X101040000Y-130940000D03*
X103580000Y-130940000D03*
X106120000Y-130940000D03*
X95960000Y-133480000D03*
X98500000Y-133480000D03*
X101040000Y-133480000D03*
X103580000Y-133480000D03*
X106120000Y-133480000D03*
X95960000Y-136020000D03*
X98500000Y-136020000D03*
X101040000Y-136020000D03*
X103580000Y-136020000D03*
X106120000Y-136020000D03*
%TD*%
%TO.C,J49*%
X95960000Y-138560000D03*
X98500000Y-138560000D03*
X101040000Y-138560000D03*
X103580000Y-138560000D03*
X106120000Y-138560000D03*
X95960000Y-141100000D03*
X98500000Y-141100000D03*
X101040000Y-141100000D03*
X103580000Y-141100000D03*
X106120000Y-141100000D03*
X95960000Y-143640000D03*
X98500000Y-143640000D03*
X101040000Y-143640000D03*
X103580000Y-143640000D03*
X106120000Y-143640000D03*
X95960000Y-146180000D03*
X98500000Y-146180000D03*
X101040000Y-146180000D03*
X103580000Y-146180000D03*
X106120000Y-146180000D03*
X95960000Y-148720000D03*
X98500000Y-148720000D03*
X101040000Y-148720000D03*
X103580000Y-148720000D03*
X106120000Y-148720000D03*
%TD*%
%TO.C,J50*%
X95960000Y-151260000D03*
X98500000Y-151260000D03*
X101040000Y-151260000D03*
X103580000Y-151260000D03*
X106120000Y-151260000D03*
X95960000Y-153800000D03*
X98500000Y-153800000D03*
X101040000Y-153800000D03*
X103580000Y-153800000D03*
X106120000Y-153800000D03*
X95960000Y-156340000D03*
X98500000Y-156340000D03*
X101040000Y-156340000D03*
X103580000Y-156340000D03*
X106120000Y-156340000D03*
X95960000Y-158880000D03*
X98500000Y-158880000D03*
X101040000Y-158880000D03*
X103580000Y-158880000D03*
X106120000Y-158880000D03*
X95960000Y-161420000D03*
X98500000Y-161420000D03*
X101040000Y-161420000D03*
X103580000Y-161420000D03*
X106120000Y-161420000D03*
%TD*%
%TO.C,J51*%
X95960000Y-163960000D03*
X98500000Y-163960000D03*
X101040000Y-163960000D03*
X103580000Y-163960000D03*
X106120000Y-163960000D03*
X95960000Y-166500000D03*
X98500000Y-166500000D03*
X101040000Y-166500000D03*
X103580000Y-166500000D03*
X106120000Y-166500000D03*
X95960000Y-169040000D03*
X98500000Y-169040000D03*
X101040000Y-169040000D03*
X103580000Y-169040000D03*
X106120000Y-169040000D03*
X95960000Y-171580000D03*
X98500000Y-171580000D03*
X101040000Y-171580000D03*
X103580000Y-171580000D03*
X106120000Y-171580000D03*
X95960000Y-174120000D03*
X98500000Y-174120000D03*
X101040000Y-174120000D03*
X103580000Y-174120000D03*
X106120000Y-174120000D03*
%TD*%
%TO.C,J52*%
X95960000Y-176660000D03*
X98500000Y-176660000D03*
X101040000Y-176660000D03*
X103580000Y-176660000D03*
X106120000Y-176660000D03*
X95960000Y-179200000D03*
X98500000Y-179200000D03*
X101040000Y-179200000D03*
X103580000Y-179200000D03*
X106120000Y-179200000D03*
X95960000Y-181740000D03*
X98500000Y-181740000D03*
X101040000Y-181740000D03*
X103580000Y-181740000D03*
X106120000Y-181740000D03*
X95960000Y-184280000D03*
X98500000Y-184280000D03*
X101040000Y-184280000D03*
X103580000Y-184280000D03*
X106120000Y-184280000D03*
X95960000Y-186820000D03*
X98500000Y-186820000D03*
X101040000Y-186820000D03*
X103580000Y-186820000D03*
X106120000Y-186820000D03*
%TD*%
%TO.C,J53*%
X95960000Y-189360000D03*
X98500000Y-189360000D03*
X101040000Y-189360000D03*
X103580000Y-189360000D03*
X106120000Y-189360000D03*
X95960000Y-191900000D03*
X98500000Y-191900000D03*
X101040000Y-191900000D03*
X103580000Y-191900000D03*
X106120000Y-191900000D03*
X95960000Y-194440000D03*
X98500000Y-194440000D03*
X101040000Y-194440000D03*
X103580000Y-194440000D03*
X106120000Y-194440000D03*
X95960000Y-196980000D03*
X98500000Y-196980000D03*
X101040000Y-196980000D03*
X103580000Y-196980000D03*
X106120000Y-196980000D03*
X95960000Y-199520000D03*
X98500000Y-199520000D03*
X101040000Y-199520000D03*
X103580000Y-199520000D03*
X106120000Y-199520000D03*
%TD*%
%TO.C,J54*%
X95960000Y-202060000D03*
X98500000Y-202060000D03*
X101040000Y-202060000D03*
X103580000Y-202060000D03*
X106120000Y-202060000D03*
X95960000Y-204600000D03*
X98500000Y-204600000D03*
X101040000Y-204600000D03*
X103580000Y-204600000D03*
X106120000Y-204600000D03*
X95960000Y-207140000D03*
X98500000Y-207140000D03*
X101040000Y-207140000D03*
X103580000Y-207140000D03*
X106120000Y-207140000D03*
X95960000Y-209680000D03*
X98500000Y-209680000D03*
X101040000Y-209680000D03*
X103580000Y-209680000D03*
X106120000Y-209680000D03*
X95960000Y-212220000D03*
X98500000Y-212220000D03*
X101040000Y-212220000D03*
X103580000Y-212220000D03*
X106120000Y-212220000D03*
%TD*%
%TO.C,J55*%
X108660000Y-75060000D03*
X111200000Y-75060000D03*
X113740000Y-75060000D03*
X116280000Y-75060000D03*
X118820000Y-75060000D03*
X108660000Y-77600000D03*
X111200000Y-77600000D03*
X113740000Y-77600000D03*
X116280000Y-77600000D03*
X118820000Y-77600000D03*
X108660000Y-80140000D03*
X111200000Y-80140000D03*
X113740000Y-80140000D03*
X116280000Y-80140000D03*
X118820000Y-80140000D03*
X108660000Y-82680000D03*
X111200000Y-82680000D03*
X113740000Y-82680000D03*
X116280000Y-82680000D03*
X118820000Y-82680000D03*
X108660000Y-85220000D03*
X111200000Y-85220000D03*
X113740000Y-85220000D03*
X116280000Y-85220000D03*
X118820000Y-85220000D03*
%TD*%
%TO.C,J56*%
X108660000Y-87760000D03*
X111200000Y-87760000D03*
X113740000Y-87760000D03*
X116280000Y-87760000D03*
X118820000Y-87760000D03*
X108660000Y-90300000D03*
X111200000Y-90300000D03*
X113740000Y-90300000D03*
X116280000Y-90300000D03*
X118820000Y-90300000D03*
X108660000Y-92840000D03*
X111200000Y-92840000D03*
X113740000Y-92840000D03*
X116280000Y-92840000D03*
X118820000Y-92840000D03*
X108660000Y-95380000D03*
X111200000Y-95380000D03*
X113740000Y-95380000D03*
X116280000Y-95380000D03*
X118820000Y-95380000D03*
X108660000Y-97920000D03*
X111200000Y-97920000D03*
X113740000Y-97920000D03*
X116280000Y-97920000D03*
X118820000Y-97920000D03*
%TD*%
%TO.C,J57*%
X108660000Y-100460000D03*
X111200000Y-100460000D03*
X113740000Y-100460000D03*
X116280000Y-100460000D03*
X118820000Y-100460000D03*
X108660000Y-103000000D03*
X111200000Y-103000000D03*
X113740000Y-103000000D03*
X116280000Y-103000000D03*
X118820000Y-103000000D03*
X108660000Y-105540000D03*
X111200000Y-105540000D03*
X113740000Y-105540000D03*
X116280000Y-105540000D03*
X118820000Y-105540000D03*
X108660000Y-108080000D03*
X111200000Y-108080000D03*
X113740000Y-108080000D03*
X116280000Y-108080000D03*
X118820000Y-108080000D03*
X108660000Y-110620000D03*
X111200000Y-110620000D03*
X113740000Y-110620000D03*
X116280000Y-110620000D03*
X118820000Y-110620000D03*
%TD*%
%TO.C,J58*%
X108660000Y-113160000D03*
X111200000Y-113160000D03*
X113740000Y-113160000D03*
X116280000Y-113160000D03*
X118820000Y-113160000D03*
X108660000Y-115700000D03*
X111200000Y-115700000D03*
X113740000Y-115700000D03*
X116280000Y-115700000D03*
X118820000Y-115700000D03*
X108660000Y-118240000D03*
X111200000Y-118240000D03*
X113740000Y-118240000D03*
X116280000Y-118240000D03*
X118820000Y-118240000D03*
X108660000Y-120780000D03*
X111200000Y-120780000D03*
X113740000Y-120780000D03*
X116280000Y-120780000D03*
X118820000Y-120780000D03*
X108660000Y-123320000D03*
X111200000Y-123320000D03*
X113740000Y-123320000D03*
X116280000Y-123320000D03*
X118820000Y-123320000D03*
%TD*%
%TO.C,J59*%
X108660000Y-125860000D03*
X111200000Y-125860000D03*
X113740000Y-125860000D03*
X116280000Y-125860000D03*
X118820000Y-125860000D03*
X108660000Y-128400000D03*
X111200000Y-128400000D03*
X113740000Y-128400000D03*
X116280000Y-128400000D03*
X118820000Y-128400000D03*
X108660000Y-130940000D03*
X111200000Y-130940000D03*
X113740000Y-130940000D03*
X116280000Y-130940000D03*
X118820000Y-130940000D03*
X108660000Y-133480000D03*
X111200000Y-133480000D03*
X113740000Y-133480000D03*
X116280000Y-133480000D03*
X118820000Y-133480000D03*
X108660000Y-136020000D03*
X111200000Y-136020000D03*
X113740000Y-136020000D03*
X116280000Y-136020000D03*
X118820000Y-136020000D03*
%TD*%
%TO.C,J60*%
X108660000Y-138560000D03*
X111200000Y-138560000D03*
X113740000Y-138560000D03*
X116280000Y-138560000D03*
X118820000Y-138560000D03*
X108660000Y-141100000D03*
X111200000Y-141100000D03*
X113740000Y-141100000D03*
X116280000Y-141100000D03*
X118820000Y-141100000D03*
X108660000Y-143640000D03*
X111200000Y-143640000D03*
X113740000Y-143640000D03*
X116280000Y-143640000D03*
X118820000Y-143640000D03*
X108660000Y-146180000D03*
X111200000Y-146180000D03*
X113740000Y-146180000D03*
X116280000Y-146180000D03*
X118820000Y-146180000D03*
X108660000Y-148720000D03*
X111200000Y-148720000D03*
X113740000Y-148720000D03*
X116280000Y-148720000D03*
X118820000Y-148720000D03*
%TD*%
%TO.C,J61*%
X108660000Y-151260000D03*
X111200000Y-151260000D03*
X113740000Y-151260000D03*
X116280000Y-151260000D03*
X118820000Y-151260000D03*
X108660000Y-153800000D03*
X111200000Y-153800000D03*
X113740000Y-153800000D03*
X116280000Y-153800000D03*
X118820000Y-153800000D03*
X108660000Y-156340000D03*
X111200000Y-156340000D03*
X113740000Y-156340000D03*
X116280000Y-156340000D03*
X118820000Y-156340000D03*
X108660000Y-158880000D03*
X111200000Y-158880000D03*
X113740000Y-158880000D03*
X116280000Y-158880000D03*
X118820000Y-158880000D03*
X108660000Y-161420000D03*
X111200000Y-161420000D03*
X113740000Y-161420000D03*
X116280000Y-161420000D03*
X118820000Y-161420000D03*
%TD*%
%TO.C,J62*%
X108660000Y-163960000D03*
X111200000Y-163960000D03*
X113740000Y-163960000D03*
X116280000Y-163960000D03*
X118820000Y-163960000D03*
X108660000Y-166500000D03*
X111200000Y-166500000D03*
X113740000Y-166500000D03*
X116280000Y-166500000D03*
X118820000Y-166500000D03*
X108660000Y-169040000D03*
X111200000Y-169040000D03*
X113740000Y-169040000D03*
X116280000Y-169040000D03*
X118820000Y-169040000D03*
X108660000Y-171580000D03*
X111200000Y-171580000D03*
X113740000Y-171580000D03*
X116280000Y-171580000D03*
X118820000Y-171580000D03*
X108660000Y-174120000D03*
X111200000Y-174120000D03*
X113740000Y-174120000D03*
X116280000Y-174120000D03*
X118820000Y-174120000D03*
%TD*%
%TO.C,J63*%
X108660000Y-176660000D03*
X111200000Y-176660000D03*
X113740000Y-176660000D03*
X116280000Y-176660000D03*
X118820000Y-176660000D03*
X108660000Y-179200000D03*
X111200000Y-179200000D03*
X113740000Y-179200000D03*
X116280000Y-179200000D03*
X118820000Y-179200000D03*
X108660000Y-181740000D03*
X111200000Y-181740000D03*
X113740000Y-181740000D03*
X116280000Y-181740000D03*
X118820000Y-181740000D03*
X108660000Y-184280000D03*
X111200000Y-184280000D03*
X113740000Y-184280000D03*
X116280000Y-184280000D03*
X118820000Y-184280000D03*
X108660000Y-186820000D03*
X111200000Y-186820000D03*
X113740000Y-186820000D03*
X116280000Y-186820000D03*
X118820000Y-186820000D03*
%TD*%
%TO.C,J65*%
X108660000Y-202060000D03*
X111200000Y-202060000D03*
X113740000Y-202060000D03*
X116280000Y-202060000D03*
X118820000Y-202060000D03*
X108660000Y-204600000D03*
X111200000Y-204600000D03*
X113740000Y-204600000D03*
X116280000Y-204600000D03*
X118820000Y-204600000D03*
X108660000Y-207140000D03*
X111200000Y-207140000D03*
X113740000Y-207140000D03*
X116280000Y-207140000D03*
X118820000Y-207140000D03*
X108660000Y-209680000D03*
X111200000Y-209680000D03*
X113740000Y-209680000D03*
X116280000Y-209680000D03*
X118820000Y-209680000D03*
X108660000Y-212220000D03*
X111200000Y-212220000D03*
X113740000Y-212220000D03*
X116280000Y-212220000D03*
X118820000Y-212220000D03*
%TD*%
%TO.C,J66*%
X121360000Y-75060000D03*
X123900000Y-75060000D03*
X126440000Y-75060000D03*
X128980000Y-75060000D03*
X131520000Y-75060000D03*
X121360000Y-77600000D03*
X123900000Y-77600000D03*
X126440000Y-77600000D03*
X128980000Y-77600000D03*
X131520000Y-77600000D03*
X121360000Y-80140000D03*
X123900000Y-80140000D03*
X126440000Y-80140000D03*
X128980000Y-80140000D03*
X131520000Y-80140000D03*
X121360000Y-82680000D03*
X123900000Y-82680000D03*
X126440000Y-82680000D03*
X128980000Y-82680000D03*
X131520000Y-82680000D03*
X121360000Y-85220000D03*
X123900000Y-85220000D03*
X126440000Y-85220000D03*
X128980000Y-85220000D03*
X131520000Y-85220000D03*
%TD*%
%TO.C,J64*%
X108660000Y-189360000D03*
X111200000Y-189360000D03*
X113740000Y-189360000D03*
X116280000Y-189360000D03*
X118820000Y-189360000D03*
X108660000Y-191900000D03*
X111200000Y-191900000D03*
X113740000Y-191900000D03*
X116280000Y-191900000D03*
X118820000Y-191900000D03*
X108660000Y-194440000D03*
X111200000Y-194440000D03*
X113740000Y-194440000D03*
X116280000Y-194440000D03*
X118820000Y-194440000D03*
X108660000Y-196980000D03*
X111200000Y-196980000D03*
X113740000Y-196980000D03*
X116280000Y-196980000D03*
X118820000Y-196980000D03*
X108660000Y-199520000D03*
X111200000Y-199520000D03*
X113740000Y-199520000D03*
X116280000Y-199520000D03*
X118820000Y-199520000D03*
%TD*%
%TO.C,J67*%
X121360000Y-87760000D03*
X123900000Y-87760000D03*
X126440000Y-87760000D03*
X128980000Y-87760000D03*
X131520000Y-87760000D03*
X121360000Y-90300000D03*
X123900000Y-90300000D03*
X126440000Y-90300000D03*
X128980000Y-90300000D03*
X131520000Y-90300000D03*
X121360000Y-92840000D03*
X123900000Y-92840000D03*
X126440000Y-92840000D03*
X128980000Y-92840000D03*
X131520000Y-92840000D03*
X121360000Y-95380000D03*
X123900000Y-95380000D03*
X126440000Y-95380000D03*
X128980000Y-95380000D03*
X131520000Y-95380000D03*
X121360000Y-97920000D03*
X123900000Y-97920000D03*
X126440000Y-97920000D03*
X128980000Y-97920000D03*
X131520000Y-97920000D03*
%TD*%
%TO.C,J68*%
X121360000Y-100460000D03*
X123900000Y-100460000D03*
X126440000Y-100460000D03*
X128980000Y-100460000D03*
X131520000Y-100460000D03*
X121360000Y-103000000D03*
X123900000Y-103000000D03*
X126440000Y-103000000D03*
X128980000Y-103000000D03*
X131520000Y-103000000D03*
X121360000Y-105540000D03*
X123900000Y-105540000D03*
X126440000Y-105540000D03*
X128980000Y-105540000D03*
X131520000Y-105540000D03*
X121360000Y-108080000D03*
X123900000Y-108080000D03*
X126440000Y-108080000D03*
X128980000Y-108080000D03*
X131520000Y-108080000D03*
X121360000Y-110620000D03*
X123900000Y-110620000D03*
X126440000Y-110620000D03*
X128980000Y-110620000D03*
X131520000Y-110620000D03*
%TD*%
%TO.C,J69*%
X121360000Y-113160000D03*
X123900000Y-113160000D03*
X126440000Y-113160000D03*
X128980000Y-113160000D03*
X131520000Y-113160000D03*
X121360000Y-115700000D03*
X123900000Y-115700000D03*
X126440000Y-115700000D03*
X128980000Y-115700000D03*
X131520000Y-115700000D03*
X121360000Y-118240000D03*
X123900000Y-118240000D03*
X126440000Y-118240000D03*
X128980000Y-118240000D03*
X131520000Y-118240000D03*
X121360000Y-120780000D03*
X123900000Y-120780000D03*
X126440000Y-120780000D03*
X128980000Y-120780000D03*
X131520000Y-120780000D03*
X121360000Y-123320000D03*
X123900000Y-123320000D03*
X126440000Y-123320000D03*
X128980000Y-123320000D03*
X131520000Y-123320000D03*
%TD*%
%TO.C,J70*%
X121360000Y-125860000D03*
X123900000Y-125860000D03*
X126440000Y-125860000D03*
X128980000Y-125860000D03*
X131520000Y-125860000D03*
X121360000Y-128400000D03*
X123900000Y-128400000D03*
X126440000Y-128400000D03*
X128980000Y-128400000D03*
X131520000Y-128400000D03*
X121360000Y-130940000D03*
X123900000Y-130940000D03*
X126440000Y-130940000D03*
X128980000Y-130940000D03*
X131520000Y-130940000D03*
X121360000Y-133480000D03*
X123900000Y-133480000D03*
X126440000Y-133480000D03*
X128980000Y-133480000D03*
X131520000Y-133480000D03*
X121360000Y-136020000D03*
X123900000Y-136020000D03*
X126440000Y-136020000D03*
X128980000Y-136020000D03*
X131520000Y-136020000D03*
%TD*%
%TO.C,J71*%
X121360000Y-138560000D03*
X123900000Y-138560000D03*
X126440000Y-138560000D03*
X128980000Y-138560000D03*
X131520000Y-138560000D03*
X121360000Y-141100000D03*
X123900000Y-141100000D03*
X126440000Y-141100000D03*
X128980000Y-141100000D03*
X131520000Y-141100000D03*
X121360000Y-143640000D03*
X123900000Y-143640000D03*
X126440000Y-143640000D03*
X128980000Y-143640000D03*
X131520000Y-143640000D03*
X121360000Y-146180000D03*
X123900000Y-146180000D03*
X126440000Y-146180000D03*
X128980000Y-146180000D03*
X131520000Y-146180000D03*
X121360000Y-148720000D03*
X123900000Y-148720000D03*
X126440000Y-148720000D03*
X128980000Y-148720000D03*
X131520000Y-148720000D03*
%TD*%
%TO.C,J72*%
X121360000Y-151260000D03*
X123900000Y-151260000D03*
X126440000Y-151260000D03*
X128980000Y-151260000D03*
X131520000Y-151260000D03*
X121360000Y-153800000D03*
X123900000Y-153800000D03*
X126440000Y-153800000D03*
X128980000Y-153800000D03*
X131520000Y-153800000D03*
X121360000Y-156340000D03*
X123900000Y-156340000D03*
X126440000Y-156340000D03*
X128980000Y-156340000D03*
X131520000Y-156340000D03*
X121360000Y-158880000D03*
X123900000Y-158880000D03*
X126440000Y-158880000D03*
X128980000Y-158880000D03*
X131520000Y-158880000D03*
X121360000Y-161420000D03*
X123900000Y-161420000D03*
X126440000Y-161420000D03*
X128980000Y-161420000D03*
X131520000Y-161420000D03*
%TD*%
%TO.C,J73*%
X121360000Y-163960000D03*
X123900000Y-163960000D03*
X126440000Y-163960000D03*
X128980000Y-163960000D03*
X131520000Y-163960000D03*
X121360000Y-166500000D03*
X123900000Y-166500000D03*
X126440000Y-166500000D03*
X128980000Y-166500000D03*
X131520000Y-166500000D03*
X121360000Y-169040000D03*
X123900000Y-169040000D03*
X126440000Y-169040000D03*
X128980000Y-169040000D03*
X131520000Y-169040000D03*
X121360000Y-171580000D03*
X123900000Y-171580000D03*
X126440000Y-171580000D03*
X128980000Y-171580000D03*
X131520000Y-171580000D03*
X121360000Y-174120000D03*
X123900000Y-174120000D03*
X126440000Y-174120000D03*
X128980000Y-174120000D03*
X131520000Y-174120000D03*
%TD*%
%TO.C,J74*%
X121360000Y-176660000D03*
X123900000Y-176660000D03*
X126440000Y-176660000D03*
X128980000Y-176660000D03*
X131520000Y-176660000D03*
X121360000Y-179200000D03*
X123900000Y-179200000D03*
X126440000Y-179200000D03*
X128980000Y-179200000D03*
X131520000Y-179200000D03*
X121360000Y-181740000D03*
X123900000Y-181740000D03*
X126440000Y-181740000D03*
X128980000Y-181740000D03*
X131520000Y-181740000D03*
X121360000Y-184280000D03*
X123900000Y-184280000D03*
X126440000Y-184280000D03*
X128980000Y-184280000D03*
X131520000Y-184280000D03*
X121360000Y-186820000D03*
X123900000Y-186820000D03*
X126440000Y-186820000D03*
X128980000Y-186820000D03*
X131520000Y-186820000D03*
%TD*%
%TO.C,J75*%
X121360000Y-189360000D03*
X123900000Y-189360000D03*
X126440000Y-189360000D03*
X128980000Y-189360000D03*
X131520000Y-189360000D03*
X121360000Y-191900000D03*
X123900000Y-191900000D03*
X126440000Y-191900000D03*
X128980000Y-191900000D03*
X131520000Y-191900000D03*
X121360000Y-194440000D03*
X123900000Y-194440000D03*
X126440000Y-194440000D03*
X128980000Y-194440000D03*
X131520000Y-194440000D03*
X121360000Y-196980000D03*
X123900000Y-196980000D03*
X126440000Y-196980000D03*
X128980000Y-196980000D03*
X131520000Y-196980000D03*
X121360000Y-199520000D03*
X123900000Y-199520000D03*
X126440000Y-199520000D03*
X128980000Y-199520000D03*
X131520000Y-199520000D03*
%TD*%
%TO.C,J76*%
X121360000Y-202060000D03*
X123900000Y-202060000D03*
X126440000Y-202060000D03*
X128980000Y-202060000D03*
X131520000Y-202060000D03*
X121360000Y-204600000D03*
X123900000Y-204600000D03*
X126440000Y-204600000D03*
X128980000Y-204600000D03*
X131520000Y-204600000D03*
X121360000Y-207140000D03*
X123900000Y-207140000D03*
X126440000Y-207140000D03*
X128980000Y-207140000D03*
X131520000Y-207140000D03*
X121360000Y-209680000D03*
X123900000Y-209680000D03*
X126440000Y-209680000D03*
X128980000Y-209680000D03*
X131520000Y-209680000D03*
X121360000Y-212220000D03*
X123900000Y-212220000D03*
X126440000Y-212220000D03*
X128980000Y-212220000D03*
X131520000Y-212220000D03*
%TD*%
%TO.C,J77*%
X134060000Y-75060000D03*
X136600000Y-75060000D03*
X139140000Y-75060000D03*
X141680000Y-75060000D03*
X144220000Y-75060000D03*
X134060000Y-77600000D03*
X136600000Y-77600000D03*
X139140000Y-77600000D03*
X141680000Y-77600000D03*
X144220000Y-77600000D03*
X134060000Y-80140000D03*
X136600000Y-80140000D03*
X139140000Y-80140000D03*
X141680000Y-80140000D03*
X144220000Y-80140000D03*
X134060000Y-82680000D03*
X136600000Y-82680000D03*
X139140000Y-82680000D03*
X141680000Y-82680000D03*
X144220000Y-82680000D03*
X134060000Y-85220000D03*
X136600000Y-85220000D03*
X139140000Y-85220000D03*
X141680000Y-85220000D03*
X144220000Y-85220000D03*
%TD*%
%TO.C,J78*%
X134060000Y-87760000D03*
X136600000Y-87760000D03*
X139140000Y-87760000D03*
X141680000Y-87760000D03*
X144220000Y-87760000D03*
X134060000Y-90300000D03*
X136600000Y-90300000D03*
X139140000Y-90300000D03*
X141680000Y-90300000D03*
X144220000Y-90300000D03*
X134060000Y-92840000D03*
X136600000Y-92840000D03*
X139140000Y-92840000D03*
X141680000Y-92840000D03*
X144220000Y-92840000D03*
X134060000Y-95380000D03*
X136600000Y-95380000D03*
X139140000Y-95380000D03*
X141680000Y-95380000D03*
X144220000Y-95380000D03*
X134060000Y-97920000D03*
X136600000Y-97920000D03*
X139140000Y-97920000D03*
X141680000Y-97920000D03*
X144220000Y-97920000D03*
%TD*%
%TO.C,J79*%
X134060000Y-100460000D03*
X136600000Y-100460000D03*
X139140000Y-100460000D03*
X141680000Y-100460000D03*
X144220000Y-100460000D03*
X134060000Y-103000000D03*
X136600000Y-103000000D03*
X139140000Y-103000000D03*
X141680000Y-103000000D03*
X144220000Y-103000000D03*
X134060000Y-105540000D03*
X136600000Y-105540000D03*
X139140000Y-105540000D03*
X141680000Y-105540000D03*
X144220000Y-105540000D03*
X134060000Y-108080000D03*
X136600000Y-108080000D03*
X139140000Y-108080000D03*
X141680000Y-108080000D03*
X144220000Y-108080000D03*
X134060000Y-110620000D03*
X136600000Y-110620000D03*
X139140000Y-110620000D03*
X141680000Y-110620000D03*
X144220000Y-110620000D03*
%TD*%
%TO.C,J80*%
X134060000Y-113160000D03*
X136600000Y-113160000D03*
X139140000Y-113160000D03*
X141680000Y-113160000D03*
X144220000Y-113160000D03*
X134060000Y-115700000D03*
X136600000Y-115700000D03*
X139140000Y-115700000D03*
X141680000Y-115700000D03*
X144220000Y-115700000D03*
X134060000Y-118240000D03*
X136600000Y-118240000D03*
X139140000Y-118240000D03*
X141680000Y-118240000D03*
X144220000Y-118240000D03*
X134060000Y-120780000D03*
X136600000Y-120780000D03*
X139140000Y-120780000D03*
X141680000Y-120780000D03*
X144220000Y-120780000D03*
X134060000Y-123320000D03*
X136600000Y-123320000D03*
X139140000Y-123320000D03*
X141680000Y-123320000D03*
X144220000Y-123320000D03*
%TD*%
%TO.C,J81*%
X134060000Y-125860000D03*
X136600000Y-125860000D03*
X139140000Y-125860000D03*
X141680000Y-125860000D03*
X144220000Y-125860000D03*
X134060000Y-128400000D03*
X136600000Y-128400000D03*
X139140000Y-128400000D03*
X141680000Y-128400000D03*
X144220000Y-128400000D03*
X134060000Y-130940000D03*
X136600000Y-130940000D03*
X139140000Y-130940000D03*
X141680000Y-130940000D03*
X144220000Y-130940000D03*
X134060000Y-133480000D03*
X136600000Y-133480000D03*
X139140000Y-133480000D03*
X141680000Y-133480000D03*
X144220000Y-133480000D03*
X134060000Y-136020000D03*
X136600000Y-136020000D03*
X139140000Y-136020000D03*
X141680000Y-136020000D03*
X144220000Y-136020000D03*
%TD*%
%TO.C,J82*%
X134060000Y-138560000D03*
X136600000Y-138560000D03*
X139140000Y-138560000D03*
X141680000Y-138560000D03*
X144220000Y-138560000D03*
X134060000Y-141100000D03*
X136600000Y-141100000D03*
X139140000Y-141100000D03*
X141680000Y-141100000D03*
X144220000Y-141100000D03*
X134060000Y-143640000D03*
X136600000Y-143640000D03*
X139140000Y-143640000D03*
X141680000Y-143640000D03*
X144220000Y-143640000D03*
X134060000Y-146180000D03*
X136600000Y-146180000D03*
X139140000Y-146180000D03*
X141680000Y-146180000D03*
X144220000Y-146180000D03*
X134060000Y-148720000D03*
X136600000Y-148720000D03*
X139140000Y-148720000D03*
X141680000Y-148720000D03*
X144220000Y-148720000D03*
%TD*%
%TO.C,J83*%
X134060000Y-151260000D03*
X136600000Y-151260000D03*
X139140000Y-151260000D03*
X141680000Y-151260000D03*
X144220000Y-151260000D03*
X134060000Y-153800000D03*
X136600000Y-153800000D03*
X139140000Y-153800000D03*
X141680000Y-153800000D03*
X144220000Y-153800000D03*
X134060000Y-156340000D03*
X136600000Y-156340000D03*
X139140000Y-156340000D03*
X141680000Y-156340000D03*
X144220000Y-156340000D03*
X134060000Y-158880000D03*
X136600000Y-158880000D03*
X139140000Y-158880000D03*
X141680000Y-158880000D03*
X144220000Y-158880000D03*
X134060000Y-161420000D03*
X136600000Y-161420000D03*
X139140000Y-161420000D03*
X141680000Y-161420000D03*
X144220000Y-161420000D03*
%TD*%
%TO.C,J84*%
X134060000Y-163960000D03*
X136600000Y-163960000D03*
X139140000Y-163960000D03*
X141680000Y-163960000D03*
X144220000Y-163960000D03*
X134060000Y-166500000D03*
X136600000Y-166500000D03*
X139140000Y-166500000D03*
X141680000Y-166500000D03*
X144220000Y-166500000D03*
X134060000Y-169040000D03*
X136600000Y-169040000D03*
X139140000Y-169040000D03*
X141680000Y-169040000D03*
X144220000Y-169040000D03*
X134060000Y-171580000D03*
X136600000Y-171580000D03*
X139140000Y-171580000D03*
X141680000Y-171580000D03*
X144220000Y-171580000D03*
X134060000Y-174120000D03*
X136600000Y-174120000D03*
X139140000Y-174120000D03*
X141680000Y-174120000D03*
X144220000Y-174120000D03*
%TD*%
%TO.C,J85*%
X134060000Y-176660000D03*
X136600000Y-176660000D03*
X139140000Y-176660000D03*
X141680000Y-176660000D03*
X144220000Y-176660000D03*
X134060000Y-179200000D03*
X136600000Y-179200000D03*
X139140000Y-179200000D03*
X141680000Y-179200000D03*
X144220000Y-179200000D03*
X134060000Y-181740000D03*
X136600000Y-181740000D03*
X139140000Y-181740000D03*
X141680000Y-181740000D03*
X144220000Y-181740000D03*
X134060000Y-184280000D03*
X136600000Y-184280000D03*
X139140000Y-184280000D03*
X141680000Y-184280000D03*
X144220000Y-184280000D03*
X134060000Y-186820000D03*
X136600000Y-186820000D03*
X139140000Y-186820000D03*
X141680000Y-186820000D03*
X144220000Y-186820000D03*
%TD*%
%TO.C,J86*%
X134060000Y-189360000D03*
X136600000Y-189360000D03*
X139140000Y-189360000D03*
X141680000Y-189360000D03*
X144220000Y-189360000D03*
X134060000Y-191900000D03*
X136600000Y-191900000D03*
X139140000Y-191900000D03*
X141680000Y-191900000D03*
X144220000Y-191900000D03*
X134060000Y-194440000D03*
X136600000Y-194440000D03*
X139140000Y-194440000D03*
X141680000Y-194440000D03*
X144220000Y-194440000D03*
X134060000Y-196980000D03*
X136600000Y-196980000D03*
X139140000Y-196980000D03*
X141680000Y-196980000D03*
X144220000Y-196980000D03*
X134060000Y-199520000D03*
X136600000Y-199520000D03*
X139140000Y-199520000D03*
X141680000Y-199520000D03*
X144220000Y-199520000D03*
%TD*%
%TO.C,J87*%
X134060000Y-202060000D03*
X136600000Y-202060000D03*
X139140000Y-202060000D03*
X141680000Y-202060000D03*
X144220000Y-202060000D03*
X134060000Y-204600000D03*
X136600000Y-204600000D03*
X139140000Y-204600000D03*
X141680000Y-204600000D03*
X144220000Y-204600000D03*
X134060000Y-207140000D03*
X136600000Y-207140000D03*
X139140000Y-207140000D03*
X141680000Y-207140000D03*
X144220000Y-207140000D03*
X134060000Y-209680000D03*
X136600000Y-209680000D03*
X139140000Y-209680000D03*
X141680000Y-209680000D03*
X144220000Y-209680000D03*
X134060000Y-212220000D03*
X136600000Y-212220000D03*
X139140000Y-212220000D03*
X141680000Y-212220000D03*
X144220000Y-212220000D03*
%TD*%
%TO.C,J88*%
X146760000Y-75060000D03*
X149300000Y-75060000D03*
X151840000Y-75060000D03*
X154380000Y-75060000D03*
X156920000Y-75060000D03*
X146760000Y-77600000D03*
X149300000Y-77600000D03*
X151840000Y-77600000D03*
X154380000Y-77600000D03*
X156920000Y-77600000D03*
X146760000Y-80140000D03*
X149300000Y-80140000D03*
X151840000Y-80140000D03*
X154380000Y-80140000D03*
X156920000Y-80140000D03*
X146760000Y-82680000D03*
X149300000Y-82680000D03*
X151840000Y-82680000D03*
X154380000Y-82680000D03*
X156920000Y-82680000D03*
X146760000Y-85220000D03*
X149300000Y-85220000D03*
X151840000Y-85220000D03*
X154380000Y-85220000D03*
X156920000Y-85220000D03*
%TD*%
%TO.C,J89*%
X146760000Y-87760000D03*
X149300000Y-87760000D03*
X151840000Y-87760000D03*
X154380000Y-87760000D03*
X156920000Y-87760000D03*
X146760000Y-90300000D03*
X149300000Y-90300000D03*
X151840000Y-90300000D03*
X154380000Y-90300000D03*
X156920000Y-90300000D03*
X146760000Y-92840000D03*
X149300000Y-92840000D03*
X151840000Y-92840000D03*
X154380000Y-92840000D03*
X156920000Y-92840000D03*
X146760000Y-95380000D03*
X149300000Y-95380000D03*
X151840000Y-95380000D03*
X154380000Y-95380000D03*
X156920000Y-95380000D03*
X146760000Y-97920000D03*
X149300000Y-97920000D03*
X151840000Y-97920000D03*
X154380000Y-97920000D03*
X156920000Y-97920000D03*
%TD*%
%TO.C,J90*%
X146760000Y-100460000D03*
X149300000Y-100460000D03*
X151840000Y-100460000D03*
X154380000Y-100460000D03*
X156920000Y-100460000D03*
X146760000Y-103000000D03*
X149300000Y-103000000D03*
X151840000Y-103000000D03*
X154380000Y-103000000D03*
X156920000Y-103000000D03*
X146760000Y-105540000D03*
X149300000Y-105540000D03*
X151840000Y-105540000D03*
X154380000Y-105540000D03*
X156920000Y-105540000D03*
X146760000Y-108080000D03*
X149300000Y-108080000D03*
X151840000Y-108080000D03*
X154380000Y-108080000D03*
X156920000Y-108080000D03*
X146760000Y-110620000D03*
X149300000Y-110620000D03*
X151840000Y-110620000D03*
X154380000Y-110620000D03*
X156920000Y-110620000D03*
%TD*%
%TO.C,J91*%
X146760000Y-113160000D03*
X149300000Y-113160000D03*
X151840000Y-113160000D03*
X154380000Y-113160000D03*
X156920000Y-113160000D03*
X146760000Y-115700000D03*
X149300000Y-115700000D03*
X151840000Y-115700000D03*
X154380000Y-115700000D03*
X156920000Y-115700000D03*
X146760000Y-118240000D03*
X149300000Y-118240000D03*
X151840000Y-118240000D03*
X154380000Y-118240000D03*
X156920000Y-118240000D03*
X146760000Y-120780000D03*
X149300000Y-120780000D03*
X151840000Y-120780000D03*
X154380000Y-120780000D03*
X156920000Y-120780000D03*
X146760000Y-123320000D03*
X149300000Y-123320000D03*
X151840000Y-123320000D03*
X154380000Y-123320000D03*
X156920000Y-123320000D03*
%TD*%
%TO.C,J92*%
X146760000Y-125860000D03*
X149300000Y-125860000D03*
X151840000Y-125860000D03*
X154380000Y-125860000D03*
X156920000Y-125860000D03*
X146760000Y-128400000D03*
X149300000Y-128400000D03*
X151840000Y-128400000D03*
X154380000Y-128400000D03*
X156920000Y-128400000D03*
X146760000Y-130940000D03*
X149300000Y-130940000D03*
X151840000Y-130940000D03*
X154380000Y-130940000D03*
X156920000Y-130940000D03*
X146760000Y-133480000D03*
X149300000Y-133480000D03*
X151840000Y-133480000D03*
X154380000Y-133480000D03*
X156920000Y-133480000D03*
X146760000Y-136020000D03*
X149300000Y-136020000D03*
X151840000Y-136020000D03*
X154380000Y-136020000D03*
X156920000Y-136020000D03*
%TD*%
%TO.C,J93*%
X146760000Y-138560000D03*
X149300000Y-138560000D03*
X151840000Y-138560000D03*
X154380000Y-138560000D03*
X156920000Y-138560000D03*
X146760000Y-141100000D03*
X149300000Y-141100000D03*
X151840000Y-141100000D03*
X154380000Y-141100000D03*
X156920000Y-141100000D03*
X146760000Y-143640000D03*
X149300000Y-143640000D03*
X151840000Y-143640000D03*
X154380000Y-143640000D03*
X156920000Y-143640000D03*
X146760000Y-146180000D03*
X149300000Y-146180000D03*
X151840000Y-146180000D03*
X154380000Y-146180000D03*
X156920000Y-146180000D03*
X146760000Y-148720000D03*
X149300000Y-148720000D03*
X151840000Y-148720000D03*
X154380000Y-148720000D03*
X156920000Y-148720000D03*
%TD*%
%TO.C,J94*%
X146760000Y-151260000D03*
X149300000Y-151260000D03*
X151840000Y-151260000D03*
X154380000Y-151260000D03*
X156920000Y-151260000D03*
X146760000Y-153800000D03*
X149300000Y-153800000D03*
X151840000Y-153800000D03*
X154380000Y-153800000D03*
X156920000Y-153800000D03*
X146760000Y-156340000D03*
X149300000Y-156340000D03*
X151840000Y-156340000D03*
X154380000Y-156340000D03*
X156920000Y-156340000D03*
X146760000Y-158880000D03*
X149300000Y-158880000D03*
X151840000Y-158880000D03*
X154380000Y-158880000D03*
X156920000Y-158880000D03*
X146760000Y-161420000D03*
X149300000Y-161420000D03*
X151840000Y-161420000D03*
X154380000Y-161420000D03*
X156920000Y-161420000D03*
%TD*%
%TO.C,J95*%
X146760000Y-163960000D03*
X149300000Y-163960000D03*
X151840000Y-163960000D03*
X154380000Y-163960000D03*
X156920000Y-163960000D03*
X146760000Y-166500000D03*
X149300000Y-166500000D03*
X151840000Y-166500000D03*
X154380000Y-166500000D03*
X156920000Y-166500000D03*
X146760000Y-169040000D03*
X149300000Y-169040000D03*
X151840000Y-169040000D03*
X154380000Y-169040000D03*
X156920000Y-169040000D03*
X146760000Y-171580000D03*
X149300000Y-171580000D03*
X151840000Y-171580000D03*
X154380000Y-171580000D03*
X156920000Y-171580000D03*
X146760000Y-174120000D03*
X149300000Y-174120000D03*
X151840000Y-174120000D03*
X154380000Y-174120000D03*
X156920000Y-174120000D03*
%TD*%
%TO.C,J96*%
X146760000Y-176660000D03*
X149300000Y-176660000D03*
X151840000Y-176660000D03*
X154380000Y-176660000D03*
X156920000Y-176660000D03*
X146760000Y-179200000D03*
X149300000Y-179200000D03*
X151840000Y-179200000D03*
X154380000Y-179200000D03*
X156920000Y-179200000D03*
X146760000Y-181740000D03*
X149300000Y-181740000D03*
X151840000Y-181740000D03*
X154380000Y-181740000D03*
X156920000Y-181740000D03*
X146760000Y-184280000D03*
X149300000Y-184280000D03*
X151840000Y-184280000D03*
X154380000Y-184280000D03*
X156920000Y-184280000D03*
X146760000Y-186820000D03*
X149300000Y-186820000D03*
X151840000Y-186820000D03*
X154380000Y-186820000D03*
X156920000Y-186820000D03*
%TD*%
%TO.C,J97*%
X146760000Y-189360000D03*
X149300000Y-189360000D03*
X151840000Y-189360000D03*
X154380000Y-189360000D03*
X156920000Y-189360000D03*
X146760000Y-191900000D03*
X149300000Y-191900000D03*
X151840000Y-191900000D03*
X154380000Y-191900000D03*
X156920000Y-191900000D03*
X146760000Y-194440000D03*
X149300000Y-194440000D03*
X151840000Y-194440000D03*
X154380000Y-194440000D03*
X156920000Y-194440000D03*
X146760000Y-196980000D03*
X149300000Y-196980000D03*
X151840000Y-196980000D03*
X154380000Y-196980000D03*
X156920000Y-196980000D03*
X146760000Y-199520000D03*
X149300000Y-199520000D03*
X151840000Y-199520000D03*
X154380000Y-199520000D03*
X156920000Y-199520000D03*
%TD*%
%TO.C,J98*%
X146760000Y-202060000D03*
X149300000Y-202060000D03*
X151840000Y-202060000D03*
X154380000Y-202060000D03*
X156920000Y-202060000D03*
X146760000Y-204600000D03*
X149300000Y-204600000D03*
X151840000Y-204600000D03*
X154380000Y-204600000D03*
X156920000Y-204600000D03*
X146760000Y-207140000D03*
X149300000Y-207140000D03*
X151840000Y-207140000D03*
X154380000Y-207140000D03*
X156920000Y-207140000D03*
X146760000Y-209680000D03*
X149300000Y-209680000D03*
X151840000Y-209680000D03*
X154380000Y-209680000D03*
X156920000Y-209680000D03*
X146760000Y-212220000D03*
X149300000Y-212220000D03*
X151840000Y-212220000D03*
X154380000Y-212220000D03*
X156920000Y-212220000D03*
%TD*%
%TO.C,J99*%
X159460000Y-75060000D03*
X162000000Y-75060000D03*
X164540000Y-75060000D03*
X167080000Y-75060000D03*
X169620000Y-75060000D03*
X159460000Y-77600000D03*
X162000000Y-77600000D03*
X164540000Y-77600000D03*
X167080000Y-77600000D03*
X169620000Y-77600000D03*
X159460000Y-80140000D03*
X162000000Y-80140000D03*
X164540000Y-80140000D03*
X167080000Y-80140000D03*
X169620000Y-80140000D03*
X159460000Y-82680000D03*
X162000000Y-82680000D03*
X164540000Y-82680000D03*
X167080000Y-82680000D03*
X169620000Y-82680000D03*
X159460000Y-85220000D03*
X162000000Y-85220000D03*
X164540000Y-85220000D03*
X167080000Y-85220000D03*
X169620000Y-85220000D03*
%TD*%
%TO.C,J100*%
X159460000Y-87760000D03*
X162000000Y-87760000D03*
X164540000Y-87760000D03*
X167080000Y-87760000D03*
X169620000Y-87760000D03*
X159460000Y-90300000D03*
X162000000Y-90300000D03*
X164540000Y-90300000D03*
X167080000Y-90300000D03*
X169620000Y-90300000D03*
X159460000Y-92840000D03*
X162000000Y-92840000D03*
X164540000Y-92840000D03*
X167080000Y-92840000D03*
X169620000Y-92840000D03*
X159460000Y-95380000D03*
X162000000Y-95380000D03*
X164540000Y-95380000D03*
X167080000Y-95380000D03*
X169620000Y-95380000D03*
X159460000Y-97920000D03*
X162000000Y-97920000D03*
X164540000Y-97920000D03*
X167080000Y-97920000D03*
X169620000Y-97920000D03*
%TD*%
%TO.C,J101*%
X159460000Y-100460000D03*
X162000000Y-100460000D03*
X164540000Y-100460000D03*
X167080000Y-100460000D03*
X169620000Y-100460000D03*
X159460000Y-103000000D03*
X162000000Y-103000000D03*
X164540000Y-103000000D03*
X167080000Y-103000000D03*
X169620000Y-103000000D03*
X159460000Y-105540000D03*
X162000000Y-105540000D03*
X164540000Y-105540000D03*
X167080000Y-105540000D03*
X169620000Y-105540000D03*
X159460000Y-108080000D03*
X162000000Y-108080000D03*
X164540000Y-108080000D03*
X167080000Y-108080000D03*
X169620000Y-108080000D03*
X159460000Y-110620000D03*
X162000000Y-110620000D03*
X164540000Y-110620000D03*
X167080000Y-110620000D03*
X169620000Y-110620000D03*
%TD*%
%TO.C,J102*%
X159460000Y-113160000D03*
X162000000Y-113160000D03*
X164540000Y-113160000D03*
X167080000Y-113160000D03*
X169620000Y-113160000D03*
X159460000Y-115700000D03*
X162000000Y-115700000D03*
X164540000Y-115700000D03*
X167080000Y-115700000D03*
X169620000Y-115700000D03*
X159460000Y-118240000D03*
X162000000Y-118240000D03*
X164540000Y-118240000D03*
X167080000Y-118240000D03*
X169620000Y-118240000D03*
X159460000Y-120780000D03*
X162000000Y-120780000D03*
X164540000Y-120780000D03*
X167080000Y-120780000D03*
X169620000Y-120780000D03*
X159460000Y-123320000D03*
X162000000Y-123320000D03*
X164540000Y-123320000D03*
X167080000Y-123320000D03*
X169620000Y-123320000D03*
%TD*%
%TO.C,J103*%
X159460000Y-125860000D03*
X162000000Y-125860000D03*
X164540000Y-125860000D03*
X167080000Y-125860000D03*
X169620000Y-125860000D03*
X159460000Y-128400000D03*
X162000000Y-128400000D03*
X164540000Y-128400000D03*
X167080000Y-128400000D03*
X169620000Y-128400000D03*
X159460000Y-130940000D03*
X162000000Y-130940000D03*
X164540000Y-130940000D03*
X167080000Y-130940000D03*
X169620000Y-130940000D03*
X159460000Y-133480000D03*
X162000000Y-133480000D03*
X164540000Y-133480000D03*
X167080000Y-133480000D03*
X169620000Y-133480000D03*
X159460000Y-136020000D03*
X162000000Y-136020000D03*
X164540000Y-136020000D03*
X167080000Y-136020000D03*
X169620000Y-136020000D03*
%TD*%
%TO.C,J104*%
X159460000Y-138560000D03*
X162000000Y-138560000D03*
X164540000Y-138560000D03*
X167080000Y-138560000D03*
X169620000Y-138560000D03*
X159460000Y-141100000D03*
X162000000Y-141100000D03*
X164540000Y-141100000D03*
X167080000Y-141100000D03*
X169620000Y-141100000D03*
X159460000Y-143640000D03*
X162000000Y-143640000D03*
X164540000Y-143640000D03*
X167080000Y-143640000D03*
X169620000Y-143640000D03*
X159460000Y-146180000D03*
X162000000Y-146180000D03*
X164540000Y-146180000D03*
X167080000Y-146180000D03*
X169620000Y-146180000D03*
X159460000Y-148720000D03*
X162000000Y-148720000D03*
X164540000Y-148720000D03*
X167080000Y-148720000D03*
X169620000Y-148720000D03*
%TD*%
%TO.C,J105*%
X159460000Y-151260000D03*
X162000000Y-151260000D03*
X164540000Y-151260000D03*
X167080000Y-151260000D03*
X169620000Y-151260000D03*
X159460000Y-153800000D03*
X162000000Y-153800000D03*
X164540000Y-153800000D03*
X167080000Y-153800000D03*
X169620000Y-153800000D03*
X159460000Y-156340000D03*
X162000000Y-156340000D03*
X164540000Y-156340000D03*
X167080000Y-156340000D03*
X169620000Y-156340000D03*
X159460000Y-158880000D03*
X162000000Y-158880000D03*
X164540000Y-158880000D03*
X167080000Y-158880000D03*
X169620000Y-158880000D03*
X159460000Y-161420000D03*
X162000000Y-161420000D03*
X164540000Y-161420000D03*
X167080000Y-161420000D03*
X169620000Y-161420000D03*
%TD*%
%TO.C,J106*%
X159460000Y-163960000D03*
X162000000Y-163960000D03*
X164540000Y-163960000D03*
X167080000Y-163960000D03*
X169620000Y-163960000D03*
X159460000Y-166500000D03*
X162000000Y-166500000D03*
X164540000Y-166500000D03*
X167080000Y-166500000D03*
X169620000Y-166500000D03*
X159460000Y-169040000D03*
X162000000Y-169040000D03*
X164540000Y-169040000D03*
X167080000Y-169040000D03*
X169620000Y-169040000D03*
X159460000Y-171580000D03*
X162000000Y-171580000D03*
X164540000Y-171580000D03*
X167080000Y-171580000D03*
X169620000Y-171580000D03*
X159460000Y-174120000D03*
X162000000Y-174120000D03*
X164540000Y-174120000D03*
X167080000Y-174120000D03*
X169620000Y-174120000D03*
%TD*%
%TO.C,J107*%
X159460000Y-176660000D03*
X162000000Y-176660000D03*
X164540000Y-176660000D03*
X167080000Y-176660000D03*
X169620000Y-176660000D03*
X159460000Y-179200000D03*
X162000000Y-179200000D03*
X164540000Y-179200000D03*
X167080000Y-179200000D03*
X169620000Y-179200000D03*
X159460000Y-181740000D03*
X162000000Y-181740000D03*
X164540000Y-181740000D03*
X167080000Y-181740000D03*
X169620000Y-181740000D03*
X159460000Y-184280000D03*
X162000000Y-184280000D03*
X164540000Y-184280000D03*
X167080000Y-184280000D03*
X169620000Y-184280000D03*
X159460000Y-186820000D03*
X162000000Y-186820000D03*
X164540000Y-186820000D03*
X167080000Y-186820000D03*
X169620000Y-186820000D03*
%TD*%
%TO.C,J108*%
X159460000Y-189360000D03*
X162000000Y-189360000D03*
X164540000Y-189360000D03*
X167080000Y-189360000D03*
X169620000Y-189360000D03*
X159460000Y-191900000D03*
X162000000Y-191900000D03*
X164540000Y-191900000D03*
X167080000Y-191900000D03*
X169620000Y-191900000D03*
X159460000Y-194440000D03*
X162000000Y-194440000D03*
X164540000Y-194440000D03*
X167080000Y-194440000D03*
X169620000Y-194440000D03*
X159460000Y-196980000D03*
X162000000Y-196980000D03*
X164540000Y-196980000D03*
X167080000Y-196980000D03*
X169620000Y-196980000D03*
X159460000Y-199520000D03*
X162000000Y-199520000D03*
X164540000Y-199520000D03*
X167080000Y-199520000D03*
X169620000Y-199520000D03*
%TD*%
%TO.C,J109*%
X159460000Y-202060000D03*
X162000000Y-202060000D03*
X164540000Y-202060000D03*
X167080000Y-202060000D03*
X169620000Y-202060000D03*
X159460000Y-204600000D03*
X162000000Y-204600000D03*
X164540000Y-204600000D03*
X167080000Y-204600000D03*
X169620000Y-204600000D03*
X159460000Y-207140000D03*
X162000000Y-207140000D03*
X164540000Y-207140000D03*
X167080000Y-207140000D03*
X169620000Y-207140000D03*
X159460000Y-209680000D03*
X162000000Y-209680000D03*
X164540000Y-209680000D03*
X167080000Y-209680000D03*
X169620000Y-209680000D03*
X159460000Y-212220000D03*
X162000000Y-212220000D03*
X164540000Y-212220000D03*
X167080000Y-212220000D03*
X169620000Y-212220000D03*
%TD*%
%TO.C,J110*%
X172160000Y-75060000D03*
X174700000Y-75060000D03*
X177240000Y-75060000D03*
X179780000Y-75060000D03*
X182320000Y-75060000D03*
X172160000Y-77600000D03*
X174700000Y-77600000D03*
X177240000Y-77600000D03*
X179780000Y-77600000D03*
X182320000Y-77600000D03*
X172160000Y-80140000D03*
X174700000Y-80140000D03*
X177240000Y-80140000D03*
X179780000Y-80140000D03*
X182320000Y-80140000D03*
X172160000Y-82680000D03*
X174700000Y-82680000D03*
X177240000Y-82680000D03*
X179780000Y-82680000D03*
X182320000Y-82680000D03*
X172160000Y-85220000D03*
X174700000Y-85220000D03*
X177240000Y-85220000D03*
X179780000Y-85220000D03*
X182320000Y-85220000D03*
%TD*%
%TO.C,J111*%
X172160000Y-87760000D03*
X174700000Y-87760000D03*
X177240000Y-87760000D03*
X179780000Y-87760000D03*
X182320000Y-87760000D03*
X172160000Y-90300000D03*
X174700000Y-90300000D03*
X177240000Y-90300000D03*
X179780000Y-90300000D03*
X182320000Y-90300000D03*
X172160000Y-92840000D03*
X174700000Y-92840000D03*
X177240000Y-92840000D03*
X179780000Y-92840000D03*
X182320000Y-92840000D03*
X172160000Y-95380000D03*
X174700000Y-95380000D03*
X177240000Y-95380000D03*
X179780000Y-95380000D03*
X182320000Y-95380000D03*
X172160000Y-97920000D03*
X174700000Y-97920000D03*
X177240000Y-97920000D03*
X179780000Y-97920000D03*
X182320000Y-97920000D03*
%TD*%
%TO.C,J112*%
X172160000Y-100460000D03*
X174700000Y-100460000D03*
X177240000Y-100460000D03*
X179780000Y-100460000D03*
X182320000Y-100460000D03*
X172160000Y-103000000D03*
X174700000Y-103000000D03*
X177240000Y-103000000D03*
X179780000Y-103000000D03*
X182320000Y-103000000D03*
X172160000Y-105540000D03*
X174700000Y-105540000D03*
X177240000Y-105540000D03*
X179780000Y-105540000D03*
X182320000Y-105540000D03*
X172160000Y-108080000D03*
X174700000Y-108080000D03*
X177240000Y-108080000D03*
X179780000Y-108080000D03*
X182320000Y-108080000D03*
X172160000Y-110620000D03*
X174700000Y-110620000D03*
X177240000Y-110620000D03*
X179780000Y-110620000D03*
X182320000Y-110620000D03*
%TD*%
%TO.C,J113*%
X172160000Y-113160000D03*
X174700000Y-113160000D03*
X177240000Y-113160000D03*
X179780000Y-113160000D03*
X182320000Y-113160000D03*
X172160000Y-115700000D03*
X174700000Y-115700000D03*
X177240000Y-115700000D03*
X179780000Y-115700000D03*
X182320000Y-115700000D03*
X172160000Y-118240000D03*
X174700000Y-118240000D03*
X177240000Y-118240000D03*
X179780000Y-118240000D03*
X182320000Y-118240000D03*
X172160000Y-120780000D03*
X174700000Y-120780000D03*
X177240000Y-120780000D03*
X179780000Y-120780000D03*
X182320000Y-120780000D03*
X172160000Y-123320000D03*
X174700000Y-123320000D03*
X177240000Y-123320000D03*
X179780000Y-123320000D03*
X182320000Y-123320000D03*
%TD*%
%TO.C,J114*%
X172160000Y-125860000D03*
X174700000Y-125860000D03*
X177240000Y-125860000D03*
X179780000Y-125860000D03*
X182320000Y-125860000D03*
X172160000Y-128400000D03*
X174700000Y-128400000D03*
X177240000Y-128400000D03*
X179780000Y-128400000D03*
X182320000Y-128400000D03*
X172160000Y-130940000D03*
X174700000Y-130940000D03*
X177240000Y-130940000D03*
X179780000Y-130940000D03*
X182320000Y-130940000D03*
X172160000Y-133480000D03*
X174700000Y-133480000D03*
X177240000Y-133480000D03*
X179780000Y-133480000D03*
X182320000Y-133480000D03*
X172160000Y-136020000D03*
X174700000Y-136020000D03*
X177240000Y-136020000D03*
X179780000Y-136020000D03*
X182320000Y-136020000D03*
%TD*%
%TO.C,J115*%
X172160000Y-138560000D03*
X174700000Y-138560000D03*
X177240000Y-138560000D03*
X179780000Y-138560000D03*
X182320000Y-138560000D03*
X172160000Y-141100000D03*
X174700000Y-141100000D03*
X177240000Y-141100000D03*
X179780000Y-141100000D03*
X182320000Y-141100000D03*
X172160000Y-143640000D03*
X174700000Y-143640000D03*
X177240000Y-143640000D03*
X179780000Y-143640000D03*
X182320000Y-143640000D03*
X172160000Y-146180000D03*
X174700000Y-146180000D03*
X177240000Y-146180000D03*
X179780000Y-146180000D03*
X182320000Y-146180000D03*
X172160000Y-148720000D03*
X174700000Y-148720000D03*
X177240000Y-148720000D03*
X179780000Y-148720000D03*
X182320000Y-148720000D03*
%TD*%
%TO.C,J116*%
X172160000Y-151260000D03*
X174700000Y-151260000D03*
X177240000Y-151260000D03*
X179780000Y-151260000D03*
X182320000Y-151260000D03*
X172160000Y-153800000D03*
X174700000Y-153800000D03*
X177240000Y-153800000D03*
X179780000Y-153800000D03*
X182320000Y-153800000D03*
X172160000Y-156340000D03*
X174700000Y-156340000D03*
X177240000Y-156340000D03*
X179780000Y-156340000D03*
X182320000Y-156340000D03*
X172160000Y-158880000D03*
X174700000Y-158880000D03*
X177240000Y-158880000D03*
X179780000Y-158880000D03*
X182320000Y-158880000D03*
X172160000Y-161420000D03*
X174700000Y-161420000D03*
X177240000Y-161420000D03*
X179780000Y-161420000D03*
X182320000Y-161420000D03*
%TD*%
%TO.C,J117*%
X172160000Y-163960000D03*
X174700000Y-163960000D03*
X177240000Y-163960000D03*
X179780000Y-163960000D03*
X182320000Y-163960000D03*
X172160000Y-166500000D03*
X174700000Y-166500000D03*
X177240000Y-166500000D03*
X179780000Y-166500000D03*
X182320000Y-166500000D03*
X172160000Y-169040000D03*
X174700000Y-169040000D03*
X177240000Y-169040000D03*
X179780000Y-169040000D03*
X182320000Y-169040000D03*
X172160000Y-171580000D03*
X174700000Y-171580000D03*
X177240000Y-171580000D03*
X179780000Y-171580000D03*
X182320000Y-171580000D03*
X172160000Y-174120000D03*
X174700000Y-174120000D03*
X177240000Y-174120000D03*
X179780000Y-174120000D03*
X182320000Y-174120000D03*
%TD*%
%TO.C,J118*%
X172160000Y-176660000D03*
X174700000Y-176660000D03*
X177240000Y-176660000D03*
X179780000Y-176660000D03*
X182320000Y-176660000D03*
X172160000Y-179200000D03*
X174700000Y-179200000D03*
X177240000Y-179200000D03*
X179780000Y-179200000D03*
X182320000Y-179200000D03*
X172160000Y-181740000D03*
X174700000Y-181740000D03*
X177240000Y-181740000D03*
X179780000Y-181740000D03*
X182320000Y-181740000D03*
X172160000Y-184280000D03*
X174700000Y-184280000D03*
X177240000Y-184280000D03*
X179780000Y-184280000D03*
X182320000Y-184280000D03*
X172160000Y-186820000D03*
X174700000Y-186820000D03*
X177240000Y-186820000D03*
X179780000Y-186820000D03*
X182320000Y-186820000D03*
%TD*%
%TO.C,J119*%
X172160000Y-189360000D03*
X174700000Y-189360000D03*
X177240000Y-189360000D03*
X179780000Y-189360000D03*
X182320000Y-189360000D03*
X172160000Y-191900000D03*
X174700000Y-191900000D03*
X177240000Y-191900000D03*
X179780000Y-191900000D03*
X182320000Y-191900000D03*
X172160000Y-194440000D03*
X174700000Y-194440000D03*
X177240000Y-194440000D03*
X179780000Y-194440000D03*
X182320000Y-194440000D03*
X172160000Y-196980000D03*
X174700000Y-196980000D03*
X177240000Y-196980000D03*
X179780000Y-196980000D03*
X182320000Y-196980000D03*
X172160000Y-199520000D03*
X174700000Y-199520000D03*
X177240000Y-199520000D03*
X179780000Y-199520000D03*
X182320000Y-199520000D03*
%TD*%
%TO.C,J120*%
X172160000Y-202060000D03*
X174700000Y-202060000D03*
X177240000Y-202060000D03*
X179780000Y-202060000D03*
X182320000Y-202060000D03*
X172160000Y-204600000D03*
X174700000Y-204600000D03*
X177240000Y-204600000D03*
X179780000Y-204600000D03*
X182320000Y-204600000D03*
X172160000Y-207140000D03*
X174700000Y-207140000D03*
X177240000Y-207140000D03*
X179780000Y-207140000D03*
X182320000Y-207140000D03*
X172160000Y-209680000D03*
X174700000Y-209680000D03*
X177240000Y-209680000D03*
X179780000Y-209680000D03*
X182320000Y-209680000D03*
X172160000Y-212220000D03*
X174700000Y-212220000D03*
X177240000Y-212220000D03*
X179780000Y-212220000D03*
X182320000Y-212220000D03*
%TD*%
%TO.C,J121*%
X184860000Y-75060000D03*
X187400000Y-75060000D03*
X189940000Y-75060000D03*
X192480000Y-75060000D03*
X195020000Y-75060000D03*
X184860000Y-77600000D03*
X187400000Y-77600000D03*
X189940000Y-77600000D03*
X192480000Y-77600000D03*
X195020000Y-77600000D03*
X184860000Y-80140000D03*
X187400000Y-80140000D03*
X189940000Y-80140000D03*
X192480000Y-80140000D03*
X195020000Y-80140000D03*
X184860000Y-82680000D03*
X187400000Y-82680000D03*
X189940000Y-82680000D03*
X192480000Y-82680000D03*
X195020000Y-82680000D03*
X184860000Y-85220000D03*
X187400000Y-85220000D03*
X189940000Y-85220000D03*
X192480000Y-85220000D03*
X195020000Y-85220000D03*
%TD*%
%TO.C,J122*%
X184860000Y-87760000D03*
X187400000Y-87760000D03*
X189940000Y-87760000D03*
X192480000Y-87760000D03*
X195020000Y-87760000D03*
X184860000Y-90300000D03*
X187400000Y-90300000D03*
X189940000Y-90300000D03*
X192480000Y-90300000D03*
X195020000Y-90300000D03*
X184860000Y-92840000D03*
X187400000Y-92840000D03*
X189940000Y-92840000D03*
X192480000Y-92840000D03*
X195020000Y-92840000D03*
X184860000Y-95380000D03*
X187400000Y-95380000D03*
X189940000Y-95380000D03*
X192480000Y-95380000D03*
X195020000Y-95380000D03*
X184860000Y-97920000D03*
X187400000Y-97920000D03*
X189940000Y-97920000D03*
X192480000Y-97920000D03*
X195020000Y-97920000D03*
%TD*%
%TO.C,J123*%
X184860000Y-100460000D03*
X187400000Y-100460000D03*
X189940000Y-100460000D03*
X192480000Y-100460000D03*
X195020000Y-100460000D03*
X184860000Y-103000000D03*
X187400000Y-103000000D03*
X189940000Y-103000000D03*
X192480000Y-103000000D03*
X195020000Y-103000000D03*
X184860000Y-105540000D03*
X187400000Y-105540000D03*
X189940000Y-105540000D03*
X192480000Y-105540000D03*
X195020000Y-105540000D03*
X184860000Y-108080000D03*
X187400000Y-108080000D03*
X189940000Y-108080000D03*
X192480000Y-108080000D03*
X195020000Y-108080000D03*
X184860000Y-110620000D03*
X187400000Y-110620000D03*
X189940000Y-110620000D03*
X192480000Y-110620000D03*
X195020000Y-110620000D03*
%TD*%
%TO.C,J124*%
X184860000Y-113160000D03*
X187400000Y-113160000D03*
X189940000Y-113160000D03*
X192480000Y-113160000D03*
X195020000Y-113160000D03*
X184860000Y-115700000D03*
X187400000Y-115700000D03*
X189940000Y-115700000D03*
X192480000Y-115700000D03*
X195020000Y-115700000D03*
X184860000Y-118240000D03*
X187400000Y-118240000D03*
X189940000Y-118240000D03*
X192480000Y-118240000D03*
X195020000Y-118240000D03*
X184860000Y-120780000D03*
X187400000Y-120780000D03*
X189940000Y-120780000D03*
X192480000Y-120780000D03*
X195020000Y-120780000D03*
X184860000Y-123320000D03*
X187400000Y-123320000D03*
X189940000Y-123320000D03*
X192480000Y-123320000D03*
X195020000Y-123320000D03*
%TD*%
%TO.C,J125*%
X184860000Y-125860000D03*
X187400000Y-125860000D03*
X189940000Y-125860000D03*
X192480000Y-125860000D03*
X195020000Y-125860000D03*
X184860000Y-128400000D03*
X187400000Y-128400000D03*
X189940000Y-128400000D03*
X192480000Y-128400000D03*
X195020000Y-128400000D03*
X184860000Y-130940000D03*
X187400000Y-130940000D03*
X189940000Y-130940000D03*
X192480000Y-130940000D03*
X195020000Y-130940000D03*
X184860000Y-133480000D03*
X187400000Y-133480000D03*
X189940000Y-133480000D03*
X192480000Y-133480000D03*
X195020000Y-133480000D03*
X184860000Y-136020000D03*
X187400000Y-136020000D03*
X189940000Y-136020000D03*
X192480000Y-136020000D03*
X195020000Y-136020000D03*
%TD*%
%TO.C,J126*%
X184860000Y-138560000D03*
X187400000Y-138560000D03*
X189940000Y-138560000D03*
X192480000Y-138560000D03*
X195020000Y-138560000D03*
X184860000Y-141100000D03*
X187400000Y-141100000D03*
X189940000Y-141100000D03*
X192480000Y-141100000D03*
X195020000Y-141100000D03*
X184860000Y-143640000D03*
X187400000Y-143640000D03*
X189940000Y-143640000D03*
X192480000Y-143640000D03*
X195020000Y-143640000D03*
X184860000Y-146180000D03*
X187400000Y-146180000D03*
X189940000Y-146180000D03*
X192480000Y-146180000D03*
X195020000Y-146180000D03*
X184860000Y-148720000D03*
X187400000Y-148720000D03*
X189940000Y-148720000D03*
X192480000Y-148720000D03*
X195020000Y-148720000D03*
%TD*%
%TO.C,J127*%
X184860000Y-151260000D03*
X187400000Y-151260000D03*
X189940000Y-151260000D03*
X192480000Y-151260000D03*
X195020000Y-151260000D03*
X184860000Y-153800000D03*
X187400000Y-153800000D03*
X189940000Y-153800000D03*
X192480000Y-153800000D03*
X195020000Y-153800000D03*
X184860000Y-156340000D03*
X187400000Y-156340000D03*
X189940000Y-156340000D03*
X192480000Y-156340000D03*
X195020000Y-156340000D03*
X184860000Y-158880000D03*
X187400000Y-158880000D03*
X189940000Y-158880000D03*
X192480000Y-158880000D03*
X195020000Y-158880000D03*
X184860000Y-161420000D03*
X187400000Y-161420000D03*
X189940000Y-161420000D03*
X192480000Y-161420000D03*
X195020000Y-161420000D03*
%TD*%
%TO.C,J128*%
X184860000Y-163960000D03*
X187400000Y-163960000D03*
X189940000Y-163960000D03*
X192480000Y-163960000D03*
X195020000Y-163960000D03*
X184860000Y-166500000D03*
X187400000Y-166500000D03*
X189940000Y-166500000D03*
X192480000Y-166500000D03*
X195020000Y-166500000D03*
X184860000Y-169040000D03*
X187400000Y-169040000D03*
X189940000Y-169040000D03*
X192480000Y-169040000D03*
X195020000Y-169040000D03*
X184860000Y-171580000D03*
X187400000Y-171580000D03*
X189940000Y-171580000D03*
X192480000Y-171580000D03*
X195020000Y-171580000D03*
X184860000Y-174120000D03*
X187400000Y-174120000D03*
X189940000Y-174120000D03*
X192480000Y-174120000D03*
X195020000Y-174120000D03*
%TD*%
%TO.C,J129*%
X184860000Y-176660000D03*
X187400000Y-176660000D03*
X189940000Y-176660000D03*
X192480000Y-176660000D03*
X195020000Y-176660000D03*
X184860000Y-179200000D03*
X187400000Y-179200000D03*
X189940000Y-179200000D03*
X192480000Y-179200000D03*
X195020000Y-179200000D03*
X184860000Y-181740000D03*
X187400000Y-181740000D03*
X189940000Y-181740000D03*
X192480000Y-181740000D03*
X195020000Y-181740000D03*
X184860000Y-184280000D03*
X187400000Y-184280000D03*
X189940000Y-184280000D03*
X192480000Y-184280000D03*
X195020000Y-184280000D03*
X184860000Y-186820000D03*
X187400000Y-186820000D03*
X189940000Y-186820000D03*
X192480000Y-186820000D03*
X195020000Y-186820000D03*
%TD*%
%TO.C,J130*%
X184860000Y-189360000D03*
X187400000Y-189360000D03*
X189940000Y-189360000D03*
X192480000Y-189360000D03*
X195020000Y-189360000D03*
X184860000Y-191900000D03*
X187400000Y-191900000D03*
X189940000Y-191900000D03*
X192480000Y-191900000D03*
X195020000Y-191900000D03*
X184860000Y-194440000D03*
X187400000Y-194440000D03*
X189940000Y-194440000D03*
X192480000Y-194440000D03*
X195020000Y-194440000D03*
X184860000Y-196980000D03*
X187400000Y-196980000D03*
X189940000Y-196980000D03*
X192480000Y-196980000D03*
X195020000Y-196980000D03*
X184860000Y-199520000D03*
X187400000Y-199520000D03*
X189940000Y-199520000D03*
X192480000Y-199520000D03*
X195020000Y-199520000D03*
%TD*%
%TO.C,J131*%
X184860000Y-202060000D03*
X187400000Y-202060000D03*
X189940000Y-202060000D03*
X192480000Y-202060000D03*
X195020000Y-202060000D03*
X184860000Y-204600000D03*
X187400000Y-204600000D03*
X189940000Y-204600000D03*
X192480000Y-204600000D03*
X195020000Y-204600000D03*
X184860000Y-207140000D03*
X187400000Y-207140000D03*
X189940000Y-207140000D03*
X192480000Y-207140000D03*
X195020000Y-207140000D03*
X184860000Y-209680000D03*
X187400000Y-209680000D03*
X189940000Y-209680000D03*
X192480000Y-209680000D03*
X195020000Y-209680000D03*
X184860000Y-212220000D03*
X187400000Y-212220000D03*
X189940000Y-212220000D03*
X192480000Y-212220000D03*
X195020000Y-212220000D03*
%TD*%
%TO.C,J132*%
X197560000Y-75060000D03*
X200100000Y-75060000D03*
X202640000Y-75060000D03*
X205180000Y-75060000D03*
X207720000Y-75060000D03*
X197560000Y-77600000D03*
X200100000Y-77600000D03*
X202640000Y-77600000D03*
X205180000Y-77600000D03*
X207720000Y-77600000D03*
X197560000Y-80140000D03*
X200100000Y-80140000D03*
X202640000Y-80140000D03*
X205180000Y-80140000D03*
X207720000Y-80140000D03*
X197560000Y-82680000D03*
X200100000Y-82680000D03*
X202640000Y-82680000D03*
X205180000Y-82680000D03*
X207720000Y-82680000D03*
X197560000Y-85220000D03*
X200100000Y-85220000D03*
X202640000Y-85220000D03*
X205180000Y-85220000D03*
X207720000Y-85220000D03*
%TD*%
%TO.C,J133*%
X197560000Y-87760000D03*
X200100000Y-87760000D03*
X202640000Y-87760000D03*
X205180000Y-87760000D03*
X207720000Y-87760000D03*
X197560000Y-90300000D03*
X200100000Y-90300000D03*
X202640000Y-90300000D03*
X205180000Y-90300000D03*
X207720000Y-90300000D03*
X197560000Y-92840000D03*
X200100000Y-92840000D03*
X202640000Y-92840000D03*
X205180000Y-92840000D03*
X207720000Y-92840000D03*
X197560000Y-95380000D03*
X200100000Y-95380000D03*
X202640000Y-95380000D03*
X205180000Y-95380000D03*
X207720000Y-95380000D03*
X197560000Y-97920000D03*
X200100000Y-97920000D03*
X202640000Y-97920000D03*
X205180000Y-97920000D03*
X207720000Y-97920000D03*
%TD*%
%TO.C,J134*%
X197560000Y-100460000D03*
X200100000Y-100460000D03*
X202640000Y-100460000D03*
X205180000Y-100460000D03*
X207720000Y-100460000D03*
X197560000Y-103000000D03*
X200100000Y-103000000D03*
X202640000Y-103000000D03*
X205180000Y-103000000D03*
X207720000Y-103000000D03*
X197560000Y-105540000D03*
X200100000Y-105540000D03*
X202640000Y-105540000D03*
X205180000Y-105540000D03*
X207720000Y-105540000D03*
X197560000Y-108080000D03*
X200100000Y-108080000D03*
X202640000Y-108080000D03*
X205180000Y-108080000D03*
X207720000Y-108080000D03*
X197560000Y-110620000D03*
X200100000Y-110620000D03*
X202640000Y-110620000D03*
X205180000Y-110620000D03*
X207720000Y-110620000D03*
%TD*%
%TO.C,J135*%
X197560000Y-113160000D03*
X200100000Y-113160000D03*
X202640000Y-113160000D03*
X205180000Y-113160000D03*
X207720000Y-113160000D03*
X197560000Y-115700000D03*
X200100000Y-115700000D03*
X202640000Y-115700000D03*
X205180000Y-115700000D03*
X207720000Y-115700000D03*
X197560000Y-118240000D03*
X200100000Y-118240000D03*
X202640000Y-118240000D03*
X205180000Y-118240000D03*
X207720000Y-118240000D03*
X197560000Y-120780000D03*
X200100000Y-120780000D03*
X202640000Y-120780000D03*
X205180000Y-120780000D03*
X207720000Y-120780000D03*
X197560000Y-123320000D03*
X200100000Y-123320000D03*
X202640000Y-123320000D03*
X205180000Y-123320000D03*
X207720000Y-123320000D03*
%TD*%
%TO.C,J136*%
X197560000Y-125860000D03*
X200100000Y-125860000D03*
X202640000Y-125860000D03*
X205180000Y-125860000D03*
X207720000Y-125860000D03*
X197560000Y-128400000D03*
X200100000Y-128400000D03*
X202640000Y-128400000D03*
X205180000Y-128400000D03*
X207720000Y-128400000D03*
X197560000Y-130940000D03*
X200100000Y-130940000D03*
X202640000Y-130940000D03*
X205180000Y-130940000D03*
X207720000Y-130940000D03*
X197560000Y-133480000D03*
X200100000Y-133480000D03*
X202640000Y-133480000D03*
X205180000Y-133480000D03*
X207720000Y-133480000D03*
X197560000Y-136020000D03*
X200100000Y-136020000D03*
X202640000Y-136020000D03*
X205180000Y-136020000D03*
X207720000Y-136020000D03*
%TD*%
%TO.C,J137*%
X197560000Y-138560000D03*
X200100000Y-138560000D03*
X202640000Y-138560000D03*
X205180000Y-138560000D03*
X207720000Y-138560000D03*
X197560000Y-141100000D03*
X200100000Y-141100000D03*
X202640000Y-141100000D03*
X205180000Y-141100000D03*
X207720000Y-141100000D03*
X197560000Y-143640000D03*
X200100000Y-143640000D03*
X202640000Y-143640000D03*
X205180000Y-143640000D03*
X207720000Y-143640000D03*
X197560000Y-146180000D03*
X200100000Y-146180000D03*
X202640000Y-146180000D03*
X205180000Y-146180000D03*
X207720000Y-146180000D03*
X197560000Y-148720000D03*
X200100000Y-148720000D03*
X202640000Y-148720000D03*
X205180000Y-148720000D03*
X207720000Y-148720000D03*
%TD*%
%TO.C,J138*%
X197560000Y-151260000D03*
X200100000Y-151260000D03*
X202640000Y-151260000D03*
X205180000Y-151260000D03*
X207720000Y-151260000D03*
X197560000Y-153800000D03*
X200100000Y-153800000D03*
X202640000Y-153800000D03*
X205180000Y-153800000D03*
X207720000Y-153800000D03*
X197560000Y-156340000D03*
X200100000Y-156340000D03*
X202640000Y-156340000D03*
X205180000Y-156340000D03*
X207720000Y-156340000D03*
X197560000Y-158880000D03*
X200100000Y-158880000D03*
X202640000Y-158880000D03*
X205180000Y-158880000D03*
X207720000Y-158880000D03*
X197560000Y-161420000D03*
X200100000Y-161420000D03*
X202640000Y-161420000D03*
X205180000Y-161420000D03*
X207720000Y-161420000D03*
%TD*%
%TO.C,J139*%
X197560000Y-163960000D03*
X200100000Y-163960000D03*
X202640000Y-163960000D03*
X205180000Y-163960000D03*
X207720000Y-163960000D03*
X197560000Y-166500000D03*
X200100000Y-166500000D03*
X202640000Y-166500000D03*
X205180000Y-166500000D03*
X207720000Y-166500000D03*
X197560000Y-169040000D03*
X200100000Y-169040000D03*
X202640000Y-169040000D03*
X205180000Y-169040000D03*
X207720000Y-169040000D03*
X197560000Y-171580000D03*
X200100000Y-171580000D03*
X202640000Y-171580000D03*
X205180000Y-171580000D03*
X207720000Y-171580000D03*
X197560000Y-174120000D03*
X200100000Y-174120000D03*
X202640000Y-174120000D03*
X205180000Y-174120000D03*
X207720000Y-174120000D03*
%TD*%
%TO.C,J140*%
X197560000Y-176660000D03*
X200100000Y-176660000D03*
X202640000Y-176660000D03*
X205180000Y-176660000D03*
X207720000Y-176660000D03*
X197560000Y-179200000D03*
X200100000Y-179200000D03*
X202640000Y-179200000D03*
X205180000Y-179200000D03*
X207720000Y-179200000D03*
X197560000Y-181740000D03*
X200100000Y-181740000D03*
X202640000Y-181740000D03*
X205180000Y-181740000D03*
X207720000Y-181740000D03*
X197560000Y-184280000D03*
X200100000Y-184280000D03*
X202640000Y-184280000D03*
X205180000Y-184280000D03*
X207720000Y-184280000D03*
X197560000Y-186820000D03*
X200100000Y-186820000D03*
X202640000Y-186820000D03*
X205180000Y-186820000D03*
X207720000Y-186820000D03*
%TD*%
%TO.C,J141*%
X197560000Y-189360000D03*
X200100000Y-189360000D03*
X202640000Y-189360000D03*
X205180000Y-189360000D03*
X207720000Y-189360000D03*
X197560000Y-191900000D03*
X200100000Y-191900000D03*
X202640000Y-191900000D03*
X205180000Y-191900000D03*
X207720000Y-191900000D03*
X197560000Y-194440000D03*
X200100000Y-194440000D03*
X202640000Y-194440000D03*
X205180000Y-194440000D03*
X207720000Y-194440000D03*
X197560000Y-196980000D03*
X200100000Y-196980000D03*
X202640000Y-196980000D03*
X205180000Y-196980000D03*
X207720000Y-196980000D03*
X197560000Y-199520000D03*
X200100000Y-199520000D03*
X202640000Y-199520000D03*
X205180000Y-199520000D03*
X207720000Y-199520000D03*
%TD*%
%TO.C,J142*%
X197560000Y-202060000D03*
X200100000Y-202060000D03*
X202640000Y-202060000D03*
X205180000Y-202060000D03*
X207720000Y-202060000D03*
X197560000Y-204600000D03*
X200100000Y-204600000D03*
X202640000Y-204600000D03*
X205180000Y-204600000D03*
X207720000Y-204600000D03*
X197560000Y-207140000D03*
X200100000Y-207140000D03*
X202640000Y-207140000D03*
X205180000Y-207140000D03*
X207720000Y-207140000D03*
X197560000Y-209680000D03*
X200100000Y-209680000D03*
X202640000Y-209680000D03*
X205180000Y-209680000D03*
X207720000Y-209680000D03*
X197560000Y-212220000D03*
X200100000Y-212220000D03*
X202640000Y-212220000D03*
X205180000Y-212220000D03*
X207720000Y-212220000D03*
%TD*%
%TO.C,J143*%
X210260000Y-75060000D03*
X212800000Y-75060000D03*
X215340000Y-75060000D03*
X217880000Y-75060000D03*
X220420000Y-75060000D03*
X210260000Y-77600000D03*
X212800000Y-77600000D03*
X215340000Y-77600000D03*
X217880000Y-77600000D03*
X220420000Y-77600000D03*
X210260000Y-80140000D03*
X212800000Y-80140000D03*
X215340000Y-80140000D03*
X217880000Y-80140000D03*
X220420000Y-80140000D03*
X210260000Y-82680000D03*
X212800000Y-82680000D03*
X215340000Y-82680000D03*
X217880000Y-82680000D03*
X220420000Y-82680000D03*
X210260000Y-85220000D03*
X212800000Y-85220000D03*
X215340000Y-85220000D03*
X217880000Y-85220000D03*
X220420000Y-85220000D03*
%TD*%
%TO.C,J144*%
X210260000Y-87760000D03*
X212800000Y-87760000D03*
X215340000Y-87760000D03*
X217880000Y-87760000D03*
X220420000Y-87760000D03*
X210260000Y-90300000D03*
X212800000Y-90300000D03*
X215340000Y-90300000D03*
X217880000Y-90300000D03*
X220420000Y-90300000D03*
X210260000Y-92840000D03*
X212800000Y-92840000D03*
X215340000Y-92840000D03*
X217880000Y-92840000D03*
X220420000Y-92840000D03*
X210260000Y-95380000D03*
X212800000Y-95380000D03*
X215340000Y-95380000D03*
X217880000Y-95380000D03*
X220420000Y-95380000D03*
X210260000Y-97920000D03*
X212800000Y-97920000D03*
X215340000Y-97920000D03*
X217880000Y-97920000D03*
X220420000Y-97920000D03*
%TD*%
%TO.C,J145*%
X210260000Y-100460000D03*
X212800000Y-100460000D03*
X215340000Y-100460000D03*
X217880000Y-100460000D03*
X220420000Y-100460000D03*
X210260000Y-103000000D03*
X212800000Y-103000000D03*
X215340000Y-103000000D03*
X217880000Y-103000000D03*
X220420000Y-103000000D03*
X210260000Y-105540000D03*
X212800000Y-105540000D03*
X215340000Y-105540000D03*
X217880000Y-105540000D03*
X220420000Y-105540000D03*
X210260000Y-108080000D03*
X212800000Y-108080000D03*
X215340000Y-108080000D03*
X217880000Y-108080000D03*
X220420000Y-108080000D03*
X210260000Y-110620000D03*
X212800000Y-110620000D03*
X215340000Y-110620000D03*
X217880000Y-110620000D03*
X220420000Y-110620000D03*
%TD*%
%TO.C,J146*%
X210260000Y-113160000D03*
X212800000Y-113160000D03*
X215340000Y-113160000D03*
X217880000Y-113160000D03*
X220420000Y-113160000D03*
X210260000Y-115700000D03*
X212800000Y-115700000D03*
X215340000Y-115700000D03*
X217880000Y-115700000D03*
X220420000Y-115700000D03*
X210260000Y-118240000D03*
X212800000Y-118240000D03*
X215340000Y-118240000D03*
X217880000Y-118240000D03*
X220420000Y-118240000D03*
X210260000Y-120780000D03*
X212800000Y-120780000D03*
X215340000Y-120780000D03*
X217880000Y-120780000D03*
X220420000Y-120780000D03*
X210260000Y-123320000D03*
X212800000Y-123320000D03*
X215340000Y-123320000D03*
X217880000Y-123320000D03*
X220420000Y-123320000D03*
%TD*%
%TO.C,J147*%
X210260000Y-125860000D03*
X212800000Y-125860000D03*
X215340000Y-125860000D03*
X217880000Y-125860000D03*
X220420000Y-125860000D03*
X210260000Y-128400000D03*
X212800000Y-128400000D03*
X215340000Y-128400000D03*
X217880000Y-128400000D03*
X220420000Y-128400000D03*
X210260000Y-130940000D03*
X212800000Y-130940000D03*
X215340000Y-130940000D03*
X217880000Y-130940000D03*
X220420000Y-130940000D03*
X210260000Y-133480000D03*
X212800000Y-133480000D03*
X215340000Y-133480000D03*
X217880000Y-133480000D03*
X220420000Y-133480000D03*
X210260000Y-136020000D03*
X212800000Y-136020000D03*
X215340000Y-136020000D03*
X217880000Y-136020000D03*
X220420000Y-136020000D03*
%TD*%
%TO.C,J148*%
X210260000Y-138560000D03*
X212800000Y-138560000D03*
X215340000Y-138560000D03*
X217880000Y-138560000D03*
X220420000Y-138560000D03*
X210260000Y-141100000D03*
X212800000Y-141100000D03*
X215340000Y-141100000D03*
X217880000Y-141100000D03*
X220420000Y-141100000D03*
X210260000Y-143640000D03*
X212800000Y-143640000D03*
X215340000Y-143640000D03*
X217880000Y-143640000D03*
X220420000Y-143640000D03*
X210260000Y-146180000D03*
X212800000Y-146180000D03*
X215340000Y-146180000D03*
X217880000Y-146180000D03*
X220420000Y-146180000D03*
X210260000Y-148720000D03*
X212800000Y-148720000D03*
X215340000Y-148720000D03*
X217880000Y-148720000D03*
X220420000Y-148720000D03*
%TD*%
%TO.C,J149*%
X210260000Y-151260000D03*
X212800000Y-151260000D03*
X215340000Y-151260000D03*
X217880000Y-151260000D03*
X220420000Y-151260000D03*
X210260000Y-153800000D03*
X212800000Y-153800000D03*
X215340000Y-153800000D03*
X217880000Y-153800000D03*
X220420000Y-153800000D03*
X210260000Y-156340000D03*
X212800000Y-156340000D03*
X215340000Y-156340000D03*
X217880000Y-156340000D03*
X220420000Y-156340000D03*
X210260000Y-158880000D03*
X212800000Y-158880000D03*
X215340000Y-158880000D03*
X217880000Y-158880000D03*
X220420000Y-158880000D03*
X210260000Y-161420000D03*
X212800000Y-161420000D03*
X215340000Y-161420000D03*
X217880000Y-161420000D03*
X220420000Y-161420000D03*
%TD*%
%TO.C,J150*%
X210260000Y-163960000D03*
X212800000Y-163960000D03*
X215340000Y-163960000D03*
X217880000Y-163960000D03*
X220420000Y-163960000D03*
X210260000Y-166500000D03*
X212800000Y-166500000D03*
X215340000Y-166500000D03*
X217880000Y-166500000D03*
X220420000Y-166500000D03*
X210260000Y-169040000D03*
X212800000Y-169040000D03*
X215340000Y-169040000D03*
X217880000Y-169040000D03*
X220420000Y-169040000D03*
X210260000Y-171580000D03*
X212800000Y-171580000D03*
X215340000Y-171580000D03*
X217880000Y-171580000D03*
X220420000Y-171580000D03*
X210260000Y-174120000D03*
X212800000Y-174120000D03*
X215340000Y-174120000D03*
X217880000Y-174120000D03*
X220420000Y-174120000D03*
%TD*%
%TO.C,J151*%
X210260000Y-176660000D03*
X212800000Y-176660000D03*
X215340000Y-176660000D03*
X217880000Y-176660000D03*
X220420000Y-176660000D03*
X210260000Y-179200000D03*
X212800000Y-179200000D03*
X215340000Y-179200000D03*
X217880000Y-179200000D03*
X220420000Y-179200000D03*
X210260000Y-181740000D03*
X212800000Y-181740000D03*
X215340000Y-181740000D03*
X217880000Y-181740000D03*
X220420000Y-181740000D03*
X210260000Y-184280000D03*
X212800000Y-184280000D03*
X215340000Y-184280000D03*
X217880000Y-184280000D03*
X220420000Y-184280000D03*
X210260000Y-186820000D03*
X212800000Y-186820000D03*
X215340000Y-186820000D03*
X217880000Y-186820000D03*
X220420000Y-186820000D03*
%TD*%
%TO.C,J152*%
X210260000Y-189360000D03*
X212800000Y-189360000D03*
X215340000Y-189360000D03*
X217880000Y-189360000D03*
X220420000Y-189360000D03*
X210260000Y-191900000D03*
X212800000Y-191900000D03*
X215340000Y-191900000D03*
X217880000Y-191900000D03*
X220420000Y-191900000D03*
X210260000Y-194440000D03*
X212800000Y-194440000D03*
X215340000Y-194440000D03*
X217880000Y-194440000D03*
X220420000Y-194440000D03*
X210260000Y-196980000D03*
X212800000Y-196980000D03*
X215340000Y-196980000D03*
X217880000Y-196980000D03*
X220420000Y-196980000D03*
X210260000Y-199520000D03*
X212800000Y-199520000D03*
X215340000Y-199520000D03*
X217880000Y-199520000D03*
X220420000Y-199520000D03*
%TD*%
%TO.C,J153*%
X210260000Y-202060000D03*
X212800000Y-202060000D03*
X215340000Y-202060000D03*
X217880000Y-202060000D03*
X220420000Y-202060000D03*
X210260000Y-204600000D03*
X212800000Y-204600000D03*
X215340000Y-204600000D03*
X217880000Y-204600000D03*
X220420000Y-204600000D03*
X210260000Y-207140000D03*
X212800000Y-207140000D03*
X215340000Y-207140000D03*
X217880000Y-207140000D03*
X220420000Y-207140000D03*
X210260000Y-209680000D03*
X212800000Y-209680000D03*
X215340000Y-209680000D03*
X217880000Y-209680000D03*
X220420000Y-209680000D03*
X210260000Y-212220000D03*
X212800000Y-212220000D03*
X215340000Y-212220000D03*
X217880000Y-212220000D03*
X220420000Y-212220000D03*
%TD*%
%TO.C,J154*%
X222960000Y-75060000D03*
X225500000Y-75060000D03*
X228040000Y-75060000D03*
X230580000Y-75060000D03*
X233120000Y-75060000D03*
X222960000Y-77600000D03*
X225500000Y-77600000D03*
X228040000Y-77600000D03*
X230580000Y-77600000D03*
X233120000Y-77600000D03*
X222960000Y-80140000D03*
X225500000Y-80140000D03*
X228040000Y-80140000D03*
X230580000Y-80140000D03*
X233120000Y-80140000D03*
X222960000Y-82680000D03*
X225500000Y-82680000D03*
X228040000Y-82680000D03*
X230580000Y-82680000D03*
X233120000Y-82680000D03*
X222960000Y-85220000D03*
X225500000Y-85220000D03*
X228040000Y-85220000D03*
X230580000Y-85220000D03*
X233120000Y-85220000D03*
%TD*%
%TO.C,J155*%
X222960000Y-87760000D03*
X225500000Y-87760000D03*
X228040000Y-87760000D03*
X230580000Y-87760000D03*
X233120000Y-87760000D03*
X222960000Y-90300000D03*
X225500000Y-90300000D03*
X228040000Y-90300000D03*
X230580000Y-90300000D03*
X233120000Y-90300000D03*
X222960000Y-92840000D03*
X225500000Y-92840000D03*
X228040000Y-92840000D03*
X230580000Y-92840000D03*
X233120000Y-92840000D03*
X222960000Y-95380000D03*
X225500000Y-95380000D03*
X228040000Y-95380000D03*
X230580000Y-95380000D03*
X233120000Y-95380000D03*
X222960000Y-97920000D03*
X225500000Y-97920000D03*
X228040000Y-97920000D03*
X230580000Y-97920000D03*
X233120000Y-97920000D03*
%TD*%
%TO.C,J156*%
X222960000Y-100460000D03*
X225500000Y-100460000D03*
X228040000Y-100460000D03*
X230580000Y-100460000D03*
X233120000Y-100460000D03*
X222960000Y-103000000D03*
X225500000Y-103000000D03*
X228040000Y-103000000D03*
X230580000Y-103000000D03*
X233120000Y-103000000D03*
X222960000Y-105540000D03*
X225500000Y-105540000D03*
X228040000Y-105540000D03*
X230580000Y-105540000D03*
X233120000Y-105540000D03*
X222960000Y-108080000D03*
X225500000Y-108080000D03*
X228040000Y-108080000D03*
X230580000Y-108080000D03*
X233120000Y-108080000D03*
X222960000Y-110620000D03*
X225500000Y-110620000D03*
X228040000Y-110620000D03*
X230580000Y-110620000D03*
X233120000Y-110620000D03*
%TD*%
%TO.C,J157*%
X222960000Y-113160000D03*
X225500000Y-113160000D03*
X228040000Y-113160000D03*
X230580000Y-113160000D03*
X233120000Y-113160000D03*
X222960000Y-115700000D03*
X225500000Y-115700000D03*
X228040000Y-115700000D03*
X230580000Y-115700000D03*
X233120000Y-115700000D03*
X222960000Y-118240000D03*
X225500000Y-118240000D03*
X228040000Y-118240000D03*
X230580000Y-118240000D03*
X233120000Y-118240000D03*
X222960000Y-120780000D03*
X225500000Y-120780000D03*
X228040000Y-120780000D03*
X230580000Y-120780000D03*
X233120000Y-120780000D03*
X222960000Y-123320000D03*
X225500000Y-123320000D03*
X228040000Y-123320000D03*
X230580000Y-123320000D03*
X233120000Y-123320000D03*
%TD*%
%TO.C,J158*%
X222960000Y-125860000D03*
X225500000Y-125860000D03*
X228040000Y-125860000D03*
X230580000Y-125860000D03*
X233120000Y-125860000D03*
X222960000Y-128400000D03*
X225500000Y-128400000D03*
X228040000Y-128400000D03*
X230580000Y-128400000D03*
X233120000Y-128400000D03*
X222960000Y-130940000D03*
X225500000Y-130940000D03*
X228040000Y-130940000D03*
X230580000Y-130940000D03*
X233120000Y-130940000D03*
X222960000Y-133480000D03*
X225500000Y-133480000D03*
X228040000Y-133480000D03*
X230580000Y-133480000D03*
X233120000Y-133480000D03*
X222960000Y-136020000D03*
X225500000Y-136020000D03*
X228040000Y-136020000D03*
X230580000Y-136020000D03*
X233120000Y-136020000D03*
%TD*%
%TO.C,J159*%
X222960000Y-138560000D03*
X225500000Y-138560000D03*
X228040000Y-138560000D03*
X230580000Y-138560000D03*
X233120000Y-138560000D03*
X222960000Y-141100000D03*
X225500000Y-141100000D03*
X228040000Y-141100000D03*
X230580000Y-141100000D03*
X233120000Y-141100000D03*
X222960000Y-143640000D03*
X225500000Y-143640000D03*
X228040000Y-143640000D03*
X230580000Y-143640000D03*
X233120000Y-143640000D03*
X222960000Y-146180000D03*
X225500000Y-146180000D03*
X228040000Y-146180000D03*
X230580000Y-146180000D03*
X233120000Y-146180000D03*
X222960000Y-148720000D03*
X225500000Y-148720000D03*
X228040000Y-148720000D03*
X230580000Y-148720000D03*
X233120000Y-148720000D03*
%TD*%
%TO.C,J160*%
X222960000Y-151260000D03*
X225500000Y-151260000D03*
X228040000Y-151260000D03*
X230580000Y-151260000D03*
X233120000Y-151260000D03*
X222960000Y-153800000D03*
X225500000Y-153800000D03*
X228040000Y-153800000D03*
X230580000Y-153800000D03*
X233120000Y-153800000D03*
X222960000Y-156340000D03*
X225500000Y-156340000D03*
X228040000Y-156340000D03*
X230580000Y-156340000D03*
X233120000Y-156340000D03*
X222960000Y-158880000D03*
X225500000Y-158880000D03*
X228040000Y-158880000D03*
X230580000Y-158880000D03*
X233120000Y-158880000D03*
X222960000Y-161420000D03*
X225500000Y-161420000D03*
X228040000Y-161420000D03*
X230580000Y-161420000D03*
X233120000Y-161420000D03*
%TD*%
%TO.C,J161*%
X222960000Y-163960000D03*
X225500000Y-163960000D03*
X228040000Y-163960000D03*
X230580000Y-163960000D03*
X233120000Y-163960000D03*
X222960000Y-166500000D03*
X225500000Y-166500000D03*
X228040000Y-166500000D03*
X230580000Y-166500000D03*
X233120000Y-166500000D03*
X222960000Y-169040000D03*
X225500000Y-169040000D03*
X228040000Y-169040000D03*
X230580000Y-169040000D03*
X233120000Y-169040000D03*
X222960000Y-171580000D03*
X225500000Y-171580000D03*
X228040000Y-171580000D03*
X230580000Y-171580000D03*
X233120000Y-171580000D03*
X222960000Y-174120000D03*
X225500000Y-174120000D03*
X228040000Y-174120000D03*
X230580000Y-174120000D03*
X233120000Y-174120000D03*
%TD*%
%TO.C,J162*%
X222960000Y-176660000D03*
X225500000Y-176660000D03*
X228040000Y-176660000D03*
X230580000Y-176660000D03*
X233120000Y-176660000D03*
X222960000Y-179200000D03*
X225500000Y-179200000D03*
X228040000Y-179200000D03*
X230580000Y-179200000D03*
X233120000Y-179200000D03*
X222960000Y-181740000D03*
X225500000Y-181740000D03*
X228040000Y-181740000D03*
X230580000Y-181740000D03*
X233120000Y-181740000D03*
X222960000Y-184280000D03*
X225500000Y-184280000D03*
X228040000Y-184280000D03*
X230580000Y-184280000D03*
X233120000Y-184280000D03*
X222960000Y-186820000D03*
X225500000Y-186820000D03*
X228040000Y-186820000D03*
X230580000Y-186820000D03*
X233120000Y-186820000D03*
%TD*%
%TO.C,J163*%
X222960000Y-189360000D03*
X225500000Y-189360000D03*
X228040000Y-189360000D03*
X230580000Y-189360000D03*
X233120000Y-189360000D03*
X222960000Y-191900000D03*
X225500000Y-191900000D03*
X228040000Y-191900000D03*
X230580000Y-191900000D03*
X233120000Y-191900000D03*
X222960000Y-194440000D03*
X225500000Y-194440000D03*
X228040000Y-194440000D03*
X230580000Y-194440000D03*
X233120000Y-194440000D03*
X222960000Y-196980000D03*
X225500000Y-196980000D03*
X228040000Y-196980000D03*
X230580000Y-196980000D03*
X233120000Y-196980000D03*
X222960000Y-199520000D03*
X225500000Y-199520000D03*
X228040000Y-199520000D03*
X230580000Y-199520000D03*
X233120000Y-199520000D03*
%TD*%
%TO.C,J164*%
X222960000Y-202060000D03*
X225500000Y-202060000D03*
X228040000Y-202060000D03*
X230580000Y-202060000D03*
X233120000Y-202060000D03*
X222960000Y-204600000D03*
X225500000Y-204600000D03*
X228040000Y-204600000D03*
X230580000Y-204600000D03*
X233120000Y-204600000D03*
X222960000Y-207140000D03*
X225500000Y-207140000D03*
X228040000Y-207140000D03*
X230580000Y-207140000D03*
X233120000Y-207140000D03*
X222960000Y-209680000D03*
X225500000Y-209680000D03*
X228040000Y-209680000D03*
X230580000Y-209680000D03*
X233120000Y-209680000D03*
X222960000Y-212220000D03*
X225500000Y-212220000D03*
X228040000Y-212220000D03*
X230580000Y-212220000D03*
X233120000Y-212220000D03*
%TD*%
%TO.C,J165*%
X235660000Y-75060000D03*
X238200000Y-75060000D03*
X240740000Y-75060000D03*
X243280000Y-75060000D03*
X245820000Y-75060000D03*
X235660000Y-77600000D03*
X238200000Y-77600000D03*
X240740000Y-77600000D03*
X243280000Y-77600000D03*
X245820000Y-77600000D03*
X235660000Y-80140000D03*
X238200000Y-80140000D03*
X240740000Y-80140000D03*
X243280000Y-80140000D03*
X245820000Y-80140000D03*
X235660000Y-82680000D03*
X238200000Y-82680000D03*
X240740000Y-82680000D03*
X243280000Y-82680000D03*
X245820000Y-82680000D03*
X235660000Y-85220000D03*
X238200000Y-85220000D03*
X240740000Y-85220000D03*
X243280000Y-85220000D03*
X245820000Y-85220000D03*
%TD*%
%TO.C,J166*%
X235660000Y-87760000D03*
X238200000Y-87760000D03*
X240740000Y-87760000D03*
X243280000Y-87760000D03*
X245820000Y-87760000D03*
X235660000Y-90300000D03*
X238200000Y-90300000D03*
X240740000Y-90300000D03*
X243280000Y-90300000D03*
X245820000Y-90300000D03*
X235660000Y-92840000D03*
X238200000Y-92840000D03*
X240740000Y-92840000D03*
X243280000Y-92840000D03*
X245820000Y-92840000D03*
X235660000Y-95380000D03*
X238200000Y-95380000D03*
X240740000Y-95380000D03*
X243280000Y-95380000D03*
X245820000Y-95380000D03*
X235660000Y-97920000D03*
X238200000Y-97920000D03*
X240740000Y-97920000D03*
X243280000Y-97920000D03*
X245820000Y-97920000D03*
%TD*%
%TO.C,J167*%
X235660000Y-100460000D03*
X238200000Y-100460000D03*
X240740000Y-100460000D03*
X243280000Y-100460000D03*
X245820000Y-100460000D03*
X235660000Y-103000000D03*
X238200000Y-103000000D03*
X240740000Y-103000000D03*
X243280000Y-103000000D03*
X245820000Y-103000000D03*
X235660000Y-105540000D03*
X238200000Y-105540000D03*
X240740000Y-105540000D03*
X243280000Y-105540000D03*
X245820000Y-105540000D03*
X235660000Y-108080000D03*
X238200000Y-108080000D03*
X240740000Y-108080000D03*
X243280000Y-108080000D03*
X245820000Y-108080000D03*
X235660000Y-110620000D03*
X238200000Y-110620000D03*
X240740000Y-110620000D03*
X243280000Y-110620000D03*
X245820000Y-110620000D03*
%TD*%
%TO.C,J168*%
X235660000Y-113160000D03*
X238200000Y-113160000D03*
X240740000Y-113160000D03*
X243280000Y-113160000D03*
X245820000Y-113160000D03*
X235660000Y-115700000D03*
X238200000Y-115700000D03*
X240740000Y-115700000D03*
X243280000Y-115700000D03*
X245820000Y-115700000D03*
X235660000Y-118240000D03*
X238200000Y-118240000D03*
X240740000Y-118240000D03*
X243280000Y-118240000D03*
X245820000Y-118240000D03*
X235660000Y-120780000D03*
X238200000Y-120780000D03*
X240740000Y-120780000D03*
X243280000Y-120780000D03*
X245820000Y-120780000D03*
X235660000Y-123320000D03*
X238200000Y-123320000D03*
X240740000Y-123320000D03*
X243280000Y-123320000D03*
X245820000Y-123320000D03*
%TD*%
%TO.C,J169*%
X235660000Y-125860000D03*
X238200000Y-125860000D03*
X240740000Y-125860000D03*
X243280000Y-125860000D03*
X245820000Y-125860000D03*
X235660000Y-128400000D03*
X238200000Y-128400000D03*
X240740000Y-128400000D03*
X243280000Y-128400000D03*
X245820000Y-128400000D03*
X235660000Y-130940000D03*
X238200000Y-130940000D03*
X240740000Y-130940000D03*
X243280000Y-130940000D03*
X245820000Y-130940000D03*
X235660000Y-133480000D03*
X238200000Y-133480000D03*
X240740000Y-133480000D03*
X243280000Y-133480000D03*
X245820000Y-133480000D03*
X235660000Y-136020000D03*
X238200000Y-136020000D03*
X240740000Y-136020000D03*
X243280000Y-136020000D03*
X245820000Y-136020000D03*
%TD*%
%TO.C,J170*%
X235660000Y-138560000D03*
X238200000Y-138560000D03*
X240740000Y-138560000D03*
X243280000Y-138560000D03*
X245820000Y-138560000D03*
X235660000Y-141100000D03*
X238200000Y-141100000D03*
X240740000Y-141100000D03*
X243280000Y-141100000D03*
X245820000Y-141100000D03*
X235660000Y-143640000D03*
X238200000Y-143640000D03*
X240740000Y-143640000D03*
X243280000Y-143640000D03*
X245820000Y-143640000D03*
X235660000Y-146180000D03*
X238200000Y-146180000D03*
X240740000Y-146180000D03*
X243280000Y-146180000D03*
X245820000Y-146180000D03*
X235660000Y-148720000D03*
X238200000Y-148720000D03*
X240740000Y-148720000D03*
X243280000Y-148720000D03*
X245820000Y-148720000D03*
%TD*%
%TO.C,J171*%
X235660000Y-151260000D03*
X238200000Y-151260000D03*
X240740000Y-151260000D03*
X243280000Y-151260000D03*
X245820000Y-151260000D03*
X235660000Y-153800000D03*
X238200000Y-153800000D03*
X240740000Y-153800000D03*
X243280000Y-153800000D03*
X245820000Y-153800000D03*
X235660000Y-156340000D03*
X238200000Y-156340000D03*
X240740000Y-156340000D03*
X243280000Y-156340000D03*
X245820000Y-156340000D03*
X235660000Y-158880000D03*
X238200000Y-158880000D03*
X240740000Y-158880000D03*
X243280000Y-158880000D03*
X245820000Y-158880000D03*
X235660000Y-161420000D03*
X238200000Y-161420000D03*
X240740000Y-161420000D03*
X243280000Y-161420000D03*
X245820000Y-161420000D03*
%TD*%
%TO.C,J172*%
X235660000Y-163960000D03*
X238200000Y-163960000D03*
X240740000Y-163960000D03*
X243280000Y-163960000D03*
X245820000Y-163960000D03*
X235660000Y-166500000D03*
X238200000Y-166500000D03*
X240740000Y-166500000D03*
X243280000Y-166500000D03*
X245820000Y-166500000D03*
X235660000Y-169040000D03*
X238200000Y-169040000D03*
X240740000Y-169040000D03*
X243280000Y-169040000D03*
X245820000Y-169040000D03*
X235660000Y-171580000D03*
X238200000Y-171580000D03*
X240740000Y-171580000D03*
X243280000Y-171580000D03*
X245820000Y-171580000D03*
X235660000Y-174120000D03*
X238200000Y-174120000D03*
X240740000Y-174120000D03*
X243280000Y-174120000D03*
X245820000Y-174120000D03*
%TD*%
%TO.C,J173*%
X235660000Y-176660000D03*
X238200000Y-176660000D03*
X240740000Y-176660000D03*
X243280000Y-176660000D03*
X245820000Y-176660000D03*
X235660000Y-179200000D03*
X238200000Y-179200000D03*
X240740000Y-179200000D03*
X243280000Y-179200000D03*
X245820000Y-179200000D03*
X235660000Y-181740000D03*
X238200000Y-181740000D03*
X240740000Y-181740000D03*
X243280000Y-181740000D03*
X245820000Y-181740000D03*
X235660000Y-184280000D03*
X238200000Y-184280000D03*
X240740000Y-184280000D03*
X243280000Y-184280000D03*
X245820000Y-184280000D03*
X235660000Y-186820000D03*
X238200000Y-186820000D03*
X240740000Y-186820000D03*
X243280000Y-186820000D03*
X245820000Y-186820000D03*
%TD*%
%TO.C,J174*%
X235660000Y-189360000D03*
X238200000Y-189360000D03*
X240740000Y-189360000D03*
X243280000Y-189360000D03*
X245820000Y-189360000D03*
X235660000Y-191900000D03*
X238200000Y-191900000D03*
X240740000Y-191900000D03*
X243280000Y-191900000D03*
X245820000Y-191900000D03*
X235660000Y-194440000D03*
X238200000Y-194440000D03*
X240740000Y-194440000D03*
X243280000Y-194440000D03*
X245820000Y-194440000D03*
X235660000Y-196980000D03*
X238200000Y-196980000D03*
X240740000Y-196980000D03*
X243280000Y-196980000D03*
X245820000Y-196980000D03*
X235660000Y-199520000D03*
X238200000Y-199520000D03*
X240740000Y-199520000D03*
X243280000Y-199520000D03*
X245820000Y-199520000D03*
%TD*%
%TO.C,J175*%
X235660000Y-202060000D03*
X238200000Y-202060000D03*
X240740000Y-202060000D03*
X243280000Y-202060000D03*
X245820000Y-202060000D03*
X235660000Y-204600000D03*
X238200000Y-204600000D03*
X240740000Y-204600000D03*
X243280000Y-204600000D03*
X245820000Y-204600000D03*
X235660000Y-207140000D03*
X238200000Y-207140000D03*
X240740000Y-207140000D03*
X243280000Y-207140000D03*
X245820000Y-207140000D03*
X235660000Y-209680000D03*
X238200000Y-209680000D03*
X240740000Y-209680000D03*
X243280000Y-209680000D03*
X245820000Y-209680000D03*
X235660000Y-212220000D03*
X238200000Y-212220000D03*
X240740000Y-212220000D03*
X243280000Y-212220000D03*
X245820000Y-212220000D03*
%TD*%
%TO.C,J176*%
X248360000Y-75060000D03*
X250900000Y-75060000D03*
X253440000Y-75060000D03*
X255980000Y-75060000D03*
X258520000Y-75060000D03*
X248360000Y-77600000D03*
X250900000Y-77600000D03*
X253440000Y-77600000D03*
X255980000Y-77600000D03*
X258520000Y-77600000D03*
X248360000Y-80140000D03*
X250900000Y-80140000D03*
X253440000Y-80140000D03*
X255980000Y-80140000D03*
X258520000Y-80140000D03*
X248360000Y-82680000D03*
X250900000Y-82680000D03*
X253440000Y-82680000D03*
X255980000Y-82680000D03*
X258520000Y-82680000D03*
X248360000Y-85220000D03*
X250900000Y-85220000D03*
X253440000Y-85220000D03*
X255980000Y-85220000D03*
X258520000Y-85220000D03*
%TD*%
%TO.C,J177*%
X248360000Y-87760000D03*
X250900000Y-87760000D03*
X253440000Y-87760000D03*
X255980000Y-87760000D03*
X258520000Y-87760000D03*
X248360000Y-90300000D03*
X250900000Y-90300000D03*
X253440000Y-90300000D03*
X255980000Y-90300000D03*
X258520000Y-90300000D03*
X248360000Y-92840000D03*
X250900000Y-92840000D03*
X253440000Y-92840000D03*
X255980000Y-92840000D03*
X258520000Y-92840000D03*
X248360000Y-95380000D03*
X250900000Y-95380000D03*
X253440000Y-95380000D03*
X255980000Y-95380000D03*
X258520000Y-95380000D03*
X248360000Y-97920000D03*
X250900000Y-97920000D03*
X253440000Y-97920000D03*
X255980000Y-97920000D03*
X258520000Y-97920000D03*
%TD*%
%TO.C,J178*%
X248360000Y-100460000D03*
X250900000Y-100460000D03*
X253440000Y-100460000D03*
X255980000Y-100460000D03*
X258520000Y-100460000D03*
X248360000Y-103000000D03*
X250900000Y-103000000D03*
X253440000Y-103000000D03*
X255980000Y-103000000D03*
X258520000Y-103000000D03*
X248360000Y-105540000D03*
X250900000Y-105540000D03*
X253440000Y-105540000D03*
X255980000Y-105540000D03*
X258520000Y-105540000D03*
X248360000Y-108080000D03*
X250900000Y-108080000D03*
X253440000Y-108080000D03*
X255980000Y-108080000D03*
X258520000Y-108080000D03*
X248360000Y-110620000D03*
X250900000Y-110620000D03*
X253440000Y-110620000D03*
X255980000Y-110620000D03*
X258520000Y-110620000D03*
%TD*%
%TO.C,J179*%
X248360000Y-113160000D03*
X250900000Y-113160000D03*
X253440000Y-113160000D03*
X255980000Y-113160000D03*
X258520000Y-113160000D03*
X248360000Y-115700000D03*
X250900000Y-115700000D03*
X253440000Y-115700000D03*
X255980000Y-115700000D03*
X258520000Y-115700000D03*
X248360000Y-118240000D03*
X250900000Y-118240000D03*
X253440000Y-118240000D03*
X255980000Y-118240000D03*
X258520000Y-118240000D03*
X248360000Y-120780000D03*
X250900000Y-120780000D03*
X253440000Y-120780000D03*
X255980000Y-120780000D03*
X258520000Y-120780000D03*
X248360000Y-123320000D03*
X250900000Y-123320000D03*
X253440000Y-123320000D03*
X255980000Y-123320000D03*
X258520000Y-123320000D03*
%TD*%
%TO.C,J180*%
X248360000Y-125860000D03*
X250900000Y-125860000D03*
X253440000Y-125860000D03*
X255980000Y-125860000D03*
X258520000Y-125860000D03*
X248360000Y-128400000D03*
X250900000Y-128400000D03*
X253440000Y-128400000D03*
X255980000Y-128400000D03*
X258520000Y-128400000D03*
X248360000Y-130940000D03*
X250900000Y-130940000D03*
X253440000Y-130940000D03*
X255980000Y-130940000D03*
X258520000Y-130940000D03*
X248360000Y-133480000D03*
X250900000Y-133480000D03*
X253440000Y-133480000D03*
X255980000Y-133480000D03*
X258520000Y-133480000D03*
X248360000Y-136020000D03*
X250900000Y-136020000D03*
X253440000Y-136020000D03*
X255980000Y-136020000D03*
X258520000Y-136020000D03*
%TD*%
%TO.C,J181*%
X248360000Y-138560000D03*
X250900000Y-138560000D03*
X253440000Y-138560000D03*
X255980000Y-138560000D03*
X258520000Y-138560000D03*
X248360000Y-141100000D03*
X250900000Y-141100000D03*
X253440000Y-141100000D03*
X255980000Y-141100000D03*
X258520000Y-141100000D03*
X248360000Y-143640000D03*
X250900000Y-143640000D03*
X253440000Y-143640000D03*
X255980000Y-143640000D03*
X258520000Y-143640000D03*
X248360000Y-146180000D03*
X250900000Y-146180000D03*
X253440000Y-146180000D03*
X255980000Y-146180000D03*
X258520000Y-146180000D03*
X248360000Y-148720000D03*
X250900000Y-148720000D03*
X253440000Y-148720000D03*
X255980000Y-148720000D03*
X258520000Y-148720000D03*
%TD*%
%TO.C,J182*%
X248360000Y-151260000D03*
X250900000Y-151260000D03*
X253440000Y-151260000D03*
X255980000Y-151260000D03*
X258520000Y-151260000D03*
X248360000Y-153800000D03*
X250900000Y-153800000D03*
X253440000Y-153800000D03*
X255980000Y-153800000D03*
X258520000Y-153800000D03*
X248360000Y-156340000D03*
X250900000Y-156340000D03*
X253440000Y-156340000D03*
X255980000Y-156340000D03*
X258520000Y-156340000D03*
X248360000Y-158880000D03*
X250900000Y-158880000D03*
X253440000Y-158880000D03*
X255980000Y-158880000D03*
X258520000Y-158880000D03*
X248360000Y-161420000D03*
X250900000Y-161420000D03*
X253440000Y-161420000D03*
X255980000Y-161420000D03*
X258520000Y-161420000D03*
%TD*%
%TO.C,J183*%
X248360000Y-163960000D03*
X250900000Y-163960000D03*
X253440000Y-163960000D03*
X255980000Y-163960000D03*
X258520000Y-163960000D03*
X248360000Y-166500000D03*
X250900000Y-166500000D03*
X253440000Y-166500000D03*
X255980000Y-166500000D03*
X258520000Y-166500000D03*
X248360000Y-169040000D03*
X250900000Y-169040000D03*
X253440000Y-169040000D03*
X255980000Y-169040000D03*
X258520000Y-169040000D03*
X248360000Y-171580000D03*
X250900000Y-171580000D03*
X253440000Y-171580000D03*
X255980000Y-171580000D03*
X258520000Y-171580000D03*
X248360000Y-174120000D03*
X250900000Y-174120000D03*
X253440000Y-174120000D03*
X255980000Y-174120000D03*
X258520000Y-174120000D03*
%TD*%
%TO.C,J184*%
X248360000Y-176660000D03*
X250900000Y-176660000D03*
X253440000Y-176660000D03*
X255980000Y-176660000D03*
X258520000Y-176660000D03*
X248360000Y-179200000D03*
X250900000Y-179200000D03*
X253440000Y-179200000D03*
X255980000Y-179200000D03*
X258520000Y-179200000D03*
X248360000Y-181740000D03*
X250900000Y-181740000D03*
X253440000Y-181740000D03*
X255980000Y-181740000D03*
X258520000Y-181740000D03*
X248360000Y-184280000D03*
X250900000Y-184280000D03*
X253440000Y-184280000D03*
X255980000Y-184280000D03*
X258520000Y-184280000D03*
X248360000Y-186820000D03*
X250900000Y-186820000D03*
X253440000Y-186820000D03*
X255980000Y-186820000D03*
X258520000Y-186820000D03*
%TD*%
%TO.C,J185*%
X248360000Y-189360000D03*
X250900000Y-189360000D03*
X253440000Y-189360000D03*
X255980000Y-189360000D03*
X258520000Y-189360000D03*
X248360000Y-191900000D03*
X250900000Y-191900000D03*
X253440000Y-191900000D03*
X255980000Y-191900000D03*
X258520000Y-191900000D03*
X248360000Y-194440000D03*
X250900000Y-194440000D03*
X253440000Y-194440000D03*
X255980000Y-194440000D03*
X258520000Y-194440000D03*
X248360000Y-196980000D03*
X250900000Y-196980000D03*
X253440000Y-196980000D03*
X255980000Y-196980000D03*
X258520000Y-196980000D03*
X248360000Y-199520000D03*
X250900000Y-199520000D03*
X253440000Y-199520000D03*
X255980000Y-199520000D03*
X258520000Y-199520000D03*
%TD*%
%TO.C,J186*%
X248360000Y-202060000D03*
X250900000Y-202060000D03*
X253440000Y-202060000D03*
X255980000Y-202060000D03*
X258520000Y-202060000D03*
X248360000Y-204600000D03*
X250900000Y-204600000D03*
X253440000Y-204600000D03*
X255980000Y-204600000D03*
X258520000Y-204600000D03*
X248360000Y-207140000D03*
X250900000Y-207140000D03*
X253440000Y-207140000D03*
X255980000Y-207140000D03*
X258520000Y-207140000D03*
X248360000Y-209680000D03*
X250900000Y-209680000D03*
X253440000Y-209680000D03*
X255980000Y-209680000D03*
X258520000Y-209680000D03*
X248360000Y-212220000D03*
X250900000Y-212220000D03*
X253440000Y-212220000D03*
X255980000Y-212220000D03*
X258520000Y-212220000D03*
%TD*%
%TO.C,J3*%
X45160000Y-113160000D03*
X47700000Y-113160000D03*
X50240000Y-113160000D03*
X52780000Y-113160000D03*
X55320000Y-113160000D03*
X45160000Y-115700000D03*
X47700000Y-115700000D03*
X50240000Y-115700000D03*
X52780000Y-115700000D03*
X55320000Y-115700000D03*
X45160000Y-118240000D03*
X47700000Y-118240000D03*
X50240000Y-118240000D03*
X52780000Y-118240000D03*
X55320000Y-118240000D03*
X45160000Y-120780000D03*
X47700000Y-120780000D03*
X50240000Y-120780000D03*
X52780000Y-120780000D03*
X55320000Y-120780000D03*
X45160000Y-123320000D03*
X47700000Y-123320000D03*
X50240000Y-123320000D03*
X52780000Y-123320000D03*
X55320000Y-123320000D03*
%TD*%
%TO.C,J8*%
X45160000Y-176660000D03*
X47700000Y-176660000D03*
X50240000Y-176660000D03*
X52780000Y-176660000D03*
X55320000Y-176660000D03*
X45160000Y-179200000D03*
X47700000Y-179200000D03*
X50240000Y-179200000D03*
X52780000Y-179200000D03*
X55320000Y-179200000D03*
X45160000Y-181740000D03*
X47700000Y-181740000D03*
X50240000Y-181740000D03*
X52780000Y-181740000D03*
X55320000Y-181740000D03*
X45160000Y-184280000D03*
X47700000Y-184280000D03*
X50240000Y-184280000D03*
X52780000Y-184280000D03*
X55320000Y-184280000D03*
X45160000Y-186820000D03*
X47700000Y-186820000D03*
X50240000Y-186820000D03*
X52780000Y-186820000D03*
X55320000Y-186820000D03*
%TD*%
%TO.C,J7*%
X45160000Y-163960000D03*
X47700000Y-163960000D03*
X50240000Y-163960000D03*
X52780000Y-163960000D03*
X55320000Y-163960000D03*
X45160000Y-166500000D03*
X47700000Y-166500000D03*
X50240000Y-166500000D03*
X52780000Y-166500000D03*
X55320000Y-166500000D03*
X45160000Y-169040000D03*
X47700000Y-169040000D03*
X50240000Y-169040000D03*
X52780000Y-169040000D03*
X55320000Y-169040000D03*
X45160000Y-171580000D03*
X47700000Y-171580000D03*
X50240000Y-171580000D03*
X52780000Y-171580000D03*
X55320000Y-171580000D03*
X45160000Y-174120000D03*
X47700000Y-174120000D03*
X50240000Y-174120000D03*
X52780000Y-174120000D03*
X55320000Y-174120000D03*
%TD*%
%TO.C,J4*%
X45160000Y-125860000D03*
X47700000Y-125860000D03*
X50240000Y-125860000D03*
X52780000Y-125860000D03*
X55320000Y-125860000D03*
X45160000Y-128400000D03*
X47700000Y-128400000D03*
X50240000Y-128400000D03*
X52780000Y-128400000D03*
X55320000Y-128400000D03*
X45160000Y-130940000D03*
X47700000Y-130940000D03*
X50240000Y-130940000D03*
X52780000Y-130940000D03*
X55320000Y-130940000D03*
X45160000Y-133480000D03*
X47700000Y-133480000D03*
X50240000Y-133480000D03*
X52780000Y-133480000D03*
X55320000Y-133480000D03*
X45160000Y-136020000D03*
X47700000Y-136020000D03*
X50240000Y-136020000D03*
X52780000Y-136020000D03*
X55320000Y-136020000D03*
%TD*%
%TO.C,J5*%
X45160000Y-138560000D03*
X47700000Y-138560000D03*
X50240000Y-138560000D03*
X52780000Y-138560000D03*
X55320000Y-138560000D03*
X45160000Y-141100000D03*
X47700000Y-141100000D03*
X50240000Y-141100000D03*
X52780000Y-141100000D03*
X55320000Y-141100000D03*
X45160000Y-143640000D03*
X47700000Y-143640000D03*
X50240000Y-143640000D03*
X52780000Y-143640000D03*
X55320000Y-143640000D03*
X45160000Y-146180000D03*
X47700000Y-146180000D03*
X50240000Y-146180000D03*
X52780000Y-146180000D03*
X55320000Y-146180000D03*
X45160000Y-148720000D03*
X47700000Y-148720000D03*
X50240000Y-148720000D03*
X52780000Y-148720000D03*
X55320000Y-148720000D03*
%TD*%
%TO.C,J6*%
X45160000Y-151260000D03*
X47700000Y-151260000D03*
X50240000Y-151260000D03*
X52780000Y-151260000D03*
X55320000Y-151260000D03*
X45160000Y-153800000D03*
X47700000Y-153800000D03*
X50240000Y-153800000D03*
X52780000Y-153800000D03*
X55320000Y-153800000D03*
X45160000Y-156340000D03*
X47700000Y-156340000D03*
X50240000Y-156340000D03*
X52780000Y-156340000D03*
X55320000Y-156340000D03*
X45160000Y-158880000D03*
X47700000Y-158880000D03*
X50240000Y-158880000D03*
X52780000Y-158880000D03*
X55320000Y-158880000D03*
X45160000Y-161420000D03*
X47700000Y-161420000D03*
X50240000Y-161420000D03*
X52780000Y-161420000D03*
X55320000Y-161420000D03*
%TD*%
%TO.C,J2*%
X45160000Y-100460000D03*
X47700000Y-100460000D03*
X50240000Y-100460000D03*
X52780000Y-100460000D03*
X55320000Y-100460000D03*
X45160000Y-103000000D03*
X47700000Y-103000000D03*
X50240000Y-103000000D03*
X52780000Y-103000000D03*
X55320000Y-103000000D03*
X45160000Y-105540000D03*
X47700000Y-105540000D03*
X50240000Y-105540000D03*
X52780000Y-105540000D03*
X55320000Y-105540000D03*
X45160000Y-108080000D03*
X47700000Y-108080000D03*
X50240000Y-108080000D03*
X52780000Y-108080000D03*
X55320000Y-108080000D03*
X45160000Y-110620000D03*
X47700000Y-110620000D03*
X50240000Y-110620000D03*
X52780000Y-110620000D03*
X55320000Y-110620000D03*
%TD*%
%TO.C,J1*%
X45160000Y-87760000D03*
X47700000Y-87760000D03*
X50240000Y-87760000D03*
X52780000Y-87760000D03*
X55320000Y-87760000D03*
X45160000Y-90300000D03*
X47700000Y-90300000D03*
X50240000Y-90300000D03*
X52780000Y-90300000D03*
X55320000Y-90300000D03*
X45160000Y-92840000D03*
X47700000Y-92840000D03*
X50240000Y-92840000D03*
X52780000Y-92840000D03*
X55320000Y-92840000D03*
X45160000Y-95380000D03*
X47700000Y-95380000D03*
X50240000Y-95380000D03*
X52780000Y-95380000D03*
X55320000Y-95380000D03*
X45160000Y-97920000D03*
X47700000Y-97920000D03*
X50240000Y-97920000D03*
X52780000Y-97920000D03*
X55320000Y-97920000D03*
%TD*%
%TO.C,J9*%
X45160000Y-189360000D03*
X47700000Y-189360000D03*
X50240000Y-189360000D03*
X52780000Y-189360000D03*
X55320000Y-189360000D03*
X45160000Y-191900000D03*
X47700000Y-191900000D03*
X50240000Y-191900000D03*
X52780000Y-191900000D03*
X55320000Y-191900000D03*
X45160000Y-194440000D03*
X47700000Y-194440000D03*
X50240000Y-194440000D03*
X52780000Y-194440000D03*
X55320000Y-194440000D03*
X45160000Y-196980000D03*
X47700000Y-196980000D03*
X50240000Y-196980000D03*
X52780000Y-196980000D03*
X55320000Y-196980000D03*
X45160000Y-199520000D03*
X47700000Y-199520000D03*
X50240000Y-199520000D03*
X52780000Y-199520000D03*
X55320000Y-199520000D03*
%TD*%
%TO.C,J10*%
X45160000Y-202060000D03*
X47700000Y-202060000D03*
X50240000Y-202060000D03*
X52780000Y-202060000D03*
X55320000Y-202060000D03*
X45160000Y-204600000D03*
X47700000Y-204600000D03*
X50240000Y-204600000D03*
X52780000Y-204600000D03*
X55320000Y-204600000D03*
X45160000Y-207140000D03*
X47700000Y-207140000D03*
X50240000Y-207140000D03*
X52780000Y-207140000D03*
X55320000Y-207140000D03*
X45160000Y-209680000D03*
X47700000Y-209680000D03*
X50240000Y-209680000D03*
X52780000Y-209680000D03*
X55320000Y-209680000D03*
X45160000Y-212220000D03*
X47700000Y-212220000D03*
X50240000Y-212220000D03*
X52780000Y-212220000D03*
X55320000Y-212220000D03*
%TD*%
M02*
