M48
; DRILL file {KiCad (6.0.11)} date Mon Oct 28 17:35:07 2024
; FORMAT={-:-/ absolute / inch / decimal}
; #@! TF.CreationDate,2024-10-28T17:35:07-05:00
; #@! TF.GenerationSoftware,Kicad,Pcbnew,(6.0.11)
; #@! TF.FileFunction,Plated,1,2,PTH
FMAT,2
INCH
; #@! TA.AperFunction,Plated,PTH,ComponentDrill
T1C0.0315
; #@! TA.AperFunction,Plated,PTH,ComponentDrill
T2C0.0354
; #@! TA.AperFunction,Plated,PTH,ComponentDrill
T3C0.0394
; #@! TA.AperFunction,Plated,PTH,ComponentDrill
T4C0.0512
; #@! TA.AperFunction,Plated,PTH,ComponentDrill
T5C0.1260
%
G90
G05
T1
X3.2815Y-0.968
X3.5815Y-0.968
X5.1834Y-17.1491
X5.4834Y-17.1491
X8.1362Y-17.1491
X8.4362Y-17.1491
T2
X2.9909Y-0.968
X3.0909Y-0.968
T3
X2.6775Y-1.616
X2.6775Y-1.716
X2.6775Y-2.4034
X2.6775Y-2.5034
X2.6775Y-3.1908
X2.6775Y-3.2908
X2.6775Y-3.9782
X2.6775Y-4.0782
X2.6775Y-4.7656
X2.6775Y-4.8656
X2.6775Y-5.553
X2.6775Y-5.653
X2.6775Y-6.3404
X2.6775Y-6.4404
X2.6775Y-7.1278
X2.6775Y-7.2278
X2.6775Y-7.9152
X2.6775Y-8.0152
X2.6775Y-8.7026
X2.6775Y-8.8026
X2.6775Y-9.49
X2.6775Y-9.59
X2.6775Y-10.2774
X2.6775Y-10.3774
X2.6775Y-11.0648
X2.6775Y-11.1648
X2.6775Y-11.8522
X2.6775Y-11.9522
X2.6775Y-12.6396
X2.6775Y-12.7396
X2.6775Y-13.427
X2.6775Y-13.527
X2.6775Y-14.2144
X2.6775Y-14.3144
X2.6775Y-15.0018
X2.6775Y-15.1018
X2.6775Y-15.7892
X2.6775Y-15.8892
X2.6775Y-16.5766
X2.6775Y-16.6766
X2.7775Y-1.616
X2.7775Y-1.716
X2.7775Y-2.4034
X2.7775Y-2.5034
X2.7775Y-3.1908
X2.7775Y-3.2908
X2.7775Y-3.9782
X2.7775Y-4.0782
X2.7775Y-4.7656
X2.7775Y-4.8656
X2.7775Y-5.553
X2.7775Y-5.653
X2.7775Y-6.3404
X2.7775Y-6.4404
X2.7775Y-7.1278
X2.7775Y-7.2278
X2.7775Y-7.9152
X2.7775Y-8.0152
X2.7775Y-8.7026
X2.7775Y-8.8026
X2.7775Y-9.49
X2.7775Y-9.59
X2.7775Y-10.2774
X2.7775Y-10.3774
X2.7775Y-11.0648
X2.7775Y-11.1648
X2.7775Y-11.8522
X2.7775Y-11.9522
X2.7775Y-12.6396
X2.7775Y-12.7396
X2.7775Y-13.427
X2.7775Y-13.527
X2.7775Y-14.2144
X2.7775Y-14.3144
X2.7775Y-15.0018
X2.7775Y-15.1018
X2.7775Y-15.7892
X2.7775Y-15.8892
X2.7775Y-16.5766
X2.7775Y-16.6766
X2.8531Y-2.031
X2.8531Y-2.8184
X2.8531Y-3.6058
X2.8531Y-4.3932
X2.8531Y-5.1806
X2.8531Y-5.968
X2.8531Y-6.7554
X2.8531Y-7.5428
X2.8531Y-8.3302
X2.8531Y-9.1176
X2.8531Y-9.905
X2.8531Y-10.6924
X2.8531Y-11.4798
X2.8531Y-12.2672
X2.8531Y-13.0546
X2.8531Y-13.842
X2.8531Y-14.6294
X2.8531Y-15.4168
X2.8531Y-16.2042
X2.8775Y-1.616
X2.8775Y-1.716
X2.8775Y-2.4034
X2.8775Y-2.5034
X2.8775Y-3.1908
X2.8775Y-3.2908
X2.8775Y-3.9782
X2.8775Y-4.0782
X2.8775Y-4.7656
X2.8775Y-4.8656
X2.8775Y-5.553
X2.8775Y-5.653
X2.8775Y-6.3404
X2.8775Y-6.4404
X2.8775Y-7.1278
X2.8775Y-7.2278
X2.8775Y-7.9152
X2.8775Y-8.0152
X2.8775Y-8.7026
X2.8775Y-8.8026
X2.8775Y-9.49
X2.8775Y-9.59
X2.8775Y-10.2774
X2.8775Y-10.3774
X2.8775Y-11.0648
X2.8775Y-11.1648
X2.8775Y-11.8522
X2.8775Y-11.9522
X2.8775Y-12.6396
X2.8775Y-12.7396
X2.8775Y-13.427
X2.8775Y-13.527
X2.8775Y-14.2144
X2.8775Y-14.3144
X2.8775Y-15.0018
X2.8775Y-15.1018
X2.8775Y-15.7892
X2.8775Y-15.8892
X2.8775Y-16.5766
X2.8775Y-16.6766
X2.9531Y-2.031
X2.9531Y-2.8184
X2.9531Y-3.6058
X2.9531Y-4.3932
X2.9531Y-5.1806
X2.9531Y-5.968
X2.9531Y-6.7554
X2.9531Y-7.5428
X2.9531Y-8.3302
X2.9531Y-9.1176
X2.9531Y-9.905
X2.9531Y-10.6924
X2.9531Y-11.4798
X2.9531Y-12.2672
X2.9531Y-13.0546
X2.9531Y-13.842
X2.9531Y-14.6294
X2.9531Y-15.4168
X2.9531Y-16.2042
X2.9775Y-1.616
X2.9775Y-1.716
X2.9775Y-2.4034
X2.9775Y-2.5034
X2.9775Y-3.1908
X2.9775Y-3.2908
X2.9775Y-3.9782
X2.9775Y-4.0782
X2.9775Y-4.7656
X2.9775Y-4.8656
X2.9775Y-5.553
X2.9775Y-5.653
X2.9775Y-6.3404
X2.9775Y-6.4404
X2.9775Y-7.1278
X2.9775Y-7.2278
X2.9775Y-7.9152
X2.9775Y-8.0152
X2.9775Y-8.7026
X2.9775Y-8.8026
X2.9775Y-9.49
X2.9775Y-9.59
X2.9775Y-10.2774
X2.9775Y-10.3774
X2.9775Y-11.0648
X2.9775Y-11.1648
X2.9775Y-11.8522
X2.9775Y-11.9522
X2.9775Y-12.6396
X2.9775Y-12.7396
X2.9775Y-13.427
X2.9775Y-13.527
X2.9775Y-14.2144
X2.9775Y-14.3144
X2.9775Y-15.0018
X2.9775Y-15.1018
X2.9775Y-15.7892
X2.9775Y-15.8892
X2.9775Y-16.5766
X2.9775Y-16.6766
X3.0531Y-2.031
X3.0531Y-2.8184
X3.0531Y-3.6058
X3.0531Y-4.3932
X3.0531Y-5.1806
X3.0531Y-5.968
X3.0531Y-6.7554
X3.0531Y-7.5428
X3.0531Y-8.3302
X3.0531Y-9.1176
X3.0531Y-9.905
X3.0531Y-10.6924
X3.0531Y-11.4798
X3.0531Y-12.2672
X3.0531Y-13.0546
X3.0531Y-13.842
X3.0531Y-14.6294
X3.0531Y-15.4168
X3.0531Y-16.2042
X3.0775Y-1.616
X3.0775Y-1.716
X3.0775Y-2.4034
X3.0775Y-2.5034
X3.0775Y-3.1908
X3.0775Y-3.2908
X3.0775Y-3.9782
X3.0775Y-4.0782
X3.0775Y-4.7656
X3.0775Y-4.8656
X3.0775Y-5.553
X3.0775Y-5.653
X3.0775Y-6.3404
X3.0775Y-6.4404
X3.0775Y-7.1278
X3.0775Y-7.2278
X3.0775Y-7.9152
X3.0775Y-8.0152
X3.0775Y-8.7026
X3.0775Y-8.8026
X3.0775Y-9.49
X3.0775Y-9.59
X3.0775Y-10.2774
X3.0775Y-10.3774
X3.0775Y-11.0648
X3.0775Y-11.1648
X3.0775Y-11.8522
X3.0775Y-11.9522
X3.0775Y-12.6396
X3.0775Y-12.7396
X3.0775Y-13.427
X3.0775Y-13.527
X3.0775Y-14.2144
X3.0775Y-14.3144
X3.0775Y-15.0018
X3.0775Y-15.1018
X3.0775Y-15.7892
X3.0775Y-15.8892
X3.0775Y-16.5766
X3.0775Y-16.6766
X3.1531Y-2.031
X3.1531Y-2.8184
X3.1531Y-3.6058
X3.1531Y-4.3932
X3.1531Y-5.1806
X3.1531Y-5.968
X3.1531Y-6.7554
X3.1531Y-7.5428
X3.1531Y-8.3302
X3.1531Y-9.1176
X3.1531Y-9.905
X3.1531Y-10.6924
X3.1531Y-11.4798
X3.1531Y-12.2672
X3.1531Y-13.0546
X3.1531Y-13.842
X3.1531Y-14.6294
X3.1531Y-15.4168
X3.1531Y-16.2042
X3.1775Y-1.616
X3.1775Y-1.716
X3.1775Y-2.4034
X3.1775Y-2.5034
X3.1775Y-3.1908
X3.1775Y-3.2908
X3.1775Y-3.9782
X3.1775Y-4.0782
X3.1775Y-4.7656
X3.1775Y-4.8656
X3.1775Y-5.553
X3.1775Y-5.653
X3.1775Y-6.3404
X3.1775Y-6.4404
X3.1775Y-7.1278
X3.1775Y-7.2278
X3.1775Y-7.9152
X3.1775Y-8.0152
X3.1775Y-8.7026
X3.1775Y-8.8026
X3.1775Y-9.49
X3.1775Y-9.59
X3.1775Y-10.2774
X3.1775Y-10.3774
X3.1775Y-11.0648
X3.1775Y-11.1648
X3.1775Y-11.8522
X3.1775Y-11.9522
X3.1775Y-12.6396
X3.1775Y-12.7396
X3.1775Y-13.427
X3.1775Y-13.527
X3.1775Y-14.2144
X3.1775Y-14.3144
X3.1775Y-15.0018
X3.1775Y-15.1018
X3.1775Y-15.7892
X3.1775Y-15.8892
X3.1775Y-16.5766
X3.1775Y-16.6766
X3.2775Y-1.616
X3.2775Y-1.716
X3.2775Y-2.4034
X3.2775Y-2.5034
X3.2775Y-3.1908
X3.2775Y-3.2908
X3.2775Y-3.9782
X3.2775Y-4.0782
X3.2775Y-4.7656
X3.2775Y-4.8656
X3.2775Y-5.553
X3.2775Y-5.653
X3.2775Y-6.3404
X3.2775Y-6.4404
X3.2775Y-7.1278
X3.2775Y-7.2278
X3.2775Y-7.9152
X3.2775Y-8.0152
X3.2775Y-8.7026
X3.2775Y-8.8026
X3.2775Y-9.49
X3.2775Y-9.59
X3.2775Y-10.2774
X3.2775Y-10.3774
X3.2775Y-11.0648
X3.2775Y-11.1648
X3.2775Y-11.8522
X3.2775Y-11.9522
X3.2775Y-12.6396
X3.2775Y-12.7396
X3.2775Y-13.427
X3.2775Y-13.527
X3.2775Y-14.2144
X3.2775Y-14.3144
X3.2775Y-15.0018
X3.2775Y-15.1018
X3.2775Y-15.7892
X3.2775Y-15.8892
X3.2775Y-16.5766
X3.2775Y-16.6766
X3.3775Y-1.616
X3.3775Y-1.716
X3.3775Y-2.4034
X3.3775Y-2.5034
X3.3775Y-3.1908
X3.3775Y-3.2908
X3.3775Y-3.9782
X3.3775Y-4.0782
X3.3775Y-4.7656
X3.3775Y-4.8656
X3.3775Y-5.553
X3.3775Y-5.653
X3.3775Y-6.3404
X3.3775Y-6.4404
X3.3775Y-7.1278
X3.3775Y-7.2278
X3.3775Y-7.9152
X3.3775Y-8.0152
X3.3775Y-8.7026
X3.3775Y-8.8026
X3.3775Y-9.49
X3.3775Y-9.59
X3.3775Y-10.2774
X3.3775Y-10.3774
X3.3775Y-11.0648
X3.3775Y-11.1648
X3.3775Y-11.8522
X3.3775Y-11.9522
X3.3775Y-12.6396
X3.3775Y-12.7396
X3.3775Y-13.427
X3.3775Y-13.527
X3.3775Y-14.2144
X3.3775Y-14.3144
X3.3775Y-15.0018
X3.3775Y-15.1018
X3.3775Y-15.7892
X3.3775Y-15.8892
X3.3775Y-16.5766
X3.3775Y-16.6766
X3.4775Y-1.616
X3.4775Y-1.716
X3.4775Y-2.4034
X3.4775Y-2.5034
X3.4775Y-3.1908
X3.4775Y-3.2908
X3.4775Y-3.9782
X3.4775Y-4.0782
X3.4775Y-4.7656
X3.4775Y-4.8656
X3.4775Y-5.553
X3.4775Y-5.653
X3.4775Y-6.3404
X3.4775Y-6.4404
X3.4775Y-7.1278
X3.4775Y-7.2278
X3.4775Y-7.9152
X3.4775Y-8.0152
X3.4775Y-8.7026
X3.4775Y-8.8026
X3.4775Y-9.49
X3.4775Y-9.59
X3.4775Y-10.2774
X3.4775Y-10.3774
X3.4775Y-11.0648
X3.4775Y-11.1648
X3.4775Y-11.8522
X3.4775Y-11.9522
X3.4775Y-12.6396
X3.4775Y-12.7396
X3.4775Y-13.427
X3.4775Y-13.527
X3.4775Y-14.2144
X3.4775Y-14.3144
X3.4775Y-15.0018
X3.4775Y-15.1018
X3.4775Y-15.7892
X3.4775Y-15.8892
X3.4775Y-16.5766
X3.4775Y-16.6766
X3.5775Y-1.616
X3.5775Y-1.716
X3.5775Y-2.4034
X3.5775Y-2.5034
X3.5775Y-3.1908
X3.5775Y-3.2908
X3.5775Y-3.9782
X3.5775Y-4.0782
X3.5775Y-4.7656
X3.5775Y-4.8656
X3.5775Y-5.553
X3.5775Y-5.653
X3.5775Y-6.3404
X3.5775Y-6.4404
X3.5775Y-7.1278
X3.5775Y-7.2278
X3.5775Y-7.9152
X3.5775Y-8.0152
X3.5775Y-8.7026
X3.5775Y-8.8026
X3.5775Y-9.49
X3.5775Y-9.59
X3.5775Y-10.2774
X3.5775Y-10.3774
X3.5775Y-11.0648
X3.5775Y-11.1648
X3.5775Y-11.8522
X3.5775Y-11.9522
X3.5775Y-12.6396
X3.5775Y-12.7396
X3.5775Y-13.427
X3.5775Y-13.527
X3.5775Y-14.2144
X3.5775Y-14.3144
X3.5775Y-15.0018
X3.5775Y-15.1018
X3.5775Y-15.7892
X3.5775Y-15.8892
X3.5775Y-16.5766
X3.5775Y-16.6766
X3.6775Y-1.616
X3.6775Y-1.716
X3.6775Y-2.4034
X3.6775Y-2.5034
X3.6775Y-3.1908
X3.6775Y-3.2908
X3.6775Y-3.9782
X3.6775Y-4.0782
X3.6775Y-4.7656
X3.6775Y-4.8656
X3.6775Y-5.553
X3.6775Y-5.653
X3.6775Y-6.3404
X3.6775Y-6.4404
X3.6775Y-7.1278
X3.6775Y-7.2278
X3.6775Y-7.9152
X3.6775Y-8.0152
X3.6775Y-8.7026
X3.6775Y-8.8026
X3.6775Y-9.49
X3.6775Y-9.59
X3.6775Y-10.2774
X3.6775Y-10.3774
X3.6775Y-11.0648
X3.6775Y-11.1648
X3.6775Y-11.8522
X3.6775Y-11.9522
X3.6775Y-12.6396
X3.6775Y-12.7396
X3.6775Y-13.427
X3.6775Y-13.527
X3.6775Y-14.2144
X3.6775Y-14.3144
X3.6775Y-15.0018
X3.6775Y-15.1018
X3.6775Y-15.7892
X3.6775Y-15.8892
X3.6775Y-16.5766
X3.6775Y-16.6766
X3.7775Y-1.616
X3.7775Y-1.716
X3.7775Y-2.4034
X3.7775Y-2.5034
X3.7775Y-3.1908
X3.7775Y-3.2908
X3.7775Y-3.9782
X3.7775Y-4.0782
X3.7775Y-4.7656
X3.7775Y-4.8656
X3.7775Y-5.553
X3.7775Y-5.653
X3.7775Y-6.3404
X3.7775Y-6.4404
X3.7775Y-7.1278
X3.7775Y-7.2278
X3.7775Y-7.9152
X3.7775Y-8.0152
X3.7775Y-8.7026
X3.7775Y-8.8026
X3.7775Y-9.49
X3.7775Y-9.59
X3.7775Y-10.2774
X3.7775Y-10.3774
X3.7775Y-11.0648
X3.7775Y-11.1648
X3.7775Y-11.8522
X3.7775Y-11.9522
X3.7775Y-12.6396
X3.7775Y-12.7396
X3.7775Y-13.427
X3.7775Y-13.527
X3.7775Y-14.2144
X3.7775Y-14.3144
X3.7775Y-15.0018
X3.7775Y-15.1018
X3.7775Y-15.7892
X3.7775Y-15.8892
X3.7775Y-16.5766
X3.7775Y-16.6766
X3.8775Y-1.616
X3.8775Y-1.716
X3.8775Y-2.4034
X3.8775Y-2.5034
X3.8775Y-3.1908
X3.8775Y-3.2908
X3.8775Y-3.9782
X3.8775Y-4.0782
X3.8775Y-4.7656
X3.8775Y-4.8656
X3.8775Y-5.553
X3.8775Y-5.653
X3.8775Y-6.3404
X3.8775Y-6.4404
X3.8775Y-7.1278
X3.8775Y-7.2278
X3.8775Y-7.9152
X3.8775Y-8.0152
X3.8775Y-8.7026
X3.8775Y-8.8026
X3.8775Y-9.49
X3.8775Y-9.59
X3.8775Y-10.2774
X3.8775Y-10.3774
X3.8775Y-11.0648
X3.8775Y-11.1648
X3.8775Y-11.8522
X3.8775Y-11.9522
X3.8775Y-12.6396
X3.8775Y-12.7396
X3.8775Y-13.427
X3.8775Y-13.527
X3.8775Y-14.2144
X3.8775Y-14.3144
X3.8775Y-15.0018
X3.8775Y-15.1018
X3.8775Y-15.7892
X3.8775Y-15.8892
X3.8775Y-16.5766
X3.8775Y-16.6766
X3.9775Y-1.616
X3.9775Y-1.716
X3.9775Y-2.4034
X3.9775Y-2.5034
X3.9775Y-3.1908
X3.9775Y-3.2908
X3.9775Y-3.9782
X3.9775Y-4.0782
X3.9775Y-4.7656
X3.9775Y-4.8656
X3.9775Y-5.553
X3.9775Y-5.653
X3.9775Y-6.3404
X3.9775Y-6.4404
X3.9775Y-7.1278
X3.9775Y-7.2278
X3.9775Y-7.9152
X3.9775Y-8.0152
X3.9775Y-8.7026
X3.9775Y-8.8026
X3.9775Y-9.49
X3.9775Y-9.59
X3.9775Y-10.2774
X3.9775Y-10.3774
X3.9775Y-11.0648
X3.9775Y-11.1648
X3.9775Y-11.8522
X3.9775Y-11.9522
X3.9775Y-12.6396
X3.9775Y-12.7396
X3.9775Y-13.427
X3.9775Y-13.527
X3.9775Y-14.2144
X3.9775Y-14.3144
X3.9775Y-15.0018
X3.9775Y-15.1018
X3.9775Y-15.7892
X3.9775Y-15.8892
X3.9775Y-16.5766
X3.9775Y-16.6766
X4.0775Y-1.616
X4.0775Y-1.716
X4.0775Y-2.4034
X4.0775Y-2.5034
X4.0775Y-3.1908
X4.0775Y-3.2908
X4.0775Y-3.9782
X4.0775Y-4.0782
X4.0775Y-4.7656
X4.0775Y-4.8656
X4.0775Y-5.553
X4.0775Y-5.653
X4.0775Y-6.3404
X4.0775Y-6.4404
X4.0775Y-7.1278
X4.0775Y-7.2278
X4.0775Y-7.9152
X4.0775Y-8.0152
X4.0775Y-8.7026
X4.0775Y-8.8026
X4.0775Y-9.49
X4.0775Y-9.59
X4.0775Y-10.2774
X4.0775Y-10.3774
X4.0775Y-11.0648
X4.0775Y-11.1648
X4.0775Y-11.8522
X4.0775Y-11.9522
X4.0775Y-12.6396
X4.0775Y-12.7396
X4.0775Y-13.427
X4.0775Y-13.527
X4.0775Y-14.2144
X4.0775Y-14.3144
X4.0775Y-15.0018
X4.0775Y-15.1018
X4.0775Y-15.7892
X4.0775Y-15.8892
X4.0775Y-16.5766
X4.0775Y-16.6766
X4.1775Y-1.616
X4.1775Y-1.716
X4.1775Y-2.4034
X4.1775Y-2.5034
X4.1775Y-3.1908
X4.1775Y-3.2908
X4.1775Y-3.9782
X4.1775Y-4.0782
X4.1775Y-4.7656
X4.1775Y-4.8656
X4.1775Y-5.553
X4.1775Y-5.653
X4.1775Y-6.3404
X4.1775Y-6.4404
X4.1775Y-7.1278
X4.1775Y-7.2278
X4.1775Y-7.9152
X4.1775Y-8.0152
X4.1775Y-8.7026
X4.1775Y-8.8026
X4.1775Y-9.49
X4.1775Y-9.59
X4.1775Y-10.2774
X4.1775Y-10.3774
X4.1775Y-11.0648
X4.1775Y-11.1648
X4.1775Y-11.8522
X4.1775Y-11.9522
X4.1775Y-12.6396
X4.1775Y-12.7396
X4.1775Y-13.427
X4.1775Y-13.527
X4.1775Y-14.2144
X4.1775Y-14.3144
X4.1775Y-15.0018
X4.1775Y-15.1018
X4.1775Y-15.7892
X4.1775Y-15.8892
X4.1775Y-16.5766
X4.1775Y-16.6766
X4.2775Y-1.616
X4.2775Y-1.716
X4.2775Y-2.4034
X4.2775Y-2.5034
X4.2775Y-3.1908
X4.2775Y-3.2908
X4.2775Y-3.9782
X4.2775Y-4.0782
X4.2775Y-4.7656
X4.2775Y-4.8656
X4.2775Y-5.553
X4.2775Y-5.653
X4.2775Y-6.3404
X4.2775Y-6.4404
X4.2775Y-7.1278
X4.2775Y-7.2278
X4.2775Y-7.9152
X4.2775Y-8.0152
X4.2775Y-8.7026
X4.2775Y-8.8026
X4.2775Y-9.49
X4.2775Y-9.59
X4.2775Y-10.2774
X4.2775Y-10.3774
X4.2775Y-11.0648
X4.2775Y-11.1648
X4.2775Y-11.8522
X4.2775Y-11.9522
X4.2775Y-12.6396
X4.2775Y-12.7396
X4.2775Y-13.427
X4.2775Y-13.527
X4.2775Y-14.2144
X4.2775Y-14.3144
X4.2775Y-15.0018
X4.2775Y-15.1018
X4.2775Y-15.7892
X4.2775Y-15.8892
X4.2775Y-16.5766
X4.2775Y-16.6766
X4.3775Y-1.616
X4.3775Y-1.716
X4.3775Y-2.4034
X4.3775Y-2.5034
X4.3775Y-3.1908
X4.3775Y-3.2908
X4.3775Y-3.9782
X4.3775Y-4.0782
X4.3775Y-4.7656
X4.3775Y-4.8656
X4.3775Y-5.553
X4.3775Y-5.653
X4.3775Y-6.3404
X4.3775Y-6.4404
X4.3775Y-7.1278
X4.3775Y-7.2278
X4.3775Y-7.9152
X4.3775Y-8.0152
X4.3775Y-8.7026
X4.3775Y-8.8026
X4.3775Y-9.49
X4.3775Y-9.59
X4.3775Y-10.2774
X4.3775Y-10.3774
X4.3775Y-11.0648
X4.3775Y-11.1648
X4.3775Y-11.8522
X4.3775Y-11.9522
X4.3775Y-12.6396
X4.3775Y-12.7396
X4.3775Y-13.427
X4.3775Y-13.527
X4.3775Y-14.2144
X4.3775Y-14.3144
X4.3775Y-15.0018
X4.3775Y-15.1018
X4.3775Y-15.7892
X4.3775Y-15.8892
X4.3775Y-16.5766
X4.3775Y-16.6766
X4.4775Y-1.616
X4.4775Y-1.716
X4.4775Y-2.4034
X4.4775Y-2.5034
X4.4775Y-3.1908
X4.4775Y-3.2908
X4.4775Y-3.9782
X4.4775Y-4.0782
X4.4775Y-4.7656
X4.4775Y-4.8656
X4.4775Y-5.553
X4.4775Y-5.653
X4.4775Y-6.3404
X4.4775Y-6.4404
X4.4775Y-7.1278
X4.4775Y-7.2278
X4.4775Y-7.9152
X4.4775Y-8.0152
X4.4775Y-8.7026
X4.4775Y-8.8026
X4.4775Y-9.49
X4.4775Y-9.59
X4.4775Y-10.2774
X4.4775Y-10.3774
X4.4775Y-11.0648
X4.4775Y-11.1648
X4.4775Y-11.8522
X4.4775Y-11.9522
X4.4775Y-12.6396
X4.4775Y-12.7396
X4.4775Y-13.427
X4.4775Y-13.527
X4.4775Y-14.2144
X4.4775Y-14.3144
X4.4775Y-15.0018
X4.4775Y-15.1018
X4.4775Y-15.7892
X4.4775Y-15.8892
X4.4775Y-16.5766
X4.4775Y-16.6766
X4.5775Y-1.616
X4.5775Y-1.716
X4.5775Y-2.4034
X4.5775Y-2.5034
X4.5775Y-3.1908
X4.5775Y-3.2908
X4.5775Y-3.9782
X4.5775Y-4.0782
X4.5775Y-4.7656
X4.5775Y-4.8656
X4.5775Y-5.553
X4.5775Y-5.653
X4.5775Y-6.3404
X4.5775Y-6.4404
X4.5775Y-7.1278
X4.5775Y-7.2278
X4.5775Y-7.9152
X4.5775Y-8.0152
X4.5775Y-8.7026
X4.5775Y-8.8026
X4.5775Y-9.49
X4.5775Y-9.59
X4.5775Y-10.2774
X4.5775Y-10.3774
X4.5775Y-11.0648
X4.5775Y-11.1648
X4.5775Y-11.8522
X4.5775Y-11.9522
X4.5775Y-12.6396
X4.5775Y-12.7396
X4.5775Y-13.427
X4.5775Y-13.527
X4.5775Y-14.2144
X4.5775Y-14.3144
X4.5775Y-15.0018
X4.5775Y-15.1018
X4.5775Y-15.7892
X4.5775Y-15.8892
X4.5775Y-16.5766
X4.5775Y-16.6766
X4.6775Y-1.616
X4.6775Y-1.716
X4.6775Y-2.4034
X4.6775Y-2.5034
X4.6775Y-3.1908
X4.6775Y-3.2908
X4.6775Y-3.9782
X4.6775Y-4.0782
X4.6775Y-4.7656
X4.6775Y-4.8656
X4.6775Y-5.553
X4.6775Y-5.653
X4.6775Y-6.3404
X4.6775Y-6.4404
X4.6775Y-7.1278
X4.6775Y-7.2278
X4.6775Y-7.9152
X4.6775Y-8.0152
X4.6775Y-8.7026
X4.6775Y-8.8026
X4.6775Y-9.49
X4.6775Y-9.59
X4.6775Y-10.2774
X4.6775Y-10.3774
X4.6775Y-11.0648
X4.6775Y-11.1648
X4.6775Y-11.8522
X4.6775Y-11.9522
X4.6775Y-12.6396
X4.6775Y-12.7396
X4.6775Y-13.427
X4.6775Y-13.527
X4.6775Y-14.2144
X4.6775Y-14.3144
X4.6775Y-15.0018
X4.6775Y-15.1018
X4.6775Y-15.7892
X4.6775Y-15.8892
X4.6775Y-16.5766
X4.6775Y-16.6766
X4.7775Y-1.616
X4.7775Y-1.716
X4.7775Y-2.4034
X4.7775Y-2.5034
X4.7775Y-3.1908
X4.7775Y-3.2908
X4.7775Y-3.9782
X4.7775Y-4.0782
X4.7775Y-4.7656
X4.7775Y-4.8656
X4.7775Y-5.553
X4.7775Y-5.653
X4.7775Y-6.3404
X4.7775Y-6.4404
X4.7775Y-7.1278
X4.7775Y-7.2278
X4.7775Y-7.9152
X4.7775Y-8.0152
X4.7775Y-8.7026
X4.7775Y-8.8026
X4.7775Y-9.49
X4.7775Y-9.59
X4.7775Y-10.2774
X4.7775Y-10.3774
X4.7775Y-11.0648
X4.7775Y-11.1648
X4.7775Y-11.8522
X4.7775Y-11.9522
X4.7775Y-12.6396
X4.7775Y-12.7396
X4.7775Y-13.427
X4.7775Y-13.527
X4.7775Y-14.2144
X4.7775Y-14.3144
X4.7775Y-15.0018
X4.7775Y-15.1018
X4.7775Y-15.7892
X4.7775Y-15.8892
X4.7775Y-16.5766
X4.7775Y-16.6766
X4.8775Y-1.616
X4.8775Y-1.716
X4.8775Y-2.4034
X4.8775Y-2.5034
X4.8775Y-3.1908
X4.8775Y-3.2908
X4.8775Y-3.9782
X4.8775Y-4.0782
X4.8775Y-4.7656
X4.8775Y-4.8656
X4.8775Y-5.553
X4.8775Y-5.653
X4.8775Y-6.3404
X4.8775Y-6.4404
X4.8775Y-7.1278
X4.8775Y-7.2278
X4.8775Y-7.9152
X4.8775Y-8.0152
X4.8775Y-8.7026
X4.8775Y-8.8026
X4.8775Y-9.49
X4.8775Y-9.59
X4.8775Y-10.2774
X4.8775Y-10.3774
X4.8775Y-11.0648
X4.8775Y-11.1648
X4.8775Y-11.8522
X4.8775Y-11.9522
X4.8775Y-12.6396
X4.8775Y-12.7396
X4.8775Y-13.427
X4.8775Y-13.527
X4.8775Y-14.2144
X4.8775Y-14.3144
X4.8775Y-15.0018
X4.8775Y-15.1018
X4.8775Y-15.7892
X4.8775Y-15.8892
X4.8775Y-16.5766
X4.8775Y-16.6766
X4.9775Y-1.616
X4.9775Y-1.716
X4.9775Y-2.4034
X4.9775Y-2.5034
X4.9775Y-3.1908
X4.9775Y-3.2908
X4.9775Y-3.9782
X4.9775Y-4.0782
X4.9775Y-4.7656
X4.9775Y-4.8656
X4.9775Y-5.553
X4.9775Y-5.653
X4.9775Y-6.3404
X4.9775Y-6.4404
X4.9775Y-7.1278
X4.9775Y-7.2278
X4.9775Y-7.9152
X4.9775Y-8.0152
X4.9775Y-8.7026
X4.9775Y-8.8026
X4.9775Y-9.49
X4.9775Y-9.59
X4.9775Y-10.2774
X4.9775Y-10.3774
X4.9775Y-11.0648
X4.9775Y-11.1648
X4.9775Y-11.8522
X4.9775Y-11.9522
X4.9775Y-12.6396
X4.9775Y-12.7396
X4.9775Y-13.427
X4.9775Y-13.527
X4.9775Y-14.2144
X4.9775Y-14.3144
X4.9775Y-15.0018
X4.9775Y-15.1018
X4.9775Y-15.7892
X4.9775Y-15.8892
X4.9775Y-16.5766
X4.9775Y-16.6766
X5.0775Y-1.616
X5.0775Y-1.716
X5.0775Y-2.4034
X5.0775Y-2.5034
X5.0775Y-3.1908
X5.0775Y-3.2908
X5.0775Y-3.9782
X5.0775Y-4.0782
X5.0775Y-4.7656
X5.0775Y-4.8656
X5.0775Y-5.553
X5.0775Y-5.653
X5.0775Y-6.3404
X5.0775Y-6.4404
X5.0775Y-7.1278
X5.0775Y-7.2278
X5.0775Y-7.9152
X5.0775Y-8.0152
X5.0775Y-8.7026
X5.0775Y-8.8026
X5.0775Y-9.49
X5.0775Y-9.59
X5.0775Y-10.2774
X5.0775Y-10.3774
X5.0775Y-11.0648
X5.0775Y-11.1648
X5.0775Y-11.8522
X5.0775Y-11.9522
X5.0775Y-12.6396
X5.0775Y-12.7396
X5.0775Y-13.427
X5.0775Y-13.527
X5.0775Y-14.2144
X5.0775Y-14.3144
X5.0775Y-15.0018
X5.0775Y-15.1018
X5.0775Y-15.7892
X5.0775Y-15.8892
X5.0775Y-16.5766
X5.0775Y-16.6766
X5.5909Y-1.616
X5.5909Y-1.716
X5.5909Y-2.4034
X5.5909Y-2.5034
X5.5909Y-3.1908
X5.5909Y-3.2908
X5.5909Y-3.9782
X5.5909Y-4.0782
X5.5909Y-4.7656
X5.5909Y-4.8656
X5.5909Y-5.553
X5.5909Y-5.653
X5.5909Y-6.3404
X5.5909Y-6.4404
X5.5909Y-7.1278
X5.5909Y-7.2278
X5.5909Y-7.9152
X5.5909Y-8.0152
X5.5909Y-8.7026
X5.5909Y-8.8026
X5.5909Y-9.49
X5.5909Y-9.59
X5.5909Y-10.2774
X5.5909Y-10.3774
X5.5909Y-11.0648
X5.5909Y-11.1648
X5.5909Y-11.8522
X5.5909Y-11.9522
X5.5909Y-12.6396
X5.5909Y-12.7396
X5.5909Y-13.427
X5.5909Y-13.527
X5.5909Y-14.2144
X5.5909Y-14.3144
X5.5909Y-15.0018
X5.5909Y-15.1018
X5.5909Y-15.7892
X5.5909Y-15.8892
X5.5909Y-16.5766
X5.5909Y-16.6766
X5.6909Y-1.616
X5.6909Y-1.716
X5.6909Y-2.4034
X5.6909Y-2.5034
X5.6909Y-3.1908
X5.6909Y-3.2908
X5.6909Y-3.9782
X5.6909Y-4.0782
X5.6909Y-4.7656
X5.6909Y-4.8656
X5.6909Y-5.553
X5.6909Y-5.653
X5.6909Y-6.3404
X5.6909Y-6.4404
X5.6909Y-7.1278
X5.6909Y-7.2278
X5.6909Y-7.9152
X5.6909Y-8.0152
X5.6909Y-8.7026
X5.6909Y-8.8026
X5.6909Y-9.49
X5.6909Y-9.59
X5.6909Y-10.2774
X5.6909Y-10.3774
X5.6909Y-11.0648
X5.6909Y-11.1648
X5.6909Y-11.8522
X5.6909Y-11.9522
X5.6909Y-12.6396
X5.6909Y-12.7396
X5.6909Y-13.427
X5.6909Y-13.527
X5.6909Y-14.2144
X5.6909Y-14.3144
X5.6909Y-15.0018
X5.6909Y-15.1018
X5.6909Y-15.7892
X5.6909Y-15.8892
X5.6909Y-16.5766
X5.6909Y-16.6766
X5.7909Y-1.616
X5.7909Y-1.716
X5.7909Y-2.4034
X5.7909Y-2.5034
X5.7909Y-3.1908
X5.7909Y-3.2908
X5.7909Y-3.9782
X5.7909Y-4.0782
X5.7909Y-4.7656
X5.7909Y-4.8656
X5.7909Y-5.553
X5.7909Y-5.653
X5.7909Y-6.3404
X5.7909Y-6.4404
X5.7909Y-7.1278
X5.7909Y-7.2278
X5.7909Y-7.9152
X5.7909Y-8.0152
X5.7909Y-8.7026
X5.7909Y-8.8026
X5.7909Y-9.49
X5.7909Y-9.59
X5.7909Y-10.2774
X5.7909Y-10.3774
X5.7909Y-11.0648
X5.7909Y-11.1648
X5.7909Y-11.8522
X5.7909Y-11.9522
X5.7909Y-12.6396
X5.7909Y-12.7396
X5.7909Y-13.427
X5.7909Y-13.527
X5.7909Y-14.2144
X5.7909Y-14.3144
X5.7909Y-15.0018
X5.7909Y-15.1018
X5.7909Y-15.7892
X5.7909Y-15.8892
X5.7909Y-16.5766
X5.7909Y-16.6766
X5.8909Y-1.616
X5.8909Y-1.716
X5.8909Y-2.4034
X5.8909Y-2.5034
X5.8909Y-3.1908
X5.8909Y-3.2908
X5.8909Y-3.9782
X5.8909Y-4.0782
X5.8909Y-4.7656
X5.8909Y-4.8656
X5.8909Y-5.553
X5.8909Y-5.653
X5.8909Y-6.3404
X5.8909Y-6.4404
X5.8909Y-7.1278
X5.8909Y-7.2278
X5.8909Y-7.9152
X5.8909Y-8.0152
X5.8909Y-8.7026
X5.8909Y-8.8026
X5.8909Y-9.49
X5.8909Y-9.59
X5.8909Y-10.2774
X5.8909Y-10.3774
X5.8909Y-11.0648
X5.8909Y-11.1648
X5.8909Y-11.8522
X5.8909Y-11.9522
X5.8909Y-12.6396
X5.8909Y-12.7396
X5.8909Y-13.427
X5.8909Y-13.527
X5.8909Y-14.2144
X5.8909Y-14.3144
X5.8909Y-15.0018
X5.8909Y-15.1018
X5.8909Y-15.7892
X5.8909Y-15.8892
X5.8909Y-16.5766
X5.8909Y-16.6766
X5.9909Y-1.616
X5.9909Y-1.716
X5.9909Y-2.4034
X5.9909Y-2.5034
X5.9909Y-3.1908
X5.9909Y-3.2908
X5.9909Y-3.9782
X5.9909Y-4.0782
X5.9909Y-4.7656
X5.9909Y-4.8656
X5.9909Y-5.553
X5.9909Y-5.653
X5.9909Y-6.3404
X5.9909Y-6.4404
X5.9909Y-7.1278
X5.9909Y-7.2278
X5.9909Y-7.9152
X5.9909Y-8.0152
X5.9909Y-8.7026
X5.9909Y-8.8026
X5.9909Y-9.49
X5.9909Y-9.59
X5.9909Y-10.2774
X5.9909Y-10.3774
X5.9909Y-11.0648
X5.9909Y-11.1648
X5.9909Y-11.8522
X5.9909Y-11.9522
X5.9909Y-12.6396
X5.9909Y-12.7396
X5.9909Y-13.427
X5.9909Y-13.527
X5.9909Y-14.2144
X5.9909Y-14.3144
X5.9909Y-15.0018
X5.9909Y-15.1018
X5.9909Y-15.7892
X5.9909Y-15.8892
X5.9909Y-16.5766
X5.9909Y-16.6766
X6.0909Y-1.616
X6.0909Y-1.716
X6.0909Y-2.4034
X6.0909Y-2.5034
X6.0909Y-3.1908
X6.0909Y-3.2908
X6.0909Y-3.9782
X6.0909Y-4.0782
X6.0909Y-4.7656
X6.0909Y-4.8656
X6.0909Y-5.553
X6.0909Y-5.653
X6.0909Y-6.3404
X6.0909Y-6.4404
X6.0909Y-7.1278
X6.0909Y-7.2278
X6.0909Y-7.9152
X6.0909Y-8.0152
X6.0909Y-8.7026
X6.0909Y-8.8026
X6.0909Y-9.49
X6.0909Y-9.59
X6.0909Y-10.2774
X6.0909Y-10.3774
X6.0909Y-11.0648
X6.0909Y-11.1648
X6.0909Y-11.8522
X6.0909Y-11.9522
X6.0909Y-12.6396
X6.0909Y-12.7396
X6.0909Y-13.427
X6.0909Y-13.527
X6.0909Y-14.2144
X6.0909Y-14.3144
X6.0909Y-15.0018
X6.0909Y-15.1018
X6.0909Y-15.7892
X6.0909Y-15.8892
X6.0909Y-16.5766
X6.0909Y-16.6766
X6.1909Y-1.616
X6.1909Y-1.716
X6.1909Y-2.4034
X6.1909Y-2.5034
X6.1909Y-3.1908
X6.1909Y-3.2908
X6.1909Y-3.9782
X6.1909Y-4.0782
X6.1909Y-4.7656
X6.1909Y-4.8656
X6.1909Y-5.553
X6.1909Y-5.653
X6.1909Y-6.3404
X6.1909Y-6.4404
X6.1909Y-7.1278
X6.1909Y-7.2278
X6.1909Y-7.9152
X6.1909Y-8.0152
X6.1909Y-8.7026
X6.1909Y-8.8026
X6.1909Y-9.49
X6.1909Y-9.59
X6.1909Y-10.2774
X6.1909Y-10.3774
X6.1909Y-11.0648
X6.1909Y-11.1648
X6.1909Y-11.8522
X6.1909Y-11.9522
X6.1909Y-12.6396
X6.1909Y-12.7396
X6.1909Y-13.427
X6.1909Y-13.527
X6.1909Y-14.2144
X6.1909Y-14.3144
X6.1909Y-15.0018
X6.1909Y-15.1018
X6.1909Y-15.7892
X6.1909Y-15.8892
X6.1909Y-16.5766
X6.1909Y-16.6766
X6.2909Y-1.616
X6.2909Y-1.716
X6.2909Y-2.4034
X6.2909Y-2.5034
X6.2909Y-3.1908
X6.2909Y-3.2908
X6.2909Y-3.9782
X6.2909Y-4.0782
X6.2909Y-4.7656
X6.2909Y-4.8656
X6.2909Y-5.553
X6.2909Y-5.653
X6.2909Y-6.3404
X6.2909Y-6.4404
X6.2909Y-7.1278
X6.2909Y-7.2278
X6.2909Y-7.9152
X6.2909Y-8.0152
X6.2909Y-8.7026
X6.2909Y-8.8026
X6.2909Y-9.49
X6.2909Y-9.59
X6.2909Y-10.2774
X6.2909Y-10.3774
X6.2909Y-11.0648
X6.2909Y-11.1648
X6.2909Y-11.8522
X6.2909Y-11.9522
X6.2909Y-12.6396
X6.2909Y-12.7396
X6.2909Y-13.427
X6.2909Y-13.527
X6.2909Y-14.2144
X6.2909Y-14.3144
X6.2909Y-15.0018
X6.2909Y-15.1018
X6.2909Y-15.7892
X6.2909Y-15.8892
X6.2909Y-16.5766
X6.2909Y-16.6766
X6.3909Y-1.616
X6.3909Y-1.716
X6.3909Y-2.4034
X6.3909Y-2.5034
X6.3909Y-3.1908
X6.3909Y-3.2908
X6.3909Y-3.9782
X6.3909Y-4.0782
X6.3909Y-4.7656
X6.3909Y-4.8656
X6.3909Y-5.553
X6.3909Y-5.653
X6.3909Y-6.3404
X6.3909Y-6.4404
X6.3909Y-7.1278
X6.3909Y-7.2278
X6.3909Y-7.9152
X6.3909Y-8.0152
X6.3909Y-8.7026
X6.3909Y-8.8026
X6.3909Y-9.49
X6.3909Y-9.59
X6.3909Y-10.2774
X6.3909Y-10.3774
X6.3909Y-11.0648
X6.3909Y-11.1648
X6.3909Y-11.8522
X6.3909Y-11.9522
X6.3909Y-12.6396
X6.3909Y-12.7396
X6.3909Y-13.427
X6.3909Y-13.527
X6.3909Y-14.2144
X6.3909Y-14.3144
X6.3909Y-15.0018
X6.3909Y-15.1018
X6.3909Y-15.7892
X6.3909Y-15.8892
X6.3909Y-16.5766
X6.3909Y-16.6766
X6.4909Y-1.616
X6.4909Y-1.716
X6.4909Y-2.4034
X6.4909Y-2.5034
X6.4909Y-3.1908
X6.4909Y-3.2908
X6.4909Y-3.9782
X6.4909Y-4.0782
X6.4909Y-4.7656
X6.4909Y-4.8656
X6.4909Y-5.553
X6.4909Y-5.653
X6.4909Y-6.3404
X6.4909Y-6.4404
X6.4909Y-7.1278
X6.4909Y-7.2278
X6.4909Y-7.9152
X6.4909Y-8.0152
X6.4909Y-8.7026
X6.4909Y-8.8026
X6.4909Y-9.49
X6.4909Y-9.59
X6.4909Y-10.2774
X6.4909Y-10.3774
X6.4909Y-11.0648
X6.4909Y-11.1648
X6.4909Y-11.8522
X6.4909Y-11.9522
X6.4909Y-12.6396
X6.4909Y-12.7396
X6.4909Y-13.427
X6.4909Y-13.527
X6.4909Y-14.2144
X6.4909Y-14.3144
X6.4909Y-15.0018
X6.4909Y-15.1018
X6.4909Y-15.7892
X6.4909Y-15.8892
X6.4909Y-16.5766
X6.4909Y-16.6766
X6.5909Y-1.616
X6.5909Y-1.716
X6.5909Y-2.4034
X6.5909Y-2.5034
X6.5909Y-3.1908
X6.5909Y-3.2908
X6.5909Y-3.9782
X6.5909Y-4.0782
X6.5909Y-4.7656
X6.5909Y-4.8656
X6.5909Y-5.553
X6.5909Y-5.653
X6.5909Y-6.3404
X6.5909Y-6.4404
X6.5909Y-7.1278
X6.5909Y-7.2278
X6.5909Y-7.9152
X6.5909Y-8.0152
X6.5909Y-8.7026
X6.5909Y-8.8026
X6.5909Y-9.49
X6.5909Y-9.59
X6.5909Y-10.2774
X6.5909Y-10.3774
X6.5909Y-11.0648
X6.5909Y-11.1648
X6.5909Y-11.8522
X6.5909Y-11.9522
X6.5909Y-12.6396
X6.5909Y-12.7396
X6.5909Y-13.427
X6.5909Y-13.527
X6.5909Y-14.2144
X6.5909Y-14.3144
X6.5909Y-15.0018
X6.5909Y-15.1018
X6.5909Y-15.7892
X6.5909Y-15.8892
X6.5909Y-16.5766
X6.5909Y-16.6766
X6.6909Y-1.616
X6.6909Y-1.716
X6.6909Y-2.4034
X6.6909Y-2.5034
X6.6909Y-3.1908
X6.6909Y-3.2908
X6.6909Y-3.9782
X6.6909Y-4.0782
X6.6909Y-4.7656
X6.6909Y-4.8656
X6.6909Y-5.553
X6.6909Y-5.653
X6.6909Y-6.3404
X6.6909Y-6.4404
X6.6909Y-7.1278
X6.6909Y-7.2278
X6.6909Y-7.9152
X6.6909Y-8.0152
X6.6909Y-8.7026
X6.6909Y-8.8026
X6.6909Y-9.49
X6.6909Y-9.59
X6.6909Y-10.2774
X6.6909Y-10.3774
X6.6909Y-11.0648
X6.6909Y-11.1648
X6.6909Y-11.8522
X6.6909Y-11.9522
X6.6909Y-12.6396
X6.6909Y-12.7396
X6.6909Y-13.427
X6.6909Y-13.527
X6.6909Y-14.2144
X6.6909Y-14.3144
X6.6909Y-15.0018
X6.6909Y-15.1018
X6.6909Y-15.7892
X6.6909Y-15.8892
X6.6909Y-16.5766
X6.6909Y-16.6766
X6.7909Y-1.616
X6.7909Y-1.716
X6.7909Y-2.4034
X6.7909Y-2.5034
X6.7909Y-3.1908
X6.7909Y-3.2908
X6.7909Y-3.9782
X6.7909Y-4.0782
X6.7909Y-4.7656
X6.7909Y-4.8656
X6.7909Y-5.553
X6.7909Y-5.653
X6.7909Y-6.3404
X6.7909Y-6.4404
X6.7909Y-7.1278
X6.7909Y-7.2278
X6.7909Y-7.9152
X6.7909Y-8.0152
X6.7909Y-8.7026
X6.7909Y-8.8026
X6.7909Y-9.49
X6.7909Y-9.59
X6.7909Y-10.2774
X6.7909Y-10.3774
X6.7909Y-11.0648
X6.7909Y-11.1648
X6.7909Y-11.8522
X6.7909Y-11.9522
X6.7909Y-12.6396
X6.7909Y-12.7396
X6.7909Y-13.427
X6.7909Y-13.527
X6.7909Y-14.2144
X6.7909Y-14.3144
X6.7909Y-15.0018
X6.7909Y-15.1018
X6.7909Y-15.7892
X6.7909Y-15.8892
X6.7909Y-16.5766
X6.7909Y-16.6766
X6.8909Y-1.616
X6.8909Y-1.716
X6.8909Y-2.4034
X6.8909Y-2.5034
X6.8909Y-3.1908
X6.8909Y-3.2908
X6.8909Y-3.9782
X6.8909Y-4.0782
X6.8909Y-4.7656
X6.8909Y-4.8656
X6.8909Y-5.553
X6.8909Y-5.653
X6.8909Y-6.3404
X6.8909Y-6.4404
X6.8909Y-7.1278
X6.8909Y-7.2278
X6.8909Y-7.9152
X6.8909Y-8.0152
X6.8909Y-8.7026
X6.8909Y-8.8026
X6.8909Y-9.49
X6.8909Y-9.59
X6.8909Y-10.2774
X6.8909Y-10.3774
X6.8909Y-11.0648
X6.8909Y-11.1648
X6.8909Y-11.8522
X6.8909Y-11.9522
X6.8909Y-12.6396
X6.8909Y-12.7396
X6.8909Y-13.427
X6.8909Y-13.527
X6.8909Y-14.2144
X6.8909Y-14.3144
X6.8909Y-15.0018
X6.8909Y-15.1018
X6.8909Y-15.7892
X6.8909Y-15.8892
X6.8909Y-16.5766
X6.8909Y-16.6766
X6.9909Y-1.616
X6.9909Y-1.716
X6.9909Y-2.4034
X6.9909Y-2.5034
X6.9909Y-3.1908
X6.9909Y-3.2908
X6.9909Y-3.9782
X6.9909Y-4.0782
X6.9909Y-4.7656
X6.9909Y-4.8656
X6.9909Y-5.553
X6.9909Y-5.653
X6.9909Y-6.3404
X6.9909Y-6.4404
X6.9909Y-7.1278
X6.9909Y-7.2278
X6.9909Y-7.9152
X6.9909Y-8.0152
X6.9909Y-8.7026
X6.9909Y-8.8026
X6.9909Y-9.49
X6.9909Y-9.59
X6.9909Y-10.2774
X6.9909Y-10.3774
X6.9909Y-11.0648
X6.9909Y-11.1648
X6.9909Y-11.8522
X6.9909Y-11.9522
X6.9909Y-12.6396
X6.9909Y-12.7396
X6.9909Y-13.427
X6.9909Y-13.527
X6.9909Y-14.2144
X6.9909Y-14.3144
X6.9909Y-15.0018
X6.9909Y-15.1018
X6.9909Y-15.7892
X6.9909Y-15.8892
X6.9909Y-16.5766
X6.9909Y-16.6766
X7.0909Y-1.616
X7.0909Y-1.716
X7.0909Y-2.4034
X7.0909Y-2.5034
X7.0909Y-3.1908
X7.0909Y-3.2908
X7.0909Y-3.9782
X7.0909Y-4.0782
X7.0909Y-4.7656
X7.0909Y-4.8656
X7.0909Y-5.553
X7.0909Y-5.653
X7.0909Y-6.3404
X7.0909Y-6.4404
X7.0909Y-7.1278
X7.0909Y-7.2278
X7.0909Y-7.9152
X7.0909Y-8.0152
X7.0909Y-8.7026
X7.0909Y-8.8026
X7.0909Y-9.49
X7.0909Y-9.59
X7.0909Y-10.2774
X7.0909Y-10.3774
X7.0909Y-11.0648
X7.0909Y-11.1648
X7.0909Y-11.8522
X7.0909Y-11.9522
X7.0909Y-12.6396
X7.0909Y-12.7396
X7.0909Y-13.427
X7.0909Y-13.527
X7.0909Y-14.2144
X7.0909Y-14.3144
X7.0909Y-15.0018
X7.0909Y-15.1018
X7.0909Y-15.7892
X7.0909Y-15.8892
X7.0909Y-16.5766
X7.0909Y-16.6766
X7.1909Y-1.616
X7.1909Y-1.716
X7.1909Y-2.4034
X7.1909Y-2.5034
X7.1909Y-3.1908
X7.1909Y-3.2908
X7.1909Y-3.9782
X7.1909Y-4.0782
X7.1909Y-4.7656
X7.1909Y-4.8656
X7.1909Y-5.553
X7.1909Y-5.653
X7.1909Y-6.3404
X7.1909Y-6.4404
X7.1909Y-7.1278
X7.1909Y-7.2278
X7.1909Y-7.9152
X7.1909Y-8.0152
X7.1909Y-8.7026
X7.1909Y-8.8026
X7.1909Y-9.49
X7.1909Y-9.59
X7.1909Y-10.2774
X7.1909Y-10.3774
X7.1909Y-11.0648
X7.1909Y-11.1648
X7.1909Y-11.8522
X7.1909Y-11.9522
X7.1909Y-12.6396
X7.1909Y-12.7396
X7.1909Y-13.427
X7.1909Y-13.527
X7.1909Y-14.2144
X7.1909Y-14.3144
X7.1909Y-15.0018
X7.1909Y-15.1018
X7.1909Y-15.7892
X7.1909Y-15.8892
X7.1909Y-16.5766
X7.1909Y-16.6766
X7.2909Y-1.616
X7.2909Y-1.716
X7.2909Y-2.4034
X7.2909Y-2.5034
X7.2909Y-3.1908
X7.2909Y-3.2908
X7.2909Y-3.9782
X7.2909Y-4.0782
X7.2909Y-4.7656
X7.2909Y-4.8656
X7.2909Y-5.553
X7.2909Y-5.653
X7.2909Y-6.3404
X7.2909Y-6.4404
X7.2909Y-7.1278
X7.2909Y-7.2278
X7.2909Y-7.9152
X7.2909Y-8.0152
X7.2909Y-8.7026
X7.2909Y-8.8026
X7.2909Y-9.49
X7.2909Y-9.59
X7.2909Y-10.2774
X7.2909Y-10.3774
X7.2909Y-11.0648
X7.2909Y-11.1648
X7.2909Y-11.8522
X7.2909Y-11.9522
X7.2909Y-12.6396
X7.2909Y-12.7396
X7.2909Y-13.427
X7.2909Y-13.527
X7.2909Y-14.2144
X7.2909Y-14.3144
X7.2909Y-15.0018
X7.2909Y-15.1018
X7.2909Y-15.7892
X7.2909Y-15.8892
X7.2909Y-16.5766
X7.2909Y-16.6766
X7.3909Y-1.616
X7.3909Y-1.716
X7.3909Y-2.4034
X7.3909Y-2.5034
X7.3909Y-3.1908
X7.3909Y-3.2908
X7.3909Y-3.9782
X7.3909Y-4.0782
X7.3909Y-4.7656
X7.3909Y-4.8656
X7.3909Y-5.553
X7.3909Y-5.653
X7.3909Y-6.3404
X7.3909Y-6.4404
X7.3909Y-7.1278
X7.3909Y-7.2278
X7.3909Y-7.9152
X7.3909Y-8.0152
X7.3909Y-8.7026
X7.3909Y-8.8026
X7.3909Y-9.49
X7.3909Y-9.59
X7.3909Y-10.2774
X7.3909Y-10.3774
X7.3909Y-11.0648
X7.3909Y-11.1648
X7.3909Y-11.8522
X7.3909Y-11.9522
X7.3909Y-12.6396
X7.3909Y-12.7396
X7.3909Y-13.427
X7.3909Y-13.527
X7.3909Y-14.2144
X7.3909Y-14.3144
X7.3909Y-15.0018
X7.3909Y-15.1018
X7.3909Y-15.7892
X7.3909Y-15.8892
X7.3909Y-16.5766
X7.3909Y-16.6766
X7.4909Y-1.616
X7.4909Y-1.716
X7.4909Y-2.4034
X7.4909Y-2.5034
X7.4909Y-3.1908
X7.4909Y-3.2908
X7.4909Y-3.9782
X7.4909Y-4.0782
X7.4909Y-4.7656
X7.4909Y-4.8656
X7.4909Y-5.553
X7.4909Y-5.653
X7.4909Y-6.3404
X7.4909Y-6.4404
X7.4909Y-7.1278
X7.4909Y-7.2278
X7.4909Y-7.9152
X7.4909Y-8.0152
X7.4909Y-8.7026
X7.4909Y-8.8026
X7.4909Y-9.49
X7.4909Y-9.59
X7.4909Y-10.2774
X7.4909Y-10.3774
X7.4909Y-11.0648
X7.4909Y-11.1648
X7.4909Y-11.8522
X7.4909Y-11.9522
X7.4909Y-12.6396
X7.4909Y-12.7396
X7.4909Y-13.427
X7.4909Y-13.527
X7.4909Y-14.2144
X7.4909Y-14.3144
X7.4909Y-15.0018
X7.4909Y-15.1018
X7.4909Y-15.7892
X7.4909Y-15.8892
X7.4909Y-16.5766
X7.4909Y-16.6766
X7.5909Y-1.616
X7.5909Y-1.716
X7.5909Y-2.4034
X7.5909Y-2.5034
X7.5909Y-3.1908
X7.5909Y-3.2908
X7.5909Y-3.9782
X7.5909Y-4.0782
X7.5909Y-4.7656
X7.5909Y-4.8656
X7.5909Y-5.553
X7.5909Y-5.653
X7.5909Y-6.3404
X7.5909Y-6.4404
X7.5909Y-7.1278
X7.5909Y-7.2278
X7.5909Y-7.9152
X7.5909Y-8.0152
X7.5909Y-8.7026
X7.5909Y-8.8026
X7.5909Y-9.49
X7.5909Y-9.59
X7.5909Y-10.2774
X7.5909Y-10.3774
X7.5909Y-11.0648
X7.5909Y-11.1648
X7.5909Y-11.8522
X7.5909Y-11.9522
X7.5909Y-12.6396
X7.5909Y-12.7396
X7.5909Y-13.427
X7.5909Y-13.527
X7.5909Y-14.2144
X7.5909Y-14.3144
X7.5909Y-15.0018
X7.5909Y-15.1018
X7.5909Y-15.7892
X7.5909Y-15.8892
X7.5909Y-16.5766
X7.5909Y-16.6766
X7.6909Y-1.616
X7.6909Y-1.716
X7.6909Y-2.4034
X7.6909Y-2.5034
X7.6909Y-3.1908
X7.6909Y-3.2908
X7.6909Y-3.9782
X7.6909Y-4.0782
X7.6909Y-4.7656
X7.6909Y-4.8656
X7.6909Y-5.553
X7.6909Y-5.653
X7.6909Y-6.3404
X7.6909Y-6.4404
X7.6909Y-7.1278
X7.6909Y-7.2278
X7.6909Y-7.9152
X7.6909Y-8.0152
X7.6909Y-8.7026
X7.6909Y-8.8026
X7.6909Y-9.49
X7.6909Y-9.59
X7.6909Y-10.2774
X7.6909Y-10.3774
X7.6909Y-11.0648
X7.6909Y-11.1648
X7.6909Y-11.8522
X7.6909Y-11.9522
X7.6909Y-12.6396
X7.6909Y-12.7396
X7.6909Y-13.427
X7.6909Y-13.527
X7.6909Y-14.2144
X7.6909Y-14.3144
X7.6909Y-15.0018
X7.6909Y-15.1018
X7.6909Y-15.7892
X7.6909Y-15.8892
X7.6909Y-16.5766
X7.6909Y-16.6766
X7.7909Y-1.616
X7.7909Y-1.716
X7.7909Y-2.4034
X7.7909Y-2.5034
X7.7909Y-3.1908
X7.7909Y-3.2908
X7.7909Y-3.9782
X7.7909Y-4.0782
X7.7909Y-4.7656
X7.7909Y-4.8656
X7.7909Y-5.553
X7.7909Y-5.653
X7.7909Y-6.3404
X7.7909Y-6.4404
X7.7909Y-7.1278
X7.7909Y-7.2278
X7.7909Y-7.9152
X7.7909Y-8.0152
X7.7909Y-8.7026
X7.7909Y-8.8026
X7.7909Y-9.49
X7.7909Y-9.59
X7.7909Y-10.2774
X7.7909Y-10.3774
X7.7909Y-11.0648
X7.7909Y-11.1648
X7.7909Y-11.8522
X7.7909Y-11.9522
X7.7909Y-12.6396
X7.7909Y-12.7396
X7.7909Y-13.427
X7.7909Y-13.527
X7.7909Y-14.2144
X7.7909Y-14.3144
X7.7909Y-15.0018
X7.7909Y-15.1018
X7.7909Y-15.7892
X7.7909Y-15.8892
X7.7909Y-16.5766
X7.7909Y-16.6766
X7.8909Y-1.616
X7.8909Y-1.716
X7.8909Y-2.4034
X7.8909Y-2.5034
X7.8909Y-3.1908
X7.8909Y-3.2908
X7.8909Y-3.9782
X7.8909Y-4.0782
X7.8909Y-4.7656
X7.8909Y-4.8656
X7.8909Y-5.553
X7.8909Y-5.653
X7.8909Y-6.3404
X7.8909Y-6.4404
X7.8909Y-7.1278
X7.8909Y-7.2278
X7.8909Y-7.9152
X7.8909Y-8.0152
X7.8909Y-8.7026
X7.8909Y-8.8026
X7.8909Y-9.49
X7.8909Y-9.59
X7.8909Y-10.2774
X7.8909Y-10.3774
X7.8909Y-11.0648
X7.8909Y-11.1648
X7.8909Y-11.8522
X7.8909Y-11.9522
X7.8909Y-12.6396
X7.8909Y-12.7396
X7.8909Y-13.427
X7.8909Y-13.527
X7.8909Y-14.2144
X7.8909Y-14.3144
X7.8909Y-15.0018
X7.8909Y-15.1018
X7.8909Y-15.7892
X7.8909Y-15.8892
X7.8909Y-16.5766
X7.8909Y-16.6766
X7.9909Y-1.616
X7.9909Y-1.716
X7.9909Y-2.4034
X7.9909Y-2.5034
X7.9909Y-3.1908
X7.9909Y-3.2908
X7.9909Y-3.9782
X7.9909Y-4.0782
X7.9909Y-4.7656
X7.9909Y-4.8656
X7.9909Y-5.553
X7.9909Y-5.653
X7.9909Y-6.3404
X7.9909Y-6.4404
X7.9909Y-7.1278
X7.9909Y-7.2278
X7.9909Y-7.9152
X7.9909Y-8.0152
X7.9909Y-8.7026
X7.9909Y-8.8026
X7.9909Y-9.49
X7.9909Y-9.59
X7.9909Y-10.2774
X7.9909Y-10.3774
X7.9909Y-11.0648
X7.9909Y-11.1648
X7.9909Y-11.8522
X7.9909Y-11.9522
X7.9909Y-12.6396
X7.9909Y-12.7396
X7.9909Y-13.427
X7.9909Y-13.527
X7.9909Y-14.2144
X7.9909Y-14.3144
X7.9909Y-15.0018
X7.9909Y-15.1018
X7.9909Y-15.7892
X7.9909Y-15.8892
X7.9909Y-16.5766
X7.9909Y-16.6766
X8.583Y-1.616
X8.583Y-1.716
X8.583Y-2.4034
X8.583Y-2.5034
X8.583Y-3.1908
X8.583Y-3.2908
X8.583Y-3.9782
X8.583Y-4.0782
X8.583Y-4.7656
X8.583Y-4.8656
X8.583Y-5.553
X8.583Y-5.653
X8.583Y-6.3404
X8.583Y-6.4404
X8.583Y-7.1278
X8.583Y-7.2278
X8.583Y-7.9152
X8.583Y-8.0152
X8.583Y-8.7026
X8.583Y-8.8026
X8.583Y-9.49
X8.583Y-9.59
X8.583Y-10.2774
X8.583Y-10.3774
X8.583Y-11.0648
X8.583Y-11.1648
X8.583Y-11.8522
X8.583Y-11.9522
X8.583Y-12.6396
X8.583Y-12.7396
X8.583Y-13.427
X8.583Y-13.527
X8.583Y-14.2144
X8.583Y-14.3144
X8.583Y-15.0018
X8.583Y-15.1018
X8.583Y-15.7892
X8.583Y-15.8892
X8.583Y-16.5766
X8.583Y-16.6766
X8.683Y-1.616
X8.683Y-1.716
X8.683Y-2.4034
X8.683Y-2.5034
X8.683Y-3.1908
X8.683Y-3.2908
X8.683Y-3.9782
X8.683Y-4.0782
X8.683Y-4.7656
X8.683Y-4.8656
X8.683Y-5.553
X8.683Y-5.653
X8.683Y-6.3404
X8.683Y-6.4404
X8.683Y-7.1278
X8.683Y-7.2278
X8.683Y-7.9152
X8.683Y-8.0152
X8.683Y-8.7026
X8.683Y-8.8026
X8.683Y-9.49
X8.683Y-9.59
X8.683Y-10.2774
X8.683Y-10.3774
X8.683Y-11.0648
X8.683Y-11.1648
X8.683Y-11.8522
X8.683Y-11.9522
X8.683Y-12.6396
X8.683Y-12.7396
X8.683Y-13.427
X8.683Y-13.527
X8.683Y-14.2144
X8.683Y-14.3144
X8.683Y-15.0018
X8.683Y-15.1018
X8.683Y-15.7892
X8.683Y-15.8892
X8.683Y-16.5766
X8.683Y-16.6766
X8.783Y-1.616
X8.783Y-1.716
X8.783Y-2.4034
X8.783Y-2.5034
X8.783Y-3.1908
X8.783Y-3.2908
X8.783Y-3.9782
X8.783Y-4.0782
X8.783Y-4.7656
X8.783Y-4.8656
X8.783Y-5.553
X8.783Y-5.653
X8.783Y-6.3404
X8.783Y-6.4404
X8.783Y-7.1278
X8.783Y-7.2278
X8.783Y-7.9152
X8.783Y-8.0152
X8.783Y-8.7026
X8.783Y-8.8026
X8.783Y-9.49
X8.783Y-9.59
X8.783Y-10.2774
X8.783Y-10.3774
X8.783Y-11.0648
X8.783Y-11.1648
X8.783Y-11.8522
X8.783Y-11.9522
X8.783Y-12.6396
X8.783Y-12.7396
X8.783Y-13.427
X8.783Y-13.527
X8.783Y-14.2144
X8.783Y-14.3144
X8.783Y-15.0018
X8.783Y-15.1018
X8.783Y-15.7892
X8.783Y-15.8892
X8.783Y-16.5766
X8.783Y-16.6766
X8.883Y-1.616
X8.883Y-1.716
X8.883Y-2.4034
X8.883Y-2.5034
X8.883Y-3.1908
X8.883Y-3.2908
X8.883Y-3.9782
X8.883Y-4.0782
X8.883Y-4.7656
X8.883Y-4.8656
X8.883Y-5.553
X8.883Y-5.653
X8.883Y-6.3404
X8.883Y-6.4404
X8.883Y-7.1278
X8.883Y-7.2278
X8.883Y-7.9152
X8.883Y-8.0152
X8.883Y-8.7026
X8.883Y-8.8026
X8.883Y-9.49
X8.883Y-9.59
X8.883Y-10.2774
X8.883Y-10.3774
X8.883Y-11.0648
X8.883Y-11.1648
X8.883Y-11.8522
X8.883Y-11.9522
X8.883Y-12.6396
X8.883Y-12.7396
X8.883Y-13.427
X8.883Y-13.527
X8.883Y-14.2144
X8.883Y-14.3144
X8.883Y-15.0018
X8.883Y-15.1018
X8.883Y-15.7892
X8.883Y-15.8892
X8.883Y-16.5766
X8.883Y-16.6766
X8.983Y-1.616
X8.983Y-1.716
X8.983Y-2.4034
X8.983Y-2.5034
X8.983Y-3.1908
X8.983Y-3.2908
X8.983Y-3.9782
X8.983Y-4.0782
X8.983Y-4.7656
X8.983Y-4.8656
X8.983Y-5.553
X8.983Y-5.653
X8.983Y-6.3404
X8.983Y-6.4404
X8.983Y-7.1278
X8.983Y-7.2278
X8.983Y-7.9152
X8.983Y-8.0152
X8.983Y-8.7026
X8.983Y-8.8026
X8.983Y-9.49
X8.983Y-9.59
X8.983Y-10.2774
X8.983Y-10.3774
X8.983Y-11.0648
X8.983Y-11.1648
X8.983Y-11.8522
X8.983Y-11.9522
X8.983Y-12.6396
X8.983Y-12.7396
X8.983Y-13.427
X8.983Y-13.527
X8.983Y-14.2144
X8.983Y-14.3144
X8.983Y-15.0018
X8.983Y-15.1018
X8.983Y-15.7892
X8.983Y-15.8892
X8.983Y-16.5766
X8.983Y-16.6766
X9.083Y-1.616
X9.083Y-1.716
X9.083Y-2.4034
X9.083Y-2.5034
X9.083Y-3.1908
X9.083Y-3.2908
X9.083Y-3.9782
X9.083Y-4.0782
X9.083Y-4.7656
X9.083Y-4.8656
X9.083Y-5.553
X9.083Y-5.653
X9.083Y-6.3404
X9.083Y-6.4404
X9.083Y-7.1278
X9.083Y-7.2278
X9.083Y-7.9152
X9.083Y-8.0152
X9.083Y-8.7026
X9.083Y-8.8026
X9.083Y-9.49
X9.083Y-9.59
X9.083Y-10.2774
X9.083Y-10.3774
X9.083Y-11.0648
X9.083Y-11.1648
X9.083Y-11.8522
X9.083Y-11.9522
X9.083Y-12.6396
X9.083Y-12.7396
X9.083Y-13.427
X9.083Y-13.527
X9.083Y-14.2144
X9.083Y-14.3144
X9.083Y-15.0018
X9.083Y-15.1018
X9.083Y-15.7892
X9.083Y-15.8892
X9.083Y-16.5766
X9.083Y-16.6766
X9.183Y-1.616
X9.183Y-1.716
X9.183Y-2.4034
X9.183Y-2.5034
X9.183Y-3.1908
X9.183Y-3.2908
X9.183Y-3.9782
X9.183Y-4.0782
X9.183Y-4.7656
X9.183Y-4.8656
X9.183Y-5.553
X9.183Y-5.653
X9.183Y-6.3404
X9.183Y-6.4404
X9.183Y-7.1278
X9.183Y-7.2278
X9.183Y-7.9152
X9.183Y-8.0152
X9.183Y-8.7026
X9.183Y-8.8026
X9.183Y-9.49
X9.183Y-9.59
X9.183Y-10.2774
X9.183Y-10.3774
X9.183Y-11.0648
X9.183Y-11.1648
X9.183Y-11.8522
X9.183Y-11.9522
X9.183Y-12.6396
X9.183Y-12.7396
X9.183Y-13.427
X9.183Y-13.527
X9.183Y-14.2144
X9.183Y-14.3144
X9.183Y-15.0018
X9.183Y-15.1018
X9.183Y-15.7892
X9.183Y-15.8892
X9.183Y-16.5766
X9.183Y-16.6766
X9.283Y-1.616
X9.283Y-1.716
X9.283Y-2.4034
X9.283Y-2.5034
X9.283Y-3.1908
X9.283Y-3.2908
X9.283Y-3.9782
X9.283Y-4.0782
X9.283Y-4.7656
X9.283Y-4.8656
X9.283Y-5.553
X9.283Y-5.653
X9.283Y-6.3404
X9.283Y-6.4404
X9.283Y-7.1278
X9.283Y-7.2278
X9.283Y-7.9152
X9.283Y-8.0152
X9.283Y-8.7026
X9.283Y-8.8026
X9.283Y-9.49
X9.283Y-9.59
X9.283Y-10.2774
X9.283Y-10.3774
X9.283Y-11.0648
X9.283Y-11.1648
X9.283Y-11.8522
X9.283Y-11.9522
X9.283Y-12.6396
X9.283Y-12.7396
X9.283Y-13.427
X9.283Y-13.527
X9.283Y-14.2144
X9.283Y-14.3144
X9.283Y-15.0018
X9.283Y-15.1018
X9.283Y-15.7892
X9.283Y-15.8892
X9.283Y-16.5766
X9.283Y-16.6766
X9.383Y-1.616
X9.383Y-1.716
X9.383Y-2.4034
X9.383Y-2.5034
X9.383Y-3.1908
X9.383Y-3.2908
X9.383Y-3.9782
X9.383Y-4.0782
X9.383Y-4.7656
X9.383Y-4.8656
X9.383Y-5.553
X9.383Y-5.653
X9.383Y-6.3404
X9.383Y-6.4404
X9.383Y-7.1278
X9.383Y-7.2278
X9.383Y-7.9152
X9.383Y-8.0152
X9.383Y-8.7026
X9.383Y-8.8026
X9.383Y-9.49
X9.383Y-9.59
X9.383Y-10.2774
X9.383Y-10.3774
X9.383Y-11.0648
X9.383Y-11.1648
X9.383Y-11.8522
X9.383Y-11.9522
X9.383Y-12.6396
X9.383Y-12.7396
X9.383Y-13.427
X9.383Y-13.527
X9.383Y-14.2144
X9.383Y-14.3144
X9.383Y-15.0018
X9.383Y-15.1018
X9.383Y-15.7892
X9.383Y-15.8892
X9.383Y-16.5766
X9.383Y-16.6766
X9.483Y-1.616
X9.483Y-1.716
X9.483Y-2.4034
X9.483Y-2.5034
X9.483Y-3.1908
X9.483Y-3.2908
X9.483Y-3.9782
X9.483Y-4.0782
X9.483Y-4.7656
X9.483Y-4.8656
X9.483Y-5.553
X9.483Y-5.653
X9.483Y-6.3404
X9.483Y-6.4404
X9.483Y-7.1278
X9.483Y-7.2278
X9.483Y-7.9152
X9.483Y-8.0152
X9.483Y-8.7026
X9.483Y-8.8026
X9.483Y-9.49
X9.483Y-9.59
X9.483Y-10.2774
X9.483Y-10.3774
X9.483Y-11.0648
X9.483Y-11.1648
X9.483Y-11.8522
X9.483Y-11.9522
X9.483Y-12.6396
X9.483Y-12.7396
X9.483Y-13.427
X9.483Y-13.527
X9.483Y-14.2144
X9.483Y-14.3144
X9.483Y-15.0018
X9.483Y-15.1018
X9.483Y-15.7892
X9.483Y-15.8892
X9.483Y-16.5766
X9.483Y-16.6766
X9.583Y-1.616
X9.583Y-1.716
X9.583Y-2.4034
X9.583Y-2.5034
X9.583Y-3.1908
X9.583Y-3.2908
X9.583Y-3.9782
X9.583Y-4.0782
X9.583Y-4.7656
X9.583Y-4.8656
X9.583Y-5.553
X9.583Y-5.653
X9.583Y-6.3404
X9.583Y-6.4404
X9.583Y-7.1278
X9.583Y-7.2278
X9.583Y-7.9152
X9.583Y-8.0152
X9.583Y-8.7026
X9.583Y-8.8026
X9.583Y-9.49
X9.583Y-9.59
X9.583Y-10.2774
X9.583Y-10.3774
X9.583Y-11.0648
X9.583Y-11.1648
X9.583Y-11.8522
X9.583Y-11.9522
X9.583Y-12.6396
X9.583Y-12.7396
X9.583Y-13.427
X9.583Y-13.527
X9.583Y-14.2144
X9.583Y-14.3144
X9.583Y-15.0018
X9.583Y-15.1018
X9.583Y-15.7892
X9.583Y-15.8892
X9.583Y-16.5766
X9.583Y-16.6766
X9.683Y-1.616
X9.683Y-1.716
X9.683Y-2.4034
X9.683Y-2.5034
X9.683Y-3.1908
X9.683Y-3.2908
X9.683Y-3.9782
X9.683Y-4.0782
X9.683Y-4.7656
X9.683Y-4.8656
X9.683Y-5.553
X9.683Y-5.653
X9.683Y-6.3404
X9.683Y-6.4404
X9.683Y-7.1278
X9.683Y-7.2278
X9.683Y-7.9152
X9.683Y-8.0152
X9.683Y-8.7026
X9.683Y-8.8026
X9.683Y-9.49
X9.683Y-9.59
X9.683Y-10.2774
X9.683Y-10.3774
X9.683Y-11.0648
X9.683Y-11.1648
X9.683Y-11.8522
X9.683Y-11.9522
X9.683Y-12.6396
X9.683Y-12.7396
X9.683Y-13.427
X9.683Y-13.527
X9.683Y-14.2144
X9.683Y-14.3144
X9.683Y-15.0018
X9.683Y-15.1018
X9.683Y-15.7892
X9.683Y-15.8892
X9.683Y-16.5766
X9.683Y-16.6766
X9.783Y-1.616
X9.783Y-1.716
X9.783Y-2.4034
X9.783Y-2.5034
X9.783Y-3.1908
X9.783Y-3.2908
X9.783Y-3.9782
X9.783Y-4.0782
X9.783Y-4.7656
X9.783Y-4.8656
X9.783Y-5.553
X9.783Y-5.653
X9.783Y-6.3404
X9.783Y-6.4404
X9.783Y-7.1278
X9.783Y-7.2278
X9.783Y-7.9152
X9.783Y-8.0152
X9.783Y-8.7026
X9.783Y-8.8026
X9.783Y-9.49
X9.783Y-9.59
X9.783Y-10.2774
X9.783Y-10.3774
X9.783Y-11.0648
X9.783Y-11.1648
X9.783Y-11.8522
X9.783Y-11.9522
X9.783Y-12.6396
X9.783Y-12.7396
X9.783Y-13.427
X9.783Y-13.527
X9.783Y-14.2144
X9.783Y-14.3144
X9.783Y-15.0018
X9.783Y-15.1018
X9.783Y-15.7892
X9.783Y-15.8892
X9.783Y-16.5766
X9.783Y-16.6766
X9.883Y-1.616
X9.883Y-1.716
X9.883Y-2.4034
X9.883Y-2.5034
X9.883Y-3.1908
X9.883Y-3.2908
X9.883Y-3.9782
X9.883Y-4.0782
X9.883Y-4.7656
X9.883Y-4.8656
X9.883Y-5.553
X9.883Y-5.653
X9.883Y-6.3404
X9.883Y-6.4404
X9.883Y-7.1278
X9.883Y-7.2278
X9.883Y-7.9152
X9.883Y-8.0152
X9.883Y-8.7026
X9.883Y-8.8026
X9.883Y-9.49
X9.883Y-9.59
X9.883Y-10.2774
X9.883Y-10.3774
X9.883Y-11.0648
X9.883Y-11.1648
X9.883Y-11.8522
X9.883Y-11.9522
X9.883Y-12.6396
X9.883Y-12.7396
X9.883Y-13.427
X9.883Y-13.527
X9.883Y-14.2144
X9.883Y-14.3144
X9.883Y-15.0018
X9.883Y-15.1018
X9.883Y-15.7892
X9.883Y-15.8892
X9.883Y-16.5766
X9.883Y-16.6766
X9.983Y-1.616
X9.983Y-1.716
X9.983Y-2.4034
X9.983Y-2.5034
X9.983Y-3.1908
X9.983Y-3.2908
X9.983Y-3.9782
X9.983Y-4.0782
X9.983Y-4.7656
X9.983Y-4.8656
X9.983Y-5.553
X9.983Y-5.653
X9.983Y-6.3404
X9.983Y-6.4404
X9.983Y-7.1278
X9.983Y-7.2278
X9.983Y-7.9152
X9.983Y-8.0152
X9.983Y-8.7026
X9.983Y-8.8026
X9.983Y-9.49
X9.983Y-9.59
X9.983Y-10.2774
X9.983Y-10.3774
X9.983Y-11.0648
X9.983Y-11.1648
X9.983Y-11.8522
X9.983Y-11.9522
X9.983Y-12.6396
X9.983Y-12.7396
X9.983Y-13.427
X9.983Y-13.527
X9.983Y-14.2144
X9.983Y-14.3144
X9.983Y-15.0018
X9.983Y-15.1018
X9.983Y-15.7892
X9.983Y-15.8892
X9.983Y-16.5766
X9.983Y-16.6766
X10.083Y-1.616
X10.083Y-1.716
X10.083Y-2.4034
X10.083Y-2.5034
X10.083Y-3.1908
X10.083Y-3.2908
X10.083Y-3.9782
X10.083Y-4.0782
X10.083Y-4.7656
X10.083Y-4.8656
X10.083Y-5.553
X10.083Y-5.653
X10.083Y-6.3404
X10.083Y-6.4404
X10.083Y-7.1278
X10.083Y-7.2278
X10.083Y-7.9152
X10.083Y-8.0152
X10.083Y-8.7026
X10.083Y-8.8026
X10.083Y-9.49
X10.083Y-9.59
X10.083Y-10.2774
X10.083Y-10.3774
X10.083Y-11.0648
X10.083Y-11.1648
X10.083Y-11.8522
X10.083Y-11.9522
X10.083Y-12.6396
X10.083Y-12.7396
X10.083Y-13.427
X10.083Y-13.527
X10.083Y-14.2144
X10.083Y-14.3144
X10.083Y-15.0018
X10.083Y-15.1018
X10.083Y-15.7892
X10.083Y-15.8892
X10.083Y-16.5766
X10.083Y-16.6766
X10.183Y-1.616
X10.183Y-1.716
X10.183Y-2.4034
X10.183Y-2.5034
X10.183Y-3.1908
X10.183Y-3.2908
X10.183Y-3.9782
X10.183Y-4.0782
X10.183Y-4.7656
X10.183Y-4.8656
X10.183Y-5.553
X10.183Y-5.653
X10.183Y-6.3404
X10.183Y-6.4404
X10.183Y-7.1278
X10.183Y-7.2278
X10.183Y-7.9152
X10.183Y-8.0152
X10.183Y-8.7026
X10.183Y-8.8026
X10.183Y-9.49
X10.183Y-9.59
X10.183Y-10.2774
X10.183Y-10.3774
X10.183Y-11.0648
X10.183Y-11.1648
X10.183Y-11.8522
X10.183Y-11.9522
X10.183Y-12.6396
X10.183Y-12.7396
X10.183Y-13.427
X10.183Y-13.527
X10.183Y-14.2144
X10.183Y-14.3144
X10.183Y-15.0018
X10.183Y-15.1018
X10.183Y-15.7892
X10.183Y-15.8892
X10.183Y-16.5766
X10.183Y-16.6766
X10.283Y-1.616
X10.283Y-1.716
X10.283Y-2.4034
X10.283Y-2.5034
X10.283Y-3.1908
X10.283Y-3.2908
X10.283Y-3.9782
X10.283Y-4.0782
X10.283Y-4.7656
X10.283Y-4.8656
X10.283Y-5.553
X10.283Y-5.653
X10.283Y-6.3404
X10.283Y-6.4404
X10.283Y-7.1278
X10.283Y-7.2278
X10.283Y-7.9152
X10.283Y-8.0152
X10.283Y-8.7026
X10.283Y-8.8026
X10.283Y-9.49
X10.283Y-9.59
X10.283Y-10.2774
X10.283Y-10.3774
X10.283Y-11.0648
X10.283Y-11.1648
X10.283Y-11.8522
X10.283Y-11.9522
X10.283Y-12.6396
X10.283Y-12.7396
X10.283Y-13.427
X10.283Y-13.527
X10.283Y-14.2144
X10.283Y-14.3144
X10.283Y-15.0018
X10.283Y-15.1018
X10.283Y-15.7892
X10.283Y-15.8892
X10.283Y-16.5766
X10.283Y-16.6766
X10.383Y-1.616
X10.383Y-1.716
X10.383Y-2.4034
X10.383Y-2.5034
X10.383Y-3.1908
X10.383Y-3.2908
X10.383Y-3.9782
X10.383Y-4.0782
X10.383Y-4.7656
X10.383Y-4.8656
X10.383Y-5.553
X10.383Y-5.653
X10.383Y-6.3404
X10.383Y-6.4404
X10.383Y-7.1278
X10.383Y-7.2278
X10.383Y-7.9152
X10.383Y-8.0152
X10.383Y-8.7026
X10.383Y-8.8026
X10.383Y-9.49
X10.383Y-9.59
X10.383Y-10.2774
X10.383Y-10.3774
X10.383Y-11.0648
X10.383Y-11.1648
X10.383Y-11.8522
X10.383Y-11.9522
X10.383Y-12.6396
X10.383Y-12.7396
X10.383Y-13.427
X10.383Y-13.527
X10.383Y-14.2144
X10.383Y-14.3144
X10.383Y-15.0018
X10.383Y-15.1018
X10.383Y-15.7892
X10.383Y-15.8892
X10.383Y-16.5766
X10.383Y-16.6766
X10.483Y-1.616
X10.483Y-1.716
X10.483Y-2.4034
X10.483Y-2.5034
X10.483Y-3.1908
X10.483Y-3.2908
X10.483Y-3.9782
X10.483Y-4.0782
X10.483Y-4.7656
X10.483Y-4.8656
X10.483Y-5.553
X10.483Y-5.653
X10.483Y-6.3404
X10.483Y-6.4404
X10.483Y-7.1278
X10.483Y-7.2278
X10.483Y-7.9152
X10.483Y-8.0152
X10.483Y-8.7026
X10.483Y-8.8026
X10.483Y-9.49
X10.483Y-9.59
X10.483Y-10.2774
X10.483Y-10.3774
X10.483Y-11.0648
X10.483Y-11.1648
X10.483Y-11.8522
X10.483Y-11.9522
X10.483Y-12.6396
X10.483Y-12.7396
X10.483Y-13.427
X10.483Y-13.527
X10.483Y-14.2144
X10.483Y-14.3144
X10.483Y-15.0018
X10.483Y-15.1018
X10.483Y-15.7892
X10.483Y-15.8892
X10.483Y-16.5766
X10.483Y-16.6766
X10.583Y-1.616
X10.583Y-1.716
X10.583Y-2.4034
X10.583Y-2.5034
X10.583Y-3.1908
X10.583Y-3.2908
X10.583Y-3.9782
X10.583Y-4.0782
X10.583Y-4.7656
X10.583Y-4.8656
X10.583Y-5.553
X10.583Y-5.653
X10.583Y-6.3404
X10.583Y-6.4404
X10.583Y-7.1278
X10.583Y-7.2278
X10.583Y-7.9152
X10.583Y-8.0152
X10.583Y-8.7026
X10.583Y-8.8026
X10.583Y-9.49
X10.583Y-9.59
X10.583Y-10.2774
X10.583Y-10.3774
X10.583Y-11.0648
X10.583Y-11.1648
X10.583Y-11.8522
X10.583Y-11.9522
X10.583Y-12.6396
X10.583Y-12.7396
X10.583Y-13.427
X10.583Y-13.527
X10.583Y-14.2144
X10.583Y-14.3144
X10.583Y-15.0018
X10.583Y-15.1018
X10.583Y-15.7892
X10.583Y-15.8892
X10.583Y-16.5766
X10.583Y-16.6766
X10.683Y-1.616
X10.683Y-1.716
X10.683Y-2.4034
X10.683Y-2.5034
X10.683Y-3.1908
X10.683Y-3.2908
X10.683Y-3.9782
X10.683Y-4.0782
X10.683Y-4.7656
X10.683Y-4.8656
X10.683Y-5.553
X10.683Y-5.653
X10.683Y-6.3404
X10.683Y-6.4404
X10.683Y-7.1278
X10.683Y-7.2278
X10.683Y-7.9152
X10.683Y-8.0152
X10.683Y-8.7026
X10.683Y-8.8026
X10.683Y-9.49
X10.683Y-9.59
X10.683Y-10.2774
X10.683Y-10.3774
X10.683Y-11.0648
X10.683Y-11.1648
X10.683Y-11.8522
X10.683Y-11.9522
X10.683Y-12.6396
X10.683Y-12.7396
X10.683Y-13.427
X10.683Y-13.527
X10.683Y-14.2144
X10.683Y-14.3144
X10.683Y-15.0018
X10.683Y-15.1018
X10.683Y-15.7892
X10.683Y-15.8892
X10.683Y-16.5766
X10.683Y-16.6766
X10.783Y-1.616
X10.783Y-1.716
X10.783Y-2.4034
X10.783Y-2.5034
X10.783Y-3.1908
X10.783Y-3.2908
X10.783Y-3.9782
X10.783Y-4.0782
X10.783Y-4.7656
X10.783Y-4.8656
X10.783Y-5.553
X10.783Y-5.653
X10.783Y-6.3404
X10.783Y-6.4404
X10.783Y-7.1278
X10.783Y-7.2278
X10.783Y-7.9152
X10.783Y-8.0152
X10.783Y-8.7026
X10.783Y-8.8026
X10.783Y-9.49
X10.783Y-9.59
X10.783Y-10.2774
X10.783Y-10.3774
X10.783Y-11.0648
X10.783Y-11.1648
X10.783Y-11.8522
X10.783Y-11.9522
X10.783Y-12.6396
X10.783Y-12.7396
X10.783Y-13.427
X10.783Y-13.527
X10.783Y-14.2144
X10.783Y-14.3144
X10.783Y-15.0018
X10.783Y-15.1018
X10.783Y-15.7892
X10.783Y-15.8892
X10.783Y-16.5766
X10.783Y-16.6766
X10.883Y-1.616
X10.883Y-1.716
X10.883Y-2.4034
X10.883Y-2.5034
X10.883Y-3.1908
X10.883Y-3.2908
X10.883Y-3.9782
X10.883Y-4.0782
X10.883Y-4.7656
X10.883Y-4.8656
X10.883Y-5.553
X10.883Y-5.653
X10.883Y-6.3404
X10.883Y-6.4404
X10.883Y-7.1278
X10.883Y-7.2278
X10.883Y-7.9152
X10.883Y-8.0152
X10.883Y-8.7026
X10.883Y-8.8026
X10.883Y-9.49
X10.883Y-9.59
X10.883Y-10.2774
X10.883Y-10.3774
X10.883Y-11.0648
X10.883Y-11.1648
X10.883Y-11.8522
X10.883Y-11.9522
X10.883Y-12.6396
X10.883Y-12.7396
X10.883Y-13.427
X10.883Y-13.527
X10.883Y-14.2144
X10.883Y-14.3144
X10.883Y-15.0018
X10.883Y-15.1018
X10.883Y-15.7892
X10.883Y-15.8892
X10.883Y-16.5766
X10.883Y-16.6766
X10.983Y-1.616
X10.983Y-1.716
X10.983Y-2.4034
X10.983Y-2.5034
X10.983Y-3.1908
X10.983Y-3.2908
X10.983Y-3.9782
X10.983Y-4.0782
X10.983Y-4.7656
X10.983Y-4.8656
X10.983Y-5.553
X10.983Y-5.653
X10.983Y-6.3404
X10.983Y-6.4404
X10.983Y-7.1278
X10.983Y-7.2278
X10.983Y-7.9152
X10.983Y-8.0152
X10.983Y-8.7026
X10.983Y-8.8026
X10.983Y-9.49
X10.983Y-9.59
X10.983Y-10.2774
X10.983Y-10.3774
X10.983Y-11.0648
X10.983Y-11.1648
X10.983Y-11.8522
X10.983Y-11.9522
X10.983Y-12.6396
X10.983Y-12.7396
X10.983Y-13.427
X10.983Y-13.527
X10.983Y-14.2144
X10.983Y-14.3144
X10.983Y-15.0018
X10.983Y-15.1018
X10.983Y-15.7892
X10.983Y-15.8892
X10.983Y-16.5766
X10.983Y-16.6766
T4
X6.3933Y-1.027
X6.5933Y-1.027
X7.0626Y-1.027
X7.2626Y-1.027
T5
X2.4004Y-0.968
X2.4004Y-4.1963
X2.4004Y-7.4247
X2.4004Y-10.653
X2.4004Y-13.8814
X2.4004Y-17.1097
X5.33Y-3.2121
X5.33Y-4.3932
X5.33Y-5.5743
X5.33Y-6.7554
X5.33Y-7.9365
X5.33Y-9.1176
X5.33Y-10.2987
X5.33Y-11.4798
X5.33Y-12.6609
X5.33Y-13.842
X5.33Y-15.0231
X5.33Y-16.2042
X5.3334Y-2.031
X8.2862Y-2.031
X8.2862Y-3.2121
X8.2862Y-4.3932
X8.2862Y-5.5743
X8.2862Y-6.7554
X8.2862Y-7.9365
X8.2862Y-9.1176
X8.2862Y-10.2987
X8.2862Y-11.4798
X8.2862Y-12.6609
X8.2862Y-13.842
X8.2862Y-15.0231
X8.2862Y-16.2042
X11.2586Y-0.968
X11.2586Y-4.1963
X11.2586Y-13.8814
X11.2586Y-17.1097
X11.301Y-7.4247
X11.301Y-10.653
T0
M30
