%TF.GenerationSoftware,KiCad,Pcbnew,(6.0.11)*%
%TF.CreationDate,2024-02-24T19:33:50-05:00*%
%TF.ProjectId,input-output.Multi,696e7075-742d-46f7-9574-7075742e4d75,rev?*%
%TF.SameCoordinates,Original*%
%TF.FileFunction,Copper,L2,Bot*%
%TF.FilePolarity,Positive*%
%FSLAX46Y46*%
G04 Gerber Fmt 4.6, Leading zero omitted, Abs format (unit mm)*
G04 Created by KiCad (PCBNEW (6.0.11)) date 2024-02-24 19:33:50*
%MOMM*%
%LPD*%
G01*
G04 APERTURE LIST*
G04 Aperture macros list*
%AMRoundRect*
0 Rectangle with rounded corners*
0 $1 Rounding radius*
0 $2 $3 $4 $5 $6 $7 $8 $9 X,Y pos of 4 corners*
0 Add a 4 corners polygon primitive as box body*
4,1,4,$2,$3,$4,$5,$6,$7,$8,$9,$2,$3,0*
0 Add four circle primitives for the rounded corners*
1,1,$1+$1,$2,$3*
1,1,$1+$1,$4,$5*
1,1,$1+$1,$6,$7*
1,1,$1+$1,$8,$9*
0 Add four rect primitives between the rounded corners*
20,1,$1+$1,$2,$3,$4,$5,0*
20,1,$1+$1,$4,$5,$6,$7,0*
20,1,$1+$1,$6,$7,$8,$9,0*
20,1,$1+$1,$8,$9,$2,$3,0*%
G04 Aperture macros list end*
%TA.AperFunction,ComponentPad*%
%ADD10C,1.600000*%
%TD*%
%TA.AperFunction,ComponentPad*%
%ADD11O,1.600000X1.600000*%
%TD*%
%TA.AperFunction,ComponentPad*%
%ADD12R,1.600000X1.600000*%
%TD*%
%TA.AperFunction,ComponentPad*%
%ADD13R,1.800000X1.800000*%
%TD*%
%TA.AperFunction,ComponentPad*%
%ADD14C,1.800000*%
%TD*%
%TA.AperFunction,ComponentPad*%
%ADD15C,6.400000*%
%TD*%
%TA.AperFunction,ComponentPad*%
%ADD16R,1.700000X1.700000*%
%TD*%
%TA.AperFunction,ComponentPad*%
%ADD17O,1.700000X1.700000*%
%TD*%
%TA.AperFunction,ComponentPad*%
%ADD18RoundRect,0.250000X0.600000X-0.600000X0.600000X0.600000X-0.600000X0.600000X-0.600000X-0.600000X0*%
%TD*%
%TA.AperFunction,ComponentPad*%
%ADD19C,1.700000*%
%TD*%
%TA.AperFunction,ComponentPad*%
%ADD20R,1.422400X1.422400*%
%TD*%
%TA.AperFunction,ComponentPad*%
%ADD21C,1.422400*%
%TD*%
%TA.AperFunction,ComponentPad*%
%ADD22R,1.800000X1.100000*%
%TD*%
%TA.AperFunction,ComponentPad*%
%ADD23RoundRect,0.275000X0.625000X-0.275000X0.625000X0.275000X-0.625000X0.275000X-0.625000X-0.275000X0*%
%TD*%
%TA.AperFunction,ComponentPad*%
%ADD24C,2.100000*%
%TD*%
%TA.AperFunction,ComponentPad*%
%ADD25C,1.750000*%
%TD*%
%TA.AperFunction,ComponentPad*%
%ADD26RoundRect,0.250000X-0.600000X0.600000X-0.600000X-0.600000X0.600000X-0.600000X0.600000X0.600000X0*%
%TD*%
%TA.AperFunction,ComponentPad*%
%ADD27C,1.500000*%
%TD*%
%TA.AperFunction,ComponentPad*%
%ADD28C,0.600000*%
%TD*%
%TA.AperFunction,WasherPad*%
%ADD29C,2.500000*%
%TD*%
%TA.AperFunction,ComponentPad*%
%ADD30C,2.794000*%
%TD*%
%TA.AperFunction,ViaPad*%
%ADD31C,0.800000*%
%TD*%
%TA.AperFunction,Conductor*%
%ADD32C,0.250000*%
%TD*%
%TA.AperFunction,Conductor*%
%ADD33C,1.000000*%
%TD*%
%TA.AperFunction,Conductor*%
%ADD34C,0.700000*%
%TD*%
G04 APERTURE END LIST*
%TO.C,NT2*%
G36*
X150300000Y-198350000D02*
G01*
X149700000Y-198350000D01*
X149700000Y-197150000D01*
X150300000Y-197150000D01*
X150300000Y-198350000D01*
G37*
%TO.C,NT5*%
G36*
X218800000Y-183650000D02*
G01*
X218200000Y-183650000D01*
X218200000Y-182450000D01*
X218800000Y-182450000D01*
X218800000Y-183650000D01*
G37*
%TO.C,NT6*%
G36*
X182300000Y-145000000D02*
G01*
X181700000Y-145000000D01*
X181700000Y-143800000D01*
X182300000Y-143800000D01*
X182300000Y-145000000D01*
G37*
%TO.C,NT1*%
G36*
X197850000Y-163100000D02*
G01*
X196650000Y-163100000D01*
X196650000Y-162500000D01*
X197850000Y-162500000D01*
X197850000Y-163100000D01*
G37*
%TO.C,NT3*%
G36*
X64550000Y-150850000D02*
G01*
X63950000Y-150850000D01*
X63950000Y-149650000D01*
X64550000Y-149650000D01*
X64550000Y-150850000D01*
G37*
%TO.C,NT4*%
G36*
X190300000Y-188000000D02*
G01*
X189700000Y-188000000D01*
X189700000Y-186800000D01*
X190300000Y-186800000D01*
X190300000Y-188000000D01*
G37*
%TD*%
D10*
%TO.P,R29,1*%
%TO.N,/DUART/TTL_RXB*%
X76900000Y-177710000D03*
D11*
%TO.P,R29,2*%
%TO.N,VCC*%
X76900000Y-170090000D03*
%TD*%
D10*
%TO.P,R27,1*%
%TO.N,/DUART/TTL_RXA*%
X72500000Y-113590000D03*
D11*
%TO.P,R27,2*%
%TO.N,VCC*%
X72500000Y-121210000D03*
%TD*%
D12*
%TO.P,C1,1*%
%TO.N,/DUART/~{TTL_RIA}*%
X45500000Y-102500000D03*
D10*
%TO.P,C1,2*%
%TO.N,GND*%
X48000000Y-102500000D03*
%TD*%
D12*
%TO.P,C21,1*%
%TO.N,/USB-SD/VBUS*%
X204500000Y-99000000D03*
D10*
%TO.P,C21,2*%
%TO.N,GND*%
X207000000Y-99000000D03*
%TD*%
D12*
%TO.P,C22,1*%
%TO.N,/USB-SD/VDD3*%
X212500000Y-98500000D03*
D10*
%TO.P,C22,2*%
%TO.N,GND*%
X215000000Y-98500000D03*
%TD*%
%TO.P,C23,1*%
%TO.N,/USB-SD/VDD3*%
X113625000Y-125550000D03*
%TO.P,C23,2*%
%TO.N,GND*%
X113625000Y-130550000D03*
%TD*%
%TO.P,C24,1*%
%TO.N,/USB-SD/VDD2*%
X184000000Y-136000000D03*
%TO.P,C24,2*%
%TO.N,GND*%
X184000000Y-141000000D03*
%TD*%
%TO.P,C25,1*%
%TO.N,VCC*%
X42750000Y-162650000D03*
%TO.P,C25,2*%
%TO.N,GND*%
X42750000Y-167650000D03*
%TD*%
%TO.P,C26,1*%
%TO.N,VCC*%
X87625000Y-125550000D03*
%TO.P,C26,2*%
%TO.N,GND*%
X87625000Y-130550000D03*
%TD*%
%TO.P,C27,1*%
%TO.N,VCC*%
X186000000Y-195750000D03*
%TO.P,C27,2*%
%TO.N,GND*%
X186000000Y-200750000D03*
%TD*%
%TO.P,C28,1*%
%TO.N,VCC*%
X71625000Y-158550000D03*
%TO.P,C28,2*%
%TO.N,GND*%
X71625000Y-163550000D03*
%TD*%
%TO.P,C29,1*%
%TO.N,VCC*%
X71625000Y-144550000D03*
%TO.P,C29,2*%
%TO.N,GND*%
X71625000Y-149550000D03*
%TD*%
%TO.P,C30,1*%
%TO.N,VCC*%
X112000000Y-174000000D03*
%TO.P,C30,2*%
%TO.N,GND*%
X112000000Y-179000000D03*
%TD*%
%TO.P,C32,1*%
%TO.N,VCC*%
X204000000Y-209000000D03*
%TO.P,C32,2*%
%TO.N,GND*%
X204000000Y-214000000D03*
%TD*%
%TO.P,C33,1*%
%TO.N,VCC*%
X151000000Y-209000000D03*
%TO.P,C33,2*%
%TO.N,GND*%
X151000000Y-214000000D03*
%TD*%
D12*
%TO.P,C34,1*%
%TO.N,VCC*%
X186500000Y-164550000D03*
D10*
%TO.P,C34,2*%
%TO.N,GND*%
X189000000Y-164550000D03*
%TD*%
D12*
%TO.P,C35,1*%
%TO.N,VCC*%
X68000000Y-209000000D03*
D10*
%TO.P,C35,2*%
%TO.N,GND*%
X70500000Y-209000000D03*
%TD*%
D12*
%TO.P,C45,1*%
%TO.N,VCC*%
X82625000Y-135550000D03*
D10*
%TO.P,C45,2*%
%TO.N,GND*%
X85125000Y-135550000D03*
%TD*%
%TO.P,C46,1*%
%TO.N,VCC*%
X117000000Y-209000000D03*
%TO.P,C46,2*%
%TO.N,GND*%
X117000000Y-214000000D03*
%TD*%
%TO.P,C47,1*%
%TO.N,VCC*%
X181000000Y-127000000D03*
%TO.P,C47,2*%
%TO.N,GND*%
X181000000Y-132000000D03*
%TD*%
%TO.P,C48,1*%
%TO.N,VCC*%
X42875000Y-174000000D03*
%TO.P,C48,2*%
%TO.N,GND*%
X42875000Y-179000000D03*
%TD*%
%TO.P,C49,1*%
%TO.N,VCC*%
X108500000Y-186250000D03*
%TO.P,C49,2*%
%TO.N,GND*%
X108500000Y-191250000D03*
%TD*%
%TO.P,C53,1*%
%TO.N,VCC*%
X95000000Y-168750000D03*
%TO.P,C53,2*%
%TO.N,GND*%
X100000000Y-168750000D03*
%TD*%
D12*
%TO.P,C54,1*%
%TO.N,VCC*%
X111000000Y-217000000D03*
D10*
%TO.P,C54,2*%
%TO.N,GND*%
X113500000Y-217000000D03*
%TD*%
D12*
%TO.P,C55,1*%
%TO.N,VCC*%
X68544900Y-170750000D03*
D10*
%TO.P,C55,2*%
%TO.N,GND*%
X71044900Y-170750000D03*
%TD*%
%TO.P,C56,1*%
%TO.N,VCC*%
X117000000Y-196000000D03*
%TO.P,C56,2*%
%TO.N,GND*%
X117000000Y-201000000D03*
%TD*%
%TO.P,C57,1*%
%TO.N,VCC*%
X105625000Y-144550000D03*
%TO.P,C57,2*%
%TO.N,GND*%
X105625000Y-149550000D03*
%TD*%
D12*
%TO.P,C65,1*%
%TO.N,VCC*%
X147000000Y-187000000D03*
D10*
%TO.P,C65,2*%
%TO.N,GND*%
X149500000Y-187000000D03*
%TD*%
D12*
%TO.P,C66,1*%
%TO.N,VCC*%
X130544900Y-136250000D03*
D10*
%TO.P,C66,2*%
%TO.N,GND*%
X133044900Y-136250000D03*
%TD*%
D12*
%TO.P,C72,1*%
%TO.N,VCC*%
X227000000Y-94000000D03*
D10*
%TO.P,C72,2*%
%TO.N,GND*%
X229500000Y-94000000D03*
%TD*%
D12*
%TO.P,C73,1*%
%TO.N,VDD1*%
X227000000Y-103000000D03*
D10*
%TO.P,C73,2*%
%TO.N,GND*%
X229500000Y-103000000D03*
%TD*%
D12*
%TO.P,D1,1,K*%
%TO.N,VCC*%
X63000000Y-95000000D03*
D11*
%TO.P,D1,2,A*%
%TO.N,/DUART/~{TTL_RIA}*%
X70620000Y-95000000D03*
%TD*%
D13*
%TO.P,D10,1,K*%
%TO.N,Net-(D10-Pad1)*%
X135000000Y-89000000D03*
D14*
%TO.P,D10,2,A*%
%TO.N,VDD1*%
X137540000Y-89000000D03*
%TD*%
D15*
%TO.P,H2,1,1*%
%TO.N,GND*%
X265000000Y-75000000D03*
%TD*%
D16*
%TO.P,J3,1,Pin_1*%
%TO.N,VCC*%
X65500000Y-101500000D03*
D17*
%TO.P,J3,2,Pin_2*%
%TO.N,Net-(J3-Pad2)*%
X68040000Y-101500000D03*
%TD*%
D18*
%TO.P,J6,1,Pin_1*%
%TO.N,GND*%
X112000000Y-84000000D03*
D19*
%TO.P,J6,2,Pin_2*%
X112000000Y-81460000D03*
%TO.P,J6,3,Pin_3*%
%TO.N,/DUART/~{TTL_RTSB}*%
X114540000Y-84000000D03*
%TO.P,J6,4,Pin_4*%
%TO.N,/DUART/~{TTL_RTSA}*%
X114540000Y-81460000D03*
%TO.P,J6,5,Pin_5*%
%TO.N,Net-(J3-Pad2)*%
X117080000Y-84000000D03*
%TO.P,J6,6,Pin_6*%
%TO.N,Net-(J4-Pad2)*%
X117080000Y-81460000D03*
%TO.P,J6,7,Pin_7*%
%TO.N,/DUART/TTL_RXB*%
X119620000Y-84000000D03*
%TO.P,J6,8,Pin_8*%
%TO.N,/DUART/TTL_RXA*%
X119620000Y-81460000D03*
%TO.P,J6,9,Pin_9*%
%TO.N,/DUART/TTL_TXB*%
X122160000Y-84000000D03*
%TO.P,J6,10,Pin_10*%
%TO.N,/DUART/TTL_TXA*%
X122160000Y-81460000D03*
%TO.P,J6,11,Pin_11*%
%TO.N,/DUART/~{TTL_CTSB}*%
X124700000Y-84000000D03*
%TO.P,J6,12,Pin_12*%
%TO.N,/DUART/~{TTL_CTSA}*%
X124700000Y-81460000D03*
%TD*%
D16*
%TO.P,JP1,1,A*%
%TO.N,GND*%
X55500000Y-95000000D03*
D17*
%TO.P,JP1,2,B*%
%TO.N,Net-(JP1-Pad2)*%
X58040000Y-95000000D03*
%TD*%
D18*
%TO.P,P4,1,Pin_1*%
%TO.N,unconnected-(P4-Pad1)*%
X88000000Y-84000000D03*
D19*
%TO.P,P4,2,Pin_2*%
%TO.N,unconnected-(P4-Pad2)*%
X88000000Y-81460000D03*
%TO.P,P4,3,Pin_3*%
%TO.N,/DUART/RXA*%
X90540000Y-84000000D03*
%TO.P,P4,4,Pin_4*%
%TO.N,/DUART/~{RTSA}*%
X90540000Y-81460000D03*
%TO.P,P4,5,Pin_5*%
%TO.N,/DUART/TXA*%
X93080000Y-84000000D03*
%TO.P,P4,6,Pin_6*%
%TO.N,/DUART/~{CTSA}*%
X93080000Y-81460000D03*
%TO.P,P4,7,Pin_7*%
%TO.N,/DUART/~{DTRA}*%
X95620000Y-84000000D03*
%TO.P,P4,8,Pin_8*%
%TO.N,unconnected-(P4-Pad8)*%
X95620000Y-81460000D03*
%TO.P,P4,9,Pin_9*%
%TO.N,GND*%
X98160000Y-84000000D03*
%TO.P,P4,10,Pin_10*%
%TO.N,unconnected-(P4-Pad10)*%
X98160000Y-81460000D03*
%TD*%
D18*
%TO.P,P5,1,Pin_1*%
%TO.N,unconnected-(P5-Pad1)*%
X138000000Y-84000000D03*
D19*
%TO.P,P5,2,Pin_2*%
%TO.N,unconnected-(P5-Pad2)*%
X138000000Y-81460000D03*
%TO.P,P5,3,Pin_3*%
%TO.N,/DUART/RXB*%
X140540000Y-84000000D03*
%TO.P,P5,4,Pin_4*%
%TO.N,/DUART/~{RTSB}*%
X140540000Y-81460000D03*
%TO.P,P5,5,Pin_5*%
%TO.N,/DUART/TXB*%
X143080000Y-84000000D03*
%TO.P,P5,6,Pin_6*%
%TO.N,/DUART/~{CTSB}*%
X143080000Y-81460000D03*
%TO.P,P5,7,Pin_7*%
%TO.N,/DUART/~{DTRB}*%
X145620000Y-84000000D03*
%TO.P,P5,8,Pin_8*%
%TO.N,unconnected-(P5-Pad8)*%
X145620000Y-81460000D03*
%TO.P,P5,9,Pin_9*%
%TO.N,GND*%
X148160000Y-84000000D03*
%TO.P,P5,10,Pin_10*%
%TO.N,unconnected-(P5-Pad10)*%
X148160000Y-81460000D03*
%TD*%
D10*
%TO.P,R2,1*%
%TO.N,Net-(JP1-Pad2)*%
X43000000Y-95000000D03*
D11*
%TO.P,R2,2*%
%TO.N,/DUART/~{TTL_RIA}*%
X50620000Y-95000000D03*
%TD*%
D10*
%TO.P,R5,1*%
%TO.N,/DUART/~{DTRA}*%
X53000000Y-89000000D03*
D11*
%TO.P,R5,2*%
%TO.N,VCC*%
X60620000Y-89000000D03*
%TD*%
D10*
%TO.P,R8,1*%
%TO.N,/DUART/~{DTRB}*%
X63000000Y-89000000D03*
D11*
%TO.P,R8,2*%
%TO.N,VCC*%
X70620000Y-89000000D03*
%TD*%
D10*
%TO.P,R9,1*%
%TO.N,/DUART/INTB*%
X43690000Y-155650000D03*
D11*
%TO.P,R9,2*%
%TO.N,GND*%
X51310000Y-155650000D03*
%TD*%
D10*
%TO.P,R12,1*%
%TO.N,/DUART/INTA*%
X58190000Y-155650000D03*
D11*
%TO.P,R12,2*%
%TO.N,GND*%
X65810000Y-155650000D03*
%TD*%
D10*
%TO.P,R26,1*%
%TO.N,/parallel/PD7*%
X191000000Y-89000000D03*
D11*
%TO.P,R26,2*%
%TO.N,Net-(R26-Pad2)*%
X191000000Y-96620000D03*
%TD*%
D10*
%TO.P,R31,1*%
%TO.N,VCC*%
X204000000Y-92500000D03*
D11*
%TO.P,R31,2*%
%TO.N,/USB-SD/VBUS*%
X211620000Y-92500000D03*
%TD*%
D10*
%TO.P,R32,1*%
%TO.N,VDD1*%
X214000000Y-92500000D03*
D11*
%TO.P,R32,2*%
%TO.N,Net-(J8-Pad1)*%
X221620000Y-92500000D03*
%TD*%
D10*
%TO.P,R33,1*%
%TO.N,VDD1*%
X214000000Y-104500000D03*
D11*
%TO.P,R33,2*%
%TO.N,/USB-SD/VDD3*%
X221620000Y-104500000D03*
%TD*%
D10*
%TO.P,R35,1*%
%TO.N,Net-(D10-Pad1)*%
X179000000Y-107500000D03*
D11*
%TO.P,R35,2*%
%TO.N,Net-(R35-Pad2)*%
X179000000Y-115120000D03*
%TD*%
D10*
%TO.P,R36,1*%
%TO.N,/USB-SD/RST*%
X237500000Y-106000000D03*
D11*
%TO.P,R36,2*%
%TO.N,GND*%
X245120000Y-106000000D03*
%TD*%
D12*
%TO.P,RN1,1,common*%
%TO.N,VDD1*%
X212000000Y-112000000D03*
D11*
%TO.P,RN1,2,R1*%
%TO.N,Net-(R16-Pad1)*%
X214540000Y-112000000D03*
%TO.P,RN1,3,R2*%
%TO.N,Net-(R6-Pad1)*%
X217080000Y-112000000D03*
%TO.P,RN1,4,R3*%
%TO.N,Net-(R15-Pad1)*%
X219620000Y-112000000D03*
%TO.P,RN1,5,R4*%
%TO.N,Net-(R4-Pad1)*%
X222160000Y-112000000D03*
%TO.P,RN1,6,R5*%
%TO.N,Net-(R14-Pad1)*%
X224700000Y-112000000D03*
%TO.P,RN1,7,R6*%
%TO.N,Net-(R3-Pad1)*%
X227240000Y-112000000D03*
%TO.P,RN1,8,R7*%
%TO.N,Net-(R13-Pad1)*%
X229780000Y-112000000D03*
%TO.P,RN1,9,R8*%
%TO.N,Net-(R1-Pad1)*%
X232320000Y-112000000D03*
%TD*%
D12*
%TO.P,RN4,1,common*%
%TO.N,VDD1*%
X238000000Y-112000000D03*
D11*
%TO.P,RN4,2,R1*%
%TO.N,Net-(R7-Pad1)*%
X240540000Y-112000000D03*
%TO.P,RN4,3,R2*%
%TO.N,Net-(R21-Pad1)*%
X243080000Y-112000000D03*
%TO.P,RN4,4,R3*%
%TO.N,Net-(R10-Pad1)*%
X245620000Y-112000000D03*
%TO.P,RN4,5,R4*%
%TO.N,Net-(R22-Pad1)*%
X248160000Y-112000000D03*
%TO.P,RN4,6,R5*%
%TO.N,/USB-SD/SDCS*%
X250700000Y-112000000D03*
%TO.P,RN4,7,R6*%
%TO.N,/USB-SD/SDDO*%
X253240000Y-112000000D03*
%TO.P,RN4,8,R7*%
%TO.N,/USB-SD/~{INT-USB}*%
X255780000Y-112000000D03*
%TO.P,RN4,9,R8*%
%TO.N,unconnected-(RN4-Pad9)*%
X258320000Y-112000000D03*
%TD*%
D12*
%TO.P,RN8,1,common*%
%TO.N,VCC*%
X179000000Y-120000000D03*
D11*
%TO.P,RN8,2,R1*%
%TO.N,/kbdmse/MSECLK*%
X181540000Y-120000000D03*
%TO.P,RN8,3,R2*%
%TO.N,/kbdmse/KBDCLK*%
X184080000Y-120000000D03*
%TO.P,RN8,4,R3*%
%TO.N,/kbdmse/MSEDAT*%
X186620000Y-120000000D03*
%TO.P,RN8,5,R4*%
%TO.N,/kbdmse/KBDDAT*%
X189160000Y-120000000D03*
%TO.P,RN8,6,R5*%
%TO.N,/kbdmse/PROG*%
X191700000Y-120000000D03*
%TO.P,RN8,7,R6*%
%TO.N,unconnected-(RN8-Pad7)*%
X194240000Y-120000000D03*
%TO.P,RN8,8,R7*%
%TO.N,unconnected-(RN8-Pad8)*%
X196780000Y-120000000D03*
%TO.P,RN8,9,R8*%
%TO.N,unconnected-(RN8-Pad9)*%
X199320000Y-120000000D03*
%TD*%
D16*
%TO.P,SW2,1,Pin_1*%
%TO.N,Net-(RN5-Pad2)*%
X155000000Y-199000000D03*
D17*
%TO.P,SW2,2,Pin_2*%
%TO.N,ZERO*%
X155000000Y-196460000D03*
%TO.P,SW2,3,Pin_3*%
%TO.N,Net-(RN5-Pad3)*%
X157540000Y-199000000D03*
%TO.P,SW2,4,Pin_4*%
%TO.N,ZERO*%
X157540000Y-196460000D03*
%TO.P,SW2,5,Pin_5*%
%TO.N,Net-(RN5-Pad4)*%
X160080000Y-199000000D03*
%TO.P,SW2,6,Pin_6*%
%TO.N,ZERO*%
X160080000Y-196460000D03*
%TO.P,SW2,7,Pin_7*%
%TO.N,Net-(RN5-Pad5)*%
X162620000Y-199000000D03*
%TO.P,SW2,8,Pin_8*%
%TO.N,ZERO*%
X162620000Y-196460000D03*
%TD*%
D12*
%TO.P,U2,1,G*%
%TO.N,~{bIORQ}*%
X122000000Y-201000000D03*
D11*
%TO.P,U2,2,P0*%
%TO.N,~{bM1}*%
X124540000Y-201000000D03*
%TO.P,U2,3,R0*%
%TO.N,Net-(RN5-Pad6)*%
X127080000Y-201000000D03*
%TO.P,U2,4,P1*%
X129620000Y-201000000D03*
%TO.P,U2,5,R1*%
X132160000Y-201000000D03*
%TO.P,U2,6,P2*%
X134700000Y-201000000D03*
%TO.P,U2,7,R2*%
X137240000Y-201000000D03*
%TO.P,U2,8,P3*%
X139780000Y-201000000D03*
%TO.P,U2,9,R3*%
X142320000Y-201000000D03*
%TO.P,U2,10,GND*%
%TO.N,GND*%
X144860000Y-201000000D03*
%TO.P,U2,11,P4*%
%TO.N,bA4*%
X144860000Y-193380000D03*
%TO.P,U2,12,R4*%
%TO.N,Net-(RN5-Pad5)*%
X142320000Y-193380000D03*
%TO.P,U2,13,P5*%
%TO.N,bA5*%
X139780000Y-193380000D03*
%TO.P,U2,14,R5*%
%TO.N,Net-(RN5-Pad4)*%
X137240000Y-193380000D03*
%TO.P,U2,15,P6*%
%TO.N,bA6*%
X134700000Y-193380000D03*
%TO.P,U2,16,R6*%
%TO.N,Net-(RN5-Pad3)*%
X132160000Y-193380000D03*
%TO.P,U2,17,P7*%
%TO.N,bA7*%
X129620000Y-193380000D03*
%TO.P,U2,18,R7*%
%TO.N,Net-(RN5-Pad2)*%
X127080000Y-193380000D03*
%TO.P,U2,19,P=R*%
%TO.N,~{CS_DUART}*%
X124540000Y-193380000D03*
%TO.P,U2,20,VCC*%
%TO.N,VCC*%
X122000000Y-193380000D03*
%TD*%
D12*
%TO.P,U3,1,OEa*%
%TO.N,ZERO*%
X122000000Y-214000000D03*
D11*
%TO.P,U3,2,I0a*%
%TO.N,A0*%
X124540000Y-214000000D03*
%TO.P,U3,3,O3b*%
%TO.N,bA7*%
X127080000Y-214000000D03*
%TO.P,U3,4,I1a*%
%TO.N,A1*%
X129620000Y-214000000D03*
%TO.P,U3,5,O2b*%
%TO.N,bA6*%
X132160000Y-214000000D03*
%TO.P,U3,6,I2a*%
%TO.N,A2*%
X134700000Y-214000000D03*
%TO.P,U3,7,O1b*%
%TO.N,bA5*%
X137240000Y-214000000D03*
%TO.P,U3,8,I3a*%
%TO.N,A3*%
X139780000Y-214000000D03*
%TO.P,U3,9,O0b*%
%TO.N,bA4*%
X142320000Y-214000000D03*
%TO.P,U3,10,GND*%
%TO.N,GND*%
X144860000Y-214000000D03*
%TO.P,U3,11,I0b*%
%TO.N,A4*%
X144860000Y-206380000D03*
%TO.P,U3,12,O3a*%
%TO.N,bA3*%
X142320000Y-206380000D03*
%TO.P,U3,13,I1b*%
%TO.N,A5*%
X139780000Y-206380000D03*
%TO.P,U3,14,O2a*%
%TO.N,bA2*%
X137240000Y-206380000D03*
%TO.P,U3,15,I2b*%
%TO.N,A6*%
X134700000Y-206380000D03*
%TO.P,U3,16,O1a*%
%TO.N,bA1*%
X132160000Y-206380000D03*
%TO.P,U3,17,I3b*%
%TO.N,A7*%
X129620000Y-206380000D03*
%TO.P,U3,18,O0a*%
%TO.N,bA0*%
X127080000Y-206380000D03*
%TO.P,U3,19,OEb*%
%TO.N,ZERO*%
X124540000Y-206380000D03*
%TO.P,U3,20,VCC*%
%TO.N,VCC*%
X122000000Y-206380000D03*
%TD*%
D20*
%TO.P,U4,1,~{TXRDYA}*%
%TO.N,unconnected-(U4-Pad1)*%
X94500000Y-178250000D03*
D21*
%TO.P,U4,2,D0*%
%TO.N,bD0*%
X91960000Y-175710000D03*
%TO.P,U4,3,D1*%
%TO.N,bD1*%
X91960000Y-178250000D03*
%TO.P,U4,4,D2*%
%TO.N,bD2*%
X89420000Y-175710000D03*
%TO.P,U4,5,D3*%
%TO.N,bD3*%
X89420000Y-178250000D03*
%TO.P,U4,6,D4*%
%TO.N,bD4*%
X86880000Y-175710000D03*
%TO.P,U4,7,D5*%
%TO.N,bD5*%
X84340000Y-178250000D03*
%TO.P,U4,8,D6*%
%TO.N,bD6*%
X86880000Y-178250000D03*
%TO.P,U4,9,D7*%
%TO.N,bD7*%
X84340000Y-180790000D03*
%TO.P,U4,10,A0*%
%TO.N,bA0*%
X86880000Y-180790000D03*
%TO.P,U4,11,XTAL1*%
%TO.N,CLK_DUART*%
X84340000Y-183330000D03*
%TO.P,U4,12,GND*%
%TO.N,/DUART/GND_UART*%
X86880000Y-183330000D03*
%TO.P,U4,13,XTAL2*%
%TO.N,unconnected-(U4-Pad13)*%
X84340000Y-185870000D03*
%TO.P,U4,14,A1*%
%TO.N,bA1*%
X86880000Y-185870000D03*
%TO.P,U4,15,A2*%
%TO.N,bA2*%
X84340000Y-188410000D03*
%TO.P,U4,16,CHSEL*%
%TO.N,bA3*%
X86880000Y-188410000D03*
%TO.P,U4,17,INTB*%
%TO.N,/DUART/INTB*%
X84340000Y-190950000D03*
%TO.P,U4,18,~{CS}*%
%TO.N,~{CS_DUART}*%
X86880000Y-193490000D03*
%TO.P,U4,19,~{MFB}*%
%TO.N,unconnected-(U4-Pad19)*%
X86880000Y-190950000D03*
%TO.P,U4,20,~{IOW}*%
%TO.N,~{bWR}*%
X89420000Y-193490000D03*
%TO.P,U4,21,RESET*%
%TO.N,bRESET*%
X89420000Y-190950000D03*
%TO.P,U4,22,GND*%
%TO.N,GND*%
X91960000Y-193490000D03*
%TO.P,U4,23,~{RTSB}*%
%TO.N,/DUART/~{TTL_RTSB}*%
X91960000Y-190950000D03*
%TO.P,U4,24,~{IOR}*%
%TO.N,~{bRD}*%
X94500000Y-193490000D03*
%TO.P,U4,25,RXB*%
%TO.N,/DUART/TTL_RXB*%
X94500000Y-190950000D03*
%TO.P,U4,26,TXB*%
%TO.N,/DUART/TTL_TXB*%
X97040000Y-193490000D03*
%TO.P,U4,27,~{DTRB}*%
%TO.N,unconnected-(U4-Pad27)*%
X97040000Y-190950000D03*
%TO.P,U4,28,~{CTSB}*%
%TO.N,/DUART/~{TTL_CTSB}*%
X99580000Y-193490000D03*
%TO.P,U4,29,~{DSRB}*%
%TO.N,unconnected-(U4-Pad29)*%
X102120000Y-190950000D03*
%TO.P,U4,30,~{CDB}*%
%TO.N,unconnected-(U4-Pad30)*%
X99580000Y-190950000D03*
%TO.P,U4,31,~{RIB}*%
%TO.N,unconnected-(U4-Pad31)*%
X102120000Y-188410000D03*
%TO.P,U4,32,~{TXRDYB}*%
%TO.N,unconnected-(U4-Pad32)*%
X99580000Y-188410000D03*
%TO.P,U4,33,VCC*%
%TO.N,VCC*%
X102120000Y-185870000D03*
%TO.P,U4,34,INTA*%
%TO.N,/DUART/INTA*%
X99580000Y-185870000D03*
%TO.P,U4,35,~{MFA}*%
%TO.N,unconnected-(U4-Pad35)*%
X102120000Y-183330000D03*
%TO.P,U4,36,~{RTSA}*%
%TO.N,/DUART/~{TTL_RTSA}*%
X99580000Y-183330000D03*
%TO.P,U4,37,~{DTRA}*%
%TO.N,unconnected-(U4-Pad37)*%
X102120000Y-180790000D03*
%TO.P,U4,38,TXA*%
%TO.N,/DUART/TTL_TXA*%
X99580000Y-180790000D03*
%TO.P,U4,39,RXA*%
%TO.N,/DUART/TTL_RXA*%
X102120000Y-178250000D03*
%TO.P,U4,40,~{CTSA}*%
%TO.N,/DUART/~{TTL_CTSA}*%
X99580000Y-175710000D03*
%TO.P,U4,41,~{DSRA}*%
%TO.N,unconnected-(U4-Pad41)*%
X99580000Y-178250000D03*
%TO.P,U4,42,~{CDA}*%
%TO.N,unconnected-(U4-Pad42)*%
X97040000Y-175710000D03*
%TO.P,U4,43,~{RIA}*%
%TO.N,/DUART/~{TTL_RIA}*%
X97040000Y-178250000D03*
%TO.P,U4,44,VCC*%
%TO.N,VCC*%
X94500000Y-175710000D03*
%TD*%
D12*
%TO.P,U5,1,A->B*%
%TO.N,~{RD}*%
X209000000Y-214000000D03*
D11*
%TO.P,U5,2,A0*%
%TO.N,D0*%
X211540000Y-214000000D03*
%TO.P,U5,3,A1*%
%TO.N,D1*%
X214080000Y-214000000D03*
%TO.P,U5,4,A2*%
%TO.N,D2*%
X216620000Y-214000000D03*
%TO.P,U5,5,A3*%
%TO.N,D3*%
X219160000Y-214000000D03*
%TO.P,U5,6,A4*%
%TO.N,D4*%
X221700000Y-214000000D03*
%TO.P,U5,7,A5*%
%TO.N,D5*%
X224240000Y-214000000D03*
%TO.P,U5,8,A6*%
%TO.N,D6*%
X226780000Y-214000000D03*
%TO.P,U5,9,A7*%
%TO.N,D7*%
X229320000Y-214000000D03*
%TO.P,U5,10,GND*%
%TO.N,GND*%
X231860000Y-214000000D03*
%TO.P,U5,11,B7*%
%TO.N,bD7*%
X231860000Y-206380000D03*
%TO.P,U5,12,B6*%
%TO.N,bD6*%
X229320000Y-206380000D03*
%TO.P,U5,13,B5*%
%TO.N,bD5*%
X226780000Y-206380000D03*
%TO.P,U5,14,B4*%
%TO.N,bD4*%
X224240000Y-206380000D03*
%TO.P,U5,15,B3*%
%TO.N,bD3*%
X221700000Y-206380000D03*
%TO.P,U5,16,B2*%
%TO.N,bD2*%
X219160000Y-206380000D03*
%TO.P,U5,17,B1*%
%TO.N,bD1*%
X216620000Y-206380000D03*
%TO.P,U5,18,B0*%
%TO.N,bD0*%
X214080000Y-206380000D03*
%TO.P,U5,19,CE*%
%TO.N,~{BUS_EN}*%
X211540000Y-206380000D03*
%TO.P,U5,20,VCC*%
%TO.N,VCC*%
X209000000Y-206380000D03*
%TD*%
D12*
%TO.P,U6,1,Pin_1*%
%TO.N,VCC*%
X117000000Y-179000000D03*
D11*
%TO.P,U6,2,Pin_2*%
%TO.N,unconnected-(U6-Pad2)*%
X119540000Y-179000000D03*
%TO.P,U6,3,Pin_3*%
%TO.N,unconnected-(U6-Pad3)*%
X122080000Y-179000000D03*
%TO.P,U6,4,Pin_4*%
%TO.N,GND*%
X124620000Y-179000000D03*
%TO.P,U6,5,Pin_5*%
%TO.N,unconnected-(U6-Pad5)*%
X127160000Y-179000000D03*
%TO.P,U6,6,Pin_6*%
%TO.N,unconnected-(U6-Pad6)*%
X129700000Y-179000000D03*
%TO.P,U6,7,Pin_7*%
%TO.N,GND*%
X132240000Y-179000000D03*
%TO.P,U6,8,Pin_8*%
%TO.N,CLK_DUART*%
X132240000Y-171380000D03*
%TO.P,U6,9,Pin_9*%
%TO.N,unconnected-(U6-Pad9)*%
X129700000Y-171380000D03*
%TO.P,U6,10,Pin_10*%
%TO.N,unconnected-(U6-Pad10)*%
X127160000Y-171380000D03*
%TO.P,U6,11,Pin_11*%
%TO.N,CLK_DUART*%
X124620000Y-171380000D03*
%TO.P,U6,12,Pin_12*%
%TO.N,unconnected-(U6-Pad12)*%
X122080000Y-171380000D03*
%TO.P,U6,13,Pin_13*%
%TO.N,unconnected-(U6-Pad13)*%
X119540000Y-171380000D03*
%TO.P,U6,14,Pin_14*%
%TO.N,VCC*%
X117000000Y-171380000D03*
%TD*%
D12*
%TO.P,U7,1,OEa*%
%TO.N,ZERO*%
X80000000Y-214000000D03*
D11*
%TO.P,U7,2,I0a*%
%TO.N,Net-(J20-Pad2)*%
X82540000Y-214000000D03*
%TO.P,U7,3,O3b*%
%TO.N,~{bRD}*%
X85080000Y-214000000D03*
%TO.P,U7,4,I1a*%
%TO.N,~{CS_DUART}*%
X87620000Y-214000000D03*
%TO.P,U7,5,O2b*%
%TO.N,~{bWR}*%
X90160000Y-214000000D03*
%TO.P,U7,6,I2a*%
%TO.N,unconnected-(U7-Pad6)*%
X92700000Y-214000000D03*
%TO.P,U7,7,O1b*%
%TO.N,~{bM1}*%
X95240000Y-214000000D03*
%TO.P,U7,8,I3a*%
%TO.N,unconnected-(U7-Pad8)*%
X97780000Y-214000000D03*
%TO.P,U7,9,O0b*%
%TO.N,~{bIORQ}*%
X100320000Y-214000000D03*
%TO.P,U7,10,GND*%
%TO.N,GND*%
X102860000Y-214000000D03*
%TO.P,U7,11,I0b*%
%TO.N,~{IORQ}*%
X102860000Y-206380000D03*
%TO.P,U7,12,O3a*%
%TO.N,unconnected-(U7-Pad12)*%
X100320000Y-206380000D03*
%TO.P,U7,13,I1b*%
%TO.N,~{M1}*%
X97780000Y-206380000D03*
%TO.P,U7,14,O2a*%
%TO.N,unconnected-(U7-Pad14)*%
X95240000Y-206380000D03*
%TO.P,U7,15,I2b*%
%TO.N,~{WR}*%
X92700000Y-206380000D03*
%TO.P,U7,16,O1a*%
%TO.N,Net-(D2-Pad1)*%
X90160000Y-206380000D03*
%TO.P,U7,17,I3b*%
%TO.N,~{RD}*%
X87620000Y-206380000D03*
%TO.P,U7,18,O0a*%
%TO.N,~{bRESET}*%
X85080000Y-206380000D03*
%TO.P,U7,19,OEb*%
%TO.N,ZERO*%
X82540000Y-206380000D03*
%TO.P,U7,20,VCC*%
%TO.N,VCC*%
X80000000Y-206380000D03*
%TD*%
D12*
%TO.P,U10,1*%
%TO.N,/DUART/TTL_TXA*%
X47875000Y-179000000D03*
D11*
%TO.P,U10,2*%
%TO.N,/DUART/TTL_TXB*%
X50415000Y-179000000D03*
%TO.P,U10,3*%
%TO.N,Net-(D4-Pad1)*%
X52955000Y-179000000D03*
%TO.P,U10,4*%
%TO.N,/DUART/TTL_RXA*%
X55495000Y-179000000D03*
%TO.P,U10,5*%
%TO.N,/DUART/TTL_RXB*%
X58035000Y-179000000D03*
%TO.P,U10,6*%
%TO.N,Net-(D5-Pad1)*%
X60575000Y-179000000D03*
%TO.P,U10,7,GND*%
%TO.N,GND*%
X63115000Y-179000000D03*
%TO.P,U10,8*%
%TO.N,Net-(D3-Pad1)*%
X63115000Y-171380000D03*
%TO.P,U10,9*%
%TO.N,/DUART/~{INTA}*%
X60575000Y-171380000D03*
%TO.P,U10,10*%
%TO.N,/DUART/~{INTB}*%
X58035000Y-171380000D03*
%TO.P,U10,11*%
%TO.N,Net-(D9-Pad1)*%
X55495000Y-171380000D03*
%TO.P,U10,12*%
%TO.N,~{CS_PAR}*%
X52955000Y-171380000D03*
%TO.P,U10,13*%
X50415000Y-171380000D03*
%TO.P,U10,14,VCC*%
%TO.N,VCC*%
X47875000Y-171380000D03*
%TD*%
D12*
%TO.P,U16,1*%
%TO.N,/USB-SD/~{INT-USB}*%
X118625000Y-130550000D03*
D11*
%TO.P,U16,2*%
%TO.N,Net-(U16-Pad2)*%
X121165000Y-130550000D03*
%TO.P,U16,3*%
%TO.N,~{bRESET}*%
X123705000Y-130550000D03*
%TO.P,U16,4*%
%TO.N,bRESET*%
X126245000Y-130550000D03*
%TO.P,U16,5*%
%TO.N,Net-(U16-Pad5)*%
X128785000Y-130550000D03*
%TO.P,U16,6*%
%TO.N,Net-(U16-Pad6)*%
X131325000Y-130550000D03*
%TO.P,U16,7,GND*%
%TO.N,GND*%
X133865000Y-130550000D03*
%TO.P,U16,8*%
%TO.N,Net-(U16-Pad8)*%
X133865000Y-122930000D03*
%TO.P,U16,9*%
%TO.N,/parallel/~{STROBE}*%
X131325000Y-122930000D03*
%TO.P,U16,10*%
%TO.N,Net-(U16-Pad10)*%
X128785000Y-122930000D03*
%TO.P,U16,11*%
%TO.N,/parallel/~{LINEFEED}*%
X126245000Y-122930000D03*
%TO.P,U16,12*%
%TO.N,Net-(U16-Pad12)*%
X123705000Y-122930000D03*
%TO.P,U16,13*%
%TO.N,/parallel/~{SEL}*%
X121165000Y-122930000D03*
%TO.P,U16,14,VCC*%
%TO.N,VCC*%
X118625000Y-122930000D03*
%TD*%
D12*
%TO.P,U19,1*%
%TO.N,/parallel/~{BUSY}*%
X92625000Y-130550000D03*
D11*
%TO.P,U19,2*%
%TO.N,/parallel/BUSY*%
X95165000Y-130550000D03*
%TO.P,U19,3*%
%TO.N,Net-(U19-Pad3)*%
X97705000Y-130550000D03*
%TO.P,U19,4*%
%TO.N,/parallel/~{SEL}*%
X100245000Y-130550000D03*
%TO.P,U19,5*%
%TO.N,Net-(U19-Pad5)*%
X102785000Y-130550000D03*
%TO.P,U19,6*%
%TO.N,Net-(R28-Pad2)*%
X105325000Y-130550000D03*
%TO.P,U19,7,GND*%
%TO.N,GND*%
X107865000Y-130550000D03*
%TO.P,U19,8*%
%TO.N,/parallel/~{LINEFEED}*%
X107865000Y-122930000D03*
%TO.P,U19,9*%
%TO.N,Net-(U19-Pad9)*%
X105325000Y-122930000D03*
%TO.P,U19,10*%
%TO.N,/parallel/P-RESET*%
X102785000Y-122930000D03*
%TO.P,U19,11*%
%TO.N,Net-(U16-Pad6)*%
X100245000Y-122930000D03*
%TO.P,U19,12*%
%TO.N,/parallel/~{INT_PAR}*%
X97705000Y-122930000D03*
%TO.P,U19,13*%
%TO.N,INT_PAR*%
X95165000Y-122930000D03*
%TO.P,U19,14,VCC*%
%TO.N,VCC*%
X92625000Y-122930000D03*
%TD*%
D12*
%TO.P,U21,1,OEa*%
%TO.N,~{PARIN1}*%
X110625000Y-163550000D03*
D11*
%TO.P,U21,2,I0a*%
X113165000Y-163550000D03*
%TO.P,U21,3,O3b*%
%TO.N,bD7*%
X115705000Y-163550000D03*
%TO.P,U21,4,I1a*%
%TO.N,~{PARIN1}*%
X118245000Y-163550000D03*
%TO.P,U21,5,O2b*%
%TO.N,bD6*%
X120785000Y-163550000D03*
%TO.P,U21,6,I2a*%
%TO.N,~{PARIN1}*%
X123325000Y-163550000D03*
%TO.P,U21,7,O1b*%
%TO.N,bD5*%
X125865000Y-163550000D03*
%TO.P,U21,8,I3a*%
%TO.N,/parallel/ERROR*%
X128405000Y-163550000D03*
%TO.P,U21,9,O0b*%
%TO.N,bD4*%
X130945000Y-163550000D03*
%TO.P,U21,10,GND*%
%TO.N,GND*%
X133485000Y-163550000D03*
%TO.P,U21,11,I0b*%
%TO.N,/parallel/SELECT*%
X133485000Y-155930000D03*
%TO.P,U21,12,O3a*%
%TO.N,bD3*%
X130945000Y-155930000D03*
%TO.P,U21,13,I1b*%
%TO.N,/parallel/PAPEROUT*%
X128405000Y-155930000D03*
%TO.P,U21,14,O2a*%
%TO.N,bD2*%
X125865000Y-155930000D03*
%TO.P,U21,15,I2b*%
%TO.N,ACK*%
X123325000Y-155930000D03*
%TO.P,U21,16,O1a*%
%TO.N,bD1*%
X120785000Y-155930000D03*
%TO.P,U21,17,I3b*%
%TO.N,/parallel/BUSY*%
X118245000Y-155930000D03*
%TO.P,U21,18,O0a*%
%TO.N,bD0*%
X115705000Y-155930000D03*
%TO.P,U21,19,OEb*%
%TO.N,~{PARIN1}*%
X113165000Y-155930000D03*
%TO.P,U21,20,VCC*%
%TO.N,VCC*%
X110625000Y-155930000D03*
%TD*%
D12*
%TO.P,U25,1*%
%TO.N,Net-(U25-Pad1)*%
X186000000Y-132000000D03*
D11*
%TO.P,U25,2*%
%TO.N,/kbdmse/KBDDAT*%
X188540000Y-132000000D03*
%TO.P,U25,3*%
%TO.N,Net-(U25-Pad3)*%
X191080000Y-132000000D03*
%TO.P,U25,4*%
%TO.N,/kbdmse/KBDCLK*%
X193620000Y-132000000D03*
%TO.P,U25,5*%
%TO.N,Net-(U25-Pad5)*%
X196160000Y-132000000D03*
%TO.P,U25,6*%
%TO.N,/kbdmse/MSEDAT*%
X198700000Y-132000000D03*
%TO.P,U25,7,GND*%
%TO.N,GND*%
X201240000Y-132000000D03*
%TO.P,U25,8*%
%TO.N,/kbdmse/MSECLK*%
X201240000Y-124380000D03*
%TO.P,U25,9*%
%TO.N,Net-(U25-Pad9)*%
X198700000Y-124380000D03*
%TO.P,U25,10*%
%TO.N,Net-(J12-Pad1)*%
X196160000Y-124380000D03*
%TO.P,U25,11*%
%TO.N,Net-(U16-Pad2)*%
X193620000Y-124380000D03*
%TO.P,U25,12*%
%TO.N,/kbdmse/~{INT_KM}*%
X191080000Y-124380000D03*
%TO.P,U25,13*%
%TO.N,INT_KM*%
X188540000Y-124380000D03*
%TO.P,U25,14,VCC*%
%TO.N,VCC*%
X186000000Y-124380000D03*
%TD*%
D20*
%TO.P,U26,1,NC*%
%TO.N,unconnected-(U26-Pad1)*%
X205500000Y-171050000D03*
D21*
%TO.P,U26,2,T0*%
%TO.N,/kbdmse/KBDCLK*%
X202960000Y-168510000D03*
%TO.P,U26,3,X1*%
%TO.N,ZERO*%
X202960000Y-171050000D03*
%TO.P,U26,4,X2*%
%TO.N,CLK_DUART*%
X200420000Y-168510000D03*
%TO.P,U26,5,RESET*%
%TO.N,~{bRESET}*%
X200420000Y-171050000D03*
%TO.P,U26,6,SS*%
%TO.N,ONE*%
X197880000Y-168510000D03*
%TO.P,U26,7,CS*%
%TO.N,~{CS_KM}*%
X195340000Y-171050000D03*
%TO.P,U26,8,EA*%
%TO.N,ZERO*%
X197880000Y-171050000D03*
%TO.P,U26,9,RD*%
%TO.N,~{bRD}*%
X195340000Y-173590000D03*
%TO.P,U26,10,A0*%
%TO.N,bA0*%
X197880000Y-173590000D03*
%TO.P,U26,11,WR*%
%TO.N,~{bWR}*%
X195340000Y-176130000D03*
%TO.P,U26,12,SYNC*%
%TO.N,unconnected-(U26-Pad12)*%
X197880000Y-176130000D03*
%TO.P,U26,13,NC*%
%TO.N,unconnected-(U26-Pad13)*%
X195340000Y-178670000D03*
%TO.P,U26,14,D0*%
%TO.N,bD0*%
X197880000Y-178670000D03*
%TO.P,U26,15,D1*%
%TO.N,bD1*%
X195340000Y-181210000D03*
%TO.P,U26,16,D2*%
%TO.N,bD2*%
X197880000Y-181210000D03*
%TO.P,U26,17,D3*%
%TO.N,bD3*%
X195340000Y-183750000D03*
%TO.P,U26,18,D4*%
%TO.N,bD4*%
X197880000Y-186290000D03*
%TO.P,U26,19,D5*%
%TO.N,bD5*%
X197880000Y-183750000D03*
%TO.P,U26,20,D6*%
%TO.N,bD6*%
X200420000Y-186290000D03*
%TO.P,U26,21,D7*%
%TO.N,bD7*%
X200420000Y-183750000D03*
%TO.P,U26,22,VSS*%
%TO.N,VSS*%
X202960000Y-186290000D03*
%TO.P,U26,23,NC*%
%TO.N,unconnected-(U26-Pad23)*%
X202960000Y-183750000D03*
%TO.P,U26,24,P20*%
%TO.N,/kbdmse/P20*%
X205500000Y-186290000D03*
%TO.P,U26,25,P21*%
%TO.N,/kbdmse/P21*%
X205500000Y-183750000D03*
%TO.P,U26,26,P22*%
%TO.N,Net-(U25-Pad5)*%
X208040000Y-186290000D03*
%TO.P,U26,27,P23*%
%TO.N,Net-(U25-Pad9)*%
X208040000Y-183750000D03*
%TO.P,U26,28,PROG*%
%TO.N,/kbdmse/PROG*%
X210580000Y-186290000D03*
%TO.P,U26,29,VDD*%
%TO.N,VDD*%
X213120000Y-183750000D03*
%TO.P,U26,30,P10*%
%TO.N,/kbdmse/KBDDAT*%
X210580000Y-183750000D03*
%TO.P,U26,31,P11*%
%TO.N,/kbdmse/MSEDAT*%
X213120000Y-181210000D03*
%TO.P,U26,32,P12*%
%TO.N,/kbdmse/P12*%
X210580000Y-181210000D03*
%TO.P,U26,33,P13*%
%TO.N,/kbdmse/P13*%
X213120000Y-178670000D03*
%TO.P,U26,34,NC*%
%TO.N,unconnected-(U26-Pad34)*%
X210580000Y-178670000D03*
%TO.P,U26,35,P14*%
%TO.N,/kbdmse/P14*%
X213120000Y-176130000D03*
%TO.P,U26,36,P15*%
%TO.N,/kbdmse/P15*%
X210580000Y-176130000D03*
%TO.P,U26,37,P16*%
%TO.N,/kbdmse/P16*%
X213120000Y-173590000D03*
%TO.P,U26,38,P17*%
%TO.N,/kbdmse/P17*%
X210580000Y-173590000D03*
%TO.P,U26,39,P24/OB*%
%TO.N,P24-OB*%
X213120000Y-171050000D03*
%TO.P,U26,40,P25/BF*%
%TO.N,P25-BF*%
X210580000Y-168510000D03*
%TO.P,U26,41,P26/DRQ*%
%TO.N,Net-(U25-Pad3)*%
X210580000Y-171050000D03*
%TO.P,U26,42,P27/DAK*%
%TO.N,Net-(U25-Pad1)*%
X208040000Y-168510000D03*
%TO.P,U26,43,T1*%
%TO.N,/kbdmse/MSECLK*%
X208040000Y-171050000D03*
%TO.P,U26,44,VCC*%
%TO.N,VCC*%
X205500000Y-168510000D03*
%TD*%
D12*
%TO.P,U27,1,~{INT}*%
%TO.N,/USB-SD/~{INT-USB}*%
X187475000Y-151625000D03*
D11*
%TO.P,U27,2,RSTI*%
%TO.N,/USB-SD/RST*%
X190015000Y-151625000D03*
%TO.P,U27,3,~{WR}*%
%TO.N,Net-(R10-Pad1)*%
X192555000Y-151625000D03*
%TO.P,U27,4,~{RD}*%
%TO.N,Net-(R21-Pad1)*%
X195095000Y-151625000D03*
%TO.P,U27,5,TXD*%
%TO.N,ZERO*%
X197635000Y-151625000D03*
%TO.P,U27,6,RXD*%
%TO.N,unconnected-(U27-Pad6)*%
X200175000Y-151625000D03*
%TO.P,U27,7,SD_DI*%
%TO.N,/USB-SD/SDDO*%
X202715000Y-151625000D03*
%TO.P,U27,8,A0*%
%TO.N,Net-(R7-Pad1)*%
X205255000Y-151625000D03*
%TO.P,U27,9,V3*%
%TO.N,VDD1*%
X207795000Y-151625000D03*
%TO.P,U27,10,UD+*%
%TO.N,/USB-SD/UD+*%
X210335000Y-151625000D03*
%TO.P,U27,11,UD-*%
%TO.N,/USB-SD/UD-*%
X212875000Y-151625000D03*
%TO.P,U27,12,GND*%
%TO.N,GND*%
X215415000Y-151625000D03*
%TO.P,U27,13,XI*%
%TO.N,Net-(U27-Pad13)*%
X217955000Y-151625000D03*
%TO.P,U27,14,XO*%
%TO.N,Net-(U27-Pad14)*%
X220495000Y-151625000D03*
%TO.P,U27,15,D0*%
%TO.N,Net-(R1-Pad1)*%
X220495000Y-136385000D03*
%TO.P,U27,16,D1*%
%TO.N,Net-(R13-Pad1)*%
X217955000Y-136385000D03*
%TO.P,U27,17,D2*%
%TO.N,Net-(R3-Pad1)*%
X215415000Y-136385000D03*
%TO.P,U27,18,D3*%
%TO.N,Net-(R14-Pad1)*%
X212875000Y-136385000D03*
%TO.P,U27,19,D4*%
%TO.N,Net-(R4-Pad1)*%
X210335000Y-136385000D03*
%TO.P,U27,20,D5*%
%TO.N,Net-(R15-Pad1)*%
X207795000Y-136385000D03*
%TO.P,U27,21,D6*%
%TO.N,Net-(R6-Pad1)*%
X205255000Y-136385000D03*
%TO.P,U27,22,D7*%
%TO.N,Net-(R16-Pad1)*%
X202715000Y-136385000D03*
%TO.P,U27,23,SD_CS*%
%TO.N,/USB-SD/SDCS*%
X200175000Y-136385000D03*
%TO.P,U27,24,~{ACT}*%
%TO.N,Net-(R35-Pad2)*%
X197635000Y-136385000D03*
%TO.P,U27,25,SD_DO*%
%TO.N,/USB-SD/SDDI*%
X195095000Y-136385000D03*
%TO.P,U27,26,SD_CK*%
%TO.N,/USB-SD/SDCK*%
X192555000Y-136385000D03*
%TO.P,U27,27,~{PCS}*%
%TO.N,Net-(R22-Pad1)*%
X190015000Y-136385000D03*
%TO.P,U27,28,VCC*%
%TO.N,/USB-SD/VDD2*%
X187475000Y-136385000D03*
%TD*%
D22*
%TO.P,U32,1,VO*%
%TO.N,VDD1*%
X221400000Y-99500000D03*
D23*
%TO.P,U32,2,GND*%
%TO.N,GND*%
X219330000Y-98230000D03*
%TO.P,U32,3,VI*%
%TO.N,VCC*%
X221400000Y-96960000D03*
%TD*%
D16*
%TO.P,J1,1,Pin_1*%
%TO.N,/DUART/~{INTA}*%
X42875000Y-186025000D03*
D17*
%TO.P,J1,2,Pin_2*%
%TO.N,~{EIRQ0}*%
X42875000Y-183485000D03*
%TO.P,J1,3,Pin_3*%
%TO.N,/DUART/~{INTA}*%
X45415000Y-186025000D03*
%TO.P,J1,4,Pin_4*%
%TO.N,~{EIRQ1}*%
X45415000Y-183485000D03*
%TO.P,J1,5,Pin_5*%
%TO.N,/DUART/~{INTA}*%
X47955000Y-186025000D03*
%TO.P,J1,6,Pin_6*%
%TO.N,~{EIRQ2}*%
X47955000Y-183485000D03*
%TO.P,J1,7,Pin_7*%
%TO.N,/DUART/~{INTA}*%
X50495000Y-186025000D03*
%TO.P,J1,8,Pin_8*%
%TO.N,~{EIRQ3}*%
X50495000Y-183485000D03*
%TO.P,J1,9,Pin_9*%
%TO.N,/DUART/~{INTA}*%
X53035000Y-186025000D03*
%TO.P,J1,10,Pin_10*%
%TO.N,~{EIRQ4}*%
X53035000Y-183485000D03*
%TO.P,J1,11,Pin_11*%
%TO.N,/DUART/~{INTA}*%
X55575000Y-186025000D03*
%TO.P,J1,12,Pin_12*%
%TO.N,~{EIRQ5}*%
X55575000Y-183485000D03*
%TO.P,J1,13,Pin_13*%
%TO.N,/DUART/~{INTA}*%
X58115000Y-186025000D03*
%TO.P,J1,14,Pin_14*%
%TO.N,~{EIRQ6}*%
X58115000Y-183485000D03*
%TO.P,J1,15,Pin_15*%
%TO.N,/DUART/~{INTA}*%
X60655000Y-186025000D03*
%TO.P,J1,16,Pin_16*%
%TO.N,~{EIRQ7}*%
X60655000Y-183485000D03*
%TD*%
D16*
%TO.P,J5,1,Pin_1*%
%TO.N,/kbdmse/~{INT_KM}*%
X43000000Y-210000000D03*
D17*
%TO.P,J5,2,Pin_2*%
%TO.N,~{EIRQ0}*%
X43000000Y-207460000D03*
%TO.P,J5,3,Pin_3*%
%TO.N,/kbdmse/~{INT_KM}*%
X45540000Y-210000000D03*
%TO.P,J5,4,Pin_4*%
%TO.N,~{EIRQ1}*%
X45540000Y-207460000D03*
%TO.P,J5,5,Pin_5*%
%TO.N,/kbdmse/~{INT_KM}*%
X48080000Y-210000000D03*
%TO.P,J5,6,Pin_6*%
%TO.N,~{EIRQ2}*%
X48080000Y-207460000D03*
%TO.P,J5,7,Pin_7*%
%TO.N,/kbdmse/~{INT_KM}*%
X50620000Y-210000000D03*
%TO.P,J5,8,Pin_8*%
%TO.N,~{EIRQ3}*%
X50620000Y-207460000D03*
%TO.P,J5,9,Pin_9*%
%TO.N,/kbdmse/~{INT_KM}*%
X53160000Y-210000000D03*
%TO.P,J5,10,Pin_10*%
%TO.N,~{EIRQ4}*%
X53160000Y-207460000D03*
%TO.P,J5,11,Pin_11*%
%TO.N,/kbdmse/~{INT_KM}*%
X55700000Y-210000000D03*
%TO.P,J5,12,Pin_12*%
%TO.N,~{EIRQ5}*%
X55700000Y-207460000D03*
%TO.P,J5,13,Pin_13*%
%TO.N,/kbdmse/~{INT_KM}*%
X58240000Y-210000000D03*
%TO.P,J5,14,Pin_14*%
%TO.N,~{EIRQ6}*%
X58240000Y-207460000D03*
%TO.P,J5,15,Pin_15*%
%TO.N,/kbdmse/~{INT_KM}*%
X60780000Y-210000000D03*
%TO.P,J5,16,Pin_16*%
%TO.N,~{EIRQ7}*%
X60780000Y-207460000D03*
%TD*%
D16*
%TO.P,J12,1,Pin_1*%
%TO.N,Net-(J12-Pad1)*%
X43000000Y-218000000D03*
D17*
%TO.P,J12,2,Pin_2*%
%TO.N,~{EIRQ0}*%
X43000000Y-215460000D03*
%TO.P,J12,3,Pin_3*%
%TO.N,Net-(J12-Pad1)*%
X45540000Y-218000000D03*
%TO.P,J12,4,Pin_4*%
%TO.N,~{EIRQ1}*%
X45540000Y-215460000D03*
%TO.P,J12,5,Pin_5*%
%TO.N,Net-(J12-Pad1)*%
X48080000Y-218000000D03*
%TO.P,J12,6,Pin_6*%
%TO.N,~{EIRQ2}*%
X48080000Y-215460000D03*
%TO.P,J12,7,Pin_7*%
%TO.N,Net-(J12-Pad1)*%
X50620000Y-218000000D03*
%TO.P,J12,8,Pin_8*%
%TO.N,~{EIRQ3}*%
X50620000Y-215460000D03*
%TO.P,J12,9,Pin_9*%
%TO.N,Net-(J12-Pad1)*%
X53160000Y-218000000D03*
%TO.P,J12,10,Pin_10*%
%TO.N,~{EIRQ4}*%
X53160000Y-215460000D03*
%TO.P,J12,11,Pin_11*%
%TO.N,Net-(J12-Pad1)*%
X55700000Y-218000000D03*
%TO.P,J12,12,Pin_12*%
%TO.N,~{EIRQ5}*%
X55700000Y-215460000D03*
%TO.P,J12,13,Pin_13*%
%TO.N,Net-(J12-Pad1)*%
X58240000Y-218000000D03*
%TO.P,J12,14,Pin_14*%
%TO.N,~{EIRQ6}*%
X58240000Y-215460000D03*
%TO.P,J12,15,Pin_15*%
%TO.N,Net-(J12-Pad1)*%
X60780000Y-218000000D03*
%TO.P,J12,16,Pin_16*%
%TO.N,~{EIRQ7}*%
X60780000Y-215460000D03*
%TD*%
D12*
%TO.P,U1,1*%
%TO.N,unconnected-(U1-Pad1)*%
X47750000Y-167650000D03*
D11*
%TO.P,U1,2*%
%TO.N,unconnected-(U1-Pad2)*%
X50290000Y-167650000D03*
%TO.P,U1,3*%
%TO.N,/DUART/INTB*%
X52830000Y-167650000D03*
%TO.P,U1,4*%
%TO.N,/DUART/~{INTB}*%
X55370000Y-167650000D03*
%TO.P,U1,5*%
%TO.N,/DUART/INTA*%
X57910000Y-167650000D03*
%TO.P,U1,6*%
%TO.N,/DUART/~{INTA}*%
X60450000Y-167650000D03*
%TO.P,U1,7,GND*%
%TO.N,GND*%
X62990000Y-167650000D03*
%TO.P,U1,8*%
%TO.N,Net-(D6-Pad1)*%
X62990000Y-160030000D03*
%TO.P,U1,9*%
%TO.N,INT_PAR*%
X60450000Y-160030000D03*
%TO.P,U1,10*%
%TO.N,Net-(D7-Pad1)*%
X57910000Y-160030000D03*
%TO.P,U1,11*%
%TO.N,/parallel/STATUS0*%
X55370000Y-160030000D03*
%TO.P,U1,12*%
%TO.N,Net-(D8-Pad1)*%
X52830000Y-160030000D03*
%TO.P,U1,13*%
%TO.N,/parallel/STATUS1*%
X50290000Y-160030000D03*
%TO.P,U1,14,VCC*%
%TO.N,VCC*%
X47750000Y-160030000D03*
%TD*%
D10*
%TO.P,R20,1*%
%TO.N,/parallel/PD3*%
X167000000Y-89000000D03*
D11*
%TO.P,R20,2*%
%TO.N,Net-(R20-Pad2)*%
X167000000Y-96620000D03*
%TD*%
D10*
%TO.P,C18,1*%
%TO.N,/parallel/PD6*%
X185000000Y-99000000D03*
%TO.P,C18,2*%
%TO.N,GND*%
X185000000Y-104000000D03*
%TD*%
D18*
%TO.P,J14,1,Pin_1*%
%TO.N,/kbdmse/KBDCLK*%
X206000000Y-84000000D03*
D19*
%TO.P,J14,2,Pin_2*%
%TO.N,/kbdmse/MSECLK*%
X206000000Y-81460000D03*
%TO.P,J14,3,Pin_3*%
%TO.N,VCC*%
X208540000Y-84000000D03*
%TO.P,J14,4,Pin_4*%
%TO.N,Net-(J14-Pad4)*%
X208540000Y-81460000D03*
%TO.P,J14,5,Pin_5*%
%TO.N,GND*%
X211080000Y-84000000D03*
%TO.P,J14,6,Pin_6*%
X211080000Y-81460000D03*
%TO.P,J14,7,Pin_7*%
%TO.N,unconnected-(J14-Pad7)*%
X213620000Y-84000000D03*
%TO.P,J14,8,Pin_8*%
%TO.N,unconnected-(J14-Pad8)*%
X213620000Y-81460000D03*
%TO.P,J14,9,Pin_9*%
%TO.N,/kbdmse/KBDDAT*%
X216160000Y-84000000D03*
%TO.P,J14,10,Pin_10*%
%TO.N,Net-(J14-Pad10)*%
X216160000Y-81460000D03*
%TD*%
D18*
%TO.P,J15,1,Pin_1*%
%TO.N,/USB-SD/VBUS*%
X230000000Y-84000000D03*
D19*
%TO.P,J15,2,Pin_2*%
X230000000Y-81460000D03*
%TO.P,J15,3,Pin_3*%
%TO.N,/USB-SD/UD-*%
X232540000Y-84000000D03*
%TO.P,J15,4,Pin_4*%
X232540000Y-81460000D03*
%TO.P,J15,5,Pin_5*%
%TO.N,/USB-SD/UD+*%
X235080000Y-84000000D03*
%TO.P,J15,6,Pin_6*%
X235080000Y-81460000D03*
%TO.P,J15,7,Pin_7*%
%TO.N,GND*%
X237620000Y-84000000D03*
%TO.P,J15,8,Pin_8*%
X237620000Y-81460000D03*
%TO.P,J15,9,Pin_9*%
%TO.N,unconnected-(J15-Pad9)*%
X240160000Y-84000000D03*
%TO.P,J15,10,Pin_10*%
%TO.N,unconnected-(J15-Pad10)*%
X240160000Y-81460000D03*
%TD*%
D16*
%TO.P,J2,1,Pin_1*%
%TO.N,/parallel/~{INT_PAR}*%
X43000000Y-202000000D03*
D17*
%TO.P,J2,2,Pin_2*%
%TO.N,~{EIRQ0}*%
X43000000Y-199460000D03*
%TO.P,J2,3,Pin_3*%
%TO.N,/parallel/~{INT_PAR}*%
X45540000Y-202000000D03*
%TO.P,J2,4,Pin_4*%
%TO.N,~{EIRQ1}*%
X45540000Y-199460000D03*
%TO.P,J2,5,Pin_5*%
%TO.N,/parallel/~{INT_PAR}*%
X48080000Y-202000000D03*
%TO.P,J2,6,Pin_6*%
%TO.N,~{EIRQ2}*%
X48080000Y-199460000D03*
%TO.P,J2,7,Pin_7*%
%TO.N,/parallel/~{INT_PAR}*%
X50620000Y-202000000D03*
%TO.P,J2,8,Pin_8*%
%TO.N,~{EIRQ3}*%
X50620000Y-199460000D03*
%TO.P,J2,9,Pin_9*%
%TO.N,/parallel/~{INT_PAR}*%
X53160000Y-202000000D03*
%TO.P,J2,10,Pin_10*%
%TO.N,~{EIRQ4}*%
X53160000Y-199460000D03*
%TO.P,J2,11,Pin_11*%
%TO.N,/parallel/~{INT_PAR}*%
X55700000Y-202000000D03*
%TO.P,J2,12,Pin_12*%
%TO.N,~{EIRQ5}*%
X55700000Y-199460000D03*
%TO.P,J2,13,Pin_13*%
%TO.N,/parallel/~{INT_PAR}*%
X58240000Y-202000000D03*
%TO.P,J2,14,Pin_14*%
%TO.N,~{EIRQ6}*%
X58240000Y-199460000D03*
%TO.P,J2,15,Pin_15*%
%TO.N,/parallel/~{INT_PAR}*%
X60780000Y-202000000D03*
%TO.P,J2,16,Pin_16*%
%TO.N,~{EIRQ7}*%
X60780000Y-199460000D03*
%TD*%
D10*
%TO.P,C12,1*%
%TO.N,/parallel/PD0*%
X149000000Y-99000000D03*
%TO.P,C12,2*%
%TO.N,GND*%
X149000000Y-104000000D03*
%TD*%
%TO.P,C13,1*%
%TO.N,/parallel/PD1*%
X155000000Y-99000000D03*
%TO.P,C13,2*%
%TO.N,GND*%
X155000000Y-104000000D03*
%TD*%
%TO.P,C14,1*%
%TO.N,/parallel/PD2*%
X161000000Y-99000000D03*
%TO.P,C14,2*%
%TO.N,GND*%
X161000000Y-104000000D03*
%TD*%
%TO.P,C15,1*%
%TO.N,/parallel/PD3*%
X167000000Y-99000000D03*
%TO.P,C15,2*%
%TO.N,GND*%
X167000000Y-104000000D03*
%TD*%
%TO.P,C16,1*%
%TO.N,/parallel/PD4*%
X173000000Y-99000000D03*
%TO.P,C16,2*%
%TO.N,GND*%
X173000000Y-104000000D03*
%TD*%
%TO.P,C17,1*%
%TO.N,/parallel/PD5*%
X179000000Y-99000000D03*
%TO.P,C17,2*%
%TO.N,GND*%
X179000000Y-104000000D03*
%TD*%
%TO.P,C19,1*%
%TO.N,/parallel/PD7*%
X191000000Y-99000000D03*
%TO.P,C19,2*%
%TO.N,GND*%
X191000000Y-104000000D03*
%TD*%
%TO.P,C20,1*%
%TO.N,/parallel/~{STROBE}*%
X143000000Y-99000000D03*
%TO.P,C20,2*%
%TO.N,GND*%
X143000000Y-104000000D03*
%TD*%
%TO.P,C9,1*%
%TO.N,VCC*%
X43000000Y-140250000D03*
%TO.P,C9,2*%
%TO.N,GND*%
X43000000Y-145250000D03*
%TD*%
D18*
%TO.P,P6,1,Pin_1*%
%TO.N,/parallel/~{STROBE}*%
X162000000Y-84000000D03*
D19*
%TO.P,P6,2,Pin_2*%
%TO.N,/parallel/~{LINEFEED}*%
X162000000Y-81460000D03*
%TO.P,P6,3,Pin_3*%
%TO.N,/parallel/PD0*%
X164540000Y-84000000D03*
%TO.P,P6,4,Pin_4*%
%TO.N,/parallel/ERROR*%
X164540000Y-81460000D03*
%TO.P,P6,5,Pin_5*%
%TO.N,/parallel/PD1*%
X167080000Y-84000000D03*
%TO.P,P6,6,Pin_6*%
%TO.N,/parallel/P-RESET*%
X167080000Y-81460000D03*
%TO.P,P6,7,Pin_7*%
%TO.N,/parallel/PD2*%
X169620000Y-84000000D03*
%TO.P,P6,8,Pin_8*%
%TO.N,/parallel/~{SEL}*%
X169620000Y-81460000D03*
%TO.P,P6,9,Pin_9*%
%TO.N,/parallel/PD3*%
X172160000Y-84000000D03*
%TO.P,P6,10,Pin_10*%
%TO.N,GND*%
X172160000Y-81460000D03*
%TO.P,P6,11,Pin_11*%
%TO.N,/parallel/PD4*%
X174700000Y-84000000D03*
%TO.P,P6,12,Pin_12*%
%TO.N,GND*%
X174700000Y-81460000D03*
%TO.P,P6,13,Pin_13*%
%TO.N,/parallel/PD5*%
X177240000Y-84000000D03*
%TO.P,P6,14,Pin_14*%
%TO.N,GND*%
X177240000Y-81460000D03*
%TO.P,P6,15,Pin_15*%
%TO.N,/parallel/PD6*%
X179780000Y-84000000D03*
%TO.P,P6,16,Pin_16*%
%TO.N,GND*%
X179780000Y-81460000D03*
%TO.P,P6,17,Pin_17*%
%TO.N,/parallel/PD7*%
X182320000Y-84000000D03*
%TO.P,P6,18,Pin_18*%
%TO.N,GND*%
X182320000Y-81460000D03*
%TO.P,P6,19,Pin_19*%
%TO.N,ACK*%
X184860000Y-84000000D03*
%TO.P,P6,20,Pin_20*%
%TO.N,GND*%
X184860000Y-81460000D03*
%TO.P,P6,21,Pin_21*%
%TO.N,/parallel/~{BUSY}*%
X187400000Y-84000000D03*
%TO.P,P6,22,Pin_22*%
%TO.N,GND*%
X187400000Y-81460000D03*
%TO.P,P6,23,Pin_23*%
%TO.N,/parallel/PAPEROUT*%
X189940000Y-84000000D03*
%TO.P,P6,24,Pin_24*%
%TO.N,GND*%
X189940000Y-81460000D03*
%TO.P,P6,25,Pin_25*%
%TO.N,/parallel/SELECT*%
X192480000Y-84000000D03*
%TO.P,P6,26,Pin_26*%
%TO.N,/parallel/STATUS0*%
X192480000Y-81460000D03*
%TD*%
D10*
%TO.P,R17,1*%
%TO.N,/parallel/PD0*%
X149000000Y-89000000D03*
D11*
%TO.P,R17,2*%
%TO.N,Net-(R17-Pad2)*%
X149000000Y-96620000D03*
%TD*%
D10*
%TO.P,R18,1*%
%TO.N,/parallel/PD1*%
X155000000Y-89000000D03*
D11*
%TO.P,R18,2*%
%TO.N,Net-(R18-Pad2)*%
X155000000Y-96620000D03*
%TD*%
D10*
%TO.P,R19,1*%
%TO.N,/parallel/PD2*%
X161000000Y-89000000D03*
D11*
%TO.P,R19,2*%
%TO.N,Net-(R19-Pad2)*%
X161000000Y-96620000D03*
%TD*%
D10*
%TO.P,R23,1*%
%TO.N,/parallel/PD4*%
X173000000Y-89000000D03*
D11*
%TO.P,R23,2*%
%TO.N,Net-(R23-Pad2)*%
X173000000Y-96620000D03*
%TD*%
D10*
%TO.P,R24,1*%
%TO.N,/parallel/PD5*%
X179000000Y-89000000D03*
D11*
%TO.P,R24,2*%
%TO.N,Net-(R24-Pad2)*%
X179000000Y-96620000D03*
%TD*%
D10*
%TO.P,R25,1*%
%TO.N,/parallel/PD6*%
X185000000Y-89000000D03*
D11*
%TO.P,R25,2*%
%TO.N,Net-(R25-Pad2)*%
X185000000Y-96620000D03*
%TD*%
D10*
%TO.P,R28,1*%
%TO.N,/parallel/~{STROBE}*%
X143000000Y-89000000D03*
D11*
%TO.P,R28,2*%
%TO.N,Net-(R28-Pad2)*%
X143000000Y-96620000D03*
%TD*%
D12*
%TO.P,RN7,1,common*%
%TO.N,VCC*%
X92625000Y-135550000D03*
D11*
%TO.P,RN7,2,R1*%
%TO.N,/parallel/~{STROBE}*%
X95165000Y-135550000D03*
%TO.P,RN7,3,R2*%
%TO.N,/parallel/~{LINEFEED}*%
X97705000Y-135550000D03*
%TO.P,RN7,4,R3*%
%TO.N,/parallel/P-RESET*%
X100245000Y-135550000D03*
%TO.P,RN7,5,R4*%
%TO.N,/parallel/~{SEL}*%
X102785000Y-135550000D03*
%TO.P,RN7,6,R5*%
%TO.N,/parallel/BUSY*%
X105325000Y-135550000D03*
%TO.P,RN7,7,R6*%
%TO.N,unconnected-(RN7-Pad7)*%
X107865000Y-135550000D03*
%TO.P,RN7,8,R7*%
%TO.N,unconnected-(RN7-Pad8)*%
X110405000Y-135550000D03*
%TO.P,RN7,9,R8*%
%TO.N,unconnected-(RN7-Pad9)*%
X112945000Y-135550000D03*
%TD*%
D12*
%TO.P,U12,1,G*%
%TO.N,~{bIORQ}*%
X156000000Y-214000000D03*
D11*
%TO.P,U12,2,P0*%
%TO.N,~{bM1}*%
X158540000Y-214000000D03*
%TO.P,U12,3,R0*%
%TO.N,Net-(RN6-Pad7)*%
X161080000Y-214000000D03*
%TO.P,U12,4,P1*%
X163620000Y-214000000D03*
%TO.P,U12,5,R1*%
X166160000Y-214000000D03*
%TO.P,U12,6,P2*%
X168700000Y-214000000D03*
%TO.P,U12,7,R2*%
X171240000Y-214000000D03*
%TO.P,U12,8,P3*%
%TO.N,bA3*%
X173780000Y-214000000D03*
%TO.P,U12,9,R3*%
%TO.N,Net-(RN6-Pad6)*%
X176320000Y-214000000D03*
%TO.P,U12,10,GND*%
%TO.N,GND*%
X178860000Y-214000000D03*
%TO.P,U12,11,P4*%
%TO.N,bA4*%
X178860000Y-206380000D03*
%TO.P,U12,12,R4*%
%TO.N,Net-(RN6-Pad5)*%
X176320000Y-206380000D03*
%TO.P,U12,13,P5*%
%TO.N,bA5*%
X173780000Y-206380000D03*
%TO.P,U12,14,R5*%
%TO.N,Net-(RN6-Pad4)*%
X171240000Y-206380000D03*
%TO.P,U12,15,P6*%
%TO.N,bA6*%
X168700000Y-206380000D03*
%TO.P,U12,16,R6*%
%TO.N,Net-(RN6-Pad3)*%
X166160000Y-206380000D03*
%TO.P,U12,17,P7*%
%TO.N,bA7*%
X163620000Y-206380000D03*
%TO.P,U12,18,R7*%
%TO.N,Net-(RN6-Pad2)*%
X161080000Y-206380000D03*
%TO.P,U12,19,P=R*%
%TO.N,~{CS_PAR}*%
X158540000Y-206380000D03*
%TO.P,U12,20,VCC*%
%TO.N,VCC*%
X156000000Y-206380000D03*
%TD*%
D12*
%TO.P,U18,1,OE*%
%TO.N,/parallel/~{PDENBL}*%
X76625000Y-149550000D03*
D11*
%TO.P,U18,2,O0*%
%TO.N,Net-(R17-Pad2)*%
X79165000Y-149550000D03*
%TO.P,U18,3,D0*%
%TO.N,bD0*%
X81705000Y-149550000D03*
%TO.P,U18,4,D1*%
%TO.N,bD1*%
X84245000Y-149550000D03*
%TO.P,U18,5,O1*%
%TO.N,Net-(R18-Pad2)*%
X86785000Y-149550000D03*
%TO.P,U18,6,O2*%
%TO.N,Net-(R19-Pad2)*%
X89325000Y-149550000D03*
%TO.P,U18,7,D2*%
%TO.N,bD2*%
X91865000Y-149550000D03*
%TO.P,U18,8,D3*%
%TO.N,bD3*%
X94405000Y-149550000D03*
%TO.P,U18,9,O3*%
%TO.N,Net-(R20-Pad2)*%
X96945000Y-149550000D03*
%TO.P,U18,10,GND*%
%TO.N,GND*%
X99485000Y-149550000D03*
%TO.P,U18,11,Cp*%
%TO.N,~{PAROUT0}*%
X99485000Y-141930000D03*
%TO.P,U18,12,O4*%
%TO.N,Net-(R23-Pad2)*%
X96945000Y-141930000D03*
%TO.P,U18,13,D4*%
%TO.N,bD4*%
X94405000Y-141930000D03*
%TO.P,U18,14,D5*%
%TO.N,bD5*%
X91865000Y-141930000D03*
%TO.P,U18,15,O5*%
%TO.N,Net-(R24-Pad2)*%
X89325000Y-141930000D03*
%TO.P,U18,16,O6*%
%TO.N,Net-(R25-Pad2)*%
X86785000Y-141930000D03*
%TO.P,U18,17,D6*%
%TO.N,bD6*%
X84245000Y-141930000D03*
%TO.P,U18,18,D7*%
%TO.N,bD7*%
X81705000Y-141930000D03*
%TO.P,U18,19,O7*%
%TO.N,Net-(R26-Pad2)*%
X79165000Y-141930000D03*
%TO.P,U18,20,VCC*%
%TO.N,VCC*%
X76625000Y-141930000D03*
%TD*%
D12*
%TO.P,U20,1,OE*%
%TO.N,ZERO*%
X110625000Y-149550000D03*
D11*
%TO.P,U20,2,O0*%
%TO.N,Net-(U19-Pad5)*%
X113165000Y-149550000D03*
%TO.P,U20,3,D0*%
%TO.N,bD0*%
X115705000Y-149550000D03*
%TO.P,U20,4,D1*%
%TO.N,bD1*%
X118245000Y-149550000D03*
%TO.P,U20,5,O1*%
%TO.N,Net-(U19-Pad9)*%
X120785000Y-149550000D03*
%TO.P,U20,6,O2*%
%TO.N,Net-(U16-Pad5)*%
X123325000Y-149550000D03*
%TO.P,U20,7,D2*%
%TO.N,bD2*%
X125865000Y-149550000D03*
%TO.P,U20,8,D3*%
%TO.N,bD3*%
X128405000Y-149550000D03*
%TO.P,U20,9,O3*%
%TO.N,Net-(U19-Pad3)*%
X130945000Y-149550000D03*
%TO.P,U20,10,GND*%
%TO.N,GND*%
X133485000Y-149550000D03*
%TO.P,U20,11,Cp*%
%TO.N,~{PAROUT2}*%
X133485000Y-141930000D03*
%TO.P,U20,12,O4*%
%TO.N,PARINT*%
X130945000Y-141930000D03*
%TO.P,U20,13,D4*%
%TO.N,bD4*%
X128405000Y-141930000D03*
%TO.P,U20,14,D5*%
%TO.N,bD5*%
X125865000Y-141930000D03*
%TO.P,U20,15,O5*%
%TO.N,/parallel/~{PDENBL}*%
X123325000Y-141930000D03*
%TO.P,U20,16,O6*%
%TO.N,/parallel/STATUS0*%
X120785000Y-141930000D03*
%TO.P,U20,17,D6*%
%TO.N,bD6*%
X118245000Y-141930000D03*
%TO.P,U20,18,D7*%
%TO.N,bD7*%
X115705000Y-141930000D03*
%TO.P,U20,19,O7*%
%TO.N,/parallel/STATUS1*%
X113165000Y-141930000D03*
%TO.P,U20,20,VCC*%
%TO.N,VCC*%
X110625000Y-141930000D03*
%TD*%
D12*
%TO.P,U22,1,OEa*%
%TO.N,~{PARIN0}*%
X76625000Y-163550000D03*
D11*
%TO.P,U22,2,I0a*%
%TO.N,/parallel/PD0*%
X79165000Y-163550000D03*
%TO.P,U22,3,O3b*%
%TO.N,bD7*%
X81705000Y-163550000D03*
%TO.P,U22,4,I1a*%
%TO.N,/parallel/PD1*%
X84245000Y-163550000D03*
%TO.P,U22,5,O2b*%
%TO.N,bD6*%
X86785000Y-163550000D03*
%TO.P,U22,6,I2a*%
%TO.N,/parallel/PD2*%
X89325000Y-163550000D03*
%TO.P,U22,7,O1b*%
%TO.N,bD5*%
X91865000Y-163550000D03*
%TO.P,U22,8,I3a*%
%TO.N,/parallel/PD3*%
X94405000Y-163550000D03*
%TO.P,U22,9,O0b*%
%TO.N,bD4*%
X96945000Y-163550000D03*
%TO.P,U22,10,GND*%
%TO.N,GND*%
X99485000Y-163550000D03*
%TO.P,U22,11,I0b*%
%TO.N,/parallel/PD4*%
X99485000Y-155930000D03*
%TO.P,U22,12,O3a*%
%TO.N,bD3*%
X96945000Y-155930000D03*
%TO.P,U22,13,I1b*%
%TO.N,/parallel/PD5*%
X94405000Y-155930000D03*
%TO.P,U22,14,O2a*%
%TO.N,bD2*%
X91865000Y-155930000D03*
%TO.P,U22,15,I2b*%
%TO.N,/parallel/PD6*%
X89325000Y-155930000D03*
%TO.P,U22,16,O1a*%
%TO.N,bD1*%
X86785000Y-155930000D03*
%TO.P,U22,17,I3b*%
%TO.N,/parallel/PD7*%
X84245000Y-155930000D03*
%TO.P,U22,18,O0a*%
%TO.N,bD0*%
X81705000Y-155930000D03*
%TO.P,U22,19,OEb*%
%TO.N,~{PARIN0}*%
X79165000Y-155930000D03*
%TO.P,U22,20,VCC*%
%TO.N,VCC*%
X76625000Y-155930000D03*
%TD*%
D12*
%TO.P,U23,1,OEa*%
%TO.N,~{PARIN2}*%
X151000000Y-179000000D03*
D11*
%TO.P,U23,2,I0a*%
%TO.N,Net-(U16-Pad8)*%
X153540000Y-179000000D03*
%TO.P,U23,3,O3b*%
%TO.N,bD7*%
X156080000Y-179000000D03*
%TO.P,U23,4,I1a*%
%TO.N,Net-(U16-Pad10)*%
X158620000Y-179000000D03*
%TO.P,U23,5,O2b*%
%TO.N,bD6*%
X161160000Y-179000000D03*
%TO.P,U23,6,I2a*%
%TO.N,/parallel/P-RESET*%
X163700000Y-179000000D03*
%TO.P,U23,7,O1b*%
%TO.N,bD5*%
X166240000Y-179000000D03*
%TO.P,U23,8,I3a*%
%TO.N,Net-(U16-Pad12)*%
X168780000Y-179000000D03*
%TO.P,U23,9,O0b*%
%TO.N,bD4*%
X171320000Y-179000000D03*
%TO.P,U23,10,GND*%
%TO.N,GND*%
X173860000Y-179000000D03*
%TO.P,U23,11,I0b*%
%TO.N,PARINT*%
X173860000Y-171380000D03*
%TO.P,U23,12,O3a*%
%TO.N,bD3*%
X171320000Y-171380000D03*
%TO.P,U23,13,I1b*%
%TO.N,/parallel/~{PDENBL}*%
X168780000Y-171380000D03*
%TO.P,U23,14,O2a*%
%TO.N,bD2*%
X166240000Y-171380000D03*
%TO.P,U23,15,I2b*%
%TO.N,/parallel/STATUS0*%
X163700000Y-171380000D03*
%TO.P,U23,16,O1a*%
%TO.N,bD1*%
X161160000Y-171380000D03*
%TO.P,U23,17,I3b*%
%TO.N,/parallel/STATUS1*%
X158620000Y-171380000D03*
%TO.P,U23,18,O0a*%
%TO.N,bD0*%
X156080000Y-171380000D03*
%TO.P,U23,19,OEb*%
%TO.N,~{PARIN2}*%
X153540000Y-171380000D03*
%TO.P,U23,20,VCC*%
%TO.N,VCC*%
X151000000Y-171380000D03*
%TD*%
D10*
%TO.P,C51,1*%
%TO.N,VCC*%
X146000000Y-174000000D03*
%TO.P,C51,2*%
%TO.N,GND*%
X146000000Y-179000000D03*
%TD*%
%TO.P,C31,1*%
%TO.N,VCC*%
X75000000Y-209000000D03*
%TO.P,C31,2*%
%TO.N,GND*%
X75000000Y-214000000D03*
%TD*%
D16*
%TO.P,J13,1,Pin_1*%
%TO.N,/DUART/~{INTB}*%
X42875000Y-194025000D03*
D17*
%TO.P,J13,2,Pin_2*%
%TO.N,~{EIRQ0}*%
X42875000Y-191485000D03*
%TO.P,J13,3,Pin_3*%
%TO.N,/DUART/~{INTB}*%
X45415000Y-194025000D03*
%TO.P,J13,4,Pin_4*%
%TO.N,~{EIRQ1}*%
X45415000Y-191485000D03*
%TO.P,J13,5,Pin_5*%
%TO.N,/DUART/~{INTB}*%
X47955000Y-194025000D03*
%TO.P,J13,6,Pin_6*%
%TO.N,~{EIRQ2}*%
X47955000Y-191485000D03*
%TO.P,J13,7,Pin_7*%
%TO.N,/DUART/~{INTB}*%
X50495000Y-194025000D03*
%TO.P,J13,8,Pin_8*%
%TO.N,~{EIRQ3}*%
X50495000Y-191485000D03*
%TO.P,J13,9,Pin_9*%
%TO.N,/DUART/~{INTB}*%
X53035000Y-194025000D03*
%TO.P,J13,10,Pin_10*%
%TO.N,~{EIRQ4}*%
X53035000Y-191485000D03*
%TO.P,J13,11,Pin_11*%
%TO.N,/DUART/~{INTB}*%
X55575000Y-194025000D03*
%TO.P,J13,12,Pin_12*%
%TO.N,~{EIRQ5}*%
X55575000Y-191485000D03*
%TO.P,J13,13,Pin_13*%
%TO.N,/DUART/~{INTB}*%
X58115000Y-194025000D03*
%TO.P,J13,14,Pin_14*%
%TO.N,~{EIRQ6}*%
X58115000Y-191485000D03*
%TO.P,J13,15,Pin_15*%
%TO.N,/DUART/~{INTB}*%
X60655000Y-194025000D03*
%TO.P,J13,16,Pin_16*%
%TO.N,~{EIRQ7}*%
X60655000Y-191485000D03*
%TD*%
D10*
%TO.P,C52,1*%
%TO.N,VCC*%
X207000000Y-162050000D03*
%TO.P,C52,2*%
%TO.N,GND*%
X212000000Y-162050000D03*
%TD*%
%TO.P,C2,1*%
%TO.N,Net-(C2-Pad1)*%
X48000000Y-126250000D03*
%TO.P,C2,2*%
%TO.N,Net-(C2-Pad2)*%
X53000000Y-126250000D03*
%TD*%
%TO.P,C3,1*%
%TO.N,Net-(C3-Pad1)*%
X56000000Y-126250000D03*
%TO.P,C3,2*%
%TO.N,Net-(C3-Pad2)*%
X61000000Y-126250000D03*
%TD*%
%TO.P,C4,1*%
%TO.N,Net-(C4-Pad1)*%
X48000000Y-150250000D03*
%TO.P,C4,2*%
%TO.N,Net-(C4-Pad2)*%
X53000000Y-150250000D03*
%TD*%
%TO.P,C5,1*%
%TO.N,Net-(C5-Pad1)*%
X55500000Y-150250000D03*
%TO.P,C5,2*%
%TO.N,Net-(C5-Pad2)*%
X60500000Y-150250000D03*
%TD*%
%TO.P,C6,1*%
%TO.N,VCC*%
X48000000Y-109250000D03*
%TO.P,C6,2*%
%TO.N,Net-(C6-Pad2)*%
X53000000Y-109250000D03*
%TD*%
%TO.P,C8,1*%
%TO.N,VCC*%
X48000000Y-132750000D03*
%TO.P,C8,2*%
%TO.N,Net-(C8-Pad2)*%
X53000000Y-132750000D03*
%TD*%
%TO.P,C10,1*%
%TO.N,Net-(C10-Pad1)*%
X56000000Y-109250000D03*
%TO.P,C10,2*%
%TO.N,GND*%
X61000000Y-109250000D03*
%TD*%
%TO.P,C11,1*%
%TO.N,Net-(C11-Pad1)*%
X55500000Y-132750000D03*
%TO.P,C11,2*%
%TO.N,GND*%
X60500000Y-132750000D03*
%TD*%
%TO.P,C50,1*%
%TO.N,VCC*%
X105625000Y-158550000D03*
%TO.P,C50,2*%
%TO.N,GND*%
X105625000Y-163550000D03*
%TD*%
D12*
%TO.P,U8,1,C1+*%
%TO.N,Net-(C2-Pad1)*%
X48000000Y-121250000D03*
D11*
%TO.P,U8,2,VS+*%
%TO.N,Net-(C6-Pad2)*%
X50540000Y-121250000D03*
%TO.P,U8,3,C1-*%
%TO.N,Net-(C2-Pad2)*%
X53080000Y-121250000D03*
%TO.P,U8,4,C2+*%
%TO.N,Net-(C3-Pad1)*%
X55620000Y-121250000D03*
%TO.P,U8,5,C2-*%
%TO.N,Net-(C3-Pad2)*%
X58160000Y-121250000D03*
%TO.P,U8,6,VS-*%
%TO.N,Net-(C10-Pad1)*%
X60700000Y-121250000D03*
%TO.P,U8,7,T2OUT*%
%TO.N,/DUART/TXA*%
X63240000Y-121250000D03*
%TO.P,U8,8,R2IN*%
%TO.N,/DUART/RXA*%
X65780000Y-121250000D03*
%TO.P,U8,9,R2OUT*%
%TO.N,/DUART/TTL_RXA*%
X65780000Y-113630000D03*
%TO.P,U8,10,T2IN*%
%TO.N,/DUART/TTL_TXA*%
X63240000Y-113630000D03*
%TO.P,U8,11,T1IN*%
%TO.N,/DUART/~{TTL_RTSA}*%
X60700000Y-113630000D03*
%TO.P,U8,12,R1OUT*%
%TO.N,/DUART/~{TTL_CTSA}*%
X58160000Y-113630000D03*
%TO.P,U8,13,R1IN*%
%TO.N,/DUART/~{CTSA}*%
X55620000Y-113630000D03*
%TO.P,U8,14,T1OUT*%
%TO.N,/DUART/~{RTSA}*%
X53080000Y-113630000D03*
%TO.P,U8,15,GND*%
%TO.N,GND*%
X50540000Y-113630000D03*
%TO.P,U8,16,VCC*%
%TO.N,VCC*%
X48000000Y-113630000D03*
%TD*%
D12*
%TO.P,U9,1,C1+*%
%TO.N,Net-(C4-Pad1)*%
X48000000Y-145250000D03*
D11*
%TO.P,U9,2,VS+*%
%TO.N,Net-(C8-Pad2)*%
X50540000Y-145250000D03*
%TO.P,U9,3,C1-*%
%TO.N,Net-(C4-Pad2)*%
X53080000Y-145250000D03*
%TO.P,U9,4,C2+*%
%TO.N,Net-(C5-Pad1)*%
X55620000Y-145250000D03*
%TO.P,U9,5,C2-*%
%TO.N,Net-(C5-Pad2)*%
X58160000Y-145250000D03*
%TO.P,U9,6,VS-*%
%TO.N,Net-(C11-Pad1)*%
X60700000Y-145250000D03*
%TO.P,U9,7,T2OUT*%
%TO.N,/DUART/TXB*%
X63240000Y-145250000D03*
%TO.P,U9,8,R2IN*%
%TO.N,/DUART/RXB*%
X65780000Y-145250000D03*
%TO.P,U9,9,R2OUT*%
%TO.N,/DUART/TTL_RXB*%
X65780000Y-137630000D03*
%TO.P,U9,10,T2IN*%
%TO.N,/DUART/TTL_TXB*%
X63240000Y-137630000D03*
%TO.P,U9,11,T1IN*%
%TO.N,/DUART/~{TTL_RTSB}*%
X60700000Y-137630000D03*
%TO.P,U9,12,R1OUT*%
%TO.N,/DUART/~{TTL_CTSB}*%
X58160000Y-137630000D03*
%TO.P,U9,13,R1IN*%
%TO.N,/DUART/~{CTSB}*%
X55620000Y-137630000D03*
%TO.P,U9,14,T1OUT*%
%TO.N,/DUART/~{RTSB}*%
X53080000Y-137630000D03*
%TO.P,U9,15,GND*%
%TO.N,GND*%
X50540000Y-137630000D03*
%TO.P,U9,16,VCC*%
%TO.N,VCC*%
X48000000Y-137630000D03*
%TD*%
D13*
%TO.P,D2,1,K*%
%TO.N,Net-(D2-Pad1)*%
X58000000Y-81000000D03*
D14*
%TO.P,D2,2,A*%
%TO.N,470A*%
X55460000Y-81000000D03*
%TD*%
D15*
%TO.P,H1,1,1*%
%TO.N,GND*%
X40000000Y-75000000D03*
%TD*%
D10*
%TO.P,R37,1*%
%TO.N,Net-(D11-Pad2)*%
X43000000Y-89000000D03*
D11*
%TO.P,R37,2*%
%TO.N,VCC*%
X50620000Y-89000000D03*
%TD*%
D24*
%TO.P,SW1,*%
%TO.N,*%
X79760000Y-78490000D03*
X72750000Y-78490000D03*
D25*
%TO.P,SW1,1,1*%
%TO.N,GND*%
X74000000Y-76000000D03*
%TO.P,SW1,2,2*%
%TO.N,Net-(JP1-Pad2)*%
X78500000Y-76000000D03*
%TD*%
D13*
%TO.P,D9,1,K*%
%TO.N,Net-(D9-Pad1)*%
X68000000Y-81000000D03*
D14*
%TO.P,D9,2,A*%
%TO.N,470B*%
X65460000Y-81000000D03*
%TD*%
D13*
%TO.P,D11,1,K*%
%TO.N,GND*%
X48000000Y-81000000D03*
D14*
%TO.P,D11,2,A*%
%TO.N,Net-(D11-Pad2)*%
X45460000Y-81000000D03*
%TD*%
D13*
%TO.P,D5,1,K*%
%TO.N,Net-(D5-Pad1)*%
X75000000Y-89000000D03*
D14*
%TO.P,D5,2,A*%
%TO.N,470C*%
X77540000Y-89000000D03*
%TD*%
D13*
%TO.P,D4,1,K*%
%TO.N,Net-(D4-Pad1)*%
X85000000Y-89000000D03*
D14*
%TO.P,D4,2,A*%
%TO.N,470D*%
X87540000Y-89000000D03*
%TD*%
D13*
%TO.P,D3,1,K*%
%TO.N,Net-(D3-Pad1)*%
X95000000Y-89000000D03*
D14*
%TO.P,D3,2,A*%
%TO.N,470E*%
X97540000Y-89000000D03*
%TD*%
D13*
%TO.P,D6,1,K*%
%TO.N,Net-(D6-Pad1)*%
X105000000Y-89000000D03*
D14*
%TO.P,D6,2,A*%
%TO.N,470F*%
X107540000Y-89000000D03*
%TD*%
D13*
%TO.P,D8,1,K*%
%TO.N,Net-(D8-Pad1)*%
X125000000Y-89000000D03*
D14*
%TO.P,D8,2,A*%
%TO.N,470H*%
X127540000Y-89000000D03*
%TD*%
D13*
%TO.P,D7,1,K*%
%TO.N,Net-(D7-Pad1)*%
X115000000Y-89000000D03*
D14*
%TO.P,D7,2,A*%
%TO.N,470G*%
X117540000Y-89000000D03*
%TD*%
D12*
%TO.P,C44,1*%
%TO.N,VCC*%
X192000000Y-217000000D03*
D10*
%TO.P,C44,2*%
%TO.N,GND*%
X194500000Y-217000000D03*
%TD*%
D26*
%TO.P,P2,1,Pin_1*%
%TO.N,VCC*%
X182000000Y-223000000D03*
D19*
%TO.P,P2,2,Pin_2*%
X182000000Y-225540000D03*
%TO.P,P2,3,Pin_3*%
%TO.N,/bus/A15*%
X179460000Y-223000000D03*
%TO.P,P2,4,Pin_4*%
%TO.N,/bus/A31*%
X179460000Y-225540000D03*
%TO.P,P2,5,Pin_5*%
%TO.N,/bus/A14*%
X176920000Y-223000000D03*
%TO.P,P2,6,Pin_6*%
%TO.N,/bus/A30*%
X176920000Y-225540000D03*
%TO.P,P2,7,Pin_7*%
%TO.N,/bus/A13*%
X174380000Y-223000000D03*
%TO.P,P2,8,Pin_8*%
%TO.N,/bus/A29*%
X174380000Y-225540000D03*
%TO.P,P2,9,Pin_9*%
%TO.N,/bus/A12*%
X171840000Y-223000000D03*
%TO.P,P2,10,Pin_10*%
%TO.N,/bus/A28*%
X171840000Y-225540000D03*
%TO.P,P2,11,Pin_11*%
%TO.N,/bus/A11*%
X169300000Y-223000000D03*
%TO.P,P2,12,Pin_12*%
%TO.N,/bus/A27*%
X169300000Y-225540000D03*
%TO.P,P2,13,Pin_13*%
%TO.N,/bus/A10*%
X166760000Y-223000000D03*
%TO.P,P2,14,Pin_14*%
%TO.N,/bus/A26*%
X166760000Y-225540000D03*
%TO.P,P2,15,Pin_15*%
%TO.N,/bus/A9*%
X164220000Y-223000000D03*
%TO.P,P2,16,Pin_16*%
%TO.N,/bus/A25*%
X164220000Y-225540000D03*
%TO.P,P2,17,Pin_17*%
%TO.N,/bus/A8*%
X161680000Y-223000000D03*
%TO.P,P2,18,Pin_18*%
%TO.N,/bus/A24*%
X161680000Y-225540000D03*
%TO.P,P2,19,Pin_19*%
%TO.N,+12V*%
X159140000Y-223000000D03*
%TO.P,P2,20,Pin_20*%
X159140000Y-225540000D03*
%TO.P,P2,21,Pin_21*%
%TO.N,A7*%
X156600000Y-223000000D03*
%TO.P,P2,22,Pin_22*%
%TO.N,/bus/A23*%
X156600000Y-225540000D03*
%TO.P,P2,23,Pin_23*%
%TO.N,A6*%
X154060000Y-223000000D03*
%TO.P,P2,24,Pin_24*%
%TO.N,/bus/A22*%
X154060000Y-225540000D03*
%TO.P,P2,25,Pin_25*%
%TO.N,A5*%
X151520000Y-223000000D03*
%TO.P,P2,26,Pin_26*%
%TO.N,/bus/A21*%
X151520000Y-225540000D03*
%TO.P,P2,27,Pin_27*%
%TO.N,A4*%
X148980000Y-223000000D03*
%TO.P,P2,28,Pin_28*%
%TO.N,/bus/A20*%
X148980000Y-225540000D03*
%TO.P,P2,29,Pin_29*%
%TO.N,A3*%
X146440000Y-223000000D03*
%TO.P,P2,30,Pin_30*%
%TO.N,/bus/A19*%
X146440000Y-225540000D03*
%TO.P,P2,31,Pin_31*%
%TO.N,A2*%
X143900000Y-223000000D03*
%TO.P,P2,32,Pin_32*%
%TO.N,/bus/A18*%
X143900000Y-225540000D03*
%TO.P,P2,33,Pin_33*%
%TO.N,A1*%
X141360000Y-223000000D03*
%TO.P,P2,34,Pin_34*%
%TO.N,/bus/A17*%
X141360000Y-225540000D03*
%TO.P,P2,35,Pin_35*%
%TO.N,A0*%
X138820000Y-223000000D03*
%TO.P,P2,36,Pin_36*%
%TO.N,/bus/A16*%
X138820000Y-225540000D03*
%TO.P,P2,37,Pin_37*%
%TO.N,-12V*%
X136280000Y-223000000D03*
%TO.P,P2,38,Pin_38*%
X136280000Y-225540000D03*
%TO.P,P2,39,Pin_39*%
%TO.N,/bus/IC3*%
X133740000Y-223000000D03*
%TO.P,P2,40,Pin_40*%
%TO.N,/bus/~{TEND1}*%
X133740000Y-225540000D03*
%TO.P,P2,41,Pin_41*%
%TO.N,/bus/IC2*%
X131200000Y-223000000D03*
%TO.P,P2,42,Pin_42*%
%TO.N,/bus/~{DREQ1}*%
X131200000Y-225540000D03*
%TO.P,P2,43,Pin_43*%
%TO.N,/bus/IC1*%
X128660000Y-223000000D03*
%TO.P,P2,44,Pin_44*%
%TO.N,/bus/~{TEND0}*%
X128660000Y-225540000D03*
%TO.P,P2,45,Pin_45*%
%TO.N,/bus/IC0*%
X126120000Y-223000000D03*
%TO.P,P2,46,Pin_46*%
%TO.N,/bus/~{DREQ0}*%
X126120000Y-225540000D03*
%TO.P,P2,47,Pin_47*%
%TO.N,/bus/AUXCLK1*%
X123580000Y-223000000D03*
%TO.P,P2,48,Pin_48*%
%TO.N,/bus/AUXCLK0*%
X123580000Y-225540000D03*
%TO.P,P2,49,Pin_49*%
%TO.N,GND*%
X121040000Y-223000000D03*
%TO.P,P2,50,Pin_50*%
X121040000Y-225540000D03*
%TD*%
D26*
%TO.P,P3,1,Pin_1*%
%TO.N,VCC*%
X258000000Y-223000000D03*
D19*
%TO.P,P3,2,Pin_2*%
X258000000Y-225540000D03*
%TO.P,P3,3,Pin_3*%
%TO.N,/bus/D15*%
X255460000Y-223000000D03*
%TO.P,P3,4,Pin_4*%
%TO.N,/bus/D31*%
X255460000Y-225540000D03*
%TO.P,P3,5,Pin_5*%
%TO.N,/bus/D14*%
X252920000Y-223000000D03*
%TO.P,P3,6,Pin_6*%
%TO.N,/bus/D30*%
X252920000Y-225540000D03*
%TO.P,P3,7,Pin_7*%
%TO.N,/bus/D13*%
X250380000Y-223000000D03*
%TO.P,P3,8,Pin_8*%
%TO.N,/bus/D29*%
X250380000Y-225540000D03*
%TO.P,P3,9,Pin_9*%
%TO.N,/bus/D12*%
X247840000Y-223000000D03*
%TO.P,P3,10,Pin_10*%
%TO.N,/bus/D28*%
X247840000Y-225540000D03*
%TO.P,P3,11,Pin_11*%
%TO.N,/bus/D11*%
X245300000Y-223000000D03*
%TO.P,P3,12,Pin_12*%
%TO.N,/bus/D27*%
X245300000Y-225540000D03*
%TO.P,P3,13,Pin_13*%
%TO.N,/bus/D10*%
X242760000Y-223000000D03*
%TO.P,P3,14,Pin_14*%
%TO.N,/bus/D26*%
X242760000Y-225540000D03*
%TO.P,P3,15,Pin_15*%
%TO.N,/bus/D9*%
X240220000Y-223000000D03*
%TO.P,P3,16,Pin_16*%
%TO.N,/bus/D25*%
X240220000Y-225540000D03*
%TO.P,P3,17,Pin_17*%
%TO.N,/bus/D8*%
X237680000Y-223000000D03*
%TO.P,P3,18,Pin_18*%
%TO.N,/bus/D24*%
X237680000Y-225540000D03*
%TO.P,P3,19,Pin_19*%
%TO.N,D7*%
X235140000Y-223000000D03*
%TO.P,P3,20,Pin_20*%
%TO.N,/bus/D23*%
X235140000Y-225540000D03*
%TO.P,P3,21,Pin_21*%
%TO.N,D6*%
X232600000Y-223000000D03*
%TO.P,P3,22,Pin_22*%
%TO.N,/bus/D22*%
X232600000Y-225540000D03*
%TO.P,P3,23,Pin_23*%
%TO.N,D5*%
X230060000Y-223000000D03*
%TO.P,P3,24,Pin_24*%
%TO.N,/bus/D21*%
X230060000Y-225540000D03*
%TO.P,P3,25,Pin_25*%
%TO.N,D4*%
X227520000Y-223000000D03*
%TO.P,P3,26,Pin_26*%
%TO.N,/bus/D20*%
X227520000Y-225540000D03*
%TO.P,P3,27,Pin_27*%
%TO.N,D3*%
X224980000Y-223000000D03*
%TO.P,P3,28,Pin_28*%
%TO.N,/bus/D19*%
X224980000Y-225540000D03*
%TO.P,P3,29,Pin_29*%
%TO.N,D2*%
X222440000Y-223000000D03*
%TO.P,P3,30,Pin_30*%
%TO.N,/bus/D18*%
X222440000Y-225540000D03*
%TO.P,P3,31,Pin_31*%
%TO.N,D1*%
X219900000Y-223000000D03*
%TO.P,P3,32,Pin_32*%
%TO.N,/bus/D17*%
X219900000Y-225540000D03*
%TO.P,P3,33,Pin_33*%
%TO.N,D0*%
X217360000Y-223000000D03*
%TO.P,P3,34,Pin_34*%
%TO.N,/bus/D16*%
X217360000Y-225540000D03*
%TO.P,P3,35,Pin_35*%
%TO.N,/bus/~{BUSERR}*%
X214820000Y-223000000D03*
%TO.P,P3,36,Pin_36*%
%TO.N,/bus/UDS*%
X214820000Y-225540000D03*
%TO.P,P3,37,Pin_37*%
%TO.N,/bus/~{VPA}*%
X212280000Y-223000000D03*
%TO.P,P3,38,Pin_38*%
%TO.N,/bus/LDS*%
X212280000Y-225540000D03*
%TO.P,P3,39,Pin_39*%
%TO.N,/bus/~{VMA}*%
X209740000Y-223000000D03*
%TO.P,P3,40,Pin_40*%
%TO.N,/bus/S2*%
X209740000Y-225540000D03*
%TO.P,P3,41,Pin_41*%
%TO.N,/bus/~{BHE}*%
X207200000Y-223000000D03*
%TO.P,P3,42,Pin_42*%
%TO.N,/bus/S1*%
X207200000Y-225540000D03*
%TO.P,P3,43,Pin_43*%
%TO.N,/bus/IPL2*%
X204660000Y-223000000D03*
%TO.P,P3,44,Pin_44*%
%TO.N,/bus/S0*%
X204660000Y-225540000D03*
%TO.P,P3,45,Pin_45*%
%TO.N,/bus/IPL1*%
X202120000Y-223000000D03*
%TO.P,P3,46,Pin_46*%
%TO.N,/bus/AUXCLK3*%
X202120000Y-225540000D03*
%TO.P,P3,47,Pin_47*%
%TO.N,/bus/IPL0*%
X199580000Y-223000000D03*
%TO.P,P3,48,Pin_48*%
%TO.N,/bus/AUXCLK2*%
X199580000Y-225540000D03*
%TO.P,P3,49,Pin_49*%
%TO.N,GND*%
X197040000Y-223000000D03*
%TO.P,P3,50,Pin_50*%
X197040000Y-225540000D03*
%TD*%
D12*
%TO.P,U11,1,I0/CLK*%
%TO.N,unconnected-(U11-Pad1)*%
X191000000Y-200750000D03*
D11*
%TO.P,U11,2,I1*%
%TO.N,~{bRD}*%
X193540000Y-200750000D03*
%TO.P,U11,3,I2*%
%TO.N,~{bWR}*%
X196080000Y-200750000D03*
%TO.P,U11,4,I3*%
%TO.N,bA0*%
X198620000Y-200750000D03*
%TO.P,U11,5,I4*%
%TO.N,bA1*%
X201160000Y-200750000D03*
%TO.P,U11,6,I5*%
%TO.N,bA2*%
X203700000Y-200750000D03*
%TO.P,U11,7,I6*%
%TO.N,~{CS_PAR}*%
X206240000Y-200750000D03*
%TO.P,U11,8,I7*%
%TO.N,~{CS_DUART}*%
X208780000Y-200750000D03*
%TO.P,U11,9,I8*%
%TO.N,PARINT*%
X211320000Y-200750000D03*
%TO.P,U11,10,I9*%
%TO.N,ACK*%
X213860000Y-200750000D03*
%TO.P,U11,11,I10*%
%TO.N,P24-OB*%
X216400000Y-200750000D03*
%TO.P,U11,12,GND*%
%TO.N,GND*%
X218940000Y-200750000D03*
%TO.P,U11,13,I11*%
%TO.N,P25-BF*%
X218940000Y-193130000D03*
%TO.P,U11,14,O9*%
%TO.N,INT_KM*%
X216400000Y-193130000D03*
%TO.P,U11,15,O8*%
%TO.N,INT_PAR*%
X213860000Y-193130000D03*
%TO.P,U11,16,O7*%
%TO.N,~{BUS_EN}*%
X211320000Y-193130000D03*
%TO.P,U11,17,O6*%
%TO.N,~{CS_US}*%
X208780000Y-193130000D03*
%TO.P,U11,18,O5*%
%TO.N,~{CS_KM}*%
X206240000Y-193130000D03*
%TO.P,U11,19,O4*%
%TO.N,~{PAROUT2}*%
X203700000Y-193130000D03*
%TO.P,U11,20,O3*%
%TO.N,~{PAROUT0}*%
X201160000Y-193130000D03*
%TO.P,U11,21,O2*%
%TO.N,~{PARIN2}*%
X198620000Y-193130000D03*
%TO.P,U11,22,O1*%
%TO.N,~{PARIN1}*%
X196080000Y-193130000D03*
%TO.P,U11,23,O0*%
%TO.N,~{PARIN0}*%
X193540000Y-193130000D03*
%TO.P,U11,24,VCC*%
%TO.N,VCC*%
X191000000Y-193130000D03*
%TD*%
D26*
%TO.P,P1,1,Pin_1*%
%TO.N,VCC*%
X108000000Y-223000000D03*
D19*
%TO.P,P1,2,Pin_2*%
X108000000Y-225540000D03*
%TO.P,P1,3,Pin_3*%
%TO.N,~{RD}*%
X105460000Y-223000000D03*
%TO.P,P1,4,Pin_4*%
%TO.N,/bus/E*%
X105460000Y-225540000D03*
%TO.P,P1,5,Pin_5*%
%TO.N,~{WR}*%
X102920000Y-223000000D03*
%TO.P,P1,6,Pin_6*%
%TO.N,/bus/ST*%
X102920000Y-225540000D03*
%TO.P,P1,7,Pin_7*%
%TO.N,~{IORQ}*%
X100380000Y-223000000D03*
%TO.P,P1,8,Pin_8*%
%TO.N,/bus/PHI*%
X100380000Y-225540000D03*
%TO.P,P1,9,Pin_9*%
%TO.N,/bus/~{MREQ}*%
X97840000Y-223000000D03*
%TO.P,P1,10,Pin_10*%
%TO.N,/bus/~{INT2}*%
X97840000Y-225540000D03*
%TO.P,P1,11,Pin_11*%
%TO.N,~{M1}*%
X95300000Y-223000000D03*
%TO.P,P1,12,Pin_12*%
%TO.N,/bus/~{INT1}*%
X95300000Y-225540000D03*
%TO.P,P1,13,Pin_13*%
%TO.N,/bus/~{BUSACK}*%
X92760000Y-223000000D03*
%TO.P,P1,14,Pin_14*%
%TO.N,/bus/CRUCLK*%
X92760000Y-225540000D03*
%TO.P,P1,15,Pin_15*%
%TO.N,/bus/CLK*%
X90220000Y-223000000D03*
%TO.P,P1,16,Pin_16*%
%TO.N,/bus/CRUOUT*%
X90220000Y-225540000D03*
%TO.P,P1,17,Pin_17*%
%TO.N,/bus/~{INT0}*%
X87680000Y-223000000D03*
%TO.P,P1,18,Pin_18*%
%TO.N,/bus/CRUIN*%
X87680000Y-225540000D03*
%TO.P,P1,19,Pin_19*%
%TO.N,/bus/~{NMI}*%
X85140000Y-223000000D03*
%TO.P,P1,20,Pin_20*%
%TO.N,~{RES_IN}*%
X85140000Y-225540000D03*
%TO.P,P1,21,Pin_21*%
%TO.N,~{RES_OUT}*%
X82600000Y-223000000D03*
%TO.P,P1,22,Pin_22*%
%TO.N,/bus/USER8*%
X82600000Y-225540000D03*
%TO.P,P1,23,Pin_23*%
%TO.N,/bus/~{BUSRQ}*%
X80060000Y-223000000D03*
%TO.P,P1,24,Pin_24*%
%TO.N,/bus/USER7*%
X80060000Y-225540000D03*
%TO.P,P1,25,Pin_25*%
%TO.N,/bus/~{WAIT}*%
X77520000Y-223000000D03*
%TO.P,P1,26,Pin_26*%
%TO.N,/bus/USER6*%
X77520000Y-225540000D03*
%TO.P,P1,27,Pin_27*%
%TO.N,/bus/~{HALT}*%
X74980000Y-223000000D03*
%TO.P,P1,28,Pin_28*%
%TO.N,/bus/USER5*%
X74980000Y-225540000D03*
%TO.P,P1,29,Pin_29*%
%TO.N,/bus/~{RFSH}*%
X72440000Y-223000000D03*
%TO.P,P1,30,Pin_30*%
%TO.N,/bus/USER4*%
X72440000Y-225540000D03*
%TO.P,P1,31,Pin_31*%
%TO.N,~{EIRQ7}*%
X69900000Y-223000000D03*
%TO.P,P1,32,Pin_32*%
%TO.N,/bus/USER3*%
X69900000Y-225540000D03*
%TO.P,P1,33,Pin_33*%
%TO.N,~{EIRQ6}*%
X67360000Y-223000000D03*
%TO.P,P1,34,Pin_34*%
%TO.N,/bus/USER2*%
X67360000Y-225540000D03*
%TO.P,P1,35,Pin_35*%
%TO.N,~{EIRQ5}*%
X64820000Y-223000000D03*
%TO.P,P1,36,Pin_36*%
%TO.N,/bus/USER1*%
X64820000Y-225540000D03*
%TO.P,P1,37,Pin_37*%
%TO.N,~{EIRQ4}*%
X62280000Y-223000000D03*
%TO.P,P1,38,Pin_38*%
%TO.N,/bus/USER0*%
X62280000Y-225540000D03*
%TO.P,P1,39,Pin_39*%
%TO.N,~{EIRQ3}*%
X59740000Y-223000000D03*
%TO.P,P1,40,Pin_40*%
%TO.N,~{BAI}*%
X59740000Y-225540000D03*
%TO.P,P1,41,Pin_41*%
%TO.N,~{EIRQ2}*%
X57200000Y-223000000D03*
%TO.P,P1,42,Pin_42*%
%TO.N,~{BAO}*%
X57200000Y-225540000D03*
%TO.P,P1,43,Pin_43*%
%TO.N,~{EIRQ1}*%
X54660000Y-223000000D03*
%TO.P,P1,44,Pin_44*%
%TO.N,~{IEI}*%
X54660000Y-225540000D03*
%TO.P,P1,45,Pin_45*%
%TO.N,~{EIRQ0}*%
X52120000Y-223000000D03*
%TO.P,P1,46,Pin_46*%
%TO.N,~{IEO}*%
X52120000Y-225540000D03*
%TO.P,P1,47,Pin_47*%
%TO.N,/bus/I2C_SCL*%
X49580000Y-223000000D03*
%TO.P,P1,48,Pin_48*%
%TO.N,/bus/I2C_SDA*%
X49580000Y-225540000D03*
%TO.P,P1,49,Pin_49*%
%TO.N,GND*%
X47040000Y-223000000D03*
%TO.P,P1,50,Pin_50*%
X47040000Y-225540000D03*
%TD*%
D16*
%TO.P,SW3,1,Pin_1*%
%TO.N,Net-(RN6-Pad2)*%
X169000000Y-199000000D03*
D17*
%TO.P,SW3,2,Pin_2*%
%TO.N,ZERO*%
X169000000Y-196460000D03*
%TO.P,SW3,3,Pin_3*%
%TO.N,Net-(RN6-Pad3)*%
X171540000Y-199000000D03*
%TO.P,SW3,4,Pin_4*%
%TO.N,ZERO*%
X171540000Y-196460000D03*
%TO.P,SW3,5,Pin_5*%
%TO.N,Net-(RN6-Pad4)*%
X174080000Y-199000000D03*
%TO.P,SW3,6,Pin_6*%
%TO.N,ZERO*%
X174080000Y-196460000D03*
%TO.P,SW3,7,Pin_7*%
%TO.N,Net-(RN6-Pad5)*%
X176620000Y-199000000D03*
%TO.P,SW3,8,Pin_8*%
%TO.N,ZERO*%
X176620000Y-196460000D03*
%TO.P,SW3,9,Pin_9*%
%TO.N,Net-(RN6-Pad6)*%
X179160000Y-199000000D03*
%TO.P,SW3,10,Pin_10*%
%TO.N,ZERO*%
X179160000Y-196460000D03*
%TD*%
D12*
%TO.P,RN6,1,common*%
%TO.N,VCC*%
X155000000Y-189000000D03*
D11*
%TO.P,RN6,2,R1*%
%TO.N,Net-(RN6-Pad2)*%
X157540000Y-189000000D03*
%TO.P,RN6,3,R2*%
%TO.N,Net-(RN6-Pad3)*%
X160080000Y-189000000D03*
%TO.P,RN6,4,R3*%
%TO.N,Net-(RN6-Pad4)*%
X162620000Y-189000000D03*
%TO.P,RN6,5,R4*%
%TO.N,Net-(RN6-Pad5)*%
X165160000Y-189000000D03*
%TO.P,RN6,6,R5*%
%TO.N,Net-(RN6-Pad6)*%
X167700000Y-189000000D03*
%TO.P,RN6,7,R6*%
%TO.N,Net-(RN6-Pad7)*%
X170240000Y-189000000D03*
%TO.P,RN6,8,R7*%
%TO.N,unconnected-(RN6-Pad8)*%
X172780000Y-189000000D03*
%TO.P,RN6,9,R8*%
%TO.N,unconnected-(RN6-Pad9)*%
X175320000Y-189000000D03*
%TD*%
D12*
%TO.P,RN5,1,common*%
%TO.N,VCC*%
X122000000Y-189000000D03*
D11*
%TO.P,RN5,2,R1*%
%TO.N,Net-(RN5-Pad2)*%
X124540000Y-189000000D03*
%TO.P,RN5,3,R2*%
%TO.N,Net-(RN5-Pad3)*%
X127080000Y-189000000D03*
%TO.P,RN5,4,R3*%
%TO.N,Net-(RN5-Pad4)*%
X129620000Y-189000000D03*
%TO.P,RN5,5,R4*%
%TO.N,Net-(RN5-Pad5)*%
X132160000Y-189000000D03*
%TO.P,RN5,6,R5*%
%TO.N,Net-(RN5-Pad6)*%
X134700000Y-189000000D03*
%TO.P,RN5,7,R6*%
%TO.N,unconnected-(RN5-Pad7)*%
X137240000Y-189000000D03*
%TO.P,RN5,8,R7*%
%TO.N,unconnected-(RN5-Pad8)*%
X139780000Y-189000000D03*
%TO.P,RN5,9,R8*%
%TO.N,/DUART/~{TTL_RIA}*%
X142320000Y-189000000D03*
%TD*%
D10*
%TO.P,C7,1*%
%TO.N,VCC*%
X43000000Y-116250000D03*
%TO.P,C7,2*%
%TO.N,GND*%
X43000000Y-121250000D03*
%TD*%
D16*
%TO.P,J4,1,Pin_1*%
%TO.N,VCC*%
X55500000Y-101500000D03*
D17*
%TO.P,J4,2,Pin_2*%
%TO.N,Net-(J4-Pad2)*%
X58040000Y-101500000D03*
%TD*%
D27*
%TO.P,Y1,1,1*%
%TO.N,Net-(U27-Pad13)*%
X216000000Y-156500000D03*
%TO.P,Y1,2,2*%
%TO.N,Net-(U27-Pad14)*%
X220880000Y-156500000D03*
%TD*%
D12*
%TO.P,RN9,1,common*%
%TO.N,VCC*%
X82000000Y-98000000D03*
D11*
%TO.P,RN9,2,R1*%
%TO.N,470A*%
X84540000Y-98000000D03*
%TO.P,RN9,3,R2*%
%TO.N,470B*%
X87080000Y-98000000D03*
%TO.P,RN9,4,R3*%
%TO.N,470C*%
X89620000Y-98000000D03*
%TO.P,RN9,5,R4*%
%TO.N,470D*%
X92160000Y-98000000D03*
%TO.P,RN9,6,R5*%
%TO.N,470E*%
X94700000Y-98000000D03*
%TO.P,RN9,7,R6*%
%TO.N,470F*%
X97240000Y-98000000D03*
%TO.P,RN9,8,R7*%
%TO.N,470G*%
X99780000Y-98000000D03*
%TO.P,RN9,9,R8*%
%TO.N,470H*%
X102320000Y-98000000D03*
%TD*%
D16*
%TO.P,P7,1,Pin_1*%
%TO.N,~{IEO}*%
X70000000Y-201500000D03*
D17*
%TO.P,P7,2,Pin_2*%
%TO.N,~{IEI}*%
X72540000Y-201500000D03*
%TO.P,P7,3,Pin_3*%
%TO.N,~{BAO}*%
X75080000Y-201500000D03*
%TO.P,P7,4,Pin_4*%
%TO.N,~{BAI}*%
X77620000Y-201500000D03*
%TD*%
D16*
%TO.P,J20,1,Pin_1*%
%TO.N,~{RES_IN}*%
X94475000Y-218500000D03*
D17*
%TO.P,J20,2,Pin_2*%
%TO.N,Net-(J20-Pad2)*%
X97015000Y-218500000D03*
%TO.P,J20,3,Pin_3*%
%TO.N,~{RES_OUT}*%
X99555000Y-218500000D03*
%TD*%
D16*
%TO.P,J22,1,Pin_1*%
%TO.N,Net-(J14-Pad10)*%
X197000000Y-100000000D03*
D17*
%TO.P,J22,2,Pin_2*%
%TO.N,/kbdmse/MSEDAT*%
X197000000Y-102540000D03*
%TD*%
D10*
%TO.P,R16,1*%
%TO.N,Net-(R16-Pad1)*%
X205000000Y-117000000D03*
D11*
%TO.P,R16,2*%
%TO.N,bD7*%
X212620000Y-117000000D03*
%TD*%
D10*
%TO.P,R11,1*%
%TO.N,/USB-SD/RST*%
X185000000Y-107500000D03*
D11*
%TO.P,R11,2*%
%TO.N,bRESET*%
X185000000Y-115120000D03*
%TD*%
D10*
%TO.P,R6,1*%
%TO.N,Net-(R6-Pad1)*%
X205000000Y-123000000D03*
D11*
%TO.P,R6,2*%
%TO.N,bD6*%
X212620000Y-123000000D03*
%TD*%
D28*
%TO.P,NT2,1,1*%
%TO.N,GND*%
X150000000Y-198350000D03*
%TO.P,NT2,2,2*%
%TO.N,ZERO*%
X150000000Y-197150000D03*
%TD*%
D10*
%TO.P,R1,1*%
%TO.N,Net-(R1-Pad1)*%
X235000000Y-117000000D03*
D11*
%TO.P,R1,2*%
%TO.N,bD0*%
X242620000Y-117000000D03*
%TD*%
D28*
%TO.P,NT5,1,1*%
%TO.N,VDD*%
X218500000Y-183650000D03*
%TO.P,NT5,2,2*%
%TO.N,VCC*%
X218500000Y-182450000D03*
%TD*%
D10*
%TO.P,R3,1*%
%TO.N,Net-(R3-Pad1)*%
X225000000Y-123000000D03*
D11*
%TO.P,R3,2*%
%TO.N,bD2*%
X232620000Y-123000000D03*
%TD*%
D28*
%TO.P,NT6,1,1*%
%TO.N,/USB-SD/VDD2*%
X182000000Y-143800000D03*
%TO.P,NT6,2,2*%
%TO.N,VDD1*%
X182000000Y-145000000D03*
%TD*%
D29*
%TO.P,J23,*%
%TO.N,*%
X262000000Y-130500000D03*
X227000000Y-130500000D03*
X227000000Y-200000000D03*
X262000000Y-200000000D03*
D16*
%TO.P,J23,1,Pin_1*%
%TO.N,bD0*%
X229330000Y-196670000D03*
D17*
%TO.P,J23,2,Pin_2*%
%TO.N,bD1*%
X229330000Y-194130000D03*
%TO.P,J23,3,Pin_3*%
%TO.N,bD2*%
X231870000Y-196670000D03*
%TO.P,J23,4,Pin_4*%
%TO.N,bD3*%
X231870000Y-194130000D03*
%TO.P,J23,5,Pin_5*%
%TO.N,bD4*%
X234410000Y-196670000D03*
%TO.P,J23,6,Pin_6*%
%TO.N,bD5*%
X234410000Y-194130000D03*
%TO.P,J23,7,Pin_7*%
%TO.N,bD6*%
X236950000Y-196670000D03*
%TO.P,J23,8,Pin_8*%
%TO.N,bD7*%
X236950000Y-194130000D03*
%TO.P,J23,9,Pin_9*%
%TO.N,/USB-SD/~{INT-USB}*%
X239490000Y-196670000D03*
%TO.P,J23,10,Pin_10*%
%TO.N,bA0*%
X239490000Y-194130000D03*
%TO.P,J23,11,Pin_11*%
%TO.N,~{bRD}*%
X242030000Y-196670000D03*
%TO.P,J23,12,Pin_12*%
%TO.N,~{bWR}*%
X242030000Y-194130000D03*
%TO.P,J23,13,Pin_13*%
%TO.N,bRESET*%
X244570000Y-196670000D03*
%TO.P,J23,14,Pin_14*%
%TO.N,~{CS_US}*%
X244570000Y-194130000D03*
%TO.P,J23,15,Pin_15*%
%TO.N,VCC*%
X247110000Y-196670000D03*
%TO.P,J23,16,Pin_16*%
%TO.N,GND*%
X247110000Y-194130000D03*
%TD*%
D16*
%TO.P,J21,1,Pin_1*%
%TO.N,/kbdmse/MSEDAT*%
X197000000Y-89000000D03*
D17*
%TO.P,J21,2,Pin_2*%
%TO.N,Net-(J14-Pad4)*%
X197000000Y-91540000D03*
%TO.P,J21,3,Pin_3*%
%TO.N,VCC*%
X197000000Y-94080000D03*
%TD*%
D28*
%TO.P,NT1,1,1*%
%TO.N,VCC*%
X196650000Y-162800000D03*
%TO.P,NT1,2,2*%
%TO.N,ONE*%
X197850000Y-162800000D03*
%TD*%
%TO.P,NT3,1,1*%
%TO.N,/DUART/GND_UART*%
X64250000Y-150850000D03*
%TO.P,NT3,2,2*%
%TO.N,GND*%
X64250000Y-149650000D03*
%TD*%
D10*
%TO.P,R10,1*%
%TO.N,Net-(R10-Pad1)*%
X255000000Y-123000000D03*
D11*
%TO.P,R10,2*%
%TO.N,~{bWR}*%
X262620000Y-123000000D03*
%TD*%
D16*
%TO.P,J9,1,Pin_1*%
%TO.N,VCC*%
X148610000Y-149230500D03*
D17*
%TO.P,J9,2,Pin_2*%
%TO.N,VDD1*%
X151150000Y-149230500D03*
%TO.P,J9,3,Pin_3*%
%TO.N,GND*%
X153690000Y-149230500D03*
%TO.P,J9,4,Pin_4*%
%TO.N,/USB-SD/SDCK*%
X156230000Y-149230500D03*
%TO.P,J9,5,Pin_5*%
%TO.N,/USB-SD/SDDO*%
X158770000Y-149230500D03*
%TO.P,J9,6,Pin_6*%
%TO.N,/USB-SD/SDDI*%
X161310000Y-149230500D03*
%TO.P,J9,7,Pin_7*%
%TO.N,/USB-SD/SDCS*%
X163850000Y-149230500D03*
%TO.P,J9,8,Pin_8*%
%TO.N,unconnected-(J9-Pad8)*%
X166390000Y-149230500D03*
D30*
%TO.P,J9,9*%
%TO.N,N/C*%
X147340000Y-121544500D03*
%TO.P,J9,10*%
X167660000Y-121544500D03*
%TO.P,J9,11*%
X167660000Y-141864500D03*
%TO.P,J9,12*%
X147340000Y-141864500D03*
%TD*%
D10*
%TO.P,R13,1*%
%TO.N,Net-(R13-Pad1)*%
X235000000Y-123000000D03*
D11*
%TO.P,R13,2*%
%TO.N,bD1*%
X242620000Y-123000000D03*
%TD*%
D10*
%TO.P,R14,1*%
%TO.N,Net-(R14-Pad1)*%
X225000000Y-117000000D03*
D11*
%TO.P,R14,2*%
%TO.N,bD3*%
X232620000Y-117000000D03*
%TD*%
D10*
%TO.P,R21,1*%
%TO.N,Net-(R21-Pad1)*%
X245000000Y-117000000D03*
D11*
%TO.P,R21,2*%
%TO.N,~{bRD}*%
X252620000Y-117000000D03*
%TD*%
D28*
%TO.P,NT4,1,1*%
%TO.N,GND*%
X190000000Y-186800000D03*
%TO.P,NT4,2,2*%
%TO.N,VSS*%
X190000000Y-188000000D03*
%TD*%
D10*
%TO.P,R15,1*%
%TO.N,Net-(R15-Pad1)*%
X215000000Y-117000000D03*
D11*
%TO.P,R15,2*%
%TO.N,bD5*%
X222620000Y-117000000D03*
%TD*%
D16*
%TO.P,J7,1,Pin_1*%
%TO.N,VDD1*%
X206500000Y-108000000D03*
%TD*%
D10*
%TO.P,R4,1*%
%TO.N,Net-(R4-Pad1)*%
X215000000Y-123000000D03*
D11*
%TO.P,R4,2*%
%TO.N,bD4*%
X222620000Y-123000000D03*
%TD*%
D10*
%TO.P,R7,1*%
%TO.N,Net-(R7-Pad1)*%
X245000000Y-123000000D03*
D11*
%TO.P,R7,2*%
%TO.N,bA0*%
X252620000Y-123000000D03*
%TD*%
D10*
%TO.P,R22,1*%
%TO.N,Net-(R22-Pad1)*%
X255000000Y-117000000D03*
D11*
%TO.P,R22,2*%
%TO.N,~{CS_US}*%
X262620000Y-117000000D03*
%TD*%
D31*
%TO.N,Net-(D3-Pad1)*%
X60514500Y-90927700D03*
X54128500Y-166292500D03*
%TO.N,Net-(D4-Pad1)*%
X52665700Y-91653000D03*
%TO.N,Net-(R18-Pad2)*%
X114868900Y-97810000D03*
%TO.N,Net-(R19-Pad2)*%
X149927600Y-126031600D03*
X89778900Y-143983000D03*
%TO.N,Net-(R20-Pad2)*%
X117700600Y-101301100D03*
%TO.N,Net-(R23-Pad2)*%
X149848000Y-127469600D03*
%TO.N,Net-(R24-Pad2)*%
X119131600Y-95039100D03*
%TO.N,Net-(R25-Pad2)*%
X174016200Y-123768200D03*
%TO.N,Net-(R28-Pad2)*%
X113182700Y-122519400D03*
X138716400Y-103839900D03*
%TO.N,Net-(D10-Pad1)*%
X176817400Y-97373900D03*
%TO.N,Net-(J8-Pad1)*%
X250887900Y-72706600D03*
X258545000Y-72708600D03*
%TO.N,Net-(R26-Pad2)*%
X87767500Y-127200500D03*
%TO.N,Net-(R35-Pad2)*%
X190315700Y-117748500D03*
%TO.N,Net-(U19-Pad3)*%
X122969500Y-136753300D03*
%TO.N,Net-(U25-Pad5)*%
X192155500Y-134603800D03*
%TO.N,Net-(U25-Pad3)*%
X183518900Y-133539000D03*
X185514500Y-152680100D03*
%TO.N,Net-(U25-Pad1)*%
X198540800Y-165189000D03*
%TO.N,/parallel/PD1*%
X111777500Y-100125300D03*
%TO.N,/parallel/PD2*%
X90280000Y-126401100D03*
%TO.N,/parallel/PD3*%
X115706500Y-101816800D03*
%TO.N,/parallel/PD4*%
X155759700Y-143867700D03*
%TO.N,/parallel/PD5*%
X161817900Y-143855700D03*
X174866100Y-98571800D03*
%TO.N,/parallel/PD6*%
X88964500Y-128846400D03*
%TO.N,/parallel/PD7*%
X85750600Y-130264800D03*
%TO.N,/USB-SD/VDD3*%
X253271100Y-72958800D03*
%TO.N,/parallel/STATUS0*%
X151204600Y-152081600D03*
%TO.N,/parallel/STATUS1*%
X121457900Y-154559200D03*
%TO.N,/DUART/~{TTL_CTSB}*%
X98460300Y-138375400D03*
%TO.N,/DUART/TTL_TXB*%
X44050900Y-161349100D03*
%TO.N,/DUART/TTL_RXB*%
X64510000Y-145968000D03*
X80568700Y-186168100D03*
%TO.N,/DUART/~{TTL_RTSB}*%
X103202400Y-145427900D03*
%TO.N,/DUART/~{TTL_CTSA}*%
X96282700Y-137244500D03*
X61939100Y-133308800D03*
%TO.N,/DUART/TTL_TXA*%
X79919100Y-190984200D03*
%TO.N,/DUART/~{TTL_RTSA}*%
X46331600Y-143214300D03*
X55673800Y-166178200D03*
%TO.N,/USB-SD/SDCK*%
X206719900Y-128293100D03*
X253266600Y-74524700D03*
%TO.N,/USB-SD/SDCS*%
X200035700Y-147232400D03*
%TO.N,/parallel/~{SEL}*%
X155015800Y-109198200D03*
%TO.N,/parallel/P-RESET*%
X135501600Y-127165000D03*
X153583200Y-109994000D03*
%TO.N,/parallel/ERROR*%
X145909400Y-131521700D03*
X128607700Y-145200200D03*
%TO.N,/parallel/~{LINEFEED}*%
X149823400Y-110792900D03*
X101608700Y-133144000D03*
%TO.N,/parallel/SELECT*%
X185307700Y-155930000D03*
%TO.N,/parallel/PAPEROUT*%
X184951600Y-154804500D03*
%TO.N,/parallel/~{BUSY}*%
X127961000Y-92983500D03*
%TO.N,bRESET*%
X116482000Y-140535100D03*
X220448600Y-132364800D03*
X103211300Y-143631800D03*
X229293800Y-182669600D03*
%TO.N,ZERO*%
X173846000Y-173600100D03*
%TO.N,bD6*%
X170303100Y-177398900D03*
X219018600Y-185463300D03*
%TO.N,bD5*%
X201931700Y-188390200D03*
X232206300Y-118666900D03*
%TO.N,bD4*%
X219172800Y-202981200D03*
%TO.N,bD3*%
X180057000Y-176178100D03*
%TO.N,bD2*%
X232896300Y-180167800D03*
X89420000Y-172118000D03*
%TO.N,bD1*%
X84653200Y-176181300D03*
X230434900Y-135185100D03*
%TO.N,bD0*%
X230767400Y-179700800D03*
X100509600Y-159716000D03*
X196436100Y-180448100D03*
X230794100Y-129108300D03*
%TO.N,~{bWR}*%
X245439800Y-177090700D03*
%TO.N,bA0*%
X124394400Y-197165700D03*
%TO.N,bD7*%
X114913100Y-146303300D03*
X156261600Y-174296400D03*
X234707500Y-119829500D03*
%TO.N,/USB-SD/~{INT-USB}*%
X178608200Y-125441000D03*
X238220100Y-142470100D03*
X238250000Y-176219000D03*
%TO.N,/kbdmse/PROG*%
X220265700Y-186290000D03*
X218106400Y-132133900D03*
%TO.N,/kbdmse/KBDDAT*%
X220403500Y-130960500D03*
X221319300Y-181119200D03*
%TO.N,/kbdmse/MSEDAT*%
X194635900Y-95976800D03*
%TO.N,/kbdmse/MSECLK*%
X205512600Y-166926300D03*
X204441100Y-89648400D03*
%TO.N,~{bRESET}*%
X144731800Y-158984900D03*
%TO.N,~{CS_DUART}*%
X112318400Y-188669700D03*
%TO.N,~{bM1}*%
X125570300Y-210886000D03*
%TO.N,bA6*%
X153802700Y-212874300D03*
%TO.N,~{bIORQ}*%
X123218700Y-211734000D03*
%TO.N,bA1*%
X75943400Y-193336000D03*
%TO.N,bA2*%
X133379900Y-202519900D03*
%TO.N,bA3*%
X140800100Y-202172600D03*
%TO.N,/parallel/~{PDENBL}*%
X150174900Y-152441400D03*
%TO.N,/kbdmse/~{INT_KM}*%
X101384200Y-142417100D03*
%TO.N,CLK_DUART*%
X113891300Y-184383000D03*
X134137700Y-158078100D03*
%TO.N,Net-(J12-Pad1)*%
X145742900Y-147476800D03*
%TO.N,Net-(D8-Pad1)*%
X60768500Y-147343400D03*
%TO.N,ACK*%
X177318600Y-151122400D03*
X208070700Y-176424700D03*
%TO.N,INT_PAR*%
X97120700Y-152654700D03*
%TO.N,PARINT*%
X184189700Y-190932500D03*
X143643400Y-159761500D03*
X134541700Y-147599300D03*
%TO.N,~{PAROUT0}*%
X100467300Y-167311300D03*
%TO.N,~{PAROUT2}*%
X131345500Y-166017500D03*
%TO.N,470B*%
X75431600Y-86598900D03*
%TO.N,/DUART/~{TTL_RIA}*%
X81285300Y-191663600D03*
%TO.N,/USB-SD/SDDO*%
X257519500Y-72730600D03*
%TO.N,Net-(R21-Pad1)*%
X197873900Y-144625500D03*
%TD*%
D32*
%TO.N,/DUART/TTL_RXB*%
X74414300Y-180195700D02*
X74395700Y-180195700D01*
X76900000Y-177710000D02*
X74414300Y-180195700D01*
X72179300Y-180195700D02*
X74395700Y-180195700D01*
X74395700Y-180195700D02*
X74596300Y-180195700D01*
D33*
%TO.N,GND*%
X106406800Y-163550000D02*
X105625000Y-163550000D01*
X184485000Y-193591400D02*
X184485000Y-199235000D01*
X215000000Y-98500000D02*
X215000000Y-98387700D01*
X219572300Y-98387700D02*
X219730000Y-98230000D01*
X133485000Y-163550000D02*
X133743100Y-163808100D01*
X57707700Y-132750000D02*
X56170400Y-134287300D01*
X55500000Y-88636900D02*
X55568500Y-88568400D01*
X187590000Y-166050400D02*
X189000000Y-164640400D01*
X146396700Y-212741300D02*
X147655400Y-214000000D01*
X112000000Y-81460000D02*
X112000000Y-84000000D01*
X209004500Y-96995500D02*
X207000000Y-99000000D01*
X133441400Y-149506400D02*
X133485000Y-149550000D01*
X115485200Y-202514800D02*
X115485200Y-212485200D01*
X80672600Y-204777400D02*
X79407700Y-204777400D01*
X132240000Y-179000000D02*
X130739600Y-180500400D01*
X193090000Y-218500400D02*
X193090000Y-219050000D01*
X152922300Y-104000000D02*
X150994100Y-102071800D01*
X217540000Y-149500000D02*
X213020000Y-154020000D01*
X133044900Y-136250000D02*
X135020900Y-138226000D01*
X237620000Y-84000000D02*
X237620000Y-85880000D01*
X223045300Y-96047200D02*
X211080000Y-84081900D01*
X146396700Y-202536700D02*
X146396700Y-212741300D01*
X50540000Y-137630000D02*
X50339700Y-137630000D01*
X223045300Y-97607400D02*
X223045300Y-96047200D01*
X189881100Y-186681000D02*
X182200000Y-179000000D01*
X220500000Y-149500000D02*
X217540000Y-149500000D01*
X91960000Y-193490000D02*
X80672600Y-204777400D01*
X117000000Y-217000000D02*
X117000000Y-214000000D01*
X152554900Y-215554900D02*
X177305100Y-215554900D01*
X185314600Y-191247500D02*
X185314600Y-192761800D01*
X112000000Y-179000000D02*
X110901400Y-180098600D01*
X133865000Y-135429900D02*
X133044900Y-136250000D01*
X79407700Y-204777400D02*
X77779600Y-206405500D01*
X41364100Y-177489100D02*
X42875000Y-179000000D01*
X185357400Y-166050400D02*
X187590000Y-166050400D01*
X213607800Y-96995500D02*
X209004500Y-96995500D01*
X184161300Y-141161300D02*
X184161300Y-146522800D01*
X71044900Y-170600800D02*
X71044900Y-170750000D01*
X77779600Y-206405500D02*
X77779600Y-208361600D01*
X51546400Y-133858800D02*
X43000000Y-125312400D01*
X184485000Y-199235000D02*
X186000000Y-200750000D01*
X185325100Y-212960500D02*
X190865000Y-218500400D01*
X105625000Y-149550000D02*
X107188500Y-151113500D01*
X212000000Y-162050000D02*
X212000000Y-155040000D01*
X43000000Y-147399000D02*
X43000000Y-145250000D01*
X71044900Y-171070100D02*
X71044900Y-170750000D01*
X51251000Y-155650000D02*
X43000000Y-147399000D01*
X51546400Y-136623600D02*
X51546400Y-134287300D01*
X135020900Y-145564100D02*
X133441400Y-147143600D01*
X222330000Y-157100610D02*
X222330000Y-151330000D01*
X135287800Y-151352800D02*
X133485000Y-149550000D01*
X150000000Y-198350000D02*
X150214700Y-198350000D01*
X75000000Y-214000000D02*
X75000000Y-211220200D01*
X133743100Y-163808100D02*
X133743100Y-177496900D01*
X99366900Y-168116900D02*
X100000000Y-168750000D01*
X146118700Y-212741300D02*
X146396700Y-212741300D01*
X151000300Y-188500300D02*
X149500000Y-187000000D01*
X237620000Y-84000000D02*
X237620000Y-81460000D01*
X186000000Y-212285600D02*
X186000000Y-200750000D01*
X106406800Y-163550000D02*
X106406800Y-173406800D01*
X117000000Y-217000000D02*
X113500000Y-217000000D01*
X65306300Y-165333700D02*
X65777800Y-165333700D01*
X172915900Y-124223900D02*
X180692000Y-132000000D01*
X106406800Y-173406800D02*
X112000000Y-179000000D01*
X215000000Y-98387700D02*
X213607800Y-96995500D01*
X151000000Y-214000000D02*
X152554900Y-215554900D01*
X60500000Y-132750000D02*
X57707700Y-132750000D01*
X121040000Y-225540000D02*
X121040000Y-223000000D01*
X99485000Y-163550000D02*
X99366900Y-163668100D01*
X231995200Y-214000000D02*
X248663800Y-197331400D01*
X74960500Y-211180700D02*
X72779800Y-209000000D01*
X62990000Y-167650000D02*
X65306300Y-165333700D01*
X110901400Y-180098600D02*
X110901400Y-188848600D01*
X184161300Y-146522800D02*
X183825800Y-146858300D01*
X182200000Y-179000000D02*
X173860000Y-179000000D01*
X211080000Y-84000000D02*
X211080000Y-81460000D01*
X133743100Y-177496900D02*
X132240000Y-179000000D01*
X181000000Y-138000000D02*
X184000000Y-141000000D01*
X72779800Y-209000000D02*
X70500000Y-209000000D01*
X181000000Y-132000000D02*
X181000000Y-138000000D01*
X219730000Y-98230000D02*
X222422700Y-98230000D01*
X193090000Y-218500400D02*
X194500000Y-217090400D01*
X248663800Y-197331400D02*
X248663800Y-195683800D01*
X121040000Y-223000000D02*
X117000000Y-218960000D01*
X197040000Y-225540000D02*
X197040000Y-223000000D01*
X183825800Y-164518800D02*
X185357400Y-166050400D01*
X43000000Y-144969700D02*
X43000000Y-145250000D01*
X43000000Y-121250000D02*
X50540000Y-113710000D01*
X135287800Y-161747200D02*
X135287800Y-151352800D01*
X115485200Y-212485200D02*
X117000000Y-214000000D01*
X193090000Y-219050000D02*
X197040000Y-223000000D01*
X190000000Y-186800000D02*
X189881100Y-186681000D01*
X151000300Y-197564400D02*
X151000300Y-188500300D01*
X42750000Y-167650000D02*
X41364100Y-169035900D01*
X194500000Y-217000000D02*
X201000000Y-217000000D01*
X222330000Y-151330000D02*
X220500000Y-149500000D01*
X190865000Y-218500400D02*
X193090000Y-218500400D01*
X133865000Y-130550000D02*
X133865000Y-135429900D01*
X184285600Y-214000000D02*
X185325100Y-212960500D01*
X117000000Y-218960000D02*
X117000000Y-217000000D01*
X189000000Y-164640400D02*
X189000000Y-164550000D01*
X177305100Y-215554900D02*
X178860000Y-214000000D01*
X55568500Y-88568400D02*
X48000000Y-81000000D01*
X51546400Y-134287300D02*
X51546400Y-133858800D01*
X65810000Y-155650000D02*
X65810000Y-165301500D01*
X150928200Y-102071800D02*
X149000000Y-104000000D01*
X133485000Y-163550000D02*
X135287800Y-161747200D01*
X107188500Y-162768300D02*
X106406800Y-163550000D01*
X189881100Y-186681000D02*
X185314600Y-191247500D01*
X184000000Y-141000000D02*
X184161300Y-141161300D01*
X99366900Y-163668100D02*
X99366900Y-168116900D01*
X148160000Y-84000000D02*
X150994100Y-86834100D01*
X217380610Y-162050000D02*
X222330000Y-157100610D01*
X185357400Y-166050400D02*
X185357400Y-175842600D01*
X149500000Y-182500000D02*
X149500000Y-187000000D01*
X135020900Y-138226000D02*
X135020900Y-145564100D01*
X212000000Y-155040000D02*
X215415000Y-151625000D01*
X126120400Y-180500400D02*
X124620000Y-179000000D01*
X150994100Y-86834100D02*
X150994100Y-102071800D01*
X51310000Y-155650000D02*
X51251000Y-155650000D01*
X183825800Y-146858300D02*
X183825800Y-164518800D01*
X231860000Y-214000000D02*
X231995200Y-214000000D01*
X117000000Y-201000000D02*
X115485200Y-202514800D01*
X180692000Y-132000000D02*
X181000000Y-132000000D01*
X50540000Y-113710000D02*
X50540000Y-113630000D01*
X65810000Y-165301500D02*
X65777800Y-165333700D01*
X68136900Y-76000000D02*
X74000000Y-76000000D01*
X185325100Y-212960500D02*
X186000000Y-212285600D01*
X63115000Y-179000000D02*
X71044900Y-171070100D01*
X47040000Y-223000000D02*
X47040000Y-225540000D01*
X215000000Y-98387700D02*
X219572300Y-98387700D01*
X222422700Y-98230000D02*
X223045300Y-97607400D01*
X178860000Y-214000000D02*
X184285600Y-214000000D01*
X248663800Y-195683800D02*
X247110000Y-194130000D01*
X75000000Y-211220200D02*
X74960500Y-211180700D01*
X185314600Y-192761800D02*
X184485000Y-193591400D01*
X237620000Y-85880000D02*
X229500000Y-94000000D01*
X173000000Y-104000000D02*
X172915900Y-104084100D01*
X43000000Y-125312400D02*
X43000000Y-121250000D01*
X212000000Y-162050000D02*
X217380610Y-162050000D01*
X56170400Y-134287300D02*
X51546400Y-134287300D01*
X144860000Y-214000000D02*
X146118700Y-212741300D01*
X48000000Y-102500000D02*
X55500000Y-95000000D01*
X41364100Y-169035900D02*
X41364100Y-177489100D01*
X194500000Y-217090400D02*
X194500000Y-217000000D01*
X146000000Y-179000000D02*
X149500000Y-182500000D01*
X110901400Y-188848600D02*
X108500000Y-191250000D01*
X65777800Y-165333700D02*
X71044900Y-170600800D01*
X55500000Y-95000000D02*
X55500000Y-88636900D01*
X50339700Y-137630000D02*
X43000000Y-144969700D01*
X155000000Y-104000000D02*
X152922300Y-104000000D01*
X150994100Y-102071800D02*
X150928200Y-102071800D01*
X144860000Y-201000000D02*
X146396700Y-202536700D01*
X147655400Y-214000000D02*
X151000000Y-214000000D01*
X172915900Y-104084100D02*
X172915900Y-124223900D01*
X107188500Y-151113500D02*
X107188500Y-162768300D01*
X130739600Y-180500400D02*
X126120400Y-180500400D01*
X55568500Y-88568400D02*
X68136900Y-76000000D01*
X201000000Y-217000000D02*
X204000000Y-214000000D01*
X185357400Y-175842600D02*
X182200000Y-179000000D01*
X150214700Y-198350000D02*
X151000300Y-197564400D01*
X211080000Y-84081900D02*
X211080000Y-84000000D01*
X50540000Y-137630000D02*
X51546400Y-136623600D01*
X133441400Y-147143600D02*
X133441400Y-149506400D01*
X77779600Y-208361600D02*
X74960500Y-211180700D01*
%TO.N,VCC*%
X47750000Y-153846700D02*
X41482000Y-147578700D01*
X155000000Y-189000000D02*
X153449600Y-190550400D01*
X208540000Y-87960000D02*
X208540000Y-84000000D01*
X43000000Y-140250000D02*
X45380000Y-140250000D01*
X151000000Y-208829600D02*
X151000000Y-209000000D01*
X87625000Y-125550000D02*
X82625000Y-130550000D01*
X148610000Y-168990000D02*
X151000000Y-171380000D01*
X192571900Y-165966800D02*
X193483200Y-165966800D01*
X207000000Y-167010000D02*
X205500000Y-168510000D01*
X182814700Y-107534000D02*
X184670900Y-105677800D01*
X122000000Y-193380000D02*
X122000000Y-194880300D01*
X208540000Y-87960000D02*
X212000000Y-87960000D01*
X41482000Y-141768000D02*
X43000000Y-140250000D01*
X62131900Y-90511900D02*
X60620000Y-89000000D01*
X122000000Y-194880300D02*
X120458000Y-196422300D01*
X146000000Y-174000000D02*
X144433400Y-175566600D01*
X156000000Y-206380000D02*
X153449600Y-206380000D01*
X192571900Y-165966800D02*
X191220900Y-167317800D01*
X191220900Y-192909100D02*
X191000000Y-193130000D01*
X76625000Y-155930000D02*
X75435000Y-154740000D01*
X204000000Y-209000000D02*
X195434300Y-209000000D01*
X110625000Y-141930000D02*
X116802800Y-135752200D01*
X186000000Y-195750000D02*
X188380000Y-195750000D01*
X116802800Y-135752200D02*
X116802800Y-124752200D01*
X43000000Y-116250000D02*
X41462000Y-117788000D01*
X63000000Y-95000000D02*
X63000000Y-90511900D01*
X108000000Y-225540000D02*
X108000000Y-223000000D01*
X144433400Y-184433400D02*
X147000000Y-187000000D01*
X144433400Y-184433400D02*
X126566600Y-184433400D01*
X120810000Y-205190000D02*
X117000000Y-209000000D01*
X63000000Y-90511900D02*
X62131900Y-90511900D01*
X188012500Y-163037500D02*
X189642600Y-163037500D01*
X181574900Y-117425100D02*
X181574900Y-109273500D01*
X45380000Y-140250000D02*
X48000000Y-137630000D01*
X204000000Y-92500000D02*
X208540000Y-87960000D01*
X153449600Y-206380000D02*
X151000000Y-208829600D01*
X111000000Y-202000000D02*
X117000000Y-196000000D01*
X186491000Y-105677800D02*
X197000000Y-95168800D01*
X212000000Y-87960000D02*
X221000000Y-96960000D01*
X111000000Y-217000000D02*
X111000000Y-202000000D01*
X218500000Y-174404500D02*
X218500000Y-182450000D01*
X186500000Y-164550000D02*
X188012500Y-163037500D01*
X182814700Y-108033700D02*
X182814700Y-107534000D01*
X122000000Y-193380000D02*
X122000000Y-189000000D01*
X184670900Y-105677800D02*
X186491000Y-105677800D01*
X62000000Y-95000000D02*
X63000000Y-95000000D01*
X153449600Y-190550400D02*
X153449600Y-206380000D01*
X189642600Y-163037500D02*
X192571900Y-165966800D01*
X70620000Y-89000000D02*
X69108100Y-90511900D01*
X82625000Y-130550000D02*
X82625000Y-135550000D01*
X41462000Y-126212000D02*
X48000000Y-132750000D01*
X126566600Y-184433400D02*
X122000000Y-189000000D01*
X102120000Y-185870000D02*
X108120000Y-185870000D01*
X188380000Y-201945700D02*
X195434300Y-209000000D01*
X110625000Y-155930000D02*
X109124600Y-157430400D01*
X75435000Y-154740000D02*
X75124700Y-154429700D01*
X181000000Y-122000000D02*
X179000000Y-120000000D01*
X192000000Y-212434300D02*
X192000000Y-217000000D01*
X117000000Y-196000000D02*
X117000000Y-179000000D01*
X120458000Y-196422300D02*
X120458000Y-204838000D01*
X71625000Y-158550000D02*
X75435000Y-154740000D01*
X211105500Y-167010000D02*
X218500000Y-174404500D01*
X48000000Y-113630000D02*
X48000000Y-109250000D01*
X120458000Y-204838000D02*
X120810000Y-205190000D01*
X109124600Y-171124600D02*
X112000000Y-174000000D01*
X179000000Y-120000000D02*
X181574900Y-117425100D01*
X41482000Y-147578700D02*
X41482000Y-141768000D01*
X207000000Y-167010000D02*
X211105500Y-167010000D01*
X69108100Y-90511900D02*
X63000000Y-90511900D01*
X82625000Y-135550000D02*
X76625000Y-141550000D01*
X41462000Y-117788000D02*
X41462000Y-126212000D01*
X108704900Y-147629900D02*
X105625000Y-144550000D01*
X188380000Y-195750000D02*
X188380000Y-201945700D01*
X108120000Y-185870000D02*
X108500000Y-186250000D01*
X144433400Y-175566600D02*
X144433400Y-184433400D01*
X193483200Y-165966800D02*
X196650000Y-162800000D01*
X116802800Y-124752200D02*
X118625000Y-122930000D01*
X48000000Y-109000000D02*
X55500000Y-101500000D01*
X181000000Y-127000000D02*
X181000000Y-122000000D01*
X55500000Y-101500000D02*
X62000000Y-95000000D01*
X197000000Y-95168800D02*
X197000000Y-94080000D01*
X148610000Y-149230500D02*
X148610000Y-168990000D01*
X109124600Y-157430400D02*
X109124600Y-171124600D01*
X47750000Y-160030000D02*
X47750000Y-153846700D01*
X48000000Y-109250000D02*
X48000000Y-109000000D01*
X48000000Y-132750000D02*
X48000000Y-137630000D01*
X181574900Y-109273500D02*
X182814700Y-108033700D01*
X195434300Y-209000000D02*
X192000000Y-212434300D01*
X191220900Y-167317800D02*
X191220900Y-192909100D01*
X188380000Y-195750000D02*
X191000000Y-193130000D01*
X120810000Y-205190000D02*
X122000000Y-206380000D01*
X75124700Y-154429700D02*
X75124700Y-148049700D01*
X76625000Y-141550000D02*
X76625000Y-141930000D01*
X108704900Y-154009900D02*
X108704900Y-147629900D01*
X207000000Y-162050000D02*
X207000000Y-167010000D01*
X110625000Y-155930000D02*
X108704900Y-154009900D01*
X75124700Y-148049700D02*
X71625000Y-144550000D01*
D32*
%TO.N,Net-(D3-Pad1)*%
X40595400Y-147953600D02*
X46011200Y-153369400D01*
X60514500Y-94188400D02*
X40595400Y-114107500D01*
X46011200Y-159930800D02*
X47235800Y-161155400D01*
X60514500Y-90927700D02*
X60514500Y-94188400D01*
X48991400Y-161155400D02*
X54128500Y-166292500D01*
X46011200Y-153369400D02*
X46011200Y-159930800D01*
X47235800Y-161155400D02*
X48991400Y-161155400D01*
X40595400Y-114107500D02*
X40595400Y-147953600D01*
%TO.N,Net-(D4-Pad1)*%
X39675700Y-104298200D02*
X52320900Y-91653000D01*
X44776200Y-161048600D02*
X39675700Y-155948100D01*
X39675700Y-155948100D02*
X39675700Y-104298200D01*
X44776200Y-170821200D02*
X44776200Y-161048600D01*
X52320900Y-91653000D02*
X52665700Y-91653000D01*
X52955000Y-179000000D02*
X44776200Y-170821200D01*
%TO.N,Net-(C2-Pad2)*%
X53080000Y-121250000D02*
X53080000Y-126170000D01*
X53080000Y-126170000D02*
X53000000Y-126250000D01*
%TO.N,Net-(C2-Pad1)*%
X48000000Y-121250000D02*
X48000000Y-126250000D01*
%TO.N,Net-(C3-Pad1)*%
X55620000Y-125870000D02*
X56000000Y-126250000D01*
X55620000Y-121250000D02*
X55620000Y-125870000D01*
%TO.N,Net-(C4-Pad2)*%
X53080000Y-150170000D02*
X53000000Y-150250000D01*
X53080000Y-145250000D02*
X53080000Y-150170000D01*
%TO.N,Net-(D6-Pad1)*%
X104637600Y-89000000D02*
X95970000Y-97667600D01*
X60862400Y-136114800D02*
X58075700Y-136114800D01*
X58075700Y-136114800D02*
X56991200Y-137199300D01*
X56991200Y-148922500D02*
X62990000Y-154921300D01*
X95970000Y-97667600D02*
X95970000Y-101007200D01*
X62990000Y-154921300D02*
X62990000Y-160030000D01*
X56991200Y-137199300D02*
X56991200Y-148922500D01*
X105000000Y-89000000D02*
X104637600Y-89000000D01*
X95970000Y-101007200D02*
X60862400Y-136114800D01*
%TO.N,Net-(R18-Pad2)*%
X89057000Y-127487400D02*
X89057000Y-123622000D01*
X86487800Y-130056600D02*
X89057000Y-127487400D01*
X86785000Y-149550000D02*
X86785000Y-146668600D01*
X86740900Y-132782300D02*
X86487800Y-132529200D01*
X86487800Y-132529200D02*
X86487800Y-130056600D01*
X114868900Y-98130700D02*
X114868900Y-97810000D01*
X86785000Y-146668600D02*
X85640100Y-145523700D01*
X85640100Y-145523700D02*
X85640100Y-140253300D01*
X111588800Y-101410800D02*
X114868900Y-98130700D01*
X86740900Y-139152500D02*
X86740900Y-132782300D01*
X111268200Y-101410800D02*
X111588800Y-101410800D01*
X89057000Y-123622000D02*
X111268200Y-101410800D01*
X85640100Y-140253300D02*
X86740900Y-139152500D01*
%TO.N,Net-(R19-Pad2)*%
X149927600Y-112623600D02*
X158358700Y-104192500D01*
X162176200Y-99738100D02*
X162176200Y-97796200D01*
X149927600Y-126031600D02*
X149927600Y-112623600D01*
X162176200Y-97796200D02*
X161000000Y-96620000D01*
X158358700Y-103555600D02*
X162176200Y-99738100D01*
X89778900Y-149096100D02*
X89778900Y-143983000D01*
X89325000Y-149550000D02*
X89778900Y-149096100D01*
X158358700Y-104192500D02*
X158358700Y-103555600D01*
%TO.N,Net-(R20-Pad2)*%
X96945000Y-143833100D02*
X96945000Y-149550000D01*
X91049200Y-127633800D02*
X91049200Y-136953700D01*
X117700600Y-101301100D02*
X116446600Y-102555100D01*
X113944200Y-102555100D02*
X93895000Y-122604300D01*
X93895000Y-122604300D02*
X93895000Y-124788000D01*
X93895000Y-124788000D02*
X91049200Y-127633800D01*
X95675000Y-141579500D02*
X95675000Y-142563100D01*
X91049200Y-136953700D02*
X95675000Y-141579500D01*
X95675000Y-142563100D02*
X96945000Y-143833100D01*
X116446600Y-102555100D02*
X113944200Y-102555100D01*
%TO.N,Net-(R23-Pad2)*%
X168453100Y-108864500D02*
X168453100Y-101166900D01*
X149848000Y-127469600D02*
X168453100Y-108864500D01*
X168453100Y-101166900D02*
X173000000Y-96620000D01*
%TO.N,Net-(R24-Pad2)*%
X89507400Y-123808500D02*
X111454800Y-101861100D01*
X111454800Y-101861100D02*
X112309600Y-101861100D01*
X112309600Y-101861100D02*
X119131600Y-95039100D01*
X89689800Y-128545900D02*
X89507400Y-128363500D01*
X89325000Y-141930000D02*
X89689800Y-141565200D01*
X89689800Y-141565200D02*
X89689800Y-128545900D01*
X89507400Y-128363500D02*
X89507400Y-123808500D01*
%TO.N,Net-(R25-Pad2)*%
X180519300Y-107572300D02*
X174016200Y-114075400D01*
X185000000Y-96620000D02*
X186165900Y-97785900D01*
X180519300Y-105072200D02*
X180519300Y-107572300D01*
X174016200Y-114075400D02*
X174016200Y-123768200D01*
X186165900Y-99425600D02*
X180519300Y-105072200D01*
X186165900Y-97785900D02*
X186165900Y-99425600D01*
%TO.N,Net-(R28-Pad2)*%
X138716400Y-100903600D02*
X138716400Y-103839900D01*
X105325000Y-130377100D02*
X113182700Y-122519400D01*
X143000000Y-96620000D02*
X138716400Y-100903600D01*
X105325000Y-130550000D02*
X105325000Y-130377100D01*
%TO.N,Net-(C3-Pad2)*%
X58160000Y-123410000D02*
X61000000Y-126250000D01*
X58160000Y-121250000D02*
X58160000Y-123410000D01*
%TO.N,Net-(C4-Pad1)*%
X48000000Y-145250000D02*
X48000000Y-150250000D01*
%TO.N,Net-(C5-Pad2)*%
X58160000Y-145250000D02*
X58160000Y-147910000D01*
X58160000Y-147910000D02*
X60500000Y-150250000D01*
%TO.N,Net-(D5-Pad1)*%
X62686500Y-133587400D02*
X62686500Y-124641200D01*
X54374000Y-157130900D02*
X54374000Y-137251000D01*
X62686500Y-124641200D02*
X62098000Y-124052700D01*
X59304000Y-167159800D02*
X59304000Y-167937700D01*
X54374000Y-137251000D02*
X57326800Y-134298200D01*
X56640000Y-168004100D02*
X56640000Y-159396900D01*
X57411300Y-168775400D02*
X56640000Y-168004100D01*
X75000000Y-106160500D02*
X75000000Y-89000000D01*
X61734200Y-167294000D02*
X60958800Y-166518600D01*
X62098000Y-124052700D02*
X62098000Y-119062500D01*
X61734200Y-177840800D02*
X61734200Y-167294000D01*
X59945200Y-166518600D02*
X59304000Y-167159800D01*
X59304000Y-167937700D02*
X58466300Y-168775400D01*
X60958800Y-166518600D02*
X59945200Y-166518600D01*
X56640000Y-159396900D02*
X54374000Y-157130900D01*
X62098000Y-119062500D02*
X75000000Y-106160500D01*
X57326800Y-134298200D02*
X61975700Y-134298200D01*
X61975700Y-134298200D02*
X62686500Y-133587400D01*
X58466300Y-168775400D02*
X57411300Y-168775400D01*
X60575000Y-179000000D02*
X61734200Y-177840800D01*
%TO.N,Net-(D10-Pad1)*%
X176817400Y-105317400D02*
X176817400Y-97373900D01*
X179000000Y-107500000D02*
X176817400Y-105317400D01*
%TO.N,Net-(D11-Pad2)*%
X45460000Y-81000000D02*
X43000000Y-83460000D01*
X43000000Y-83460000D02*
X43000000Y-89000000D01*
%TO.N,Net-(J8-Pad1)*%
X221620000Y-86365500D02*
X221620000Y-92500000D01*
X257840900Y-72004500D02*
X251590000Y-72004500D01*
X235278900Y-72706600D02*
X221620000Y-86365500D01*
X250887900Y-72706600D02*
X235278900Y-72706600D01*
X251590000Y-72004500D02*
X250887900Y-72706600D01*
X258545000Y-72708600D02*
X257840900Y-72004500D01*
%TO.N,Net-(R17-Pad2)*%
X75031500Y-145416500D02*
X79165000Y-149550000D01*
X75031500Y-135845600D02*
X75031500Y-145416500D01*
X118626300Y-92250800D02*
X75031500Y-135845600D01*
X149000000Y-96620000D02*
X149000000Y-93381500D01*
X129103900Y-92250800D02*
X118626300Y-92250800D01*
X134078400Y-87276300D02*
X129103900Y-92250800D01*
X149000000Y-93381500D02*
X142894800Y-87276300D01*
X142894800Y-87276300D02*
X134078400Y-87276300D01*
%TO.N,Net-(R26-Pad2)*%
X79165000Y-141930000D02*
X83750400Y-137344600D01*
X83750400Y-131217600D02*
X87767500Y-127200500D01*
X83750400Y-137344600D02*
X83750400Y-131217600D01*
%TO.N,Net-(R35-Pad2)*%
X192970000Y-121498300D02*
X192970000Y-119646000D01*
X197635000Y-135378100D02*
X194890000Y-132633100D01*
X192970000Y-119646000D02*
X191072500Y-117748500D01*
X194890000Y-123418300D02*
X192970000Y-121498300D01*
X197635000Y-136385000D02*
X197635000Y-135378100D01*
X191072500Y-117748500D02*
X190315700Y-117748500D01*
X194890000Y-132633100D02*
X194890000Y-123418300D01*
%TO.N,Net-(J14-Pad4)*%
X198175300Y-89788300D02*
X205140000Y-82823600D01*
X207176400Y-82823600D02*
X208540000Y-81460000D01*
X205140000Y-82823600D02*
X207176400Y-82823600D01*
X197000000Y-91540000D02*
X198175300Y-90364700D01*
X198175300Y-90364700D02*
X198175300Y-89788300D01*
%TO.N,Net-(J14-Pad10)*%
X208143600Y-82730000D02*
X208935400Y-82730000D01*
X202393800Y-94606200D02*
X202393800Y-90660500D01*
X207176400Y-83697200D02*
X208143600Y-82730000D01*
X208935400Y-82730000D02*
X209810000Y-81855400D01*
X209810000Y-81065200D02*
X210598400Y-80276800D01*
X214976800Y-80276800D02*
X216160000Y-81460000D01*
X197000000Y-100000000D02*
X202393800Y-94606200D01*
X202393800Y-90660500D02*
X207176400Y-85877900D01*
X210598400Y-80276800D02*
X214976800Y-80276800D01*
X209810000Y-81855400D02*
X209810000Y-81065200D01*
X207176400Y-85877900D02*
X207176400Y-83697200D01*
%TO.N,Net-(R1-Pad1)*%
X219266400Y-131051000D02*
X227082500Y-123234900D01*
X233874200Y-115874200D02*
X235000000Y-117000000D01*
X220495000Y-136385000D02*
X220495000Y-135329200D01*
X220495000Y-135329200D02*
X219266400Y-134100600D01*
X219266400Y-134100600D02*
X219266400Y-131051000D01*
X227082500Y-123234900D02*
X227082500Y-120921500D01*
X232129800Y-115874200D02*
X233874200Y-115874200D01*
X227082500Y-120921500D02*
X232129800Y-115874200D01*
%TO.N,Net-(R3-Pad1)*%
X215415000Y-132585000D02*
X225000000Y-123000000D01*
X225000000Y-121033600D02*
X225000000Y-123000000D01*
X215415000Y-136385000D02*
X215415000Y-132585000D01*
X227240000Y-118793600D02*
X225000000Y-121033600D01*
X227240000Y-112000000D02*
X227240000Y-118793600D01*
%TO.N,Net-(R4-Pad1)*%
X222160000Y-112000000D02*
X215000000Y-119160000D01*
X210335000Y-127665000D02*
X210335000Y-136385000D01*
X215000000Y-119160000D02*
X215000000Y-123000000D01*
X215000000Y-123000000D02*
X210335000Y-127665000D01*
%TO.N,Net-(R6-Pad1)*%
X205000000Y-136130000D02*
X205255000Y-136385000D01*
X205000000Y-123000000D02*
X205000000Y-136130000D01*
%TO.N,Net-(R7-Pad1)*%
X245000000Y-123000000D02*
X240540000Y-118540000D01*
X240540000Y-118540000D02*
X240540000Y-112000000D01*
%TO.N,Net-(R10-Pad1)*%
X255000000Y-123000000D02*
X253810000Y-121810000D01*
X251426500Y-114213600D02*
X247833600Y-114213600D01*
X247833600Y-114213600D02*
X245620000Y-112000000D01*
X253810000Y-121810000D02*
X253810000Y-116597100D01*
X253810000Y-116597100D02*
X251426500Y-114213600D01*
%TO.N,Net-(R13-Pad1)*%
X233920600Y-114319300D02*
X232099300Y-114319300D01*
X233977300Y-119500300D02*
X234619100Y-118858500D01*
X234619100Y-118858500D02*
X234759200Y-118858500D01*
X232099300Y-114319300D02*
X229780000Y-112000000D01*
X236143900Y-117473800D02*
X236143900Y-116542600D01*
X235000000Y-123000000D02*
X235000000Y-121466200D01*
X235000000Y-121466200D02*
X233977300Y-120443500D01*
X233977300Y-120443500D02*
X233977300Y-119500300D01*
X234759200Y-118858500D02*
X236143900Y-117473800D01*
X236143900Y-116542600D02*
X233920600Y-114319300D01*
%TO.N,Net-(R14-Pad1)*%
X225000000Y-117000000D02*
X224700000Y-116700000D01*
X212875000Y-136385000D02*
X212875000Y-129125000D01*
X224700000Y-116700000D02*
X224700000Y-112000000D01*
X212875000Y-129125000D02*
X225000000Y-117000000D01*
%TO.N,Net-(R15-Pad1)*%
X219620000Y-112380000D02*
X219620000Y-112000000D01*
X207795000Y-136385000D02*
X207795000Y-124205000D01*
X207795000Y-124205000D02*
X215000000Y-117000000D01*
X215000000Y-117000000D02*
X219620000Y-112380000D01*
%TO.N,Net-(R16-Pad1)*%
X202715000Y-136385000D02*
X202715000Y-119285000D01*
X202715000Y-119285000D02*
X205000000Y-117000000D01*
%TO.N,Net-(U16-Pad6)*%
X102289200Y-120885800D02*
X100245000Y-122930000D01*
X120732300Y-120885800D02*
X102289200Y-120885800D01*
X122435000Y-122588500D02*
X120732300Y-120885800D01*
X122435000Y-123251800D02*
X122435000Y-122588500D01*
X131325000Y-130550000D02*
X127740200Y-126965200D01*
X126148400Y-126965200D02*
X122435000Y-123251800D01*
X127740200Y-126965200D02*
X126148400Y-126965200D01*
%TO.N,Net-(U16-Pad12)*%
X146485600Y-146909200D02*
X144716900Y-145140500D01*
X147525200Y-172341100D02*
X146485600Y-171301500D01*
X149718800Y-181077900D02*
X147525200Y-178884300D01*
X166702100Y-181077900D02*
X149718800Y-181077900D01*
X147525200Y-178884300D02*
X147525200Y-172341100D01*
X144716900Y-139119000D02*
X130171000Y-124573100D01*
X130171000Y-124573100D02*
X125348100Y-124573100D01*
X144716900Y-145140500D02*
X144716900Y-139119000D01*
X168780000Y-179000000D02*
X166702100Y-181077900D01*
X146485600Y-171301500D02*
X146485600Y-146909200D01*
X125348100Y-124573100D02*
X123705000Y-122930000D01*
%TO.N,Net-(U16-Pad5)*%
X123325000Y-145424400D02*
X123325000Y-149550000D01*
X128147100Y-130550000D02*
X122195300Y-136501800D01*
X128785000Y-130550000D02*
X128147100Y-130550000D01*
X122195300Y-144294700D02*
X123325000Y-145424400D01*
X122195300Y-136501800D02*
X122195300Y-144294700D01*
%TO.N,Net-(U16-Pad10)*%
X133360100Y-121790900D02*
X134388000Y-121790900D01*
X149802400Y-151788200D02*
X149449600Y-152141000D01*
X128785000Y-122930000D02*
X129910500Y-124055500D01*
X134388000Y-121790900D02*
X135588900Y-122991800D01*
X149449600Y-154800500D02*
X157350000Y-162700900D01*
X149802400Y-138230500D02*
X149802400Y-151788200D01*
X129910500Y-124055500D02*
X131845200Y-124055500D01*
X135588900Y-124017000D02*
X149802400Y-138230500D01*
X132595000Y-123305700D02*
X132595000Y-122556000D01*
X132595000Y-122556000D02*
X133360100Y-121790900D01*
X149449600Y-152141000D02*
X149449600Y-154800500D01*
X135588900Y-122991800D02*
X135588900Y-124017000D01*
X157350000Y-177730000D02*
X158620000Y-179000000D01*
X157350000Y-162700900D02*
X157350000Y-177730000D01*
X131845200Y-124055500D02*
X132595000Y-123305700D01*
%TO.N,Net-(U16-Pad8)*%
X145617700Y-142577900D02*
X147388500Y-144348700D01*
X152414600Y-180125400D02*
X153540000Y-179000000D01*
X150040100Y-180125400D02*
X152414600Y-180125400D01*
X147388500Y-170020200D02*
X149874600Y-172506300D01*
X149874600Y-172506300D02*
X149874600Y-179959900D01*
X133865000Y-122930000D02*
X145617700Y-134682700D01*
X149874600Y-179959900D02*
X150040100Y-180125400D01*
X147388500Y-144348700D02*
X147388500Y-170020200D01*
X145617700Y-134682700D02*
X145617700Y-142577900D01*
%TO.N,Net-(U19-Pad5)*%
X104055000Y-131820000D02*
X102785000Y-130550000D01*
X104055000Y-140440000D02*
X104055000Y-131820000D01*
X113165000Y-149550000D02*
X104055000Y-140440000D01*
%TO.N,Net-(U19-Pad3)*%
X127020800Y-140804600D02*
X122969500Y-136753300D01*
X130945000Y-146506900D02*
X127020800Y-142582700D01*
X130945000Y-149550000D02*
X130945000Y-146506900D01*
X127020800Y-142582700D02*
X127020800Y-140804600D01*
%TO.N,Net-(U19-Pad9)*%
X114578800Y-142446600D02*
X114578800Y-139966500D01*
X120785000Y-148652800D02*
X114578800Y-142446600D01*
X106468500Y-121786500D02*
X105325000Y-122930000D01*
X114578800Y-139966500D02*
X119762700Y-134782600D01*
X119137300Y-121786500D02*
X106468500Y-121786500D01*
X119762700Y-122411900D02*
X119137300Y-121786500D01*
X120785000Y-149550000D02*
X120785000Y-148652800D01*
X119762700Y-134782600D02*
X119762700Y-122411900D01*
%TO.N,Net-(U25-Pad5)*%
X199376100Y-172449300D02*
X199376100Y-161135200D01*
X208040000Y-186290000D02*
X206553100Y-184803100D01*
X199376100Y-161135200D02*
X191429600Y-153188700D01*
X191429600Y-153188700D02*
X191429600Y-135329700D01*
X206553100Y-184803100D02*
X206553100Y-179626300D01*
X191429600Y-135329700D02*
X192155500Y-134603800D01*
X206553100Y-179626300D02*
X199376100Y-172449300D01*
%TO.N,Net-(U25-Pad3)*%
X185633900Y-139936400D02*
X182874600Y-137177100D01*
X185633900Y-152560700D02*
X185633900Y-139936400D01*
X185514500Y-152680100D02*
X185633900Y-152560700D01*
X182874600Y-134183300D02*
X183518900Y-133539000D01*
X182874600Y-137177100D02*
X182874600Y-134183300D01*
%TO.N,Net-(U25-Pad9)*%
X197509400Y-133863700D02*
X199049600Y-135403900D01*
X199049600Y-147631800D02*
X201445000Y-150027200D01*
X199049600Y-135403900D02*
X199049600Y-147631800D01*
X197509400Y-125570600D02*
X197509400Y-133863700D01*
X204000400Y-174358000D02*
X208040000Y-178397600D01*
X204000400Y-155624300D02*
X204000400Y-174358000D01*
X201445000Y-150027200D02*
X201445000Y-153068900D01*
X208040000Y-178397600D02*
X208040000Y-183750000D01*
X198700000Y-124380000D02*
X197509400Y-125570600D01*
X201445000Y-153068900D02*
X204000400Y-155624300D01*
%TO.N,Net-(U25-Pad1)*%
X188835100Y-152897300D02*
X198540800Y-162603000D01*
X186000000Y-132000000D02*
X186311600Y-132311600D01*
X186311600Y-132311600D02*
X186311600Y-137875200D01*
X198540800Y-162603000D02*
X198540800Y-165189000D01*
X188835100Y-140398700D02*
X188835100Y-152897300D01*
X186311600Y-137875200D02*
X188835100Y-140398700D01*
%TO.N,Net-(U27-Pad14)*%
X220495000Y-156115000D02*
X220495000Y-151625000D01*
X220880000Y-156500000D02*
X220495000Y-156115000D01*
%TO.N,Net-(U27-Pad13)*%
X217955000Y-154545000D02*
X217955000Y-151625000D01*
X216000000Y-156500000D02*
X217955000Y-154545000D01*
%TO.N,/parallel/PD0*%
X70499600Y-159525200D02*
X70499600Y-139740600D01*
X150130900Y-90130900D02*
X149000000Y-89000000D01*
X118439800Y-91800400D02*
X128777100Y-91800400D01*
X70499600Y-139740600D02*
X118439800Y-91800400D01*
X78039600Y-164675400D02*
X75649800Y-164675400D01*
X149000000Y-99000000D02*
X150130900Y-97869100D01*
X79165000Y-163550000D02*
X78039600Y-164675400D01*
X146823700Y-86823700D02*
X149000000Y-89000000D01*
X150130900Y-97869100D02*
X150130900Y-90130900D01*
X75649800Y-164675400D02*
X70499600Y-159525200D01*
X133753800Y-86823700D02*
X146823700Y-86823700D01*
X128777100Y-91800400D02*
X133753800Y-86823700D01*
%TO.N,/parallel/PD1*%
X75481900Y-136101600D02*
X111458200Y-100125300D01*
X111458200Y-100125300D02*
X111777500Y-100125300D01*
X153874700Y-97874700D02*
X155000000Y-99000000D01*
X155000000Y-89000000D02*
X155000000Y-95028600D01*
X153874700Y-96153800D02*
X153874700Y-97874700D01*
X75481900Y-144029500D02*
X75481900Y-136101600D01*
X80435000Y-148982600D02*
X75481900Y-144029500D01*
X84245000Y-163550000D02*
X80435000Y-159740000D01*
X80435000Y-159740000D02*
X80435000Y-148982600D01*
X155000000Y-95028600D02*
X154999900Y-95028600D01*
X154999900Y-95028600D02*
X153874700Y-96153800D01*
%TO.N,/parallel/PD2*%
X161000000Y-89000000D02*
X161000000Y-95028600D01*
X89325000Y-163550000D02*
X90512700Y-162362300D01*
X159874700Y-96153800D02*
X159874700Y-97874700D01*
X90512700Y-138492900D02*
X90140100Y-138120300D01*
X90512700Y-162362300D02*
X90512700Y-138492900D01*
X90140100Y-138120300D02*
X90140100Y-126541000D01*
X160999900Y-95028600D02*
X159874700Y-96153800D01*
X90140100Y-126541000D02*
X90280000Y-126401100D01*
X159874700Y-97874700D02*
X161000000Y-99000000D01*
X161000000Y-95028600D02*
X160999900Y-95028600D01*
%TO.N,/parallel/PD3*%
X168153500Y-97846500D02*
X168153500Y-89993500D01*
X90598800Y-127392500D02*
X91016400Y-126974900D01*
X168153500Y-89993500D02*
X167160000Y-89000000D01*
X90598800Y-137780400D02*
X90598800Y-127392500D01*
X94405000Y-163550000D02*
X94405000Y-158221100D01*
X91016400Y-122947000D02*
X107456800Y-106506600D01*
X94405000Y-158221100D02*
X93277900Y-157094000D01*
X91016400Y-126974900D02*
X91016400Y-122947000D01*
X108301000Y-106506600D02*
X112990800Y-101816800D01*
X172160000Y-84000000D02*
X167160000Y-89000000D01*
X112990800Y-101816800D02*
X115706500Y-101816800D01*
X107456800Y-106506600D02*
X108301000Y-106506600D01*
X93277900Y-140459500D02*
X90598800Y-137780400D01*
X167160000Y-89000000D02*
X167000000Y-89000000D01*
X93277900Y-157094000D02*
X93277900Y-140459500D01*
X167000000Y-99000000D02*
X168153500Y-97846500D01*
%TO.N,/parallel/PD4*%
X173000000Y-99000000D02*
X169549700Y-102450300D01*
X174700000Y-84000000D02*
X174700000Y-87300000D01*
X174135200Y-90135200D02*
X174135200Y-97864800D01*
X173000000Y-89000000D02*
X174135200Y-90135200D01*
X174135200Y-97864800D02*
X173000000Y-99000000D01*
X169549700Y-130077700D02*
X155759700Y-143867700D01*
X174700000Y-87300000D02*
X173000000Y-89000000D01*
X169549700Y-102450300D02*
X169549700Y-130077700D01*
%TO.N,/parallel/PD5*%
X174866100Y-93133900D02*
X174866100Y-98571800D01*
X179000000Y-85760000D02*
X177240000Y-84000000D01*
X174866100Y-98571800D02*
X174866100Y-98725400D01*
X170482900Y-103108600D02*
X170482900Y-135190700D01*
X179000000Y-89000000D02*
X174866100Y-93133900D01*
X174866100Y-98725400D02*
X170482900Y-103108600D01*
X179000000Y-89000000D02*
X179000000Y-85760000D01*
X170482900Y-135190700D02*
X161817900Y-143855700D01*
%TO.N,/parallel/PD6*%
X88163100Y-154768100D02*
X88163100Y-131812100D01*
X89325000Y-155930000D02*
X88163100Y-154768100D01*
X88163100Y-131812100D02*
X88964500Y-131010700D01*
X183874600Y-97874600D02*
X185000000Y-99000000D01*
X183874600Y-90125400D02*
X183874600Y-97874600D01*
X185000000Y-89000000D02*
X183874600Y-90125400D01*
X88964500Y-131010700D02*
X88964500Y-128846400D01*
%TO.N,/parallel/PD7*%
X85750600Y-133503200D02*
X85750600Y-130264800D01*
X86290500Y-134043100D02*
X85750600Y-133503200D01*
X83111400Y-154796400D02*
X83111400Y-140361000D01*
X86290500Y-137181900D02*
X86290500Y-134043100D01*
X83111400Y-140361000D02*
X86290500Y-137181900D01*
X84245000Y-155930000D02*
X83111400Y-154796400D01*
X189872700Y-97872700D02*
X189872700Y-90127300D01*
X189872700Y-90127300D02*
X191000000Y-89000000D01*
X191000000Y-99000000D02*
X189872700Y-97872700D01*
%TO.N,/parallel/~{STROBE}*%
X129955800Y-120435500D02*
X101125900Y-120435500D01*
X136225300Y-114166000D02*
X129955800Y-120435500D01*
X136988900Y-87753500D02*
X136225300Y-88517100D01*
X144176200Y-97823800D02*
X143000000Y-99000000D01*
X131325000Y-121804700D02*
X129955800Y-120435500D01*
X141753500Y-87753500D02*
X136988900Y-87753500D01*
X136225300Y-88517100D02*
X136225300Y-114166000D01*
X143000000Y-89000000D02*
X141753500Y-87753500D01*
X96290300Y-134424700D02*
X95165000Y-135550000D01*
X131325000Y-122930000D02*
X131325000Y-121804700D01*
X98975100Y-124929900D02*
X96290300Y-127614700D01*
X98975100Y-122586300D02*
X98975100Y-124929900D01*
X143000000Y-89000000D02*
X144176200Y-90176200D01*
X101125900Y-120435500D02*
X98975100Y-122586300D01*
X144176200Y-90176200D02*
X144176200Y-97823800D01*
X96290300Y-127614700D02*
X96290300Y-134424700D01*
D33*
%TO.N,/USB-SD/VBUS*%
X230000000Y-81460000D02*
X230000000Y-84000000D01*
X211620000Y-92500000D02*
X211000000Y-92500000D01*
X211000000Y-92500000D02*
X204500000Y-99000000D01*
%TO.N,/USB-SD/VDD3*%
X235094000Y-74134500D02*
X252095400Y-74134500D01*
X216999700Y-102999700D02*
X212500000Y-98500000D01*
X221620000Y-104500000D02*
X221620000Y-102999700D01*
X224260200Y-84968300D02*
X235094000Y-74134500D01*
X252095400Y-74134500D02*
X253271100Y-72958800D01*
X221620000Y-102999700D02*
X216999700Y-102999700D01*
X224260200Y-100359500D02*
X224260200Y-84968300D01*
X221620000Y-102999700D02*
X224260200Y-100359500D01*
%TO.N,VDD1*%
X137540000Y-124743400D02*
X151150000Y-138353400D01*
X206500000Y-108000000D02*
X212000000Y-108000000D01*
X212000000Y-108000000D02*
X212000000Y-106500000D01*
X137540000Y-89000000D02*
X137540000Y-124743400D01*
X151150000Y-145000000D02*
X182000000Y-145000000D01*
X212000000Y-106500000D02*
X214000000Y-104500000D01*
X151150000Y-138353400D02*
X151150000Y-145000000D01*
X212000000Y-112000000D02*
X212000000Y-108000000D01*
X151150000Y-145000000D02*
X151150000Y-149230500D01*
D32*
%TO.N,/parallel/STATUS0*%
X176081600Y-96305200D02*
X176081600Y-99237800D01*
X183334100Y-146182700D02*
X164939800Y-164577000D01*
X176081600Y-99237800D02*
X171872900Y-103446500D01*
X188764600Y-83474400D02*
X188764600Y-84297700D01*
X183334100Y-143221800D02*
X183334100Y-146182700D01*
X163700000Y-171380000D02*
X163700000Y-164577000D01*
X192480000Y-81460000D02*
X191210000Y-82730000D01*
X164939800Y-164577000D02*
X163700000Y-164577000D01*
X189509000Y-82730000D02*
X188764600Y-83474400D01*
X185648700Y-87413600D02*
X184973200Y-87413600D01*
X184973200Y-87413600D02*
X176081600Y-96305200D01*
X171872900Y-131760600D02*
X183334100Y-143221800D01*
X188764600Y-84297700D02*
X185648700Y-87413600D01*
X171872900Y-103446500D02*
X171872900Y-131760600D01*
X163700000Y-164577000D02*
X151204600Y-152081600D01*
X191210000Y-82730000D02*
X189509000Y-82730000D01*
%TO.N,/parallel/STATUS1*%
X119515000Y-152616300D02*
X119515000Y-148280000D01*
X121457900Y-154559200D02*
X119515000Y-152616300D01*
X119515000Y-148280000D02*
X113165000Y-141930000D01*
%TO.N,/DUART/~{TTL_CTSB}*%
X99580000Y-193490000D02*
X100850000Y-192220000D01*
X103994700Y-143363800D02*
X99006300Y-138375400D01*
X112780600Y-88900300D02*
X112780600Y-92221000D01*
X112780600Y-92221000D02*
X66231800Y-138769800D01*
X101634100Y-184833400D02*
X102104700Y-184833400D01*
X103994700Y-182943400D02*
X103994700Y-143363800D01*
X124700000Y-84000000D02*
X120925400Y-87774600D01*
X100850000Y-185617500D02*
X101634100Y-184833400D01*
X100850000Y-192220000D02*
X100850000Y-185617500D01*
X59299800Y-138769800D02*
X58160000Y-137630000D01*
X120925400Y-87774600D02*
X113906300Y-87774600D01*
X66231800Y-138769800D02*
X59299800Y-138769800D01*
X102104700Y-184833400D02*
X103994700Y-182943400D01*
X99006300Y-138375400D02*
X98460300Y-138375400D01*
X113906300Y-87774600D02*
X112780600Y-88900300D01*
%TO.N,/DUART/TTL_TXB*%
X44050900Y-172635900D02*
X50415000Y-179000000D01*
X122160000Y-84000000D02*
X120983000Y-82823000D01*
X113521200Y-86866500D02*
X109848400Y-90539300D01*
X119096000Y-82823000D02*
X118444600Y-83474400D01*
X101388800Y-100549300D02*
X100320700Y-100549300D01*
X100320700Y-100549300D02*
X63240000Y-137630000D01*
X118444600Y-83474400D02*
X118444600Y-84301800D01*
X120983000Y-82823000D02*
X119096000Y-82823000D01*
X109848400Y-92089700D02*
X101388800Y-100549300D01*
X118444600Y-84301800D02*
X115879900Y-86866500D01*
X115879900Y-86866500D02*
X113521200Y-86866500D01*
X109848400Y-90539300D02*
X109848400Y-92089700D01*
X44050900Y-161349100D02*
X44050900Y-172635900D01*
%TO.N,/DUART/TTL_RXB*%
X58035000Y-179000000D02*
X59230700Y-180195700D01*
X111279700Y-92130300D02*
X65780000Y-137630000D01*
X74596300Y-180195700D02*
X80568700Y-186168100D01*
X67012900Y-154689300D02*
X63565900Y-151242300D01*
X67012900Y-164567200D02*
X67012900Y-154689300D01*
X63565900Y-146912100D02*
X64510000Y-145968000D01*
X72179300Y-169733600D02*
X67012900Y-164567200D01*
X119620000Y-84000000D02*
X116303100Y-87316900D01*
X63565900Y-151242300D02*
X63565900Y-146912100D01*
X116303100Y-87316900D02*
X113727100Y-87316900D01*
X72179300Y-180195700D02*
X72179300Y-169733600D01*
X111279700Y-89764300D02*
X111279700Y-92130300D01*
X59230700Y-180195700D02*
X72179300Y-180195700D01*
X113727100Y-87316900D02*
X111279700Y-89764300D01*
%TO.N,/DUART/~{TTL_RTSB}*%
X101050000Y-97490000D02*
X114540000Y-84000000D01*
X60700000Y-137630000D02*
X98375700Y-99954300D01*
X103520900Y-145746400D02*
X103202400Y-145427900D01*
X98375700Y-99954300D02*
X99426400Y-99954300D01*
X99798500Y-184600000D02*
X100764800Y-183633700D01*
X101050000Y-98330700D02*
X101050000Y-97490000D01*
X100764800Y-183633700D02*
X100764800Y-177165300D01*
X98310000Y-184600000D02*
X99798500Y-184600000D01*
X99426400Y-99954300D02*
X101050000Y-98330700D01*
X91960000Y-190950000D02*
X98310000Y-184600000D01*
X100764800Y-177165300D02*
X103520900Y-174409200D01*
X103520900Y-174409200D02*
X103520900Y-145746400D01*
%TO.N,/DUART/~{TTL_CTSA}*%
X100074500Y-140081400D02*
X99119600Y-140081400D01*
X58160000Y-113630000D02*
X58160000Y-119346900D01*
X99119600Y-140081400D02*
X96282700Y-137244500D01*
X102026800Y-146117300D02*
X102026800Y-144940900D01*
X102543600Y-172746400D02*
X102543600Y-146634100D01*
X102127000Y-142133900D02*
X100074500Y-140081400D01*
X102543600Y-146634100D02*
X102026800Y-146117300D01*
X59430000Y-120616900D02*
X59430000Y-122079700D01*
X62133600Y-124783300D02*
X62133600Y-133114300D01*
X62133600Y-133114300D02*
X61939100Y-133308800D01*
X99580000Y-175710000D02*
X102543600Y-172746400D01*
X58160000Y-119346900D02*
X59430000Y-120616900D01*
X59430000Y-122079700D02*
X62133600Y-124783300D01*
X102026800Y-144940900D02*
X102127000Y-144840700D01*
X102127000Y-144840700D02*
X102127000Y-142133900D01*
%TO.N,/DUART/TTL_TXA*%
X80984900Y-192388900D02*
X79919100Y-191323100D01*
X99580000Y-180790000D02*
X90530700Y-189839300D01*
X90530700Y-191305300D02*
X89841400Y-191994600D01*
X90530700Y-189839300D02*
X90530700Y-191305300D01*
X89841400Y-191994600D02*
X81980100Y-191994600D01*
X81585800Y-192388900D02*
X80984900Y-192388900D01*
X79919100Y-191323100D02*
X79919100Y-190984200D01*
X81980100Y-191994600D02*
X81585800Y-192388900D01*
%TO.N,/DUART/~{TTL_RTSA}*%
X46331600Y-143214300D02*
X48060000Y-143214300D01*
X53730100Y-154456100D02*
X53730100Y-158161800D01*
X53955400Y-164459800D02*
X55673800Y-166178200D01*
X48060000Y-143214300D02*
X49125400Y-144279700D01*
X49125400Y-149851400D02*
X53730100Y-154456100D01*
X49125400Y-144279700D02*
X49125400Y-149851400D01*
X53955400Y-158387100D02*
X53955400Y-164459800D01*
X53730100Y-158161800D02*
X53955400Y-158387100D01*
%TO.N,/USB-SD/UD+*%
X225874600Y-108021900D02*
X225874600Y-93006600D01*
X223294800Y-110601700D02*
X225874600Y-108021900D01*
X234881200Y-84000000D02*
X235080000Y-84000000D01*
X221466200Y-119745400D02*
X221466200Y-116533800D01*
X210335000Y-138330000D02*
X211749600Y-136915400D01*
X221466200Y-116533800D02*
X223294800Y-114705200D01*
X210335000Y-151625000D02*
X210335000Y-138330000D01*
X211749600Y-129462000D02*
X221466200Y-119745400D01*
X225874600Y-93006600D02*
X234881200Y-84000000D01*
X211749600Y-136915400D02*
X211749600Y-129462000D01*
X235080000Y-81460000D02*
X235080000Y-84000000D01*
X223294800Y-114705200D02*
X223294800Y-110601700D01*
%TO.N,/USB-SD/UD-*%
X235522600Y-80239700D02*
X233760300Y-80239700D01*
X212875000Y-151625000D02*
X216685000Y-147815000D01*
X236298300Y-81015400D02*
X235522600Y-80239700D01*
X216685000Y-147815000D02*
X216685000Y-132496900D01*
X228365500Y-92449200D02*
X236298300Y-84516400D01*
X236298300Y-84516400D02*
X236298300Y-81015400D01*
X216685000Y-132496900D02*
X217840900Y-131341000D01*
X232540000Y-81460000D02*
X232540000Y-84000000D01*
X226178300Y-123449500D02*
X226178300Y-120607300D01*
X226178300Y-120607300D02*
X228365500Y-118420100D01*
X228365500Y-118420100D02*
X228365500Y-92449200D01*
X217840900Y-131341000D02*
X218286800Y-131341000D01*
X233760300Y-80239700D02*
X232540000Y-81460000D01*
X218286800Y-131341000D02*
X226178300Y-123449500D01*
%TO.N,/USB-SD/SDCK*%
X206719900Y-128293100D02*
X206719900Y-124643200D01*
X234722600Y-77604000D02*
X250187300Y-77604000D01*
X206719900Y-124643200D02*
X213810000Y-117553100D01*
X225095600Y-102738200D02*
X225095600Y-92259300D01*
X231270000Y-81056600D02*
X234722600Y-77604000D01*
X213810000Y-117553100D02*
X213810000Y-116584000D01*
X215131600Y-115540000D02*
X218350000Y-112321600D01*
X250187300Y-77604000D02*
X253266600Y-74524700D01*
X218350000Y-112321600D02*
X218350000Y-109483800D01*
X213810000Y-116584000D02*
X214854000Y-115540000D01*
X218350000Y-109483800D02*
X225095600Y-102738200D01*
X231270000Y-86084900D02*
X231270000Y-81056600D01*
X214854000Y-115540000D02*
X215131600Y-115540000D01*
X225095600Y-92259300D02*
X231270000Y-86084900D01*
%TO.N,/USB-SD/SDCS*%
X200175000Y-136385000D02*
X200175000Y-147093100D01*
X200175000Y-147093100D02*
X200035700Y-147232400D01*
D33*
%TO.N,-12V*%
X136280000Y-225540000D02*
X136280000Y-223000000D01*
D32*
%TO.N,~{EIRQ0}*%
X44050300Y-192660300D02*
X44050300Y-198409700D01*
X43000000Y-215460000D02*
X44364600Y-216824600D01*
X43000000Y-207460000D02*
X41824700Y-206284700D01*
X44364600Y-218504400D02*
X47365600Y-221505400D01*
X41824700Y-214284700D02*
X41824700Y-208635300D01*
X41824700Y-200635300D02*
X43000000Y-199460000D01*
X41678200Y-190288200D02*
X42875000Y-191485000D01*
X43000000Y-215460000D02*
X41824700Y-214284700D01*
X47365600Y-221505400D02*
X50625400Y-221505400D01*
X42875000Y-183485000D02*
X41678200Y-184681800D01*
X50625400Y-221505400D02*
X52120000Y-223000000D01*
X42875000Y-191485000D02*
X44050300Y-192660300D01*
X44050300Y-198409700D02*
X43000000Y-199460000D01*
X41678200Y-184681800D02*
X41678200Y-190288200D01*
X41824700Y-206284700D02*
X41824700Y-200635300D01*
X44364600Y-216824600D02*
X44364600Y-218504400D01*
X41824700Y-208635300D02*
X43000000Y-207460000D01*
%TO.N,~{EIRQ1}*%
X51332500Y-219672500D02*
X48043900Y-219672500D01*
X45415000Y-191485000D02*
X44221000Y-190291000D01*
X44364700Y-206284700D02*
X45540000Y-207460000D01*
X46590300Y-198409700D02*
X46590300Y-192660300D01*
X45540000Y-199460000D02*
X46590300Y-198409700D01*
X46904600Y-216824600D02*
X45540000Y-215460000D01*
X44364600Y-214284600D02*
X44364600Y-208635400D01*
X45540000Y-199460000D02*
X44364700Y-200635300D01*
X44364700Y-200635300D02*
X44364700Y-206284700D01*
X48043900Y-219672500D02*
X46904600Y-218533200D01*
X44221000Y-190291000D02*
X44221000Y-184679000D01*
X45540000Y-215460000D02*
X44364600Y-214284600D01*
X46904600Y-218533200D02*
X46904600Y-216824600D01*
X54660000Y-223000000D02*
X51332500Y-219672500D01*
X44221000Y-184679000D02*
X45415000Y-183485000D01*
X46590300Y-192660300D02*
X45415000Y-191485000D01*
X44364600Y-208635400D02*
X45540000Y-207460000D01*
%TO.N,~{EIRQ2}*%
X49383400Y-216763400D02*
X48080000Y-215460000D01*
X49130300Y-192660300D02*
X47955000Y-191485000D01*
X46904700Y-200635300D02*
X48080000Y-199460000D01*
X46899900Y-208640100D02*
X48080000Y-207460000D01*
X51891300Y-217543100D02*
X51111600Y-216763400D01*
X48080000Y-207460000D02*
X46904700Y-206284700D01*
X51891300Y-218431000D02*
X51891300Y-217543100D01*
X48080000Y-199460000D02*
X49130300Y-198409700D01*
X48080000Y-215460000D02*
X46899900Y-214279900D01*
X46779700Y-184660300D02*
X46779700Y-190309700D01*
X52635700Y-219175400D02*
X51891300Y-218431000D01*
X47955000Y-183485000D02*
X46779700Y-184660300D01*
X51111600Y-216763400D02*
X49383400Y-216763400D01*
X57200000Y-223000000D02*
X53375400Y-219175400D01*
X49130300Y-198409700D02*
X49130300Y-192660300D01*
X53375400Y-219175400D02*
X52635700Y-219175400D01*
X46899900Y-214279900D02*
X46899900Y-208640100D01*
X46779700Y-190309700D02*
X47955000Y-191485000D01*
X46904700Y-206284700D02*
X46904700Y-200635300D01*
%TO.N,~{EIRQ3}*%
X50620000Y-215460000D02*
X49444700Y-214284700D01*
X51693300Y-192683300D02*
X50495000Y-191485000D01*
X50620000Y-215460000D02*
X51795300Y-216635300D01*
X59034300Y-223000000D02*
X59740000Y-223000000D01*
X53460100Y-216635300D02*
X54335400Y-217510600D01*
X51795300Y-216635300D02*
X53460100Y-216635300D01*
X49444700Y-214284700D02*
X49444700Y-208635300D01*
X49444700Y-206284700D02*
X50620000Y-207460000D01*
X54335400Y-217510600D02*
X54335400Y-218301100D01*
X50620000Y-199460000D02*
X49444700Y-200635300D01*
X54335400Y-218301100D02*
X59034300Y-223000000D01*
X49319700Y-184660300D02*
X49319700Y-190309700D01*
X49444700Y-208635300D02*
X50620000Y-207460000D01*
X51693300Y-198386700D02*
X51693300Y-192683300D01*
X50495000Y-183485000D02*
X49319700Y-184660300D01*
X50620000Y-199460000D02*
X51693300Y-198386700D01*
X49319700Y-190309700D02*
X50495000Y-191485000D01*
X49444700Y-200635300D02*
X49444700Y-206284700D01*
%TO.N,~{EIRQ4}*%
X53160000Y-199460000D02*
X51984700Y-200635300D01*
X61574600Y-223000000D02*
X62280000Y-223000000D01*
X54242800Y-198377200D02*
X53160000Y-199460000D01*
X51859700Y-190309700D02*
X53035000Y-191485000D01*
X56875400Y-217510600D02*
X56875400Y-218300800D01*
X51984700Y-208635300D02*
X53160000Y-207460000D01*
X53035000Y-192346800D02*
X54242800Y-193554600D01*
X53035000Y-183485000D02*
X51859700Y-184660300D01*
X56875400Y-218300800D02*
X61574600Y-223000000D01*
X51984700Y-200635300D02*
X51984700Y-206284700D01*
X53035000Y-191485000D02*
X53035000Y-192346800D01*
X51984700Y-206284700D02*
X53160000Y-207460000D01*
X51859700Y-184660300D02*
X51859700Y-190309700D01*
X53160000Y-215460000D02*
X51984700Y-214284700D01*
X56000100Y-216635300D02*
X56875400Y-217510600D01*
X54335300Y-216635300D02*
X56000100Y-216635300D01*
X53160000Y-215460000D02*
X54335300Y-216635300D01*
X54242800Y-193554600D02*
X54242800Y-198377200D01*
X51984700Y-214284700D02*
X51984700Y-208635300D01*
%TO.N,~{EIRQ5}*%
X56753200Y-198406800D02*
X55700000Y-199460000D01*
X64114600Y-223000000D02*
X64820000Y-223000000D01*
X54524700Y-206284700D02*
X55700000Y-207460000D01*
X55700000Y-199460000D02*
X54524700Y-200635300D01*
X55575000Y-191485000D02*
X56753200Y-192663200D01*
X54524700Y-214284700D02*
X54524700Y-208635300D01*
X59415400Y-217510600D02*
X59415400Y-218300800D01*
X56753200Y-192663200D02*
X56753200Y-198406800D01*
X55575000Y-191485000D02*
X56750300Y-190309700D01*
X55700000Y-215460000D02*
X56875300Y-216635300D01*
X56875300Y-216635300D02*
X58540100Y-216635300D01*
X55700000Y-215460000D02*
X54524700Y-214284700D01*
X58540100Y-216635300D02*
X59415400Y-217510600D01*
X56750300Y-184660300D02*
X55575000Y-183485000D01*
X56750300Y-190309700D02*
X56750300Y-184660300D01*
X54524700Y-208635300D02*
X55700000Y-207460000D01*
X59415400Y-218300800D02*
X64114600Y-223000000D01*
X54524700Y-200635300D02*
X54524700Y-206284700D01*
%TO.N,~{EIRQ6}*%
X59290300Y-192660300D02*
X59290300Y-198409700D01*
X59290300Y-190309700D02*
X58115000Y-191485000D01*
X59290300Y-184660300D02*
X59290300Y-190309700D01*
X59290300Y-198409700D02*
X58240000Y-199460000D01*
X61217000Y-216730000D02*
X59510000Y-216730000D01*
X67360000Y-223000000D02*
X67360000Y-222873000D01*
X58115000Y-191485000D02*
X59290300Y-192660300D01*
X58240000Y-207460000D02*
X57050000Y-208650000D01*
X67360000Y-222873000D02*
X61217000Y-216730000D01*
X57050000Y-208650000D02*
X57050000Y-214270000D01*
X58115000Y-183485000D02*
X59290300Y-184660300D01*
X59510000Y-216730000D02*
X58240000Y-215460000D01*
X59415300Y-200635300D02*
X59415300Y-206284700D01*
X58240000Y-199460000D02*
X59415300Y-200635300D01*
X59415300Y-206284700D02*
X58240000Y-207460000D01*
X57050000Y-214270000D02*
X58240000Y-215460000D01*
%TO.N,~{EIRQ7}*%
X60780000Y-215460000D02*
X59604700Y-214284700D01*
X61864600Y-192694600D02*
X60655000Y-191485000D01*
X59604700Y-208635300D02*
X60780000Y-207460000D01*
X59604700Y-214284700D02*
X59604700Y-208635300D01*
X60780000Y-199460000D02*
X61864600Y-198375400D01*
X69900000Y-223000000D02*
X62360000Y-215460000D01*
X62360000Y-215460000D02*
X60780000Y-215460000D01*
X61864600Y-198375400D02*
X61864600Y-192694600D01*
%TO.N,~{M1}*%
X98285000Y-215295200D02*
X98285000Y-220015000D01*
X98905300Y-207505300D02*
X98905300Y-214674900D01*
X98905300Y-214674900D02*
X98285000Y-215295200D01*
X98285000Y-220015000D02*
X95300000Y-223000000D01*
X97780000Y-206380000D02*
X98905300Y-207505300D01*
%TO.N,~{IORQ}*%
X101590000Y-221790000D02*
X101590000Y-207650000D01*
X101590000Y-207650000D02*
X102860000Y-206380000D01*
X100380000Y-223000000D02*
X101590000Y-221790000D01*
%TO.N,~{WR}*%
X104000200Y-205906800D02*
X104000200Y-221919800D01*
X93825300Y-205254700D02*
X103348100Y-205254700D01*
X104000200Y-221919800D02*
X102920000Y-223000000D01*
X92700000Y-206380000D02*
X93825300Y-205254700D01*
X103348100Y-205254700D02*
X104000200Y-205906800D01*
%TO.N,~{RD}*%
X105460000Y-206729700D02*
X105460000Y-223000000D01*
X89195600Y-204804400D02*
X103534700Y-204804400D01*
X103534700Y-204804400D02*
X105460000Y-206729700D01*
X87620000Y-206380000D02*
X89195600Y-204804400D01*
%TO.N,A0*%
X132224800Y-216404800D02*
X126944800Y-216404800D01*
X126944800Y-216404800D02*
X124540000Y-214000000D01*
X138820000Y-223000000D02*
X132224800Y-216404800D01*
%TO.N,A1*%
X130745300Y-215125300D02*
X133485300Y-215125300D01*
X129620000Y-214000000D02*
X130745300Y-215125300D01*
X133485300Y-215125300D02*
X141360000Y-223000000D01*
%TO.N,A2*%
X134900000Y-214000000D02*
X143900000Y-223000000D01*
X134700000Y-214000000D02*
X134900000Y-214000000D01*
%TO.N,A3*%
X139780000Y-214000000D02*
X139780000Y-216340000D01*
X139780000Y-216340000D02*
X146440000Y-223000000D01*
%TO.N,A4*%
X148980000Y-223000000D02*
X148980000Y-221360300D01*
X143668500Y-213246500D02*
X144860000Y-212055000D01*
X144860000Y-212055000D02*
X144860000Y-206380000D01*
X143668500Y-216048800D02*
X143668500Y-213246500D01*
X148980000Y-221360300D02*
X143668500Y-216048800D01*
%TO.N,A5*%
X141050000Y-215265300D02*
X141050000Y-207650000D01*
X147710000Y-221925300D02*
X141050000Y-215265300D01*
X151520000Y-223000000D02*
X150344600Y-224175400D01*
X150344600Y-224175400D02*
X148490600Y-224175400D01*
X147710000Y-223394800D02*
X147710000Y-221925300D01*
X141050000Y-207650000D02*
X139780000Y-206380000D01*
X148490600Y-224175400D02*
X147710000Y-223394800D01*
%TO.N,A6*%
X149455000Y-226771300D02*
X150250000Y-225976300D01*
X150250000Y-225083600D02*
X150969000Y-224364600D01*
X152695400Y-224364600D02*
X154060000Y-223000000D01*
X135656400Y-215526300D02*
X142630000Y-222499900D01*
X134700000Y-206380000D02*
X133571100Y-207508900D01*
X142630000Y-222499900D02*
X142630000Y-223431000D01*
X146008800Y-226771300D02*
X149455000Y-226771300D01*
X150250000Y-225976300D02*
X150250000Y-225083600D01*
X142630000Y-223431000D02*
X143374400Y-224175400D01*
X133571100Y-214538300D02*
X134559100Y-215526300D01*
X145075400Y-225837900D02*
X146008800Y-226771300D01*
X133571100Y-207508900D02*
X133571100Y-214538300D01*
X144236400Y-224175400D02*
X145075400Y-225014400D01*
X150969000Y-224364600D02*
X152695400Y-224364600D01*
X134559100Y-215526300D02*
X135656400Y-215526300D01*
X143374400Y-224175400D02*
X144236400Y-224175400D01*
X145075400Y-225014400D02*
X145075400Y-225837900D01*
%TO.N,A7*%
X153755300Y-224175400D02*
X152790000Y-225140700D01*
X129937300Y-215924300D02*
X128494700Y-214481700D01*
X151473000Y-227254800D02*
X141385800Y-227254800D01*
X128494700Y-214481700D02*
X128494700Y-212415200D01*
X140090000Y-222565000D02*
X133449300Y-215924300D01*
X129620000Y-211289900D02*
X129620000Y-206380000D01*
X140090000Y-225959000D02*
X140090000Y-222565000D01*
X156600000Y-223000000D02*
X155424600Y-224175400D01*
X152790000Y-225140700D02*
X152790000Y-225937800D01*
X141385800Y-227254800D02*
X140090000Y-225959000D01*
X133449300Y-215924300D02*
X129937300Y-215924300D01*
X152790000Y-225937800D02*
X151473000Y-227254800D01*
X155424600Y-224175400D02*
X153755300Y-224175400D01*
X128494700Y-212415200D02*
X129620000Y-211289900D01*
D33*
%TO.N,+12V*%
X159140000Y-225540000D02*
X159140000Y-223000000D01*
D32*
%TO.N,D1*%
X219900000Y-223000000D02*
X214080000Y-217180000D01*
X214080000Y-217180000D02*
X214080000Y-214000000D01*
%TO.N,D2*%
X222440000Y-223000000D02*
X216620000Y-217180000D01*
X216620000Y-217180000D02*
X216620000Y-214000000D01*
%TO.N,D3*%
X219160000Y-217180000D02*
X219160000Y-214000000D01*
X224980000Y-223000000D02*
X219160000Y-217180000D01*
%TO.N,D4*%
X227520000Y-223000000D02*
X221700000Y-217180000D01*
X221700000Y-217180000D02*
X221700000Y-214000000D01*
%TO.N,D5*%
X224240000Y-217180000D02*
X224240000Y-214000000D01*
X230060000Y-223000000D02*
X224240000Y-217180000D01*
%TO.N,D6*%
X232600000Y-223000000D02*
X226780000Y-217180000D01*
X226780000Y-217180000D02*
X226780000Y-214000000D01*
%TO.N,D7*%
X235140000Y-223000000D02*
X229320000Y-217180000D01*
X229320000Y-217180000D02*
X229320000Y-214000000D01*
%TO.N,/DUART/~{CTSA}*%
X73508200Y-87475100D02*
X78253300Y-82730000D01*
X55620000Y-113630000D02*
X54836500Y-112846500D01*
X73508200Y-90150400D02*
X73508200Y-87475100D01*
X54836500Y-112846500D02*
X54836500Y-108822100D01*
X91810000Y-82730000D02*
X93080000Y-81460000D01*
X78253300Y-82730000D02*
X91810000Y-82730000D01*
X54836500Y-108822100D02*
X73508200Y-90150400D01*
%TO.N,/DUART/~{RTSA}*%
X71873900Y-89506500D02*
X54205300Y-107175100D01*
X79638200Y-82167400D02*
X78152200Y-82167400D01*
X78152200Y-82167400D02*
X71873900Y-88445700D01*
X81521900Y-80283700D02*
X79638200Y-82167400D01*
X71873900Y-88445700D02*
X71873900Y-89506500D01*
X90540000Y-81460000D02*
X89363700Y-80283700D01*
X89363700Y-80283700D02*
X81521900Y-80283700D01*
X54205300Y-112504700D02*
X53080000Y-113630000D01*
X54205300Y-107175100D02*
X54205300Y-112504700D01*
%TO.N,/DUART/TXA*%
X64372100Y-122382100D02*
X69396500Y-122382100D01*
X69396500Y-122382100D02*
X93342500Y-98436100D01*
X93342500Y-98436100D02*
X93342500Y-84262500D01*
X63240000Y-121250000D02*
X64372100Y-122382100D01*
X93342500Y-84262500D02*
X93080000Y-84000000D01*
%TO.N,/DUART/RXA*%
X86282300Y-88257700D02*
X86282300Y-93023100D01*
X86282300Y-93023100D02*
X90784300Y-97525100D01*
X90540000Y-84000000D02*
X86282300Y-88257700D01*
X90784300Y-97525100D02*
X90784300Y-98428400D01*
X90784300Y-98428400D02*
X67962700Y-121250000D01*
X67962700Y-121250000D02*
X65780000Y-121250000D01*
%TO.N,/DUART/~{DTRB}*%
X75127100Y-80009800D02*
X80910100Y-80009800D01*
X63000000Y-89000000D02*
X66136900Y-89000000D01*
X144350000Y-82730000D02*
X145620000Y-84000000D01*
X144350000Y-81041400D02*
X144350000Y-82730000D01*
X81201100Y-79718800D02*
X143027400Y-79718800D01*
X66136900Y-89000000D02*
X75127100Y-80009800D01*
X80910100Y-80009800D02*
X81201100Y-79718800D01*
X143027400Y-79718800D02*
X144350000Y-81041400D01*
%TO.N,/DUART/TXB*%
X143080000Y-84000000D02*
X141889400Y-82809400D01*
X127580500Y-90713200D02*
X117776800Y-90713200D01*
X135484300Y-82809400D02*
X127580500Y-90713200D01*
X141889400Y-82809400D02*
X135484300Y-82809400D01*
X117776800Y-90713200D02*
X63240000Y-145250000D01*
%TO.N,/DUART/RXB*%
X118240200Y-91350000D02*
X127580600Y-91350000D01*
X65780000Y-145250000D02*
X65780000Y-143810200D01*
X138273600Y-86266400D02*
X140540000Y-84000000D01*
X127580600Y-91350000D02*
X132664200Y-86266400D01*
X65780000Y-143810200D02*
X118240200Y-91350000D01*
X132664200Y-86266400D02*
X138273600Y-86266400D01*
%TO.N,/parallel/~{SEL}*%
X105263400Y-121336100D02*
X104055000Y-122544500D01*
X100245000Y-133010000D02*
X100245000Y-130550000D01*
X165810000Y-97423200D02*
X165810000Y-88548000D01*
X168350000Y-82730000D02*
X169620000Y-81460000D01*
X121165000Y-122930000D02*
X119571100Y-121336100D01*
X104055000Y-122544500D02*
X104055000Y-126740000D01*
X168350000Y-86008000D02*
X168350000Y-82730000D01*
X119571100Y-121336100D02*
X105263400Y-121336100D01*
X165810000Y-88548000D02*
X168350000Y-86008000D01*
X155015800Y-109198200D02*
X159434800Y-104779200D01*
X102785000Y-135550000D02*
X100245000Y-133010000D01*
X159434800Y-103798400D02*
X165810000Y-97423200D01*
X159434800Y-104779200D02*
X159434800Y-103798400D01*
X104055000Y-126740000D02*
X100245000Y-130550000D01*
%TO.N,/parallel/P-RESET*%
X146936000Y-170796700D02*
X146936000Y-144921500D01*
X149889500Y-180611700D02*
X148134500Y-178856700D01*
X145167300Y-143152800D02*
X145167300Y-136830700D01*
X153583200Y-109994000D02*
X153583200Y-109605100D01*
X148134500Y-178856700D02*
X148134500Y-171995200D01*
X162088300Y-180611700D02*
X149889500Y-180611700D01*
X162971700Y-99579500D02*
X162971700Y-90749400D01*
X165810000Y-82730000D02*
X167080000Y-81460000D01*
X145167300Y-136830700D02*
X135501600Y-127165000D01*
X158984500Y-104203800D02*
X158984500Y-103566700D01*
X158984500Y-103566700D02*
X162971700Y-99579500D01*
X146936000Y-144921500D02*
X145167300Y-143152800D01*
X148134500Y-171995200D02*
X146936000Y-170796700D01*
X163700000Y-179000000D02*
X162088300Y-180611700D01*
X99095600Y-126619400D02*
X102785000Y-122930000D01*
X100245000Y-135550000D02*
X99095600Y-134400600D01*
X162971700Y-90749400D02*
X165810000Y-87911100D01*
X153583200Y-109605100D02*
X158984500Y-104203800D01*
X99095600Y-134400600D02*
X99095600Y-126619400D01*
X165810000Y-87911100D02*
X165810000Y-82730000D01*
%TO.N,/parallel/ERROR*%
X149062400Y-128368700D02*
X145909400Y-131521700D01*
X128405000Y-163550000D02*
X127214400Y-162359400D01*
X127214400Y-146593500D02*
X128607700Y-145200200D01*
X164540000Y-81460000D02*
X163364600Y-82635400D01*
X157808200Y-90366800D02*
X157808200Y-104016200D01*
X163364600Y-82635400D02*
X163364600Y-84810400D01*
X149062400Y-112762000D02*
X149062400Y-128368700D01*
X127214400Y-162359400D02*
X127214400Y-146593500D01*
X163364600Y-84810400D02*
X157808200Y-90366800D01*
X157808200Y-104016200D02*
X149062400Y-112762000D01*
%TO.N,/parallel/~{LINEFEED}*%
X156140100Y-87319900D02*
X162000000Y-81460000D01*
X156140100Y-104476200D02*
X156140100Y-87319900D01*
X101608700Y-133144000D02*
X101608700Y-130116700D01*
X107865000Y-123860400D02*
X107865000Y-122930000D01*
X149823400Y-110792900D02*
X156140100Y-104476200D01*
X101608700Y-130116700D02*
X107865000Y-123860400D01*
%TO.N,/parallel/SELECT*%
X186239800Y-154997900D02*
X185307700Y-155930000D01*
X189422300Y-87057700D02*
X189422300Y-97555300D01*
X185125400Y-138566000D02*
X186239800Y-139680400D01*
X185125400Y-133837300D02*
X185125400Y-138566000D01*
X192480000Y-84000000D02*
X189422300Y-87057700D01*
X189422300Y-97555300D02*
X181645000Y-105332600D01*
X177837600Y-111673800D02*
X177837600Y-126549500D01*
X186239800Y-139680400D02*
X186239800Y-154997900D01*
X181645000Y-107866400D02*
X177837600Y-111673800D01*
X177837600Y-126549500D02*
X185125400Y-133837300D01*
X181645000Y-105332600D02*
X181645000Y-107866400D01*
%TO.N,/parallel/PAPEROUT*%
X182146000Y-131527800D02*
X182146000Y-137345800D01*
X177387200Y-126769000D02*
X182146000Y-131527800D01*
X189940000Y-84000000D02*
X186753400Y-87186600D01*
X186753400Y-99587300D02*
X180969600Y-105371100D01*
X180969600Y-105371100D02*
X180969600Y-107904900D01*
X185148100Y-150514000D02*
X184782000Y-150880100D01*
X180969600Y-107904900D02*
X177387200Y-111487300D01*
X182146000Y-137345800D02*
X185148100Y-140347900D01*
X184782000Y-154634900D02*
X184951600Y-154804500D01*
X184782000Y-150880100D02*
X184782000Y-154634900D01*
X185148100Y-140347900D02*
X185148100Y-150514000D01*
X177387200Y-111487300D02*
X177387200Y-126769000D01*
X186753400Y-87186600D02*
X186753400Y-99587300D01*
%TO.N,/parallel/~{BUSY}*%
X107978900Y-111025800D02*
X109918700Y-111025800D01*
X109918700Y-111025800D02*
X127961000Y-92983500D01*
X96514700Y-125342800D02*
X96514700Y-122490000D01*
X96514700Y-122490000D02*
X107978900Y-111025800D01*
X92625000Y-130550000D02*
X92625000Y-129232500D01*
X92625000Y-129232500D02*
X96514700Y-125342800D01*
%TO.N,bRESET*%
X103211300Y-144393300D02*
X103211300Y-143631800D01*
X89420000Y-190950000D02*
X89420000Y-189791600D01*
X116482000Y-140313000D02*
X116482000Y-140535100D01*
X98310000Y-180901600D02*
X98310000Y-177992300D01*
X102477100Y-145127500D02*
X103211300Y-144393300D01*
X99556400Y-177213400D02*
X103040700Y-173729100D01*
X103040700Y-146494300D02*
X102477100Y-145930700D01*
X229293800Y-182669600D02*
X229293800Y-141210000D01*
X103040700Y-173729100D02*
X103040700Y-146494300D01*
X89420000Y-189791600D02*
X98310000Y-180901600D01*
X102477100Y-145930700D02*
X102477100Y-145127500D01*
X99088900Y-177213400D02*
X99556400Y-177213400D01*
X98310000Y-177992300D02*
X99088900Y-177213400D01*
X126245000Y-130550000D02*
X116482000Y-140313000D01*
X229293800Y-141210000D02*
X220448600Y-132364800D01*
D34*
%TO.N,/DUART/GND_UART*%
X68384300Y-163678500D02*
X78474700Y-173768900D01*
X78474700Y-173768900D02*
X78474700Y-176734300D01*
X83800400Y-182060000D02*
X85610000Y-182060000D01*
X64250000Y-150850000D02*
X68384300Y-154984300D01*
X85610000Y-182060000D02*
X86880000Y-183330000D01*
X78474700Y-176734300D02*
X83800400Y-182060000D01*
X68384300Y-154984300D02*
X68384300Y-163678500D01*
D32*
%TO.N,/DUART/INTB*%
X43690000Y-158883400D02*
X52456600Y-167650000D01*
X43690000Y-155650000D02*
X43690000Y-158883400D01*
X52456600Y-167650000D02*
X52830000Y-167650000D01*
%TO.N,/DUART/INTA*%
X59056200Y-166503800D02*
X59056200Y-156516200D01*
X57910000Y-167650000D02*
X59056200Y-166503800D01*
X59056200Y-156516200D02*
X58190000Y-155650000D01*
%TO.N,ONE*%
X197787600Y-168417600D02*
X197880000Y-168510000D01*
X197787600Y-162862400D02*
X197787600Y-168417600D01*
X197850000Y-162800000D02*
X197787600Y-162862400D01*
%TO.N,ZERO*%
X174080000Y-196460000D02*
X171540000Y-196460000D01*
X97132400Y-195051800D02*
X95770100Y-193689500D01*
X154065300Y-187874600D02*
X156002400Y-187874600D01*
X141050000Y-188598100D02*
X140311200Y-187859300D01*
X160080000Y-196460000D02*
X162620000Y-196460000D01*
X126607000Y-187859300D02*
X125809800Y-188656500D01*
X150000000Y-197150000D02*
X149162900Y-197987100D01*
X110625000Y-149550000D02*
X111750400Y-150675400D01*
X123397200Y-196117500D02*
X123397200Y-203871900D01*
X125809800Y-193704900D02*
X123397200Y-196117500D01*
X94059400Y-192445000D02*
X93230000Y-193274400D01*
X149162900Y-197987100D02*
X149162900Y-198703700D01*
X149637100Y-199177900D02*
X150566100Y-199177900D01*
X161454000Y-187874800D02*
X161453800Y-187874600D01*
X140311200Y-187859300D02*
X126607000Y-187859300D01*
X93230000Y-194123100D02*
X82540000Y-204813100D01*
X149162900Y-198703700D02*
X149637100Y-199177900D01*
X161453800Y-187874600D02*
X156537600Y-187874600D01*
X176620000Y-196460000D02*
X174080000Y-196460000D01*
X150000000Y-196281800D02*
X144260600Y-190542400D01*
X152065700Y-189874200D02*
X154065300Y-187874600D01*
X113144800Y-172474300D02*
X113144800Y-188872800D01*
X125809800Y-188656500D02*
X125809800Y-193704900D01*
X94992300Y-192445000D02*
X94059400Y-192445000D01*
X141050000Y-189321700D02*
X141050000Y-188598100D01*
X173846000Y-174881900D02*
X173846000Y-173600100D01*
X111750400Y-171079900D02*
X113144800Y-172474300D01*
X157540000Y-196460000D02*
X160080000Y-196460000D01*
X106965800Y-195051800D02*
X97132400Y-195051800D01*
X152065700Y-197678300D02*
X152065700Y-189874200D01*
X201923500Y-170013500D02*
X201923500Y-155913500D01*
X144260600Y-190542400D02*
X142270700Y-190542400D01*
X150000000Y-197150000D02*
X150000000Y-196281800D01*
X150566100Y-199177900D02*
X152065700Y-197678300D01*
X142270700Y-190542400D02*
X141050000Y-189321700D01*
X156270000Y-195190000D02*
X157540000Y-196460000D01*
X169000000Y-196460000D02*
X168452000Y-196460000D01*
X202960000Y-171050000D02*
X201923500Y-170013500D01*
X113144800Y-188872800D02*
X106965800Y-195051800D01*
X201923500Y-155913500D02*
X197635000Y-151625000D01*
X168452000Y-196460000D02*
X161454000Y-189462000D01*
X170050000Y-179328100D02*
X170050000Y-178677900D01*
X156537600Y-187874600D02*
X156270000Y-188142200D01*
X161503300Y-187874800D02*
X170050000Y-179328100D01*
X95770100Y-193689500D02*
X95770100Y-193222800D01*
X95770100Y-193222800D02*
X94992300Y-192445000D01*
X124540000Y-211460000D02*
X122000000Y-214000000D01*
X161454000Y-189462000D02*
X161454000Y-187874800D01*
X155000000Y-196460000D02*
X156270000Y-195190000D01*
X156270000Y-188142200D02*
X156270000Y-195190000D01*
X123397200Y-203871900D02*
X124540000Y-205014700D01*
X82540000Y-204813100D02*
X82540000Y-206380000D01*
X161454000Y-187874800D02*
X161503300Y-187874800D01*
X156002400Y-187874600D02*
X156270000Y-188142200D01*
X124540000Y-205014700D02*
X124540000Y-206380000D01*
X93230000Y-193274400D02*
X93230000Y-194123100D01*
X170050000Y-178677900D02*
X173846000Y-174881900D01*
X124540000Y-206380000D02*
X124540000Y-211460000D01*
X111750400Y-150675400D02*
X111750400Y-171079900D01*
%TO.N,/USB-SD/RST*%
X185000000Y-107500000D02*
X182946900Y-109553100D01*
X190015000Y-137976600D02*
X190015000Y-151625000D01*
X187125400Y-128826300D02*
X187125400Y-132981100D01*
X182946900Y-109553100D02*
X182946900Y-124647800D01*
X188600400Y-134456100D02*
X188600400Y-136562000D01*
X187125400Y-132981100D02*
X188600400Y-134456100D01*
X188600400Y-136562000D02*
X190015000Y-137976600D01*
X182946900Y-124647800D02*
X187125400Y-128826300D01*
%TO.N,bD6*%
X85515000Y-152912700D02*
X85515000Y-148731900D01*
X87910300Y-155308000D02*
X85515000Y-152912700D01*
X85515000Y-148731900D02*
X84245000Y-147461900D01*
X209195600Y-126424400D02*
X209195600Y-163932900D01*
X86785000Y-163550000D02*
X87910300Y-162424700D01*
X219329200Y-185152700D02*
X219018600Y-185463300D01*
X236950000Y-196670000D02*
X236950000Y-198750000D01*
X85387900Y-176757900D02*
X85387900Y-164947100D01*
X212620000Y-123000000D02*
X209195600Y-126424400D01*
X85387900Y-164947100D02*
X86785000Y-163550000D01*
X236950000Y-198750000D02*
X229320000Y-206380000D01*
X162761100Y-177398900D02*
X170303100Y-177398900D01*
X86880000Y-178250000D02*
X85387900Y-176757900D01*
X122183200Y-162151800D02*
X122183200Y-145868200D01*
X84245000Y-147461900D02*
X84245000Y-141930000D01*
X87910300Y-162424700D02*
X87910300Y-155308000D01*
X209195600Y-163932900D02*
X219329200Y-174066500D01*
X122183200Y-145868200D02*
X118245000Y-141930000D01*
X120785000Y-163550000D02*
X122183200Y-162151800D01*
X161160000Y-179000000D02*
X162761100Y-177398900D01*
X219329200Y-174066500D02*
X219329200Y-185152700D01*
%TO.N,bD5*%
X233825700Y-121247100D02*
X233825700Y-193545700D01*
X87295800Y-179314100D02*
X85404100Y-179314100D01*
X235585400Y-195305400D02*
X235585400Y-197574600D01*
X235585400Y-197574600D02*
X226780000Y-206380000D01*
X85838300Y-176134200D02*
X86598900Y-176894800D01*
X232206300Y-118666900D02*
X232206300Y-119627700D01*
X124731700Y-162416700D02*
X124731700Y-143063300D01*
X124731700Y-143063300D02*
X125865000Y-141930000D01*
X87933100Y-177817100D02*
X87933100Y-178676800D01*
X85838300Y-169576700D02*
X85838300Y-176134200D01*
X201931700Y-188390200D02*
X201456600Y-187915100D01*
X201456600Y-187915100D02*
X201456600Y-185806100D01*
X125865000Y-163550000D02*
X124731700Y-162416700D01*
X199150000Y-185020000D02*
X197880000Y-183750000D01*
X201456600Y-185806100D02*
X200670500Y-185020000D01*
X87933100Y-178676800D02*
X87295800Y-179314100D01*
X232206300Y-119627700D02*
X233825700Y-121247100D01*
X233825700Y-193545700D02*
X234410000Y-194130000D01*
X86598900Y-176894800D02*
X87010800Y-176894800D01*
X234410000Y-194130000D02*
X235585400Y-195305400D01*
X91865000Y-163550000D02*
X85838300Y-169576700D01*
X85404100Y-179314100D02*
X84340000Y-178250000D01*
X200670500Y-185020000D02*
X199150000Y-185020000D01*
X87010800Y-176894800D02*
X87933100Y-177817100D01*
%TO.N,bD4*%
X224240000Y-206380000D02*
X233950000Y-196670000D01*
X217670000Y-200116900D02*
X220519800Y-197267100D01*
X93072200Y-169517800D02*
X93072200Y-167422800D01*
X219518600Y-187509800D02*
X219518600Y-186000200D01*
X95710700Y-143235700D02*
X95710700Y-162315700D01*
X219815300Y-172460900D02*
X210873800Y-163519400D01*
X219815300Y-185703500D02*
X219815300Y-172460900D01*
X219172800Y-202981200D02*
X217670000Y-201478400D01*
X206873100Y-194631100D02*
X206083300Y-194631100D01*
X210873800Y-163519400D02*
X210873800Y-154034300D01*
X93072200Y-167422800D02*
X96945000Y-163550000D01*
X214145000Y-146571400D02*
X214145000Y-131475000D01*
X86880000Y-175710000D02*
X93072200Y-169517800D01*
X94405000Y-141930000D02*
X95710700Y-143235700D01*
X204970000Y-193517800D02*
X204970000Y-192795700D01*
X219518600Y-186000200D02*
X219815300Y-185703500D01*
X220519800Y-197267100D02*
X220519800Y-188511000D01*
X217670000Y-201478400D02*
X217273000Y-201875400D01*
X233950000Y-196670000D02*
X234410000Y-196670000D01*
X220519800Y-188511000D02*
X219518600Y-187509800D01*
X212590000Y-201077500D02*
X212590000Y-200348000D01*
X95710700Y-162315700D02*
X96945000Y-163550000D01*
X214145000Y-131475000D02*
X222620000Y-123000000D01*
X217273000Y-201875400D02*
X213387900Y-201875400D01*
X198464300Y-186290000D02*
X197880000Y-186290000D01*
X210873800Y-154034300D02*
X211749600Y-153158500D01*
X204970000Y-192795700D02*
X198464300Y-186290000D01*
X206083300Y-194631100D02*
X204970000Y-193517800D01*
X211749600Y-153158500D02*
X211749600Y-148966800D01*
X213387900Y-201875400D02*
X212590000Y-201077500D01*
X217670000Y-201478400D02*
X217670000Y-200116900D01*
X212590000Y-200348000D02*
X206873100Y-194631100D01*
X211749600Y-148966800D02*
X214145000Y-146571400D01*
%TO.N,bD3*%
X207510000Y-200362100D02*
X202337400Y-195189500D01*
X90690000Y-173800200D02*
X90690000Y-176980000D01*
X201571700Y-195189500D02*
X199890000Y-193507800D01*
X180057000Y-176178100D02*
X180057000Y-175945300D01*
X98075800Y-164082600D02*
X93857900Y-168300500D01*
X207510000Y-201099600D02*
X207510000Y-200362100D01*
X212810000Y-206057400D02*
X208878500Y-202125900D01*
X98075800Y-157060800D02*
X98075800Y-164082600D01*
X199890000Y-191344900D02*
X195340000Y-186794900D01*
X90690000Y-176980000D02*
X89420000Y-178250000D01*
X174348200Y-170236500D02*
X172463500Y-170236500D01*
X93857900Y-170632300D02*
X90690000Y-173800200D01*
X130945000Y-155930000D02*
X128405000Y-153390000D01*
X231474600Y-128763000D02*
X231474600Y-118145400D01*
X220118000Y-207962000D02*
X214028200Y-207962000D01*
X128405000Y-153390000D02*
X128405000Y-149550000D01*
X231870000Y-129158400D02*
X231474600Y-128763000D01*
X93857900Y-168300500D02*
X93857900Y-170632300D01*
X96945000Y-155930000D02*
X98075800Y-157060800D01*
X195340000Y-186794900D02*
X195340000Y-183750000D01*
X180057000Y-175945300D02*
X174348200Y-170236500D01*
X221700000Y-206380000D02*
X220118000Y-207962000D01*
X208878500Y-202125900D02*
X208536300Y-202125900D01*
X212810000Y-206743800D02*
X212810000Y-206057400D01*
X231474600Y-118145400D02*
X232620000Y-117000000D01*
X199890000Y-193507800D02*
X199890000Y-191344900D01*
X202337400Y-195189500D02*
X201571700Y-195189500D01*
X231870000Y-194130000D02*
X231870000Y-129158400D01*
X172463500Y-170236500D02*
X171320000Y-171380000D01*
X208536300Y-202125900D02*
X207510000Y-201099600D01*
X214028200Y-207962000D02*
X212810000Y-206743800D01*
%TO.N,bD2*%
X219160000Y-206380000D02*
X221716300Y-203823700D01*
X231870000Y-196670000D02*
X233055600Y-195484400D01*
X92991100Y-166694200D02*
X89420000Y-170265300D01*
X233055600Y-180327100D02*
X232896300Y-180167800D01*
X89420000Y-170265300D02*
X89420000Y-172118000D01*
X233055600Y-195484400D02*
X233055600Y-180327100D01*
X225441400Y-203823700D02*
X231870000Y-197395100D01*
X91865000Y-149550000D02*
X91865000Y-155930000D01*
X231870000Y-197395100D02*
X231870000Y-196670000D01*
X92991100Y-157692900D02*
X92991100Y-166694200D01*
X91865000Y-155930000D02*
X91865000Y-156566800D01*
X91865000Y-156566800D02*
X92991100Y-157692900D01*
X232896300Y-180167800D02*
X232896300Y-123276300D01*
X221716300Y-203823700D02*
X225441400Y-203823700D01*
X232896300Y-123276300D02*
X232620000Y-123000000D01*
X125865000Y-155930000D02*
X125865000Y-149550000D01*
%TO.N,bD1*%
X85659600Y-157055400D02*
X85659600Y-163727000D01*
X85659600Y-163727000D02*
X84653200Y-164733400D01*
X196636200Y-182506200D02*
X196636200Y-186538500D01*
X210194700Y-201216200D02*
X213640000Y-204661500D01*
X210194700Y-200522300D02*
X210194700Y-201216200D01*
X229049800Y-194130000D02*
X229330000Y-194130000D01*
X84245000Y-149550000D02*
X84245000Y-153390000D01*
X195340000Y-181210000D02*
X196636200Y-182506200D01*
X216620000Y-206380000D02*
X216799800Y-206380000D01*
X202430000Y-193457000D02*
X208224700Y-199251700D01*
X118245000Y-153390000D02*
X118245000Y-149550000D01*
X196636200Y-186538500D02*
X202430000Y-192332300D01*
X230042100Y-135577900D02*
X230042100Y-193417900D01*
X86785000Y-155930000D02*
X85659600Y-157055400D01*
X216799800Y-206380000D02*
X229049800Y-194130000D01*
X214901500Y-204661500D02*
X216620000Y-206380000D01*
X208924100Y-199251700D02*
X210194700Y-200522300D01*
X208224700Y-199251700D02*
X208924100Y-199251700D01*
X230434900Y-135185100D02*
X230042100Y-135577900D01*
X120785000Y-155930000D02*
X118245000Y-153390000D01*
X213640000Y-204661500D02*
X214901500Y-204661500D01*
X230042100Y-193417900D02*
X229330000Y-194130000D01*
X202430000Y-192332300D02*
X202430000Y-193457000D01*
X84653200Y-164733400D02*
X84653200Y-176181300D01*
X84245000Y-153390000D02*
X86785000Y-155930000D01*
%TO.N,bD0*%
X229330000Y-196670000D02*
X230505400Y-195494600D01*
X230505400Y-195494600D02*
X230505400Y-179962800D01*
X101192600Y-160399000D02*
X100509600Y-159716000D01*
X229330000Y-196670000D02*
X227278400Y-196670000D01*
X91960000Y-175710000D02*
X93033400Y-174636600D01*
X231193200Y-129507400D02*
X230794100Y-129108300D01*
X215211600Y-207511600D02*
X214080000Y-206380000D01*
X93033400Y-174636600D02*
X95728000Y-174636600D01*
X101192600Y-169172000D02*
X101192600Y-160399000D01*
X217890000Y-206711600D02*
X217090000Y-207511600D01*
X81705000Y-155930000D02*
X81705000Y-149550000D01*
X95728000Y-174636600D02*
X101192600Y-169172000D01*
X230505400Y-179962800D02*
X230767400Y-179700800D01*
X230767400Y-179700800D02*
X231193200Y-179275000D01*
X196436100Y-180113900D02*
X196436100Y-180448100D01*
X115705000Y-155930000D02*
X115705000Y-149550000D01*
X231193200Y-179275000D02*
X231193200Y-129507400D01*
X217090000Y-207511600D02*
X215211600Y-207511600D01*
X217890000Y-206058400D02*
X217890000Y-206711600D01*
X197880000Y-178670000D02*
X196436100Y-180113900D01*
X227278400Y-196670000D02*
X217890000Y-206058400D01*
%TO.N,~{CS_US}*%
X244570000Y-135050000D02*
X262620000Y-117000000D01*
X244570000Y-194130000D02*
X244570000Y-135050000D01*
%TO.N,~{bWR}*%
X245745400Y-194655600D02*
X245094100Y-195306900D01*
X197205300Y-189762300D02*
X194293800Y-186850800D01*
X194293800Y-186850800D02*
X194293800Y-177176200D01*
X194293800Y-177176200D02*
X195340000Y-176130000D01*
X197205300Y-199624700D02*
X197205300Y-189762300D01*
X245745400Y-177090700D02*
X245745400Y-194655600D01*
X245745400Y-177090700D02*
X245439800Y-177090700D01*
X245094100Y-195306900D02*
X243206900Y-195306900D01*
X196080000Y-200750000D02*
X197205300Y-199624700D01*
X262620000Y-123000000D02*
X245745400Y-139874600D01*
X243206900Y-195306900D02*
X242030000Y-194130000D01*
X245745400Y-139874600D02*
X245745400Y-177090700D01*
%TO.N,~{bRD}*%
X242030000Y-198446100D02*
X242030000Y-196670000D01*
X193540000Y-200750000D02*
X197838500Y-205048500D01*
X231563200Y-208912900D02*
X242030000Y-198446100D01*
X195340000Y-173590000D02*
X192390600Y-176539400D01*
X83889400Y-212809400D02*
X85080000Y-214000000D01*
X240853700Y-137081700D02*
X240853700Y-195493700D01*
X192390600Y-199600600D02*
X193540000Y-200750000D01*
X94500000Y-193490000D02*
X83889400Y-204100600D01*
X253758200Y-124177200D02*
X240853700Y-137081700D01*
X240853700Y-195493700D02*
X242030000Y-196670000D01*
X207877400Y-208912900D02*
X231563200Y-208912900D01*
X204013000Y-205048500D02*
X207877400Y-208912900D01*
X192390600Y-176539400D02*
X192390600Y-199600600D01*
X253758200Y-122395100D02*
X253758200Y-124177200D01*
X197838500Y-205048500D02*
X204013000Y-205048500D01*
X252620000Y-121256900D02*
X253758200Y-122395100D01*
X83889400Y-204100600D02*
X83889400Y-212809400D01*
X252620000Y-117000000D02*
X252620000Y-121256900D01*
%TO.N,bA0*%
X252620000Y-123000000D02*
X239490000Y-136130000D01*
X127080000Y-204661600D02*
X125810000Y-203391600D01*
X125810000Y-203391600D02*
X125810000Y-198581300D01*
X193808100Y-188745800D02*
X193808100Y-176186100D01*
X195658800Y-201920600D02*
X194810000Y-201071800D01*
X194810000Y-189747700D02*
X193808100Y-188745800D01*
X208610300Y-208412400D02*
X202230800Y-202032900D01*
X239490000Y-194130000D02*
X239490000Y-194766900D01*
X231426800Y-208412400D02*
X208610300Y-208412400D01*
X127080000Y-206380000D02*
X127080000Y-204661600D01*
X197449400Y-201920600D02*
X195658800Y-201920600D01*
X240672700Y-199166500D02*
X231426800Y-208412400D01*
X195134200Y-174860000D02*
X196610000Y-174860000D01*
X239490000Y-194766900D02*
X240672700Y-195949600D01*
X239490000Y-136130000D02*
X239490000Y-194130000D01*
X240672700Y-195949600D02*
X240672700Y-199166500D01*
X196610000Y-174860000D02*
X197880000Y-173590000D01*
X202230800Y-202032900D02*
X199902900Y-202032900D01*
X193808100Y-176186100D02*
X195134200Y-174860000D01*
X125810000Y-198581300D02*
X124394400Y-197165700D01*
X198620000Y-200750000D02*
X197449400Y-201920600D01*
X199902900Y-202032900D02*
X198620000Y-200750000D01*
X194810000Y-201071800D02*
X194810000Y-189747700D01*
%TO.N,bD7*%
X114531800Y-146684600D02*
X114913100Y-146303300D01*
X238132700Y-195949600D02*
X236950000Y-194766900D01*
X238132700Y-200107300D02*
X238132700Y-195949600D01*
X115705000Y-163550000D02*
X114531800Y-162376800D01*
X156080000Y-174478000D02*
X156261600Y-174296400D01*
X236950000Y-194130000D02*
X236153100Y-193333100D01*
X81705000Y-178155000D02*
X84340000Y-180790000D01*
X236153100Y-193333100D02*
X236153100Y-121275100D01*
X236153100Y-121275100D02*
X234707500Y-119829500D01*
X236950000Y-194766900D02*
X236950000Y-194130000D01*
X156080000Y-179000000D02*
X156080000Y-174478000D01*
X81705000Y-163550000D02*
X81705000Y-178155000D01*
X231860000Y-206380000D02*
X238132700Y-200107300D01*
X114531800Y-162376800D02*
X114531800Y-146684600D01*
%TO.N,/USB-SD/~{INT-USB}*%
X239490000Y-196670000D02*
X238220000Y-195400000D01*
X178608200Y-126683200D02*
X178608200Y-125441000D01*
X238220000Y-142470200D02*
X238220000Y-174030000D01*
X238220000Y-174030000D02*
X238250000Y-174060000D01*
X238220100Y-142470100D02*
X238220000Y-142470200D01*
X238220000Y-195400000D02*
X238220000Y-176249000D01*
X238250000Y-174060000D02*
X238250000Y-176219000D01*
X187475000Y-151625000D02*
X187475000Y-139981800D01*
X185643000Y-133718000D02*
X178608200Y-126683200D01*
X238220000Y-176249000D02*
X238250000Y-176219000D01*
X187475000Y-139981800D02*
X185643000Y-138149800D01*
X185643000Y-138149800D02*
X185643000Y-133718000D01*
%TO.N,/parallel/BUSY*%
X115213600Y-145578000D02*
X112681400Y-145578000D01*
X116830400Y-147194800D02*
X115213600Y-145578000D01*
X105325000Y-138221600D02*
X105325000Y-135550000D01*
X118245000Y-155930000D02*
X116830400Y-154515400D01*
X116830400Y-154515400D02*
X116830400Y-147194800D01*
X112681400Y-145578000D02*
X105325000Y-138221600D01*
%TO.N,/kbdmse/PROG*%
X228300000Y-146050000D02*
X219369600Y-137119600D01*
X220265700Y-186290000D02*
X220265700Y-172734300D01*
X220265700Y-172734300D02*
X228300000Y-164700000D01*
X219369600Y-135813200D02*
X218106400Y-134550000D01*
X218106400Y-134550000D02*
X218106400Y-132133900D01*
X219369600Y-137119600D02*
X219369600Y-135813200D01*
X228300000Y-164700000D02*
X228300000Y-146050000D01*
%TO.N,/kbdmse/KBDDAT*%
X228750000Y-173688500D02*
X221319300Y-181119200D01*
X189160000Y-120000000D02*
X187413800Y-121746200D01*
X219723200Y-133353900D02*
X228750000Y-142380700D01*
X188540000Y-127874400D02*
X188540000Y-132000000D01*
X220403500Y-130960500D02*
X219723200Y-131640800D01*
X187413800Y-126748200D02*
X188540000Y-127874400D01*
X228750000Y-142380700D02*
X228750000Y-173688500D01*
X219723200Y-131640800D02*
X219723200Y-133353900D01*
X187413800Y-121746200D02*
X187413800Y-126748200D01*
%TO.N,/kbdmse/MSEDAT*%
X204129700Y-152091200D02*
X204129700Y-149811500D01*
X197000000Y-89000000D02*
X194635900Y-91364100D01*
X210305200Y-177633400D02*
X208371200Y-175699400D01*
X197000000Y-102540000D02*
X197000000Y-109714900D01*
X208371200Y-175699400D02*
X208258800Y-175699400D01*
X191353200Y-115361700D02*
X191258300Y-115361700D01*
X211063900Y-177633400D02*
X210305200Y-177633400D01*
X201445000Y-134745000D02*
X198700000Y-132000000D01*
X208258800Y-175699400D02*
X204450800Y-171891400D01*
X194635900Y-91364100D02*
X194635900Y-95976800D01*
X199881400Y-130818600D02*
X199881400Y-123927300D01*
X195510000Y-119518500D02*
X191353200Y-115361700D01*
X197738000Y-122598200D02*
X195510000Y-120370200D01*
X213120000Y-181210000D02*
X211850000Y-179940000D01*
X198552300Y-122598200D02*
X197738000Y-122598200D01*
X204450800Y-171891400D02*
X204450800Y-152412300D01*
X197000000Y-109714900D02*
X191353200Y-115361700D01*
X211850000Y-178419500D02*
X211063900Y-177633400D01*
X201445000Y-147126800D02*
X201445000Y-134745000D01*
X195510000Y-120370200D02*
X195510000Y-119518500D01*
X199881400Y-123927300D02*
X198552300Y-122598200D01*
X198700000Y-132000000D02*
X199881400Y-130818600D01*
X211850000Y-179940000D02*
X211850000Y-178419500D01*
X191258300Y-115361700D02*
X186620000Y-120000000D01*
X204129700Y-149811500D02*
X201445000Y-147126800D01*
X204450800Y-152412300D02*
X204129700Y-152091200D01*
%TO.N,/kbdmse/KBDCLK*%
X188648900Y-118846700D02*
X189598300Y-118846700D01*
X206000000Y-84000000D02*
X200515700Y-89484300D01*
X200515700Y-89484300D02*
X200515700Y-93317600D01*
X189598300Y-118846700D02*
X190430000Y-119678400D01*
X193620000Y-126180400D02*
X193620000Y-132000000D01*
X198599300Y-144099900D02*
X198599300Y-147818500D01*
X196365000Y-134745000D02*
X196365000Y-141865600D01*
X193315500Y-100517800D02*
X193315500Y-110764500D01*
X187081200Y-121130400D02*
X187890000Y-120321600D01*
X196365000Y-141865600D02*
X198599300Y-144099900D01*
X184551500Y-119528500D02*
X186153300Y-121130400D01*
X198970000Y-152323100D02*
X202960000Y-156313100D01*
X186153300Y-121130400D02*
X187081200Y-121130400D01*
X187890000Y-120321600D02*
X187890000Y-119605600D01*
X192205400Y-122453600D02*
X192205400Y-124765800D01*
X193315500Y-110764500D02*
X184551500Y-119528500D01*
X198599300Y-147818500D02*
X198970000Y-148189200D01*
X192205400Y-124765800D02*
X193620000Y-126180400D01*
X190430000Y-119678400D02*
X190430000Y-120678200D01*
X198970000Y-148189200D02*
X198970000Y-152323100D01*
X190430000Y-120678200D02*
X192205400Y-122453600D01*
X202960000Y-156313100D02*
X202960000Y-168510000D01*
X184551500Y-119528500D02*
X184080000Y-120000000D01*
X200515700Y-93317600D02*
X193315500Y-100517800D01*
X193620000Y-132000000D02*
X196365000Y-134745000D01*
X187890000Y-119605600D02*
X188648900Y-118846700D01*
%TO.N,/kbdmse/MSECLK*%
X205994600Y-127992700D02*
X205994600Y-128593500D01*
X205994600Y-128593500D02*
X206380400Y-128979300D01*
X205512600Y-161598800D02*
X205512600Y-166926300D01*
X205874600Y-152750400D02*
X205874600Y-161236800D01*
X206380400Y-128979300D02*
X206380400Y-152244600D01*
X204441100Y-89648500D02*
X204441100Y-89648400D01*
X205037000Y-115365100D02*
X206125400Y-116453600D01*
X205037000Y-115365100D02*
X202873100Y-113201300D01*
X204166100Y-90162000D02*
X204166100Y-89923500D01*
X202873100Y-91455000D02*
X204166100Y-90162000D01*
X204166100Y-89923500D02*
X204441100Y-89648500D01*
X201240000Y-119162100D02*
X201240000Y-124380000D01*
X202873100Y-113201300D02*
X202873100Y-91455000D01*
X205874600Y-161236800D02*
X205512600Y-161598800D01*
X205037000Y-115365100D02*
X201240000Y-119162100D01*
X206380400Y-152244600D02*
X205874600Y-152750400D01*
X206125400Y-127861900D02*
X205994600Y-127992700D01*
X206125400Y-116453600D02*
X206125400Y-127861900D01*
%TO.N,/DUART/~{INTA}*%
X56905900Y-184058600D02*
X58115000Y-185267700D01*
X58115000Y-185267700D02*
X58115000Y-186025000D01*
X56905900Y-175049100D02*
X56905900Y-184058600D01*
X60450000Y-171255000D02*
X60575000Y-171380000D01*
X60575000Y-171380000D02*
X56905900Y-175049100D01*
X60450000Y-167650000D02*
X60450000Y-171255000D01*
%TO.N,/DUART/~{INTB}*%
X55370000Y-167650000D02*
X55370000Y-168715000D01*
X55370000Y-168715000D02*
X58035000Y-171380000D01*
X54359900Y-175055100D02*
X58035000Y-171380000D01*
X54359900Y-192809900D02*
X54359900Y-175055100D01*
X55575000Y-194025000D02*
X54359900Y-192809900D01*
%TO.N,~{bRESET}*%
X87662300Y-203797700D02*
X85080000Y-206380000D01*
X131522800Y-181325900D02*
X125289300Y-181325900D01*
X133360100Y-129385100D02*
X134346100Y-129385100D01*
X125289300Y-181325900D02*
X123350000Y-179386600D01*
X129286800Y-129389500D02*
X130055000Y-130157700D01*
X123705000Y-130550000D02*
X124865500Y-129389500D01*
X132595000Y-130871700D02*
X132595000Y-130150200D01*
X134346100Y-129385100D02*
X135151600Y-130190600D01*
X116014900Y-177874600D02*
X115044200Y-178845300D01*
X144731800Y-158984900D02*
X144731800Y-168116900D01*
X98856800Y-203797700D02*
X87662300Y-203797700D01*
X123350000Y-179386600D02*
X123350000Y-178630500D01*
X135151600Y-130190600D02*
X135151600Y-137189400D01*
X130877500Y-131702700D02*
X131764000Y-131702700D01*
X144731800Y-146769600D02*
X144731800Y-158984900D01*
X135151600Y-137189400D02*
X144731800Y-146769600D01*
X130055000Y-130157700D02*
X130055000Y-130880200D01*
X124865500Y-129389500D02*
X129286800Y-129389500D01*
X131764000Y-131702700D02*
X132595000Y-130871700D01*
X115044200Y-178845300D02*
X115044200Y-187610300D01*
X130055000Y-130880200D02*
X130877500Y-131702700D01*
X122594100Y-177874600D02*
X116014900Y-177874600D01*
X115044200Y-187610300D02*
X98856800Y-203797700D01*
X123350000Y-178630500D02*
X122594100Y-177874600D01*
X132595000Y-130150200D02*
X133360100Y-129385100D01*
X144731800Y-168116900D02*
X131522800Y-181325900D01*
%TO.N,~{CS_DUART}*%
X98310000Y-193722300D02*
X98310000Y-193239600D01*
X97057000Y-191986600D02*
X91958300Y-191986600D01*
X87916600Y-192453400D02*
X86880000Y-193490000D01*
X98310000Y-193239600D02*
X97057000Y-191986600D01*
X91491500Y-192453400D02*
X87916600Y-192453400D01*
X112318400Y-189062300D02*
X106851100Y-194529600D01*
X112318400Y-188669700D02*
X112318400Y-189062300D01*
X106851100Y-194529600D02*
X99117300Y-194529600D01*
X99117300Y-194529600D02*
X98310000Y-193722300D01*
X91958300Y-191986600D02*
X91491500Y-192453400D01*
%TO.N,~{bM1}*%
X124540000Y-204377800D02*
X125684200Y-205522000D01*
X124540000Y-201000000D02*
X124540000Y-204377800D01*
X125684200Y-205522000D02*
X125684200Y-210772100D01*
X125684200Y-210772100D02*
X125570300Y-210886000D01*
%TO.N,bA7*%
X127080000Y-212575700D02*
X127080000Y-214000000D01*
X128392900Y-211262800D02*
X127080000Y-212575700D01*
X129620000Y-193380000D02*
X128392900Y-194607100D01*
X128392900Y-194607100D02*
X128392900Y-211262800D01*
%TO.N,bA6*%
X132160000Y-214000000D02*
X131034700Y-212874700D01*
X131034700Y-197045300D02*
X134700000Y-193380000D01*
X131034700Y-212874700D02*
X131034700Y-197045300D01*
X168700000Y-206380000D02*
X162205700Y-212874300D01*
X162205700Y-212874300D02*
X153802700Y-212874300D01*
%TO.N,bA5*%
X138510000Y-212730000D02*
X137240000Y-214000000D01*
X138510000Y-194650000D02*
X138510000Y-212730000D01*
X139780000Y-193380000D02*
X138510000Y-194650000D01*
%TO.N,bA4*%
X144860000Y-193380000D02*
X143590000Y-194650000D01*
X143590000Y-207133500D02*
X142320000Y-208403500D01*
X143590000Y-194650000D02*
X143590000Y-207133500D01*
X142320000Y-208403500D02*
X142320000Y-214000000D01*
%TO.N,~{bIORQ}*%
X123218700Y-205559000D02*
X123218700Y-211734000D01*
X122000000Y-204340300D02*
X123218700Y-205559000D01*
X122000000Y-201000000D02*
X122000000Y-204340300D01*
%TO.N,bA1*%
X75943400Y-192784100D02*
X83910400Y-184817100D01*
X83910400Y-184817100D02*
X85827100Y-184817100D01*
X75943400Y-193336000D02*
X75943400Y-192784100D01*
X85827100Y-184817100D02*
X86880000Y-185870000D01*
%TO.N,bA2*%
X137240000Y-206380000D02*
X133379900Y-202519900D01*
%TO.N,bA3*%
X142320000Y-203692500D02*
X140800100Y-202172600D01*
X142320000Y-206380000D02*
X142320000Y-203692500D01*
%TO.N,~{CS_PAR}*%
X50415000Y-171380000D02*
X52955000Y-171380000D01*
%TO.N,~{CS_KM}*%
X196610000Y-172320000D02*
X198083200Y-172320000D01*
X195340000Y-171050000D02*
X196610000Y-172320000D01*
X204043400Y-178280200D02*
X204043400Y-190933400D01*
X204043400Y-190933400D02*
X206240000Y-193130000D01*
X198083200Y-172320000D02*
X204043400Y-178280200D01*
%TO.N,/parallel/~{PDENBL}*%
X163241200Y-172519400D02*
X162430000Y-171708200D01*
X162430000Y-171708200D02*
X162430000Y-164696500D01*
X167640600Y-172519400D02*
X163241200Y-172519400D01*
X168780000Y-171380000D02*
X167640600Y-172519400D01*
X162430000Y-164696500D02*
X150174900Y-152441400D01*
%TO.N,/parallel/~{INT_PAR}*%
X93722800Y-177139300D02*
X93389300Y-177472800D01*
X94536700Y-177139300D02*
X93722800Y-177139300D01*
X83399700Y-184366700D02*
X65766400Y-202000000D01*
X93389300Y-178345600D02*
X87368200Y-184366700D01*
X99869900Y-140711100D02*
X100610500Y-141451700D01*
X87368200Y-184366700D02*
X83399700Y-184366700D01*
X101642900Y-147007200D02*
X101642900Y-169606300D01*
X101642900Y-169606300D02*
X95610700Y-175638500D01*
X94011600Y-136052600D02*
X98670100Y-140711100D01*
X95610700Y-176065300D02*
X94536700Y-177139300D01*
X97705000Y-122930000D02*
X97705000Y-125563100D01*
X93389300Y-177472800D02*
X93389300Y-178345600D01*
X97705000Y-125563100D02*
X94011600Y-129256500D01*
X100610500Y-141451700D02*
X100610500Y-145974800D01*
X65766400Y-202000000D02*
X60780000Y-202000000D01*
X100610500Y-145974800D02*
X101642900Y-147007200D01*
X94011600Y-129256500D02*
X94011600Y-136052600D01*
X98670100Y-140711100D02*
X99869900Y-140711100D01*
X95610700Y-175638500D02*
X95610700Y-176065300D01*
%TO.N,/kbdmse/~{INT_KM}*%
X102093300Y-170110900D02*
X102093300Y-146820700D01*
X97523900Y-176746600D02*
X98310000Y-175960500D01*
X75138300Y-194177700D02*
X76159400Y-194177700D01*
X76748400Y-193096000D02*
X82704400Y-187140000D01*
X68445400Y-202334600D02*
X68445400Y-200870600D01*
X95844100Y-177954300D02*
X97051800Y-176746600D01*
X95844100Y-178795300D02*
X95844100Y-177954300D01*
X87499400Y-187140000D02*
X95844100Y-178795300D01*
X97051800Y-176746600D02*
X97523900Y-176746600D01*
X68445400Y-200870600D02*
X75138300Y-194177700D01*
X98310000Y-175960500D02*
X98310000Y-173894200D01*
X76159400Y-194177700D02*
X76748400Y-193588700D01*
X102093300Y-146820700D02*
X101384200Y-146111600D01*
X76748400Y-193588700D02*
X76748400Y-193096000D01*
X60780000Y-210000000D02*
X68445400Y-202334600D01*
X82704400Y-187140000D02*
X87499400Y-187140000D01*
X101384200Y-146111600D02*
X101384200Y-142417100D01*
X98310000Y-173894200D02*
X102093300Y-170110900D01*
%TO.N,CLK_DUART*%
X132240000Y-170214700D02*
X125785300Y-170214700D01*
X125785300Y-170214700D02*
X124620000Y-171380000D01*
X132240000Y-170214700D02*
X132240000Y-159975800D01*
X113891300Y-179361300D02*
X113891300Y-184383000D01*
X124620000Y-171380000D02*
X118592800Y-177407200D01*
X115845400Y-177407200D02*
X113891300Y-179361300D01*
X118592800Y-177407200D02*
X115845400Y-177407200D01*
X132240000Y-159975800D02*
X134137700Y-158078100D01*
X132240000Y-171380000D02*
X132240000Y-170214700D01*
%TO.N,P24-OB*%
X220069400Y-189881400D02*
X214623400Y-184435400D01*
X220069400Y-197080600D02*
X220069400Y-189881400D01*
X214623400Y-172553400D02*
X213120000Y-171050000D01*
X216400000Y-200750000D02*
X220069400Y-197080600D01*
X214623400Y-184435400D02*
X214623400Y-172553400D01*
%TO.N,INT_KM*%
X209076600Y-185806100D02*
X208290500Y-185020000D01*
X193744500Y-152988200D02*
X193744500Y-134891000D01*
X201473100Y-160716800D02*
X193744500Y-152988200D01*
X193744500Y-134891000D02*
X192494600Y-133641100D01*
X216400000Y-193130000D02*
X215917800Y-193130000D01*
X207738200Y-185020000D02*
X207003500Y-184285300D01*
X215917800Y-193130000D02*
X209076600Y-186288800D01*
X201473100Y-172925000D02*
X201473100Y-160716800D01*
X192494600Y-133641100D02*
X192494600Y-128334600D01*
X207003500Y-178455400D02*
X201473100Y-172925000D01*
X207003500Y-184285300D02*
X207003500Y-178455400D01*
X208290500Y-185020000D02*
X207738200Y-185020000D01*
X192494600Y-128334600D02*
X188540000Y-124380000D01*
X209076600Y-186288800D02*
X209076600Y-185806100D01*
%TO.N,P25-BF*%
X211850000Y-176384100D02*
X211850000Y-169780000D01*
X214173000Y-178237400D02*
X213102200Y-177166600D01*
X218940000Y-193130000D02*
X214173000Y-188363000D01*
X211850000Y-169780000D02*
X210580000Y-168510000D01*
X212632500Y-177166600D02*
X211850000Y-176384100D01*
X214173000Y-188363000D02*
X214173000Y-178237400D01*
X213102200Y-177166600D02*
X212632500Y-177166600D01*
%TO.N,Net-(RN5-Pad4)*%
X145307500Y-192226200D02*
X147222100Y-194140800D01*
X147222100Y-194140800D02*
X147222100Y-206823300D01*
X137240000Y-193380000D02*
X138393800Y-192226200D01*
X150532700Y-210133900D02*
X153873000Y-210133900D01*
X147222100Y-206823300D02*
X150532700Y-210133900D01*
X157270000Y-201810000D02*
X160080000Y-199000000D01*
X157270000Y-206736900D02*
X157270000Y-201810000D01*
X138393800Y-192226200D02*
X145307500Y-192226200D01*
X153873000Y-210133900D02*
X157270000Y-206736900D01*
%TO.N,Net-(RN5-Pad3)*%
X131460000Y-193380000D02*
X132160000Y-193380000D01*
X127080000Y-189000000D02*
X131460000Y-193380000D01*
%TO.N,Net-(RN6-Pad6)*%
X177590000Y-200570000D02*
X177590000Y-212730000D01*
X171510000Y-189321500D02*
X177984700Y-195796200D01*
X177590000Y-212730000D02*
X176320000Y-214000000D01*
X168828200Y-187871800D02*
X170759200Y-187871800D01*
X179160000Y-199000000D02*
X177590000Y-200570000D01*
X177984700Y-195796200D02*
X177984700Y-197824700D01*
X177984700Y-197824700D02*
X179160000Y-199000000D01*
X170759200Y-187871800D02*
X171510000Y-188622600D01*
X167700000Y-189000000D02*
X168828200Y-187871800D01*
X171510000Y-188622600D02*
X171510000Y-189321500D01*
%TO.N,Net-(RN6-Pad5)*%
X176620000Y-199000000D02*
X176320000Y-199300000D01*
X176320000Y-199300000D02*
X176320000Y-206380000D01*
%TO.N,Net-(RN6-Pad4)*%
X171240000Y-206380000D02*
X174080000Y-203540000D01*
X174080000Y-203540000D02*
X174080000Y-199000000D01*
%TO.N,Net-(J12-Pad1)*%
X112157000Y-217918000D02*
X112157000Y-203556000D01*
X120097900Y-188831100D02*
X127072200Y-181856800D01*
X106676600Y-222255800D02*
X109008400Y-219924000D01*
X58470000Y-226012700D02*
X59226200Y-226768900D01*
X120097900Y-195615100D02*
X120097900Y-188831100D01*
X109008400Y-219924000D02*
X110151000Y-219924000D01*
X52246100Y-219626100D02*
X52952500Y-219626100D01*
X58470000Y-225109200D02*
X58470000Y-226012700D01*
X55971400Y-223471700D02*
X56769900Y-224270200D01*
X50620000Y-218000000D02*
X48080000Y-218000000D01*
X110151000Y-219924000D02*
X112157000Y-217918000D01*
X88115000Y-226768900D02*
X88956700Y-225927200D01*
X88956700Y-225048200D02*
X89829000Y-224175900D01*
X89829000Y-224175900D02*
X105981700Y-224175900D01*
X145742900Y-167742700D02*
X145742900Y-147476800D01*
X106676600Y-223481000D02*
X106676600Y-222255800D01*
X88956700Y-225927200D02*
X88956700Y-225048200D01*
X56769900Y-224270200D02*
X57631000Y-224270200D01*
X55971400Y-222645000D02*
X55971400Y-223471700D01*
X50620000Y-218000000D02*
X52246100Y-219626100D01*
X112157000Y-203556000D02*
X120097900Y-195615100D01*
X131628800Y-181856800D02*
X145742900Y-167742700D01*
X127072200Y-181856800D02*
X131628800Y-181856800D01*
X59226200Y-226768900D02*
X88115000Y-226768900D01*
X105981700Y-224175900D02*
X106676600Y-223481000D01*
X52952500Y-219626100D02*
X55971400Y-222645000D01*
X57631000Y-224270200D02*
X58470000Y-225109200D01*
%TO.N,~{RES_IN}*%
X88905100Y-222644200D02*
X88905100Y-223453400D01*
X88905100Y-223453400D02*
X88088500Y-224270000D01*
X88088500Y-224270000D02*
X86410000Y-224270000D01*
X86410000Y-224270000D02*
X85140000Y-225540000D01*
X94475000Y-218500000D02*
X93049300Y-218500000D01*
X93049300Y-218500000D02*
X88905100Y-222644200D01*
%TO.N,Net-(C6-Pad2)*%
X50540000Y-121250000D02*
X51883900Y-119906100D01*
X51883900Y-110366100D02*
X53000000Y-109250000D01*
X51883900Y-119906100D02*
X51883900Y-110366100D01*
%TO.N,Net-(C10-Pad1)*%
X60700000Y-121250000D02*
X59430000Y-119980000D01*
X59430000Y-119980000D02*
X59430000Y-112680000D01*
X59430000Y-112680000D02*
X56000000Y-109250000D01*
%TO.N,Net-(D7-Pad1)*%
X61338300Y-142985900D02*
X62659300Y-142985900D01*
X57910000Y-160030000D02*
X57018100Y-159138100D01*
X58664500Y-154464400D02*
X61665500Y-157465400D01*
X57780100Y-154464400D02*
X58664500Y-154464400D01*
X57018100Y-155226400D02*
X57780100Y-154464400D01*
X61625400Y-152919800D02*
X61625400Y-149226000D01*
X62518900Y-161196100D02*
X63444600Y-161196100D01*
X61665500Y-157465400D02*
X61665500Y-160342700D01*
X63444600Y-161196100D02*
X64175500Y-160465200D01*
X61625400Y-149226000D02*
X59552700Y-147153300D01*
X59552700Y-147153300D02*
X59552700Y-144771500D01*
X64175500Y-155469900D02*
X61625400Y-152919800D01*
X57018100Y-159138100D02*
X57018100Y-155226400D01*
X64175500Y-160465200D02*
X64175500Y-155469900D01*
X61665500Y-160342700D02*
X62518900Y-161196100D01*
X59552700Y-144771500D02*
X61338300Y-142985900D01*
X115000000Y-90645200D02*
X115000000Y-89000000D01*
X62659300Y-142985900D02*
X115000000Y-90645200D01*
%TO.N,Net-(D8-Pad1)*%
X125000000Y-89000000D02*
X123774600Y-90225400D01*
X123774600Y-90225400D02*
X116642200Y-90225400D01*
X62114600Y-145997300D02*
X60768500Y-147343400D01*
X62114600Y-144753000D02*
X62114600Y-145997300D01*
X116642200Y-90225400D02*
X62114600Y-144753000D01*
%TO.N,Net-(D9-Pad1)*%
X56675400Y-90611800D02*
X56675400Y-97168300D01*
X40145000Y-113698700D02*
X40145000Y-149101500D01*
X50612100Y-165168600D02*
X51959500Y-165168600D01*
X63735800Y-85264200D02*
X62023000Y-85264200D01*
X56675400Y-97168300D02*
X40145000Y-113698700D01*
X51959500Y-165168600D02*
X54080400Y-167289500D01*
X40145000Y-149101500D02*
X44815400Y-153771900D01*
X54080400Y-167289500D02*
X54080400Y-169965400D01*
X44815400Y-153771900D02*
X44815400Y-159371900D01*
X62023000Y-85264200D02*
X56675400Y-90611800D01*
X54080400Y-169965400D02*
X55495000Y-171380000D01*
X44815400Y-159371900D02*
X50612100Y-165168600D01*
X68000000Y-81000000D02*
X63735800Y-85264200D01*
%TO.N,Net-(J20-Pad2)*%
X82540000Y-214000000D02*
X83665300Y-215125300D01*
X93640300Y-215125300D02*
X97015000Y-218500000D01*
X83665300Y-215125300D02*
X93640300Y-215125300D01*
%TO.N,ACK*%
X182835200Y-145605800D02*
X177318600Y-151122400D01*
X210517800Y-180099300D02*
X208070700Y-177652200D01*
X175631200Y-98868600D02*
X171383500Y-103116300D01*
X184860000Y-86634100D02*
X175631200Y-95862900D01*
X213860000Y-200750000D02*
X217564300Y-197045700D01*
X182835200Y-143605500D02*
X182835200Y-145605800D01*
X217564300Y-197045700D02*
X217564300Y-192391200D01*
X211616600Y-180780600D02*
X210935300Y-180099300D01*
X184860000Y-84000000D02*
X184860000Y-86634100D01*
X208070700Y-177652200D02*
X208070700Y-176424700D01*
X171383500Y-132153800D02*
X182835200Y-143605500D01*
X175631200Y-95862900D02*
X175631200Y-98868600D01*
X210935300Y-180099300D02*
X210517800Y-180099300D01*
X171383500Y-103116300D02*
X171383500Y-132153800D01*
X211616600Y-186443500D02*
X211616600Y-180780600D01*
X217564300Y-192391200D02*
X211616600Y-186443500D01*
%TO.N,INT_PAR*%
X91737900Y-136767200D02*
X91499600Y-136528900D01*
X98075800Y-141436500D02*
X93406500Y-136767200D01*
X97120700Y-152654700D02*
X98075800Y-151699600D01*
X98075800Y-151699600D02*
X98075800Y-141436500D01*
X95165000Y-125462300D02*
X95165000Y-122930000D01*
X91499600Y-136528900D02*
X91499600Y-129127700D01*
X91499600Y-129127700D02*
X95165000Y-125462300D01*
X93406500Y-136767200D02*
X91737900Y-136767200D01*
%TO.N,~{PARIN0}*%
X79165000Y-161010000D02*
X79165000Y-155930000D01*
X76625000Y-163550000D02*
X79165000Y-161010000D01*
%TO.N,~{PARIN1}*%
X119370300Y-164675300D02*
X122199700Y-164675300D01*
X118245000Y-163550000D02*
X117098500Y-164696500D01*
X118245000Y-163550000D02*
X119370300Y-164675300D01*
X117098500Y-164696500D02*
X114311500Y-164696500D01*
X122199700Y-164675300D02*
X123325000Y-163550000D01*
X113165000Y-155930000D02*
X113165000Y-163550000D01*
X114311500Y-164696500D02*
X113165000Y-163550000D01*
%TO.N,~{PARIN2}*%
X153540000Y-176460000D02*
X153540000Y-171380000D01*
X151000000Y-179000000D02*
X153540000Y-176460000D01*
%TO.N,PARINT*%
X174607300Y-175067500D02*
X172725900Y-176948900D01*
X173860000Y-171380000D02*
X174607300Y-172127300D01*
X174607300Y-172127300D02*
X174607300Y-175067500D01*
X143643400Y-156701000D02*
X143643400Y-159761500D01*
X172725900Y-176948900D02*
X172725900Y-179468700D01*
X134541700Y-147599300D02*
X143643400Y-156701000D01*
X172725900Y-179468700D02*
X184189700Y-190932500D01*
%TO.N,~{PAROUT0}*%
X99774200Y-160988300D02*
X99774200Y-158601400D01*
X100626800Y-148858500D02*
X99485000Y-147716700D01*
X100622900Y-167155700D02*
X100622900Y-161837000D01*
X100626800Y-157748800D02*
X100626800Y-148858500D01*
X100622900Y-161837000D02*
X99774200Y-160988300D01*
X100467300Y-167311300D02*
X100622900Y-167155700D01*
X99485000Y-147716700D02*
X99485000Y-141930000D01*
X99774200Y-158601400D02*
X100626800Y-157748800D01*
%TO.N,~{PAROUT2}*%
X133485000Y-141930000D02*
X132359600Y-143055400D01*
X132359600Y-157809400D02*
X129818600Y-160350400D01*
X129818600Y-164490600D02*
X131345500Y-166017500D01*
X129818600Y-160350400D02*
X129818600Y-164490600D01*
X132359600Y-143055400D02*
X132359600Y-157809400D01*
%TO.N,~{BAI}*%
X69299700Y-208591200D02*
X69299700Y-218562800D01*
X71075400Y-223532900D02*
X70338300Y-224270000D01*
X70520100Y-207370800D02*
X69299700Y-208591200D01*
X71075400Y-220338500D02*
X71075400Y-223532900D01*
X61010000Y-224270000D02*
X59740000Y-225540000D01*
X70338300Y-224270000D02*
X61010000Y-224270000D01*
X71749200Y-207370800D02*
X70520100Y-207370800D01*
X69299700Y-218562800D02*
X71075400Y-220338500D01*
X77620000Y-201500000D02*
X71749200Y-207370800D01*
%TO.N,470E*%
X94700000Y-91840000D02*
X97540000Y-89000000D01*
X94700000Y-98000000D02*
X94700000Y-91840000D01*
%TO.N,470D*%
X87540000Y-93380000D02*
X87540000Y-89000000D01*
X92160000Y-98000000D02*
X87540000Y-93380000D01*
%TO.N,470C*%
X89620000Y-98000000D02*
X80620000Y-89000000D01*
X80620000Y-89000000D02*
X77540000Y-89000000D01*
%TO.N,470F*%
X105429200Y-91110800D02*
X107540000Y-89000000D01*
X104129200Y-91110800D02*
X105429200Y-91110800D01*
X97240000Y-98000000D02*
X104129200Y-91110800D01*
%TO.N,470H*%
X122597400Y-80234900D02*
X123524600Y-81162100D01*
X113974800Y-85725100D02*
X114479900Y-85725100D01*
X127540000Y-85145100D02*
X127540000Y-89000000D01*
X123524600Y-81985600D02*
X124269000Y-82730000D01*
X116566500Y-80234900D02*
X122597400Y-80234900D01*
X124269000Y-82730000D02*
X125124900Y-82730000D01*
X102320000Y-98000000D02*
X102320000Y-97379900D01*
X123524600Y-81162100D02*
X123524600Y-81985600D01*
X125124900Y-82730000D02*
X127540000Y-85145100D01*
X114479900Y-85725100D02*
X115810000Y-84395000D01*
X102320000Y-97379900D02*
X113974800Y-85725100D01*
X115810000Y-84395000D02*
X115810000Y-80991400D01*
X115810000Y-80991400D02*
X116566500Y-80234900D01*
%TO.N,470B*%
X76314600Y-87481900D02*
X75431600Y-86598900D01*
X80764000Y-91684000D02*
X78487500Y-91684000D01*
X76314600Y-89511100D02*
X76314600Y-87481900D01*
X78487500Y-91684000D02*
X76314600Y-89511100D01*
X87080000Y-98000000D02*
X80764000Y-91684000D01*
%TO.N,Net-(RN5-Pad6)*%
X135890600Y-199809400D02*
X134700000Y-201000000D01*
X137081200Y-201000000D02*
X135890600Y-199809400D01*
X135890600Y-190190600D02*
X135890600Y-199809400D01*
X134700000Y-189000000D02*
X135890600Y-190190600D01*
X134700000Y-201000000D02*
X132160000Y-201000000D01*
X137240000Y-201000000D02*
X137081200Y-201000000D01*
%TO.N,Net-(RN6-Pad7)*%
X170240000Y-189000000D02*
X170240000Y-196824200D01*
X172716900Y-201463800D02*
X170049400Y-204131300D01*
X170049400Y-212809400D02*
X171240000Y-214000000D01*
X170049400Y-204131300D02*
X170049400Y-212809400D01*
X169890600Y-212809400D02*
X168700000Y-214000000D01*
X172716900Y-198475900D02*
X172716900Y-201463800D01*
X170049400Y-212809400D02*
X169890600Y-212809400D01*
X172065600Y-197824600D02*
X172716900Y-198475900D01*
X171240400Y-197824600D02*
X172065600Y-197824600D01*
X170240000Y-196824200D02*
X171240400Y-197824600D01*
%TO.N,/DUART/~{TTL_RIA}*%
X97040000Y-179768200D02*
X97040000Y-178250000D01*
X83268900Y-189680000D02*
X87128200Y-189680000D01*
X45500000Y-100120000D02*
X45500000Y-102500000D01*
X81285300Y-191663600D02*
X83268900Y-189680000D01*
X50620000Y-95000000D02*
X45500000Y-100120000D01*
X87128200Y-189680000D02*
X97040000Y-179768200D01*
%TO.N,/USB-SD/SDDO*%
X257519500Y-72730600D02*
X257519500Y-107720500D01*
X257519500Y-107720500D02*
X253240000Y-112000000D01*
%TO.N,Net-(JP1-Pad2)*%
X58040000Y-89973700D02*
X61191500Y-86822200D01*
X67677800Y-86822200D02*
X78500000Y-76000000D01*
X58040000Y-95000000D02*
X58040000Y-89973700D01*
X61191500Y-86822200D02*
X67677800Y-86822200D01*
%TO.N,Net-(RN6-Pad2)*%
X157540000Y-189000000D02*
X165486000Y-196946000D01*
X165486000Y-199000000D02*
X165486000Y-201974000D01*
X165486000Y-199000000D02*
X169000000Y-199000000D01*
X165486000Y-196946000D02*
X165486000Y-199000000D01*
X165486000Y-201974000D02*
X161080000Y-206380000D01*
%TO.N,Net-(R21-Pad1)*%
X197873900Y-144625500D02*
X197873900Y-148846100D01*
X245000000Y-117000000D02*
X245000000Y-113920000D01*
X197873900Y-148846100D02*
X195095000Y-151625000D01*
X245000000Y-113920000D02*
X243080000Y-112000000D01*
%TO.N,Net-(R22-Pad1)*%
X249285300Y-113125300D02*
X251125300Y-113125300D01*
X248160000Y-112000000D02*
X249285300Y-113125300D01*
X251125300Y-113125300D02*
X255000000Y-117000000D01*
%TO.N,Net-(RN6-Pad3)*%
X160080000Y-189000000D02*
X160080000Y-189219000D01*
X170175400Y-197635400D02*
X171540000Y-199000000D01*
X166160000Y-206380000D02*
X166160000Y-204380000D01*
X168496400Y-197635400D02*
X170175400Y-197635400D01*
X160080000Y-189219000D02*
X168496400Y-197635400D01*
X166160000Y-204380000D02*
X171540000Y-199000000D01*
%TD*%
M02*
