M48
; DRILL file {KiCad (6.0.11)} date Sun May 28 18:55:18 2023
; FORMAT={-:-/ absolute / inch / decimal}
; #@! TF.CreationDate,2023-05-28T18:55:18-04:00
; #@! TF.GenerationSoftware,Kicad,Pcbnew,(6.0.11)
; #@! TF.FileFunction,Plated,1,2,PTH
FMAT,2
INCH
; #@! TA.AperFunction,Plated,PTH,ComponentDrill
T1C0.0315
; #@! TA.AperFunction,Plated,PTH,ComponentDrill
T2C0.0354
; #@! TA.AperFunction,Plated,PTH,ComponentDrill
T3C0.0394
; #@! TA.AperFunction,Plated,PTH,ComponentDrill
T4C0.0512
; #@! TA.AperFunction,Plated,PTH,ComponentDrill
T5C0.1260
%
G90
G05
T1
X2.4559Y-6.1024
X2.7559Y-6.1024
X4.3579Y-8.8976
X4.6579Y-8.8976
X7.3106Y-8.8976
X7.6106Y-8.8976
T2
X2.1654Y-6.1024
X2.2654Y-6.1024
T3
X1.852Y-6.4354
X1.852Y-6.5354
X1.852Y-7.1441
X1.852Y-7.2441
X1.852Y-7.8528
X1.852Y-7.9528
X1.852Y-8.5614
X1.852Y-8.6614
X1.952Y-6.4354
X1.952Y-6.5354
X1.952Y-7.1441
X1.952Y-7.2441
X1.952Y-7.8528
X1.952Y-7.9528
X1.952Y-8.5614
X1.952Y-8.6614
X2.0079Y-6.8504
X2.0079Y-7.5591
X2.0079Y-8.2677
X2.052Y-6.4354
X2.052Y-6.5354
X2.052Y-7.1441
X2.052Y-7.2441
X2.052Y-7.8528
X2.052Y-7.9528
X2.052Y-8.5614
X2.052Y-8.6614
X2.1079Y-6.8504
X2.1079Y-7.5591
X2.1079Y-8.2677
X2.152Y-6.4354
X2.152Y-6.5354
X2.152Y-7.1441
X2.152Y-7.2441
X2.152Y-7.8528
X2.152Y-7.9528
X2.152Y-8.5614
X2.152Y-8.6614
X2.2079Y-6.8504
X2.2079Y-7.5591
X2.2079Y-8.2677
X2.252Y-6.4354
X2.252Y-6.5354
X2.252Y-7.1441
X2.252Y-7.2441
X2.252Y-7.8528
X2.252Y-7.9528
X2.252Y-8.5614
X2.252Y-8.6614
X2.3079Y-6.8504
X2.3079Y-7.5591
X2.3079Y-8.2677
X2.352Y-6.4354
X2.352Y-6.5354
X2.352Y-7.1441
X2.352Y-7.2441
X2.352Y-7.8528
X2.352Y-7.9528
X2.352Y-8.5614
X2.352Y-8.6614
X2.452Y-6.4354
X2.452Y-6.5354
X2.452Y-7.1441
X2.452Y-7.2441
X2.452Y-7.8528
X2.452Y-7.9528
X2.452Y-8.5614
X2.452Y-8.6614
X2.552Y-6.4354
X2.552Y-6.5354
X2.552Y-7.1441
X2.552Y-7.2441
X2.552Y-7.8528
X2.552Y-7.9528
X2.552Y-8.5614
X2.552Y-8.6614
X2.652Y-6.4354
X2.652Y-6.5354
X2.652Y-7.1441
X2.652Y-7.2441
X2.652Y-7.8528
X2.652Y-7.9528
X2.652Y-8.5614
X2.652Y-8.6614
X2.752Y-6.4354
X2.752Y-6.5354
X2.752Y-7.1441
X2.752Y-7.2441
X2.752Y-7.8528
X2.752Y-7.9528
X2.752Y-8.5614
X2.752Y-8.6614
X2.852Y-6.4354
X2.852Y-6.5354
X2.852Y-7.1441
X2.852Y-7.2441
X2.852Y-7.8528
X2.852Y-7.9528
X2.852Y-8.5614
X2.852Y-8.6614
X2.952Y-6.4354
X2.952Y-6.5354
X2.952Y-7.1441
X2.952Y-7.2441
X2.952Y-7.8528
X2.952Y-7.9528
X2.952Y-8.5614
X2.952Y-8.6614
X3.052Y-6.4354
X3.052Y-6.5354
X3.052Y-7.1441
X3.052Y-7.2441
X3.052Y-7.8528
X3.052Y-7.9528
X3.052Y-8.5614
X3.052Y-8.6614
X3.152Y-6.4354
X3.152Y-6.5354
X3.152Y-7.1441
X3.152Y-7.2441
X3.152Y-7.8528
X3.152Y-7.9528
X3.152Y-8.5614
X3.152Y-8.6614
X3.252Y-6.4354
X3.252Y-6.5354
X3.252Y-7.1441
X3.252Y-7.2441
X3.252Y-7.8528
X3.252Y-7.9528
X3.252Y-8.5614
X3.252Y-8.6614
X3.352Y-6.4354
X3.352Y-6.5354
X3.352Y-7.1441
X3.352Y-7.2441
X3.352Y-7.8528
X3.352Y-7.9528
X3.352Y-8.5614
X3.352Y-8.6614
X3.452Y-6.4354
X3.452Y-6.5354
X3.452Y-7.1441
X3.452Y-7.2441
X3.452Y-7.8528
X3.452Y-7.9528
X3.452Y-8.5614
X3.452Y-8.6614
X3.552Y-6.4354
X3.552Y-6.5354
X3.552Y-7.1441
X3.552Y-7.2441
X3.552Y-7.8528
X3.552Y-7.9528
X3.552Y-8.5614
X3.552Y-8.6614
X3.652Y-6.4354
X3.652Y-6.5354
X3.652Y-7.1441
X3.652Y-7.2441
X3.652Y-7.8528
X3.652Y-7.9528
X3.652Y-8.5614
X3.652Y-8.6614
X3.752Y-6.4354
X3.752Y-6.5354
X3.752Y-7.1441
X3.752Y-7.2441
X3.752Y-7.8528
X3.752Y-7.9528
X3.752Y-8.5614
X3.752Y-8.6614
X3.852Y-6.4354
X3.852Y-6.5354
X3.852Y-7.1441
X3.852Y-7.2441
X3.852Y-7.8528
X3.852Y-7.9528
X3.852Y-8.5614
X3.852Y-8.6614
X3.952Y-6.4354
X3.952Y-6.5354
X3.952Y-7.1441
X3.952Y-7.2441
X3.952Y-7.8528
X3.952Y-7.9528
X3.952Y-8.5614
X3.952Y-8.6614
X4.052Y-6.4354
X4.052Y-6.5354
X4.052Y-7.1441
X4.052Y-7.2441
X4.052Y-7.8528
X4.052Y-7.9528
X4.052Y-8.5614
X4.052Y-8.6614
X4.152Y-6.4354
X4.152Y-6.5354
X4.152Y-7.1441
X4.152Y-7.2441
X4.152Y-7.8528
X4.152Y-7.9528
X4.152Y-8.5614
X4.152Y-8.6614
X4.252Y-6.4354
X4.252Y-6.5354
X4.252Y-7.1441
X4.252Y-7.2441
X4.252Y-7.8528
X4.252Y-7.9528
X4.252Y-8.5614
X4.252Y-8.6614
X4.7654Y-6.4354
X4.7654Y-6.5354
X4.7654Y-7.1441
X4.7654Y-7.2441
X4.7654Y-7.8528
X4.7654Y-7.9528
X4.7654Y-8.5614
X4.7654Y-8.6614
X4.8654Y-6.4354
X4.8654Y-6.5354
X4.8654Y-7.1441
X4.8654Y-7.2441
X4.8654Y-7.8528
X4.8654Y-7.9528
X4.8654Y-8.5614
X4.8654Y-8.6614
X4.9654Y-6.4354
X4.9654Y-6.5354
X4.9654Y-7.1441
X4.9654Y-7.2441
X4.9654Y-7.8528
X4.9654Y-7.9528
X4.9654Y-8.5614
X4.9654Y-8.6614
X5.0654Y-6.4354
X5.0654Y-6.5354
X5.0654Y-7.1441
X5.0654Y-7.2441
X5.0654Y-7.8528
X5.0654Y-7.9528
X5.0654Y-8.5614
X5.0654Y-8.6614
X5.1654Y-6.4354
X5.1654Y-6.5354
X5.1654Y-7.1441
X5.1654Y-7.2441
X5.1654Y-7.8528
X5.1654Y-7.9528
X5.1654Y-8.5614
X5.1654Y-8.6614
X5.2654Y-6.4354
X5.2654Y-6.5354
X5.2654Y-7.1441
X5.2654Y-7.2441
X5.2654Y-7.8528
X5.2654Y-7.9528
X5.2654Y-8.5614
X5.2654Y-8.6614
X5.3654Y-6.4354
X5.3654Y-6.5354
X5.3654Y-7.1441
X5.3654Y-7.2441
X5.3654Y-7.8528
X5.3654Y-7.9528
X5.3654Y-8.5614
X5.3654Y-8.6614
X5.4654Y-6.4354
X5.4654Y-6.5354
X5.4654Y-7.1441
X5.4654Y-7.2441
X5.4654Y-7.8528
X5.4654Y-7.9528
X5.4654Y-8.5614
X5.4654Y-8.6614
X5.5654Y-6.4354
X5.5654Y-6.5354
X5.5654Y-7.1441
X5.5654Y-7.2441
X5.5654Y-7.8528
X5.5654Y-7.9528
X5.5654Y-8.5614
X5.5654Y-8.6614
X5.6654Y-6.4354
X5.6654Y-6.5354
X5.6654Y-7.1441
X5.6654Y-7.2441
X5.6654Y-7.8528
X5.6654Y-7.9528
X5.6654Y-8.5614
X5.6654Y-8.6614
X5.7654Y-6.4354
X5.7654Y-6.5354
X5.7654Y-7.1441
X5.7654Y-7.2441
X5.7654Y-7.8528
X5.7654Y-7.9528
X5.7654Y-8.5614
X5.7654Y-8.6614
X5.8654Y-6.4354
X5.8654Y-6.5354
X5.8654Y-7.1441
X5.8654Y-7.2441
X5.8654Y-7.8528
X5.8654Y-7.9528
X5.8654Y-8.5614
X5.8654Y-8.6614
X5.9654Y-6.4354
X5.9654Y-6.5354
X5.9654Y-7.1441
X5.9654Y-7.2441
X5.9654Y-7.8528
X5.9654Y-7.9528
X5.9654Y-8.5614
X5.9654Y-8.6614
X6.0654Y-6.4354
X6.0654Y-6.5354
X6.0654Y-7.1441
X6.0654Y-7.2441
X6.0654Y-7.8528
X6.0654Y-7.9528
X6.0654Y-8.5614
X6.0654Y-8.6614
X6.1654Y-6.4354
X6.1654Y-6.5354
X6.1654Y-7.1441
X6.1654Y-7.2441
X6.1654Y-7.8528
X6.1654Y-7.9528
X6.1654Y-8.5614
X6.1654Y-8.6614
X6.2654Y-6.4354
X6.2654Y-6.5354
X6.2654Y-7.1441
X6.2654Y-7.2441
X6.2654Y-7.8528
X6.2654Y-7.9528
X6.2654Y-8.5614
X6.2654Y-8.6614
X6.3654Y-6.4354
X6.3654Y-6.5354
X6.3654Y-7.1441
X6.3654Y-7.2441
X6.3654Y-7.8528
X6.3654Y-7.9528
X6.3654Y-8.5614
X6.3654Y-8.6614
X6.4654Y-6.4354
X6.4654Y-6.5354
X6.4654Y-7.1441
X6.4654Y-7.2441
X6.4654Y-7.8528
X6.4654Y-7.9528
X6.4654Y-8.5614
X6.4654Y-8.6614
X6.5654Y-6.4354
X6.5654Y-6.5354
X6.5654Y-7.1441
X6.5654Y-7.2441
X6.5654Y-7.8528
X6.5654Y-7.9528
X6.5654Y-8.5614
X6.5654Y-8.6614
X6.6654Y-6.4354
X6.6654Y-6.5354
X6.6654Y-7.1441
X6.6654Y-7.2441
X6.6654Y-7.8528
X6.6654Y-7.9528
X6.6654Y-8.5614
X6.6654Y-8.6614
X6.7654Y-6.4354
X6.7654Y-6.5354
X6.7654Y-7.1441
X6.7654Y-7.2441
X6.7654Y-7.8528
X6.7654Y-7.9528
X6.7654Y-8.5614
X6.7654Y-8.6614
X6.8654Y-6.4354
X6.8654Y-6.5354
X6.8654Y-7.1441
X6.8654Y-7.2441
X6.8654Y-7.8528
X6.8654Y-7.9528
X6.8654Y-8.5614
X6.8654Y-8.6614
X6.9654Y-6.4354
X6.9654Y-6.5354
X6.9654Y-7.1441
X6.9654Y-7.2441
X6.9654Y-7.8528
X6.9654Y-7.9528
X6.9654Y-8.5614
X6.9654Y-8.6614
X7.0654Y-6.4354
X7.0654Y-6.5354
X7.0654Y-7.1441
X7.0654Y-7.2441
X7.0654Y-7.8528
X7.0654Y-7.9528
X7.0654Y-8.5614
X7.0654Y-8.6614
X7.1654Y-6.4354
X7.1654Y-6.5354
X7.1654Y-7.1441
X7.1654Y-7.2441
X7.1654Y-7.8528
X7.1654Y-7.9528
X7.1654Y-8.5614
X7.1654Y-8.6614
X7.7575Y-6.4354
X7.7575Y-6.5354
X7.7575Y-7.1441
X7.7575Y-7.2441
X7.7575Y-7.8528
X7.7575Y-7.9528
X7.7575Y-8.5614
X7.7575Y-8.6614
X7.8575Y-6.4354
X7.8575Y-6.5354
X7.8575Y-7.1441
X7.8575Y-7.2441
X7.8575Y-7.8528
X7.8575Y-7.9528
X7.8575Y-8.5614
X7.8575Y-8.6614
X7.9575Y-6.4354
X7.9575Y-6.5354
X7.9575Y-7.1441
X7.9575Y-7.2441
X7.9575Y-7.8528
X7.9575Y-7.9528
X7.9575Y-8.5614
X7.9575Y-8.6614
X8.0575Y-6.4354
X8.0575Y-6.5354
X8.0575Y-7.1441
X8.0575Y-7.2441
X8.0575Y-7.8528
X8.0575Y-7.9528
X8.0575Y-8.5614
X8.0575Y-8.6614
X8.1575Y-6.4354
X8.1575Y-6.5354
X8.1575Y-7.1441
X8.1575Y-7.2441
X8.1575Y-7.8528
X8.1575Y-7.9528
X8.1575Y-8.5614
X8.1575Y-8.6614
X8.2575Y-6.4354
X8.2575Y-6.5354
X8.2575Y-7.1441
X8.2575Y-7.2441
X8.2575Y-7.8528
X8.2575Y-7.9528
X8.2575Y-8.5614
X8.2575Y-8.6614
X8.3575Y-6.4354
X8.3575Y-6.5354
X8.3575Y-7.1441
X8.3575Y-7.2441
X8.3575Y-7.8528
X8.3575Y-7.9528
X8.3575Y-8.5614
X8.3575Y-8.6614
X8.4575Y-6.4354
X8.4575Y-6.5354
X8.4575Y-7.1441
X8.4575Y-7.2441
X8.4575Y-7.8528
X8.4575Y-7.9528
X8.4575Y-8.5614
X8.4575Y-8.6614
X8.5575Y-6.4354
X8.5575Y-6.5354
X8.5575Y-7.1441
X8.5575Y-7.2441
X8.5575Y-7.8528
X8.5575Y-7.9528
X8.5575Y-8.5614
X8.5575Y-8.6614
X8.6575Y-6.4354
X8.6575Y-6.5354
X8.6575Y-7.1441
X8.6575Y-7.2441
X8.6575Y-7.8528
X8.6575Y-7.9528
X8.6575Y-8.5614
X8.6575Y-8.6614
X8.7575Y-6.4354
X8.7575Y-6.5354
X8.7575Y-7.1441
X8.7575Y-7.2441
X8.7575Y-7.8528
X8.7575Y-7.9528
X8.7575Y-8.5614
X8.7575Y-8.6614
X8.8575Y-6.4354
X8.8575Y-6.5354
X8.8575Y-7.1441
X8.8575Y-7.2441
X8.8575Y-7.8528
X8.8575Y-7.9528
X8.8575Y-8.5614
X8.8575Y-8.6614
X8.9575Y-6.4354
X8.9575Y-6.5354
X8.9575Y-7.1441
X8.9575Y-7.2441
X8.9575Y-7.8528
X8.9575Y-7.9528
X8.9575Y-8.5614
X8.9575Y-8.6614
X9.0575Y-6.4354
X9.0575Y-6.5354
X9.0575Y-7.1441
X9.0575Y-7.2441
X9.0575Y-7.8528
X9.0575Y-7.9528
X9.0575Y-8.5614
X9.0575Y-8.6614
X9.1575Y-6.4354
X9.1575Y-6.5354
X9.1575Y-7.1441
X9.1575Y-7.2441
X9.1575Y-7.8528
X9.1575Y-7.9528
X9.1575Y-8.5614
X9.1575Y-8.6614
X9.2575Y-6.4354
X9.2575Y-6.5354
X9.2575Y-7.1441
X9.2575Y-7.2441
X9.2575Y-7.8528
X9.2575Y-7.9528
X9.2575Y-8.5614
X9.2575Y-8.6614
X9.3575Y-6.4354
X9.3575Y-6.5354
X9.3575Y-7.1441
X9.3575Y-7.2441
X9.3575Y-7.8528
X9.3575Y-7.9528
X9.3575Y-8.5614
X9.3575Y-8.6614
X9.4575Y-6.4354
X9.4575Y-6.5354
X9.4575Y-7.1441
X9.4575Y-7.2441
X9.4575Y-7.8528
X9.4575Y-7.9528
X9.4575Y-8.5614
X9.4575Y-8.6614
X9.5575Y-6.4354
X9.5575Y-6.5354
X9.5575Y-7.1441
X9.5575Y-7.2441
X9.5575Y-7.8528
X9.5575Y-7.9528
X9.5575Y-8.5614
X9.5575Y-8.6614
X9.6575Y-6.4354
X9.6575Y-6.5354
X9.6575Y-7.1441
X9.6575Y-7.2441
X9.6575Y-7.8528
X9.6575Y-7.9528
X9.6575Y-8.5614
X9.6575Y-8.6614
X9.7575Y-6.4354
X9.7575Y-6.5354
X9.7575Y-7.1441
X9.7575Y-7.2441
X9.7575Y-7.8528
X9.7575Y-7.9528
X9.7575Y-8.5614
X9.7575Y-8.6614
X9.8575Y-6.4354
X9.8575Y-6.5354
X9.8575Y-7.1441
X9.8575Y-7.2441
X9.8575Y-7.8528
X9.8575Y-7.9528
X9.8575Y-8.5614
X9.8575Y-8.6614
X9.9575Y-6.4354
X9.9575Y-6.5354
X9.9575Y-7.1441
X9.9575Y-7.2441
X9.9575Y-7.8528
X9.9575Y-7.9528
X9.9575Y-8.5614
X9.9575Y-8.6614
X10.0575Y-6.4354
X10.0575Y-6.5354
X10.0575Y-7.1441
X10.0575Y-7.2441
X10.0575Y-7.8528
X10.0575Y-7.9528
X10.0575Y-8.5614
X10.0575Y-8.6614
X10.1575Y-6.4354
X10.1575Y-6.5354
X10.1575Y-7.1441
X10.1575Y-7.2441
X10.1575Y-7.8528
X10.1575Y-7.9528
X10.1575Y-8.5614
X10.1575Y-8.6614
T4
X5.5677Y-6.1122
X5.7677Y-6.1122
X6.237Y-6.1122
X6.437Y-6.1122
T5
X1.5748Y-6.1024
X1.5748Y-8.8583
X4.5079Y-7.4803
X7.4606Y-7.4803
X10.4331Y-6.1024
X10.4331Y-8.8583
T0
M30
