%TF.GenerationSoftware,KiCad,Pcbnew,(6.0.11)*%
%TF.CreationDate,2023-05-28T18:55:11-04:00*%
%TF.ProjectId,backplane.4-slot,6261636b-706c-4616-9e65-2e342d736c6f,rev?*%
%TF.SameCoordinates,Original*%
%TF.FileFunction,Legend,Bot*%
%TF.FilePolarity,Positive*%
%FSLAX46Y46*%
G04 Gerber Fmt 4.6, Leading zero omitted, Abs format (unit mm)*
G04 Created by KiCad (PCBNEW (6.0.11)) date 2023-05-28 18:55:11*
%MOMM*%
%LPD*%
G01*
G04 APERTURE LIST*
%ADD10C,0.150000*%
G04 APERTURE END LIST*
D10*
%TO.C,J1*%
X110222380Y-218396666D02*
X110936666Y-218396666D01*
X111079523Y-218349047D01*
X111174761Y-218253809D01*
X111222380Y-218110952D01*
X111222380Y-218015714D01*
X111222380Y-219396666D02*
X111222380Y-218825238D01*
X111222380Y-219110952D02*
X110222380Y-219110952D01*
X110365238Y-219015714D01*
X110460476Y-218920476D01*
X110508095Y-218825238D01*
%TO.C,J3*%
X260222380Y-218396666D02*
X260936666Y-218396666D01*
X261079523Y-218349047D01*
X261174761Y-218253809D01*
X261222380Y-218110952D01*
X261222380Y-218015714D01*
X260222380Y-218777619D02*
X260222380Y-219396666D01*
X260603333Y-219063333D01*
X260603333Y-219206190D01*
X260650952Y-219301428D01*
X260698571Y-219349047D01*
X260793809Y-219396666D01*
X261031904Y-219396666D01*
X261127142Y-219349047D01*
X261174761Y-219301428D01*
X261222380Y-219206190D01*
X261222380Y-218920476D01*
X261174761Y-218825238D01*
X261127142Y-218777619D01*
%TO.C,J2*%
X184222380Y-218396666D02*
X184936666Y-218396666D01*
X185079523Y-218349047D01*
X185174761Y-218253809D01*
X185222380Y-218110952D01*
X185222380Y-218015714D01*
X184317619Y-218825238D02*
X184270000Y-218872857D01*
X184222380Y-218968095D01*
X184222380Y-219206190D01*
X184270000Y-219301428D01*
X184317619Y-219349047D01*
X184412857Y-219396666D01*
X184508095Y-219396666D01*
X184650952Y-219349047D01*
X185222380Y-218777619D01*
X185222380Y-219396666D01*
%TO.C,H1*%
X44761904Y-157952380D02*
X44761904Y-156952380D01*
X44761904Y-157428571D02*
X44190476Y-157428571D01*
X44190476Y-157952380D02*
X44190476Y-156952380D01*
X43190476Y-157952380D02*
X43761904Y-157952380D01*
X43476190Y-157952380D02*
X43476190Y-156952380D01*
X43571428Y-157095238D01*
X43666666Y-157190476D01*
X43761904Y-157238095D01*
%TO.C,H2*%
X261761904Y-157952380D02*
X261761904Y-156952380D01*
X261761904Y-157428571D02*
X261190476Y-157428571D01*
X261190476Y-157952380D02*
X261190476Y-156952380D01*
X260761904Y-157047619D02*
X260714285Y-157000000D01*
X260619047Y-156952380D01*
X260380952Y-156952380D01*
X260285714Y-157000000D01*
X260238095Y-157047619D01*
X260190476Y-157142857D01*
X260190476Y-157238095D01*
X260238095Y-157380952D01*
X260809523Y-157952380D01*
X260190476Y-157952380D01*
%TO.C,J4*%
X110222380Y-200396666D02*
X110936666Y-200396666D01*
X111079523Y-200349047D01*
X111174761Y-200253809D01*
X111222380Y-200110952D01*
X111222380Y-200015714D01*
X110555714Y-201301428D02*
X111222380Y-201301428D01*
X110174761Y-201063333D02*
X110889047Y-200825238D01*
X110889047Y-201444285D01*
%TO.C,J5*%
X184222380Y-200396666D02*
X184936666Y-200396666D01*
X185079523Y-200349047D01*
X185174761Y-200253809D01*
X185222380Y-200110952D01*
X185222380Y-200015714D01*
X184222380Y-201349047D02*
X184222380Y-200872857D01*
X184698571Y-200825238D01*
X184650952Y-200872857D01*
X184603333Y-200968095D01*
X184603333Y-201206190D01*
X184650952Y-201301428D01*
X184698571Y-201349047D01*
X184793809Y-201396666D01*
X185031904Y-201396666D01*
X185127142Y-201349047D01*
X185174761Y-201301428D01*
X185222380Y-201206190D01*
X185222380Y-200968095D01*
X185174761Y-200872857D01*
X185127142Y-200825238D01*
%TO.C,J6*%
X260222380Y-200396666D02*
X260936666Y-200396666D01*
X261079523Y-200349047D01*
X261174761Y-200253809D01*
X261222380Y-200110952D01*
X261222380Y-200015714D01*
X260222380Y-201301428D02*
X260222380Y-201110952D01*
X260270000Y-201015714D01*
X260317619Y-200968095D01*
X260460476Y-200872857D01*
X260650952Y-200825238D01*
X261031904Y-200825238D01*
X261127142Y-200872857D01*
X261174761Y-200920476D01*
X261222380Y-201015714D01*
X261222380Y-201206190D01*
X261174761Y-201301428D01*
X261127142Y-201349047D01*
X261031904Y-201396666D01*
X260793809Y-201396666D01*
X260698571Y-201349047D01*
X260650952Y-201301428D01*
X260603333Y-201206190D01*
X260603333Y-201015714D01*
X260650952Y-200920476D01*
X260698571Y-200872857D01*
X260793809Y-200825238D01*
%TO.C,J7*%
X110222380Y-182396666D02*
X110936666Y-182396666D01*
X111079523Y-182349047D01*
X111174761Y-182253809D01*
X111222380Y-182110952D01*
X111222380Y-182015714D01*
X110222380Y-182777619D02*
X110222380Y-183444285D01*
X111222380Y-183015714D01*
%TO.C,J8*%
X184222380Y-182396666D02*
X184936666Y-182396666D01*
X185079523Y-182349047D01*
X185174761Y-182253809D01*
X185222380Y-182110952D01*
X185222380Y-182015714D01*
X184650952Y-183015714D02*
X184603333Y-182920476D01*
X184555714Y-182872857D01*
X184460476Y-182825238D01*
X184412857Y-182825238D01*
X184317619Y-182872857D01*
X184270000Y-182920476D01*
X184222380Y-183015714D01*
X184222380Y-183206190D01*
X184270000Y-183301428D01*
X184317619Y-183349047D01*
X184412857Y-183396666D01*
X184460476Y-183396666D01*
X184555714Y-183349047D01*
X184603333Y-183301428D01*
X184650952Y-183206190D01*
X184650952Y-183015714D01*
X184698571Y-182920476D01*
X184746190Y-182872857D01*
X184841428Y-182825238D01*
X185031904Y-182825238D01*
X185127142Y-182872857D01*
X185174761Y-182920476D01*
X185222380Y-183015714D01*
X185222380Y-183206190D01*
X185174761Y-183301428D01*
X185127142Y-183349047D01*
X185031904Y-183396666D01*
X184841428Y-183396666D01*
X184746190Y-183349047D01*
X184698571Y-183301428D01*
X184650952Y-183206190D01*
%TO.C,J9*%
X260222380Y-182396666D02*
X260936666Y-182396666D01*
X261079523Y-182349047D01*
X261174761Y-182253809D01*
X261222380Y-182110952D01*
X261222380Y-182015714D01*
X261222380Y-182920476D02*
X261222380Y-183110952D01*
X261174761Y-183206190D01*
X261127142Y-183253809D01*
X260984285Y-183349047D01*
X260793809Y-183396666D01*
X260412857Y-183396666D01*
X260317619Y-183349047D01*
X260270000Y-183301428D01*
X260222380Y-183206190D01*
X260222380Y-183015714D01*
X260270000Y-182920476D01*
X260317619Y-182872857D01*
X260412857Y-182825238D01*
X260650952Y-182825238D01*
X260746190Y-182872857D01*
X260793809Y-182920476D01*
X260841428Y-183015714D01*
X260841428Y-183206190D01*
X260793809Y-183301428D01*
X260746190Y-183349047D01*
X260650952Y-183396666D01*
%TO.C,J10*%
X110222380Y-163920476D02*
X110936666Y-163920476D01*
X111079523Y-163872857D01*
X111174761Y-163777619D01*
X111222380Y-163634761D01*
X111222380Y-163539523D01*
X111222380Y-164920476D02*
X111222380Y-164349047D01*
X111222380Y-164634761D02*
X110222380Y-164634761D01*
X110365238Y-164539523D01*
X110460476Y-164444285D01*
X110508095Y-164349047D01*
X110222380Y-165539523D02*
X110222380Y-165634761D01*
X110270000Y-165730000D01*
X110317619Y-165777619D01*
X110412857Y-165825238D01*
X110603333Y-165872857D01*
X110841428Y-165872857D01*
X111031904Y-165825238D01*
X111127142Y-165777619D01*
X111174761Y-165730000D01*
X111222380Y-165634761D01*
X111222380Y-165539523D01*
X111174761Y-165444285D01*
X111127142Y-165396666D01*
X111031904Y-165349047D01*
X110841428Y-165301428D01*
X110603333Y-165301428D01*
X110412857Y-165349047D01*
X110317619Y-165396666D01*
X110270000Y-165444285D01*
X110222380Y-165539523D01*
%TO.C,J11*%
X184222380Y-163920476D02*
X184936666Y-163920476D01*
X185079523Y-163872857D01*
X185174761Y-163777619D01*
X185222380Y-163634761D01*
X185222380Y-163539523D01*
X185222380Y-164920476D02*
X185222380Y-164349047D01*
X185222380Y-164634761D02*
X184222380Y-164634761D01*
X184365238Y-164539523D01*
X184460476Y-164444285D01*
X184508095Y-164349047D01*
X185222380Y-165872857D02*
X185222380Y-165301428D01*
X185222380Y-165587142D02*
X184222380Y-165587142D01*
X184365238Y-165491904D01*
X184460476Y-165396666D01*
X184508095Y-165301428D01*
%TO.C,J12*%
X260222380Y-163920476D02*
X260936666Y-163920476D01*
X261079523Y-163872857D01*
X261174761Y-163777619D01*
X261222380Y-163634761D01*
X261222380Y-163539523D01*
X261222380Y-164920476D02*
X261222380Y-164349047D01*
X261222380Y-164634761D02*
X260222380Y-164634761D01*
X260365238Y-164539523D01*
X260460476Y-164444285D01*
X260508095Y-164349047D01*
X260317619Y-165301428D02*
X260270000Y-165349047D01*
X260222380Y-165444285D01*
X260222380Y-165682380D01*
X260270000Y-165777619D01*
X260317619Y-165825238D01*
X260412857Y-165872857D01*
X260508095Y-165872857D01*
X260650952Y-165825238D01*
X261222380Y-165253809D01*
X261222380Y-165872857D01*
%TO.C,H3*%
X260761904Y-227452380D02*
X260761904Y-226452380D01*
X260761904Y-226928571D02*
X260190476Y-226928571D01*
X260190476Y-227452380D02*
X260190476Y-226452380D01*
X259809523Y-226452380D02*
X259190476Y-226452380D01*
X259523809Y-226833333D01*
X259380952Y-226833333D01*
X259285714Y-226880952D01*
X259238095Y-226928571D01*
X259190476Y-227023809D01*
X259190476Y-227261904D01*
X259238095Y-227357142D01*
X259285714Y-227404761D01*
X259380952Y-227452380D01*
X259666666Y-227452380D01*
X259761904Y-227404761D01*
X259809523Y-227357142D01*
%TO.C,H4*%
X45261904Y-227452380D02*
X45261904Y-226452380D01*
X45261904Y-226928571D02*
X44690476Y-226928571D01*
X44690476Y-227452380D02*
X44690476Y-226452380D01*
X43785714Y-226785714D02*
X43785714Y-227452380D01*
X44023809Y-226404761D02*
X44261904Y-227119047D01*
X43642857Y-227119047D01*
%TO.C,P1*%
X49122380Y-209261904D02*
X48122380Y-209261904D01*
X48122380Y-209642857D01*
X48170000Y-209738095D01*
X48217619Y-209785714D01*
X48312857Y-209833333D01*
X48455714Y-209833333D01*
X48550952Y-209785714D01*
X48598571Y-209738095D01*
X48646190Y-209642857D01*
X48646190Y-209261904D01*
X49122380Y-210785714D02*
X49122380Y-210214285D01*
X49122380Y-210500000D02*
X48122380Y-210500000D01*
X48265238Y-210404761D01*
X48360476Y-210309523D01*
X48408095Y-210214285D01*
%TO.C,P2*%
X49122380Y-191261904D02*
X48122380Y-191261904D01*
X48122380Y-191642857D01*
X48170000Y-191738095D01*
X48217619Y-191785714D01*
X48312857Y-191833333D01*
X48455714Y-191833333D01*
X48550952Y-191785714D01*
X48598571Y-191738095D01*
X48646190Y-191642857D01*
X48646190Y-191261904D01*
X48217619Y-192214285D02*
X48170000Y-192261904D01*
X48122380Y-192357142D01*
X48122380Y-192595238D01*
X48170000Y-192690476D01*
X48217619Y-192738095D01*
X48312857Y-192785714D01*
X48408095Y-192785714D01*
X48550952Y-192738095D01*
X49122380Y-192166666D01*
X49122380Y-192785714D01*
%TO.C,P3*%
X49122380Y-173261904D02*
X48122380Y-173261904D01*
X48122380Y-173642857D01*
X48170000Y-173738095D01*
X48217619Y-173785714D01*
X48312857Y-173833333D01*
X48455714Y-173833333D01*
X48550952Y-173785714D01*
X48598571Y-173738095D01*
X48646190Y-173642857D01*
X48646190Y-173261904D01*
X48122380Y-174166666D02*
X48122380Y-174785714D01*
X48503333Y-174452380D01*
X48503333Y-174595238D01*
X48550952Y-174690476D01*
X48598571Y-174738095D01*
X48693809Y-174785714D01*
X48931904Y-174785714D01*
X49027142Y-174738095D01*
X49074761Y-174690476D01*
X49122380Y-174595238D01*
X49122380Y-174309523D01*
X49074761Y-174214285D01*
X49027142Y-174166666D01*
%TO.C,R6*%
X66356666Y-155452380D02*
X66690000Y-154976190D01*
X66928095Y-155452380D02*
X66928095Y-154452380D01*
X66547142Y-154452380D01*
X66451904Y-154500000D01*
X66404285Y-154547619D01*
X66356666Y-154642857D01*
X66356666Y-154785714D01*
X66404285Y-154880952D01*
X66451904Y-154928571D01*
X66547142Y-154976190D01*
X66928095Y-154976190D01*
X65499523Y-154452380D02*
X65690000Y-154452380D01*
X65785238Y-154500000D01*
X65832857Y-154547619D01*
X65928095Y-154690476D01*
X65975714Y-154880952D01*
X65975714Y-155261904D01*
X65928095Y-155357142D01*
X65880476Y-155404761D01*
X65785238Y-155452380D01*
X65594761Y-155452380D01*
X65499523Y-155404761D01*
X65451904Y-155357142D01*
X65404285Y-155261904D01*
X65404285Y-155023809D01*
X65451904Y-154928571D01*
X65499523Y-154880952D01*
X65594761Y-154833333D01*
X65785238Y-154833333D01*
X65880476Y-154880952D01*
X65928095Y-154928571D01*
X65975714Y-155023809D01*
%TO.C,T1*%
X144721904Y-151502380D02*
X144150476Y-151502380D01*
X144436190Y-152502380D02*
X144436190Y-151502380D01*
X143293333Y-152502380D02*
X143864761Y-152502380D01*
X143579047Y-152502380D02*
X143579047Y-151502380D01*
X143674285Y-151645238D01*
X143769523Y-151740476D01*
X143864761Y-151788095D01*
%TO.C,T2*%
X161721904Y-151502380D02*
X161150476Y-151502380D01*
X161436190Y-152502380D02*
X161436190Y-151502380D01*
X160864761Y-151597619D02*
X160817142Y-151550000D01*
X160721904Y-151502380D01*
X160483809Y-151502380D01*
X160388571Y-151550000D01*
X160340952Y-151597619D01*
X160293333Y-151692857D01*
X160293333Y-151788095D01*
X160340952Y-151930952D01*
X160912380Y-152502380D01*
X160293333Y-152502380D01*
%TO.C,R2*%
X114666666Y-226452380D02*
X115000000Y-225976190D01*
X115238095Y-226452380D02*
X115238095Y-225452380D01*
X114857142Y-225452380D01*
X114761904Y-225500000D01*
X114714285Y-225547619D01*
X114666666Y-225642857D01*
X114666666Y-225785714D01*
X114714285Y-225880952D01*
X114761904Y-225928571D01*
X114857142Y-225976190D01*
X115238095Y-225976190D01*
X114285714Y-225547619D02*
X114238095Y-225500000D01*
X114142857Y-225452380D01*
X113904761Y-225452380D01*
X113809523Y-225500000D01*
X113761904Y-225547619D01*
X113714285Y-225642857D01*
X113714285Y-225738095D01*
X113761904Y-225880952D01*
X114333333Y-226452380D01*
X113714285Y-226452380D01*
%TO.C,H6*%
X194761904Y-190452380D02*
X194761904Y-189452380D01*
X194761904Y-189928571D02*
X194190476Y-189928571D01*
X194190476Y-190452380D02*
X194190476Y-189452380D01*
X193285714Y-189452380D02*
X193476190Y-189452380D01*
X193571428Y-189500000D01*
X193619047Y-189547619D01*
X193714285Y-189690476D01*
X193761904Y-189880952D01*
X193761904Y-190261904D01*
X193714285Y-190357142D01*
X193666666Y-190404761D01*
X193571428Y-190452380D01*
X193380952Y-190452380D01*
X193285714Y-190404761D01*
X193238095Y-190357142D01*
X193190476Y-190261904D01*
X193190476Y-190023809D01*
X193238095Y-189928571D01*
X193285714Y-189880952D01*
X193380952Y-189833333D01*
X193571428Y-189833333D01*
X193666666Y-189880952D01*
X193714285Y-189928571D01*
X193761904Y-190023809D01*
%TO.C,H5*%
X119761904Y-190452380D02*
X119761904Y-189452380D01*
X119761904Y-189928571D02*
X119190476Y-189928571D01*
X119190476Y-190452380D02*
X119190476Y-189452380D01*
X118238095Y-189452380D02*
X118714285Y-189452380D01*
X118761904Y-189928571D01*
X118714285Y-189880952D01*
X118619047Y-189833333D01*
X118380952Y-189833333D01*
X118285714Y-189880952D01*
X118238095Y-189928571D01*
X118190476Y-190023809D01*
X118190476Y-190261904D01*
X118238095Y-190357142D01*
X118285714Y-190404761D01*
X118380952Y-190452380D01*
X118619047Y-190452380D01*
X118714285Y-190404761D01*
X118761904Y-190357142D01*
%TO.C,R1*%
X189666666Y-226452380D02*
X190000000Y-225976190D01*
X190238095Y-226452380D02*
X190238095Y-225452380D01*
X189857142Y-225452380D01*
X189761904Y-225500000D01*
X189714285Y-225547619D01*
X189666666Y-225642857D01*
X189666666Y-225785714D01*
X189714285Y-225880952D01*
X189761904Y-225928571D01*
X189857142Y-225976190D01*
X190238095Y-225976190D01*
X188714285Y-226452380D02*
X189285714Y-226452380D01*
X189000000Y-226452380D02*
X189000000Y-225452380D01*
X189095238Y-225595238D01*
X189190476Y-225690476D01*
X189285714Y-225738095D01*
%TD*%
M02*
