M48
; DRILL file {KiCad (6.0.11)} date Fri Nov 10 18:54:12 2023
; FORMAT={-:-/ absolute / inch / decimal}
; #@! TF.CreationDate,2023-11-10T18:54:12-05:00
; #@! TF.GenerationSoftware,Kicad,Pcbnew,(6.0.11)
; #@! TF.FileFunction,Plated,1,2,PTH
FMAT,2
INCH
; #@! TA.AperFunction,Plated,PTH,ComponentDrill
T1C0.0118
; #@! TA.AperFunction,Plated,PTH,ViaDrill
T2C0.0157
; #@! TA.AperFunction,Plated,PTH,ComponentDrill
T3C0.0315
; #@! TA.AperFunction,Plated,PTH,ComponentDrill
T4C0.0354
; #@! TA.AperFunction,Plated,PTH,ComponentDrill
T5C0.0394
; #@! TA.AperFunction,Plated,PTH,ComponentDrill
T6C0.1260
%
G90
G05
T1
X4.0945Y-4.5138
X4.0945Y-4.561
X5.315Y-4.6319
X5.315Y-4.6791
X6.9094Y-7.4961
X6.9094Y-7.5433
T2
X2.2149Y-7.9906
X2.997Y-4.4608
X3.8002Y-7.4966
X3.8646Y-4.5184
X4.0038Y-6.8392
X4.2891Y-4.4639
X4.3106Y-8.1164
X4.3429Y-3.3749
X4.3543Y-6.0906
X4.3748Y-4.4731
X4.393Y-4.28
X4.4164Y-3.4095
X4.4481Y-4.2525
X4.4912Y-3.3665
X4.5179Y-4.157
X4.523Y-3.3905
X4.6203Y-5.8762
X4.6385Y-5.2408
X4.6408Y-4.3263
X4.694Y-4.9853
X4.6963Y-4.8241
X4.8636Y-3.9255
X5.0579Y-6.5586
X5.1066Y-5.1081
X5.1496Y-5.7803
X5.1868Y-4.7199
X5.1949Y-5.2397
X5.2051Y-5.7431
X5.2215Y-4.8262
X5.254Y-5.3857
X5.38Y-8.3803
X5.3995Y-4.8262
X5.4103Y-5.3471
X5.486Y-6.4292
X5.6069Y-6.5592
X5.6626Y-6.4751
X5.7171Y-8.1133
X5.8935Y-8.1946
X5.9522Y-4.6261
X6.1184Y-5.8983
X6.1283Y-5.8585
X6.1492Y-4.4918
X6.2181Y-4.3618
X6.2267Y-4.3219
X6.2493Y-5.3135
X6.3305Y-5.2948
X6.3318Y-5.3802
X6.3715Y-5.3958
X6.3821Y-4.3904
X6.5206Y-4.2933
X6.6336Y-7.9111
X6.6893Y-4.4233
X6.7828Y-5.0103
X6.8311Y-3.6388
X6.8503Y-5.7487
X6.8736Y-4.6993
X6.9672Y-8.2249
X7.0734Y-4.695
X7.1145Y-8.1483
X7.2994Y-3.5477
X7.3779Y-3.6007
X7.3803Y-3.5289
X7.4585Y-3.597
X7.5246Y-3.5779
X7.5579Y-6.4292
X7.6138Y-4.3198
X7.8369Y-4.3495
X7.9211Y-6.2298
X7.9844Y-5.2282
X8.0322Y-5.2978
X8.074Y-5.2865
X8.3293Y-5.362
X8.3408Y-5.2831
X8.4722Y-7.9336
X8.5551Y-7.5332
X8.646Y-3.2812
X8.6607Y-4.4769
X8.7178Y-4.9107
X8.7481Y-4.94
X8.7555Y-5.0669
X8.8038Y-5.1255
X8.8089Y-5.1743
X8.8475Y-4.8095
X8.8903Y-3.149
X8.9014Y-3.2547
X9.0654Y-4.7029
X9.0795Y-5.6471
X9.08Y-3.4255
X9.0968Y-4.7359
X9.1746Y-4.0924
X9.2143Y-5.6761
X9.2649Y-4.0317
X9.3794Y-4.9768
X9.4697Y-5.2955
X9.6448Y-6.335
T3
X1.6535Y-7.2441
X1.6535Y-7.4409
X1.811Y-8.4646
X1.8504Y-7.1409
X1.8504Y-7.4409
X1.9094Y-8.4646
X1.9504Y-7.1409
X1.9504Y-7.4409
X1.9685Y-7.874
X1.9685Y-8.0709
X2.0504Y-7.1409
X2.0504Y-7.4409
X2.1504Y-7.1409
X2.1504Y-7.4409
X2.1654Y-7.7709
X2.1654Y-8.0709
X2.1654Y-8.2677
X2.2504Y-7.1409
X2.2504Y-7.4409
X2.2654Y-7.7709
X2.2654Y-8.0709
X2.2654Y-8.2677
X2.3504Y-7.1409
X2.3504Y-7.4409
X2.3654Y-7.7709
X2.3654Y-8.0709
X2.3654Y-8.2677
X2.4504Y-7.1409
X2.4504Y-7.4409
X2.4606Y-3.4646
X2.4654Y-7.7709
X2.4654Y-8.0709
X2.4654Y-8.2677
X2.5606Y-3.4646
X2.5654Y-7.7709
X2.5654Y-8.0709
X2.5654Y-8.2677
X2.6606Y-3.4646
X2.6654Y-7.7709
X2.6654Y-8.0709
X2.6654Y-8.2677
X2.7165Y-7.2441
X2.7165Y-7.4409
X2.7559Y-4.5276
X2.7559Y-4.7244
X2.7559Y-5.315
X2.7559Y-5.5118
X2.7559Y-6.1024
X2.7559Y-6.2992
X2.7606Y-3.4646
X2.7654Y-7.7709
X2.7654Y-8.0709
X2.7654Y-8.2677
X2.8606Y-3.4646
X2.8654Y-7.7709
X2.8654Y-8.0709
X2.8654Y-8.2677
X2.9134Y-7.1409
X2.9134Y-7.4409
X2.9528Y-4.252
X2.9528Y-4.4244
X2.9528Y-4.7244
X2.9528Y-4.9213
X2.9528Y-5.2118
X2.9528Y-5.5118
X2.9528Y-5.8268
X2.9528Y-5.9992
X2.9528Y-6.2992
X2.9528Y-6.4961
X2.9606Y-3.4646
X2.9654Y-8.2677
X3.0134Y-7.1409
X3.0134Y-7.4409
X3.0528Y-4.4244
X3.0528Y-4.7244
X3.0528Y-5.2118
X3.0528Y-5.5118
X3.0528Y-5.9992
X3.0528Y-6.2992
X3.0606Y-3.4646
X3.1134Y-7.1409
X3.1134Y-7.4409
X3.1496Y-4.252
X3.1496Y-4.9213
X3.1496Y-5.8268
X3.1496Y-6.4961
X3.1496Y-7.874
X3.1496Y-8.0709
X3.1528Y-4.4244
X3.1528Y-4.7244
X3.1528Y-5.2118
X3.1528Y-5.5118
X3.1528Y-5.9992
X3.1528Y-6.2992
X3.1606Y-3.4646
X3.2134Y-7.1409
X3.2134Y-7.4409
X3.2528Y-4.4244
X3.2528Y-4.7244
X3.2528Y-5.2118
X3.2528Y-5.5118
X3.2528Y-5.9992
X3.2528Y-6.2992
X3.2606Y-3.4646
X3.2677Y-4.252
X3.2677Y-4.9213
X3.2677Y-5.8268
X3.2677Y-6.4961
X3.3134Y-7.1409
X3.3134Y-7.4409
X3.3465Y-7.7709
X3.3465Y-8.0709
X3.3528Y-4.4244
X3.3528Y-4.7244
X3.3528Y-5.2118
X3.3528Y-5.5118
X3.3528Y-5.9992
X3.3528Y-6.2992
X3.4134Y-7.1409
X3.4134Y-7.4409
X3.4465Y-7.7709
X3.4465Y-8.0709
X3.4528Y-4.4244
X3.4528Y-4.7244
X3.4528Y-5.2118
X3.4528Y-5.5118
X3.4528Y-5.9992
X3.4528Y-6.2992
X3.4646Y-4.252
X3.4646Y-4.9213
X3.4646Y-5.8268
X3.4646Y-6.4961
X3.5134Y-7.1409
X3.5134Y-7.4409
X3.5465Y-7.7709
X3.5465Y-8.0709
X3.5528Y-4.4244
X3.5528Y-4.7244
X3.5528Y-5.2118
X3.5528Y-5.5118
X3.5528Y-5.9992
X3.5528Y-6.2992
X3.6134Y-7.1409
X3.6134Y-7.4409
X3.6465Y-7.7709
X3.6465Y-8.0709
X3.6528Y-4.4244
X3.6528Y-4.7244
X3.6528Y-5.9992
X3.6528Y-6.2992
X3.7134Y-7.1409
X3.7134Y-7.4409
X3.7465Y-7.7709
X3.7465Y-8.0709
X3.8134Y-7.1409
X3.8134Y-7.4409
X3.8189Y-7.5984
X3.8465Y-7.7709
X3.8465Y-8.0709
X3.9465Y-7.7709
X3.9465Y-8.0709
X4.0465Y-7.7709
X4.0465Y-8.0709
X4.0945Y-7.2441
X4.0945Y-7.4409
X4.1189Y-7.5984
X4.1339Y-4.252
X4.1339Y-6.1024
X4.1339Y-6.2992
X4.1465Y-7.7709
X4.1465Y-8.0709
X4.2465Y-7.7709
X4.2465Y-8.0709
X4.3307Y-4.252
X4.3307Y-5.9992
X4.3307Y-6.2992
X4.3638Y-4.5669
X4.3638Y-4.6669
X4.3638Y-4.7669
X4.3638Y-4.8669
X4.3638Y-4.9669
X4.3638Y-5.0669
X4.4307Y-5.9992
X4.4307Y-6.2992
X4.4638Y-4.4669
X4.4638Y-4.5669
X4.4638Y-4.6669
X4.4638Y-4.7669
X4.4638Y-4.8669
X4.4638Y-4.9669
X4.4638Y-5.0669
X4.4638Y-5.1669
X4.5276Y-7.874
X4.5276Y-8.0709
X4.5276Y-8.4646
X4.5307Y-5.9992
X4.5307Y-6.2992
X4.5638Y-4.4669
X4.5638Y-4.5669
X4.5638Y-5.0669
X4.5638Y-5.1669
X4.626Y-8.4646
X4.6307Y-5.9992
X4.6307Y-6.2992
X4.6638Y-4.4669
X4.6638Y-4.5669
X4.6638Y-5.0669
X4.6638Y-5.1669
X4.7244Y-7.7709
X4.7244Y-8.0709
X4.7307Y-5.9992
X4.7307Y-6.2992
X4.7638Y-4.4669
X4.7638Y-4.5669
X4.7638Y-5.0669
X4.7638Y-5.1669
X4.8244Y-7.7709
X4.8244Y-8.0709
X4.8307Y-5.9992
X4.8307Y-6.2992
X4.8638Y-4.4669
X4.8638Y-4.5669
X4.8638Y-5.0669
X4.8638Y-5.1669
X4.9244Y-7.7709
X4.9244Y-8.0709
X4.9307Y-5.9992
X4.9307Y-6.2992
X4.9638Y-4.4669
X4.9638Y-4.5669
X4.9638Y-4.6669
X4.9638Y-4.7669
X4.9638Y-4.8669
X4.9638Y-4.9669
X4.9638Y-5.0669
X4.9638Y-5.1669
X5.0244Y-7.7709
X5.0244Y-8.0709
X5.0307Y-5.9992
X5.0307Y-6.2992
X5.0638Y-4.5669
X5.0638Y-4.6669
X5.0638Y-4.7669
X5.0638Y-4.8669
X5.0638Y-4.9669
X5.0638Y-5.0669
X5.1244Y-7.7709
X5.1244Y-8.0709
X5.1307Y-5.9992
X5.1307Y-6.2992
X5.2244Y-7.7709
X5.2244Y-8.0709
X5.2307Y-5.9992
X5.2307Y-6.2992
X5.3244Y-7.7709
X5.3244Y-8.0709
X5.3307Y-5.9992
X5.3307Y-6.2992
X5.4244Y-7.7709
X5.4244Y-8.0709
X5.4307Y-5.9992
X5.4307Y-6.2992
X5.5244Y-7.7709
X5.5244Y-8.0709
X5.6244Y-7.7709
X5.6244Y-8.0709
X5.7087Y-6.1024
X5.7087Y-6.2992
X5.8992Y-4.5669
X5.8992Y-4.6669
X5.8992Y-4.7669
X5.8992Y-4.8669
X5.8992Y-4.9669
X5.8992Y-5.0669
X5.9055Y-5.9992
X5.9055Y-6.2992
X5.9055Y-7.874
X5.9055Y-8.0709
X5.9992Y-4.4669
X5.9992Y-4.5669
X5.9992Y-4.6669
X5.9992Y-4.7669
X5.9992Y-4.8669
X5.9992Y-4.9669
X5.9992Y-5.0669
X5.9992Y-5.1669
X6.0055Y-5.9992
X6.0055Y-6.2992
X6.0992Y-4.4669
X6.0992Y-4.5669
X6.0992Y-5.0669
X6.0992Y-5.1669
X6.1024Y-7.7709
X6.1024Y-8.0709
X6.1024Y-8.2677
X6.1055Y-5.9992
X6.1055Y-6.2992
X6.1992Y-4.4669
X6.1992Y-4.5669
X6.1992Y-5.0669
X6.1992Y-5.1669
X6.2024Y-7.7709
X6.2024Y-8.0709
X6.2024Y-8.2677
X6.2055Y-5.9992
X6.2055Y-6.2992
X6.2992Y-4.4669
X6.2992Y-4.5669
X6.2992Y-5.0669
X6.2992Y-5.1669
X6.3024Y-7.7709
X6.3024Y-8.0709
X6.3024Y-8.2677
X6.3055Y-5.9992
X6.3055Y-6.2992
X6.3992Y-4.4669
X6.3992Y-4.5669
X6.3992Y-5.0669
X6.3992Y-5.1669
X6.4024Y-7.7709
X6.4024Y-8.0709
X6.4024Y-8.2677
X6.4055Y-5.9992
X6.4055Y-6.2992
X6.4992Y-4.4669
X6.4992Y-4.5669
X6.4992Y-4.6669
X6.4992Y-4.7669
X6.4992Y-4.8669
X6.4992Y-4.9669
X6.4992Y-5.0669
X6.4992Y-5.1669
X6.5024Y-7.7709
X6.5024Y-8.0709
X6.5024Y-8.2677
X6.5055Y-5.9992
X6.5055Y-6.2992
X6.5992Y-4.5669
X6.5992Y-4.6669
X6.5992Y-4.7669
X6.5992Y-4.8669
X6.5992Y-4.9669
X6.5992Y-5.0669
X6.6024Y-7.7709
X6.6024Y-8.0709
X6.6024Y-8.2677
X6.7024Y-7.7709
X6.7024Y-8.0709
X6.7024Y-8.2677
X6.7717Y-6.1024
X6.7717Y-6.2992
X6.8024Y-7.7709
X6.8024Y-8.0709
X6.8024Y-8.2677
X6.811Y-4.4882
X6.811Y-4.685
X6.9024Y-7.7709
X6.9024Y-8.0709
X6.9024Y-8.2677
X6.9685Y-5.9992
X6.9685Y-6.2992
X7.0024Y-7.7709
X7.0024Y-8.0709
X7.0685Y-5.9992
X7.0685Y-6.2992
X7.1685Y-5.9992
X7.1685Y-6.2992
X7.2685Y-5.9992
X7.2685Y-6.2992
X7.3685Y-5.9992
X7.3685Y-6.2992
X7.3953Y-4.5669
X7.3953Y-4.6669
X7.3953Y-4.7669
X7.3953Y-4.8669
X7.3953Y-4.9669
X7.3953Y-5.0669
X7.4685Y-5.9992
X7.4685Y-6.2992
X7.4803Y-7.874
X7.4803Y-8.0709
X7.4803Y-8.4646
X7.4953Y-4.4669
X7.4953Y-4.5669
X7.4953Y-4.6669
X7.4953Y-4.7669
X7.4953Y-4.8669
X7.4953Y-4.9669
X7.4953Y-5.0669
X7.4953Y-5.1669
X7.5685Y-5.9992
X7.5685Y-6.2992
X7.5787Y-8.4646
X7.5953Y-4.4669
X7.5953Y-4.5669
X7.5953Y-5.0669
X7.5953Y-5.1669
X7.6772Y-7.7709
X7.6772Y-8.0709
X7.6772Y-8.2677
X7.6953Y-4.4669
X7.6953Y-4.5669
X7.6953Y-5.0669
X7.6953Y-5.1669
X7.7772Y-7.7709
X7.7772Y-8.0709
X7.7772Y-8.2677
X7.7953Y-4.4669
X7.7953Y-4.5669
X7.7953Y-5.0669
X7.7953Y-5.1669
X7.874Y-5.6055
X7.874Y-5.9055
X7.874Y-5.9992
X7.874Y-6.2992
X7.8772Y-7.7709
X7.8772Y-8.0709
X7.8772Y-8.2677
X7.8953Y-4.4669
X7.8953Y-4.5669
X7.8953Y-5.0669
X7.8953Y-5.1669
X7.9772Y-7.7709
X7.9772Y-8.0709
X7.9772Y-8.2677
X7.9953Y-4.4669
X7.9953Y-4.5669
X7.9953Y-4.6669
X7.9953Y-4.7669
X7.9953Y-4.8669
X7.9953Y-4.9669
X7.9953Y-5.0669
X7.9953Y-5.1669
X8.0772Y-7.7709
X8.0772Y-8.0709
X8.0772Y-8.2677
X8.0953Y-4.5669
X8.0953Y-4.6669
X8.0953Y-4.7669
X8.0953Y-4.8669
X8.0953Y-4.9669
X8.0953Y-5.0669
X8.1772Y-7.7709
X8.1772Y-8.0709
X8.1772Y-8.2677
X8.2772Y-7.7709
X8.2772Y-8.0709
X8.2772Y-8.2677
X8.3465Y-4.9213
X8.3465Y-5.1181
X8.3772Y-7.7709
X8.3772Y-8.0709
X8.3772Y-8.2677
X8.4772Y-7.7709
X8.4772Y-8.0709
X8.4772Y-8.2677
X8.5772Y-7.7709
X8.5772Y-8.0709
X8.8913Y-4.5669
X8.8913Y-4.6669
X8.8913Y-4.7669
X8.8913Y-4.8669
X8.8913Y-4.9669
X8.8913Y-5.0669
X8.8913Y-5.8268
X8.8913Y-5.9268
X8.8913Y-6.0268
X8.8913Y-6.1268
X8.8913Y-6.2268
X8.8913Y-6.3268
X8.9913Y-4.4669
X8.9913Y-4.5669
X8.9913Y-4.6669
X8.9913Y-4.7669
X8.9913Y-4.8669
X8.9913Y-4.9669
X8.9913Y-5.0669
X8.9913Y-5.1669
X8.9913Y-5.7268
X8.9913Y-5.8268
X8.9913Y-5.9268
X8.9913Y-6.0268
X8.9913Y-6.1268
X8.9913Y-6.2268
X8.9913Y-6.3268
X8.9913Y-6.4268
X9.0551Y-7.874
X9.0551Y-8.0709
X9.0913Y-4.4669
X9.0913Y-4.5669
X9.0913Y-5.0669
X9.0913Y-5.1669
X9.0913Y-5.7268
X9.0913Y-5.8268
X9.0913Y-6.3268
X9.0913Y-6.4268
X9.1913Y-4.4669
X9.1913Y-4.5669
X9.1913Y-5.0669
X9.1913Y-5.1669
X9.1913Y-5.7268
X9.1913Y-5.8268
X9.1913Y-6.3268
X9.1913Y-6.4268
X9.252Y-7.7709
X9.252Y-8.0709
X9.2913Y-4.4669
X9.2913Y-4.5669
X9.2913Y-5.0669
X9.2913Y-5.1669
X9.2913Y-5.7268
X9.2913Y-5.8268
X9.2913Y-6.3268
X9.2913Y-6.4268
X9.352Y-7.7709
X9.352Y-8.0709
X9.3913Y-4.4669
X9.3913Y-4.5669
X9.3913Y-5.0669
X9.3913Y-5.1669
X9.3913Y-5.7268
X9.3913Y-5.8268
X9.3913Y-6.3268
X9.3913Y-6.4268
X9.452Y-7.7709
X9.452Y-8.0709
X9.4913Y-4.4669
X9.4913Y-4.5669
X9.4913Y-4.6669
X9.4913Y-4.7669
X9.4913Y-4.8669
X9.4913Y-4.9669
X9.4913Y-5.0669
X9.4913Y-5.1669
X9.4913Y-5.7268
X9.4913Y-5.8268
X9.4913Y-5.9268
X9.4913Y-6.0268
X9.4913Y-6.1268
X9.4913Y-6.2268
X9.4913Y-6.3268
X9.4913Y-6.4268
X9.552Y-7.7709
X9.552Y-8.0709
X9.5913Y-4.5669
X9.5913Y-4.6669
X9.5913Y-4.7669
X9.5913Y-4.8669
X9.5913Y-4.9669
X9.5913Y-5.0669
X9.5913Y-5.8268
X9.5913Y-5.9268
X9.5913Y-6.0268
X9.5913Y-6.1268
X9.5913Y-6.2268
X9.5913Y-6.3268
X9.652Y-7.7709
X9.652Y-8.0709
X9.752Y-7.7709
X9.752Y-8.0709
X9.8425Y-4.9213
X9.8425Y-5.1181
X9.8425Y-5.9449
X9.8425Y-6.1417
X9.852Y-7.7709
X9.852Y-8.0709
X9.952Y-7.7709
X9.952Y-8.0709
X10.052Y-7.7709
X10.052Y-8.0709
X10.152Y-7.7709
X10.152Y-8.0709
T4
X1.8685Y-3.189
X1.9685Y-3.189
X2.2622Y-3.189
X2.3622Y-3.189
X2.6559Y-3.189
X2.7559Y-3.189
X3.0496Y-3.189
X3.1496Y-3.189
T5
X1.6535Y-7.7559
X1.6535Y-7.8559
X1.6535Y-7.9559
X1.6535Y-8.0559
X1.7535Y-7.7559
X1.7535Y-7.8559
X1.7535Y-7.9559
X1.7535Y-8.0559
X1.852Y-8.7795
X1.852Y-8.8795
X1.952Y-8.7795
X1.952Y-8.8795
X1.9685Y-7.6181
X1.9685Y-7.7181
X2.0472Y-8.6024
X2.052Y-8.7795
X2.052Y-8.8795
X2.1472Y-8.6024
X2.152Y-8.7795
X2.152Y-8.8795
X2.2472Y-8.6024
X2.252Y-8.7795
X2.252Y-8.8795
X2.3472Y-8.6024
X2.352Y-8.7795
X2.352Y-8.8795
X2.452Y-8.7795
X2.452Y-8.8795
X2.552Y-8.7795
X2.552Y-8.8795
X2.652Y-8.7795
X2.652Y-8.8795
X2.752Y-8.7795
X2.752Y-8.8795
X2.852Y-8.7795
X2.852Y-8.8795
X2.952Y-8.7795
X2.952Y-8.8795
X3.052Y-8.7795
X3.052Y-8.8795
X3.152Y-8.7795
X3.152Y-8.8795
X3.252Y-8.7795
X3.252Y-8.8795
X3.2677Y-8.2677
X3.352Y-8.7795
X3.352Y-8.8795
X3.3677Y-8.2677
X3.452Y-8.7795
X3.452Y-8.8795
X3.4677Y-8.2677
X3.552Y-8.7795
X3.552Y-8.8795
X3.652Y-8.7795
X3.652Y-8.8795
X3.752Y-8.7795
X3.752Y-8.8795
X3.852Y-8.7795
X3.852Y-8.8795
X3.952Y-8.7795
X3.952Y-8.8795
X4.0244Y-3.8764
X4.0244Y-3.9764
X4.052Y-8.7795
X4.052Y-8.8795
X4.0807Y-3.2071
X4.0807Y-3.3071
X4.1244Y-3.8764
X4.1244Y-3.9764
X4.152Y-8.7795
X4.152Y-8.8795
X4.1807Y-3.2071
X4.1807Y-3.3071
X4.2244Y-3.8764
X4.2244Y-3.9764
X4.252Y-8.7795
X4.252Y-8.8795
X4.2807Y-3.2071
X4.2807Y-3.3071
X4.3244Y-3.8764
X4.3244Y-3.9764
X4.3807Y-3.2071
X4.3807Y-3.3071
X4.4244Y-3.8764
X4.4244Y-3.9764
X4.4807Y-3.2071
X4.4807Y-3.3071
X4.5138Y-5.6087
X4.5138Y-5.7087
X4.5244Y-3.8764
X4.5244Y-3.9764
X4.5807Y-3.2071
X4.5807Y-3.3071
X4.6138Y-5.6087
X4.6138Y-5.7087
X4.6244Y-3.8764
X4.6244Y-3.9764
X4.7138Y-5.6087
X4.7138Y-5.7087
X4.7244Y-3.8764
X4.7244Y-3.9764
X4.7654Y-8.7795
X4.7654Y-8.8795
X4.8138Y-5.6087
X4.8138Y-5.7087
X4.8244Y-3.8764
X4.8244Y-3.9764
X4.8654Y-8.7795
X4.8654Y-8.8795
X4.9138Y-5.6087
X4.9138Y-5.7087
X4.9244Y-3.8764
X4.9244Y-3.9764
X4.9654Y-8.7795
X4.9654Y-8.8795
X5.0138Y-5.6087
X5.0138Y-5.7087
X5.0244Y-3.8764
X5.0244Y-3.9764
X5.0654Y-8.7795
X5.0654Y-8.8795
X5.1181Y-3.2071
X5.1181Y-3.3071
X5.1244Y-3.8764
X5.1244Y-3.9764
X5.1654Y-8.7795
X5.1654Y-8.8795
X5.2181Y-3.2071
X5.2181Y-3.3071
X5.2244Y-3.8764
X5.2244Y-3.9764
X5.2654Y-8.7795
X5.2654Y-8.8795
X5.3181Y-3.2071
X5.3181Y-3.3071
X5.3654Y-8.7795
X5.3654Y-8.8795
X5.4181Y-3.2071
X5.4181Y-3.3071
X5.4654Y-8.7795
X5.4654Y-8.8795
X5.5118Y-3.8764
X5.5118Y-3.9764
X5.5181Y-3.2071
X5.5181Y-3.3071
X5.5654Y-8.7795
X5.5654Y-8.8795
X5.6118Y-3.8764
X5.6118Y-3.9764
X5.6654Y-8.7795
X5.6654Y-8.8795
X5.7118Y-3.8764
X5.7118Y-3.9764
X5.7654Y-8.7795
X5.7654Y-8.8795
X5.8118Y-3.8764
X5.8118Y-3.9764
X5.8654Y-8.7795
X5.8654Y-8.8795
X5.9055Y-5.6087
X5.9055Y-5.7087
X5.9118Y-3.8764
X5.9118Y-3.9764
X5.9654Y-8.7795
X5.9654Y-8.8795
X6.0055Y-5.6087
X6.0055Y-5.7087
X6.063Y-3.2071
X6.063Y-3.3071
X6.0654Y-8.7795
X6.0654Y-8.8795
X6.1055Y-5.6087
X6.1055Y-5.7087
X6.163Y-3.2071
X6.163Y-3.3071
X6.1654Y-8.7795
X6.1654Y-8.8795
X6.2055Y-5.6087
X6.2055Y-5.7087
X6.263Y-3.2071
X6.263Y-3.3071
X6.2654Y-8.7795
X6.2654Y-8.8795
X6.2992Y-3.8764
X6.2992Y-3.9764
X6.2992Y-7.4591
X6.2992Y-7.5591
X6.3055Y-5.6087
X6.3055Y-5.7087
X6.363Y-3.2071
X6.363Y-3.3071
X6.3654Y-8.7795
X6.3654Y-8.8795
X6.3992Y-3.8764
X6.3992Y-3.9764
X6.3992Y-7.4591
X6.3992Y-7.5591
X6.4055Y-5.6087
X6.4055Y-5.7087
X6.463Y-3.2071
X6.463Y-3.3071
X6.4654Y-8.7795
X6.4654Y-8.8795
X6.4992Y-7.4591
X6.4992Y-7.5591
X6.5055Y-5.6087
X6.5055Y-5.7087
X6.5654Y-8.7795
X6.5654Y-8.8795
X6.5992Y-7.4591
X6.5992Y-7.5591
X6.6055Y-5.6087
X6.6055Y-5.7087
X6.6654Y-8.7795
X6.6654Y-8.8795
X6.7654Y-8.7795
X6.7654Y-8.8795
X6.8654Y-8.7795
X6.8654Y-8.8795
X6.9654Y-8.7795
X6.9654Y-8.8795
X7.0079Y-3.2071
X7.0079Y-3.3071
X7.0654Y-8.7795
X7.0654Y-8.8795
X7.1079Y-3.2071
X7.1079Y-3.3071
X7.1654Y-8.7795
X7.1654Y-8.8795
X7.2079Y-3.2071
X7.2079Y-3.3071
X7.3079Y-3.2071
X7.3079Y-3.3071
X7.4079Y-3.2071
X7.4079Y-3.3071
X7.5079Y-3.2071
X7.5079Y-3.3071
X7.6079Y-3.2071
X7.6079Y-3.3071
X7.7079Y-3.2071
X7.7079Y-3.3071
X7.7575Y-8.7795
X7.7575Y-8.8795
X7.8079Y-3.2071
X7.8079Y-3.3071
X7.8575Y-8.7795
X7.8575Y-8.8795
X7.874Y-7.4591
X7.874Y-7.5591
X7.9079Y-3.2071
X7.9079Y-3.3071
X7.9575Y-8.7795
X7.9575Y-8.8795
X7.974Y-7.4591
X7.974Y-7.5591
X8.0079Y-3.2071
X8.0079Y-3.3071
X8.0575Y-8.7795
X8.0575Y-8.8795
X8.074Y-7.4591
X8.074Y-7.5591
X8.1079Y-3.2071
X8.1079Y-3.3071
X8.1575Y-8.7795
X8.1575Y-8.8795
X8.174Y-7.4591
X8.174Y-7.5591
X8.2079Y-3.2071
X8.2079Y-3.3071
X8.247Y-5.6089
X8.247Y-5.7089
X8.2575Y-8.7795
X8.2575Y-8.8795
X8.274Y-7.4591
X8.274Y-7.5591
X8.347Y-5.6089
X8.347Y-5.7089
X8.3575Y-8.7795
X8.3575Y-8.8795
X8.374Y-7.4591
X8.374Y-7.5591
X8.447Y-5.6089
X8.447Y-5.7089
X8.4575Y-8.7795
X8.4575Y-8.8795
X8.5575Y-8.7795
X8.5575Y-8.8795
X8.6575Y-8.7795
X8.6575Y-8.8795
X8.7402Y-3.2071
X8.7402Y-3.3071
X8.7575Y-8.7795
X8.7575Y-8.8795
X8.8402Y-3.2071
X8.8402Y-3.3071
X8.8575Y-8.7795
X8.8575Y-8.8795
X8.9402Y-3.2071
X8.9402Y-3.3071
X8.9575Y-8.7795
X8.9575Y-8.8795
X9.0402Y-3.2071
X9.0402Y-3.3071
X9.0575Y-8.7795
X9.0575Y-8.8795
X9.1402Y-3.2071
X9.1402Y-3.3071
X9.1575Y-8.7795
X9.1575Y-8.8795
X9.2402Y-3.2071
X9.2402Y-3.3071
X9.2575Y-8.7795
X9.2575Y-8.8795
X9.3402Y-3.2071
X9.3402Y-3.3071
X9.3575Y-8.7795
X9.3575Y-8.8795
X9.4402Y-3.2071
X9.4402Y-3.3071
X9.4575Y-8.7795
X9.4575Y-8.8795
X9.5402Y-3.2071
X9.5402Y-3.3071
X9.5575Y-8.7795
X9.5575Y-8.8795
X9.6402Y-3.2071
X9.6402Y-3.3071
X9.6575Y-8.7795
X9.6575Y-8.8795
X9.7402Y-3.2071
X9.7402Y-3.3071
X9.7575Y-8.7795
X9.7575Y-8.8795
X9.8402Y-3.2071
X9.8402Y-3.3071
X9.8575Y-8.7795
X9.8575Y-8.8795
X9.9402Y-3.2071
X9.9402Y-3.3071
X9.9575Y-8.7795
X9.9575Y-8.8795
X10.0575Y-8.7795
X10.0575Y-8.8795
X10.1575Y-8.7795
X10.1575Y-8.8795
T6
X1.5748Y-2.9528
X10.4331Y-2.9528
T0
M30
