M48
; DRILL file {KiCad (6.0.11)} date Fri Dec 29 07:09:45 2023
; FORMAT={-:-/ absolute / inch / decimal}
; #@! TF.CreationDate,2023-12-29T07:09:45-06:00
; #@! TF.GenerationSoftware,Kicad,Pcbnew,(6.0.11)
; #@! TF.FileFunction,Plated,1,2,PTH
FMAT,2
INCH
; #@! TA.AperFunction,Plated,PTH,ComponentDrill
T1C0.0118
; #@! TA.AperFunction,Plated,PTH,ViaDrill
T2C0.0157
; #@! TA.AperFunction,Plated,PTH,ComponentDrill
T3C0.0295
; #@! TA.AperFunction,Plated,PTH,ComponentDrill
T4C0.0315
; #@! TA.AperFunction,Plated,PTH,ComponentDrill
T5C0.0354
; #@! TA.AperFunction,Plated,PTH,ComponentDrill
T6C0.0390
; #@! TA.AperFunction,Plated,PTH,ComponentDrill
T7C0.0394
; #@! TA.AperFunction,Plated,PTH,ComponentDrill
T8C0.0512
; #@! TA.AperFunction,Plated,PTH,ComponentDrill
T9C0.1260
%
G90
G05
T1
X5.8465Y-3.8642
X5.8465Y-3.9114
X7.8937Y-7.3484
X7.8937Y-7.3957
T2
X1.7841Y-7.3491
X1.8253Y-5.8958
X1.8581Y-6.6081
X1.8608Y-6.565
X2.0238Y-6.059
X2.121Y-5.1336
X2.1949Y-3.9832
X2.1994Y-7.1367
X2.2677Y-7.3491
X2.3021Y-6.5189
X2.3052Y-6.9252
X2.3601Y-6.8293
X2.4042Y-6.875
X2.502Y-8.5381
X2.5147Y-4.2623
X2.5934Y-6.1793
X2.6108Y-6.2681
X2.6976Y-6.5698
X2.703Y-5.7508
X2.7492Y-4.7947
X3.0297Y-5.9883
X3.1396Y-8.6351
X3.1399Y-8.0942
X3.152Y-5.9128
X3.1643Y-6.8021
X3.1836Y-8.3131
X3.228Y-6.2616
X3.2536Y-6.9016
X3.2628Y-8.4844
X3.3167Y-3.5531
X3.3468Y-6.1511
X3.4483Y-6.1537
X3.4566Y-7.2492
X3.478Y-5.6281
X3.5299Y-5.8555
X3.541Y-6.1822
X3.5489Y-3.6881
X3.6498Y-3.6021
X3.6758Y-5.87
X3.702Y-7.3133
X3.7448Y-6.8042
X3.8611Y-6.6135
X3.8992Y-5.8377
X4.0281Y-8.5317
X4.0288Y-8.6383
X4.1126Y-5.8768
X4.2204Y-8.2495
X4.2486Y-5.4126
X4.2632Y-6.4612
X4.3323Y-7.9426
X4.3736Y-8.0341
X4.4021Y-8.0613
X4.4261Y-4.2983
X4.4733Y-8.7216
X4.5675Y-4.2242
X4.5739Y-8.2136
X4.5892Y-6.4887
X4.596Y-7.2979
X4.597Y-6.5373
X4.6063Y-8.7795
X4.6605Y-5.0035
X4.6905Y-4.9416
X4.7481Y-7.9307
X4.7599Y-4.8718
X4.8582Y-3.9061
X4.8591Y-7.4974
X4.8636Y-3.9693
X4.8674Y-4.6338
X4.8753Y-4.0727
X4.8846Y-6.7434
X4.8936Y-7.5262
X4.9029Y-4.5133
X4.9115Y-4.5669
X4.9208Y-5.7826
X5.0208Y-5.3416
X5.0304Y-8.2165
X5.0473Y-5.3037
X5.0555Y-5.3712
X5.0574Y-5.5636
X5.0861Y-3.6788
X5.1062Y-7.2906
X5.1471Y-7.8043
X5.154Y-6.5657
X5.164Y-4.5586
X5.1794Y-5.4825
X5.1928Y-5.4401
X5.2138Y-8.2509
X5.2209Y-4.1884
X5.2238Y-7.134
X5.2381Y-3.6966
X5.2441Y-6.0999
X5.2529Y-7.284
X5.3329Y-8.16
X5.3496Y-6.8663
X5.363Y-8.4616
X5.3687Y-5.8883
X5.3719Y-7.4974
X5.4358Y-6.6168
X5.4523Y-5.7975
X5.482Y-6.2918
X5.484Y-6.1994
X5.5016Y-3.8014
X5.5412Y-7.2553
X5.55Y-5.1904
X5.5506Y-5.2325
X5.5626Y-6.0133
X5.7097Y-6.5915
X5.7142Y-5.8597
X5.7263Y-5.7193
X5.7327Y-3.6395
X5.7652Y-8.6712
X5.7662Y-6.9315
X5.7771Y-8.2704
X5.7858Y-5.7681
X5.7931Y-8.6434
X5.7988Y-4.7204
X5.7999Y-6.3412
X5.8318Y-6.1852
X5.8351Y-5.7313
X5.8396Y-8.2944
X5.8481Y-4.012
X5.8858Y-3.614
X5.8911Y-4.8669
X5.8938Y-4.7094
X5.8947Y-6.2301
X5.9476Y-4.1045
X5.9585Y-4.7331
X5.9637Y-3.8797
X5.9798Y-4.8445
X5.985Y-8.6913
X5.9876Y-4.77
X5.9894Y-4.4758
X5.9987Y-5.445
X6.0392Y-8.3161
X6.0409Y-4.6243
X6.0478Y-7.7709
X6.0564Y-8.7164
X6.0593Y-7.8122
X6.0635Y-6.0314
X6.0637Y-7.4637
X6.0924Y-8.2363
X6.098Y-3.5786
X6.1071Y-7.1539
X6.1071Y-7.273
X6.1401Y-8.3896
X6.1525Y-7.6319
X6.1585Y-5.896
X6.1634Y-8.5376
X6.1871Y-5.324
X6.1963Y-7.4332
X6.2112Y-5.1658
X6.2497Y-3.8136
X6.2559Y-8.2291
X6.2567Y-7.3185
X6.26Y-6.2346
X6.2672Y-7.4801
X6.2734Y-8.1837
X6.2798Y-5.7776
X6.2832Y-7.0537
X6.2835Y-7.7791
X6.2922Y-8.0228
X6.2926Y-6.8402
X6.3097Y-7.1335
X6.3103Y-8.0696
X6.3151Y-7.73
X6.3618Y-8.5019
X6.3658Y-6.4582
X6.366Y-8.1807
X6.3798Y-5.4261
X6.3837Y-8.1151
X6.3961Y-8.1552
X6.4198Y-8.3444
X6.4209Y-8.436
X6.4217Y-7.3475
X6.4654Y-5.8673
X6.475Y-3.3792
X6.4768Y-3.4204
X6.4893Y-8.1231
X6.4899Y-5.4235
X6.5028Y-6.3492
X6.5246Y-6.1428
X6.5338Y-8.08
X6.5874Y-8.2949
X6.5974Y-5.8642
X6.6003Y-5.3035
X6.6556Y-3.9176
X6.6894Y-6.7408
X6.7379Y-7.2668
X6.7582Y-6.1697
X6.765Y-6.7115
X6.899Y-6.7681
X6.9034Y-6.8662
X6.9092Y-7.835
X6.9264Y-4.7819
X6.9381Y-3.9073
X6.9419Y-3.4793
X6.9809Y-3.5357
X7.003Y-5.6831
X7.0145Y-3.8884
X7.0691Y-5.0989
X7.0749Y-7.5103
X7.218Y-7.4685
X7.3089Y-3.6476
X7.3475Y-3.6648
X7.4882Y-4.1049
X7.5213Y-4.0321
X7.5231Y-4.0749
X7.6422Y-6.4783
X7.676Y-6.3463
X7.7046Y-6.3769
X7.7239Y-6.9132
X7.732Y-3.8246
X7.7592Y-8.1734
X7.7677Y-8.2207
X7.8874Y-5.0693
X7.8904Y-6.8421
X7.942Y-7.752
X7.965Y-3.4563
X7.9959Y-8.1431
X8.0038Y-5.9835
X8.1279Y-3.9113
X8.1818Y-3.5295
X8.2292Y-3.6184
X8.2508Y-5.113
X8.2633Y-3.9336
X8.2895Y-3.8788
X8.3297Y-3.6039
X8.3402Y-6.4396
X8.3475Y-7.1349
X8.3576Y-6.0473
X8.4166Y-3.8621
X8.4192Y-7.9681
X8.4484Y-3.8296
X8.4507Y-5.1379
X8.5476Y-4.8859
X8.594Y-7.5047
X8.6105Y-6.4609
X8.6503Y-3.4538
X8.654Y-3.0339
X8.6738Y-5.2775
X8.7007Y-4.8285
X8.7025Y-3.1045
X8.7097Y-6.6401
X8.8241Y-6.463
X8.8912Y-3.5084
X8.8988Y-5.4097
X8.92Y-3.4796
X8.948Y-7.8155
X8.9485Y-6.8385
X8.9929Y-5.7806
X8.9932Y-5.2772
X8.9975Y-5.2203
X9.0136Y-8.1137
X9.1304Y-8.7068
X9.1478Y-6.9934
X9.1543Y-3.4534
X9.1572Y-3.1264
X9.2082Y-3.4529
X9.2533Y-7.1107
X9.2886Y-8.6752
X9.3264Y-7.9541
X9.3303Y-8.5069
X9.3533Y-7.1658
X9.4569Y-8.5069
X9.6291Y-8.1612
X9.7548Y-8.0316
X9.8044Y-8.2984
X9.8749Y-8.1444
T3
X1.8398Y-7.5563
X1.8898Y-7.5063
X1.8898Y-7.6063
T4
X1.6565Y-8.0413
X1.6901Y-8.6122
X1.6929Y-6.1567
X1.6929Y-6.3535
X1.6929Y-7.4094
X1.6929Y-7.6063
X1.6978Y-5.6417
X1.6978Y-5.8386
X1.703Y-4.1067
X1.703Y-4.3035
X1.703Y-4.6317
X1.703Y-4.8285
X1.703Y-5.1067
X1.703Y-5.3035
X1.703Y-6.7567
X1.703Y-6.9535
X1.7565Y-8.0413
X1.7886Y-8.6122
X1.8565Y-8.0413
X1.8898Y-6.1252
X1.8898Y-6.4252
X1.8898Y-6.7157
X1.8898Y-7.0157
X1.8998Y-5.0547
X1.8998Y-5.3547
X1.9028Y-4.0547
X1.9028Y-4.3547
X1.9028Y-4.5547
X1.9028Y-4.8547
X1.903Y-3.4801
X1.903Y-3.7801
X1.903Y-5.5801
X1.903Y-5.8801
X1.9565Y-8.0413
X1.9898Y-6.1252
X1.9898Y-6.4252
X1.9898Y-6.7157
X1.9898Y-7.0157
X1.9998Y-5.0547
X1.9998Y-5.3547
X2.0028Y-4.0547
X2.0028Y-4.3547
X2.0028Y-4.5547
X2.0028Y-4.8547
X2.003Y-5.5801
X2.003Y-5.8801
X2.0565Y-8.0413
X2.0898Y-6.1252
X2.0898Y-6.4252
X2.0898Y-6.7157
X2.0898Y-7.0157
X2.0998Y-5.0547
X2.0998Y-5.3547
X2.1028Y-4.0547
X2.1028Y-4.3547
X2.1028Y-4.5547
X2.1028Y-4.8547
X2.103Y-5.5801
X2.103Y-5.8801
X2.1565Y-8.0413
X2.1898Y-6.1252
X2.1898Y-6.4252
X2.1898Y-6.7157
X2.1898Y-7.0157
X2.1998Y-5.0547
X2.1998Y-5.3547
X2.2028Y-4.0547
X2.2028Y-4.3547
X2.2028Y-4.5547
X2.2028Y-4.8547
X2.203Y-5.5801
X2.203Y-5.8801
X2.2565Y-8.0413
X2.2898Y-6.1252
X2.2898Y-6.4252
X2.2898Y-6.7157
X2.2898Y-7.0157
X2.2998Y-5.0547
X2.2998Y-5.3547
X2.3028Y-4.0547
X2.3028Y-4.3547
X2.3028Y-4.5547
X2.3028Y-4.8547
X2.303Y-3.4801
X2.303Y-3.7801
X2.303Y-5.5801
X2.303Y-5.8801
X2.3565Y-8.0413
X2.3898Y-6.1252
X2.3898Y-6.4252
X2.3898Y-6.7157
X2.3898Y-7.0157
X2.3998Y-5.0547
X2.3998Y-5.3547
X2.4028Y-4.0547
X2.4028Y-4.3547
X2.4028Y-4.5547
X2.4028Y-4.8547
X2.403Y-5.5801
X2.403Y-5.8801
X2.4565Y-8.0413
X2.4898Y-6.1252
X2.4898Y-6.4252
X2.4898Y-6.7157
X2.4898Y-7.0157
X2.4998Y-5.0547
X2.4998Y-5.3547
X2.5028Y-4.0547
X2.5028Y-4.3547
X2.5028Y-4.5547
X2.5028Y-4.8547
X2.503Y-5.5801
X2.503Y-5.8801
X2.6779Y-6.4921
X2.703Y-3.4801
X2.703Y-3.7801
X2.728Y-6.1301
X2.7764Y-6.4921
X3.028Y-6.1301
X3.0344Y-6.9016
X3.0344Y-7.0984
X3.0344Y-7.4921
X3.0344Y-7.689
X3.0413Y-6.2815
X3.0413Y-6.4783
X3.103Y-3.4801
X3.103Y-3.7801
X3.178Y-5.3303
X3.178Y-5.5272
X3.2116Y-7.385
X3.2116Y-7.685
X3.2205Y-7.9134
X3.228Y-6.0801
X3.228Y-6.6801
X3.251Y-8.19
X3.251Y-8.3868
X3.303Y-4.3051
X3.303Y-4.502
X3.3116Y-7.385
X3.3116Y-7.685
X3.3205Y-7.9134
X3.328Y-6.0801
X3.328Y-6.6801
X3.4116Y-7.385
X3.4116Y-7.685
X3.4205Y-7.9134
X3.428Y-6.0801
X3.428Y-6.6801
X3.4281Y-8.0868
X3.4281Y-8.3868
X3.478Y-3.4801
X3.478Y-3.7801
X3.4915Y-4.2494
X3.4915Y-4.5494
X3.5116Y-7.385
X3.5116Y-7.685
X3.5205Y-7.9134
X3.528Y-6.0801
X3.528Y-6.6801
X3.5281Y-8.0868
X3.5281Y-8.3868
X3.5915Y-4.2494
X3.5915Y-4.5494
X3.6116Y-7.385
X3.6116Y-7.685
X3.6205Y-7.9134
X3.628Y-6.0801
X3.628Y-6.6801
X3.6281Y-8.0868
X3.6281Y-8.3868
X3.6783Y-5.1303
X3.6783Y-5.7303
X3.6915Y-4.2494
X3.6915Y-4.5494
X3.7116Y-7.385
X3.7116Y-7.685
X3.7205Y-7.9134
X3.728Y-6.0801
X3.728Y-6.6801
X3.7281Y-8.0868
X3.7281Y-8.3868
X3.7783Y-5.1303
X3.7783Y-5.7303
X3.7915Y-4.2494
X3.7915Y-4.5494
X3.8116Y-7.385
X3.8116Y-7.685
X3.8205Y-7.9134
X3.828Y-6.0801
X3.828Y-6.6801
X3.8281Y-8.0868
X3.8281Y-8.3868
X3.853Y-3.4801
X3.853Y-3.7801
X3.8783Y-5.1303
X3.8783Y-5.7303
X3.8915Y-4.2494
X3.8915Y-4.5494
X3.9116Y-7.385
X3.9116Y-7.685
X3.9205Y-7.9134
X3.928Y-6.0801
X3.928Y-6.6801
X3.9281Y-8.0868
X3.9281Y-8.3868
X3.9783Y-5.1303
X3.9783Y-5.7303
X3.9915Y-4.2494
X3.9915Y-4.5494
X4.0116Y-7.385
X4.0116Y-7.685
X4.0205Y-7.9134
X4.028Y-6.0801
X4.028Y-6.6801
X4.0281Y-8.0868
X4.0281Y-8.3868
X4.0783Y-5.1303
X4.0783Y-5.7303
X4.0915Y-4.2494
X4.0915Y-4.5494
X4.1116Y-7.385
X4.1116Y-7.685
X4.128Y-6.0801
X4.128Y-6.6801
X4.1281Y-8.0868
X4.1281Y-8.3868
X4.1783Y-5.1303
X4.1783Y-5.7303
X4.228Y-6.0801
X4.228Y-6.6801
X4.2281Y-8.0868
X4.2281Y-8.3868
X4.278Y-3.4801
X4.278Y-3.7801
X4.2783Y-5.1303
X4.2783Y-5.7303
X4.328Y-6.0801
X4.328Y-6.6801
X4.3281Y-8.0868
X4.3281Y-8.3868
X4.3783Y-5.1303
X4.3783Y-5.7303
X4.428Y-6.0801
X4.428Y-6.6801
X4.4783Y-5.1303
X4.4783Y-5.7303
X4.5096Y-4.4587
X4.528Y-6.0801
X4.528Y-6.6801
X4.5783Y-5.1303
X4.5783Y-5.7303
X4.6063Y-8.6122
X4.6081Y-4.4587
X4.628Y-6.0801
X4.628Y-6.6801
X4.653Y-3.4801
X4.653Y-3.7801
X4.6783Y-5.1303
X4.6783Y-5.7303
X4.7047Y-8.6122
X4.728Y-6.0801
X4.728Y-6.6801
X4.7783Y-5.1303
X4.7783Y-5.7303
X4.828Y-6.0801
X4.828Y-6.6801
X4.8783Y-5.1303
X4.8783Y-5.7303
X4.8819Y-7.689
X4.8819Y-7.8858
X4.8819Y-8.189
X4.8819Y-8.3858
X4.8848Y-7.1673
X4.8848Y-7.3642
X4.928Y-6.0801
X4.928Y-6.6801
X4.9346Y-3.8583
X4.9346Y-3.9583
X4.9346Y-4.0583
X4.9346Y-4.1583
X4.9346Y-4.2583
X4.9346Y-4.3583
X4.9783Y-5.1303
X4.9783Y-5.7303
X5.028Y-6.0801
X5.028Y-6.6801
X5.0346Y-3.7583
X5.0346Y-3.8583
X5.0346Y-3.9583
X5.0346Y-4.0583
X5.0346Y-4.1583
X5.0346Y-4.2583
X5.0346Y-4.3583
X5.0346Y-4.4583
X5.0768Y-7.0622
X5.0768Y-7.3622
X5.0778Y-7.5819
X5.0778Y-7.8819
X5.0778Y-8.0858
X5.0778Y-8.3858
X5.128Y-6.0801
X5.128Y-6.6801
X5.1346Y-3.7583
X5.1346Y-3.8583
X5.1346Y-4.3583
X5.1346Y-4.4583
X5.1768Y-7.0622
X5.1768Y-7.3622
X5.1778Y-7.5819
X5.1778Y-7.8819
X5.1778Y-8.0858
X5.1778Y-8.3858
X5.2346Y-3.7583
X5.2346Y-3.8583
X5.2346Y-4.3583
X5.2346Y-4.4583
X5.2768Y-7.0622
X5.2768Y-7.3622
X5.2778Y-7.5819
X5.2778Y-7.8819
X5.2778Y-8.0858
X5.2778Y-8.3858
X5.328Y-6.3067
X5.328Y-6.5035
X5.3346Y-3.7583
X5.3346Y-3.8583
X5.3346Y-4.3583
X5.3346Y-4.4583
X5.374Y-3.5039
X5.3768Y-7.0622
X5.3768Y-7.3622
X5.3778Y-7.5819
X5.3778Y-7.8819
X5.3778Y-8.0858
X5.3778Y-8.3858
X5.4346Y-3.7583
X5.4346Y-3.8583
X5.4346Y-4.3583
X5.4346Y-4.4583
X5.4768Y-7.0622
X5.4768Y-7.3622
X5.4778Y-7.5819
X5.4778Y-7.8819
X5.4778Y-8.0858
X5.4778Y-8.3858
X5.5346Y-3.7583
X5.5346Y-3.8583
X5.5346Y-3.9583
X5.5346Y-4.0583
X5.5346Y-4.1583
X5.5346Y-4.2583
X5.5346Y-4.3583
X5.5346Y-4.4583
X5.5709Y-3.5039
X5.5768Y-7.0622
X5.5768Y-7.3622
X5.5778Y-7.5819
X5.5778Y-7.8819
X5.5778Y-8.0858
X5.5778Y-8.3858
X5.6346Y-3.8583
X5.6346Y-3.9583
X5.6346Y-4.0583
X5.6346Y-4.1583
X5.6346Y-4.2583
X5.6346Y-4.3583
X5.653Y-4.8051
X5.653Y-5.1051
X5.6535Y-5.2913
X5.6535Y-5.4882
X5.6768Y-7.0622
X5.6768Y-7.3622
X5.6778Y-7.5819
X5.6778Y-7.8819
X5.6778Y-8.0858
X5.6778Y-8.3858
X5.7768Y-7.0622
X5.7768Y-7.3622
X5.7778Y-7.5819
X5.7778Y-7.8819
X5.7778Y-8.0858
X5.7778Y-8.3858
X5.8531Y-5.2547
X5.8531Y-5.5547
X5.8768Y-7.0622
X5.8768Y-7.3622
X5.8778Y-7.5819
X5.8778Y-7.8819
X5.8778Y-8.0858
X5.8778Y-8.3858
X5.9531Y-5.2547
X5.9531Y-5.5547
X5.9768Y-7.0622
X5.9768Y-7.3622
X5.9778Y-7.5819
X5.9778Y-7.8819
X5.9778Y-8.0858
X5.9778Y-8.3858
X6.0531Y-5.2547
X6.0531Y-5.5547
X6.063Y-3.8189
X6.063Y-4.0157
X6.1024Y-4.3307
X6.1024Y-4.5276
X6.1531Y-5.2547
X6.1531Y-5.5547
X6.2106Y-6.2815
X6.2106Y-6.4783
X6.2531Y-5.2547
X6.2531Y-5.5547
X6.2598Y-3.7157
X6.2598Y-4.0157
X6.2992Y-4.2276
X6.2992Y-4.5276
X6.3531Y-5.2547
X6.3531Y-5.5547
X6.3598Y-3.7157
X6.3598Y-4.0157
X6.3992Y-4.2276
X6.3992Y-4.5276
X6.4028Y-6.2297
X6.4028Y-6.5297
X6.4531Y-5.2547
X6.4531Y-5.5547
X6.4598Y-3.7157
X6.4598Y-4.0157
X6.478Y-7.1317
X6.478Y-7.3285
X6.4992Y-4.2276
X6.4992Y-4.5276
X6.5028Y-6.2297
X6.5028Y-6.5297
X6.5354Y-8.189
X6.5354Y-8.3858
X6.5531Y-5.2547
X6.5531Y-5.5547
X6.5598Y-3.7157
X6.5598Y-4.0157
X6.5992Y-4.2276
X6.5992Y-4.5276
X6.6028Y-6.2297
X6.6028Y-6.5297
X6.6531Y-5.2547
X6.6531Y-5.5547
X6.6598Y-3.7157
X6.6598Y-4.0157
X6.6992Y-4.2276
X6.6992Y-4.5276
X6.7028Y-6.2297
X6.7028Y-6.5297
X6.7281Y-7.0797
X6.7281Y-7.3797
X6.7323Y-8.0858
X6.7323Y-8.3858
X6.753Y-6.8051
X6.7531Y-5.2547
X6.7531Y-5.5547
X6.7598Y-3.7157
X6.7598Y-4.0157
X6.7992Y-4.2276
X6.7992Y-4.5276
X6.8028Y-6.2297
X6.8028Y-6.5297
X6.8281Y-7.0797
X6.8281Y-7.3797
X6.8323Y-8.0858
X6.8323Y-8.3858
X6.853Y-6.8051
X6.8598Y-3.7157
X6.8598Y-4.0157
X6.8992Y-4.2276
X6.8992Y-4.5276
X6.9028Y-6.2297
X6.9028Y-6.5297
X6.9281Y-7.0797
X6.9281Y-7.3797
X6.9323Y-8.0858
X6.9323Y-8.3858
X6.953Y-6.8051
X6.9598Y-3.7157
X6.9598Y-4.0157
X7.0028Y-6.2297
X7.0028Y-6.5297
X7.0281Y-7.0797
X7.0281Y-7.3797
X7.0323Y-8.0858
X7.0323Y-8.3858
X7.053Y-6.8051
X7.0598Y-3.7157
X7.0598Y-4.0157
X7.1028Y-6.2297
X7.1028Y-6.5297
X7.1281Y-7.0797
X7.1281Y-7.3797
X7.1323Y-8.0858
X7.1323Y-8.3858
X7.153Y-6.8051
X7.1598Y-3.7157
X7.1598Y-4.0157
X7.2028Y-6.2297
X7.2028Y-6.5297
X7.2281Y-7.0797
X7.2281Y-7.3797
X7.2323Y-8.0858
X7.2323Y-8.3858
X7.253Y-6.8051
X7.3028Y-6.2297
X7.3028Y-6.5297
X7.3281Y-7.0797
X7.3281Y-7.3797
X7.3323Y-8.0858
X7.3323Y-8.3858
X7.3524Y-5.2913
X7.3524Y-5.4882
X7.353Y-6.8051
X7.4016Y-3.8189
X7.4016Y-4.0157
X7.4028Y-6.2297
X7.4028Y-6.5297
X7.4033Y-4.3701
X7.4281Y-7.0797
X7.4281Y-7.3797
X7.4323Y-8.0858
X7.4323Y-8.3858
X7.453Y-6.8051
X7.478Y-4.7317
X7.478Y-4.9285
X7.5018Y-4.3701
X7.5028Y-6.2297
X7.5028Y-6.5297
X7.5278Y-5.2297
X7.5278Y-5.5297
X7.5281Y-7.0797
X7.5281Y-7.3797
X7.5323Y-8.0858
X7.5323Y-8.3858
X7.553Y-6.8051
X7.5939Y-8.6122
X7.5984Y-3.7157
X7.5984Y-4.0157
X7.5984Y-4.1929
X7.6278Y-5.2297
X7.6278Y-5.5297
X7.6281Y-7.0797
X7.6281Y-7.3797
X7.6323Y-8.0858
X7.6323Y-8.3858
X7.6923Y-8.6122
X7.6984Y-3.7157
X7.6984Y-4.0157
X7.6984Y-4.1929
X7.7031Y-4.6797
X7.7031Y-4.9797
X7.7278Y-5.2297
X7.7278Y-5.5297
X7.7756Y-6.2815
X7.7756Y-6.4783
X7.7984Y-3.7157
X7.7984Y-4.0157
X7.7984Y-4.1929
X7.8031Y-4.6797
X7.8031Y-4.9797
X7.8278Y-5.2297
X7.8278Y-5.5297
X7.877Y-7.687
X7.877Y-7.8839
X7.877Y-8.1909
X7.877Y-8.3878
X7.8984Y-3.7157
X7.8984Y-4.0157
X7.8984Y-4.1929
X7.9031Y-4.6797
X7.9031Y-4.9797
X7.9278Y-5.2297
X7.9278Y-5.5297
X7.978Y-6.2301
X7.978Y-6.5301
X7.9984Y-3.7157
X7.9984Y-4.0157
X7.9984Y-4.1929
X8.0031Y-4.6797
X8.0031Y-4.9797
X8.0278Y-5.2297
X8.0278Y-5.5297
X8.053Y-8.0801
X8.053Y-8.3801
X8.0738Y-7.372
X8.0738Y-7.5839
X8.0738Y-7.8839
X8.078Y-6.2301
X8.078Y-6.5301
X8.0984Y-3.7157
X8.0984Y-4.0157
X8.0984Y-4.1929
X8.1031Y-4.6797
X8.1031Y-4.9797
X8.1278Y-5.2297
X8.1278Y-5.5297
X8.153Y-8.0801
X8.153Y-8.3801
X8.1738Y-7.372
X8.1738Y-7.5839
X8.1738Y-7.8839
X8.178Y-6.2301
X8.178Y-6.5301
X8.1984Y-3.7157
X8.1984Y-4.0157
X8.1984Y-4.1929
X8.2031Y-4.6797
X8.2031Y-4.9797
X8.2278Y-5.2297
X8.2278Y-5.5297
X8.253Y-8.0801
X8.253Y-8.3801
X8.2738Y-7.372
X8.2738Y-7.5839
X8.2738Y-7.8839
X8.278Y-6.2301
X8.278Y-6.5301
X8.2984Y-3.7157
X8.2984Y-4.0157
X8.2984Y-4.1929
X8.3031Y-4.6797
X8.3031Y-4.9797
X8.3278Y-5.2297
X8.3278Y-5.5297
X8.353Y-8.0801
X8.353Y-8.3801
X8.3738Y-7.372
X8.3738Y-7.5839
X8.3738Y-7.8839
X8.378Y-6.2301
X8.378Y-6.5301
X8.3984Y-3.7157
X8.3984Y-4.0157
X8.3984Y-4.1929
X8.4031Y-4.6797
X8.4031Y-4.9797
X8.4278Y-5.2297
X8.4278Y-5.5297
X8.453Y-8.0801
X8.453Y-8.3801
X8.4738Y-7.372
X8.4738Y-7.5839
X8.4738Y-7.8839
X8.478Y-6.2301
X8.478Y-6.5301
X8.4984Y-3.7157
X8.4984Y-4.0157
X8.5031Y-4.6797
X8.5031Y-4.9797
X8.5278Y-5.2297
X8.5278Y-5.5297
X8.553Y-8.0801
X8.553Y-8.3801
X8.5738Y-7.372
X8.5738Y-7.5839
X8.5738Y-7.8839
X8.578Y-6.2301
X8.578Y-6.5301
X8.6031Y-4.6797
X8.6031Y-4.9797
X8.6278Y-5.2297
X8.6278Y-5.5297
X8.653Y-8.0801
X8.653Y-8.3801
X8.6738Y-7.372
X8.6738Y-7.5839
X8.6738Y-7.8839
X8.678Y-6.2301
X8.678Y-6.5301
X8.753Y-8.0801
X8.753Y-8.3801
X8.7738Y-7.372
X8.7738Y-7.5839
X8.7738Y-7.8839
X8.778Y-6.2301
X8.778Y-6.5301
X8.853Y-8.0801
X8.853Y-8.3801
X8.8738Y-7.372
X8.8738Y-7.5839
X8.8738Y-7.8839
X8.878Y-6.2301
X8.878Y-6.5301
X8.953Y-8.0801
X8.953Y-8.3801
X8.9738Y-7.5839
X8.9738Y-7.8839
X9.1732Y-5.2831
X9.1732Y-5.5831
X9.1831Y-6.8161
X9.1831Y-7.1161
X9.1831Y-7.2394
X9.1831Y-7.5394
X9.2156Y-8.1909
X9.2156Y-8.3878
X9.4124Y-8.0878
X9.4124Y-8.3878
X9.4144Y-6.9213
X9.4144Y-7.1181
X9.4144Y-7.6693
X9.4144Y-7.8661
X9.5124Y-8.0878
X9.5124Y-8.3878
X9.6124Y-8.0878
X9.6124Y-8.3878
X9.7124Y-8.0878
X9.7124Y-8.3878
X9.8124Y-8.0878
X9.8124Y-8.3878
X9.9124Y-8.0878
X9.9124Y-8.3878
X10.0124Y-8.0878
X10.0124Y-8.3878
X10.1124Y-8.0878
X10.1124Y-8.3878
X10.2124Y-8.0878
X10.2124Y-8.3878
X10.3124Y-8.0878
X10.3124Y-8.3878
T5
X1.9079Y-3.189
X2.0079Y-3.189
X2.3016Y-3.189
X2.4016Y-3.189
X2.7022Y-3.1915
X2.8022Y-3.1915
X3.089Y-3.189
X3.189Y-3.189
X3.4827Y-3.189
X3.5827Y-3.189
X3.8764Y-3.189
X3.9764Y-3.189
X4.2772Y-3.189
X4.3772Y-3.189
X4.6638Y-3.189
X4.7638Y-3.189
T6
X9.8514Y-2.9906
X10.0285Y-2.9906
T7
X1.852Y-8.7795
X1.852Y-8.8795
X1.952Y-8.7795
X1.952Y-8.8795
X2.052Y-8.7795
X2.052Y-8.8795
X2.152Y-8.7795
X2.152Y-8.8795
X2.228Y-7.4801
X2.228Y-7.5801
X2.252Y-8.7795
X2.252Y-8.8795
X2.352Y-8.7795
X2.352Y-8.8795
X2.452Y-8.7795
X2.452Y-8.8795
X2.503Y-7.3801
X2.503Y-7.4801
X2.552Y-8.7795
X2.552Y-8.8795
X2.652Y-8.7795
X2.652Y-8.8795
X2.7441Y-8.2868
X2.7441Y-8.3868
X2.752Y-8.7795
X2.752Y-8.8795
X2.8441Y-8.2868
X2.8441Y-8.3868
X2.852Y-8.7795
X2.852Y-8.8795
X2.9441Y-8.2868
X2.9441Y-8.3868
X2.952Y-8.7795
X2.952Y-8.8795
X3.0441Y-8.2868
X3.0441Y-8.3868
X3.052Y-8.7795
X3.052Y-8.8795
X3.152Y-8.7795
X3.152Y-8.8795
X3.252Y-8.7795
X3.252Y-8.8795
X3.352Y-8.7795
X3.352Y-8.8795
X3.452Y-8.7795
X3.452Y-8.8795
X3.552Y-8.7795
X3.552Y-8.8795
X3.6028Y-7.1551
X3.652Y-8.7795
X3.652Y-8.8795
X3.7028Y-7.1551
X3.752Y-8.7795
X3.752Y-8.8795
X3.852Y-8.7795
X3.852Y-8.8795
X3.952Y-8.7795
X3.952Y-8.8795
X4.052Y-8.7795
X4.052Y-8.8795
X4.152Y-8.7795
X4.152Y-8.8795
X4.252Y-8.7795
X4.252Y-8.8795
X4.7654Y-8.7795
X4.7654Y-8.8795
X4.8654Y-8.7795
X4.8654Y-8.8795
X4.9654Y-8.7795
X4.9654Y-8.8795
X4.9785Y-3.2024
X5.0654Y-8.7795
X5.0654Y-8.8795
X5.0785Y-3.2024
X5.1654Y-8.7795
X5.1654Y-8.8795
X5.1785Y-3.2024
X5.2654Y-8.7795
X5.2654Y-8.8795
X5.3654Y-8.7795
X5.3654Y-8.8795
X5.453Y-3.2051
X5.4654Y-8.7795
X5.4654Y-8.8795
X5.553Y-3.2051
X5.5654Y-8.7795
X5.5654Y-8.8795
X5.653Y-3.2051
X5.6654Y-8.7795
X5.6654Y-8.8795
X5.7654Y-8.7795
X5.7654Y-8.8795
X5.8654Y-8.7795
X5.8654Y-8.8795
X5.9278Y-3.2024
X5.9654Y-8.7795
X5.9654Y-8.8795
X6.0278Y-3.2024
X6.0654Y-8.7795
X6.0654Y-8.8795
X6.1654Y-8.7795
X6.1654Y-8.8795
X6.2654Y-8.7795
X6.2654Y-8.8795
X6.3654Y-8.7795
X6.3654Y-8.8795
X6.4654Y-8.7795
X6.4654Y-8.8795
X6.5654Y-8.7795
X6.5654Y-8.8795
X6.6654Y-8.7795
X6.6654Y-8.8795
X6.7654Y-8.7795
X6.7654Y-8.8795
X6.8159Y-7.5959
X6.8159Y-7.6959
X6.8654Y-8.7795
X6.8654Y-8.8795
X6.9159Y-7.5959
X6.9159Y-7.6959
X6.9654Y-8.7795
X6.9654Y-8.8795
X7.0159Y-7.5959
X7.0159Y-7.6959
X7.0654Y-8.7795
X7.0654Y-8.8795
X7.1159Y-7.5959
X7.1159Y-7.6959
X7.1654Y-8.7795
X7.1654Y-8.8795
X7.2047Y-4.3307
X7.2047Y-4.4307
X7.2159Y-7.5959
X7.2159Y-7.6959
X7.3159Y-7.5959
X7.3159Y-7.6959
X7.376Y-3.2038
X7.376Y-3.3038
X7.4159Y-7.5959
X7.4159Y-7.6959
X7.476Y-3.2038
X7.476Y-3.3038
X7.5159Y-7.5959
X7.5159Y-7.6959
X7.576Y-3.2038
X7.576Y-3.3038
X7.676Y-3.2038
X7.676Y-3.3038
X7.7575Y-8.7795
X7.7575Y-8.8795
X7.776Y-3.2038
X7.776Y-3.3038
X7.8575Y-8.7795
X7.8575Y-8.8795
X7.876Y-3.2038
X7.876Y-3.3038
X7.9575Y-8.7795
X7.9575Y-8.8795
X7.976Y-3.2038
X7.976Y-3.3038
X8.0575Y-8.7795
X8.0575Y-8.8795
X8.076Y-3.2038
X8.076Y-3.3038
X8.1575Y-8.7795
X8.1575Y-8.8795
X8.1693Y-6.9778
X8.1693Y-7.0778
X8.176Y-3.2038
X8.176Y-3.3038
X8.2575Y-8.7795
X8.2575Y-8.8795
X8.2693Y-6.9778
X8.2693Y-7.0778
X8.276Y-3.2038
X8.276Y-3.3038
X8.3575Y-8.7795
X8.3575Y-8.8795
X8.3693Y-6.9778
X8.3693Y-7.0778
X8.376Y-3.2038
X8.376Y-3.3038
X8.4575Y-8.7795
X8.4575Y-8.8795
X8.4693Y-6.9778
X8.4693Y-7.0778
X8.476Y-3.2038
X8.476Y-3.3038
X8.5575Y-8.7795
X8.5575Y-8.8795
X8.576Y-3.2038
X8.576Y-3.3038
X8.6575Y-8.7795
X8.6575Y-8.8795
X8.676Y-3.2038
X8.676Y-3.3038
X8.7575Y-8.7795
X8.7575Y-8.8795
X8.776Y-3.2038
X8.776Y-3.3038
X8.8575Y-8.7795
X8.8575Y-8.8795
X8.876Y-3.2038
X8.876Y-3.3038
X8.9575Y-8.7795
X8.9575Y-8.8795
X8.976Y-3.2038
X8.976Y-3.3038
X9.0575Y-8.7795
X9.0575Y-8.8795
X9.076Y-3.2038
X9.076Y-3.3038
X9.1575Y-8.7795
X9.1575Y-8.8795
X9.176Y-3.2038
X9.176Y-3.3038
X9.2575Y-8.7795
X9.2575Y-8.8795
X9.276Y-3.2038
X9.276Y-3.3038
X9.3575Y-8.7795
X9.3575Y-8.8795
X9.4575Y-8.7795
X9.4575Y-8.8795
X9.5575Y-8.7795
X9.5575Y-8.8795
X9.6575Y-8.7795
X9.6575Y-8.8795
X9.7575Y-8.7795
X9.7575Y-8.8795
X9.8575Y-8.7795
X9.8575Y-8.8795
X9.9575Y-8.7795
X9.9575Y-8.8795
X10.0575Y-8.7795
X10.0575Y-8.8795
X10.1575Y-8.7795
X10.1575Y-8.8795
T8
X9.8022Y-3.0887
X10.0781Y-3.0887
T9
X1.5748Y-2.9528
X10.4331Y-2.9528
T0
M30
