M48
; DRILL file {KiCad (6.0.11)} date Sat Sep  2 10:55:15 2023
; FORMAT={-:-/ absolute / inch / decimal}
; #@! TF.CreationDate,2023-09-02T10:55:15-05:00
; #@! TF.GenerationSoftware,Kicad,Pcbnew,(6.0.11)
; #@! TF.FileFunction,Plated,1,2,PTH
FMAT,2
INCH
; #@! TA.AperFunction,Plated,PTH,ComponentDrill
T1C0.0118
; #@! TA.AperFunction,Plated,PTH,ViaDrill
T2C0.0157
; #@! TA.AperFunction,Plated,PTH,ComponentDrill
T3C0.0295
; #@! TA.AperFunction,Plated,PTH,ComponentDrill
T4C0.0315
; #@! TA.AperFunction,Plated,PTH,ComponentDrill
T5C0.0354
; #@! TA.AperFunction,Plated,PTH,ComponentDrill
T6C0.0390
; #@! TA.AperFunction,Plated,PTH,ComponentDrill
T7C0.0394
; #@! TA.AperFunction,Plated,PTH,ComponentDrill
T8C0.0512
; #@! TA.AperFunction,Plated,PTH,ComponentDrill
T9C0.1260
%
G90
G05
T1
X5.8465Y-3.8642
X5.8465Y-3.9114
X7.8937Y-7.3484
X7.8937Y-7.3957
T2
X2.0458Y-7.2807
X2.4123Y-6.0085
X2.4306Y-3.8446
X2.5009Y-6.2589
X2.5046Y-6.8279
X2.5818Y-6.6644
X3.069Y-7.5884
X3.1251Y-8.1062
X3.1548Y-8.0605
X3.1562Y-7.6955
X3.1833Y-6.5875
X3.2285Y-6.587
X3.249Y-6.782
X3.3788Y-8.0365
X3.634Y-8.6669
X3.7194Y-8.6851
X3.8715Y-6.1689
X3.9149Y-5.8795
X4.1096Y-5.2477
X4.1133Y-4.5667
X4.233Y-8.6383
X4.2971Y-6.5691
X4.3809Y-6.7727
X4.409Y-8.2189
X4.4388Y-6.5174
X4.4511Y-7.1154
X4.4538Y-8.1703
X4.5438Y-4.6118
X4.5974Y-7.8494
X4.6276Y-5.0787
X4.6775Y-4.4558
X4.6827Y-6.4944
X4.6886Y-6.2734
X4.6971Y-4.9837
X4.8134Y-7.7679
X4.8162Y-6.5399
X4.8271Y-4.8541
X4.854Y-5.7869
X4.8573Y-6.0046
X4.8604Y-6.7815
X4.89Y-5.9371
X4.9461Y-7.8262
X4.9513Y-8.0047
X4.9564Y-7.9395
X4.9741Y-8.0379
X4.9875Y-8.2401
X4.9914Y-7.964
X4.9975Y-6.7736
X5.0698Y-4.6926
X5.0732Y-8.2181
X5.1064Y-3.9511
X5.12Y-4.5159
X5.1558Y-8.2498
X5.1964Y-7.1365
X5.21Y-8.3396
X5.2209Y-6.6934
X5.2809Y-5.4756
X5.3276Y-5.4812
X5.3518Y-7.309
X5.3946Y-7.9633
X5.3991Y-6.7526
X5.4075Y-6.6543
X5.5319Y-8.2181
X5.5589Y-5.4366
X5.5778Y-7.9665
X5.5821Y-4.4091
X5.6025Y-6.9192
X5.6498Y-6.5595
X5.6503Y-5.3615
X5.672Y-8.0216
X5.7049Y-3.7345
X5.7209Y-6.3256
X5.7422Y-8.2498
X5.7496Y-6.2389
X5.786Y-6.4337
X5.8128Y-6.6901
X5.8655Y-6.6703
X5.8755Y-7.4736
X6.0137Y-8.3421
X6.097Y-8.4031
X6.1257Y-6.2145
X6.1345Y-7.0292
X6.1425Y-6.8663
X6.1986Y-6.9051
X6.2106Y-7.4076
X6.2515Y-5.8975
X6.4347Y-7.5309
X6.4857Y-7.3875
X6.5786Y-7.7353
X6.5992Y-4.1126
X6.6195Y-7.8175
X6.6921Y-8.6382
X6.6943Y-7.6952
X6.7209Y-5.2643
X6.801Y-3.572
X6.8244Y-8.4807
X6.8435Y-3.6363
X6.8641Y-7.49
X6.8657Y-4.1742
X6.9078Y-4.0781
X6.9299Y-3.4439
X6.9363Y-4.1353
X7.0017Y-8.1585
X7.0129Y-4.239
X7.061Y-6.4503
X7.129Y-5.8444
X7.1578Y-7.4975
X7.1756Y-7.4361
X7.197Y-7.3548
X7.2122Y-6.6083
X7.2182Y-5.1049
X7.2271Y-7.1464
X7.2354Y-7.1857
X7.2412Y-3.9723
X7.2863Y-7.1148
X7.2871Y-4.0605
X7.2999Y-5.94
X7.3859Y-3.76
X7.3925Y-3.5768
X7.4637Y-3.151
X7.5137Y-6.7231
X7.5211Y-3.4006
X7.5287Y-3.0921
X7.5305Y-5.7436
X7.549Y-6.178
X7.5797Y-6.2101
X7.5986Y-6.2573
X7.5994Y-6.0332
X7.6109Y-3.7951
X7.6389Y-6.2666
X7.6572Y-6.3044
X7.7076Y-6.0238
X7.7101Y-6.066
X7.727Y-4.0852
X7.7855Y-7.513
X7.8543Y-7.5737
X7.9Y-6.3122
X7.9017Y-3.9551
X7.912Y-5.8917
X7.9272Y-4.0699
X7.9413Y-7.5747
X7.9427Y-3.9546
X7.9909Y-3.8223
X7.991Y-7.6877
X7.9996Y-8.6777
X8.0485Y-3.8799
X8.1516Y-3.7865
X8.1558Y-7.6597
X8.1651Y-4.55
X8.4077Y-3.5758
X8.4331Y-4.0919
X8.4951Y-3.8981
X8.6161Y-7.2533
X8.627Y-6.1739
X8.6466Y-7.2871
X8.7005Y-6.3034
X8.7885Y-7.2586
X8.9215Y-8.0108
X8.9441Y-6.2748
X8.9479Y-8.5219
X9.0205Y-6.8434
X9.1192Y-6.9843
X9.1207Y-7.6224
X9.1861Y-6.9853
X9.2766Y-7.0059
X9.2776Y-8.2545
X9.283Y-8.0042
X9.786Y-8.2234
X10.1353Y-8.1981
T3
X1.8898Y-7.5063
X1.8898Y-7.5563
X1.8898Y-7.6063
T4
X1.6565Y-8.0413
X1.6901Y-8.6122
X1.6929Y-6.2283
X1.6929Y-6.4252
X1.6929Y-6.8189
X1.6929Y-7.0157
X1.6929Y-7.4094
X1.6929Y-7.6063
X1.6978Y-5.6417
X1.6978Y-5.8386
X1.7077Y-4.8327
X1.7077Y-5.0295
X1.7565Y-8.0413
X1.7886Y-8.6122
X1.8565Y-8.0413
X1.8898Y-6.1252
X1.8898Y-6.4252
X1.8898Y-6.7157
X1.8898Y-7.0157
X1.903Y-3.4801
X1.903Y-3.7801
X1.903Y-5.5801
X1.903Y-5.8801
X1.9045Y-4.7295
X1.9045Y-5.0295
X1.9565Y-8.0413
X1.9898Y-6.1252
X1.9898Y-6.4252
X1.9898Y-6.7157
X1.9898Y-7.0157
X2.003Y-5.5801
X2.003Y-5.8801
X2.0045Y-4.7295
X2.0045Y-5.0295
X2.0565Y-8.0413
X2.0898Y-6.1252
X2.0898Y-6.4252
X2.0898Y-6.7157
X2.0898Y-7.0157
X2.103Y-5.5801
X2.103Y-5.8801
X2.1045Y-4.7295
X2.1045Y-5.0295
X2.1565Y-8.0413
X2.1898Y-6.1252
X2.1898Y-6.4252
X2.1898Y-6.7157
X2.1898Y-7.0157
X2.203Y-5.5801
X2.203Y-5.8801
X2.2045Y-4.7295
X2.2045Y-5.0295
X2.2565Y-8.0413
X2.2898Y-6.1252
X2.2898Y-6.4252
X2.2898Y-6.7157
X2.2898Y-7.0157
X2.303Y-3.4801
X2.303Y-3.7801
X2.303Y-5.5801
X2.303Y-5.8801
X2.3045Y-4.7295
X2.3045Y-5.0295
X2.3565Y-8.0413
X2.3898Y-6.1252
X2.3898Y-6.4252
X2.3898Y-6.7157
X2.3898Y-7.0157
X2.403Y-5.5801
X2.403Y-5.8801
X2.4045Y-4.7295
X2.4045Y-5.0295
X2.4565Y-8.0413
X2.4898Y-6.1252
X2.4898Y-6.4252
X2.4898Y-6.7157
X2.4898Y-7.0157
X2.503Y-5.5801
X2.503Y-5.8801
X2.5045Y-4.7295
X2.5045Y-5.0295
X2.6779Y-6.4921
X2.703Y-3.4801
X2.703Y-3.7801
X2.728Y-6.1301
X2.7764Y-6.4921
X3.028Y-6.1301
X3.0344Y-6.9016
X3.0344Y-7.0984
X3.0344Y-7.4921
X3.0344Y-7.689
X3.0413Y-6.2815
X3.0413Y-6.4783
X3.078Y-3.4801
X3.078Y-3.7801
X3.2116Y-7.385
X3.2116Y-7.685
X3.2205Y-7.9134
X3.228Y-6.0801
X3.228Y-6.6801
X3.251Y-8.19
X3.251Y-8.3868
X3.3116Y-7.385
X3.3116Y-7.685
X3.3205Y-7.9134
X3.328Y-6.0801
X3.328Y-6.6801
X3.4116Y-7.385
X3.4116Y-7.685
X3.4205Y-7.9134
X3.428Y-6.0801
X3.428Y-6.6801
X3.4281Y-8.0868
X3.4281Y-8.3868
X3.4547Y-5.3303
X3.4547Y-5.5272
X3.478Y-3.4801
X3.478Y-3.7801
X3.5116Y-7.385
X3.5116Y-7.685
X3.5205Y-7.9134
X3.528Y-6.0801
X3.528Y-6.6801
X3.5281Y-8.0868
X3.5281Y-8.3868
X3.6116Y-7.385
X3.6116Y-7.685
X3.6205Y-7.9134
X3.628Y-6.0801
X3.628Y-6.6801
X3.6281Y-8.0868
X3.6281Y-8.3868
X3.6783Y-5.1303
X3.6783Y-5.7303
X3.7116Y-7.385
X3.7116Y-7.685
X3.7205Y-7.9134
X3.728Y-6.0801
X3.728Y-6.6801
X3.7281Y-8.0868
X3.7281Y-8.3868
X3.7783Y-5.1303
X3.7783Y-5.7303
X3.8116Y-7.385
X3.8116Y-7.685
X3.8205Y-7.9134
X3.828Y-6.0801
X3.828Y-6.6801
X3.8281Y-8.0868
X3.8281Y-8.3868
X3.853Y-3.4801
X3.853Y-3.7801
X3.8783Y-5.1303
X3.8783Y-5.7303
X3.9116Y-7.385
X3.9116Y-7.685
X3.9205Y-7.9134
X3.928Y-6.0801
X3.928Y-6.6801
X3.9281Y-8.0868
X3.9281Y-8.3868
X3.9783Y-5.1303
X3.9783Y-5.7303
X4.0116Y-7.385
X4.0116Y-7.685
X4.0205Y-7.9134
X4.028Y-6.0801
X4.028Y-6.6801
X4.0281Y-8.0868
X4.0281Y-8.3868
X4.0783Y-5.1303
X4.0783Y-5.7303
X4.1116Y-7.385
X4.1116Y-7.685
X4.128Y-6.0801
X4.128Y-6.6801
X4.1281Y-8.0868
X4.1281Y-8.3868
X4.1783Y-5.1303
X4.1783Y-5.7303
X4.228Y-6.0801
X4.228Y-6.6801
X4.2281Y-8.0868
X4.2281Y-8.3868
X4.278Y-3.4801
X4.278Y-3.7801
X4.2783Y-5.1303
X4.2783Y-5.7303
X4.328Y-6.0801
X4.328Y-6.6801
X4.3281Y-8.0868
X4.3281Y-8.3868
X4.3783Y-5.1303
X4.3783Y-5.7303
X4.428Y-6.0801
X4.428Y-6.6801
X4.4783Y-5.1303
X4.4783Y-5.7303
X4.5096Y-4.4587
X4.528Y-6.0801
X4.528Y-6.6801
X4.5783Y-5.1303
X4.5783Y-5.7303
X4.6063Y-8.6122
X4.6081Y-4.4587
X4.628Y-6.0801
X4.628Y-6.6801
X4.653Y-3.4801
X4.653Y-3.7801
X4.6783Y-5.1303
X4.6783Y-5.7303
X4.7047Y-8.6122
X4.728Y-6.0801
X4.728Y-6.6801
X4.7783Y-5.1303
X4.7783Y-5.7303
X4.828Y-6.0801
X4.828Y-6.6801
X4.8783Y-5.1303
X4.8783Y-5.7303
X4.8819Y-7.689
X4.8819Y-7.8858
X4.8819Y-8.189
X4.8819Y-8.3858
X4.8848Y-7.1673
X4.8848Y-7.3642
X4.928Y-6.0801
X4.928Y-6.6801
X4.9346Y-3.8583
X4.9346Y-3.9583
X4.9346Y-4.0583
X4.9346Y-4.1583
X4.9346Y-4.2583
X4.9346Y-4.3583
X4.9783Y-5.1303
X4.9783Y-5.7303
X5.028Y-6.0801
X5.028Y-6.6801
X5.0346Y-3.7583
X5.0346Y-3.8583
X5.0346Y-3.9583
X5.0346Y-4.0583
X5.0346Y-4.1583
X5.0346Y-4.2583
X5.0346Y-4.3583
X5.0346Y-4.4583
X5.0768Y-7.0622
X5.0768Y-7.3622
X5.0778Y-7.5819
X5.0778Y-7.8819
X5.0778Y-8.0858
X5.0778Y-8.3858
X5.128Y-6.0801
X5.128Y-6.6801
X5.1346Y-3.7583
X5.1346Y-3.8583
X5.1346Y-4.3583
X5.1346Y-4.4583
X5.1768Y-7.0622
X5.1768Y-7.3622
X5.1778Y-7.5819
X5.1778Y-7.8819
X5.1778Y-8.0858
X5.1778Y-8.3858
X5.2346Y-3.7583
X5.2346Y-3.8583
X5.2346Y-4.3583
X5.2346Y-4.4583
X5.2768Y-7.0622
X5.2768Y-7.3622
X5.2778Y-7.5819
X5.2778Y-7.8819
X5.2778Y-8.0858
X5.2778Y-8.3858
X5.328Y-6.3067
X5.328Y-6.5035
X5.3346Y-3.7583
X5.3346Y-3.8583
X5.3346Y-4.3583
X5.3346Y-4.4583
X5.374Y-3.5039
X5.3768Y-7.0622
X5.3768Y-7.3622
X5.3778Y-7.5819
X5.3778Y-7.8819
X5.3778Y-8.0858
X5.3778Y-8.3858
X5.4035Y-5.2913
X5.4035Y-5.4882
X5.4346Y-3.7583
X5.4346Y-3.8583
X5.4346Y-4.3583
X5.4346Y-4.4583
X5.4768Y-7.0622
X5.4768Y-7.3622
X5.4778Y-7.5819
X5.4778Y-7.8819
X5.4778Y-8.0858
X5.4778Y-8.3858
X5.5346Y-3.7583
X5.5346Y-3.8583
X5.5346Y-3.9583
X5.5346Y-4.0583
X5.5346Y-4.1583
X5.5346Y-4.2583
X5.5346Y-4.3583
X5.5346Y-4.4583
X5.5709Y-3.5039
X5.5768Y-7.0622
X5.5768Y-7.3622
X5.5778Y-7.5819
X5.5778Y-7.8819
X5.5778Y-8.0858
X5.5778Y-8.3858
X5.6031Y-5.2547
X5.6031Y-5.5547
X5.6346Y-3.8583
X5.6346Y-3.9583
X5.6346Y-4.0583
X5.6346Y-4.1583
X5.6346Y-4.2583
X5.6346Y-4.3583
X5.6768Y-7.0622
X5.6768Y-7.3622
X5.6778Y-7.5819
X5.6778Y-7.8819
X5.6778Y-8.0858
X5.6778Y-8.3858
X5.7031Y-5.2547
X5.7031Y-5.5547
X5.7768Y-7.0622
X5.7768Y-7.3622
X5.7778Y-7.5819
X5.7778Y-7.8819
X5.7778Y-8.0858
X5.7778Y-8.3858
X5.8031Y-5.2547
X5.8031Y-5.5547
X5.8768Y-7.0622
X5.8768Y-7.3622
X5.8778Y-7.5819
X5.8778Y-7.8819
X5.8778Y-8.0858
X5.8778Y-8.3858
X5.9031Y-5.2547
X5.9031Y-5.5547
X5.9768Y-7.0622
X5.9768Y-7.3622
X5.9778Y-7.5819
X5.9778Y-7.8819
X5.9778Y-8.0858
X5.9778Y-8.3858
X6.0031Y-5.2547
X6.0031Y-5.5547
X6.063Y-3.8189
X6.063Y-4.0157
X6.1024Y-4.3307
X6.1024Y-4.5276
X6.1031Y-5.2547
X6.1031Y-5.5547
X6.2031Y-5.2547
X6.2031Y-5.5547
X6.2106Y-6.2815
X6.2106Y-6.4783
X6.2598Y-3.7157
X6.2598Y-4.0157
X6.2992Y-4.2276
X6.2992Y-4.5276
X6.3031Y-5.2547
X6.3031Y-5.5547
X6.3598Y-3.7157
X6.3598Y-4.0157
X6.3992Y-4.2276
X6.3992Y-4.5276
X6.4028Y-6.2297
X6.4028Y-6.5297
X6.4031Y-5.2547
X6.4031Y-5.5547
X6.4598Y-3.7157
X6.4598Y-4.0157
X6.4992Y-4.2276
X6.4992Y-4.5276
X6.5028Y-6.2297
X6.5028Y-6.5297
X6.5031Y-5.2547
X6.5031Y-5.5547
X6.5285Y-7.689
X6.5285Y-7.8858
X6.5354Y-8.189
X6.5354Y-8.3858
X6.5598Y-3.7157
X6.5598Y-4.0157
X6.5992Y-4.2276
X6.5992Y-4.5276
X6.6028Y-6.2297
X6.6028Y-6.5297
X6.6598Y-3.7157
X6.6598Y-4.0157
X6.6992Y-4.2276
X6.6992Y-4.5276
X6.7028Y-6.2297
X6.7028Y-6.5297
X6.7323Y-8.0858
X6.7323Y-8.3858
X6.7598Y-3.7157
X6.7598Y-4.0157
X6.7992Y-4.2276
X6.7992Y-4.5276
X6.8028Y-6.2297
X6.8028Y-6.5297
X6.8323Y-8.0858
X6.8323Y-8.3858
X6.8598Y-3.7157
X6.8598Y-4.0157
X6.8992Y-4.2276
X6.8992Y-4.5276
X6.9028Y-6.2297
X6.9028Y-6.5297
X6.9323Y-8.0858
X6.9323Y-8.3858
X6.9598Y-3.7157
X6.9598Y-4.0157
X7.0028Y-6.2297
X7.0028Y-6.5297
X7.0323Y-8.0858
X7.0323Y-8.3858
X7.0598Y-3.7157
X7.0598Y-4.0157
X7.1028Y-6.2297
X7.1028Y-6.5297
X7.1323Y-8.0858
X7.1323Y-8.3858
X7.1598Y-3.7157
X7.1598Y-4.0157
X7.2028Y-6.2297
X7.2028Y-6.5297
X7.2323Y-8.0858
X7.2323Y-8.3858
X7.3028Y-6.2297
X7.3028Y-6.5297
X7.3323Y-8.0858
X7.3323Y-8.3858
X7.3524Y-5.2913
X7.3524Y-5.4882
X7.4016Y-3.8189
X7.4016Y-4.0157
X7.4028Y-6.2297
X7.4028Y-6.5297
X7.4033Y-4.3701
X7.428Y-4.6051
X7.428Y-4.9051
X7.4323Y-8.0858
X7.4323Y-8.3858
X7.5018Y-4.3701
X7.5028Y-6.2297
X7.5028Y-6.5297
X7.5278Y-5.2297
X7.5278Y-5.5297
X7.5323Y-8.0858
X7.5323Y-8.3858
X7.5939Y-8.6122
X7.5984Y-3.7157
X7.5984Y-4.0157
X7.5984Y-4.1929
X7.6278Y-5.2297
X7.6278Y-5.5297
X7.6323Y-8.0858
X7.6323Y-8.3858
X7.6923Y-8.6122
X7.6984Y-3.7157
X7.6984Y-4.0157
X7.6984Y-4.1929
X7.7278Y-5.2297
X7.7278Y-5.5297
X7.7756Y-6.2815
X7.7756Y-6.4783
X7.7984Y-3.7157
X7.7984Y-4.0157
X7.7984Y-4.1929
X7.8278Y-5.2297
X7.8278Y-5.5297
X7.877Y-7.687
X7.877Y-7.8839
X7.877Y-8.1909
X7.877Y-8.3878
X7.8984Y-3.7157
X7.8984Y-4.0157
X7.8984Y-4.1929
X7.9278Y-5.2297
X7.9278Y-5.5297
X7.978Y-6.2301
X7.978Y-6.5301
X7.9984Y-3.7157
X7.9984Y-4.0157
X7.9984Y-4.1929
X8.0278Y-5.2297
X8.0278Y-5.5297
X8.0738Y-7.372
X8.0738Y-7.5839
X8.0738Y-7.8839
X8.0738Y-8.0878
X8.0738Y-8.3878
X8.078Y-6.2301
X8.078Y-6.5301
X8.0984Y-3.7157
X8.0984Y-4.0157
X8.0984Y-4.1929
X8.1278Y-5.2297
X8.1278Y-5.5297
X8.1738Y-7.372
X8.1738Y-7.5839
X8.1738Y-7.8839
X8.1738Y-8.0878
X8.1738Y-8.3878
X8.178Y-6.2301
X8.178Y-6.5301
X8.1984Y-3.7157
X8.1984Y-4.0157
X8.1984Y-4.1929
X8.2278Y-5.2297
X8.2278Y-5.5297
X8.2738Y-7.372
X8.2738Y-7.5839
X8.2738Y-7.8839
X8.2738Y-8.0878
X8.2738Y-8.3878
X8.278Y-6.2301
X8.278Y-6.5301
X8.2984Y-3.7157
X8.2984Y-4.0157
X8.2984Y-4.1929
X8.3278Y-5.2297
X8.3278Y-5.5297
X8.3738Y-7.372
X8.3738Y-7.5839
X8.3738Y-7.8839
X8.3738Y-8.0878
X8.3738Y-8.3878
X8.378Y-6.2301
X8.378Y-6.5301
X8.3984Y-3.7157
X8.3984Y-4.0157
X8.3984Y-4.1929
X8.4278Y-5.2297
X8.4278Y-5.5297
X8.4738Y-7.372
X8.4738Y-7.5839
X8.4738Y-7.8839
X8.4738Y-8.0878
X8.4738Y-8.3878
X8.478Y-6.2301
X8.478Y-6.5301
X8.4984Y-3.7157
X8.4984Y-4.0157
X8.5278Y-5.2297
X8.5278Y-5.5297
X8.5738Y-7.372
X8.5738Y-7.5839
X8.5738Y-7.8839
X8.5738Y-8.0878
X8.5738Y-8.3878
X8.578Y-6.2301
X8.578Y-6.5301
X8.6278Y-5.2297
X8.6278Y-5.5297
X8.6738Y-7.372
X8.6738Y-7.5839
X8.6738Y-7.8839
X8.6738Y-8.0878
X8.6738Y-8.3878
X8.678Y-6.2301
X8.678Y-6.5301
X8.7738Y-7.372
X8.7738Y-7.5839
X8.7738Y-7.8839
X8.7738Y-8.0878
X8.7738Y-8.3878
X8.778Y-6.2301
X8.778Y-6.5301
X8.8738Y-7.372
X8.8738Y-7.5839
X8.8738Y-7.8839
X8.8738Y-8.0878
X8.8738Y-8.3878
X8.878Y-6.2301
X8.878Y-6.5301
X8.9738Y-7.5839
X8.9738Y-7.8839
X8.9738Y-8.0878
X8.9738Y-8.3878
X9.1258Y-4.9606
X9.1732Y-5.2831
X9.1732Y-5.5831
X9.1831Y-6.8161
X9.1831Y-7.1161
X9.1831Y-7.2394
X9.1831Y-7.5394
X9.2156Y-8.1909
X9.2156Y-8.3878
X9.2242Y-4.9606
X9.4124Y-8.0878
X9.4124Y-8.3878
X9.4144Y-5.3858
X9.4144Y-5.5827
X9.4144Y-5.8976
X9.4144Y-6.0945
X9.4144Y-6.4094
X9.4144Y-6.6063
X9.4144Y-6.9213
X9.4144Y-7.1181
X9.4144Y-7.6693
X9.4144Y-7.8661
X9.4193Y-4.8425
X9.4193Y-5.0394
X9.5124Y-8.0878
X9.5124Y-8.3878
X9.6124Y-8.0878
X9.6124Y-8.3878
X9.7124Y-8.0878
X9.7124Y-8.3878
X9.8124Y-8.0878
X9.8124Y-8.3878
X9.9124Y-8.0878
X9.9124Y-8.3878
X10.0124Y-8.0878
X10.0124Y-8.3878
X10.1124Y-8.0878
X10.1124Y-8.3878
X10.2124Y-8.0878
X10.2124Y-8.3878
X10.3124Y-8.0878
X10.3124Y-8.3878
T5
X1.9079Y-3.189
X2.0079Y-3.189
X2.3016Y-3.189
X2.4016Y-3.189
X2.7022Y-3.1915
X2.8022Y-3.1915
X3.089Y-3.189
X3.189Y-3.189
X3.4827Y-3.189
X3.5827Y-3.189
X3.8764Y-3.189
X3.9764Y-3.189
X4.2772Y-3.189
X4.3772Y-3.189
X4.6638Y-3.189
X4.7638Y-3.189
T6
X9.8514Y-2.9906
X10.0285Y-2.9906
T7
X1.852Y-8.7795
X1.852Y-8.8795
X1.952Y-8.7795
X1.952Y-8.8795
X2.052Y-8.7795
X2.052Y-8.8795
X2.152Y-8.7795
X2.152Y-8.8795
X2.228Y-7.4801
X2.228Y-7.5801
X2.252Y-8.7795
X2.252Y-8.8795
X2.352Y-8.7795
X2.352Y-8.8795
X2.452Y-8.7795
X2.452Y-8.8795
X2.503Y-7.3801
X2.503Y-7.4801
X2.503Y-7.5801
X2.552Y-8.7795
X2.552Y-8.8795
X2.652Y-8.7795
X2.652Y-8.8795
X2.7441Y-8.2868
X2.7441Y-8.3868
X2.752Y-8.7795
X2.752Y-8.8795
X2.8441Y-8.2868
X2.8441Y-8.3868
X2.852Y-8.7795
X2.852Y-8.8795
X2.9441Y-8.2868
X2.9441Y-8.3868
X2.952Y-8.7795
X2.952Y-8.8795
X3.0441Y-8.2868
X3.0441Y-8.3868
X3.052Y-8.7795
X3.052Y-8.8795
X3.152Y-8.7795
X3.152Y-8.8795
X3.252Y-8.7795
X3.252Y-8.8795
X3.352Y-8.7795
X3.352Y-8.8795
X3.452Y-8.7795
X3.452Y-8.8795
X3.552Y-8.7795
X3.552Y-8.8795
X3.652Y-8.7795
X3.652Y-8.8795
X3.752Y-8.7795
X3.752Y-8.8795
X3.852Y-8.7795
X3.852Y-8.8795
X3.952Y-8.7795
X3.952Y-8.8795
X4.052Y-8.7795
X4.052Y-8.8795
X4.152Y-8.7795
X4.152Y-8.8795
X4.252Y-8.7795
X4.252Y-8.8795
X4.7654Y-8.7795
X4.7654Y-8.8795
X4.8654Y-8.7795
X4.8654Y-8.8795
X4.9654Y-8.7795
X4.9654Y-8.8795
X5.0654Y-8.7795
X5.0654Y-8.8795
X5.1654Y-8.7795
X5.1654Y-8.8795
X5.2654Y-8.7795
X5.2654Y-8.8795
X5.3654Y-8.7795
X5.3654Y-8.8795
X5.4654Y-8.7795
X5.4654Y-8.8795
X5.5654Y-8.7795
X5.5654Y-8.8795
X5.6654Y-8.7795
X5.6654Y-8.8795
X5.7654Y-8.7795
X5.7654Y-8.8795
X5.8654Y-8.7795
X5.8654Y-8.8795
X5.9654Y-8.7795
X5.9654Y-8.8795
X6.0654Y-8.7795
X6.0654Y-8.8795
X6.1654Y-8.7795
X6.1654Y-8.8795
X6.2654Y-8.7795
X6.2654Y-8.8795
X6.3654Y-8.7795
X6.3654Y-8.8795
X6.3925Y-3.205
X6.3925Y-3.305
X6.4654Y-8.7795
X6.4654Y-8.8795
X6.4925Y-3.205
X6.4925Y-3.305
X6.5654Y-8.7795
X6.5654Y-8.8795
X6.5925Y-3.205
X6.5925Y-3.305
X6.6654Y-8.7795
X6.6654Y-8.8795
X6.6925Y-3.205
X6.6925Y-3.305
X6.7654Y-8.7795
X6.7654Y-8.8795
X6.7925Y-3.205
X6.7925Y-3.305
X6.8654Y-8.7795
X6.8654Y-8.8795
X6.8925Y-3.205
X6.8925Y-3.305
X6.9654Y-8.7795
X6.9654Y-8.8795
X6.9925Y-3.205
X6.9925Y-3.305
X7.0654Y-8.7795
X7.0654Y-8.8795
X7.0925Y-3.205
X7.0925Y-3.305
X7.1654Y-8.7795
X7.1654Y-8.8795
X7.1925Y-3.205
X7.1925Y-3.305
X7.2047Y-4.3307
X7.2047Y-4.4307
X7.2925Y-3.205
X7.2925Y-3.305
X7.3925Y-3.205
X7.3925Y-3.305
X7.4925Y-3.205
X7.4925Y-3.305
X7.5925Y-3.205
X7.5925Y-3.305
X7.6925Y-3.205
X7.6925Y-3.305
X7.7575Y-8.7795
X7.7575Y-8.8795
X7.7925Y-3.205
X7.7925Y-3.305
X7.8575Y-8.7795
X7.8575Y-8.8795
X7.8925Y-3.205
X7.8925Y-3.305
X7.9575Y-8.7795
X7.9575Y-8.8795
X7.9925Y-3.205
X7.9925Y-3.305
X8.0575Y-8.7795
X8.0575Y-8.8795
X8.0925Y-3.205
X8.0925Y-3.305
X8.1575Y-8.7795
X8.1575Y-8.8795
X8.1693Y-6.9778
X8.1693Y-7.0778
X8.1925Y-3.205
X8.1925Y-3.305
X8.2575Y-8.7795
X8.2575Y-8.8795
X8.2693Y-6.9778
X8.2693Y-7.0778
X8.2925Y-3.205
X8.2925Y-3.305
X8.3575Y-8.7795
X8.3575Y-8.8795
X8.3693Y-6.9778
X8.3693Y-7.0778
X8.4575Y-8.7795
X8.4575Y-8.8795
X8.4693Y-6.9778
X8.4693Y-7.0778
X8.5575Y-8.7795
X8.5575Y-8.8795
X8.6575Y-8.7795
X8.6575Y-8.8795
X8.7575Y-8.7795
X8.7575Y-8.8795
X8.8575Y-8.7795
X8.8575Y-8.8795
X8.9575Y-8.7795
X8.9575Y-8.8795
X9.0575Y-8.7795
X9.0575Y-8.8795
X9.1575Y-8.7795
X9.1575Y-8.8795
X9.2575Y-8.7795
X9.2575Y-8.8795
X9.3575Y-8.7795
X9.3575Y-8.8795
X9.4575Y-8.7795
X9.4575Y-8.8795
X9.5575Y-8.7795
X9.5575Y-8.8795
X9.6575Y-8.7795
X9.6575Y-8.8795
X9.7575Y-8.7795
X9.7575Y-8.8795
X9.8575Y-8.7795
X9.8575Y-8.8795
X9.9575Y-8.7795
X9.9575Y-8.8795
X10.0575Y-8.7795
X10.0575Y-8.8795
X10.1575Y-8.7795
X10.1575Y-8.8795
T8
X9.8022Y-3.0887
X10.0781Y-3.0887
T9
X1.5748Y-2.9528
X10.4331Y-2.9528
T0
M30
