M48
; DRILL file {KiCad (6.0.11)} date Mon Nov 13 16:00:26 2023
; FORMAT={-:-/ absolute / inch / decimal}
; #@! TF.CreationDate,2023-11-13T16:00:26-06:00
; #@! TF.GenerationSoftware,Kicad,Pcbnew,(6.0.11)
; #@! TF.FileFunction,Plated,1,2,PTH
FMAT,2
INCH
; #@! TA.AperFunction,Plated,PTH,ComponentDrill
T1C0.0118
; #@! TA.AperFunction,Plated,PTH,ViaDrill
T2C0.0157
; #@! TA.AperFunction,Plated,PTH,ComponentDrill
T3C0.0295
; #@! TA.AperFunction,Plated,PTH,ComponentDrill
T4C0.0315
; #@! TA.AperFunction,Plated,PTH,ComponentDrill
T5C0.0354
; #@! TA.AperFunction,Plated,PTH,ComponentDrill
T6C0.0390
; #@! TA.AperFunction,Plated,PTH,ComponentDrill
T7C0.0394
; #@! TA.AperFunction,Plated,PTH,ComponentDrill
T8C0.0512
; #@! TA.AperFunction,Plated,PTH,ComponentDrill
T9C0.1260
%
G90
G05
T1
X5.8465Y-3.8642
X5.8465Y-3.9114
X7.8937Y-7.3484
X7.8937Y-7.3957
T2
X1.6669Y-5.3539
X2.0292Y-6.0097
X2.1137Y-6.6296
X2.2057Y-6.22
X2.2608Y-6.5273
X2.3095Y-5.985
X2.412Y-6.5727
X2.4342Y-6.0108
X2.4905Y-8.5382
X2.5599Y-5.8201
X2.618Y-6.2612
X2.6342Y-7.2063
X2.6498Y-6.0652
X2.6541Y-6.2203
X2.7024Y-7.3739
X2.7275Y-5.7875
X2.832Y-7.052
X2.8674Y-7.6575
X2.9Y-7.3341
X2.9114Y-7.7395
X2.9978Y-5.6527
X3.0164Y-7.3465
X3.0792Y-5.7268
X3.097Y-5.2951
X3.106Y-7.6043
X3.1146Y-7.9833
X3.1261Y-6.7626
X3.1965Y-6.5961
X3.2847Y-6.8266
X3.3478Y-7.0201
X3.4325Y-8.6569
X3.4326Y-7.4657
X3.4809Y-7.252
X3.5015Y-4.5163
X3.5179Y-6.4109
X3.5549Y-6.3622
X3.6399Y-5.4357
X3.6443Y-8.1944
X3.7536Y-8.5704
X3.7778Y-7.2239
X3.894Y-5.8197
X4.0656Y-8.1489
X4.2645Y-4.0371
X4.366Y-3.6781
X4.4671Y-8.196
X4.5546Y-6.5714
X4.5941Y-3.7146
X4.6058Y-5.6114
X4.6321Y-6.5475
X4.6705Y-5.4792
X4.6825Y-7.2589
X4.7139Y-4.4695
X4.7141Y-7.1401
X4.7365Y-7.2242
X4.742Y-6.5289
X4.8077Y-5.8409
X4.9656Y-5.4291
X4.9714Y-8.2124
X5.0046Y-5.4489
X5.0316Y-7.8086
X5.0763Y-8.2186
X5.0998Y-5.2685
X5.1131Y-7.7493
X5.1488Y-7.7729
X5.154Y-5.0576
X5.298Y-5.7395
X5.3378Y-3.9466
X5.3419Y-5.0753
X5.3655Y-6.9538
X5.3735Y-5.4781
X5.3756Y-7.9557
X5.3933Y-5.9185
X5.4234Y-7.1426
X5.4528Y-5.9363
X5.4807Y-3.947
X5.4895Y-6.7335
X5.5059Y-4.5661
X5.5221Y-6.9548
X5.5288Y-6.897
X5.5402Y-5.0229
X5.5494Y-8.2296
X5.5576Y-6.8217
X5.5746Y-6.9255
X5.6148Y-6.9295
X5.6189Y-6.0864
X5.63Y-5.5888
X5.653Y-6.1149
X5.6957Y-5.9776
X5.7085Y-6.8022
X5.7148Y-3.8716
X5.7295Y-6.0461
X5.7531Y-5.1947
X5.7602Y-6.1471
X5.7775Y-8.6589
X5.7888Y-6.8261
X5.81Y-6.6349
X5.8396Y-6.686
X5.8595Y-3.7499
X5.8705Y-3.3227
X5.8786Y-6.6565
X5.9098Y-5.8172
X5.9131Y-7.264
X5.9538Y-3.4712
X5.9675Y-6.009
X5.9756Y-3.4266
X5.9841Y-7.1567
X5.9974Y-5.4956
X6.0007Y-5.9074
X6.0194Y-7.7692
X6.0275Y-5.9362
X6.0521Y-8.1775
X6.0598Y-7.7662
X6.0617Y-7.6597
X6.0675Y-7.4508
X6.0988Y-8.1933
X6.1241Y-7.2616
X6.1474Y-7.4273
X6.1484Y-5.9587
X6.173Y-8.2676
X6.1801Y-6.6286
X6.1941Y-7.2911
X6.203Y-4.7334
X6.2132Y-8.3075
X6.2302Y-7.9139
X6.2523Y-8.0258
X6.2738Y-7.8683
X6.2746Y-7.9109
X6.3179Y-6.0015
X6.33Y-7.1867
X6.3316Y-8.1033
X6.3595Y-7.4031
X6.362Y-7.6932
X6.3656Y-7.5969
X6.3737Y-8.1471
X6.4396Y-8.24
X6.4564Y-6.705
X6.49Y-6.8438
X6.506Y-8.2749
X6.5556Y-8.2739
X6.6113Y-3.4373
X6.6275Y-8.4503
X6.6393Y-8.6945
X6.6437Y-7.0792
X6.6972Y-8.5077
X6.7808Y-3.8469
X6.7813Y-5.0229
X6.8231Y-7.1867
X6.8277Y-8.5064
X6.8484Y-5.6772
X6.8486Y-7.94
X6.8557Y-8.6219
X6.8681Y-8.1716
X7.0697Y-3.4022
X7.1068Y-7.9778
X7.1825Y-3.6127
X7.3739Y-5.1113
X7.4034Y-4.3113
X7.5437Y-7.996
X7.5506Y-7.1727
X7.5841Y-4.9744
X7.5924Y-7.1623
X7.6306Y-3.4086
X7.6746Y-7.6341
X7.689Y-6.7946
X7.6913Y-5.0859
X7.7204Y-7.3073
X7.757Y-6.8734
X7.7929Y-8.0733
X7.7937Y-6.8293
X7.8043Y-6.9119
X7.8043Y-7.1329
X7.8057Y-8.0334
X7.8203Y-6.6746
X7.8359Y-7.2619
X7.8863Y-8.5756
X7.8874Y-6.0956
X7.9115Y-3.4962
X7.9178Y-7.0976
X7.9336Y-7.2747
X8.0041Y-7.5839
X8.0047Y-3.5645
X8.0374Y-6.0478
X8.0571Y-8.6565
X8.0715Y-6.3628
X8.0759Y-4.3367
X8.1112Y-3.863
X8.1512Y-3.4665
X8.1615Y-3.8722
X8.2039Y-3.4373
X8.2549Y-6.0478
X8.262Y-5.458
X8.3061Y-3.6415
X8.3445Y-8.6968
X8.3456Y-5.1031
X8.3704Y-7.1918
X8.4031Y-5.6233
X8.4139Y-8.6681
X8.5572Y-6.9985
X8.7205Y-7.2905
X8.744Y-4.8006
X8.7607Y-8.1537
X8.8089Y-4.0638
X8.8458Y-7.2267
X8.8464Y-4.5209
X8.8751Y-4.2263
X8.9276Y-7.1918
X8.953Y-3.8699
X8.9601Y-6.3102
X9.0049Y-7.2596
X9.0233Y-6.7874
X9.0425Y-6.5197
X9.1187Y-6.963
X9.1196Y-6.9196
X9.1245Y-7.2417
X9.1299Y-8.1402
X9.1356Y-7.18
X9.1372Y-6.6957
X9.2359Y-6.774
X9.2929Y-7.0433
X9.631Y-7.8203
X9.8158Y-7.7032
X9.8333Y-7.7601
T3
X1.8398Y-7.5563
X1.8898Y-7.5063
X1.8898Y-7.6063
T4
X1.6565Y-8.0413
X1.6901Y-8.6122
X1.6929Y-6.1567
X1.6929Y-6.3535
X1.6929Y-7.4094
X1.6929Y-7.6063
X1.6978Y-5.6417
X1.6978Y-5.8386
X1.703Y-4.1067
X1.703Y-4.3035
X1.703Y-4.6317
X1.703Y-4.8285
X1.703Y-5.1067
X1.703Y-5.3035
X1.703Y-6.7567
X1.703Y-6.9535
X1.7565Y-8.0413
X1.7886Y-8.6122
X1.8565Y-8.0413
X1.8898Y-6.1252
X1.8898Y-6.4252
X1.8898Y-6.7157
X1.8898Y-7.0157
X1.8998Y-4.577
X1.8998Y-4.877
X1.9028Y-4.0547
X1.9028Y-4.3547
X1.903Y-3.4801
X1.903Y-3.7801
X1.903Y-5.0551
X1.903Y-5.3551
X1.903Y-5.5801
X1.903Y-5.8801
X1.9565Y-8.0413
X1.9898Y-6.1252
X1.9898Y-6.4252
X1.9898Y-6.7157
X1.9898Y-7.0157
X1.9998Y-4.577
X1.9998Y-4.877
X2.0028Y-4.0547
X2.0028Y-4.3547
X2.003Y-5.0551
X2.003Y-5.3551
X2.003Y-5.5801
X2.003Y-5.8801
X2.0565Y-8.0413
X2.0898Y-6.1252
X2.0898Y-6.4252
X2.0898Y-6.7157
X2.0898Y-7.0157
X2.0998Y-4.577
X2.0998Y-4.877
X2.1028Y-4.0547
X2.1028Y-4.3547
X2.103Y-5.0551
X2.103Y-5.3551
X2.103Y-5.5801
X2.103Y-5.8801
X2.1565Y-8.0413
X2.1898Y-6.1252
X2.1898Y-6.4252
X2.1898Y-6.7157
X2.1898Y-7.0157
X2.1998Y-4.577
X2.1998Y-4.877
X2.2028Y-4.0547
X2.2028Y-4.3547
X2.203Y-5.0551
X2.203Y-5.3551
X2.203Y-5.5801
X2.203Y-5.8801
X2.2565Y-8.0413
X2.2898Y-6.1252
X2.2898Y-6.4252
X2.2898Y-6.7157
X2.2898Y-7.0157
X2.2998Y-4.577
X2.2998Y-4.877
X2.3028Y-4.0547
X2.3028Y-4.3547
X2.303Y-3.4801
X2.303Y-3.7801
X2.303Y-5.0551
X2.303Y-5.3551
X2.303Y-5.5801
X2.303Y-5.8801
X2.3565Y-8.0413
X2.3898Y-6.1252
X2.3898Y-6.4252
X2.3898Y-6.7157
X2.3898Y-7.0157
X2.3998Y-4.577
X2.3998Y-4.877
X2.4028Y-4.0547
X2.4028Y-4.3547
X2.403Y-5.0551
X2.403Y-5.3551
X2.403Y-5.5801
X2.403Y-5.8801
X2.4565Y-8.0413
X2.4898Y-6.1252
X2.4898Y-6.4252
X2.4898Y-6.7157
X2.4898Y-7.0157
X2.4998Y-4.577
X2.4998Y-4.877
X2.5028Y-4.0547
X2.5028Y-4.3547
X2.503Y-5.0551
X2.503Y-5.3551
X2.503Y-5.5801
X2.503Y-5.8801
X2.6779Y-6.4921
X2.703Y-3.4801
X2.703Y-3.7801
X2.728Y-6.1301
X2.7764Y-6.4921
X2.778Y-5.0551
X2.778Y-5.3551
X3.028Y-6.1301
X3.0344Y-6.9016
X3.0344Y-7.0984
X3.0344Y-7.4921
X3.0344Y-7.689
X3.0413Y-6.2815
X3.0413Y-6.4783
X3.103Y-3.4801
X3.103Y-3.7801
X3.178Y-5.3303
X3.178Y-5.5272
X3.2116Y-7.385
X3.2116Y-7.685
X3.2205Y-7.9134
X3.2278Y-6.8797
X3.2278Y-7.1797
X3.228Y-6.0801
X3.228Y-6.6801
X3.251Y-8.19
X3.251Y-8.3868
X3.3116Y-7.385
X3.3116Y-7.685
X3.3205Y-7.9134
X3.3278Y-6.8797
X3.3278Y-7.1797
X3.328Y-6.0801
X3.328Y-6.6801
X3.4116Y-7.385
X3.4116Y-7.685
X3.4205Y-7.9134
X3.4278Y-6.8797
X3.4278Y-7.1797
X3.428Y-6.0801
X3.428Y-6.6801
X3.4281Y-8.0868
X3.4281Y-8.3868
X3.478Y-3.4801
X3.478Y-3.7801
X3.5116Y-7.385
X3.5116Y-7.685
X3.5205Y-7.9134
X3.5278Y-6.8797
X3.5278Y-7.1797
X3.528Y-6.0801
X3.528Y-6.6801
X3.5281Y-8.0868
X3.5281Y-8.3868
X3.6116Y-7.385
X3.6116Y-7.685
X3.6205Y-7.9134
X3.6278Y-6.8797
X3.6278Y-7.1797
X3.628Y-6.0801
X3.628Y-6.6801
X3.6281Y-8.0868
X3.6281Y-8.3868
X3.6783Y-5.1303
X3.6783Y-5.7303
X3.7116Y-7.385
X3.7116Y-7.685
X3.7205Y-7.9134
X3.7278Y-6.8797
X3.7278Y-7.1797
X3.728Y-6.0801
X3.728Y-6.6801
X3.7281Y-8.0868
X3.7281Y-8.3868
X3.7783Y-5.1303
X3.7783Y-5.7303
X3.8116Y-7.385
X3.8116Y-7.685
X3.8205Y-7.9134
X3.8278Y-6.8797
X3.8278Y-7.1797
X3.828Y-6.0801
X3.828Y-6.6801
X3.8281Y-8.0868
X3.8281Y-8.3868
X3.853Y-3.4801
X3.853Y-3.7801
X3.8783Y-5.1303
X3.8783Y-5.7303
X3.9116Y-7.385
X3.9116Y-7.685
X3.9205Y-7.9134
X3.928Y-6.0801
X3.928Y-6.6801
X3.9281Y-8.0868
X3.9281Y-8.3868
X3.9783Y-5.1303
X3.9783Y-5.7303
X4.0116Y-7.385
X4.0116Y-7.685
X4.0205Y-7.9134
X4.028Y-6.0801
X4.028Y-6.6801
X4.0281Y-8.0868
X4.0281Y-8.3868
X4.0783Y-5.1303
X4.0783Y-5.7303
X4.1116Y-7.385
X4.1116Y-7.685
X4.128Y-6.0801
X4.128Y-6.6801
X4.1281Y-8.0868
X4.1281Y-8.3868
X4.1783Y-5.1303
X4.1783Y-5.7303
X4.228Y-6.0801
X4.228Y-6.6801
X4.2281Y-8.0868
X4.2281Y-8.3868
X4.278Y-3.4801
X4.278Y-3.7801
X4.2783Y-5.1303
X4.2783Y-5.7303
X4.328Y-6.0801
X4.328Y-6.6801
X4.3281Y-8.0868
X4.3281Y-8.3868
X4.3783Y-5.1303
X4.3783Y-5.7303
X4.428Y-6.0801
X4.428Y-6.6801
X4.4783Y-5.1303
X4.4783Y-5.7303
X4.5096Y-4.4587
X4.528Y-6.0801
X4.528Y-6.6801
X4.5783Y-5.1303
X4.5783Y-5.7303
X4.6063Y-8.6122
X4.6081Y-4.4587
X4.628Y-6.0801
X4.628Y-6.6801
X4.653Y-3.4801
X4.653Y-3.7801
X4.6783Y-5.1303
X4.6783Y-5.7303
X4.7047Y-8.6122
X4.728Y-6.0801
X4.728Y-6.6801
X4.7783Y-5.1303
X4.7783Y-5.7303
X4.828Y-6.0801
X4.828Y-6.6801
X4.8783Y-5.1303
X4.8783Y-5.7303
X4.8819Y-7.689
X4.8819Y-7.8858
X4.8819Y-8.189
X4.8819Y-8.3858
X4.8848Y-7.1673
X4.8848Y-7.3642
X4.928Y-6.0801
X4.928Y-6.6801
X4.9346Y-3.8583
X4.9346Y-3.9583
X4.9346Y-4.0583
X4.9346Y-4.1583
X4.9346Y-4.2583
X4.9346Y-4.3583
X4.9783Y-5.1303
X4.9783Y-5.7303
X5.028Y-6.0801
X5.028Y-6.6801
X5.0346Y-3.7583
X5.0346Y-3.8583
X5.0346Y-3.9583
X5.0346Y-4.0583
X5.0346Y-4.1583
X5.0346Y-4.2583
X5.0346Y-4.3583
X5.0346Y-4.4583
X5.0768Y-7.0622
X5.0768Y-7.3622
X5.0778Y-7.5819
X5.0778Y-7.8819
X5.0778Y-8.0858
X5.0778Y-8.3858
X5.128Y-6.0801
X5.128Y-6.6801
X5.1346Y-3.7583
X5.1346Y-3.8583
X5.1346Y-4.3583
X5.1346Y-4.4583
X5.1768Y-7.0622
X5.1768Y-7.3622
X5.1778Y-7.5819
X5.1778Y-7.8819
X5.1778Y-8.0858
X5.1778Y-8.3858
X5.2346Y-3.7583
X5.2346Y-3.8583
X5.2346Y-4.3583
X5.2346Y-4.4583
X5.2768Y-7.0622
X5.2768Y-7.3622
X5.2778Y-7.5819
X5.2778Y-7.8819
X5.2778Y-8.0858
X5.2778Y-8.3858
X5.328Y-6.3067
X5.328Y-6.5035
X5.3346Y-3.7583
X5.3346Y-3.8583
X5.3346Y-4.3583
X5.3346Y-4.4583
X5.374Y-3.5039
X5.3768Y-7.0622
X5.3768Y-7.3622
X5.3778Y-7.5819
X5.3778Y-7.8819
X5.3778Y-8.0858
X5.3778Y-8.3858
X5.4346Y-3.7583
X5.4346Y-3.8583
X5.4346Y-4.3583
X5.4346Y-4.4583
X5.4768Y-7.0622
X5.4768Y-7.3622
X5.4778Y-7.5819
X5.4778Y-7.8819
X5.4778Y-8.0858
X5.4778Y-8.3858
X5.5346Y-3.7583
X5.5346Y-3.8583
X5.5346Y-3.9583
X5.5346Y-4.0583
X5.5346Y-4.1583
X5.5346Y-4.2583
X5.5346Y-4.3583
X5.5346Y-4.4583
X5.5709Y-3.5039
X5.5768Y-7.0622
X5.5768Y-7.3622
X5.5778Y-7.5819
X5.5778Y-7.8819
X5.5778Y-8.0858
X5.5778Y-8.3858
X5.6346Y-3.8583
X5.6346Y-3.9583
X5.6346Y-4.0583
X5.6346Y-4.1583
X5.6346Y-4.2583
X5.6346Y-4.3583
X5.653Y-4.8051
X5.653Y-5.1051
X5.6535Y-5.2913
X5.6535Y-5.4882
X5.6768Y-7.0622
X5.6768Y-7.3622
X5.6778Y-7.5819
X5.6778Y-7.8819
X5.6778Y-8.0858
X5.6778Y-8.3858
X5.7768Y-7.0622
X5.7768Y-7.3622
X5.7778Y-7.5819
X5.7778Y-7.8819
X5.7778Y-8.0858
X5.7778Y-8.3858
X5.8531Y-5.2547
X5.8531Y-5.5547
X5.8768Y-7.0622
X5.8768Y-7.3622
X5.8778Y-7.5819
X5.8778Y-7.8819
X5.8778Y-8.0858
X5.8778Y-8.3858
X5.9531Y-5.2547
X5.9531Y-5.5547
X5.9768Y-7.0622
X5.9768Y-7.3622
X5.9778Y-7.5819
X5.9778Y-7.8819
X5.9778Y-8.0858
X5.9778Y-8.3858
X6.0531Y-5.2547
X6.0531Y-5.5547
X6.063Y-3.8189
X6.063Y-4.0157
X6.1024Y-4.3307
X6.1024Y-4.5276
X6.1531Y-5.2547
X6.1531Y-5.5547
X6.2106Y-6.2815
X6.2106Y-6.4783
X6.2531Y-5.2547
X6.2531Y-5.5547
X6.2598Y-3.7157
X6.2598Y-4.0157
X6.2992Y-4.2276
X6.2992Y-4.5276
X6.3531Y-5.2547
X6.3531Y-5.5547
X6.3598Y-3.7157
X6.3598Y-4.0157
X6.3992Y-4.2276
X6.3992Y-4.5276
X6.4028Y-6.2297
X6.4028Y-6.5297
X6.4531Y-5.2547
X6.4531Y-5.5547
X6.4598Y-3.7157
X6.4598Y-4.0157
X6.478Y-7.1317
X6.478Y-7.3285
X6.4992Y-4.2276
X6.4992Y-4.5276
X6.5028Y-6.2297
X6.5028Y-6.5297
X6.5354Y-8.189
X6.5354Y-8.3858
X6.5531Y-5.2547
X6.5531Y-5.5547
X6.5598Y-3.7157
X6.5598Y-4.0157
X6.5992Y-4.2276
X6.5992Y-4.5276
X6.6028Y-6.2297
X6.6028Y-6.5297
X6.6531Y-5.2547
X6.6531Y-5.5547
X6.6598Y-3.7157
X6.6598Y-4.0157
X6.6992Y-4.2276
X6.6992Y-4.5276
X6.7028Y-6.2297
X6.7028Y-6.5297
X6.7281Y-7.0797
X6.7281Y-7.3797
X6.7323Y-8.0858
X6.7323Y-8.3858
X6.753Y-6.8051
X6.7531Y-5.2547
X6.7531Y-5.5547
X6.7598Y-3.7157
X6.7598Y-4.0157
X6.7992Y-4.2276
X6.7992Y-4.5276
X6.8028Y-6.2297
X6.8028Y-6.5297
X6.8281Y-7.0797
X6.8281Y-7.3797
X6.8323Y-8.0858
X6.8323Y-8.3858
X6.853Y-6.8051
X6.8598Y-3.7157
X6.8598Y-4.0157
X6.8992Y-4.2276
X6.8992Y-4.5276
X6.9028Y-6.2297
X6.9028Y-6.5297
X6.9281Y-7.0797
X6.9281Y-7.3797
X6.9323Y-8.0858
X6.9323Y-8.3858
X6.953Y-6.8051
X6.9598Y-3.7157
X6.9598Y-4.0157
X7.0028Y-6.2297
X7.0028Y-6.5297
X7.0281Y-7.0797
X7.0281Y-7.3797
X7.0323Y-8.0858
X7.0323Y-8.3858
X7.053Y-6.8051
X7.0598Y-3.7157
X7.0598Y-4.0157
X7.1028Y-6.2297
X7.1028Y-6.5297
X7.1281Y-7.0797
X7.1281Y-7.3797
X7.1323Y-8.0858
X7.1323Y-8.3858
X7.153Y-6.8051
X7.1598Y-3.7157
X7.1598Y-4.0157
X7.2028Y-6.2297
X7.2028Y-6.5297
X7.2281Y-7.0797
X7.2281Y-7.3797
X7.2323Y-8.0858
X7.2323Y-8.3858
X7.253Y-6.8051
X7.3028Y-6.2297
X7.3028Y-6.5297
X7.3281Y-7.0797
X7.3281Y-7.3797
X7.3323Y-8.0858
X7.3323Y-8.3858
X7.3524Y-5.2913
X7.3524Y-5.4882
X7.353Y-6.8051
X7.4016Y-3.8189
X7.4016Y-4.0157
X7.4028Y-6.2297
X7.4028Y-6.5297
X7.4033Y-4.3701
X7.4281Y-7.0797
X7.4281Y-7.3797
X7.4323Y-8.0858
X7.4323Y-8.3858
X7.453Y-6.8051
X7.478Y-4.7317
X7.478Y-4.9285
X7.5018Y-4.3701
X7.5028Y-6.2297
X7.5028Y-6.5297
X7.5278Y-5.2297
X7.5278Y-5.5297
X7.5281Y-7.0797
X7.5281Y-7.3797
X7.5323Y-8.0858
X7.5323Y-8.3858
X7.553Y-6.8051
X7.5939Y-8.6122
X7.5984Y-3.7157
X7.5984Y-4.0157
X7.5984Y-4.1929
X7.6278Y-5.2297
X7.6278Y-5.5297
X7.6281Y-7.0797
X7.6281Y-7.3797
X7.6323Y-8.0858
X7.6323Y-8.3858
X7.6923Y-8.6122
X7.6984Y-3.7157
X7.6984Y-4.0157
X7.6984Y-4.1929
X7.7031Y-4.6797
X7.7031Y-4.9797
X7.7278Y-5.2297
X7.7278Y-5.5297
X7.7756Y-6.2815
X7.7756Y-6.4783
X7.7984Y-3.7157
X7.7984Y-4.0157
X7.7984Y-4.1929
X7.8031Y-4.6797
X7.8031Y-4.9797
X7.8278Y-5.2297
X7.8278Y-5.5297
X7.877Y-7.687
X7.877Y-7.8839
X7.877Y-8.1909
X7.877Y-8.3878
X7.8984Y-3.7157
X7.8984Y-4.0157
X7.8984Y-4.1929
X7.9031Y-4.6797
X7.9031Y-4.9797
X7.9278Y-5.2297
X7.9278Y-5.5297
X7.978Y-6.2301
X7.978Y-6.5301
X7.9984Y-3.7157
X7.9984Y-4.0157
X7.9984Y-4.1929
X8.0031Y-4.6797
X8.0031Y-4.9797
X8.0278Y-5.2297
X8.0278Y-5.5297
X8.053Y-8.0801
X8.053Y-8.3801
X8.0738Y-7.372
X8.0738Y-7.5839
X8.0738Y-7.8839
X8.078Y-6.2301
X8.078Y-6.5301
X8.0984Y-3.7157
X8.0984Y-4.0157
X8.0984Y-4.1929
X8.1031Y-4.6797
X8.1031Y-4.9797
X8.1278Y-5.2297
X8.1278Y-5.5297
X8.153Y-8.0801
X8.153Y-8.3801
X8.1738Y-7.372
X8.1738Y-7.5839
X8.1738Y-7.8839
X8.178Y-6.2301
X8.178Y-6.5301
X8.1984Y-3.7157
X8.1984Y-4.0157
X8.1984Y-4.1929
X8.2031Y-4.6797
X8.2031Y-4.9797
X8.2278Y-5.2297
X8.2278Y-5.5297
X8.253Y-8.0801
X8.253Y-8.3801
X8.2738Y-7.372
X8.2738Y-7.5839
X8.2738Y-7.8839
X8.278Y-6.2301
X8.278Y-6.5301
X8.2984Y-3.7157
X8.2984Y-4.0157
X8.2984Y-4.1929
X8.3031Y-4.6797
X8.3031Y-4.9797
X8.3278Y-5.2297
X8.3278Y-5.5297
X8.353Y-8.0801
X8.353Y-8.3801
X8.3738Y-7.372
X8.3738Y-7.5839
X8.3738Y-7.8839
X8.378Y-6.2301
X8.378Y-6.5301
X8.3984Y-3.7157
X8.3984Y-4.0157
X8.3984Y-4.1929
X8.4031Y-4.6797
X8.4031Y-4.9797
X8.4278Y-5.2297
X8.4278Y-5.5297
X8.453Y-8.0801
X8.453Y-8.3801
X8.4738Y-7.372
X8.4738Y-7.5839
X8.4738Y-7.8839
X8.478Y-6.2301
X8.478Y-6.5301
X8.4984Y-3.7157
X8.4984Y-4.0157
X8.5031Y-4.6797
X8.5031Y-4.9797
X8.5278Y-5.2297
X8.5278Y-5.5297
X8.553Y-8.0801
X8.553Y-8.3801
X8.5738Y-7.372
X8.5738Y-7.5839
X8.5738Y-7.8839
X8.578Y-6.2301
X8.578Y-6.5301
X8.6031Y-4.6797
X8.6031Y-4.9797
X8.6278Y-5.2297
X8.6278Y-5.5297
X8.653Y-8.0801
X8.653Y-8.3801
X8.6738Y-7.372
X8.6738Y-7.5839
X8.6738Y-7.8839
X8.678Y-6.2301
X8.678Y-6.5301
X8.753Y-8.0801
X8.753Y-8.3801
X8.7738Y-7.372
X8.7738Y-7.5839
X8.7738Y-7.8839
X8.778Y-6.2301
X8.778Y-6.5301
X8.853Y-8.0801
X8.853Y-8.3801
X8.8738Y-7.372
X8.8738Y-7.5839
X8.8738Y-7.8839
X8.878Y-6.2301
X8.878Y-6.5301
X8.953Y-8.0801
X8.953Y-8.3801
X8.9738Y-7.5839
X8.9738Y-7.8839
X9.1258Y-4.9606
X9.1732Y-5.2831
X9.1732Y-5.5831
X9.1831Y-6.8161
X9.1831Y-7.1161
X9.1831Y-7.2394
X9.1831Y-7.5394
X9.2156Y-8.1909
X9.2156Y-8.3878
X9.2242Y-4.9606
X9.4124Y-8.0878
X9.4124Y-8.3878
X9.4144Y-5.3858
X9.4144Y-5.5827
X9.4144Y-6.9213
X9.4144Y-7.1181
X9.4144Y-7.6693
X9.4144Y-7.8661
X9.5124Y-8.0878
X9.5124Y-8.3878
X9.6124Y-8.0878
X9.6124Y-8.3878
X9.7124Y-8.0878
X9.7124Y-8.3878
X9.8124Y-8.0878
X9.8124Y-8.3878
X9.9124Y-8.0878
X9.9124Y-8.3878
X10.0124Y-8.0878
X10.0124Y-8.3878
X10.1124Y-8.0878
X10.1124Y-8.3878
X10.2124Y-8.0878
X10.2124Y-8.3878
X10.3124Y-8.0878
X10.3124Y-8.3878
T5
X1.9079Y-3.189
X2.0079Y-3.189
X2.3016Y-3.189
X2.4016Y-3.189
X2.7022Y-3.1915
X2.8022Y-3.1915
X3.089Y-3.189
X3.189Y-3.189
X3.4827Y-3.189
X3.5827Y-3.189
X3.8764Y-3.189
X3.9764Y-3.189
X4.2772Y-3.189
X4.3772Y-3.189
X4.6638Y-3.189
X4.7638Y-3.189
T6
X9.8514Y-2.9906
X10.0285Y-2.9906
T7
X1.852Y-8.7795
X1.852Y-8.8795
X1.952Y-8.7795
X1.952Y-8.8795
X2.052Y-8.7795
X2.052Y-8.8795
X2.152Y-8.7795
X2.152Y-8.8795
X2.228Y-7.4801
X2.228Y-7.5801
X2.252Y-8.7795
X2.252Y-8.8795
X2.352Y-8.7795
X2.352Y-8.8795
X2.452Y-8.7795
X2.452Y-8.8795
X2.503Y-7.3801
X2.503Y-7.4801
X2.503Y-7.5801
X2.552Y-8.7795
X2.552Y-8.8795
X2.652Y-8.7795
X2.652Y-8.8795
X2.7441Y-8.2868
X2.7441Y-8.3868
X2.752Y-8.7795
X2.752Y-8.8795
X2.8441Y-8.2868
X2.8441Y-8.3868
X2.852Y-8.7795
X2.852Y-8.8795
X2.9441Y-8.2868
X2.9441Y-8.3868
X2.952Y-8.7795
X2.952Y-8.8795
X3.0441Y-8.2868
X3.0441Y-8.3868
X3.052Y-8.7795
X3.052Y-8.8795
X3.152Y-8.7795
X3.152Y-8.8795
X3.252Y-8.7795
X3.252Y-8.8795
X3.352Y-8.7795
X3.352Y-8.8795
X3.452Y-8.7795
X3.452Y-8.8795
X3.552Y-8.7795
X3.552Y-8.8795
X3.652Y-8.7795
X3.652Y-8.8795
X3.752Y-8.7795
X3.752Y-8.8795
X3.852Y-8.7795
X3.852Y-8.8795
X3.952Y-8.7795
X3.952Y-8.8795
X4.052Y-8.7795
X4.052Y-8.8795
X4.152Y-8.7795
X4.152Y-8.8795
X4.252Y-8.7795
X4.252Y-8.8795
X4.4528Y-7.0055
X4.4528Y-7.1055
X4.4528Y-7.2055
X4.4528Y-7.3055
X4.5528Y-7.0055
X4.5528Y-7.1055
X4.5528Y-7.2055
X4.5528Y-7.3055
X4.7654Y-8.7795
X4.7654Y-8.8795
X4.8654Y-8.7795
X4.8654Y-8.8795
X4.9654Y-8.7795
X4.9654Y-8.8795
X4.9785Y-3.2024
X5.0654Y-8.7795
X5.0654Y-8.8795
X5.0785Y-3.2024
X5.1654Y-8.7795
X5.1654Y-8.8795
X5.1785Y-3.2024
X5.2654Y-8.7795
X5.2654Y-8.8795
X5.3654Y-8.7795
X5.3654Y-8.8795
X5.453Y-3.2051
X5.4654Y-8.7795
X5.4654Y-8.8795
X5.553Y-3.2051
X5.5654Y-8.7795
X5.5654Y-8.8795
X5.653Y-3.2051
X5.6654Y-8.7795
X5.6654Y-8.8795
X5.7654Y-8.7795
X5.7654Y-8.8795
X5.8654Y-8.7795
X5.8654Y-8.8795
X5.9035Y-3.2024
X5.9654Y-8.7795
X5.9654Y-8.8795
X6.0035Y-3.2024
X6.0654Y-8.7795
X6.0654Y-8.8795
X6.1035Y-3.2024
X6.1654Y-8.7795
X6.1654Y-8.8795
X6.2654Y-8.7795
X6.2654Y-8.8795
X6.3528Y-3.2024
X6.3654Y-8.7795
X6.3654Y-8.8795
X6.4528Y-3.2024
X6.4654Y-8.7795
X6.4654Y-8.8795
X6.5654Y-8.7795
X6.5654Y-8.8795
X6.6654Y-8.7795
X6.6654Y-8.8795
X6.7654Y-8.7795
X6.7654Y-8.8795
X6.8159Y-7.5959
X6.8159Y-7.6959
X6.8654Y-8.7795
X6.8654Y-8.8795
X6.9159Y-7.5959
X6.9159Y-7.6959
X6.9654Y-8.7795
X6.9654Y-8.8795
X7.0159Y-7.5959
X7.0159Y-7.6959
X7.0654Y-8.7795
X7.0654Y-8.8795
X7.1159Y-7.5959
X7.1159Y-7.6959
X7.1654Y-8.7795
X7.1654Y-8.8795
X7.2047Y-4.3307
X7.2047Y-4.4307
X7.2159Y-7.5959
X7.2159Y-7.6959
X7.3159Y-7.5959
X7.3159Y-7.6959
X7.376Y-3.2038
X7.376Y-3.3038
X7.4159Y-7.5959
X7.4159Y-7.6959
X7.476Y-3.2038
X7.476Y-3.3038
X7.5159Y-7.5959
X7.5159Y-7.6959
X7.576Y-3.2038
X7.576Y-3.3038
X7.676Y-3.2038
X7.676Y-3.3038
X7.7575Y-8.7795
X7.7575Y-8.8795
X7.776Y-3.2038
X7.776Y-3.3038
X7.8575Y-8.7795
X7.8575Y-8.8795
X7.876Y-3.2038
X7.876Y-3.3038
X7.9575Y-8.7795
X7.9575Y-8.8795
X7.976Y-3.2038
X7.976Y-3.3038
X8.0575Y-8.7795
X8.0575Y-8.8795
X8.076Y-3.2038
X8.076Y-3.3038
X8.1575Y-8.7795
X8.1575Y-8.8795
X8.1693Y-6.9778
X8.1693Y-7.0778
X8.176Y-3.2038
X8.176Y-3.3038
X8.2575Y-8.7795
X8.2575Y-8.8795
X8.2693Y-6.9778
X8.2693Y-7.0778
X8.276Y-3.2038
X8.276Y-3.3038
X8.3575Y-8.7795
X8.3575Y-8.8795
X8.3693Y-6.9778
X8.3693Y-7.0778
X8.376Y-3.2038
X8.376Y-3.3038
X8.4575Y-8.7795
X8.4575Y-8.8795
X8.4693Y-6.9778
X8.4693Y-7.0778
X8.476Y-3.2038
X8.476Y-3.3038
X8.5575Y-8.7795
X8.5575Y-8.8795
X8.576Y-3.2038
X8.576Y-3.3038
X8.6575Y-8.7795
X8.6575Y-8.8795
X8.676Y-3.2038
X8.676Y-3.3038
X8.7575Y-8.7795
X8.7575Y-8.8795
X8.776Y-3.2038
X8.776Y-3.3038
X8.8575Y-8.7795
X8.8575Y-8.8795
X8.876Y-3.2038
X8.876Y-3.3038
X8.9575Y-8.7795
X8.9575Y-8.8795
X8.976Y-3.2038
X8.976Y-3.3038
X9.0575Y-8.7795
X9.0575Y-8.8795
X9.076Y-3.2038
X9.076Y-3.3038
X9.1575Y-8.7795
X9.1575Y-8.8795
X9.176Y-3.2038
X9.176Y-3.3038
X9.2575Y-8.7795
X9.2575Y-8.8795
X9.276Y-3.2038
X9.276Y-3.3038
X9.3575Y-8.7795
X9.3575Y-8.8795
X9.4575Y-8.7795
X9.4575Y-8.8795
X9.5575Y-8.7795
X9.5575Y-8.8795
X9.6575Y-8.7795
X9.6575Y-8.8795
X9.7575Y-8.7795
X9.7575Y-8.8795
X9.8575Y-8.7795
X9.8575Y-8.8795
X9.9575Y-8.7795
X9.9575Y-8.8795
X10.0575Y-8.7795
X10.0575Y-8.8795
X10.1575Y-8.7795
X10.1575Y-8.8795
T8
X9.8022Y-3.0887
X10.0781Y-3.0887
T9
X1.5748Y-2.9528
X10.4331Y-2.9528
T0
M30
