%TF.GenerationSoftware,KiCad,Pcbnew,(6.0.11)*%
%TF.CreationDate,2024-01-26T22:10:11-05:00*%
%TF.ProjectId,FirstZ80,46697273-745a-4383-902e-6b696361645f,rev?*%
%TF.SameCoordinates,Original*%
%TF.FileFunction,Drillmap*%
%TF.FilePolarity,Positive*%
%FSLAX45Y45*%
G04 Gerber Fmt 4.5, Leading zero omitted, Abs format (unit mm)*
G04 Created by KiCad (PCBNEW (6.0.11)) date 2024-01-26 22:10:11*
%MOMM*%
%LPD*%
G01*
G04 APERTURE LIST*
%ADD10C,0.100000*%
%ADD11C,0.200000*%
%ADD12C,0.350000*%
G04 APERTURE END LIST*
D10*
X6000000Y-16000000D02*
X22000000Y-16000000D01*
X22000000Y-16000000D02*
X22000000Y-6000000D01*
X22000000Y-6000000D02*
X6000000Y-6000000D01*
X6000000Y-6000000D02*
X6000000Y-16000000D01*
D11*
D12*
X12315500Y-6683000D02*
X12665500Y-7033000D01*
X12665500Y-6683000D02*
X12315500Y-7033000D01*
D11*
X6252619Y-16315476D02*
X6252619Y-16115476D01*
X6300238Y-16115476D01*
X6328809Y-16125000D01*
X6347857Y-16144048D01*
X6357381Y-16163095D01*
X6366905Y-16201190D01*
X6366905Y-16229762D01*
X6357381Y-16267857D01*
X6347857Y-16286905D01*
X6328809Y-16305952D01*
X6300238Y-16315476D01*
X6252619Y-16315476D01*
X6452619Y-16315476D02*
X6452619Y-16182143D01*
X6452619Y-16220238D02*
X6462143Y-16201190D01*
X6471667Y-16191667D01*
X6490714Y-16182143D01*
X6509762Y-16182143D01*
X6576428Y-16315476D02*
X6576428Y-16182143D01*
X6576428Y-16115476D02*
X6566905Y-16125000D01*
X6576428Y-16134524D01*
X6585952Y-16125000D01*
X6576428Y-16115476D01*
X6576428Y-16134524D01*
X6700238Y-16315476D02*
X6681190Y-16305952D01*
X6671667Y-16286905D01*
X6671667Y-16115476D01*
X6805000Y-16315476D02*
X6785952Y-16305952D01*
X6776428Y-16286905D01*
X6776428Y-16115476D01*
X7033571Y-16315476D02*
X7033571Y-16115476D01*
X7100238Y-16258333D01*
X7166905Y-16115476D01*
X7166905Y-16315476D01*
X7347857Y-16315476D02*
X7347857Y-16210714D01*
X7338333Y-16191667D01*
X7319286Y-16182143D01*
X7281190Y-16182143D01*
X7262143Y-16191667D01*
X7347857Y-16305952D02*
X7328809Y-16315476D01*
X7281190Y-16315476D01*
X7262143Y-16305952D01*
X7252619Y-16286905D01*
X7252619Y-16267857D01*
X7262143Y-16248809D01*
X7281190Y-16239286D01*
X7328809Y-16239286D01*
X7347857Y-16229762D01*
X7443095Y-16182143D02*
X7443095Y-16382143D01*
X7443095Y-16191667D02*
X7462143Y-16182143D01*
X7500238Y-16182143D01*
X7519286Y-16191667D01*
X7528809Y-16201190D01*
X7538333Y-16220238D01*
X7538333Y-16277381D01*
X7528809Y-16296428D01*
X7519286Y-16305952D01*
X7500238Y-16315476D01*
X7462143Y-16315476D01*
X7443095Y-16305952D01*
X7624048Y-16296428D02*
X7633571Y-16305952D01*
X7624048Y-16315476D01*
X7614524Y-16305952D01*
X7624048Y-16296428D01*
X7624048Y-16315476D01*
X7624048Y-16191667D02*
X7633571Y-16201190D01*
X7624048Y-16210714D01*
X7614524Y-16201190D01*
X7624048Y-16191667D01*
X7624048Y-16210714D01*
X5795000Y-16545000D02*
X5995000Y-16745000D01*
X5995000Y-16545000D02*
X5795000Y-16745000D01*
X6233571Y-16535476D02*
X6357381Y-16535476D01*
X6290714Y-16611667D01*
X6319286Y-16611667D01*
X6338333Y-16621190D01*
X6347857Y-16630714D01*
X6357381Y-16649762D01*
X6357381Y-16697381D01*
X6347857Y-16716428D01*
X6338333Y-16725952D01*
X6319286Y-16735476D01*
X6262143Y-16735476D01*
X6243095Y-16725952D01*
X6233571Y-16716428D01*
X6443095Y-16716428D02*
X6452619Y-16725952D01*
X6443095Y-16735476D01*
X6433571Y-16725952D01*
X6443095Y-16716428D01*
X6443095Y-16735476D01*
X6633571Y-16535476D02*
X6538333Y-16535476D01*
X6528809Y-16630714D01*
X6538333Y-16621190D01*
X6557381Y-16611667D01*
X6605000Y-16611667D01*
X6624048Y-16621190D01*
X6633571Y-16630714D01*
X6643095Y-16649762D01*
X6643095Y-16697381D01*
X6633571Y-16716428D01*
X6624048Y-16725952D01*
X6605000Y-16735476D01*
X6557381Y-16735476D01*
X6538333Y-16725952D01*
X6528809Y-16716428D01*
X6766905Y-16535476D02*
X6785952Y-16535476D01*
X6805000Y-16545000D01*
X6814524Y-16554524D01*
X6824048Y-16573571D01*
X6833571Y-16611667D01*
X6833571Y-16659286D01*
X6824048Y-16697381D01*
X6814524Y-16716428D01*
X6805000Y-16725952D01*
X6785952Y-16735476D01*
X6766905Y-16735476D01*
X6747857Y-16725952D01*
X6738333Y-16716428D01*
X6728809Y-16697381D01*
X6719286Y-16659286D01*
X6719286Y-16611667D01*
X6728809Y-16573571D01*
X6738333Y-16554524D01*
X6747857Y-16545000D01*
X6766905Y-16535476D01*
X6957381Y-16535476D02*
X6976428Y-16535476D01*
X6995476Y-16545000D01*
X7005000Y-16554524D01*
X7014524Y-16573571D01*
X7024048Y-16611667D01*
X7024048Y-16659286D01*
X7014524Y-16697381D01*
X7005000Y-16716428D01*
X6995476Y-16725952D01*
X6976428Y-16735476D01*
X6957381Y-16735476D01*
X6938333Y-16725952D01*
X6928809Y-16716428D01*
X6919286Y-16697381D01*
X6909762Y-16659286D01*
X6909762Y-16611667D01*
X6919286Y-16573571D01*
X6928809Y-16554524D01*
X6938333Y-16545000D01*
X6957381Y-16535476D01*
X7109762Y-16735476D02*
X7109762Y-16602143D01*
X7109762Y-16621190D02*
X7119286Y-16611667D01*
X7138333Y-16602143D01*
X7166905Y-16602143D01*
X7185952Y-16611667D01*
X7195476Y-16630714D01*
X7195476Y-16735476D01*
X7195476Y-16630714D02*
X7205000Y-16611667D01*
X7224048Y-16602143D01*
X7252619Y-16602143D01*
X7271667Y-16611667D01*
X7281190Y-16630714D01*
X7281190Y-16735476D01*
X7376428Y-16735476D02*
X7376428Y-16602143D01*
X7376428Y-16621190D02*
X7385952Y-16611667D01*
X7405000Y-16602143D01*
X7433571Y-16602143D01*
X7452619Y-16611667D01*
X7462143Y-16630714D01*
X7462143Y-16735476D01*
X7462143Y-16630714D02*
X7471667Y-16611667D01*
X7490714Y-16602143D01*
X7519286Y-16602143D01*
X7538333Y-16611667D01*
X7547857Y-16630714D01*
X7547857Y-16735476D01*
X7938333Y-16525952D02*
X7766905Y-16783095D01*
X8195476Y-16535476D02*
X8214524Y-16535476D01*
X8233571Y-16545000D01*
X8243095Y-16554524D01*
X8252619Y-16573571D01*
X8262143Y-16611667D01*
X8262143Y-16659286D01*
X8252619Y-16697381D01*
X8243095Y-16716428D01*
X8233571Y-16725952D01*
X8214524Y-16735476D01*
X8195476Y-16735476D01*
X8176428Y-16725952D01*
X8166905Y-16716428D01*
X8157381Y-16697381D01*
X8147857Y-16659286D01*
X8147857Y-16611667D01*
X8157381Y-16573571D01*
X8166905Y-16554524D01*
X8176428Y-16545000D01*
X8195476Y-16535476D01*
X8347857Y-16716428D02*
X8357381Y-16725952D01*
X8347857Y-16735476D01*
X8338333Y-16725952D01*
X8347857Y-16716428D01*
X8347857Y-16735476D01*
X8547857Y-16735476D02*
X8433571Y-16735476D01*
X8490714Y-16735476D02*
X8490714Y-16535476D01*
X8471667Y-16564048D01*
X8452619Y-16583095D01*
X8433571Y-16592619D01*
X8614524Y-16535476D02*
X8738333Y-16535476D01*
X8671667Y-16611667D01*
X8700238Y-16611667D01*
X8719286Y-16621190D01*
X8728810Y-16630714D01*
X8738333Y-16649762D01*
X8738333Y-16697381D01*
X8728810Y-16716428D01*
X8719286Y-16725952D01*
X8700238Y-16735476D01*
X8643095Y-16735476D01*
X8624048Y-16725952D01*
X8614524Y-16716428D01*
X8805000Y-16535476D02*
X8938333Y-16535476D01*
X8852619Y-16735476D01*
X9043095Y-16621190D02*
X9024048Y-16611667D01*
X9014524Y-16602143D01*
X9005000Y-16583095D01*
X9005000Y-16573571D01*
X9014524Y-16554524D01*
X9024048Y-16545000D01*
X9043095Y-16535476D01*
X9081190Y-16535476D01*
X9100238Y-16545000D01*
X9109762Y-16554524D01*
X9119286Y-16573571D01*
X9119286Y-16583095D01*
X9109762Y-16602143D01*
X9100238Y-16611667D01*
X9081190Y-16621190D01*
X9043095Y-16621190D01*
X9024048Y-16630714D01*
X9014524Y-16640238D01*
X9005000Y-16659286D01*
X9005000Y-16697381D01*
X9014524Y-16716428D01*
X9024048Y-16725952D01*
X9043095Y-16735476D01*
X9081190Y-16735476D01*
X9100238Y-16725952D01*
X9109762Y-16716428D01*
X9119286Y-16697381D01*
X9119286Y-16659286D01*
X9109762Y-16640238D01*
X9100238Y-16630714D01*
X9081190Y-16621190D01*
X9195476Y-16535476D02*
X9195476Y-16573571D01*
X9271667Y-16535476D02*
X9271667Y-16573571D01*
X9566905Y-16811667D02*
X9557381Y-16802143D01*
X9538333Y-16773571D01*
X9528810Y-16754524D01*
X9519286Y-16725952D01*
X9509762Y-16678333D01*
X9509762Y-16640238D01*
X9519286Y-16592619D01*
X9528810Y-16564048D01*
X9538333Y-16545000D01*
X9557381Y-16516428D01*
X9566905Y-16506905D01*
X9747857Y-16735476D02*
X9633571Y-16735476D01*
X9690714Y-16735476D02*
X9690714Y-16535476D01*
X9671667Y-16564048D01*
X9652619Y-16583095D01*
X9633571Y-16592619D01*
X9985952Y-16735476D02*
X9985952Y-16535476D01*
X10071667Y-16735476D02*
X10071667Y-16630714D01*
X10062143Y-16611667D01*
X10043095Y-16602143D01*
X10014524Y-16602143D01*
X9995476Y-16611667D01*
X9985952Y-16621190D01*
X10195476Y-16735476D02*
X10176429Y-16725952D01*
X10166905Y-16716428D01*
X10157381Y-16697381D01*
X10157381Y-16640238D01*
X10166905Y-16621190D01*
X10176429Y-16611667D01*
X10195476Y-16602143D01*
X10224048Y-16602143D01*
X10243095Y-16611667D01*
X10252619Y-16621190D01*
X10262143Y-16640238D01*
X10262143Y-16697381D01*
X10252619Y-16716428D01*
X10243095Y-16725952D01*
X10224048Y-16735476D01*
X10195476Y-16735476D01*
X10376429Y-16735476D02*
X10357381Y-16725952D01*
X10347857Y-16706905D01*
X10347857Y-16535476D01*
X10528810Y-16725952D02*
X10509762Y-16735476D01*
X10471667Y-16735476D01*
X10452619Y-16725952D01*
X10443095Y-16706905D01*
X10443095Y-16630714D01*
X10452619Y-16611667D01*
X10471667Y-16602143D01*
X10509762Y-16602143D01*
X10528810Y-16611667D01*
X10538333Y-16630714D01*
X10538333Y-16649762D01*
X10443095Y-16668809D01*
X10605000Y-16811667D02*
X10614524Y-16802143D01*
X10633571Y-16773571D01*
X10643095Y-16754524D01*
X10652619Y-16725952D01*
X10662143Y-16678333D01*
X10662143Y-16640238D01*
X10652619Y-16592619D01*
X10643095Y-16564048D01*
X10633571Y-16545000D01*
X10614524Y-16516428D01*
X10605000Y-16506905D01*
X10966905Y-16811667D02*
X10957381Y-16802143D01*
X10938333Y-16773571D01*
X10928810Y-16754524D01*
X10919286Y-16725952D01*
X10909762Y-16678333D01*
X10909762Y-16640238D01*
X10919286Y-16592619D01*
X10928810Y-16564048D01*
X10938333Y-16545000D01*
X10957381Y-16516428D01*
X10966905Y-16506905D01*
X11043095Y-16602143D02*
X11043095Y-16735476D01*
X11043095Y-16621190D02*
X11052619Y-16611667D01*
X11071667Y-16602143D01*
X11100238Y-16602143D01*
X11119286Y-16611667D01*
X11128810Y-16630714D01*
X11128810Y-16735476D01*
X11252619Y-16735476D02*
X11233571Y-16725952D01*
X11224048Y-16716428D01*
X11214524Y-16697381D01*
X11214524Y-16640238D01*
X11224048Y-16621190D01*
X11233571Y-16611667D01*
X11252619Y-16602143D01*
X11281190Y-16602143D01*
X11300238Y-16611667D01*
X11309762Y-16621190D01*
X11319286Y-16640238D01*
X11319286Y-16697381D01*
X11309762Y-16716428D01*
X11300238Y-16725952D01*
X11281190Y-16735476D01*
X11252619Y-16735476D01*
X11376428Y-16602143D02*
X11452619Y-16602143D01*
X11405000Y-16535476D02*
X11405000Y-16706905D01*
X11414524Y-16725952D01*
X11433571Y-16735476D01*
X11452619Y-16735476D01*
X11671667Y-16602143D02*
X11671667Y-16802143D01*
X11671667Y-16611667D02*
X11690714Y-16602143D01*
X11728809Y-16602143D01*
X11747857Y-16611667D01*
X11757381Y-16621190D01*
X11766905Y-16640238D01*
X11766905Y-16697381D01*
X11757381Y-16716428D01*
X11747857Y-16725952D01*
X11728809Y-16735476D01*
X11690714Y-16735476D01*
X11671667Y-16725952D01*
X11881190Y-16735476D02*
X11862143Y-16725952D01*
X11852619Y-16706905D01*
X11852619Y-16535476D01*
X12043095Y-16735476D02*
X12043095Y-16630714D01*
X12033571Y-16611667D01*
X12014524Y-16602143D01*
X11976428Y-16602143D01*
X11957381Y-16611667D01*
X12043095Y-16725952D02*
X12024048Y-16735476D01*
X11976428Y-16735476D01*
X11957381Y-16725952D01*
X11947857Y-16706905D01*
X11947857Y-16687857D01*
X11957381Y-16668809D01*
X11976428Y-16659286D01*
X12024048Y-16659286D01*
X12043095Y-16649762D01*
X12109762Y-16602143D02*
X12185952Y-16602143D01*
X12138333Y-16535476D02*
X12138333Y-16706905D01*
X12147857Y-16725952D01*
X12166905Y-16735476D01*
X12185952Y-16735476D01*
X12328809Y-16725952D02*
X12309762Y-16735476D01*
X12271667Y-16735476D01*
X12252619Y-16725952D01*
X12243095Y-16706905D01*
X12243095Y-16630714D01*
X12252619Y-16611667D01*
X12271667Y-16602143D01*
X12309762Y-16602143D01*
X12328809Y-16611667D01*
X12338333Y-16630714D01*
X12338333Y-16649762D01*
X12243095Y-16668809D01*
X12509762Y-16735476D02*
X12509762Y-16535476D01*
X12509762Y-16725952D02*
X12490714Y-16735476D01*
X12452619Y-16735476D01*
X12433571Y-16725952D01*
X12424048Y-16716428D01*
X12414524Y-16697381D01*
X12414524Y-16640238D01*
X12424048Y-16621190D01*
X12433571Y-16611667D01*
X12452619Y-16602143D01*
X12490714Y-16602143D01*
X12509762Y-16611667D01*
X12585952Y-16811667D02*
X12595476Y-16802143D01*
X12614524Y-16773571D01*
X12624048Y-16754524D01*
X12633571Y-16725952D01*
X12643095Y-16678333D01*
X12643095Y-16640238D01*
X12633571Y-16592619D01*
X12624048Y-16564048D01*
X12614524Y-16545000D01*
X12595476Y-16516428D01*
X12585952Y-16506905D01*
M02*
