G04 #@! TF.FileFunction,Paste,Top*
%FSLAX46Y46*%
G04 Gerber Fmt 4.6, Leading zero omitted, Abs format (unit mm)*
G04 Created by KiCad (PCBNEW (2015-09-08 BZR 6170, Git 6269158)-product) date 8/14/2016 2:55:12 PM*
%MOMM*%
G01*
G04 APERTURE LIST*
%ADD10C,0.100000*%
%ADD11R,3.400000X0.430000*%
%ADD12R,3.000000X0.430000*%
%ADD13R,0.430000X3.000000*%
G04 APERTURE END LIST*
D10*
D11*
X139890000Y-97255000D03*
D12*
X140090000Y-97905000D03*
X140090000Y-98555000D03*
X140090000Y-99205000D03*
X140090000Y-99855000D03*
X140090000Y-100505000D03*
X140090000Y-101155000D03*
X140090000Y-101805000D03*
X140090000Y-102455000D03*
X140090000Y-103105000D03*
X140090000Y-103755000D03*
X140090000Y-104405000D03*
X140090000Y-105055000D03*
X140090000Y-105705000D03*
X140090000Y-106355000D03*
X140090000Y-107005000D03*
X140090000Y-107655000D03*
X140090000Y-108305000D03*
X140090000Y-108955000D03*
X140090000Y-109605000D03*
X140090000Y-110255000D03*
X140090000Y-110905000D03*
X140090000Y-111555000D03*
X140090000Y-112205000D03*
X140090000Y-112855000D03*
X140090000Y-113505000D03*
X140090000Y-114155000D03*
X140090000Y-114805000D03*
X140090000Y-115455000D03*
X140090000Y-116105000D03*
D13*
X142415000Y-118180000D03*
X143065000Y-118180000D03*
X143715000Y-118180000D03*
X144365000Y-118180000D03*
X145015000Y-118180000D03*
X145665000Y-118180000D03*
X146315000Y-118180000D03*
X146965000Y-118180000D03*
X147615000Y-118180000D03*
X148265000Y-118180000D03*
X148915000Y-118180000D03*
X149565000Y-118180000D03*
X150215000Y-118180000D03*
X150865000Y-118180000D03*
X151515000Y-118180000D03*
X152165000Y-118180000D03*
X152815000Y-118180000D03*
X153465000Y-118180000D03*
X154115000Y-118180000D03*
X154765000Y-118180000D03*
D12*
X157090000Y-116105000D03*
X157090000Y-115455000D03*
X157090000Y-114805000D03*
X157090000Y-114155000D03*
X157090000Y-113505000D03*
X157090000Y-112855000D03*
X157090000Y-112205000D03*
X157090000Y-111555000D03*
X157090000Y-110905000D03*
X157090000Y-110255000D03*
X157090000Y-109605000D03*
X157090000Y-108955000D03*
X157090000Y-108305000D03*
X157090000Y-107655000D03*
X157090000Y-107005000D03*
X157090000Y-106355000D03*
X157090000Y-105705000D03*
X157090000Y-105055000D03*
X157090000Y-104405000D03*
X157090000Y-103755000D03*
X157090000Y-103105000D03*
X157090000Y-102455000D03*
X157090000Y-101805000D03*
X157090000Y-101155000D03*
X157090000Y-100505000D03*
X157090000Y-99855000D03*
X157090000Y-99205000D03*
X157090000Y-98555000D03*
X157090000Y-97905000D03*
X157090000Y-97255000D03*
D13*
X154765000Y-95180000D03*
X154115000Y-95180000D03*
X153465000Y-95180000D03*
X152815000Y-95180000D03*
X152165000Y-95180000D03*
X151515000Y-95180000D03*
X150865000Y-95180000D03*
X150215000Y-95180000D03*
X149565000Y-95180000D03*
X148915000Y-95180000D03*
X148265000Y-95180000D03*
X147615000Y-95180000D03*
X146965000Y-95180000D03*
X146315000Y-95180000D03*
X145665000Y-95180000D03*
X145015000Y-95180000D03*
X144365000Y-95180000D03*
X143715000Y-95180000D03*
X143065000Y-95180000D03*
X142415000Y-95180000D03*
M02*
