G04 #@! TF.FileFunction,Copper,L2,Bot,Signal*
%FSLAX46Y46*%
G04 Gerber Fmt 4.6, Leading zero omitted, Abs format (unit mm)*
G04 Created by KiCad (PCBNEW (2015-09-08 BZR 6170, Git 6269158)-product) date 8/14/2016 2:55:12 PM*
%MOMM*%
G01*
G04 APERTURE LIST*
%ADD10C,0.100000*%
%ADD11R,1.727200X1.727200*%
%ADD12O,1.727200X1.727200*%
%ADD13C,0.600000*%
%ADD14C,0.200000*%
G04 APERTURE END LIST*
D10*
D11*
X129540000Y-88900000D03*
D12*
X132080000Y-88900000D03*
X129540000Y-91440000D03*
X132080000Y-91440000D03*
X129540000Y-93980000D03*
X132080000Y-93980000D03*
X129540000Y-96520000D03*
X132080000Y-96520000D03*
X129540000Y-99060000D03*
X132080000Y-99060000D03*
X129540000Y-101600000D03*
X132080000Y-101600000D03*
X129540000Y-104140000D03*
X132080000Y-104140000D03*
X129540000Y-106680000D03*
X132080000Y-106680000D03*
X129540000Y-109220000D03*
X132080000Y-109220000D03*
X129540000Y-111760000D03*
X132080000Y-111760000D03*
X129540000Y-114300000D03*
X132080000Y-114300000D03*
X129540000Y-116840000D03*
X132080000Y-116840000D03*
X129540000Y-119380000D03*
X132080000Y-119380000D03*
X129540000Y-121920000D03*
X132080000Y-121920000D03*
X129540000Y-124460000D03*
X132080000Y-124460000D03*
D11*
X137160000Y-129540000D03*
D12*
X137160000Y-127000000D03*
X139700000Y-129540000D03*
X139700000Y-127000000D03*
X142240000Y-129540000D03*
X142240000Y-127000000D03*
X144780000Y-129540000D03*
X144780000Y-127000000D03*
X147320000Y-129540000D03*
X147320000Y-127000000D03*
X149860000Y-129540000D03*
X149860000Y-127000000D03*
X152400000Y-129540000D03*
X152400000Y-127000000D03*
X154940000Y-129540000D03*
X154940000Y-127000000D03*
X157480000Y-129540000D03*
X157480000Y-127000000D03*
X160020000Y-129540000D03*
X160020000Y-127000000D03*
D11*
X167640000Y-124460000D03*
D12*
X165100000Y-124460000D03*
X167640000Y-121920000D03*
X165100000Y-121920000D03*
X167640000Y-119380000D03*
X165100000Y-119380000D03*
X167640000Y-116840000D03*
X165100000Y-116840000D03*
X167640000Y-114300000D03*
X165100000Y-114300000D03*
X167640000Y-111760000D03*
X165100000Y-111760000D03*
X167640000Y-109220000D03*
X165100000Y-109220000D03*
X167640000Y-106680000D03*
X165100000Y-106680000D03*
X167640000Y-104140000D03*
X165100000Y-104140000D03*
X167640000Y-101600000D03*
X165100000Y-101600000D03*
X167640000Y-99060000D03*
X165100000Y-99060000D03*
X167640000Y-96520000D03*
X165100000Y-96520000D03*
X167640000Y-93980000D03*
X165100000Y-93980000D03*
X167640000Y-91440000D03*
X165100000Y-91440000D03*
X167640000Y-88900000D03*
X165100000Y-88900000D03*
D11*
X160020000Y-83820000D03*
D12*
X160020000Y-86360000D03*
X157480000Y-83820000D03*
X157480000Y-86360000D03*
X154940000Y-83820000D03*
X154940000Y-86360000D03*
X152400000Y-83820000D03*
X152400000Y-86360000D03*
X149860000Y-83820000D03*
X149860000Y-86360000D03*
X147320000Y-83820000D03*
X147320000Y-86360000D03*
X144780000Y-83820000D03*
X144780000Y-86360000D03*
X142240000Y-83820000D03*
X142240000Y-86360000D03*
X139700000Y-83820000D03*
X139700000Y-86360000D03*
X137160000Y-83820000D03*
X137160000Y-86360000D03*
D13*
X136133900Y-114812800D03*
X138070200Y-113636000D03*
X159517500Y-116917900D03*
D14*
X130713900Y-119015200D02*
X130713900Y-119380000D01*
X131619100Y-118110000D02*
X130713900Y-119015200D01*
X132836700Y-118110000D02*
X131619100Y-118110000D01*
X136133900Y-114812800D02*
X132836700Y-118110000D01*
X129540000Y-119380000D02*
X130713900Y-119380000D01*
X132080000Y-119380000D02*
X133253900Y-119380000D01*
X138070200Y-113845100D02*
X138070200Y-113636000D01*
X133253900Y-118661400D02*
X138070200Y-113845100D01*
X133253900Y-119380000D02*
X133253900Y-118661400D01*
X167640000Y-121920000D02*
X166466100Y-121920000D01*
X163345700Y-120746100D02*
X159517500Y-116917900D01*
X165659100Y-120746100D02*
X163345700Y-120746100D01*
X166466100Y-121553100D02*
X165659100Y-120746100D01*
X166466100Y-121920000D02*
X166466100Y-121553100D01*
M02*
