G04 #@! TF.FileFunction,Legend,Top*
%FSLAX46Y46*%
G04 Gerber Fmt 4.6, Leading zero omitted, Abs format (unit mm)*
G04 Created by KiCad (PCBNEW (2015-09-08 BZR 6170, Git 6269158)-product) date 8/14/2016 2:55:12 PM*
%MOMM*%
G01*
G04 APERTURE LIST*
%ADD10C,0.100000*%
%ADD11C,0.275000*%
%ADD12C,0.250000*%
%ADD13C,0.150000*%
%ADD14R,2.127200X2.127200*%
%ADD15O,2.127200X2.127200*%
%ADD16R,3.800000X0.830000*%
%ADD17R,3.400000X0.830000*%
%ADD18R,0.830000X3.400000*%
G04 APERTURE END LIST*
D10*
D11*
X135400002Y-121513857D02*
X135347621Y-121566238D01*
X135190478Y-121618619D01*
X135085716Y-121618619D01*
X134928574Y-121566238D01*
X134823812Y-121461476D01*
X134771431Y-121356714D01*
X134719050Y-121147190D01*
X134719050Y-120990048D01*
X134771431Y-120780524D01*
X134823812Y-120675762D01*
X134928574Y-120571000D01*
X135085716Y-120518619D01*
X135190478Y-120518619D01*
X135347621Y-120571000D01*
X135400002Y-120623381D01*
X136028574Y-121618619D02*
X135923812Y-121566238D01*
X135871431Y-121513857D01*
X135819050Y-121409095D01*
X135819050Y-121094810D01*
X135871431Y-120990048D01*
X135923812Y-120937667D01*
X136028574Y-120885286D01*
X136185716Y-120885286D01*
X136290478Y-120937667D01*
X136342859Y-120990048D01*
X136395240Y-121094810D01*
X136395240Y-121409095D01*
X136342859Y-121513857D01*
X136290478Y-121566238D01*
X136185716Y-121618619D01*
X136028574Y-121618619D01*
X136866669Y-120885286D02*
X136866669Y-121985286D01*
X136866669Y-120937667D02*
X136971431Y-120885286D01*
X137180954Y-120885286D01*
X137285716Y-120937667D01*
X137338097Y-120990048D01*
X137390478Y-121094810D01*
X137390478Y-121409095D01*
X137338097Y-121513857D01*
X137285716Y-121566238D01*
X137180954Y-121618619D01*
X136971431Y-121618619D01*
X136866669Y-121566238D01*
X137757145Y-120885286D02*
X138019050Y-121618619D01*
X138280954Y-120885286D02*
X138019050Y-121618619D01*
X137914288Y-121880524D01*
X137861907Y-121932905D01*
X137757145Y-121985286D01*
X138700002Y-121618619D02*
X138700002Y-120885286D01*
X138700002Y-121094810D02*
X138752383Y-120990048D01*
X138804764Y-120937667D01*
X138909526Y-120885286D01*
X139014287Y-120885286D01*
X139380954Y-121618619D02*
X139380954Y-120885286D01*
X139380954Y-120518619D02*
X139328573Y-120571000D01*
X139380954Y-120623381D01*
X139433335Y-120571000D01*
X139380954Y-120518619D01*
X139380954Y-120623381D01*
X140376192Y-120885286D02*
X140376192Y-121775762D01*
X140323811Y-121880524D01*
X140271430Y-121932905D01*
X140166669Y-121985286D01*
X140009526Y-121985286D01*
X139904764Y-121932905D01*
X140376192Y-121566238D02*
X140271430Y-121618619D01*
X140061907Y-121618619D01*
X139957145Y-121566238D01*
X139904764Y-121513857D01*
X139852383Y-121409095D01*
X139852383Y-121094810D01*
X139904764Y-120990048D01*
X139957145Y-120937667D01*
X140061907Y-120885286D01*
X140271430Y-120885286D01*
X140376192Y-120937667D01*
X140900002Y-121618619D02*
X140900002Y-120518619D01*
X141371430Y-121618619D02*
X141371430Y-121042429D01*
X141319049Y-120937667D01*
X141214287Y-120885286D01*
X141057145Y-120885286D01*
X140952383Y-120937667D01*
X140900002Y-120990048D01*
X141738097Y-120885286D02*
X142157145Y-120885286D01*
X141895240Y-120518619D02*
X141895240Y-121461476D01*
X141947621Y-121566238D01*
X142052383Y-121618619D01*
X142157145Y-121618619D01*
X143676191Y-122037667D02*
X143623811Y-121985286D01*
X143519049Y-121828143D01*
X143466668Y-121723381D01*
X143414287Y-121566238D01*
X143361906Y-121304333D01*
X143361906Y-121094810D01*
X143414287Y-120832905D01*
X143466668Y-120675762D01*
X143519049Y-120571000D01*
X143623811Y-120413857D01*
X143676191Y-120361476D01*
X144723810Y-121513857D02*
X144671429Y-121566238D01*
X144514286Y-121618619D01*
X144409524Y-121618619D01*
X144252382Y-121566238D01*
X144147620Y-121461476D01*
X144095239Y-121356714D01*
X144042858Y-121147190D01*
X144042858Y-120990048D01*
X144095239Y-120780524D01*
X144147620Y-120675762D01*
X144252382Y-120571000D01*
X144409524Y-120518619D01*
X144514286Y-120518619D01*
X144671429Y-120571000D01*
X144723810Y-120623381D01*
X145090477Y-122037667D02*
X145142858Y-121985286D01*
X145247620Y-121828143D01*
X145300001Y-121723381D01*
X145352382Y-121566238D01*
X145404763Y-121304333D01*
X145404763Y-121094810D01*
X145352382Y-120832905D01*
X145300001Y-120675762D01*
X145247620Y-120571000D01*
X145142858Y-120413857D01*
X145090477Y-120361476D01*
X146714286Y-120623381D02*
X146766667Y-120571000D01*
X146871429Y-120518619D01*
X147133333Y-120518619D01*
X147238095Y-120571000D01*
X147290476Y-120623381D01*
X147342857Y-120728143D01*
X147342857Y-120832905D01*
X147290476Y-120990048D01*
X146661905Y-121618619D01*
X147342857Y-121618619D01*
X148023810Y-120518619D02*
X148128571Y-120518619D01*
X148233333Y-120571000D01*
X148285714Y-120623381D01*
X148338095Y-120728143D01*
X148390476Y-120937667D01*
X148390476Y-121199571D01*
X148338095Y-121409095D01*
X148285714Y-121513857D01*
X148233333Y-121566238D01*
X148128571Y-121618619D01*
X148023810Y-121618619D01*
X147919048Y-121566238D01*
X147866667Y-121513857D01*
X147814286Y-121409095D01*
X147761905Y-121199571D01*
X147761905Y-120937667D01*
X147814286Y-120728143D01*
X147866667Y-120623381D01*
X147919048Y-120571000D01*
X148023810Y-120518619D01*
X149438095Y-121618619D02*
X148809524Y-121618619D01*
X149123810Y-121618619D02*
X149123810Y-120518619D01*
X149019048Y-120675762D01*
X148914286Y-120780524D01*
X148809524Y-120832905D01*
X150380952Y-120518619D02*
X150171429Y-120518619D01*
X150066667Y-120571000D01*
X150014286Y-120623381D01*
X149909524Y-120780524D01*
X149857143Y-120990048D01*
X149857143Y-121409095D01*
X149909524Y-121513857D01*
X149961905Y-121566238D01*
X150066667Y-121618619D01*
X150276190Y-121618619D01*
X150380952Y-121566238D01*
X150433333Y-121513857D01*
X150485714Y-121409095D01*
X150485714Y-121147190D01*
X150433333Y-121042429D01*
X150380952Y-120990048D01*
X150276190Y-120937667D01*
X150066667Y-120937667D01*
X149961905Y-120990048D01*
X149909524Y-121042429D01*
X149857143Y-121147190D01*
X151795238Y-121618619D02*
X151795238Y-120518619D01*
X152057143Y-120518619D01*
X152214285Y-120571000D01*
X152319047Y-120675762D01*
X152371428Y-120780524D01*
X152423809Y-120990048D01*
X152423809Y-121147190D01*
X152371428Y-121356714D01*
X152319047Y-121461476D01*
X152214285Y-121566238D01*
X152057143Y-121618619D01*
X151795238Y-121618619D01*
X153366666Y-121618619D02*
X153366666Y-121042429D01*
X153314285Y-120937667D01*
X153209523Y-120885286D01*
X153000000Y-120885286D01*
X152895238Y-120937667D01*
X153366666Y-121566238D02*
X153261904Y-121618619D01*
X153000000Y-121618619D01*
X152895238Y-121566238D01*
X152842857Y-121461476D01*
X152842857Y-121356714D01*
X152895238Y-121251952D01*
X153000000Y-121199571D01*
X153261904Y-121199571D01*
X153366666Y-121147190D01*
X153785714Y-120885286D02*
X154047619Y-121618619D01*
X154309523Y-120885286D01*
X154728571Y-121618619D02*
X154728571Y-120885286D01*
X154728571Y-120518619D02*
X154676190Y-120571000D01*
X154728571Y-120623381D01*
X154780952Y-120571000D01*
X154728571Y-120518619D01*
X154728571Y-120623381D01*
X155723809Y-121618619D02*
X155723809Y-120518619D01*
X155723809Y-121566238D02*
X155619047Y-121618619D01*
X155409524Y-121618619D01*
X155304762Y-121566238D01*
X155252381Y-121513857D01*
X155200000Y-121409095D01*
X155200000Y-121094810D01*
X155252381Y-120990048D01*
X155304762Y-120937667D01*
X155409524Y-120885286D01*
X155619047Y-120885286D01*
X155723809Y-120937667D01*
X157609523Y-121618619D02*
X157085714Y-121618619D01*
X157085714Y-120518619D01*
X158133333Y-121618619D02*
X158028571Y-121566238D01*
X157976190Y-121513857D01*
X157923809Y-121409095D01*
X157923809Y-121094810D01*
X157976190Y-120990048D01*
X158028571Y-120937667D01*
X158133333Y-120885286D01*
X158290475Y-120885286D01*
X158395237Y-120937667D01*
X158447618Y-120990048D01*
X158499999Y-121094810D01*
X158499999Y-121409095D01*
X158447618Y-121513857D01*
X158395237Y-121566238D01*
X158290475Y-121618619D01*
X158133333Y-121618619D01*
X158971428Y-120885286D02*
X158971428Y-121618619D01*
X158971428Y-120990048D02*
X159023809Y-120937667D01*
X159128571Y-120885286D01*
X159285713Y-120885286D01*
X159390475Y-120937667D01*
X159442856Y-121042429D01*
X159442856Y-121618619D01*
X160438094Y-121618619D02*
X160438094Y-120518619D01*
X160438094Y-121566238D02*
X160333332Y-121618619D01*
X160123809Y-121618619D01*
X160019047Y-121566238D01*
X159966666Y-121513857D01*
X159914285Y-121409095D01*
X159914285Y-121094810D01*
X159966666Y-120990048D01*
X160019047Y-120937667D01*
X160123809Y-120885286D01*
X160333332Y-120885286D01*
X160438094Y-120937667D01*
X161119047Y-121618619D02*
X161014285Y-121566238D01*
X160961904Y-121513857D01*
X160909523Y-121409095D01*
X160909523Y-121094810D01*
X160961904Y-120990048D01*
X161014285Y-120937667D01*
X161119047Y-120885286D01*
X161276189Y-120885286D01*
X161380951Y-120937667D01*
X161433332Y-120990048D01*
X161485713Y-121094810D01*
X161485713Y-121409095D01*
X161433332Y-121513857D01*
X161380951Y-121566238D01*
X161276189Y-121618619D01*
X161119047Y-121618619D01*
X161957142Y-120885286D02*
X161957142Y-121618619D01*
X161957142Y-120990048D02*
X162009523Y-120937667D01*
X162114285Y-120885286D01*
X162271427Y-120885286D01*
X162376189Y-120937667D01*
X162428570Y-121042429D01*
X162428570Y-121618619D01*
X136185716Y-123433619D02*
X135661907Y-123433619D01*
X135661907Y-122333619D01*
X136552383Y-123433619D02*
X136552383Y-122700286D01*
X136552383Y-122333619D02*
X136500002Y-122386000D01*
X136552383Y-122438381D01*
X136604764Y-122386000D01*
X136552383Y-122333619D01*
X136552383Y-122438381D01*
X137547621Y-123381238D02*
X137442859Y-123433619D01*
X137233336Y-123433619D01*
X137128574Y-123381238D01*
X137076193Y-123328857D01*
X137023812Y-123224095D01*
X137023812Y-122909810D01*
X137076193Y-122805048D01*
X137128574Y-122752667D01*
X137233336Y-122700286D01*
X137442859Y-122700286D01*
X137547621Y-122752667D01*
X138438097Y-123381238D02*
X138333335Y-123433619D01*
X138123812Y-123433619D01*
X138019050Y-123381238D01*
X137966669Y-123276476D01*
X137966669Y-122857429D01*
X138019050Y-122752667D01*
X138123812Y-122700286D01*
X138333335Y-122700286D01*
X138438097Y-122752667D01*
X138490478Y-122857429D01*
X138490478Y-122962190D01*
X137966669Y-123066952D01*
X138961907Y-122700286D02*
X138961907Y-123433619D01*
X138961907Y-122805048D02*
X139014288Y-122752667D01*
X139119050Y-122700286D01*
X139276192Y-122700286D01*
X139380954Y-122752667D01*
X139433335Y-122857429D01*
X139433335Y-123433619D01*
X139904764Y-123381238D02*
X140009526Y-123433619D01*
X140219050Y-123433619D01*
X140323811Y-123381238D01*
X140376192Y-123276476D01*
X140376192Y-123224095D01*
X140323811Y-123119333D01*
X140219050Y-123066952D01*
X140061907Y-123066952D01*
X139957145Y-123014571D01*
X139904764Y-122909810D01*
X139904764Y-122857429D01*
X139957145Y-122752667D01*
X140061907Y-122700286D01*
X140219050Y-122700286D01*
X140323811Y-122752667D01*
X141266668Y-123381238D02*
X141161906Y-123433619D01*
X140952383Y-123433619D01*
X140847621Y-123381238D01*
X140795240Y-123276476D01*
X140795240Y-122857429D01*
X140847621Y-122752667D01*
X140952383Y-122700286D01*
X141161906Y-122700286D01*
X141266668Y-122752667D01*
X141319049Y-122857429D01*
X141319049Y-122962190D01*
X140795240Y-123066952D01*
X142261906Y-123433619D02*
X142261906Y-122333619D01*
X142261906Y-123381238D02*
X142157144Y-123433619D01*
X141947621Y-123433619D01*
X141842859Y-123381238D01*
X141790478Y-123328857D01*
X141738097Y-123224095D01*
X141738097Y-122909810D01*
X141790478Y-122805048D01*
X141842859Y-122752667D01*
X141947621Y-122700286D01*
X142157144Y-122700286D01*
X142261906Y-122752667D01*
X143466668Y-122700286D02*
X143885716Y-122700286D01*
X143623811Y-123433619D02*
X143623811Y-122490762D01*
X143676192Y-122386000D01*
X143780954Y-122333619D01*
X143885716Y-122333619D01*
X144409525Y-123433619D02*
X144304763Y-123381238D01*
X144252382Y-123328857D01*
X144200001Y-123224095D01*
X144200001Y-122909810D01*
X144252382Y-122805048D01*
X144304763Y-122752667D01*
X144409525Y-122700286D01*
X144566667Y-122700286D01*
X144671429Y-122752667D01*
X144723810Y-122805048D01*
X144776191Y-122909810D01*
X144776191Y-123224095D01*
X144723810Y-123328857D01*
X144671429Y-123381238D01*
X144566667Y-123433619D01*
X144409525Y-123433619D01*
X145247620Y-123433619D02*
X145247620Y-122700286D01*
X145247620Y-122909810D02*
X145300001Y-122805048D01*
X145352382Y-122752667D01*
X145457144Y-122700286D01*
X145561905Y-122700286D01*
X146766667Y-123433619D02*
X146766667Y-122333619D01*
X147238095Y-123433619D02*
X147238095Y-122857429D01*
X147185714Y-122752667D01*
X147080952Y-122700286D01*
X146923810Y-122700286D01*
X146819048Y-122752667D01*
X146766667Y-122805048D01*
X147919048Y-123433619D02*
X147814286Y-123381238D01*
X147761905Y-123328857D01*
X147709524Y-123224095D01*
X147709524Y-122909810D01*
X147761905Y-122805048D01*
X147814286Y-122752667D01*
X147919048Y-122700286D01*
X148076190Y-122700286D01*
X148180952Y-122752667D01*
X148233333Y-122805048D01*
X148285714Y-122909810D01*
X148285714Y-123224095D01*
X148233333Y-123328857D01*
X148180952Y-123381238D01*
X148076190Y-123433619D01*
X147919048Y-123433619D01*
X148757143Y-123433619D02*
X148757143Y-122333619D01*
X148757143Y-122752667D02*
X148861905Y-122700286D01*
X149071428Y-122700286D01*
X149176190Y-122752667D01*
X149228571Y-122805048D01*
X149280952Y-122909810D01*
X149280952Y-123224095D01*
X149228571Y-123328857D01*
X149176190Y-123381238D01*
X149071428Y-123433619D01*
X148861905Y-123433619D01*
X148757143Y-123381238D01*
X149752381Y-123433619D02*
X149752381Y-122333619D01*
X149752381Y-122752667D02*
X149857143Y-122700286D01*
X150066666Y-122700286D01*
X150171428Y-122752667D01*
X150223809Y-122805048D01*
X150276190Y-122909810D01*
X150276190Y-123224095D01*
X150223809Y-123328857D01*
X150171428Y-123381238D01*
X150066666Y-123433619D01*
X149857143Y-123433619D01*
X149752381Y-123381238D01*
X150642857Y-122700286D02*
X150904762Y-123433619D01*
X151166666Y-122700286D02*
X150904762Y-123433619D01*
X150800000Y-123695524D01*
X150747619Y-123747905D01*
X150642857Y-123800286D01*
X151585714Y-123433619D02*
X151585714Y-122700286D01*
X151585714Y-122333619D02*
X151533333Y-122386000D01*
X151585714Y-122438381D01*
X151638095Y-122386000D01*
X151585714Y-122333619D01*
X151585714Y-122438381D01*
X152057143Y-123381238D02*
X152161905Y-123433619D01*
X152371429Y-123433619D01*
X152476190Y-123381238D01*
X152528571Y-123276476D01*
X152528571Y-123224095D01*
X152476190Y-123119333D01*
X152371429Y-123066952D01*
X152214286Y-123066952D01*
X152109524Y-123014571D01*
X152057143Y-122909810D01*
X152057143Y-122857429D01*
X152109524Y-122752667D01*
X152214286Y-122700286D01*
X152371429Y-122700286D01*
X152476190Y-122752667D01*
X152842857Y-122700286D02*
X153261905Y-122700286D01*
X153000000Y-122333619D02*
X153000000Y-123276476D01*
X153052381Y-123381238D01*
X153157143Y-123433619D01*
X153261905Y-123433619D01*
X154938094Y-122700286D02*
X154938094Y-123433619D01*
X154466666Y-122700286D02*
X154466666Y-123276476D01*
X154519047Y-123381238D01*
X154623809Y-123433619D01*
X154780951Y-123433619D01*
X154885713Y-123381238D01*
X154938094Y-123328857D01*
X155409523Y-123381238D02*
X155514285Y-123433619D01*
X155723809Y-123433619D01*
X155828570Y-123381238D01*
X155880951Y-123276476D01*
X155880951Y-123224095D01*
X155828570Y-123119333D01*
X155723809Y-123066952D01*
X155566666Y-123066952D01*
X155461904Y-123014571D01*
X155409523Y-122909810D01*
X155409523Y-122857429D01*
X155461904Y-122752667D01*
X155566666Y-122700286D01*
X155723809Y-122700286D01*
X155828570Y-122752667D01*
X156771427Y-123381238D02*
X156666665Y-123433619D01*
X156457142Y-123433619D01*
X156352380Y-123381238D01*
X156299999Y-123276476D01*
X156299999Y-122857429D01*
X156352380Y-122752667D01*
X156457142Y-122700286D01*
X156666665Y-122700286D01*
X156771427Y-122752667D01*
X156823808Y-122857429D01*
X156823808Y-122962190D01*
X156299999Y-123066952D01*
X158290475Y-123433619D02*
X158185713Y-123381238D01*
X158133332Y-123328857D01*
X158080951Y-123224095D01*
X158080951Y-122909810D01*
X158133332Y-122805048D01*
X158185713Y-122752667D01*
X158290475Y-122700286D01*
X158447617Y-122700286D01*
X158552379Y-122752667D01*
X158604760Y-122805048D01*
X158657141Y-122909810D01*
X158657141Y-123224095D01*
X158604760Y-123328857D01*
X158552379Y-123381238D01*
X158447617Y-123433619D01*
X158290475Y-123433619D01*
X159128570Y-122700286D02*
X159128570Y-123433619D01*
X159128570Y-122805048D02*
X159180951Y-122752667D01*
X159285713Y-122700286D01*
X159442855Y-122700286D01*
X159547617Y-122752667D01*
X159599998Y-122857429D01*
X159599998Y-123433619D01*
X160280951Y-123433619D02*
X160176189Y-123381238D01*
X160123808Y-123276476D01*
X160123808Y-122333619D01*
X160595236Y-122700286D02*
X160857141Y-123433619D01*
X161119045Y-122700286D02*
X160857141Y-123433619D01*
X160752379Y-123695524D01*
X160699998Y-123747905D01*
X160595236Y-123800286D01*
X161538093Y-123328857D02*
X161590474Y-123381238D01*
X161538093Y-123433619D01*
X161485712Y-123381238D01*
X161538093Y-123328857D01*
X161538093Y-123433619D01*
X138307146Y-124934333D02*
X138830955Y-124934333D01*
X138202384Y-125248619D02*
X138569051Y-124148619D01*
X138935717Y-125248619D01*
X139459527Y-125248619D02*
X139354765Y-125196238D01*
X139302384Y-125091476D01*
X139302384Y-124148619D01*
X140035717Y-125248619D02*
X139930955Y-125196238D01*
X139878574Y-125091476D01*
X139878574Y-124148619D01*
X141450002Y-125248619D02*
X141345240Y-125196238D01*
X141292859Y-125143857D01*
X141240478Y-125039095D01*
X141240478Y-124724810D01*
X141292859Y-124620048D01*
X141345240Y-124567667D01*
X141450002Y-124515286D01*
X141607144Y-124515286D01*
X141711906Y-124567667D01*
X141764287Y-124620048D01*
X141816668Y-124724810D01*
X141816668Y-125039095D01*
X141764287Y-125143857D01*
X141711906Y-125196238D01*
X141607144Y-125248619D01*
X141450002Y-125248619D01*
X142130954Y-124515286D02*
X142550002Y-124515286D01*
X142288097Y-124148619D02*
X142288097Y-125091476D01*
X142340478Y-125196238D01*
X142445240Y-125248619D01*
X142550002Y-125248619D01*
X142916668Y-125248619D02*
X142916668Y-124148619D01*
X143388096Y-125248619D02*
X143388096Y-124672429D01*
X143335715Y-124567667D01*
X143230953Y-124515286D01*
X143073811Y-124515286D01*
X142969049Y-124567667D01*
X142916668Y-124620048D01*
X144330953Y-125196238D02*
X144226191Y-125248619D01*
X144016668Y-125248619D01*
X143911906Y-125196238D01*
X143859525Y-125091476D01*
X143859525Y-124672429D01*
X143911906Y-124567667D01*
X144016668Y-124515286D01*
X144226191Y-124515286D01*
X144330953Y-124567667D01*
X144383334Y-124672429D01*
X144383334Y-124777190D01*
X143859525Y-124881952D01*
X144854763Y-125248619D02*
X144854763Y-124515286D01*
X144854763Y-124724810D02*
X144907144Y-124620048D01*
X144959525Y-124567667D01*
X145064287Y-124515286D01*
X145169048Y-124515286D01*
X146373810Y-125248619D02*
X146373810Y-124515286D01*
X146373810Y-124724810D02*
X146426191Y-124620048D01*
X146478572Y-124567667D01*
X146583334Y-124515286D01*
X146688095Y-124515286D01*
X147054762Y-125248619D02*
X147054762Y-124515286D01*
X147054762Y-124148619D02*
X147002381Y-124201000D01*
X147054762Y-124253381D01*
X147107143Y-124201000D01*
X147054762Y-124148619D01*
X147054762Y-124253381D01*
X148050000Y-124515286D02*
X148050000Y-125405762D01*
X147997619Y-125510524D01*
X147945238Y-125562905D01*
X147840477Y-125615286D01*
X147683334Y-125615286D01*
X147578572Y-125562905D01*
X148050000Y-125196238D02*
X147945238Y-125248619D01*
X147735715Y-125248619D01*
X147630953Y-125196238D01*
X147578572Y-125143857D01*
X147526191Y-125039095D01*
X147526191Y-124724810D01*
X147578572Y-124620048D01*
X147630953Y-124567667D01*
X147735715Y-124515286D01*
X147945238Y-124515286D01*
X148050000Y-124567667D01*
X148573810Y-125248619D02*
X148573810Y-124148619D01*
X149045238Y-125248619D02*
X149045238Y-124672429D01*
X148992857Y-124567667D01*
X148888095Y-124515286D01*
X148730953Y-124515286D01*
X148626191Y-124567667D01*
X148573810Y-124620048D01*
X149411905Y-124515286D02*
X149830953Y-124515286D01*
X149569048Y-124148619D02*
X149569048Y-125091476D01*
X149621429Y-125196238D01*
X149726191Y-125248619D01*
X149830953Y-125248619D01*
X150145238Y-125196238D02*
X150250000Y-125248619D01*
X150459524Y-125248619D01*
X150564285Y-125196238D01*
X150616666Y-125091476D01*
X150616666Y-125039095D01*
X150564285Y-124934333D01*
X150459524Y-124881952D01*
X150302381Y-124881952D01*
X150197619Y-124829571D01*
X150145238Y-124724810D01*
X150145238Y-124672429D01*
X150197619Y-124567667D01*
X150302381Y-124515286D01*
X150459524Y-124515286D01*
X150564285Y-124567667D01*
X151926190Y-125248619D02*
X151926190Y-124515286D01*
X151926190Y-124724810D02*
X151978571Y-124620048D01*
X152030952Y-124567667D01*
X152135714Y-124515286D01*
X152240475Y-124515286D01*
X153026189Y-125196238D02*
X152921427Y-125248619D01*
X152711904Y-125248619D01*
X152607142Y-125196238D01*
X152554761Y-125091476D01*
X152554761Y-124672429D01*
X152607142Y-124567667D01*
X152711904Y-124515286D01*
X152921427Y-124515286D01*
X153026189Y-124567667D01*
X153078570Y-124672429D01*
X153078570Y-124777190D01*
X152554761Y-124881952D01*
X153497618Y-125196238D02*
X153602380Y-125248619D01*
X153811904Y-125248619D01*
X153916665Y-125196238D01*
X153969046Y-125091476D01*
X153969046Y-125039095D01*
X153916665Y-124934333D01*
X153811904Y-124881952D01*
X153654761Y-124881952D01*
X153549999Y-124829571D01*
X153497618Y-124724810D01*
X153497618Y-124672429D01*
X153549999Y-124567667D01*
X153654761Y-124515286D01*
X153811904Y-124515286D01*
X153916665Y-124567667D01*
X154859522Y-125196238D02*
X154754760Y-125248619D01*
X154545237Y-125248619D01*
X154440475Y-125196238D01*
X154388094Y-125091476D01*
X154388094Y-124672429D01*
X154440475Y-124567667D01*
X154545237Y-124515286D01*
X154754760Y-124515286D01*
X154859522Y-124567667D01*
X154911903Y-124672429D01*
X154911903Y-124777190D01*
X154388094Y-124881952D01*
X155383332Y-125248619D02*
X155383332Y-124515286D01*
X155383332Y-124724810D02*
X155435713Y-124620048D01*
X155488094Y-124567667D01*
X155592856Y-124515286D01*
X155697617Y-124515286D01*
X155959522Y-124515286D02*
X156221427Y-125248619D01*
X156483331Y-124515286D01*
X157321426Y-125196238D02*
X157216664Y-125248619D01*
X157007141Y-125248619D01*
X156902379Y-125196238D01*
X156849998Y-125091476D01*
X156849998Y-124672429D01*
X156902379Y-124567667D01*
X157007141Y-124515286D01*
X157216664Y-124515286D01*
X157321426Y-124567667D01*
X157373807Y-124672429D01*
X157373807Y-124777190D01*
X156849998Y-124881952D01*
X158316664Y-125248619D02*
X158316664Y-124148619D01*
X158316664Y-125196238D02*
X158211902Y-125248619D01*
X158002379Y-125248619D01*
X157897617Y-125196238D01*
X157845236Y-125143857D01*
X157792855Y-125039095D01*
X157792855Y-124724810D01*
X157845236Y-124620048D01*
X157897617Y-124567667D01*
X158002379Y-124515286D01*
X158211902Y-124515286D01*
X158316664Y-124567667D01*
X158840474Y-125143857D02*
X158892855Y-125196238D01*
X158840474Y-125248619D01*
X158788093Y-125196238D01*
X158840474Y-125143857D01*
X158840474Y-125248619D01*
D10*
X142605143Y-98513810D02*
X142414667Y-98437619D01*
X142319428Y-98361429D01*
X142224190Y-98209048D01*
X142224190Y-97751905D01*
X142319428Y-97599524D01*
X142414667Y-97523333D01*
X142605143Y-97447143D01*
X142890857Y-97447143D01*
X143081333Y-97523333D01*
X143176571Y-97599524D01*
X143271809Y-97751905D01*
X143271809Y-98209048D01*
X143176571Y-98361429D01*
X143081333Y-98437619D01*
X142890857Y-98513810D01*
X142605143Y-98513810D01*
D12*
X137861904Y-89707381D02*
X137861904Y-88707381D01*
X138242857Y-88707381D01*
X138338095Y-88755000D01*
X138385714Y-88802619D01*
X138433333Y-88897857D01*
X138433333Y-89040714D01*
X138385714Y-89135952D01*
X138338095Y-89183571D01*
X138242857Y-89231190D01*
X137861904Y-89231190D01*
X139528571Y-89802619D02*
X139433333Y-89755000D01*
X139338095Y-89659762D01*
X139195238Y-89516905D01*
X139099999Y-89469286D01*
X139004761Y-89469286D01*
X139052380Y-89707381D02*
X138957142Y-89659762D01*
X138861904Y-89564524D01*
X138814285Y-89374048D01*
X138814285Y-89040714D01*
X138861904Y-88850238D01*
X138957142Y-88755000D01*
X139052380Y-88707381D01*
X139242857Y-88707381D01*
X139338095Y-88755000D01*
X139433333Y-88850238D01*
X139480952Y-89040714D01*
X139480952Y-89374048D01*
X139433333Y-89564524D01*
X139338095Y-89659762D01*
X139242857Y-89707381D01*
X139052380Y-89707381D01*
X140242857Y-89183571D02*
X139909523Y-89183571D01*
X139909523Y-89707381D02*
X139909523Y-88707381D01*
X140385714Y-88707381D01*
X140766666Y-89707381D02*
X140766666Y-88707381D01*
X141147619Y-88707381D01*
X141242857Y-88755000D01*
X141290476Y-88802619D01*
X141338095Y-88897857D01*
X141338095Y-89040714D01*
X141290476Y-89135952D01*
X141242857Y-89183571D01*
X141147619Y-89231190D01*
X140766666Y-89231190D01*
X141766666Y-89326429D02*
X142528571Y-89326429D01*
X143528571Y-89707381D02*
X142957142Y-89707381D01*
X143242856Y-89707381D02*
X143242856Y-88707381D01*
X143147618Y-88850238D01*
X143052380Y-88945476D01*
X142957142Y-88993095D01*
X144147618Y-88707381D02*
X144242857Y-88707381D01*
X144338095Y-88755000D01*
X144385714Y-88802619D01*
X144433333Y-88897857D01*
X144480952Y-89088333D01*
X144480952Y-89326429D01*
X144433333Y-89516905D01*
X144385714Y-89612143D01*
X144338095Y-89659762D01*
X144242857Y-89707381D01*
X144147618Y-89707381D01*
X144052380Y-89659762D01*
X144004761Y-89612143D01*
X143957142Y-89516905D01*
X143909523Y-89326429D01*
X143909523Y-89088333D01*
X143957142Y-88897857D01*
X144004761Y-88802619D01*
X144052380Y-88755000D01*
X144147618Y-88707381D01*
X145099999Y-88707381D02*
X145195238Y-88707381D01*
X145290476Y-88755000D01*
X145338095Y-88802619D01*
X145385714Y-88897857D01*
X145433333Y-89088333D01*
X145433333Y-89326429D01*
X145385714Y-89516905D01*
X145338095Y-89612143D01*
X145290476Y-89659762D01*
X145195238Y-89707381D01*
X145099999Y-89707381D01*
X145004761Y-89659762D01*
X144957142Y-89612143D01*
X144909523Y-89516905D01*
X144861904Y-89326429D01*
X144861904Y-89088333D01*
X144909523Y-88897857D01*
X144957142Y-88802619D01*
X145004761Y-88755000D01*
X145099999Y-88707381D01*
X146957143Y-89183571D02*
X147100000Y-89231190D01*
X147147619Y-89278810D01*
X147195238Y-89374048D01*
X147195238Y-89516905D01*
X147147619Y-89612143D01*
X147100000Y-89659762D01*
X147004762Y-89707381D01*
X146623809Y-89707381D01*
X146623809Y-88707381D01*
X146957143Y-88707381D01*
X147052381Y-88755000D01*
X147100000Y-88802619D01*
X147147619Y-88897857D01*
X147147619Y-88993095D01*
X147100000Y-89088333D01*
X147052381Y-89135952D01*
X146957143Y-89183571D01*
X146623809Y-89183571D01*
X147623809Y-89707381D02*
X147623809Y-89040714D01*
X147623809Y-89231190D02*
X147671428Y-89135952D01*
X147719047Y-89088333D01*
X147814285Y-89040714D01*
X147909524Y-89040714D01*
X148623810Y-89659762D02*
X148528572Y-89707381D01*
X148338095Y-89707381D01*
X148242857Y-89659762D01*
X148195238Y-89564524D01*
X148195238Y-89183571D01*
X148242857Y-89088333D01*
X148338095Y-89040714D01*
X148528572Y-89040714D01*
X148623810Y-89088333D01*
X148671429Y-89183571D01*
X148671429Y-89278810D01*
X148195238Y-89374048D01*
X149528572Y-89707381D02*
X149528572Y-89183571D01*
X149480953Y-89088333D01*
X149385715Y-89040714D01*
X149195238Y-89040714D01*
X149100000Y-89088333D01*
X149528572Y-89659762D02*
X149433334Y-89707381D01*
X149195238Y-89707381D01*
X149100000Y-89659762D01*
X149052381Y-89564524D01*
X149052381Y-89469286D01*
X149100000Y-89374048D01*
X149195238Y-89326429D01*
X149433334Y-89326429D01*
X149528572Y-89278810D01*
X150004762Y-89707381D02*
X150004762Y-88707381D01*
X150100000Y-89326429D02*
X150385715Y-89707381D01*
X150385715Y-89040714D02*
X150004762Y-89421667D01*
X150957143Y-89707381D02*
X150861905Y-89659762D01*
X150814286Y-89612143D01*
X150766667Y-89516905D01*
X150766667Y-89231190D01*
X150814286Y-89135952D01*
X150861905Y-89088333D01*
X150957143Y-89040714D01*
X151100001Y-89040714D01*
X151195239Y-89088333D01*
X151242858Y-89135952D01*
X151290477Y-89231190D01*
X151290477Y-89516905D01*
X151242858Y-89612143D01*
X151195239Y-89659762D01*
X151100001Y-89707381D01*
X150957143Y-89707381D01*
X152147620Y-89040714D02*
X152147620Y-89707381D01*
X151719048Y-89040714D02*
X151719048Y-89564524D01*
X151766667Y-89659762D01*
X151861905Y-89707381D01*
X152004763Y-89707381D01*
X152100001Y-89659762D01*
X152147620Y-89612143D01*
X152480953Y-89040714D02*
X152861905Y-89040714D01*
X152623810Y-88707381D02*
X152623810Y-89564524D01*
X152671429Y-89659762D01*
X152766667Y-89707381D01*
X152861905Y-89707381D01*
X153957144Y-89707381D02*
X153957144Y-89040714D01*
X153957144Y-89231190D02*
X154004763Y-89135952D01*
X154052382Y-89088333D01*
X154147620Y-89040714D01*
X154242859Y-89040714D01*
X154957145Y-89659762D02*
X154861907Y-89707381D01*
X154671430Y-89707381D01*
X154576192Y-89659762D01*
X154528573Y-89564524D01*
X154528573Y-89183571D01*
X154576192Y-89088333D01*
X154671430Y-89040714D01*
X154861907Y-89040714D01*
X154957145Y-89088333D01*
X155004764Y-89183571D01*
X155004764Y-89278810D01*
X154528573Y-89374048D01*
X155338097Y-89040714D02*
X155576192Y-89707381D01*
X155814288Y-89040714D01*
X156195240Y-89612143D02*
X156242859Y-89659762D01*
X156195240Y-89707381D01*
X156147621Y-89659762D01*
X156195240Y-89612143D01*
X156195240Y-89707381D01*
X157385716Y-88802619D02*
X157433335Y-88755000D01*
X157528573Y-88707381D01*
X157766669Y-88707381D01*
X157861907Y-88755000D01*
X157909526Y-88802619D01*
X157957145Y-88897857D01*
X157957145Y-88993095D01*
X157909526Y-89135952D01*
X157338097Y-89707381D01*
X157957145Y-89707381D01*
X158385716Y-89612143D02*
X158433335Y-89659762D01*
X158385716Y-89707381D01*
X158338097Y-89659762D01*
X158385716Y-89612143D01*
X158385716Y-89707381D01*
X159052382Y-88707381D02*
X159147621Y-88707381D01*
X159242859Y-88755000D01*
X159290478Y-88802619D01*
X159338097Y-88897857D01*
X159385716Y-89088333D01*
X159385716Y-89326429D01*
X159338097Y-89516905D01*
X159290478Y-89612143D01*
X159242859Y-89659762D01*
X159147621Y-89707381D01*
X159052382Y-89707381D01*
X158957144Y-89659762D01*
X158909525Y-89612143D01*
X158861906Y-89516905D01*
X158814287Y-89326429D01*
X158814287Y-89088333D01*
X158861906Y-88897857D01*
X158909525Y-88802619D01*
X158957144Y-88755000D01*
X159052382Y-88707381D01*
X137504763Y-91357381D02*
X136933334Y-91357381D01*
X137219048Y-91357381D02*
X137219048Y-90357381D01*
X137123810Y-90500238D01*
X137028572Y-90595476D01*
X136933334Y-90643095D01*
X138361906Y-90690714D02*
X138361906Y-91357381D01*
X138123810Y-90309762D02*
X137885715Y-91024048D01*
X138504763Y-91024048D01*
X138885715Y-91357381D02*
X138885715Y-90690714D01*
X138885715Y-90785952D02*
X138933334Y-90738333D01*
X139028572Y-90690714D01*
X139171430Y-90690714D01*
X139266668Y-90738333D01*
X139314287Y-90833571D01*
X139314287Y-91357381D01*
X139314287Y-90833571D02*
X139361906Y-90738333D01*
X139457144Y-90690714D01*
X139600001Y-90690714D01*
X139695239Y-90738333D01*
X139742858Y-90833571D01*
X139742858Y-91357381D01*
X140219048Y-91357381D02*
X140219048Y-90690714D01*
X140219048Y-90785952D02*
X140266667Y-90738333D01*
X140361905Y-90690714D01*
X140504763Y-90690714D01*
X140600001Y-90738333D01*
X140647620Y-90833571D01*
X140647620Y-91357381D01*
X140647620Y-90833571D02*
X140695239Y-90738333D01*
X140790477Y-90690714D01*
X140933334Y-90690714D01*
X141028572Y-90738333D01*
X141076191Y-90833571D01*
X141076191Y-91357381D01*
X141457143Y-91357381D02*
X141980953Y-90690714D01*
X141457143Y-90690714D02*
X141980953Y-91357381D01*
X142314286Y-90452619D02*
X142361905Y-90405000D01*
X142457143Y-90357381D01*
X142695239Y-90357381D01*
X142790477Y-90405000D01*
X142838096Y-90452619D01*
X142885715Y-90547857D01*
X142885715Y-90643095D01*
X142838096Y-90785952D01*
X142266667Y-91357381D01*
X142885715Y-91357381D01*
X143504762Y-90357381D02*
X143600001Y-90357381D01*
X143695239Y-90405000D01*
X143742858Y-90452619D01*
X143790477Y-90547857D01*
X143838096Y-90738333D01*
X143838096Y-90976429D01*
X143790477Y-91166905D01*
X143742858Y-91262143D01*
X143695239Y-91309762D01*
X143600001Y-91357381D01*
X143504762Y-91357381D01*
X143409524Y-91309762D01*
X143361905Y-91262143D01*
X143314286Y-91166905D01*
X143266667Y-90976429D01*
X143266667Y-90738333D01*
X143314286Y-90547857D01*
X143361905Y-90452619D01*
X143409524Y-90405000D01*
X143504762Y-90357381D01*
X144266667Y-91357381D02*
X144266667Y-90690714D01*
X144266667Y-90785952D02*
X144314286Y-90738333D01*
X144409524Y-90690714D01*
X144552382Y-90690714D01*
X144647620Y-90738333D01*
X144695239Y-90833571D01*
X144695239Y-91357381D01*
X144695239Y-90833571D02*
X144742858Y-90738333D01*
X144838096Y-90690714D01*
X144980953Y-90690714D01*
X145076191Y-90738333D01*
X145123810Y-90833571D01*
X145123810Y-91357381D01*
X145600000Y-91357381D02*
X145600000Y-90690714D01*
X145600000Y-90785952D02*
X145647619Y-90738333D01*
X145742857Y-90690714D01*
X145885715Y-90690714D01*
X145980953Y-90738333D01*
X146028572Y-90833571D01*
X146028572Y-91357381D01*
X146028572Y-90833571D02*
X146076191Y-90738333D01*
X146171429Y-90690714D01*
X146314286Y-90690714D01*
X146409524Y-90738333D01*
X146457143Y-90833571D01*
X146457143Y-91357381D01*
X146980952Y-91309762D02*
X146980952Y-91357381D01*
X146933333Y-91452619D01*
X146885714Y-91500238D01*
X148361904Y-90357381D02*
X148457143Y-90357381D01*
X148552381Y-90405000D01*
X148600000Y-90452619D01*
X148647619Y-90547857D01*
X148695238Y-90738333D01*
X148695238Y-90976429D01*
X148647619Y-91166905D01*
X148600000Y-91262143D01*
X148552381Y-91309762D01*
X148457143Y-91357381D01*
X148361904Y-91357381D01*
X148266666Y-91309762D01*
X148219047Y-91262143D01*
X148171428Y-91166905D01*
X148123809Y-90976429D01*
X148123809Y-90738333D01*
X148171428Y-90547857D01*
X148219047Y-90452619D01*
X148266666Y-90405000D01*
X148361904Y-90357381D01*
X149123809Y-91262143D02*
X149171428Y-91309762D01*
X149123809Y-91357381D01*
X149076190Y-91309762D01*
X149123809Y-91262143D01*
X149123809Y-91357381D01*
X150028571Y-90357381D02*
X149838094Y-90357381D01*
X149742856Y-90405000D01*
X149695237Y-90452619D01*
X149599999Y-90595476D01*
X149552380Y-90785952D01*
X149552380Y-91166905D01*
X149599999Y-91262143D01*
X149647618Y-91309762D01*
X149742856Y-91357381D01*
X149933333Y-91357381D01*
X150028571Y-91309762D01*
X150076190Y-91262143D01*
X150123809Y-91166905D01*
X150123809Y-90928810D01*
X150076190Y-90833571D01*
X150028571Y-90785952D01*
X149933333Y-90738333D01*
X149742856Y-90738333D01*
X149647618Y-90785952D01*
X149599999Y-90833571D01*
X149552380Y-90928810D01*
X151028571Y-90357381D02*
X150552380Y-90357381D01*
X150504761Y-90833571D01*
X150552380Y-90785952D01*
X150647618Y-90738333D01*
X150885714Y-90738333D01*
X150980952Y-90785952D01*
X151028571Y-90833571D01*
X151076190Y-90928810D01*
X151076190Y-91166905D01*
X151028571Y-91262143D01*
X150980952Y-91309762D01*
X150885714Y-91357381D01*
X150647618Y-91357381D01*
X150552380Y-91309762D01*
X150504761Y-91262143D01*
X151504761Y-91357381D02*
X151504761Y-90690714D01*
X151504761Y-90785952D02*
X151552380Y-90738333D01*
X151647618Y-90690714D01*
X151790476Y-90690714D01*
X151885714Y-90738333D01*
X151933333Y-90833571D01*
X151933333Y-91357381D01*
X151933333Y-90833571D02*
X151980952Y-90738333D01*
X152076190Y-90690714D01*
X152219047Y-90690714D01*
X152314285Y-90738333D01*
X152361904Y-90833571D01*
X152361904Y-91357381D01*
X152838094Y-91357381D02*
X152838094Y-90690714D01*
X152838094Y-90785952D02*
X152885713Y-90738333D01*
X152980951Y-90690714D01*
X153123809Y-90690714D01*
X153219047Y-90738333D01*
X153266666Y-90833571D01*
X153266666Y-91357381D01*
X153266666Y-90833571D02*
X153314285Y-90738333D01*
X153409523Y-90690714D01*
X153552380Y-90690714D01*
X153647618Y-90738333D01*
X153695237Y-90833571D01*
X153695237Y-91357381D01*
X154885713Y-91309762D02*
X154980951Y-91357381D01*
X155171427Y-91357381D01*
X155266666Y-91309762D01*
X155314285Y-91214524D01*
X155314285Y-91166905D01*
X155266666Y-91071667D01*
X155171427Y-91024048D01*
X155028570Y-91024048D01*
X154933332Y-90976429D01*
X154885713Y-90881190D01*
X154885713Y-90833571D01*
X154933332Y-90738333D01*
X155028570Y-90690714D01*
X155171427Y-90690714D01*
X155266666Y-90738333D01*
X155742856Y-90690714D02*
X155742856Y-91690714D01*
X155742856Y-90738333D02*
X155838094Y-90690714D01*
X156028571Y-90690714D01*
X156123809Y-90738333D01*
X156171428Y-90785952D01*
X156219047Y-90881190D01*
X156219047Y-91166905D01*
X156171428Y-91262143D01*
X156123809Y-91309762D01*
X156028571Y-91357381D01*
X155838094Y-91357381D01*
X155742856Y-91309762D01*
X157076190Y-91357381D02*
X157076190Y-90833571D01*
X157028571Y-90738333D01*
X156933333Y-90690714D01*
X156742856Y-90690714D01*
X156647618Y-90738333D01*
X157076190Y-91309762D02*
X156980952Y-91357381D01*
X156742856Y-91357381D01*
X156647618Y-91309762D01*
X156599999Y-91214524D01*
X156599999Y-91119286D01*
X156647618Y-91024048D01*
X156742856Y-90976429D01*
X156980952Y-90976429D01*
X157076190Y-90928810D01*
X157980952Y-91309762D02*
X157885714Y-91357381D01*
X157695237Y-91357381D01*
X157599999Y-91309762D01*
X157552380Y-91262143D01*
X157504761Y-91166905D01*
X157504761Y-90881190D01*
X157552380Y-90785952D01*
X157599999Y-90738333D01*
X157695237Y-90690714D01*
X157885714Y-90690714D01*
X157980952Y-90738333D01*
X158409523Y-91357381D02*
X158409523Y-90690714D01*
X158409523Y-90357381D02*
X158361904Y-90405000D01*
X158409523Y-90452619D01*
X158457142Y-90405000D01*
X158409523Y-90357381D01*
X158409523Y-90452619D01*
X158885713Y-90690714D02*
X158885713Y-91357381D01*
X158885713Y-90785952D02*
X158933332Y-90738333D01*
X159028570Y-90690714D01*
X159171428Y-90690714D01*
X159266666Y-90738333D01*
X159314285Y-90833571D01*
X159314285Y-91357381D01*
X160219047Y-90690714D02*
X160219047Y-91500238D01*
X160171428Y-91595476D01*
X160123809Y-91643095D01*
X160028570Y-91690714D01*
X159885713Y-91690714D01*
X159790475Y-91643095D01*
X160219047Y-91309762D02*
X160123809Y-91357381D01*
X159933332Y-91357381D01*
X159838094Y-91309762D01*
X159790475Y-91262143D01*
X159742856Y-91166905D01*
X159742856Y-90881190D01*
X159790475Y-90785952D01*
X159838094Y-90738333D01*
X159933332Y-90690714D01*
X160123809Y-90690714D01*
X160219047Y-90738333D01*
D13*
X133350000Y-125730000D02*
X133350000Y-87630000D01*
X128270000Y-90170000D02*
X128270000Y-125730000D01*
X133350000Y-125730000D02*
X128270000Y-125730000D01*
X133350000Y-87630000D02*
X130810000Y-87630000D01*
X129540000Y-87350000D02*
X127990000Y-87350000D01*
X130810000Y-87630000D02*
X130810000Y-90170000D01*
X130810000Y-90170000D02*
X128270000Y-90170000D01*
X127990000Y-87350000D02*
X127990000Y-88900000D01*
X161290000Y-125730000D02*
X135890000Y-125730000D01*
X138430000Y-130810000D02*
X161290000Y-130810000D01*
X161290000Y-125730000D02*
X161290000Y-130810000D01*
X135890000Y-125730000D02*
X135890000Y-128270000D01*
X135610000Y-129540000D02*
X135610000Y-131090000D01*
X135890000Y-128270000D02*
X138430000Y-128270000D01*
X138430000Y-128270000D02*
X138430000Y-130810000D01*
X135610000Y-131090000D02*
X137160000Y-131090000D01*
X163830000Y-87630000D02*
X163830000Y-125730000D01*
X168910000Y-123190000D02*
X168910000Y-87630000D01*
X163830000Y-87630000D02*
X168910000Y-87630000D01*
X163830000Y-125730000D02*
X166370000Y-125730000D01*
X167640000Y-126010000D02*
X169190000Y-126010000D01*
X166370000Y-125730000D02*
X166370000Y-123190000D01*
X166370000Y-123190000D02*
X168910000Y-123190000D01*
X169190000Y-126010000D02*
X169190000Y-124460000D01*
X135890000Y-87630000D02*
X161290000Y-87630000D01*
X158750000Y-82550000D02*
X135890000Y-82550000D01*
X135890000Y-87630000D02*
X135890000Y-82550000D01*
X161290000Y-87630000D02*
X161290000Y-85090000D01*
X161570000Y-83820000D02*
X161570000Y-82270000D01*
X161290000Y-85090000D02*
X158750000Y-85090000D01*
X158750000Y-85090000D02*
X158750000Y-82550000D01*
X161570000Y-82270000D02*
X160020000Y-82270000D01*
X141465000Y-96555000D02*
X141465000Y-96815000D01*
X155715000Y-96555000D02*
X155715000Y-96815000D01*
X155715000Y-116805000D02*
X155715000Y-116545000D01*
X141465000Y-116805000D02*
X141465000Y-116545000D01*
X141465000Y-96555000D02*
X141975000Y-96555000D01*
X141465000Y-116805000D02*
X141975000Y-116805000D01*
X155715000Y-116805000D02*
X155205000Y-116805000D01*
X155715000Y-96555000D02*
X155205000Y-96555000D01*
X141465000Y-96815000D02*
X139790000Y-96815000D01*
X129571715Y-86812381D02*
X129000286Y-86812381D01*
X129286000Y-86812381D02*
X129286000Y-85812381D01*
X129190762Y-85955238D01*
X129095524Y-86050476D01*
X129000286Y-86098095D01*
X133250476Y-128992381D02*
X133869524Y-128992381D01*
X133536190Y-129373333D01*
X133679048Y-129373333D01*
X133774286Y-129420952D01*
X133821905Y-129468571D01*
X133869524Y-129563810D01*
X133869524Y-129801905D01*
X133821905Y-129897143D01*
X133774286Y-129944762D01*
X133679048Y-129992381D01*
X133393333Y-129992381D01*
X133298095Y-129944762D01*
X133250476Y-129897143D01*
X134821905Y-129992381D02*
X134250476Y-129992381D01*
X134536190Y-129992381D02*
X134536190Y-128992381D01*
X134440952Y-129135238D01*
X134345714Y-129230476D01*
X134250476Y-129278095D01*
X167655905Y-126452381D02*
X167179714Y-126452381D01*
X167132095Y-126928571D01*
X167179714Y-126880952D01*
X167274952Y-126833333D01*
X167513048Y-126833333D01*
X167608286Y-126880952D01*
X167655905Y-126928571D01*
X167703524Y-127023810D01*
X167703524Y-127261905D01*
X167655905Y-127357143D01*
X167608286Y-127404762D01*
X167513048Y-127452381D01*
X167274952Y-127452381D01*
X167179714Y-127404762D01*
X167132095Y-127357143D01*
X168655905Y-127452381D02*
X168084476Y-127452381D01*
X168370190Y-127452381D02*
X168370190Y-126452381D01*
X168274952Y-126595238D01*
X168179714Y-126690476D01*
X168084476Y-126738095D01*
X162004476Y-83526381D02*
X162671143Y-83526381D01*
X162242571Y-84526381D01*
X163575905Y-84526381D02*
X163004476Y-84526381D01*
X163290190Y-84526381D02*
X163290190Y-83526381D01*
X163194952Y-83669238D01*
X163099714Y-83764476D01*
X163004476Y-83812095D01*
X147828095Y-92162381D02*
X147828095Y-92971905D01*
X147875714Y-93067143D01*
X147923333Y-93114762D01*
X148018571Y-93162381D01*
X148209048Y-93162381D01*
X148304286Y-93114762D01*
X148351905Y-93067143D01*
X148399524Y-92971905D01*
X148399524Y-92162381D01*
X149399524Y-93162381D02*
X148828095Y-93162381D01*
X149113809Y-93162381D02*
X149113809Y-92162381D01*
X149018571Y-92305238D01*
X148923333Y-92400476D01*
X148828095Y-92448095D01*
%LPC*%
D14*
X129540000Y-88900000D03*
D15*
X132080000Y-88900000D03*
X129540000Y-91440000D03*
X132080000Y-91440000D03*
X129540000Y-93980000D03*
X132080000Y-93980000D03*
X129540000Y-96520000D03*
X132080000Y-96520000D03*
X129540000Y-99060000D03*
X132080000Y-99060000D03*
X129540000Y-101600000D03*
X132080000Y-101600000D03*
X129540000Y-104140000D03*
X132080000Y-104140000D03*
X129540000Y-106680000D03*
X132080000Y-106680000D03*
X129540000Y-109220000D03*
X132080000Y-109220000D03*
X129540000Y-111760000D03*
X132080000Y-111760000D03*
X129540000Y-114300000D03*
X132080000Y-114300000D03*
X129540000Y-116840000D03*
X132080000Y-116840000D03*
X129540000Y-119380000D03*
X132080000Y-119380000D03*
X129540000Y-121920000D03*
X132080000Y-121920000D03*
X129540000Y-124460000D03*
X132080000Y-124460000D03*
D14*
X137160000Y-129540000D03*
D15*
X137160000Y-127000000D03*
X139700000Y-129540000D03*
X139700000Y-127000000D03*
X142240000Y-129540000D03*
X142240000Y-127000000D03*
X144780000Y-129540000D03*
X144780000Y-127000000D03*
X147320000Y-129540000D03*
X147320000Y-127000000D03*
X149860000Y-129540000D03*
X149860000Y-127000000D03*
X152400000Y-129540000D03*
X152400000Y-127000000D03*
X154940000Y-129540000D03*
X154940000Y-127000000D03*
X157480000Y-129540000D03*
X157480000Y-127000000D03*
X160020000Y-129540000D03*
X160020000Y-127000000D03*
D14*
X167640000Y-124460000D03*
D15*
X165100000Y-124460000D03*
X167640000Y-121920000D03*
X165100000Y-121920000D03*
X167640000Y-119380000D03*
X165100000Y-119380000D03*
X167640000Y-116840000D03*
X165100000Y-116840000D03*
X167640000Y-114300000D03*
X165100000Y-114300000D03*
X167640000Y-111760000D03*
X165100000Y-111760000D03*
X167640000Y-109220000D03*
X165100000Y-109220000D03*
X167640000Y-106680000D03*
X165100000Y-106680000D03*
X167640000Y-104140000D03*
X165100000Y-104140000D03*
X167640000Y-101600000D03*
X165100000Y-101600000D03*
X167640000Y-99060000D03*
X165100000Y-99060000D03*
X167640000Y-96520000D03*
X165100000Y-96520000D03*
X167640000Y-93980000D03*
X165100000Y-93980000D03*
X167640000Y-91440000D03*
X165100000Y-91440000D03*
X167640000Y-88900000D03*
X165100000Y-88900000D03*
D14*
X160020000Y-83820000D03*
D15*
X160020000Y-86360000D03*
X157480000Y-83820000D03*
X157480000Y-86360000D03*
X154940000Y-83820000D03*
X154940000Y-86360000D03*
X152400000Y-83820000D03*
X152400000Y-86360000D03*
X149860000Y-83820000D03*
X149860000Y-86360000D03*
X147320000Y-83820000D03*
X147320000Y-86360000D03*
X144780000Y-83820000D03*
X144780000Y-86360000D03*
X142240000Y-83820000D03*
X142240000Y-86360000D03*
X139700000Y-83820000D03*
X139700000Y-86360000D03*
X137160000Y-83820000D03*
X137160000Y-86360000D03*
D16*
X139890000Y-97255000D03*
D17*
X140090000Y-97905000D03*
X140090000Y-98555000D03*
X140090000Y-99205000D03*
X140090000Y-99855000D03*
X140090000Y-100505000D03*
X140090000Y-101155000D03*
X140090000Y-101805000D03*
X140090000Y-102455000D03*
X140090000Y-103105000D03*
X140090000Y-103755000D03*
X140090000Y-104405000D03*
X140090000Y-105055000D03*
X140090000Y-105705000D03*
X140090000Y-106355000D03*
X140090000Y-107005000D03*
X140090000Y-107655000D03*
X140090000Y-108305000D03*
X140090000Y-108955000D03*
X140090000Y-109605000D03*
X140090000Y-110255000D03*
X140090000Y-110905000D03*
X140090000Y-111555000D03*
X140090000Y-112205000D03*
X140090000Y-112855000D03*
X140090000Y-113505000D03*
X140090000Y-114155000D03*
X140090000Y-114805000D03*
X140090000Y-115455000D03*
X140090000Y-116105000D03*
D18*
X142415000Y-118180000D03*
X143065000Y-118180000D03*
X143715000Y-118180000D03*
X144365000Y-118180000D03*
X145015000Y-118180000D03*
X145665000Y-118180000D03*
X146315000Y-118180000D03*
X146965000Y-118180000D03*
X147615000Y-118180000D03*
X148265000Y-118180000D03*
X148915000Y-118180000D03*
X149565000Y-118180000D03*
X150215000Y-118180000D03*
X150865000Y-118180000D03*
X151515000Y-118180000D03*
X152165000Y-118180000D03*
X152815000Y-118180000D03*
X153465000Y-118180000D03*
X154115000Y-118180000D03*
X154765000Y-118180000D03*
D17*
X157090000Y-116105000D03*
X157090000Y-115455000D03*
X157090000Y-114805000D03*
X157090000Y-114155000D03*
X157090000Y-113505000D03*
X157090000Y-112855000D03*
X157090000Y-112205000D03*
X157090000Y-111555000D03*
X157090000Y-110905000D03*
X157090000Y-110255000D03*
X157090000Y-109605000D03*
X157090000Y-108955000D03*
X157090000Y-108305000D03*
X157090000Y-107655000D03*
X157090000Y-107005000D03*
X157090000Y-106355000D03*
X157090000Y-105705000D03*
X157090000Y-105055000D03*
X157090000Y-104405000D03*
X157090000Y-103755000D03*
X157090000Y-103105000D03*
X157090000Y-102455000D03*
X157090000Y-101805000D03*
X157090000Y-101155000D03*
X157090000Y-100505000D03*
X157090000Y-99855000D03*
X157090000Y-99205000D03*
X157090000Y-98555000D03*
X157090000Y-97905000D03*
X157090000Y-97255000D03*
D18*
X154765000Y-95180000D03*
X154115000Y-95180000D03*
X153465000Y-95180000D03*
X152815000Y-95180000D03*
X152165000Y-95180000D03*
X151515000Y-95180000D03*
X150865000Y-95180000D03*
X150215000Y-95180000D03*
X149565000Y-95180000D03*
X148915000Y-95180000D03*
X148265000Y-95180000D03*
X147615000Y-95180000D03*
X146965000Y-95180000D03*
X146315000Y-95180000D03*
X145665000Y-95180000D03*
X145015000Y-95180000D03*
X144365000Y-95180000D03*
X143715000Y-95180000D03*
X143065000Y-95180000D03*
X142415000Y-95180000D03*
M02*
