M48
; DRILL file {KiCad (6.0.11)} date Mon Jan 15 12:10:10 2024
; FORMAT={-:-/ absolute / inch / decimal}
; #@! TF.CreationDate,2024-01-15T12:10:10-05:00
; #@! TF.GenerationSoftware,Kicad,Pcbnew,(6.0.11)
; #@! TF.FileFunction,Plated,1,2,PTH
FMAT,2
INCH
; #@! TA.AperFunction,Plated,PTH,ComponentDrill
T1C0.0118
; #@! TA.AperFunction,Plated,PTH,ViaDrill
T2C0.0157
; #@! TA.AperFunction,Plated,PTH,ComponentDrill
T3C0.0197
; #@! TA.AperFunction,Plated,PTH,ComponentDrill
T4C0.0236
; #@! TA.AperFunction,Plated,PTH,ComponentDrill
T5C0.0295
; #@! TA.AperFunction,Plated,PTH,ComponentDrill
T6C0.0315
; #@! TA.AperFunction,Plated,PTH,ComponentDrill
T7C0.0354
; #@! TA.AperFunction,Plated,PTH,ComponentDrill
T8C0.0374
; #@! TA.AperFunction,Plated,PTH,ComponentDrill
T9C0.0394
; #@! TA.AperFunction,Plated,PTH,ComponentDrill
T10C0.0433
; #@! TA.AperFunction,Plated,PTH,ComponentDrill
T11C0.0512
; #@! TA.AperFunction,Plated,PTH,ComponentDrill
T12C0.0591
; #@! TA.AperFunction,Plated,PTH,ComponentDrill
T13C0.0787
; #@! TA.AperFunction,Plated,PTH,ComponentDrill
T14C0.0906
; #@! TA.AperFunction,Plated,PTH,ComponentDrill
T15C0.1260
%
G90
G05
T1
X5.1191Y-5.1732
X5.1663Y-5.1732
X5.375Y-5.1732
X5.4222Y-5.1732
X8.4173Y-5.811
X8.4173Y-5.8583
T2
X2.6178Y-5.4301
X2.663Y-4.6689
X2.7507Y-6.2205
X2.9716Y-3.816
X2.983Y-4.8349
X3.0219Y-5.8162
X3.0433Y-5.3837
X3.058Y-5.9148
X3.1529Y-3.6897
X3.1819Y-5.068
X3.249Y-6.3323
X3.3988Y-6.9925
X3.4249Y-6.3175
X3.4606Y-4.1614
X3.566Y-6.922
X3.6102Y-5.5578
X3.6747Y-2.4686
X3.6747Y-3.0184
X3.6877Y-2.4135
X3.6932Y-4.4314
X3.8098Y-6.0399
X3.9127Y-4.5109
X3.9494Y-7.2119
X3.9684Y-5.8551
X3.973Y-2.2511
X4.0149Y-5.8552
X4.1093Y-4.7588
X4.1142Y-5.2657
X4.2071Y-3.0246
X4.2402Y-5.2179
X4.2549Y-2.7935
X4.2623Y-5.7801
X4.2821Y-6.7247
X4.2922Y-2.8273
X4.3099Y-7.5037
X4.3604Y-3.237
X4.369Y-7.5204
X4.3914Y-5.16
X4.3986Y-3.0455
X4.4114Y-5.9392
X4.4154Y-7.5157
X4.4159Y-6.7166
X4.4411Y-6.7475
X4.4545Y-6.8662
X4.4551Y-5.1352
X4.4709Y-4.0625
X4.4904Y-2.6143
X4.4975Y-3.8362
X4.5078Y-5.5272
X4.5259Y-3.7921
X4.5344Y-3.449
X4.5389Y-4.4314
X4.5483Y-6.113
X4.5596Y-5.6367
X4.564Y-6.6451
X4.5722Y-3.691
X4.6023Y-6.517
X4.6218Y-7.1627
X4.6231Y-5.2967
X4.6291Y-2.7446
X4.6405Y-4.1872
X4.6438Y-6.92
X4.6879Y-2.6638
X4.708Y-4.8253
X4.7203Y-7.251
X4.723Y-5.7023
X4.7601Y-6.8468
X4.7735Y-2.428
X4.8164Y-3.0817
X4.8176Y-7.0515
X4.8221Y-2.6539
X4.8244Y-2.479
X4.8544Y-6.6807
X4.8715Y-2.7422
X4.9508Y-5.2703
X4.9803Y-5.6004
X4.9858Y-5.4894
X5.0281Y-3.3832
X5.0377Y-3.0854
X5.0405Y-4.678
X5.0984Y-5.7087
X5.1262Y-3.2355
X5.1282Y-6.0686
X5.1421Y-6.1319
X5.1464Y-3.3415
X5.1549Y-4.6246
X5.1763Y-4.5693
X5.2111Y-1.9487
X5.2241Y-4.4492
X5.2613Y-3.9822
X5.2704Y-7.0281
X5.2726Y-5.1261
X5.2899Y-4.0801
X5.2961Y-5.7164
X5.3143Y-3.2095
X5.3259Y-5.7461
X5.3445Y-5.8044
X5.3457Y-4.6352
X5.3472Y-4.9701
X5.3814Y-3.7507
X5.4484Y-4.0462
X5.4499Y-5.543
X5.4729Y-5.3333
X5.498Y-6.5575
X5.5034Y-3.8554
X5.5242Y-5.2395
X5.5247Y-5.5447
X5.5276Y-6.5301
X5.5479Y-6.4868
X5.5766Y-5.5266
X5.5906Y-5.7677
X5.6237Y-6.2835
X5.6271Y-5.1416
X5.6331Y-5.4858
X5.6431Y-4.5818
X5.6651Y-6.92
X5.6738Y-5.1786
X5.6745Y-5.1082
X5.6801Y-6.1284
X5.6931Y-4.3599
X5.71Y-5.6554
X5.7106Y-6.8762
X5.7327Y-5.177
X5.7849Y-3.2852
X5.7913Y-5.1774
X5.8504Y-4.9327
X5.8703Y-5.5072
X5.8915Y-6.6939
X5.9373Y-3.3932
X5.9376Y-4.8265
X5.9683Y-5.5303
X5.9752Y-3.82
X6.1275Y-5.4865
X6.1604Y-6.0113
X6.1651Y-6.2286
X6.2044Y-5.2762
X6.2662Y-5.0699
X6.2826Y-3.8831
X6.3171Y-3.1368
X6.3258Y-3.0581
X6.3436Y-5.6882
X6.3608Y-6.3465
X6.3919Y-2.971
X6.3963Y-6.04
X6.4057Y-3.0292
X6.4607Y-4.76
X6.4652Y-4.4496
X6.4672Y-6.0582
X6.4746Y-6.8884
X6.492Y-4.8453
X6.497Y-4.7402
X6.5346Y-3.601
X6.5733Y-5.5849
X6.5754Y-3.7928
X6.5917Y-3.9207
X6.6006Y-4.0372
X6.6027Y-6.4834
X6.6043Y-5.9154
X6.6076Y-4.2929
X6.611Y-3.9601
X6.6213Y-2.318
X6.6256Y-6.0963
X6.632Y-5.8797
X6.6798Y-4.5106
X6.7195Y-3.8189
X6.8304Y-4.0119
X6.836Y-6.2246
X6.9056Y-2.4403
X6.9205Y-5.2929
X6.9374Y-5.1518
X7.0956Y-5.2856
X7.292Y-2.8125
X7.3485Y-4.3439
X7.3731Y-5.7602
X7.4086Y-3.6003
X7.4144Y-3.8858
X7.6352Y-5.7235
X7.654Y-3.0194
X7.7215Y-3.6852
X7.8743Y-2.7471
X7.8756Y-2.9298
X7.8997Y-6.49
X7.9Y-2.4088
X7.9074Y-2.8289
X7.909Y-3.0898
X7.921Y-4.4508
X7.9675Y-2.5252
X7.9761Y-3.9279
X8.0127Y-2.2168
X8.0666Y-2.6649
X8.0825Y-4.0011
X8.1096Y-4.3651
X8.119Y-7.1887
X8.1265Y-7.2433
X8.1377Y-2.7125
X8.1388Y-6.644
X8.2674Y-3.9268
X8.4036Y-2.7134
X8.4739Y-2.686
X8.4871Y-5.6309
X8.5629Y-4.0035
X8.6369Y-2.6692
X8.9578Y-3.4485
T3
X5.8642Y-2.2933
X5.9642Y-2.2933
T5
X3.4498Y-5.439
X3.4998Y-5.389
X3.5498Y-5.439
X8.7313Y-6.0736
X8.7813Y-6.0236
X8.8313Y-6.0736
T6
X2.0154Y-2.8346
X2.0193Y-6.2598
X2.0213Y-6.4764
X2.0333Y-3.0748
X2.0374Y-4.3189
X2.0374Y-4.4189
X2.0374Y-4.5189
X2.0374Y-4.6189
X2.0374Y-4.7189
X2.0374Y-4.8189
X2.0374Y-4.9189
X2.0374Y-5.0189
X2.0648Y-7.2244
X2.1317Y-3.0748
X2.1648Y-7.1244
X2.1648Y-7.3244
X2.2598Y-3.0748
X2.3154Y-2.8346
X2.3193Y-6.2598
X2.3213Y-6.4764
X2.3374Y-4.3189
X2.3374Y-4.4189
X2.3374Y-4.5189
X2.3374Y-4.6189
X2.3374Y-4.7189
X2.3374Y-4.8189
X2.3374Y-4.9189
X2.3374Y-5.0189
X2.3583Y-3.0748
X2.4293Y-6.3327
X2.4311Y-7.126
X2.4311Y-7.3228
X2.4508Y-6.6535
X2.4508Y-6.9535
X2.4724Y-4.2795
X2.4724Y-4.3795
X2.4724Y-4.4795
X2.4724Y-4.5795
X2.4724Y-4.6795
X2.4724Y-4.7795
X2.4724Y-4.8795
X2.4724Y-4.9795
X2.4724Y-5.0795
X2.5277Y-6.3327
X2.6076Y-4.3189
X2.6076Y-4.4189
X2.6076Y-4.5189
X2.6076Y-4.6189
X2.6076Y-4.7189
X2.6076Y-4.8189
X2.6076Y-4.9189
X2.6076Y-5.0189
X2.6476Y-3.5803
X2.6476Y-3.8803
X2.6772Y-2.1457
X2.6772Y-2.3425
X2.8444Y-3.5531
X2.8508Y-5.6091
X2.8508Y-5.7091
X2.8508Y-5.8091
X2.8508Y-5.9091
X2.8508Y-6.0091
X2.8508Y-6.1091
X2.8508Y-6.2091
X2.8508Y-6.3091
X2.8508Y-6.4091
X2.8508Y-6.5091
X2.8567Y-3.9976
X2.9076Y-4.3189
X2.9076Y-4.4189
X2.9076Y-4.5189
X2.9076Y-4.6189
X2.9076Y-4.7189
X2.9076Y-4.8189
X2.9076Y-4.9189
X2.9076Y-5.0189
X2.9428Y-3.5531
X2.9528Y-5.4843
X2.9567Y-3.8976
X2.9567Y-4.0976
X3.0394Y-4.2805
X3.0394Y-4.3805
X3.0394Y-4.4805
X3.0394Y-4.5805
X3.0394Y-4.6805
X3.0394Y-4.7805
X3.0394Y-4.8805
X3.0394Y-4.9805
X3.0394Y-5.0805
X3.1317Y-3.622
X3.1496Y-5.4843
X3.1508Y-5.6091
X3.1508Y-5.7091
X3.1508Y-5.8091
X3.1508Y-5.9091
X3.1508Y-6.0091
X3.1508Y-6.1091
X3.1508Y-6.2091
X3.1508Y-6.3091
X3.1508Y-6.4091
X3.1508Y-6.5091
X3.2301Y-3.622
X3.2402Y-3.8504
X3.2711Y-4.2833
X3.2711Y-4.3833
X3.2711Y-4.4833
X3.2711Y-4.5833
X3.2711Y-4.6833
X3.2711Y-4.7833
X3.2711Y-4.8833
X3.2711Y-4.9833
X3.2711Y-5.0833
X3.2711Y-5.1833
X3.3626Y-6.0756
X3.3626Y-6.1756
X3.3626Y-6.2756
X3.3626Y-6.3756
X3.3626Y-6.4756
X3.3626Y-6.5756
X3.3626Y-6.6756
X3.373Y-4.1575
X3.4154Y-3.5531
X3.437Y-3.8504
X3.4646Y-5.9488
X3.5138Y-3.5531
X3.5699Y-4.1575
X3.5711Y-4.2833
X3.5711Y-4.3833
X3.5711Y-4.4833
X3.5711Y-4.5833
X3.5711Y-4.6833
X3.5711Y-4.7833
X3.5711Y-4.8833
X3.5711Y-4.9833
X3.5711Y-5.0833
X3.5711Y-5.1833
X3.622Y-3.7697
X3.622Y-3.8681
X3.6591Y-5.7972
X3.6614Y-5.6201
X3.6614Y-5.9488
X3.6626Y-6.0756
X3.6626Y-6.1756
X3.6626Y-6.2756
X3.6626Y-6.3756
X3.6626Y-6.4756
X3.6626Y-6.5756
X3.6626Y-6.6756
X3.7313Y-4.2795
X3.7313Y-4.3795
X3.7313Y-4.4795
X3.7313Y-4.5795
X3.7313Y-4.6795
X3.7313Y-4.7795
X3.7313Y-4.8795
X3.7313Y-4.9795
X3.7313Y-5.0795
X3.7313Y-5.1795
X3.7313Y-5.2795
X3.7313Y-5.3795
X3.8071Y-3.5709
X3.8071Y-3.6709
X3.8071Y-3.7709
X3.8071Y-3.8709
X3.8337Y-4.1535
X3.8744Y-6.0756
X3.8744Y-6.1756
X3.8744Y-6.2756
X3.8744Y-6.3756
X3.8744Y-6.4756
X3.8744Y-6.5756
X3.8744Y-6.6756
X3.9272Y-2.5173
X3.9272Y-2.7142
X3.9272Y-2.8028
X3.9272Y-2.9996
X3.9272Y-3.0957
X3.9272Y-3.3957
X3.9591Y-5.7972
X3.9614Y-5.6201
X3.9764Y-5.9488
X4.0305Y-4.1535
X4.0313Y-4.2795
X4.0313Y-4.3795
X4.0313Y-4.4795
X4.0313Y-4.5795
X4.0313Y-4.6795
X4.0313Y-4.7795
X4.0313Y-4.8795
X4.0313Y-4.9795
X4.0313Y-5.0795
X4.0313Y-5.1795
X4.0313Y-5.2795
X4.0313Y-5.3795
X4.1071Y-3.5709
X4.1071Y-3.6709
X4.1071Y-3.7709
X4.1071Y-3.8709
X4.1142Y-2.5272
X4.1142Y-2.6272
X4.1142Y-2.7272
X4.1142Y-2.8272
X4.1142Y-2.9272
X4.1142Y-3.0272
X4.1142Y-3.1272
X4.1142Y-3.2272
X4.1142Y-3.3272
X4.1142Y-3.4272
X4.1732Y-5.9488
X4.1744Y-6.0756
X4.1744Y-6.1756
X4.1744Y-6.2756
X4.1744Y-6.3756
X4.1744Y-6.4756
X4.1744Y-6.5756
X4.1744Y-6.6756
X4.1939Y-4.2795
X4.1939Y-4.3795
X4.1939Y-4.4795
X4.1939Y-4.5795
X4.1939Y-4.6795
X4.1939Y-4.7795
X4.1939Y-4.8795
X4.1939Y-4.9795
X4.1939Y-5.0795
X4.1939Y-5.1795
X4.2439Y-3.8701
X4.2746Y-2.5354
X4.2913Y-3.2283
X4.2913Y-3.3268
X4.2913Y-3.413
X4.2913Y-3.713
X4.2982Y-4.1535
X4.337Y-5.9722
X4.337Y-6.0722
X4.337Y-6.1722
X4.337Y-6.2722
X4.337Y-6.3722
X4.337Y-6.4722
X4.337Y-6.5722
X4.337Y-6.6722
X4.3423Y-3.8701
X4.3746Y-2.5354
X4.4409Y-5.8465
X4.4746Y-2.5354
X4.4939Y-4.2795
X4.4939Y-4.3795
X4.4939Y-4.4795
X4.4939Y-4.5795
X4.4939Y-4.6795
X4.4939Y-4.7795
X4.4939Y-4.8795
X4.4939Y-4.9795
X4.4939Y-5.0795
X4.4939Y-5.1795
X4.4951Y-4.1535
X4.5276Y-2.7087
X4.5746Y-2.5354
X4.5817Y-5.4291
X4.628Y-3.0055
X4.628Y-3.1055
X4.628Y-3.2055
X4.628Y-3.3055
X4.628Y-3.4055
X4.628Y-3.5055
X4.628Y-3.6055
X4.628Y-3.7055
X4.628Y-3.8055
X4.637Y-5.9722
X4.637Y-6.0722
X4.637Y-6.1722
X4.637Y-6.2722
X4.637Y-6.3722
X4.637Y-6.4722
X4.637Y-6.5722
X4.637Y-6.6722
X4.6378Y-5.8465
X4.6565Y-4.2795
X4.6565Y-4.3795
X4.6565Y-4.4795
X4.6565Y-4.5795
X4.6565Y-4.6795
X4.6565Y-4.7795
X4.6565Y-4.8795
X4.6565Y-4.9795
X4.6565Y-5.0795
X4.6565Y-5.1795
X4.6746Y-2.5354
X4.7244Y-2.7087
X4.728Y-2.9055
X4.728Y-3.0055
X4.728Y-3.1055
X4.728Y-3.2055
X4.728Y-3.3055
X4.728Y-3.4055
X4.728Y-3.5055
X4.728Y-3.6055
X4.728Y-3.7055
X4.728Y-3.8055
X4.728Y-3.9055
X4.7589Y-4.1535
X4.7746Y-2.5354
X4.8016Y-5.926
X4.8016Y-6.026
X4.8016Y-6.126
X4.8016Y-6.226
X4.8016Y-6.326
X4.8016Y-6.426
X4.8016Y-6.526
X4.8016Y-6.626
X4.8016Y-6.726
X4.828Y-2.9055
X4.828Y-3.0055
X4.828Y-3.8055
X4.828Y-3.9055
X4.8746Y-2.5354
X4.8817Y-5.4291
X4.928Y-2.9055
X4.928Y-3.0055
X4.928Y-3.8055
X4.928Y-3.9055
X4.9557Y-4.1535
X4.9565Y-4.2795
X4.9565Y-4.3795
X4.9565Y-4.4795
X4.9565Y-4.5795
X4.9565Y-4.6795
X4.9565Y-4.7795
X4.9565Y-4.8795
X4.9565Y-4.9795
X4.9565Y-5.0795
X4.9565Y-5.1795
X4.9669Y-5.9762
X4.9669Y-6.0762
X4.9669Y-6.1762
X4.9669Y-6.2762
X4.9669Y-6.3762
X4.9669Y-6.4762
X4.9669Y-6.5762
X4.9669Y-6.6762
X4.9746Y-2.5354
X5.028Y-2.9055
X5.028Y-3.0055
X5.028Y-3.8055
X5.028Y-3.9055
X5.0295Y-3.7008
X5.0472Y-5.4291
X5.0709Y-5.8504
X5.0746Y-2.5354
X5.1211Y-4.2795
X5.1211Y-4.3795
X5.1211Y-4.4795
X5.1211Y-4.5795
X5.1211Y-4.6795
X5.1211Y-4.7795
X5.1211Y-4.8795
X5.1211Y-4.9795
X5.128Y-2.9055
X5.128Y-3.0055
X5.128Y-3.8055
X5.128Y-3.9055
X5.1472Y-5.4291
X5.2234Y-4.1535
X5.2264Y-3.7008
X5.228Y-2.9055
X5.228Y-3.0055
X5.228Y-3.8055
X5.228Y-3.9055
X5.2343Y-2.7087
X5.2472Y-5.4291
X5.2669Y-5.9762
X5.2669Y-6.0762
X5.2669Y-6.1762
X5.2669Y-6.2762
X5.2669Y-6.3762
X5.2669Y-6.4762
X5.2669Y-6.5762
X5.2669Y-6.6762
X5.2677Y-5.8504
X5.328Y-2.9055
X5.328Y-3.0055
X5.328Y-3.8055
X5.328Y-3.9055
X5.3472Y-5.4291
X5.4203Y-4.1535
X5.4211Y-4.2795
X5.4211Y-4.3795
X5.4211Y-4.4795
X5.4211Y-4.5795
X5.4211Y-4.6795
X5.4211Y-4.7795
X5.4211Y-4.8795
X5.4211Y-4.9795
X5.428Y-2.9055
X5.428Y-3.0055
X5.428Y-3.8055
X5.428Y-3.9055
X5.4295Y-5.9722
X5.4295Y-6.0722
X5.4295Y-6.1722
X5.4295Y-6.2722
X5.4295Y-6.3722
X5.4295Y-6.4722
X5.4295Y-6.5722
X5.4311Y-2.7087
X5.4472Y-5.4291
X5.528Y-2.9055
X5.528Y-3.0055
X5.528Y-3.1055
X5.528Y-3.2055
X5.528Y-3.3055
X5.528Y-3.4055
X5.528Y-3.5055
X5.528Y-3.6055
X5.528Y-3.7055
X5.528Y-3.8055
X5.528Y-3.9055
X5.5315Y-5.8465
X5.5472Y-5.4291
X5.5817Y-4.2795
X5.5817Y-4.3795
X5.5817Y-4.4795
X5.5817Y-4.5795
X5.5817Y-4.6795
X5.5817Y-4.7795
X5.5817Y-4.8795
X5.5817Y-4.9795
X5.5817Y-5.0795
X5.5817Y-5.1795
X5.628Y-3.0055
X5.628Y-3.1055
X5.628Y-3.2055
X5.628Y-3.3055
X5.628Y-3.4055
X5.628Y-3.5055
X5.628Y-3.6055
X5.628Y-3.7055
X5.628Y-3.8055
X5.6472Y-5.4291
X5.6841Y-4.1535
X5.7283Y-5.8465
X5.7295Y-5.9722
X5.7295Y-6.0722
X5.7295Y-6.1722
X5.7295Y-6.2722
X5.7295Y-6.3722
X5.7295Y-6.4722
X5.7295Y-6.5722
X5.7472Y-5.4291
X5.8472Y-5.4291
X5.8809Y-4.1535
X5.8817Y-4.2795
X5.8817Y-4.3795
X5.8817Y-4.4795
X5.8817Y-4.5795
X5.8817Y-4.6795
X5.8817Y-4.7795
X5.8817Y-4.8795
X5.8817Y-4.9795
X5.8817Y-5.0795
X5.8817Y-5.1795
X6.0709Y-2.3307
X6.0709Y-2.4307
X6.0709Y-2.5307
X6.0709Y-2.6307
X6.3709Y-2.3307
X6.3709Y-2.4307
X6.3709Y-2.5307
X6.3709Y-2.6307
X6.4173Y-7.0472
X6.4173Y-7.1472
X6.4173Y-7.2472
X6.4173Y-7.3472
X6.4173Y-7.4472
X6.4173Y-7.5472
X6.4173Y-7.6472
X6.4173Y-7.7472
X6.4193Y-6.1083
X6.4193Y-6.2083
X6.4193Y-6.3083
X6.4193Y-6.4083
X6.4193Y-6.5083
X6.4193Y-6.6083
X6.4193Y-6.7083
X6.4193Y-6.8083
X6.6213Y-2.8898
X6.6213Y-2.9898
X6.6213Y-3.0898
X6.6213Y-3.1898
X6.6213Y-3.2898
X6.6213Y-3.3898
X6.7173Y-7.0472
X6.7173Y-7.1472
X6.7173Y-7.2472
X6.7173Y-7.3472
X6.7173Y-7.4472
X6.7173Y-7.5472
X6.7173Y-7.6472
X6.7173Y-7.7472
X6.7193Y-6.1083
X6.7193Y-6.2083
X6.7193Y-6.3083
X6.7193Y-6.4083
X6.7193Y-6.5083
X6.7193Y-6.6083
X6.7193Y-6.7083
X6.7193Y-6.8083
X6.7213Y-2.7898
X6.7213Y-2.8898
X6.7213Y-2.9898
X6.7213Y-3.0898
X6.7213Y-3.1898
X6.7213Y-3.2898
X6.7213Y-3.3898
X6.7213Y-3.4898
X6.8213Y-2.7898
X6.8213Y-2.8898
X6.8213Y-3.3898
X6.8213Y-3.4898
X6.9213Y-2.7898
X6.9213Y-2.8898
X6.9213Y-3.3898
X6.9213Y-3.4898
X6.9419Y-7.5295
X6.9419Y-7.7217
X6.9488Y-6.499
X6.9488Y-6.599
X6.9488Y-6.699
X6.9488Y-6.799
X6.9488Y-6.899
X6.9488Y-6.999
X6.9488Y-7.099
X6.9488Y-7.199
X6.9488Y-7.299
X7.0213Y-2.7898
X7.0213Y-2.8898
X7.0213Y-3.3898
X7.0213Y-3.4898
X7.0941Y-6.1575
X7.0941Y-6.3268
X7.1213Y-2.7898
X7.1213Y-2.8898
X7.1213Y-3.3898
X7.1213Y-3.4898
X7.1703Y-6.4557
X7.1703Y-6.5557
X7.1703Y-6.6557
X7.1703Y-6.7557
X7.1703Y-6.8557
X7.1703Y-6.9557
X7.1703Y-7.0557
X7.1703Y-7.1557
X7.1703Y-7.2557
X7.1703Y-7.3557
X7.1703Y-7.4557
X7.1703Y-7.5557
X7.1703Y-7.6557
X7.1703Y-7.7557
X7.2213Y-2.7898
X7.2213Y-2.8898
X7.2213Y-2.9898
X7.2213Y-3.0898
X7.2213Y-3.1898
X7.2213Y-3.2898
X7.2213Y-3.3898
X7.2213Y-3.4898
X7.2402Y-3.8898
X7.2402Y-4.0866
X7.2797Y-4.1939
X7.2797Y-4.2939
X7.2797Y-4.3939
X7.2797Y-4.4939
X7.2797Y-4.5939
X7.2797Y-4.6939
X7.2797Y-4.7939
X7.2797Y-4.8939
X7.2797Y-4.9939
X7.2797Y-5.0939
X7.2797Y-5.1939
X7.2797Y-5.2939
X7.2797Y-5.3939
X7.2797Y-5.4939
X7.2797Y-5.5939
X7.2797Y-5.6939
X7.3213Y-2.8898
X7.3213Y-2.9898
X7.3213Y-3.0898
X7.3213Y-3.1898
X7.3213Y-3.2898
X7.3213Y-3.3898
X7.3941Y-6.1575
X7.3941Y-6.3268
X7.4616Y-5.9114
X7.5165Y-3.1929
X7.5165Y-3.3898
X7.5616Y-5.9114
X7.5886Y-6.3287
X7.6616Y-5.9114
X7.6819Y-4.0669
X7.7362Y-2.7559
X7.7362Y-2.8559
X7.7362Y-2.9559
X7.7362Y-3.0559
X7.7362Y-3.1559
X7.7362Y-3.2559
X7.7362Y-3.3559
X7.7362Y-3.4559
X7.7362Y-3.5559
X7.7616Y-5.9114
X7.7703Y-6.4557
X7.7703Y-6.5557
X7.7703Y-6.6557
X7.7703Y-6.7557
X7.7703Y-6.8557
X7.7703Y-6.9557
X7.7703Y-7.0557
X7.7703Y-7.1557
X7.7703Y-7.2557
X7.7703Y-7.3557
X7.7703Y-7.4557
X7.7703Y-7.5557
X7.7703Y-7.6557
X7.7703Y-7.7557
X7.7854Y-6.3287
X7.8028Y-6.1378
X7.8616Y-5.9114
X7.8787Y-4.0669
X7.8797Y-4.1939
X7.8797Y-4.2939
X7.8797Y-4.3939
X7.8797Y-4.4939
X7.8797Y-4.5939
X7.8797Y-4.6939
X7.8797Y-4.7939
X7.8797Y-4.8939
X7.8797Y-4.9939
X7.8797Y-5.0939
X7.8797Y-5.1939
X7.8797Y-5.2939
X7.8797Y-5.3939
X7.8797Y-5.4939
X7.8797Y-5.5939
X7.8797Y-5.6939
X7.9616Y-5.9114
X7.9724Y-6.287
X7.9724Y-6.587
X7.9724Y-6.6831
X7.9724Y-6.8799
X7.9724Y-7.001
X7.9724Y-7.101
X7.9724Y-7.201
X7.9724Y-7.301
X7.9724Y-7.401
X7.9724Y-7.501
X7.9724Y-7.601
X7.9724Y-7.701
X7.9724Y-7.801
X8.0331Y-2.8898
X8.0331Y-2.9898
X8.0331Y-3.0898
X8.0331Y-3.1898
X8.0331Y-3.2898
X8.0331Y-3.3898
X8.0382Y-4.2116
X8.0382Y-4.3116
X8.0382Y-4.4116
X8.0382Y-4.5116
X8.0382Y-4.6116
X8.0382Y-4.7116
X8.0382Y-4.8116
X8.0382Y-4.9116
X8.0382Y-5.0116
X8.0382Y-5.1116
X8.0616Y-5.9114
X8.1028Y-6.1378
X8.1331Y-2.7898
X8.1331Y-2.8898
X8.1331Y-2.9898
X8.1331Y-3.0898
X8.1331Y-3.1898
X8.1331Y-3.2898
X8.1331Y-3.3898
X8.1331Y-3.4898
X8.1425Y-4.0866
X8.1616Y-5.9114
X8.1906Y-5.3307
X8.2331Y-2.7898
X8.2331Y-2.8898
X8.2331Y-3.3898
X8.2331Y-3.4898
X8.2616Y-5.9114
X8.3132Y-2.5354
X8.3331Y-2.7898
X8.3331Y-2.8898
X8.3331Y-3.3898
X8.3331Y-3.4898
X8.3382Y-4.2116
X8.3382Y-4.3116
X8.3382Y-4.4116
X8.3382Y-4.5116
X8.3382Y-4.6116
X8.3382Y-4.7116
X8.3382Y-4.8116
X8.3382Y-4.9116
X8.3382Y-5.0116
X8.3382Y-5.1116
X8.3394Y-4.0866
X8.3957Y-7.5173
X8.3957Y-7.8173
X8.4132Y-2.5354
X8.4331Y-2.7898
X8.4331Y-2.8898
X8.4331Y-3.3898
X8.4331Y-3.4898
X8.4906Y-5.3307
X8.5057Y-6.0531
X8.5132Y-2.5354
X8.5331Y-2.7898
X8.5331Y-2.8898
X8.5331Y-3.3898
X8.5331Y-3.4898
X8.5843Y-5.3307
X8.6041Y-6.0531
X8.6132Y-2.5354
X8.6319Y-7.5197
X8.6319Y-7.8197
X8.6331Y-2.7898
X8.6331Y-2.8898
X8.6331Y-2.9898
X8.6331Y-3.0898
X8.6331Y-3.1898
X8.6331Y-3.2898
X8.6331Y-3.3898
X8.6331Y-3.4898
X8.6625Y-5.7087
X8.7132Y-2.5354
X8.7331Y-2.8898
X8.7331Y-2.9898
X8.7331Y-3.0898
X8.7331Y-3.1898
X8.7331Y-3.2898
X8.7331Y-3.3898
X8.7609Y-5.7087
X8.8132Y-2.5354
X8.8843Y-5.3307
X8.9132Y-2.5354
X8.9272Y-3.3858
X8.9272Y-3.5827
X8.9602Y-6.0531
X8.978Y-5.3307
X8.9987Y-5.7283
X9.0132Y-2.5354
X9.0587Y-6.0531
X9.0971Y-5.7283
X9.1132Y-2.5354
X9.2201Y-3.878
X9.278Y-5.3307
X9.5201Y-3.878
T7
X2.472Y-3.1004
X2.572Y-3.1004
X2.627Y-3.3268
X2.6663Y-7.5689
X2.727Y-3.3268
X2.7663Y-7.5689
X3.2677Y-5.7185
X3.3677Y-5.7185
X3.4636Y-5.7185
X3.5636Y-5.7185
X3.9852Y-2.3228
X4.0852Y-2.3228
X4.1575Y-5.4291
X4.1575Y-5.7185
X4.1821Y-2.3228
X4.2575Y-5.4291
X4.2575Y-5.7185
X4.2821Y-2.3228
X4.3789Y-2.3228
X4.3839Y-5.4291
X4.4789Y-2.3228
X4.4839Y-5.4291
X4.5758Y-2.3228
X4.6758Y-2.3228
X4.7726Y-2.3228
X4.8699Y-5.7185
X4.8726Y-2.3228
X4.9699Y-5.7185
X4.9705Y-2.3228
X5.0705Y-2.3228
X5.1663Y-2.3228
X5.2663Y-2.3228
X5.3632Y-2.3228
X5.4632Y-2.3228
X5.8439Y-6.0079
X5.8445Y-5.7283
X5.8449Y-6.5748
X5.8451Y-6.2894
X5.9439Y-6.0079
X5.9445Y-5.7283
X5.9449Y-6.5748
X5.9451Y-6.2894
X7.2293Y-5.9016
X7.3293Y-5.9016
X7.4104Y-3.8189
X7.5104Y-3.8189
X7.5778Y-6.122
X7.652Y-3.8189
X7.6778Y-6.122
X7.752Y-3.8189
X7.8866Y-2.3228
X7.9866Y-2.3228
X7.9929Y-5.374
X8.0809Y-3.8189
X8.0837Y-2.3228
X8.0929Y-5.374
X8.1809Y-3.8189
X8.1837Y-2.3228
X8.2778Y-3.8189
X8.2805Y-2.3228
X8.2862Y-6.1063
X8.3778Y-3.8189
X8.3805Y-2.3228
X8.3862Y-6.1063
X8.4774Y-2.3228
X8.5774Y-2.3228
X8.6742Y-2.3228
X8.7742Y-2.3228
X8.7982Y-7.6673
X8.8081Y-3.8189
X8.8711Y-2.3228
X8.8982Y-7.6673
X8.9081Y-3.8189
X8.9711Y-2.3228
X9.0679Y-2.3228
X9.1679Y-2.3228
X9.2648Y-2.3228
X9.3648Y-2.3228
X9.3799Y-5.3622
X9.4799Y-5.3622
T8
X9.3067Y-5.7579
X9.3067Y-5.8563
X9.3067Y-5.935
X9.3067Y-6.0335
T9
X2.4156Y-5.4429
X2.4156Y-5.5429
X2.4156Y-5.6429
X2.4156Y-5.7429
X2.4156Y-5.8429
X2.4156Y-5.9429
X2.44Y-7.5482
X2.44Y-7.6482
X2.44Y-7.7482
X2.4606Y-2.7923
X2.4606Y-2.8923
X2.5156Y-5.4429
X2.5156Y-5.5429
X2.5156Y-5.6429
X2.5156Y-5.7429
X2.5156Y-5.8429
X2.5156Y-5.9429
X2.54Y-7.5482
X2.54Y-7.6482
X2.54Y-7.7482
X2.6181Y-6.938
X2.6181Y-7.038
X2.6181Y-7.2333
X2.6181Y-7.3333
X2.685Y-5.2943
X2.685Y-5.3943
X2.685Y-5.4943
X2.685Y-5.5943
X2.685Y-5.6943
X2.685Y-5.7943
X2.685Y-5.8943
X2.685Y-5.9943
X2.687Y-6.19
X2.687Y-6.29
X2.687Y-6.39
X2.687Y-6.5841
X2.687Y-6.6841
X2.903Y-6.8148
X2.903Y-6.9148
X2.903Y-7.0148
X2.903Y-7.1148
X2.903Y-7.2148
X2.903Y-7.3148
X2.903Y-7.4148
X2.903Y-7.5148
X2.9059Y-2.8031
X2.9626Y-7.7461
X3.003Y-6.8148
X3.003Y-6.9148
X3.003Y-7.0148
X3.003Y-7.1148
X3.003Y-7.2148
X3.003Y-7.3148
X3.003Y-7.4148
X3.003Y-7.5148
X3.3874Y-7.3269
X3.3874Y-7.4269
X3.4874Y-7.3269
X3.4874Y-7.4269
X3.4965Y-2.8031
X3.5874Y-7.3269
X3.5874Y-7.4269
X3.6874Y-7.3269
X3.6874Y-7.4269
X3.7402Y-3.2667
X3.7402Y-3.3667
X3.7874Y-7.3269
X3.7874Y-7.4269
X3.8787Y-2.0239
X3.8787Y-2.1239
X3.8874Y-7.3269
X3.8874Y-7.4269
X3.9787Y-2.0239
X3.9787Y-2.1239
X3.9874Y-7.3269
X3.9874Y-7.4269
X4.0787Y-2.0239
X4.0787Y-2.1239
X4.0874Y-7.3269
X4.0874Y-7.4269
X4.1787Y-2.0239
X4.1787Y-2.1239
X4.1874Y-7.3269
X4.1874Y-7.4269
X4.2787Y-2.0239
X4.2787Y-2.1239
X4.2874Y-7.3269
X4.2874Y-7.4269
X4.3012Y-2.9222
X4.3012Y-3.0222
X4.3874Y-7.3269
X4.3874Y-7.4269
X4.4874Y-7.3269
X4.4874Y-7.4269
X4.5874Y-7.3269
X4.5874Y-7.4269
X4.6874Y-7.3269
X4.6874Y-7.4269
X4.7283Y-2.0239
X4.7283Y-2.1239
X4.7874Y-7.3269
X4.7874Y-7.4269
X4.8283Y-2.0239
X4.8283Y-2.1239
X4.8874Y-7.3269
X4.8874Y-7.4269
X4.9283Y-2.0239
X4.9283Y-2.1239
X4.9874Y-7.3269
X4.9874Y-7.4269
X5.0283Y-2.0239
X5.0283Y-2.1239
X5.0874Y-7.3269
X5.0874Y-7.4269
X5.1283Y-2.0239
X5.1283Y-2.1239
X5.1874Y-7.3269
X5.1874Y-7.4269
X5.2283Y-2.0239
X5.2283Y-2.1239
X5.2874Y-7.3269
X5.2874Y-7.4269
X5.3283Y-2.0239
X5.3283Y-2.1239
X5.3874Y-7.3269
X5.3874Y-7.4269
X5.4283Y-2.0239
X5.4283Y-2.1239
X5.4874Y-7.3269
X5.4874Y-7.4269
X5.5283Y-2.0239
X5.5283Y-2.1239
X5.5874Y-7.3269
X5.5874Y-7.4269
X5.6283Y-2.0239
X5.6283Y-2.1239
X5.6874Y-7.3269
X5.6874Y-7.4269
X5.7283Y-2.0239
X5.7283Y-2.1239
X5.7874Y-7.3269
X5.7874Y-7.4269
X5.8283Y-2.0239
X5.8283Y-2.1239
X5.8744Y-2.9321
X5.8744Y-3.0321
X5.8744Y-3.1321
X5.876Y-3.3642
X5.876Y-3.4642
X5.876Y-3.5642
X5.876Y-3.6642
X5.876Y-3.8573
X5.876Y-3.9573
X5.9283Y-2.0239
X5.9283Y-2.1239
X5.9744Y-2.9321
X5.9744Y-3.0321
X5.9744Y-3.1321
X6.1811Y-7.7441
X6.3803Y-2.0239
X6.3803Y-2.1239
X6.4075Y-4.1929
X6.4075Y-4.2929
X6.4075Y-4.3929
X6.4075Y-4.4929
X6.4075Y-4.5929
X6.4075Y-4.6929
X6.4075Y-4.7929
X6.4075Y-4.8929
X6.4075Y-4.9929
X6.4075Y-5.0929
X6.4075Y-5.1929
X6.4075Y-5.2929
X6.4075Y-5.3929
X6.4075Y-5.4929
X6.4075Y-5.5929
X6.4075Y-5.6929
X6.4803Y-2.0239
X6.4803Y-2.1239
X6.5803Y-2.0239
X6.5803Y-2.1239
X6.6803Y-2.0239
X6.6803Y-2.1239
X6.7803Y-2.0239
X6.7803Y-2.1239
X6.8803Y-2.0239
X6.8803Y-2.1239
X6.9488Y-6.1122
X6.9488Y-6.2122
X6.9488Y-6.3122
X6.9803Y-2.0239
X6.9803Y-2.1239
X7.0075Y-4.1929
X7.0075Y-4.2929
X7.0075Y-4.3929
X7.0075Y-4.4929
X7.0075Y-4.5929
X7.0075Y-4.6929
X7.0075Y-4.7929
X7.0075Y-4.8929
X7.0075Y-4.9929
X7.0075Y-5.0929
X7.0075Y-5.1929
X7.0075Y-5.2929
X7.0075Y-5.3929
X7.0075Y-5.4929
X7.0075Y-5.5929
X7.0075Y-5.6929
X7.0803Y-2.0239
X7.0803Y-2.1239
X7.1803Y-2.0239
X7.1803Y-2.1239
X7.2803Y-2.0239
X7.2803Y-2.1239
X7.3803Y-2.0239
X7.3803Y-2.1239
X7.4803Y-2.0239
X7.4803Y-2.1239
X7.5803Y-2.0239
X7.5803Y-2.1239
X8.0311Y-2.0239
X8.0311Y-2.1239
X8.0807Y-5.7165
X8.1311Y-2.0239
X8.1311Y-2.1239
X8.1807Y-5.7165
X8.189Y-7.5581
X8.189Y-7.6581
X8.189Y-7.7581
X8.2311Y-2.0239
X8.2311Y-2.1239
X8.2461Y-5.5197
X8.2807Y-5.7165
X8.3311Y-2.0239
X8.3311Y-2.1239
X8.3461Y-5.5197
X8.4311Y-2.0239
X8.4311Y-2.1239
X8.4461Y-5.5197
X8.5311Y-2.0239
X8.5311Y-2.1239
X8.5461Y-5.5197
X8.6311Y-2.0239
X8.6311Y-2.1239
X8.7311Y-2.0239
X8.7311Y-2.1239
X8.8311Y-2.0239
X8.8311Y-2.1239
X8.9311Y-2.0239
X8.9311Y-2.1239
X9.0091Y-4.1082
X9.0311Y-2.0239
X9.0311Y-2.1239
X9.065Y-7.748
X9.1091Y-4.1082
X9.1311Y-2.0239
X9.1311Y-2.1239
X9.2091Y-4.1082
X9.2311Y-2.0239
X9.2311Y-2.1239
X9.2608Y-7.5581
X9.2608Y-7.6581
X9.2608Y-7.7581
X9.3091Y-4.1082
X9.3608Y-7.5581
X9.3608Y-7.6581
X9.3608Y-7.7581
T10
X2.0343Y-2.6083
X2.0374Y-6.7028
X2.0374Y-6.8799
X2.1717Y-3.298
X2.2717Y-3.298
X2.2933Y-6.7028
X2.2933Y-6.8799
X2.3717Y-3.298
X2.4343Y-2.6083
T11
X2.5577Y-1.8285
X2.7577Y-1.8285
T12
X9.3701Y-2.835
X9.3701Y-3.6417
T13
X8.7028Y-4.126
X8.7028Y-5.0453
X9.624Y-4.126
X9.624Y-5.0453
T14
X9.4134Y-5.637
X9.4134Y-6.1543
T15
X2.1654Y-1.7717
X2.1654Y-7.6772
X9.6457Y-1.7763
X9.6457Y-7.6772
T4
G00X2.9318Y-1.7894
M15
G01X2.9318Y-1.813
M16
G05
G00X2.9318Y-1.9075
M15
G01X2.9318Y-1.9311
M16
G05
G00X2.9318Y-2.065
M15
G01X2.9318Y-2.0886
M16
G05
G00X3.109Y-2.124
M15
G01X3.109Y-2.1476
M16
G05
G00X3.1483Y-1.7894
M15
G01X3.1483Y-1.813
M16
G05
T9
G00X2.2933Y-2.2162
M15
G01X2.2933Y-2.295
M16
G05
G00X2.372Y-2.4406
M15
G01X2.4508Y-2.4406
M16
G05
G00X2.5295Y-2.2162
M15
G01X2.5295Y-2.295
M16
G05
T0
M30
