%TF.GenerationSoftware,KiCad,Pcbnew,(6.0.11)*%
%TF.CreationDate,2023-11-15T19:52:28-05:00*%
%TF.ProjectId,Slick,536c6963-6b2e-46b6-9963-61645f706362,rev?*%
%TF.SameCoordinates,Original*%
%TF.FileFunction,Soldermask,Bot*%
%TF.FilePolarity,Negative*%
%FSLAX46Y46*%
G04 Gerber Fmt 4.6, Leading zero omitted, Abs format (unit mm)*
G04 Created by KiCad (PCBNEW (6.0.11)) date 2023-11-15 19:52:28*
%MOMM*%
%LPD*%
G01*
G04 APERTURE LIST*
G04 Aperture macros list*
%AMRoundRect*
0 Rectangle with rounded corners*
0 $1 Rounding radius*
0 $2 $3 $4 $5 $6 $7 $8 $9 X,Y pos of 4 corners*
0 Add a 4 corners polygon primitive as box body*
4,1,4,$2,$3,$4,$5,$6,$7,$8,$9,$2,$3,0*
0 Add four circle primitives for the rounded corners*
1,1,$1+$1,$2,$3*
1,1,$1+$1,$4,$5*
1,1,$1+$1,$6,$7*
1,1,$1+$1,$8,$9*
0 Add four rect primitives between the rounded corners*
20,1,$1+$1,$2,$3,$4,$5,0*
20,1,$1+$1,$4,$5,$6,$7,0*
20,1,$1+$1,$6,$7,$8,$9,0*
20,1,$1+$1,$8,$9,$2,$3,0*%
G04 Aperture macros list end*
%ADD10RoundRect,0.250000X-0.600000X0.600000X-0.600000X-0.600000X0.600000X-0.600000X0.600000X0.600000X0*%
%ADD11C,1.700000*%
%ADD12C,1.600000*%
%ADD13R,1.600000X1.600000*%
%ADD14R,1.800000X1.800000*%
%ADD15C,1.800000*%
%ADD16O,1.600000X1.600000*%
%ADD17C,6.400000*%
%ADD18R,1.700000X1.700000*%
%ADD19O,1.700000X1.700000*%
%ADD20R,1.422400X1.422400*%
%ADD21C,1.422400*%
%ADD22RoundRect,0.250000X0.600000X-0.600000X0.600000X0.600000X-0.600000X0.600000X-0.600000X-0.600000X0*%
%ADD23C,2.100000*%
%ADD24C,1.750000*%
%ADD25R,1.100000X1.800000*%
%ADD26RoundRect,0.275000X-0.275000X-0.625000X0.275000X-0.625000X0.275000X0.625000X-0.275000X0.625000X0*%
G04 APERTURE END LIST*
D10*
%TO.C,P1*%
X108000000Y-223000000D03*
D11*
X108000000Y-225540000D03*
X105460000Y-223000000D03*
X105460000Y-225540000D03*
X102920000Y-223000000D03*
X102920000Y-225540000D03*
X100380000Y-223000000D03*
X100380000Y-225540000D03*
X97840000Y-223000000D03*
X97840000Y-225540000D03*
X95300000Y-223000000D03*
X95300000Y-225540000D03*
X92760000Y-223000000D03*
X92760000Y-225540000D03*
X90220000Y-223000000D03*
X90220000Y-225540000D03*
X87680000Y-223000000D03*
X87680000Y-225540000D03*
X85140000Y-223000000D03*
X85140000Y-225540000D03*
X82600000Y-223000000D03*
X82600000Y-225540000D03*
X80060000Y-223000000D03*
X80060000Y-225540000D03*
X77520000Y-223000000D03*
X77520000Y-225540000D03*
X74980000Y-223000000D03*
X74980000Y-225540000D03*
X72440000Y-223000000D03*
X72440000Y-225540000D03*
X69900000Y-223000000D03*
X69900000Y-225540000D03*
X67360000Y-223000000D03*
X67360000Y-225540000D03*
X64820000Y-223000000D03*
X64820000Y-225540000D03*
X62280000Y-223000000D03*
X62280000Y-225540000D03*
X59740000Y-223000000D03*
X59740000Y-225540000D03*
X57200000Y-223000000D03*
X57200000Y-225540000D03*
X54660000Y-223000000D03*
X54660000Y-225540000D03*
X52120000Y-223000000D03*
X52120000Y-225540000D03*
X49580000Y-223000000D03*
X49580000Y-225540000D03*
X47040000Y-223000000D03*
X47040000Y-225540000D03*
%TD*%
D12*
%TO.C,C2*%
X165250000Y-208000000D03*
X165250000Y-213000000D03*
%TD*%
%TO.C,C3*%
X239125000Y-148050000D03*
X239125000Y-153050000D03*
%TD*%
%TO.C,C5*%
X124100000Y-169550000D03*
X124100000Y-174550000D03*
%TD*%
%TO.C,C8*%
X199500000Y-208000000D03*
X199500000Y-213000000D03*
%TD*%
%TO.C,C10*%
X42995000Y-159600000D03*
X42995000Y-164600000D03*
%TD*%
%TO.C,C14*%
X239250000Y-123000000D03*
X239250000Y-128000000D03*
%TD*%
%TO.C,C15*%
X137250000Y-134400000D03*
X137250000Y-139400000D03*
%TD*%
D13*
%TO.C,C25*%
X42929600Y-218750000D03*
D12*
X45429600Y-218750000D03*
%TD*%
D13*
%TO.C,C26*%
X74794900Y-121750000D03*
D12*
X77294900Y-121750000D03*
%TD*%
%TO.C,C17*%
X87750000Y-135390000D03*
X87750000Y-140390000D03*
%TD*%
%TO.C,C20*%
X124000000Y-208050000D03*
X124000000Y-213050000D03*
%TD*%
D13*
%TO.C,C27*%
X117000000Y-218750000D03*
D12*
X119500000Y-218750000D03*
%TD*%
D13*
%TO.C,C28*%
X192884700Y-218750000D03*
D12*
X195384700Y-218750000D03*
%TD*%
D13*
%TO.C,C29*%
X188044900Y-108250000D03*
D12*
X190544900Y-108250000D03*
%TD*%
D14*
%TO.C,D4*%
X81000000Y-81000000D03*
D15*
X78460000Y-81000000D03*
%TD*%
D14*
%TO.C,D5*%
X61000000Y-81000000D03*
D15*
X58460000Y-81000000D03*
%TD*%
D14*
%TO.C,D6*%
X71000000Y-81000000D03*
D15*
X68460000Y-81000000D03*
%TD*%
D14*
%TO.C,D1*%
X91000000Y-81000000D03*
D15*
X88460000Y-81000000D03*
%TD*%
D14*
%TO.C,D2*%
X101000000Y-81000000D03*
D15*
X98460000Y-81000000D03*
%TD*%
D12*
%TO.C,R5*%
X76000000Y-89000000D03*
D16*
X83620000Y-89000000D03*
%TD*%
D12*
%TO.C,R6*%
X56000000Y-89000000D03*
D16*
X63620000Y-89000000D03*
%TD*%
D13*
%TO.C,RN2*%
X241015000Y-188250000D03*
D16*
X243555000Y-188250000D03*
X246095000Y-188250000D03*
X248635000Y-188250000D03*
X251175000Y-188250000D03*
X253715000Y-188250000D03*
X256255000Y-188250000D03*
X258795000Y-188250000D03*
X261335000Y-188250000D03*
%TD*%
D13*
%TO.C,U4*%
X47995000Y-164550000D03*
D16*
X50535000Y-164550000D03*
X53075000Y-164550000D03*
X55615000Y-164550000D03*
X58155000Y-164550000D03*
X60695000Y-164550000D03*
X63235000Y-164550000D03*
X63235000Y-156930000D03*
X60695000Y-156930000D03*
X58155000Y-156930000D03*
X55615000Y-156930000D03*
X53075000Y-156930000D03*
X50535000Y-156930000D03*
X47995000Y-156930000D03*
%TD*%
D13*
%TO.C,U5*%
X128975000Y-212950000D03*
D16*
X131515000Y-212950000D03*
X134055000Y-212950000D03*
X136595000Y-212950000D03*
X139135000Y-212950000D03*
X141675000Y-212950000D03*
X144215000Y-212950000D03*
X146755000Y-212950000D03*
X149295000Y-212950000D03*
X151835000Y-212950000D03*
X151835000Y-205330000D03*
X149295000Y-205330000D03*
X146755000Y-205330000D03*
X144215000Y-205330000D03*
X141675000Y-205330000D03*
X139135000Y-205330000D03*
X136595000Y-205330000D03*
X134055000Y-205330000D03*
X131515000Y-205330000D03*
X128975000Y-205330000D03*
%TD*%
D13*
%TO.C,U6*%
X128975000Y-174550000D03*
D16*
X131515000Y-174550000D03*
X134055000Y-174550000D03*
X136595000Y-174550000D03*
X139135000Y-174550000D03*
X141675000Y-174550000D03*
X144215000Y-174550000D03*
X146755000Y-174550000D03*
X149295000Y-174550000D03*
X151835000Y-174550000D03*
X151835000Y-166930000D03*
X149295000Y-166930000D03*
X146755000Y-166930000D03*
X144215000Y-166930000D03*
X141675000Y-166930000D03*
X139135000Y-166930000D03*
X136595000Y-166930000D03*
X134055000Y-166930000D03*
X131515000Y-166930000D03*
X128975000Y-166930000D03*
%TD*%
D13*
%TO.C,U8*%
X204500000Y-213000000D03*
D16*
X207040000Y-213000000D03*
X209580000Y-213000000D03*
X212120000Y-213000000D03*
X214660000Y-213000000D03*
X217200000Y-213000000D03*
X219740000Y-213000000D03*
X222280000Y-213000000D03*
X224820000Y-213000000D03*
X227360000Y-213000000D03*
X227360000Y-205380000D03*
X224820000Y-205380000D03*
X222280000Y-205380000D03*
X219740000Y-205380000D03*
X217200000Y-205380000D03*
X214660000Y-205380000D03*
X212120000Y-205380000D03*
X209580000Y-205380000D03*
X207040000Y-205380000D03*
X204500000Y-205380000D03*
%TD*%
D13*
%TO.C,U1*%
X128975000Y-199800000D03*
D16*
X131515000Y-199800000D03*
X134055000Y-199800000D03*
X136595000Y-199800000D03*
X139135000Y-199800000D03*
X141675000Y-199800000D03*
X144215000Y-199800000D03*
X146755000Y-199800000D03*
X149295000Y-199800000D03*
X151835000Y-199800000D03*
X151835000Y-192180000D03*
X149295000Y-192180000D03*
X146755000Y-192180000D03*
X144215000Y-192180000D03*
X141675000Y-192180000D03*
X139135000Y-192180000D03*
X136595000Y-192180000D03*
X134055000Y-192180000D03*
X131515000Y-192180000D03*
X128975000Y-192180000D03*
%TD*%
D10*
%TO.C,P2*%
X182000000Y-223000000D03*
D11*
X182000000Y-225540000D03*
X179460000Y-223000000D03*
X179460000Y-225540000D03*
X176920000Y-223000000D03*
X176920000Y-225540000D03*
X174380000Y-223000000D03*
X174380000Y-225540000D03*
X171840000Y-223000000D03*
X171840000Y-225540000D03*
X169300000Y-223000000D03*
X169300000Y-225540000D03*
X166760000Y-223000000D03*
X166760000Y-225540000D03*
X164220000Y-223000000D03*
X164220000Y-225540000D03*
X161680000Y-223000000D03*
X161680000Y-225540000D03*
X159140000Y-223000000D03*
X159140000Y-225540000D03*
X156600000Y-223000000D03*
X156600000Y-225540000D03*
X154060000Y-223000000D03*
X154060000Y-225540000D03*
X151520000Y-223000000D03*
X151520000Y-225540000D03*
X148980000Y-223000000D03*
X148980000Y-225540000D03*
X146440000Y-223000000D03*
X146440000Y-225540000D03*
X143900000Y-223000000D03*
X143900000Y-225540000D03*
X141360000Y-223000000D03*
X141360000Y-225540000D03*
X138820000Y-223000000D03*
X138820000Y-225540000D03*
X136280000Y-223000000D03*
X136280000Y-225540000D03*
X133740000Y-223000000D03*
X133740000Y-225540000D03*
X131200000Y-223000000D03*
X131200000Y-225540000D03*
X128660000Y-223000000D03*
X128660000Y-225540000D03*
X126120000Y-223000000D03*
X126120000Y-225540000D03*
X123580000Y-223000000D03*
X123580000Y-225540000D03*
X121040000Y-223000000D03*
X121040000Y-225540000D03*
%TD*%
D17*
%TO.C,H2*%
X265000000Y-75000000D03*
%TD*%
D13*
%TO.C,RN1*%
X129500000Y-180000000D03*
D16*
X132040000Y-180000000D03*
X134580000Y-180000000D03*
X137120000Y-180000000D03*
X139660000Y-180000000D03*
X142200000Y-180000000D03*
X144740000Y-180000000D03*
X147280000Y-180000000D03*
X149820000Y-180000000D03*
%TD*%
D13*
%TO.C,U11*%
X87075000Y-213025000D03*
D16*
X89615000Y-213025000D03*
X92155000Y-213025000D03*
X94695000Y-213025000D03*
X97235000Y-213025000D03*
X99775000Y-213025000D03*
X102315000Y-213025000D03*
X104855000Y-213025000D03*
X107395000Y-213025000D03*
X109935000Y-213025000D03*
X109935000Y-205405000D03*
X107395000Y-205405000D03*
X104855000Y-205405000D03*
X102315000Y-205405000D03*
X99775000Y-205405000D03*
X97235000Y-205405000D03*
X94695000Y-205405000D03*
X92155000Y-205405000D03*
X89615000Y-205405000D03*
X87075000Y-205405000D03*
%TD*%
D13*
%TO.C,U16*%
X238750000Y-213000000D03*
D16*
X241290000Y-213000000D03*
X243830000Y-213000000D03*
X246370000Y-213000000D03*
X248910000Y-213000000D03*
X251450000Y-213000000D03*
X253990000Y-213000000D03*
X256530000Y-213000000D03*
X259070000Y-213000000D03*
X261610000Y-213000000D03*
X261610000Y-205380000D03*
X259070000Y-205380000D03*
X256530000Y-205380000D03*
X253990000Y-205380000D03*
X251450000Y-205380000D03*
X248910000Y-205380000D03*
X246370000Y-205380000D03*
X243830000Y-205380000D03*
X241290000Y-205380000D03*
X238750000Y-205380000D03*
%TD*%
D18*
%TO.C,J3*%
X83500000Y-94500000D03*
D19*
X86040000Y-94500000D03*
X83500000Y-97040000D03*
X86040000Y-97040000D03*
X83500000Y-99580000D03*
X86040000Y-99580000D03*
X83500000Y-102120000D03*
X86040000Y-102120000D03*
X83500000Y-104660000D03*
X86040000Y-104660000D03*
X83500000Y-107200000D03*
X86040000Y-107200000D03*
X83500000Y-109740000D03*
X86040000Y-109740000D03*
X83500000Y-112280000D03*
X86040000Y-112280000D03*
%TD*%
D18*
%TO.C,J1*%
X103500000Y-94500000D03*
D19*
X106040000Y-94500000D03*
X103500000Y-97040000D03*
X106040000Y-97040000D03*
X103500000Y-99580000D03*
X106040000Y-99580000D03*
X103500000Y-102120000D03*
X106040000Y-102120000D03*
X103500000Y-104660000D03*
X106040000Y-104660000D03*
X103500000Y-107200000D03*
X106040000Y-107200000D03*
X103500000Y-109740000D03*
X106040000Y-109740000D03*
X103500000Y-112280000D03*
X106040000Y-112280000D03*
%TD*%
D12*
%TO.C,C19*%
X42995000Y-172500000D03*
X42995000Y-177500000D03*
%TD*%
%TO.C,C16*%
X82575000Y-208025000D03*
X82575000Y-213025000D03*
%TD*%
D13*
%TO.C,U3*%
X47995000Y-177500000D03*
D16*
X50535000Y-177500000D03*
X53075000Y-177500000D03*
X55615000Y-177500000D03*
X58155000Y-177500000D03*
X60695000Y-177500000D03*
X63235000Y-177500000D03*
X63235000Y-169880000D03*
X60695000Y-169880000D03*
X58155000Y-169880000D03*
X55615000Y-169880000D03*
X53075000Y-169880000D03*
X50535000Y-169880000D03*
X47995000Y-169880000D03*
%TD*%
D17*
%TO.C,H1*%
X40000000Y-75000000D03*
%TD*%
D14*
%TO.C,D7*%
X51000000Y-81000000D03*
D15*
X48460000Y-81000000D03*
%TD*%
D10*
%TO.C,P3*%
X258000000Y-223000000D03*
D11*
X258000000Y-225540000D03*
X255460000Y-223000000D03*
X255460000Y-225540000D03*
X252920000Y-223000000D03*
X252920000Y-225540000D03*
X250380000Y-223000000D03*
X250380000Y-225540000D03*
X247840000Y-223000000D03*
X247840000Y-225540000D03*
X245300000Y-223000000D03*
X245300000Y-225540000D03*
X242760000Y-223000000D03*
X242760000Y-225540000D03*
X240220000Y-223000000D03*
X240220000Y-225540000D03*
X237680000Y-223000000D03*
X237680000Y-225540000D03*
X235140000Y-223000000D03*
X235140000Y-225540000D03*
X232600000Y-223000000D03*
X232600000Y-225540000D03*
X230060000Y-223000000D03*
X230060000Y-225540000D03*
X227520000Y-223000000D03*
X227520000Y-225540000D03*
X224980000Y-223000000D03*
X224980000Y-225540000D03*
X222440000Y-223000000D03*
X222440000Y-225540000D03*
X219900000Y-223000000D03*
X219900000Y-225540000D03*
X217360000Y-223000000D03*
X217360000Y-225540000D03*
X214820000Y-223000000D03*
X214820000Y-225540000D03*
X212280000Y-223000000D03*
X212280000Y-225540000D03*
X209740000Y-223000000D03*
X209740000Y-225540000D03*
X207200000Y-223000000D03*
X207200000Y-225540000D03*
X204660000Y-223000000D03*
X204660000Y-225540000D03*
X202120000Y-223000000D03*
X202120000Y-225540000D03*
X199580000Y-223000000D03*
X199580000Y-225540000D03*
X197040000Y-223000000D03*
X197040000Y-225540000D03*
%TD*%
D20*
%TO.C,U13*%
X197750000Y-162760000D03*
D21*
X197750000Y-165300000D03*
X195210000Y-162760000D03*
X195210000Y-165300000D03*
X192670000Y-162760000D03*
X192670000Y-165300000D03*
X190130000Y-162760000D03*
X190130000Y-165300000D03*
X187590000Y-162760000D03*
X187590000Y-165300000D03*
X185050000Y-162760000D03*
X182510000Y-165300000D03*
X185050000Y-165300000D03*
X182510000Y-167840000D03*
X185050000Y-167840000D03*
X182510000Y-170380000D03*
X185050000Y-170380000D03*
X182510000Y-172920000D03*
X185050000Y-172920000D03*
X182510000Y-175460000D03*
X185050000Y-175460000D03*
X182510000Y-178000000D03*
X185050000Y-178000000D03*
X182510000Y-180540000D03*
X185050000Y-180540000D03*
X182510000Y-183080000D03*
X185050000Y-183080000D03*
X182510000Y-185620000D03*
X185050000Y-185620000D03*
X182510000Y-188160000D03*
X185050000Y-188160000D03*
X182510000Y-190700000D03*
X185050000Y-193240000D03*
X185050000Y-190700000D03*
X187590000Y-193240000D03*
X187590000Y-190700000D03*
X190130000Y-193240000D03*
X190130000Y-190700000D03*
X192670000Y-193240000D03*
X192670000Y-190700000D03*
X195210000Y-193240000D03*
X195210000Y-190700000D03*
X197750000Y-193240000D03*
X197750000Y-190700000D03*
X200290000Y-193240000D03*
X200290000Y-190700000D03*
X202830000Y-193240000D03*
X202830000Y-190700000D03*
X205370000Y-193240000D03*
X205370000Y-190700000D03*
X207910000Y-193240000D03*
X207910000Y-190700000D03*
X210450000Y-193240000D03*
X212990000Y-190700000D03*
X210450000Y-190700000D03*
X212990000Y-188160000D03*
X210450000Y-188160000D03*
X212990000Y-185620000D03*
X210450000Y-185620000D03*
X212990000Y-183080000D03*
X210450000Y-183080000D03*
X212990000Y-180540000D03*
X210450000Y-180540000D03*
X212990000Y-178000000D03*
X210450000Y-178000000D03*
X212990000Y-175460000D03*
X210450000Y-175460000D03*
X212990000Y-172920000D03*
X210450000Y-172920000D03*
X212990000Y-170380000D03*
X210450000Y-170380000D03*
X212990000Y-167840000D03*
X210450000Y-167840000D03*
X212990000Y-165300000D03*
X210450000Y-162760000D03*
X210450000Y-165300000D03*
X207910000Y-162760000D03*
X207910000Y-165300000D03*
X205370000Y-162760000D03*
X205370000Y-165300000D03*
X202830000Y-162760000D03*
X202830000Y-165300000D03*
X200290000Y-162760000D03*
X200290000Y-165300000D03*
%TD*%
D12*
%TO.C,C36*%
X188000000Y-94250000D03*
X188000000Y-99250000D03*
%TD*%
%TO.C,C38*%
X124075000Y-194800000D03*
X124075000Y-199800000D03*
%TD*%
D13*
%TO.C,C46*%
X114294900Y-96250000D03*
D12*
X116794900Y-96250000D03*
%TD*%
D14*
%TO.C,D8*%
X121000000Y-81000000D03*
D15*
X118460000Y-81000000D03*
%TD*%
D14*
%TO.C,D10*%
X131000000Y-81000000D03*
D15*
X128460000Y-81000000D03*
%TD*%
D12*
%TO.C,R21*%
X126000000Y-89000000D03*
D16*
X133620000Y-89000000D03*
%TD*%
D13*
%TO.C,U17*%
X244125000Y-166050000D03*
D16*
X246665000Y-166050000D03*
X249205000Y-166050000D03*
X251745000Y-166050000D03*
X254285000Y-166050000D03*
X256825000Y-166050000D03*
X259365000Y-166050000D03*
X259365000Y-158430000D03*
X256825000Y-158430000D03*
X254285000Y-158430000D03*
X251745000Y-158430000D03*
X249205000Y-158430000D03*
X246665000Y-158430000D03*
X244125000Y-158430000D03*
%TD*%
D20*
%TO.C,U19*%
X153750000Y-127400000D03*
D21*
X151210000Y-124860000D03*
X151210000Y-127400000D03*
X148670000Y-124860000D03*
X148670000Y-127400000D03*
X146130000Y-124860000D03*
X143590000Y-127400000D03*
X146130000Y-127400000D03*
X143590000Y-129940000D03*
X146130000Y-129940000D03*
X143590000Y-132480000D03*
X146130000Y-132480000D03*
X143590000Y-135020000D03*
X146130000Y-135020000D03*
X143590000Y-137560000D03*
X146130000Y-137560000D03*
X143590000Y-140100000D03*
X146130000Y-142640000D03*
X146130000Y-140100000D03*
X148670000Y-142640000D03*
X148670000Y-140100000D03*
X151210000Y-142640000D03*
X151210000Y-140100000D03*
X153750000Y-142640000D03*
X153750000Y-140100000D03*
X156290000Y-142640000D03*
X156290000Y-140100000D03*
X158830000Y-142640000D03*
X161370000Y-140100000D03*
X158830000Y-140100000D03*
X161370000Y-137560000D03*
X158830000Y-137560000D03*
X161370000Y-135020000D03*
X158830000Y-135020000D03*
X161370000Y-132480000D03*
X158830000Y-132480000D03*
X161370000Y-129940000D03*
X158830000Y-129940000D03*
X161370000Y-127400000D03*
X158830000Y-124860000D03*
X158830000Y-127400000D03*
X156290000Y-124860000D03*
X156290000Y-127400000D03*
X153750000Y-124860000D03*
%TD*%
D20*
%TO.C,U7*%
X104250000Y-127390000D03*
D21*
X101710000Y-124850000D03*
X101710000Y-127390000D03*
X99170000Y-124850000D03*
X99170000Y-127390000D03*
X96630000Y-124850000D03*
X94090000Y-127390000D03*
X96630000Y-127390000D03*
X94090000Y-129930000D03*
X96630000Y-129930000D03*
X94090000Y-132470000D03*
X96630000Y-132470000D03*
X94090000Y-135010000D03*
X96630000Y-135010000D03*
X94090000Y-137550000D03*
X96630000Y-137550000D03*
X94090000Y-140090000D03*
X96630000Y-142630000D03*
X96630000Y-140090000D03*
X99170000Y-142630000D03*
X99170000Y-140090000D03*
X101710000Y-142630000D03*
X101710000Y-140090000D03*
X104250000Y-142630000D03*
X104250000Y-140090000D03*
X106790000Y-142630000D03*
X106790000Y-140090000D03*
X109330000Y-142630000D03*
X111870000Y-140090000D03*
X109330000Y-140090000D03*
X111870000Y-137550000D03*
X109330000Y-137550000D03*
X111870000Y-135010000D03*
X109330000Y-135010000D03*
X111870000Y-132470000D03*
X109330000Y-132470000D03*
X111870000Y-129930000D03*
X109330000Y-129930000D03*
X111870000Y-127390000D03*
X109330000Y-124850000D03*
X109330000Y-127390000D03*
X106790000Y-124850000D03*
X106790000Y-127390000D03*
X104250000Y-124850000D03*
%TD*%
D18*
%TO.C,J4*%
X73500000Y-94500000D03*
D19*
X76040000Y-94500000D03*
X73500000Y-97040000D03*
X76040000Y-97040000D03*
X73500000Y-99580000D03*
X76040000Y-99580000D03*
X73500000Y-102120000D03*
X76040000Y-102120000D03*
X73500000Y-104660000D03*
X76040000Y-104660000D03*
X73500000Y-107200000D03*
X76040000Y-107200000D03*
X73500000Y-109740000D03*
X76040000Y-109740000D03*
X73500000Y-112280000D03*
X76040000Y-112280000D03*
%TD*%
D18*
%TO.C,J2*%
X93500000Y-94500000D03*
D19*
X96040000Y-94500000D03*
X93500000Y-97040000D03*
X96040000Y-97040000D03*
X93500000Y-99580000D03*
X96040000Y-99580000D03*
X93500000Y-102120000D03*
X96040000Y-102120000D03*
X93500000Y-104660000D03*
X96040000Y-104660000D03*
X93500000Y-107200000D03*
X96040000Y-107200000D03*
X93500000Y-109740000D03*
X96040000Y-109740000D03*
X93500000Y-112280000D03*
X96040000Y-112280000D03*
%TD*%
D13*
%TO.C,C1*%
X256984900Y-93000000D03*
D12*
X259484900Y-93000000D03*
%TD*%
D14*
%TO.C,D9*%
X141000000Y-81000000D03*
D15*
X138460000Y-81000000D03*
%TD*%
D14*
%TO.C,D11*%
X111000000Y-81000000D03*
D15*
X108460000Y-81000000D03*
%TD*%
D14*
%TO.C,D12*%
X151000000Y-81000000D03*
D15*
X148460000Y-81000000D03*
%TD*%
D13*
%TO.C,U24*%
X244125000Y-153050000D03*
D16*
X246665000Y-153050000D03*
X249205000Y-153050000D03*
X251745000Y-153050000D03*
X254285000Y-153050000D03*
X256825000Y-153050000D03*
X259365000Y-153050000D03*
X259365000Y-145430000D03*
X256825000Y-145430000D03*
X254285000Y-145430000D03*
X251745000Y-145430000D03*
X249205000Y-145430000D03*
X246665000Y-145430000D03*
X244125000Y-145430000D03*
%TD*%
D18*
%TO.C,JP7*%
X69700000Y-213025000D03*
D19*
X69700000Y-210485000D03*
X72240000Y-213025000D03*
X72240000Y-210485000D03*
X74780000Y-213025000D03*
X74780000Y-210485000D03*
X77320000Y-213025000D03*
X77320000Y-210485000D03*
%TD*%
D13*
%TO.C,RN4*%
X42075000Y-182700000D03*
D16*
X44615000Y-182700000D03*
X47155000Y-182700000D03*
X49695000Y-182700000D03*
X52235000Y-182700000D03*
X54775000Y-182700000D03*
X57315000Y-182700000D03*
X59855000Y-182700000D03*
X62395000Y-182700000D03*
%TD*%
D22*
%TO.C,J11*%
X162370000Y-83947500D03*
D11*
X162370000Y-81407500D03*
X164910000Y-83947500D03*
X164910000Y-81407500D03*
X167450000Y-83947500D03*
X167450000Y-81407500D03*
X169990000Y-83947500D03*
X169990000Y-81407500D03*
X172530000Y-83947500D03*
X172530000Y-81407500D03*
X175070000Y-83947500D03*
X175070000Y-81407500D03*
X177610000Y-83947500D03*
X177610000Y-81407500D03*
X180150000Y-83947500D03*
X180150000Y-81407500D03*
X182690000Y-83947500D03*
X182690000Y-81407500D03*
X185230000Y-83947500D03*
X185230000Y-81407500D03*
X187770000Y-83947500D03*
X187770000Y-81407500D03*
X190310000Y-83947500D03*
X190310000Y-81407500D03*
X192850000Y-83947500D03*
X192850000Y-81407500D03*
X195390000Y-83947500D03*
X195390000Y-81407500D03*
X197930000Y-83947500D03*
X197930000Y-81407500D03*
X200470000Y-83947500D03*
X200470000Y-81407500D03*
X203010000Y-83947500D03*
X203010000Y-81407500D03*
X205550000Y-83947500D03*
X205550000Y-81407500D03*
X208090000Y-83947500D03*
X208090000Y-81407500D03*
X210630000Y-83947500D03*
X210630000Y-81407500D03*
%TD*%
D12*
%TO.C,R10*%
X137250000Y-130900000D03*
D16*
X137250000Y-123280000D03*
%TD*%
D13*
%TO.C,RN5*%
X193000000Y-103750000D03*
D16*
X195540000Y-103750000D03*
X198080000Y-103750000D03*
X200620000Y-103750000D03*
X203160000Y-103750000D03*
X205700000Y-103750000D03*
X208240000Y-103750000D03*
X210780000Y-103750000D03*
X213320000Y-103750000D03*
%TD*%
D13*
%TO.C,U31*%
X193000000Y-99250000D03*
D16*
X195540000Y-99250000D03*
X198080000Y-99250000D03*
X200620000Y-99250000D03*
X203160000Y-99250000D03*
X205700000Y-99250000D03*
X208240000Y-99250000D03*
X210780000Y-99250000D03*
X213320000Y-99250000D03*
X215860000Y-99250000D03*
X215860000Y-91630000D03*
X213320000Y-91630000D03*
X210780000Y-91630000D03*
X208240000Y-91630000D03*
X205700000Y-91630000D03*
X203160000Y-91630000D03*
X200620000Y-91630000D03*
X198080000Y-91630000D03*
X195540000Y-91630000D03*
X193000000Y-91630000D03*
%TD*%
D18*
%TO.C,JP8*%
X229950000Y-101750000D03*
D19*
X232490000Y-101750000D03*
X235030000Y-101750000D03*
X237570000Y-101750000D03*
%TD*%
D13*
%TO.C,RN6*%
X129500000Y-186250000D03*
D16*
X132040000Y-186250000D03*
X134580000Y-186250000D03*
X137120000Y-186250000D03*
X139660000Y-186250000D03*
X142200000Y-186250000D03*
X144740000Y-186250000D03*
X147280000Y-186250000D03*
X149820000Y-186250000D03*
%TD*%
D13*
%TO.C,U33*%
X159000000Y-99250000D03*
D16*
X161540000Y-99250000D03*
X164080000Y-99250000D03*
X166620000Y-99250000D03*
X169160000Y-99250000D03*
X171700000Y-99250000D03*
X174240000Y-99250000D03*
X176780000Y-99250000D03*
X179320000Y-99250000D03*
X181860000Y-99250000D03*
X181860000Y-91630000D03*
X179320000Y-91630000D03*
X176780000Y-91630000D03*
X174240000Y-91630000D03*
X171700000Y-91630000D03*
X169160000Y-91630000D03*
X166620000Y-91630000D03*
X164080000Y-91630000D03*
X161540000Y-91630000D03*
X159000000Y-91630000D03*
%TD*%
D18*
%TO.C,JP9*%
X229975000Y-88000000D03*
D19*
X232515000Y-88000000D03*
X235055000Y-88000000D03*
%TD*%
D12*
%TO.C,C37*%
X233750000Y-208000000D03*
X233750000Y-213000000D03*
%TD*%
D13*
%TO.C,RN7*%
X45465000Y-112000000D03*
D16*
X48005000Y-112000000D03*
X50545000Y-112000000D03*
X53085000Y-112000000D03*
X55625000Y-112000000D03*
X58165000Y-112000000D03*
X60705000Y-112000000D03*
X63245000Y-112000000D03*
X65785000Y-112000000D03*
%TD*%
D13*
%TO.C,U9*%
X48250000Y-125000000D03*
D16*
X50790000Y-125000000D03*
X53330000Y-125000000D03*
X55870000Y-125000000D03*
X58410000Y-125000000D03*
X60950000Y-125000000D03*
X63490000Y-125000000D03*
X66030000Y-125000000D03*
X66030000Y-117380000D03*
X63490000Y-117380000D03*
X60950000Y-117380000D03*
X58410000Y-117380000D03*
X55870000Y-117380000D03*
X53330000Y-117380000D03*
X50790000Y-117380000D03*
X48250000Y-117380000D03*
%TD*%
D20*
%TO.C,U12*%
X93750000Y-162760000D03*
D21*
X93750000Y-165300000D03*
X91210000Y-162760000D03*
X91210000Y-165300000D03*
X88670000Y-162760000D03*
X88670000Y-165300000D03*
X86130000Y-162760000D03*
X86130000Y-165300000D03*
X83590000Y-162760000D03*
X83590000Y-165300000D03*
X81050000Y-162760000D03*
X78510000Y-165300000D03*
X81050000Y-165300000D03*
X78510000Y-167840000D03*
X81050000Y-167840000D03*
X78510000Y-170380000D03*
X81050000Y-170380000D03*
X78510000Y-172920000D03*
X81050000Y-172920000D03*
X78510000Y-175460000D03*
X81050000Y-175460000D03*
X78510000Y-178000000D03*
X81050000Y-178000000D03*
X78510000Y-180540000D03*
X81050000Y-180540000D03*
X78510000Y-183080000D03*
X81050000Y-183080000D03*
X78510000Y-185620000D03*
X81050000Y-185620000D03*
X78510000Y-188160000D03*
X81050000Y-188160000D03*
X78510000Y-190700000D03*
X81050000Y-193240000D03*
X81050000Y-190700000D03*
X83590000Y-193240000D03*
X83590000Y-190700000D03*
X86130000Y-193240000D03*
X86130000Y-190700000D03*
X88670000Y-193240000D03*
X88670000Y-190700000D03*
X91210000Y-193240000D03*
X91210000Y-190700000D03*
X93750000Y-193240000D03*
X93750000Y-190700000D03*
X96290000Y-193240000D03*
X96290000Y-190700000D03*
X98830000Y-193240000D03*
X98830000Y-190700000D03*
X101370000Y-193240000D03*
X101370000Y-190700000D03*
X103910000Y-193240000D03*
X103910000Y-190700000D03*
X106450000Y-193240000D03*
X108990000Y-190700000D03*
X106450000Y-190700000D03*
X108990000Y-188160000D03*
X106450000Y-188160000D03*
X108990000Y-185620000D03*
X106450000Y-185620000D03*
X108990000Y-183080000D03*
X106450000Y-183080000D03*
X108990000Y-180540000D03*
X106450000Y-180540000D03*
X108990000Y-178000000D03*
X106450000Y-178000000D03*
X108990000Y-175460000D03*
X106450000Y-175460000D03*
X108990000Y-172920000D03*
X106450000Y-172920000D03*
X108990000Y-170380000D03*
X106450000Y-170380000D03*
X108990000Y-167840000D03*
X106450000Y-167840000D03*
X108990000Y-165300000D03*
X106450000Y-162760000D03*
X106450000Y-165300000D03*
X103910000Y-162760000D03*
X103910000Y-165300000D03*
X101370000Y-162760000D03*
X101370000Y-165300000D03*
X98830000Y-162760000D03*
X98830000Y-165300000D03*
X96290000Y-162760000D03*
X96290000Y-165300000D03*
%TD*%
D13*
%TO.C,U22*%
X48250000Y-106000000D03*
D16*
X50790000Y-106000000D03*
X53330000Y-106000000D03*
X55870000Y-106000000D03*
X58410000Y-106000000D03*
X60950000Y-106000000D03*
X63490000Y-106000000D03*
X66030000Y-106000000D03*
X66030000Y-98380000D03*
X63490000Y-98380000D03*
X60950000Y-98380000D03*
X58410000Y-98380000D03*
X55870000Y-98380000D03*
X53330000Y-98380000D03*
X50790000Y-98380000D03*
X48250000Y-98380000D03*
%TD*%
D13*
%TO.C,U23*%
X170225000Y-213000000D03*
D16*
X172765000Y-213000000D03*
X175305000Y-213000000D03*
X177845000Y-213000000D03*
X180385000Y-213000000D03*
X182925000Y-213000000D03*
X185465000Y-213000000D03*
X188005000Y-213000000D03*
X190545000Y-213000000D03*
X193085000Y-213000000D03*
X193085000Y-205380000D03*
X190545000Y-205380000D03*
X188005000Y-205380000D03*
X185465000Y-205380000D03*
X182925000Y-205380000D03*
X180385000Y-205380000D03*
X177845000Y-205380000D03*
X175305000Y-205380000D03*
X172765000Y-205380000D03*
X170225000Y-205380000D03*
%TD*%
D13*
%TO.C,U32*%
X244250000Y-140000000D03*
D16*
X246790000Y-140000000D03*
X249330000Y-140000000D03*
X251870000Y-140000000D03*
X251870000Y-132380000D03*
X249330000Y-132380000D03*
X246790000Y-132380000D03*
X244250000Y-132380000D03*
%TD*%
D12*
%TO.C,C30*%
X43250000Y-101000000D03*
X43250000Y-106000000D03*
%TD*%
%TO.C,C31*%
X154000000Y-94250000D03*
X154000000Y-99250000D03*
%TD*%
%TO.C,C32*%
X43250000Y-120000000D03*
X43250000Y-125000000D03*
%TD*%
%TO.C,C33*%
X239125000Y-135050000D03*
X239125000Y-140050000D03*
%TD*%
%TO.C,C34*%
X239125000Y-161050000D03*
X239125000Y-166050000D03*
%TD*%
%TO.C,C35*%
X136500000Y-89000000D03*
X141500000Y-89000000D03*
%TD*%
D20*
%TO.C,U14*%
X135500000Y-98000000D03*
D21*
X132960000Y-95460000D03*
X132960000Y-98000000D03*
X130420000Y-95460000D03*
X130420000Y-98000000D03*
X127880000Y-95460000D03*
X125340000Y-98000000D03*
X127880000Y-98000000D03*
X125340000Y-100540000D03*
X127880000Y-100540000D03*
X125340000Y-103080000D03*
X127880000Y-103080000D03*
X125340000Y-105620000D03*
X127880000Y-105620000D03*
X125340000Y-108160000D03*
X127880000Y-108160000D03*
X125340000Y-110700000D03*
X127880000Y-113240000D03*
X127880000Y-110700000D03*
X130420000Y-113240000D03*
X130420000Y-110700000D03*
X132960000Y-113240000D03*
X132960000Y-110700000D03*
X135500000Y-113240000D03*
X135500000Y-110700000D03*
X138040000Y-113240000D03*
X138040000Y-110700000D03*
X140580000Y-113240000D03*
X143120000Y-110700000D03*
X140580000Y-110700000D03*
X143120000Y-108160000D03*
X140580000Y-108160000D03*
X143120000Y-105620000D03*
X140580000Y-105620000D03*
X143120000Y-103080000D03*
X140580000Y-103080000D03*
X143120000Y-100540000D03*
X140580000Y-100540000D03*
X143120000Y-98000000D03*
X140580000Y-95460000D03*
X140580000Y-98000000D03*
X138040000Y-95460000D03*
X138040000Y-98000000D03*
X135500000Y-95460000D03*
%TD*%
D13*
%TO.C,U2*%
X160000000Y-112250000D03*
D16*
X162540000Y-112250000D03*
X165080000Y-112250000D03*
X167620000Y-112250000D03*
X170160000Y-112250000D03*
X172700000Y-112250000D03*
X175240000Y-112250000D03*
X175240000Y-104630000D03*
X172700000Y-104630000D03*
X170160000Y-104630000D03*
X167620000Y-104630000D03*
X165080000Y-104630000D03*
X162540000Y-104630000D03*
X160000000Y-104630000D03*
%TD*%
D13*
%TO.C,D3*%
X254000000Y-97250000D03*
D16*
X246380000Y-97250000D03*
%TD*%
D12*
%TO.C,R4*%
X254000000Y-85000000D03*
D16*
X246380000Y-85000000D03*
%TD*%
D23*
%TO.C,SW1*%
X255985000Y-78452500D03*
X248975000Y-78452500D03*
D24*
X250225000Y-75962500D03*
X254725000Y-75962500D03*
%TD*%
D12*
%TO.C,C39*%
X155000000Y-107250000D03*
X155000000Y-112250000D03*
%TD*%
D13*
%TO.C,RN9*%
X88500000Y-89000000D03*
D16*
X91040000Y-89000000D03*
X93580000Y-89000000D03*
X96120000Y-89000000D03*
X98660000Y-89000000D03*
X101200000Y-89000000D03*
X103740000Y-89000000D03*
X106280000Y-89000000D03*
X108820000Y-89000000D03*
%TD*%
D12*
%TO.C,R1*%
X258250000Y-140000000D03*
D16*
X258250000Y-132380000D03*
%TD*%
D20*
%TO.C,U18*%
X203250000Y-127400000D03*
D21*
X200710000Y-124860000D03*
X200710000Y-127400000D03*
X198170000Y-124860000D03*
X198170000Y-127400000D03*
X195630000Y-124860000D03*
X193090000Y-127400000D03*
X195630000Y-127400000D03*
X193090000Y-129940000D03*
X195630000Y-129940000D03*
X193090000Y-132480000D03*
X195630000Y-132480000D03*
X193090000Y-135020000D03*
X195630000Y-135020000D03*
X193090000Y-137560000D03*
X195630000Y-137560000D03*
X193090000Y-140100000D03*
X195630000Y-142640000D03*
X195630000Y-140100000D03*
X198170000Y-142640000D03*
X198170000Y-140100000D03*
X200710000Y-142640000D03*
X200710000Y-140100000D03*
X203250000Y-142640000D03*
X203250000Y-140100000D03*
X205790000Y-142640000D03*
X205790000Y-140100000D03*
X208330000Y-142640000D03*
X210870000Y-140100000D03*
X208330000Y-140100000D03*
X210870000Y-137560000D03*
X208330000Y-137560000D03*
X210870000Y-135020000D03*
X208330000Y-135020000D03*
X210870000Y-132480000D03*
X208330000Y-132480000D03*
X210870000Y-129940000D03*
X208330000Y-129940000D03*
X210870000Y-127400000D03*
X208330000Y-124860000D03*
X208330000Y-127400000D03*
X205790000Y-124860000D03*
X205790000Y-127400000D03*
X203250000Y-124860000D03*
%TD*%
D18*
%TO.C,JP6*%
X229950000Y-95000000D03*
D19*
X232490000Y-95000000D03*
X235030000Y-95000000D03*
X237570000Y-95000000D03*
%TD*%
D12*
%TO.C,C24*%
X186750000Y-134400000D03*
X186750000Y-139400000D03*
%TD*%
D18*
%TO.C,P4*%
X52018000Y-218500000D03*
D19*
X54558000Y-218500000D03*
X57098000Y-218500000D03*
X59638000Y-218500000D03*
%TD*%
D12*
%TO.C,C49*%
X114000000Y-192250000D03*
X114000000Y-187250000D03*
%TD*%
%TO.C,C45*%
X91250000Y-157750000D03*
X96250000Y-157750000D03*
%TD*%
%TO.C,C41*%
X93750000Y-198250000D03*
X98750000Y-198250000D03*
%TD*%
D18*
%TO.C,J8*%
X248650000Y-175750000D03*
D19*
X248650000Y-173210000D03*
X251190000Y-175750000D03*
X251190000Y-173210000D03*
X253730000Y-175750000D03*
X253730000Y-173210000D03*
X256270000Y-175750000D03*
X256270000Y-173210000D03*
X258810000Y-175750000D03*
X258810000Y-173210000D03*
X261350000Y-175750000D03*
X261350000Y-173210000D03*
%TD*%
D12*
%TO.C,C47*%
X104000000Y-157750000D03*
X109000000Y-157750000D03*
%TD*%
%TO.C,R3*%
X157750000Y-213000000D03*
D16*
X157750000Y-205380000D03*
%TD*%
D13*
%TO.C,RN3*%
X42060000Y-188000000D03*
D16*
X44600000Y-188000000D03*
X47140000Y-188000000D03*
X49680000Y-188000000D03*
X52220000Y-188000000D03*
X54760000Y-188000000D03*
X57300000Y-188000000D03*
X59840000Y-188000000D03*
X62380000Y-188000000D03*
%TD*%
D18*
%TO.C,JP3*%
X156750000Y-168250000D03*
D19*
X156750000Y-170790000D03*
X156750000Y-173330000D03*
%TD*%
D12*
%TO.C,R11*%
X258250000Y-128000000D03*
D16*
X258250000Y-120380000D03*
%TD*%
D12*
%TO.C,C50*%
X218000000Y-192500000D03*
X218000000Y-187500000D03*
%TD*%
D18*
%TO.C,J9*%
X253640000Y-196275000D03*
D19*
X253640000Y-193735000D03*
X256180000Y-196275000D03*
X256180000Y-193735000D03*
X258720000Y-196275000D03*
X258720000Y-193735000D03*
X261260000Y-196275000D03*
X261260000Y-193735000D03*
%TD*%
D12*
%TO.C,C51*%
X177500000Y-184500000D03*
X177500000Y-189500000D03*
%TD*%
%TO.C,C57*%
X195250000Y-157750000D03*
X200250000Y-157750000D03*
%TD*%
D18*
%TO.C,J6*%
X43050000Y-196985000D03*
D19*
X43050000Y-194445000D03*
X45590000Y-196985000D03*
X45590000Y-194445000D03*
X48130000Y-196985000D03*
X48130000Y-194445000D03*
X50670000Y-196985000D03*
X50670000Y-194445000D03*
X53210000Y-196985000D03*
X53210000Y-194445000D03*
X55750000Y-196985000D03*
X55750000Y-194445000D03*
X58290000Y-196985000D03*
X58290000Y-194445000D03*
X60830000Y-196985000D03*
X60830000Y-194445000D03*
%TD*%
D12*
%TO.C,C48*%
X73500000Y-184500000D03*
X73500000Y-189500000D03*
%TD*%
D13*
%TO.C,U27*%
X48075000Y-138050000D03*
D16*
X50615000Y-138050000D03*
X53155000Y-138050000D03*
X55695000Y-138050000D03*
X58235000Y-138050000D03*
X60775000Y-138050000D03*
X63315000Y-138050000D03*
X65855000Y-138050000D03*
X68395000Y-138050000D03*
X70935000Y-138050000D03*
X70935000Y-130430000D03*
X68395000Y-130430000D03*
X65855000Y-130430000D03*
X63315000Y-130430000D03*
X60775000Y-130430000D03*
X58235000Y-130430000D03*
X55695000Y-130430000D03*
X53155000Y-130430000D03*
X50615000Y-130430000D03*
X48075000Y-130430000D03*
%TD*%
D12*
%TO.C,C44*%
X73500000Y-166500000D03*
X73500000Y-171500000D03*
%TD*%
%TO.C,C56*%
X197750000Y-198250000D03*
X202750000Y-198250000D03*
%TD*%
%TO.C,C52*%
X177500000Y-166250000D03*
X177500000Y-171250000D03*
%TD*%
%TO.C,C40*%
X43075000Y-133050000D03*
X43075000Y-138050000D03*
%TD*%
D18*
%TO.C,J5*%
X43050000Y-205000000D03*
D19*
X43050000Y-202460000D03*
X45590000Y-205000000D03*
X45590000Y-202460000D03*
X48130000Y-205000000D03*
X48130000Y-202460000D03*
X50670000Y-205000000D03*
X50670000Y-202460000D03*
X53210000Y-205000000D03*
X53210000Y-202460000D03*
X55750000Y-205000000D03*
X55750000Y-202460000D03*
X58290000Y-205000000D03*
X58290000Y-202460000D03*
X60830000Y-205000000D03*
X60830000Y-202460000D03*
%TD*%
D13*
%TO.C,U28*%
X244200000Y-127990000D03*
D16*
X246740000Y-127990000D03*
X249280000Y-127990000D03*
X251820000Y-127990000D03*
X251820000Y-120370000D03*
X249280000Y-120370000D03*
X246740000Y-120370000D03*
X244200000Y-120370000D03*
%TD*%
D12*
%TO.C,C55*%
X188500000Y-198250000D03*
X183500000Y-198250000D03*
%TD*%
%TO.C,R7*%
X254000000Y-91250000D03*
D16*
X246380000Y-91250000D03*
%TD*%
D12*
%TO.C,C53*%
X208000000Y-157750000D03*
X213000000Y-157750000D03*
%TD*%
D25*
%TO.C,Q1*%
X256930000Y-102260000D03*
D26*
X258200000Y-100190000D03*
X259470000Y-102260000D03*
%TD*%
D12*
%TO.C,R12*%
X241940000Y-183500000D03*
D16*
X249560000Y-183500000D03*
%TD*%
D25*
%TO.C,U26*%
X257000000Y-85450000D03*
D26*
X258270000Y-83380000D03*
X259540000Y-85450000D03*
%TD*%
D22*
%TO.C,J7*%
X47000000Y-149000000D03*
D11*
X47000000Y-146460000D03*
X49540000Y-149000000D03*
X49540000Y-146460000D03*
X52080000Y-149000000D03*
X52080000Y-146460000D03*
X54620000Y-149000000D03*
X54620000Y-146460000D03*
X57160000Y-149000000D03*
X57160000Y-146460000D03*
%TD*%
D12*
%TO.C,C43*%
X114000000Y-174250000D03*
X114000000Y-169250000D03*
%TD*%
D18*
%TO.C,JP1*%
X70250000Y-146465000D03*
D19*
X70250000Y-149005000D03*
%TD*%
D18*
%TO.C,JP14*%
X93475000Y-218500000D03*
D19*
X96015000Y-218500000D03*
X98555000Y-218500000D03*
%TD*%
D12*
%TO.C,R9*%
X155250000Y-187060000D03*
D16*
X155250000Y-179440000D03*
%TD*%
D12*
%TO.C,R2*%
X157750000Y-199810000D03*
D16*
X157750000Y-192190000D03*
%TD*%
D12*
%TO.C,C54*%
X218000000Y-174500000D03*
X218000000Y-169500000D03*
%TD*%
%TO.C,R8*%
X242250000Y-178475000D03*
D16*
X242250000Y-170855000D03*
%TD*%
D12*
%TO.C,C42*%
X84500000Y-198250000D03*
X79500000Y-198250000D03*
%TD*%
D18*
%TO.C,J12*%
X43050000Y-213025000D03*
D19*
X43050000Y-210485000D03*
X45590000Y-213025000D03*
X45590000Y-210485000D03*
X48130000Y-213025000D03*
X48130000Y-210485000D03*
X50670000Y-213025000D03*
X50670000Y-210485000D03*
X53210000Y-213025000D03*
X53210000Y-210485000D03*
X55750000Y-213025000D03*
X55750000Y-210485000D03*
X58290000Y-213025000D03*
X58290000Y-210485000D03*
X60830000Y-213025000D03*
X60830000Y-210485000D03*
%TD*%
D12*
%TO.C,R13*%
X255440000Y-183500000D03*
D16*
X263060000Y-183500000D03*
%TD*%
M02*
