M48
; DRILL file {KiCad (6.0.11)} date Thu Apr 18 13:45:31 2024
; FORMAT={-:-/ absolute / inch / decimal}
; #@! TF.CreationDate,2024-04-18T13:45:31-04:00
; #@! TF.GenerationSoftware,Kicad,Pcbnew,(6.0.11)
; #@! TF.FileFunction,Plated,1,2,PTH
FMAT,2
INCH
; #@! TA.AperFunction,Plated,PTH,ComponentDrill
T1C0.0118
; #@! TA.AperFunction,Plated,PTH,ComponentDrill
T2C0.0295
; #@! TA.AperFunction,Plated,PTH,ComponentDrill
T3C0.0314
; #@! TA.AperFunction,Plated,PTH,ComponentDrill
T4C0.0315
; #@! TA.AperFunction,Plated,PTH,ComponentDrill
T5C0.0350
; #@! TA.AperFunction,Plated,PTH,ComponentDrill
T6C0.0354
; #@! TA.AperFunction,Plated,PTH,ComponentDrill
T7C0.0394
; #@! TA.AperFunction,Plated,PTH,ComponentDrill
T8C0.0433
; #@! TA.AperFunction,Plated,PTH,ComponentDrill
T9C0.0530
; #@! TA.AperFunction,Plated,PTH,ComponentDrill
T10C0.0620
; #@! TA.AperFunction,Plated,PTH,ComponentDrill
T11C0.0630
; #@! TA.AperFunction,Plated,PTH,ComponentDrill
T12C0.0902
; #@! TA.AperFunction,Plated,PTH,ComponentDrill
T13C0.1050
; #@! TA.AperFunction,Plated,PTH,ComponentDrill
T14C0.1260
%
G90
G05
T1
X4.75Y-7.5886
X4.7972Y-7.5886
X6.1673Y-6.6634
X6.2146Y-6.6634
T2
X9.6646Y-6.8941
X9.7146Y-6.8441
X9.7646Y-6.8941
T3
X6.2891Y-5.6772
X6.2895Y-6.4279
X6.3556Y-6.4279
X6.3591Y-5.6772
X6.4292Y-5.6772
X6.4296Y-6.4279
X6.4993Y-5.6772
X6.4997Y-6.4279
X6.5654Y-5.6772
X6.5698Y-6.4279
X6.6355Y-5.6772
X6.6399Y-6.4279
X6.7056Y-5.6772
X6.7099Y-6.4279
X6.7757Y-5.6772
X6.78Y-6.4279
X6.8458Y-5.6772
X6.8501Y-6.4279
X6.9158Y-5.6772
X6.9202Y-6.4279
X6.9859Y-5.6772
X6.9902Y-6.4279
X7.056Y-5.6772
X7.0643Y-6.4279
X7.1261Y-5.6776
X7.1343Y-6.4279
X7.1961Y-5.6776
X7.2044Y-6.4279
X7.2622Y-5.6776
X7.2744Y-6.4279
X7.3323Y-5.6776
X7.3445Y-6.4279
X7.4023Y-5.6776
X7.4146Y-6.4279
X7.4724Y-5.6776
X7.4846Y-6.4279
X7.5425Y-5.6776
X7.5547Y-6.4279
X7.6126Y-5.6776
X7.6209Y-6.4279
X7.6827Y-5.6776
X7.6909Y-6.4279
X7.7527Y-5.6776
X7.761Y-6.4287
X7.8248Y-5.6776
X7.8272Y-6.4287
X7.8949Y-5.6776
X7.8972Y-6.4287
X7.961Y-5.6776
X7.9677Y-6.4287
X8.0311Y-5.6776
X8.0378Y-6.4287
X8.1012Y-5.6776
X8.1079Y-6.4287
X8.1712Y-5.6776
X8.1779Y-6.4287
X8.2413Y-5.6776
X8.248Y-6.4287
X8.3114Y-5.6776
X8.3181Y-6.4287
X8.3815Y-5.6776
X8.3882Y-6.4287
X8.4516Y-5.6776
X8.4583Y-6.4287
T4
X1.6972Y-7.7087
X1.6972Y-7.9055
X1.7008Y-8.6063
X1.7992Y-8.6063
X1.877Y-7.6055
X1.877Y-7.9055
X1.9484Y-3.4693
X1.9484Y-3.7047
X1.977Y-7.6055
X1.977Y-7.9055
X2.077Y-7.6055
X2.077Y-7.9055
X2.177Y-7.6055
X2.177Y-7.9055
X2.2043Y-7.4311
X2.2484Y-3.4693
X2.2484Y-3.7047
X2.277Y-7.6055
X2.277Y-7.9055
X2.3421Y-3.4693
X2.3421Y-3.7047
X2.377Y-7.6055
X2.377Y-7.9055
X2.477Y-7.6055
X2.477Y-7.9055
X2.5043Y-7.4311
X2.6378Y-8.1693
X2.6378Y-8.3661
X2.6421Y-3.4693
X2.6421Y-3.7047
X2.7191Y-7.7126
X2.7191Y-7.9094
X2.815Y-8.0858
X2.815Y-8.3858
X2.9071Y-7.6055
X2.9071Y-7.9055
X2.915Y-8.0858
X2.915Y-8.3858
X3.0071Y-7.6055
X3.0071Y-7.9055
X3.015Y-8.0858
X3.015Y-8.3858
X3.1071Y-7.6055
X3.1071Y-7.9055
X3.115Y-8.0858
X3.115Y-8.3858
X3.2071Y-7.6055
X3.2071Y-7.9055
X3.215Y-8.0858
X3.215Y-8.3858
X3.3071Y-7.6055
X3.3071Y-7.9055
X3.315Y-8.0858
X3.315Y-8.3858
X3.4071Y-7.6055
X3.4071Y-7.9055
X3.415Y-8.0858
X3.415Y-8.3858
X3.4169Y-5.7402
X3.4565Y-5.9803
X3.4565Y-6.1772
X3.5071Y-7.6055
X3.5071Y-7.9055
X3.515Y-8.0858
X3.515Y-8.3858
X3.5153Y-5.7402
X3.615Y-8.0858
X3.615Y-8.3858
X3.6358Y-5.1949
X3.6506Y-5.7809
X3.6506Y-6.3809
X3.6523Y-7.4409
X3.6555Y-5.3575
X3.6555Y-5.6575
X3.685Y-4.8996
X3.715Y-8.0858
X3.715Y-8.3858
X3.7506Y-5.7809
X3.7506Y-6.3809
X3.7508Y-7.4409
X3.7559Y-7.7126
X3.7559Y-7.9094
X3.7835Y-4.8996
X3.8327Y-5.1949
X3.8506Y-5.7809
X3.8506Y-6.3809
X3.8819Y-5.3575
X3.8819Y-5.6575
X3.937Y-7.6055
X3.937Y-7.9055
X3.9469Y-8.189
X3.9469Y-8.3858
X3.9506Y-5.7809
X3.9506Y-6.3809
X4.0098Y-5.0866
X4.037Y-7.6055
X4.037Y-7.9055
X4.0506Y-5.7809
X4.0506Y-6.3809
X4.1083Y-5.3575
X4.1083Y-5.6575
X4.1098Y-5.1866
X4.124Y-8.0858
X4.124Y-8.3858
X4.137Y-7.6055
X4.137Y-7.9055
X4.1506Y-5.7809
X4.1506Y-6.3809
X4.2098Y-5.0866
X4.224Y-8.0858
X4.224Y-8.3858
X4.2244Y-4.0039
X4.2244Y-4.25
X4.237Y-7.6055
X4.237Y-7.9055
X4.2506Y-5.7809
X4.2506Y-6.3809
X4.324Y-8.0858
X4.324Y-8.3858
X4.3268Y-4.437
X4.3346Y-5.3575
X4.3346Y-5.6575
X4.337Y-7.6055
X4.337Y-7.9055
X4.3506Y-5.7809
X4.3506Y-6.3809
X4.4213Y-4.0039
X4.4213Y-4.25
X4.424Y-8.0858
X4.424Y-8.3858
X4.437Y-7.6055
X4.437Y-7.9055
X4.4506Y-5.7809
X4.4506Y-6.3809
X4.5028Y-3.5254
X4.524Y-8.0858
X4.524Y-8.3858
X4.5299Y-5.0866
X4.537Y-7.6055
X4.537Y-7.9055
X4.5506Y-5.7809
X4.5506Y-6.3809
X4.5585Y-3.8957
X4.5591Y-8.5827
X4.561Y-5.3575
X4.561Y-5.6575
X4.6013Y-3.5254
X4.606Y-4.063
X4.606Y-4.2598
X4.624Y-8.0858
X4.624Y-8.3858
X4.6268Y-4.437
X4.6299Y-5.1866
X4.6506Y-5.7809
X4.6506Y-6.3809
X4.657Y-3.8957
X4.6575Y-8.5827
X4.724Y-8.0858
X4.724Y-8.3858
X4.7299Y-5.0866
X4.7506Y-5.7809
X4.7506Y-6.3809
X4.7717Y-7.7126
X4.7717Y-7.9094
X4.7874Y-5.3575
X4.7874Y-5.6575
X4.824Y-8.0858
X4.824Y-8.3858
X4.8402Y-3.9717
X4.8402Y-4.2717
X4.8506Y-5.7809
X4.8506Y-6.3809
X4.9055Y-5.2146
X4.924Y-8.0858
X4.924Y-8.3858
X4.9368Y-4.5157
X4.9402Y-3.9717
X4.9402Y-4.2717
X4.9441Y-7.4409
X4.9484Y-4.9193
X4.9506Y-5.7809
X4.9506Y-6.3809
X4.9596Y-7.6094
X4.9596Y-7.9094
X5.0138Y-5.3575
X5.0138Y-5.6575
X5.024Y-8.0858
X5.024Y-8.3858
X5.0352Y-4.5157
X5.0402Y-3.9717
X5.0402Y-4.2717
X5.0468Y-4.9193
X5.0506Y-5.7809
X5.0506Y-6.3809
X5.0596Y-7.6094
X5.0596Y-7.9094
X5.1024Y-5.2146
X5.1402Y-3.9717
X5.1402Y-4.2717
X5.1506Y-5.7809
X5.1506Y-6.3809
X5.1596Y-7.6094
X5.1596Y-7.9094
X5.2441Y-7.4409
X5.2506Y-5.7809
X5.2506Y-6.3809
X5.2596Y-7.6094
X5.2596Y-7.9094
X5.2657Y-8.189
X5.2657Y-8.3858
X5.3297Y-4.0045
X5.3297Y-4.2506
X5.3382Y-7.4409
X5.3506Y-5.7809
X5.3506Y-6.3809
X5.3596Y-7.6094
X5.3596Y-7.9094
X5.3778Y-5.5354
X5.4169Y-4.4409
X5.4429Y-8.0858
X5.4429Y-8.3858
X5.4506Y-5.7809
X5.4506Y-6.3809
X5.4596Y-7.6094
X5.4596Y-7.9094
X5.4762Y-5.5354
X5.5266Y-4.0045
X5.5266Y-4.2506
X5.5429Y-8.0858
X5.5429Y-8.3858
X5.5506Y-5.7809
X5.5506Y-6.3809
X5.5596Y-7.6094
X5.5596Y-7.9094
X5.6382Y-7.4409
X5.6429Y-8.0858
X5.6429Y-8.3858
X5.6673Y-3.8969
X5.713Y-4.0642
X5.713Y-4.261
X5.7169Y-4.4409
X5.7319Y-7.4409
X5.7429Y-8.0858
X5.7429Y-8.3858
X5.7657Y-3.8969
X5.8031Y-7.7047
X5.8031Y-7.9016
X5.8268Y-5.5315
X5.8268Y-5.8315
X5.8429Y-8.0858
X5.8429Y-8.3858
X5.9252Y-5.4134
X5.9429Y-8.0858
X5.9429Y-8.3858
X5.9488Y-3.9722
X5.9488Y-4.2722
X5.9803Y-7.2598
X5.9892Y-7.6055
X5.9892Y-7.9055
X6.0319Y-7.4409
X6.0429Y-8.0858
X6.0429Y-8.3858
X6.0443Y-4.5157
X6.0488Y-3.9722
X6.0488Y-4.2722
X6.0531Y-5.6228
X6.0531Y-5.815
X6.0785Y-5.1181
X6.0892Y-7.6055
X6.0892Y-7.9055
X6.0945Y-6.2894
X6.0945Y-6.4862
X6.122Y-5.4134
X6.1256Y-7.4409
X6.1427Y-4.5157
X6.1429Y-8.0858
X6.1429Y-8.3858
X6.1488Y-3.9722
X6.1488Y-4.2722
X6.177Y-5.1181
X6.1772Y-7.2598
X6.1892Y-7.6055
X6.1892Y-7.9055
X6.2402Y-6.874
X6.2429Y-8.0858
X6.2429Y-8.3858
X6.2488Y-3.9722
X6.2488Y-4.2722
X6.2892Y-7.6055
X6.2892Y-7.9055
X6.3429Y-8.0858
X6.3429Y-8.3858
X6.3508Y-5.2028
X6.3508Y-5.5028
X6.3571Y-4.7236
X6.3571Y-5.0236
X6.374Y-7.2598
X6.3892Y-7.6055
X6.3892Y-7.9055
X6.4256Y-7.4409
X6.437Y-6.874
X6.4508Y-5.2028
X6.4508Y-5.5028
X6.4571Y-4.7236
X6.4571Y-5.0236
X6.4892Y-7.6055
X6.4892Y-7.9055
X6.5193Y-7.4409
X6.5252Y-6.874
X6.5508Y-5.2028
X6.5508Y-5.5028
X6.5571Y-4.7236
X6.5571Y-5.0236
X6.5709Y-7.2598
X6.5892Y-7.6055
X6.5892Y-7.9055
X6.5945Y-8.1791
X6.5945Y-8.376
X6.6508Y-5.2028
X6.6508Y-5.5028
X6.6571Y-4.7236
X6.6571Y-5.0236
X6.6732Y-6.6043
X6.6892Y-7.6055
X6.6892Y-7.9055
X6.7508Y-5.2028
X6.7508Y-5.5028
X6.7571Y-4.7236
X6.7571Y-5.0236
X6.7746Y-8.078
X6.7746Y-8.378
X6.8193Y-7.4409
X6.8252Y-6.874
X6.8508Y-5.2028
X6.8508Y-5.5028
X6.8571Y-4.7236
X6.8571Y-5.0236
X6.8746Y-8.078
X6.8746Y-8.378
X6.8907Y-7.9213
X6.9331Y-6.874
X6.9508Y-5.2028
X6.9508Y-5.5028
X6.9571Y-4.7236
X6.9571Y-5.0236
X6.9732Y-6.6043
X6.9746Y-8.078
X6.9746Y-8.378
X6.9907Y-7.9213
X7.0315Y-6.874
X7.0508Y-5.2028
X7.0508Y-5.5028
X7.0571Y-4.7236
X7.0571Y-5.0236
X7.0746Y-8.078
X7.0746Y-8.378
X7.0907Y-7.9213
X7.0965Y-4.3012
X7.0965Y-4.498
X7.1378Y-6.874
X7.1508Y-5.2028
X7.1508Y-5.5028
X7.1571Y-4.7236
X7.1571Y-5.0236
X7.1746Y-8.078
X7.1746Y-8.378
X7.185Y-4.0256
X7.1907Y-7.9213
X7.2746Y-8.078
X7.2746Y-8.378
X7.2815Y-4.2
X7.2815Y-4.5
X7.2907Y-7.9213
X7.3327Y-5.3051
X7.3327Y-5.502
X7.3347Y-6.874
X7.3425Y-4.8327
X7.3425Y-5.0295
X7.3746Y-8.078
X7.3746Y-8.378
X7.3815Y-4.2
X7.3815Y-4.5
X7.3819Y-4.0256
X7.3907Y-7.9213
X7.4746Y-8.078
X7.4746Y-8.378
X7.478Y-4.0256
X7.4815Y-4.2
X7.4815Y-4.5
X7.4907Y-7.9213
X7.5746Y-8.078
X7.5746Y-8.378
X7.5815Y-4.2
X7.5815Y-4.5
X7.5907Y-7.9213
X7.5925Y-4.7295
X7.5925Y-5.0295
X7.5925Y-5.1941
X7.5925Y-5.4941
X7.6746Y-8.078
X7.6746Y-8.378
X7.6907Y-7.9213
X7.6925Y-4.7295
X7.6925Y-5.0295
X7.6925Y-5.1941
X7.6925Y-5.4941
X7.7244Y-8.6063
X7.7657Y-4.252
X7.7657Y-4.4488
X7.778Y-4.0256
X7.7925Y-4.7295
X7.7925Y-5.0295
X7.7925Y-5.1941
X7.7925Y-5.4941
X7.8228Y-8.6063
X7.8898Y-7.7047
X7.8898Y-7.9016
X7.8925Y-4.7295
X7.8925Y-5.0295
X7.8925Y-5.1941
X7.8925Y-5.4941
X7.9134Y-8.1693
X7.9134Y-8.3661
X7.9925Y-4.7295
X7.9925Y-5.0295
X7.9925Y-5.1941
X7.9925Y-5.4941
X8.0758Y-7.6055
X8.0758Y-7.9055
X8.0925Y-4.7295
X8.0925Y-5.0295
X8.0925Y-5.1941
X8.0925Y-5.4941
X8.0935Y-8.078
X8.0935Y-8.378
X8.1758Y-7.6055
X8.1758Y-7.9055
X8.1925Y-4.7295
X8.1925Y-5.0295
X8.1925Y-5.1941
X8.1925Y-5.4941
X8.1935Y-8.078
X8.1935Y-8.378
X8.2758Y-7.6055
X8.2758Y-7.9055
X8.2925Y-4.7295
X8.2925Y-5.0295
X8.2925Y-5.1941
X8.2925Y-5.4941
X8.2935Y-8.078
X8.2935Y-8.378
X8.3758Y-7.6055
X8.3758Y-7.9055
X8.3925Y-4.7295
X8.3925Y-5.0295
X8.3925Y-5.1941
X8.3925Y-5.4941
X8.3935Y-8.078
X8.3935Y-8.378
X8.4228Y-3.6811
X8.4228Y-3.9173
X8.4758Y-7.6055
X8.4758Y-7.9055
X8.4935Y-8.078
X8.4935Y-8.378
X8.5197Y-6.6693
X8.5728Y-4.8327
X8.5728Y-5.0295
X8.5728Y-5.2953
X8.5728Y-5.4921
X8.5758Y-7.6055
X8.5758Y-7.9055
X8.5935Y-8.078
X8.5935Y-8.378
X8.6122Y-6.0748
X8.6122Y-6.2717
X8.6142Y-5.6791
X8.6142Y-5.876
X8.6181Y-6.6693
X8.6758Y-7.6055
X8.6758Y-7.9055
X8.6935Y-8.078
X8.6935Y-8.378
X8.7228Y-3.6811
X8.7228Y-3.9173
X8.7758Y-7.6055
X8.7758Y-7.9055
X8.7894Y-5.1028
X8.7894Y-5.4028
X8.7894Y-6.0894
X8.7894Y-6.2862
X8.7894Y-6.378
X8.7894Y-6.5748
X8.7894Y-6.6709
X8.7894Y-6.9709
X8.7935Y-8.078
X8.7935Y-8.378
X8.7947Y-4.8492
X8.8165Y-3.6811
X8.8165Y-3.9173
X8.8297Y-5.5555
X8.8297Y-5.9555
X8.8307Y-7.2047
X8.8931Y-4.8492
X8.8935Y-8.078
X8.8935Y-8.378
X8.9297Y-5.5555
X8.9297Y-5.9555
X8.9935Y-8.078
X8.9935Y-8.378
X9.0157Y-6.0894
X9.0157Y-6.2862
X9.0157Y-6.378
X9.0157Y-6.5748
X9.0157Y-6.6685
X9.0157Y-6.9685
X9.0256Y-5.1028
X9.0256Y-5.4028
X9.0276Y-7.2047
X9.0297Y-5.5555
X9.0297Y-5.9555
X9.0792Y-4.8492
X9.1157Y-7.2047
X9.1165Y-3.6811
X9.1165Y-3.9173
X9.1297Y-5.5555
X9.1297Y-5.9555
X9.1777Y-4.8492
X9.2297Y-5.5555
X9.2297Y-5.9555
X9.2421Y-6.0894
X9.2421Y-6.2862
X9.2421Y-6.378
X9.2421Y-6.5748
X9.2421Y-6.6709
X9.2421Y-6.9709
X9.2618Y-5.1028
X9.2618Y-5.4028
X9.3297Y-5.5555
X9.3297Y-5.9555
X9.3656Y-4.8492
X9.3996Y-6.5453
X9.4157Y-7.2047
X9.4297Y-5.5555
X9.4297Y-5.9555
X9.464Y-4.8492
X9.4783Y-6.0902
X9.4783Y-6.3902
X9.4783Y-6.6709
X9.4783Y-6.9709
X9.498Y-5.1028
X9.498Y-5.4028
X9.523Y-7.2047
X9.5297Y-5.5555
X9.5297Y-5.9555
X9.5965Y-6.5453
X9.6214Y-7.2047
X9.6297Y-5.5555
X9.6297Y-5.9555
X9.651Y-4.8492
X9.7146Y-6.0894
X9.7146Y-6.2862
X9.7283Y-7.2047
X9.7297Y-5.5555
X9.7297Y-5.9555
X9.7343Y-5.1028
X9.7343Y-5.4028
X9.7494Y-4.8492
X9.8297Y-5.5555
X9.8297Y-5.9555
X9.9252Y-7.2047
X9.9297Y-5.5555
X9.9297Y-5.9555
X9.9338Y-4.8492
X9.9508Y-6.0894
X9.9508Y-6.2862
X9.9508Y-6.378
X9.9508Y-6.5748
X9.9508Y-6.6709
X9.9508Y-6.9709
X9.9705Y-5.1028
X9.9705Y-5.4028
X10.0322Y-4.8492
X10.0886Y-5.9252
X10.1199Y-5.6366
X10.187Y-6.0894
X10.187Y-6.4894
X10.187Y-6.6709
X10.187Y-6.9709
X10.2067Y-5.1083
X10.2067Y-5.4083
X10.2183Y-5.6366
X10.2192Y-4.8492
X10.2854Y-5.9252
X10.3176Y-4.8492
T5
X7.3071Y-3.1004
X7.3071Y-3.1988
X7.5748Y-3.1004
X7.5748Y-3.1988
T6
X1.8311Y-3.1929
X1.9311Y-3.1929
X2.1028Y-3.1929
X2.2028Y-3.1929
X2.3744Y-3.1929
X2.4744Y-3.1929
X2.6461Y-3.1929
X2.7461Y-3.1929
T7
X1.6535Y-8.2858
X1.6535Y-8.3858
X1.7535Y-8.2858
X1.7535Y-8.3858
X1.852Y-8.7795
X1.852Y-8.8795
X1.8535Y-8.2858
X1.8535Y-8.3858
X1.952Y-8.7795
X1.952Y-8.8795
X1.9535Y-8.2858
X1.9535Y-8.3858
X1.9793Y-7.4311
X2.0157Y-8.622
X2.052Y-8.7795
X2.052Y-8.8795
X2.0535Y-8.2858
X2.0535Y-8.3858
X2.0793Y-7.4311
X2.1157Y-8.622
X2.152Y-8.7795
X2.152Y-8.8795
X2.1535Y-8.2858
X2.1535Y-8.3858
X2.2157Y-8.622
X2.252Y-8.7795
X2.252Y-8.8795
X2.2535Y-8.2858
X2.2535Y-8.3858
X2.3157Y-8.622
X2.352Y-8.7795
X2.352Y-8.8795
X2.3535Y-8.2858
X2.3535Y-8.3858
X2.452Y-8.7795
X2.452Y-8.8795
X2.552Y-8.7795
X2.552Y-8.8795
X2.652Y-8.7795
X2.652Y-8.8795
X2.752Y-8.7795
X2.752Y-8.8795
X2.852Y-8.7795
X2.852Y-8.8795
X2.8543Y-8.622
X2.952Y-8.7795
X2.952Y-8.8795
X2.9543Y-8.622
X2.9892Y-7.3228
X2.9892Y-7.4228
X3.052Y-8.7795
X3.052Y-8.8795
X3.0791Y-3.4173
X3.0892Y-7.3228
X3.0892Y-7.4228
X3.152Y-8.7795
X3.152Y-8.8795
X3.1892Y-7.3228
X3.1892Y-7.4228
X3.252Y-8.7795
X3.252Y-8.8795
X3.2892Y-7.3228
X3.2892Y-7.4228
X3.352Y-8.7795
X3.352Y-8.8795
X3.3892Y-7.3228
X3.3892Y-7.4228
X3.4026Y-8.622
X3.452Y-8.7795
X3.452Y-8.8795
X3.5026Y-8.622
X3.552Y-8.7795
X3.552Y-8.8795
X3.652Y-8.7795
X3.652Y-8.8795
X3.6697Y-3.4173
X3.752Y-8.7795
X3.752Y-8.8795
X3.7589Y-8.622
X3.852Y-8.7795
X3.852Y-8.8795
X3.8589Y-8.622
X3.952Y-8.7795
X3.952Y-8.8795
X3.9589Y-8.622
X4.052Y-8.7795
X4.052Y-8.8795
X4.1173Y-3.4634
X4.1173Y-3.5634
X4.152Y-8.7795
X4.152Y-8.8795
X4.2016Y-3.1991
X4.2016Y-3.2991
X4.252Y-8.7795
X4.252Y-8.8795
X4.3016Y-3.1991
X4.3016Y-3.2991
X4.4016Y-3.1991
X4.4016Y-3.2991
X4.5016Y-3.1991
X4.5016Y-3.2991
X4.6016Y-3.1991
X4.6016Y-3.2991
X4.7654Y-8.7795
X4.7654Y-8.8795
X4.8654Y-8.7795
X4.8654Y-8.8795
X4.9539Y-3.5156
X4.9654Y-8.7795
X4.9654Y-8.8795
X4.9911Y-7.2205
X5.0539Y-3.5156
X5.0654Y-8.7795
X5.0654Y-8.8795
X5.0911Y-7.2205
X5.1307Y-3.1991
X5.1307Y-3.2991
X5.1539Y-3.5156
X5.1654Y-8.7795
X5.1654Y-8.8795
X5.1911Y-7.2205
X5.2008Y-5.4892
X5.2008Y-5.5892
X5.2307Y-3.1991
X5.2307Y-3.2991
X5.2654Y-8.7795
X5.2654Y-8.8795
X5.3307Y-3.1991
X5.3307Y-3.2991
X5.3654Y-8.7795
X5.3654Y-8.8795
X5.3762Y-3.4657
X5.3762Y-3.5657
X5.4307Y-3.1991
X5.4307Y-3.2991
X5.4654Y-8.7795
X5.4654Y-8.8795
X5.4762Y-3.4657
X5.4762Y-3.5657
X5.5307Y-3.1991
X5.5307Y-3.2991
X5.5654Y-8.7795
X5.5654Y-8.8795
X5.5762Y-3.4657
X5.5762Y-3.5657
X5.6654Y-8.7795
X5.6654Y-8.8795
X5.7654Y-8.7795
X5.7654Y-8.8795
X5.8337Y-3.5154
X5.8654Y-8.7795
X5.8654Y-8.8795
X5.9337Y-3.5154
X5.9654Y-8.7795
X5.9654Y-8.8795
X6.0337Y-3.5154
X6.0598Y-3.1991
X6.0598Y-3.2991
X6.0654Y-8.7795
X6.0654Y-8.8795
X6.1598Y-3.1991
X6.1598Y-3.2991
X6.1654Y-8.7795
X6.1654Y-8.8795
X6.2598Y-3.1991
X6.2598Y-3.2991
X6.2654Y-8.7795
X6.2654Y-8.8795
X6.2667Y-3.4656
X6.2667Y-3.5656
X6.3598Y-3.1991
X6.3598Y-3.2991
X6.3654Y-8.7795
X6.3654Y-8.8795
X6.3667Y-3.4656
X6.3667Y-3.5656
X6.4459Y-6.6142
X6.4598Y-3.1991
X6.4598Y-3.2991
X6.4654Y-8.7795
X6.4654Y-8.8795
X6.4667Y-3.4656
X6.4667Y-3.5656
X6.5459Y-6.6142
X6.5654Y-8.7795
X6.5654Y-8.8795
X6.6535Y-3.4632
X6.6535Y-3.5632
X6.6654Y-8.7795
X6.6654Y-8.8795
X6.7654Y-8.7795
X6.7654Y-8.8795
X6.8179Y-7.1746
X6.8179Y-7.2746
X6.8654Y-8.7795
X6.8654Y-8.8795
X6.9179Y-7.1746
X6.9179Y-7.2746
X6.9654Y-8.7795
X6.9654Y-8.8795
X7.0128Y-7.5959
X7.0128Y-7.6959
X7.0179Y-7.1746
X7.0179Y-7.2746
X7.0654Y-8.7795
X7.0654Y-8.8795
X7.0817Y-3.6215
X7.0817Y-3.7215
X7.0955Y-6.6142
X7.1128Y-7.5959
X7.1128Y-7.6959
X7.1654Y-8.7795
X7.1654Y-8.8795
X7.1817Y-3.6215
X7.1817Y-3.7215
X7.1955Y-6.6142
X7.2128Y-7.5959
X7.2128Y-7.6959
X7.2811Y-7.1742
X7.2811Y-7.2742
X7.2817Y-3.6215
X7.2817Y-3.7215
X7.3128Y-7.5959
X7.3128Y-7.6959
X7.3514Y-6.6142
X7.3514Y-8.5925
X7.3811Y-7.1742
X7.3811Y-7.2742
X7.3817Y-3.6215
X7.3817Y-3.7215
X7.4128Y-7.5959
X7.4128Y-7.6959
X7.4514Y-6.6142
X7.4514Y-8.5925
X7.4811Y-7.1742
X7.4811Y-7.2742
X7.4817Y-3.6215
X7.4817Y-3.7215
X7.5514Y-8.5925
X7.5811Y-7.1742
X7.5811Y-7.2742
X7.5817Y-3.6215
X7.5817Y-3.7215
X7.6427Y-6.6136
X7.6427Y-6.7136
X7.6811Y-7.1742
X7.6811Y-7.2742
X7.6817Y-3.6215
X7.6817Y-3.7215
X7.7427Y-6.6136
X7.7427Y-6.7136
X7.7575Y-8.7795
X7.7575Y-8.8795
X7.7811Y-7.1742
X7.7811Y-7.2742
X7.7817Y-3.6215
X7.7817Y-3.7215
X7.8427Y-6.6136
X7.8427Y-6.7136
X7.8575Y-8.7795
X7.8575Y-8.8795
X7.8811Y-7.1742
X7.8811Y-7.2742
X7.9427Y-6.6136
X7.9427Y-6.7136
X7.9575Y-8.7795
X7.9575Y-8.8795
X7.9811Y-7.1742
X7.9811Y-7.2742
X8.0427Y-6.6136
X8.0427Y-6.7136
X8.0575Y-8.7795
X8.0575Y-8.8795
X8.0811Y-7.1742
X8.0811Y-7.2742
X8.1427Y-6.6136
X8.1427Y-6.7136
X8.1575Y-8.7795
X8.1575Y-8.8795
X8.1811Y-7.1742
X8.1811Y-7.2742
X8.2427Y-6.6136
X8.2427Y-6.7136
X8.2441Y-3.6526
X8.2441Y-3.7526
X8.2441Y-3.8526
X8.2441Y-4.0945
X8.2441Y-4.1945
X8.2441Y-4.2945
X8.2575Y-8.7795
X8.2575Y-8.8795
X8.3427Y-6.6136
X8.3427Y-6.7136
X8.3575Y-8.7795
X8.3575Y-8.8795
X8.4575Y-8.7795
X8.4575Y-8.8795
X8.5575Y-8.7795
X8.5575Y-8.8795
X8.6575Y-8.7795
X8.6575Y-8.8795
X8.7575Y-8.7795
X8.7575Y-8.8795
X8.8575Y-8.7795
X8.8575Y-8.8795
X8.9575Y-8.7795
X8.9575Y-8.8795
X9.0575Y-8.7795
X9.0575Y-8.8795
X9.1575Y-8.7795
X9.1575Y-8.8795
X9.2575Y-8.7795
X9.2575Y-8.8795
X9.3575Y-8.7795
X9.3575Y-8.8795
X9.4575Y-8.7795
X9.4575Y-8.8795
X9.4591Y-3.4154
X9.5575Y-8.7795
X9.5575Y-8.8795
X9.6575Y-8.7795
X9.6575Y-8.8795
X9.7146Y-6.4557
X9.7146Y-6.5557
X9.7146Y-6.6557
X9.7575Y-8.7795
X9.7575Y-8.8795
X9.8575Y-8.7795
X9.8575Y-8.8795
X9.9575Y-8.7795
X9.9575Y-8.8795
X10.0496Y-3.4154
X10.0575Y-8.7795
X10.0575Y-8.8795
X10.0866Y-7.1575
X10.0866Y-7.2575
X10.1575Y-8.7795
X10.1575Y-8.8795
T8
X8.5276Y-6.9339
X8.5276Y-7.3339
T9
X5.8803Y-6.1024
X6.1165Y-6.1024
T10
X8.0118Y-3.2862
T11
X8.4234Y-3.2684
X8.4234Y-3.4652
X8.5218Y-2.8747
X8.5218Y-3.3668
X8.7187Y-3.2684
X8.7187Y-3.4652
X8.9155Y-2.8747
X8.9155Y-3.3684
X9.014Y-3.2684
X9.014Y-3.4652
T12
X7.1752Y-2.9823
X7.4409Y-2.9508
X7.7067Y-2.9823
T13
X7.8118Y-3.2862
X8.0118Y-3.0862
X8.2118Y-3.2862
T14
X1.5748Y-2.9528
X10.4331Y-2.9528
T7
G00X6.8819Y-2.9803
M15
G01X6.9213Y-2.9803
M16
G05
G00X6.9606Y-3.0748
M15
G01X7.0Y-3.0748
M16
G05
G00X6.9606Y-3.2913
M15
G01X7.0Y-3.2913
M16
G05
T0
M30
