%TF.GenerationSoftware,KiCad,Pcbnew,(6.0.11)*%
%TF.CreationDate,2024-04-18T13:45:27-04:00*%
%TF.ProjectId,input-output.Media,696e7075-742d-46f7-9574-7075742e4d65,rev?*%
%TF.SameCoordinates,Original*%
%TF.FileFunction,Copper,L2,Bot*%
%TF.FilePolarity,Positive*%
%FSLAX46Y46*%
G04 Gerber Fmt 4.6, Leading zero omitted, Abs format (unit mm)*
G04 Created by KiCad (PCBNEW (6.0.11)) date 2024-04-18 13:45:27*
%MOMM*%
%LPD*%
G01*
G04 APERTURE LIST*
G04 Aperture macros list*
%AMRoundRect*
0 Rectangle with rounded corners*
0 $1 Rounding radius*
0 $2 $3 $4 $5 $6 $7 $8 $9 X,Y pos of 4 corners*
0 Add a 4 corners polygon primitive as box body*
4,1,4,$2,$3,$4,$5,$6,$7,$8,$9,$2,$3,0*
0 Add four circle primitives for the rounded corners*
1,1,$1+$1,$2,$3*
1,1,$1+$1,$4,$5*
1,1,$1+$1,$6,$7*
1,1,$1+$1,$8,$9*
0 Add four rect primitives between the rounded corners*
20,1,$1+$1,$2,$3,$4,$5,0*
20,1,$1+$1,$4,$5,$6,$7,0*
20,1,$1+$1,$6,$7,$8,$9,0*
20,1,$1+$1,$8,$9,$2,$3,0*%
G04 Aperture macros list end*
%TA.AperFunction,ComponentPad*%
%ADD10C,6.400000*%
%TD*%
%TA.AperFunction,ComponentPad*%
%ADD11RoundRect,0.250000X-0.600000X0.600000X-0.600000X-0.600000X0.600000X-0.600000X0.600000X0.600000X0*%
%TD*%
%TA.AperFunction,ComponentPad*%
%ADD12C,1.700000*%
%TD*%
%TA.AperFunction,ComponentPad*%
%ADD13R,1.100000X1.800000*%
%TD*%
%TA.AperFunction,ComponentPad*%
%ADD14RoundRect,0.275000X-0.275000X-0.625000X0.275000X-0.625000X0.275000X0.625000X-0.275000X0.625000X0*%
%TD*%
%TA.AperFunction,ComponentPad*%
%ADD15O,2.800000X1.800000*%
%TD*%
%TA.AperFunction,ComponentPad*%
%ADD16R,1.600000X1.600000*%
%TD*%
%TA.AperFunction,ComponentPad*%
%ADD17C,1.600000*%
%TD*%
%TA.AperFunction,ComponentPad*%
%ADD18R,1.700000X1.700000*%
%TD*%
%TA.AperFunction,ComponentPad*%
%ADD19O,1.700000X1.700000*%
%TD*%
%TA.AperFunction,ComponentPad*%
%ADD20O,1.600000X1.600000*%
%TD*%
%TA.AperFunction,ComponentPad*%
%ADD21R,2.000000X2.000000*%
%TD*%
%TA.AperFunction,ComponentPad*%
%ADD22C,2.000000*%
%TD*%
%TA.AperFunction,ComponentPad*%
%ADD23C,0.600000*%
%TD*%
%TA.AperFunction,ComponentPad*%
%ADD24R,1.800000X1.800000*%
%TD*%
%TA.AperFunction,ComponentPad*%
%ADD25C,1.800000*%
%TD*%
%TA.AperFunction,ComponentPad*%
%ADD26C,1.371600*%
%TD*%
%TA.AperFunction,ComponentPad*%
%ADD27C,4.000500*%
%TD*%
%TA.AperFunction,ComponentPad*%
%ADD28C,1.500000*%
%TD*%
%TA.AperFunction,ComponentPad*%
%ADD29RoundRect,0.250000X0.600000X-0.600000X0.600000X0.600000X-0.600000X0.600000X-0.600000X-0.600000X0*%
%TD*%
%TA.AperFunction,ComponentPad*%
%ADD30C,1.854200*%
%TD*%
%TA.AperFunction,ComponentPad*%
%ADD31R,1.173480X1.173480*%
%TD*%
%TA.AperFunction,ComponentPad*%
%ADD32C,1.198880*%
%TD*%
%TA.AperFunction,ComponentPad*%
%ADD33C,1.440000*%
%TD*%
%TA.AperFunction,ComponentPad*%
%ADD34C,3.000000*%
%TD*%
%TA.AperFunction,ComponentPad*%
%ADD35C,2.971800*%
%TD*%
%TA.AperFunction,ComponentPad*%
%ADD36C,4.064000*%
%TD*%
%TA.AperFunction,ComponentPad*%
%ADD37R,2.200000X2.200000*%
%TD*%
%TA.AperFunction,ComponentPad*%
%ADD38O,2.200000X2.200000*%
%TD*%
G04 APERTURE END LIST*
%TO.C,NT2*%
G36*
X121850000Y-193050000D02*
G01*
X120650000Y-193050000D01*
X120650000Y-192450000D01*
X121850000Y-192450000D01*
X121850000Y-193050000D01*
G37*
%TO.C,NT1*%
G36*
X157850000Y-169550000D02*
G01*
X156650000Y-169550000D01*
X156650000Y-168950000D01*
X157850000Y-168950000D01*
X157850000Y-169550000D01*
G37*
%TD*%
D10*
%TO.P,H2,1,1*%
%TO.N,GND*%
X265000000Y-75000000D03*
%TD*%
%TO.P,H1,1,1*%
%TO.N,GND*%
X40000000Y-75000000D03*
%TD*%
D11*
%TO.P,P2,1,Pin_1*%
%TO.N,VCC*%
X182000000Y-223000000D03*
D12*
%TO.P,P2,2,Pin_2*%
X182000000Y-225540000D03*
%TO.P,P2,3,Pin_3*%
%TO.N,/bus/A15*%
X179460000Y-223000000D03*
%TO.P,P2,4,Pin_4*%
%TO.N,/bus/A31*%
X179460000Y-225540000D03*
%TO.P,P2,5,Pin_5*%
%TO.N,/bus/A14*%
X176920000Y-223000000D03*
%TO.P,P2,6,Pin_6*%
%TO.N,/bus/A30*%
X176920000Y-225540000D03*
%TO.P,P2,7,Pin_7*%
%TO.N,/bus/A13*%
X174380000Y-223000000D03*
%TO.P,P2,8,Pin_8*%
%TO.N,/bus/A29*%
X174380000Y-225540000D03*
%TO.P,P2,9,Pin_9*%
%TO.N,/bus/A12*%
X171840000Y-223000000D03*
%TO.P,P2,10,Pin_10*%
%TO.N,/bus/A28*%
X171840000Y-225540000D03*
%TO.P,P2,11,Pin_11*%
%TO.N,/bus/A11*%
X169300000Y-223000000D03*
%TO.P,P2,12,Pin_12*%
%TO.N,/bus/A27*%
X169300000Y-225540000D03*
%TO.P,P2,13,Pin_13*%
%TO.N,/bus/A10*%
X166760000Y-223000000D03*
%TO.P,P2,14,Pin_14*%
%TO.N,/bus/A26*%
X166760000Y-225540000D03*
%TO.P,P2,15,Pin_15*%
%TO.N,/bus/A9*%
X164220000Y-223000000D03*
%TO.P,P2,16,Pin_16*%
%TO.N,/bus/A25*%
X164220000Y-225540000D03*
%TO.P,P2,17,Pin_17*%
%TO.N,/bus/A8*%
X161680000Y-223000000D03*
%TO.P,P2,18,Pin_18*%
%TO.N,/bus/A24*%
X161680000Y-225540000D03*
%TO.P,P2,19,Pin_19*%
%TO.N,+12V*%
X159140000Y-223000000D03*
%TO.P,P2,20,Pin_20*%
X159140000Y-225540000D03*
%TO.P,P2,21,Pin_21*%
%TO.N,A7*%
X156600000Y-223000000D03*
%TO.P,P2,22,Pin_22*%
%TO.N,/bus/A23*%
X156600000Y-225540000D03*
%TO.P,P2,23,Pin_23*%
%TO.N,A6*%
X154060000Y-223000000D03*
%TO.P,P2,24,Pin_24*%
%TO.N,/bus/A22*%
X154060000Y-225540000D03*
%TO.P,P2,25,Pin_25*%
%TO.N,A5*%
X151520000Y-223000000D03*
%TO.P,P2,26,Pin_26*%
%TO.N,/bus/A21*%
X151520000Y-225540000D03*
%TO.P,P2,27,Pin_27*%
%TO.N,A4*%
X148980000Y-223000000D03*
%TO.P,P2,28,Pin_28*%
%TO.N,/bus/A20*%
X148980000Y-225540000D03*
%TO.P,P2,29,Pin_29*%
%TO.N,A3*%
X146440000Y-223000000D03*
%TO.P,P2,30,Pin_30*%
%TO.N,/bus/A19*%
X146440000Y-225540000D03*
%TO.P,P2,31,Pin_31*%
%TO.N,A2*%
X143900000Y-223000000D03*
%TO.P,P2,32,Pin_32*%
%TO.N,/bus/A18*%
X143900000Y-225540000D03*
%TO.P,P2,33,Pin_33*%
%TO.N,A1*%
X141360000Y-223000000D03*
%TO.P,P2,34,Pin_34*%
%TO.N,/bus/A17*%
X141360000Y-225540000D03*
%TO.P,P2,35,Pin_35*%
%TO.N,A0*%
X138820000Y-223000000D03*
%TO.P,P2,36,Pin_36*%
%TO.N,/bus/A16*%
X138820000Y-225540000D03*
%TO.P,P2,37,Pin_37*%
%TO.N,-12V*%
X136280000Y-223000000D03*
%TO.P,P2,38,Pin_38*%
X136280000Y-225540000D03*
%TO.P,P2,39,Pin_39*%
%TO.N,/bus/IC3*%
X133740000Y-223000000D03*
%TO.P,P2,40,Pin_40*%
%TO.N,/bus/~{TEND1}*%
X133740000Y-225540000D03*
%TO.P,P2,41,Pin_41*%
%TO.N,/bus/IC2*%
X131200000Y-223000000D03*
%TO.P,P2,42,Pin_42*%
%TO.N,/bus/~{DREQ1}*%
X131200000Y-225540000D03*
%TO.P,P2,43,Pin_43*%
%TO.N,/bus/IC1*%
X128660000Y-223000000D03*
%TO.P,P2,44,Pin_44*%
%TO.N,/bus/~{TEND0}*%
X128660000Y-225540000D03*
%TO.P,P2,45,Pin_45*%
%TO.N,/bus/IC0*%
X126120000Y-223000000D03*
%TO.P,P2,46,Pin_46*%
%TO.N,/bus/~{DREQ0}*%
X126120000Y-225540000D03*
%TO.P,P2,47,Pin_47*%
%TO.N,/bus/AUXCLK1*%
X123580000Y-223000000D03*
%TO.P,P2,48,Pin_48*%
%TO.N,/bus/AUXCLK0*%
X123580000Y-225540000D03*
%TO.P,P2,49,Pin_49*%
%TO.N,GND*%
X121040000Y-223000000D03*
%TO.P,P2,50,Pin_50*%
X121040000Y-225540000D03*
%TD*%
D11*
%TO.P,P3,1,Pin_1*%
%TO.N,VCC*%
X258000000Y-223000000D03*
D12*
%TO.P,P3,2,Pin_2*%
X258000000Y-225540000D03*
%TO.P,P3,3,Pin_3*%
%TO.N,/bus/D15*%
X255460000Y-223000000D03*
%TO.P,P3,4,Pin_4*%
%TO.N,/bus/D31*%
X255460000Y-225540000D03*
%TO.P,P3,5,Pin_5*%
%TO.N,/bus/D14*%
X252920000Y-223000000D03*
%TO.P,P3,6,Pin_6*%
%TO.N,/bus/D30*%
X252920000Y-225540000D03*
%TO.P,P3,7,Pin_7*%
%TO.N,/bus/D13*%
X250380000Y-223000000D03*
%TO.P,P3,8,Pin_8*%
%TO.N,/bus/D29*%
X250380000Y-225540000D03*
%TO.P,P3,9,Pin_9*%
%TO.N,/bus/D12*%
X247840000Y-223000000D03*
%TO.P,P3,10,Pin_10*%
%TO.N,/bus/D28*%
X247840000Y-225540000D03*
%TO.P,P3,11,Pin_11*%
%TO.N,/bus/D11*%
X245300000Y-223000000D03*
%TO.P,P3,12,Pin_12*%
%TO.N,/bus/D27*%
X245300000Y-225540000D03*
%TO.P,P3,13,Pin_13*%
%TO.N,/bus/D10*%
X242760000Y-223000000D03*
%TO.P,P3,14,Pin_14*%
%TO.N,/bus/D26*%
X242760000Y-225540000D03*
%TO.P,P3,15,Pin_15*%
%TO.N,/bus/D9*%
X240220000Y-223000000D03*
%TO.P,P3,16,Pin_16*%
%TO.N,/bus/D25*%
X240220000Y-225540000D03*
%TO.P,P3,17,Pin_17*%
%TO.N,/bus/D8*%
X237680000Y-223000000D03*
%TO.P,P3,18,Pin_18*%
%TO.N,/bus/D24*%
X237680000Y-225540000D03*
%TO.P,P3,19,Pin_19*%
%TO.N,D7*%
X235140000Y-223000000D03*
%TO.P,P3,20,Pin_20*%
%TO.N,/bus/D23*%
X235140000Y-225540000D03*
%TO.P,P3,21,Pin_21*%
%TO.N,D6*%
X232600000Y-223000000D03*
%TO.P,P3,22,Pin_22*%
%TO.N,/bus/D22*%
X232600000Y-225540000D03*
%TO.P,P3,23,Pin_23*%
%TO.N,D5*%
X230060000Y-223000000D03*
%TO.P,P3,24,Pin_24*%
%TO.N,/bus/D21*%
X230060000Y-225540000D03*
%TO.P,P3,25,Pin_25*%
%TO.N,D4*%
X227520000Y-223000000D03*
%TO.P,P3,26,Pin_26*%
%TO.N,/bus/D20*%
X227520000Y-225540000D03*
%TO.P,P3,27,Pin_27*%
%TO.N,D3*%
X224980000Y-223000000D03*
%TO.P,P3,28,Pin_28*%
%TO.N,/bus/D19*%
X224980000Y-225540000D03*
%TO.P,P3,29,Pin_29*%
%TO.N,D2*%
X222440000Y-223000000D03*
%TO.P,P3,30,Pin_30*%
%TO.N,/bus/D18*%
X222440000Y-225540000D03*
%TO.P,P3,31,Pin_31*%
%TO.N,D1*%
X219900000Y-223000000D03*
%TO.P,P3,32,Pin_32*%
%TO.N,/bus/D17*%
X219900000Y-225540000D03*
%TO.P,P3,33,Pin_33*%
%TO.N,D0*%
X217360000Y-223000000D03*
%TO.P,P3,34,Pin_34*%
%TO.N,/bus/D16*%
X217360000Y-225540000D03*
%TO.P,P3,35,Pin_35*%
%TO.N,/bus/~{BUSERR}*%
X214820000Y-223000000D03*
%TO.P,P3,36,Pin_36*%
%TO.N,/bus/UDS*%
X214820000Y-225540000D03*
%TO.P,P3,37,Pin_37*%
%TO.N,/bus/~{VPA}*%
X212280000Y-223000000D03*
%TO.P,P3,38,Pin_38*%
%TO.N,/bus/LDS*%
X212280000Y-225540000D03*
%TO.P,P3,39,Pin_39*%
%TO.N,/bus/~{VMA}*%
X209740000Y-223000000D03*
%TO.P,P3,40,Pin_40*%
%TO.N,/bus/S2*%
X209740000Y-225540000D03*
%TO.P,P3,41,Pin_41*%
%TO.N,/bus/~{BHE}*%
X207200000Y-223000000D03*
%TO.P,P3,42,Pin_42*%
%TO.N,/bus/S1*%
X207200000Y-225540000D03*
%TO.P,P3,43,Pin_43*%
%TO.N,/bus/IPL2*%
X204660000Y-223000000D03*
%TO.P,P3,44,Pin_44*%
%TO.N,/bus/S0*%
X204660000Y-225540000D03*
%TO.P,P3,45,Pin_45*%
%TO.N,/bus/IPL1*%
X202120000Y-223000000D03*
%TO.P,P3,46,Pin_46*%
%TO.N,/bus/AUXCLK3*%
X202120000Y-225540000D03*
%TO.P,P3,47,Pin_47*%
%TO.N,/bus/IPL0*%
X199580000Y-223000000D03*
%TO.P,P3,48,Pin_48*%
%TO.N,/bus/AUXCLK2*%
X199580000Y-225540000D03*
%TO.P,P3,49,Pin_49*%
%TO.N,GND*%
X197040000Y-223000000D03*
%TO.P,P3,50,Pin_50*%
X197040000Y-225540000D03*
%TD*%
D11*
%TO.P,P1,1,Pin_1*%
%TO.N,VCC*%
X108000000Y-223000000D03*
D12*
%TO.P,P1,2,Pin_2*%
X108000000Y-225540000D03*
%TO.P,P1,3,Pin_3*%
%TO.N,~{RD}*%
X105460000Y-223000000D03*
%TO.P,P1,4,Pin_4*%
%TO.N,/bus/E*%
X105460000Y-225540000D03*
%TO.P,P1,5,Pin_5*%
%TO.N,~{WR}*%
X102920000Y-223000000D03*
%TO.P,P1,6,Pin_6*%
%TO.N,/bus/ST*%
X102920000Y-225540000D03*
%TO.P,P1,7,Pin_7*%
%TO.N,~{IORQ}*%
X100380000Y-223000000D03*
%TO.P,P1,8,Pin_8*%
%TO.N,/bus/PHI*%
X100380000Y-225540000D03*
%TO.P,P1,9,Pin_9*%
%TO.N,/bus/~{MREQ}*%
X97840000Y-223000000D03*
%TO.P,P1,10,Pin_10*%
%TO.N,/bus/~{INT2}*%
X97840000Y-225540000D03*
%TO.P,P1,11,Pin_11*%
%TO.N,~{M1}*%
X95300000Y-223000000D03*
%TO.P,P1,12,Pin_12*%
%TO.N,/bus/~{INT1}*%
X95300000Y-225540000D03*
%TO.P,P1,13,Pin_13*%
%TO.N,/bus/~{BUSACK}*%
X92760000Y-223000000D03*
%TO.P,P1,14,Pin_14*%
%TO.N,/bus/CRUCLK*%
X92760000Y-225540000D03*
%TO.P,P1,15,Pin_15*%
%TO.N,CLK*%
X90220000Y-223000000D03*
%TO.P,P1,16,Pin_16*%
%TO.N,/bus/CRUOUT*%
X90220000Y-225540000D03*
%TO.P,P1,17,Pin_17*%
%TO.N,~{INT0}*%
X87680000Y-223000000D03*
%TO.P,P1,18,Pin_18*%
%TO.N,/bus/CRUIN*%
X87680000Y-225540000D03*
%TO.P,P1,19,Pin_19*%
%TO.N,/bus/~{NMI}*%
X85140000Y-223000000D03*
%TO.P,P1,20,Pin_20*%
%TO.N,~{RES_IN}*%
X85140000Y-225540000D03*
%TO.P,P1,21,Pin_21*%
%TO.N,~{RES_OUT}*%
X82600000Y-223000000D03*
%TO.P,P1,22,Pin_22*%
%TO.N,/bus/USER8*%
X82600000Y-225540000D03*
%TO.P,P1,23,Pin_23*%
%TO.N,/bus/~{BUSRQ}*%
X80060000Y-223000000D03*
%TO.P,P1,24,Pin_24*%
%TO.N,/bus/USER7*%
X80060000Y-225540000D03*
%TO.P,P1,25,Pin_25*%
%TO.N,~{WAIT}*%
X77520000Y-223000000D03*
%TO.P,P1,26,Pin_26*%
%TO.N,/bus/USER6*%
X77520000Y-225540000D03*
%TO.P,P1,27,Pin_27*%
%TO.N,/bus/~{HALT}*%
X74980000Y-223000000D03*
%TO.P,P1,28,Pin_28*%
%TO.N,/bus/USER5*%
X74980000Y-225540000D03*
%TO.P,P1,29,Pin_29*%
%TO.N,/bus/~{RFSH}*%
X72440000Y-223000000D03*
%TO.P,P1,30,Pin_30*%
%TO.N,/bus/USER4*%
X72440000Y-225540000D03*
%TO.P,P1,31,Pin_31*%
%TO.N,~{EIRQ7}*%
X69900000Y-223000000D03*
%TO.P,P1,32,Pin_32*%
%TO.N,/bus/USER3*%
X69900000Y-225540000D03*
%TO.P,P1,33,Pin_33*%
%TO.N,~{EIRQ6}*%
X67360000Y-223000000D03*
%TO.P,P1,34,Pin_34*%
%TO.N,/bus/USER2*%
X67360000Y-225540000D03*
%TO.P,P1,35,Pin_35*%
%TO.N,~{EIRQ5}*%
X64820000Y-223000000D03*
%TO.P,P1,36,Pin_36*%
%TO.N,/bus/USER1*%
X64820000Y-225540000D03*
%TO.P,P1,37,Pin_37*%
%TO.N,~{EIRQ4}*%
X62280000Y-223000000D03*
%TO.P,P1,38,Pin_38*%
%TO.N,/bus/USER0*%
X62280000Y-225540000D03*
%TO.P,P1,39,Pin_39*%
%TO.N,~{EIRQ3}*%
X59740000Y-223000000D03*
%TO.P,P1,40,Pin_40*%
%TO.N,~{BAI}*%
X59740000Y-225540000D03*
%TO.P,P1,41,Pin_41*%
%TO.N,~{EIRQ2}*%
X57200000Y-223000000D03*
%TO.P,P1,42,Pin_42*%
%TO.N,~{BAO}*%
X57200000Y-225540000D03*
%TO.P,P1,43,Pin_43*%
%TO.N,~{EIRQ1}*%
X54660000Y-223000000D03*
%TO.P,P1,44,Pin_44*%
%TO.N,~{IEI}*%
X54660000Y-225540000D03*
%TO.P,P1,45,Pin_45*%
%TO.N,~{EIRQ0}*%
X52120000Y-223000000D03*
%TO.P,P1,46,Pin_46*%
%TO.N,~{IEO}*%
X52120000Y-225540000D03*
%TO.P,P1,47,Pin_47*%
%TO.N,/bus/I2C_SCL*%
X49580000Y-223000000D03*
%TO.P,P1,48,Pin_48*%
%TO.N,/bus/I2C_SDA*%
X49580000Y-225540000D03*
%TO.P,P1,49,Pin_49*%
%TO.N,GND*%
X47040000Y-223000000D03*
%TO.P,P1,50,Pin_50*%
X47040000Y-225540000D03*
%TD*%
D13*
%TO.P,Q1,1,E*%
%TO.N,VCC*%
X245480000Y-175510000D03*
D14*
%TO.P,Q1,2,B*%
%TO.N,Net-(JP12-Pad2)*%
X246750000Y-173440000D03*
%TO.P,Q1,3,C*%
%TO.N,Net-(Q1-Pad3)*%
X248020000Y-175510000D03*
%TD*%
D15*
%TO.P,J12,R*%
%TO.N,/Amplifier/R-CH*%
X177300000Y-83600000D03*
%TO.P,J12,S*%
%TO.N,GND*%
X175300000Y-75700000D03*
%TO.P,J12,T*%
%TO.N,L-CH*%
X177300000Y-78100000D03*
%TD*%
D16*
%TO.P,C60,1*%
%TO.N,Net-(C60-Pad1)*%
X252317600Y-123170000D03*
D17*
%TO.P,C60,2*%
%TO.N,/VDP/LUMA*%
X254817600Y-123170000D03*
%TD*%
%TO.P,C34,1*%
%TO.N,GND*%
X145110000Y-108230000D03*
%TO.P,C34,2*%
%TO.N,/Amplifier/AMPPWR*%
X145110000Y-103230000D03*
%TD*%
%TO.P,C43,1*%
%TO.N,/VDP/RED*%
X223250000Y-159670000D03*
%TO.P,C43,2*%
%TO.N,Net-(C43-Pad2)*%
X223250000Y-154670000D03*
%TD*%
D18*
%TO.P,SW1,1,Pin_1*%
%TO.N,Net-(RN1-Pad2)*%
X178125000Y-195475000D03*
D19*
%TO.P,SW1,2,Pin_2*%
%TO.N,ZERO*%
X178125000Y-192935000D03*
%TO.P,SW1,3,Pin_3*%
%TO.N,Net-(RN1-Pad3)*%
X180665000Y-195475000D03*
%TO.P,SW1,4,Pin_4*%
%TO.N,ZERO*%
X180665000Y-192935000D03*
%TO.P,SW1,5,Pin_5*%
%TO.N,Net-(RN1-Pad4)*%
X183205000Y-195475000D03*
%TO.P,SW1,6,Pin_6*%
%TO.N,ZERO*%
X183205000Y-192935000D03*
%TO.P,SW1,7,Pin_7*%
%TO.N,Net-(RN1-Pad5)*%
X185745000Y-195475000D03*
%TO.P,SW1,8,Pin_8*%
%TO.N,ZERO*%
X185745000Y-192935000D03*
%TO.P,SW1,9,Pin_9*%
%TO.N,Net-(RN1-Pad6)*%
X188285000Y-195475000D03*
%TO.P,SW1,10,Pin_10*%
%TO.N,ZERO*%
X188285000Y-192935000D03*
%TD*%
D16*
%TO.P,U17,1,~{A}*%
%TO.N,~{CS_ACR}*%
X152125000Y-200800000D03*
D20*
%TO.P,U17,2,B*%
%TO.N,ONE*%
X154665000Y-200800000D03*
%TO.P,U17,3,~{CLR}*%
X157205000Y-200800000D03*
%TO.P,U17,4,~{Q}*%
%TO.N,unconnected-(U17-Pad4)*%
X159745000Y-200800000D03*
%TO.P,U17,5,Q*%
%TO.N,/PSG/PWA2*%
X162285000Y-200800000D03*
%TO.P,U17,6,Cext*%
%TO.N,Net-(C85-Pad2)*%
X164825000Y-200800000D03*
%TO.P,U17,7,RCext*%
%TO.N,Net-(C85-Pad1)*%
X167365000Y-200800000D03*
%TO.P,U17,8,GND*%
%TO.N,GND*%
X169905000Y-200800000D03*
%TO.P,U17,9,~{A}*%
%TO.N,~{CS_ACR}*%
X169905000Y-193180000D03*
%TO.P,U17,10,B*%
%TO.N,ONE*%
X167365000Y-193180000D03*
%TO.P,U17,11,~{CLR}*%
X164825000Y-193180000D03*
%TO.P,U17,12,~{Q}*%
%TO.N,unconnected-(U17-Pad12)*%
X162285000Y-193180000D03*
%TO.P,U17,13,Q*%
%TO.N,/PSG/PWA1*%
X159745000Y-193180000D03*
%TO.P,U17,14,Cext*%
%TO.N,Net-(C84-Pad2)*%
X157205000Y-193180000D03*
%TO.P,U17,15,RCext*%
%TO.N,Net-(C84-Pad1)*%
X154665000Y-193180000D03*
%TO.P,U17,16,VCC*%
%TO.N,VCC*%
X152125000Y-193180000D03*
%TD*%
D16*
%TO.P,C59,1*%
%TO.N,Net-(C59-Pad1)*%
X245135200Y-123170000D03*
D17*
%TO.P,C59,2*%
%TO.N,/VDP/COMP*%
X247635200Y-123170000D03*
%TD*%
D18*
%TO.P,JP9,1,A*%
%TO.N,L-CH*%
X104580000Y-87970000D03*
D19*
%TO.P,JP9,2,B*%
%TO.N,Net-(JP9-Pad2)*%
X104580000Y-90510000D03*
%TD*%
D17*
%TO.P,C17,1*%
%TO.N,VCCVDP*%
X158500000Y-174600000D03*
%TO.P,C17,2*%
%TO.N,GND*%
X163500000Y-174600000D03*
%TD*%
%TO.P,C5,1*%
%TO.N,VCC*%
X180250000Y-109250000D03*
%TO.P,C5,2*%
%TO.N,GND*%
X180250000Y-114250000D03*
%TD*%
D18*
%TO.P,JP4,1,A*%
%TO.N,GND*%
X132100000Y-139425000D03*
D19*
%TO.P,JP4,2,B*%
%TO.N,Net-(JP4-Pad2)*%
X132100000Y-141965000D03*
%TD*%
D16*
%TO.P,C8,1*%
%TO.N,VCCVDP*%
X176100000Y-174600000D03*
D17*
%TO.P,C8,2*%
%TO.N,GND*%
X178600000Y-174600000D03*
%TD*%
%TO.P,R17,1*%
%TO.N,Net-(C60-Pad1)*%
X247250000Y-129610000D03*
D20*
%TO.P,R17,2*%
%TO.N,Net-(R17-Pad2)*%
X247250000Y-137230000D03*
%TD*%
D18*
%TO.P,JP2,1,A*%
%TO.N,Net-(JP2-Pad1)*%
X50275000Y-188750000D03*
D19*
%TO.P,JP2,2,B*%
%TO.N,~{WAIT}*%
X52815000Y-188750000D03*
%TD*%
D17*
%TO.P,R23,1*%
%TO.N,Net-(C53-Pad1)*%
X148000000Y-140500000D03*
D20*
%TO.P,R23,2*%
%TO.N,Net-(C52-Pad1)*%
X148000000Y-148120000D03*
%TD*%
D17*
%TO.P,R30,1*%
%TO.N,Net-(C38-Pad1)*%
X109900000Y-112700000D03*
D20*
%TO.P,R30,2*%
%TO.N,Net-(C46-Pad1)*%
X117520000Y-112700000D03*
%TD*%
D17*
%TO.P,C85,1*%
%TO.N,Net-(C85-Pad1)*%
X161900000Y-184400000D03*
%TO.P,C85,2*%
%TO.N,Net-(C85-Pad2)*%
X166900000Y-184400000D03*
%TD*%
%TO.P,R16,1*%
%TO.N,Net-(C59-Pad1)*%
X241250000Y-129610000D03*
D20*
%TO.P,R16,2*%
%TO.N,Net-(R16-Pad2)*%
X241250000Y-137230000D03*
%TD*%
D17*
%TO.P,C80,1*%
%TO.N,GND*%
X97350000Y-131950000D03*
%TO.P,C80,2*%
%TO.N,Net-(C80-Pad2)*%
X92350000Y-131950000D03*
%TD*%
D21*
%TO.P,LS1,1,1*%
%TO.N,Net-(JP9-Pad2)*%
X78210000Y-86800000D03*
D22*
%TO.P,LS1,2,2*%
%TO.N,GND*%
X93210000Y-86800000D03*
%TD*%
D16*
%TO.P,C61,1*%
%TO.N,Net-(C61-Pad1)*%
X259567600Y-123170000D03*
D17*
%TO.P,C61,2*%
%TO.N,/VDP/CHROMA*%
X262067600Y-123170000D03*
%TD*%
%TO.P,R15,1*%
%TO.N,Net-(C58-Pad1)*%
X235250000Y-129610000D03*
D20*
%TO.P,R15,2*%
%TO.N,Net-(R15-Pad2)*%
X235250000Y-137230000D03*
%TD*%
D17*
%TO.P,R22,1*%
%TO.N,Net-(C4-Pad1)*%
X189940000Y-102250000D03*
D20*
%TO.P,R22,2*%
%TO.N,GND*%
X197560000Y-102250000D03*
%TD*%
D16*
%TO.P,U1,1,I1/CLK*%
%TO.N,unconnected-(U1-Pad1)*%
X104750000Y-213000000D03*
D20*
%TO.P,U1,2,I2*%
%TO.N,~{bWR}*%
X107290000Y-213000000D03*
%TO.P,U1,3,I3*%
%TO.N,~{CS_MEDIA}*%
X109830000Y-213000000D03*
%TO.P,U1,4,I4*%
%TO.N,~{bRD}*%
X112370000Y-213000000D03*
%TO.P,U1,5,I5*%
%TO.N,bA2*%
X114910000Y-213000000D03*
%TO.P,U1,6,I6*%
%TO.N,bA0*%
X117450000Y-213000000D03*
%TO.P,U1,7,I7*%
%TO.N,bA1*%
X119990000Y-213000000D03*
%TO.P,U1,8,I8*%
%TO.N,unconnected-(U1-Pad8)*%
X122530000Y-213000000D03*
%TO.P,U1,9,I9*%
%TO.N,unconnected-(U1-Pad9)*%
X125070000Y-213000000D03*
%TO.P,U1,10,GND*%
%TO.N,GND*%
X127610000Y-213000000D03*
%TO.P,U1,11,I10/~{OE}*%
%TO.N,unconnected-(U1-Pad11)*%
X127610000Y-205380000D03*
%TO.P,U1,12,IO8*%
%TO.N,unconnected-(U1-Pad12)*%
X125070000Y-205380000D03*
%TO.P,U1,13,IO7*%
%TO.N,unconnected-(U1-Pad13)*%
X122530000Y-205380000D03*
%TO.P,U1,14,IO6*%
%TO.N,~{CS_ACR}*%
X119990000Y-205380000D03*
%TO.P,U1,15,IO5*%
%TO.N,~{CS_ACR_WR}*%
X117450000Y-205380000D03*
%TO.P,U1,16,IO4*%
%TO.N,~{CS_PSG_A0}*%
X114910000Y-205380000D03*
%TO.P,U1,17,I03*%
%TO.N,~{CS_PSG_WR}*%
X112370000Y-205380000D03*
%TO.P,U1,18,IO2*%
%TO.N,~{VDP_RD}*%
X109830000Y-205380000D03*
%TO.P,U1,19,IO1*%
%TO.N,~{VDP_WR}*%
X107290000Y-205380000D03*
%TO.P,U1,20,VCC*%
%TO.N,VCC*%
X104750000Y-205380000D03*
%TD*%
D18*
%TO.P,JP8,1,A*%
%TO.N,VCC*%
X186725000Y-218250000D03*
D19*
%TO.P,JP8,2,C*%
%TO.N,/Amplifier/AMPPWR*%
X189265000Y-218250000D03*
%TO.P,JP8,3,B*%
%TO.N,+12V*%
X191805000Y-218250000D03*
%TD*%
D16*
%TO.P,U4,1*%
%TO.N,Net-(U24-Pad8)*%
X47675000Y-200800000D03*
D20*
%TO.P,U4,2*%
%TO.N,Net-(JP2-Pad1)*%
X50215000Y-200800000D03*
%TO.P,U4,3*%
%TO.N,/ACR/STATUS-VDP*%
X52755000Y-200800000D03*
%TO.P,U4,4*%
%TO.N,Net-(D2-Pad1)*%
X55295000Y-200800000D03*
%TO.P,U4,5*%
%TO.N,Net-(R24-Pad1)*%
X57835000Y-200800000D03*
%TO.P,U4,6*%
%TO.N,Net-(J7-Pad1)*%
X60375000Y-200800000D03*
%TO.P,U4,7,GND*%
%TO.N,GND*%
X62915000Y-200800000D03*
%TO.P,U4,8*%
%TO.N,Net-(R24-Pad1)*%
X62915000Y-193180000D03*
%TO.P,U4,9*%
%TO.N,~{VINT}*%
X60375000Y-193180000D03*
%TO.P,U4,10*%
%TO.N,Net-(D4-Pad1)*%
X57835000Y-193180000D03*
%TO.P,U4,11*%
%TO.N,/ACR/STATUS-PSG*%
X55295000Y-193180000D03*
%TO.P,U4,12*%
%TO.N,unconnected-(U4-Pad12)*%
X52755000Y-193180000D03*
%TO.P,U4,13*%
%TO.N,unconnected-(U4-Pad13)*%
X50215000Y-193180000D03*
%TO.P,U4,14,VCC*%
%TO.N,VCC*%
X47675000Y-193180000D03*
%TD*%
D17*
%TO.P,L1,1*%
%TO.N,Net-(C51-Pad2)*%
X258750000Y-164830000D03*
D20*
%TO.P,L1,2*%
%TO.N,GND*%
X258750000Y-154670000D03*
%TD*%
D18*
%TO.P,P8,1,Pin_1*%
%TO.N,Net-(P8-Pad1)*%
X75925000Y-188540000D03*
D19*
%TO.P,P8,2,Pin_2*%
%TO.N,Net-(P8-Pad2)*%
X75925000Y-186000000D03*
%TO.P,P8,3,Pin_3*%
%TO.N,Net-(P8-Pad1)*%
X78465000Y-188540000D03*
%TO.P,P8,4,Pin_4*%
%TO.N,Net-(P8-Pad4)*%
X78465000Y-186000000D03*
%TO.P,P8,5,Pin_5*%
%TO.N,Net-(P8-Pad5)*%
X81005000Y-188540000D03*
%TO.P,P8,6,Pin_6*%
%TO.N,/PSG/CLK_AY3*%
X81005000Y-186000000D03*
%TO.P,P8,7,Pin_7*%
%TO.N,Net-(P8-Pad7)*%
X83545000Y-188540000D03*
%TO.P,P8,8,Pin_8*%
X83545000Y-186000000D03*
%TO.P,P8,9,Pin_9*%
%TO.N,Net-(P8-Pad9)*%
X86085000Y-188540000D03*
%TO.P,P8,10,Pin_10*%
%TO.N,Net-(P8-Pad10)*%
X86085000Y-186000000D03*
%TD*%
D23*
%TO.P,NT2,1,1*%
%TO.N,GND*%
X120650000Y-192750000D03*
%TO.P,NT2,2,2*%
%TO.N,ZERO*%
X121850000Y-192750000D03*
%TD*%
D18*
%TO.P,J8,1,Pin_1*%
%TO.N,VCC*%
X148175000Y-89290000D03*
D19*
%TO.P,J8,2,Pin_2*%
%TO.N,Net-(J8-Pad2)*%
X150715000Y-89290000D03*
%TO.P,J8,3,Pin_3*%
%TO.N,/PSG/JOYBG*%
X153255000Y-89290000D03*
%TD*%
D17*
%TO.P,R3,1*%
%TO.N,GND*%
X213940000Y-99500000D03*
D20*
%TO.P,R3,2*%
%TO.N,/VDP/YS*%
X221560000Y-99500000D03*
%TD*%
D17*
%TO.P,C66,1*%
%TO.N,VCC*%
X217750000Y-139500000D03*
%TO.P,C66,2*%
%TO.N,GND*%
X217750000Y-134500000D03*
%TD*%
D16*
%TO.P,U7,1,OE*%
%TO.N,ZERO*%
X192850000Y-139550000D03*
D20*
%TO.P,U7,2,IO1*%
%TO.N,/VDP/VD0*%
X195390000Y-139550000D03*
%TO.P,U7,3,IO2*%
%TO.N,/VDP/VD1*%
X197930000Y-139550000D03*
%TO.P,U7,4,WE*%
%TO.N,/VDP/~{VRW}*%
X200470000Y-139550000D03*
%TO.P,U7,5,RAS*%
%TO.N,/VDP/~{RAS}*%
X203010000Y-139550000D03*
%TO.P,U7,6,A6*%
%TO.N,/VDP/AD6*%
X205550000Y-139550000D03*
%TO.P,U7,7,A5*%
%TO.N,/VDP/AD5*%
X208090000Y-139550000D03*
%TO.P,U7,8,A4*%
%TO.N,/VDP/AD4*%
X210630000Y-139550000D03*
%TO.P,U7,9,VCC*%
%TO.N,VCC*%
X213170000Y-139550000D03*
%TO.P,U7,10,A7*%
%TO.N,/VDP/AD7*%
X213170000Y-131930000D03*
%TO.P,U7,11,A3*%
%TO.N,/VDP/AD3*%
X210630000Y-131930000D03*
%TO.P,U7,12,A2*%
%TO.N,/VDP/AD2*%
X208090000Y-131930000D03*
%TO.P,U7,13,A1*%
%TO.N,/VDP/AD1*%
X205550000Y-131930000D03*
%TO.P,U7,14,A0*%
%TO.N,/VDP/AD0*%
X203010000Y-131930000D03*
%TO.P,U7,15,IO3*%
%TO.N,/VDP/VD2*%
X200470000Y-131930000D03*
%TO.P,U7,16,CAS*%
%TO.N,/VDP/~{CAS0}*%
X197930000Y-131930000D03*
%TO.P,U7,17,IO4*%
%TO.N,/VDP/VD3*%
X195390000Y-131930000D03*
%TO.P,U7,18,GND*%
%TO.N,GND*%
X192850000Y-131930000D03*
%TD*%
D18*
%TO.P,JP6,1,A*%
%TO.N,/VDP/~{HSYNC}*%
X180225000Y-168000000D03*
D19*
%TO.P,JP6,2,B*%
%TO.N,ZERO*%
X182765000Y-168000000D03*
%TD*%
D24*
%TO.P,D1,1,K*%
%TO.N,GND*%
X49050000Y-81100000D03*
D25*
%TO.P,D1,2,A*%
%TO.N,Net-(D1-Pad2)*%
X46510000Y-81100000D03*
%TD*%
D17*
%TO.P,R2,1*%
%TO.N,GND*%
X213940000Y-93500000D03*
D20*
%TO.P,R2,2*%
%TO.N,/VDP/AV*%
X221560000Y-93500000D03*
%TD*%
D17*
%TO.P,C48,1*%
%TO.N,VCCRGB*%
X252100000Y-183000000D03*
%TO.P,C48,2*%
%TO.N,GND*%
X247100000Y-183000000D03*
%TD*%
%TO.P,R5,1*%
%TO.N,GND*%
X223250000Y-177060000D03*
D20*
%TO.P,R5,2*%
%TO.N,/VDP/RED*%
X223250000Y-169440000D03*
%TD*%
D17*
%TO.P,R39,1*%
%TO.N,VCC*%
X135590000Y-189000000D03*
D20*
%TO.P,R39,2*%
%TO.N,Net-(C84-Pad2)*%
X143210000Y-189000000D03*
%TD*%
D18*
%TO.P,P13,1,Pin_1*%
%TO.N,Net-(P13-Pad1)*%
X173175000Y-184775000D03*
D19*
%TO.P,P13,2,Pin_2*%
%TO.N,/VDP/VSYNC*%
X173175000Y-182235000D03*
%TO.P,P13,3,Pin_3*%
%TO.N,/VDP/VGA-HSYNC*%
X175715000Y-184775000D03*
%TO.P,P13,4,Pin_4*%
%TO.N,/VDP/VGA-VSYNC*%
X175715000Y-182235000D03*
%TO.P,P13,5,Pin_5*%
%TO.N,/VDP/~{HSYNC}*%
X178255000Y-184775000D03*
%TO.P,P13,6,Pin_6*%
%TO.N,/VDP/~{VSYNC}*%
X178255000Y-182235000D03*
%TD*%
D16*
%TO.P,U5,1,GND*%
%TO.N,GND*%
X224275000Y-151270000D03*
D20*
%TO.P,U5,2,RIN*%
%TO.N,Net-(C43-Pad2)*%
X226815000Y-151270000D03*
%TO.P,U5,3,GIN*%
%TO.N,Net-(C44-Pad2)*%
X229355000Y-151270000D03*
%TO.P,U5,4,BIN*%
%TO.N,Net-(C45-Pad2)*%
X231895000Y-151270000D03*
%TO.P,U5,5,NC*%
%TO.N,unconnected-(U5-Pad5)*%
X234435000Y-151270000D03*
%TO.P,U5,6,SCIN*%
%TO.N,Net-(C49-Pad1)*%
X236975000Y-151270000D03*
%TO.P,U5,7,NTSC/~{PAL}*%
%TO.N,VCC*%
X239515000Y-151270000D03*
%TO.P,U5,8,BFOUT*%
%TO.N,unconnected-(U5-Pad8)*%
X242055000Y-151270000D03*
%TO.P,U5,9,YCLPC*%
%TO.N,Net-(C50-Pad1)*%
X244595000Y-151270000D03*
%TO.P,U5,10,SYNCIN*%
%TO.N,/VDP/SYNCIN*%
X247135000Y-151270000D03*
%TO.P,U5,11,NC*%
%TO.N,unconnected-(U5-Pad11)*%
X249675000Y-151270000D03*
%TO.P,U5,12,VCC*%
%TO.N,VCCRGB*%
X252215000Y-151270000D03*
%TO.P,U5,13,IREF*%
%TO.N,Net-(C55-Pad1)*%
X252215000Y-141110000D03*
%TO.P,U5,14,VREF*%
%TO.N,Net-(C54-Pad1)*%
X249675000Y-141110000D03*
%TO.P,U5,15,COUT*%
%TO.N,Net-(R18-Pad2)*%
X247135000Y-141110000D03*
%TO.P,U5,16,YOUT*%
%TO.N,Net-(R17-Pad2)*%
X244595000Y-141110000D03*
%TO.P,U5,17,YTRAP*%
%TO.N,Net-(C51-Pad1)*%
X242055000Y-141110000D03*
%TO.P,U5,18,FO*%
%TO.N,Net-(R11-Pad1)*%
X239515000Y-141110000D03*
%TO.P,U5,19,VCC*%
%TO.N,VCCRGB*%
X236975000Y-141110000D03*
%TO.P,U5,20,CVOUT*%
%TO.N,Net-(R16-Pad2)*%
X234435000Y-141110000D03*
%TO.P,U5,21,BOUT*%
%TO.N,Net-(R15-Pad2)*%
X231895000Y-141110000D03*
%TO.P,U5,22,GOUT*%
%TO.N,Net-(R14-Pad2)*%
X229355000Y-141110000D03*
%TO.P,U5,23,ROUT*%
%TO.N,Net-(R13-Pad2)*%
X226815000Y-141110000D03*
%TO.P,U5,24,GND*%
%TO.N,GND*%
X224275000Y-141110000D03*
%TD*%
D17*
%TO.P,R24,1*%
%TO.N,Net-(R24-Pad1)*%
X55990000Y-188750000D03*
D20*
%TO.P,R24,2*%
%TO.N,VCC*%
X63610000Y-188750000D03*
%TD*%
D26*
%TO.P,J14,1*%
%TO.N,GND*%
X185600000Y-78750000D03*
%TO.P,J14,2*%
X192400000Y-78750000D03*
%TO.P,J14,3*%
%TO.N,/VDP/LUMA*%
X185600000Y-81250000D03*
%TO.P,J14,4*%
%TO.N,/VDP/CHROMA*%
X192400000Y-81250000D03*
D27*
%TO.P,J14,~*%
%TO.N,N/C*%
X195750000Y-75750000D03*
X182250000Y-75750000D03*
X189000000Y-74950000D03*
%TD*%
D17*
%TO.P,R38,1*%
%TO.N,Net-(P8-Pad1)*%
X110100000Y-143700000D03*
D20*
%TO.P,R38,2*%
%TO.N,Net-(C81-Pad1)*%
X110100000Y-136080000D03*
%TD*%
D17*
%TO.P,R41,1*%
%TO.N,/PSG/POTA1*%
X145590000Y-189000000D03*
D20*
%TO.P,R41,2*%
%TO.N,Net-(C84-Pad2)*%
X153210000Y-189000000D03*
%TD*%
D17*
%TO.P,C79,1*%
%TO.N,VCC*%
X95400000Y-195900000D03*
%TO.P,C79,2*%
%TO.N,GND*%
X95400000Y-200900000D03*
%TD*%
D16*
%TO.P,C57,1*%
%TO.N,Net-(C57-Pad1)*%
X230612900Y-123170000D03*
D17*
%TO.P,C57,2*%
%TO.N,/VDP/GOUT*%
X233112900Y-123170000D03*
%TD*%
%TO.P,C15,1*%
%TO.N,VCC*%
X67000000Y-207500000D03*
%TO.P,C15,2*%
%TO.N,GND*%
X67000000Y-212500000D03*
%TD*%
%TO.P,C30,1*%
%TO.N,VCCVDP*%
X186300200Y-174600000D03*
%TO.P,C30,2*%
%TO.N,GND*%
X181300200Y-174600000D03*
%TD*%
D16*
%TO.P,U20,1,GND*%
%TO.N,GND*%
X92725000Y-162075000D03*
D20*
%TO.P,U20,2,NC2*%
%TO.N,unconnected-(U20-Pad2)*%
X95265000Y-162075000D03*
%TO.P,U20,3,OUTB*%
%TO.N,Net-(P8-Pad1)*%
X97805000Y-162075000D03*
%TO.P,U20,4,OUTA*%
%TO.N,Net-(P8-Pad4)*%
X100345000Y-162075000D03*
%TO.P,U20,5,NC5*%
%TO.N,unconnected-(U20-Pad5)*%
X102885000Y-162075000D03*
%TO.P,U20,6,IOB7*%
%TO.N,/PSG/SPAREB*%
X105425000Y-162075000D03*
%TO.P,U20,7,IOB6*%
%TO.N,/PSG/JOYBH*%
X107965000Y-162075000D03*
%TO.P,U20,8,IOB5*%
%TO.N,/PSG/JOYBG*%
X110505000Y-162075000D03*
%TO.P,U20,9,IOB4*%
%TO.N,/PSG/JOYBF*%
X113045000Y-162075000D03*
%TO.P,U20,10,IOB3*%
%TO.N,/PSG/JOYBR*%
X115585000Y-162075000D03*
%TO.P,U20,11,IOB2*%
%TO.N,/PSG/JOYBL*%
X118125000Y-162075000D03*
%TO.P,U20,12,IOB1*%
%TO.N,/PSG/JOYBD*%
X120665000Y-162075000D03*
%TO.P,U20,13,IOB0*%
%TO.N,/PSG/JOYBU*%
X123205000Y-162075000D03*
%TO.P,U20,14,IOA7*%
%TO.N,/PSG/SPAREA*%
X125745000Y-162075000D03*
%TO.P,U20,15,IOA6*%
%TO.N,/PSG/PWA2*%
X128285000Y-162075000D03*
%TO.P,U20,16,IOA5*%
%TO.N,/PSG/PWA1*%
X130825000Y-162075000D03*
%TO.P,U20,17,IOA4*%
%TO.N,/PSG/JOYAF*%
X133365000Y-162075000D03*
%TO.P,U20,18,IOA3*%
%TO.N,/PSG/JOYAR*%
X135905000Y-162075000D03*
%TO.P,U20,19,IOA2*%
%TO.N,/PSG/JOYAL*%
X138445000Y-162075000D03*
%TO.P,U20,20,IOA1*%
%TO.N,/PSG/JOYAD*%
X140985000Y-162075000D03*
%TO.P,U20,21,IOA0*%
%TO.N,/PSG/JOYAU*%
X140985000Y-146835000D03*
%TO.P,U20,22,CLOCK*%
%TO.N,Net-(P8-Pad7)*%
X138445000Y-146835000D03*
%TO.P,U20,23,RESET*%
%TO.N,~{RESAY3}*%
X135905000Y-146835000D03*
%TO.P,U20,24,A9*%
%TO.N,ZERO*%
X133365000Y-146835000D03*
%TO.P,U20,25,A8*%
%TO.N,ONE*%
X130825000Y-146835000D03*
%TO.P,U20,26,TEST2*%
%TO.N,Net-(JP4-Pad2)*%
X128285000Y-146835000D03*
%TO.P,U20,27,BDIR*%
%TO.N,~{CS_PSG_WR}*%
X125745000Y-146835000D03*
%TO.P,U20,28,BC2*%
%TO.N,ONE*%
X123205000Y-146835000D03*
%TO.P,U20,29,BC1*%
%TO.N,~{CS_PSG_A0}*%
X120665000Y-146835000D03*
%TO.P,U20,30,D7*%
%TO.N,bD7*%
X118125000Y-146835000D03*
%TO.P,U20,31,D6*%
%TO.N,bD6*%
X115585000Y-146835000D03*
%TO.P,U20,32,D5*%
%TO.N,bD5*%
X113045000Y-146835000D03*
%TO.P,U20,33,D4*%
%TO.N,bD4*%
X110505000Y-146835000D03*
%TO.P,U20,34,D3*%
%TO.N,bD3*%
X107965000Y-146835000D03*
%TO.P,U20,35,D2*%
%TO.N,bD2*%
X105425000Y-146835000D03*
%TO.P,U20,36,D1*%
%TO.N,bD1*%
X102885000Y-146835000D03*
%TO.P,U20,37,D0*%
%TO.N,bD0*%
X100345000Y-146835000D03*
%TO.P,U20,38,OUTC*%
%TO.N,Net-(P8-Pad2)*%
X97805000Y-146835000D03*
%TO.P,U20,39,TEST1*%
%TO.N,unconnected-(U20-Pad39)*%
X95265000Y-146835000D03*
%TO.P,U20,40,VCC*%
%TO.N,VCC*%
X92725000Y-146835000D03*
%TD*%
D18*
%TO.P,J3,1,Pin_1*%
%TO.N,Net-(J3-Pad1)*%
X126775000Y-183400000D03*
D19*
%TO.P,J3,2,Pin_2*%
%TO.N,/VDP/VGA-CSYNC*%
X129315000Y-183400000D03*
%TO.P,J3,3,Pin_3*%
%TO.N,/VDP/SYNCIN*%
X131855000Y-183400000D03*
%TD*%
D17*
%TO.P,C2,1*%
%TO.N,VCC*%
X147400000Y-195700000D03*
%TO.P,C2,2*%
%TO.N,GND*%
X147400000Y-200700000D03*
%TD*%
%TO.P,C12,1*%
%TO.N,VCC*%
X69065000Y-195900000D03*
%TO.P,C12,2*%
%TO.N,GND*%
X69065000Y-200900000D03*
%TD*%
D16*
%TO.P,U11,1,OE*%
%TO.N,ZERO*%
X161470000Y-127600000D03*
D20*
%TO.P,U11,2,IO1*%
%TO.N,/VDP/VD4*%
X164010000Y-127600000D03*
%TO.P,U11,3,IO2*%
%TO.N,/VDP/VD5*%
X166550000Y-127600000D03*
%TO.P,U11,4,WE*%
%TO.N,/VDP/~{VRW}*%
X169090000Y-127600000D03*
%TO.P,U11,5,RAS*%
%TO.N,/VDP/~{RAS}*%
X171630000Y-127600000D03*
%TO.P,U11,6,A6*%
%TO.N,/VDP/AD6*%
X174170000Y-127600000D03*
%TO.P,U11,7,A5*%
%TO.N,/VDP/AD5*%
X176710000Y-127600000D03*
%TO.P,U11,8,A4*%
%TO.N,/VDP/AD4*%
X179250000Y-127600000D03*
%TO.P,U11,9,VCC*%
%TO.N,VCC*%
X181790000Y-127600000D03*
%TO.P,U11,10,A7*%
%TO.N,/VDP/AD7*%
X181790000Y-119980000D03*
%TO.P,U11,11,A3*%
%TO.N,/VDP/AD3*%
X179250000Y-119980000D03*
%TO.P,U11,12,A2*%
%TO.N,/VDP/AD2*%
X176710000Y-119980000D03*
%TO.P,U11,13,A1*%
%TO.N,/VDP/AD1*%
X174170000Y-119980000D03*
%TO.P,U11,14,A0*%
%TO.N,/VDP/AD0*%
X171630000Y-119980000D03*
%TO.P,U11,15,IO3*%
%TO.N,/VDP/VD6*%
X169090000Y-119980000D03*
%TO.P,U11,16,CAS*%
%TO.N,/VDP/~{CAS1}*%
X166550000Y-119980000D03*
%TO.P,U11,17,IO4*%
%TO.N,/VDP/VD7*%
X164010000Y-119980000D03*
%TO.P,U11,18,GND*%
%TO.N,GND*%
X161470000Y-119980000D03*
%TD*%
D17*
%TO.P,R40,1*%
%TO.N,VCC*%
X165590000Y-189000000D03*
D20*
%TO.P,R40,2*%
%TO.N,Net-(C85-Pad2)*%
X173210000Y-189000000D03*
%TD*%
D17*
%TO.P,C49,1*%
%TO.N,Net-(C49-Pad1)*%
X238750000Y-166250000D03*
%TO.P,C49,2*%
%TO.N,GND*%
X243750000Y-166250000D03*
%TD*%
%TO.P,C51,1*%
%TO.N,Net-(C51-Pad1)*%
X252750000Y-154670000D03*
%TO.P,C51,2*%
%TO.N,Net-(C51-Pad2)*%
X252750000Y-159670000D03*
%TD*%
D18*
%TO.P,J4,1,Pin_1*%
%TO.N,/VDP/VGA-HSYNC*%
X209400000Y-104000000D03*
D19*
%TO.P,J4,2,Pin_2*%
%TO.N,Net-(J4-Pad2)*%
X209400000Y-106540000D03*
%TO.P,J4,3,Pin_3*%
%TO.N,/VDP/VGA-CSYNC*%
X209400000Y-109080000D03*
%TD*%
D16*
%TO.P,C21,1*%
%TO.N,VCC*%
X216400000Y-169400000D03*
D17*
%TO.P,C21,2*%
%TO.N,GND*%
X218900000Y-169400000D03*
%TD*%
D18*
%TO.P,JP13,1,A*%
%TO.N,Net-(J7-Pad1)*%
X72500000Y-219000000D03*
D19*
%TO.P,JP13,2,B*%
%TO.N,~{INT0}*%
X75040000Y-219000000D03*
%TD*%
D28*
%TO.P,X1,1,1*%
%TO.N,Net-(C52-Pad1)*%
X153750000Y-147700000D03*
%TO.P,X1,2,2*%
%TO.N,Net-(C53-Pad1)*%
X153750000Y-142820000D03*
%TD*%
D17*
%TO.P,C19,1*%
%TO.N,VCC*%
X87794900Y-151900000D03*
%TO.P,C19,2*%
%TO.N,GND*%
X87794900Y-156900000D03*
%TD*%
D16*
%TO.P,U10,1,OE*%
%TO.N,ZERO*%
X192850000Y-127750000D03*
D20*
%TO.P,U10,2,IO1*%
%TO.N,/VDP/VD0*%
X195390000Y-127750000D03*
%TO.P,U10,3,IO2*%
%TO.N,/VDP/VD1*%
X197930000Y-127750000D03*
%TO.P,U10,4,WE*%
%TO.N,/VDP/~{VRW}*%
X200470000Y-127750000D03*
%TO.P,U10,5,RAS*%
%TO.N,/VDP/~{RAS}*%
X203010000Y-127750000D03*
%TO.P,U10,6,A6*%
%TO.N,/VDP/AD6*%
X205550000Y-127750000D03*
%TO.P,U10,7,A5*%
%TO.N,/VDP/AD5*%
X208090000Y-127750000D03*
%TO.P,U10,8,A4*%
%TO.N,/VDP/AD4*%
X210630000Y-127750000D03*
%TO.P,U10,9,VCC*%
%TO.N,VCC*%
X213170000Y-127750000D03*
%TO.P,U10,10,A7*%
%TO.N,/VDP/AD7*%
X213170000Y-120130000D03*
%TO.P,U10,11,A3*%
%TO.N,/VDP/AD3*%
X210630000Y-120130000D03*
%TO.P,U10,12,A2*%
%TO.N,/VDP/AD2*%
X208090000Y-120130000D03*
%TO.P,U10,13,A1*%
%TO.N,/VDP/AD1*%
X205550000Y-120130000D03*
%TO.P,U10,14,A0*%
%TO.N,/VDP/AD0*%
X203010000Y-120130000D03*
%TO.P,U10,15,IO3*%
%TO.N,/VDP/VD2*%
X200470000Y-120130000D03*
%TO.P,U10,16,CAS*%
%TO.N,/VDP/~{CAS1}*%
X197930000Y-120130000D03*
%TO.P,U10,17,IO4*%
%TO.N,/VDP/VD3*%
X195390000Y-120130000D03*
%TO.P,U10,18,GND*%
%TO.N,GND*%
X192850000Y-120130000D03*
%TD*%
D16*
%TO.P,U8,1,OE*%
%TO.N,ZERO*%
X161310000Y-139770000D03*
D20*
%TO.P,U8,2,IO1*%
%TO.N,/VDP/VD4*%
X163850000Y-139770000D03*
%TO.P,U8,3,IO2*%
%TO.N,/VDP/VD5*%
X166390000Y-139770000D03*
%TO.P,U8,4,WE*%
%TO.N,/VDP/~{VRW}*%
X168930000Y-139770000D03*
%TO.P,U8,5,RAS*%
%TO.N,/VDP/~{RAS}*%
X171470000Y-139770000D03*
%TO.P,U8,6,A6*%
%TO.N,/VDP/AD6*%
X174010000Y-139770000D03*
%TO.P,U8,7,A5*%
%TO.N,/VDP/AD5*%
X176550000Y-139770000D03*
%TO.P,U8,8,A4*%
%TO.N,/VDP/AD4*%
X179090000Y-139770000D03*
%TO.P,U8,9,VCC*%
%TO.N,VCC*%
X181630000Y-139770000D03*
%TO.P,U8,10,A7*%
%TO.N,/VDP/AD7*%
X181630000Y-132150000D03*
%TO.P,U8,11,A3*%
%TO.N,/VDP/AD3*%
X179090000Y-132150000D03*
%TO.P,U8,12,A2*%
%TO.N,/VDP/AD2*%
X176550000Y-132150000D03*
%TO.P,U8,13,A1*%
%TO.N,/VDP/AD1*%
X174010000Y-132150000D03*
%TO.P,U8,14,A0*%
%TO.N,/VDP/AD0*%
X171470000Y-132150000D03*
%TO.P,U8,15,IO3*%
%TO.N,/VDP/VD6*%
X168930000Y-132150000D03*
%TO.P,U8,16,CAS*%
%TO.N,/VDP/~{CAS0}*%
X166390000Y-132150000D03*
%TO.P,U8,17,IO4*%
%TO.N,/VDP/VD7*%
X163850000Y-132150000D03*
%TO.P,U8,18,GND*%
%TO.N,GND*%
X161310000Y-132150000D03*
%TD*%
D16*
%TO.P,C56,1*%
%TO.N,Net-(C56-Pad1)*%
X223385200Y-123170000D03*
D17*
%TO.P,C56,2*%
%TO.N,/VDP/ROUT*%
X225885200Y-123170000D03*
%TD*%
%TO.P,C53,1*%
%TO.N,Net-(C53-Pad1)*%
X155500000Y-137500000D03*
%TO.P,C53,2*%
%TO.N,GND*%
X150500000Y-137500000D03*
%TD*%
D16*
%TO.P,C36,1*%
%TO.N,Net-(C36-Pad1)*%
X143949800Y-98980000D03*
D17*
%TO.P,C36,2*%
%TO.N,GND*%
X146449800Y-98980000D03*
%TD*%
D18*
%TO.P,P4,1,Pin_1*%
%TO.N,~{IEO}*%
X51200000Y-219000000D03*
D19*
%TO.P,P4,2,Pin_2*%
%TO.N,~{IEI}*%
X53740000Y-219000000D03*
%TO.P,P4,3,Pin_3*%
%TO.N,~{BAO}*%
X56280000Y-219000000D03*
%TO.P,P4,4,Pin_4*%
%TO.N,~{BAI}*%
X58820000Y-219000000D03*
%TD*%
D17*
%TO.P,R19,1*%
%TO.N,Net-(C55-Pad1)*%
X259250000Y-129750000D03*
D20*
%TO.P,R19,2*%
%TO.N,GND*%
X259250000Y-137370000D03*
%TD*%
D18*
%TO.P,J2,1,Pin_1*%
%TO.N,L-CH*%
X209400000Y-92775000D03*
D19*
%TO.P,J2,2,Pin_2*%
%TO.N,/VDP/AUDIO*%
X209400000Y-95315000D03*
%TO.P,J2,3,Pin_3*%
%TO.N,GND*%
X209400000Y-97855000D03*
%TD*%
D17*
%TO.P,R6,1*%
%TO.N,Net-(D2-Pad2)*%
X49490000Y-94100000D03*
D20*
%TO.P,R6,2*%
%TO.N,VCC*%
X57110000Y-94100000D03*
%TD*%
D17*
%TO.P,C6,1*%
%TO.N,VCC*%
X167500000Y-207750000D03*
%TO.P,C6,2*%
%TO.N,GND*%
X167500000Y-212750000D03*
%TD*%
D16*
%TO.P,U14,1,A->B*%
%TO.N,~{RD}*%
X205575000Y-212800000D03*
D20*
%TO.P,U14,2,A0*%
%TO.N,D0*%
X208115000Y-212800000D03*
%TO.P,U14,3,A1*%
%TO.N,D1*%
X210655000Y-212800000D03*
%TO.P,U14,4,A2*%
%TO.N,D2*%
X213195000Y-212800000D03*
%TO.P,U14,5,A3*%
%TO.N,D3*%
X215735000Y-212800000D03*
%TO.P,U14,6,A4*%
%TO.N,D4*%
X218275000Y-212800000D03*
%TO.P,U14,7,A5*%
%TO.N,D5*%
X220815000Y-212800000D03*
%TO.P,U14,8,A6*%
%TO.N,D6*%
X223355000Y-212800000D03*
%TO.P,U14,9,A7*%
%TO.N,D7*%
X225895000Y-212800000D03*
%TO.P,U14,10,GND*%
%TO.N,GND*%
X228435000Y-212800000D03*
%TO.P,U14,11,B7*%
%TO.N,bD7*%
X228435000Y-205180000D03*
%TO.P,U14,12,B6*%
%TO.N,bD6*%
X225895000Y-205180000D03*
%TO.P,U14,13,B5*%
%TO.N,bD5*%
X223355000Y-205180000D03*
%TO.P,U14,14,B4*%
%TO.N,bD4*%
X220815000Y-205180000D03*
%TO.P,U14,15,B3*%
%TO.N,bD3*%
X218275000Y-205180000D03*
%TO.P,U14,16,B2*%
%TO.N,bD2*%
X215735000Y-205180000D03*
%TO.P,U14,17,B1*%
%TO.N,bD1*%
X213195000Y-205180000D03*
%TO.P,U14,18,B0*%
%TO.N,bD0*%
X210655000Y-205180000D03*
%TO.P,U14,19,CE*%
%TO.N,~{CS_MEDIA}*%
X208115000Y-205180000D03*
%TO.P,U14,20,VCC*%
%TO.N,VCC*%
X205575000Y-205180000D03*
%TD*%
D17*
%TO.P,R7,1*%
%TO.N,GND*%
X252750000Y-169440000D03*
D20*
%TO.P,R7,2*%
%TO.N,Net-(Q1-Pad3)*%
X252750000Y-177060000D03*
%TD*%
D17*
%TO.P,C9,1*%
%TO.N,VCC*%
X200400000Y-195700000D03*
%TO.P,C9,2*%
%TO.N,GND*%
X200400000Y-200700000D03*
%TD*%
%TO.P,R25,1*%
%TO.N,Net-(D3-Pad2)*%
X59490000Y-94100000D03*
D20*
%TO.P,R25,2*%
%TO.N,VCC*%
X67110000Y-94100000D03*
%TD*%
D17*
%TO.P,R12,1*%
%TO.N,/VDP/~{DLCLK}*%
X169500000Y-167750000D03*
D20*
%TO.P,R12,2*%
%TO.N,VCC*%
X177120000Y-167750000D03*
%TD*%
D16*
%TO.P,C83,1*%
%TO.N,Net-(C81-Pad1)*%
X125689800Y-124950000D03*
D17*
%TO.P,C83,2*%
%TO.N,AUDIO_R*%
X128189800Y-124950000D03*
%TD*%
D16*
%TO.P,RN1,1,common*%
%TO.N,VCC*%
X175025000Y-201200000D03*
D20*
%TO.P,RN1,2,R1*%
%TO.N,Net-(RN1-Pad2)*%
X177565000Y-201200000D03*
%TO.P,RN1,3,R2*%
%TO.N,Net-(RN1-Pad3)*%
X180105000Y-201200000D03*
%TO.P,RN1,4,R3*%
%TO.N,Net-(RN1-Pad4)*%
X182645000Y-201200000D03*
%TO.P,RN1,5,R4*%
%TO.N,Net-(RN1-Pad5)*%
X185185000Y-201200000D03*
%TO.P,RN1,6,R5*%
%TO.N,Net-(RN1-Pad6)*%
X187725000Y-201200000D03*
%TO.P,RN1,7,R6*%
%TO.N,unconnected-(RN1-Pad7)*%
X190265000Y-201200000D03*
%TO.P,RN1,8,R7*%
%TO.N,unconnected-(RN1-Pad8)*%
X192805000Y-201200000D03*
%TO.P,RN1,9,R8*%
%TO.N,Net-(RN1-Pad9)*%
X195345000Y-201200000D03*
%TD*%
D17*
%TO.P,L3,1*%
%TO.N,VCC*%
X231540000Y-183000000D03*
D20*
%TO.P,L3,2*%
%TO.N,VCCRGB*%
X239160000Y-183000000D03*
%TD*%
D18*
%TO.P,P6,1,Pin_1*%
%TO.N,GND*%
X194125000Y-170525000D03*
D19*
%TO.P,P6,2,Pin_2*%
%TO.N,VCC*%
X194125000Y-167985000D03*
%TO.P,P6,3,Pin_3*%
%TO.N,/VDP/~{DHCLK}*%
X196665000Y-170525000D03*
%TO.P,P6,4,Pin_4*%
%TO.N,/VDP/~{DLCLK}*%
X196665000Y-167985000D03*
%TO.P,P6,5,Pin_5*%
%TO.N,/VDP/C0*%
X199205000Y-170525000D03*
%TO.P,P6,6,Pin_6*%
%TO.N,/VDP/C1*%
X199205000Y-167985000D03*
%TO.P,P6,7,Pin_7*%
%TO.N,/VDP/C2*%
X201745000Y-170525000D03*
%TO.P,P6,8,Pin_8*%
%TO.N,/VDP/C3*%
X201745000Y-167985000D03*
%TO.P,P6,9,Pin_9*%
%TO.N,/VDP/C4*%
X204285000Y-170525000D03*
%TO.P,P6,10,Pin_10*%
%TO.N,/VDP/C5*%
X204285000Y-167985000D03*
%TO.P,P6,11,Pin_11*%
%TO.N,/VDP/C6*%
X206825000Y-170525000D03*
%TO.P,P6,12,Pin_12*%
%TO.N,/VDP/C7*%
X206825000Y-167985000D03*
%TO.P,P6,13,Pin_13*%
%TO.N,unconnected-(P6-Pad13)*%
X209365000Y-170525000D03*
%TO.P,P6,14,Pin_14*%
%TO.N,/VDP/CBDR*%
X209365000Y-167985000D03*
%TO.P,P6,15,Pin_15*%
%TO.N,VCC*%
X211905000Y-170525000D03*
%TO.P,P6,16,Pin_16*%
%TO.N,GND*%
X211905000Y-167985000D03*
%TD*%
D29*
%TO.P,P11,1,Pin_1*%
%TO.N,/PSG/JOYBU*%
X153920000Y-83797500D03*
D12*
%TO.P,P11,2,Pin_2*%
%TO.N,/PSG/JOYBD*%
X153920000Y-81257500D03*
%TO.P,P11,3,Pin_3*%
%TO.N,/PSG/JOYBL*%
X156460000Y-83797500D03*
%TO.P,P11,4,Pin_4*%
%TO.N,/PSG/JOYBR*%
X156460000Y-81257500D03*
%TO.P,P11,5,Pin_5*%
%TO.N,Net-(J11-Pad2)*%
X159000000Y-83797500D03*
%TO.P,P11,6,Pin_6*%
%TO.N,/PSG/JOYBF*%
X159000000Y-81257500D03*
%TO.P,P11,7,Pin_7*%
%TO.N,Net-(J11-Pad4)*%
X161540000Y-83797500D03*
%TO.P,P11,8,Pin_8*%
%TO.N,GND*%
X161540000Y-81257500D03*
%TO.P,P11,9,Pin_9*%
%TO.N,Net-(J8-Pad2)*%
X164080000Y-83797500D03*
%TO.P,P11,10,Pin_10*%
%TO.N,Net-(J11-Pad6)*%
X164080000Y-81257500D03*
%TD*%
D18*
%TO.P,JP5,1,A*%
%TO.N,VRY_CLK*%
X86425000Y-219000000D03*
D19*
%TO.P,JP5,2,B*%
%TO.N,CLK*%
X88965000Y-219000000D03*
%TD*%
D16*
%TO.P,U15,1,OEa*%
%TO.N,ZERO*%
X71500000Y-213000000D03*
D20*
%TO.P,U15,2,I0a*%
%TO.N,Net-(J9-Pad2)*%
X74040000Y-213000000D03*
%TO.P,U15,3,O3b*%
%TO.N,~{bRD}*%
X76580000Y-213000000D03*
%TO.P,U15,4,I1a*%
%TO.N,VRY*%
X79120000Y-213000000D03*
%TO.P,U15,5,O2b*%
%TO.N,~{bWR}*%
X81660000Y-213000000D03*
%TO.P,U15,6,I2a*%
%TO.N,unconnected-(U15-Pad6)*%
X84200000Y-213000000D03*
%TO.P,U15,7,O1b*%
%TO.N,~{bM1}*%
X86740000Y-213000000D03*
%TO.P,U15,8,I3a*%
%TO.N,unconnected-(U15-Pad8)*%
X89280000Y-213000000D03*
%TO.P,U15,9,O0b*%
%TO.N,~{bIORQ}*%
X91820000Y-213000000D03*
%TO.P,U15,10,GND*%
%TO.N,GND*%
X94360000Y-213000000D03*
%TO.P,U15,11,I0b*%
%TO.N,~{IORQ}*%
X94360000Y-205380000D03*
%TO.P,U15,12,O3a*%
%TO.N,unconnected-(U15-Pad12)*%
X91820000Y-205380000D03*
%TO.P,U15,13,I1b*%
%TO.N,~{M1}*%
X89280000Y-205380000D03*
%TO.P,U15,14,O2a*%
%TO.N,unconnected-(U15-Pad14)*%
X86740000Y-205380000D03*
%TO.P,U15,15,I2b*%
%TO.N,~{WR}*%
X84200000Y-205380000D03*
%TO.P,U15,16,O1a*%
%TO.N,VRY_CLK*%
X81660000Y-205380000D03*
%TO.P,U15,17,I3b*%
%TO.N,~{RD}*%
X79120000Y-205380000D03*
%TO.P,U15,18,O0a*%
%TO.N,~{bRESET}*%
X76580000Y-205380000D03*
%TO.P,U15,19,OEb*%
%TO.N,ZERO*%
X74040000Y-205380000D03*
%TO.P,U15,20,VCC*%
%TO.N,VCC*%
X71500000Y-205380000D03*
%TD*%
D17*
%TO.P,C14,1*%
%TO.N,VCC*%
X121200000Y-195900000D03*
%TO.P,C14,2*%
%TO.N,GND*%
X121200000Y-200900000D03*
%TD*%
D16*
%TO.P,C26,1*%
%TO.N,VCC*%
X196200000Y-218600000D03*
D17*
%TO.P,C26,2*%
%TO.N,GND*%
X198700000Y-218600000D03*
%TD*%
D18*
%TO.P,P5,1,Pin_1*%
%TO.N,/VDP/ROUT*%
X179875000Y-94525000D03*
D19*
%TO.P,P5,2,Pin_2*%
%TO.N,/VDP/GOUT*%
X179875000Y-91985000D03*
%TO.P,P5,3,Pin_3*%
%TO.N,/VDP/BOUT*%
X182415000Y-94525000D03*
%TO.P,P5,4,Pin_4*%
%TO.N,unconnected-(P5-Pad4)*%
X182415000Y-91985000D03*
%TO.P,P5,5,Pin_5*%
%TO.N,GND*%
X184955000Y-94525000D03*
%TO.P,P5,6,Pin_6*%
X184955000Y-91985000D03*
%TO.P,P5,7,Pin_7*%
X187495000Y-94525000D03*
%TO.P,P5,8,Pin_8*%
X187495000Y-91985000D03*
%TO.P,P5,9,Pin_9*%
%TO.N,VCC*%
X190035000Y-94525000D03*
%TO.P,P5,10,Pin_10*%
%TO.N,GND*%
X190035000Y-91985000D03*
%TO.P,P5,11,Pin_11*%
%TO.N,unconnected-(P5-Pad11)*%
X192575000Y-94525000D03*
%TO.P,P5,12,Pin_12*%
%TO.N,unconnected-(P5-Pad12)*%
X192575000Y-91985000D03*
%TO.P,P5,13,Pin_13*%
%TO.N,Net-(J4-Pad2)*%
X195115000Y-94525000D03*
%TO.P,P5,14,Pin_14*%
%TO.N,/VDP/VGA-VSYNC*%
X195115000Y-91985000D03*
%TO.P,P5,15,Pin_15*%
%TO.N,unconnected-(P5-Pad15)*%
X197655000Y-94525000D03*
%TO.P,P5,16,Pin_16*%
%TO.N,/VDP/VGA-CSYNC*%
X197655000Y-91985000D03*
%TD*%
D17*
%TO.P,C32,1*%
%TO.N,AUDIO_L*%
X107300000Y-101700000D03*
%TO.P,C32,2*%
%TO.N,GND*%
X112300000Y-101700000D03*
%TD*%
D18*
%TO.P,J11,1,Pin_1*%
%TO.N,/PSG/JOYBH*%
X159175000Y-90565000D03*
D19*
%TO.P,J11,2,Pin_2*%
%TO.N,Net-(J11-Pad2)*%
X159175000Y-88025000D03*
%TO.P,J11,3,Pin_3*%
%TO.N,/PSG/JOYBG*%
X161715000Y-90565000D03*
%TO.P,J11,4,Pin_4*%
%TO.N,Net-(J11-Pad4)*%
X161715000Y-88025000D03*
%TO.P,J11,5,Pin_5*%
%TO.N,VCC*%
X164255000Y-90565000D03*
%TO.P,J11,6,Pin_6*%
%TO.N,Net-(J11-Pad6)*%
X164255000Y-88025000D03*
%TD*%
D17*
%TO.P,C7,1*%
%TO.N,VCC*%
X218750000Y-154300000D03*
%TO.P,C7,2*%
%TO.N,GND*%
X218750000Y-159300000D03*
%TD*%
%TO.P,C40,1*%
%TO.N,Net-(C40-Pad1)*%
X135374700Y-107965000D03*
%TO.P,C40,2*%
%TO.N,GND*%
X140374700Y-107965000D03*
%TD*%
%TO.P,R20,1*%
%TO.N,/VDP/AV*%
X223940000Y-93500000D03*
D20*
%TO.P,R20,2*%
%TO.N,VCC*%
X231560000Y-93500000D03*
%TD*%
D16*
%TO.P,U2,1,GAIN*%
%TO.N,unconnected-(U2-Pad1)*%
X122942000Y-108500000D03*
D20*
%TO.P,U2,2,-*%
%TO.N,GND*%
X125482000Y-108500000D03*
%TO.P,U2,3,+*%
%TO.N,AUDIO_L*%
X128022000Y-108500000D03*
%TO.P,U2,4,GND*%
%TO.N,GND*%
X130562000Y-108500000D03*
%TO.P,U2,5*%
%TO.N,Net-(C46-Pad1)*%
X130562000Y-100880000D03*
%TO.P,U2,6,V+*%
%TO.N,/Amplifier/AMPPWR*%
X128022000Y-100880000D03*
%TO.P,U2,7,BYPASS*%
%TO.N,Net-(C35-Pad1)*%
X125482000Y-100880000D03*
%TO.P,U2,8,GAIN*%
%TO.N,unconnected-(U2-Pad8)*%
X122942000Y-100880000D03*
%TD*%
D17*
%TO.P,R11,1*%
%TO.N,Net-(R11-Pad1)*%
X240750000Y-154690000D03*
D20*
%TO.P,R11,2*%
%TO.N,GND*%
X240750000Y-162310000D03*
%TD*%
D17*
%TO.P,C31,1*%
%TO.N,AUDIO_R*%
X135374700Y-101715000D03*
%TO.P,C31,2*%
%TO.N,GND*%
X140374700Y-101715000D03*
%TD*%
%TO.P,C33,1*%
%TO.N,GND*%
X116992000Y-108200000D03*
%TO.P,C33,2*%
%TO.N,/Amplifier/AMPPWR*%
X116992000Y-103200000D03*
%TD*%
%TO.P,C84,1*%
%TO.N,Net-(C84-Pad1)*%
X151900000Y-184400000D03*
%TO.P,C84,2*%
%TO.N,Net-(C84-Pad2)*%
X156900000Y-184400000D03*
%TD*%
D16*
%TO.P,C22,1*%
%TO.N,VCC*%
X92769300Y-189000000D03*
D17*
%TO.P,C22,2*%
%TO.N,GND*%
X95269300Y-189000000D03*
%TD*%
D24*
%TO.P,D2,1,K*%
%TO.N,Net-(D2-Pad1)*%
X62850000Y-81100000D03*
D25*
%TO.P,D2,2,A*%
%TO.N,Net-(D2-Pad2)*%
X60310000Y-81100000D03*
%TD*%
D17*
%TO.P,C41,1*%
%TO.N,/VDP/RED*%
X223250000Y-162000000D03*
%TO.P,C41,2*%
%TO.N,GND*%
X223250000Y-167000000D03*
%TD*%
D16*
%TO.P,U3,1,GAIN*%
%TO.N,unconnected-(U3-Pad1)*%
X151100000Y-108515000D03*
D20*
%TO.P,U3,2,-*%
%TO.N,GND*%
X153640000Y-108515000D03*
%TO.P,U3,3,+*%
%TO.N,AUDIO_R*%
X156180000Y-108515000D03*
%TO.P,U3,4,GND*%
%TO.N,GND*%
X158720000Y-108515000D03*
%TO.P,U3,5*%
%TO.N,Net-(C42-Pad1)*%
X158720000Y-100895000D03*
%TO.P,U3,6,V+*%
%TO.N,/Amplifier/AMPPWR*%
X156180000Y-100895000D03*
%TO.P,U3,7,BYPASS*%
%TO.N,Net-(C36-Pad1)*%
X153640000Y-100895000D03*
%TO.P,U3,8,GAIN*%
%TO.N,unconnected-(U3-Pad8)*%
X151100000Y-100895000D03*
%TD*%
D17*
%TO.P,R37,1*%
%TO.N,Net-(C40-Pad1)*%
X137590000Y-112800000D03*
D20*
%TO.P,R37,2*%
%TO.N,Net-(C42-Pad1)*%
X145210000Y-112800000D03*
%TD*%
D16*
%TO.P,C82,1*%
%TO.N,Net-(C80-Pad2)*%
X93599800Y-124450000D03*
D17*
%TO.P,C82,2*%
%TO.N,AUDIO_L*%
X96099800Y-124450000D03*
%TD*%
D16*
%TO.P,C35,1*%
%TO.N,Net-(C35-Pad1)*%
X115786900Y-98950000D03*
D17*
%TO.P,C35,2*%
%TO.N,GND*%
X118286900Y-98950000D03*
%TD*%
%TO.P,C81,1*%
%TO.N,Net-(C81-Pad1)*%
X129600000Y-132450000D03*
%TO.P,C81,2*%
%TO.N,GND*%
X124600000Y-132450000D03*
%TD*%
%TO.P,C38,1*%
%TO.N,Net-(C38-Pad1)*%
X107300000Y-107950000D03*
%TO.P,C38,2*%
%TO.N,GND*%
X112300000Y-107950000D03*
%TD*%
%TO.P,R18,1*%
%TO.N,Net-(C61-Pad1)*%
X253250000Y-129610000D03*
D20*
%TO.P,R18,2*%
%TO.N,Net-(R18-Pad2)*%
X253250000Y-137230000D03*
%TD*%
D17*
%TO.P,R27,1*%
%TO.N,GND*%
X234750000Y-177060000D03*
D20*
%TO.P,R27,2*%
%TO.N,/VDP/BLUE*%
X234750000Y-169440000D03*
%TD*%
D18*
%TO.P,J1,1,Pin_1*%
%TO.N,GND*%
X207800000Y-182225000D03*
D19*
%TO.P,J1,2,Pin_2*%
%TO.N,/VDP/VCCO*%
X207800000Y-184765000D03*
%TO.P,J1,3,Pin_3*%
%TO.N,GND*%
X205260000Y-182225000D03*
%TO.P,J1,4,Pin_4*%
%TO.N,VRY*%
X205260000Y-184765000D03*
%TO.P,J1,5,Pin_5*%
%TO.N,bD7*%
X202720000Y-182225000D03*
%TO.P,J1,6,Pin_6*%
%TO.N,~{LPS-WAIT}*%
X202720000Y-184765000D03*
%TO.P,J1,7,Pin_7*%
%TO.N,bD6*%
X200180000Y-182225000D03*
%TO.P,J1,8,Pin_8*%
%TO.N,unconnected-(J1-Pad8)*%
X200180000Y-184765000D03*
%TO.P,J1,9,Pin_9*%
%TO.N,bD5*%
X197640000Y-182225000D03*
%TO.P,J1,10,Pin_10*%
%TO.N,bA1*%
X197640000Y-184765000D03*
%TO.P,J1,11,Pin_11*%
%TO.N,bD4*%
X195100000Y-182225000D03*
%TO.P,J1,12,Pin_12*%
%TO.N,~{RESVDP}*%
X195100000Y-184765000D03*
%TO.P,J1,13,Pin_13*%
%TO.N,bD3*%
X192560000Y-182225000D03*
%TO.P,J1,14,Pin_14*%
%TO.N,bA0*%
X192560000Y-184765000D03*
%TO.P,J1,15,Pin_15*%
%TO.N,bD2*%
X190020000Y-182225000D03*
%TO.P,J1,16,Pin_16*%
%TO.N,~{VDP_WR}*%
X190020000Y-184765000D03*
%TO.P,J1,17,Pin_17*%
%TO.N,bD1*%
X187480000Y-182225000D03*
%TO.P,J1,18,Pin_18*%
%TO.N,~{VDP_RD}*%
X187480000Y-184765000D03*
%TO.P,J1,19,Pin_19*%
%TO.N,bD0*%
X184940000Y-182225000D03*
%TO.P,J1,20,Pin_20*%
%TO.N,~{VINT}*%
X184940000Y-184765000D03*
%TD*%
D30*
%TO.P,C52,1*%
%TO.N,Net-(C52-Pad1)*%
X155360100Y-155000000D03*
%TO.P,C52,2*%
%TO.N,GND*%
X149360097Y-155000000D03*
%TD*%
D17*
%TO.P,R10,1*%
%TO.N,Net-(D4-Pad2)*%
X59490000Y-88120000D03*
D20*
%TO.P,R10,2*%
%TO.N,VCC*%
X67110000Y-88120000D03*
%TD*%
D17*
%TO.P,R42,1*%
%TO.N,/PSG/POTA2*%
X155590000Y-189000000D03*
D20*
%TO.P,R42,2*%
%TO.N,Net-(C85-Pad2)*%
X163210000Y-189000000D03*
%TD*%
D24*
%TO.P,D4,1,K*%
%TO.N,Net-(D4-Pad1)*%
X55950000Y-81100000D03*
D25*
%TO.P,D4,2,A*%
%TO.N,Net-(D4-Pad2)*%
X53410000Y-81100000D03*
%TD*%
D31*
%TO.P,U6,1,GND*%
%TO.N,GND*%
X159753060Y-163267400D03*
D32*
%TO.P,U6,2,~{DHCLK}*%
%TO.N,/VDP/~{DHCLK}*%
X161432000Y-163267400D03*
%TO.P,U6,3,~{DLCLK}*%
%TO.N,/VDP/~{DLCLK}*%
X163311600Y-163267400D03*
%TO.P,U6,4,~{VDS}/~{VRESET}*%
%TO.N,Net-(JP7-Pad1)*%
X165092140Y-163267400D03*
%TO.P,U6,5,~{HSYNC}*%
%TO.N,/VDP/~{HSYNC}*%
X166872680Y-163267400D03*
%TO.P,U6,6,~{CSYNC}*%
%TO.N,/VDP/~{CSYNC}*%
X168653220Y-163267400D03*
%TO.P,U6,7,BLEO*%
%TO.N,/VDP/BLANK*%
X170431220Y-163267400D03*
%TO.P,U6,8,CPUCLK/~{VDS}*%
%TO.N,VRY*%
X172211760Y-163267400D03*
%TO.P,U6,9,~{RESET}*%
%TO.N,~{RESVDP}*%
X173992300Y-163267400D03*
%TO.P,U6,10,~{YS}*%
%TO.N,/VDP/VBY*%
X175772840Y-163267400D03*
%TO.P,U6,11,CBDR*%
%TO.N,/VDP/CBDR*%
X177550840Y-163267400D03*
%TO.P,U6,12,C7*%
%TO.N,/VDP/C7*%
X179432980Y-163267400D03*
%TO.P,U6,13,C6*%
%TO.N,/VDP/C6*%
X181210980Y-163267400D03*
%TO.P,U6,14,C5*%
%TO.N,/VDP/C5*%
X182991520Y-163267400D03*
%TO.P,U6,15,C4*%
%TO.N,/VDP/C4*%
X184769520Y-163267400D03*
%TO.P,U6,16,C3*%
%TO.N,/VDP/C3*%
X186550060Y-163267400D03*
%TO.P,U6,17,C2*%
%TO.N,/VDP/C2*%
X188330600Y-163267400D03*
%TO.P,U6,18,C1*%
%TO.N,/VDP/C1*%
X190108600Y-163267400D03*
%TO.P,U6,19,C0*%
%TO.N,/VDP/C0*%
X191889140Y-163267400D03*
%TO.P,U6,20,GND*%
%TO.N,GND*%
X193570620Y-163267400D03*
%TO.P,U6,21,COMPVID/DACVCC*%
%TO.N,Net-(JP3-Pad1)*%
X195348620Y-163267400D03*
%TO.P,U6,22,G*%
%TO.N,/VDP/GREEN*%
X197129160Y-163287720D03*
%TO.P,U6,23,R*%
%TO.N,/VDP/RED*%
X198810640Y-163287720D03*
%TO.P,U6,24,B*%
%TO.N,/VDP/BLUE*%
X200588640Y-163287720D03*
%TO.P,U6,25,~{INT}*%
%TO.N,~{VINT}*%
X202379340Y-163287720D03*
%TO.P,U6,26,~{LPS}/~{WAIT}*%
%TO.N,~{LPS-WAIT}*%
X204159880Y-163287720D03*
%TO.P,U6,27,~{LPD}/~{HRESET}*%
%TO.N,ONE*%
X205940420Y-163287720D03*
%TO.P,U6,28,MODE1*%
%TO.N,bA1*%
X207718420Y-163287720D03*
%TO.P,U6,29,MODE0*%
%TO.N,bA0*%
X209498960Y-163287720D03*
%TO.P,U6,30,~{CSW}*%
%TO.N,~{VDP_WR}*%
X211279500Y-163287720D03*
%TO.P,U6,31,~{CSR}*%
%TO.N,~{VDP_RD}*%
X213060040Y-163287720D03*
%TO.P,U6,32,CD7*%
%TO.N,bD7*%
X214840580Y-163287720D03*
%TO.P,U6,33,VBB*%
%TO.N,Net-(C62-Pad1)*%
X214670400Y-144209780D03*
%TO.P,U6,34,CD6*%
%TO.N,bD6*%
X212889860Y-144209780D03*
%TO.P,U6,35,CD5*%
%TO.N,bD5*%
X211109320Y-144209780D03*
%TO.P,U6,36,CD4*%
%TO.N,bD4*%
X209328780Y-144209780D03*
%TO.P,U6,37,CD3*%
%TO.N,bD3*%
X207548240Y-144209780D03*
%TO.P,U6,38,CD2*%
%TO.N,bD2*%
X205770240Y-144209780D03*
%TO.P,U6,39,CD1*%
%TO.N,bD1*%
X203989700Y-144209780D03*
%TO.P,U6,40,CD0*%
%TO.N,bD0*%
X202209160Y-144209780D03*
%TO.P,U6,41,RD0*%
%TO.N,/VDP/VD0*%
X200530220Y-144209780D03*
%TO.P,U6,42,RD1*%
%TO.N,/VDP/VD1*%
X198749680Y-144209780D03*
%TO.P,U6,43,RD2*%
%TO.N,/VDP/VD2*%
X196918340Y-144209780D03*
%TO.P,U6,44,RD3*%
%TO.N,/VDP/VD3*%
X195140340Y-144209780D03*
%TO.P,U6,45,RD4*%
%TO.N,/VDP/VD4*%
X193359800Y-144209780D03*
%TO.P,U6,46,RD5*%
%TO.N,/VDP/VD5*%
X191579260Y-144209780D03*
%TO.P,U6,47,RD6*%
%TO.N,/VDP/VD6*%
X189798720Y-144209780D03*
%TO.P,U6,48,RD7*%
%TO.N,/VDP/VD7*%
X188018180Y-144209780D03*
%TO.P,U6,49,AD0*%
%TO.N,/VDP/AD0*%
X186240180Y-144209780D03*
%TO.P,U6,50,AD1*%
%TO.N,/VDP/AD1*%
X184459640Y-144209780D03*
%TO.P,U6,51,AD2*%
%TO.N,/VDP/AD2*%
X182780700Y-144209780D03*
%TO.P,U6,52,AD3*%
%TO.N,/VDP/AD3*%
X181002700Y-144209780D03*
%TO.P,U6,53,AD4*%
%TO.N,/VDP/AD4*%
X179222160Y-144199620D03*
%TO.P,U6,54,AD5*%
%TO.N,/VDP/AD5*%
X177441620Y-144199620D03*
%TO.P,U6,55,AD6*%
%TO.N,/VDP/AD6*%
X175661080Y-144199620D03*
%TO.P,U6,56,AD7*%
%TO.N,/VDP/AD7*%
X173883080Y-144199620D03*
%TO.P,U6,57,R/~{W}*%
%TO.N,/VDP/~{VRW}*%
X172102540Y-144199620D03*
%TO.P,U6,58,VCC*%
%TO.N,VCCVDP*%
X170322000Y-144199620D03*
%TO.P,U6,59,~{CASX}*%
%TO.N,unconnected-(U6-Pad59)*%
X168541460Y-144199620D03*
%TO.P,U6,60,~{CAS1}*%
%TO.N,/VDP/~{CAS1}*%
X166760920Y-144199620D03*
%TO.P,U6,61,~{CAS0}*%
%TO.N,/VDP/~{CAS0}*%
X165081980Y-144199620D03*
%TO.P,U6,62,~{RAS}*%
%TO.N,/VDP/~{RAS}*%
X163301440Y-144199620D03*
%TO.P,U6,63,XTAL1*%
%TO.N,Net-(C52-Pad1)*%
X161520900Y-144199620D03*
%TO.P,U6,64,XTAL2*%
%TO.N,Net-(C53-Pad1)*%
X159742900Y-144199620D03*
%TD*%
D18*
%TO.P,J10,1,Pin_1*%
%TO.N,VCC*%
X125830000Y-89295000D03*
D19*
%TO.P,J10,2,Pin_2*%
%TO.N,Net-(J10-Pad2)*%
X128370000Y-89295000D03*
%TO.P,J10,3,Pin_3*%
%TO.N,/PSG/POTA1*%
X130910000Y-89295000D03*
%TD*%
D17*
%TO.P,C44,1*%
%TO.N,/VDP/GREEN*%
X229000000Y-159670000D03*
%TO.P,C44,2*%
%TO.N,Net-(C44-Pad2)*%
X229000000Y-154670000D03*
%TD*%
D18*
%TO.P,J7,1,Pin_1*%
%TO.N,Net-(J7-Pad1)*%
X42000000Y-213000000D03*
D19*
%TO.P,J7,2,Pin_2*%
%TO.N,~{EIRQ0}*%
X42000000Y-210460000D03*
%TO.P,J7,3,Pin_3*%
%TO.N,Net-(J7-Pad1)*%
X44540000Y-213000000D03*
%TO.P,J7,4,Pin_4*%
%TO.N,~{EIRQ1}*%
X44540000Y-210460000D03*
%TO.P,J7,5,Pin_5*%
%TO.N,Net-(J7-Pad1)*%
X47080000Y-213000000D03*
%TO.P,J7,6,Pin_6*%
%TO.N,~{EIRQ2}*%
X47080000Y-210460000D03*
%TO.P,J7,7,Pin_7*%
%TO.N,Net-(J7-Pad1)*%
X49620000Y-213000000D03*
%TO.P,J7,8,Pin_8*%
%TO.N,~{EIRQ3}*%
X49620000Y-210460000D03*
%TO.P,J7,9,Pin_9*%
%TO.N,Net-(J7-Pad1)*%
X52160000Y-213000000D03*
%TO.P,J7,10,Pin_10*%
%TO.N,~{EIRQ4}*%
X52160000Y-210460000D03*
%TO.P,J7,11,Pin_11*%
%TO.N,Net-(J7-Pad1)*%
X54700000Y-213000000D03*
%TO.P,J7,12,Pin_12*%
%TO.N,~{EIRQ5}*%
X54700000Y-210460000D03*
%TO.P,J7,13,Pin_13*%
%TO.N,Net-(J7-Pad1)*%
X57240000Y-213000000D03*
%TO.P,J7,14,Pin_14*%
%TO.N,~{EIRQ6}*%
X57240000Y-210460000D03*
%TO.P,J7,15,Pin_15*%
%TO.N,Net-(J7-Pad1)*%
X59780000Y-213000000D03*
%TO.P,J7,16,Pin_16*%
%TO.N,~{EIRQ7}*%
X59780000Y-210460000D03*
%TD*%
D17*
%TO.P,R14,1*%
%TO.N,Net-(C57-Pad1)*%
X229250000Y-129610000D03*
D20*
%TO.P,R14,2*%
%TO.N,Net-(R14-Pad2)*%
X229250000Y-137230000D03*
%TD*%
D17*
%TO.P,C18,1*%
%TO.N,VCC*%
X100250000Y-208000000D03*
%TO.P,C18,2*%
%TO.N,GND*%
X100250000Y-213000000D03*
%TD*%
D16*
%TO.P,C20,1*%
%TO.N,VCC*%
X136594900Y-140600000D03*
D17*
%TO.P,C20,2*%
%TO.N,GND*%
X139094900Y-140600000D03*
%TD*%
D18*
%TO.P,JP12,1,A*%
%TO.N,Net-(JP1-Pad3)*%
X256200000Y-181800000D03*
D19*
%TO.P,JP12,2,B*%
%TO.N,Net-(JP12-Pad2)*%
X256200000Y-184340000D03*
%TD*%
D16*
%TO.P,C25,1*%
%TO.N,VCC*%
X115800000Y-218000000D03*
D17*
%TO.P,C25,2*%
%TO.N,GND*%
X118300000Y-218000000D03*
%TD*%
D18*
%TO.P,JP3,1,A*%
%TO.N,Net-(JP3-Pad1)*%
X186725000Y-168000000D03*
D19*
%TO.P,JP3,2,B*%
%TO.N,VCC*%
X189265000Y-168000000D03*
%TD*%
D21*
%TO.P,LS2,1,1*%
%TO.N,Net-(JP10-Pad2)*%
X240260000Y-86750000D03*
D22*
%TO.P,LS2,2,2*%
%TO.N,GND*%
X255260000Y-86750000D03*
%TD*%
D16*
%TO.P,U22,1,CP1..3*%
%TO.N,/PSG/CLK_AY3*%
X73840000Y-200800000D03*
D20*
%TO.P,U22,2,R0(1)*%
%TO.N,ZERO*%
X76380000Y-200800000D03*
%TO.P,U22,3,R0(2)*%
X78920000Y-200800000D03*
%TO.P,U22,4*%
%TO.N,N/C*%
X81460000Y-200800000D03*
%TO.P,U22,5,VCC*%
%TO.N,VCC*%
X84000000Y-200800000D03*
%TO.P,U22,6*%
%TO.N,N/C*%
X86540000Y-200800000D03*
%TO.P,U22,7*%
X89080000Y-200800000D03*
%TO.P,U22,8,Q2*%
%TO.N,Net-(P8-Pad10)*%
X89080000Y-193180000D03*
%TO.P,U22,9,Q1*%
%TO.N,Net-(P8-Pad5)*%
X86540000Y-193180000D03*
%TO.P,U22,10,GND*%
%TO.N,GND*%
X84000000Y-193180000D03*
%TO.P,U22,11,Q3*%
%TO.N,Net-(P8-Pad9)*%
X81460000Y-193180000D03*
%TO.P,U22,12,Q0*%
%TO.N,unconnected-(U22-Pad12)*%
X78920000Y-193180000D03*
%TO.P,U22,13*%
%TO.N,N/C*%
X76380000Y-193180000D03*
%TO.P,U22,14,CP0*%
%TO.N,ZERO*%
X73840000Y-193180000D03*
%TD*%
D16*
%TO.P,C54,1*%
%TO.N,Net-(C54-Pad1)*%
X257044900Y-143170000D03*
D17*
%TO.P,C54,2*%
%TO.N,GND*%
X259544900Y-143170000D03*
%TD*%
%TO.P,C65,1*%
%TO.N,VCC*%
X186500000Y-127750000D03*
%TO.P,C65,2*%
%TO.N,GND*%
X186500000Y-122750000D03*
%TD*%
D33*
%TO.P,RV1,1,1*%
%TO.N,GND*%
X101850000Y-129200000D03*
%TO.P,RV1,2,2*%
%TO.N,Net-(C80-Pad2)*%
X104390000Y-131740000D03*
%TO.P,RV1,3,3*%
X106930000Y-129200000D03*
%TD*%
D24*
%TO.P,D3,1,K*%
%TO.N,~{VINT}*%
X69750000Y-81100000D03*
D25*
%TO.P,D3,2,A*%
%TO.N,Net-(D3-Pad2)*%
X67210000Y-81100000D03*
%TD*%
D17*
%TO.P,C10,1*%
%TO.N,VCC*%
X201000000Y-207500000D03*
%TO.P,C10,2*%
%TO.N,GND*%
X201000000Y-212500000D03*
%TD*%
D23*
%TO.P,NT1,1,1*%
%TO.N,VCC*%
X156650000Y-169250000D03*
%TO.P,NT1,2,2*%
%TO.N,ONE*%
X157850000Y-169250000D03*
%TD*%
D16*
%TO.P,C42,1*%
%TO.N,Net-(C42-Pad1)*%
X153525300Y-114700000D03*
D17*
%TO.P,C42,2*%
%TO.N,/Amplifier/R-CH*%
X156025300Y-114700000D03*
%TD*%
D34*
%TO.P,J13,1*%
%TO.N,GND*%
X213954500Y-83016200D03*
%TO.P,J13,2*%
%TO.N,/VDP/AUDIO*%
X221454500Y-83016200D03*
%TO.P,J13,3*%
%TO.N,/VDP/AV*%
X228954500Y-83016200D03*
%TO.P,J13,4*%
%TO.N,/VDP/COMP*%
X216454500Y-85516200D03*
%TO.P,J13,5*%
%TO.N,/VDP/YS*%
X226454500Y-85556200D03*
%TO.P,J13,6*%
%TO.N,/VDP/ROUT*%
X221454500Y-88016200D03*
%TO.P,J13,7*%
%TO.N,/VDP/GOUT*%
X213954500Y-88016200D03*
%TO.P,J13,8*%
%TO.N,/VDP/BOUT*%
X228954500Y-88016200D03*
%TO.P,J13,~*%
%TO.N,N/C*%
X216454500Y-73016200D03*
X226454500Y-73016200D03*
%TD*%
D16*
%TO.P,U16,1,CSYNC*%
%TO.N,unconnected-(U16-Pad1)*%
X184950000Y-114300000D03*
D20*
%TO.P,U16,2,VIDEO*%
%TO.N,Net-(C1-Pad2)*%
X187490000Y-114300000D03*
%TO.P,U16,3,FRAME*%
%TO.N,/VDP/VSYNC*%
X190030000Y-114300000D03*
%TO.P,U16,4,GND*%
%TO.N,GND*%
X192570000Y-114300000D03*
%TO.P,U16,5,BURST*%
%TO.N,unconnected-(U16-Pad5)*%
X192570000Y-106680000D03*
%TO.P,U16,6,INT*%
%TO.N,Net-(C4-Pad1)*%
X190030000Y-106680000D03*
%TO.P,U16,7,O/E*%
%TO.N,unconnected-(U16-Pad7)*%
X187490000Y-106680000D03*
%TO.P,U16,8,VCC*%
%TO.N,VCC*%
X184950000Y-106680000D03*
%TD*%
D17*
%TO.P,C45,1*%
%TO.N,/VDP/BLUE*%
X234750000Y-159670000D03*
%TO.P,C45,2*%
%TO.N,Net-(C45-Pad2)*%
X234750000Y-154670000D03*
%TD*%
%TO.P,C1,1*%
%TO.N,/VDP/COMP*%
X197250000Y-108000000D03*
%TO.P,C1,2*%
%TO.N,Net-(C1-Pad2)*%
X197250000Y-113000000D03*
%TD*%
%TO.P,R32,1*%
%TO.N,Net-(P8-Pad2)*%
X98600000Y-143700000D03*
D20*
%TO.P,R32,2*%
%TO.N,GND*%
X98600000Y-136080000D03*
%TD*%
D17*
%TO.P,R26,1*%
%TO.N,GND*%
X229000000Y-177000000D03*
D20*
%TO.P,R26,2*%
%TO.N,/VDP/GREEN*%
X229000000Y-169380000D03*
%TD*%
D17*
%TO.P,R21,1*%
%TO.N,/VDP/YS*%
X223940000Y-99500000D03*
D20*
%TO.P,R21,2*%
%TO.N,VCC*%
X231560000Y-99500000D03*
%TD*%
D16*
%TO.P,P7,1,Pin_1*%
%TO.N,unconnected-(P7-Pad1)*%
X100000000Y-200800000D03*
D20*
%TO.P,P7,2,Pin_2*%
%TO.N,unconnected-(P7-Pad2)*%
X102540000Y-200800000D03*
%TO.P,P7,3,Pin_3*%
%TO.N,unconnected-(P7-Pad3)*%
X105080000Y-200800000D03*
%TO.P,P7,4,Pin_4*%
%TO.N,GND*%
X107620000Y-200800000D03*
%TO.P,P7,5,Pin_5*%
%TO.N,unconnected-(P7-Pad5)*%
X110160000Y-200800000D03*
%TO.P,P7,6,Pin_6*%
%TO.N,unconnected-(P7-Pad6)*%
X112700000Y-200800000D03*
%TO.P,P7,7,Pin_7*%
%TO.N,GND*%
X115240000Y-200800000D03*
%TO.P,P7,8,Pin_8*%
%TO.N,/PSG/CLK_AY3*%
X115240000Y-193180000D03*
%TO.P,P7,9,Pin_9*%
%TO.N,unconnected-(P7-Pad9)*%
X112700000Y-193180000D03*
%TO.P,P7,10,Pin_10*%
%TO.N,unconnected-(P7-Pad10)*%
X110160000Y-193180000D03*
%TO.P,P7,11,Pin_11*%
%TO.N,/PSG/CLK_AY3*%
X107620000Y-193180000D03*
%TO.P,P7,12,Pin_12*%
%TO.N,unconnected-(P7-Pad12)*%
X105080000Y-193180000D03*
%TO.P,P7,13,Pin_13*%
%TO.N,unconnected-(P7-Pad13)*%
X102540000Y-193180000D03*
%TO.P,P7,14,Pin_14*%
%TO.N,VCC*%
X100000000Y-193180000D03*
%TD*%
D33*
%TO.P,RV2,1,1*%
%TO.N,GND*%
X115060000Y-129200000D03*
%TO.P,RV2,2,2*%
%TO.N,Net-(C81-Pad1)*%
X117600000Y-131740000D03*
%TO.P,RV2,3,3*%
X120140000Y-129200000D03*
%TD*%
D16*
%TO.P,C46,1*%
%TO.N,Net-(C46-Pad1)*%
X125394700Y-114700000D03*
D17*
%TO.P,C46,2*%
%TO.N,L-CH*%
X127894700Y-114700000D03*
%TD*%
%TO.P,C63,1*%
%TO.N,VCC*%
X186250000Y-139750000D03*
%TO.P,C63,2*%
%TO.N,GND*%
X186250000Y-134750000D03*
%TD*%
%TO.P,C4,1*%
%TO.N,Net-(C4-Pad1)*%
X187500000Y-102250000D03*
%TO.P,C4,2*%
%TO.N,GND*%
X182500000Y-102250000D03*
%TD*%
D18*
%TO.P,JP1,1,A*%
%TO.N,Net-(JP1-Pad1)*%
X246750000Y-163975000D03*
D19*
%TO.P,JP1,2,C*%
%TO.N,/VDP/SYNCIN*%
X246750000Y-166515000D03*
%TO.P,JP1,3,B*%
%TO.N,Net-(JP1-Pad3)*%
X246750000Y-169055000D03*
%TD*%
D17*
%TO.P,C50,1*%
%TO.N,Net-(C50-Pad1)*%
X246750000Y-154670000D03*
%TO.P,C50,2*%
%TO.N,GND*%
X246750000Y-159670000D03*
%TD*%
D16*
%TO.P,C24,1*%
%TO.N,VCC*%
X86789800Y-145800000D03*
D17*
%TO.P,C24,2*%
%TO.N,GND*%
X89289800Y-145800000D03*
%TD*%
D18*
%TO.P,P10,1,Pin_1*%
%TO.N,/PSG/POTA2*%
X136555000Y-90570000D03*
D19*
%TO.P,P10,2,Pin_2*%
%TO.N,Net-(P10-Pad2)*%
X136555000Y-88030000D03*
%TO.P,P10,3,Pin_3*%
%TO.N,/PSG/POTA1*%
X139095000Y-90570000D03*
%TO.P,P10,4,Pin_4*%
%TO.N,Net-(P10-Pad4)*%
X139095000Y-88030000D03*
%TO.P,P10,5,Pin_5*%
%TO.N,VCC*%
X141635000Y-90570000D03*
%TO.P,P10,6,Pin_6*%
%TO.N,Net-(P10-Pad6)*%
X141635000Y-88030000D03*
%TD*%
D16*
%TO.P,C23,1*%
%TO.N,VCC*%
X154394900Y-130000000D03*
D17*
%TO.P,C23,2*%
%TO.N,GND*%
X156894900Y-130000000D03*
%TD*%
%TO.P,C16,1*%
%TO.N,VCC*%
X43110000Y-195800000D03*
%TO.P,C16,2*%
%TO.N,GND*%
X43110000Y-200800000D03*
%TD*%
%TO.P,R33,1*%
%TO.N,Net-(P8-Pad4)*%
X121600000Y-143700000D03*
D20*
%TO.P,R33,2*%
%TO.N,GND*%
X121600000Y-136080000D03*
%TD*%
D18*
%TO.P,JP7,1,A*%
%TO.N,Net-(JP7-Pad1)*%
X163725000Y-168000000D03*
D19*
%TO.P,JP7,2,B*%
%TO.N,ONE*%
X166265000Y-168000000D03*
%TD*%
D35*
%TO.P,J15,1,In*%
%TO.N,/VDP/COMP*%
X203500000Y-83469000D03*
D36*
%TO.P,J15,2,Ext*%
%TO.N,GND*%
X208580000Y-83469000D03*
X198420000Y-83469000D03*
X203500000Y-78389000D03*
%TD*%
D29*
%TO.P,P9,1,Pin_1*%
%TO.N,VCC*%
X106720000Y-83797500D03*
D12*
%TO.P,P9,2,Pin_2*%
X106720000Y-81257500D03*
%TO.P,P9,3,Pin_3*%
%TO.N,AUDIO_L*%
X109260000Y-83797500D03*
%TO.P,P9,4,Pin_4*%
%TO.N,/PSG/SPAREA*%
X109260000Y-81257500D03*
%TO.P,P9,5,Pin_5*%
%TO.N,GND*%
X111800000Y-83797500D03*
%TO.P,P9,6,Pin_6*%
%TO.N,/PSG/SPAREB*%
X111800000Y-81257500D03*
%TO.P,P9,7,Pin_7*%
%TO.N,GND*%
X114340000Y-83797500D03*
%TO.P,P9,8,Pin_8*%
%TO.N,ACR5*%
X114340000Y-81257500D03*
%TO.P,P9,9,Pin_9*%
%TO.N,AUDIO_R*%
X116880000Y-83797500D03*
%TO.P,P9,10,Pin_10*%
%TO.N,GND*%
X116880000Y-81257500D03*
%TD*%
D16*
%TO.P,U24,1*%
%TO.N,/VDP/~{HSYNC}*%
X125975000Y-200900000D03*
D20*
%TO.P,U24,2*%
%TO.N,Net-(P13-Pad1)*%
X128515000Y-200900000D03*
%TO.P,U24,3*%
%TO.N,/VDP/VSYNC*%
X131055000Y-200900000D03*
%TO.P,U24,4*%
%TO.N,/VDP/~{VSYNC}*%
X133595000Y-200900000D03*
%TO.P,U24,5*%
%TO.N,Net-(U24-Pad5)*%
X136135000Y-200900000D03*
%TO.P,U24,6*%
%TO.N,~{RESVDP}*%
X138675000Y-200900000D03*
%TO.P,U24,7,GND*%
%TO.N,GND*%
X141215000Y-200900000D03*
%TO.P,U24,8*%
%TO.N,Net-(U24-Pad8)*%
X141215000Y-193280000D03*
%TO.P,U24,9*%
%TO.N,~{LPS-WAIT}*%
X138675000Y-193280000D03*
%TO.P,U24,10*%
%TO.N,Net-(JP1-Pad1)*%
X136135000Y-193280000D03*
%TO.P,U24,11*%
%TO.N,Net-(Q1-Pad3)*%
X133595000Y-193280000D03*
%TO.P,U24,12*%
%TO.N,Net-(J3-Pad1)*%
X131055000Y-193280000D03*
%TO.P,U24,13*%
%TO.N,/VDP/SYNCIN*%
X128515000Y-193280000D03*
%TO.P,U24,14,VCC*%
%TO.N,VCC*%
X125975000Y-193280000D03*
%TD*%
D17*
%TO.P,R36,1*%
%TO.N,Net-(P8-Pad1)*%
X115850000Y-143700000D03*
D20*
%TO.P,R36,2*%
%TO.N,Net-(C80-Pad2)*%
X115850000Y-136080000D03*
%TD*%
D16*
%TO.P,C28,1*%
%TO.N,/Amplifier/AMPPWR*%
X114372000Y-89545000D03*
D17*
%TO.P,C28,2*%
%TO.N,GND*%
X116872000Y-89545000D03*
%TD*%
%TO.P,L2,1*%
%TO.N,VCC*%
X165740200Y-174600000D03*
D20*
%TO.P,L2,2*%
%TO.N,VCCVDP*%
X173360200Y-174600000D03*
%TD*%
D16*
%TO.P,U9,1,~{Mr}*%
%TO.N,~{bRESET}*%
X205125000Y-200800000D03*
D20*
%TO.P,U9,2,Q0*%
%TO.N,Net-(U24-Pad5)*%
X207665000Y-200800000D03*
%TO.P,U9,3,D0*%
%TO.N,bD0*%
X210205000Y-200800000D03*
%TO.P,U9,4,D1*%
%TO.N,bD1*%
X212745000Y-200800000D03*
%TO.P,U9,5,Q1*%
%TO.N,unconnected-(U9-Pad5)*%
X215285000Y-200800000D03*
%TO.P,U9,6,D2*%
%TO.N,bD2*%
X217825000Y-200800000D03*
%TO.P,U9,7,Q2*%
%TO.N,/ACR/STATUS-VDP*%
X220365000Y-200800000D03*
%TO.P,U9,8,GND*%
%TO.N,GND*%
X222905000Y-200800000D03*
%TO.P,U9,9,Cp*%
%TO.N,~{CS_ACR_WR}*%
X222905000Y-193180000D03*
%TO.P,U9,10,Q3*%
%TO.N,/ACR/STATUS-PSG*%
X220365000Y-193180000D03*
%TO.P,U9,11,D3*%
%TO.N,bD3*%
X217825000Y-193180000D03*
%TO.P,U9,12,Q4*%
%TO.N,~{RESAY3}*%
X215285000Y-193180000D03*
%TO.P,U9,13,D4*%
%TO.N,bD4*%
X212745000Y-193180000D03*
%TO.P,U9,14,D5*%
%TO.N,bD5*%
X210205000Y-193180000D03*
%TO.P,U9,15,Q5*%
%TO.N,ACR5*%
X207665000Y-193180000D03*
%TO.P,U9,16,VCC*%
%TO.N,VCC*%
X205125000Y-193180000D03*
%TD*%
D16*
%TO.P,C27,1*%
%TO.N,VCC*%
X43200000Y-218600000D03*
D17*
%TO.P,C27,2*%
%TO.N,GND*%
X45700000Y-218600000D03*
%TD*%
D16*
%TO.P,C58,1*%
%TO.N,Net-(C58-Pad1)*%
X237885200Y-123170000D03*
D17*
%TO.P,C58,2*%
%TO.N,/VDP/BOUT*%
X240385200Y-123170000D03*
%TD*%
%TO.P,R1,1*%
%TO.N,Net-(D1-Pad2)*%
X49490000Y-88120000D03*
D20*
%TO.P,R1,2*%
%TO.N,VCC*%
X57110000Y-88120000D03*
%TD*%
D17*
%TO.P,C39,1*%
%TO.N,/VDP/GREEN*%
X229000000Y-162000000D03*
%TO.P,C39,2*%
%TO.N,GND*%
X229000000Y-167000000D03*
%TD*%
D16*
%TO.P,U21,1,G*%
%TO.N,~{bIORQ}*%
X172075000Y-212800000D03*
D20*
%TO.P,U21,2,P0*%
%TO.N,~{bM1}*%
X174615000Y-212800000D03*
%TO.P,U21,3,R0*%
%TO.N,Net-(RN1-Pad9)*%
X177155000Y-212800000D03*
%TO.P,U21,4,P1*%
X179695000Y-212800000D03*
%TO.P,U21,5,R1*%
X182235000Y-212800000D03*
%TO.P,U21,6,P2*%
X184775000Y-212800000D03*
%TO.P,U21,7,R2*%
X187315000Y-212800000D03*
%TO.P,U21,8,P3*%
%TO.N,bA3*%
X189855000Y-212800000D03*
%TO.P,U21,9,R3*%
%TO.N,Net-(RN1-Pad6)*%
X192395000Y-212800000D03*
%TO.P,U21,10,GND*%
%TO.N,GND*%
X194935000Y-212800000D03*
%TO.P,U21,11,P4*%
%TO.N,bA4*%
X194935000Y-205180000D03*
%TO.P,U21,12,R4*%
%TO.N,Net-(RN1-Pad5)*%
X192395000Y-205180000D03*
%TO.P,U21,13,P5*%
%TO.N,bA5*%
X189855000Y-205180000D03*
%TO.P,U21,14,R5*%
%TO.N,Net-(RN1-Pad4)*%
X187315000Y-205180000D03*
%TO.P,U21,15,P6*%
%TO.N,bA6*%
X184775000Y-205180000D03*
%TO.P,U21,16,R6*%
%TO.N,Net-(RN1-Pad3)*%
X182235000Y-205180000D03*
%TO.P,U21,17,P7*%
%TO.N,bA7*%
X179695000Y-205180000D03*
%TO.P,U21,18,R7*%
%TO.N,Net-(RN1-Pad2)*%
X177155000Y-205180000D03*
%TO.P,U21,19,P=R*%
%TO.N,~{CS_MEDIA}*%
X174615000Y-205180000D03*
%TO.P,U21,20,VCC*%
%TO.N,VCC*%
X172075000Y-205180000D03*
%TD*%
D37*
%TO.P,D5,1,K*%
%TO.N,/VDP/VCCO*%
X216600000Y-186280000D03*
D38*
%TO.P,D5,2,A*%
%TO.N,VCC*%
X216600000Y-176120000D03*
%TD*%
D17*
%TO.P,C64,1*%
%TO.N,VCC*%
X217750000Y-127750000D03*
%TO.P,C64,2*%
%TO.N,GND*%
X217750000Y-122750000D03*
%TD*%
D29*
%TO.P,P12,1,Pin_1*%
%TO.N,/PSG/JOYAU*%
X130320000Y-83797500D03*
D12*
%TO.P,P12,2,Pin_2*%
%TO.N,/PSG/JOYAD*%
X130320000Y-81257500D03*
%TO.P,P12,3,Pin_3*%
%TO.N,/PSG/JOYAL*%
X132860000Y-83797500D03*
%TO.P,P12,4,Pin_4*%
%TO.N,/PSG/JOYAR*%
X132860000Y-81257500D03*
%TO.P,P12,5,Pin_5*%
%TO.N,Net-(P10-Pad2)*%
X135400000Y-83797500D03*
%TO.P,P12,6,Pin_6*%
%TO.N,/PSG/JOYAF*%
X135400000Y-81257500D03*
%TO.P,P12,7,Pin_7*%
%TO.N,Net-(P10-Pad4)*%
X137940000Y-83797500D03*
%TO.P,P12,8,Pin_8*%
%TO.N,GND*%
X137940000Y-81257500D03*
%TO.P,P12,9,Pin_9*%
%TO.N,Net-(J10-Pad2)*%
X140480000Y-83797500D03*
%TO.P,P12,10,Pin_10*%
%TO.N,Net-(P10-Pad6)*%
X140480000Y-81257500D03*
%TD*%
D17*
%TO.P,R13,1*%
%TO.N,Net-(C56-Pad1)*%
X223250000Y-129610000D03*
D20*
%TO.P,R13,2*%
%TO.N,Net-(R13-Pad2)*%
X223250000Y-137230000D03*
%TD*%
D17*
%TO.P,C62,1*%
%TO.N,Net-(C62-Pad1)*%
X218800000Y-144250000D03*
%TO.P,C62,2*%
%TO.N,GND*%
X218800000Y-149250000D03*
%TD*%
%TO.P,C3,1*%
%TO.N,VCC*%
X133750000Y-208000000D03*
%TO.P,C3,2*%
%TO.N,GND*%
X133750000Y-213000000D03*
%TD*%
%TO.P,R9,1*%
%TO.N,Net-(C49-Pad1)*%
X258750000Y-169440000D03*
D20*
%TO.P,R9,2*%
%TO.N,VRY_CLK*%
X258750000Y-177060000D03*
%TD*%
D17*
%TO.P,C55,1*%
%TO.N,Net-(C55-Pad1)*%
X256250000Y-150500000D03*
%TO.P,C55,2*%
%TO.N,GND*%
X261250000Y-150500000D03*
%TD*%
%TO.P,R35,1*%
%TO.N,Net-(C81-Pad1)*%
X92850000Y-143700000D03*
D20*
%TO.P,R35,2*%
%TO.N,Net-(P8-Pad2)*%
X92850000Y-136080000D03*
%TD*%
D17*
%TO.P,R34,1*%
%TO.N,Net-(C80-Pad2)*%
X127350000Y-143700000D03*
D20*
%TO.P,R34,2*%
%TO.N,Net-(P8-Pad4)*%
X127350000Y-136080000D03*
%TD*%
D18*
%TO.P,JP10,1,A*%
%TO.N,/Amplifier/R-CH*%
X169000000Y-87965000D03*
D19*
%TO.P,JP10,2,B*%
%TO.N,Net-(JP10-Pad2)*%
X169000000Y-90505000D03*
%TD*%
D17*
%TO.P,C29,1*%
%TO.N,VCCRGB*%
X224300000Y-183000000D03*
%TO.P,C29,2*%
%TO.N,GND*%
X229300000Y-183000000D03*
%TD*%
D16*
%TO.P,C13,1*%
%TO.N,VCCRGB*%
X241884700Y-183000000D03*
D17*
%TO.P,C13,2*%
%TO.N,GND*%
X244384700Y-183000000D03*
%TD*%
%TO.P,R4,1*%
%TO.N,Net-(JP1-Pad3)*%
X240750000Y-177060000D03*
D20*
%TO.P,R4,2*%
%TO.N,/VDP/~{CSYNC}*%
X240750000Y-169440000D03*
%TD*%
D17*
%TO.P,R8,1*%
%TO.N,~{LPS-WAIT}*%
X133200000Y-189000000D03*
D20*
%TO.P,R8,2*%
%TO.N,VCC*%
X125580000Y-189000000D03*
%TD*%
D17*
%TO.P,R31,1*%
%TO.N,Net-(P8-Pad1)*%
X104350000Y-143700000D03*
D20*
%TO.P,R31,2*%
%TO.N,GND*%
X104350000Y-136080000D03*
%TD*%
D17*
%TO.P,C11,1*%
%TO.N,VCC*%
X154800000Y-159750000D03*
%TO.P,C11,2*%
%TO.N,GND*%
X154800000Y-164750000D03*
%TD*%
D16*
%TO.P,U13,1,OEa*%
%TO.N,ZERO*%
X138250000Y-213000000D03*
D20*
%TO.P,U13,2,I0a*%
%TO.N,A0*%
X140790000Y-213000000D03*
%TO.P,U13,3,O3b*%
%TO.N,bA7*%
X143330000Y-213000000D03*
%TO.P,U13,4,I1a*%
%TO.N,A1*%
X145870000Y-213000000D03*
%TO.P,U13,5,O2b*%
%TO.N,bA6*%
X148410000Y-213000000D03*
%TO.P,U13,6,I2a*%
%TO.N,A2*%
X150950000Y-213000000D03*
%TO.P,U13,7,O1b*%
%TO.N,bA5*%
X153490000Y-213000000D03*
%TO.P,U13,8,I3a*%
%TO.N,A3*%
X156030000Y-213000000D03*
%TO.P,U13,9,O0b*%
%TO.N,bA4*%
X158570000Y-213000000D03*
%TO.P,U13,10,GND*%
%TO.N,GND*%
X161110000Y-213000000D03*
%TO.P,U13,11,I0b*%
%TO.N,A4*%
X161110000Y-205380000D03*
%TO.P,U13,12,O3a*%
%TO.N,bA3*%
X158570000Y-205380000D03*
%TO.P,U13,13,I1b*%
%TO.N,A5*%
X156030000Y-205380000D03*
%TO.P,U13,14,O2a*%
%TO.N,bA2*%
X153490000Y-205380000D03*
%TO.P,U13,15,I2b*%
%TO.N,A6*%
X150950000Y-205380000D03*
%TO.P,U13,16,O1a*%
%TO.N,bA1*%
X148410000Y-205380000D03*
%TO.P,U13,17,I3b*%
%TO.N,A7*%
X145870000Y-205380000D03*
%TO.P,U13,18,O0a*%
%TO.N,bA0*%
X143330000Y-205380000D03*
%TO.P,U13,19,OEb*%
%TO.N,ZERO*%
X140790000Y-205380000D03*
%TO.P,U13,20,VCC*%
%TO.N,VCC*%
X138250000Y-205380000D03*
%TD*%
D17*
%TO.P,C37,1*%
%TO.N,/VDP/BLUE*%
X234750000Y-162000000D03*
%TO.P,C37,2*%
%TO.N,GND*%
X234750000Y-167000000D03*
%TD*%
%TO.P,C47,1*%
%TO.N,/VDP/SYNCIN*%
X252750000Y-162000000D03*
%TO.P,C47,2*%
%TO.N,GND*%
X252750000Y-167000000D03*
%TD*%
D18*
%TO.P,J9,1,Pin_1*%
%TO.N,~{RES_IN}*%
X95475000Y-219000000D03*
D19*
%TO.P,J9,2,Pin_2*%
%TO.N,Net-(J9-Pad2)*%
X98015000Y-219000000D03*
%TO.P,J9,3,Pin_3*%
%TO.N,~{RES_OUT}*%
X100555000Y-219000000D03*
%TD*%
M02*
