%TF.GenerationSoftware,KiCad,Pcbnew,(6.0.11)*%
%TF.CreationDate,2024-04-17T16:28:08-04:00*%
%TF.ProjectId,input-output.Media,696e7075-742d-46f7-9574-7075742e4d65,rev?*%
%TF.SameCoordinates,Original*%
%TF.FileFunction,Copper,L1,Top*%
%TF.FilePolarity,Positive*%
%FSLAX46Y46*%
G04 Gerber Fmt 4.6, Leading zero omitted, Abs format (unit mm)*
G04 Created by KiCad (PCBNEW (6.0.11)) date 2024-04-17 16:28:08*
%MOMM*%
%LPD*%
G01*
G04 APERTURE LIST*
G04 Aperture macros list*
%AMRoundRect*
0 Rectangle with rounded corners*
0 $1 Rounding radius*
0 $2 $3 $4 $5 $6 $7 $8 $9 X,Y pos of 4 corners*
0 Add a 4 corners polygon primitive as box body*
4,1,4,$2,$3,$4,$5,$6,$7,$8,$9,$2,$3,0*
0 Add four circle primitives for the rounded corners*
1,1,$1+$1,$2,$3*
1,1,$1+$1,$4,$5*
1,1,$1+$1,$6,$7*
1,1,$1+$1,$8,$9*
0 Add four rect primitives between the rounded corners*
20,1,$1+$1,$2,$3,$4,$5,0*
20,1,$1+$1,$4,$5,$6,$7,0*
20,1,$1+$1,$6,$7,$8,$9,0*
20,1,$1+$1,$8,$9,$2,$3,0*%
G04 Aperture macros list end*
%TA.AperFunction,ComponentPad*%
%ADD10C,6.400000*%
%TD*%
%TA.AperFunction,ComponentPad*%
%ADD11RoundRect,0.250000X-0.600000X0.600000X-0.600000X-0.600000X0.600000X-0.600000X0.600000X0.600000X0*%
%TD*%
%TA.AperFunction,ComponentPad*%
%ADD12C,1.700000*%
%TD*%
%TA.AperFunction,ComponentPad*%
%ADD13R,1.100000X1.800000*%
%TD*%
%TA.AperFunction,ComponentPad*%
%ADD14RoundRect,0.275000X-0.275000X-0.625000X0.275000X-0.625000X0.275000X0.625000X-0.275000X0.625000X0*%
%TD*%
%TA.AperFunction,ComponentPad*%
%ADD15O,1.400000X2.000000*%
%TD*%
%TA.AperFunction,ComponentPad*%
%ADD16R,1.400000X2.000000*%
%TD*%
%TA.AperFunction,ComponentPad*%
%ADD17R,1.600000X1.600000*%
%TD*%
%TA.AperFunction,ComponentPad*%
%ADD18C,1.600000*%
%TD*%
%TA.AperFunction,ComponentPad*%
%ADD19R,1.700000X1.700000*%
%TD*%
%TA.AperFunction,ComponentPad*%
%ADD20O,1.700000X1.700000*%
%TD*%
%TA.AperFunction,ComponentPad*%
%ADD21O,1.600000X1.600000*%
%TD*%
%TA.AperFunction,ComponentPad*%
%ADD22R,2.000000X2.000000*%
%TD*%
%TA.AperFunction,ComponentPad*%
%ADD23C,2.000000*%
%TD*%
%TA.AperFunction,ComponentPad*%
%ADD24C,0.600000*%
%TD*%
%TA.AperFunction,ComponentPad*%
%ADD25R,1.800000X1.800000*%
%TD*%
%TA.AperFunction,ComponentPad*%
%ADD26C,1.800000*%
%TD*%
%TA.AperFunction,ComponentPad*%
%ADD27C,1.371600*%
%TD*%
%TA.AperFunction,ComponentPad*%
%ADD28C,4.000500*%
%TD*%
%TA.AperFunction,ComponentPad*%
%ADD29C,1.500000*%
%TD*%
%TA.AperFunction,ComponentPad*%
%ADD30RoundRect,0.250000X0.600000X-0.600000X0.600000X0.600000X-0.600000X0.600000X-0.600000X-0.600000X0*%
%TD*%
%TA.AperFunction,ComponentPad*%
%ADD31C,1.854200*%
%TD*%
%TA.AperFunction,ComponentPad*%
%ADD32R,1.173480X1.173480*%
%TD*%
%TA.AperFunction,ComponentPad*%
%ADD33C,1.198880*%
%TD*%
%TA.AperFunction,ComponentPad*%
%ADD34C,1.440000*%
%TD*%
%TA.AperFunction,ComponentPad*%
%ADD35C,3.000000*%
%TD*%
%TA.AperFunction,ComponentPad*%
%ADD36C,2.971800*%
%TD*%
%TA.AperFunction,ComponentPad*%
%ADD37C,4.064000*%
%TD*%
%TA.AperFunction,ComponentPad*%
%ADD38R,2.200000X2.200000*%
%TD*%
%TA.AperFunction,ComponentPad*%
%ADD39O,2.200000X2.200000*%
%TD*%
%TA.AperFunction,ViaPad*%
%ADD40C,0.800000*%
%TD*%
%TA.AperFunction,Conductor*%
%ADD41C,1.000000*%
%TD*%
%TA.AperFunction,Conductor*%
%ADD42C,0.250000*%
%TD*%
G04 APERTURE END LIST*
%TO.C,NT2*%
G36*
X121850000Y-193050000D02*
G01*
X120650000Y-193050000D01*
X120650000Y-192450000D01*
X121850000Y-192450000D01*
X121850000Y-193050000D01*
G37*
%TO.C,NT1*%
G36*
X157850000Y-169550000D02*
G01*
X156650000Y-169550000D01*
X156650000Y-168950000D01*
X157850000Y-168950000D01*
X157850000Y-169550000D01*
G37*
%TD*%
D10*
%TO.P,H2,1,1*%
%TO.N,GND*%
X265000000Y-75000000D03*
%TD*%
%TO.P,H1,1,1*%
%TO.N,GND*%
X40000000Y-75000000D03*
%TD*%
D11*
%TO.P,P2,1,Pin_1*%
%TO.N,VCC*%
X182000000Y-223000000D03*
D12*
%TO.P,P2,2,Pin_2*%
X182000000Y-225540000D03*
%TO.P,P2,3,Pin_3*%
%TO.N,/bus/A15*%
X179460000Y-223000000D03*
%TO.P,P2,4,Pin_4*%
%TO.N,/bus/A31*%
X179460000Y-225540000D03*
%TO.P,P2,5,Pin_5*%
%TO.N,/bus/A14*%
X176920000Y-223000000D03*
%TO.P,P2,6,Pin_6*%
%TO.N,/bus/A30*%
X176920000Y-225540000D03*
%TO.P,P2,7,Pin_7*%
%TO.N,/bus/A13*%
X174380000Y-223000000D03*
%TO.P,P2,8,Pin_8*%
%TO.N,/bus/A29*%
X174380000Y-225540000D03*
%TO.P,P2,9,Pin_9*%
%TO.N,/bus/A12*%
X171840000Y-223000000D03*
%TO.P,P2,10,Pin_10*%
%TO.N,/bus/A28*%
X171840000Y-225540000D03*
%TO.P,P2,11,Pin_11*%
%TO.N,/bus/A11*%
X169300000Y-223000000D03*
%TO.P,P2,12,Pin_12*%
%TO.N,/bus/A27*%
X169300000Y-225540000D03*
%TO.P,P2,13,Pin_13*%
%TO.N,/bus/A10*%
X166760000Y-223000000D03*
%TO.P,P2,14,Pin_14*%
%TO.N,/bus/A26*%
X166760000Y-225540000D03*
%TO.P,P2,15,Pin_15*%
%TO.N,/bus/A9*%
X164220000Y-223000000D03*
%TO.P,P2,16,Pin_16*%
%TO.N,/bus/A25*%
X164220000Y-225540000D03*
%TO.P,P2,17,Pin_17*%
%TO.N,/bus/A8*%
X161680000Y-223000000D03*
%TO.P,P2,18,Pin_18*%
%TO.N,/bus/A24*%
X161680000Y-225540000D03*
%TO.P,P2,19,Pin_19*%
%TO.N,+12V*%
X159140000Y-223000000D03*
%TO.P,P2,20,Pin_20*%
X159140000Y-225540000D03*
%TO.P,P2,21,Pin_21*%
%TO.N,A7*%
X156600000Y-223000000D03*
%TO.P,P2,22,Pin_22*%
%TO.N,/bus/A23*%
X156600000Y-225540000D03*
%TO.P,P2,23,Pin_23*%
%TO.N,A6*%
X154060000Y-223000000D03*
%TO.P,P2,24,Pin_24*%
%TO.N,/bus/A22*%
X154060000Y-225540000D03*
%TO.P,P2,25,Pin_25*%
%TO.N,A5*%
X151520000Y-223000000D03*
%TO.P,P2,26,Pin_26*%
%TO.N,/bus/A21*%
X151520000Y-225540000D03*
%TO.P,P2,27,Pin_27*%
%TO.N,A4*%
X148980000Y-223000000D03*
%TO.P,P2,28,Pin_28*%
%TO.N,/bus/A20*%
X148980000Y-225540000D03*
%TO.P,P2,29,Pin_29*%
%TO.N,A3*%
X146440000Y-223000000D03*
%TO.P,P2,30,Pin_30*%
%TO.N,/bus/A19*%
X146440000Y-225540000D03*
%TO.P,P2,31,Pin_31*%
%TO.N,A2*%
X143900000Y-223000000D03*
%TO.P,P2,32,Pin_32*%
%TO.N,/bus/A18*%
X143900000Y-225540000D03*
%TO.P,P2,33,Pin_33*%
%TO.N,A1*%
X141360000Y-223000000D03*
%TO.P,P2,34,Pin_34*%
%TO.N,/bus/A17*%
X141360000Y-225540000D03*
%TO.P,P2,35,Pin_35*%
%TO.N,A0*%
X138820000Y-223000000D03*
%TO.P,P2,36,Pin_36*%
%TO.N,/bus/A16*%
X138820000Y-225540000D03*
%TO.P,P2,37,Pin_37*%
%TO.N,-12V*%
X136280000Y-223000000D03*
%TO.P,P2,38,Pin_38*%
X136280000Y-225540000D03*
%TO.P,P2,39,Pin_39*%
%TO.N,/bus/IC3*%
X133740000Y-223000000D03*
%TO.P,P2,40,Pin_40*%
%TO.N,/bus/~{TEND1}*%
X133740000Y-225540000D03*
%TO.P,P2,41,Pin_41*%
%TO.N,/bus/IC2*%
X131200000Y-223000000D03*
%TO.P,P2,42,Pin_42*%
%TO.N,/bus/~{DREQ1}*%
X131200000Y-225540000D03*
%TO.P,P2,43,Pin_43*%
%TO.N,/bus/IC1*%
X128660000Y-223000000D03*
%TO.P,P2,44,Pin_44*%
%TO.N,/bus/~{TEND0}*%
X128660000Y-225540000D03*
%TO.P,P2,45,Pin_45*%
%TO.N,/bus/IC0*%
X126120000Y-223000000D03*
%TO.P,P2,46,Pin_46*%
%TO.N,/bus/~{DREQ0}*%
X126120000Y-225540000D03*
%TO.P,P2,47,Pin_47*%
%TO.N,/bus/AUXCLK1*%
X123580000Y-223000000D03*
%TO.P,P2,48,Pin_48*%
%TO.N,/bus/AUXCLK0*%
X123580000Y-225540000D03*
%TO.P,P2,49,Pin_49*%
%TO.N,GND*%
X121040000Y-223000000D03*
%TO.P,P2,50,Pin_50*%
X121040000Y-225540000D03*
%TD*%
D11*
%TO.P,P3,1,Pin_1*%
%TO.N,VCC*%
X258000000Y-223000000D03*
D12*
%TO.P,P3,2,Pin_2*%
X258000000Y-225540000D03*
%TO.P,P3,3,Pin_3*%
%TO.N,/bus/D15*%
X255460000Y-223000000D03*
%TO.P,P3,4,Pin_4*%
%TO.N,/bus/D31*%
X255460000Y-225540000D03*
%TO.P,P3,5,Pin_5*%
%TO.N,/bus/D14*%
X252920000Y-223000000D03*
%TO.P,P3,6,Pin_6*%
%TO.N,/bus/D30*%
X252920000Y-225540000D03*
%TO.P,P3,7,Pin_7*%
%TO.N,/bus/D13*%
X250380000Y-223000000D03*
%TO.P,P3,8,Pin_8*%
%TO.N,/bus/D29*%
X250380000Y-225540000D03*
%TO.P,P3,9,Pin_9*%
%TO.N,/bus/D12*%
X247840000Y-223000000D03*
%TO.P,P3,10,Pin_10*%
%TO.N,/bus/D28*%
X247840000Y-225540000D03*
%TO.P,P3,11,Pin_11*%
%TO.N,/bus/D11*%
X245300000Y-223000000D03*
%TO.P,P3,12,Pin_12*%
%TO.N,/bus/D27*%
X245300000Y-225540000D03*
%TO.P,P3,13,Pin_13*%
%TO.N,/bus/D10*%
X242760000Y-223000000D03*
%TO.P,P3,14,Pin_14*%
%TO.N,/bus/D26*%
X242760000Y-225540000D03*
%TO.P,P3,15,Pin_15*%
%TO.N,/bus/D9*%
X240220000Y-223000000D03*
%TO.P,P3,16,Pin_16*%
%TO.N,/bus/D25*%
X240220000Y-225540000D03*
%TO.P,P3,17,Pin_17*%
%TO.N,/bus/D8*%
X237680000Y-223000000D03*
%TO.P,P3,18,Pin_18*%
%TO.N,/bus/D24*%
X237680000Y-225540000D03*
%TO.P,P3,19,Pin_19*%
%TO.N,D7*%
X235140000Y-223000000D03*
%TO.P,P3,20,Pin_20*%
%TO.N,/bus/D23*%
X235140000Y-225540000D03*
%TO.P,P3,21,Pin_21*%
%TO.N,D6*%
X232600000Y-223000000D03*
%TO.P,P3,22,Pin_22*%
%TO.N,/bus/D22*%
X232600000Y-225540000D03*
%TO.P,P3,23,Pin_23*%
%TO.N,D5*%
X230060000Y-223000000D03*
%TO.P,P3,24,Pin_24*%
%TO.N,/bus/D21*%
X230060000Y-225540000D03*
%TO.P,P3,25,Pin_25*%
%TO.N,D4*%
X227520000Y-223000000D03*
%TO.P,P3,26,Pin_26*%
%TO.N,/bus/D20*%
X227520000Y-225540000D03*
%TO.P,P3,27,Pin_27*%
%TO.N,D3*%
X224980000Y-223000000D03*
%TO.P,P3,28,Pin_28*%
%TO.N,/bus/D19*%
X224980000Y-225540000D03*
%TO.P,P3,29,Pin_29*%
%TO.N,D2*%
X222440000Y-223000000D03*
%TO.P,P3,30,Pin_30*%
%TO.N,/bus/D18*%
X222440000Y-225540000D03*
%TO.P,P3,31,Pin_31*%
%TO.N,D1*%
X219900000Y-223000000D03*
%TO.P,P3,32,Pin_32*%
%TO.N,/bus/D17*%
X219900000Y-225540000D03*
%TO.P,P3,33,Pin_33*%
%TO.N,D0*%
X217360000Y-223000000D03*
%TO.P,P3,34,Pin_34*%
%TO.N,/bus/D16*%
X217360000Y-225540000D03*
%TO.P,P3,35,Pin_35*%
%TO.N,/bus/~{BUSERR}*%
X214820000Y-223000000D03*
%TO.P,P3,36,Pin_36*%
%TO.N,/bus/UDS*%
X214820000Y-225540000D03*
%TO.P,P3,37,Pin_37*%
%TO.N,/bus/~{VPA}*%
X212280000Y-223000000D03*
%TO.P,P3,38,Pin_38*%
%TO.N,/bus/LDS*%
X212280000Y-225540000D03*
%TO.P,P3,39,Pin_39*%
%TO.N,/bus/~{VMA}*%
X209740000Y-223000000D03*
%TO.P,P3,40,Pin_40*%
%TO.N,/bus/S2*%
X209740000Y-225540000D03*
%TO.P,P3,41,Pin_41*%
%TO.N,/bus/~{BHE}*%
X207200000Y-223000000D03*
%TO.P,P3,42,Pin_42*%
%TO.N,/bus/S1*%
X207200000Y-225540000D03*
%TO.P,P3,43,Pin_43*%
%TO.N,/bus/IPL2*%
X204660000Y-223000000D03*
%TO.P,P3,44,Pin_44*%
%TO.N,/bus/S0*%
X204660000Y-225540000D03*
%TO.P,P3,45,Pin_45*%
%TO.N,/bus/IPL1*%
X202120000Y-223000000D03*
%TO.P,P3,46,Pin_46*%
%TO.N,/bus/AUXCLK3*%
X202120000Y-225540000D03*
%TO.P,P3,47,Pin_47*%
%TO.N,/bus/IPL0*%
X199580000Y-223000000D03*
%TO.P,P3,48,Pin_48*%
%TO.N,/bus/AUXCLK2*%
X199580000Y-225540000D03*
%TO.P,P3,49,Pin_49*%
%TO.N,GND*%
X197040000Y-223000000D03*
%TO.P,P3,50,Pin_50*%
X197040000Y-225540000D03*
%TD*%
D11*
%TO.P,P1,1,Pin_1*%
%TO.N,VCC*%
X108000000Y-223000000D03*
D12*
%TO.P,P1,2,Pin_2*%
X108000000Y-225540000D03*
%TO.P,P1,3,Pin_3*%
%TO.N,~{RD}*%
X105460000Y-223000000D03*
%TO.P,P1,4,Pin_4*%
%TO.N,/bus/E*%
X105460000Y-225540000D03*
%TO.P,P1,5,Pin_5*%
%TO.N,~{WR}*%
X102920000Y-223000000D03*
%TO.P,P1,6,Pin_6*%
%TO.N,/bus/ST*%
X102920000Y-225540000D03*
%TO.P,P1,7,Pin_7*%
%TO.N,~{IORQ}*%
X100380000Y-223000000D03*
%TO.P,P1,8,Pin_8*%
%TO.N,/bus/PHI*%
X100380000Y-225540000D03*
%TO.P,P1,9,Pin_9*%
%TO.N,/bus/~{MREQ}*%
X97840000Y-223000000D03*
%TO.P,P1,10,Pin_10*%
%TO.N,/bus/~{INT2}*%
X97840000Y-225540000D03*
%TO.P,P1,11,Pin_11*%
%TO.N,~{M1}*%
X95300000Y-223000000D03*
%TO.P,P1,12,Pin_12*%
%TO.N,/bus/~{INT1}*%
X95300000Y-225540000D03*
%TO.P,P1,13,Pin_13*%
%TO.N,/bus/~{BUSACK}*%
X92760000Y-223000000D03*
%TO.P,P1,14,Pin_14*%
%TO.N,/bus/CRUCLK*%
X92760000Y-225540000D03*
%TO.P,P1,15,Pin_15*%
%TO.N,CLK*%
X90220000Y-223000000D03*
%TO.P,P1,16,Pin_16*%
%TO.N,/bus/CRUOUT*%
X90220000Y-225540000D03*
%TO.P,P1,17,Pin_17*%
%TO.N,~{INT0}*%
X87680000Y-223000000D03*
%TO.P,P1,18,Pin_18*%
%TO.N,/bus/CRUIN*%
X87680000Y-225540000D03*
%TO.P,P1,19,Pin_19*%
%TO.N,/bus/~{NMI}*%
X85140000Y-223000000D03*
%TO.P,P1,20,Pin_20*%
%TO.N,~{RES_IN}*%
X85140000Y-225540000D03*
%TO.P,P1,21,Pin_21*%
%TO.N,~{RES_OUT}*%
X82600000Y-223000000D03*
%TO.P,P1,22,Pin_22*%
%TO.N,/bus/USER8*%
X82600000Y-225540000D03*
%TO.P,P1,23,Pin_23*%
%TO.N,/bus/~{BUSRQ}*%
X80060000Y-223000000D03*
%TO.P,P1,24,Pin_24*%
%TO.N,/bus/USER7*%
X80060000Y-225540000D03*
%TO.P,P1,25,Pin_25*%
%TO.N,~{WAIT}*%
X77520000Y-223000000D03*
%TO.P,P1,26,Pin_26*%
%TO.N,/bus/USER6*%
X77520000Y-225540000D03*
%TO.P,P1,27,Pin_27*%
%TO.N,/bus/~{HALT}*%
X74980000Y-223000000D03*
%TO.P,P1,28,Pin_28*%
%TO.N,/bus/USER5*%
X74980000Y-225540000D03*
%TO.P,P1,29,Pin_29*%
%TO.N,/bus/~{RFSH}*%
X72440000Y-223000000D03*
%TO.P,P1,30,Pin_30*%
%TO.N,/bus/USER4*%
X72440000Y-225540000D03*
%TO.P,P1,31,Pin_31*%
%TO.N,~{EIRQ7}*%
X69900000Y-223000000D03*
%TO.P,P1,32,Pin_32*%
%TO.N,/bus/USER3*%
X69900000Y-225540000D03*
%TO.P,P1,33,Pin_33*%
%TO.N,~{EIRQ6}*%
X67360000Y-223000000D03*
%TO.P,P1,34,Pin_34*%
%TO.N,/bus/USER2*%
X67360000Y-225540000D03*
%TO.P,P1,35,Pin_35*%
%TO.N,~{EIRQ5}*%
X64820000Y-223000000D03*
%TO.P,P1,36,Pin_36*%
%TO.N,/bus/USER1*%
X64820000Y-225540000D03*
%TO.P,P1,37,Pin_37*%
%TO.N,~{EIRQ4}*%
X62280000Y-223000000D03*
%TO.P,P1,38,Pin_38*%
%TO.N,/bus/USER0*%
X62280000Y-225540000D03*
%TO.P,P1,39,Pin_39*%
%TO.N,~{EIRQ3}*%
X59740000Y-223000000D03*
%TO.P,P1,40,Pin_40*%
%TO.N,~{BAI}*%
X59740000Y-225540000D03*
%TO.P,P1,41,Pin_41*%
%TO.N,~{EIRQ2}*%
X57200000Y-223000000D03*
%TO.P,P1,42,Pin_42*%
%TO.N,~{BAO}*%
X57200000Y-225540000D03*
%TO.P,P1,43,Pin_43*%
%TO.N,~{EIRQ1}*%
X54660000Y-223000000D03*
%TO.P,P1,44,Pin_44*%
%TO.N,~{IEI}*%
X54660000Y-225540000D03*
%TO.P,P1,45,Pin_45*%
%TO.N,~{EIRQ0}*%
X52120000Y-223000000D03*
%TO.P,P1,46,Pin_46*%
%TO.N,~{IEO}*%
X52120000Y-225540000D03*
%TO.P,P1,47,Pin_47*%
%TO.N,/bus/I2C_SCL*%
X49580000Y-223000000D03*
%TO.P,P1,48,Pin_48*%
%TO.N,/bus/I2C_SDA*%
X49580000Y-225540000D03*
%TO.P,P1,49,Pin_49*%
%TO.N,GND*%
X47040000Y-223000000D03*
%TO.P,P1,50,Pin_50*%
X47040000Y-225540000D03*
%TD*%
D13*
%TO.P,Q1,1,E*%
%TO.N,VCC*%
X245480000Y-175510000D03*
D14*
%TO.P,Q1,2,B*%
%TO.N,Net-(JP12-Pad2)*%
X246750000Y-173440000D03*
%TO.P,Q1,3,C*%
%TO.N,Net-(Q1-Pad3)*%
X248020000Y-175510000D03*
%TD*%
D15*
%TO.P,J12,*%
%TO.N,*%
X178717500Y-75545000D03*
%TO.P,J12,R1*%
%TO.N,/Amplifier/R-CH*%
X173217500Y-78545000D03*
%TO.P,J12,R2*%
%TO.N,unconnected-(J12-PadR2)*%
X173217500Y-75545000D03*
%TO.P,J12,S*%
%TO.N,GND*%
X177717500Y-84045000D03*
D16*
%TO.P,J12,T*%
%TO.N,L-CH*%
X173217500Y-82545000D03*
%TD*%
D17*
%TO.P,C60,1*%
%TO.N,Net-(C60-Pad1)*%
X252317600Y-123170000D03*
D18*
%TO.P,C60,2*%
%TO.N,/VDP/LUMA*%
X254817600Y-123170000D03*
%TD*%
%TO.P,C34,1*%
%TO.N,GND*%
X145110000Y-108230000D03*
%TO.P,C34,2*%
%TO.N,/Amplifier/AMPPWR*%
X145110000Y-103230000D03*
%TD*%
%TO.P,C43,1*%
%TO.N,/VDP/RED*%
X223250000Y-159670000D03*
%TO.P,C43,2*%
%TO.N,Net-(C43-Pad2)*%
X223250000Y-154670000D03*
%TD*%
D19*
%TO.P,SW1,1,Pin_1*%
%TO.N,Net-(RN1-Pad2)*%
X178125000Y-195475000D03*
D20*
%TO.P,SW1,2,Pin_2*%
%TO.N,ZERO*%
X178125000Y-192935000D03*
%TO.P,SW1,3,Pin_3*%
%TO.N,Net-(RN1-Pad3)*%
X180665000Y-195475000D03*
%TO.P,SW1,4,Pin_4*%
%TO.N,ZERO*%
X180665000Y-192935000D03*
%TO.P,SW1,5,Pin_5*%
%TO.N,Net-(RN1-Pad4)*%
X183205000Y-195475000D03*
%TO.P,SW1,6,Pin_6*%
%TO.N,ZERO*%
X183205000Y-192935000D03*
%TO.P,SW1,7,Pin_7*%
%TO.N,Net-(RN1-Pad5)*%
X185745000Y-195475000D03*
%TO.P,SW1,8,Pin_8*%
%TO.N,ZERO*%
X185745000Y-192935000D03*
%TO.P,SW1,9,Pin_9*%
%TO.N,Net-(RN1-Pad6)*%
X188285000Y-195475000D03*
%TO.P,SW1,10,Pin_10*%
%TO.N,ZERO*%
X188285000Y-192935000D03*
%TD*%
D17*
%TO.P,U17,1,~{A}*%
%TO.N,~{CS_ACR}*%
X152125000Y-200800000D03*
D21*
%TO.P,U17,2,B*%
%TO.N,ONE*%
X154665000Y-200800000D03*
%TO.P,U17,3,~{CLR}*%
X157205000Y-200800000D03*
%TO.P,U17,4,~{Q}*%
%TO.N,unconnected-(U17-Pad4)*%
X159745000Y-200800000D03*
%TO.P,U17,5,Q*%
%TO.N,/PSG/PWA2*%
X162285000Y-200800000D03*
%TO.P,U17,6,Cext*%
%TO.N,Net-(C85-Pad2)*%
X164825000Y-200800000D03*
%TO.P,U17,7,RCext*%
%TO.N,Net-(C85-Pad1)*%
X167365000Y-200800000D03*
%TO.P,U17,8,GND*%
%TO.N,GND*%
X169905000Y-200800000D03*
%TO.P,U17,9,~{A}*%
%TO.N,~{CS_ACR}*%
X169905000Y-193180000D03*
%TO.P,U17,10,B*%
%TO.N,ONE*%
X167365000Y-193180000D03*
%TO.P,U17,11,~{CLR}*%
X164825000Y-193180000D03*
%TO.P,U17,12,~{Q}*%
%TO.N,unconnected-(U17-Pad12)*%
X162285000Y-193180000D03*
%TO.P,U17,13,Q*%
%TO.N,/PSG/PWA1*%
X159745000Y-193180000D03*
%TO.P,U17,14,Cext*%
%TO.N,Net-(C84-Pad2)*%
X157205000Y-193180000D03*
%TO.P,U17,15,RCext*%
%TO.N,Net-(C84-Pad1)*%
X154665000Y-193180000D03*
%TO.P,U17,16,VCC*%
%TO.N,VCC*%
X152125000Y-193180000D03*
%TD*%
D17*
%TO.P,C59,1*%
%TO.N,Net-(C59-Pad1)*%
X245135200Y-123170000D03*
D18*
%TO.P,C59,2*%
%TO.N,/VDP/COMP*%
X247635200Y-123170000D03*
%TD*%
D19*
%TO.P,JP9,1,A*%
%TO.N,L-CH*%
X104580000Y-87970000D03*
D20*
%TO.P,JP9,2,B*%
%TO.N,Net-(JP9-Pad2)*%
X104580000Y-90510000D03*
%TD*%
D18*
%TO.P,C17,1*%
%TO.N,VCCVDP*%
X158500000Y-174600000D03*
%TO.P,C17,2*%
%TO.N,GND*%
X163500000Y-174600000D03*
%TD*%
%TO.P,C5,1*%
%TO.N,VCC*%
X180250000Y-109250000D03*
%TO.P,C5,2*%
%TO.N,GND*%
X180250000Y-114250000D03*
%TD*%
D19*
%TO.P,JP4,1,A*%
%TO.N,GND*%
X132100000Y-139425000D03*
D20*
%TO.P,JP4,2,B*%
%TO.N,Net-(JP4-Pad2)*%
X132100000Y-141965000D03*
%TD*%
D17*
%TO.P,C8,1*%
%TO.N,VCCVDP*%
X176100000Y-174600000D03*
D18*
%TO.P,C8,2*%
%TO.N,GND*%
X178600000Y-174600000D03*
%TD*%
%TO.P,R17,1*%
%TO.N,Net-(C60-Pad1)*%
X247250000Y-129610000D03*
D21*
%TO.P,R17,2*%
%TO.N,Net-(R17-Pad2)*%
X247250000Y-137230000D03*
%TD*%
D19*
%TO.P,JP2,1,A*%
%TO.N,Net-(JP2-Pad1)*%
X50275000Y-188750000D03*
D20*
%TO.P,JP2,2,B*%
%TO.N,~{WAIT}*%
X52815000Y-188750000D03*
%TD*%
D18*
%TO.P,R23,1*%
%TO.N,Net-(C53-Pad1)*%
X148000000Y-140500000D03*
D21*
%TO.P,R23,2*%
%TO.N,Net-(C52-Pad1)*%
X148000000Y-148120000D03*
%TD*%
D18*
%TO.P,R30,1*%
%TO.N,Net-(C38-Pad1)*%
X109900000Y-112700000D03*
D21*
%TO.P,R30,2*%
%TO.N,Net-(C46-Pad1)*%
X117520000Y-112700000D03*
%TD*%
D18*
%TO.P,C85,1*%
%TO.N,Net-(C85-Pad1)*%
X161900000Y-184400000D03*
%TO.P,C85,2*%
%TO.N,Net-(C85-Pad2)*%
X166900000Y-184400000D03*
%TD*%
%TO.P,R16,1*%
%TO.N,Net-(C59-Pad1)*%
X241250000Y-129610000D03*
D21*
%TO.P,R16,2*%
%TO.N,Net-(R16-Pad2)*%
X241250000Y-137230000D03*
%TD*%
D18*
%TO.P,C80,1*%
%TO.N,GND*%
X97350000Y-131950000D03*
%TO.P,C80,2*%
%TO.N,Net-(C80-Pad2)*%
X92350000Y-131950000D03*
%TD*%
D22*
%TO.P,LS1,1,1*%
%TO.N,Net-(JP9-Pad2)*%
X78760000Y-86800000D03*
D23*
%TO.P,LS1,2,2*%
%TO.N,GND*%
X93760000Y-86800000D03*
%TD*%
D17*
%TO.P,C61,1*%
%TO.N,Net-(C61-Pad1)*%
X259567600Y-123170000D03*
D18*
%TO.P,C61,2*%
%TO.N,/VDP/CHROMA*%
X262067600Y-123170000D03*
%TD*%
%TO.P,R15,1*%
%TO.N,Net-(C58-Pad1)*%
X235250000Y-129610000D03*
D21*
%TO.P,R15,2*%
%TO.N,Net-(R15-Pad2)*%
X235250000Y-137230000D03*
%TD*%
D18*
%TO.P,R22,1*%
%TO.N,Net-(C4-Pad1)*%
X189940000Y-102250000D03*
D21*
%TO.P,R22,2*%
%TO.N,GND*%
X197560000Y-102250000D03*
%TD*%
D17*
%TO.P,U1,1,I1/CLK*%
%TO.N,unconnected-(U1-Pad1)*%
X104750000Y-213000000D03*
D21*
%TO.P,U1,2,I2*%
%TO.N,~{bWR}*%
X107290000Y-213000000D03*
%TO.P,U1,3,I3*%
%TO.N,~{CS_MEDIA}*%
X109830000Y-213000000D03*
%TO.P,U1,4,I4*%
%TO.N,~{bRD}*%
X112370000Y-213000000D03*
%TO.P,U1,5,I5*%
%TO.N,bA2*%
X114910000Y-213000000D03*
%TO.P,U1,6,I6*%
%TO.N,bA0*%
X117450000Y-213000000D03*
%TO.P,U1,7,I7*%
%TO.N,bA1*%
X119990000Y-213000000D03*
%TO.P,U1,8,I8*%
%TO.N,unconnected-(U1-Pad8)*%
X122530000Y-213000000D03*
%TO.P,U1,9,I9*%
%TO.N,unconnected-(U1-Pad9)*%
X125070000Y-213000000D03*
%TO.P,U1,10,GND*%
%TO.N,GND*%
X127610000Y-213000000D03*
%TO.P,U1,11,I10/~{OE}*%
%TO.N,unconnected-(U1-Pad11)*%
X127610000Y-205380000D03*
%TO.P,U1,12,IO8*%
%TO.N,unconnected-(U1-Pad12)*%
X125070000Y-205380000D03*
%TO.P,U1,13,IO7*%
%TO.N,unconnected-(U1-Pad13)*%
X122530000Y-205380000D03*
%TO.P,U1,14,IO6*%
%TO.N,~{CS_ACR}*%
X119990000Y-205380000D03*
%TO.P,U1,15,IO5*%
%TO.N,~{CS_ACR_WR}*%
X117450000Y-205380000D03*
%TO.P,U1,16,IO4*%
%TO.N,~{CS_PSG_A0}*%
X114910000Y-205380000D03*
%TO.P,U1,17,I03*%
%TO.N,~{CS_PSG_WR}*%
X112370000Y-205380000D03*
%TO.P,U1,18,IO2*%
%TO.N,~{VDP_RD}*%
X109830000Y-205380000D03*
%TO.P,U1,19,IO1*%
%TO.N,~{VDP_WR}*%
X107290000Y-205380000D03*
%TO.P,U1,20,VCC*%
%TO.N,VCC*%
X104750000Y-205380000D03*
%TD*%
D19*
%TO.P,JP8,1,A*%
%TO.N,VCC*%
X186725000Y-218250000D03*
D20*
%TO.P,JP8,2,C*%
%TO.N,/Amplifier/AMPPWR*%
X189265000Y-218250000D03*
%TO.P,JP8,3,B*%
%TO.N,+12V*%
X191805000Y-218250000D03*
%TD*%
D17*
%TO.P,U4,1*%
%TO.N,Net-(U24-Pad8)*%
X47675000Y-200800000D03*
D21*
%TO.P,U4,2*%
%TO.N,Net-(JP2-Pad1)*%
X50215000Y-200800000D03*
%TO.P,U4,3*%
%TO.N,/ACR/STATUS-VDP*%
X52755000Y-200800000D03*
%TO.P,U4,4*%
%TO.N,Net-(D2-Pad1)*%
X55295000Y-200800000D03*
%TO.P,U4,5*%
%TO.N,Net-(R24-Pad1)*%
X57835000Y-200800000D03*
%TO.P,U4,6*%
%TO.N,Net-(J7-Pad1)*%
X60375000Y-200800000D03*
%TO.P,U4,7,GND*%
%TO.N,GND*%
X62915000Y-200800000D03*
%TO.P,U4,8*%
%TO.N,Net-(R24-Pad1)*%
X62915000Y-193180000D03*
%TO.P,U4,9*%
%TO.N,~{VINT}*%
X60375000Y-193180000D03*
%TO.P,U4,10*%
%TO.N,Net-(D4-Pad1)*%
X57835000Y-193180000D03*
%TO.P,U4,11*%
%TO.N,/ACR/STATUS-PSG*%
X55295000Y-193180000D03*
%TO.P,U4,12*%
%TO.N,unconnected-(U4-Pad12)*%
X52755000Y-193180000D03*
%TO.P,U4,13*%
%TO.N,unconnected-(U4-Pad13)*%
X50215000Y-193180000D03*
%TO.P,U4,14,VCC*%
%TO.N,VCC*%
X47675000Y-193180000D03*
%TD*%
D18*
%TO.P,L1,1*%
%TO.N,Net-(C51-Pad2)*%
X258750000Y-164830000D03*
D21*
%TO.P,L1,2*%
%TO.N,GND*%
X258750000Y-154670000D03*
%TD*%
D19*
%TO.P,P8,1,Pin_1*%
%TO.N,Net-(P8-Pad1)*%
X75925000Y-188540000D03*
D20*
%TO.P,P8,2,Pin_2*%
%TO.N,Net-(P8-Pad2)*%
X75925000Y-186000000D03*
%TO.P,P8,3,Pin_3*%
%TO.N,Net-(P8-Pad1)*%
X78465000Y-188540000D03*
%TO.P,P8,4,Pin_4*%
%TO.N,Net-(P8-Pad4)*%
X78465000Y-186000000D03*
%TO.P,P8,5,Pin_5*%
%TO.N,Net-(P8-Pad5)*%
X81005000Y-188540000D03*
%TO.P,P8,6,Pin_6*%
%TO.N,/PSG/CLK_AY3*%
X81005000Y-186000000D03*
%TO.P,P8,7,Pin_7*%
%TO.N,Net-(P8-Pad7)*%
X83545000Y-188540000D03*
%TO.P,P8,8,Pin_8*%
X83545000Y-186000000D03*
%TO.P,P8,9,Pin_9*%
%TO.N,Net-(P8-Pad9)*%
X86085000Y-188540000D03*
%TO.P,P8,10,Pin_10*%
%TO.N,Net-(P8-Pad10)*%
X86085000Y-186000000D03*
%TD*%
D24*
%TO.P,NT2,1,1*%
%TO.N,GND*%
X120650000Y-192750000D03*
%TO.P,NT2,2,2*%
%TO.N,ZERO*%
X121850000Y-192750000D03*
%TD*%
D19*
%TO.P,J8,1,Pin_1*%
%TO.N,VCC*%
X148175000Y-89290000D03*
D20*
%TO.P,J8,2,Pin_2*%
%TO.N,Net-(J8-Pad2)*%
X150715000Y-89290000D03*
%TO.P,J8,3,Pin_3*%
%TO.N,/PSG/JOYBG*%
X153255000Y-89290000D03*
%TD*%
D18*
%TO.P,R3,1*%
%TO.N,GND*%
X213940000Y-99500000D03*
D21*
%TO.P,R3,2*%
%TO.N,/VDP/YS*%
X221560000Y-99500000D03*
%TD*%
D18*
%TO.P,C66,1*%
%TO.N,VCC*%
X217750000Y-139500000D03*
%TO.P,C66,2*%
%TO.N,GND*%
X217750000Y-134500000D03*
%TD*%
D17*
%TO.P,U7,1,OE*%
%TO.N,ZERO*%
X192850000Y-139550000D03*
D21*
%TO.P,U7,2,IO1*%
%TO.N,/VDP/VD0*%
X195390000Y-139550000D03*
%TO.P,U7,3,IO2*%
%TO.N,/VDP/VD1*%
X197930000Y-139550000D03*
%TO.P,U7,4,WE*%
%TO.N,/VDP/~{VRW}*%
X200470000Y-139550000D03*
%TO.P,U7,5,RAS*%
%TO.N,/VDP/~{RAS}*%
X203010000Y-139550000D03*
%TO.P,U7,6,A6*%
%TO.N,/VDP/AD6*%
X205550000Y-139550000D03*
%TO.P,U7,7,A5*%
%TO.N,/VDP/AD5*%
X208090000Y-139550000D03*
%TO.P,U7,8,A4*%
%TO.N,/VDP/AD4*%
X210630000Y-139550000D03*
%TO.P,U7,9,VCC*%
%TO.N,VCC*%
X213170000Y-139550000D03*
%TO.P,U7,10,A7*%
%TO.N,/VDP/AD7*%
X213170000Y-131930000D03*
%TO.P,U7,11,A3*%
%TO.N,/VDP/AD3*%
X210630000Y-131930000D03*
%TO.P,U7,12,A2*%
%TO.N,/VDP/AD2*%
X208090000Y-131930000D03*
%TO.P,U7,13,A1*%
%TO.N,/VDP/AD1*%
X205550000Y-131930000D03*
%TO.P,U7,14,A0*%
%TO.N,/VDP/AD0*%
X203010000Y-131930000D03*
%TO.P,U7,15,IO3*%
%TO.N,/VDP/VD2*%
X200470000Y-131930000D03*
%TO.P,U7,16,CAS*%
%TO.N,/VDP/~{CAS0}*%
X197930000Y-131930000D03*
%TO.P,U7,17,IO4*%
%TO.N,/VDP/VD3*%
X195390000Y-131930000D03*
%TO.P,U7,18,GND*%
%TO.N,GND*%
X192850000Y-131930000D03*
%TD*%
D19*
%TO.P,JP6,1,A*%
%TO.N,/VDP/~{HSYNC}*%
X180225000Y-168000000D03*
D20*
%TO.P,JP6,2,B*%
%TO.N,ZERO*%
X182765000Y-168000000D03*
%TD*%
D25*
%TO.P,D1,1,K*%
%TO.N,GND*%
X49250000Y-81100000D03*
D26*
%TO.P,D1,2,A*%
%TO.N,Net-(D1-Pad2)*%
X46710000Y-81100000D03*
%TD*%
D18*
%TO.P,R2,1*%
%TO.N,GND*%
X213940000Y-93500000D03*
D21*
%TO.P,R2,2*%
%TO.N,/VDP/AV*%
X221560000Y-93500000D03*
%TD*%
D18*
%TO.P,C48,1*%
%TO.N,VCCRGB*%
X252100000Y-183000000D03*
%TO.P,C48,2*%
%TO.N,GND*%
X247100000Y-183000000D03*
%TD*%
%TO.P,R5,1*%
%TO.N,GND*%
X223250000Y-177060000D03*
D21*
%TO.P,R5,2*%
%TO.N,/VDP/RED*%
X223250000Y-169440000D03*
%TD*%
D18*
%TO.P,R39,1*%
%TO.N,VCC*%
X135590000Y-189000000D03*
D21*
%TO.P,R39,2*%
%TO.N,Net-(C84-Pad2)*%
X143210000Y-189000000D03*
%TD*%
D19*
%TO.P,P13,1,Pin_1*%
%TO.N,Net-(P13-Pad1)*%
X178225000Y-187275000D03*
D20*
%TO.P,P13,2,Pin_2*%
%TO.N,/VDP/VSYNC*%
X178225000Y-184735000D03*
%TO.P,P13,3,Pin_3*%
%TO.N,/VDP/VGA-HSYNC*%
X180765000Y-187275000D03*
%TO.P,P13,4,Pin_4*%
%TO.N,/VDP/VGA-VSYNC*%
X180765000Y-184735000D03*
%TO.P,P13,5,Pin_5*%
%TO.N,/VDP/~{HSYNC}*%
X183305000Y-187275000D03*
%TO.P,P13,6,Pin_6*%
%TO.N,/VDP/~{VSYNC}*%
X183305000Y-184735000D03*
%TD*%
D17*
%TO.P,U5,1,GND*%
%TO.N,GND*%
X224275000Y-151270000D03*
D21*
%TO.P,U5,2,RIN*%
%TO.N,Net-(C43-Pad2)*%
X226815000Y-151270000D03*
%TO.P,U5,3,GIN*%
%TO.N,Net-(C44-Pad2)*%
X229355000Y-151270000D03*
%TO.P,U5,4,BIN*%
%TO.N,Net-(C45-Pad2)*%
X231895000Y-151270000D03*
%TO.P,U5,5,NC*%
%TO.N,unconnected-(U5-Pad5)*%
X234435000Y-151270000D03*
%TO.P,U5,6,SCIN*%
%TO.N,Net-(C49-Pad1)*%
X236975000Y-151270000D03*
%TO.P,U5,7,NTSC/~{PAL}*%
%TO.N,VCC*%
X239515000Y-151270000D03*
%TO.P,U5,8,BFOUT*%
%TO.N,unconnected-(U5-Pad8)*%
X242055000Y-151270000D03*
%TO.P,U5,9,YCLPC*%
%TO.N,Net-(C50-Pad1)*%
X244595000Y-151270000D03*
%TO.P,U5,10,SYNCIN*%
%TO.N,/VDP/SYNCIN*%
X247135000Y-151270000D03*
%TO.P,U5,11,NC*%
%TO.N,unconnected-(U5-Pad11)*%
X249675000Y-151270000D03*
%TO.P,U5,12,VCC*%
%TO.N,VCCRGB*%
X252215000Y-151270000D03*
%TO.P,U5,13,IREF*%
%TO.N,Net-(C55-Pad1)*%
X252215000Y-141110000D03*
%TO.P,U5,14,VREF*%
%TO.N,Net-(C54-Pad1)*%
X249675000Y-141110000D03*
%TO.P,U5,15,COUT*%
%TO.N,Net-(R18-Pad2)*%
X247135000Y-141110000D03*
%TO.P,U5,16,YOUT*%
%TO.N,Net-(R17-Pad2)*%
X244595000Y-141110000D03*
%TO.P,U5,17,YTRAP*%
%TO.N,Net-(C51-Pad1)*%
X242055000Y-141110000D03*
%TO.P,U5,18,FO*%
%TO.N,Net-(R11-Pad1)*%
X239515000Y-141110000D03*
%TO.P,U5,19,VCC*%
%TO.N,VCCRGB*%
X236975000Y-141110000D03*
%TO.P,U5,20,CVOUT*%
%TO.N,Net-(R16-Pad2)*%
X234435000Y-141110000D03*
%TO.P,U5,21,BOUT*%
%TO.N,Net-(R15-Pad2)*%
X231895000Y-141110000D03*
%TO.P,U5,22,GOUT*%
%TO.N,Net-(R14-Pad2)*%
X229355000Y-141110000D03*
%TO.P,U5,23,ROUT*%
%TO.N,Net-(R13-Pad2)*%
X226815000Y-141110000D03*
%TO.P,U5,24,GND*%
%TO.N,GND*%
X224275000Y-141110000D03*
%TD*%
D18*
%TO.P,R24,1*%
%TO.N,Net-(R24-Pad1)*%
X55990000Y-188750000D03*
D21*
%TO.P,R24,2*%
%TO.N,VCC*%
X63610000Y-188750000D03*
%TD*%
D27*
%TO.P,J14,1*%
%TO.N,GND*%
X185600000Y-78750000D03*
%TO.P,J14,2*%
X192400000Y-78750000D03*
%TO.P,J14,3*%
%TO.N,/VDP/LUMA*%
X185600000Y-81250000D03*
%TO.P,J14,4*%
%TO.N,/VDP/CHROMA*%
X192400000Y-81250000D03*
D28*
%TO.P,J14,~*%
%TO.N,N/C*%
X195750000Y-75750000D03*
X182250000Y-75750000D03*
X189000000Y-74950000D03*
%TD*%
D18*
%TO.P,R38,1*%
%TO.N,Net-(P8-Pad1)*%
X110100000Y-143700000D03*
D21*
%TO.P,R38,2*%
%TO.N,Net-(C81-Pad1)*%
X110100000Y-136080000D03*
%TD*%
D18*
%TO.P,R41,1*%
%TO.N,/PSG/POTA1*%
X145590000Y-189000000D03*
D21*
%TO.P,R41,2*%
%TO.N,Net-(C84-Pad2)*%
X153210000Y-189000000D03*
%TD*%
D18*
%TO.P,C79,1*%
%TO.N,VCC*%
X95400000Y-195900000D03*
%TO.P,C79,2*%
%TO.N,GND*%
X95400000Y-200900000D03*
%TD*%
D17*
%TO.P,C57,1*%
%TO.N,Net-(C57-Pad1)*%
X230612900Y-123170000D03*
D18*
%TO.P,C57,2*%
%TO.N,/VDP/GOUT*%
X233112900Y-123170000D03*
%TD*%
%TO.P,C15,1*%
%TO.N,VCC*%
X67000000Y-207500000D03*
%TO.P,C15,2*%
%TO.N,GND*%
X67000000Y-212500000D03*
%TD*%
%TO.P,C30,1*%
%TO.N,VCCVDP*%
X186300200Y-174600000D03*
%TO.P,C30,2*%
%TO.N,GND*%
X181300200Y-174600000D03*
%TD*%
D17*
%TO.P,U20,1,GND*%
%TO.N,GND*%
X92725000Y-162075000D03*
D21*
%TO.P,U20,2,NC2*%
%TO.N,unconnected-(U20-Pad2)*%
X95265000Y-162075000D03*
%TO.P,U20,3,OUTB*%
%TO.N,Net-(P8-Pad1)*%
X97805000Y-162075000D03*
%TO.P,U20,4,OUTA*%
%TO.N,Net-(P8-Pad4)*%
X100345000Y-162075000D03*
%TO.P,U20,5,NC5*%
%TO.N,unconnected-(U20-Pad5)*%
X102885000Y-162075000D03*
%TO.P,U20,6,IOB7*%
%TO.N,/PSG/SPAREB*%
X105425000Y-162075000D03*
%TO.P,U20,7,IOB6*%
%TO.N,/PSG/JOYBH*%
X107965000Y-162075000D03*
%TO.P,U20,8,IOB5*%
%TO.N,/PSG/JOYBG*%
X110505000Y-162075000D03*
%TO.P,U20,9,IOB4*%
%TO.N,/PSG/JOYBF*%
X113045000Y-162075000D03*
%TO.P,U20,10,IOB3*%
%TO.N,/PSG/JOYBR*%
X115585000Y-162075000D03*
%TO.P,U20,11,IOB2*%
%TO.N,/PSG/JOYBL*%
X118125000Y-162075000D03*
%TO.P,U20,12,IOB1*%
%TO.N,/PSG/JOYBD*%
X120665000Y-162075000D03*
%TO.P,U20,13,IOB0*%
%TO.N,/PSG/JOYBU*%
X123205000Y-162075000D03*
%TO.P,U20,14,IOA7*%
%TO.N,/PSG/SPAREA*%
X125745000Y-162075000D03*
%TO.P,U20,15,IOA6*%
%TO.N,/PSG/PWA2*%
X128285000Y-162075000D03*
%TO.P,U20,16,IOA5*%
%TO.N,/PSG/PWA1*%
X130825000Y-162075000D03*
%TO.P,U20,17,IOA4*%
%TO.N,/PSG/JOYAF*%
X133365000Y-162075000D03*
%TO.P,U20,18,IOA3*%
%TO.N,/PSG/JOYAR*%
X135905000Y-162075000D03*
%TO.P,U20,19,IOA2*%
%TO.N,/PSG/JOYAL*%
X138445000Y-162075000D03*
%TO.P,U20,20,IOA1*%
%TO.N,/PSG/JOYAD*%
X140985000Y-162075000D03*
%TO.P,U20,21,IOA0*%
%TO.N,/PSG/JOYAU*%
X140985000Y-146835000D03*
%TO.P,U20,22,CLOCK*%
%TO.N,Net-(P8-Pad7)*%
X138445000Y-146835000D03*
%TO.P,U20,23,RESET*%
%TO.N,~{RESAY3}*%
X135905000Y-146835000D03*
%TO.P,U20,24,A9*%
%TO.N,ZERO*%
X133365000Y-146835000D03*
%TO.P,U20,25,A8*%
%TO.N,ONE*%
X130825000Y-146835000D03*
%TO.P,U20,26,TEST2*%
%TO.N,Net-(JP4-Pad2)*%
X128285000Y-146835000D03*
%TO.P,U20,27,BDIR*%
%TO.N,~{CS_PSG_WR}*%
X125745000Y-146835000D03*
%TO.P,U20,28,BC2*%
%TO.N,ONE*%
X123205000Y-146835000D03*
%TO.P,U20,29,BC1*%
%TO.N,~{CS_PSG_A0}*%
X120665000Y-146835000D03*
%TO.P,U20,30,D7*%
%TO.N,bD7*%
X118125000Y-146835000D03*
%TO.P,U20,31,D6*%
%TO.N,bD6*%
X115585000Y-146835000D03*
%TO.P,U20,32,D5*%
%TO.N,bD5*%
X113045000Y-146835000D03*
%TO.P,U20,33,D4*%
%TO.N,bD4*%
X110505000Y-146835000D03*
%TO.P,U20,34,D3*%
%TO.N,bD3*%
X107965000Y-146835000D03*
%TO.P,U20,35,D2*%
%TO.N,bD2*%
X105425000Y-146835000D03*
%TO.P,U20,36,D1*%
%TO.N,bD1*%
X102885000Y-146835000D03*
%TO.P,U20,37,D0*%
%TO.N,bD0*%
X100345000Y-146835000D03*
%TO.P,U20,38,OUTC*%
%TO.N,Net-(P8-Pad2)*%
X97805000Y-146835000D03*
%TO.P,U20,39,TEST1*%
%TO.N,unconnected-(U20-Pad39)*%
X95265000Y-146835000D03*
%TO.P,U20,40,VCC*%
%TO.N,VCC*%
X92725000Y-146835000D03*
%TD*%
D19*
%TO.P,J3,1,Pin_1*%
%TO.N,Net-(J3-Pad1)*%
X126775000Y-183400000D03*
D20*
%TO.P,J3,2,Pin_2*%
%TO.N,/VDP/VGA-CSYNC*%
X129315000Y-183400000D03*
%TO.P,J3,3,Pin_3*%
%TO.N,/VDP/SYNCIN*%
X131855000Y-183400000D03*
%TD*%
D18*
%TO.P,C2,1*%
%TO.N,VCC*%
X147400000Y-195700000D03*
%TO.P,C2,2*%
%TO.N,GND*%
X147400000Y-200700000D03*
%TD*%
%TO.P,C12,1*%
%TO.N,VCC*%
X69065000Y-195900000D03*
%TO.P,C12,2*%
%TO.N,GND*%
X69065000Y-200900000D03*
%TD*%
D17*
%TO.P,U11,1,OE*%
%TO.N,ZERO*%
X161470000Y-127600000D03*
D21*
%TO.P,U11,2,IO1*%
%TO.N,/VDP/VD4*%
X164010000Y-127600000D03*
%TO.P,U11,3,IO2*%
%TO.N,/VDP/VD5*%
X166550000Y-127600000D03*
%TO.P,U11,4,WE*%
%TO.N,/VDP/~{VRW}*%
X169090000Y-127600000D03*
%TO.P,U11,5,RAS*%
%TO.N,/VDP/~{RAS}*%
X171630000Y-127600000D03*
%TO.P,U11,6,A6*%
%TO.N,/VDP/AD6*%
X174170000Y-127600000D03*
%TO.P,U11,7,A5*%
%TO.N,/VDP/AD5*%
X176710000Y-127600000D03*
%TO.P,U11,8,A4*%
%TO.N,/VDP/AD4*%
X179250000Y-127600000D03*
%TO.P,U11,9,VCC*%
%TO.N,VCC*%
X181790000Y-127600000D03*
%TO.P,U11,10,A7*%
%TO.N,/VDP/AD7*%
X181790000Y-119980000D03*
%TO.P,U11,11,A3*%
%TO.N,/VDP/AD3*%
X179250000Y-119980000D03*
%TO.P,U11,12,A2*%
%TO.N,/VDP/AD2*%
X176710000Y-119980000D03*
%TO.P,U11,13,A1*%
%TO.N,/VDP/AD1*%
X174170000Y-119980000D03*
%TO.P,U11,14,A0*%
%TO.N,/VDP/AD0*%
X171630000Y-119980000D03*
%TO.P,U11,15,IO3*%
%TO.N,/VDP/VD6*%
X169090000Y-119980000D03*
%TO.P,U11,16,CAS*%
%TO.N,/VDP/~{CAS1}*%
X166550000Y-119980000D03*
%TO.P,U11,17,IO4*%
%TO.N,/VDP/VD7*%
X164010000Y-119980000D03*
%TO.P,U11,18,GND*%
%TO.N,GND*%
X161470000Y-119980000D03*
%TD*%
D18*
%TO.P,R40,1*%
%TO.N,VCC*%
X165590000Y-189000000D03*
D21*
%TO.P,R40,2*%
%TO.N,Net-(C85-Pad2)*%
X173210000Y-189000000D03*
%TD*%
D18*
%TO.P,C49,1*%
%TO.N,Net-(C49-Pad1)*%
X238750000Y-166250000D03*
%TO.P,C49,2*%
%TO.N,GND*%
X243750000Y-166250000D03*
%TD*%
%TO.P,C51,1*%
%TO.N,Net-(C51-Pad1)*%
X252750000Y-154670000D03*
%TO.P,C51,2*%
%TO.N,Net-(C51-Pad2)*%
X252750000Y-159670000D03*
%TD*%
D19*
%TO.P,J4,1,Pin_1*%
%TO.N,/VDP/VGA-HSYNC*%
X209400000Y-104000000D03*
D20*
%TO.P,J4,2,Pin_2*%
%TO.N,Net-(J4-Pad2)*%
X209400000Y-106540000D03*
%TO.P,J4,3,Pin_3*%
%TO.N,/VDP/VGA-CSYNC*%
X209400000Y-109080000D03*
%TD*%
D17*
%TO.P,C21,1*%
%TO.N,VCC*%
X216400000Y-169400000D03*
D18*
%TO.P,C21,2*%
%TO.N,GND*%
X218900000Y-169400000D03*
%TD*%
D19*
%TO.P,JP13,1,A*%
%TO.N,Net-(J7-Pad1)*%
X72500000Y-219000000D03*
D20*
%TO.P,JP13,2,B*%
%TO.N,~{INT0}*%
X75040000Y-219000000D03*
%TD*%
D29*
%TO.P,X1,1,1*%
%TO.N,Net-(C52-Pad1)*%
X153750000Y-147700000D03*
%TO.P,X1,2,2*%
%TO.N,Net-(C53-Pad1)*%
X153750000Y-142820000D03*
%TD*%
D18*
%TO.P,C19,1*%
%TO.N,VCC*%
X87794900Y-151900000D03*
%TO.P,C19,2*%
%TO.N,GND*%
X87794900Y-156900000D03*
%TD*%
D17*
%TO.P,U10,1,OE*%
%TO.N,ZERO*%
X192850000Y-127750000D03*
D21*
%TO.P,U10,2,IO1*%
%TO.N,/VDP/VD0*%
X195390000Y-127750000D03*
%TO.P,U10,3,IO2*%
%TO.N,/VDP/VD1*%
X197930000Y-127750000D03*
%TO.P,U10,4,WE*%
%TO.N,/VDP/~{VRW}*%
X200470000Y-127750000D03*
%TO.P,U10,5,RAS*%
%TO.N,/VDP/~{RAS}*%
X203010000Y-127750000D03*
%TO.P,U10,6,A6*%
%TO.N,/VDP/AD6*%
X205550000Y-127750000D03*
%TO.P,U10,7,A5*%
%TO.N,/VDP/AD5*%
X208090000Y-127750000D03*
%TO.P,U10,8,A4*%
%TO.N,/VDP/AD4*%
X210630000Y-127750000D03*
%TO.P,U10,9,VCC*%
%TO.N,VCC*%
X213170000Y-127750000D03*
%TO.P,U10,10,A7*%
%TO.N,/VDP/AD7*%
X213170000Y-120130000D03*
%TO.P,U10,11,A3*%
%TO.N,/VDP/AD3*%
X210630000Y-120130000D03*
%TO.P,U10,12,A2*%
%TO.N,/VDP/AD2*%
X208090000Y-120130000D03*
%TO.P,U10,13,A1*%
%TO.N,/VDP/AD1*%
X205550000Y-120130000D03*
%TO.P,U10,14,A0*%
%TO.N,/VDP/AD0*%
X203010000Y-120130000D03*
%TO.P,U10,15,IO3*%
%TO.N,/VDP/VD2*%
X200470000Y-120130000D03*
%TO.P,U10,16,CAS*%
%TO.N,/VDP/~{CAS1}*%
X197930000Y-120130000D03*
%TO.P,U10,17,IO4*%
%TO.N,/VDP/VD3*%
X195390000Y-120130000D03*
%TO.P,U10,18,GND*%
%TO.N,GND*%
X192850000Y-120130000D03*
%TD*%
D17*
%TO.P,U8,1,OE*%
%TO.N,ZERO*%
X161310000Y-139770000D03*
D21*
%TO.P,U8,2,IO1*%
%TO.N,/VDP/VD4*%
X163850000Y-139770000D03*
%TO.P,U8,3,IO2*%
%TO.N,/VDP/VD5*%
X166390000Y-139770000D03*
%TO.P,U8,4,WE*%
%TO.N,/VDP/~{VRW}*%
X168930000Y-139770000D03*
%TO.P,U8,5,RAS*%
%TO.N,/VDP/~{RAS}*%
X171470000Y-139770000D03*
%TO.P,U8,6,A6*%
%TO.N,/VDP/AD6*%
X174010000Y-139770000D03*
%TO.P,U8,7,A5*%
%TO.N,/VDP/AD5*%
X176550000Y-139770000D03*
%TO.P,U8,8,A4*%
%TO.N,/VDP/AD4*%
X179090000Y-139770000D03*
%TO.P,U8,9,VCC*%
%TO.N,VCC*%
X181630000Y-139770000D03*
%TO.P,U8,10,A7*%
%TO.N,/VDP/AD7*%
X181630000Y-132150000D03*
%TO.P,U8,11,A3*%
%TO.N,/VDP/AD3*%
X179090000Y-132150000D03*
%TO.P,U8,12,A2*%
%TO.N,/VDP/AD2*%
X176550000Y-132150000D03*
%TO.P,U8,13,A1*%
%TO.N,/VDP/AD1*%
X174010000Y-132150000D03*
%TO.P,U8,14,A0*%
%TO.N,/VDP/AD0*%
X171470000Y-132150000D03*
%TO.P,U8,15,IO3*%
%TO.N,/VDP/VD6*%
X168930000Y-132150000D03*
%TO.P,U8,16,CAS*%
%TO.N,/VDP/~{CAS0}*%
X166390000Y-132150000D03*
%TO.P,U8,17,IO4*%
%TO.N,/VDP/VD7*%
X163850000Y-132150000D03*
%TO.P,U8,18,GND*%
%TO.N,GND*%
X161310000Y-132150000D03*
%TD*%
D17*
%TO.P,C56,1*%
%TO.N,Net-(C56-Pad1)*%
X223385200Y-123170000D03*
D18*
%TO.P,C56,2*%
%TO.N,/VDP/ROUT*%
X225885200Y-123170000D03*
%TD*%
%TO.P,C53,1*%
%TO.N,Net-(C53-Pad1)*%
X155500000Y-137500000D03*
%TO.P,C53,2*%
%TO.N,GND*%
X150500000Y-137500000D03*
%TD*%
D17*
%TO.P,C36,1*%
%TO.N,Net-(C36-Pad1)*%
X143949800Y-98980000D03*
D18*
%TO.P,C36,2*%
%TO.N,GND*%
X146449800Y-98980000D03*
%TD*%
D19*
%TO.P,P4,1,Pin_1*%
%TO.N,~{IEO}*%
X51200000Y-219000000D03*
D20*
%TO.P,P4,2,Pin_2*%
%TO.N,~{IEI}*%
X53740000Y-219000000D03*
%TO.P,P4,3,Pin_3*%
%TO.N,~{BAO}*%
X56280000Y-219000000D03*
%TO.P,P4,4,Pin_4*%
%TO.N,~{BAI}*%
X58820000Y-219000000D03*
%TD*%
D18*
%TO.P,R19,1*%
%TO.N,Net-(C55-Pad1)*%
X259250000Y-129750000D03*
D21*
%TO.P,R19,2*%
%TO.N,GND*%
X259250000Y-137370000D03*
%TD*%
D19*
%TO.P,J2,1,Pin_1*%
%TO.N,L-CH*%
X209400000Y-92775000D03*
D20*
%TO.P,J2,2,Pin_2*%
%TO.N,/VDP/AUDIO*%
X209400000Y-95315000D03*
%TO.P,J2,3,Pin_3*%
%TO.N,GND*%
X209400000Y-97855000D03*
%TD*%
D18*
%TO.P,R6,1*%
%TO.N,Net-(D2-Pad2)*%
X62190000Y-89620000D03*
D21*
%TO.P,R6,2*%
%TO.N,VCC*%
X69810000Y-89620000D03*
%TD*%
D18*
%TO.P,C6,1*%
%TO.N,VCC*%
X167500000Y-207750000D03*
%TO.P,C6,2*%
%TO.N,GND*%
X167500000Y-212750000D03*
%TD*%
D17*
%TO.P,U14,1,A->B*%
%TO.N,~{RD}*%
X205575000Y-212800000D03*
D21*
%TO.P,U14,2,A0*%
%TO.N,D0*%
X208115000Y-212800000D03*
%TO.P,U14,3,A1*%
%TO.N,D1*%
X210655000Y-212800000D03*
%TO.P,U14,4,A2*%
%TO.N,D2*%
X213195000Y-212800000D03*
%TO.P,U14,5,A3*%
%TO.N,D3*%
X215735000Y-212800000D03*
%TO.P,U14,6,A4*%
%TO.N,D4*%
X218275000Y-212800000D03*
%TO.P,U14,7,A5*%
%TO.N,D5*%
X220815000Y-212800000D03*
%TO.P,U14,8,A6*%
%TO.N,D6*%
X223355000Y-212800000D03*
%TO.P,U14,9,A7*%
%TO.N,D7*%
X225895000Y-212800000D03*
%TO.P,U14,10,GND*%
%TO.N,GND*%
X228435000Y-212800000D03*
%TO.P,U14,11,B7*%
%TO.N,bD7*%
X228435000Y-205180000D03*
%TO.P,U14,12,B6*%
%TO.N,bD6*%
X225895000Y-205180000D03*
%TO.P,U14,13,B5*%
%TO.N,bD5*%
X223355000Y-205180000D03*
%TO.P,U14,14,B4*%
%TO.N,bD4*%
X220815000Y-205180000D03*
%TO.P,U14,15,B3*%
%TO.N,bD3*%
X218275000Y-205180000D03*
%TO.P,U14,16,B2*%
%TO.N,bD2*%
X215735000Y-205180000D03*
%TO.P,U14,17,B1*%
%TO.N,bD1*%
X213195000Y-205180000D03*
%TO.P,U14,18,B0*%
%TO.N,bD0*%
X210655000Y-205180000D03*
%TO.P,U14,19,CE*%
%TO.N,~{CS_MEDIA}*%
X208115000Y-205180000D03*
%TO.P,U14,20,VCC*%
%TO.N,VCC*%
X205575000Y-205180000D03*
%TD*%
D18*
%TO.P,R7,1*%
%TO.N,GND*%
X252750000Y-169440000D03*
D21*
%TO.P,R7,2*%
%TO.N,Net-(Q1-Pad3)*%
X252750000Y-177060000D03*
%TD*%
D18*
%TO.P,C9,1*%
%TO.N,VCC*%
X200400000Y-195700000D03*
%TO.P,C9,2*%
%TO.N,GND*%
X200400000Y-200700000D03*
%TD*%
%TO.P,R25,1*%
%TO.N,Net-(D3-Pad2)*%
X62190000Y-95600000D03*
D21*
%TO.P,R25,2*%
%TO.N,VCC*%
X69810000Y-95600000D03*
%TD*%
D18*
%TO.P,R12,1*%
%TO.N,/VDP/~{DLCLK}*%
X169500000Y-167750000D03*
D21*
%TO.P,R12,2*%
%TO.N,VCC*%
X177120000Y-167750000D03*
%TD*%
D17*
%TO.P,C83,1*%
%TO.N,Net-(C81-Pad1)*%
X125689800Y-124950000D03*
D18*
%TO.P,C83,2*%
%TO.N,AUDIO_R*%
X128189800Y-124950000D03*
%TD*%
D17*
%TO.P,RN1,1,common*%
%TO.N,VCC*%
X175025000Y-201200000D03*
D21*
%TO.P,RN1,2,R1*%
%TO.N,Net-(RN1-Pad2)*%
X177565000Y-201200000D03*
%TO.P,RN1,3,R2*%
%TO.N,Net-(RN1-Pad3)*%
X180105000Y-201200000D03*
%TO.P,RN1,4,R3*%
%TO.N,Net-(RN1-Pad4)*%
X182645000Y-201200000D03*
%TO.P,RN1,5,R4*%
%TO.N,Net-(RN1-Pad5)*%
X185185000Y-201200000D03*
%TO.P,RN1,6,R5*%
%TO.N,Net-(RN1-Pad6)*%
X187725000Y-201200000D03*
%TO.P,RN1,7,R6*%
%TO.N,unconnected-(RN1-Pad7)*%
X190265000Y-201200000D03*
%TO.P,RN1,8,R7*%
%TO.N,unconnected-(RN1-Pad8)*%
X192805000Y-201200000D03*
%TO.P,RN1,9,R8*%
%TO.N,Net-(RN1-Pad9)*%
X195345000Y-201200000D03*
%TD*%
D18*
%TO.P,L3,1*%
%TO.N,VCC*%
X231540000Y-183000000D03*
D21*
%TO.P,L3,2*%
%TO.N,VCCRGB*%
X239160000Y-183000000D03*
%TD*%
D19*
%TO.P,P6,1,Pin_1*%
%TO.N,GND*%
X194125000Y-170525000D03*
D20*
%TO.P,P6,2,Pin_2*%
%TO.N,VCC*%
X194125000Y-167985000D03*
%TO.P,P6,3,Pin_3*%
%TO.N,/VDP/~{DHCLK}*%
X196665000Y-170525000D03*
%TO.P,P6,4,Pin_4*%
%TO.N,/VDP/~{DLCLK}*%
X196665000Y-167985000D03*
%TO.P,P6,5,Pin_5*%
%TO.N,/VDP/C0*%
X199205000Y-170525000D03*
%TO.P,P6,6,Pin_6*%
%TO.N,/VDP/C1*%
X199205000Y-167985000D03*
%TO.P,P6,7,Pin_7*%
%TO.N,/VDP/C2*%
X201745000Y-170525000D03*
%TO.P,P6,8,Pin_8*%
%TO.N,/VDP/C3*%
X201745000Y-167985000D03*
%TO.P,P6,9,Pin_9*%
%TO.N,/VDP/C4*%
X204285000Y-170525000D03*
%TO.P,P6,10,Pin_10*%
%TO.N,/VDP/C5*%
X204285000Y-167985000D03*
%TO.P,P6,11,Pin_11*%
%TO.N,/VDP/C6*%
X206825000Y-170525000D03*
%TO.P,P6,12,Pin_12*%
%TO.N,/VDP/C7*%
X206825000Y-167985000D03*
%TO.P,P6,13,Pin_13*%
%TO.N,unconnected-(P6-Pad13)*%
X209365000Y-170525000D03*
%TO.P,P6,14,Pin_14*%
%TO.N,/VDP/CBDR*%
X209365000Y-167985000D03*
%TO.P,P6,15,Pin_15*%
%TO.N,VCC*%
X211905000Y-170525000D03*
%TO.P,P6,16,Pin_16*%
%TO.N,GND*%
X211905000Y-167985000D03*
%TD*%
D30*
%TO.P,P11,1,Pin_1*%
%TO.N,/PSG/JOYBU*%
X154670000Y-83742500D03*
D12*
%TO.P,P11,2,Pin_2*%
%TO.N,/PSG/JOYBD*%
X154670000Y-81202500D03*
%TO.P,P11,3,Pin_3*%
%TO.N,/PSG/JOYBL*%
X157210000Y-83742500D03*
%TO.P,P11,4,Pin_4*%
%TO.N,/PSG/JOYBR*%
X157210000Y-81202500D03*
%TO.P,P11,5,Pin_5*%
%TO.N,Net-(J11-Pad2)*%
X159750000Y-83742500D03*
%TO.P,P11,6,Pin_6*%
%TO.N,/PSG/JOYBF*%
X159750000Y-81202500D03*
%TO.P,P11,7,Pin_7*%
%TO.N,Net-(J11-Pad4)*%
X162290000Y-83742500D03*
%TO.P,P11,8,Pin_8*%
%TO.N,GND*%
X162290000Y-81202500D03*
%TO.P,P11,9,Pin_9*%
%TO.N,Net-(J8-Pad2)*%
X164830000Y-83742500D03*
%TO.P,P11,10,Pin_10*%
%TO.N,Net-(J11-Pad6)*%
X164830000Y-81202500D03*
%TD*%
D19*
%TO.P,JP5,1,A*%
%TO.N,VRY_CLK*%
X86425000Y-219000000D03*
D20*
%TO.P,JP5,2,B*%
%TO.N,CLK*%
X88965000Y-219000000D03*
%TD*%
D17*
%TO.P,U15,1,OEa*%
%TO.N,ZERO*%
X71500000Y-213000000D03*
D21*
%TO.P,U15,2,I0a*%
%TO.N,Net-(J9-Pad2)*%
X74040000Y-213000000D03*
%TO.P,U15,3,O3b*%
%TO.N,~{bRD}*%
X76580000Y-213000000D03*
%TO.P,U15,4,I1a*%
%TO.N,VRY*%
X79120000Y-213000000D03*
%TO.P,U15,5,O2b*%
%TO.N,~{bWR}*%
X81660000Y-213000000D03*
%TO.P,U15,6,I2a*%
%TO.N,unconnected-(U15-Pad6)*%
X84200000Y-213000000D03*
%TO.P,U15,7,O1b*%
%TO.N,~{bM1}*%
X86740000Y-213000000D03*
%TO.P,U15,8,I3a*%
%TO.N,unconnected-(U15-Pad8)*%
X89280000Y-213000000D03*
%TO.P,U15,9,O0b*%
%TO.N,~{bIORQ}*%
X91820000Y-213000000D03*
%TO.P,U15,10,GND*%
%TO.N,GND*%
X94360000Y-213000000D03*
%TO.P,U15,11,I0b*%
%TO.N,~{IORQ}*%
X94360000Y-205380000D03*
%TO.P,U15,12,O3a*%
%TO.N,unconnected-(U15-Pad12)*%
X91820000Y-205380000D03*
%TO.P,U15,13,I1b*%
%TO.N,~{M1}*%
X89280000Y-205380000D03*
%TO.P,U15,14,O2a*%
%TO.N,unconnected-(U15-Pad14)*%
X86740000Y-205380000D03*
%TO.P,U15,15,I2b*%
%TO.N,~{WR}*%
X84200000Y-205380000D03*
%TO.P,U15,16,O1a*%
%TO.N,VRY_CLK*%
X81660000Y-205380000D03*
%TO.P,U15,17,I3b*%
%TO.N,~{RD}*%
X79120000Y-205380000D03*
%TO.P,U15,18,O0a*%
%TO.N,~{bRESET}*%
X76580000Y-205380000D03*
%TO.P,U15,19,OEb*%
%TO.N,ZERO*%
X74040000Y-205380000D03*
%TO.P,U15,20,VCC*%
%TO.N,VCC*%
X71500000Y-205380000D03*
%TD*%
D18*
%TO.P,C14,1*%
%TO.N,VCC*%
X121200000Y-195900000D03*
%TO.P,C14,2*%
%TO.N,GND*%
X121200000Y-200900000D03*
%TD*%
D17*
%TO.P,C26,1*%
%TO.N,VCC*%
X196200000Y-218600000D03*
D18*
%TO.P,C26,2*%
%TO.N,GND*%
X198700000Y-218600000D03*
%TD*%
D19*
%TO.P,P5,1,Pin_1*%
%TO.N,/VDP/ROUT*%
X179875000Y-94525000D03*
D20*
%TO.P,P5,2,Pin_2*%
%TO.N,/VDP/GOUT*%
X179875000Y-91985000D03*
%TO.P,P5,3,Pin_3*%
%TO.N,/VDP/BOUT*%
X182415000Y-94525000D03*
%TO.P,P5,4,Pin_4*%
%TO.N,unconnected-(P5-Pad4)*%
X182415000Y-91985000D03*
%TO.P,P5,5,Pin_5*%
%TO.N,GND*%
X184955000Y-94525000D03*
%TO.P,P5,6,Pin_6*%
X184955000Y-91985000D03*
%TO.P,P5,7,Pin_7*%
X187495000Y-94525000D03*
%TO.P,P5,8,Pin_8*%
X187495000Y-91985000D03*
%TO.P,P5,9,Pin_9*%
%TO.N,VCC*%
X190035000Y-94525000D03*
%TO.P,P5,10,Pin_10*%
%TO.N,GND*%
X190035000Y-91985000D03*
%TO.P,P5,11,Pin_11*%
%TO.N,unconnected-(P5-Pad11)*%
X192575000Y-94525000D03*
%TO.P,P5,12,Pin_12*%
%TO.N,unconnected-(P5-Pad12)*%
X192575000Y-91985000D03*
%TO.P,P5,13,Pin_13*%
%TO.N,Net-(J4-Pad2)*%
X195115000Y-94525000D03*
%TO.P,P5,14,Pin_14*%
%TO.N,/VDP/VGA-VSYNC*%
X195115000Y-91985000D03*
%TO.P,P5,15,Pin_15*%
%TO.N,unconnected-(P5-Pad15)*%
X197655000Y-94525000D03*
%TO.P,P5,16,Pin_16*%
%TO.N,/VDP/VGA-CSYNC*%
X197655000Y-91985000D03*
%TD*%
D18*
%TO.P,C32,1*%
%TO.N,AUDIO_L*%
X107300000Y-101700000D03*
%TO.P,C32,2*%
%TO.N,GND*%
X112300000Y-101700000D03*
%TD*%
D19*
%TO.P,J11,1,Pin_1*%
%TO.N,/PSG/JOYBH*%
X159175000Y-90565000D03*
D20*
%TO.P,J11,2,Pin_2*%
%TO.N,Net-(J11-Pad2)*%
X159175000Y-88025000D03*
%TO.P,J11,3,Pin_3*%
%TO.N,/PSG/JOYBG*%
X161715000Y-90565000D03*
%TO.P,J11,4,Pin_4*%
%TO.N,Net-(J11-Pad4)*%
X161715000Y-88025000D03*
%TO.P,J11,5,Pin_5*%
%TO.N,VCC*%
X164255000Y-90565000D03*
%TO.P,J11,6,Pin_6*%
%TO.N,Net-(J11-Pad6)*%
X164255000Y-88025000D03*
%TD*%
D18*
%TO.P,C7,1*%
%TO.N,VCC*%
X218750000Y-154300000D03*
%TO.P,C7,2*%
%TO.N,GND*%
X218750000Y-159300000D03*
%TD*%
%TO.P,C40,1*%
%TO.N,Net-(C40-Pad1)*%
X135374700Y-107965000D03*
%TO.P,C40,2*%
%TO.N,GND*%
X140374700Y-107965000D03*
%TD*%
%TO.P,R20,1*%
%TO.N,/VDP/AV*%
X223940000Y-93500000D03*
D21*
%TO.P,R20,2*%
%TO.N,VCC*%
X231560000Y-93500000D03*
%TD*%
D17*
%TO.P,U2,1,GAIN*%
%TO.N,unconnected-(U2-Pad1)*%
X122942000Y-108500000D03*
D21*
%TO.P,U2,2,-*%
%TO.N,GND*%
X125482000Y-108500000D03*
%TO.P,U2,3,+*%
%TO.N,AUDIO_L*%
X128022000Y-108500000D03*
%TO.P,U2,4,GND*%
%TO.N,GND*%
X130562000Y-108500000D03*
%TO.P,U2,5*%
%TO.N,Net-(C46-Pad1)*%
X130562000Y-100880000D03*
%TO.P,U2,6,V+*%
%TO.N,/Amplifier/AMPPWR*%
X128022000Y-100880000D03*
%TO.P,U2,7,BYPASS*%
%TO.N,Net-(C35-Pad1)*%
X125482000Y-100880000D03*
%TO.P,U2,8,GAIN*%
%TO.N,unconnected-(U2-Pad8)*%
X122942000Y-100880000D03*
%TD*%
D18*
%TO.P,R11,1*%
%TO.N,Net-(R11-Pad1)*%
X240750000Y-154690000D03*
D21*
%TO.P,R11,2*%
%TO.N,GND*%
X240750000Y-162310000D03*
%TD*%
D18*
%TO.P,C31,1*%
%TO.N,AUDIO_R*%
X135374700Y-101715000D03*
%TO.P,C31,2*%
%TO.N,GND*%
X140374700Y-101715000D03*
%TD*%
%TO.P,C33,1*%
%TO.N,GND*%
X116992000Y-108200000D03*
%TO.P,C33,2*%
%TO.N,/Amplifier/AMPPWR*%
X116992000Y-103200000D03*
%TD*%
%TO.P,C84,1*%
%TO.N,Net-(C84-Pad1)*%
X151900000Y-184400000D03*
%TO.P,C84,2*%
%TO.N,Net-(C84-Pad2)*%
X156900000Y-184400000D03*
%TD*%
D17*
%TO.P,C22,1*%
%TO.N,VCC*%
X92769300Y-189000000D03*
D18*
%TO.P,C22,2*%
%TO.N,GND*%
X95269300Y-189000000D03*
%TD*%
D25*
%TO.P,D2,1,K*%
%TO.N,Net-(D2-Pad1)*%
X63250000Y-81100000D03*
D26*
%TO.P,D2,2,A*%
%TO.N,Net-(D2-Pad2)*%
X60710000Y-81100000D03*
%TD*%
D18*
%TO.P,C41,1*%
%TO.N,/VDP/RED*%
X223250000Y-162000000D03*
%TO.P,C41,2*%
%TO.N,GND*%
X223250000Y-167000000D03*
%TD*%
D17*
%TO.P,U3,1,GAIN*%
%TO.N,unconnected-(U3-Pad1)*%
X151100000Y-108515000D03*
D21*
%TO.P,U3,2,-*%
%TO.N,GND*%
X153640000Y-108515000D03*
%TO.P,U3,3,+*%
%TO.N,AUDIO_R*%
X156180000Y-108515000D03*
%TO.P,U3,4,GND*%
%TO.N,GND*%
X158720000Y-108515000D03*
%TO.P,U3,5*%
%TO.N,Net-(C42-Pad1)*%
X158720000Y-100895000D03*
%TO.P,U3,6,V+*%
%TO.N,/Amplifier/AMPPWR*%
X156180000Y-100895000D03*
%TO.P,U3,7,BYPASS*%
%TO.N,Net-(C36-Pad1)*%
X153640000Y-100895000D03*
%TO.P,U3,8,GAIN*%
%TO.N,unconnected-(U3-Pad8)*%
X151100000Y-100895000D03*
%TD*%
D18*
%TO.P,R37,1*%
%TO.N,Net-(C40-Pad1)*%
X137590000Y-112800000D03*
D21*
%TO.P,R37,2*%
%TO.N,Net-(C42-Pad1)*%
X145210000Y-112800000D03*
%TD*%
D17*
%TO.P,C82,1*%
%TO.N,Net-(C80-Pad2)*%
X93599800Y-124450000D03*
D18*
%TO.P,C82,2*%
%TO.N,AUDIO_L*%
X96099800Y-124450000D03*
%TD*%
D17*
%TO.P,C35,1*%
%TO.N,Net-(C35-Pad1)*%
X115786900Y-98950000D03*
D18*
%TO.P,C35,2*%
%TO.N,GND*%
X118286900Y-98950000D03*
%TD*%
%TO.P,C81,1*%
%TO.N,Net-(C81-Pad1)*%
X129600000Y-132450000D03*
%TO.P,C81,2*%
%TO.N,GND*%
X124600000Y-132450000D03*
%TD*%
%TO.P,C38,1*%
%TO.N,Net-(C38-Pad1)*%
X107300000Y-107950000D03*
%TO.P,C38,2*%
%TO.N,GND*%
X112300000Y-107950000D03*
%TD*%
%TO.P,R18,1*%
%TO.N,Net-(C61-Pad1)*%
X253250000Y-129610000D03*
D21*
%TO.P,R18,2*%
%TO.N,Net-(R18-Pad2)*%
X253250000Y-137230000D03*
%TD*%
D18*
%TO.P,R27,1*%
%TO.N,GND*%
X234750000Y-177060000D03*
D21*
%TO.P,R27,2*%
%TO.N,/VDP/BLUE*%
X234750000Y-169440000D03*
%TD*%
D19*
%TO.P,J1,1,Pin_1*%
%TO.N,GND*%
X191575000Y-183175000D03*
D20*
%TO.P,J1,2,Pin_2*%
%TO.N,/VDP/VCCO*%
X191575000Y-180635000D03*
%TO.P,J1,3,Pin_3*%
%TO.N,GND*%
X194115000Y-183175000D03*
%TO.P,J1,4,Pin_4*%
%TO.N,VRY*%
X194115000Y-180635000D03*
%TO.P,J1,5,Pin_5*%
%TO.N,bD7*%
X196655000Y-183175000D03*
%TO.P,J1,6,Pin_6*%
%TO.N,~{LPS-WAIT}*%
X196655000Y-180635000D03*
%TO.P,J1,7,Pin_7*%
%TO.N,bD6*%
X199195000Y-183175000D03*
%TO.P,J1,8,Pin_8*%
%TO.N,unconnected-(J1-Pad8)*%
X199195000Y-180635000D03*
%TO.P,J1,9,Pin_9*%
%TO.N,bD5*%
X201735000Y-183175000D03*
%TO.P,J1,10,Pin_10*%
%TO.N,bA1*%
X201735000Y-180635000D03*
%TO.P,J1,11,Pin_11*%
%TO.N,bD4*%
X204275000Y-183175000D03*
%TO.P,J1,12,Pin_12*%
%TO.N,~{RESVDP}*%
X204275000Y-180635000D03*
%TO.P,J1,13,Pin_13*%
%TO.N,bD3*%
X206815000Y-183175000D03*
%TO.P,J1,14,Pin_14*%
%TO.N,bA0*%
X206815000Y-180635000D03*
%TO.P,J1,15,Pin_15*%
%TO.N,bD2*%
X209355000Y-183175000D03*
%TO.P,J1,16,Pin_16*%
%TO.N,~{VDP_WR}*%
X209355000Y-180635000D03*
%TO.P,J1,17,Pin_17*%
%TO.N,bD1*%
X211895000Y-183175000D03*
%TO.P,J1,18,Pin_18*%
%TO.N,~{VDP_RD}*%
X211895000Y-180635000D03*
%TO.P,J1,19,Pin_19*%
%TO.N,bD0*%
X214435000Y-183175000D03*
%TO.P,J1,20,Pin_20*%
%TO.N,~{VINT}*%
X214435000Y-180635000D03*
%TD*%
D31*
%TO.P,C52,1*%
%TO.N,Net-(C52-Pad1)*%
X155360100Y-155000000D03*
%TO.P,C52,2*%
%TO.N,GND*%
X149360097Y-155000000D03*
%TD*%
D18*
%TO.P,R10,1*%
%TO.N,Net-(D4-Pad2)*%
X52190000Y-89620000D03*
D21*
%TO.P,R10,2*%
%TO.N,VCC*%
X59810000Y-89620000D03*
%TD*%
D18*
%TO.P,R42,1*%
%TO.N,/PSG/POTA2*%
X155590000Y-189000000D03*
D21*
%TO.P,R42,2*%
%TO.N,Net-(C85-Pad2)*%
X163210000Y-189000000D03*
%TD*%
D25*
%TO.P,D4,1,K*%
%TO.N,Net-(D4-Pad1)*%
X56250000Y-81100000D03*
D26*
%TO.P,D4,2,A*%
%TO.N,Net-(D4-Pad2)*%
X53710000Y-81100000D03*
%TD*%
D32*
%TO.P,U6,1,GND*%
%TO.N,GND*%
X159753060Y-163267400D03*
D33*
%TO.P,U6,2,~{DHCLK}*%
%TO.N,/VDP/~{DHCLK}*%
X161432000Y-163267400D03*
%TO.P,U6,3,~{DLCLK}*%
%TO.N,/VDP/~{DLCLK}*%
X163311600Y-163267400D03*
%TO.P,U6,4,~{VDS}/~{VRESET}*%
%TO.N,Net-(JP7-Pad1)*%
X165092140Y-163267400D03*
%TO.P,U6,5,~{HSYNC}*%
%TO.N,/VDP/~{HSYNC}*%
X166872680Y-163267400D03*
%TO.P,U6,6,~{CSYNC}*%
%TO.N,/VDP/~{CSYNC}*%
X168653220Y-163267400D03*
%TO.P,U6,7,BLEO*%
%TO.N,/VDP/BLANK*%
X170431220Y-163267400D03*
%TO.P,U6,8,CPUCLK/~{VDS}*%
%TO.N,VRY*%
X172211760Y-163267400D03*
%TO.P,U6,9,~{RESET}*%
%TO.N,~{RESVDP}*%
X173992300Y-163267400D03*
%TO.P,U6,10,~{YS}*%
%TO.N,/VDP/VBY*%
X175772840Y-163267400D03*
%TO.P,U6,11,CBDR*%
%TO.N,/VDP/CBDR*%
X177550840Y-163267400D03*
%TO.P,U6,12,C7*%
%TO.N,/VDP/C7*%
X179432980Y-163267400D03*
%TO.P,U6,13,C6*%
%TO.N,/VDP/C6*%
X181210980Y-163267400D03*
%TO.P,U6,14,C5*%
%TO.N,/VDP/C5*%
X182991520Y-163267400D03*
%TO.P,U6,15,C4*%
%TO.N,/VDP/C4*%
X184769520Y-163267400D03*
%TO.P,U6,16,C3*%
%TO.N,/VDP/C3*%
X186550060Y-163267400D03*
%TO.P,U6,17,C2*%
%TO.N,/VDP/C2*%
X188330600Y-163267400D03*
%TO.P,U6,18,C1*%
%TO.N,/VDP/C1*%
X190108600Y-163267400D03*
%TO.P,U6,19,C0*%
%TO.N,/VDP/C0*%
X191889140Y-163267400D03*
%TO.P,U6,20,GND*%
%TO.N,GND*%
X193570620Y-163267400D03*
%TO.P,U6,21,COMPVID/DACVCC*%
%TO.N,Net-(JP3-Pad1)*%
X195348620Y-163267400D03*
%TO.P,U6,22,G*%
%TO.N,/VDP/GREEN*%
X197129160Y-163287720D03*
%TO.P,U6,23,R*%
%TO.N,/VDP/RED*%
X198810640Y-163287720D03*
%TO.P,U6,24,B*%
%TO.N,/VDP/BLUE*%
X200588640Y-163287720D03*
%TO.P,U6,25,~{INT}*%
%TO.N,~{VINT}*%
X202379340Y-163287720D03*
%TO.P,U6,26,~{LPS}/~{WAIT}*%
%TO.N,~{LPS-WAIT}*%
X204159880Y-163287720D03*
%TO.P,U6,27,~{LPD}/~{HRESET}*%
%TO.N,ONE*%
X205940420Y-163287720D03*
%TO.P,U6,28,MODE1*%
%TO.N,bA1*%
X207718420Y-163287720D03*
%TO.P,U6,29,MODE0*%
%TO.N,bA0*%
X209498960Y-163287720D03*
%TO.P,U6,30,~{CSW}*%
%TO.N,~{VDP_WR}*%
X211279500Y-163287720D03*
%TO.P,U6,31,~{CSR}*%
%TO.N,~{VDP_RD}*%
X213060040Y-163287720D03*
%TO.P,U6,32,CD7*%
%TO.N,bD7*%
X214840580Y-163287720D03*
%TO.P,U6,33,VBB*%
%TO.N,Net-(C62-Pad1)*%
X214670400Y-144209780D03*
%TO.P,U6,34,CD6*%
%TO.N,bD6*%
X212889860Y-144209780D03*
%TO.P,U6,35,CD5*%
%TO.N,bD5*%
X211109320Y-144209780D03*
%TO.P,U6,36,CD4*%
%TO.N,bD4*%
X209328780Y-144209780D03*
%TO.P,U6,37,CD3*%
%TO.N,bD3*%
X207548240Y-144209780D03*
%TO.P,U6,38,CD2*%
%TO.N,bD2*%
X205770240Y-144209780D03*
%TO.P,U6,39,CD1*%
%TO.N,bD1*%
X203989700Y-144209780D03*
%TO.P,U6,40,CD0*%
%TO.N,bD0*%
X202209160Y-144209780D03*
%TO.P,U6,41,RD0*%
%TO.N,/VDP/VD0*%
X200530220Y-144209780D03*
%TO.P,U6,42,RD1*%
%TO.N,/VDP/VD1*%
X198749680Y-144209780D03*
%TO.P,U6,43,RD2*%
%TO.N,/VDP/VD2*%
X196918340Y-144209780D03*
%TO.P,U6,44,RD3*%
%TO.N,/VDP/VD3*%
X195140340Y-144209780D03*
%TO.P,U6,45,RD4*%
%TO.N,/VDP/VD4*%
X193359800Y-144209780D03*
%TO.P,U6,46,RD5*%
%TO.N,/VDP/VD5*%
X191579260Y-144209780D03*
%TO.P,U6,47,RD6*%
%TO.N,/VDP/VD6*%
X189798720Y-144209780D03*
%TO.P,U6,48,RD7*%
%TO.N,/VDP/VD7*%
X188018180Y-144209780D03*
%TO.P,U6,49,AD0*%
%TO.N,/VDP/AD0*%
X186240180Y-144209780D03*
%TO.P,U6,50,AD1*%
%TO.N,/VDP/AD1*%
X184459640Y-144209780D03*
%TO.P,U6,51,AD2*%
%TO.N,/VDP/AD2*%
X182780700Y-144209780D03*
%TO.P,U6,52,AD3*%
%TO.N,/VDP/AD3*%
X181002700Y-144209780D03*
%TO.P,U6,53,AD4*%
%TO.N,/VDP/AD4*%
X179222160Y-144199620D03*
%TO.P,U6,54,AD5*%
%TO.N,/VDP/AD5*%
X177441620Y-144199620D03*
%TO.P,U6,55,AD6*%
%TO.N,/VDP/AD6*%
X175661080Y-144199620D03*
%TO.P,U6,56,AD7*%
%TO.N,/VDP/AD7*%
X173883080Y-144199620D03*
%TO.P,U6,57,R/~{W}*%
%TO.N,/VDP/~{VRW}*%
X172102540Y-144199620D03*
%TO.P,U6,58,VCC*%
%TO.N,VCCVDP*%
X170322000Y-144199620D03*
%TO.P,U6,59,~{CASX}*%
%TO.N,unconnected-(U6-Pad59)*%
X168541460Y-144199620D03*
%TO.P,U6,60,~{CAS1}*%
%TO.N,/VDP/~{CAS1}*%
X166760920Y-144199620D03*
%TO.P,U6,61,~{CAS0}*%
%TO.N,/VDP/~{CAS0}*%
X165081980Y-144199620D03*
%TO.P,U6,62,~{RAS}*%
%TO.N,/VDP/~{RAS}*%
X163301440Y-144199620D03*
%TO.P,U6,63,XTAL1*%
%TO.N,Net-(C52-Pad1)*%
X161520900Y-144199620D03*
%TO.P,U6,64,XTAL2*%
%TO.N,Net-(C53-Pad1)*%
X159742900Y-144199620D03*
%TD*%
D19*
%TO.P,J10,1,Pin_1*%
%TO.N,VCC*%
X125830000Y-89295000D03*
D20*
%TO.P,J10,2,Pin_2*%
%TO.N,Net-(J10-Pad2)*%
X128370000Y-89295000D03*
%TO.P,J10,3,Pin_3*%
%TO.N,/PSG/POTA1*%
X130910000Y-89295000D03*
%TD*%
D18*
%TO.P,C44,1*%
%TO.N,/VDP/GREEN*%
X229000000Y-159670000D03*
%TO.P,C44,2*%
%TO.N,Net-(C44-Pad2)*%
X229000000Y-154670000D03*
%TD*%
D19*
%TO.P,J7,1,Pin_1*%
%TO.N,Net-(J7-Pad1)*%
X42000000Y-213000000D03*
D20*
%TO.P,J7,2,Pin_2*%
%TO.N,~{EIRQ0}*%
X42000000Y-210460000D03*
%TO.P,J7,3,Pin_3*%
%TO.N,Net-(J7-Pad1)*%
X44540000Y-213000000D03*
%TO.P,J7,4,Pin_4*%
%TO.N,~{EIRQ1}*%
X44540000Y-210460000D03*
%TO.P,J7,5,Pin_5*%
%TO.N,Net-(J7-Pad1)*%
X47080000Y-213000000D03*
%TO.P,J7,6,Pin_6*%
%TO.N,~{EIRQ2}*%
X47080000Y-210460000D03*
%TO.P,J7,7,Pin_7*%
%TO.N,Net-(J7-Pad1)*%
X49620000Y-213000000D03*
%TO.P,J7,8,Pin_8*%
%TO.N,~{EIRQ3}*%
X49620000Y-210460000D03*
%TO.P,J7,9,Pin_9*%
%TO.N,Net-(J7-Pad1)*%
X52160000Y-213000000D03*
%TO.P,J7,10,Pin_10*%
%TO.N,~{EIRQ4}*%
X52160000Y-210460000D03*
%TO.P,J7,11,Pin_11*%
%TO.N,Net-(J7-Pad1)*%
X54700000Y-213000000D03*
%TO.P,J7,12,Pin_12*%
%TO.N,~{EIRQ5}*%
X54700000Y-210460000D03*
%TO.P,J7,13,Pin_13*%
%TO.N,Net-(J7-Pad1)*%
X57240000Y-213000000D03*
%TO.P,J7,14,Pin_14*%
%TO.N,~{EIRQ6}*%
X57240000Y-210460000D03*
%TO.P,J7,15,Pin_15*%
%TO.N,Net-(J7-Pad1)*%
X59780000Y-213000000D03*
%TO.P,J7,16,Pin_16*%
%TO.N,~{EIRQ7}*%
X59780000Y-210460000D03*
%TD*%
D18*
%TO.P,R14,1*%
%TO.N,Net-(C57-Pad1)*%
X229250000Y-129610000D03*
D21*
%TO.P,R14,2*%
%TO.N,Net-(R14-Pad2)*%
X229250000Y-137230000D03*
%TD*%
D18*
%TO.P,C18,1*%
%TO.N,VCC*%
X100250000Y-208000000D03*
%TO.P,C18,2*%
%TO.N,GND*%
X100250000Y-213000000D03*
%TD*%
D17*
%TO.P,C20,1*%
%TO.N,VCC*%
X136594900Y-140600000D03*
D18*
%TO.P,C20,2*%
%TO.N,GND*%
X139094900Y-140600000D03*
%TD*%
D19*
%TO.P,JP12,1,A*%
%TO.N,Net-(JP1-Pad3)*%
X256200000Y-181800000D03*
D20*
%TO.P,JP12,2,B*%
%TO.N,Net-(JP12-Pad2)*%
X256200000Y-184340000D03*
%TD*%
D17*
%TO.P,C25,1*%
%TO.N,VCC*%
X115800000Y-218000000D03*
D18*
%TO.P,C25,2*%
%TO.N,GND*%
X118300000Y-218000000D03*
%TD*%
D19*
%TO.P,JP3,1,A*%
%TO.N,Net-(JP3-Pad1)*%
X186725000Y-168000000D03*
D20*
%TO.P,JP3,2,B*%
%TO.N,VCC*%
X189265000Y-168000000D03*
%TD*%
D22*
%TO.P,LS2,1,1*%
%TO.N,Net-(JP10-Pad2)*%
X240260000Y-86750000D03*
D23*
%TO.P,LS2,2,2*%
%TO.N,GND*%
X255260000Y-86750000D03*
%TD*%
D17*
%TO.P,U22,1,CP1..3*%
%TO.N,/PSG/CLK_AY3*%
X73840000Y-200800000D03*
D21*
%TO.P,U22,2,R0(1)*%
%TO.N,ZERO*%
X76380000Y-200800000D03*
%TO.P,U22,3,R0(2)*%
X78920000Y-200800000D03*
%TO.P,U22,4*%
%TO.N,N/C*%
X81460000Y-200800000D03*
%TO.P,U22,5,VCC*%
%TO.N,VCC*%
X84000000Y-200800000D03*
%TO.P,U22,6*%
%TO.N,N/C*%
X86540000Y-200800000D03*
%TO.P,U22,7*%
X89080000Y-200800000D03*
%TO.P,U22,8,Q2*%
%TO.N,Net-(P8-Pad10)*%
X89080000Y-193180000D03*
%TO.P,U22,9,Q1*%
%TO.N,Net-(P8-Pad5)*%
X86540000Y-193180000D03*
%TO.P,U22,10,GND*%
%TO.N,GND*%
X84000000Y-193180000D03*
%TO.P,U22,11,Q3*%
%TO.N,Net-(P8-Pad9)*%
X81460000Y-193180000D03*
%TO.P,U22,12,Q0*%
%TO.N,unconnected-(U22-Pad12)*%
X78920000Y-193180000D03*
%TO.P,U22,13*%
%TO.N,N/C*%
X76380000Y-193180000D03*
%TO.P,U22,14,CP0*%
%TO.N,ZERO*%
X73840000Y-193180000D03*
%TD*%
D17*
%TO.P,C54,1*%
%TO.N,Net-(C54-Pad1)*%
X257044900Y-143170000D03*
D18*
%TO.P,C54,2*%
%TO.N,GND*%
X259544900Y-143170000D03*
%TD*%
%TO.P,C65,1*%
%TO.N,VCC*%
X186500000Y-127750000D03*
%TO.P,C65,2*%
%TO.N,GND*%
X186500000Y-122750000D03*
%TD*%
D34*
%TO.P,RV1,1,1*%
%TO.N,GND*%
X101850000Y-129200000D03*
%TO.P,RV1,2,2*%
%TO.N,Net-(C80-Pad2)*%
X104390000Y-131740000D03*
%TO.P,RV1,3,3*%
X106930000Y-129200000D03*
%TD*%
D25*
%TO.P,D3,1,K*%
%TO.N,~{VINT}*%
X70250000Y-81100000D03*
D26*
%TO.P,D3,2,A*%
%TO.N,Net-(D3-Pad2)*%
X67710000Y-81100000D03*
%TD*%
D18*
%TO.P,C10,1*%
%TO.N,VCC*%
X201000000Y-207500000D03*
%TO.P,C10,2*%
%TO.N,GND*%
X201000000Y-212500000D03*
%TD*%
D24*
%TO.P,NT1,1,1*%
%TO.N,VCC*%
X156650000Y-169250000D03*
%TO.P,NT1,2,2*%
%TO.N,ONE*%
X157850000Y-169250000D03*
%TD*%
D17*
%TO.P,C42,1*%
%TO.N,Net-(C42-Pad1)*%
X153525300Y-114700000D03*
D18*
%TO.P,C42,2*%
%TO.N,/Amplifier/R-CH*%
X156025300Y-114700000D03*
%TD*%
D35*
%TO.P,J13,1*%
%TO.N,GND*%
X213954500Y-83016200D03*
%TO.P,J13,2*%
%TO.N,/VDP/AUDIO*%
X221454500Y-83016200D03*
%TO.P,J13,3*%
%TO.N,/VDP/AV*%
X228954500Y-83016200D03*
%TO.P,J13,4*%
%TO.N,/VDP/COMP*%
X216454500Y-85516200D03*
%TO.P,J13,5*%
%TO.N,/VDP/YS*%
X226454500Y-85556200D03*
%TO.P,J13,6*%
%TO.N,/VDP/ROUT*%
X221454500Y-88016200D03*
%TO.P,J13,7*%
%TO.N,/VDP/GOUT*%
X213954500Y-88016200D03*
%TO.P,J13,8*%
%TO.N,/VDP/BOUT*%
X228954500Y-88016200D03*
%TO.P,J13,~*%
%TO.N,N/C*%
X216454500Y-73016200D03*
X226454500Y-73016200D03*
%TD*%
D17*
%TO.P,U16,1,CSYNC*%
%TO.N,unconnected-(U16-Pad1)*%
X184950000Y-114300000D03*
D21*
%TO.P,U16,2,VIDEO*%
%TO.N,Net-(C1-Pad2)*%
X187490000Y-114300000D03*
%TO.P,U16,3,FRAME*%
%TO.N,/VDP/VSYNC*%
X190030000Y-114300000D03*
%TO.P,U16,4,GND*%
%TO.N,GND*%
X192570000Y-114300000D03*
%TO.P,U16,5,BURST*%
%TO.N,unconnected-(U16-Pad5)*%
X192570000Y-106680000D03*
%TO.P,U16,6,INT*%
%TO.N,Net-(C4-Pad1)*%
X190030000Y-106680000D03*
%TO.P,U16,7,O/E*%
%TO.N,unconnected-(U16-Pad7)*%
X187490000Y-106680000D03*
%TO.P,U16,8,VCC*%
%TO.N,VCC*%
X184950000Y-106680000D03*
%TD*%
D18*
%TO.P,C45,1*%
%TO.N,/VDP/BLUE*%
X234750000Y-159670000D03*
%TO.P,C45,2*%
%TO.N,Net-(C45-Pad2)*%
X234750000Y-154670000D03*
%TD*%
%TO.P,C1,1*%
%TO.N,/VDP/COMP*%
X197250000Y-108000000D03*
%TO.P,C1,2*%
%TO.N,Net-(C1-Pad2)*%
X197250000Y-113000000D03*
%TD*%
%TO.P,R32,1*%
%TO.N,Net-(P8-Pad2)*%
X98600000Y-143700000D03*
D21*
%TO.P,R32,2*%
%TO.N,GND*%
X98600000Y-136080000D03*
%TD*%
D18*
%TO.P,R26,1*%
%TO.N,GND*%
X229000000Y-177000000D03*
D21*
%TO.P,R26,2*%
%TO.N,/VDP/GREEN*%
X229000000Y-169380000D03*
%TD*%
D18*
%TO.P,R21,1*%
%TO.N,/VDP/YS*%
X223940000Y-99500000D03*
D21*
%TO.P,R21,2*%
%TO.N,VCC*%
X231560000Y-99500000D03*
%TD*%
D17*
%TO.P,P7,1,Pin_1*%
%TO.N,unconnected-(P7-Pad1)*%
X100000000Y-200800000D03*
D21*
%TO.P,P7,2,Pin_2*%
%TO.N,unconnected-(P7-Pad2)*%
X102540000Y-200800000D03*
%TO.P,P7,3,Pin_3*%
%TO.N,unconnected-(P7-Pad3)*%
X105080000Y-200800000D03*
%TO.P,P7,4,Pin_4*%
%TO.N,GND*%
X107620000Y-200800000D03*
%TO.P,P7,5,Pin_5*%
%TO.N,unconnected-(P7-Pad5)*%
X110160000Y-200800000D03*
%TO.P,P7,6,Pin_6*%
%TO.N,unconnected-(P7-Pad6)*%
X112700000Y-200800000D03*
%TO.P,P7,7,Pin_7*%
%TO.N,GND*%
X115240000Y-200800000D03*
%TO.P,P7,8,Pin_8*%
%TO.N,/PSG/CLK_AY3*%
X115240000Y-193180000D03*
%TO.P,P7,9,Pin_9*%
%TO.N,unconnected-(P7-Pad9)*%
X112700000Y-193180000D03*
%TO.P,P7,10,Pin_10*%
%TO.N,unconnected-(P7-Pad10)*%
X110160000Y-193180000D03*
%TO.P,P7,11,Pin_11*%
%TO.N,/PSG/CLK_AY3*%
X107620000Y-193180000D03*
%TO.P,P7,12,Pin_12*%
%TO.N,unconnected-(P7-Pad12)*%
X105080000Y-193180000D03*
%TO.P,P7,13,Pin_13*%
%TO.N,unconnected-(P7-Pad13)*%
X102540000Y-193180000D03*
%TO.P,P7,14,Pin_14*%
%TO.N,VCC*%
X100000000Y-193180000D03*
%TD*%
D34*
%TO.P,RV2,1,1*%
%TO.N,GND*%
X115060000Y-129200000D03*
%TO.P,RV2,2,2*%
%TO.N,Net-(C81-Pad1)*%
X117600000Y-131740000D03*
%TO.P,RV2,3,3*%
X120140000Y-129200000D03*
%TD*%
D17*
%TO.P,C46,1*%
%TO.N,Net-(C46-Pad1)*%
X125394700Y-114700000D03*
D18*
%TO.P,C46,2*%
%TO.N,L-CH*%
X127894700Y-114700000D03*
%TD*%
%TO.P,C63,1*%
%TO.N,VCC*%
X186250000Y-139750000D03*
%TO.P,C63,2*%
%TO.N,GND*%
X186250000Y-134750000D03*
%TD*%
%TO.P,C4,1*%
%TO.N,Net-(C4-Pad1)*%
X187500000Y-102250000D03*
%TO.P,C4,2*%
%TO.N,GND*%
X182500000Y-102250000D03*
%TD*%
D19*
%TO.P,JP1,1,A*%
%TO.N,Net-(JP1-Pad1)*%
X246750000Y-163975000D03*
D20*
%TO.P,JP1,2,C*%
%TO.N,/VDP/SYNCIN*%
X246750000Y-166515000D03*
%TO.P,JP1,3,B*%
%TO.N,Net-(JP1-Pad3)*%
X246750000Y-169055000D03*
%TD*%
D18*
%TO.P,C50,1*%
%TO.N,Net-(C50-Pad1)*%
X246750000Y-154670000D03*
%TO.P,C50,2*%
%TO.N,GND*%
X246750000Y-159670000D03*
%TD*%
D17*
%TO.P,C24,1*%
%TO.N,VCC*%
X86789800Y-145800000D03*
D18*
%TO.P,C24,2*%
%TO.N,GND*%
X89289800Y-145800000D03*
%TD*%
D19*
%TO.P,P10,1,Pin_1*%
%TO.N,/PSG/POTA2*%
X136555000Y-90570000D03*
D20*
%TO.P,P10,2,Pin_2*%
%TO.N,Net-(P10-Pad2)*%
X136555000Y-88030000D03*
%TO.P,P10,3,Pin_3*%
%TO.N,/PSG/POTA1*%
X139095000Y-90570000D03*
%TO.P,P10,4,Pin_4*%
%TO.N,Net-(P10-Pad4)*%
X139095000Y-88030000D03*
%TO.P,P10,5,Pin_5*%
%TO.N,VCC*%
X141635000Y-90570000D03*
%TO.P,P10,6,Pin_6*%
%TO.N,Net-(P10-Pad6)*%
X141635000Y-88030000D03*
%TD*%
D17*
%TO.P,C23,1*%
%TO.N,VCC*%
X154394900Y-130000000D03*
D18*
%TO.P,C23,2*%
%TO.N,GND*%
X156894900Y-130000000D03*
%TD*%
%TO.P,C16,1*%
%TO.N,VCC*%
X43110000Y-195800000D03*
%TO.P,C16,2*%
%TO.N,GND*%
X43110000Y-200800000D03*
%TD*%
%TO.P,R33,1*%
%TO.N,Net-(P8-Pad4)*%
X121600000Y-143700000D03*
D21*
%TO.P,R33,2*%
%TO.N,GND*%
X121600000Y-136080000D03*
%TD*%
D19*
%TO.P,JP7,1,A*%
%TO.N,Net-(JP7-Pad1)*%
X163725000Y-168000000D03*
D20*
%TO.P,JP7,2,B*%
%TO.N,ONE*%
X166265000Y-168000000D03*
%TD*%
D36*
%TO.P,J15,1,In*%
%TO.N,/VDP/COMP*%
X203500000Y-83469000D03*
D37*
%TO.P,J15,2,Ext*%
%TO.N,GND*%
X208580000Y-83469000D03*
X198420000Y-83469000D03*
X203500000Y-78389000D03*
%TD*%
D30*
%TO.P,P9,1,Pin_1*%
%TO.N,VCC*%
X107170000Y-83742500D03*
D12*
%TO.P,P9,2,Pin_2*%
X107170000Y-81202500D03*
%TO.P,P9,3,Pin_3*%
%TO.N,AUDIO_L*%
X109710000Y-83742500D03*
%TO.P,P9,4,Pin_4*%
%TO.N,/PSG/SPAREA*%
X109710000Y-81202500D03*
%TO.P,P9,5,Pin_5*%
%TO.N,GND*%
X112250000Y-83742500D03*
%TO.P,P9,6,Pin_6*%
%TO.N,/PSG/SPAREB*%
X112250000Y-81202500D03*
%TO.P,P9,7,Pin_7*%
%TO.N,GND*%
X114790000Y-83742500D03*
%TO.P,P9,8,Pin_8*%
%TO.N,ACR5*%
X114790000Y-81202500D03*
%TO.P,P9,9,Pin_9*%
%TO.N,AUDIO_R*%
X117330000Y-83742500D03*
%TO.P,P9,10,Pin_10*%
%TO.N,GND*%
X117330000Y-81202500D03*
%TD*%
D17*
%TO.P,U24,1*%
%TO.N,/VDP/~{HSYNC}*%
X125975000Y-200900000D03*
D21*
%TO.P,U24,2*%
%TO.N,Net-(P13-Pad1)*%
X128515000Y-200900000D03*
%TO.P,U24,3*%
%TO.N,/VDP/VSYNC*%
X131055000Y-200900000D03*
%TO.P,U24,4*%
%TO.N,/VDP/~{VSYNC}*%
X133595000Y-200900000D03*
%TO.P,U24,5*%
%TO.N,Net-(U24-Pad5)*%
X136135000Y-200900000D03*
%TO.P,U24,6*%
%TO.N,~{RESVDP}*%
X138675000Y-200900000D03*
%TO.P,U24,7,GND*%
%TO.N,GND*%
X141215000Y-200900000D03*
%TO.P,U24,8*%
%TO.N,Net-(U24-Pad8)*%
X141215000Y-193280000D03*
%TO.P,U24,9*%
%TO.N,~{LPS-WAIT}*%
X138675000Y-193280000D03*
%TO.P,U24,10*%
%TO.N,Net-(JP1-Pad1)*%
X136135000Y-193280000D03*
%TO.P,U24,11*%
%TO.N,Net-(Q1-Pad3)*%
X133595000Y-193280000D03*
%TO.P,U24,12*%
%TO.N,Net-(J3-Pad1)*%
X131055000Y-193280000D03*
%TO.P,U24,13*%
%TO.N,/VDP/SYNCIN*%
X128515000Y-193280000D03*
%TO.P,U24,14,VCC*%
%TO.N,VCC*%
X125975000Y-193280000D03*
%TD*%
D18*
%TO.P,R36,1*%
%TO.N,Net-(P8-Pad1)*%
X115850000Y-143700000D03*
D21*
%TO.P,R36,2*%
%TO.N,Net-(C80-Pad2)*%
X115850000Y-136080000D03*
%TD*%
D17*
%TO.P,C28,1*%
%TO.N,/Amplifier/AMPPWR*%
X114372000Y-89545000D03*
D18*
%TO.P,C28,2*%
%TO.N,GND*%
X116872000Y-89545000D03*
%TD*%
%TO.P,L2,1*%
%TO.N,VCC*%
X165740200Y-174600000D03*
D21*
%TO.P,L2,2*%
%TO.N,VCCVDP*%
X173360200Y-174600000D03*
%TD*%
D17*
%TO.P,U9,1,~{Mr}*%
%TO.N,~{bRESET}*%
X205125000Y-200800000D03*
D21*
%TO.P,U9,2,Q0*%
%TO.N,Net-(U24-Pad5)*%
X207665000Y-200800000D03*
%TO.P,U9,3,D0*%
%TO.N,bD0*%
X210205000Y-200800000D03*
%TO.P,U9,4,D1*%
%TO.N,bD1*%
X212745000Y-200800000D03*
%TO.P,U9,5,Q1*%
%TO.N,unconnected-(U9-Pad5)*%
X215285000Y-200800000D03*
%TO.P,U9,6,D2*%
%TO.N,bD2*%
X217825000Y-200800000D03*
%TO.P,U9,7,Q2*%
%TO.N,/ACR/STATUS-VDP*%
X220365000Y-200800000D03*
%TO.P,U9,8,GND*%
%TO.N,GND*%
X222905000Y-200800000D03*
%TO.P,U9,9,Cp*%
%TO.N,~{CS_ACR_WR}*%
X222905000Y-193180000D03*
%TO.P,U9,10,Q3*%
%TO.N,/ACR/STATUS-PSG*%
X220365000Y-193180000D03*
%TO.P,U9,11,D3*%
%TO.N,bD3*%
X217825000Y-193180000D03*
%TO.P,U9,12,Q4*%
%TO.N,~{RESAY3}*%
X215285000Y-193180000D03*
%TO.P,U9,13,D4*%
%TO.N,bD4*%
X212745000Y-193180000D03*
%TO.P,U9,14,D5*%
%TO.N,bD5*%
X210205000Y-193180000D03*
%TO.P,U9,15,Q5*%
%TO.N,ACR5*%
X207665000Y-193180000D03*
%TO.P,U9,16,VCC*%
%TO.N,VCC*%
X205125000Y-193180000D03*
%TD*%
D17*
%TO.P,C27,1*%
%TO.N,VCC*%
X43200000Y-218600000D03*
D18*
%TO.P,C27,2*%
%TO.N,GND*%
X45700000Y-218600000D03*
%TD*%
D17*
%TO.P,C58,1*%
%TO.N,Net-(C58-Pad1)*%
X237885200Y-123170000D03*
D18*
%TO.P,C58,2*%
%TO.N,/VDP/BOUT*%
X240385200Y-123170000D03*
%TD*%
%TO.P,R1,1*%
%TO.N,Net-(D1-Pad2)*%
X42190000Y-89620000D03*
D21*
%TO.P,R1,2*%
%TO.N,VCC*%
X49810000Y-89620000D03*
%TD*%
D18*
%TO.P,C39,1*%
%TO.N,/VDP/GREEN*%
X229000000Y-162000000D03*
%TO.P,C39,2*%
%TO.N,GND*%
X229000000Y-167000000D03*
%TD*%
D17*
%TO.P,U21,1,G*%
%TO.N,~{bIORQ}*%
X172075000Y-212800000D03*
D21*
%TO.P,U21,2,P0*%
%TO.N,~{bM1}*%
X174615000Y-212800000D03*
%TO.P,U21,3,R0*%
%TO.N,Net-(RN1-Pad9)*%
X177155000Y-212800000D03*
%TO.P,U21,4,P1*%
X179695000Y-212800000D03*
%TO.P,U21,5,R1*%
X182235000Y-212800000D03*
%TO.P,U21,6,P2*%
X184775000Y-212800000D03*
%TO.P,U21,7,R2*%
X187315000Y-212800000D03*
%TO.P,U21,8,P3*%
%TO.N,bA3*%
X189855000Y-212800000D03*
%TO.P,U21,9,R3*%
%TO.N,Net-(RN1-Pad6)*%
X192395000Y-212800000D03*
%TO.P,U21,10,GND*%
%TO.N,GND*%
X194935000Y-212800000D03*
%TO.P,U21,11,P4*%
%TO.N,bA4*%
X194935000Y-205180000D03*
%TO.P,U21,12,R4*%
%TO.N,Net-(RN1-Pad5)*%
X192395000Y-205180000D03*
%TO.P,U21,13,P5*%
%TO.N,bA5*%
X189855000Y-205180000D03*
%TO.P,U21,14,R5*%
%TO.N,Net-(RN1-Pad4)*%
X187315000Y-205180000D03*
%TO.P,U21,15,P6*%
%TO.N,bA6*%
X184775000Y-205180000D03*
%TO.P,U21,16,R6*%
%TO.N,Net-(RN1-Pad3)*%
X182235000Y-205180000D03*
%TO.P,U21,17,P7*%
%TO.N,bA7*%
X179695000Y-205180000D03*
%TO.P,U21,18,R7*%
%TO.N,Net-(RN1-Pad2)*%
X177155000Y-205180000D03*
%TO.P,U21,19,P=R*%
%TO.N,~{CS_MEDIA}*%
X174615000Y-205180000D03*
%TO.P,U21,20,VCC*%
%TO.N,VCC*%
X172075000Y-205180000D03*
%TD*%
D38*
%TO.P,D5,1,K*%
%TO.N,/VDP/VCCO*%
X194900000Y-188400000D03*
D39*
%TO.P,D5,2,A*%
%TO.N,VCC*%
X205060000Y-188400000D03*
%TD*%
D18*
%TO.P,C64,1*%
%TO.N,VCC*%
X217750000Y-127750000D03*
%TO.P,C64,2*%
%TO.N,GND*%
X217750000Y-122750000D03*
%TD*%
D30*
%TO.P,P12,1,Pin_1*%
%TO.N,/PSG/JOYAU*%
X131000000Y-83742500D03*
D12*
%TO.P,P12,2,Pin_2*%
%TO.N,/PSG/JOYAD*%
X131000000Y-81202500D03*
%TO.P,P12,3,Pin_3*%
%TO.N,/PSG/JOYAL*%
X133540000Y-83742500D03*
%TO.P,P12,4,Pin_4*%
%TO.N,/PSG/JOYAR*%
X133540000Y-81202500D03*
%TO.P,P12,5,Pin_5*%
%TO.N,Net-(P10-Pad2)*%
X136080000Y-83742500D03*
%TO.P,P12,6,Pin_6*%
%TO.N,/PSG/JOYAF*%
X136080000Y-81202500D03*
%TO.P,P12,7,Pin_7*%
%TO.N,Net-(P10-Pad4)*%
X138620000Y-83742500D03*
%TO.P,P12,8,Pin_8*%
%TO.N,GND*%
X138620000Y-81202500D03*
%TO.P,P12,9,Pin_9*%
%TO.N,Net-(J10-Pad2)*%
X141160000Y-83742500D03*
%TO.P,P12,10,Pin_10*%
%TO.N,Net-(P10-Pad6)*%
X141160000Y-81202500D03*
%TD*%
D18*
%TO.P,R13,1*%
%TO.N,Net-(C56-Pad1)*%
X223250000Y-129610000D03*
D21*
%TO.P,R13,2*%
%TO.N,Net-(R13-Pad2)*%
X223250000Y-137230000D03*
%TD*%
D18*
%TO.P,C62,1*%
%TO.N,Net-(C62-Pad1)*%
X218800000Y-144250000D03*
%TO.P,C62,2*%
%TO.N,GND*%
X218800000Y-149250000D03*
%TD*%
%TO.P,C3,1*%
%TO.N,VCC*%
X133750000Y-208000000D03*
%TO.P,C3,2*%
%TO.N,GND*%
X133750000Y-213000000D03*
%TD*%
%TO.P,R9,1*%
%TO.N,Net-(C49-Pad1)*%
X258750000Y-169440000D03*
D21*
%TO.P,R9,2*%
%TO.N,VRY_CLK*%
X258750000Y-177060000D03*
%TD*%
D18*
%TO.P,C55,1*%
%TO.N,Net-(C55-Pad1)*%
X256250000Y-150500000D03*
%TO.P,C55,2*%
%TO.N,GND*%
X261250000Y-150500000D03*
%TD*%
%TO.P,R35,1*%
%TO.N,Net-(C81-Pad1)*%
X92850000Y-143700000D03*
D21*
%TO.P,R35,2*%
%TO.N,Net-(P8-Pad2)*%
X92850000Y-136080000D03*
%TD*%
D18*
%TO.P,R34,1*%
%TO.N,Net-(C80-Pad2)*%
X127350000Y-143700000D03*
D21*
%TO.P,R34,2*%
%TO.N,Net-(P8-Pad4)*%
X127350000Y-136080000D03*
%TD*%
D19*
%TO.P,JP10,1,A*%
%TO.N,/Amplifier/R-CH*%
X169000000Y-87965000D03*
D20*
%TO.P,JP10,2,B*%
%TO.N,Net-(JP10-Pad2)*%
X169000000Y-90505000D03*
%TD*%
D18*
%TO.P,C29,1*%
%TO.N,VCCRGB*%
X224300000Y-183000000D03*
%TO.P,C29,2*%
%TO.N,GND*%
X229300000Y-183000000D03*
%TD*%
D17*
%TO.P,C13,1*%
%TO.N,VCCRGB*%
X241884700Y-183000000D03*
D18*
%TO.P,C13,2*%
%TO.N,GND*%
X244384700Y-183000000D03*
%TD*%
%TO.P,R4,1*%
%TO.N,Net-(JP1-Pad3)*%
X240750000Y-177060000D03*
D21*
%TO.P,R4,2*%
%TO.N,/VDP/~{CSYNC}*%
X240750000Y-169440000D03*
%TD*%
D18*
%TO.P,R8,1*%
%TO.N,~{LPS-WAIT}*%
X133200000Y-189000000D03*
D21*
%TO.P,R8,2*%
%TO.N,VCC*%
X125580000Y-189000000D03*
%TD*%
D18*
%TO.P,R31,1*%
%TO.N,Net-(P8-Pad1)*%
X104350000Y-143700000D03*
D21*
%TO.P,R31,2*%
%TO.N,GND*%
X104350000Y-136080000D03*
%TD*%
D18*
%TO.P,C11,1*%
%TO.N,VCC*%
X154800000Y-159750000D03*
%TO.P,C11,2*%
%TO.N,GND*%
X154800000Y-164750000D03*
%TD*%
D17*
%TO.P,U13,1,OEa*%
%TO.N,ZERO*%
X138250000Y-213000000D03*
D21*
%TO.P,U13,2,I0a*%
%TO.N,A0*%
X140790000Y-213000000D03*
%TO.P,U13,3,O3b*%
%TO.N,bA7*%
X143330000Y-213000000D03*
%TO.P,U13,4,I1a*%
%TO.N,A1*%
X145870000Y-213000000D03*
%TO.P,U13,5,O2b*%
%TO.N,bA6*%
X148410000Y-213000000D03*
%TO.P,U13,6,I2a*%
%TO.N,A2*%
X150950000Y-213000000D03*
%TO.P,U13,7,O1b*%
%TO.N,bA5*%
X153490000Y-213000000D03*
%TO.P,U13,8,I3a*%
%TO.N,A3*%
X156030000Y-213000000D03*
%TO.P,U13,9,O0b*%
%TO.N,bA4*%
X158570000Y-213000000D03*
%TO.P,U13,10,GND*%
%TO.N,GND*%
X161110000Y-213000000D03*
%TO.P,U13,11,I0b*%
%TO.N,A4*%
X161110000Y-205380000D03*
%TO.P,U13,12,O3a*%
%TO.N,bA3*%
X158570000Y-205380000D03*
%TO.P,U13,13,I1b*%
%TO.N,A5*%
X156030000Y-205380000D03*
%TO.P,U13,14,O2a*%
%TO.N,bA2*%
X153490000Y-205380000D03*
%TO.P,U13,15,I2b*%
%TO.N,A6*%
X150950000Y-205380000D03*
%TO.P,U13,16,O1a*%
%TO.N,bA1*%
X148410000Y-205380000D03*
%TO.P,U13,17,I3b*%
%TO.N,A7*%
X145870000Y-205380000D03*
%TO.P,U13,18,O0a*%
%TO.N,bA0*%
X143330000Y-205380000D03*
%TO.P,U13,19,OEb*%
%TO.N,ZERO*%
X140790000Y-205380000D03*
%TO.P,U13,20,VCC*%
%TO.N,VCC*%
X138250000Y-205380000D03*
%TD*%
D18*
%TO.P,C37,1*%
%TO.N,/VDP/BLUE*%
X234750000Y-162000000D03*
%TO.P,C37,2*%
%TO.N,GND*%
X234750000Y-167000000D03*
%TD*%
%TO.P,C47,1*%
%TO.N,/VDP/SYNCIN*%
X252750000Y-162000000D03*
%TO.P,C47,2*%
%TO.N,GND*%
X252750000Y-167000000D03*
%TD*%
D19*
%TO.P,J9,1,Pin_1*%
%TO.N,~{RES_IN}*%
X95475000Y-219000000D03*
D20*
%TO.P,J9,2,Pin_2*%
%TO.N,Net-(J9-Pad2)*%
X98015000Y-219000000D03*
%TO.P,J9,3,Pin_3*%
%TO.N,~{RES_OUT}*%
X100555000Y-219000000D03*
%TD*%
D40*
%TO.N,VCCVDP*%
X161316300Y-171783700D03*
%TO.N,/VDP/VSYNC*%
X158698900Y-190127300D03*
%TO.N,/VDP/VGA-VSYNC*%
X156983500Y-182674400D03*
%TO.N,/VDP/~{CAS0}*%
X178208600Y-137921100D03*
X181923100Y-135833600D03*
%TO.N,/VDP/~{CAS1}*%
X195628000Y-116653400D03*
%TO.N,/VDP/~{VRW}*%
X166133900Y-137828800D03*
X164900200Y-135467700D03*
%TO.N,/VDP/~{CSYNC}*%
X239277600Y-160750900D03*
X201528600Y-158638200D03*
%TO.N,/VDP/VGA-HSYNC*%
X221354500Y-178742600D03*
X184010300Y-190060400D03*
%TO.N,~{RESVDP}*%
X201840600Y-176189800D03*
X175147100Y-170622200D03*
%TO.N,/VDP/VGA-CSYNC*%
X139820500Y-137095100D03*
%TO.N,/PSG/PWA1*%
X149619600Y-165269300D03*
%TO.N,/PSG/PWA2*%
X144504500Y-197659800D03*
X161648500Y-197659800D03*
%TO.N,VRY*%
X88319100Y-196757700D03*
X189110700Y-176237100D03*
%TO.N,~{RESAY3}*%
X221509900Y-188855400D03*
X223577700Y-156524500D03*
X135781900Y-155379200D03*
%TO.N,Net-(U24-Pad5)*%
X135892800Y-203751200D03*
%TO.N,/VDP/VD5*%
X189902000Y-136200200D03*
%TO.N,/VDP/AD1*%
X174846800Y-137832700D03*
%TO.N,/VDP/AD2*%
X183391400Y-137938300D03*
%TO.N,/VDP/AD4*%
X182607500Y-131121100D03*
%TO.N,/ACR/STATUS-PSG*%
X196214400Y-220321900D03*
X96963200Y-197997000D03*
%TO.N,Net-(U24-Pad8)*%
X128546100Y-196394900D03*
%TO.N,~{VDP_WR}*%
X207798000Y-176743100D03*
%TO.N,~{CS_ACR_WR}*%
X221891600Y-196857500D03*
%TO.N,/PSG/JOYAL*%
X135016900Y-85219400D03*
%TO.N,/PSG/JOYBF*%
X145975300Y-153747200D03*
%TO.N,/PSG/JOYBR*%
X144524600Y-154277700D03*
%TO.N,/PSG/JOYBL*%
X143530600Y-157467500D03*
%TO.N,/PSG/JOYBD*%
X141929700Y-156190500D03*
%TO.N,/PSG/JOYBU*%
X141953800Y-157230400D03*
%TO.N,/PSG/POTA2*%
X140751400Y-144875200D03*
X147132600Y-145086100D03*
%TO.N,ACR5*%
X223322200Y-197261400D03*
X201089400Y-87004300D03*
%TO.N,Net-(P8-Pad7)*%
X137859200Y-152988200D03*
X87935600Y-178712300D03*
%TO.N,Net-(P8-Pad4)*%
X80683300Y-177175200D03*
%TO.N,Net-(P8-Pad1)*%
X86333300Y-176948800D03*
%TO.N,/VDP/CBDR*%
X176380700Y-170371400D03*
%TO.N,/VDP/C7*%
X185071100Y-167186700D03*
X187137500Y-170596900D03*
%TO.N,/VDP/C6*%
X191121500Y-171322200D03*
%TO.N,/VDP/C5*%
X215125000Y-166109900D03*
%TO.N,/VDP/C1*%
X198587700Y-165366400D03*
%TO.N,/VDP/C0*%
X196156600Y-164310600D03*
%TO.N,VRY_CLK*%
X79436000Y-219638700D03*
%TO.N,Net-(JP4-Pad2)*%
X129645700Y-144635800D03*
%TO.N,Net-(JP1-Pad1)*%
X137773600Y-189757100D03*
X237785800Y-174802700D03*
%TO.N,/PSG/JOYBH*%
X153495000Y-111252600D03*
X127694800Y-131602000D03*
%TO.N,/PSG/JOYBG*%
X142802300Y-153349300D03*
%TO.N,/Amplifier/AMPPWR*%
X169288800Y-216699700D03*
%TO.N,/VDP/BOUT*%
X227204100Y-91873500D03*
%TO.N,/VDP/SYNCIN*%
X197704400Y-159212700D03*
X171855600Y-162022800D03*
%TO.N,bA1*%
X149188500Y-183538800D03*
%TO.N,~{bIORQ}*%
X95611500Y-215950600D03*
%TO.N,~{bM1}*%
X170390400Y-208265700D03*
%TO.N,bD7*%
X203324100Y-160514400D03*
X193971000Y-150053900D03*
%TO.N,bA0*%
X149181600Y-182519700D03*
%TO.N,bD0*%
X202651400Y-188382200D03*
%TO.N,bD1*%
X207309700Y-185791100D03*
%TO.N,bD2*%
X205862700Y-147124100D03*
%TO.N,bD3*%
X214854800Y-178808100D03*
X203390400Y-148519600D03*
%TO.N,bD4*%
X219452600Y-189249300D03*
X113127800Y-151072500D03*
%TO.N,bD5*%
X227320200Y-149502100D03*
X222892900Y-195597500D03*
%TO.N,bD6*%
X123882400Y-152805700D03*
%TO.N,ZERO*%
X143974200Y-202401700D03*
X192843900Y-124638300D03*
X139973400Y-148421400D03*
%TO.N,ONE*%
X153197400Y-157987100D03*
X131319100Y-155499300D03*
%TO.N,~{RD}*%
X94027400Y-216875200D03*
X107965700Y-227191600D03*
%TD*%
D41*
%TO.N,VCCVDP*%
X184789700Y-173089500D02*
X186300200Y-174600000D01*
X177610500Y-173089500D02*
X184789700Y-173089500D01*
X176100000Y-174600000D02*
X177610500Y-173089500D01*
X176100000Y-174600000D02*
X173360200Y-174600000D01*
X173360200Y-174600000D02*
X171859900Y-174600000D01*
X169043600Y-171783700D02*
X161316300Y-171783700D01*
X171859900Y-174600000D02*
X169043600Y-171783700D01*
%TO.N,VCCRGB*%
X239160000Y-183000000D02*
X237659700Y-183000000D01*
X245980000Y-145035000D02*
X252215000Y-151270000D01*
X240900000Y-145035000D02*
X245980000Y-145035000D01*
X236975000Y-141110000D02*
X240900000Y-145035000D01*
X225830700Y-181469300D02*
X224300000Y-183000000D01*
X236129000Y-181469300D02*
X225830700Y-181469300D01*
X237659700Y-183000000D02*
X236129000Y-181469300D01*
X239160000Y-183000000D02*
X240660300Y-183000000D01*
X241884700Y-183000000D02*
X240660300Y-183000000D01*
X250575300Y-181475300D02*
X252100000Y-183000000D01*
X243409400Y-181475300D02*
X250575300Y-181475300D01*
X241884700Y-183000000D02*
X243409400Y-181475300D01*
D42*
%TO.N,Net-(J7-Pad1)*%
X59780000Y-213000000D02*
X57240000Y-213000000D01*
X57240000Y-213000000D02*
X54700000Y-213000000D01*
X54700000Y-213000000D02*
X52160000Y-213000000D01*
X52160000Y-213000000D02*
X49620000Y-213000000D01*
X49620000Y-213000000D02*
X47080000Y-213000000D01*
X47080000Y-213000000D02*
X44540000Y-213000000D01*
X44540000Y-213000000D02*
X42000000Y-213000000D01*
X66955300Y-219000000D02*
X60955300Y-213000000D01*
X72500000Y-219000000D02*
X66955300Y-219000000D01*
X59780000Y-213000000D02*
X60955300Y-213000000D01*
%TO.N,/VDP/~{VSYNC}*%
X183305000Y-184735000D02*
X182129700Y-184735000D01*
X136017400Y-198477600D02*
X133595000Y-200900000D01*
X136017400Y-198477500D02*
X136017400Y-198477600D01*
X142024200Y-198477500D02*
X136017400Y-198477500D01*
X148897400Y-191604300D02*
X142024200Y-198477500D01*
X168679400Y-191604300D02*
X148897400Y-191604300D01*
X174373400Y-185910300D02*
X168679400Y-191604300D01*
X181321800Y-185910300D02*
X174373400Y-185910300D01*
X182129700Y-185102400D02*
X181321800Y-185910300D01*
X182129700Y-184735000D02*
X182129700Y-185102400D01*
%TO.N,/VDP/VSYNC*%
X131055000Y-200900000D02*
X132180300Y-200900000D01*
X171446500Y-184735000D02*
X178225000Y-184735000D01*
X166054200Y-190127300D02*
X171446500Y-184735000D01*
X158698900Y-190127300D02*
X166054200Y-190127300D01*
X132180300Y-200697100D02*
X132180300Y-200900000D01*
X134850300Y-198027100D02*
X132180300Y-200697100D01*
X139784500Y-198027100D02*
X134850300Y-198027100D01*
X146863800Y-190947800D02*
X139784500Y-198027100D01*
X157878400Y-190947800D02*
X146863800Y-190947800D01*
X158698900Y-190127300D02*
X157878400Y-190947800D01*
%TO.N,Net-(P13-Pad1)*%
X172270100Y-192054600D02*
X177049700Y-187275000D01*
X149084000Y-192054600D02*
X172270100Y-192054600D01*
X142026800Y-199111800D02*
X149084000Y-192054600D01*
X136266500Y-199111800D02*
X142026800Y-199111800D01*
X134865000Y-200513300D02*
X136266500Y-199111800D01*
X134865000Y-201252700D02*
X134865000Y-200513300D01*
X134087300Y-202030400D02*
X134865000Y-201252700D01*
X130489400Y-202030400D02*
X134087300Y-202030400D01*
X129640300Y-201181300D02*
X130489400Y-202030400D01*
X129640300Y-200900000D02*
X129640300Y-201181300D01*
X128515000Y-200900000D02*
X129640300Y-200900000D01*
X178225000Y-187275000D02*
X177049700Y-187275000D01*
%TO.N,/VDP/VGA-VSYNC*%
X180765000Y-184735000D02*
X179589700Y-184735000D01*
X179589700Y-184367700D02*
X179589700Y-184735000D01*
X177896400Y-182674400D02*
X179589700Y-184367700D01*
X156983500Y-182674400D02*
X177896400Y-182674400D01*
%TO.N,Net-(JP10-Pad2)*%
X228216300Y-76031600D02*
X238934700Y-86750000D01*
X200953000Y-76031600D02*
X228216300Y-76031600D01*
X196984600Y-80000000D02*
X200953000Y-76031600D01*
X188280100Y-80000000D02*
X196984600Y-80000000D01*
X177775100Y-90505000D02*
X188280100Y-80000000D01*
X169000000Y-90505000D02*
X177775100Y-90505000D01*
X240260000Y-86750000D02*
X238934700Y-86750000D01*
%TO.N,Net-(JP9-Pad2)*%
X83795300Y-90510000D02*
X104580000Y-90510000D01*
X80085300Y-86800000D02*
X83795300Y-90510000D01*
X78760000Y-86800000D02*
X80085300Y-86800000D01*
%TO.N,/VDP/~{RAS}*%
X203010000Y-127750000D02*
X201884700Y-127750000D01*
X171630000Y-127600000D02*
X172755300Y-127600000D01*
X201884700Y-128031900D02*
X201884700Y-127750000D01*
X201041300Y-128875300D02*
X201884700Y-128031900D01*
X191915200Y-128875300D02*
X201041300Y-128875300D01*
X188578900Y-125539000D02*
X191915200Y-128875300D01*
X174535000Y-125539000D02*
X188578900Y-125539000D01*
X172755300Y-127318700D02*
X174535000Y-125539000D01*
X172755300Y-127600000D02*
X172755300Y-127318700D01*
%TO.N,/VDP/~{CAS0}*%
X197930000Y-131930000D02*
X196804700Y-131930000D01*
X166390000Y-136017200D02*
X166390000Y-132150000D01*
X165082000Y-137325200D02*
X166390000Y-136017200D01*
X165082000Y-144199600D02*
X165082000Y-137325200D01*
X176304700Y-136017200D02*
X178208600Y-137921100D01*
X166390000Y-136017200D02*
X176304700Y-136017200D01*
X196804700Y-132211300D02*
X196804700Y-131930000D01*
X192029800Y-136986200D02*
X196804700Y-132211300D01*
X189272200Y-136986200D02*
X192029800Y-136986200D01*
X188942800Y-136656800D02*
X189272200Y-136986200D01*
X182746300Y-136656800D02*
X188942800Y-136656800D01*
X181923100Y-135833600D02*
X182746300Y-136656800D01*
%TO.N,/VDP/~{CAS1}*%
X167675300Y-119698700D02*
X167675300Y-119980000D01*
X170720600Y-116653400D02*
X167675300Y-119698700D01*
X195628000Y-116653400D02*
X170720600Y-116653400D01*
X166550000Y-119980000D02*
X167675300Y-119980000D01*
%TO.N,/VDP/~{VRW}*%
X200470000Y-127750000D02*
X199344700Y-127750000D01*
X169090000Y-127600000D02*
X170215300Y-127600000D01*
X167804700Y-139499600D02*
X166133900Y-137828800D01*
X167804700Y-139770000D02*
X167804700Y-139499600D01*
X167954000Y-126464000D02*
X169090000Y-127600000D01*
X163508400Y-126464000D02*
X167954000Y-126464000D01*
X162724600Y-127247800D02*
X163508400Y-126464000D01*
X162724600Y-133292100D02*
X162724600Y-127247800D01*
X164900200Y-135467700D02*
X162724600Y-133292100D01*
X168930000Y-139770000D02*
X167804700Y-139770000D01*
X199344700Y-127468700D02*
X199344700Y-127750000D01*
X197383100Y-125507100D02*
X199344700Y-127468700D01*
X192687000Y-125507100D02*
X197383100Y-125507100D01*
X192268600Y-125088700D02*
X192687000Y-125507100D01*
X172445300Y-125088700D02*
X192268600Y-125088700D01*
X170215300Y-127318700D02*
X172445300Y-125088700D01*
X170215300Y-127600000D02*
X170215300Y-127318700D01*
%TO.N,~{VINT}*%
X201152700Y-162061100D02*
X202379300Y-163287700D01*
X195247100Y-162061100D02*
X201152700Y-162061100D01*
X194483500Y-161297500D02*
X195247100Y-162061100D01*
X155341600Y-161297500D02*
X194483500Y-161297500D01*
X137201500Y-179437600D02*
X155341600Y-161297500D01*
X79128800Y-179437600D02*
X137201500Y-179437600D01*
X64261100Y-194305300D02*
X79128800Y-179437600D01*
X61500300Y-194305300D02*
X64261100Y-194305300D01*
X60375000Y-193180000D02*
X61500300Y-194305300D01*
%TO.N,~{LPS-WAIT}*%
X196655000Y-180635000D02*
X195479700Y-180635000D01*
X138675000Y-193280000D02*
X138675000Y-192154700D01*
X195479700Y-181002400D02*
X195479700Y-180635000D01*
X194671800Y-181810300D02*
X195479700Y-181002400D01*
X182697900Y-181810300D02*
X194671800Y-181810300D01*
X182344800Y-181457200D02*
X182697900Y-181810300D01*
X152543900Y-181457200D02*
X182344800Y-181457200D01*
X147970200Y-186030900D02*
X152543900Y-181457200D01*
X143893700Y-186030900D02*
X147970200Y-186030900D01*
X138675000Y-191249600D02*
X143893700Y-186030900D01*
X138675000Y-192154700D02*
X138675000Y-191249600D01*
%TO.N,/VDP/~{CSYNC}*%
X201998800Y-158168000D02*
X201528600Y-158638200D01*
X236694700Y-158168000D02*
X201998800Y-158168000D01*
X239277600Y-160750900D02*
X236694700Y-158168000D01*
%TO.N,/VDP/~{DLCLK}*%
X196665000Y-167985000D02*
X195489700Y-167985000D01*
X175422000Y-167750000D02*
X169500000Y-167750000D01*
X176851000Y-169179000D02*
X175422000Y-167750000D01*
X194663000Y-169179000D02*
X176851000Y-169179000D01*
X195489700Y-168352300D02*
X194663000Y-169179000D01*
X195489700Y-167985000D02*
X195489700Y-168352300D01*
%TO.N,/VDP/~{DHCLK}*%
X196665000Y-170525000D02*
X195489700Y-170525000D01*
X164253900Y-166089300D02*
X161432000Y-163267400D01*
X166803400Y-166089300D02*
X164253900Y-166089300D01*
X168293500Y-167579400D02*
X166803400Y-166089300D01*
X168293500Y-168136700D02*
X168293500Y-167579400D01*
X169169600Y-169012800D02*
X168293500Y-168136700D01*
X176047900Y-169012800D02*
X169169600Y-169012800D01*
X176888800Y-169853700D02*
X176047900Y-169012800D01*
X191315700Y-169853700D02*
X176888800Y-169853700D01*
X192297100Y-170835100D02*
X191315700Y-169853700D01*
X192297100Y-170899200D02*
X192297100Y-170835100D01*
X193098200Y-171700300D02*
X192297100Y-170899200D01*
X195122500Y-171700300D02*
X193098200Y-171700300D01*
X195489700Y-171333100D02*
X195122500Y-171700300D01*
X195489700Y-170525000D02*
X195489700Y-171333100D01*
%TO.N,/VDP/~{HSYNC}*%
X168539900Y-164934600D02*
X166872700Y-163267400D01*
X175984300Y-164934600D02*
X168539900Y-164934600D01*
X179049700Y-168000000D02*
X175984300Y-164934600D01*
X180225000Y-168000000D02*
X179049700Y-168000000D01*
X125975000Y-200900000D02*
X127100300Y-200900000D01*
X183305000Y-187275000D02*
X183305000Y-186099700D01*
X183672400Y-186099700D02*
X183305000Y-186099700D01*
X184480300Y-185291800D02*
X183672400Y-186099700D01*
X184480300Y-184229600D02*
X184480300Y-185291800D01*
X182199600Y-181948900D02*
X184480300Y-184229600D01*
X152689100Y-181948900D02*
X182199600Y-181948900D01*
X147997700Y-186640300D02*
X152689100Y-181948900D01*
X143921200Y-186640300D02*
X147997700Y-186640300D01*
X139945000Y-190616500D02*
X143921200Y-186640300D01*
X139945000Y-193645500D02*
X139945000Y-190616500D01*
X138007700Y-195582800D02*
X139945000Y-193645500D01*
X136138500Y-195582800D02*
X138007700Y-195582800D01*
X131946600Y-199774700D02*
X136138500Y-195582800D01*
X127944200Y-199774700D02*
X131946600Y-199774700D01*
X127100300Y-200618600D02*
X127944200Y-199774700D01*
X127100300Y-200900000D02*
X127100300Y-200618600D01*
%TO.N,Net-(C46-Pad1)*%
X120645300Y-114700000D02*
X118645300Y-112700000D01*
X125394700Y-114700000D02*
X120645300Y-114700000D01*
X117520000Y-112700000D02*
X118645300Y-112700000D01*
%TO.N,Net-(C42-Pad1)*%
X148235300Y-114700000D02*
X146335300Y-112800000D01*
X153525300Y-114700000D02*
X148235300Y-114700000D01*
X145210000Y-112800000D02*
X146335300Y-112800000D01*
%TO.N,/VDP/VGA-HSYNC*%
X202069500Y-190060400D02*
X184010300Y-190060400D01*
X203619800Y-188510100D02*
X202069500Y-190060400D01*
X203619800Y-187802500D02*
X203619800Y-188510100D01*
X204447800Y-186974500D02*
X203619800Y-187802500D01*
X213122600Y-186974500D02*
X204447800Y-186974500D01*
X221354500Y-178742600D02*
X213122600Y-186974500D01*
%TO.N,~{RESVDP}*%
X138675000Y-200900000D02*
X139800300Y-200900000D01*
X204275000Y-180635000D02*
X203099700Y-180635000D01*
X176009000Y-171484100D02*
X175147100Y-170622200D01*
X185752400Y-171484100D02*
X176009000Y-171484100D01*
X190458100Y-176189800D02*
X185752400Y-171484100D01*
X201840600Y-176189800D02*
X190458100Y-176189800D01*
X139800300Y-201181300D02*
X139800300Y-200900000D01*
X140691300Y-202072300D02*
X139800300Y-201181300D01*
X143016100Y-202072300D02*
X140691300Y-202072300D01*
X143412000Y-201676400D02*
X143016100Y-202072300D01*
X144294000Y-201676400D02*
X143412000Y-201676400D01*
X144547800Y-201930200D02*
X144294000Y-201676400D01*
X157712100Y-201930200D02*
X144547800Y-201930200D01*
X158475000Y-201167300D02*
X157712100Y-201930200D01*
X158475000Y-200466400D02*
X158475000Y-201167300D01*
X159942100Y-198999300D02*
X158475000Y-200466400D01*
X166924800Y-198999300D02*
X159942100Y-198999300D01*
X176954200Y-188969900D02*
X166924800Y-198999300D01*
X190060900Y-188969900D02*
X176954200Y-188969900D01*
X195479600Y-183551200D02*
X190060900Y-188969900D01*
X195479600Y-182598200D02*
X195479600Y-183551200D01*
X196267500Y-181810300D02*
X195479600Y-182598200D01*
X202291800Y-181810300D02*
X196267500Y-181810300D01*
X203099700Y-181002400D02*
X202291800Y-181810300D01*
X203099700Y-180635000D02*
X203099700Y-181002400D01*
%TO.N,/VDP/VGA-CSYNC*%
X165165600Y-111750000D02*
X139820500Y-137095100D01*
X205554700Y-111750000D02*
X165165600Y-111750000D01*
X208224700Y-109080000D02*
X205554700Y-111750000D01*
X209400000Y-109080000D02*
X208224700Y-109080000D01*
%TO.N,Net-(C4-Pad1)*%
X187500000Y-102250000D02*
X189940000Y-102250000D01*
%TO.N,Net-(C1-Pad2)*%
X188615300Y-114018700D02*
X188615300Y-114300000D01*
X189634000Y-113000000D02*
X188615300Y-114018700D01*
X197250000Y-113000000D02*
X189634000Y-113000000D01*
X187490000Y-114300000D02*
X188615300Y-114300000D01*
%TO.N,/PSG/PWA1*%
X130825000Y-162075000D02*
X131950300Y-162075000D01*
X134863300Y-165269300D02*
X149619600Y-165269300D01*
X131950300Y-162356300D02*
X134863300Y-165269300D01*
X131950300Y-162075000D02*
X131950300Y-162356300D01*
%TO.N,/PSG/PWA2*%
X144504500Y-197659800D02*
X161648500Y-197659800D01*
%TO.N,VRY*%
X158796400Y-162584500D02*
X158796400Y-166773700D01*
X159062200Y-162318700D02*
X158796400Y-162584500D01*
X171056600Y-162318700D02*
X159062200Y-162318700D01*
X172005300Y-163267400D02*
X171056600Y-162318700D01*
X172211800Y-163267400D02*
X172005300Y-163267400D01*
X189110700Y-175816700D02*
X189110700Y-176237100D01*
X185414800Y-172120800D02*
X189110700Y-175816700D01*
X171600000Y-172120800D02*
X185414800Y-172120800D01*
X167683900Y-168204700D02*
X171600000Y-172120800D01*
X167683900Y-167686300D02*
X167683900Y-168204700D01*
X166771300Y-166773700D02*
X167683900Y-167686300D01*
X158796400Y-166773700D02*
X166771300Y-166773700D01*
X88630800Y-197069400D02*
X88319100Y-196757700D01*
X96228200Y-197069400D02*
X88630800Y-197069400D01*
X98541900Y-194755700D02*
X96228200Y-197069400D01*
X115568200Y-194755700D02*
X98541900Y-194755700D01*
X123686300Y-186637600D02*
X115568200Y-194755700D01*
X135140900Y-186637600D02*
X123686300Y-186637600D01*
X155004800Y-166773700D02*
X135140900Y-186637600D01*
X158796400Y-166773700D02*
X155004800Y-166773700D01*
%TO.N,~{RESAY3}*%
X218310600Y-192054700D02*
X221509900Y-188855400D01*
X217254200Y-192054700D02*
X218310600Y-192054700D01*
X216410300Y-192898600D02*
X217254200Y-192054700D01*
X216410300Y-193180000D02*
X216410300Y-192898600D01*
X139231800Y-155379200D02*
X135781900Y-155379200D01*
X139604000Y-155007000D02*
X139231800Y-155379200D01*
X146520900Y-155007000D02*
X139604000Y-155007000D01*
X148038400Y-156524500D02*
X146520900Y-155007000D01*
X223577700Y-156524500D02*
X148038400Y-156524500D01*
X215285000Y-193180000D02*
X216410300Y-193180000D01*
%TO.N,Net-(U24-Pad5)*%
X136066500Y-203577500D02*
X135892800Y-203751200D01*
X204465500Y-203577500D02*
X136066500Y-203577500D01*
X206539700Y-201503300D02*
X204465500Y-203577500D01*
X206539700Y-200800000D02*
X206539700Y-201503300D01*
X207665000Y-200800000D02*
X206539700Y-200800000D01*
%TO.N,/VDP/VD7*%
X164975300Y-131868600D02*
X164975300Y-132150000D01*
X165819200Y-131024700D02*
X164975300Y-131868600D01*
X174553700Y-131024700D02*
X165819200Y-131024700D01*
X175280000Y-131751000D02*
X174553700Y-131024700D01*
X175280000Y-132477500D02*
X175280000Y-131751000D01*
X180250600Y-137448100D02*
X175280000Y-132477500D01*
X181211200Y-137448100D02*
X180250600Y-137448100D01*
X182477700Y-138714600D02*
X181211200Y-137448100D01*
X184892800Y-138714600D02*
X182477700Y-138714600D01*
X185005000Y-138602400D02*
X184892800Y-138714600D01*
X186719700Y-138602400D02*
X185005000Y-138602400D01*
X188018200Y-139900900D02*
X186719700Y-138602400D01*
X188018200Y-144209800D02*
X188018200Y-139900900D01*
X163850000Y-132150000D02*
X164975300Y-132150000D01*
%TO.N,/VDP/VD5*%
X166550000Y-127600000D02*
X167675300Y-127600000D01*
X184068800Y-136200200D02*
X189902000Y-136200200D01*
X180360000Y-132491400D02*
X184068800Y-136200200D01*
X180360000Y-131758000D02*
X180360000Y-132491400D01*
X177327300Y-128725300D02*
X180360000Y-131758000D01*
X168519200Y-128725300D02*
X177327300Y-128725300D01*
X167675300Y-127881400D02*
X168519200Y-128725300D01*
X167675300Y-127600000D02*
X167675300Y-127881400D01*
%TO.N,/VDP/VD4*%
X164010000Y-127600000D02*
X165135300Y-127600000D01*
X186363000Y-137213000D02*
X193359800Y-144209800D01*
X182276800Y-137213000D02*
X186363000Y-137213000D01*
X177820000Y-132756200D02*
X182276800Y-137213000D01*
X177820000Y-131796300D02*
X177820000Y-132756200D01*
X176485800Y-130462100D02*
X177820000Y-131796300D01*
X167716100Y-130462100D02*
X176485800Y-130462100D01*
X165135300Y-127881300D02*
X167716100Y-130462100D01*
X165135300Y-127600000D02*
X165135300Y-127881300D01*
%TO.N,/VDP/VD2*%
X196789100Y-136736200D02*
X200470000Y-133055300D01*
X196789100Y-144080600D02*
X196789100Y-136736200D01*
X196918300Y-144209800D02*
X196789100Y-144080600D01*
X200470000Y-131930000D02*
X200470000Y-133055300D01*
%TO.N,/VDP/AD0*%
X171630000Y-119980000D02*
X172755300Y-119980000D01*
X203010000Y-120130000D02*
X201884700Y-120130000D01*
X201884700Y-120411300D02*
X201884700Y-120130000D01*
X198415500Y-123880500D02*
X201884700Y-120411300D01*
X176374500Y-123880500D02*
X198415500Y-123880500D01*
X172755300Y-120261300D02*
X176374500Y-123880500D01*
X172755300Y-119980000D02*
X172755300Y-120261300D01*
X172595300Y-132431400D02*
X172595300Y-132150000D01*
X173439200Y-133275300D02*
X172595300Y-132431400D01*
X174601900Y-133275300D02*
X173439200Y-133275300D01*
X180393300Y-139066700D02*
X174601900Y-133275300D01*
X180393300Y-140155900D02*
X180393300Y-139066700D01*
X181426500Y-141189100D02*
X180393300Y-140155900D01*
X183219500Y-141189100D02*
X181426500Y-141189100D01*
X186240200Y-144209800D02*
X183219500Y-141189100D01*
X171470000Y-132150000D02*
X172595300Y-132150000D01*
%TO.N,/VDP/AD1*%
X183534800Y-143285000D02*
X184459600Y-144209800D01*
X181008500Y-143285000D02*
X183534800Y-143285000D01*
X177964600Y-140241100D02*
X181008500Y-143285000D01*
X177964600Y-139542600D02*
X177964600Y-140241100D01*
X176254700Y-137832700D02*
X177964600Y-139542600D01*
X174846800Y-137832700D02*
X176254700Y-137832700D01*
X174170000Y-119980000D02*
X175295300Y-119980000D01*
X205550000Y-120130000D02*
X204424700Y-120130000D01*
X204424700Y-119937200D02*
X204424700Y-120130000D01*
X203492200Y-119004700D02*
X204424700Y-119937200D01*
X191307800Y-119004700D02*
X203492200Y-119004700D01*
X188739100Y-121573400D02*
X191307800Y-119004700D01*
X176607400Y-121573400D02*
X188739100Y-121573400D01*
X175295300Y-120261300D02*
X176607400Y-121573400D01*
X175295300Y-119980000D02*
X175295300Y-120261300D01*
%TO.N,/VDP/AD2*%
X182338300Y-137938300D02*
X176550000Y-132150000D01*
X183391400Y-137938300D02*
X182338300Y-137938300D01*
X206964700Y-119848700D02*
X206964700Y-120130000D01*
X205669600Y-118553600D02*
X206964700Y-119848700D01*
X190518700Y-118553600D02*
X205669600Y-118553600D01*
X187949200Y-121123100D02*
X190518700Y-118553600D01*
X178762500Y-121123100D02*
X187949200Y-121123100D01*
X177835300Y-120195900D02*
X178762500Y-121123100D01*
X177835300Y-119980000D02*
X177835300Y-120195900D01*
X176710000Y-119980000D02*
X177835300Y-119980000D01*
X208090000Y-120130000D02*
X206964700Y-120130000D01*
%TO.N,/VDP/AD3*%
X209504700Y-119848700D02*
X209504700Y-120130000D01*
X207759200Y-118103200D02*
X209504700Y-119848700D01*
X181970800Y-118103200D02*
X207759200Y-118103200D01*
X180375300Y-119698700D02*
X181970800Y-118103200D01*
X180375300Y-119980000D02*
X180375300Y-119698700D01*
X179250000Y-119980000D02*
X180375300Y-119980000D01*
X210630000Y-120130000D02*
X209504700Y-120130000D01*
%TO.N,/VDP/AD7*%
X181630000Y-132150000D02*
X182755300Y-132150000D01*
X213170000Y-131930000D02*
X212044700Y-131930000D01*
X213170000Y-120130000D02*
X213170000Y-121255300D01*
X184100600Y-130804700D02*
X211787400Y-130804700D01*
X182755300Y-132150000D02*
X184100600Y-130804700D01*
X212044700Y-131062000D02*
X211787400Y-130804700D01*
X212044700Y-131930000D02*
X212044700Y-131062000D01*
X211787400Y-122637900D02*
X213170000Y-121255300D01*
X211787400Y-130804700D02*
X211787400Y-122637900D01*
%TO.N,/VDP/AD4*%
X210630000Y-127750000D02*
X209504700Y-127750000D01*
X179250000Y-127600000D02*
X180375300Y-127600000D01*
X182607500Y-130338900D02*
X182720200Y-130226200D01*
X182607500Y-131121100D02*
X182607500Y-130338900D01*
X180375300Y-127881300D02*
X182720200Y-130226200D01*
X180375300Y-127600000D02*
X180375300Y-127881300D01*
X209504700Y-128031300D02*
X209504700Y-127750000D01*
X207309800Y-130226200D02*
X209504700Y-128031300D01*
X182720200Y-130226200D02*
X207309800Y-130226200D01*
%TO.N,/VDP/AD5*%
X177441600Y-141786900D02*
X176550000Y-140895300D01*
X177441600Y-144199600D02*
X177441600Y-141786900D01*
X176550000Y-139770000D02*
X176550000Y-140895300D01*
X176710000Y-127600000D02*
X177835300Y-127600000D01*
X208090000Y-127750000D02*
X206964700Y-127750000D01*
X206964700Y-128031400D02*
X206964700Y-127750000D01*
X205220200Y-129775900D02*
X206964700Y-128031400D01*
X191542000Y-129775900D02*
X205220200Y-129775900D01*
X188231700Y-126465600D02*
X191542000Y-129775900D01*
X178688400Y-126465600D02*
X188231700Y-126465600D01*
X177835300Y-127318700D02*
X178688400Y-126465600D01*
X177835300Y-127600000D02*
X177835300Y-127318700D01*
%TO.N,/VDP/AD6*%
X175661100Y-142546400D02*
X174010000Y-140895300D01*
X175661100Y-144199600D02*
X175661100Y-142546400D01*
X174010000Y-139770000D02*
X174010000Y-140895300D01*
X205550000Y-127750000D02*
X204424700Y-127750000D01*
X174170000Y-127600000D02*
X175295300Y-127600000D01*
X204424700Y-128031400D02*
X204424700Y-127750000D01*
X203130500Y-129325600D02*
X204424700Y-128031400D01*
X191728600Y-129325600D02*
X203130500Y-129325600D01*
X188392300Y-125989300D02*
X191728600Y-129325600D01*
X176624700Y-125989300D02*
X188392300Y-125989300D01*
X175295300Y-127318700D02*
X176624700Y-125989300D01*
X175295300Y-127600000D02*
X175295300Y-127318700D01*
%TO.N,Net-(C36-Pad1)*%
X145075100Y-99261400D02*
X145075100Y-98980000D01*
X145919000Y-100105300D02*
X145075100Y-99261400D01*
X147472500Y-100105300D02*
X145919000Y-100105300D01*
X147836900Y-99740900D02*
X147472500Y-100105300D01*
X151641900Y-99740900D02*
X147836900Y-99740900D01*
X152514700Y-100613700D02*
X151641900Y-99740900D01*
X152514700Y-100895000D02*
X152514700Y-100613700D01*
X153640000Y-100895000D02*
X152514700Y-100895000D01*
X143949800Y-98980000D02*
X145075100Y-98980000D01*
%TO.N,Net-(C35-Pad1)*%
X124356700Y-101161400D02*
X124356700Y-100880000D01*
X123512800Y-102005300D02*
X124356700Y-101161400D01*
X119686200Y-102005300D02*
X123512800Y-102005300D01*
X116912200Y-99231300D02*
X119686200Y-102005300D01*
X116912200Y-98950000D02*
X116912200Y-99231300D01*
X115786900Y-98950000D02*
X116912200Y-98950000D01*
X125482000Y-100880000D02*
X124356700Y-100880000D01*
%TO.N,/VDP/VD1*%
X198749700Y-141495000D02*
X197930000Y-140675300D01*
X198749700Y-144209800D02*
X198749700Y-141495000D01*
X197930000Y-139550000D02*
X197930000Y-140675300D01*
%TO.N,/ACR/STATUS-PSG*%
X200134600Y-220321900D02*
X196214400Y-220321900D01*
X206700400Y-213756100D02*
X200134600Y-220321900D01*
X206700400Y-212619700D02*
X206700400Y-213756100D01*
X208663700Y-210656400D02*
X206700400Y-212619700D01*
X219491000Y-210656400D02*
X208663700Y-210656400D01*
X224563800Y-205583600D02*
X219491000Y-210656400D01*
X224563800Y-196203600D02*
X224563800Y-205583600D01*
X222665500Y-194305300D02*
X224563800Y-196203600D01*
X222334200Y-194305300D02*
X222665500Y-194305300D01*
X221490300Y-193461400D02*
X222334200Y-194305300D01*
X221490300Y-193180000D02*
X221490300Y-193461400D01*
X56420300Y-193461300D02*
X56420300Y-193180000D01*
X57714900Y-194755900D02*
X56420300Y-193461300D01*
X71231700Y-194755900D02*
X57714900Y-194755900D01*
X74472800Y-197997000D02*
X71231700Y-194755900D01*
X96963200Y-197997000D02*
X74472800Y-197997000D01*
X55295000Y-193180000D02*
X56420300Y-193180000D01*
X220365000Y-193180000D02*
X221490300Y-193180000D01*
%TO.N,/ACR/STATUS-VDP*%
X53880300Y-201081300D02*
X53880300Y-200800000D01*
X67082000Y-214283000D02*
X53880300Y-201081300D01*
X75149000Y-214283000D02*
X67082000Y-214283000D01*
X81330000Y-220464000D02*
X75149000Y-214283000D01*
X81330000Y-223422100D02*
X81330000Y-220464000D01*
X82160200Y-224252300D02*
X81330000Y-223422100D01*
X110473700Y-224252300D02*
X82160200Y-224252300D01*
X112959100Y-226737700D02*
X110473700Y-224252300D01*
X185237100Y-226737700D02*
X112959100Y-226737700D01*
X198349400Y-213625400D02*
X185237100Y-226737700D01*
X202452100Y-213625400D02*
X198349400Y-213625400D01*
X205871500Y-210206000D02*
X202452100Y-213625400D01*
X212341800Y-210206000D02*
X205871500Y-210206000D01*
X217005000Y-205542800D02*
X212341800Y-210206000D01*
X217005000Y-204722700D02*
X217005000Y-205542800D01*
X219802400Y-201925300D02*
X217005000Y-204722700D01*
X220365000Y-201925300D02*
X219802400Y-201925300D01*
X220365000Y-200800000D02*
X220365000Y-201925300D01*
X52755000Y-200800000D02*
X53880300Y-200800000D01*
%TO.N,Net-(U24-Pad8)*%
X47675000Y-200800000D02*
X46549700Y-200800000D01*
X126973700Y-197967300D02*
X128546100Y-196394900D01*
X107183500Y-197967300D02*
X126973700Y-197967300D01*
X106416200Y-198734600D02*
X107183500Y-197967300D01*
X96675100Y-198734600D02*
X106416200Y-198734600D01*
X96414700Y-198474200D02*
X96675100Y-198734600D01*
X61851300Y-198474200D02*
X96414700Y-198474200D01*
X61793300Y-198416200D02*
X61851300Y-198474200D01*
X43819200Y-198416200D02*
X61793300Y-198416200D01*
X41963900Y-200271500D02*
X43819200Y-198416200D01*
X41963900Y-201327400D02*
X41963900Y-200271500D01*
X42561800Y-201925300D02*
X41963900Y-201327400D01*
X45424400Y-201925300D02*
X42561800Y-201925300D01*
X46549700Y-200800000D02*
X45424400Y-201925300D01*
%TO.N,~{VDP_WR}*%
X107290000Y-205380000D02*
X108415300Y-205380000D01*
X108415300Y-205098700D02*
X108415300Y-205380000D01*
X111429700Y-202084300D02*
X108415300Y-205098700D01*
X122075300Y-202084300D02*
X111429700Y-202084300D01*
X125687400Y-198472200D02*
X122075300Y-202084300D01*
X127527700Y-198472200D02*
X125687400Y-198472200D01*
X132325000Y-193674900D02*
X127527700Y-198472200D01*
X132325000Y-192930000D02*
X132325000Y-193674900D01*
X133615800Y-191639200D02*
X132325000Y-192930000D01*
X134606300Y-191639200D02*
X133615800Y-191639200D01*
X149270500Y-176975000D02*
X134606300Y-191639200D01*
X207566100Y-176975000D02*
X149270500Y-176975000D01*
X207798000Y-176743100D02*
X207566100Y-176975000D01*
%TO.N,~{VDP_RD}*%
X211895000Y-180635000D02*
X210719700Y-180635000D01*
X109830000Y-205380000D02*
X110955300Y-205380000D01*
X210719700Y-180267700D02*
X210719700Y-180635000D01*
X208968100Y-178516100D02*
X210719700Y-180267700D01*
X150707600Y-178516100D02*
X208968100Y-178516100D01*
X137549600Y-191674100D02*
X150707600Y-178516100D01*
X137549600Y-193458300D02*
X137549600Y-191674100D01*
X131804300Y-199203600D02*
X137549600Y-193458300D01*
X125610200Y-199203600D02*
X131804300Y-199203600D01*
X122119700Y-202694100D02*
X125610200Y-199203600D01*
X113359900Y-202694100D02*
X122119700Y-202694100D01*
X110955300Y-205098700D02*
X113359900Y-202694100D01*
X110955300Y-205380000D02*
X110955300Y-205098700D01*
%TO.N,~{CS_ACR_WR}*%
X117450000Y-205380000D02*
X118575300Y-205380000D01*
X118575300Y-205098600D02*
X118575300Y-205380000D01*
X119419200Y-204254700D02*
X118575300Y-205098600D01*
X128628600Y-204254700D02*
X119419200Y-204254700D01*
X129857400Y-203025900D02*
X128628600Y-204254700D01*
X136193300Y-203025900D02*
X129857400Y-203025900D01*
X136294500Y-203127100D02*
X136193300Y-203025900D01*
X196105000Y-203127100D02*
X136294500Y-203127100D01*
X202374600Y-196857500D02*
X196105000Y-203127100D01*
X221891600Y-196857500D02*
X202374600Y-196857500D01*
%TO.N,~{CS_ACR}*%
X152125000Y-200800000D02*
X153250300Y-200800000D01*
X169905000Y-193180000D02*
X168779700Y-193180000D01*
X153250300Y-200518500D02*
X153250300Y-200800000D01*
X155219800Y-198549000D02*
X153250300Y-200518500D01*
X163692000Y-198549000D02*
X155219800Y-198549000D01*
X168779700Y-193461300D02*
X163692000Y-198549000D01*
X168779700Y-193180000D02*
X168779700Y-193461300D01*
X149774300Y-199574600D02*
X150999700Y-200800000D01*
X138356900Y-199574600D02*
X149774300Y-199574600D01*
X137511200Y-200420300D02*
X138356900Y-199574600D01*
X137511200Y-201172400D02*
X137511200Y-200420300D01*
X136162100Y-202521500D02*
X137511200Y-201172400D01*
X123619200Y-202521500D02*
X136162100Y-202521500D01*
X122945000Y-203195700D02*
X123619200Y-202521500D01*
X118035700Y-203195700D02*
X122945000Y-203195700D01*
X116278000Y-204953400D02*
X118035700Y-203195700D01*
X116278000Y-205836700D02*
X116278000Y-204953400D01*
X116963700Y-206522400D02*
X116278000Y-205836700D01*
X118847600Y-206522400D02*
X116963700Y-206522400D01*
X119990000Y-205380000D02*
X118847600Y-206522400D01*
X152125000Y-200800000D02*
X150999700Y-200800000D01*
%TO.N,~{CS_MEDIA}*%
X208115000Y-205180000D02*
X206989700Y-205180000D01*
X174615000Y-205180000D02*
X175740300Y-205180000D01*
X174615000Y-205180000D02*
X173489700Y-205180000D01*
X206989700Y-204898600D02*
X206989700Y-205180000D01*
X206145800Y-204054700D02*
X206989700Y-204898600D01*
X176584300Y-204054700D02*
X206145800Y-204054700D01*
X175740300Y-204898700D02*
X176584300Y-204054700D01*
X175740300Y-205180000D02*
X175740300Y-204898700D01*
X109830000Y-213000000D02*
X110955300Y-213000000D01*
X173489700Y-206256700D02*
X173489700Y-205180000D01*
X170289000Y-209457400D02*
X173489700Y-206256700D01*
X146321600Y-209457400D02*
X170289000Y-209457400D01*
X143904300Y-211874700D02*
X146321600Y-209457400D01*
X137273400Y-211874700D02*
X143904300Y-211874700D01*
X134571200Y-214576900D02*
X137273400Y-211874700D01*
X114859900Y-214576900D02*
X134571200Y-214576900D01*
X113640000Y-213357000D02*
X114859900Y-214576900D01*
X113640000Y-212621400D02*
X113640000Y-213357000D01*
X112853700Y-211835100D02*
X113640000Y-212621400D01*
X111838900Y-211835100D02*
X112853700Y-211835100D01*
X110955300Y-212718700D02*
X111838900Y-211835100D01*
X110955300Y-213000000D02*
X110955300Y-212718700D01*
%TO.N,Net-(R16-Pad2)*%
X239159000Y-137230000D02*
X241250000Y-137230000D01*
X235560300Y-140828700D02*
X239159000Y-137230000D01*
X235560300Y-141110000D02*
X235560300Y-140828700D01*
X234435000Y-141110000D02*
X235560300Y-141110000D01*
%TO.N,Net-(R15-Pad2)*%
X234124700Y-137755000D02*
X234124700Y-137230000D01*
X231895000Y-139984700D02*
X234124700Y-137755000D01*
X231895000Y-141110000D02*
X231895000Y-139984700D01*
X235250000Y-137230000D02*
X234124700Y-137230000D01*
%TO.N,Net-(Q1-Pad3)*%
X133595000Y-193280000D02*
X134720300Y-193280000D01*
X252750000Y-177060000D02*
X251624700Y-177060000D01*
X248020000Y-175419400D02*
X248020000Y-175110000D01*
X249984100Y-175419400D02*
X251624700Y-177060000D01*
X248020000Y-175419400D02*
X249984100Y-175419400D01*
X134720300Y-193101200D02*
X134720300Y-193280000D01*
X136888800Y-190932700D02*
X134720300Y-193101200D01*
X137652400Y-190932700D02*
X136888800Y-190932700D01*
X150567800Y-178017300D02*
X137652400Y-190932700D01*
X221655000Y-178017300D02*
X150567800Y-178017300D01*
X221871700Y-178234000D02*
X221655000Y-178017300D01*
X245205400Y-178234000D02*
X221871700Y-178234000D01*
X248020000Y-175419400D02*
X245205400Y-178234000D01*
%TO.N,/PSG/JOYAL*%
X133540000Y-83742500D02*
X135016900Y-85219400D01*
%TO.N,/PSG/JOYBF*%
X113045000Y-162075000D02*
X114170300Y-162075000D01*
X145771700Y-153543600D02*
X145975300Y-153747200D01*
X143633800Y-153543600D02*
X145771700Y-153543600D01*
X143102800Y-154074600D02*
X143633800Y-153543600D01*
X138766700Y-154074600D02*
X143102800Y-154074600D01*
X138637700Y-154203600D02*
X138766700Y-154074600D01*
X130952200Y-154203600D02*
X138637700Y-154203600D01*
X130141700Y-155014100D02*
X130952200Y-154203600D01*
X120949900Y-155014100D02*
X130141700Y-155014100D01*
X114170300Y-161793700D02*
X120949900Y-155014100D01*
X114170300Y-162075000D02*
X114170300Y-161793700D01*
%TO.N,/PSG/JOYBR*%
X115585000Y-162075000D02*
X116710300Y-162075000D01*
X144277400Y-154524900D02*
X144524600Y-154277700D01*
X138953300Y-154524900D02*
X144277400Y-154524900D01*
X138824300Y-154653900D02*
X138953300Y-154524900D01*
X131138800Y-154653900D02*
X138824300Y-154653900D01*
X130328300Y-155464400D02*
X131138800Y-154653900D01*
X123039600Y-155464400D02*
X130328300Y-155464400D01*
X116710300Y-161793700D02*
X123039600Y-155464400D01*
X116710300Y-162075000D02*
X116710300Y-161793700D01*
%TO.N,/PSG/JOYBL*%
X118125000Y-162075000D02*
X119250300Y-162075000D01*
X142742400Y-157467500D02*
X143530600Y-157467500D01*
X142742400Y-157467600D02*
X142742400Y-157467500D01*
X141943900Y-158266100D02*
X142742400Y-157467600D01*
X130492300Y-158266100D02*
X141943900Y-158266100D01*
X127015000Y-161743400D02*
X130492300Y-158266100D01*
X127015000Y-162399900D02*
X127015000Y-161743400D01*
X126204600Y-163210300D02*
X127015000Y-162399900D01*
X120104300Y-163210300D02*
X126204600Y-163210300D01*
X119250300Y-162356300D02*
X120104300Y-163210300D01*
X119250300Y-162075000D02*
X119250300Y-162356300D01*
%TO.N,/PSG/JOYBD*%
X120665000Y-162075000D02*
X121790300Y-162075000D01*
X141111900Y-157008300D02*
X141929700Y-156190500D01*
X126668800Y-157008300D02*
X141111900Y-157008300D01*
X121790300Y-161886800D02*
X126668800Y-157008300D01*
X121790300Y-162075000D02*
X121790300Y-161886800D01*
%TO.N,/PSG/JOYBU*%
X123205000Y-162075000D02*
X124330300Y-162075000D01*
X141368400Y-157815800D02*
X141953800Y-157230400D01*
X128362600Y-157815800D02*
X141368400Y-157815800D01*
X124330300Y-161848100D02*
X128362600Y-157815800D01*
X124330300Y-162075000D02*
X124330300Y-161848100D01*
%TO.N,/PSG/POTA2*%
X140962300Y-145086100D02*
X147132600Y-145086100D01*
X140751400Y-144875200D02*
X140962300Y-145086100D01*
%TO.N,ACR5*%
X117202600Y-78789900D02*
X114790000Y-81202500D01*
X144632500Y-78789900D02*
X117202600Y-78789900D01*
X148314600Y-82472000D02*
X144632500Y-78789900D01*
X165268000Y-82472000D02*
X148314600Y-82472000D01*
X166291800Y-83495800D02*
X165268000Y-82472000D01*
X166291800Y-89519800D02*
X166291800Y-83495800D01*
X168466900Y-91694900D02*
X166291800Y-89519800D01*
X177960100Y-91694900D02*
X168466900Y-91694900D01*
X182650700Y-87004300D02*
X177960100Y-91694900D01*
X201089400Y-87004300D02*
X182650700Y-87004300D01*
X207665000Y-193180000D02*
X208790300Y-193180000D01*
X222193000Y-196132200D02*
X223322200Y-197261400D01*
X211461200Y-196132200D02*
X222193000Y-196132200D01*
X208790300Y-193461300D02*
X211461200Y-196132200D01*
X208790300Y-193180000D02*
X208790300Y-193461300D01*
%TO.N,Net-(P8-Pad7)*%
X92978900Y-178712300D02*
X87935600Y-178712300D01*
X109235000Y-162456200D02*
X92978900Y-178712300D01*
X109235000Y-161711800D02*
X109235000Y-162456200D01*
X117058400Y-153888400D02*
X109235000Y-161711800D01*
X125227500Y-153888400D02*
X117058400Y-153888400D01*
X126127700Y-152988200D02*
X125227500Y-153888400D01*
X137859200Y-152988200D02*
X126127700Y-152988200D01*
%TO.N,Net-(P8-Pad5)*%
X82180300Y-189715300D02*
X81005000Y-189715300D01*
X85414700Y-192949700D02*
X82180300Y-189715300D01*
X85414700Y-193180000D02*
X85414700Y-192949700D01*
X86540000Y-193180000D02*
X85414700Y-193180000D01*
X81005000Y-188540000D02*
X81005000Y-189715300D01*
%TO.N,Net-(P8-Pad4)*%
X100345000Y-162075000D02*
X100345000Y-163200300D01*
X101470300Y-159824400D02*
X100345000Y-160949700D01*
X101470300Y-144982300D02*
X101470300Y-159824400D01*
X103896800Y-142555800D02*
X101470300Y-144982300D01*
X120455800Y-142555800D02*
X103896800Y-142555800D01*
X121600000Y-143700000D02*
X120455800Y-142555800D01*
X100345000Y-162075000D02*
X100345000Y-160949700D01*
X100345000Y-163962900D02*
X100345000Y-163200300D01*
X86633800Y-177674100D02*
X100345000Y-163962900D01*
X81182200Y-177674100D02*
X86633800Y-177674100D01*
X80683300Y-177175200D02*
X81182200Y-177674100D01*
%TO.N,Net-(P8-Pad1)*%
X104350000Y-143700000D02*
X110100000Y-143700000D01*
X115850000Y-143700000D02*
X110100000Y-143700000D01*
X78465000Y-188540000D02*
X75925000Y-188540000D01*
X86333300Y-174672000D02*
X86333300Y-176948800D01*
X97805000Y-163200300D02*
X86333300Y-174672000D01*
X97805000Y-162075000D02*
X97805000Y-163200300D01*
%TO.N,/PSG/CLK_AY3*%
X114114700Y-193461400D02*
X114114700Y-193180000D01*
X113270800Y-194305300D02*
X114114700Y-193461400D01*
X109589300Y-194305300D02*
X113270800Y-194305300D01*
X108745300Y-193461300D02*
X109589300Y-194305300D01*
X108745300Y-193180000D02*
X108745300Y-193461300D01*
X115240000Y-193180000D02*
X114114700Y-193180000D01*
X107620000Y-193180000D02*
X108182700Y-193180000D01*
X108182700Y-193180000D02*
X108745300Y-193180000D01*
X82180300Y-186367400D02*
X82180300Y-186000000D01*
X82988200Y-187175300D02*
X82180300Y-186367400D01*
X102178000Y-187175300D02*
X82988200Y-187175300D01*
X108182700Y-193180000D02*
X102178000Y-187175300D01*
X81005000Y-186000000D02*
X82180300Y-186000000D01*
%TO.N,/VDP/CBDR*%
X209365000Y-167985000D02*
X209365000Y-169160300D01*
X208997600Y-169160300D02*
X209365000Y-169160300D01*
X208189700Y-169968200D02*
X208997600Y-169160300D01*
X208189700Y-170886200D02*
X208189700Y-169968200D01*
X205975900Y-173100000D02*
X208189700Y-170886200D01*
X188344700Y-173100000D02*
X205975900Y-173100000D01*
X185616100Y-170371400D02*
X188344700Y-173100000D01*
X176380700Y-170371400D02*
X185616100Y-170371400D01*
%TO.N,/VDP/C7*%
X183254200Y-165369800D02*
X185071100Y-167186700D01*
X181535400Y-165369800D02*
X183254200Y-165369800D01*
X179433000Y-163267400D02*
X181535400Y-165369800D01*
X206825000Y-167985000D02*
X206825000Y-169160300D01*
X191422000Y-170596900D02*
X187137500Y-170596900D01*
X191846800Y-171021700D02*
X191422000Y-170596900D01*
X191846800Y-171140400D02*
X191846800Y-171021700D01*
X192888500Y-172182100D02*
X191846800Y-171140400D01*
X204293600Y-172182100D02*
X192888500Y-172182100D01*
X205649700Y-170826000D02*
X204293600Y-172182100D01*
X205649700Y-169968200D02*
X205649700Y-170826000D01*
X206457600Y-169160300D02*
X205649700Y-169968200D01*
X206825000Y-169160300D02*
X206457600Y-169160300D01*
%TO.N,/VDP/C6*%
X204700400Y-172649600D02*
X206825000Y-170525000D01*
X192448900Y-172649600D02*
X204700400Y-172649600D01*
X191121500Y-171322200D02*
X192448900Y-172649600D01*
%TO.N,/VDP/C5*%
X205460300Y-167617700D02*
X205460300Y-167985000D01*
X206968100Y-166109900D02*
X205460300Y-167617700D01*
X215125000Y-166109900D02*
X206968100Y-166109900D01*
X204285000Y-167985000D02*
X205460300Y-167985000D01*
%TO.N,/VDP/C4*%
X203109700Y-170892400D02*
X203109700Y-170525000D01*
X202301800Y-171700300D02*
X203109700Y-170892400D01*
X198675000Y-171700300D02*
X202301800Y-171700300D01*
X197935000Y-170960300D02*
X198675000Y-171700300D01*
X197935000Y-167574000D02*
X197935000Y-170960300D01*
X197111100Y-166750100D02*
X197935000Y-167574000D01*
X188252200Y-166750100D02*
X197111100Y-166750100D01*
X184769500Y-163267400D02*
X188252200Y-166750100D01*
X204285000Y-170525000D02*
X203109700Y-170525000D01*
%TO.N,/VDP/C3*%
X201745000Y-167985000D02*
X200569700Y-167985000D01*
X200569700Y-167617700D02*
X200569700Y-167985000D01*
X199494000Y-166542000D02*
X200569700Y-167617700D01*
X198100700Y-166542000D02*
X199494000Y-166542000D01*
X197858400Y-166299700D02*
X198100700Y-166542000D01*
X189582400Y-166299700D02*
X197858400Y-166299700D01*
X186550100Y-163267400D02*
X189582400Y-166299700D01*
%TO.N,/VDP/C2*%
X201745000Y-170525000D02*
X201745000Y-169349700D01*
X202112400Y-169349700D02*
X201745000Y-169349700D01*
X202920300Y-168541800D02*
X202112400Y-169349700D01*
X202920300Y-167493800D02*
X202920300Y-168541800D01*
X201518200Y-166091700D02*
X202920300Y-167493800D01*
X198287300Y-166091700D02*
X201518200Y-166091700D01*
X198012300Y-165816700D02*
X198287300Y-166091700D01*
X190879900Y-165816700D02*
X198012300Y-165816700D01*
X188330600Y-163267400D02*
X190879900Y-165816700D01*
%TO.N,/VDP/C1*%
X192207600Y-165366400D02*
X198587700Y-165366400D01*
X190108600Y-163267400D02*
X192207600Y-165366400D01*
%TO.N,/VDP/C0*%
X192932300Y-164310600D02*
X196156600Y-164310600D01*
X191889100Y-163267400D02*
X192932300Y-164310600D01*
%TO.N,AUDIO_R*%
X156180000Y-108515000D02*
X155054700Y-108515000D01*
X138499700Y-104840000D02*
X135374700Y-101715000D01*
X151574500Y-104840000D02*
X138499700Y-104840000D01*
X155054700Y-108320200D02*
X151574500Y-104840000D01*
X155054700Y-108515000D02*
X155054700Y-108320200D01*
X129292000Y-107797700D02*
X135374700Y-101715000D01*
X129292000Y-123847800D02*
X129292000Y-107797700D01*
X128189800Y-124950000D02*
X129292000Y-123847800D01*
%TO.N,/VDP/YS*%
X223940000Y-99500000D02*
X221560000Y-99500000D01*
%TO.N,/VDP/AV*%
X223940000Y-93500000D02*
X221560000Y-93500000D01*
%TO.N,VRY_CLK*%
X78882000Y-220192700D02*
X79436000Y-219638700D01*
X78882000Y-223487100D02*
X78882000Y-220192700D01*
X79665600Y-224270700D02*
X78882000Y-223487100D01*
X80491300Y-224270700D02*
X79665600Y-224270700D01*
X81330200Y-225109600D02*
X80491300Y-224270700D01*
X81330200Y-225983200D02*
X81330200Y-225109600D01*
X83298200Y-227951200D02*
X81330200Y-225983200D01*
X190392800Y-227951200D02*
X83298200Y-227951200D01*
X196975200Y-221368800D02*
X190392800Y-227951200D01*
X211362500Y-221368800D02*
X196975200Y-221368800D01*
X219545000Y-213186300D02*
X211362500Y-221368800D01*
X219545000Y-212447000D02*
X219545000Y-213186300D01*
X220359100Y-211632900D02*
X219545000Y-212447000D01*
X225498100Y-211632900D02*
X220359100Y-211632900D01*
X254155600Y-182975400D02*
X225498100Y-211632900D01*
X257213600Y-182975400D02*
X254155600Y-182975400D01*
X258750000Y-181439000D02*
X257213600Y-182975400D01*
X258750000Y-177060000D02*
X258750000Y-181439000D01*
%TO.N,Net-(JP4-Pad2)*%
X131141200Y-143140300D02*
X132100000Y-143140300D01*
X129645700Y-144635800D02*
X131141200Y-143140300D01*
X132100000Y-141965000D02*
X132100000Y-143140300D01*
%TO.N,Net-(JP3-Pad1)*%
X186725000Y-168000000D02*
X185549700Y-168000000D01*
X184858700Y-168000000D02*
X185549700Y-168000000D01*
X183683400Y-166824700D02*
X184858700Y-168000000D01*
X181673500Y-166824700D02*
X183683400Y-166824700D01*
X178491900Y-163643100D02*
X181673500Y-166824700D01*
X178491900Y-162830200D02*
X178491900Y-163643100D01*
X179035900Y-162286200D02*
X178491900Y-162830200D01*
X194367400Y-162286200D02*
X179035900Y-162286200D01*
X195348600Y-163267400D02*
X194367400Y-162286200D01*
%TO.N,Net-(JP1-Pad3)*%
X256200000Y-176802800D02*
X256200000Y-181800000D01*
X259884800Y-173118000D02*
X256200000Y-176802800D01*
X259884800Y-168956300D02*
X259884800Y-173118000D01*
X259201300Y-168272800D02*
X259884800Y-168956300D01*
X248707500Y-168272800D02*
X259201300Y-168272800D01*
X247925300Y-169055000D02*
X248707500Y-168272800D01*
X246750000Y-169055000D02*
X247925300Y-169055000D01*
%TO.N,Net-(JP1-Pad1)*%
X210764100Y-174802700D02*
X237785800Y-174802700D01*
X210764100Y-174802800D02*
X210764100Y-174802700D01*
X208097100Y-177469800D02*
X210764100Y-174802800D01*
X150060900Y-177469800D02*
X208097100Y-177469800D01*
X137773600Y-189757100D02*
X150060900Y-177469800D01*
%TO.N,/PSG/JOYBH*%
X127694800Y-128723600D02*
X127694800Y-131602000D01*
X145165800Y-111252600D02*
X127694800Y-128723600D01*
X153495000Y-111252600D02*
X145165800Y-111252600D01*
%TO.N,/PSG/POTA1*%
X137452700Y-89295000D02*
X130910000Y-89295000D01*
X137919700Y-89762000D02*
X137452700Y-89295000D01*
X137919700Y-90570000D02*
X137919700Y-89762000D01*
X139095000Y-90570000D02*
X137919700Y-90570000D01*
%TO.N,Net-(J10-Pad2)*%
X128370000Y-89295000D02*
X129545300Y-89295000D01*
X138161800Y-86740700D02*
X141160000Y-83742500D01*
X131751300Y-86740700D02*
X138161800Y-86740700D01*
X129545300Y-88946700D02*
X131751300Y-86740700D01*
X129545300Y-89295000D02*
X129545300Y-88946700D01*
%TO.N,/PSG/JOYBG*%
X160072700Y-89290000D02*
X153255000Y-89290000D01*
X160539700Y-89757000D02*
X160072700Y-89290000D01*
X160539700Y-90565000D02*
X160539700Y-89757000D01*
X161715000Y-90565000D02*
X160539700Y-90565000D01*
X110505000Y-162075000D02*
X111630300Y-162075000D01*
X138855000Y-153349300D02*
X142802300Y-153349300D01*
X138451000Y-153753300D02*
X138855000Y-153349300D01*
X126224400Y-153753300D02*
X138451000Y-153753300D01*
X125413900Y-154563800D02*
X126224400Y-153753300D01*
X118937000Y-154563800D02*
X125413900Y-154563800D01*
X111630300Y-161870500D02*
X118937000Y-154563800D01*
X111630300Y-162075000D02*
X111630300Y-161870500D01*
%TO.N,Net-(J8-Pad2)*%
X151890300Y-88922700D02*
X151890300Y-89290000D01*
X155894100Y-84918900D02*
X151890300Y-88922700D01*
X163653600Y-84918900D02*
X155894100Y-84918900D01*
X164830000Y-83742500D02*
X163653600Y-84918900D01*
X150715000Y-89290000D02*
X151890300Y-89290000D01*
%TO.N,Net-(J9-Pad2)*%
X98015000Y-219000000D02*
X96839700Y-219000000D01*
X74040000Y-213000000D02*
X75165300Y-213000000D01*
X96839700Y-218191900D02*
X96839700Y-219000000D01*
X96381100Y-217733300D02*
X96839700Y-218191900D01*
X79679700Y-217733300D02*
X96381100Y-217733300D01*
X75165300Y-213218900D02*
X79679700Y-217733300D01*
X75165300Y-213000000D02*
X75165300Y-213218900D01*
%TO.N,Net-(C85-Pad2)*%
X163425300Y-187874700D02*
X166900000Y-184400000D01*
X163210000Y-187874700D02*
X163425300Y-187874700D01*
X163210000Y-189000000D02*
X163210000Y-187874700D01*
%TO.N,Net-(C84-Pad2)*%
X143210000Y-189000000D02*
X144335300Y-189000000D01*
X153210000Y-189000000D02*
X152084700Y-189000000D01*
X144335300Y-189422000D02*
X144335300Y-189000000D01*
X145038600Y-190125300D02*
X144335300Y-189422000D01*
X150959400Y-190125300D02*
X145038600Y-190125300D01*
X152084700Y-189000000D02*
X150959400Y-190125300D01*
X153425300Y-187874700D02*
X153210000Y-187874700D01*
X156900000Y-184400000D02*
X153425300Y-187874700D01*
X153210000Y-189000000D02*
X153210000Y-187874700D01*
%TO.N,AUDIO_L*%
X128022000Y-108500000D02*
X126896700Y-108500000D01*
X126896700Y-108218700D02*
X126896700Y-108500000D01*
X124793100Y-106115100D02*
X126896700Y-108218700D01*
X110557100Y-106115100D02*
X124793100Y-106115100D01*
X110557100Y-104957100D02*
X110557100Y-106115100D01*
X107300000Y-101700000D02*
X110557100Y-104957100D01*
X110557100Y-109992700D02*
X96099800Y-124450000D01*
X110557100Y-106115100D02*
X110557100Y-109992700D01*
D41*
%TO.N,/Amplifier/AMPPWR*%
X189265000Y-218250000D02*
X189265000Y-216699700D01*
X189265000Y-216699700D02*
X169288800Y-216699700D01*
X125702000Y-103200000D02*
X128022000Y-100880000D01*
X116992000Y-103200000D02*
X125702000Y-103200000D01*
X141245200Y-99365200D02*
X145110000Y-103230000D01*
X129536800Y-99365200D02*
X141245200Y-99365200D01*
X128022000Y-100880000D02*
X129536800Y-99365200D01*
X153845000Y-103230000D02*
X145110000Y-103230000D01*
X156180000Y-100895000D02*
X153845000Y-103230000D01*
D42*
%TO.N,Net-(C81-Pad1)*%
X117600000Y-131740000D02*
X120140000Y-129200000D01*
X107849400Y-137205300D02*
X108974700Y-136080000D01*
X99344700Y-137205300D02*
X107849400Y-137205300D01*
X92850000Y-143700000D02*
X99344700Y-137205300D01*
X110100000Y-136080000D02*
X108974700Y-136080000D01*
%TO.N,Net-(C80-Pad2)*%
X93476200Y-133076200D02*
X92350000Y-131950000D01*
X103053800Y-133076200D02*
X93476200Y-133076200D01*
X104390000Y-131740000D02*
X103053800Y-133076200D01*
X119730000Y-136080000D02*
X115850000Y-136080000D01*
X127350000Y-143700000D02*
X119730000Y-136080000D01*
X110384700Y-131740000D02*
X104390000Y-131740000D01*
X114724700Y-136080000D02*
X110384700Y-131740000D01*
X115850000Y-136080000D02*
X114724700Y-136080000D01*
%TO.N,Net-(C62-Pad1)*%
X214710600Y-144250000D02*
X214670400Y-144209800D01*
X218800000Y-144250000D02*
X214710600Y-144250000D01*
%TO.N,/VDP/CHROMA*%
X256375600Y-117478000D02*
X262067600Y-123170000D01*
X253945000Y-117478000D02*
X256375600Y-117478000D01*
X229101700Y-92634700D02*
X253945000Y-117478000D01*
X229101700Y-92016100D02*
X229101700Y-92634700D01*
X222105100Y-85019500D02*
X229101700Y-92016100D01*
X219571400Y-85019500D02*
X222105100Y-85019500D01*
X215663500Y-81111600D02*
X219571400Y-85019500D01*
X192538400Y-81111600D02*
X215663500Y-81111600D01*
X192400000Y-81250000D02*
X192538400Y-81111600D01*
%TO.N,/VDP/COMP*%
X216117200Y-85853500D02*
X216454500Y-85516200D01*
X205884500Y-85853500D02*
X216117200Y-85853500D01*
X203500000Y-83469000D02*
X205884500Y-85853500D01*
X247635200Y-112378700D02*
X247635200Y-123170000D01*
X228651300Y-93394800D02*
X247635200Y-112378700D01*
X228651300Y-92250400D02*
X228651300Y-93394800D01*
X221917100Y-85516200D02*
X228651300Y-92250400D01*
X216454500Y-85516200D02*
X221917100Y-85516200D01*
%TO.N,/VDP/BOUT*%
X182415000Y-94525000D02*
X183590300Y-94525000D01*
X183590300Y-94157600D02*
X183590300Y-94525000D01*
X184398200Y-93349700D02*
X183590300Y-94157600D01*
X200074700Y-93349700D02*
X184398200Y-93349700D01*
X201875400Y-91549000D02*
X200074700Y-93349700D01*
X226879600Y-91549000D02*
X201875400Y-91549000D01*
X227204100Y-91873500D02*
X226879600Y-91549000D01*
%TO.N,/VDP/GOUT*%
X181050300Y-91617700D02*
X181050300Y-91985000D01*
X184651800Y-88016200D02*
X181050300Y-91617700D01*
X213954500Y-88016200D02*
X184651800Y-88016200D01*
X179875000Y-91985000D02*
X181050300Y-91985000D01*
%TO.N,/VDP/ROUT*%
X181050300Y-94157600D02*
X181050300Y-94525000D01*
X181858200Y-93349700D02*
X181050300Y-94157600D01*
X182734500Y-93349700D02*
X181858200Y-93349700D01*
X183651600Y-92432600D02*
X182734500Y-93349700D01*
X183651600Y-91612800D02*
X183651600Y-92432600D01*
X184883400Y-90381000D02*
X183651600Y-91612800D01*
X219089700Y-90381000D02*
X184883400Y-90381000D01*
X221454500Y-88016200D02*
X219089700Y-90381000D01*
X179875000Y-94525000D02*
X181050300Y-94525000D01*
%TO.N,Net-(C54-Pad1)*%
X250800300Y-141391300D02*
X250800300Y-141110000D01*
X252579000Y-143170000D02*
X250800300Y-141391300D01*
X257044900Y-143170000D02*
X252579000Y-143170000D01*
X249675000Y-141110000D02*
X250800300Y-141110000D01*
%TO.N,Net-(C53-Pad1)*%
X155129600Y-144199600D02*
X153750000Y-142820000D01*
X159742900Y-144199600D02*
X155129600Y-144199600D01*
X151430000Y-140500000D02*
X148000000Y-140500000D01*
X153750000Y-142820000D02*
X151430000Y-140500000D01*
%TO.N,Net-(C52-Pad1)*%
X158020500Y-147700000D02*
X153750000Y-147700000D01*
X161520900Y-144199600D02*
X158020500Y-147700000D01*
X149545300Y-147700000D02*
X149125300Y-148120000D01*
X153750000Y-147700000D02*
X149545300Y-147700000D01*
X148000000Y-148120000D02*
X149125300Y-148120000D01*
%TO.N,Net-(C51-Pad2)*%
X253590000Y-159670000D02*
X258750000Y-164830000D01*
X252750000Y-159670000D02*
X253590000Y-159670000D01*
%TO.N,~{IEI}*%
X53477500Y-224357500D02*
X54660000Y-225540000D01*
X53477500Y-220437800D02*
X53477500Y-224357500D01*
X53740000Y-220175300D02*
X53477500Y-220437800D01*
X53740000Y-219000000D02*
X53740000Y-220175300D01*
%TO.N,~{BAO}*%
X56017500Y-224357500D02*
X57200000Y-225540000D01*
X56017500Y-220437800D02*
X56017500Y-224357500D01*
X56280000Y-220175300D02*
X56017500Y-220437800D01*
X56280000Y-219000000D02*
X56280000Y-220175300D01*
%TO.N,~{BAI}*%
X58557500Y-224357500D02*
X59740000Y-225540000D01*
X58557500Y-220437800D02*
X58557500Y-224357500D01*
X58820000Y-220175300D02*
X58557500Y-220437800D01*
X58820000Y-219000000D02*
X58820000Y-220175300D01*
%TO.N,Net-(C49-Pad1)*%
X240560000Y-166250000D02*
X238750000Y-166250000D01*
X244876700Y-170566700D02*
X240560000Y-166250000D01*
X257623300Y-170566700D02*
X244876700Y-170566700D01*
X258750000Y-169440000D02*
X257623300Y-170566700D01*
%TO.N,~{RES_OUT}*%
X85424700Y-220175300D02*
X82600000Y-223000000D01*
X98571800Y-220175300D02*
X85424700Y-220175300D01*
X99379700Y-219367400D02*
X98571800Y-220175300D01*
X99379700Y-219000000D02*
X99379700Y-219367400D01*
X100555000Y-219000000D02*
X99379700Y-219000000D01*
%TO.N,/VDP/SYNCIN*%
X199534100Y-157383000D02*
X197704400Y-159212700D01*
X240178000Y-157383000D02*
X199534100Y-157383000D01*
X246009700Y-151551300D02*
X240178000Y-157383000D01*
X246009700Y-151270000D02*
X246009700Y-151551300D01*
X247135000Y-151270000D02*
X246009700Y-151270000D01*
X137741600Y-183400000D02*
X131855000Y-183400000D01*
X156686000Y-164455600D02*
X137741600Y-183400000D01*
X156686000Y-164058000D02*
X156686000Y-164455600D01*
X158875700Y-161868300D02*
X156686000Y-164058000D01*
X171701100Y-161868300D02*
X158875700Y-161868300D01*
X171855600Y-162022800D02*
X171701100Y-161868300D01*
%TO.N,/VDP/RED*%
X220562000Y-164688000D02*
X223250000Y-162000000D01*
X200210900Y-164688000D02*
X220562000Y-164688000D01*
X198810600Y-163287700D02*
X200210900Y-164688000D01*
%TO.N,bA2*%
X114910000Y-213000000D02*
X116035300Y-213000000D01*
X153490000Y-205380000D02*
X152364700Y-205380000D01*
X116035300Y-213281300D02*
X116035300Y-213000000D01*
X116879400Y-214125400D02*
X116035300Y-213281300D01*
X134230200Y-214125400D02*
X116879400Y-214125400D01*
X136931200Y-211424400D02*
X134230200Y-214125400D01*
X142773400Y-211424400D02*
X136931200Y-211424400D01*
X147692500Y-206505300D02*
X142773400Y-211424400D01*
X151520800Y-206505300D02*
X147692500Y-206505300D01*
X152364700Y-205661400D02*
X151520800Y-206505300D01*
X152364700Y-205380000D02*
X152364700Y-205661400D01*
%TO.N,bA1*%
X121115300Y-212718700D02*
X121115300Y-213000000D01*
X122885600Y-210948400D02*
X121115300Y-212718700D01*
X141906800Y-210948400D02*
X122885600Y-210948400D01*
X147284700Y-205570500D02*
X141906800Y-210948400D01*
X147284700Y-205380000D02*
X147284700Y-205570500D01*
X148410000Y-205380000D02*
X147284700Y-205380000D01*
X119990000Y-213000000D02*
X121115300Y-213000000D01*
X201735000Y-180635000D02*
X200559700Y-180635000D01*
X200559700Y-180267600D02*
X200559700Y-180635000D01*
X199751800Y-179459700D02*
X200559700Y-180267600D01*
X153267600Y-179459700D02*
X199751800Y-179459700D01*
X149188500Y-183538800D02*
X153267600Y-179459700D01*
%TO.N,~{bIORQ}*%
X136025400Y-215950600D02*
X95611500Y-215950600D01*
X142630000Y-222555200D02*
X136025400Y-215950600D01*
X142630000Y-223431000D02*
X142630000Y-222555200D01*
X143374400Y-224175400D02*
X142630000Y-223431000D01*
X149564100Y-224175400D02*
X143374400Y-224175400D01*
X150155400Y-223584100D02*
X149564100Y-224175400D01*
X150155400Y-222702200D02*
X150155400Y-223584100D01*
X158732200Y-214125400D02*
X150155400Y-222702200D01*
X169624300Y-214125400D02*
X158732200Y-214125400D01*
X170949700Y-212800000D02*
X169624300Y-214125400D01*
X172075000Y-212800000D02*
X170949700Y-212800000D01*
%TO.N,bA4*%
X193809700Y-205461300D02*
X193809700Y-205180000D01*
X187646400Y-211624600D02*
X193809700Y-205461300D01*
X160789400Y-211624600D02*
X187646400Y-211624600D01*
X159695300Y-212718700D02*
X160789400Y-211624600D01*
X159695300Y-213000000D02*
X159695300Y-212718700D01*
X158570000Y-213000000D02*
X159695300Y-213000000D01*
X194935000Y-205180000D02*
X193809700Y-205180000D01*
%TO.N,bA5*%
X153490000Y-213000000D02*
X154615300Y-213000000D01*
X189855000Y-205180000D02*
X188729700Y-205180000D01*
X154615300Y-212718700D02*
X154615300Y-213000000D01*
X156159800Y-211174200D02*
X154615300Y-212718700D01*
X182940000Y-211174200D02*
X156159800Y-211174200D01*
X188729700Y-205384500D02*
X182940000Y-211174200D01*
X188729700Y-205180000D02*
X188729700Y-205384500D01*
%TO.N,bA6*%
X184775000Y-205180000D02*
X183649700Y-205180000D01*
X148410000Y-213000000D02*
X149535300Y-213000000D01*
X149535300Y-212718700D02*
X149535300Y-213000000D01*
X151745100Y-210508900D02*
X149535300Y-212718700D01*
X178525300Y-210508900D02*
X151745100Y-210508900D01*
X183649700Y-205384500D02*
X178525300Y-210508900D01*
X183649700Y-205180000D02*
X183649700Y-205384500D01*
%TO.N,bA7*%
X178569700Y-205461300D02*
X178569700Y-205180000D01*
X173972500Y-210058500D02*
X178569700Y-205461300D01*
X147188400Y-210058500D02*
X173972500Y-210058500D01*
X144455300Y-212791600D02*
X147188400Y-210058500D01*
X144455300Y-213000000D02*
X144455300Y-212791600D01*
X143330000Y-213000000D02*
X144455300Y-213000000D01*
X179695000Y-205180000D02*
X178569700Y-205180000D01*
%TO.N,~{bM1}*%
X86740000Y-213000000D02*
X87865300Y-213000000D01*
X87865300Y-213281400D02*
X87865300Y-213000000D01*
X88709200Y-214125300D02*
X87865300Y-213281400D01*
X101525600Y-214125300D02*
X88709200Y-214125300D01*
X106491700Y-209159200D02*
X101525600Y-214125300D01*
X136068100Y-209159200D02*
X106491700Y-209159200D01*
X139520000Y-205707300D02*
X136068100Y-209159200D01*
X139520000Y-205019100D02*
X139520000Y-205707300D01*
X140292800Y-204246300D02*
X139520000Y-205019100D01*
X162374500Y-204246300D02*
X140292800Y-204246300D01*
X167047400Y-208919200D02*
X162374500Y-204246300D01*
X169736900Y-208919200D02*
X167047400Y-208919200D01*
X170390400Y-208265700D02*
X169736900Y-208919200D01*
%TO.N,bD7*%
X212067300Y-160514400D02*
X203324100Y-160514400D01*
X214840600Y-163287700D02*
X212067300Y-160514400D01*
X118125000Y-146835000D02*
X119250300Y-146835000D01*
X119250300Y-147116300D02*
X119250300Y-146835000D01*
X122145400Y-150011400D02*
X119250300Y-147116300D01*
X139263700Y-150011400D02*
X122145400Y-150011400D01*
X139449800Y-150197500D02*
X139263700Y-150011400D01*
X193827400Y-150197500D02*
X139449800Y-150197500D01*
X193971000Y-150053900D02*
X193827400Y-150197500D01*
%TO.N,bA0*%
X206815000Y-180635000D02*
X205639700Y-180635000D01*
X143330000Y-205380000D02*
X142204700Y-205380000D01*
X117450000Y-213000000D02*
X118575300Y-213000000D01*
X142204700Y-205661400D02*
X142204700Y-205380000D01*
X137789100Y-210077000D02*
X142204700Y-205661400D01*
X121293800Y-210077000D02*
X137789100Y-210077000D01*
X118575300Y-212795500D02*
X121293800Y-210077000D01*
X118575300Y-213000000D02*
X118575300Y-212795500D01*
X205639700Y-180267600D02*
X205639700Y-180635000D01*
X204356200Y-178984100D02*
X205639700Y-180267600D01*
X152717200Y-178984100D02*
X204356200Y-178984100D01*
X149181600Y-182519700D02*
X152717200Y-178984100D01*
%TO.N,~{bRD}*%
X110343900Y-215026100D02*
X112370000Y-213000000D01*
X79450100Y-215026100D02*
X110343900Y-215026100D01*
X77705300Y-213281300D02*
X79450100Y-215026100D01*
X77705300Y-213000000D02*
X77705300Y-213281300D01*
X76580000Y-213000000D02*
X77705300Y-213000000D01*
%TO.N,~{bWR}*%
X106164700Y-213703300D02*
X106164700Y-213000000D01*
X105292300Y-214575700D02*
X106164700Y-213703300D01*
X84079700Y-214575700D02*
X105292300Y-214575700D01*
X82785300Y-213281300D02*
X84079700Y-214575700D01*
X82785300Y-213000000D02*
X82785300Y-213281300D01*
X81660000Y-213000000D02*
X82785300Y-213000000D01*
X107290000Y-213000000D02*
X106164700Y-213000000D01*
%TO.N,bD0*%
X214435000Y-183175000D02*
X213259700Y-183175000D01*
X202651400Y-188127500D02*
X202651400Y-188382200D01*
X204256900Y-186522000D02*
X202651400Y-188127500D01*
X210280000Y-186522000D02*
X204256900Y-186522000D01*
X213259700Y-183542300D02*
X210280000Y-186522000D01*
X213259700Y-183175000D02*
X213259700Y-183542300D01*
X210655000Y-202375300D02*
X210655000Y-205180000D01*
X210205000Y-201925300D02*
X210655000Y-202375300D01*
X210205000Y-200800000D02*
X210205000Y-201925300D01*
X100345000Y-145470700D02*
X100345000Y-146835000D01*
X103710300Y-142105400D02*
X100345000Y-145470700D01*
X123846700Y-142105400D02*
X103710300Y-142105400D01*
X127000700Y-145259400D02*
X123846700Y-142105400D01*
X129243600Y-145259400D02*
X127000700Y-145259400D01*
X129345300Y-145361100D02*
X129243600Y-145259400D01*
X131002500Y-145361100D02*
X129345300Y-145361100D01*
X132095000Y-146453600D02*
X131002500Y-145361100D01*
X132095000Y-147162500D02*
X132095000Y-146453600D01*
X134043300Y-149110800D02*
X132095000Y-147162500D01*
X139636900Y-149110800D02*
X134043300Y-149110800D01*
X139807300Y-149281200D02*
X139636900Y-149110800D01*
X187069800Y-149281200D02*
X139807300Y-149281200D01*
X187706800Y-148644200D02*
X187069800Y-149281200D01*
X197774800Y-148644200D02*
X187706800Y-148644200D01*
X202209200Y-144209800D02*
X197774800Y-148644200D01*
%TO.N,bD1*%
X211895000Y-183175000D02*
X210719700Y-183175000D01*
X208468500Y-185791100D02*
X207309700Y-185791100D01*
X210719700Y-183539900D02*
X208468500Y-185791100D01*
X210719700Y-183175000D02*
X210719700Y-183539900D01*
X104490000Y-145230000D02*
X102885000Y-146835000D01*
X120651500Y-145230000D02*
X104490000Y-145230000D01*
X121935000Y-146513500D02*
X120651500Y-145230000D01*
X121935000Y-147159800D02*
X121935000Y-146513500D01*
X124336300Y-149561100D02*
X121935000Y-147159800D01*
X139450300Y-149561100D02*
X124336300Y-149561100D01*
X139620700Y-149731500D02*
X139450300Y-149561100D01*
X187574600Y-149731500D02*
X139620700Y-149731500D01*
X187977500Y-149328600D02*
X187574600Y-149731500D01*
X198870900Y-149328600D02*
X187977500Y-149328600D01*
X203989700Y-144209800D02*
X198870900Y-149328600D01*
%TO.N,bD2*%
X215735000Y-205180000D02*
X215735000Y-204054700D01*
X217825000Y-201964700D02*
X217825000Y-200800000D01*
X215735000Y-204054700D02*
X217825000Y-201964700D01*
X105425000Y-146835000D02*
X106550300Y-146835000D01*
X106550300Y-147116300D02*
X106550300Y-146835000D01*
X108666500Y-149232500D02*
X106550300Y-147116300D01*
X112607900Y-149232500D02*
X108666500Y-149232500D01*
X114287400Y-150912000D02*
X112607900Y-149232500D01*
X138890500Y-150912000D02*
X114287400Y-150912000D01*
X139220200Y-151241700D02*
X138890500Y-150912000D01*
X201745100Y-151241700D02*
X139220200Y-151241700D01*
X205862700Y-147124100D02*
X201745100Y-151241700D01*
%TO.N,bD3*%
X107965000Y-146835000D02*
X109090300Y-146835000D01*
X214595100Y-178808100D02*
X214854800Y-178808100D01*
X213165000Y-180238200D02*
X214595100Y-178808100D01*
X213165000Y-181029200D02*
X213165000Y-180238200D01*
X212194500Y-181999700D02*
X213165000Y-181029200D01*
X208798200Y-181999700D02*
X212194500Y-181999700D01*
X207990300Y-182807600D02*
X208798200Y-181999700D01*
X207990300Y-183175000D02*
X207990300Y-182807600D01*
X206815000Y-183175000D02*
X207990300Y-183175000D01*
X203390400Y-148367600D02*
X203390400Y-148519600D01*
X207548200Y-144209800D02*
X203390400Y-148367600D01*
X109090300Y-147027800D02*
X109090300Y-146835000D01*
X110379300Y-148316800D02*
X109090300Y-147027800D01*
X114985400Y-148316800D02*
X110379300Y-148316800D01*
X117130300Y-150461700D02*
X114985400Y-148316800D01*
X139077100Y-150461700D02*
X117130300Y-150461700D01*
X139406800Y-150791400D02*
X139077100Y-150461700D01*
X201118600Y-150791400D02*
X139406800Y-150791400D01*
X203390400Y-148519600D02*
X201118600Y-150791400D01*
%TO.N,bD4*%
X217519700Y-189249300D02*
X219452600Y-189249300D01*
X213870300Y-192898700D02*
X217519700Y-189249300D01*
X213870300Y-193180000D02*
X213870300Y-192898700D01*
X212745000Y-193180000D02*
X213870300Y-193180000D01*
X113417600Y-151362300D02*
X113127800Y-151072500D01*
X138703900Y-151362300D02*
X113417600Y-151362300D01*
X139033600Y-151692000D02*
X138703900Y-151362300D01*
X202323200Y-151692000D02*
X139033600Y-151692000D01*
X209328800Y-144686400D02*
X202323200Y-151692000D01*
X209328800Y-144209800D02*
X209328800Y-144686400D01*
%TO.N,bD5*%
X210205000Y-193180000D02*
X211330300Y-193180000D01*
X223355000Y-205180000D02*
X223355000Y-204054700D01*
X212252200Y-143066900D02*
X211109300Y-144209800D01*
X220885000Y-143066900D02*
X212252200Y-143066900D01*
X227320200Y-149502100D02*
X220885000Y-143066900D01*
X113045000Y-146835000D02*
X111919700Y-146835000D01*
X213466400Y-195597500D02*
X222892900Y-195597500D01*
X211330300Y-193461400D02*
X213466400Y-195597500D01*
X211330300Y-193180000D02*
X211330300Y-193461400D01*
X224081500Y-203328200D02*
X223355000Y-204054700D01*
X224081500Y-196786100D02*
X224081500Y-203328200D01*
X222892900Y-195597500D02*
X224081500Y-196786100D01*
X111919700Y-146553600D02*
X111919700Y-146835000D01*
X111075800Y-145709700D02*
X111919700Y-146553600D01*
X104939900Y-145709700D02*
X111075800Y-145709700D01*
X104260700Y-146388900D02*
X104939900Y-145709700D01*
X104260700Y-147267200D02*
X104260700Y-146388900D01*
X108806100Y-151812600D02*
X104260700Y-147267200D01*
X138517300Y-151812600D02*
X108806100Y-151812600D01*
X138847000Y-152142300D02*
X138517300Y-151812600D01*
X203176800Y-152142300D02*
X138847000Y-152142300D01*
X211109300Y-144209800D02*
X203176800Y-152142300D01*
%TO.N,bD6*%
X124425200Y-152262900D02*
X123882400Y-152805700D01*
X138159700Y-152262900D02*
X124425200Y-152262900D01*
X138520800Y-152624000D02*
X138159700Y-152262900D01*
X204475700Y-152624000D02*
X138520800Y-152624000D01*
X212889900Y-144209800D02*
X204475700Y-152624000D01*
%TO.N,ZERO*%
X78920000Y-200800000D02*
X76380000Y-200800000D01*
X73840000Y-193180000D02*
X74965300Y-193180000D01*
X188285000Y-192935000D02*
X185745000Y-192935000D01*
X185745000Y-192935000D02*
X183205000Y-192935000D01*
X183205000Y-192935000D02*
X180665000Y-192935000D01*
X178125000Y-192935000D02*
X176949700Y-192935000D01*
X159786500Y-139371800D02*
X160184700Y-139770000D01*
X147101200Y-139371800D02*
X159786500Y-139371800D01*
X142323200Y-144149800D02*
X147101200Y-139371800D01*
X136894200Y-144149800D02*
X142323200Y-144149800D01*
X134490300Y-146553700D02*
X136894200Y-144149800D01*
X134490300Y-146835000D02*
X134490300Y-146553700D01*
X133365000Y-146835000D02*
X134490300Y-146835000D01*
X161310000Y-139770000D02*
X160184700Y-139770000D01*
X164431700Y-124638300D02*
X192843900Y-124638300D01*
X161470000Y-127600000D02*
X164431700Y-124638300D01*
X159765800Y-202401700D02*
X143974200Y-202401700D01*
X161015000Y-201152500D02*
X159765800Y-202401700D01*
X161015000Y-200413500D02*
X161015000Y-201152500D01*
X161753900Y-199674600D02*
X161015000Y-200413500D01*
X170210100Y-199674600D02*
X161753900Y-199674600D01*
X176949700Y-192935000D02*
X170210100Y-199674600D01*
X74965300Y-193409600D02*
X74965300Y-193180000D01*
X79075500Y-197519800D02*
X74965300Y-193409600D01*
X96414700Y-197519800D02*
X79075500Y-197519800D01*
X97083500Y-196851000D02*
X96414700Y-197519800D01*
X117749100Y-196851000D02*
X97083500Y-196851000D01*
X117749100Y-196850900D02*
X117749100Y-196851000D01*
X121850000Y-192750000D02*
X117749100Y-196850900D01*
X135824600Y-148421400D02*
X139973400Y-148421400D01*
X134490300Y-147087100D02*
X135824600Y-148421400D01*
X134490300Y-146835000D02*
X134490300Y-147087100D01*
%TO.N,ONE*%
X123205000Y-146835000D02*
X124330300Y-146835000D01*
X130825000Y-146835000D02*
X129699700Y-146835000D01*
X164825000Y-193180000D02*
X167365000Y-193180000D01*
X157205000Y-200800000D02*
X154665000Y-200800000D01*
X124330300Y-146658200D02*
X124330300Y-146835000D01*
X125278800Y-145709700D02*
X124330300Y-146658200D01*
X128751200Y-145709700D02*
X125278800Y-145709700D01*
X129699700Y-146658200D02*
X128751200Y-145709700D01*
X129699700Y-146835000D02*
X129699700Y-146658200D01*
X164647700Y-169250000D02*
X157850000Y-169250000D01*
X165089700Y-168808000D02*
X164647700Y-169250000D01*
X165089700Y-168000000D02*
X165089700Y-168808000D01*
X166265000Y-168000000D02*
X165089700Y-168000000D01*
X204263400Y-161610700D02*
X205940400Y-163287700D01*
X199076700Y-161610700D02*
X204263400Y-161610700D01*
X195453100Y-157987100D02*
X199076700Y-161610700D01*
X153197400Y-157987100D02*
X195453100Y-157987100D01*
X146317000Y-157987100D02*
X153197400Y-157987100D01*
X143787300Y-155457400D02*
X146317000Y-157987100D01*
X140298200Y-155457400D02*
X143787300Y-155457400D01*
X139617700Y-156137900D02*
X140298200Y-155457400D01*
X131957700Y-156137900D02*
X139617700Y-156137900D01*
X131319100Y-155499300D02*
X131957700Y-156137900D01*
D41*
%TO.N,+12V*%
X162186700Y-219953300D02*
X159140000Y-223000000D01*
X190101700Y-219953300D02*
X162186700Y-219953300D01*
X191805000Y-218250000D02*
X190101700Y-219953300D01*
D42*
%TO.N,A3*%
X156030000Y-213000000D02*
X156030000Y-214125300D01*
X155314700Y-214125300D02*
X146440000Y-223000000D01*
X156030000Y-214125300D02*
X155314700Y-214125300D01*
%TO.N,A2*%
X143900000Y-221175300D02*
X143900000Y-223000000D01*
X150950000Y-214125300D02*
X143900000Y-221175300D01*
X150950000Y-213000000D02*
X150950000Y-214125300D01*
%TO.N,~{RD}*%
X100101100Y-216875200D02*
X94027400Y-216875200D01*
X105460000Y-222234100D02*
X100101100Y-216875200D01*
X105460000Y-223000000D02*
X105460000Y-222234100D01*
X205575000Y-212800000D02*
X204449700Y-212800000D01*
X185454800Y-227191600D02*
X107965700Y-227191600D01*
X195757400Y-216889000D02*
X185454800Y-227191600D01*
X200360700Y-216889000D02*
X195757400Y-216889000D01*
X204449700Y-212800000D02*
X200360700Y-216889000D01*
%TO.N,~{EIRQ0}*%
X45197900Y-216077900D02*
X52120000Y-223000000D01*
X42890500Y-216077900D02*
X45197900Y-216077900D01*
X40824600Y-214012000D02*
X42890500Y-216077900D01*
X40824600Y-212002700D02*
X40824600Y-214012000D01*
X41192000Y-211635300D02*
X40824600Y-212002700D01*
X42000000Y-211635300D02*
X41192000Y-211635300D01*
X42000000Y-210460000D02*
X42000000Y-211635300D01*
%TO.N,Net-(RN1-Pad9)*%
X187315000Y-212800000D02*
X184775000Y-212800000D01*
X184775000Y-212800000D02*
X182235000Y-212800000D01*
X182235000Y-212800000D02*
X179695000Y-212800000D01*
X179695000Y-212800000D02*
X177155000Y-212800000D01*
%TO.N,Net-(R24-Pad1)*%
X61789700Y-192898700D02*
X61789700Y-193180000D01*
X57641000Y-188750000D02*
X61789700Y-192898700D01*
X55990000Y-188750000D02*
X57641000Y-188750000D01*
X62915000Y-193180000D02*
X61789700Y-193180000D01*
%TO.N,/VDP/GREEN*%
X198482600Y-164641100D02*
X197129200Y-163287700D01*
X198888200Y-164641100D02*
X198482600Y-164641100D01*
X199385400Y-165138300D02*
X198888200Y-164641100D01*
X225861700Y-165138300D02*
X199385400Y-165138300D01*
X229000000Y-162000000D02*
X225861700Y-165138300D01*
%TO.N,/VDP/BLUE*%
X234750000Y-162000000D02*
X233585000Y-160835000D01*
X234750000Y-159670000D02*
X233585000Y-160835000D01*
X201538500Y-164237600D02*
X200588600Y-163287700D01*
X217118400Y-164237600D02*
X201538500Y-164237600D01*
X220521000Y-160835000D02*
X217118400Y-164237600D01*
X233585000Y-160835000D02*
X220521000Y-160835000D01*
D41*
%TO.N,VCC*%
X190035000Y-94525000D02*
X190035000Y-96075300D01*
X73174900Y-203705100D02*
X71500000Y-205380000D01*
X81094900Y-203705100D02*
X73174900Y-203705100D01*
X84000000Y-200800000D02*
X81094900Y-203705100D01*
X69120000Y-205380000D02*
X67000000Y-207500000D01*
X71500000Y-205380000D02*
X69120000Y-205380000D01*
X148104700Y-195700000D02*
X150624700Y-193180000D01*
X147400000Y-195700000D02*
X148104700Y-195700000D01*
X152125000Y-193180000D02*
X150624700Y-193180000D01*
X198042200Y-198057800D02*
X200400000Y-195700000D01*
X178167200Y-198057800D02*
X198042200Y-198057800D01*
X175025000Y-201200000D02*
X178167200Y-198057800D01*
X168004700Y-207750000D02*
X170574700Y-205180000D01*
X167500000Y-207750000D02*
X168004700Y-207750000D01*
X172075000Y-205180000D02*
X170574700Y-205180000D01*
X205060000Y-188400000D02*
X206860300Y-188400000D01*
X125830000Y-89295000D02*
X124279700Y-89295000D01*
X156534000Y-169366000D02*
X156650000Y-169250000D01*
X231560000Y-99500000D02*
X230059700Y-99500000D01*
X191487600Y-97527900D02*
X191487600Y-103750400D01*
X190035000Y-96075300D02*
X191487600Y-97527900D01*
X183440300Y-127750000D02*
X183290300Y-127600000D01*
X186500000Y-127750000D02*
X183440300Y-127750000D01*
X181790000Y-127600000D02*
X183290300Y-127600000D01*
X39972400Y-198937600D02*
X43110000Y-195800000D01*
X39972400Y-214340900D02*
X39972400Y-198937600D01*
X42731200Y-217099700D02*
X39972400Y-214340900D01*
X43200000Y-217099700D02*
X42731200Y-217099700D01*
X43200000Y-218600000D02*
X43200000Y-217099700D01*
X50395000Y-195900000D02*
X47675000Y-193180000D01*
X69065000Y-195900000D02*
X50395000Y-195900000D01*
X92725000Y-146835000D02*
X91224700Y-146835000D01*
X87794900Y-149224600D02*
X87794900Y-151900000D01*
X86789800Y-148219500D02*
X87794900Y-149224600D01*
X86789800Y-145800000D02*
X86789800Y-148219500D01*
X88835100Y-149224600D02*
X91224700Y-146835000D01*
X87794900Y-149224600D02*
X88835100Y-149224600D01*
X109071600Y-85644100D02*
X107170000Y-83742500D01*
X120628800Y-85644100D02*
X109071600Y-85644100D01*
X124279700Y-89295000D02*
X120628800Y-85644100D01*
X107170000Y-83742500D02*
X107170000Y-81202500D01*
X109299700Y-223000000D02*
X114299700Y-218000000D01*
X108000000Y-223000000D02*
X109299700Y-223000000D01*
X115800000Y-218000000D02*
X114299700Y-218000000D01*
X140084100Y-92120900D02*
X141635000Y-90570000D01*
X128655900Y-92120900D02*
X140084100Y-92120900D01*
X125830000Y-89295000D02*
X128655900Y-92120900D01*
X141635000Y-90570000D02*
X143185300Y-90570000D01*
X144465300Y-89290000D02*
X148175000Y-89290000D01*
X143185300Y-90570000D02*
X144465300Y-89290000D01*
X183150300Y-139750000D02*
X183130300Y-139770000D01*
X186250000Y-139750000D02*
X183150300Y-139750000D01*
X181630000Y-139770000D02*
X183130300Y-139770000D01*
X245480000Y-175110000D02*
X245480000Y-173909700D01*
X213774700Y-170525000D02*
X214899700Y-169400000D01*
X211905000Y-170525000D02*
X213774700Y-170525000D01*
X216400000Y-169400000D02*
X214899700Y-169400000D01*
X219932100Y-153117900D02*
X218750000Y-154300000D01*
X237667100Y-153117900D02*
X219932100Y-153117900D01*
X239515000Y-151270000D02*
X237667100Y-153117900D01*
X51362700Y-88067300D02*
X49810000Y-89620000D01*
X56757000Y-88067300D02*
X51362700Y-88067300D01*
X58309700Y-89620000D02*
X56757000Y-88067300D01*
X59810000Y-89620000D02*
X58309700Y-89620000D01*
X69810000Y-89620000D02*
X68309700Y-89620000D01*
X95400000Y-193180000D02*
X100000000Y-193180000D01*
X95400000Y-193131000D02*
X95400000Y-193180000D01*
X92769300Y-190500300D02*
X95400000Y-193131000D01*
X92769300Y-189000000D02*
X92769300Y-190500300D01*
X121854700Y-195900000D02*
X121200000Y-195900000D01*
X124474700Y-193280000D02*
X121854700Y-195900000D01*
X125975000Y-193280000D02*
X124474700Y-193280000D01*
X155224000Y-169366000D02*
X135590000Y-189000000D01*
X156534000Y-169366000D02*
X155224000Y-169366000D01*
X128583800Y-190503500D02*
X127080300Y-189000000D01*
X134086500Y-190503500D02*
X128583800Y-190503500D01*
X135590000Y-189000000D02*
X134086500Y-190503500D01*
X125580000Y-189000000D02*
X127080300Y-189000000D01*
X138827100Y-138367800D02*
X136594900Y-140600000D01*
X140604300Y-138367800D02*
X138827100Y-138367800D01*
X148972100Y-130000000D02*
X140604300Y-138367800D01*
X154394900Y-130000000D02*
X148972100Y-130000000D01*
X213170000Y-139550000D02*
X214670300Y-139550000D01*
X69755600Y-94099700D02*
X69810000Y-94099700D01*
X66792800Y-91136900D02*
X69755600Y-94099700D01*
X68309700Y-89620000D02*
X66792800Y-91136900D01*
X61326900Y-91136900D02*
X59810000Y-89620000D01*
X66792800Y-91136900D02*
X61326900Y-91136900D01*
X69810000Y-95600000D02*
X69810000Y-94099700D01*
X133750000Y-207373700D02*
X133750000Y-208000000D01*
X135743700Y-205380000D02*
X133750000Y-207373700D01*
X138250000Y-205380000D02*
X135743700Y-205380000D01*
X106743700Y-207373700D02*
X104750000Y-205380000D01*
X133750000Y-207373700D02*
X106743700Y-207373700D01*
X220702400Y-173702400D02*
X216400000Y-169400000D01*
X245272700Y-173702400D02*
X220702400Y-173702400D01*
X245480000Y-173909700D02*
X245272700Y-173702400D01*
X187879600Y-103750400D02*
X184950000Y-106680000D01*
X191487600Y-103750400D02*
X187879600Y-103750400D01*
X184950000Y-106680000D02*
X183449700Y-106680000D01*
X180879700Y-109250000D02*
X183449700Y-106680000D01*
X180250000Y-109250000D02*
X180879700Y-109250000D01*
X164255000Y-90565000D02*
X164255000Y-92115300D01*
X151000300Y-92115300D02*
X164255000Y-92115300D01*
X148175000Y-89290000D02*
X151000300Y-92115300D01*
X164255000Y-93255000D02*
X180250000Y-109250000D01*
X164255000Y-92115300D02*
X164255000Y-93255000D01*
X192559700Y-168000000D02*
X192574700Y-167985000D01*
X189265000Y-168000000D02*
X192559700Y-168000000D01*
X194125000Y-167985000D02*
X192574700Y-167985000D01*
X205060000Y-188400000D02*
X205060000Y-190200300D01*
X205060000Y-193180000D02*
X205060000Y-190200300D01*
X205125000Y-193180000D02*
X205060000Y-193180000D01*
X202920000Y-193180000D02*
X200400000Y-195700000D01*
X205060000Y-193180000D02*
X202920000Y-193180000D01*
X217750000Y-139500000D02*
X216214900Y-139500000D01*
X214720300Y-139500000D02*
X214670300Y-139550000D01*
X216214900Y-139500000D02*
X214720300Y-139500000D01*
X213170000Y-127750000D02*
X214670300Y-127750000D01*
X214670300Y-128612900D02*
X214670300Y-127750000D01*
X215342500Y-129285100D02*
X214670300Y-128612900D01*
X216214900Y-129285100D02*
X215342500Y-129285100D01*
X216214900Y-139500000D02*
X216214900Y-129285100D01*
X216214900Y-129285100D02*
X217750000Y-127750000D01*
X206076600Y-103750400D02*
X191487600Y-103750400D01*
X207451700Y-102375300D02*
X206076600Y-103750400D01*
X216213500Y-102375300D02*
X207451700Y-102375300D01*
X216213500Y-126213500D02*
X216213500Y-102375300D01*
X217750000Y-127750000D02*
X216213500Y-126213500D01*
X227184400Y-102375300D02*
X230059700Y-99500000D01*
X216213500Y-102375300D02*
X227184400Y-102375300D01*
X164127400Y-172987200D02*
X165740200Y-174600000D01*
X160155200Y-172987200D02*
X164127400Y-172987200D01*
X156534000Y-169366000D02*
X160155200Y-172987200D01*
X95400000Y-193180000D02*
X95400000Y-195900000D01*
X207430800Y-187829500D02*
X206860300Y-188400000D01*
X220979800Y-187829500D02*
X207430800Y-187829500D01*
X221054200Y-187755100D02*
X220979800Y-187829500D01*
X226784900Y-187755100D02*
X221054200Y-187755100D01*
X231540000Y-183000000D02*
X226784900Y-187755100D01*
%TO.N,GND*%
X167250000Y-213000000D02*
X167500000Y-212750000D01*
X161110000Y-213000000D02*
X167250000Y-213000000D01*
X104350000Y-136080000D02*
X98600000Y-136080000D01*
X133750000Y-213000000D02*
X127610000Y-213000000D01*
X200700000Y-212800000D02*
X201000000Y-212500000D01*
X194935000Y-212800000D02*
X200700000Y-212800000D01*
X213501700Y-83469000D02*
X213954500Y-83016200D01*
X208580000Y-83469000D02*
X213501700Y-83469000D01*
X188529700Y-134750000D02*
X191349700Y-131930000D01*
X186250000Y-134750000D02*
X188529700Y-134750000D01*
X192850000Y-131930000D02*
X191349700Y-131930000D01*
X223310000Y-177000000D02*
X223250000Y-177060000D01*
X229000000Y-177000000D02*
X223310000Y-177000000D01*
X188729700Y-122750000D02*
X191349700Y-120130000D01*
X186500000Y-122750000D02*
X188729700Y-122750000D01*
X192850000Y-120130000D02*
X191349700Y-120130000D01*
X194115000Y-183175000D02*
X191575000Y-183175000D01*
X229000000Y-167000000D02*
X223250000Y-167000000D01*
X187495000Y-91985000D02*
X184955000Y-91985000D01*
X211905000Y-167985000D02*
X213455300Y-167985000D01*
X217507100Y-167899600D02*
X218953800Y-169346200D01*
X213540700Y-167899600D02*
X217507100Y-167899600D01*
X213455300Y-167985000D02*
X213540700Y-167899600D01*
X221300000Y-167000000D02*
X218953800Y-169346200D01*
X223250000Y-167000000D02*
X221300000Y-167000000D01*
X218953800Y-169346200D02*
X218900000Y-169400000D01*
X234750000Y-167000000D02*
X229000000Y-167000000D01*
X239249700Y-162500300D02*
X239249700Y-162310000D01*
X234750000Y-167000000D02*
X239249700Y-162500300D01*
X240750000Y-162310000D02*
X239249700Y-162310000D01*
X89289800Y-143889900D02*
X97099700Y-136080000D01*
X89289800Y-145800000D02*
X89289800Y-143889900D01*
X98600000Y-136080000D02*
X97099700Y-136080000D01*
X192400000Y-78750000D02*
X185600000Y-78750000D01*
X174298200Y-80625700D02*
X177717500Y-84045000D01*
X169567900Y-80625700D02*
X174298200Y-80625700D01*
X168581700Y-79639500D02*
X169567900Y-80625700D01*
X163853000Y-79639500D02*
X168581700Y-79639500D01*
X162290000Y-81202500D02*
X163853000Y-79639500D01*
X184412800Y-78750000D02*
X179117800Y-84045000D01*
X185600000Y-78750000D02*
X184412800Y-78750000D01*
X177717500Y-84045000D02*
X179117800Y-84045000D01*
X240750000Y-162310000D02*
X241500200Y-162310000D01*
X244384700Y-183000000D02*
X247100000Y-183000000D01*
X181300200Y-174600000D02*
X178600000Y-174600000D01*
X165049700Y-176149700D02*
X163500000Y-174600000D01*
X177219100Y-176149700D02*
X165049700Y-176149700D01*
X178600000Y-174768800D02*
X177219100Y-176149700D01*
X178600000Y-174600000D02*
X178600000Y-174768800D01*
X203454700Y-102250000D02*
X207849700Y-97855000D01*
X197560000Y-102250000D02*
X203454700Y-102250000D01*
X209400000Y-97855000D02*
X207849700Y-97855000D01*
X144845000Y-107965000D02*
X145110000Y-108230000D01*
X140374700Y-107965000D02*
X144845000Y-107965000D01*
X142915300Y-200700000D02*
X142715300Y-200900000D01*
X147400000Y-200700000D02*
X142915300Y-200700000D01*
X141215000Y-200900000D02*
X142715300Y-200900000D01*
X64515300Y-200900000D02*
X64415300Y-200800000D01*
X69065000Y-200900000D02*
X64515300Y-200900000D01*
X62915000Y-200800000D02*
X64415300Y-200800000D01*
X61365300Y-199250300D02*
X62915000Y-200800000D01*
X44659700Y-199250300D02*
X61365300Y-199250300D01*
X43110000Y-200800000D02*
X44659700Y-199250300D01*
X116840300Y-200900000D02*
X116740300Y-200800000D01*
X121200000Y-200900000D02*
X116840300Y-200900000D01*
X115240000Y-200800000D02*
X116740300Y-200800000D01*
X118883700Y-79648800D02*
X117330000Y-81202500D01*
X137066300Y-79648800D02*
X118883700Y-79648800D01*
X138620000Y-81202500D02*
X137066300Y-79648800D01*
X153640000Y-108391300D02*
X153640000Y-108515000D01*
X152263300Y-107014600D02*
X153640000Y-108391300D01*
X146325400Y-107014600D02*
X152263300Y-107014600D01*
X145110000Y-108230000D02*
X146325400Y-107014600D01*
X157188900Y-110046100D02*
X158720000Y-108515000D01*
X155171100Y-110046100D02*
X157188900Y-110046100D01*
X153640000Y-108515000D02*
X155171100Y-110046100D01*
X201800400Y-199299600D02*
X200400000Y-200700000D01*
X221404600Y-199299600D02*
X201800400Y-199299600D01*
X222905000Y-200800000D02*
X221404600Y-199299600D01*
X258750000Y-154670000D02*
X257249700Y-154670000D01*
X125482000Y-108384800D02*
X125482000Y-108500000D01*
X124096800Y-106999600D02*
X125482000Y-108384800D01*
X118192400Y-106999600D02*
X124096800Y-106999600D01*
X116992000Y-108200000D02*
X118192400Y-106999600D01*
X161310000Y-132150000D02*
X159809700Y-132150000D01*
X156894900Y-131153000D02*
X156894900Y-130000000D01*
X156847000Y-131153000D02*
X156894900Y-131153000D01*
X150500000Y-137500000D02*
X156847000Y-131153000D01*
X158812700Y-131153000D02*
X159809700Y-132150000D01*
X156894900Y-131153000D02*
X158812700Y-131153000D01*
X167200000Y-114250000D02*
X161470000Y-119980000D01*
X180250000Y-114250000D02*
X167200000Y-114250000D01*
X156894900Y-126055400D02*
X156894900Y-130000000D01*
X161470000Y-121480300D02*
X156894900Y-126055400D01*
X161470000Y-119980000D02*
X161470000Y-121480300D01*
X247886500Y-162136500D02*
X247886500Y-159670000D01*
X252750000Y-167000000D02*
X247886500Y-162136500D01*
X246750000Y-159670000D02*
X247886500Y-159670000D01*
X255749300Y-156170400D02*
X257249700Y-154670000D01*
X251386100Y-156170400D02*
X255749300Y-156170400D01*
X247886500Y-159670000D02*
X251386100Y-156170400D01*
X241500200Y-162310000D02*
X243750000Y-162310000D01*
X243750000Y-162310000D02*
X243750000Y-166250000D01*
X244110000Y-162310000D02*
X246750000Y-159670000D01*
X243750000Y-162310000D02*
X244110000Y-162310000D01*
X94360000Y-213000000D02*
X94360000Y-211499700D01*
X138858200Y-109481500D02*
X140374700Y-107965000D01*
X133043800Y-109481500D02*
X138858200Y-109481500D01*
X132062300Y-108500000D02*
X133043800Y-109481500D01*
X130562000Y-108500000D02*
X132062300Y-108500000D01*
X132100000Y-139425000D02*
X133650300Y-139425000D01*
X140918200Y-140600000D02*
X139094900Y-140600000D01*
X144018200Y-137500000D02*
X140918200Y-140600000D01*
X150500000Y-137500000D02*
X144018200Y-137500000D01*
X133650300Y-140297000D02*
X133650300Y-139425000D01*
X135453700Y-142100400D02*
X133650300Y-140297000D01*
X137760000Y-142100400D02*
X135453700Y-142100400D01*
X139094900Y-140765500D02*
X137760000Y-142100400D01*
X139094900Y-140600000D02*
X139094900Y-140765500D01*
X126675300Y-132450000D02*
X132100000Y-137874700D01*
X124600000Y-132450000D02*
X126675300Y-132450000D01*
X132100000Y-139425000D02*
X132100000Y-137874700D01*
X190035000Y-91985000D02*
X187495000Y-91985000D01*
X209400000Y-97855000D02*
X210875400Y-97855000D01*
X213940000Y-99500000D02*
X211622700Y-97182600D01*
X210950300Y-97855000D02*
X211622700Y-97182600D01*
X210875400Y-97855000D02*
X210950300Y-97855000D01*
X213940000Y-94865300D02*
X213940000Y-93500000D01*
X211622700Y-97182600D02*
X213940000Y-94865300D01*
X94180000Y-86380000D02*
X93760000Y-86800000D01*
X106158600Y-86380000D02*
X94180000Y-86380000D01*
X107823300Y-88044700D02*
X106158600Y-86380000D01*
X115465600Y-88044700D02*
X107823300Y-88044700D01*
X116872000Y-89451100D02*
X115465600Y-88044700D01*
X116872000Y-89545000D02*
X116872000Y-89451100D01*
X49250000Y-81100000D02*
X50850300Y-81100000D01*
X52450600Y-82700300D02*
X50850300Y-81100000D01*
X89660300Y-82700300D02*
X52450600Y-82700300D01*
X93760000Y-86800000D02*
X89660300Y-82700300D01*
X93799600Y-199299600D02*
X95400000Y-200900000D01*
X70665400Y-199299600D02*
X93799600Y-199299600D01*
X69065000Y-200900000D02*
X70665400Y-199299600D01*
X100250000Y-213000000D02*
X96689200Y-209439200D01*
X96420500Y-209439200D02*
X94360000Y-211499700D01*
X96689200Y-209439200D02*
X96420500Y-209439200D01*
X96689200Y-202590400D02*
X96889800Y-202389800D01*
X96689200Y-209439200D02*
X96689200Y-202590400D01*
X106030200Y-202389800D02*
X96889800Y-202389800D01*
X107620000Y-200800000D02*
X106030200Y-202389800D01*
X96889800Y-202389800D02*
X95400000Y-200900000D01*
X222859700Y-139609700D02*
X217750000Y-134500000D01*
X224275000Y-139609700D02*
X222859700Y-139609700D01*
X224275000Y-141110000D02*
X224275000Y-139609700D01*
X104390000Y-129200000D02*
X101850000Y-129200000D01*
X105848500Y-130658500D02*
X104390000Y-129200000D01*
X113601500Y-130658500D02*
X105848500Y-130658500D01*
X115060000Y-129200000D02*
X113601500Y-130658500D01*
X112250000Y-83742500D02*
X114790000Y-83742500D01*
X114790000Y-83742500D02*
X117330000Y-81202500D01*
%TD*%
M02*
