%TF.GenerationSoftware,KiCad,Pcbnew,(6.0.11)*%
%TF.CreationDate,2024-04-17T16:28:08-04:00*%
%TF.ProjectId,input-output.Media,696e7075-742d-46f7-9574-7075742e4d65,rev?*%
%TF.SameCoordinates,Original*%
%TF.FileFunction,Copper,L2,Bot*%
%TF.FilePolarity,Positive*%
%FSLAX46Y46*%
G04 Gerber Fmt 4.6, Leading zero omitted, Abs format (unit mm)*
G04 Created by KiCad (PCBNEW (6.0.11)) date 2024-04-17 16:28:08*
%MOMM*%
%LPD*%
G01*
G04 APERTURE LIST*
G04 Aperture macros list*
%AMRoundRect*
0 Rectangle with rounded corners*
0 $1 Rounding radius*
0 $2 $3 $4 $5 $6 $7 $8 $9 X,Y pos of 4 corners*
0 Add a 4 corners polygon primitive as box body*
4,1,4,$2,$3,$4,$5,$6,$7,$8,$9,$2,$3,0*
0 Add four circle primitives for the rounded corners*
1,1,$1+$1,$2,$3*
1,1,$1+$1,$4,$5*
1,1,$1+$1,$6,$7*
1,1,$1+$1,$8,$9*
0 Add four rect primitives between the rounded corners*
20,1,$1+$1,$2,$3,$4,$5,0*
20,1,$1+$1,$4,$5,$6,$7,0*
20,1,$1+$1,$6,$7,$8,$9,0*
20,1,$1+$1,$8,$9,$2,$3,0*%
G04 Aperture macros list end*
%TA.AperFunction,ComponentPad*%
%ADD10C,6.400000*%
%TD*%
%TA.AperFunction,ComponentPad*%
%ADD11RoundRect,0.250000X-0.600000X0.600000X-0.600000X-0.600000X0.600000X-0.600000X0.600000X0.600000X0*%
%TD*%
%TA.AperFunction,ComponentPad*%
%ADD12C,1.700000*%
%TD*%
%TA.AperFunction,ComponentPad*%
%ADD13R,1.100000X1.800000*%
%TD*%
%TA.AperFunction,ComponentPad*%
%ADD14RoundRect,0.275000X-0.275000X-0.625000X0.275000X-0.625000X0.275000X0.625000X-0.275000X0.625000X0*%
%TD*%
%TA.AperFunction,ComponentPad*%
%ADD15O,1.400000X2.000000*%
%TD*%
%TA.AperFunction,ComponentPad*%
%ADD16R,1.400000X2.000000*%
%TD*%
%TA.AperFunction,ComponentPad*%
%ADD17R,1.600000X1.600000*%
%TD*%
%TA.AperFunction,ComponentPad*%
%ADD18C,1.600000*%
%TD*%
%TA.AperFunction,ComponentPad*%
%ADD19R,1.700000X1.700000*%
%TD*%
%TA.AperFunction,ComponentPad*%
%ADD20O,1.700000X1.700000*%
%TD*%
%TA.AperFunction,ComponentPad*%
%ADD21O,1.600000X1.600000*%
%TD*%
%TA.AperFunction,ComponentPad*%
%ADD22R,2.000000X2.000000*%
%TD*%
%TA.AperFunction,ComponentPad*%
%ADD23C,2.000000*%
%TD*%
%TA.AperFunction,ComponentPad*%
%ADD24C,0.600000*%
%TD*%
%TA.AperFunction,ComponentPad*%
%ADD25R,1.800000X1.800000*%
%TD*%
%TA.AperFunction,ComponentPad*%
%ADD26C,1.800000*%
%TD*%
%TA.AperFunction,ComponentPad*%
%ADD27C,1.371600*%
%TD*%
%TA.AperFunction,ComponentPad*%
%ADD28C,4.000500*%
%TD*%
%TA.AperFunction,ComponentPad*%
%ADD29C,1.500000*%
%TD*%
%TA.AperFunction,ComponentPad*%
%ADD30RoundRect,0.250000X0.600000X-0.600000X0.600000X0.600000X-0.600000X0.600000X-0.600000X-0.600000X0*%
%TD*%
%TA.AperFunction,ComponentPad*%
%ADD31C,1.854200*%
%TD*%
%TA.AperFunction,ComponentPad*%
%ADD32R,1.173480X1.173480*%
%TD*%
%TA.AperFunction,ComponentPad*%
%ADD33C,1.198880*%
%TD*%
%TA.AperFunction,ComponentPad*%
%ADD34C,1.440000*%
%TD*%
%TA.AperFunction,ComponentPad*%
%ADD35C,3.000000*%
%TD*%
%TA.AperFunction,ComponentPad*%
%ADD36C,2.971800*%
%TD*%
%TA.AperFunction,ComponentPad*%
%ADD37C,4.064000*%
%TD*%
%TA.AperFunction,ComponentPad*%
%ADD38R,2.200000X2.200000*%
%TD*%
%TA.AperFunction,ComponentPad*%
%ADD39O,2.200000X2.200000*%
%TD*%
%TA.AperFunction,ViaPad*%
%ADD40C,0.800000*%
%TD*%
%TA.AperFunction,Conductor*%
%ADD41C,1.000000*%
%TD*%
%TA.AperFunction,Conductor*%
%ADD42C,0.250000*%
%TD*%
G04 APERTURE END LIST*
%TO.C,NT2*%
G36*
X121850000Y-193050000D02*
G01*
X120650000Y-193050000D01*
X120650000Y-192450000D01*
X121850000Y-192450000D01*
X121850000Y-193050000D01*
G37*
%TO.C,NT1*%
G36*
X157850000Y-169550000D02*
G01*
X156650000Y-169550000D01*
X156650000Y-168950000D01*
X157850000Y-168950000D01*
X157850000Y-169550000D01*
G37*
%TD*%
D10*
%TO.P,H2,1,1*%
%TO.N,GND*%
X265000000Y-75000000D03*
%TD*%
%TO.P,H1,1,1*%
%TO.N,GND*%
X40000000Y-75000000D03*
%TD*%
D11*
%TO.P,P2,1,Pin_1*%
%TO.N,VCC*%
X182000000Y-223000000D03*
D12*
%TO.P,P2,2,Pin_2*%
X182000000Y-225540000D03*
%TO.P,P2,3,Pin_3*%
%TO.N,/bus/A15*%
X179460000Y-223000000D03*
%TO.P,P2,4,Pin_4*%
%TO.N,/bus/A31*%
X179460000Y-225540000D03*
%TO.P,P2,5,Pin_5*%
%TO.N,/bus/A14*%
X176920000Y-223000000D03*
%TO.P,P2,6,Pin_6*%
%TO.N,/bus/A30*%
X176920000Y-225540000D03*
%TO.P,P2,7,Pin_7*%
%TO.N,/bus/A13*%
X174380000Y-223000000D03*
%TO.P,P2,8,Pin_8*%
%TO.N,/bus/A29*%
X174380000Y-225540000D03*
%TO.P,P2,9,Pin_9*%
%TO.N,/bus/A12*%
X171840000Y-223000000D03*
%TO.P,P2,10,Pin_10*%
%TO.N,/bus/A28*%
X171840000Y-225540000D03*
%TO.P,P2,11,Pin_11*%
%TO.N,/bus/A11*%
X169300000Y-223000000D03*
%TO.P,P2,12,Pin_12*%
%TO.N,/bus/A27*%
X169300000Y-225540000D03*
%TO.P,P2,13,Pin_13*%
%TO.N,/bus/A10*%
X166760000Y-223000000D03*
%TO.P,P2,14,Pin_14*%
%TO.N,/bus/A26*%
X166760000Y-225540000D03*
%TO.P,P2,15,Pin_15*%
%TO.N,/bus/A9*%
X164220000Y-223000000D03*
%TO.P,P2,16,Pin_16*%
%TO.N,/bus/A25*%
X164220000Y-225540000D03*
%TO.P,P2,17,Pin_17*%
%TO.N,/bus/A8*%
X161680000Y-223000000D03*
%TO.P,P2,18,Pin_18*%
%TO.N,/bus/A24*%
X161680000Y-225540000D03*
%TO.P,P2,19,Pin_19*%
%TO.N,+12V*%
X159140000Y-223000000D03*
%TO.P,P2,20,Pin_20*%
X159140000Y-225540000D03*
%TO.P,P2,21,Pin_21*%
%TO.N,A7*%
X156600000Y-223000000D03*
%TO.P,P2,22,Pin_22*%
%TO.N,/bus/A23*%
X156600000Y-225540000D03*
%TO.P,P2,23,Pin_23*%
%TO.N,A6*%
X154060000Y-223000000D03*
%TO.P,P2,24,Pin_24*%
%TO.N,/bus/A22*%
X154060000Y-225540000D03*
%TO.P,P2,25,Pin_25*%
%TO.N,A5*%
X151520000Y-223000000D03*
%TO.P,P2,26,Pin_26*%
%TO.N,/bus/A21*%
X151520000Y-225540000D03*
%TO.P,P2,27,Pin_27*%
%TO.N,A4*%
X148980000Y-223000000D03*
%TO.P,P2,28,Pin_28*%
%TO.N,/bus/A20*%
X148980000Y-225540000D03*
%TO.P,P2,29,Pin_29*%
%TO.N,A3*%
X146440000Y-223000000D03*
%TO.P,P2,30,Pin_30*%
%TO.N,/bus/A19*%
X146440000Y-225540000D03*
%TO.P,P2,31,Pin_31*%
%TO.N,A2*%
X143900000Y-223000000D03*
%TO.P,P2,32,Pin_32*%
%TO.N,/bus/A18*%
X143900000Y-225540000D03*
%TO.P,P2,33,Pin_33*%
%TO.N,A1*%
X141360000Y-223000000D03*
%TO.P,P2,34,Pin_34*%
%TO.N,/bus/A17*%
X141360000Y-225540000D03*
%TO.P,P2,35,Pin_35*%
%TO.N,A0*%
X138820000Y-223000000D03*
%TO.P,P2,36,Pin_36*%
%TO.N,/bus/A16*%
X138820000Y-225540000D03*
%TO.P,P2,37,Pin_37*%
%TO.N,-12V*%
X136280000Y-223000000D03*
%TO.P,P2,38,Pin_38*%
X136280000Y-225540000D03*
%TO.P,P2,39,Pin_39*%
%TO.N,/bus/IC3*%
X133740000Y-223000000D03*
%TO.P,P2,40,Pin_40*%
%TO.N,/bus/~{TEND1}*%
X133740000Y-225540000D03*
%TO.P,P2,41,Pin_41*%
%TO.N,/bus/IC2*%
X131200000Y-223000000D03*
%TO.P,P2,42,Pin_42*%
%TO.N,/bus/~{DREQ1}*%
X131200000Y-225540000D03*
%TO.P,P2,43,Pin_43*%
%TO.N,/bus/IC1*%
X128660000Y-223000000D03*
%TO.P,P2,44,Pin_44*%
%TO.N,/bus/~{TEND0}*%
X128660000Y-225540000D03*
%TO.P,P2,45,Pin_45*%
%TO.N,/bus/IC0*%
X126120000Y-223000000D03*
%TO.P,P2,46,Pin_46*%
%TO.N,/bus/~{DREQ0}*%
X126120000Y-225540000D03*
%TO.P,P2,47,Pin_47*%
%TO.N,/bus/AUXCLK1*%
X123580000Y-223000000D03*
%TO.P,P2,48,Pin_48*%
%TO.N,/bus/AUXCLK0*%
X123580000Y-225540000D03*
%TO.P,P2,49,Pin_49*%
%TO.N,GND*%
X121040000Y-223000000D03*
%TO.P,P2,50,Pin_50*%
X121040000Y-225540000D03*
%TD*%
D11*
%TO.P,P3,1,Pin_1*%
%TO.N,VCC*%
X258000000Y-223000000D03*
D12*
%TO.P,P3,2,Pin_2*%
X258000000Y-225540000D03*
%TO.P,P3,3,Pin_3*%
%TO.N,/bus/D15*%
X255460000Y-223000000D03*
%TO.P,P3,4,Pin_4*%
%TO.N,/bus/D31*%
X255460000Y-225540000D03*
%TO.P,P3,5,Pin_5*%
%TO.N,/bus/D14*%
X252920000Y-223000000D03*
%TO.P,P3,6,Pin_6*%
%TO.N,/bus/D30*%
X252920000Y-225540000D03*
%TO.P,P3,7,Pin_7*%
%TO.N,/bus/D13*%
X250380000Y-223000000D03*
%TO.P,P3,8,Pin_8*%
%TO.N,/bus/D29*%
X250380000Y-225540000D03*
%TO.P,P3,9,Pin_9*%
%TO.N,/bus/D12*%
X247840000Y-223000000D03*
%TO.P,P3,10,Pin_10*%
%TO.N,/bus/D28*%
X247840000Y-225540000D03*
%TO.P,P3,11,Pin_11*%
%TO.N,/bus/D11*%
X245300000Y-223000000D03*
%TO.P,P3,12,Pin_12*%
%TO.N,/bus/D27*%
X245300000Y-225540000D03*
%TO.P,P3,13,Pin_13*%
%TO.N,/bus/D10*%
X242760000Y-223000000D03*
%TO.P,P3,14,Pin_14*%
%TO.N,/bus/D26*%
X242760000Y-225540000D03*
%TO.P,P3,15,Pin_15*%
%TO.N,/bus/D9*%
X240220000Y-223000000D03*
%TO.P,P3,16,Pin_16*%
%TO.N,/bus/D25*%
X240220000Y-225540000D03*
%TO.P,P3,17,Pin_17*%
%TO.N,/bus/D8*%
X237680000Y-223000000D03*
%TO.P,P3,18,Pin_18*%
%TO.N,/bus/D24*%
X237680000Y-225540000D03*
%TO.P,P3,19,Pin_19*%
%TO.N,D7*%
X235140000Y-223000000D03*
%TO.P,P3,20,Pin_20*%
%TO.N,/bus/D23*%
X235140000Y-225540000D03*
%TO.P,P3,21,Pin_21*%
%TO.N,D6*%
X232600000Y-223000000D03*
%TO.P,P3,22,Pin_22*%
%TO.N,/bus/D22*%
X232600000Y-225540000D03*
%TO.P,P3,23,Pin_23*%
%TO.N,D5*%
X230060000Y-223000000D03*
%TO.P,P3,24,Pin_24*%
%TO.N,/bus/D21*%
X230060000Y-225540000D03*
%TO.P,P3,25,Pin_25*%
%TO.N,D4*%
X227520000Y-223000000D03*
%TO.P,P3,26,Pin_26*%
%TO.N,/bus/D20*%
X227520000Y-225540000D03*
%TO.P,P3,27,Pin_27*%
%TO.N,D3*%
X224980000Y-223000000D03*
%TO.P,P3,28,Pin_28*%
%TO.N,/bus/D19*%
X224980000Y-225540000D03*
%TO.P,P3,29,Pin_29*%
%TO.N,D2*%
X222440000Y-223000000D03*
%TO.P,P3,30,Pin_30*%
%TO.N,/bus/D18*%
X222440000Y-225540000D03*
%TO.P,P3,31,Pin_31*%
%TO.N,D1*%
X219900000Y-223000000D03*
%TO.P,P3,32,Pin_32*%
%TO.N,/bus/D17*%
X219900000Y-225540000D03*
%TO.P,P3,33,Pin_33*%
%TO.N,D0*%
X217360000Y-223000000D03*
%TO.P,P3,34,Pin_34*%
%TO.N,/bus/D16*%
X217360000Y-225540000D03*
%TO.P,P3,35,Pin_35*%
%TO.N,/bus/~{BUSERR}*%
X214820000Y-223000000D03*
%TO.P,P3,36,Pin_36*%
%TO.N,/bus/UDS*%
X214820000Y-225540000D03*
%TO.P,P3,37,Pin_37*%
%TO.N,/bus/~{VPA}*%
X212280000Y-223000000D03*
%TO.P,P3,38,Pin_38*%
%TO.N,/bus/LDS*%
X212280000Y-225540000D03*
%TO.P,P3,39,Pin_39*%
%TO.N,/bus/~{VMA}*%
X209740000Y-223000000D03*
%TO.P,P3,40,Pin_40*%
%TO.N,/bus/S2*%
X209740000Y-225540000D03*
%TO.P,P3,41,Pin_41*%
%TO.N,/bus/~{BHE}*%
X207200000Y-223000000D03*
%TO.P,P3,42,Pin_42*%
%TO.N,/bus/S1*%
X207200000Y-225540000D03*
%TO.P,P3,43,Pin_43*%
%TO.N,/bus/IPL2*%
X204660000Y-223000000D03*
%TO.P,P3,44,Pin_44*%
%TO.N,/bus/S0*%
X204660000Y-225540000D03*
%TO.P,P3,45,Pin_45*%
%TO.N,/bus/IPL1*%
X202120000Y-223000000D03*
%TO.P,P3,46,Pin_46*%
%TO.N,/bus/AUXCLK3*%
X202120000Y-225540000D03*
%TO.P,P3,47,Pin_47*%
%TO.N,/bus/IPL0*%
X199580000Y-223000000D03*
%TO.P,P3,48,Pin_48*%
%TO.N,/bus/AUXCLK2*%
X199580000Y-225540000D03*
%TO.P,P3,49,Pin_49*%
%TO.N,GND*%
X197040000Y-223000000D03*
%TO.P,P3,50,Pin_50*%
X197040000Y-225540000D03*
%TD*%
D11*
%TO.P,P1,1,Pin_1*%
%TO.N,VCC*%
X108000000Y-223000000D03*
D12*
%TO.P,P1,2,Pin_2*%
X108000000Y-225540000D03*
%TO.P,P1,3,Pin_3*%
%TO.N,~{RD}*%
X105460000Y-223000000D03*
%TO.P,P1,4,Pin_4*%
%TO.N,/bus/E*%
X105460000Y-225540000D03*
%TO.P,P1,5,Pin_5*%
%TO.N,~{WR}*%
X102920000Y-223000000D03*
%TO.P,P1,6,Pin_6*%
%TO.N,/bus/ST*%
X102920000Y-225540000D03*
%TO.P,P1,7,Pin_7*%
%TO.N,~{IORQ}*%
X100380000Y-223000000D03*
%TO.P,P1,8,Pin_8*%
%TO.N,/bus/PHI*%
X100380000Y-225540000D03*
%TO.P,P1,9,Pin_9*%
%TO.N,/bus/~{MREQ}*%
X97840000Y-223000000D03*
%TO.P,P1,10,Pin_10*%
%TO.N,/bus/~{INT2}*%
X97840000Y-225540000D03*
%TO.P,P1,11,Pin_11*%
%TO.N,~{M1}*%
X95300000Y-223000000D03*
%TO.P,P1,12,Pin_12*%
%TO.N,/bus/~{INT1}*%
X95300000Y-225540000D03*
%TO.P,P1,13,Pin_13*%
%TO.N,/bus/~{BUSACK}*%
X92760000Y-223000000D03*
%TO.P,P1,14,Pin_14*%
%TO.N,/bus/CRUCLK*%
X92760000Y-225540000D03*
%TO.P,P1,15,Pin_15*%
%TO.N,CLK*%
X90220000Y-223000000D03*
%TO.P,P1,16,Pin_16*%
%TO.N,/bus/CRUOUT*%
X90220000Y-225540000D03*
%TO.P,P1,17,Pin_17*%
%TO.N,~{INT0}*%
X87680000Y-223000000D03*
%TO.P,P1,18,Pin_18*%
%TO.N,/bus/CRUIN*%
X87680000Y-225540000D03*
%TO.P,P1,19,Pin_19*%
%TO.N,/bus/~{NMI}*%
X85140000Y-223000000D03*
%TO.P,P1,20,Pin_20*%
%TO.N,~{RES_IN}*%
X85140000Y-225540000D03*
%TO.P,P1,21,Pin_21*%
%TO.N,~{RES_OUT}*%
X82600000Y-223000000D03*
%TO.P,P1,22,Pin_22*%
%TO.N,/bus/USER8*%
X82600000Y-225540000D03*
%TO.P,P1,23,Pin_23*%
%TO.N,/bus/~{BUSRQ}*%
X80060000Y-223000000D03*
%TO.P,P1,24,Pin_24*%
%TO.N,/bus/USER7*%
X80060000Y-225540000D03*
%TO.P,P1,25,Pin_25*%
%TO.N,~{WAIT}*%
X77520000Y-223000000D03*
%TO.P,P1,26,Pin_26*%
%TO.N,/bus/USER6*%
X77520000Y-225540000D03*
%TO.P,P1,27,Pin_27*%
%TO.N,/bus/~{HALT}*%
X74980000Y-223000000D03*
%TO.P,P1,28,Pin_28*%
%TO.N,/bus/USER5*%
X74980000Y-225540000D03*
%TO.P,P1,29,Pin_29*%
%TO.N,/bus/~{RFSH}*%
X72440000Y-223000000D03*
%TO.P,P1,30,Pin_30*%
%TO.N,/bus/USER4*%
X72440000Y-225540000D03*
%TO.P,P1,31,Pin_31*%
%TO.N,~{EIRQ7}*%
X69900000Y-223000000D03*
%TO.P,P1,32,Pin_32*%
%TO.N,/bus/USER3*%
X69900000Y-225540000D03*
%TO.P,P1,33,Pin_33*%
%TO.N,~{EIRQ6}*%
X67360000Y-223000000D03*
%TO.P,P1,34,Pin_34*%
%TO.N,/bus/USER2*%
X67360000Y-225540000D03*
%TO.P,P1,35,Pin_35*%
%TO.N,~{EIRQ5}*%
X64820000Y-223000000D03*
%TO.P,P1,36,Pin_36*%
%TO.N,/bus/USER1*%
X64820000Y-225540000D03*
%TO.P,P1,37,Pin_37*%
%TO.N,~{EIRQ4}*%
X62280000Y-223000000D03*
%TO.P,P1,38,Pin_38*%
%TO.N,/bus/USER0*%
X62280000Y-225540000D03*
%TO.P,P1,39,Pin_39*%
%TO.N,~{EIRQ3}*%
X59740000Y-223000000D03*
%TO.P,P1,40,Pin_40*%
%TO.N,~{BAI}*%
X59740000Y-225540000D03*
%TO.P,P1,41,Pin_41*%
%TO.N,~{EIRQ2}*%
X57200000Y-223000000D03*
%TO.P,P1,42,Pin_42*%
%TO.N,~{BAO}*%
X57200000Y-225540000D03*
%TO.P,P1,43,Pin_43*%
%TO.N,~{EIRQ1}*%
X54660000Y-223000000D03*
%TO.P,P1,44,Pin_44*%
%TO.N,~{IEI}*%
X54660000Y-225540000D03*
%TO.P,P1,45,Pin_45*%
%TO.N,~{EIRQ0}*%
X52120000Y-223000000D03*
%TO.P,P1,46,Pin_46*%
%TO.N,~{IEO}*%
X52120000Y-225540000D03*
%TO.P,P1,47,Pin_47*%
%TO.N,/bus/I2C_SCL*%
X49580000Y-223000000D03*
%TO.P,P1,48,Pin_48*%
%TO.N,/bus/I2C_SDA*%
X49580000Y-225540000D03*
%TO.P,P1,49,Pin_49*%
%TO.N,GND*%
X47040000Y-223000000D03*
%TO.P,P1,50,Pin_50*%
X47040000Y-225540000D03*
%TD*%
D13*
%TO.P,Q1,1,E*%
%TO.N,VCC*%
X245480000Y-175510000D03*
D14*
%TO.P,Q1,2,B*%
%TO.N,Net-(JP12-Pad2)*%
X246750000Y-173440000D03*
%TO.P,Q1,3,C*%
%TO.N,Net-(Q1-Pad3)*%
X248020000Y-175510000D03*
%TD*%
D15*
%TO.P,J12,*%
%TO.N,*%
X178717500Y-75545000D03*
%TO.P,J12,R1*%
%TO.N,/Amplifier/R-CH*%
X173217500Y-78545000D03*
%TO.P,J12,R2*%
%TO.N,unconnected-(J12-PadR2)*%
X173217500Y-75545000D03*
%TO.P,J12,S*%
%TO.N,GND*%
X177717500Y-84045000D03*
D16*
%TO.P,J12,T*%
%TO.N,L-CH*%
X173217500Y-82545000D03*
%TD*%
D17*
%TO.P,C60,1*%
%TO.N,Net-(C60-Pad1)*%
X252317600Y-123170000D03*
D18*
%TO.P,C60,2*%
%TO.N,/VDP/LUMA*%
X254817600Y-123170000D03*
%TD*%
%TO.P,C34,1*%
%TO.N,GND*%
X145110000Y-108230000D03*
%TO.P,C34,2*%
%TO.N,/Amplifier/AMPPWR*%
X145110000Y-103230000D03*
%TD*%
%TO.P,C43,1*%
%TO.N,/VDP/RED*%
X223250000Y-159670000D03*
%TO.P,C43,2*%
%TO.N,Net-(C43-Pad2)*%
X223250000Y-154670000D03*
%TD*%
D19*
%TO.P,SW1,1,Pin_1*%
%TO.N,Net-(RN1-Pad2)*%
X178125000Y-195475000D03*
D20*
%TO.P,SW1,2,Pin_2*%
%TO.N,ZERO*%
X178125000Y-192935000D03*
%TO.P,SW1,3,Pin_3*%
%TO.N,Net-(RN1-Pad3)*%
X180665000Y-195475000D03*
%TO.P,SW1,4,Pin_4*%
%TO.N,ZERO*%
X180665000Y-192935000D03*
%TO.P,SW1,5,Pin_5*%
%TO.N,Net-(RN1-Pad4)*%
X183205000Y-195475000D03*
%TO.P,SW1,6,Pin_6*%
%TO.N,ZERO*%
X183205000Y-192935000D03*
%TO.P,SW1,7,Pin_7*%
%TO.N,Net-(RN1-Pad5)*%
X185745000Y-195475000D03*
%TO.P,SW1,8,Pin_8*%
%TO.N,ZERO*%
X185745000Y-192935000D03*
%TO.P,SW1,9,Pin_9*%
%TO.N,Net-(RN1-Pad6)*%
X188285000Y-195475000D03*
%TO.P,SW1,10,Pin_10*%
%TO.N,ZERO*%
X188285000Y-192935000D03*
%TD*%
D17*
%TO.P,U17,1,~{A}*%
%TO.N,~{CS_ACR}*%
X152125000Y-200800000D03*
D21*
%TO.P,U17,2,B*%
%TO.N,ONE*%
X154665000Y-200800000D03*
%TO.P,U17,3,~{CLR}*%
X157205000Y-200800000D03*
%TO.P,U17,4,~{Q}*%
%TO.N,unconnected-(U17-Pad4)*%
X159745000Y-200800000D03*
%TO.P,U17,5,Q*%
%TO.N,/PSG/PWA2*%
X162285000Y-200800000D03*
%TO.P,U17,6,Cext*%
%TO.N,Net-(C85-Pad2)*%
X164825000Y-200800000D03*
%TO.P,U17,7,RCext*%
%TO.N,Net-(C85-Pad1)*%
X167365000Y-200800000D03*
%TO.P,U17,8,GND*%
%TO.N,GND*%
X169905000Y-200800000D03*
%TO.P,U17,9,~{A}*%
%TO.N,~{CS_ACR}*%
X169905000Y-193180000D03*
%TO.P,U17,10,B*%
%TO.N,ONE*%
X167365000Y-193180000D03*
%TO.P,U17,11,~{CLR}*%
X164825000Y-193180000D03*
%TO.P,U17,12,~{Q}*%
%TO.N,unconnected-(U17-Pad12)*%
X162285000Y-193180000D03*
%TO.P,U17,13,Q*%
%TO.N,/PSG/PWA1*%
X159745000Y-193180000D03*
%TO.P,U17,14,Cext*%
%TO.N,Net-(C84-Pad2)*%
X157205000Y-193180000D03*
%TO.P,U17,15,RCext*%
%TO.N,Net-(C84-Pad1)*%
X154665000Y-193180000D03*
%TO.P,U17,16,VCC*%
%TO.N,VCC*%
X152125000Y-193180000D03*
%TD*%
D17*
%TO.P,C59,1*%
%TO.N,Net-(C59-Pad1)*%
X245135200Y-123170000D03*
D18*
%TO.P,C59,2*%
%TO.N,/VDP/COMP*%
X247635200Y-123170000D03*
%TD*%
D19*
%TO.P,JP9,1,A*%
%TO.N,L-CH*%
X104580000Y-87970000D03*
D20*
%TO.P,JP9,2,B*%
%TO.N,Net-(JP9-Pad2)*%
X104580000Y-90510000D03*
%TD*%
D18*
%TO.P,C17,1*%
%TO.N,VCCVDP*%
X158500000Y-174600000D03*
%TO.P,C17,2*%
%TO.N,GND*%
X163500000Y-174600000D03*
%TD*%
%TO.P,C5,1*%
%TO.N,VCC*%
X180250000Y-109250000D03*
%TO.P,C5,2*%
%TO.N,GND*%
X180250000Y-114250000D03*
%TD*%
D19*
%TO.P,JP4,1,A*%
%TO.N,GND*%
X132100000Y-139425000D03*
D20*
%TO.P,JP4,2,B*%
%TO.N,Net-(JP4-Pad2)*%
X132100000Y-141965000D03*
%TD*%
D17*
%TO.P,C8,1*%
%TO.N,VCCVDP*%
X176100000Y-174600000D03*
D18*
%TO.P,C8,2*%
%TO.N,GND*%
X178600000Y-174600000D03*
%TD*%
%TO.P,R17,1*%
%TO.N,Net-(C60-Pad1)*%
X247250000Y-129610000D03*
D21*
%TO.P,R17,2*%
%TO.N,Net-(R17-Pad2)*%
X247250000Y-137230000D03*
%TD*%
D19*
%TO.P,JP2,1,A*%
%TO.N,Net-(JP2-Pad1)*%
X50275000Y-188750000D03*
D20*
%TO.P,JP2,2,B*%
%TO.N,~{WAIT}*%
X52815000Y-188750000D03*
%TD*%
D18*
%TO.P,R23,1*%
%TO.N,Net-(C53-Pad1)*%
X148000000Y-140500000D03*
D21*
%TO.P,R23,2*%
%TO.N,Net-(C52-Pad1)*%
X148000000Y-148120000D03*
%TD*%
D18*
%TO.P,R30,1*%
%TO.N,Net-(C38-Pad1)*%
X109900000Y-112700000D03*
D21*
%TO.P,R30,2*%
%TO.N,Net-(C46-Pad1)*%
X117520000Y-112700000D03*
%TD*%
D18*
%TO.P,C85,1*%
%TO.N,Net-(C85-Pad1)*%
X161900000Y-184400000D03*
%TO.P,C85,2*%
%TO.N,Net-(C85-Pad2)*%
X166900000Y-184400000D03*
%TD*%
%TO.P,R16,1*%
%TO.N,Net-(C59-Pad1)*%
X241250000Y-129610000D03*
D21*
%TO.P,R16,2*%
%TO.N,Net-(R16-Pad2)*%
X241250000Y-137230000D03*
%TD*%
D18*
%TO.P,C80,1*%
%TO.N,GND*%
X97350000Y-131950000D03*
%TO.P,C80,2*%
%TO.N,Net-(C80-Pad2)*%
X92350000Y-131950000D03*
%TD*%
D22*
%TO.P,LS1,1,1*%
%TO.N,Net-(JP9-Pad2)*%
X78760000Y-86800000D03*
D23*
%TO.P,LS1,2,2*%
%TO.N,GND*%
X93760000Y-86800000D03*
%TD*%
D17*
%TO.P,C61,1*%
%TO.N,Net-(C61-Pad1)*%
X259567600Y-123170000D03*
D18*
%TO.P,C61,2*%
%TO.N,/VDP/CHROMA*%
X262067600Y-123170000D03*
%TD*%
%TO.P,R15,1*%
%TO.N,Net-(C58-Pad1)*%
X235250000Y-129610000D03*
D21*
%TO.P,R15,2*%
%TO.N,Net-(R15-Pad2)*%
X235250000Y-137230000D03*
%TD*%
D18*
%TO.P,R22,1*%
%TO.N,Net-(C4-Pad1)*%
X189940000Y-102250000D03*
D21*
%TO.P,R22,2*%
%TO.N,GND*%
X197560000Y-102250000D03*
%TD*%
D17*
%TO.P,U1,1,I1/CLK*%
%TO.N,unconnected-(U1-Pad1)*%
X104750000Y-213000000D03*
D21*
%TO.P,U1,2,I2*%
%TO.N,~{bWR}*%
X107290000Y-213000000D03*
%TO.P,U1,3,I3*%
%TO.N,~{CS_MEDIA}*%
X109830000Y-213000000D03*
%TO.P,U1,4,I4*%
%TO.N,~{bRD}*%
X112370000Y-213000000D03*
%TO.P,U1,5,I5*%
%TO.N,bA2*%
X114910000Y-213000000D03*
%TO.P,U1,6,I6*%
%TO.N,bA0*%
X117450000Y-213000000D03*
%TO.P,U1,7,I7*%
%TO.N,bA1*%
X119990000Y-213000000D03*
%TO.P,U1,8,I8*%
%TO.N,unconnected-(U1-Pad8)*%
X122530000Y-213000000D03*
%TO.P,U1,9,I9*%
%TO.N,unconnected-(U1-Pad9)*%
X125070000Y-213000000D03*
%TO.P,U1,10,GND*%
%TO.N,GND*%
X127610000Y-213000000D03*
%TO.P,U1,11,I10/~{OE}*%
%TO.N,unconnected-(U1-Pad11)*%
X127610000Y-205380000D03*
%TO.P,U1,12,IO8*%
%TO.N,unconnected-(U1-Pad12)*%
X125070000Y-205380000D03*
%TO.P,U1,13,IO7*%
%TO.N,unconnected-(U1-Pad13)*%
X122530000Y-205380000D03*
%TO.P,U1,14,IO6*%
%TO.N,~{CS_ACR}*%
X119990000Y-205380000D03*
%TO.P,U1,15,IO5*%
%TO.N,~{CS_ACR_WR}*%
X117450000Y-205380000D03*
%TO.P,U1,16,IO4*%
%TO.N,~{CS_PSG_A0}*%
X114910000Y-205380000D03*
%TO.P,U1,17,I03*%
%TO.N,~{CS_PSG_WR}*%
X112370000Y-205380000D03*
%TO.P,U1,18,IO2*%
%TO.N,~{VDP_RD}*%
X109830000Y-205380000D03*
%TO.P,U1,19,IO1*%
%TO.N,~{VDP_WR}*%
X107290000Y-205380000D03*
%TO.P,U1,20,VCC*%
%TO.N,VCC*%
X104750000Y-205380000D03*
%TD*%
D19*
%TO.P,JP8,1,A*%
%TO.N,VCC*%
X186725000Y-218250000D03*
D20*
%TO.P,JP8,2,C*%
%TO.N,/Amplifier/AMPPWR*%
X189265000Y-218250000D03*
%TO.P,JP8,3,B*%
%TO.N,+12V*%
X191805000Y-218250000D03*
%TD*%
D17*
%TO.P,U4,1*%
%TO.N,Net-(U24-Pad8)*%
X47675000Y-200800000D03*
D21*
%TO.P,U4,2*%
%TO.N,Net-(JP2-Pad1)*%
X50215000Y-200800000D03*
%TO.P,U4,3*%
%TO.N,/ACR/STATUS-VDP*%
X52755000Y-200800000D03*
%TO.P,U4,4*%
%TO.N,Net-(D2-Pad1)*%
X55295000Y-200800000D03*
%TO.P,U4,5*%
%TO.N,Net-(R24-Pad1)*%
X57835000Y-200800000D03*
%TO.P,U4,6*%
%TO.N,Net-(J7-Pad1)*%
X60375000Y-200800000D03*
%TO.P,U4,7,GND*%
%TO.N,GND*%
X62915000Y-200800000D03*
%TO.P,U4,8*%
%TO.N,Net-(R24-Pad1)*%
X62915000Y-193180000D03*
%TO.P,U4,9*%
%TO.N,~{VINT}*%
X60375000Y-193180000D03*
%TO.P,U4,10*%
%TO.N,Net-(D4-Pad1)*%
X57835000Y-193180000D03*
%TO.P,U4,11*%
%TO.N,/ACR/STATUS-PSG*%
X55295000Y-193180000D03*
%TO.P,U4,12*%
%TO.N,unconnected-(U4-Pad12)*%
X52755000Y-193180000D03*
%TO.P,U4,13*%
%TO.N,unconnected-(U4-Pad13)*%
X50215000Y-193180000D03*
%TO.P,U4,14,VCC*%
%TO.N,VCC*%
X47675000Y-193180000D03*
%TD*%
D18*
%TO.P,L1,1*%
%TO.N,Net-(C51-Pad2)*%
X258750000Y-164830000D03*
D21*
%TO.P,L1,2*%
%TO.N,GND*%
X258750000Y-154670000D03*
%TD*%
D19*
%TO.P,P8,1,Pin_1*%
%TO.N,Net-(P8-Pad1)*%
X75925000Y-188540000D03*
D20*
%TO.P,P8,2,Pin_2*%
%TO.N,Net-(P8-Pad2)*%
X75925000Y-186000000D03*
%TO.P,P8,3,Pin_3*%
%TO.N,Net-(P8-Pad1)*%
X78465000Y-188540000D03*
%TO.P,P8,4,Pin_4*%
%TO.N,Net-(P8-Pad4)*%
X78465000Y-186000000D03*
%TO.P,P8,5,Pin_5*%
%TO.N,Net-(P8-Pad5)*%
X81005000Y-188540000D03*
%TO.P,P8,6,Pin_6*%
%TO.N,/PSG/CLK_AY3*%
X81005000Y-186000000D03*
%TO.P,P8,7,Pin_7*%
%TO.N,Net-(P8-Pad7)*%
X83545000Y-188540000D03*
%TO.P,P8,8,Pin_8*%
X83545000Y-186000000D03*
%TO.P,P8,9,Pin_9*%
%TO.N,Net-(P8-Pad9)*%
X86085000Y-188540000D03*
%TO.P,P8,10,Pin_10*%
%TO.N,Net-(P8-Pad10)*%
X86085000Y-186000000D03*
%TD*%
D24*
%TO.P,NT2,1,1*%
%TO.N,GND*%
X120650000Y-192750000D03*
%TO.P,NT2,2,2*%
%TO.N,ZERO*%
X121850000Y-192750000D03*
%TD*%
D19*
%TO.P,J8,1,Pin_1*%
%TO.N,VCC*%
X148175000Y-89290000D03*
D20*
%TO.P,J8,2,Pin_2*%
%TO.N,Net-(J8-Pad2)*%
X150715000Y-89290000D03*
%TO.P,J8,3,Pin_3*%
%TO.N,/PSG/JOYBG*%
X153255000Y-89290000D03*
%TD*%
D18*
%TO.P,R3,1*%
%TO.N,GND*%
X213940000Y-99500000D03*
D21*
%TO.P,R3,2*%
%TO.N,/VDP/YS*%
X221560000Y-99500000D03*
%TD*%
D18*
%TO.P,C66,1*%
%TO.N,VCC*%
X217750000Y-139500000D03*
%TO.P,C66,2*%
%TO.N,GND*%
X217750000Y-134500000D03*
%TD*%
D17*
%TO.P,U7,1,OE*%
%TO.N,ZERO*%
X192850000Y-139550000D03*
D21*
%TO.P,U7,2,IO1*%
%TO.N,/VDP/VD0*%
X195390000Y-139550000D03*
%TO.P,U7,3,IO2*%
%TO.N,/VDP/VD1*%
X197930000Y-139550000D03*
%TO.P,U7,4,WE*%
%TO.N,/VDP/~{VRW}*%
X200470000Y-139550000D03*
%TO.P,U7,5,RAS*%
%TO.N,/VDP/~{RAS}*%
X203010000Y-139550000D03*
%TO.P,U7,6,A6*%
%TO.N,/VDP/AD6*%
X205550000Y-139550000D03*
%TO.P,U7,7,A5*%
%TO.N,/VDP/AD5*%
X208090000Y-139550000D03*
%TO.P,U7,8,A4*%
%TO.N,/VDP/AD4*%
X210630000Y-139550000D03*
%TO.P,U7,9,VCC*%
%TO.N,VCC*%
X213170000Y-139550000D03*
%TO.P,U7,10,A7*%
%TO.N,/VDP/AD7*%
X213170000Y-131930000D03*
%TO.P,U7,11,A3*%
%TO.N,/VDP/AD3*%
X210630000Y-131930000D03*
%TO.P,U7,12,A2*%
%TO.N,/VDP/AD2*%
X208090000Y-131930000D03*
%TO.P,U7,13,A1*%
%TO.N,/VDP/AD1*%
X205550000Y-131930000D03*
%TO.P,U7,14,A0*%
%TO.N,/VDP/AD0*%
X203010000Y-131930000D03*
%TO.P,U7,15,IO3*%
%TO.N,/VDP/VD2*%
X200470000Y-131930000D03*
%TO.P,U7,16,CAS*%
%TO.N,/VDP/~{CAS0}*%
X197930000Y-131930000D03*
%TO.P,U7,17,IO4*%
%TO.N,/VDP/VD3*%
X195390000Y-131930000D03*
%TO.P,U7,18,GND*%
%TO.N,GND*%
X192850000Y-131930000D03*
%TD*%
D19*
%TO.P,JP6,1,A*%
%TO.N,/VDP/~{HSYNC}*%
X180225000Y-168000000D03*
D20*
%TO.P,JP6,2,B*%
%TO.N,ZERO*%
X182765000Y-168000000D03*
%TD*%
D25*
%TO.P,D1,1,K*%
%TO.N,GND*%
X49250000Y-81100000D03*
D26*
%TO.P,D1,2,A*%
%TO.N,Net-(D1-Pad2)*%
X46710000Y-81100000D03*
%TD*%
D18*
%TO.P,R2,1*%
%TO.N,GND*%
X213940000Y-93500000D03*
D21*
%TO.P,R2,2*%
%TO.N,/VDP/AV*%
X221560000Y-93500000D03*
%TD*%
D18*
%TO.P,C48,1*%
%TO.N,VCCRGB*%
X252100000Y-183000000D03*
%TO.P,C48,2*%
%TO.N,GND*%
X247100000Y-183000000D03*
%TD*%
%TO.P,R5,1*%
%TO.N,GND*%
X223250000Y-177060000D03*
D21*
%TO.P,R5,2*%
%TO.N,/VDP/RED*%
X223250000Y-169440000D03*
%TD*%
D18*
%TO.P,R39,1*%
%TO.N,VCC*%
X135590000Y-189000000D03*
D21*
%TO.P,R39,2*%
%TO.N,Net-(C84-Pad2)*%
X143210000Y-189000000D03*
%TD*%
D19*
%TO.P,P13,1,Pin_1*%
%TO.N,Net-(P13-Pad1)*%
X178225000Y-187275000D03*
D20*
%TO.P,P13,2,Pin_2*%
%TO.N,/VDP/VSYNC*%
X178225000Y-184735000D03*
%TO.P,P13,3,Pin_3*%
%TO.N,/VDP/VGA-HSYNC*%
X180765000Y-187275000D03*
%TO.P,P13,4,Pin_4*%
%TO.N,/VDP/VGA-VSYNC*%
X180765000Y-184735000D03*
%TO.P,P13,5,Pin_5*%
%TO.N,/VDP/~{HSYNC}*%
X183305000Y-187275000D03*
%TO.P,P13,6,Pin_6*%
%TO.N,/VDP/~{VSYNC}*%
X183305000Y-184735000D03*
%TD*%
D17*
%TO.P,U5,1,GND*%
%TO.N,GND*%
X224275000Y-151270000D03*
D21*
%TO.P,U5,2,RIN*%
%TO.N,Net-(C43-Pad2)*%
X226815000Y-151270000D03*
%TO.P,U5,3,GIN*%
%TO.N,Net-(C44-Pad2)*%
X229355000Y-151270000D03*
%TO.P,U5,4,BIN*%
%TO.N,Net-(C45-Pad2)*%
X231895000Y-151270000D03*
%TO.P,U5,5,NC*%
%TO.N,unconnected-(U5-Pad5)*%
X234435000Y-151270000D03*
%TO.P,U5,6,SCIN*%
%TO.N,Net-(C49-Pad1)*%
X236975000Y-151270000D03*
%TO.P,U5,7,NTSC/~{PAL}*%
%TO.N,VCC*%
X239515000Y-151270000D03*
%TO.P,U5,8,BFOUT*%
%TO.N,unconnected-(U5-Pad8)*%
X242055000Y-151270000D03*
%TO.P,U5,9,YCLPC*%
%TO.N,Net-(C50-Pad1)*%
X244595000Y-151270000D03*
%TO.P,U5,10,SYNCIN*%
%TO.N,/VDP/SYNCIN*%
X247135000Y-151270000D03*
%TO.P,U5,11,NC*%
%TO.N,unconnected-(U5-Pad11)*%
X249675000Y-151270000D03*
%TO.P,U5,12,VCC*%
%TO.N,VCCRGB*%
X252215000Y-151270000D03*
%TO.P,U5,13,IREF*%
%TO.N,Net-(C55-Pad1)*%
X252215000Y-141110000D03*
%TO.P,U5,14,VREF*%
%TO.N,Net-(C54-Pad1)*%
X249675000Y-141110000D03*
%TO.P,U5,15,COUT*%
%TO.N,Net-(R18-Pad2)*%
X247135000Y-141110000D03*
%TO.P,U5,16,YOUT*%
%TO.N,Net-(R17-Pad2)*%
X244595000Y-141110000D03*
%TO.P,U5,17,YTRAP*%
%TO.N,Net-(C51-Pad1)*%
X242055000Y-141110000D03*
%TO.P,U5,18,FO*%
%TO.N,Net-(R11-Pad1)*%
X239515000Y-141110000D03*
%TO.P,U5,19,VCC*%
%TO.N,VCCRGB*%
X236975000Y-141110000D03*
%TO.P,U5,20,CVOUT*%
%TO.N,Net-(R16-Pad2)*%
X234435000Y-141110000D03*
%TO.P,U5,21,BOUT*%
%TO.N,Net-(R15-Pad2)*%
X231895000Y-141110000D03*
%TO.P,U5,22,GOUT*%
%TO.N,Net-(R14-Pad2)*%
X229355000Y-141110000D03*
%TO.P,U5,23,ROUT*%
%TO.N,Net-(R13-Pad2)*%
X226815000Y-141110000D03*
%TO.P,U5,24,GND*%
%TO.N,GND*%
X224275000Y-141110000D03*
%TD*%
D18*
%TO.P,R24,1*%
%TO.N,Net-(R24-Pad1)*%
X55990000Y-188750000D03*
D21*
%TO.P,R24,2*%
%TO.N,VCC*%
X63610000Y-188750000D03*
%TD*%
D27*
%TO.P,J14,1*%
%TO.N,GND*%
X185600000Y-78750000D03*
%TO.P,J14,2*%
X192400000Y-78750000D03*
%TO.P,J14,3*%
%TO.N,/VDP/LUMA*%
X185600000Y-81250000D03*
%TO.P,J14,4*%
%TO.N,/VDP/CHROMA*%
X192400000Y-81250000D03*
D28*
%TO.P,J14,~*%
%TO.N,N/C*%
X195750000Y-75750000D03*
X182250000Y-75750000D03*
X189000000Y-74950000D03*
%TD*%
D18*
%TO.P,R38,1*%
%TO.N,Net-(P8-Pad1)*%
X110100000Y-143700000D03*
D21*
%TO.P,R38,2*%
%TO.N,Net-(C81-Pad1)*%
X110100000Y-136080000D03*
%TD*%
D18*
%TO.P,R41,1*%
%TO.N,/PSG/POTA1*%
X145590000Y-189000000D03*
D21*
%TO.P,R41,2*%
%TO.N,Net-(C84-Pad2)*%
X153210000Y-189000000D03*
%TD*%
D18*
%TO.P,C79,1*%
%TO.N,VCC*%
X95400000Y-195900000D03*
%TO.P,C79,2*%
%TO.N,GND*%
X95400000Y-200900000D03*
%TD*%
D17*
%TO.P,C57,1*%
%TO.N,Net-(C57-Pad1)*%
X230612900Y-123170000D03*
D18*
%TO.P,C57,2*%
%TO.N,/VDP/GOUT*%
X233112900Y-123170000D03*
%TD*%
%TO.P,C15,1*%
%TO.N,VCC*%
X67000000Y-207500000D03*
%TO.P,C15,2*%
%TO.N,GND*%
X67000000Y-212500000D03*
%TD*%
%TO.P,C30,1*%
%TO.N,VCCVDP*%
X186300200Y-174600000D03*
%TO.P,C30,2*%
%TO.N,GND*%
X181300200Y-174600000D03*
%TD*%
D17*
%TO.P,U20,1,GND*%
%TO.N,GND*%
X92725000Y-162075000D03*
D21*
%TO.P,U20,2,NC2*%
%TO.N,unconnected-(U20-Pad2)*%
X95265000Y-162075000D03*
%TO.P,U20,3,OUTB*%
%TO.N,Net-(P8-Pad1)*%
X97805000Y-162075000D03*
%TO.P,U20,4,OUTA*%
%TO.N,Net-(P8-Pad4)*%
X100345000Y-162075000D03*
%TO.P,U20,5,NC5*%
%TO.N,unconnected-(U20-Pad5)*%
X102885000Y-162075000D03*
%TO.P,U20,6,IOB7*%
%TO.N,/PSG/SPAREB*%
X105425000Y-162075000D03*
%TO.P,U20,7,IOB6*%
%TO.N,/PSG/JOYBH*%
X107965000Y-162075000D03*
%TO.P,U20,8,IOB5*%
%TO.N,/PSG/JOYBG*%
X110505000Y-162075000D03*
%TO.P,U20,9,IOB4*%
%TO.N,/PSG/JOYBF*%
X113045000Y-162075000D03*
%TO.P,U20,10,IOB3*%
%TO.N,/PSG/JOYBR*%
X115585000Y-162075000D03*
%TO.P,U20,11,IOB2*%
%TO.N,/PSG/JOYBL*%
X118125000Y-162075000D03*
%TO.P,U20,12,IOB1*%
%TO.N,/PSG/JOYBD*%
X120665000Y-162075000D03*
%TO.P,U20,13,IOB0*%
%TO.N,/PSG/JOYBU*%
X123205000Y-162075000D03*
%TO.P,U20,14,IOA7*%
%TO.N,/PSG/SPAREA*%
X125745000Y-162075000D03*
%TO.P,U20,15,IOA6*%
%TO.N,/PSG/PWA2*%
X128285000Y-162075000D03*
%TO.P,U20,16,IOA5*%
%TO.N,/PSG/PWA1*%
X130825000Y-162075000D03*
%TO.P,U20,17,IOA4*%
%TO.N,/PSG/JOYAF*%
X133365000Y-162075000D03*
%TO.P,U20,18,IOA3*%
%TO.N,/PSG/JOYAR*%
X135905000Y-162075000D03*
%TO.P,U20,19,IOA2*%
%TO.N,/PSG/JOYAL*%
X138445000Y-162075000D03*
%TO.P,U20,20,IOA1*%
%TO.N,/PSG/JOYAD*%
X140985000Y-162075000D03*
%TO.P,U20,21,IOA0*%
%TO.N,/PSG/JOYAU*%
X140985000Y-146835000D03*
%TO.P,U20,22,CLOCK*%
%TO.N,Net-(P8-Pad7)*%
X138445000Y-146835000D03*
%TO.P,U20,23,RESET*%
%TO.N,~{RESAY3}*%
X135905000Y-146835000D03*
%TO.P,U20,24,A9*%
%TO.N,ZERO*%
X133365000Y-146835000D03*
%TO.P,U20,25,A8*%
%TO.N,ONE*%
X130825000Y-146835000D03*
%TO.P,U20,26,TEST2*%
%TO.N,Net-(JP4-Pad2)*%
X128285000Y-146835000D03*
%TO.P,U20,27,BDIR*%
%TO.N,~{CS_PSG_WR}*%
X125745000Y-146835000D03*
%TO.P,U20,28,BC2*%
%TO.N,ONE*%
X123205000Y-146835000D03*
%TO.P,U20,29,BC1*%
%TO.N,~{CS_PSG_A0}*%
X120665000Y-146835000D03*
%TO.P,U20,30,D7*%
%TO.N,bD7*%
X118125000Y-146835000D03*
%TO.P,U20,31,D6*%
%TO.N,bD6*%
X115585000Y-146835000D03*
%TO.P,U20,32,D5*%
%TO.N,bD5*%
X113045000Y-146835000D03*
%TO.P,U20,33,D4*%
%TO.N,bD4*%
X110505000Y-146835000D03*
%TO.P,U20,34,D3*%
%TO.N,bD3*%
X107965000Y-146835000D03*
%TO.P,U20,35,D2*%
%TO.N,bD2*%
X105425000Y-146835000D03*
%TO.P,U20,36,D1*%
%TO.N,bD1*%
X102885000Y-146835000D03*
%TO.P,U20,37,D0*%
%TO.N,bD0*%
X100345000Y-146835000D03*
%TO.P,U20,38,OUTC*%
%TO.N,Net-(P8-Pad2)*%
X97805000Y-146835000D03*
%TO.P,U20,39,TEST1*%
%TO.N,unconnected-(U20-Pad39)*%
X95265000Y-146835000D03*
%TO.P,U20,40,VCC*%
%TO.N,VCC*%
X92725000Y-146835000D03*
%TD*%
D19*
%TO.P,J3,1,Pin_1*%
%TO.N,Net-(J3-Pad1)*%
X126775000Y-183400000D03*
D20*
%TO.P,J3,2,Pin_2*%
%TO.N,/VDP/VGA-CSYNC*%
X129315000Y-183400000D03*
%TO.P,J3,3,Pin_3*%
%TO.N,/VDP/SYNCIN*%
X131855000Y-183400000D03*
%TD*%
D18*
%TO.P,C2,1*%
%TO.N,VCC*%
X147400000Y-195700000D03*
%TO.P,C2,2*%
%TO.N,GND*%
X147400000Y-200700000D03*
%TD*%
%TO.P,C12,1*%
%TO.N,VCC*%
X69065000Y-195900000D03*
%TO.P,C12,2*%
%TO.N,GND*%
X69065000Y-200900000D03*
%TD*%
D17*
%TO.P,U11,1,OE*%
%TO.N,ZERO*%
X161470000Y-127600000D03*
D21*
%TO.P,U11,2,IO1*%
%TO.N,/VDP/VD4*%
X164010000Y-127600000D03*
%TO.P,U11,3,IO2*%
%TO.N,/VDP/VD5*%
X166550000Y-127600000D03*
%TO.P,U11,4,WE*%
%TO.N,/VDP/~{VRW}*%
X169090000Y-127600000D03*
%TO.P,U11,5,RAS*%
%TO.N,/VDP/~{RAS}*%
X171630000Y-127600000D03*
%TO.P,U11,6,A6*%
%TO.N,/VDP/AD6*%
X174170000Y-127600000D03*
%TO.P,U11,7,A5*%
%TO.N,/VDP/AD5*%
X176710000Y-127600000D03*
%TO.P,U11,8,A4*%
%TO.N,/VDP/AD4*%
X179250000Y-127600000D03*
%TO.P,U11,9,VCC*%
%TO.N,VCC*%
X181790000Y-127600000D03*
%TO.P,U11,10,A7*%
%TO.N,/VDP/AD7*%
X181790000Y-119980000D03*
%TO.P,U11,11,A3*%
%TO.N,/VDP/AD3*%
X179250000Y-119980000D03*
%TO.P,U11,12,A2*%
%TO.N,/VDP/AD2*%
X176710000Y-119980000D03*
%TO.P,U11,13,A1*%
%TO.N,/VDP/AD1*%
X174170000Y-119980000D03*
%TO.P,U11,14,A0*%
%TO.N,/VDP/AD0*%
X171630000Y-119980000D03*
%TO.P,U11,15,IO3*%
%TO.N,/VDP/VD6*%
X169090000Y-119980000D03*
%TO.P,U11,16,CAS*%
%TO.N,/VDP/~{CAS1}*%
X166550000Y-119980000D03*
%TO.P,U11,17,IO4*%
%TO.N,/VDP/VD7*%
X164010000Y-119980000D03*
%TO.P,U11,18,GND*%
%TO.N,GND*%
X161470000Y-119980000D03*
%TD*%
D18*
%TO.P,R40,1*%
%TO.N,VCC*%
X165590000Y-189000000D03*
D21*
%TO.P,R40,2*%
%TO.N,Net-(C85-Pad2)*%
X173210000Y-189000000D03*
%TD*%
D18*
%TO.P,C49,1*%
%TO.N,Net-(C49-Pad1)*%
X238750000Y-166250000D03*
%TO.P,C49,2*%
%TO.N,GND*%
X243750000Y-166250000D03*
%TD*%
%TO.P,C51,1*%
%TO.N,Net-(C51-Pad1)*%
X252750000Y-154670000D03*
%TO.P,C51,2*%
%TO.N,Net-(C51-Pad2)*%
X252750000Y-159670000D03*
%TD*%
D19*
%TO.P,J4,1,Pin_1*%
%TO.N,/VDP/VGA-HSYNC*%
X209400000Y-104000000D03*
D20*
%TO.P,J4,2,Pin_2*%
%TO.N,Net-(J4-Pad2)*%
X209400000Y-106540000D03*
%TO.P,J4,3,Pin_3*%
%TO.N,/VDP/VGA-CSYNC*%
X209400000Y-109080000D03*
%TD*%
D17*
%TO.P,C21,1*%
%TO.N,VCC*%
X216400000Y-169400000D03*
D18*
%TO.P,C21,2*%
%TO.N,GND*%
X218900000Y-169400000D03*
%TD*%
D19*
%TO.P,JP13,1,A*%
%TO.N,Net-(J7-Pad1)*%
X72500000Y-219000000D03*
D20*
%TO.P,JP13,2,B*%
%TO.N,~{INT0}*%
X75040000Y-219000000D03*
%TD*%
D29*
%TO.P,X1,1,1*%
%TO.N,Net-(C52-Pad1)*%
X153750000Y-147700000D03*
%TO.P,X1,2,2*%
%TO.N,Net-(C53-Pad1)*%
X153750000Y-142820000D03*
%TD*%
D18*
%TO.P,C19,1*%
%TO.N,VCC*%
X87794900Y-151900000D03*
%TO.P,C19,2*%
%TO.N,GND*%
X87794900Y-156900000D03*
%TD*%
D17*
%TO.P,U10,1,OE*%
%TO.N,ZERO*%
X192850000Y-127750000D03*
D21*
%TO.P,U10,2,IO1*%
%TO.N,/VDP/VD0*%
X195390000Y-127750000D03*
%TO.P,U10,3,IO2*%
%TO.N,/VDP/VD1*%
X197930000Y-127750000D03*
%TO.P,U10,4,WE*%
%TO.N,/VDP/~{VRW}*%
X200470000Y-127750000D03*
%TO.P,U10,5,RAS*%
%TO.N,/VDP/~{RAS}*%
X203010000Y-127750000D03*
%TO.P,U10,6,A6*%
%TO.N,/VDP/AD6*%
X205550000Y-127750000D03*
%TO.P,U10,7,A5*%
%TO.N,/VDP/AD5*%
X208090000Y-127750000D03*
%TO.P,U10,8,A4*%
%TO.N,/VDP/AD4*%
X210630000Y-127750000D03*
%TO.P,U10,9,VCC*%
%TO.N,VCC*%
X213170000Y-127750000D03*
%TO.P,U10,10,A7*%
%TO.N,/VDP/AD7*%
X213170000Y-120130000D03*
%TO.P,U10,11,A3*%
%TO.N,/VDP/AD3*%
X210630000Y-120130000D03*
%TO.P,U10,12,A2*%
%TO.N,/VDP/AD2*%
X208090000Y-120130000D03*
%TO.P,U10,13,A1*%
%TO.N,/VDP/AD1*%
X205550000Y-120130000D03*
%TO.P,U10,14,A0*%
%TO.N,/VDP/AD0*%
X203010000Y-120130000D03*
%TO.P,U10,15,IO3*%
%TO.N,/VDP/VD2*%
X200470000Y-120130000D03*
%TO.P,U10,16,CAS*%
%TO.N,/VDP/~{CAS1}*%
X197930000Y-120130000D03*
%TO.P,U10,17,IO4*%
%TO.N,/VDP/VD3*%
X195390000Y-120130000D03*
%TO.P,U10,18,GND*%
%TO.N,GND*%
X192850000Y-120130000D03*
%TD*%
D17*
%TO.P,U8,1,OE*%
%TO.N,ZERO*%
X161310000Y-139770000D03*
D21*
%TO.P,U8,2,IO1*%
%TO.N,/VDP/VD4*%
X163850000Y-139770000D03*
%TO.P,U8,3,IO2*%
%TO.N,/VDP/VD5*%
X166390000Y-139770000D03*
%TO.P,U8,4,WE*%
%TO.N,/VDP/~{VRW}*%
X168930000Y-139770000D03*
%TO.P,U8,5,RAS*%
%TO.N,/VDP/~{RAS}*%
X171470000Y-139770000D03*
%TO.P,U8,6,A6*%
%TO.N,/VDP/AD6*%
X174010000Y-139770000D03*
%TO.P,U8,7,A5*%
%TO.N,/VDP/AD5*%
X176550000Y-139770000D03*
%TO.P,U8,8,A4*%
%TO.N,/VDP/AD4*%
X179090000Y-139770000D03*
%TO.P,U8,9,VCC*%
%TO.N,VCC*%
X181630000Y-139770000D03*
%TO.P,U8,10,A7*%
%TO.N,/VDP/AD7*%
X181630000Y-132150000D03*
%TO.P,U8,11,A3*%
%TO.N,/VDP/AD3*%
X179090000Y-132150000D03*
%TO.P,U8,12,A2*%
%TO.N,/VDP/AD2*%
X176550000Y-132150000D03*
%TO.P,U8,13,A1*%
%TO.N,/VDP/AD1*%
X174010000Y-132150000D03*
%TO.P,U8,14,A0*%
%TO.N,/VDP/AD0*%
X171470000Y-132150000D03*
%TO.P,U8,15,IO3*%
%TO.N,/VDP/VD6*%
X168930000Y-132150000D03*
%TO.P,U8,16,CAS*%
%TO.N,/VDP/~{CAS0}*%
X166390000Y-132150000D03*
%TO.P,U8,17,IO4*%
%TO.N,/VDP/VD7*%
X163850000Y-132150000D03*
%TO.P,U8,18,GND*%
%TO.N,GND*%
X161310000Y-132150000D03*
%TD*%
D17*
%TO.P,C56,1*%
%TO.N,Net-(C56-Pad1)*%
X223385200Y-123170000D03*
D18*
%TO.P,C56,2*%
%TO.N,/VDP/ROUT*%
X225885200Y-123170000D03*
%TD*%
%TO.P,C53,1*%
%TO.N,Net-(C53-Pad1)*%
X155500000Y-137500000D03*
%TO.P,C53,2*%
%TO.N,GND*%
X150500000Y-137500000D03*
%TD*%
D17*
%TO.P,C36,1*%
%TO.N,Net-(C36-Pad1)*%
X143949800Y-98980000D03*
D18*
%TO.P,C36,2*%
%TO.N,GND*%
X146449800Y-98980000D03*
%TD*%
D19*
%TO.P,P4,1,Pin_1*%
%TO.N,~{IEO}*%
X51200000Y-219000000D03*
D20*
%TO.P,P4,2,Pin_2*%
%TO.N,~{IEI}*%
X53740000Y-219000000D03*
%TO.P,P4,3,Pin_3*%
%TO.N,~{BAO}*%
X56280000Y-219000000D03*
%TO.P,P4,4,Pin_4*%
%TO.N,~{BAI}*%
X58820000Y-219000000D03*
%TD*%
D18*
%TO.P,R19,1*%
%TO.N,Net-(C55-Pad1)*%
X259250000Y-129750000D03*
D21*
%TO.P,R19,2*%
%TO.N,GND*%
X259250000Y-137370000D03*
%TD*%
D19*
%TO.P,J2,1,Pin_1*%
%TO.N,L-CH*%
X209400000Y-92775000D03*
D20*
%TO.P,J2,2,Pin_2*%
%TO.N,/VDP/AUDIO*%
X209400000Y-95315000D03*
%TO.P,J2,3,Pin_3*%
%TO.N,GND*%
X209400000Y-97855000D03*
%TD*%
D18*
%TO.P,R6,1*%
%TO.N,Net-(D2-Pad2)*%
X62190000Y-89620000D03*
D21*
%TO.P,R6,2*%
%TO.N,VCC*%
X69810000Y-89620000D03*
%TD*%
D18*
%TO.P,C6,1*%
%TO.N,VCC*%
X167500000Y-207750000D03*
%TO.P,C6,2*%
%TO.N,GND*%
X167500000Y-212750000D03*
%TD*%
D17*
%TO.P,U14,1,A->B*%
%TO.N,~{RD}*%
X205575000Y-212800000D03*
D21*
%TO.P,U14,2,A0*%
%TO.N,D0*%
X208115000Y-212800000D03*
%TO.P,U14,3,A1*%
%TO.N,D1*%
X210655000Y-212800000D03*
%TO.P,U14,4,A2*%
%TO.N,D2*%
X213195000Y-212800000D03*
%TO.P,U14,5,A3*%
%TO.N,D3*%
X215735000Y-212800000D03*
%TO.P,U14,6,A4*%
%TO.N,D4*%
X218275000Y-212800000D03*
%TO.P,U14,7,A5*%
%TO.N,D5*%
X220815000Y-212800000D03*
%TO.P,U14,8,A6*%
%TO.N,D6*%
X223355000Y-212800000D03*
%TO.P,U14,9,A7*%
%TO.N,D7*%
X225895000Y-212800000D03*
%TO.P,U14,10,GND*%
%TO.N,GND*%
X228435000Y-212800000D03*
%TO.P,U14,11,B7*%
%TO.N,bD7*%
X228435000Y-205180000D03*
%TO.P,U14,12,B6*%
%TO.N,bD6*%
X225895000Y-205180000D03*
%TO.P,U14,13,B5*%
%TO.N,bD5*%
X223355000Y-205180000D03*
%TO.P,U14,14,B4*%
%TO.N,bD4*%
X220815000Y-205180000D03*
%TO.P,U14,15,B3*%
%TO.N,bD3*%
X218275000Y-205180000D03*
%TO.P,U14,16,B2*%
%TO.N,bD2*%
X215735000Y-205180000D03*
%TO.P,U14,17,B1*%
%TO.N,bD1*%
X213195000Y-205180000D03*
%TO.P,U14,18,B0*%
%TO.N,bD0*%
X210655000Y-205180000D03*
%TO.P,U14,19,CE*%
%TO.N,~{CS_MEDIA}*%
X208115000Y-205180000D03*
%TO.P,U14,20,VCC*%
%TO.N,VCC*%
X205575000Y-205180000D03*
%TD*%
D18*
%TO.P,R7,1*%
%TO.N,GND*%
X252750000Y-169440000D03*
D21*
%TO.P,R7,2*%
%TO.N,Net-(Q1-Pad3)*%
X252750000Y-177060000D03*
%TD*%
D18*
%TO.P,C9,1*%
%TO.N,VCC*%
X200400000Y-195700000D03*
%TO.P,C9,2*%
%TO.N,GND*%
X200400000Y-200700000D03*
%TD*%
%TO.P,R25,1*%
%TO.N,Net-(D3-Pad2)*%
X62190000Y-95600000D03*
D21*
%TO.P,R25,2*%
%TO.N,VCC*%
X69810000Y-95600000D03*
%TD*%
D18*
%TO.P,R12,1*%
%TO.N,/VDP/~{DLCLK}*%
X169500000Y-167750000D03*
D21*
%TO.P,R12,2*%
%TO.N,VCC*%
X177120000Y-167750000D03*
%TD*%
D17*
%TO.P,C83,1*%
%TO.N,Net-(C81-Pad1)*%
X125689800Y-124950000D03*
D18*
%TO.P,C83,2*%
%TO.N,AUDIO_R*%
X128189800Y-124950000D03*
%TD*%
D17*
%TO.P,RN1,1,common*%
%TO.N,VCC*%
X175025000Y-201200000D03*
D21*
%TO.P,RN1,2,R1*%
%TO.N,Net-(RN1-Pad2)*%
X177565000Y-201200000D03*
%TO.P,RN1,3,R2*%
%TO.N,Net-(RN1-Pad3)*%
X180105000Y-201200000D03*
%TO.P,RN1,4,R3*%
%TO.N,Net-(RN1-Pad4)*%
X182645000Y-201200000D03*
%TO.P,RN1,5,R4*%
%TO.N,Net-(RN1-Pad5)*%
X185185000Y-201200000D03*
%TO.P,RN1,6,R5*%
%TO.N,Net-(RN1-Pad6)*%
X187725000Y-201200000D03*
%TO.P,RN1,7,R6*%
%TO.N,unconnected-(RN1-Pad7)*%
X190265000Y-201200000D03*
%TO.P,RN1,8,R7*%
%TO.N,unconnected-(RN1-Pad8)*%
X192805000Y-201200000D03*
%TO.P,RN1,9,R8*%
%TO.N,Net-(RN1-Pad9)*%
X195345000Y-201200000D03*
%TD*%
D18*
%TO.P,L3,1*%
%TO.N,VCC*%
X231540000Y-183000000D03*
D21*
%TO.P,L3,2*%
%TO.N,VCCRGB*%
X239160000Y-183000000D03*
%TD*%
D19*
%TO.P,P6,1,Pin_1*%
%TO.N,GND*%
X194125000Y-170525000D03*
D20*
%TO.P,P6,2,Pin_2*%
%TO.N,VCC*%
X194125000Y-167985000D03*
%TO.P,P6,3,Pin_3*%
%TO.N,/VDP/~{DHCLK}*%
X196665000Y-170525000D03*
%TO.P,P6,4,Pin_4*%
%TO.N,/VDP/~{DLCLK}*%
X196665000Y-167985000D03*
%TO.P,P6,5,Pin_5*%
%TO.N,/VDP/C0*%
X199205000Y-170525000D03*
%TO.P,P6,6,Pin_6*%
%TO.N,/VDP/C1*%
X199205000Y-167985000D03*
%TO.P,P6,7,Pin_7*%
%TO.N,/VDP/C2*%
X201745000Y-170525000D03*
%TO.P,P6,8,Pin_8*%
%TO.N,/VDP/C3*%
X201745000Y-167985000D03*
%TO.P,P6,9,Pin_9*%
%TO.N,/VDP/C4*%
X204285000Y-170525000D03*
%TO.P,P6,10,Pin_10*%
%TO.N,/VDP/C5*%
X204285000Y-167985000D03*
%TO.P,P6,11,Pin_11*%
%TO.N,/VDP/C6*%
X206825000Y-170525000D03*
%TO.P,P6,12,Pin_12*%
%TO.N,/VDP/C7*%
X206825000Y-167985000D03*
%TO.P,P6,13,Pin_13*%
%TO.N,unconnected-(P6-Pad13)*%
X209365000Y-170525000D03*
%TO.P,P6,14,Pin_14*%
%TO.N,/VDP/CBDR*%
X209365000Y-167985000D03*
%TO.P,P6,15,Pin_15*%
%TO.N,VCC*%
X211905000Y-170525000D03*
%TO.P,P6,16,Pin_16*%
%TO.N,GND*%
X211905000Y-167985000D03*
%TD*%
D30*
%TO.P,P11,1,Pin_1*%
%TO.N,/PSG/JOYBU*%
X154670000Y-83742500D03*
D12*
%TO.P,P11,2,Pin_2*%
%TO.N,/PSG/JOYBD*%
X154670000Y-81202500D03*
%TO.P,P11,3,Pin_3*%
%TO.N,/PSG/JOYBL*%
X157210000Y-83742500D03*
%TO.P,P11,4,Pin_4*%
%TO.N,/PSG/JOYBR*%
X157210000Y-81202500D03*
%TO.P,P11,5,Pin_5*%
%TO.N,Net-(J11-Pad2)*%
X159750000Y-83742500D03*
%TO.P,P11,6,Pin_6*%
%TO.N,/PSG/JOYBF*%
X159750000Y-81202500D03*
%TO.P,P11,7,Pin_7*%
%TO.N,Net-(J11-Pad4)*%
X162290000Y-83742500D03*
%TO.P,P11,8,Pin_8*%
%TO.N,GND*%
X162290000Y-81202500D03*
%TO.P,P11,9,Pin_9*%
%TO.N,Net-(J8-Pad2)*%
X164830000Y-83742500D03*
%TO.P,P11,10,Pin_10*%
%TO.N,Net-(J11-Pad6)*%
X164830000Y-81202500D03*
%TD*%
D19*
%TO.P,JP5,1,A*%
%TO.N,VRY_CLK*%
X86425000Y-219000000D03*
D20*
%TO.P,JP5,2,B*%
%TO.N,CLK*%
X88965000Y-219000000D03*
%TD*%
D17*
%TO.P,U15,1,OEa*%
%TO.N,ZERO*%
X71500000Y-213000000D03*
D21*
%TO.P,U15,2,I0a*%
%TO.N,Net-(J9-Pad2)*%
X74040000Y-213000000D03*
%TO.P,U15,3,O3b*%
%TO.N,~{bRD}*%
X76580000Y-213000000D03*
%TO.P,U15,4,I1a*%
%TO.N,VRY*%
X79120000Y-213000000D03*
%TO.P,U15,5,O2b*%
%TO.N,~{bWR}*%
X81660000Y-213000000D03*
%TO.P,U15,6,I2a*%
%TO.N,unconnected-(U15-Pad6)*%
X84200000Y-213000000D03*
%TO.P,U15,7,O1b*%
%TO.N,~{bM1}*%
X86740000Y-213000000D03*
%TO.P,U15,8,I3a*%
%TO.N,unconnected-(U15-Pad8)*%
X89280000Y-213000000D03*
%TO.P,U15,9,O0b*%
%TO.N,~{bIORQ}*%
X91820000Y-213000000D03*
%TO.P,U15,10,GND*%
%TO.N,GND*%
X94360000Y-213000000D03*
%TO.P,U15,11,I0b*%
%TO.N,~{IORQ}*%
X94360000Y-205380000D03*
%TO.P,U15,12,O3a*%
%TO.N,unconnected-(U15-Pad12)*%
X91820000Y-205380000D03*
%TO.P,U15,13,I1b*%
%TO.N,~{M1}*%
X89280000Y-205380000D03*
%TO.P,U15,14,O2a*%
%TO.N,unconnected-(U15-Pad14)*%
X86740000Y-205380000D03*
%TO.P,U15,15,I2b*%
%TO.N,~{WR}*%
X84200000Y-205380000D03*
%TO.P,U15,16,O1a*%
%TO.N,VRY_CLK*%
X81660000Y-205380000D03*
%TO.P,U15,17,I3b*%
%TO.N,~{RD}*%
X79120000Y-205380000D03*
%TO.P,U15,18,O0a*%
%TO.N,~{bRESET}*%
X76580000Y-205380000D03*
%TO.P,U15,19,OEb*%
%TO.N,ZERO*%
X74040000Y-205380000D03*
%TO.P,U15,20,VCC*%
%TO.N,VCC*%
X71500000Y-205380000D03*
%TD*%
D18*
%TO.P,C14,1*%
%TO.N,VCC*%
X121200000Y-195900000D03*
%TO.P,C14,2*%
%TO.N,GND*%
X121200000Y-200900000D03*
%TD*%
D17*
%TO.P,C26,1*%
%TO.N,VCC*%
X196200000Y-218600000D03*
D18*
%TO.P,C26,2*%
%TO.N,GND*%
X198700000Y-218600000D03*
%TD*%
D19*
%TO.P,P5,1,Pin_1*%
%TO.N,/VDP/ROUT*%
X179875000Y-94525000D03*
D20*
%TO.P,P5,2,Pin_2*%
%TO.N,/VDP/GOUT*%
X179875000Y-91985000D03*
%TO.P,P5,3,Pin_3*%
%TO.N,/VDP/BOUT*%
X182415000Y-94525000D03*
%TO.P,P5,4,Pin_4*%
%TO.N,unconnected-(P5-Pad4)*%
X182415000Y-91985000D03*
%TO.P,P5,5,Pin_5*%
%TO.N,GND*%
X184955000Y-94525000D03*
%TO.P,P5,6,Pin_6*%
X184955000Y-91985000D03*
%TO.P,P5,7,Pin_7*%
X187495000Y-94525000D03*
%TO.P,P5,8,Pin_8*%
X187495000Y-91985000D03*
%TO.P,P5,9,Pin_9*%
%TO.N,VCC*%
X190035000Y-94525000D03*
%TO.P,P5,10,Pin_10*%
%TO.N,GND*%
X190035000Y-91985000D03*
%TO.P,P5,11,Pin_11*%
%TO.N,unconnected-(P5-Pad11)*%
X192575000Y-94525000D03*
%TO.P,P5,12,Pin_12*%
%TO.N,unconnected-(P5-Pad12)*%
X192575000Y-91985000D03*
%TO.P,P5,13,Pin_13*%
%TO.N,Net-(J4-Pad2)*%
X195115000Y-94525000D03*
%TO.P,P5,14,Pin_14*%
%TO.N,/VDP/VGA-VSYNC*%
X195115000Y-91985000D03*
%TO.P,P5,15,Pin_15*%
%TO.N,unconnected-(P5-Pad15)*%
X197655000Y-94525000D03*
%TO.P,P5,16,Pin_16*%
%TO.N,/VDP/VGA-CSYNC*%
X197655000Y-91985000D03*
%TD*%
D18*
%TO.P,C32,1*%
%TO.N,AUDIO_L*%
X107300000Y-101700000D03*
%TO.P,C32,2*%
%TO.N,GND*%
X112300000Y-101700000D03*
%TD*%
D19*
%TO.P,J11,1,Pin_1*%
%TO.N,/PSG/JOYBH*%
X159175000Y-90565000D03*
D20*
%TO.P,J11,2,Pin_2*%
%TO.N,Net-(J11-Pad2)*%
X159175000Y-88025000D03*
%TO.P,J11,3,Pin_3*%
%TO.N,/PSG/JOYBG*%
X161715000Y-90565000D03*
%TO.P,J11,4,Pin_4*%
%TO.N,Net-(J11-Pad4)*%
X161715000Y-88025000D03*
%TO.P,J11,5,Pin_5*%
%TO.N,VCC*%
X164255000Y-90565000D03*
%TO.P,J11,6,Pin_6*%
%TO.N,Net-(J11-Pad6)*%
X164255000Y-88025000D03*
%TD*%
D18*
%TO.P,C7,1*%
%TO.N,VCC*%
X218750000Y-154300000D03*
%TO.P,C7,2*%
%TO.N,GND*%
X218750000Y-159300000D03*
%TD*%
%TO.P,C40,1*%
%TO.N,Net-(C40-Pad1)*%
X135374700Y-107965000D03*
%TO.P,C40,2*%
%TO.N,GND*%
X140374700Y-107965000D03*
%TD*%
%TO.P,R20,1*%
%TO.N,/VDP/AV*%
X223940000Y-93500000D03*
D21*
%TO.P,R20,2*%
%TO.N,VCC*%
X231560000Y-93500000D03*
%TD*%
D17*
%TO.P,U2,1,GAIN*%
%TO.N,unconnected-(U2-Pad1)*%
X122942000Y-108500000D03*
D21*
%TO.P,U2,2,-*%
%TO.N,GND*%
X125482000Y-108500000D03*
%TO.P,U2,3,+*%
%TO.N,AUDIO_L*%
X128022000Y-108500000D03*
%TO.P,U2,4,GND*%
%TO.N,GND*%
X130562000Y-108500000D03*
%TO.P,U2,5*%
%TO.N,Net-(C46-Pad1)*%
X130562000Y-100880000D03*
%TO.P,U2,6,V+*%
%TO.N,/Amplifier/AMPPWR*%
X128022000Y-100880000D03*
%TO.P,U2,7,BYPASS*%
%TO.N,Net-(C35-Pad1)*%
X125482000Y-100880000D03*
%TO.P,U2,8,GAIN*%
%TO.N,unconnected-(U2-Pad8)*%
X122942000Y-100880000D03*
%TD*%
D18*
%TO.P,R11,1*%
%TO.N,Net-(R11-Pad1)*%
X240750000Y-154690000D03*
D21*
%TO.P,R11,2*%
%TO.N,GND*%
X240750000Y-162310000D03*
%TD*%
D18*
%TO.P,C31,1*%
%TO.N,AUDIO_R*%
X135374700Y-101715000D03*
%TO.P,C31,2*%
%TO.N,GND*%
X140374700Y-101715000D03*
%TD*%
%TO.P,C33,1*%
%TO.N,GND*%
X116992000Y-108200000D03*
%TO.P,C33,2*%
%TO.N,/Amplifier/AMPPWR*%
X116992000Y-103200000D03*
%TD*%
%TO.P,C84,1*%
%TO.N,Net-(C84-Pad1)*%
X151900000Y-184400000D03*
%TO.P,C84,2*%
%TO.N,Net-(C84-Pad2)*%
X156900000Y-184400000D03*
%TD*%
D17*
%TO.P,C22,1*%
%TO.N,VCC*%
X92769300Y-189000000D03*
D18*
%TO.P,C22,2*%
%TO.N,GND*%
X95269300Y-189000000D03*
%TD*%
D25*
%TO.P,D2,1,K*%
%TO.N,Net-(D2-Pad1)*%
X63250000Y-81100000D03*
D26*
%TO.P,D2,2,A*%
%TO.N,Net-(D2-Pad2)*%
X60710000Y-81100000D03*
%TD*%
D18*
%TO.P,C41,1*%
%TO.N,/VDP/RED*%
X223250000Y-162000000D03*
%TO.P,C41,2*%
%TO.N,GND*%
X223250000Y-167000000D03*
%TD*%
D17*
%TO.P,U3,1,GAIN*%
%TO.N,unconnected-(U3-Pad1)*%
X151100000Y-108515000D03*
D21*
%TO.P,U3,2,-*%
%TO.N,GND*%
X153640000Y-108515000D03*
%TO.P,U3,3,+*%
%TO.N,AUDIO_R*%
X156180000Y-108515000D03*
%TO.P,U3,4,GND*%
%TO.N,GND*%
X158720000Y-108515000D03*
%TO.P,U3,5*%
%TO.N,Net-(C42-Pad1)*%
X158720000Y-100895000D03*
%TO.P,U3,6,V+*%
%TO.N,/Amplifier/AMPPWR*%
X156180000Y-100895000D03*
%TO.P,U3,7,BYPASS*%
%TO.N,Net-(C36-Pad1)*%
X153640000Y-100895000D03*
%TO.P,U3,8,GAIN*%
%TO.N,unconnected-(U3-Pad8)*%
X151100000Y-100895000D03*
%TD*%
D18*
%TO.P,R37,1*%
%TO.N,Net-(C40-Pad1)*%
X137590000Y-112800000D03*
D21*
%TO.P,R37,2*%
%TO.N,Net-(C42-Pad1)*%
X145210000Y-112800000D03*
%TD*%
D17*
%TO.P,C82,1*%
%TO.N,Net-(C80-Pad2)*%
X93599800Y-124450000D03*
D18*
%TO.P,C82,2*%
%TO.N,AUDIO_L*%
X96099800Y-124450000D03*
%TD*%
D17*
%TO.P,C35,1*%
%TO.N,Net-(C35-Pad1)*%
X115786900Y-98950000D03*
D18*
%TO.P,C35,2*%
%TO.N,GND*%
X118286900Y-98950000D03*
%TD*%
%TO.P,C81,1*%
%TO.N,Net-(C81-Pad1)*%
X129600000Y-132450000D03*
%TO.P,C81,2*%
%TO.N,GND*%
X124600000Y-132450000D03*
%TD*%
%TO.P,C38,1*%
%TO.N,Net-(C38-Pad1)*%
X107300000Y-107950000D03*
%TO.P,C38,2*%
%TO.N,GND*%
X112300000Y-107950000D03*
%TD*%
%TO.P,R18,1*%
%TO.N,Net-(C61-Pad1)*%
X253250000Y-129610000D03*
D21*
%TO.P,R18,2*%
%TO.N,Net-(R18-Pad2)*%
X253250000Y-137230000D03*
%TD*%
D18*
%TO.P,R27,1*%
%TO.N,GND*%
X234750000Y-177060000D03*
D21*
%TO.P,R27,2*%
%TO.N,/VDP/BLUE*%
X234750000Y-169440000D03*
%TD*%
D19*
%TO.P,J1,1,Pin_1*%
%TO.N,GND*%
X191575000Y-183175000D03*
D20*
%TO.P,J1,2,Pin_2*%
%TO.N,/VDP/VCCO*%
X191575000Y-180635000D03*
%TO.P,J1,3,Pin_3*%
%TO.N,GND*%
X194115000Y-183175000D03*
%TO.P,J1,4,Pin_4*%
%TO.N,VRY*%
X194115000Y-180635000D03*
%TO.P,J1,5,Pin_5*%
%TO.N,bD7*%
X196655000Y-183175000D03*
%TO.P,J1,6,Pin_6*%
%TO.N,~{LPS-WAIT}*%
X196655000Y-180635000D03*
%TO.P,J1,7,Pin_7*%
%TO.N,bD6*%
X199195000Y-183175000D03*
%TO.P,J1,8,Pin_8*%
%TO.N,unconnected-(J1-Pad8)*%
X199195000Y-180635000D03*
%TO.P,J1,9,Pin_9*%
%TO.N,bD5*%
X201735000Y-183175000D03*
%TO.P,J1,10,Pin_10*%
%TO.N,bA1*%
X201735000Y-180635000D03*
%TO.P,J1,11,Pin_11*%
%TO.N,bD4*%
X204275000Y-183175000D03*
%TO.P,J1,12,Pin_12*%
%TO.N,~{RESVDP}*%
X204275000Y-180635000D03*
%TO.P,J1,13,Pin_13*%
%TO.N,bD3*%
X206815000Y-183175000D03*
%TO.P,J1,14,Pin_14*%
%TO.N,bA0*%
X206815000Y-180635000D03*
%TO.P,J1,15,Pin_15*%
%TO.N,bD2*%
X209355000Y-183175000D03*
%TO.P,J1,16,Pin_16*%
%TO.N,~{VDP_WR}*%
X209355000Y-180635000D03*
%TO.P,J1,17,Pin_17*%
%TO.N,bD1*%
X211895000Y-183175000D03*
%TO.P,J1,18,Pin_18*%
%TO.N,~{VDP_RD}*%
X211895000Y-180635000D03*
%TO.P,J1,19,Pin_19*%
%TO.N,bD0*%
X214435000Y-183175000D03*
%TO.P,J1,20,Pin_20*%
%TO.N,~{VINT}*%
X214435000Y-180635000D03*
%TD*%
D31*
%TO.P,C52,1*%
%TO.N,Net-(C52-Pad1)*%
X155360100Y-155000000D03*
%TO.P,C52,2*%
%TO.N,GND*%
X149360097Y-155000000D03*
%TD*%
D18*
%TO.P,R10,1*%
%TO.N,Net-(D4-Pad2)*%
X52190000Y-89620000D03*
D21*
%TO.P,R10,2*%
%TO.N,VCC*%
X59810000Y-89620000D03*
%TD*%
D18*
%TO.P,R42,1*%
%TO.N,/PSG/POTA2*%
X155590000Y-189000000D03*
D21*
%TO.P,R42,2*%
%TO.N,Net-(C85-Pad2)*%
X163210000Y-189000000D03*
%TD*%
D25*
%TO.P,D4,1,K*%
%TO.N,Net-(D4-Pad1)*%
X56250000Y-81100000D03*
D26*
%TO.P,D4,2,A*%
%TO.N,Net-(D4-Pad2)*%
X53710000Y-81100000D03*
%TD*%
D32*
%TO.P,U6,1,GND*%
%TO.N,GND*%
X159753060Y-163267400D03*
D33*
%TO.P,U6,2,~{DHCLK}*%
%TO.N,/VDP/~{DHCLK}*%
X161432000Y-163267400D03*
%TO.P,U6,3,~{DLCLK}*%
%TO.N,/VDP/~{DLCLK}*%
X163311600Y-163267400D03*
%TO.P,U6,4,~{VDS}/~{VRESET}*%
%TO.N,Net-(JP7-Pad1)*%
X165092140Y-163267400D03*
%TO.P,U6,5,~{HSYNC}*%
%TO.N,/VDP/~{HSYNC}*%
X166872680Y-163267400D03*
%TO.P,U6,6,~{CSYNC}*%
%TO.N,/VDP/~{CSYNC}*%
X168653220Y-163267400D03*
%TO.P,U6,7,BLEO*%
%TO.N,/VDP/BLANK*%
X170431220Y-163267400D03*
%TO.P,U6,8,CPUCLK/~{VDS}*%
%TO.N,VRY*%
X172211760Y-163267400D03*
%TO.P,U6,9,~{RESET}*%
%TO.N,~{RESVDP}*%
X173992300Y-163267400D03*
%TO.P,U6,10,~{YS}*%
%TO.N,/VDP/VBY*%
X175772840Y-163267400D03*
%TO.P,U6,11,CBDR*%
%TO.N,/VDP/CBDR*%
X177550840Y-163267400D03*
%TO.P,U6,12,C7*%
%TO.N,/VDP/C7*%
X179432980Y-163267400D03*
%TO.P,U6,13,C6*%
%TO.N,/VDP/C6*%
X181210980Y-163267400D03*
%TO.P,U6,14,C5*%
%TO.N,/VDP/C5*%
X182991520Y-163267400D03*
%TO.P,U6,15,C4*%
%TO.N,/VDP/C4*%
X184769520Y-163267400D03*
%TO.P,U6,16,C3*%
%TO.N,/VDP/C3*%
X186550060Y-163267400D03*
%TO.P,U6,17,C2*%
%TO.N,/VDP/C2*%
X188330600Y-163267400D03*
%TO.P,U6,18,C1*%
%TO.N,/VDP/C1*%
X190108600Y-163267400D03*
%TO.P,U6,19,C0*%
%TO.N,/VDP/C0*%
X191889140Y-163267400D03*
%TO.P,U6,20,GND*%
%TO.N,GND*%
X193570620Y-163267400D03*
%TO.P,U6,21,COMPVID/DACVCC*%
%TO.N,Net-(JP3-Pad1)*%
X195348620Y-163267400D03*
%TO.P,U6,22,G*%
%TO.N,/VDP/GREEN*%
X197129160Y-163287720D03*
%TO.P,U6,23,R*%
%TO.N,/VDP/RED*%
X198810640Y-163287720D03*
%TO.P,U6,24,B*%
%TO.N,/VDP/BLUE*%
X200588640Y-163287720D03*
%TO.P,U6,25,~{INT}*%
%TO.N,~{VINT}*%
X202379340Y-163287720D03*
%TO.P,U6,26,~{LPS}/~{WAIT}*%
%TO.N,~{LPS-WAIT}*%
X204159880Y-163287720D03*
%TO.P,U6,27,~{LPD}/~{HRESET}*%
%TO.N,ONE*%
X205940420Y-163287720D03*
%TO.P,U6,28,MODE1*%
%TO.N,bA1*%
X207718420Y-163287720D03*
%TO.P,U6,29,MODE0*%
%TO.N,bA0*%
X209498960Y-163287720D03*
%TO.P,U6,30,~{CSW}*%
%TO.N,~{VDP_WR}*%
X211279500Y-163287720D03*
%TO.P,U6,31,~{CSR}*%
%TO.N,~{VDP_RD}*%
X213060040Y-163287720D03*
%TO.P,U6,32,CD7*%
%TO.N,bD7*%
X214840580Y-163287720D03*
%TO.P,U6,33,VBB*%
%TO.N,Net-(C62-Pad1)*%
X214670400Y-144209780D03*
%TO.P,U6,34,CD6*%
%TO.N,bD6*%
X212889860Y-144209780D03*
%TO.P,U6,35,CD5*%
%TO.N,bD5*%
X211109320Y-144209780D03*
%TO.P,U6,36,CD4*%
%TO.N,bD4*%
X209328780Y-144209780D03*
%TO.P,U6,37,CD3*%
%TO.N,bD3*%
X207548240Y-144209780D03*
%TO.P,U6,38,CD2*%
%TO.N,bD2*%
X205770240Y-144209780D03*
%TO.P,U6,39,CD1*%
%TO.N,bD1*%
X203989700Y-144209780D03*
%TO.P,U6,40,CD0*%
%TO.N,bD0*%
X202209160Y-144209780D03*
%TO.P,U6,41,RD0*%
%TO.N,/VDP/VD0*%
X200530220Y-144209780D03*
%TO.P,U6,42,RD1*%
%TO.N,/VDP/VD1*%
X198749680Y-144209780D03*
%TO.P,U6,43,RD2*%
%TO.N,/VDP/VD2*%
X196918340Y-144209780D03*
%TO.P,U6,44,RD3*%
%TO.N,/VDP/VD3*%
X195140340Y-144209780D03*
%TO.P,U6,45,RD4*%
%TO.N,/VDP/VD4*%
X193359800Y-144209780D03*
%TO.P,U6,46,RD5*%
%TO.N,/VDP/VD5*%
X191579260Y-144209780D03*
%TO.P,U6,47,RD6*%
%TO.N,/VDP/VD6*%
X189798720Y-144209780D03*
%TO.P,U6,48,RD7*%
%TO.N,/VDP/VD7*%
X188018180Y-144209780D03*
%TO.P,U6,49,AD0*%
%TO.N,/VDP/AD0*%
X186240180Y-144209780D03*
%TO.P,U6,50,AD1*%
%TO.N,/VDP/AD1*%
X184459640Y-144209780D03*
%TO.P,U6,51,AD2*%
%TO.N,/VDP/AD2*%
X182780700Y-144209780D03*
%TO.P,U6,52,AD3*%
%TO.N,/VDP/AD3*%
X181002700Y-144209780D03*
%TO.P,U6,53,AD4*%
%TO.N,/VDP/AD4*%
X179222160Y-144199620D03*
%TO.P,U6,54,AD5*%
%TO.N,/VDP/AD5*%
X177441620Y-144199620D03*
%TO.P,U6,55,AD6*%
%TO.N,/VDP/AD6*%
X175661080Y-144199620D03*
%TO.P,U6,56,AD7*%
%TO.N,/VDP/AD7*%
X173883080Y-144199620D03*
%TO.P,U6,57,R/~{W}*%
%TO.N,/VDP/~{VRW}*%
X172102540Y-144199620D03*
%TO.P,U6,58,VCC*%
%TO.N,VCCVDP*%
X170322000Y-144199620D03*
%TO.P,U6,59,~{CASX}*%
%TO.N,unconnected-(U6-Pad59)*%
X168541460Y-144199620D03*
%TO.P,U6,60,~{CAS1}*%
%TO.N,/VDP/~{CAS1}*%
X166760920Y-144199620D03*
%TO.P,U6,61,~{CAS0}*%
%TO.N,/VDP/~{CAS0}*%
X165081980Y-144199620D03*
%TO.P,U6,62,~{RAS}*%
%TO.N,/VDP/~{RAS}*%
X163301440Y-144199620D03*
%TO.P,U6,63,XTAL1*%
%TO.N,Net-(C52-Pad1)*%
X161520900Y-144199620D03*
%TO.P,U6,64,XTAL2*%
%TO.N,Net-(C53-Pad1)*%
X159742900Y-144199620D03*
%TD*%
D19*
%TO.P,J10,1,Pin_1*%
%TO.N,VCC*%
X125830000Y-89295000D03*
D20*
%TO.P,J10,2,Pin_2*%
%TO.N,Net-(J10-Pad2)*%
X128370000Y-89295000D03*
%TO.P,J10,3,Pin_3*%
%TO.N,/PSG/POTA1*%
X130910000Y-89295000D03*
%TD*%
D18*
%TO.P,C44,1*%
%TO.N,/VDP/GREEN*%
X229000000Y-159670000D03*
%TO.P,C44,2*%
%TO.N,Net-(C44-Pad2)*%
X229000000Y-154670000D03*
%TD*%
D19*
%TO.P,J7,1,Pin_1*%
%TO.N,Net-(J7-Pad1)*%
X42000000Y-213000000D03*
D20*
%TO.P,J7,2,Pin_2*%
%TO.N,~{EIRQ0}*%
X42000000Y-210460000D03*
%TO.P,J7,3,Pin_3*%
%TO.N,Net-(J7-Pad1)*%
X44540000Y-213000000D03*
%TO.P,J7,4,Pin_4*%
%TO.N,~{EIRQ1}*%
X44540000Y-210460000D03*
%TO.P,J7,5,Pin_5*%
%TO.N,Net-(J7-Pad1)*%
X47080000Y-213000000D03*
%TO.P,J7,6,Pin_6*%
%TO.N,~{EIRQ2}*%
X47080000Y-210460000D03*
%TO.P,J7,7,Pin_7*%
%TO.N,Net-(J7-Pad1)*%
X49620000Y-213000000D03*
%TO.P,J7,8,Pin_8*%
%TO.N,~{EIRQ3}*%
X49620000Y-210460000D03*
%TO.P,J7,9,Pin_9*%
%TO.N,Net-(J7-Pad1)*%
X52160000Y-213000000D03*
%TO.P,J7,10,Pin_10*%
%TO.N,~{EIRQ4}*%
X52160000Y-210460000D03*
%TO.P,J7,11,Pin_11*%
%TO.N,Net-(J7-Pad1)*%
X54700000Y-213000000D03*
%TO.P,J7,12,Pin_12*%
%TO.N,~{EIRQ5}*%
X54700000Y-210460000D03*
%TO.P,J7,13,Pin_13*%
%TO.N,Net-(J7-Pad1)*%
X57240000Y-213000000D03*
%TO.P,J7,14,Pin_14*%
%TO.N,~{EIRQ6}*%
X57240000Y-210460000D03*
%TO.P,J7,15,Pin_15*%
%TO.N,Net-(J7-Pad1)*%
X59780000Y-213000000D03*
%TO.P,J7,16,Pin_16*%
%TO.N,~{EIRQ7}*%
X59780000Y-210460000D03*
%TD*%
D18*
%TO.P,R14,1*%
%TO.N,Net-(C57-Pad1)*%
X229250000Y-129610000D03*
D21*
%TO.P,R14,2*%
%TO.N,Net-(R14-Pad2)*%
X229250000Y-137230000D03*
%TD*%
D18*
%TO.P,C18,1*%
%TO.N,VCC*%
X100250000Y-208000000D03*
%TO.P,C18,2*%
%TO.N,GND*%
X100250000Y-213000000D03*
%TD*%
D17*
%TO.P,C20,1*%
%TO.N,VCC*%
X136594900Y-140600000D03*
D18*
%TO.P,C20,2*%
%TO.N,GND*%
X139094900Y-140600000D03*
%TD*%
D19*
%TO.P,JP12,1,A*%
%TO.N,Net-(JP1-Pad3)*%
X256200000Y-181800000D03*
D20*
%TO.P,JP12,2,B*%
%TO.N,Net-(JP12-Pad2)*%
X256200000Y-184340000D03*
%TD*%
D17*
%TO.P,C25,1*%
%TO.N,VCC*%
X115800000Y-218000000D03*
D18*
%TO.P,C25,2*%
%TO.N,GND*%
X118300000Y-218000000D03*
%TD*%
D19*
%TO.P,JP3,1,A*%
%TO.N,Net-(JP3-Pad1)*%
X186725000Y-168000000D03*
D20*
%TO.P,JP3,2,B*%
%TO.N,VCC*%
X189265000Y-168000000D03*
%TD*%
D22*
%TO.P,LS2,1,1*%
%TO.N,Net-(JP10-Pad2)*%
X240260000Y-86750000D03*
D23*
%TO.P,LS2,2,2*%
%TO.N,GND*%
X255260000Y-86750000D03*
%TD*%
D17*
%TO.P,U22,1,CP1..3*%
%TO.N,/PSG/CLK_AY3*%
X73840000Y-200800000D03*
D21*
%TO.P,U22,2,R0(1)*%
%TO.N,ZERO*%
X76380000Y-200800000D03*
%TO.P,U22,3,R0(2)*%
X78920000Y-200800000D03*
%TO.P,U22,4*%
%TO.N,N/C*%
X81460000Y-200800000D03*
%TO.P,U22,5,VCC*%
%TO.N,VCC*%
X84000000Y-200800000D03*
%TO.P,U22,6*%
%TO.N,N/C*%
X86540000Y-200800000D03*
%TO.P,U22,7*%
X89080000Y-200800000D03*
%TO.P,U22,8,Q2*%
%TO.N,Net-(P8-Pad10)*%
X89080000Y-193180000D03*
%TO.P,U22,9,Q1*%
%TO.N,Net-(P8-Pad5)*%
X86540000Y-193180000D03*
%TO.P,U22,10,GND*%
%TO.N,GND*%
X84000000Y-193180000D03*
%TO.P,U22,11,Q3*%
%TO.N,Net-(P8-Pad9)*%
X81460000Y-193180000D03*
%TO.P,U22,12,Q0*%
%TO.N,unconnected-(U22-Pad12)*%
X78920000Y-193180000D03*
%TO.P,U22,13*%
%TO.N,N/C*%
X76380000Y-193180000D03*
%TO.P,U22,14,CP0*%
%TO.N,ZERO*%
X73840000Y-193180000D03*
%TD*%
D17*
%TO.P,C54,1*%
%TO.N,Net-(C54-Pad1)*%
X257044900Y-143170000D03*
D18*
%TO.P,C54,2*%
%TO.N,GND*%
X259544900Y-143170000D03*
%TD*%
%TO.P,C65,1*%
%TO.N,VCC*%
X186500000Y-127750000D03*
%TO.P,C65,2*%
%TO.N,GND*%
X186500000Y-122750000D03*
%TD*%
D34*
%TO.P,RV1,1,1*%
%TO.N,GND*%
X101850000Y-129200000D03*
%TO.P,RV1,2,2*%
%TO.N,Net-(C80-Pad2)*%
X104390000Y-131740000D03*
%TO.P,RV1,3,3*%
X106930000Y-129200000D03*
%TD*%
D25*
%TO.P,D3,1,K*%
%TO.N,~{VINT}*%
X70250000Y-81100000D03*
D26*
%TO.P,D3,2,A*%
%TO.N,Net-(D3-Pad2)*%
X67710000Y-81100000D03*
%TD*%
D18*
%TO.P,C10,1*%
%TO.N,VCC*%
X201000000Y-207500000D03*
%TO.P,C10,2*%
%TO.N,GND*%
X201000000Y-212500000D03*
%TD*%
D24*
%TO.P,NT1,1,1*%
%TO.N,VCC*%
X156650000Y-169250000D03*
%TO.P,NT1,2,2*%
%TO.N,ONE*%
X157850000Y-169250000D03*
%TD*%
D17*
%TO.P,C42,1*%
%TO.N,Net-(C42-Pad1)*%
X153525300Y-114700000D03*
D18*
%TO.P,C42,2*%
%TO.N,/Amplifier/R-CH*%
X156025300Y-114700000D03*
%TD*%
D35*
%TO.P,J13,1*%
%TO.N,GND*%
X213954500Y-83016200D03*
%TO.P,J13,2*%
%TO.N,/VDP/AUDIO*%
X221454500Y-83016200D03*
%TO.P,J13,3*%
%TO.N,/VDP/AV*%
X228954500Y-83016200D03*
%TO.P,J13,4*%
%TO.N,/VDP/COMP*%
X216454500Y-85516200D03*
%TO.P,J13,5*%
%TO.N,/VDP/YS*%
X226454500Y-85556200D03*
%TO.P,J13,6*%
%TO.N,/VDP/ROUT*%
X221454500Y-88016200D03*
%TO.P,J13,7*%
%TO.N,/VDP/GOUT*%
X213954500Y-88016200D03*
%TO.P,J13,8*%
%TO.N,/VDP/BOUT*%
X228954500Y-88016200D03*
%TO.P,J13,~*%
%TO.N,N/C*%
X216454500Y-73016200D03*
X226454500Y-73016200D03*
%TD*%
D17*
%TO.P,U16,1,CSYNC*%
%TO.N,unconnected-(U16-Pad1)*%
X184950000Y-114300000D03*
D21*
%TO.P,U16,2,VIDEO*%
%TO.N,Net-(C1-Pad2)*%
X187490000Y-114300000D03*
%TO.P,U16,3,FRAME*%
%TO.N,/VDP/VSYNC*%
X190030000Y-114300000D03*
%TO.P,U16,4,GND*%
%TO.N,GND*%
X192570000Y-114300000D03*
%TO.P,U16,5,BURST*%
%TO.N,unconnected-(U16-Pad5)*%
X192570000Y-106680000D03*
%TO.P,U16,6,INT*%
%TO.N,Net-(C4-Pad1)*%
X190030000Y-106680000D03*
%TO.P,U16,7,O/E*%
%TO.N,unconnected-(U16-Pad7)*%
X187490000Y-106680000D03*
%TO.P,U16,8,VCC*%
%TO.N,VCC*%
X184950000Y-106680000D03*
%TD*%
D18*
%TO.P,C45,1*%
%TO.N,/VDP/BLUE*%
X234750000Y-159670000D03*
%TO.P,C45,2*%
%TO.N,Net-(C45-Pad2)*%
X234750000Y-154670000D03*
%TD*%
%TO.P,C1,1*%
%TO.N,/VDP/COMP*%
X197250000Y-108000000D03*
%TO.P,C1,2*%
%TO.N,Net-(C1-Pad2)*%
X197250000Y-113000000D03*
%TD*%
%TO.P,R32,1*%
%TO.N,Net-(P8-Pad2)*%
X98600000Y-143700000D03*
D21*
%TO.P,R32,2*%
%TO.N,GND*%
X98600000Y-136080000D03*
%TD*%
D18*
%TO.P,R26,1*%
%TO.N,GND*%
X229000000Y-177000000D03*
D21*
%TO.P,R26,2*%
%TO.N,/VDP/GREEN*%
X229000000Y-169380000D03*
%TD*%
D18*
%TO.P,R21,1*%
%TO.N,/VDP/YS*%
X223940000Y-99500000D03*
D21*
%TO.P,R21,2*%
%TO.N,VCC*%
X231560000Y-99500000D03*
%TD*%
D17*
%TO.P,P7,1,Pin_1*%
%TO.N,unconnected-(P7-Pad1)*%
X100000000Y-200800000D03*
D21*
%TO.P,P7,2,Pin_2*%
%TO.N,unconnected-(P7-Pad2)*%
X102540000Y-200800000D03*
%TO.P,P7,3,Pin_3*%
%TO.N,unconnected-(P7-Pad3)*%
X105080000Y-200800000D03*
%TO.P,P7,4,Pin_4*%
%TO.N,GND*%
X107620000Y-200800000D03*
%TO.P,P7,5,Pin_5*%
%TO.N,unconnected-(P7-Pad5)*%
X110160000Y-200800000D03*
%TO.P,P7,6,Pin_6*%
%TO.N,unconnected-(P7-Pad6)*%
X112700000Y-200800000D03*
%TO.P,P7,7,Pin_7*%
%TO.N,GND*%
X115240000Y-200800000D03*
%TO.P,P7,8,Pin_8*%
%TO.N,/PSG/CLK_AY3*%
X115240000Y-193180000D03*
%TO.P,P7,9,Pin_9*%
%TO.N,unconnected-(P7-Pad9)*%
X112700000Y-193180000D03*
%TO.P,P7,10,Pin_10*%
%TO.N,unconnected-(P7-Pad10)*%
X110160000Y-193180000D03*
%TO.P,P7,11,Pin_11*%
%TO.N,/PSG/CLK_AY3*%
X107620000Y-193180000D03*
%TO.P,P7,12,Pin_12*%
%TO.N,unconnected-(P7-Pad12)*%
X105080000Y-193180000D03*
%TO.P,P7,13,Pin_13*%
%TO.N,unconnected-(P7-Pad13)*%
X102540000Y-193180000D03*
%TO.P,P7,14,Pin_14*%
%TO.N,VCC*%
X100000000Y-193180000D03*
%TD*%
D34*
%TO.P,RV2,1,1*%
%TO.N,GND*%
X115060000Y-129200000D03*
%TO.P,RV2,2,2*%
%TO.N,Net-(C81-Pad1)*%
X117600000Y-131740000D03*
%TO.P,RV2,3,3*%
X120140000Y-129200000D03*
%TD*%
D17*
%TO.P,C46,1*%
%TO.N,Net-(C46-Pad1)*%
X125394700Y-114700000D03*
D18*
%TO.P,C46,2*%
%TO.N,L-CH*%
X127894700Y-114700000D03*
%TD*%
%TO.P,C63,1*%
%TO.N,VCC*%
X186250000Y-139750000D03*
%TO.P,C63,2*%
%TO.N,GND*%
X186250000Y-134750000D03*
%TD*%
%TO.P,C4,1*%
%TO.N,Net-(C4-Pad1)*%
X187500000Y-102250000D03*
%TO.P,C4,2*%
%TO.N,GND*%
X182500000Y-102250000D03*
%TD*%
D19*
%TO.P,JP1,1,A*%
%TO.N,Net-(JP1-Pad1)*%
X246750000Y-163975000D03*
D20*
%TO.P,JP1,2,C*%
%TO.N,/VDP/SYNCIN*%
X246750000Y-166515000D03*
%TO.P,JP1,3,B*%
%TO.N,Net-(JP1-Pad3)*%
X246750000Y-169055000D03*
%TD*%
D18*
%TO.P,C50,1*%
%TO.N,Net-(C50-Pad1)*%
X246750000Y-154670000D03*
%TO.P,C50,2*%
%TO.N,GND*%
X246750000Y-159670000D03*
%TD*%
D17*
%TO.P,C24,1*%
%TO.N,VCC*%
X86789800Y-145800000D03*
D18*
%TO.P,C24,2*%
%TO.N,GND*%
X89289800Y-145800000D03*
%TD*%
D19*
%TO.P,P10,1,Pin_1*%
%TO.N,/PSG/POTA2*%
X136555000Y-90570000D03*
D20*
%TO.P,P10,2,Pin_2*%
%TO.N,Net-(P10-Pad2)*%
X136555000Y-88030000D03*
%TO.P,P10,3,Pin_3*%
%TO.N,/PSG/POTA1*%
X139095000Y-90570000D03*
%TO.P,P10,4,Pin_4*%
%TO.N,Net-(P10-Pad4)*%
X139095000Y-88030000D03*
%TO.P,P10,5,Pin_5*%
%TO.N,VCC*%
X141635000Y-90570000D03*
%TO.P,P10,6,Pin_6*%
%TO.N,Net-(P10-Pad6)*%
X141635000Y-88030000D03*
%TD*%
D17*
%TO.P,C23,1*%
%TO.N,VCC*%
X154394900Y-130000000D03*
D18*
%TO.P,C23,2*%
%TO.N,GND*%
X156894900Y-130000000D03*
%TD*%
%TO.P,C16,1*%
%TO.N,VCC*%
X43110000Y-195800000D03*
%TO.P,C16,2*%
%TO.N,GND*%
X43110000Y-200800000D03*
%TD*%
%TO.P,R33,1*%
%TO.N,Net-(P8-Pad4)*%
X121600000Y-143700000D03*
D21*
%TO.P,R33,2*%
%TO.N,GND*%
X121600000Y-136080000D03*
%TD*%
D19*
%TO.P,JP7,1,A*%
%TO.N,Net-(JP7-Pad1)*%
X163725000Y-168000000D03*
D20*
%TO.P,JP7,2,B*%
%TO.N,ONE*%
X166265000Y-168000000D03*
%TD*%
D36*
%TO.P,J15,1,In*%
%TO.N,/VDP/COMP*%
X203500000Y-83469000D03*
D37*
%TO.P,J15,2,Ext*%
%TO.N,GND*%
X208580000Y-83469000D03*
X198420000Y-83469000D03*
X203500000Y-78389000D03*
%TD*%
D30*
%TO.P,P9,1,Pin_1*%
%TO.N,VCC*%
X107170000Y-83742500D03*
D12*
%TO.P,P9,2,Pin_2*%
X107170000Y-81202500D03*
%TO.P,P9,3,Pin_3*%
%TO.N,AUDIO_L*%
X109710000Y-83742500D03*
%TO.P,P9,4,Pin_4*%
%TO.N,/PSG/SPAREA*%
X109710000Y-81202500D03*
%TO.P,P9,5,Pin_5*%
%TO.N,GND*%
X112250000Y-83742500D03*
%TO.P,P9,6,Pin_6*%
%TO.N,/PSG/SPAREB*%
X112250000Y-81202500D03*
%TO.P,P9,7,Pin_7*%
%TO.N,GND*%
X114790000Y-83742500D03*
%TO.P,P9,8,Pin_8*%
%TO.N,ACR5*%
X114790000Y-81202500D03*
%TO.P,P9,9,Pin_9*%
%TO.N,AUDIO_R*%
X117330000Y-83742500D03*
%TO.P,P9,10,Pin_10*%
%TO.N,GND*%
X117330000Y-81202500D03*
%TD*%
D17*
%TO.P,U24,1*%
%TO.N,/VDP/~{HSYNC}*%
X125975000Y-200900000D03*
D21*
%TO.P,U24,2*%
%TO.N,Net-(P13-Pad1)*%
X128515000Y-200900000D03*
%TO.P,U24,3*%
%TO.N,/VDP/VSYNC*%
X131055000Y-200900000D03*
%TO.P,U24,4*%
%TO.N,/VDP/~{VSYNC}*%
X133595000Y-200900000D03*
%TO.P,U24,5*%
%TO.N,Net-(U24-Pad5)*%
X136135000Y-200900000D03*
%TO.P,U24,6*%
%TO.N,~{RESVDP}*%
X138675000Y-200900000D03*
%TO.P,U24,7,GND*%
%TO.N,GND*%
X141215000Y-200900000D03*
%TO.P,U24,8*%
%TO.N,Net-(U24-Pad8)*%
X141215000Y-193280000D03*
%TO.P,U24,9*%
%TO.N,~{LPS-WAIT}*%
X138675000Y-193280000D03*
%TO.P,U24,10*%
%TO.N,Net-(JP1-Pad1)*%
X136135000Y-193280000D03*
%TO.P,U24,11*%
%TO.N,Net-(Q1-Pad3)*%
X133595000Y-193280000D03*
%TO.P,U24,12*%
%TO.N,Net-(J3-Pad1)*%
X131055000Y-193280000D03*
%TO.P,U24,13*%
%TO.N,/VDP/SYNCIN*%
X128515000Y-193280000D03*
%TO.P,U24,14,VCC*%
%TO.N,VCC*%
X125975000Y-193280000D03*
%TD*%
D18*
%TO.P,R36,1*%
%TO.N,Net-(P8-Pad1)*%
X115850000Y-143700000D03*
D21*
%TO.P,R36,2*%
%TO.N,Net-(C80-Pad2)*%
X115850000Y-136080000D03*
%TD*%
D17*
%TO.P,C28,1*%
%TO.N,/Amplifier/AMPPWR*%
X114372000Y-89545000D03*
D18*
%TO.P,C28,2*%
%TO.N,GND*%
X116872000Y-89545000D03*
%TD*%
%TO.P,L2,1*%
%TO.N,VCC*%
X165740200Y-174600000D03*
D21*
%TO.P,L2,2*%
%TO.N,VCCVDP*%
X173360200Y-174600000D03*
%TD*%
D17*
%TO.P,U9,1,~{Mr}*%
%TO.N,~{bRESET}*%
X205125000Y-200800000D03*
D21*
%TO.P,U9,2,Q0*%
%TO.N,Net-(U24-Pad5)*%
X207665000Y-200800000D03*
%TO.P,U9,3,D0*%
%TO.N,bD0*%
X210205000Y-200800000D03*
%TO.P,U9,4,D1*%
%TO.N,bD1*%
X212745000Y-200800000D03*
%TO.P,U9,5,Q1*%
%TO.N,unconnected-(U9-Pad5)*%
X215285000Y-200800000D03*
%TO.P,U9,6,D2*%
%TO.N,bD2*%
X217825000Y-200800000D03*
%TO.P,U9,7,Q2*%
%TO.N,/ACR/STATUS-VDP*%
X220365000Y-200800000D03*
%TO.P,U9,8,GND*%
%TO.N,GND*%
X222905000Y-200800000D03*
%TO.P,U9,9,Cp*%
%TO.N,~{CS_ACR_WR}*%
X222905000Y-193180000D03*
%TO.P,U9,10,Q3*%
%TO.N,/ACR/STATUS-PSG*%
X220365000Y-193180000D03*
%TO.P,U9,11,D3*%
%TO.N,bD3*%
X217825000Y-193180000D03*
%TO.P,U9,12,Q4*%
%TO.N,~{RESAY3}*%
X215285000Y-193180000D03*
%TO.P,U9,13,D4*%
%TO.N,bD4*%
X212745000Y-193180000D03*
%TO.P,U9,14,D5*%
%TO.N,bD5*%
X210205000Y-193180000D03*
%TO.P,U9,15,Q5*%
%TO.N,ACR5*%
X207665000Y-193180000D03*
%TO.P,U9,16,VCC*%
%TO.N,VCC*%
X205125000Y-193180000D03*
%TD*%
D17*
%TO.P,C27,1*%
%TO.N,VCC*%
X43200000Y-218600000D03*
D18*
%TO.P,C27,2*%
%TO.N,GND*%
X45700000Y-218600000D03*
%TD*%
D17*
%TO.P,C58,1*%
%TO.N,Net-(C58-Pad1)*%
X237885200Y-123170000D03*
D18*
%TO.P,C58,2*%
%TO.N,/VDP/BOUT*%
X240385200Y-123170000D03*
%TD*%
%TO.P,R1,1*%
%TO.N,Net-(D1-Pad2)*%
X42190000Y-89620000D03*
D21*
%TO.P,R1,2*%
%TO.N,VCC*%
X49810000Y-89620000D03*
%TD*%
D18*
%TO.P,C39,1*%
%TO.N,/VDP/GREEN*%
X229000000Y-162000000D03*
%TO.P,C39,2*%
%TO.N,GND*%
X229000000Y-167000000D03*
%TD*%
D17*
%TO.P,U21,1,G*%
%TO.N,~{bIORQ}*%
X172075000Y-212800000D03*
D21*
%TO.P,U21,2,P0*%
%TO.N,~{bM1}*%
X174615000Y-212800000D03*
%TO.P,U21,3,R0*%
%TO.N,Net-(RN1-Pad9)*%
X177155000Y-212800000D03*
%TO.P,U21,4,P1*%
X179695000Y-212800000D03*
%TO.P,U21,5,R1*%
X182235000Y-212800000D03*
%TO.P,U21,6,P2*%
X184775000Y-212800000D03*
%TO.P,U21,7,R2*%
X187315000Y-212800000D03*
%TO.P,U21,8,P3*%
%TO.N,bA3*%
X189855000Y-212800000D03*
%TO.P,U21,9,R3*%
%TO.N,Net-(RN1-Pad6)*%
X192395000Y-212800000D03*
%TO.P,U21,10,GND*%
%TO.N,GND*%
X194935000Y-212800000D03*
%TO.P,U21,11,P4*%
%TO.N,bA4*%
X194935000Y-205180000D03*
%TO.P,U21,12,R4*%
%TO.N,Net-(RN1-Pad5)*%
X192395000Y-205180000D03*
%TO.P,U21,13,P5*%
%TO.N,bA5*%
X189855000Y-205180000D03*
%TO.P,U21,14,R5*%
%TO.N,Net-(RN1-Pad4)*%
X187315000Y-205180000D03*
%TO.P,U21,15,P6*%
%TO.N,bA6*%
X184775000Y-205180000D03*
%TO.P,U21,16,R6*%
%TO.N,Net-(RN1-Pad3)*%
X182235000Y-205180000D03*
%TO.P,U21,17,P7*%
%TO.N,bA7*%
X179695000Y-205180000D03*
%TO.P,U21,18,R7*%
%TO.N,Net-(RN1-Pad2)*%
X177155000Y-205180000D03*
%TO.P,U21,19,P=R*%
%TO.N,~{CS_MEDIA}*%
X174615000Y-205180000D03*
%TO.P,U21,20,VCC*%
%TO.N,VCC*%
X172075000Y-205180000D03*
%TD*%
D38*
%TO.P,D5,1,K*%
%TO.N,/VDP/VCCO*%
X194900000Y-188400000D03*
D39*
%TO.P,D5,2,A*%
%TO.N,VCC*%
X205060000Y-188400000D03*
%TD*%
D18*
%TO.P,C64,1*%
%TO.N,VCC*%
X217750000Y-127750000D03*
%TO.P,C64,2*%
%TO.N,GND*%
X217750000Y-122750000D03*
%TD*%
D30*
%TO.P,P12,1,Pin_1*%
%TO.N,/PSG/JOYAU*%
X131000000Y-83742500D03*
D12*
%TO.P,P12,2,Pin_2*%
%TO.N,/PSG/JOYAD*%
X131000000Y-81202500D03*
%TO.P,P12,3,Pin_3*%
%TO.N,/PSG/JOYAL*%
X133540000Y-83742500D03*
%TO.P,P12,4,Pin_4*%
%TO.N,/PSG/JOYAR*%
X133540000Y-81202500D03*
%TO.P,P12,5,Pin_5*%
%TO.N,Net-(P10-Pad2)*%
X136080000Y-83742500D03*
%TO.P,P12,6,Pin_6*%
%TO.N,/PSG/JOYAF*%
X136080000Y-81202500D03*
%TO.P,P12,7,Pin_7*%
%TO.N,Net-(P10-Pad4)*%
X138620000Y-83742500D03*
%TO.P,P12,8,Pin_8*%
%TO.N,GND*%
X138620000Y-81202500D03*
%TO.P,P12,9,Pin_9*%
%TO.N,Net-(J10-Pad2)*%
X141160000Y-83742500D03*
%TO.P,P12,10,Pin_10*%
%TO.N,Net-(P10-Pad6)*%
X141160000Y-81202500D03*
%TD*%
D18*
%TO.P,R13,1*%
%TO.N,Net-(C56-Pad1)*%
X223250000Y-129610000D03*
D21*
%TO.P,R13,2*%
%TO.N,Net-(R13-Pad2)*%
X223250000Y-137230000D03*
%TD*%
D18*
%TO.P,C62,1*%
%TO.N,Net-(C62-Pad1)*%
X218800000Y-144250000D03*
%TO.P,C62,2*%
%TO.N,GND*%
X218800000Y-149250000D03*
%TD*%
%TO.P,C3,1*%
%TO.N,VCC*%
X133750000Y-208000000D03*
%TO.P,C3,2*%
%TO.N,GND*%
X133750000Y-213000000D03*
%TD*%
%TO.P,R9,1*%
%TO.N,Net-(C49-Pad1)*%
X258750000Y-169440000D03*
D21*
%TO.P,R9,2*%
%TO.N,VRY_CLK*%
X258750000Y-177060000D03*
%TD*%
D18*
%TO.P,C55,1*%
%TO.N,Net-(C55-Pad1)*%
X256250000Y-150500000D03*
%TO.P,C55,2*%
%TO.N,GND*%
X261250000Y-150500000D03*
%TD*%
%TO.P,R35,1*%
%TO.N,Net-(C81-Pad1)*%
X92850000Y-143700000D03*
D21*
%TO.P,R35,2*%
%TO.N,Net-(P8-Pad2)*%
X92850000Y-136080000D03*
%TD*%
D18*
%TO.P,R34,1*%
%TO.N,Net-(C80-Pad2)*%
X127350000Y-143700000D03*
D21*
%TO.P,R34,2*%
%TO.N,Net-(P8-Pad4)*%
X127350000Y-136080000D03*
%TD*%
D19*
%TO.P,JP10,1,A*%
%TO.N,/Amplifier/R-CH*%
X169000000Y-87965000D03*
D20*
%TO.P,JP10,2,B*%
%TO.N,Net-(JP10-Pad2)*%
X169000000Y-90505000D03*
%TD*%
D18*
%TO.P,C29,1*%
%TO.N,VCCRGB*%
X224300000Y-183000000D03*
%TO.P,C29,2*%
%TO.N,GND*%
X229300000Y-183000000D03*
%TD*%
D17*
%TO.P,C13,1*%
%TO.N,VCCRGB*%
X241884700Y-183000000D03*
D18*
%TO.P,C13,2*%
%TO.N,GND*%
X244384700Y-183000000D03*
%TD*%
%TO.P,R4,1*%
%TO.N,Net-(JP1-Pad3)*%
X240750000Y-177060000D03*
D21*
%TO.P,R4,2*%
%TO.N,/VDP/~{CSYNC}*%
X240750000Y-169440000D03*
%TD*%
D18*
%TO.P,R8,1*%
%TO.N,~{LPS-WAIT}*%
X133200000Y-189000000D03*
D21*
%TO.P,R8,2*%
%TO.N,VCC*%
X125580000Y-189000000D03*
%TD*%
D18*
%TO.P,R31,1*%
%TO.N,Net-(P8-Pad1)*%
X104350000Y-143700000D03*
D21*
%TO.P,R31,2*%
%TO.N,GND*%
X104350000Y-136080000D03*
%TD*%
D18*
%TO.P,C11,1*%
%TO.N,VCC*%
X154800000Y-159750000D03*
%TO.P,C11,2*%
%TO.N,GND*%
X154800000Y-164750000D03*
%TD*%
D17*
%TO.P,U13,1,OEa*%
%TO.N,ZERO*%
X138250000Y-213000000D03*
D21*
%TO.P,U13,2,I0a*%
%TO.N,A0*%
X140790000Y-213000000D03*
%TO.P,U13,3,O3b*%
%TO.N,bA7*%
X143330000Y-213000000D03*
%TO.P,U13,4,I1a*%
%TO.N,A1*%
X145870000Y-213000000D03*
%TO.P,U13,5,O2b*%
%TO.N,bA6*%
X148410000Y-213000000D03*
%TO.P,U13,6,I2a*%
%TO.N,A2*%
X150950000Y-213000000D03*
%TO.P,U13,7,O1b*%
%TO.N,bA5*%
X153490000Y-213000000D03*
%TO.P,U13,8,I3a*%
%TO.N,A3*%
X156030000Y-213000000D03*
%TO.P,U13,9,O0b*%
%TO.N,bA4*%
X158570000Y-213000000D03*
%TO.P,U13,10,GND*%
%TO.N,GND*%
X161110000Y-213000000D03*
%TO.P,U13,11,I0b*%
%TO.N,A4*%
X161110000Y-205380000D03*
%TO.P,U13,12,O3a*%
%TO.N,bA3*%
X158570000Y-205380000D03*
%TO.P,U13,13,I1b*%
%TO.N,A5*%
X156030000Y-205380000D03*
%TO.P,U13,14,O2a*%
%TO.N,bA2*%
X153490000Y-205380000D03*
%TO.P,U13,15,I2b*%
%TO.N,A6*%
X150950000Y-205380000D03*
%TO.P,U13,16,O1a*%
%TO.N,bA1*%
X148410000Y-205380000D03*
%TO.P,U13,17,I3b*%
%TO.N,A7*%
X145870000Y-205380000D03*
%TO.P,U13,18,O0a*%
%TO.N,bA0*%
X143330000Y-205380000D03*
%TO.P,U13,19,OEb*%
%TO.N,ZERO*%
X140790000Y-205380000D03*
%TO.P,U13,20,VCC*%
%TO.N,VCC*%
X138250000Y-205380000D03*
%TD*%
D18*
%TO.P,C37,1*%
%TO.N,/VDP/BLUE*%
X234750000Y-162000000D03*
%TO.P,C37,2*%
%TO.N,GND*%
X234750000Y-167000000D03*
%TD*%
%TO.P,C47,1*%
%TO.N,/VDP/SYNCIN*%
X252750000Y-162000000D03*
%TO.P,C47,2*%
%TO.N,GND*%
X252750000Y-167000000D03*
%TD*%
D19*
%TO.P,J9,1,Pin_1*%
%TO.N,~{RES_IN}*%
X95475000Y-219000000D03*
D20*
%TO.P,J9,2,Pin_2*%
%TO.N,Net-(J9-Pad2)*%
X98015000Y-219000000D03*
%TO.P,J9,3,Pin_3*%
%TO.N,~{RES_OUT}*%
X100555000Y-219000000D03*
%TD*%
D40*
%TO.N,VCCVDP*%
X161316300Y-171783700D03*
%TO.N,/VDP/VSYNC*%
X158698900Y-190127300D03*
%TO.N,/VDP/VGA-VSYNC*%
X156983500Y-182674400D03*
%TO.N,/VDP/~{CAS0}*%
X178208600Y-137921100D03*
X181923100Y-135833600D03*
%TO.N,/VDP/~{CAS1}*%
X195628000Y-116653400D03*
%TO.N,/VDP/~{VRW}*%
X166133900Y-137828800D03*
X164900200Y-135467700D03*
%TO.N,/VDP/~{CSYNC}*%
X239277600Y-160750900D03*
X201528600Y-158638200D03*
%TO.N,/VDP/VGA-HSYNC*%
X221354500Y-178742600D03*
X184010300Y-190060400D03*
%TO.N,~{RESVDP}*%
X201840600Y-176189800D03*
X175147100Y-170622200D03*
%TO.N,/VDP/VGA-CSYNC*%
X139820500Y-137095100D03*
%TO.N,/PSG/PWA1*%
X149619600Y-165269300D03*
%TO.N,/PSG/PWA2*%
X144504500Y-197659800D03*
X161648500Y-197659800D03*
%TO.N,VRY*%
X88319100Y-196757700D03*
X189110700Y-176237100D03*
%TO.N,~{RESAY3}*%
X221509900Y-188855400D03*
X223577700Y-156524500D03*
X135781900Y-155379200D03*
%TO.N,Net-(U24-Pad5)*%
X135892800Y-203751200D03*
%TO.N,/VDP/VD5*%
X189902000Y-136200200D03*
%TO.N,/VDP/AD1*%
X174846800Y-137832700D03*
%TO.N,/VDP/AD2*%
X183391400Y-137938300D03*
%TO.N,/VDP/AD4*%
X182607500Y-131121100D03*
%TO.N,/ACR/STATUS-PSG*%
X196214400Y-220321900D03*
X96963200Y-197997000D03*
%TO.N,Net-(U24-Pad8)*%
X128546100Y-196394900D03*
%TO.N,~{VDP_WR}*%
X207798000Y-176743100D03*
%TO.N,~{CS_ACR_WR}*%
X221891600Y-196857500D03*
%TO.N,/PSG/JOYAL*%
X135016900Y-85219400D03*
%TO.N,/PSG/JOYBF*%
X145975300Y-153747200D03*
%TO.N,/PSG/JOYBR*%
X144524600Y-154277700D03*
%TO.N,/PSG/JOYBL*%
X143530600Y-157467500D03*
%TO.N,/PSG/JOYBD*%
X141929700Y-156190500D03*
%TO.N,/PSG/JOYBU*%
X141953800Y-157230400D03*
%TO.N,/PSG/POTA2*%
X140751400Y-144875200D03*
X147132600Y-145086100D03*
%TO.N,ACR5*%
X223322200Y-197261400D03*
X201089400Y-87004300D03*
%TO.N,Net-(P8-Pad7)*%
X137859200Y-152988200D03*
X87935600Y-178712300D03*
%TO.N,Net-(P8-Pad4)*%
X80683300Y-177175200D03*
%TO.N,Net-(P8-Pad1)*%
X86333300Y-176948800D03*
%TO.N,/VDP/CBDR*%
X176380700Y-170371400D03*
%TO.N,/VDP/C7*%
X185071100Y-167186700D03*
X187137500Y-170596900D03*
%TO.N,/VDP/C6*%
X191121500Y-171322200D03*
%TO.N,/VDP/C5*%
X215125000Y-166109900D03*
%TO.N,/VDP/C1*%
X198587700Y-165366400D03*
%TO.N,/VDP/C0*%
X196156600Y-164310600D03*
%TO.N,VRY_CLK*%
X79436000Y-219638700D03*
%TO.N,Net-(JP4-Pad2)*%
X129645700Y-144635800D03*
%TO.N,Net-(JP1-Pad1)*%
X137773600Y-189757100D03*
X237785800Y-174802700D03*
%TO.N,/PSG/JOYBH*%
X153495000Y-111252600D03*
X127694800Y-131602000D03*
%TO.N,/PSG/JOYBG*%
X142802300Y-153349300D03*
%TO.N,/Amplifier/AMPPWR*%
X169288800Y-216699700D03*
%TO.N,/VDP/BOUT*%
X227204100Y-91873500D03*
%TO.N,/VDP/SYNCIN*%
X197704400Y-159212700D03*
X171855600Y-162022800D03*
%TO.N,bA1*%
X149188500Y-183538800D03*
%TO.N,~{bIORQ}*%
X95611500Y-215950600D03*
%TO.N,~{bM1}*%
X170390400Y-208265700D03*
%TO.N,bD7*%
X203324100Y-160514400D03*
X193971000Y-150053900D03*
%TO.N,bA0*%
X149181600Y-182519700D03*
%TO.N,bD0*%
X202651400Y-188382200D03*
%TO.N,bD1*%
X207309700Y-185791100D03*
%TO.N,bD2*%
X205862700Y-147124100D03*
%TO.N,bD3*%
X214854800Y-178808100D03*
X203390400Y-148519600D03*
%TO.N,bD4*%
X219452600Y-189249300D03*
X113127800Y-151072500D03*
%TO.N,bD5*%
X227320200Y-149502100D03*
X222892900Y-195597500D03*
%TO.N,bD6*%
X123882400Y-152805700D03*
%TO.N,ZERO*%
X143974200Y-202401700D03*
X192843900Y-124638300D03*
X139973400Y-148421400D03*
%TO.N,ONE*%
X153197400Y-157987100D03*
X131319100Y-155499300D03*
%TO.N,~{RD}*%
X94027400Y-216875200D03*
X107965700Y-227191600D03*
%TD*%
D41*
%TO.N,/VDP/VCCO*%
X190024700Y-185325000D02*
X190024700Y-180635000D01*
X193099700Y-188400000D02*
X190024700Y-185325000D01*
X194900000Y-188400000D02*
X193099700Y-188400000D01*
X191575000Y-180635000D02*
X190024700Y-180635000D01*
D42*
%TO.N,Net-(J4-Pad2)*%
X207938000Y-106540000D02*
X209400000Y-106540000D01*
X196290300Y-94892300D02*
X207938000Y-106540000D01*
X196290300Y-94525000D02*
X196290300Y-94892300D01*
X195115000Y-94525000D02*
X196290300Y-94525000D01*
D41*
%TO.N,VCCVDP*%
X158500000Y-174600000D02*
X161316300Y-171783700D01*
X161316300Y-171282400D02*
X161316300Y-171783700D01*
X157834700Y-167800800D02*
X161316300Y-171282400D01*
X155728700Y-167800800D02*
X157834700Y-167800800D01*
X153299300Y-165371400D02*
X155728700Y-167800800D01*
X153299300Y-163402500D02*
X153299300Y-165371400D01*
X170322000Y-146379800D02*
X153299300Y-163402500D01*
X170322000Y-144199600D02*
X170322000Y-146379800D01*
%TO.N,VCCRGB*%
X253056300Y-152770300D02*
X252215000Y-152770300D01*
X254273400Y-153987400D02*
X253056300Y-152770300D01*
X254273400Y-180826600D02*
X254273400Y-153987400D01*
X252100000Y-183000000D02*
X254273400Y-180826600D01*
X252215000Y-151270000D02*
X252215000Y-152770300D01*
D42*
%TO.N,Net-(JP12-Pad2)*%
X246750000Y-179244800D02*
X246750000Y-173840000D01*
X251845200Y-184340000D02*
X246750000Y-179244800D01*
X256200000Y-184340000D02*
X251845200Y-184340000D01*
%TO.N,~{INT0}*%
X85047800Y-220367800D02*
X87680000Y-223000000D01*
X77583100Y-220367800D02*
X85047800Y-220367800D01*
X76215300Y-219000000D02*
X77583100Y-220367800D01*
X75040000Y-219000000D02*
X76215300Y-219000000D01*
%TO.N,Net-(J7-Pad1)*%
X72500000Y-219000000D02*
X71324700Y-219000000D01*
X60375000Y-208050300D02*
X71324700Y-219000000D01*
X60375000Y-200800000D02*
X60375000Y-208050300D01*
%TO.N,/VDP/VSYNC*%
X190030000Y-114300000D02*
X188904700Y-114300000D01*
X158698900Y-177923500D02*
X158698900Y-190127300D01*
X150795300Y-170019900D02*
X158698900Y-177923500D01*
X150795300Y-161591400D02*
X150795300Y-170019900D01*
X152290200Y-160096500D02*
X150795300Y-161591400D01*
X152290200Y-129514000D02*
X152290200Y-160096500D01*
X159872100Y-121932100D02*
X152290200Y-129514000D01*
X159872100Y-119973600D02*
X159872100Y-121932100D01*
X161756700Y-118089000D02*
X159872100Y-119973600D01*
X169142900Y-118089000D02*
X161756700Y-118089000D01*
X179588800Y-107643100D02*
X169142900Y-118089000D01*
X182529100Y-107643100D02*
X179588800Y-107643100D01*
X188904700Y-114018700D02*
X182529100Y-107643100D01*
X188904700Y-114300000D02*
X188904700Y-114018700D01*
%TO.N,/VDP/VGA-VSYNC*%
X195115000Y-91985000D02*
X193939700Y-91985000D01*
X156983500Y-176845000D02*
X156983500Y-182674400D01*
X150345000Y-170206500D02*
X156983500Y-176845000D01*
X150345000Y-161331100D02*
X150345000Y-170206500D01*
X151804100Y-159872000D02*
X150345000Y-161331100D01*
X151804100Y-129342100D02*
X151804100Y-159872000D01*
X158754000Y-122392200D02*
X151804100Y-129342100D01*
X158754000Y-120454700D02*
X158754000Y-122392200D01*
X161639300Y-117569400D02*
X158754000Y-120454700D01*
X168846900Y-117569400D02*
X161639300Y-117569400D01*
X191399600Y-95016700D02*
X168846900Y-117569400D01*
X191399600Y-94035600D02*
X191399600Y-95016700D01*
X192274900Y-93160300D02*
X191399600Y-94035600D01*
X193131800Y-93160300D02*
X192274900Y-93160300D01*
X193939700Y-92352400D02*
X193131800Y-93160300D01*
X193939700Y-91985000D02*
X193939700Y-92352400D01*
%TO.N,/VDP/AUDIO*%
X213749800Y-95315000D02*
X209400000Y-95315000D01*
X215095400Y-93969400D02*
X213749800Y-95315000D01*
X215095400Y-92855200D02*
X215095400Y-93969400D01*
X212113400Y-89873200D02*
X215095400Y-92855200D01*
X212113400Y-82232800D02*
X212113400Y-89873200D01*
X213168500Y-81177700D02*
X212113400Y-82232800D01*
X219616000Y-81177700D02*
X213168500Y-81177700D01*
X221454500Y-83016200D02*
X219616000Y-81177700D01*
%TO.N,/VDP/~{RAS}*%
X171470000Y-139770000D02*
X171470000Y-138644700D01*
X204135300Y-137299400D02*
X203010000Y-138424700D01*
X204135300Y-130000600D02*
X204135300Y-137299400D01*
X203010000Y-128875300D02*
X204135300Y-130000600D01*
X203010000Y-127750000D02*
X203010000Y-128875300D01*
X203010000Y-139550000D02*
X203010000Y-138424700D01*
X170344600Y-131513200D02*
X170344600Y-137579700D01*
X171630000Y-130227800D02*
X170344600Y-131513200D01*
X171630000Y-127600000D02*
X171630000Y-130227800D01*
X170405000Y-137579700D02*
X171470000Y-138644700D01*
X170344600Y-137579700D02*
X170405000Y-137579700D01*
X169461500Y-137579700D02*
X170344600Y-137579700D01*
X167660000Y-139381200D02*
X169461500Y-137579700D01*
X167660000Y-140103400D02*
X167660000Y-139381200D01*
X163563800Y-144199600D02*
X167660000Y-140103400D01*
X163301400Y-144199600D02*
X163563800Y-144199600D01*
%TO.N,/VDP/~{CAS0}*%
X179835600Y-137921100D02*
X181923100Y-135833600D01*
X178208600Y-137921100D02*
X179835600Y-137921100D01*
%TO.N,/VDP/~{CAS1}*%
X197930000Y-120130000D02*
X197930000Y-119004700D01*
X195628000Y-116702700D02*
X195628000Y-116653400D01*
X197930000Y-119004700D02*
X195628000Y-116702700D01*
X165424700Y-119698600D02*
X165424700Y-119980000D01*
X164580800Y-118854700D02*
X165424700Y-119698600D01*
X163532200Y-118854700D02*
X164580800Y-118854700D01*
X162740000Y-119646900D02*
X163532200Y-118854700D01*
X162740000Y-120510200D02*
X162740000Y-119646900D01*
X158815300Y-124434900D02*
X162740000Y-120510200D01*
X158815300Y-144652900D02*
X158815300Y-124434900D01*
X159292300Y-145129900D02*
X158815300Y-144652900D01*
X165830600Y-145129900D02*
X159292300Y-145129900D01*
X166760900Y-144199600D02*
X165830600Y-145129900D01*
X166550000Y-119980000D02*
X165424700Y-119980000D01*
%TO.N,/VDP/~{VRW}*%
X168930000Y-141027100D02*
X168930000Y-139770000D01*
X172102500Y-144199600D02*
X168930000Y-141027100D01*
X164900200Y-136595100D02*
X164900200Y-135467700D01*
X166133900Y-137828800D02*
X164900200Y-136595100D01*
X201595300Y-137299400D02*
X200470000Y-138424700D01*
X201595300Y-130520000D02*
X201595300Y-137299400D01*
X200470000Y-129394700D02*
X201595300Y-130520000D01*
X200470000Y-127750000D02*
X200470000Y-129394700D01*
X200470000Y-139550000D02*
X200470000Y-138424700D01*
%TO.N,~{VINT}*%
X60375000Y-171704200D02*
X60375000Y-193180000D01*
X68684600Y-163394600D02*
X60375000Y-171704200D01*
X68684600Y-83890700D02*
X68684600Y-163394600D01*
X70250000Y-82325300D02*
X68684600Y-83890700D01*
X70250000Y-81100000D02*
X70250000Y-82325300D01*
X214435000Y-180635000D02*
X214435000Y-179459700D01*
X214129400Y-179154100D02*
X214435000Y-179459700D01*
X214129400Y-166079800D02*
X214129400Y-179154100D01*
X216240200Y-163969000D02*
X214129400Y-166079800D01*
X216240200Y-162692900D02*
X216240200Y-163969000D01*
X215384700Y-161837400D02*
X216240200Y-162692900D01*
X203829600Y-161837400D02*
X215384700Y-161837400D01*
X202379300Y-163287700D02*
X203829600Y-161837400D01*
%TO.N,~{LPS-WAIT}*%
X200475000Y-166972600D02*
X204159900Y-163287700D01*
X200475000Y-175639700D02*
X200475000Y-166972600D01*
X196655000Y-179459700D02*
X200475000Y-175639700D01*
X196655000Y-180635000D02*
X196655000Y-179459700D01*
X137549700Y-193561400D02*
X137549700Y-193280000D01*
X136705800Y-194405300D02*
X137549700Y-193561400D01*
X135662100Y-194405300D02*
X136705800Y-194405300D01*
X134865000Y-193608200D02*
X135662100Y-194405300D01*
X134865000Y-190665000D02*
X134865000Y-193608200D01*
X133200000Y-189000000D02*
X134865000Y-190665000D01*
X138675000Y-193280000D02*
X137549700Y-193280000D01*
%TO.N,/VDP/~{CSYNC}*%
X239277600Y-163737600D02*
X239277600Y-160750900D01*
X240750000Y-165210000D02*
X239277600Y-163737600D01*
X240750000Y-169440000D02*
X240750000Y-165210000D01*
X201377800Y-158487400D02*
X201528600Y-158638200D01*
X173433200Y-158487400D02*
X201377800Y-158487400D01*
X168653200Y-163267400D02*
X173433200Y-158487400D01*
%TO.N,/VDP/~{DLCLK}*%
X167794200Y-167750000D02*
X169500000Y-167750000D01*
X163311600Y-163267400D02*
X167794200Y-167750000D01*
%TO.N,Net-(JP7-Pad1)*%
X164133600Y-162308900D02*
X165092100Y-163267400D01*
X162954900Y-162308900D02*
X164133600Y-162308900D01*
X162371800Y-162892000D02*
X162954900Y-162308900D01*
X162371800Y-165471500D02*
X162371800Y-162892000D01*
X163725000Y-166824700D02*
X162371800Y-165471500D01*
X163725000Y-168000000D02*
X163725000Y-166824700D01*
%TO.N,/VDP/~{HSYNC}*%
X180225000Y-168000000D02*
X180225000Y-169175300D01*
X183305000Y-187275000D02*
X183305000Y-186099700D01*
X180225000Y-169543100D02*
X180225000Y-169175300D01*
X177445600Y-172322500D02*
X180225000Y-169543100D01*
X177445600Y-179671400D02*
X177445600Y-172322500D01*
X182129700Y-184355500D02*
X177445600Y-179671400D01*
X182129700Y-185291800D02*
X182129700Y-184355500D01*
X182937600Y-186099700D02*
X182129700Y-185291800D01*
X183305000Y-186099700D02*
X182937600Y-186099700D01*
%TO.N,/Amplifier/R-CH*%
X173217500Y-78545000D02*
X172192200Y-78545000D01*
X169000000Y-81737200D02*
X172192200Y-78545000D01*
X169000000Y-87965000D02*
X169000000Y-81737200D01*
X169000000Y-87965000D02*
X169000000Y-89140300D01*
X166781300Y-103944000D02*
X156025300Y-114700000D01*
X166781300Y-90991700D02*
X166781300Y-103944000D01*
X168632700Y-89140300D02*
X166781300Y-90991700D01*
X169000000Y-89140300D02*
X168632700Y-89140300D01*
%TO.N,Net-(C46-Pad1)*%
X130280700Y-102005300D02*
X130562000Y-102005300D01*
X124322300Y-107963700D02*
X130280700Y-102005300D01*
X124322300Y-112502300D02*
X124322300Y-107963700D01*
X125394700Y-113574700D02*
X124322300Y-112502300D01*
X125394700Y-114700000D02*
X125394700Y-113574700D01*
X130562000Y-100880000D02*
X130562000Y-102005300D01*
%TO.N,Net-(J3-Pad1)*%
X127385100Y-185185400D02*
X126775000Y-184575300D01*
X127385100Y-193753400D02*
X127385100Y-185185400D01*
X128075900Y-194444200D02*
X127385100Y-193753400D01*
X129046800Y-194444200D02*
X128075900Y-194444200D01*
X129929700Y-193561300D02*
X129046800Y-194444200D01*
X129929700Y-193280000D02*
X129929700Y-193561300D01*
X131055000Y-193280000D02*
X129929700Y-193280000D01*
X126775000Y-183400000D02*
X126775000Y-184575300D01*
%TO.N,Net-(C42-Pad1)*%
X157594700Y-103145600D02*
X158720000Y-102020300D01*
X157594700Y-109505300D02*
X157594700Y-103145600D01*
X153525300Y-113574700D02*
X157594700Y-109505300D01*
X153525300Y-114700000D02*
X153525300Y-113574700D01*
X158720000Y-100895000D02*
X158720000Y-102020300D01*
%TO.N,/VDP/VGA-HSYNC*%
X221416400Y-178680700D02*
X221354500Y-178742600D01*
X221416400Y-158356500D02*
X221416400Y-178680700D01*
X218787600Y-155727700D02*
X221416400Y-158356500D01*
X218566700Y-155727700D02*
X218787600Y-155727700D01*
X215609800Y-152770800D02*
X218566700Y-155727700D01*
X215609800Y-139980500D02*
X215609800Y-152770800D01*
X214295400Y-138666100D02*
X215609800Y-139980500D01*
X214295400Y-108895400D02*
X214295400Y-138666100D01*
X209400000Y-104000000D02*
X214295400Y-108895400D01*
X181940300Y-187990400D02*
X181940300Y-187275000D01*
X184010300Y-190060400D02*
X181940300Y-187990400D01*
X180765000Y-187275000D02*
X181940300Y-187275000D01*
%TO.N,~{RESVDP}*%
X201840600Y-177025300D02*
X201840600Y-176189800D01*
X204275000Y-179459700D02*
X201840600Y-177025300D01*
X173992300Y-169467400D02*
X173992300Y-163267400D01*
X175147100Y-170622200D02*
X173992300Y-169467400D01*
X204275000Y-180635000D02*
X204275000Y-179459700D01*
%TO.N,/VDP/VGA-CSYNC*%
X198022400Y-93160300D02*
X197655000Y-93160300D01*
X198830300Y-93968200D02*
X198022400Y-93160300D01*
X198830300Y-95603000D02*
X198830300Y-93968200D01*
X208402700Y-105175400D02*
X198830300Y-95603000D01*
X209729400Y-105175400D02*
X208402700Y-105175400D01*
X210581800Y-106027800D02*
X209729400Y-105175400D01*
X210581800Y-107090200D02*
X210581800Y-106027800D01*
X209767300Y-107904700D02*
X210581800Y-107090200D01*
X209400000Y-107904700D02*
X209767300Y-107904700D01*
X197655000Y-91985000D02*
X197655000Y-93160300D01*
X209400000Y-109080000D02*
X209400000Y-107904700D01*
X137102800Y-174436900D02*
X129315000Y-182224700D01*
X137102800Y-144191600D02*
X137102800Y-174436900D01*
X137969500Y-143324900D02*
X137102800Y-144191600D01*
X137969500Y-138946100D02*
X137969500Y-143324900D01*
X139820500Y-137095100D02*
X137969500Y-138946100D01*
X129315000Y-183400000D02*
X129315000Y-182224700D01*
%TO.N,L-CH*%
X173217500Y-82545000D02*
X174242800Y-82545000D01*
X209400000Y-92775000D02*
X209400000Y-91599700D01*
X104580000Y-87970000D02*
X105755300Y-87970000D01*
X121354700Y-90026200D02*
X121354700Y-83515400D01*
X131706500Y-100378000D02*
X121354700Y-90026200D01*
X131706500Y-110888200D02*
X131706500Y-100378000D01*
X127894700Y-114700000D02*
X131706500Y-110888200D01*
X108370300Y-85355000D02*
X105755300Y-87970000D01*
X108370300Y-80816200D02*
X108370300Y-85355000D01*
X109698000Y-79488500D02*
X108370300Y-80816200D01*
X117327800Y-79488500D02*
X109698000Y-79488500D01*
X121354700Y-83515400D02*
X117327800Y-79488500D01*
X179908800Y-82545000D02*
X174242800Y-82545000D01*
X183219800Y-85856000D02*
X179908800Y-82545000D01*
X199454000Y-85856000D02*
X183219800Y-85856000D01*
X201392400Y-83917600D02*
X199454000Y-85856000D01*
X201392400Y-83006600D02*
X201392400Y-83917600D01*
X202746700Y-81652300D02*
X201392400Y-83006600D01*
X204258800Y-81652300D02*
X202746700Y-81652300D01*
X205601400Y-82994900D02*
X204258800Y-81652300D01*
X205601400Y-87801100D02*
X205601400Y-82994900D01*
X209400000Y-91599700D02*
X205601400Y-87801100D01*
X127674500Y-77195600D02*
X121354700Y-83515400D01*
X173618400Y-77195600D02*
X127674500Y-77195600D01*
X174242800Y-77820000D02*
X173618400Y-77195600D01*
X174242800Y-82545000D02*
X174242800Y-77820000D01*
%TO.N,Net-(C4-Pad1)*%
X190030000Y-102340000D02*
X190030000Y-106680000D01*
X189940000Y-102250000D02*
X190030000Y-102340000D01*
%TO.N,/PSG/PWA1*%
X159745000Y-193180000D02*
X159745000Y-192054700D01*
X149619600Y-170118000D02*
X149619600Y-165269300D01*
X155590000Y-176088400D02*
X149619600Y-170118000D01*
X155590000Y-184718900D02*
X155590000Y-176088400D01*
X157655400Y-186784300D02*
X155590000Y-184718900D01*
X157655400Y-190142700D02*
X157655400Y-186784300D01*
X159567400Y-192054700D02*
X157655400Y-190142700D01*
X159745000Y-192054700D02*
X159567400Y-192054700D01*
%TO.N,/PSG/PWA2*%
X162285000Y-200800000D02*
X162285000Y-199674700D01*
X161648500Y-199038200D02*
X161648500Y-197659800D01*
X162285000Y-199674700D02*
X161648500Y-199038200D01*
X128285000Y-162075000D02*
X128285000Y-163200300D01*
X125599600Y-165885700D02*
X128285000Y-163200300D01*
X125599600Y-187388800D02*
X125599600Y-165885700D01*
X124451900Y-188536500D02*
X125599600Y-187388800D01*
X124451900Y-193353700D02*
X124451900Y-188536500D01*
X128758000Y-197659800D02*
X124451900Y-193353700D01*
X144504500Y-197659800D02*
X128758000Y-197659800D01*
%TO.N,VRY*%
X77994700Y-210749400D02*
X79120000Y-211874700D01*
X77994700Y-204861500D02*
X77994700Y-210749400D01*
X79521600Y-203334600D02*
X77994700Y-204861500D01*
X80517200Y-203334600D02*
X79521600Y-203334600D01*
X82730000Y-201121800D02*
X80517200Y-203334600D01*
X82730000Y-200413300D02*
X82730000Y-201121800D01*
X86385600Y-196757700D02*
X82730000Y-200413300D01*
X88319100Y-196757700D02*
X86385600Y-196757700D01*
X79120000Y-213000000D02*
X79120000Y-211874700D01*
X192939700Y-180066100D02*
X192939700Y-180635000D01*
X189110700Y-176237100D02*
X192939700Y-180066100D01*
X194115000Y-180635000D02*
X192939700Y-180635000D01*
%TO.N,Net-(C40-Pad1)*%
X135374700Y-110584700D02*
X135374700Y-107965000D01*
X137590000Y-112800000D02*
X135374700Y-110584700D01*
%TO.N,~{RESAY3}*%
X225609000Y-158555800D02*
X223577700Y-156524500D01*
X225609000Y-184756300D02*
X225609000Y-158555800D01*
X221509900Y-188855400D02*
X225609000Y-184756300D01*
X135781900Y-148083400D02*
X135905000Y-147960300D01*
X135781900Y-155379200D02*
X135781900Y-148083400D01*
X135905000Y-146835000D02*
X135905000Y-147960300D01*
%TO.N,Net-(U24-Pad5)*%
X135892800Y-202267500D02*
X136135000Y-202025300D01*
X135892800Y-203751200D02*
X135892800Y-202267500D01*
X136135000Y-200900000D02*
X136135000Y-202025300D01*
%TO.N,/VDP/VD7*%
X162884700Y-122230600D02*
X164010000Y-121105300D01*
X162884700Y-130059400D02*
X162884700Y-122230600D01*
X163850000Y-131024700D02*
X162884700Y-130059400D01*
X163850000Y-132150000D02*
X163850000Y-131024700D01*
X164010000Y-120542600D02*
X164010000Y-121105300D01*
X164010000Y-120542600D02*
X164010000Y-119980000D01*
%TO.N,/VDP/VD6*%
X170215300Y-122230600D02*
X169090000Y-121105300D01*
X170215300Y-129739400D02*
X170215300Y-122230600D01*
X168930000Y-131024700D02*
X170215300Y-129739400D01*
X168930000Y-132150000D02*
X168930000Y-131024700D01*
X169090000Y-119980000D02*
X169090000Y-121105300D01*
X189176700Y-143587800D02*
X189798700Y-144209800D01*
X189176700Y-119018600D02*
X189176700Y-143587800D01*
X186075400Y-115917300D02*
X189176700Y-119018600D01*
X186075400Y-113352100D02*
X186075400Y-115917300D01*
X180819500Y-108096200D02*
X186075400Y-113352100D01*
X179772600Y-108096200D02*
X180819500Y-108096200D01*
X169090000Y-118778800D02*
X179772600Y-108096200D01*
X169090000Y-119980000D02*
X169090000Y-118778800D01*
%TO.N,/VDP/VD5*%
X167515300Y-137519400D02*
X166390000Y-138644700D01*
X167515300Y-129690600D02*
X167515300Y-137519400D01*
X166550000Y-128725300D02*
X167515300Y-129690600D01*
X166550000Y-127600000D02*
X166550000Y-128725300D01*
X166390000Y-139770000D02*
X166390000Y-138644700D01*
X191579300Y-137877500D02*
X189902000Y-136200200D01*
X191579300Y-144209800D02*
X191579300Y-137877500D01*
%TO.N,/VDP/VD4*%
X163850000Y-139770000D02*
X163850000Y-138644700D01*
X164010000Y-127600000D02*
X164010000Y-128725300D01*
X163850000Y-135449800D02*
X163850000Y-138644700D01*
X164988600Y-134311200D02*
X163850000Y-135449800D01*
X164988600Y-129703900D02*
X164988600Y-134311200D01*
X164010000Y-128725300D02*
X164988600Y-129703900D01*
%TO.N,/VDP/VD3*%
X194264700Y-129679400D02*
X195390000Y-130804700D01*
X194264700Y-122380600D02*
X194264700Y-129679400D01*
X195390000Y-121255300D02*
X194264700Y-122380600D01*
X195390000Y-120130000D02*
X195390000Y-121255300D01*
X195390000Y-131930000D02*
X195390000Y-130804700D01*
X195390000Y-137655900D02*
X195390000Y-131930000D01*
X194263700Y-138782200D02*
X195390000Y-137655900D01*
X194263700Y-143333200D02*
X194263700Y-138782200D01*
X195140300Y-144209800D02*
X194263700Y-143333200D01*
%TO.N,Net-(C38-Pad1)*%
X107300000Y-110100000D02*
X109900000Y-112700000D01*
X107300000Y-107950000D02*
X107300000Y-110100000D01*
%TO.N,/VDP/VD2*%
X199344700Y-122380600D02*
X200470000Y-121255300D01*
X199344700Y-129160000D02*
X199344700Y-122380600D01*
X200470000Y-130285300D02*
X199344700Y-129160000D01*
X200470000Y-131930000D02*
X200470000Y-130285300D01*
X200470000Y-120130000D02*
X200470000Y-121255300D01*
%TO.N,/VDP/AD0*%
X172755300Y-122230600D02*
X171630000Y-121105300D01*
X172755300Y-129739400D02*
X172755300Y-122230600D01*
X171470000Y-131024700D02*
X172755300Y-129739400D01*
X171470000Y-132150000D02*
X171470000Y-131024700D01*
X171630000Y-119980000D02*
X171630000Y-121105300D01*
X201884700Y-122380600D02*
X203010000Y-121255300D01*
X201884700Y-129679400D02*
X201884700Y-122380600D01*
X203010000Y-130804700D02*
X201884700Y-129679400D01*
X203010000Y-131930000D02*
X203010000Y-130804700D01*
X203010000Y-120130000D02*
X203010000Y-121255300D01*
%TO.N,/VDP/AD1*%
X204424700Y-122380600D02*
X205550000Y-121255300D01*
X204424700Y-129160000D02*
X204424700Y-122380600D01*
X205550000Y-130285300D02*
X204424700Y-129160000D01*
X205550000Y-131930000D02*
X205550000Y-130285300D01*
X205550000Y-120130000D02*
X205550000Y-121255300D01*
X174170000Y-119980000D02*
X174170000Y-121105300D01*
X174010000Y-136995900D02*
X174010000Y-132150000D01*
X174846800Y-137832700D02*
X174010000Y-136995900D01*
X175295300Y-122230600D02*
X174170000Y-121105300D01*
X175295300Y-129739400D02*
X175295300Y-122230600D01*
X174010000Y-131024700D02*
X175295300Y-129739400D01*
X174010000Y-132150000D02*
X174010000Y-131024700D01*
%TO.N,/VDP/AD2*%
X206964700Y-122380600D02*
X208090000Y-121255300D01*
X206964700Y-129160000D02*
X206964700Y-122380600D01*
X208090000Y-130285300D02*
X206964700Y-129160000D01*
X208090000Y-131930000D02*
X208090000Y-130285300D01*
X208090000Y-120130000D02*
X208090000Y-121255300D01*
X176710000Y-119980000D02*
X177835300Y-119980000D01*
X183855800Y-137473900D02*
X183391400Y-137938300D01*
X183855800Y-119709600D02*
X183855800Y-137473900D01*
X182517800Y-118371600D02*
X183855800Y-119709600D01*
X179162400Y-118371600D02*
X182517800Y-118371600D01*
X177835300Y-119698700D02*
X179162400Y-118371600D01*
X177835300Y-119980000D02*
X177835300Y-119698700D01*
X183391400Y-143599100D02*
X182780700Y-144209800D01*
X183391400Y-137938300D02*
X183391400Y-143599100D01*
%TO.N,/VDP/AD3*%
X209504700Y-122380600D02*
X210630000Y-121255300D01*
X209504700Y-129160000D02*
X209504700Y-122380600D01*
X210630000Y-130285300D02*
X209504700Y-129160000D01*
X210630000Y-131930000D02*
X210630000Y-130285300D01*
X210630000Y-120130000D02*
X210630000Y-121255300D01*
X179250000Y-119980000D02*
X180375300Y-119980000D01*
X180375300Y-129739400D02*
X180375300Y-119980000D01*
X179090000Y-131024700D02*
X180375300Y-129739400D01*
X179090000Y-132150000D02*
X179090000Y-131024700D01*
X182782200Y-142430300D02*
X181002700Y-144209800D01*
X182782200Y-138354800D02*
X182782200Y-142430300D01*
X182666100Y-138238700D02*
X182782200Y-138354800D01*
X182666100Y-137637900D02*
X182666100Y-138238700D01*
X183405400Y-136898600D02*
X182666100Y-137637900D01*
X183405400Y-119931900D02*
X183405400Y-136898600D01*
X182328200Y-118854700D02*
X183405400Y-119931900D01*
X181219200Y-118854700D02*
X182328200Y-118854700D01*
X180375300Y-119698600D02*
X181219200Y-118854700D01*
X180375300Y-119980000D02*
X180375300Y-119698600D01*
%TO.N,/VDP/AD7*%
X182952300Y-129702400D02*
X181630000Y-131024700D01*
X182952300Y-122267600D02*
X182952300Y-129702400D01*
X181790000Y-121105300D02*
X182952300Y-122267600D01*
X181790000Y-119980000D02*
X181790000Y-121105300D01*
X181630000Y-132150000D02*
X181630000Y-131024700D01*
X177716200Y-140366500D02*
X173883100Y-144199600D01*
X177716200Y-139059000D02*
X177716200Y-140366500D01*
X177483300Y-138826100D02*
X177716200Y-139059000D01*
X177483300Y-137422000D02*
X177483300Y-138826100D01*
X181630000Y-133275300D02*
X177483300Y-137422000D01*
X181630000Y-132150000D02*
X181630000Y-133275300D01*
%TO.N,/VDP/AD4*%
X179090000Y-139770000D02*
X179090000Y-138644700D01*
X182781200Y-131294800D02*
X182607500Y-131121100D01*
X182781200Y-136001300D02*
X182781200Y-131294800D01*
X180137800Y-138644700D02*
X182781200Y-136001300D01*
X179090000Y-138644700D02*
X180137800Y-138644700D01*
X179222200Y-141027500D02*
X179090000Y-140895300D01*
X179222200Y-144199600D02*
X179222200Y-141027500D01*
X179090000Y-139770000D02*
X179090000Y-140895300D01*
X211755300Y-137299400D02*
X210630000Y-138424700D01*
X211755300Y-130000600D02*
X211755300Y-137299400D01*
X210630000Y-128875300D02*
X211755300Y-130000600D01*
X210630000Y-127750000D02*
X210630000Y-128875300D01*
X210630000Y-139550000D02*
X210630000Y-138424700D01*
%TO.N,/VDP/AD5*%
X209215300Y-137299400D02*
X208090000Y-138424700D01*
X209215300Y-130000600D02*
X209215300Y-137299400D01*
X208090000Y-128875300D02*
X209215300Y-130000600D01*
X208090000Y-127750000D02*
X208090000Y-128875300D01*
X208090000Y-139550000D02*
X208090000Y-138424700D01*
X177681100Y-129696400D02*
X176710000Y-128725300D01*
X177681100Y-134196500D02*
X177681100Y-129696400D01*
X176550000Y-135327600D02*
X177681100Y-134196500D01*
X176550000Y-139770000D02*
X176550000Y-135327600D01*
X176710000Y-127600000D02*
X176710000Y-128725300D01*
%TO.N,/VDP/AD6*%
X206675300Y-137299400D02*
X205550000Y-138424700D01*
X206675300Y-130000600D02*
X206675300Y-137299400D01*
X205550000Y-128875300D02*
X206675300Y-130000600D01*
X205550000Y-127750000D02*
X205550000Y-128875300D01*
X205550000Y-139550000D02*
X205550000Y-138424700D01*
X174170000Y-130227800D02*
X174170000Y-127600000D01*
X172824300Y-131573500D02*
X174170000Y-130227800D01*
X172824300Y-137459000D02*
X172824300Y-131573500D01*
X174010000Y-138644700D02*
X172824300Y-137459000D01*
X174010000Y-139770000D02*
X174010000Y-138644700D01*
%TO.N,/VDP/VD1*%
X199055300Y-130000600D02*
X197930000Y-128875300D01*
X199055300Y-137299400D02*
X199055300Y-130000600D01*
X197930000Y-138424700D02*
X199055300Y-137299400D01*
X197930000Y-139550000D02*
X197930000Y-138424700D01*
X197930000Y-127750000D02*
X197930000Y-128875300D01*
%TO.N,/VDP/VD0*%
X195390000Y-127750000D02*
X195390000Y-128875300D01*
X195390000Y-139550000D02*
X195390000Y-138424700D01*
X196515300Y-137299400D02*
X195390000Y-138424700D01*
X196515300Y-130000600D02*
X196515300Y-137299400D01*
X195390000Y-128875300D02*
X196515300Y-130000600D01*
X196515300Y-140194900D02*
X196515300Y-139550000D01*
X200530200Y-144209800D02*
X196515300Y-140194900D01*
X195390000Y-139550000D02*
X196515300Y-139550000D01*
%TO.N,/ACR/STATUS-PSG*%
X101400900Y-197997000D02*
X96963200Y-197997000D01*
X103810000Y-200406100D02*
X101400900Y-197997000D01*
X103810000Y-201137800D02*
X103810000Y-200406100D01*
X106215300Y-203543100D02*
X103810000Y-201137800D01*
X109637000Y-203543100D02*
X106215300Y-203543100D01*
X111100000Y-205006100D02*
X109637000Y-203543100D01*
X111100000Y-205757800D02*
X111100000Y-205006100D01*
X112781700Y-207439500D02*
X111100000Y-205757800D01*
X123641100Y-207439500D02*
X112781700Y-207439500D01*
X137550000Y-221348400D02*
X123641100Y-207439500D01*
X137550000Y-223431000D02*
X137550000Y-221348400D01*
X138294400Y-224175400D02*
X137550000Y-223431000D01*
X146827100Y-224175400D02*
X138294400Y-224175400D01*
X147615400Y-224963700D02*
X146827100Y-224175400D01*
X147615400Y-225855800D02*
X147615400Y-224963700D01*
X149011200Y-227251600D02*
X147615400Y-225855800D01*
X189284700Y-227251600D02*
X149011200Y-227251600D01*
X196214400Y-220321900D02*
X189284700Y-227251600D01*
%TO.N,Net-(U24-Pad8)*%
X141215000Y-193280000D02*
X140089700Y-193280000D01*
X137211100Y-196394900D02*
X128546100Y-196394900D01*
X140089700Y-193516300D02*
X137211100Y-196394900D01*
X140089700Y-193280000D02*
X140089700Y-193516300D01*
%TO.N,~{VDP_WR}*%
X209355000Y-180635000D02*
X209355000Y-179459700D01*
X209355000Y-176743100D02*
X207798000Y-176743100D01*
X210635000Y-175463100D02*
X209355000Y-176743100D01*
X210635000Y-163932200D02*
X210635000Y-175463100D01*
X211279500Y-163287700D02*
X210635000Y-163932200D01*
X209355000Y-176743100D02*
X209355000Y-179459700D01*
%TO.N,~{VDP_RD}*%
X211895000Y-180635000D02*
X211895000Y-179459700D01*
X213534500Y-177820200D02*
X211895000Y-179459700D01*
X213534500Y-165918500D02*
X213534500Y-177820200D01*
X215776100Y-163676900D02*
X213534500Y-165918500D01*
X215776100Y-162878400D02*
X215776100Y-163676900D01*
X215221600Y-162323900D02*
X215776100Y-162878400D01*
X214023800Y-162323900D02*
X215221600Y-162323900D01*
X213060000Y-163287700D02*
X214023800Y-162323900D01*
%TO.N,~{CS_PSG_WR}*%
X112370000Y-205380000D02*
X113495300Y-205380000D01*
X125745000Y-146835000D02*
X125745000Y-147960300D01*
X113495300Y-205661400D02*
X113495300Y-205380000D01*
X114339200Y-206505300D02*
X113495300Y-205661400D01*
X115416400Y-206505300D02*
X114339200Y-206505300D01*
X116180000Y-205741700D02*
X115416400Y-206505300D01*
X116180000Y-204849800D02*
X116180000Y-205741700D01*
X117843100Y-203186700D02*
X116180000Y-204849800D01*
X117843100Y-190306500D02*
X117843100Y-203186700D01*
X124619700Y-183529900D02*
X117843100Y-190306500D01*
X124619700Y-149085600D02*
X124619700Y-183529900D01*
X125745000Y-147960300D02*
X124619700Y-149085600D01*
%TO.N,~{CS_PSG_A0}*%
X116813200Y-202351500D02*
X114910000Y-204254700D01*
X116813200Y-151812100D02*
X116813200Y-202351500D01*
X120665000Y-147960300D02*
X116813200Y-151812100D01*
X120665000Y-146835000D02*
X120665000Y-147960300D01*
X114910000Y-205380000D02*
X114910000Y-204254700D01*
%TO.N,~{CS_ACR_WR}*%
X222167500Y-196581600D02*
X221891600Y-196857500D01*
X222167500Y-195042800D02*
X222167500Y-196581600D01*
X222905000Y-194305300D02*
X222167500Y-195042800D01*
X222905000Y-193180000D02*
X222905000Y-194305300D01*
%TO.N,Net-(RN1-Pad6)*%
X188850300Y-201392800D02*
X188850300Y-201200000D01*
X190806800Y-203349300D02*
X188850300Y-201392800D01*
X192164100Y-203349300D02*
X190806800Y-203349300D01*
X193556900Y-204742100D02*
X192164100Y-203349300D01*
X193556900Y-210512800D02*
X193556900Y-204742100D01*
X192395000Y-211674700D02*
X193556900Y-210512800D01*
X192395000Y-212800000D02*
X192395000Y-211674700D01*
X188287700Y-201200000D02*
X188183200Y-201200000D01*
X187725000Y-201200000D02*
X188183200Y-201200000D01*
X188287700Y-201200000D02*
X188850300Y-201200000D01*
X188183200Y-196752100D02*
X188285000Y-196650300D01*
X188183200Y-201200000D02*
X188183200Y-196752100D01*
X188285000Y-195475000D02*
X188285000Y-196650300D01*
%TO.N,Net-(R18-Pad2)*%
X248260300Y-140828700D02*
X248260300Y-141110000D01*
X251859000Y-137230000D02*
X248260300Y-140828700D01*
X253250000Y-137230000D02*
X251859000Y-137230000D01*
X247135000Y-141110000D02*
X248260300Y-141110000D01*
%TO.N,Net-(R17-Pad2)*%
X245620600Y-139984700D02*
X247250000Y-138355300D01*
X244595000Y-139984700D02*
X245620600Y-139984700D01*
X247250000Y-137230000D02*
X247250000Y-138355300D01*
X244595000Y-141110000D02*
X244595000Y-139984700D01*
%TO.N,Net-(R14-Pad2)*%
X229355000Y-138460300D02*
X229355000Y-141110000D01*
X229250000Y-138355300D02*
X229355000Y-138460300D01*
X229250000Y-137230000D02*
X229250000Y-138355300D01*
%TO.N,Net-(R13-Pad2)*%
X225689700Y-140795000D02*
X225689700Y-141110000D01*
X223250000Y-138355300D02*
X225689700Y-140795000D01*
X223250000Y-137230000D02*
X223250000Y-138355300D01*
X226815000Y-141110000D02*
X225689700Y-141110000D01*
%TO.N,Net-(R11-Pad1)*%
X240750000Y-143470300D02*
X239515000Y-142235300D01*
X240750000Y-154690000D02*
X240750000Y-143470300D01*
X239515000Y-141110000D02*
X239515000Y-142235300D01*
%TO.N,/PSG/JOYAF*%
X134490300Y-159824400D02*
X133365000Y-160949700D01*
X134490300Y-109090300D02*
X134490300Y-159824400D01*
X134242100Y-108842100D02*
X134490300Y-109090300D01*
X134242100Y-84925100D02*
X134242100Y-108842100D01*
X134729200Y-84438000D02*
X134242100Y-84925100D01*
X134729200Y-82553300D02*
X134729200Y-84438000D01*
X136080000Y-81202500D02*
X134729200Y-82553300D01*
X133365000Y-162075000D02*
X133365000Y-160949700D01*
%TO.N,/PSG/JOYAR*%
X135905000Y-162075000D02*
X134779700Y-162075000D01*
X133540000Y-81959800D02*
X133540000Y-81202500D01*
X132330400Y-83169400D02*
X133540000Y-81959800D01*
X132330400Y-99329700D02*
X132330400Y-83169400D01*
X133275400Y-100274700D02*
X132330400Y-99329700D01*
X133275400Y-144146700D02*
X133275400Y-100274700D01*
X132187200Y-145234900D02*
X133275400Y-144146700D01*
X132187200Y-162596100D02*
X132187200Y-145234900D01*
X132832600Y-163241500D02*
X132187200Y-162596100D01*
X133894500Y-163241500D02*
X132832600Y-163241500D01*
X134779700Y-162356300D02*
X133894500Y-163241500D01*
X134779700Y-162075000D02*
X134779700Y-162356300D01*
%TO.N,/PSG/JOYAL*%
X138445000Y-162075000D02*
X138445000Y-160949700D01*
X135016900Y-98947800D02*
X135016900Y-85219400D01*
X136555000Y-100485900D02*
X135016900Y-98947800D01*
X136555000Y-108247800D02*
X136555000Y-100485900D01*
X140545800Y-112238600D02*
X136555000Y-108247800D01*
X140545800Y-143814200D02*
X140545800Y-112238600D01*
X139574300Y-144785700D02*
X140545800Y-143814200D01*
X139574300Y-147582300D02*
X139574300Y-144785700D01*
X138835600Y-148321000D02*
X139574300Y-147582300D01*
X138835600Y-160559100D02*
X138835600Y-148321000D01*
X138445000Y-160949700D02*
X138835600Y-160559100D01*
%TO.N,/PSG/JOYAD*%
X140985000Y-162075000D02*
X140985000Y-160949700D01*
X132694800Y-79507700D02*
X131000000Y-81202500D01*
X138597800Y-79507700D02*
X132694800Y-79507700D01*
X139795400Y-80705300D02*
X138597800Y-79507700D01*
X139795400Y-85328800D02*
X139795400Y-80705300D01*
X140365000Y-85898400D02*
X139795400Y-85328800D01*
X140365000Y-96560700D02*
X140365000Y-85898400D01*
X142117600Y-98313300D02*
X140365000Y-96560700D01*
X142117600Y-147890600D02*
X142117600Y-98313300D01*
X139984100Y-150024100D02*
X142117600Y-147890600D01*
X139984100Y-159948800D02*
X139984100Y-150024100D01*
X140985000Y-160949700D02*
X139984100Y-159948800D01*
%TO.N,/PSG/JOYAU*%
X141507300Y-145187400D02*
X140985000Y-145709700D01*
X141507300Y-99561800D02*
X141507300Y-145187400D01*
X137730400Y-95784900D02*
X141507300Y-99561800D01*
X137730400Y-85803800D02*
X137730400Y-95784900D01*
X137255400Y-85328800D02*
X137730400Y-85803800D01*
X137255400Y-80695300D02*
X137255400Y-85328800D01*
X136582100Y-80022000D02*
X137255400Y-80695300D01*
X133055300Y-80022000D02*
X136582100Y-80022000D01*
X132270000Y-80807300D02*
X133055300Y-80022000D01*
X132270000Y-82472500D02*
X132270000Y-80807300D01*
X131000000Y-83742500D02*
X132270000Y-82472500D01*
X140985000Y-146835000D02*
X140985000Y-145709700D01*
%TO.N,/PSG/JOYBF*%
X146390900Y-153331600D02*
X145975300Y-153747200D01*
X146390900Y-139891200D02*
X146390900Y-153331600D01*
X151353700Y-134928400D02*
X146390900Y-139891200D01*
X151353700Y-128722300D02*
X151353700Y-134928400D01*
X154650700Y-125425300D02*
X151353700Y-128722300D01*
X154650700Y-114221100D02*
X154650700Y-125425300D01*
X160350400Y-108521400D02*
X154650700Y-114221100D01*
X160350400Y-85107100D02*
X160350400Y-108521400D01*
X160970800Y-84486700D02*
X160350400Y-85107100D01*
X160970800Y-82423300D02*
X160970800Y-84486700D01*
X159750000Y-81202500D02*
X160970800Y-82423300D01*
%TO.N,/PSG/JOYBR*%
X144524600Y-153403400D02*
X144524600Y-154277700D01*
X145490200Y-152437800D02*
X144524600Y-153403400D01*
X145490200Y-138705400D02*
X145490200Y-152437800D01*
X149853400Y-134342200D02*
X145490200Y-138705400D01*
X149853400Y-95682600D02*
X149853400Y-134342200D01*
X155940500Y-89595500D02*
X149853400Y-95682600D01*
X155940500Y-82472000D02*
X155940500Y-89595500D01*
X157210000Y-81202500D02*
X155940500Y-82472000D01*
%TO.N,/PSG/JOYBL*%
X145250000Y-155748100D02*
X143530600Y-157467500D01*
X145250000Y-153314900D02*
X145250000Y-155748100D01*
X145940500Y-152624400D02*
X145250000Y-153314900D01*
X145940500Y-139529000D02*
X145940500Y-152624400D01*
X150567500Y-134902000D02*
X145940500Y-139529000D01*
X150567500Y-128794800D02*
X150567500Y-134902000D01*
X152370000Y-126992300D02*
X150567500Y-128794800D01*
X152370000Y-93802900D02*
X152370000Y-126992300D01*
X157210000Y-88962900D02*
X152370000Y-93802900D01*
X157210000Y-83742500D02*
X157210000Y-88962900D01*
%TO.N,/PSG/JOYBD*%
X141929700Y-153064300D02*
X141929700Y-156190500D01*
X143977000Y-151017000D02*
X141929700Y-153064300D01*
X143977000Y-137153200D02*
X143977000Y-151017000D01*
X147799000Y-133331200D02*
X143977000Y-137153200D01*
X147799000Y-94651400D02*
X147799000Y-133331200D01*
X151985000Y-90465400D02*
X147799000Y-94651400D01*
X151985000Y-83887500D02*
X151985000Y-90465400D01*
X154670000Y-81202500D02*
X151985000Y-83887500D01*
%TO.N,/PSG/JOYBU*%
X143799300Y-155384900D02*
X141953800Y-157230400D01*
X143799300Y-153491800D02*
X143799300Y-155384900D01*
X145039900Y-152251200D02*
X143799300Y-153491800D01*
X145039900Y-138518800D02*
X145039900Y-152251200D01*
X149394500Y-134164200D02*
X145039900Y-138518800D01*
X149394500Y-95504600D02*
X149394500Y-134164200D01*
X154670000Y-90229100D02*
X149394500Y-95504600D01*
X154670000Y-83742500D02*
X154670000Y-90229100D01*
%TO.N,Net-(P10-Pad6)*%
X142340300Y-86149400D02*
X141635000Y-86854700D01*
X142340300Y-82382800D02*
X142340300Y-86149400D01*
X141160000Y-81202500D02*
X142340300Y-82382800D01*
X141635000Y-88030000D02*
X141635000Y-86854700D01*
%TO.N,Net-(P10-Pad4)*%
X138620000Y-86379700D02*
X139095000Y-86854700D01*
X138620000Y-83742500D02*
X138620000Y-86379700D01*
X139095000Y-88030000D02*
X139095000Y-86854700D01*
%TO.N,Net-(P10-Pad2)*%
X136555000Y-88030000D02*
X136555000Y-86854700D01*
X136555000Y-84217500D02*
X136080000Y-83742500D01*
X136555000Y-86854700D02*
X136555000Y-84217500D01*
%TO.N,/PSG/POTA2*%
X153603700Y-187013700D02*
X155590000Y-189000000D01*
X153603700Y-176012800D02*
X153603700Y-187013700D01*
X148058100Y-170467200D02*
X153603700Y-176012800D01*
X148058100Y-149653400D02*
X148058100Y-170467200D01*
X149125300Y-148586200D02*
X148058100Y-149653400D01*
X149125300Y-147078800D02*
X149125300Y-148586200D01*
X147132600Y-145086100D02*
X149125300Y-147078800D01*
X136555000Y-95246400D02*
X136555000Y-90570000D01*
X139064700Y-97756100D02*
X136555000Y-95246400D01*
X139064700Y-109090400D02*
X139064700Y-97756100D01*
X140996100Y-111021800D02*
X139064700Y-109090400D01*
X140996100Y-144630500D02*
X140996100Y-111021800D01*
X140751400Y-144875200D02*
X140996100Y-144630500D01*
%TO.N,ACR5*%
X227427300Y-193156300D02*
X223322200Y-197261400D01*
X227427300Y-173263600D02*
X227427300Y-193156300D01*
X230524200Y-170166700D02*
X227427300Y-173263600D01*
X230524200Y-150826500D02*
X230524200Y-170166700D01*
X227940300Y-148242600D02*
X230524200Y-150826500D01*
X227940300Y-140270700D02*
X227940300Y-148242600D01*
X223718600Y-136049000D02*
X227940300Y-140270700D01*
X217687400Y-136049000D02*
X223718600Y-136049000D01*
X215264900Y-133626500D02*
X217687400Y-136049000D01*
X215264900Y-107678500D02*
X215264900Y-133626500D01*
X201089400Y-93503000D02*
X215264900Y-107678500D01*
X201089400Y-87004300D02*
X201089400Y-93503000D01*
%TO.N,/PSG/SPAREB*%
X106550300Y-159824400D02*
X105425000Y-160949700D01*
X106550300Y-132669700D02*
X106550300Y-159824400D01*
X111025500Y-128194500D02*
X106550300Y-132669700D01*
X111025500Y-82427000D02*
X111025500Y-128194500D01*
X112250000Y-81202500D02*
X111025500Y-82427000D01*
X105425000Y-162075000D02*
X105425000Y-160949700D01*
%TO.N,/PSG/SPAREA*%
X126870300Y-159824400D02*
X125745000Y-160949700D01*
X126870300Y-145805400D02*
X126870300Y-159824400D01*
X129251500Y-143424200D02*
X126870300Y-145805400D01*
X129251500Y-138622200D02*
X129251500Y-143424200D01*
X130756900Y-137116800D02*
X129251500Y-138622200D01*
X130756900Y-123746700D02*
X130756900Y-137116800D01*
X120680400Y-113670200D02*
X130756900Y-123746700D01*
X120680400Y-85430600D02*
X120680400Y-113670200D01*
X117722300Y-82472500D02*
X120680400Y-85430600D01*
X114315900Y-82472500D02*
X117722300Y-82472500D01*
X113614600Y-81771200D02*
X114315900Y-82472500D01*
X113614600Y-80869400D02*
X113614600Y-81771200D01*
X112736300Y-79991100D02*
X113614600Y-80869400D01*
X110921400Y-79991100D02*
X112736300Y-79991100D01*
X109710000Y-81202500D02*
X110921400Y-79991100D01*
X125745000Y-162075000D02*
X125745000Y-160949700D01*
%TO.N,Net-(P8-Pad10)*%
X86452300Y-187175300D02*
X86085000Y-187175300D01*
X89080000Y-189803000D02*
X86452300Y-187175300D01*
X89080000Y-193180000D02*
X89080000Y-189803000D01*
X86085000Y-186000000D02*
X86085000Y-187175300D01*
%TO.N,Net-(P8-Pad9)*%
X84909700Y-188882600D02*
X84909700Y-188540000D01*
X81737600Y-192054700D02*
X84909700Y-188882600D01*
X81460000Y-192054700D02*
X81737600Y-192054700D01*
X81460000Y-193180000D02*
X81460000Y-192054700D01*
X86085000Y-188540000D02*
X84909700Y-188540000D01*
%TO.N,Net-(P8-Pad7)*%
X83545000Y-186000000D02*
X83545000Y-188540000D01*
X137859200Y-148546100D02*
X137859200Y-152988200D01*
X138445000Y-147960300D02*
X137859200Y-148546100D01*
X87935600Y-180434100D02*
X83545000Y-184824700D01*
X87935600Y-178712300D02*
X87935600Y-180434100D01*
X83545000Y-186000000D02*
X83545000Y-184824700D01*
X138445000Y-146835000D02*
X138445000Y-147960300D01*
%TO.N,Net-(P8-Pad4)*%
X121600000Y-142955300D02*
X121600000Y-143700000D01*
X127350000Y-137205300D02*
X121600000Y-142955300D01*
X127350000Y-136080000D02*
X127350000Y-137205300D01*
X78465000Y-179393500D02*
X78465000Y-186000000D01*
X80683300Y-177175200D02*
X78465000Y-179393500D01*
%TO.N,Net-(P8-Pad2)*%
X97805000Y-144495000D02*
X97805000Y-146835000D01*
X98600000Y-143700000D02*
X97805000Y-144495000D01*
X92850000Y-136080000D02*
X92850000Y-137205300D01*
X94173900Y-139273900D02*
X98600000Y-143700000D01*
X94173900Y-138529200D02*
X94173900Y-139273900D01*
X92850000Y-137205300D02*
X94173900Y-138529200D01*
X75925000Y-158825300D02*
X75925000Y-186000000D01*
X87915200Y-146835100D02*
X75925000Y-158825300D01*
X87915200Y-145532600D02*
X87915200Y-146835100D01*
X94173900Y-139273900D02*
X87915200Y-145532600D01*
%TO.N,Net-(P8-Pad1)*%
X101615000Y-157139700D02*
X97805000Y-160949700D01*
X101615000Y-146435000D02*
X101615000Y-157139700D01*
X104350000Y-143700000D02*
X101615000Y-146435000D01*
X97805000Y-162075000D02*
X97805000Y-160949700D01*
X78832400Y-187364700D02*
X78465000Y-187364700D01*
X79640300Y-186556800D02*
X78832400Y-187364700D01*
X79640300Y-183641800D02*
X79640300Y-186556800D01*
X86333300Y-176948800D02*
X79640300Y-183641800D01*
X78465000Y-188540000D02*
X78465000Y-187364700D01*
%TO.N,/PSG/CLK_AY3*%
X80637600Y-187175300D02*
X81005000Y-187175300D01*
X79829700Y-187983200D02*
X80637600Y-187175300D01*
X79829700Y-188865200D02*
X79829700Y-187983200D01*
X78121700Y-190573200D02*
X79829700Y-188865200D01*
X74790000Y-190573200D02*
X78121700Y-190573200D01*
X72668500Y-192694700D02*
X74790000Y-190573200D01*
X72668500Y-198503200D02*
X72668500Y-192694700D01*
X73840000Y-199674700D02*
X72668500Y-198503200D01*
X73840000Y-200800000D02*
X73840000Y-199674700D01*
X81005000Y-186000000D02*
X81005000Y-187175300D01*
%TO.N,/VDP/CBDR*%
X175992600Y-169983300D02*
X176380700Y-170371400D01*
X175992600Y-164825600D02*
X175992600Y-169983300D01*
X177550800Y-163267400D02*
X175992600Y-164825600D01*
%TO.N,/VDP/C7*%
X185071100Y-168530500D02*
X187137500Y-170596900D01*
X185071100Y-167186700D02*
X185071100Y-168530500D01*
%TO.N,/VDP/C6*%
X191121500Y-167136400D02*
X191121500Y-171322200D01*
X188550000Y-164564900D02*
X191121500Y-167136400D01*
X182508500Y-164564900D02*
X188550000Y-164564900D01*
X181211000Y-163267400D02*
X182508500Y-164564900D01*
%TO.N,/VDP/C5*%
X216723400Y-164511500D02*
X215125000Y-166109900D01*
X216723400Y-162525400D02*
X216723400Y-164511500D01*
X215585000Y-161387000D02*
X216723400Y-162525400D01*
X184871900Y-161387000D02*
X215585000Y-161387000D01*
X182991500Y-163267400D02*
X184871900Y-161387000D01*
%TO.N,/VDP/C1*%
X199205000Y-165983700D02*
X199205000Y-167985000D01*
X198587700Y-165366400D02*
X199205000Y-165983700D01*
%TO.N,/VDP/C0*%
X198837600Y-169349700D02*
X199205000Y-169349700D01*
X198029700Y-168541800D02*
X198837600Y-169349700D01*
X198029700Y-166183700D02*
X198029700Y-168541800D01*
X196156600Y-164310600D02*
X198029700Y-166183700D01*
X199205000Y-170525000D02*
X199205000Y-169349700D01*
%TO.N,AUDIO_R*%
X119412300Y-116172500D02*
X128189800Y-124950000D01*
X119412300Y-85824800D02*
X119412300Y-116172500D01*
X117330000Y-83742500D02*
X119412300Y-85824800D01*
%TO.N,/VDP/YS*%
X226454500Y-96985500D02*
X226454500Y-85556200D01*
X223940000Y-99500000D02*
X226454500Y-96985500D01*
%TO.N,/VDP/AV*%
X223940000Y-85468100D02*
X223940000Y-93500000D01*
X226391900Y-83016200D02*
X223940000Y-85468100D01*
X228954500Y-83016200D02*
X226391900Y-83016200D01*
%TO.N,CLK*%
X90220000Y-221430300D02*
X90220000Y-223000000D01*
X88965000Y-220175300D02*
X90220000Y-221430300D01*
X88965000Y-219000000D02*
X88965000Y-220175300D01*
%TO.N,VRY_CLK*%
X86425000Y-219000000D02*
X85249700Y-219000000D01*
X82930000Y-219000000D02*
X85249700Y-219000000D01*
X82930000Y-207775300D02*
X82930000Y-219000000D01*
X81660000Y-206505300D02*
X82930000Y-207775300D01*
X81660000Y-205380000D02*
X81660000Y-206505300D01*
X82291300Y-219638700D02*
X79436000Y-219638700D01*
X82930000Y-219000000D02*
X82291300Y-219638700D01*
%TO.N,Net-(JP4-Pad2)*%
X128571800Y-145709700D02*
X129645700Y-144635800D01*
X128285000Y-145709700D02*
X128571800Y-145709700D01*
X128285000Y-146835000D02*
X128285000Y-145709700D01*
%TO.N,~{WAIT}*%
X75550000Y-221030000D02*
X77520000Y-223000000D01*
X72339500Y-221030000D02*
X75550000Y-221030000D01*
X53990300Y-202680800D02*
X72339500Y-221030000D01*
X53990300Y-191100600D02*
X53990300Y-202680800D01*
X52815000Y-189925300D02*
X53990300Y-191100600D01*
X52815000Y-188750000D02*
X52815000Y-189925300D01*
%TO.N,Net-(JP2-Pad1)*%
X51409400Y-191059700D02*
X50275000Y-189925300D01*
X51409400Y-198480300D02*
X51409400Y-191059700D01*
X50215000Y-199674700D02*
X51409400Y-198480300D01*
X50215000Y-200800000D02*
X50215000Y-199674700D01*
X50275000Y-188750000D02*
X50275000Y-189925300D01*
%TO.N,Net-(JP1-Pad3)*%
X246750000Y-171060000D02*
X246750000Y-169055000D01*
X240750000Y-177060000D02*
X246750000Y-171060000D01*
%TO.N,Net-(JP1-Pad1)*%
X137773600Y-190516100D02*
X137773600Y-189757100D01*
X136135000Y-192154700D02*
X137773600Y-190516100D01*
X246382600Y-165150300D02*
X246750000Y-165150300D01*
X245574700Y-165958200D02*
X246382600Y-165150300D01*
X245574700Y-167013800D02*
X245574700Y-165958200D01*
X237785800Y-174802700D02*
X245574700Y-167013800D01*
X246750000Y-163975000D02*
X246750000Y-165150300D01*
X136135000Y-193280000D02*
X136135000Y-192154700D01*
%TO.N,Net-(J11-Pad6)*%
X163646900Y-82385600D02*
X164830000Y-81202500D01*
X163646900Y-86241600D02*
X163646900Y-82385600D01*
X164255000Y-86849700D02*
X163646900Y-86241600D01*
X164255000Y-88025000D02*
X164255000Y-86849700D01*
%TO.N,Net-(J11-Pad4)*%
X162290000Y-86274700D02*
X162290000Y-83742500D01*
X161715000Y-86849700D02*
X162290000Y-86274700D01*
X161715000Y-88025000D02*
X161715000Y-86849700D01*
%TO.N,Net-(J11-Pad2)*%
X159175000Y-84317500D02*
X159750000Y-83742500D01*
X159175000Y-88025000D02*
X159175000Y-84317500D01*
%TO.N,/PSG/JOYBH*%
X154910000Y-109837600D02*
X153495000Y-111252600D01*
X154910000Y-96005300D02*
X154910000Y-109837600D01*
X159175000Y-91740300D02*
X154910000Y-96005300D01*
X107965000Y-162075000D02*
X107965000Y-160949700D01*
X159175000Y-90565000D02*
X159175000Y-91740300D01*
X127694800Y-133488900D02*
X127694800Y-131602000D01*
X115904200Y-145279500D02*
X127694800Y-133488900D01*
X115506800Y-145279500D02*
X115904200Y-145279500D01*
X114315000Y-146471300D02*
X115506800Y-145279500D01*
X114315000Y-154599700D02*
X114315000Y-146471300D01*
X107965000Y-160949700D02*
X114315000Y-154599700D01*
%TO.N,/PSG/POTA1*%
X130910000Y-89295000D02*
X130910000Y-90470300D01*
X138776400Y-182186400D02*
X145590000Y-189000000D01*
X131358600Y-182186400D02*
X138776400Y-182186400D01*
X130550400Y-182994600D02*
X131358600Y-182186400D01*
X130550400Y-183856400D02*
X130550400Y-182994600D01*
X129811800Y-184595000D02*
X130550400Y-183856400D01*
X128838300Y-184595000D02*
X129811800Y-184595000D01*
X128130000Y-183886700D02*
X128838300Y-184595000D01*
X128130000Y-182275000D02*
X128130000Y-183886700D01*
X129649700Y-180755300D02*
X128130000Y-182275000D01*
X129649700Y-146241000D02*
X129649700Y-180755300D01*
X130889000Y-145001700D02*
X129649700Y-146241000D01*
X130889000Y-137939900D02*
X130889000Y-145001700D01*
X132156900Y-136672000D02*
X130889000Y-137939900D01*
X132156900Y-99793100D02*
X132156900Y-136672000D01*
X130910000Y-98546200D02*
X132156900Y-99793100D01*
X130910000Y-90470300D02*
X130910000Y-98546200D01*
%TO.N,/PSG/JOYBG*%
X153255000Y-89290000D02*
X153255000Y-90465300D01*
X144589500Y-151562100D02*
X142802300Y-153349300D01*
X144589500Y-137216100D02*
X144589500Y-151562100D01*
X148756100Y-133049500D02*
X144589500Y-137216100D01*
X148756100Y-94964200D02*
X148756100Y-133049500D01*
X153255000Y-90465300D02*
X148756100Y-94964200D01*
%TO.N,Net-(D4-Pad1)*%
X57835000Y-83910300D02*
X57835000Y-193180000D01*
X56250000Y-82325300D02*
X57835000Y-83910300D01*
X56250000Y-81100000D02*
X56250000Y-82325300D01*
%TO.N,Net-(D2-Pad2)*%
X60710000Y-88140000D02*
X62190000Y-89620000D01*
X60710000Y-81100000D02*
X60710000Y-88140000D01*
%TO.N,Net-(D2-Pad1)*%
X56420300Y-201081400D02*
X56420300Y-200800000D01*
X57264200Y-201925300D02*
X56420300Y-201081400D01*
X58301500Y-201925300D02*
X57264200Y-201925300D01*
X59105000Y-201121800D02*
X58301500Y-201925300D01*
X59105000Y-94329700D02*
X59105000Y-201121800D01*
X63329500Y-90105200D02*
X59105000Y-94329700D01*
X63329500Y-82404800D02*
X63329500Y-90105200D01*
X63250000Y-82325300D02*
X63329500Y-82404800D01*
X63250000Y-81100000D02*
X63250000Y-82325300D01*
X55295000Y-200800000D02*
X56420300Y-200800000D01*
%TO.N,Net-(C85-Pad2)*%
X163699700Y-198549400D02*
X164825000Y-199674700D01*
X163699700Y-190615000D02*
X163699700Y-198549400D01*
X163210000Y-190125300D02*
X163699700Y-190615000D01*
X163210000Y-189000000D02*
X163210000Y-190125300D01*
X164825000Y-200800000D02*
X164825000Y-199674700D01*
X167484700Y-184400000D02*
X172084700Y-189000000D01*
X166900000Y-184400000D02*
X167484700Y-184400000D01*
X173210000Y-189000000D02*
X172084700Y-189000000D01*
%TO.N,Net-(C85-Pad1)*%
X166239700Y-198549400D02*
X167365000Y-199674700D01*
X166239700Y-191642900D02*
X166239700Y-198549400D01*
X164400000Y-189803200D02*
X166239700Y-191642900D01*
X164400000Y-186900000D02*
X164400000Y-189803200D01*
X161900000Y-184400000D02*
X164400000Y-186900000D01*
X167365000Y-200800000D02*
X167365000Y-199674700D01*
%TO.N,Net-(C84-Pad2)*%
X156969900Y-192054700D02*
X157205000Y-192054700D01*
X154335300Y-189420100D02*
X156969900Y-192054700D01*
X154335300Y-189000000D02*
X154335300Y-189420100D01*
X157205000Y-193180000D02*
X157205000Y-192054700D01*
X153210000Y-189000000D02*
X154335300Y-189000000D01*
%TO.N,Net-(C84-Pad1)*%
X151900000Y-189289700D02*
X154665000Y-192054700D01*
X151900000Y-184400000D02*
X151900000Y-189289700D01*
X154665000Y-193180000D02*
X154665000Y-192054700D01*
%TO.N,AUDIO_L*%
X109710000Y-99290000D02*
X109710000Y-83742500D01*
X107300000Y-101700000D02*
X109710000Y-99290000D01*
D41*
%TO.N,/Amplifier/AMPPWR*%
X114242400Y-100450400D02*
X116992000Y-103200000D01*
X114242400Y-91174900D02*
X114242400Y-100450400D01*
X114372000Y-91045300D02*
X114242400Y-91174900D01*
X114372000Y-89545000D02*
X114372000Y-91045300D01*
X143121100Y-105218900D02*
X145110000Y-103230000D01*
X143121100Y-148054300D02*
X143121100Y-105218900D01*
X140829400Y-150346000D02*
X143121100Y-148054300D01*
X140829400Y-157662000D02*
X140829400Y-150346000D01*
X145089200Y-161921800D02*
X140829400Y-157662000D01*
X145089200Y-168665500D02*
X145089200Y-161921800D01*
X150302700Y-173879000D02*
X145089200Y-168665500D01*
X150302700Y-201572800D02*
X150302700Y-173879000D01*
X151480600Y-202750700D02*
X150302700Y-201572800D01*
X160654000Y-202750700D02*
X151480600Y-202750700D01*
X164563600Y-206660300D02*
X160654000Y-202750700D01*
X164563600Y-211974500D02*
X164563600Y-206660300D01*
X169288800Y-216699700D02*
X164563600Y-211974500D01*
D42*
%TO.N,Net-(C81-Pad1)*%
X125029600Y-129200000D02*
X125689800Y-128539800D01*
X120140000Y-129200000D02*
X125029600Y-129200000D01*
X125689800Y-128539800D02*
X125689800Y-124950000D01*
X129600000Y-132450000D02*
X125689800Y-128539800D01*
X115565300Y-131740000D02*
X117600000Y-131740000D01*
X111225300Y-136080000D02*
X115565300Y-131740000D01*
X110100000Y-136080000D02*
X111225300Y-136080000D01*
%TO.N,Net-(C80-Pad2)*%
X104390000Y-131740000D02*
X106930000Y-129200000D01*
X93599800Y-130700200D02*
X93599800Y-124450000D01*
X92350000Y-131950000D02*
X93599800Y-130700200D01*
%TO.N,Net-(C61-Pad1)*%
X258564700Y-124295300D02*
X259567600Y-124295300D01*
X253250000Y-129610000D02*
X258564700Y-124295300D01*
X259567600Y-123170000D02*
X259567600Y-124295300D01*
%TO.N,/VDP/LUMA*%
X254817600Y-106231300D02*
X254817600Y-123170000D01*
X224594500Y-76008200D02*
X254817600Y-106231300D01*
X201399100Y-76008200D02*
X224594500Y-76008200D01*
X199319600Y-78087700D02*
X201399100Y-76008200D01*
X194722000Y-78087700D02*
X199319600Y-78087700D01*
X194330800Y-77696500D02*
X194722000Y-78087700D01*
X189153500Y-77696500D02*
X194330800Y-77696500D01*
X185600000Y-81250000D02*
X189153500Y-77696500D01*
%TO.N,Net-(C60-Pad1)*%
X252317600Y-124542400D02*
X252317600Y-123170000D01*
X247250000Y-129610000D02*
X252317600Y-124542400D01*
%TO.N,/VDP/COMP*%
X196385000Y-90584000D02*
X203500000Y-83469000D01*
X196385000Y-92416000D02*
X196385000Y-90584000D01*
X195640600Y-93160400D02*
X196385000Y-92416000D01*
X194778600Y-93160400D02*
X195640600Y-93160400D01*
X193939600Y-93999400D02*
X194778600Y-93160400D01*
X193939600Y-96993700D02*
X193939600Y-93999400D01*
X198685400Y-101739500D02*
X193939600Y-96993700D01*
X198685400Y-106564600D02*
X198685400Y-101739500D01*
X197250000Y-108000000D02*
X198685400Y-106564600D01*
%TO.N,Net-(C59-Pad1)*%
X245135200Y-125724800D02*
X245135200Y-123170000D01*
X241250000Y-129610000D02*
X245135200Y-125724800D01*
%TO.N,/VDP/BOUT*%
X240385200Y-100706400D02*
X229652500Y-89973700D01*
X240385200Y-123170000D02*
X240385200Y-100706400D01*
X229652500Y-88714200D02*
X229652500Y-89973700D01*
X228954500Y-88016200D02*
X229652500Y-88714200D01*
X227752700Y-91873500D02*
X227204100Y-91873500D01*
X229652500Y-89973700D02*
X227752700Y-91873500D01*
%TO.N,Net-(C58-Pad1)*%
X235250000Y-126930500D02*
X235250000Y-129610000D01*
X237885200Y-124295300D02*
X235250000Y-126930500D01*
X237885200Y-123170000D02*
X237885200Y-124295300D01*
%TO.N,/VDP/GOUT*%
X231987500Y-122044600D02*
X233112900Y-123170000D01*
X228602200Y-122044600D02*
X231987500Y-122044600D01*
X226351400Y-124295400D02*
X228602200Y-122044600D01*
X225405600Y-124295400D02*
X226351400Y-124295400D01*
X224510600Y-123400400D02*
X225405600Y-124295400D01*
X224510600Y-106560600D02*
X224510600Y-123400400D01*
X218575400Y-100625400D02*
X224510600Y-106560600D01*
X218575400Y-92637100D02*
X218575400Y-100625400D01*
X213954500Y-88016200D02*
X218575400Y-92637100D01*
%TO.N,Net-(C57-Pad1)*%
X230612900Y-128247100D02*
X230612900Y-123170000D01*
X229250000Y-129610000D02*
X230612900Y-128247100D01*
%TO.N,/VDP/ROUT*%
X225885200Y-103063000D02*
X225885200Y-123170000D01*
X222750000Y-99927800D02*
X225885200Y-103063000D01*
X222750000Y-89311700D02*
X222750000Y-99927800D01*
X221454500Y-88016200D02*
X222750000Y-89311700D01*
%TO.N,Net-(C56-Pad1)*%
X223385200Y-129474800D02*
X223385200Y-123170000D01*
X223250000Y-129610000D02*
X223385200Y-129474800D01*
%TO.N,Net-(C55-Pad1)*%
X256250000Y-146270300D02*
X252215000Y-142235300D01*
X256250000Y-150500000D02*
X256250000Y-146270300D01*
X252215000Y-141110000D02*
X252215000Y-142235300D01*
X259250000Y-132949700D02*
X252215000Y-139984700D01*
X259250000Y-129750000D02*
X259250000Y-132949700D01*
X252215000Y-141110000D02*
X252215000Y-139984700D01*
%TO.N,Net-(C53-Pad1)*%
X155500000Y-141070000D02*
X155500000Y-137500000D01*
X153750000Y-142820000D02*
X155500000Y-141070000D01*
%TO.N,Net-(C52-Pad1)*%
X153750000Y-153389900D02*
X153750000Y-147700000D01*
X155360100Y-155000000D02*
X153750000Y-153389900D01*
%TO.N,Net-(C51-Pad1)*%
X242336300Y-142235300D02*
X242055000Y-142235300D01*
X250945000Y-150844000D02*
X242336300Y-142235300D01*
X250945000Y-152865000D02*
X250945000Y-150844000D01*
X252750000Y-154670000D02*
X250945000Y-152865000D01*
X242055000Y-141110000D02*
X242055000Y-142235300D01*
%TO.N,Net-(C50-Pad1)*%
X244595000Y-152515000D02*
X244595000Y-151270000D01*
X246750000Y-154670000D02*
X244595000Y-152515000D01*
%TO.N,~{IEO}*%
X53390000Y-224270000D02*
X52120000Y-225540000D01*
X55091000Y-224270000D02*
X53390000Y-224270000D01*
X55835400Y-223525600D02*
X55091000Y-224270000D01*
X55835400Y-222509000D02*
X55835400Y-223525600D01*
X54799300Y-221472900D02*
X55835400Y-222509000D01*
X54541900Y-221472900D02*
X54799300Y-221472900D01*
X52375300Y-219306300D02*
X54541900Y-221472900D01*
X52375300Y-219000000D02*
X52375300Y-219306300D01*
X51200000Y-219000000D02*
X52375300Y-219000000D01*
%TO.N,Net-(C49-Pad1)*%
X238100300Y-149019400D02*
X236975000Y-150144700D01*
X238100300Y-140924500D02*
X238100300Y-149019400D01*
X239067500Y-139957300D02*
X238100300Y-140924500D01*
X239954000Y-139957300D02*
X239067500Y-139957300D01*
X240785000Y-140788300D02*
X239954000Y-139957300D01*
X240785000Y-141820000D02*
X240785000Y-140788300D01*
X243180500Y-144215500D02*
X240785000Y-141820000D01*
X243180500Y-153998000D02*
X243180500Y-144215500D01*
X238552200Y-158626300D02*
X243180500Y-153998000D01*
X238552200Y-166052200D02*
X238552200Y-158626300D01*
X238750000Y-166250000D02*
X238552200Y-166052200D01*
X236975000Y-151270000D02*
X236975000Y-150144700D01*
%TO.N,~{RES_IN}*%
X86410000Y-224270000D02*
X85140000Y-225540000D01*
X90685600Y-224270000D02*
X86410000Y-224270000D01*
X91395400Y-223560200D02*
X90685600Y-224270000D01*
X91395400Y-221904300D02*
X91395400Y-223560200D01*
X94299700Y-219000000D02*
X91395400Y-221904300D01*
X95475000Y-219000000D02*
X94299700Y-219000000D01*
%TO.N,/VDP/SYNCIN*%
X128515000Y-187915300D02*
X131855000Y-184575300D01*
X128515000Y-193280000D02*
X128515000Y-187915300D01*
X131855000Y-183400000D02*
X131855000Y-184575300D01*
X247135000Y-151270000D02*
X247135000Y-152395300D01*
X246750000Y-166515000D02*
X247925300Y-166515000D01*
X247925300Y-165924700D02*
X247925300Y-166515000D01*
X251850000Y-162000000D02*
X247925300Y-165924700D01*
X252750000Y-162000000D02*
X251850000Y-162000000D01*
X251557500Y-156817800D02*
X247135000Y-152395300D01*
X251557500Y-161707500D02*
X251557500Y-156817800D01*
X251850000Y-162000000D02*
X251557500Y-161707500D01*
X174665700Y-159212700D02*
X171855600Y-162022800D01*
X197704400Y-159212700D02*
X174665700Y-159212700D01*
%TO.N,Net-(C45-Pad2)*%
X232475300Y-152395300D02*
X231895000Y-152395300D01*
X234750000Y-154670000D02*
X232475300Y-152395300D01*
X231895000Y-151270000D02*
X231895000Y-152395300D01*
%TO.N,Net-(C44-Pad2)*%
X229355000Y-154315000D02*
X229355000Y-151270000D01*
X229000000Y-154670000D02*
X229355000Y-154315000D01*
%TO.N,Net-(C43-Pad2)*%
X225689700Y-152230300D02*
X223250000Y-154670000D01*
X225689700Y-151270000D02*
X225689700Y-152230300D01*
X226815000Y-151270000D02*
X225689700Y-151270000D01*
%TO.N,/VDP/RED*%
X223250000Y-159670000D02*
X223250000Y-162000000D01*
X222968600Y-168314700D02*
X223250000Y-168314700D01*
X222124700Y-167470800D02*
X222968600Y-168314700D01*
X222124700Y-163125300D02*
X222124700Y-167470800D01*
X223250000Y-162000000D02*
X222124700Y-163125300D01*
X223250000Y-169440000D02*
X223250000Y-168314700D01*
%TO.N,bA3*%
X188696700Y-211641700D02*
X189855000Y-212800000D01*
X176670700Y-211641700D02*
X188696700Y-211641700D01*
X175885000Y-212427400D02*
X176670700Y-211641700D01*
X175885000Y-213180400D02*
X175885000Y-212427400D01*
X171525400Y-217540000D02*
X175885000Y-213180400D01*
X168957400Y-217540000D02*
X171525400Y-217540000D01*
X158570000Y-207152600D02*
X168957400Y-217540000D01*
X158570000Y-205380000D02*
X158570000Y-207152600D01*
%TO.N,bA1*%
X201735000Y-180635000D02*
X201735000Y-179459700D01*
X148410000Y-205380000D02*
X148410000Y-204254700D01*
X201115300Y-178840000D02*
X201735000Y-179459700D01*
X201115300Y-175889400D02*
X201115300Y-178840000D01*
X205555000Y-171449700D02*
X201115300Y-175889400D01*
X205555000Y-165451100D02*
X205555000Y-171449700D01*
X207718400Y-163287700D02*
X205555000Y-165451100D01*
X149477400Y-203187300D02*
X148410000Y-204254700D01*
X149477400Y-183827700D02*
X149477400Y-203187300D01*
X149188500Y-183538800D02*
X149477400Y-183827700D01*
%TO.N,~{bIORQ}*%
X92945300Y-213284400D02*
X92945300Y-213000000D01*
X95611500Y-215950600D02*
X92945300Y-213284400D01*
X91820000Y-213000000D02*
X92945300Y-213000000D01*
%TO.N,~{bM1}*%
X174615000Y-212800000D02*
X174615000Y-211674700D01*
X173799400Y-211674700D02*
X170390400Y-208265700D01*
X174615000Y-211674700D02*
X173799400Y-211674700D01*
%TO.N,~{bRESET}*%
X75454700Y-207630600D02*
X76580000Y-206505300D01*
X75454700Y-214717700D02*
X75454700Y-207630600D01*
X73829300Y-216343100D02*
X75454700Y-214717700D01*
X73829300Y-219459400D02*
X73829300Y-216343100D01*
X74906700Y-220536800D02*
X73829300Y-219459400D01*
X75722000Y-220536800D02*
X74906700Y-220536800D01*
X76633700Y-221448500D02*
X75722000Y-220536800D01*
X80226100Y-221448500D02*
X76633700Y-221448500D01*
X81330000Y-222552400D02*
X80226100Y-221448500D01*
X81330000Y-223394300D02*
X81330000Y-222552400D01*
X82300300Y-224364600D02*
X81330000Y-223394300D01*
X83183500Y-224364600D02*
X82300300Y-224364600D01*
X83870000Y-225051100D02*
X83183500Y-224364600D01*
X83870000Y-225933800D02*
X83870000Y-225051100D01*
X85855900Y-227919700D02*
X83870000Y-225933800D01*
X196418500Y-227919700D02*
X85855900Y-227919700D01*
X198310000Y-226028200D02*
X196418500Y-227919700D01*
X198310000Y-225144600D02*
X198310000Y-226028200D01*
X199184600Y-224270000D02*
X198310000Y-225144600D01*
X200011000Y-224270000D02*
X199184600Y-224270000D01*
X200755400Y-223525600D02*
X200011000Y-224270000D01*
X200755400Y-222464400D02*
X200755400Y-223525600D01*
X206737500Y-216482300D02*
X200755400Y-222464400D01*
X206737500Y-203537800D02*
X206737500Y-216482300D01*
X205125000Y-201925300D02*
X206737500Y-203537800D01*
X205125000Y-200800000D02*
X205125000Y-201925300D01*
X76580000Y-205380000D02*
X76580000Y-206505300D01*
%TO.N,bD7*%
X197830300Y-182807600D02*
X197830300Y-183175000D01*
X198638200Y-181999700D02*
X197830300Y-182807600D01*
X209671500Y-181999700D02*
X198638200Y-181999700D01*
X210625000Y-181046200D02*
X209671500Y-181999700D01*
X210625000Y-180004800D02*
X210625000Y-181046200D01*
X213084100Y-177545700D02*
X210625000Y-180004800D01*
X213084100Y-165044200D02*
X213084100Y-177545700D01*
X214840600Y-163287700D02*
X213084100Y-165044200D01*
X196655000Y-183175000D02*
X197178200Y-183175000D01*
X197178200Y-183175000D02*
X197830300Y-183175000D01*
X227309700Y-205461300D02*
X227309700Y-205180000D01*
X225490000Y-207281000D02*
X227309700Y-205461300D01*
X211131900Y-207281000D02*
X225490000Y-207281000D01*
X209385000Y-205534100D02*
X211131900Y-207281000D01*
X209385000Y-202989700D02*
X209385000Y-205534100D01*
X208790400Y-202395100D02*
X209385000Y-202989700D01*
X208790400Y-200022300D02*
X208790400Y-202395100D01*
X197586500Y-188818400D02*
X208790400Y-200022300D01*
X197586500Y-183583300D02*
X197586500Y-188818400D01*
X197178200Y-183175000D02*
X197586500Y-183583300D01*
X228435000Y-205180000D02*
X227309700Y-205180000D01*
X203324100Y-159407000D02*
X193971000Y-150053900D01*
X203324100Y-160514400D02*
X203324100Y-159407000D01*
%TO.N,bA0*%
X206815000Y-180635000D02*
X206815000Y-179459700D01*
X143330000Y-205380000D02*
X143330000Y-204254700D01*
X206815000Y-176700400D02*
X206815000Y-179459700D01*
X208095000Y-175420400D02*
X206815000Y-176700400D01*
X208095000Y-164691700D02*
X208095000Y-175420400D01*
X209499000Y-163287700D02*
X208095000Y-164691700D01*
X148434700Y-183266600D02*
X149181600Y-182519700D01*
X148434700Y-188827500D02*
X148434700Y-183266600D01*
X149027100Y-189419900D02*
X148434700Y-188827500D01*
X149027100Y-197367600D02*
X149027100Y-189419900D01*
X145149800Y-201244900D02*
X149027100Y-197367600D01*
X145149800Y-202434900D02*
X145149800Y-201244900D01*
X143330000Y-204254700D02*
X145149800Y-202434900D01*
%TO.N,bD0*%
X214435000Y-183175000D02*
X214435000Y-181999700D01*
X202651400Y-193246400D02*
X202651400Y-188382200D01*
X210205000Y-200800000D02*
X202651400Y-193246400D01*
X204242300Y-146242900D02*
X202209200Y-144209800D01*
X204242300Y-148569800D02*
X204242300Y-146242900D01*
X217624100Y-161951600D02*
X204242300Y-148569800D01*
X217624100Y-164967800D02*
X217624100Y-161951600D01*
X216471600Y-166120300D02*
X217624100Y-164967800D01*
X216471600Y-166684300D02*
X216471600Y-166120300D01*
X215274600Y-167881300D02*
X216471600Y-166684300D01*
X215274600Y-173788300D02*
X215274600Y-167881300D01*
X215610300Y-174124000D02*
X215274600Y-173788300D01*
X215610300Y-181191800D02*
X215610300Y-174124000D01*
X214802400Y-181999700D02*
X215610300Y-181191800D01*
X214435000Y-181999700D02*
X214802400Y-181999700D01*
%TO.N,bD1*%
X211895000Y-183175000D02*
X213070300Y-183175000D01*
X213195000Y-205180000D02*
X213195000Y-204054700D01*
X212745000Y-203604700D02*
X212745000Y-200800000D01*
X213195000Y-204054700D02*
X212745000Y-203604700D01*
X212745000Y-200800000D02*
X212745000Y-199674700D01*
X204692600Y-144912700D02*
X203989700Y-144209800D01*
X204692600Y-148308700D02*
X204692600Y-144912700D01*
X218074400Y-161690500D02*
X204692600Y-148308700D01*
X218074400Y-165154400D02*
X218074400Y-161690500D01*
X217624100Y-165604700D02*
X218074400Y-165154400D01*
X217624100Y-181691800D02*
X217624100Y-165604700D01*
X214965600Y-184350300D02*
X217624100Y-181691800D01*
X213878200Y-184350300D02*
X214965600Y-184350300D01*
X213070300Y-183542400D02*
X213878200Y-184350300D01*
X213070300Y-183175000D02*
X213070300Y-183542400D01*
X208846200Y-187327600D02*
X207309700Y-185791100D01*
X208846200Y-195775900D02*
X208846200Y-187327600D01*
X212745000Y-199674700D02*
X208846200Y-195775900D01*
%TO.N,bD2*%
X209355000Y-183175000D02*
X209355000Y-184350300D01*
X209848200Y-184843500D02*
X209355000Y-184350300D01*
X215173700Y-184843500D02*
X209848200Y-184843500D01*
X217825000Y-200800000D02*
X217825000Y-199674700D01*
X218965500Y-198534200D02*
X217825000Y-199674700D01*
X218965500Y-189787900D02*
X218965500Y-198534200D01*
X215173700Y-185996100D02*
X218965500Y-189787900D01*
X215173700Y-184843500D02*
X215173700Y-185996100D01*
X216438300Y-157699700D02*
X205862700Y-147124100D01*
X218792400Y-157699700D02*
X216438300Y-157699700D01*
X220047500Y-158954800D02*
X218792400Y-157699700D01*
X220047500Y-177750100D02*
X220047500Y-158954800D01*
X219728600Y-178069000D02*
X220047500Y-177750100D01*
X219728600Y-180288600D02*
X219728600Y-178069000D01*
X215173700Y-184843500D02*
X219728600Y-180288600D01*
X205770200Y-147031600D02*
X205862700Y-147124100D01*
X205770200Y-144209800D02*
X205770200Y-147031600D01*
%TO.N,bD3*%
X207990300Y-183689200D02*
X207990300Y-183175000D01*
X216918400Y-192617300D02*
X207990300Y-183689200D01*
X217825000Y-192617300D02*
X216918400Y-192617300D01*
X206815000Y-183175000D02*
X207990300Y-183175000D01*
X217825000Y-192898600D02*
X217825000Y-192617300D01*
X217825000Y-192898600D02*
X217825000Y-193180000D01*
X218275000Y-205180000D02*
X218275000Y-204054700D01*
X217825000Y-193180000D02*
X217825000Y-194305300D01*
X216699700Y-202479400D02*
X218275000Y-204054700D01*
X216699700Y-195430600D02*
X216699700Y-202479400D01*
X217825000Y-194305300D02*
X216699700Y-195430600D01*
X217173800Y-162303000D02*
X203390400Y-148519600D01*
X217173800Y-164781200D02*
X217173800Y-162303000D01*
X216021300Y-165933700D02*
X217173800Y-164781200D01*
X216021300Y-166401800D02*
X216021300Y-165933700D01*
X214802300Y-167620800D02*
X216021300Y-166401800D01*
X214802300Y-178755600D02*
X214802300Y-167620800D01*
X214854800Y-178808100D02*
X214802300Y-178755600D01*
%TO.N,bD4*%
X110505000Y-146835000D02*
X110505000Y-147960300D01*
X219689700Y-205461400D02*
X219689700Y-205180000D01*
X218845800Y-206305300D02*
X219689700Y-205461400D01*
X217783100Y-206305300D02*
X218845800Y-206305300D01*
X217005000Y-205527200D02*
X217783100Y-206305300D01*
X217005000Y-204649800D02*
X217005000Y-205527200D01*
X213870300Y-201515100D02*
X217005000Y-204649800D01*
X213870300Y-195430600D02*
X213870300Y-201515100D01*
X212745000Y-194305300D02*
X213870300Y-195430600D01*
X220815000Y-205180000D02*
X219689700Y-205180000D01*
X212745000Y-193742600D02*
X212745000Y-194305300D01*
X212745000Y-193742600D02*
X212745000Y-193180000D01*
X205450300Y-183542400D02*
X205450300Y-183175000D01*
X206258200Y-184350300D02*
X205450300Y-183542400D01*
X207532800Y-184350300D02*
X206258200Y-184350300D01*
X212745000Y-189562500D02*
X207532800Y-184350300D01*
X212745000Y-193180000D02*
X212745000Y-189562500D01*
X204275000Y-183175000D02*
X205450300Y-183175000D01*
X220178900Y-188523000D02*
X219452600Y-189249300D01*
X220178900Y-178255600D02*
X220178900Y-188523000D01*
X220497800Y-177936700D02*
X220178900Y-178255600D01*
X220497800Y-158767100D02*
X220497800Y-177936700D01*
X218980100Y-157249400D02*
X220497800Y-158767100D01*
X218767900Y-157249400D02*
X218980100Y-157249400D01*
X209328800Y-147810300D02*
X218767900Y-157249400D01*
X209328800Y-144209800D02*
X209328800Y-147810300D01*
X113127800Y-150583100D02*
X113127800Y-151072500D01*
X110505000Y-147960300D02*
X113127800Y-150583100D01*
%TO.N,bD5*%
X201735000Y-183175000D02*
X202910300Y-183175000D01*
X210205000Y-193180000D02*
X210205000Y-192054700D01*
X202910300Y-183525000D02*
X202910300Y-183175000D01*
X204451100Y-185065800D02*
X202910300Y-183525000D01*
X207610200Y-185065800D02*
X204451100Y-185065800D01*
X210204900Y-187660500D02*
X207610200Y-185065800D01*
X210204900Y-192054700D02*
X210204900Y-187660500D01*
X210205000Y-192054700D02*
X210204900Y-192054700D01*
X226889300Y-191601100D02*
X222892900Y-195597500D01*
X226889300Y-155189300D02*
X226889300Y-191601100D01*
X228003700Y-154074900D02*
X226889300Y-155189300D01*
X228003700Y-150185600D02*
X228003700Y-154074900D01*
X227320200Y-149502100D02*
X228003700Y-150185600D01*
%TO.N,bD6*%
X199195000Y-183175000D02*
X199195000Y-184350300D01*
X115585000Y-146835000D02*
X116710300Y-146835000D01*
X225895000Y-205180000D02*
X224769700Y-205180000D01*
X199660100Y-184350300D02*
X199195000Y-184350300D01*
X203376700Y-188066900D02*
X199660100Y-184350300D01*
X203376700Y-193053500D02*
X203376700Y-188066900D01*
X205534500Y-195211300D02*
X203376700Y-193053500D01*
X206213800Y-195211300D02*
X205534500Y-195211300D01*
X211475000Y-200472500D02*
X206213800Y-195211300D01*
X211475000Y-202353500D02*
X211475000Y-200472500D01*
X211886900Y-202765400D02*
X211475000Y-202353500D01*
X211886900Y-205472400D02*
X211886900Y-202765400D01*
X213204300Y-206789800D02*
X211886900Y-205472400D01*
X223441200Y-206789800D02*
X213204300Y-206789800D01*
X224769700Y-205461300D02*
X223441200Y-206789800D01*
X224769700Y-205180000D02*
X224769700Y-205461300D01*
X121910900Y-150834200D02*
X123882400Y-152805700D01*
X121910900Y-146475400D02*
X121910900Y-150834200D01*
X121145200Y-145709700D02*
X121910900Y-146475400D01*
X117554200Y-145709700D02*
X121145200Y-145709700D01*
X116710300Y-146553600D02*
X117554200Y-145709700D01*
X116710300Y-146835000D02*
X116710300Y-146553600D01*
X224769700Y-204284900D02*
X224769700Y-205180000D01*
X221493800Y-201009000D02*
X224769700Y-204284900D01*
X221493800Y-197485400D02*
X221493800Y-201009000D01*
X221166300Y-197157900D02*
X221493800Y-197485400D01*
X221166300Y-196557100D02*
X221166300Y-197157900D01*
X221493800Y-196229600D02*
X221166300Y-196557100D01*
X221493800Y-190297800D02*
X221493800Y-196229600D01*
X220629200Y-189433200D02*
X221493800Y-190297800D01*
X220629200Y-178442200D02*
X220629200Y-189433200D01*
X220948100Y-178123300D02*
X220629200Y-178442200D01*
X220948100Y-158540200D02*
X220948100Y-178123300D01*
X219207000Y-156799100D02*
X220948100Y-158540200D01*
X218984700Y-156799100D02*
X219207000Y-156799100D01*
X212889900Y-150704300D02*
X218984700Y-156799100D01*
X212889900Y-144209800D02*
X212889900Y-150704300D01*
%TO.N,ZERO*%
X73840000Y-193180000D02*
X73840000Y-194305300D01*
X71500000Y-209045300D02*
X71500000Y-213000000D01*
X74040000Y-206505300D02*
X71500000Y-209045300D01*
X74040000Y-205380000D02*
X74040000Y-206505300D01*
X193975300Y-137299400D02*
X192850000Y-138424700D01*
X193975300Y-130520000D02*
X193975300Y-137299400D01*
X192850000Y-129394700D02*
X193975300Y-130520000D01*
X192850000Y-127750000D02*
X192850000Y-129394700D01*
X182765000Y-168000000D02*
X182765000Y-169175300D01*
X180665000Y-192935000D02*
X178125000Y-192935000D01*
X76380000Y-196845300D02*
X76380000Y-200800000D01*
X73840000Y-194305300D02*
X76380000Y-196845300D01*
X76369400Y-201925300D02*
X74040000Y-204254700D01*
X76380000Y-201925300D02*
X76369400Y-201925300D01*
X74040000Y-205380000D02*
X74040000Y-204254700D01*
X76380000Y-200800000D02*
X76380000Y-201925300D01*
X161470000Y-130060300D02*
X161470000Y-127600000D01*
X162442300Y-131032600D02*
X161470000Y-130060300D01*
X162442300Y-137512400D02*
X162442300Y-131032600D01*
X161310000Y-138644700D02*
X162442300Y-137512400D01*
X161310000Y-139770000D02*
X161310000Y-138644700D01*
X185745000Y-183583100D02*
X185745000Y-192935000D01*
X180110100Y-177948200D02*
X185745000Y-183583100D01*
X180110100Y-171830200D02*
X180110100Y-177948200D01*
X182765000Y-169175300D02*
X180110100Y-171830200D01*
X192850000Y-139550000D02*
X192850000Y-138424700D01*
X192850000Y-124644400D02*
X192843900Y-124638300D01*
X192850000Y-127750000D02*
X192850000Y-124644400D01*
X141915300Y-204460600D02*
X143974200Y-202401700D01*
X141915300Y-205380000D02*
X141915300Y-204460600D01*
X139522100Y-148872700D02*
X139973400Y-148421400D01*
X139522100Y-160938000D02*
X139522100Y-148872700D01*
X139715000Y-161130900D02*
X139522100Y-160938000D01*
X139715000Y-164556400D02*
X139715000Y-161130900D01*
X147984300Y-172825700D02*
X139715000Y-164556400D01*
X147984300Y-194574600D02*
X147984300Y-172825700D01*
X148576700Y-195167000D02*
X147984300Y-194574600D01*
X148576700Y-197181100D02*
X148576700Y-195167000D01*
X143974200Y-201783600D02*
X148576700Y-197181100D01*
X143974200Y-202401700D02*
X143974200Y-201783600D01*
X140790000Y-205380000D02*
X141352700Y-205380000D01*
X141352700Y-205380000D02*
X141915300Y-205380000D01*
X138250000Y-208482700D02*
X138250000Y-213000000D01*
X141352700Y-205380000D02*
X138250000Y-208482700D01*
X121013100Y-191913100D02*
X121850000Y-192750000D01*
X120286700Y-191913100D02*
X121013100Y-191913100D01*
X119824600Y-192375200D02*
X120286700Y-191913100D01*
X119824600Y-201171300D02*
X119824600Y-192375200D01*
X120797400Y-202144100D02*
X119824600Y-201171300D01*
X120936500Y-202144100D02*
X120797400Y-202144100D01*
X123944600Y-205152200D02*
X120936500Y-202144100D01*
X123944600Y-205902800D02*
X123944600Y-205152200D01*
X132187400Y-214145600D02*
X123944600Y-205902800D01*
X135979100Y-214145600D02*
X132187400Y-214145600D01*
X137124700Y-213000000D02*
X135979100Y-214145600D01*
X138250000Y-213000000D02*
X137124700Y-213000000D01*
%TO.N,ONE*%
X157205000Y-200800000D02*
X158330300Y-200800000D01*
X158330300Y-201081400D02*
X158330300Y-200800000D01*
X159174200Y-201925300D02*
X158330300Y-201081400D01*
X165303800Y-201925300D02*
X159174200Y-201925300D01*
X166015600Y-201213500D02*
X165303800Y-201925300D01*
X166015600Y-200190400D02*
X166015600Y-201213500D01*
X164825000Y-198999800D02*
X166015600Y-200190400D01*
X164825000Y-193180000D02*
X164825000Y-198999800D01*
X157205000Y-200800000D02*
X157205000Y-199674700D01*
X153197400Y-159977500D02*
X153197400Y-157987100D01*
X151245600Y-161929300D02*
X153197400Y-159977500D01*
X151245600Y-166267000D02*
X151245600Y-161929300D01*
X155080700Y-170102100D02*
X151245600Y-166267000D01*
X157360500Y-170102100D02*
X155080700Y-170102100D01*
X157360500Y-169739500D02*
X157360500Y-170102100D01*
X157850000Y-169250000D02*
X157360500Y-169739500D01*
X160923100Y-195956600D02*
X157205000Y-199674700D01*
X160923100Y-192557900D02*
X160923100Y-195956600D01*
X160195400Y-191830200D02*
X160923100Y-192557900D01*
X160195400Y-178560200D02*
X160195400Y-191830200D01*
X157360500Y-175725300D02*
X160195400Y-178560200D01*
X157360500Y-170102100D02*
X157360500Y-175725300D01*
X130825000Y-155005200D02*
X130825000Y-146835000D01*
X131319100Y-155499300D02*
X130825000Y-155005200D01*
%TO.N,D7*%
X226065300Y-213925300D02*
X235140000Y-223000000D01*
X225895000Y-213925300D02*
X226065300Y-213925300D01*
X225895000Y-212800000D02*
X225895000Y-213925300D01*
%TO.N,D6*%
X223525300Y-213925300D02*
X232600000Y-223000000D01*
X223355000Y-213925300D02*
X223525300Y-213925300D01*
X223355000Y-212800000D02*
X223355000Y-213925300D01*
%TO.N,D5*%
X220985300Y-213925300D02*
X230060000Y-223000000D01*
X220815000Y-213925300D02*
X220985300Y-213925300D01*
X220815000Y-212800000D02*
X220815000Y-213925300D01*
%TO.N,D4*%
X218445300Y-213925300D02*
X227520000Y-223000000D01*
X218275000Y-213925300D02*
X218445300Y-213925300D01*
X218275000Y-212800000D02*
X218275000Y-213925300D01*
%TO.N,D3*%
X215905300Y-213925300D02*
X224980000Y-223000000D01*
X215735000Y-213925300D02*
X215905300Y-213925300D01*
X215735000Y-212800000D02*
X215735000Y-213925300D01*
%TO.N,D2*%
X213365300Y-213925300D02*
X222440000Y-223000000D01*
X213195000Y-213925300D02*
X213365300Y-213925300D01*
X213195000Y-212800000D02*
X213195000Y-213925300D01*
%TO.N,D1*%
X210825300Y-213925300D02*
X219900000Y-223000000D01*
X210655000Y-213925300D02*
X210825300Y-213925300D01*
X210655000Y-212800000D02*
X210655000Y-213925300D01*
%TO.N,D0*%
X208285300Y-213925300D02*
X217360000Y-223000000D01*
X208115000Y-213925300D02*
X208285300Y-213925300D01*
X208115000Y-212800000D02*
X208115000Y-213925300D01*
D41*
%TO.N,+12V*%
X159140000Y-225540000D02*
X159140000Y-223000000D01*
D42*
%TO.N,A7*%
X146995300Y-207630600D02*
X145870000Y-206505300D01*
X146995300Y-221535300D02*
X146995300Y-207630600D01*
X147710000Y-222250000D02*
X146995300Y-221535300D01*
X147710000Y-223394600D02*
X147710000Y-222250000D01*
X148491000Y-224175600D02*
X147710000Y-223394600D01*
X149369100Y-224175600D02*
X148491000Y-224175600D01*
X150250100Y-225056600D02*
X149369100Y-224175600D01*
X150250100Y-225934000D02*
X150250100Y-225056600D01*
X151046700Y-226730600D02*
X150250100Y-225934000D01*
X154543900Y-226730600D02*
X151046700Y-226730600D01*
X155330000Y-225944500D02*
X154543900Y-226730600D01*
X155330000Y-224270000D02*
X155330000Y-225944500D01*
X156600000Y-223000000D02*
X155330000Y-224270000D01*
X145870000Y-205380000D02*
X145870000Y-206505300D01*
%TO.N,A6*%
X152075300Y-221015300D02*
X154060000Y-223000000D01*
X152075300Y-207630600D02*
X152075300Y-221015300D01*
X150950000Y-206505300D02*
X152075300Y-207630600D01*
X150950000Y-205380000D02*
X150950000Y-206505300D01*
%TO.N,A5*%
X152696900Y-224176900D02*
X151520000Y-223000000D01*
X154584100Y-224176900D02*
X152696900Y-224176900D01*
X155235400Y-223525600D02*
X154584100Y-224176900D01*
X155235400Y-222275200D02*
X155235400Y-223525600D01*
X154878800Y-221918600D02*
X155235400Y-222275200D01*
X154878800Y-207656500D02*
X154878800Y-221918600D01*
X156030000Y-206505300D02*
X154878800Y-207656500D01*
X156030000Y-205380000D02*
X156030000Y-206505300D01*
%TO.N,A4*%
X149680000Y-222300000D02*
X148980000Y-223000000D01*
X149680000Y-205055300D02*
X149680000Y-222300000D01*
X150486500Y-204248800D02*
X149680000Y-205055300D01*
X159134800Y-204248800D02*
X150486500Y-204248800D01*
X159984700Y-205098700D02*
X159134800Y-204248800D01*
X159984700Y-205380000D02*
X159984700Y-205098700D01*
X161110000Y-205380000D02*
X159984700Y-205380000D01*
%TO.N,A1*%
X141360000Y-218635300D02*
X141360000Y-223000000D01*
X145870000Y-214125300D02*
X141360000Y-218635300D01*
X145870000Y-213000000D02*
X145870000Y-214125300D01*
%TO.N,A0*%
X140790000Y-221030000D02*
X138820000Y-223000000D01*
X140790000Y-213000000D02*
X140790000Y-221030000D01*
%TO.N,~{RD}*%
X90550000Y-213397800D02*
X94027400Y-216875200D01*
X90550000Y-212635300D02*
X90550000Y-213397800D01*
X88901800Y-210987100D02*
X90550000Y-212635300D01*
X88201100Y-210987100D02*
X88901800Y-210987100D01*
X82785400Y-205571400D02*
X88201100Y-210987100D01*
X82785400Y-204838600D02*
X82785400Y-205571400D01*
X82165000Y-204218200D02*
X82785400Y-204838600D01*
X81125800Y-204218200D02*
X82165000Y-204218200D01*
X80245300Y-205098700D02*
X81125800Y-204218200D01*
X80245300Y-205380000D02*
X80245300Y-205098700D01*
X79120000Y-205380000D02*
X80245300Y-205380000D01*
X106635400Y-225861300D02*
X107965700Y-227191600D01*
X106635400Y-224175400D02*
X106635400Y-225861300D01*
X105460000Y-223000000D02*
X106635400Y-224175400D01*
%TO.N,~{WR}*%
X102174400Y-222254400D02*
X102920000Y-223000000D01*
X102174400Y-211549500D02*
X102174400Y-222254400D01*
X94871200Y-204246300D02*
X102174400Y-211549500D01*
X86177700Y-204246300D02*
X94871200Y-204246300D01*
X85325300Y-205098700D02*
X86177700Y-204246300D01*
X85325300Y-205380000D02*
X85325300Y-205098700D01*
X84200000Y-205380000D02*
X85325300Y-205380000D01*
%TO.N,~{IORQ}*%
X99285000Y-221905000D02*
X100380000Y-223000000D01*
X99285000Y-215891800D02*
X99285000Y-221905000D01*
X99061300Y-215668100D02*
X99285000Y-215891800D01*
X99061300Y-211206600D02*
X99061300Y-215668100D01*
X94360000Y-206505300D02*
X99061300Y-211206600D01*
X94360000Y-205380000D02*
X94360000Y-206505300D01*
%TO.N,~{M1}*%
X89280000Y-205380000D02*
X89280000Y-206505300D01*
X89505200Y-206505300D02*
X89280000Y-206505300D01*
X96650400Y-213650500D02*
X89505200Y-206505300D01*
X96650400Y-221649600D02*
X96650400Y-213650500D01*
X95300000Y-223000000D02*
X96650400Y-221649600D01*
%TO.N,~{EIRQ7}*%
X69900000Y-221388000D02*
X69900000Y-223000000D01*
X60147300Y-211635300D02*
X69900000Y-221388000D01*
X59780000Y-211635300D02*
X60147300Y-211635300D01*
X59780000Y-210460000D02*
X59780000Y-211635300D01*
%TO.N,~{EIRQ6}*%
X58415300Y-214055300D02*
X67360000Y-223000000D01*
X58415300Y-212443200D02*
X58415300Y-214055300D01*
X57607400Y-211635300D02*
X58415300Y-212443200D01*
X57240000Y-211635300D02*
X57607400Y-211635300D01*
X57240000Y-210460000D02*
X57240000Y-211635300D01*
%TO.N,~{EIRQ5}*%
X54700000Y-210460000D02*
X54700000Y-211635300D01*
X55067400Y-211635300D02*
X54700000Y-211635300D01*
X55875300Y-212443200D02*
X55067400Y-211635300D01*
X55875300Y-213698200D02*
X55875300Y-212443200D01*
X64820000Y-222642900D02*
X55875300Y-213698200D01*
X64820000Y-223000000D02*
X64820000Y-222642900D01*
%TO.N,~{EIRQ4}*%
X62280000Y-220739800D02*
X62280000Y-223000000D01*
X58007700Y-216467500D02*
X62280000Y-220739800D01*
X56488700Y-216467500D02*
X58007700Y-216467500D01*
X53335300Y-213314100D02*
X56488700Y-216467500D01*
X53335300Y-212443200D02*
X53335300Y-213314100D01*
X52527400Y-211635300D02*
X53335300Y-212443200D01*
X52160000Y-211635300D02*
X52527400Y-211635300D01*
X52160000Y-210460000D02*
X52160000Y-211635300D01*
%TO.N,~{EIRQ3}*%
X57455400Y-220715400D02*
X59740000Y-223000000D01*
X57455400Y-218463700D02*
X57455400Y-220715400D01*
X56004200Y-217012500D02*
X57455400Y-218463700D01*
X54467900Y-217012500D02*
X56004200Y-217012500D01*
X50795300Y-213339900D02*
X54467900Y-217012500D01*
X50795300Y-212443200D02*
X50795300Y-213339900D01*
X49987400Y-211635300D02*
X50795300Y-212443200D01*
X49620000Y-211635300D02*
X49987400Y-211635300D01*
X49620000Y-210460000D02*
X49620000Y-211635300D01*
%TO.N,~{EIRQ2}*%
X54915400Y-220715400D02*
X57200000Y-223000000D01*
X54915400Y-218490300D02*
X54915400Y-220715400D01*
X52892600Y-216467500D02*
X54915400Y-218490300D01*
X51358100Y-216467500D02*
X52892600Y-216467500D01*
X48255300Y-213364700D02*
X51358100Y-216467500D01*
X48255300Y-212443200D02*
X48255300Y-213364700D01*
X47447400Y-211635300D02*
X48255300Y-212443200D01*
X47080000Y-211635300D02*
X47447400Y-211635300D01*
X47080000Y-210460000D02*
X47080000Y-211635300D01*
%TO.N,~{EIRQ1}*%
X52500700Y-220840700D02*
X54660000Y-223000000D01*
X50869400Y-220840700D02*
X52500700Y-220840700D01*
X45715300Y-215686600D02*
X50869400Y-220840700D01*
X45715300Y-212443200D02*
X45715300Y-215686600D01*
X44907400Y-211635300D02*
X45715300Y-212443200D01*
X44540000Y-211635300D02*
X44907400Y-211635300D01*
X44540000Y-210460000D02*
X44540000Y-211635300D01*
D41*
%TO.N,-12V*%
X136280000Y-225540000D02*
X136280000Y-223000000D01*
D42*
%TO.N,Net-(D1-Pad2)*%
X46710000Y-85100000D02*
X46710000Y-81100000D01*
X42190000Y-89620000D02*
X46710000Y-85100000D01*
%TO.N,Net-(RN1-Pad2)*%
X177155000Y-205180000D02*
X177155000Y-204054700D01*
X177565000Y-203644700D02*
X177565000Y-201200000D01*
X177155000Y-204054700D02*
X177565000Y-203644700D01*
X177565000Y-197210300D02*
X178125000Y-196650300D01*
X177565000Y-201200000D02*
X177565000Y-197210300D01*
X178125000Y-195475000D02*
X178125000Y-196650300D01*
%TO.N,Net-(RN1-Pad3)*%
X181834400Y-204054700D02*
X180105000Y-202325300D01*
X182235000Y-204054700D02*
X181834400Y-204054700D01*
X182235000Y-205180000D02*
X182235000Y-204054700D01*
X180105000Y-201200000D02*
X180105000Y-201762600D01*
X180105000Y-201762600D02*
X180105000Y-202325300D01*
X180665000Y-201202600D02*
X180665000Y-195475000D01*
X180105000Y-201762600D02*
X180665000Y-201202600D01*
%TO.N,Net-(RN1-Pad4)*%
X182645000Y-201200000D02*
X182645000Y-201762600D01*
X183205000Y-201202600D02*
X183205000Y-195475000D01*
X182645000Y-201762600D02*
X183205000Y-201202600D01*
X183053600Y-201762600D02*
X182645000Y-201762600D01*
X186189700Y-204898700D02*
X183053600Y-201762600D01*
X186189700Y-205180000D02*
X186189700Y-204898700D01*
X187315000Y-205180000D02*
X186189700Y-205180000D01*
%TO.N,Net-(RN1-Pad5)*%
X186310300Y-201481400D02*
X186310300Y-201200000D01*
X187154200Y-202325300D02*
X186310300Y-201481400D01*
X188597700Y-202325300D02*
X187154200Y-202325300D01*
X191269700Y-204997300D02*
X188597700Y-202325300D01*
X191269700Y-205180000D02*
X191269700Y-204997300D01*
X192395000Y-205180000D02*
X191269700Y-205180000D01*
X185185000Y-201200000D02*
X185747700Y-201200000D01*
X185747700Y-201200000D02*
X186310300Y-201200000D01*
X185745000Y-201197300D02*
X185745000Y-195475000D01*
X185747700Y-201200000D02*
X185745000Y-201197300D01*
%TO.N,Net-(RN1-Pad9)*%
X196087500Y-203067800D02*
X195345000Y-202325300D01*
X196087500Y-209962400D02*
X196087500Y-203067800D01*
X193782000Y-212267900D02*
X196087500Y-209962400D01*
X193782000Y-213073100D02*
X193782000Y-212267900D01*
X192922500Y-213932600D02*
X193782000Y-213073100D01*
X189291600Y-213932600D02*
X192922500Y-213932600D01*
X188440300Y-213081300D02*
X189291600Y-213932600D01*
X188440300Y-212800000D02*
X188440300Y-213081300D01*
X195345000Y-201200000D02*
X195345000Y-202325300D01*
X187315000Y-212800000D02*
X188440300Y-212800000D01*
%TO.N,Net-(R24-Pad1)*%
X56709700Y-198549400D02*
X57835000Y-199674700D01*
X56709700Y-189469700D02*
X56709700Y-198549400D01*
X55990000Y-188750000D02*
X56709700Y-189469700D01*
X57835000Y-200800000D02*
X57835000Y-199674700D01*
%TO.N,Net-(D4-Pad2)*%
X53710000Y-88100000D02*
X52190000Y-89620000D01*
X53710000Y-81100000D02*
X53710000Y-88100000D01*
%TO.N,/VDP/GREEN*%
X229000000Y-159670000D02*
X229000000Y-162000000D01*
X228577900Y-168254700D02*
X229000000Y-168254700D01*
X227874700Y-167551500D02*
X228577900Y-168254700D01*
X227874700Y-163125300D02*
X227874700Y-167551500D01*
X229000000Y-162000000D02*
X227874700Y-163125300D01*
X229000000Y-169380000D02*
X229000000Y-168254700D01*
%TO.N,Net-(D3-Pad2)*%
X67710000Y-90080000D02*
X62190000Y-95600000D01*
X67710000Y-81100000D02*
X67710000Y-90080000D01*
%TO.N,/VDP/BLUE*%
X235031400Y-168314700D02*
X234750000Y-168314700D01*
X235875300Y-167470800D02*
X235031400Y-168314700D01*
X235875300Y-163125300D02*
X235875300Y-167470800D01*
X234750000Y-162000000D02*
X235875300Y-163125300D01*
X234750000Y-169440000D02*
X234750000Y-168314700D01*
D41*
%TO.N,VCC*%
X173524700Y-202230000D02*
X173524700Y-201200000D01*
X172075000Y-203679700D02*
X173524700Y-202230000D01*
X172075000Y-205180000D02*
X172075000Y-203679700D01*
X231560000Y-93500000D02*
X231560000Y-99500000D01*
X175025000Y-201200000D02*
X173619800Y-201200000D01*
X173619800Y-201200000D02*
X173524700Y-201200000D01*
X92769300Y-189000000D02*
X92769300Y-187499700D01*
X71500000Y-198335000D02*
X69065000Y-195900000D01*
X71500000Y-205380000D02*
X71500000Y-198335000D01*
X63610000Y-190445000D02*
X63610000Y-188750000D01*
X69065000Y-195900000D02*
X63610000Y-190445000D01*
X165590000Y-189000100D02*
X165590000Y-189000000D01*
X167870200Y-189000100D02*
X165590000Y-189000100D01*
X173619800Y-194749700D02*
X167870200Y-189000100D01*
X173619800Y-201200000D02*
X173619800Y-194749700D01*
X185199700Y-219800300D02*
X182000000Y-223000000D01*
X186725000Y-219800300D02*
X185199700Y-219800300D01*
X186725000Y-218250000D02*
X186725000Y-219800300D01*
X108000000Y-225540000D02*
X108000000Y-223000000D01*
X258000000Y-225540000D02*
X258000000Y-223000000D01*
X182000000Y-225540000D02*
X182000000Y-223000000D01*
X146578600Y-196521400D02*
X147400000Y-195700000D01*
X146578600Y-196521500D02*
X146578600Y-196521400D01*
X146578600Y-197711900D02*
X146578600Y-196521500D01*
X141027800Y-203262700D02*
X146578600Y-197711900D01*
X140367300Y-203262700D02*
X141027800Y-203262700D01*
X138250000Y-205380000D02*
X140367300Y-203262700D01*
X165370100Y-174970100D02*
X165740200Y-174600000D01*
X165370100Y-188780100D02*
X165370100Y-174970100D01*
X165590000Y-189000000D02*
X165370100Y-188780100D01*
X178620300Y-166908700D02*
X178620300Y-167750000D01*
X179447400Y-166081600D02*
X178620300Y-166908700D01*
X188896900Y-166081600D02*
X179447400Y-166081600D01*
X189265000Y-166449700D02*
X188896900Y-166081600D01*
X189265000Y-168000000D02*
X189265000Y-166449700D01*
X177120000Y-167750000D02*
X178620300Y-167750000D01*
X217260800Y-139989200D02*
X217750000Y-139500000D01*
X217260800Y-152810800D02*
X217260800Y-139989200D01*
X218750000Y-154300000D02*
X217260800Y-152810800D01*
X43554700Y-195800000D02*
X46174700Y-193180000D01*
X43110000Y-195800000D02*
X43554700Y-195800000D01*
X47675000Y-193180000D02*
X46174700Y-193180000D01*
X77187800Y-83742500D02*
X71310300Y-89620000D01*
X107170000Y-83742500D02*
X77187800Y-83742500D01*
X69810000Y-89620000D02*
X71310300Y-89620000D01*
X104750000Y-205380000D02*
X104750000Y-206880300D01*
X152098900Y-162451100D02*
X154800000Y-159750000D01*
X152098900Y-165892400D02*
X152098900Y-162451100D01*
X155456500Y-169250000D02*
X152098900Y-165892400D01*
X156650000Y-169250000D02*
X155456500Y-169250000D01*
X157005600Y-134111000D02*
X154394900Y-131500300D01*
X157005600Y-157544400D02*
X157005600Y-134111000D01*
X154800000Y-159750000D02*
X157005600Y-157544400D01*
X154394900Y-130000000D02*
X154394900Y-131500300D01*
X177523800Y-169654100D02*
X177120000Y-169250300D01*
X177523800Y-170810300D02*
X177523800Y-169654100D01*
X176568400Y-171765700D02*
X177523800Y-170810300D01*
X168574500Y-171765700D02*
X176568400Y-171765700D01*
X165740200Y-174600000D02*
X168574500Y-171765700D01*
X177120000Y-167750000D02*
X177120000Y-169250300D01*
X188031800Y-126218200D02*
X186500000Y-127750000D01*
X188031800Y-120364600D02*
X188031800Y-126218200D01*
X183449600Y-115782400D02*
X188031800Y-120364600D01*
X183449600Y-112449600D02*
X183449600Y-115782400D01*
X180250000Y-109250000D02*
X183449600Y-112449600D01*
X184749600Y-138249600D02*
X186250000Y-139750000D01*
X184749600Y-129500400D02*
X184749600Y-138249600D01*
X186500000Y-127750000D02*
X184749600Y-129500400D01*
X101940200Y-209690100D02*
X104750000Y-206880300D01*
X103020200Y-210770200D02*
X101940200Y-209690100D01*
X103020200Y-218020200D02*
X103020200Y-210770200D01*
X108000000Y-223000000D02*
X103020200Y-218020200D01*
X258000000Y-191727800D02*
X245480000Y-179207800D01*
X258000000Y-223000000D02*
X258000000Y-191727800D01*
X245480000Y-179207800D02*
X245480000Y-175110000D01*
X239515000Y-151270000D02*
X239515000Y-152770300D01*
X125975000Y-190895300D02*
X125975000Y-193280000D01*
X125580000Y-190500300D02*
X125975000Y-190895300D01*
X125580000Y-189000000D02*
X125580000Y-190500300D01*
X136130200Y-189000000D02*
X135590000Y-189000000D01*
X136182400Y-188947800D02*
X136130200Y-189000000D01*
X136654700Y-188947800D02*
X136182400Y-188947800D01*
X136945700Y-188656800D02*
X136654700Y-188947800D01*
X138229400Y-188656800D02*
X136945700Y-188656800D01*
X138572600Y-189000000D02*
X138229400Y-188656800D01*
X139057100Y-189000000D02*
X138572600Y-189000000D01*
X146578600Y-196521400D02*
X139057100Y-189000000D01*
X236685500Y-174347000D02*
X236685500Y-179207800D01*
X236860000Y-174172500D02*
X236685500Y-174347000D01*
X236860000Y-155425300D02*
X236860000Y-174172500D01*
X239515000Y-152770300D02*
X236860000Y-155425300D01*
X235332200Y-179207800D02*
X236685500Y-179207800D01*
X231540000Y-183000000D02*
X235332200Y-179207800D01*
X236685500Y-179207800D02*
X245480000Y-179207800D01*
X196200000Y-216689200D02*
X196200000Y-218600000D01*
X188285800Y-216689200D02*
X186725000Y-218250000D01*
X196200000Y-216689200D02*
X188285800Y-216689200D01*
X196200000Y-214733000D02*
X196200000Y-216689200D01*
X201000000Y-209933000D02*
X196200000Y-214733000D01*
X201000000Y-207500000D02*
X201000000Y-209933000D01*
X205575000Y-205180000D02*
X204074700Y-205180000D01*
X201936800Y-205180000D02*
X204074700Y-205180000D01*
X201936800Y-197236800D02*
X201936800Y-205180000D01*
X200400000Y-195700000D02*
X201936800Y-197236800D01*
X201936800Y-206563200D02*
X201000000Y-207500000D01*
X201936800Y-205180000D02*
X201936800Y-206563200D01*
X86288400Y-153406500D02*
X87794900Y-151900000D01*
X86288400Y-175347800D02*
X86288400Y-153406500D01*
X92769300Y-181828700D02*
X86288400Y-175347800D01*
X92769300Y-187499700D02*
X92769300Y-181828700D01*
X101940200Y-209690100D02*
X100250000Y-208000000D01*
X95587300Y-203337200D02*
X95587300Y-202855900D01*
X98088700Y-205838600D02*
X95587300Y-203337200D01*
X100250000Y-208000000D02*
X98088700Y-205838600D01*
X86055900Y-202855900D02*
X84000000Y-200800000D01*
X95587300Y-202855900D02*
X86055900Y-202855900D01*
X96945000Y-201498200D02*
X95587300Y-202855900D01*
X96945000Y-199534800D02*
X96945000Y-201498200D01*
X95400000Y-197989800D02*
X96945000Y-199534800D01*
X95400000Y-195900000D02*
X95400000Y-197989800D01*
%TO.N,GND*%
X45700000Y-221660000D02*
X47040000Y-223000000D01*
X45700000Y-218600000D02*
X45700000Y-221660000D01*
X222905000Y-200800000D02*
X222905000Y-199299700D01*
X116872000Y-85824500D02*
X114790000Y-83742500D01*
X116872000Y-89545000D02*
X116872000Y-85824500D01*
X182500000Y-98530300D02*
X184955000Y-96075300D01*
X182500000Y-102250000D02*
X182500000Y-98530300D01*
X184955000Y-94525000D02*
X184955000Y-96075300D01*
X98600000Y-136080000D02*
X98600000Y-134579700D01*
X192570000Y-118349700D02*
X192850000Y-118629700D01*
X192570000Y-114300000D02*
X192570000Y-118349700D01*
X192850000Y-120130000D02*
X192850000Y-118629700D01*
X98225000Y-132825000D02*
X97350000Y-131950000D01*
X101850000Y-129200000D02*
X98225000Y-132825000D01*
X98225000Y-134204700D02*
X98600000Y-134579700D01*
X98225000Y-132825000D02*
X98225000Y-134204700D01*
X118300000Y-220260000D02*
X121040000Y-223000000D01*
X118300000Y-218000000D02*
X118300000Y-220260000D01*
X159753100Y-163267400D02*
X158466100Y-163267400D01*
X194115000Y-183175000D02*
X194115000Y-184725300D01*
X118492700Y-106699300D02*
X116992000Y-108200000D01*
X118492700Y-99155800D02*
X118492700Y-106699300D01*
X118286900Y-98950000D02*
X118492700Y-99155800D01*
X112300000Y-107950000D02*
X112300000Y-101700000D01*
X140374700Y-101715000D02*
X140374700Y-107965000D01*
X126985300Y-106996700D02*
X125482000Y-108500000D01*
X129058700Y-106996700D02*
X126985300Y-106996700D01*
X130562000Y-108500000D02*
X129058700Y-106996700D01*
X198700000Y-214800000D02*
X198700000Y-218600000D01*
X201000000Y-212500000D02*
X198700000Y-214800000D01*
X194125000Y-170525000D02*
X192564700Y-170525000D01*
X252750000Y-167000000D02*
X252750000Y-169440000D01*
X228435000Y-212800000D02*
X228435000Y-211299700D01*
X258750000Y-153000000D02*
X258750000Y-154670000D01*
X261250000Y-150500000D02*
X258750000Y-153000000D01*
X259544900Y-139165200D02*
X259250000Y-138870300D01*
X259544900Y-143170000D02*
X259544900Y-139165200D01*
X261250000Y-144875100D02*
X261250000Y-150500000D01*
X259544900Y-143170000D02*
X261250000Y-144875100D01*
X89352400Y-155342500D02*
X87794900Y-156900000D01*
X89352400Y-145862600D02*
X89352400Y-155342500D01*
X89289800Y-145800000D02*
X89352400Y-145862600D01*
X91469600Y-160574700D02*
X92725000Y-160574700D01*
X87794900Y-156900000D02*
X91469600Y-160574700D01*
X92725000Y-162075000D02*
X92725000Y-160574700D01*
X186500000Y-120530300D02*
X186500000Y-122750000D01*
X180250000Y-114280300D02*
X186500000Y-120530300D01*
X180250000Y-114250000D02*
X180250000Y-114280300D01*
X191335300Y-123145000D02*
X192850000Y-121630300D01*
X191335300Y-130415300D02*
X191335300Y-123145000D01*
X192850000Y-131930000D02*
X191335300Y-130415300D01*
X192850000Y-120130000D02*
X192850000Y-121630300D01*
X92725000Y-162075000D02*
X92725000Y-163575300D01*
X224768700Y-175541300D02*
X223250000Y-177060000D01*
X224768700Y-168518700D02*
X224768700Y-175541300D01*
X223250000Y-167000000D02*
X224768700Y-168518700D01*
X47040000Y-225540000D02*
X47040000Y-223000000D01*
X198531100Y-202568900D02*
X200400000Y-200700000D01*
X198531100Y-209203900D02*
X198531100Y-202568900D01*
X194935000Y-212800000D02*
X198531100Y-209203900D01*
X121040000Y-225540000D02*
X121040000Y-223000000D01*
X43150000Y-75000000D02*
X40000000Y-75000000D01*
X49250000Y-81100000D02*
X43150000Y-75000000D01*
X196761100Y-187011900D02*
X196761100Y-190207000D01*
X194474500Y-184725300D02*
X196761100Y-187011900D01*
X194115000Y-184725300D02*
X194474500Y-184725300D01*
X196761100Y-197061100D02*
X200400000Y-200700000D01*
X196761100Y-190207000D02*
X196761100Y-197061100D01*
X193756800Y-215478500D02*
X194935000Y-214300300D01*
X184478600Y-215478500D02*
X193756800Y-215478500D01*
X181591700Y-218365400D02*
X184478600Y-215478500D01*
X167975700Y-218365400D02*
X181591700Y-218365400D01*
X162610300Y-213000000D02*
X167975700Y-218365400D01*
X161110000Y-213000000D02*
X162610300Y-213000000D01*
X194935000Y-212800000D02*
X194935000Y-214300300D01*
X163500000Y-170918700D02*
X157331300Y-164750000D01*
X163500000Y-174600000D02*
X163500000Y-170918700D01*
X154800000Y-164750000D02*
X157331300Y-164750000D01*
X158466100Y-163615200D02*
X158466100Y-163267400D01*
X157331300Y-164750000D02*
X158466100Y-163615200D01*
X118286900Y-90959900D02*
X118286900Y-98950000D01*
X116872000Y-89545000D02*
X118286900Y-90959900D01*
X114771000Y-110421000D02*
X116992000Y-108200000D01*
X115060000Y-110710000D02*
X114771000Y-110421000D01*
X115060000Y-129200000D02*
X115060000Y-110710000D01*
X114771000Y-110421000D02*
X112300000Y-107950000D01*
X195749600Y-109620100D02*
X192570000Y-112799700D01*
X195749600Y-105560700D02*
X195749600Y-109620100D01*
X197560000Y-103750300D02*
X195749600Y-105560700D01*
X197560000Y-102250000D02*
X197560000Y-103750300D01*
X192570000Y-114300000D02*
X192570000Y-112799700D01*
X216159100Y-124340900D02*
X217750000Y-122750000D01*
X216159100Y-132909100D02*
X216159100Y-124340900D01*
X217750000Y-134500000D02*
X216159100Y-132909100D01*
X217750000Y-103310000D02*
X217750000Y-122750000D01*
X213940000Y-99500000D02*
X217750000Y-103310000D01*
X221797400Y-152247300D02*
X222774700Y-151270000D01*
X221797400Y-152247300D02*
X218800000Y-149250000D01*
X224275000Y-151270000D02*
X223524900Y-151270000D01*
X223524900Y-151270000D02*
X222774700Y-151270000D01*
X223524900Y-143360400D02*
X224275000Y-142610300D01*
X223524900Y-151270000D02*
X223524900Y-143360400D01*
X224275000Y-141110000D02*
X224275000Y-142610300D01*
X222905000Y-199299700D02*
X224728200Y-199299700D01*
X229970700Y-209764000D02*
X228435000Y-211299700D01*
X229970700Y-204542200D02*
X229970700Y-209764000D01*
X224728200Y-199299700D02*
X229970700Y-204542200D01*
X244384700Y-183152000D02*
X244384700Y-183000000D01*
X242956700Y-184580000D02*
X244384700Y-183152000D01*
X229300000Y-184580000D02*
X242956700Y-184580000D01*
X229300000Y-183000000D02*
X229300000Y-184580000D01*
X229300000Y-194727900D02*
X224728200Y-199299700D01*
X229300000Y-184580000D02*
X229300000Y-194727900D01*
X259250000Y-138120100D02*
X259250000Y-138870300D01*
X259250000Y-138120100D02*
X259250000Y-137370000D01*
X259250000Y-137370000D02*
X259250000Y-135869700D01*
X263587100Y-95077100D02*
X255260000Y-86750000D01*
X263587100Y-131532600D02*
X263587100Y-95077100D01*
X259250000Y-135869700D02*
X263587100Y-131532600D01*
X259423600Y-82586400D02*
X255260000Y-86750000D01*
X259423600Y-80576400D02*
X259423600Y-82586400D01*
X265000000Y-75000000D02*
X259423600Y-80576400D01*
X109120300Y-202300300D02*
X107620000Y-200800000D01*
X113739700Y-202300300D02*
X109120300Y-202300300D01*
X115240000Y-200800000D02*
X113739700Y-202300300D01*
X122610000Y-218000000D02*
X118300000Y-218000000D01*
X127610000Y-213000000D02*
X122610000Y-218000000D01*
X146616800Y-106723200D02*
X145110000Y-108230000D01*
X146616800Y-99147000D02*
X146616800Y-106723200D01*
X146449800Y-98980000D02*
X146616800Y-99147000D01*
X182800600Y-176100400D02*
X187666300Y-176100400D01*
X181300200Y-174600000D02*
X182800600Y-176100400D01*
X150500000Y-153860100D02*
X149360100Y-155000000D01*
X150500000Y-137500000D02*
X150500000Y-153860100D01*
X187666300Y-184710900D02*
X187666300Y-176100400D01*
X193162400Y-190207000D02*
X187666300Y-184710900D01*
X196761100Y-190207000D02*
X193162400Y-190207000D01*
X184955000Y-94525000D02*
X186505300Y-94525000D01*
X187495000Y-91985000D02*
X187495000Y-94525000D01*
X187495000Y-94525000D02*
X186505300Y-94525000D01*
X229300000Y-177150000D02*
X229300000Y-183000000D01*
X229150000Y-177150000D02*
X229300000Y-177150000D01*
X229000000Y-177000000D02*
X229150000Y-177150000D01*
X234660000Y-177150000D02*
X234750000Y-177060000D01*
X229300000Y-177150000D02*
X234660000Y-177150000D01*
X69065000Y-210435000D02*
X67000000Y-212500000D01*
X69065000Y-200900000D02*
X69065000Y-210435000D01*
X95269300Y-166119600D02*
X95269300Y-189000000D01*
X92725000Y-163575300D02*
X95269300Y-166119600D01*
X95400000Y-200900000D02*
X90120700Y-195620700D01*
X86440700Y-195620700D02*
X84000000Y-193180000D01*
X90120700Y-195620700D02*
X86440700Y-195620700D01*
X198700000Y-221340000D02*
X197040000Y-223000000D01*
X198700000Y-218600000D02*
X198700000Y-221340000D01*
X197040000Y-223000000D02*
X197040000Y-225540000D01*
X135595500Y-211154500D02*
X135595500Y-205912500D01*
X133750000Y-213000000D02*
X135595500Y-211154500D01*
X140914600Y-200900000D02*
X141215000Y-200900000D01*
X137935000Y-203879600D02*
X140914600Y-200900000D01*
X137628400Y-203879600D02*
X137935000Y-203879600D01*
X135595500Y-205912500D02*
X137628400Y-203879600D01*
X122242100Y-199857900D02*
X122317000Y-199857900D01*
X121200000Y-200900000D02*
X122242100Y-199857900D01*
X126338700Y-203879600D02*
X122317000Y-199857900D01*
X133562600Y-203879600D02*
X126338700Y-203879600D01*
X135595500Y-205912500D02*
X133562600Y-203879600D01*
X120650000Y-193203000D02*
X120650000Y-192750000D01*
X122715200Y-195268200D02*
X120650000Y-193203000D01*
X122715200Y-199459700D02*
X122715200Y-195268200D01*
X122317000Y-199857900D02*
X122715200Y-199459700D01*
X179117800Y-84597500D02*
X179117800Y-84045000D01*
X184955000Y-90434700D02*
X179117800Y-84597500D01*
X184955000Y-91985000D02*
X184955000Y-90434700D01*
X177717500Y-84045000D02*
X179117800Y-84045000D01*
X218900000Y-159450000D02*
X218750000Y-159300000D01*
X218900000Y-169400000D02*
X218900000Y-159450000D01*
X169283400Y-202921900D02*
X169905000Y-202300300D01*
X169283400Y-210966600D02*
X169283400Y-202921900D01*
X167500000Y-212750000D02*
X169283400Y-210966600D01*
X169905000Y-200800000D02*
X169905000Y-202300300D01*
X192564700Y-171435100D02*
X192564700Y-170525000D01*
X191577300Y-172422500D02*
X192564700Y-171435100D01*
X191344200Y-172422500D02*
X191577300Y-172422500D01*
X187666300Y-176100400D02*
X191344200Y-172422500D01*
X192564700Y-166005600D02*
X192564700Y-170525000D01*
X193570600Y-164999700D02*
X192564700Y-166005600D01*
X193570600Y-163267400D02*
X193570600Y-164999700D01*
X208580000Y-88140000D02*
X213940000Y-93500000D01*
X208580000Y-83469000D02*
X208580000Y-88140000D01*
X208580000Y-83469000D02*
X203500000Y-78389000D01*
X198420000Y-83469000D02*
X203500000Y-78389000D01*
X197119000Y-83469000D02*
X198420000Y-83469000D01*
X192400000Y-78750000D02*
X197119000Y-83469000D01*
X45700000Y-218489800D02*
X45700000Y-218600000D01*
X44048800Y-216838600D02*
X45700000Y-218489800D01*
X43084700Y-216838600D02*
X44048800Y-216838600D01*
X40449600Y-214203500D02*
X43084700Y-216838600D01*
X40449600Y-203460400D02*
X40449600Y-214203500D01*
X43110000Y-200800000D02*
X40449600Y-203460400D01*
X95269300Y-190472100D02*
X90120700Y-195620700D01*
X95269300Y-189000000D02*
X95269300Y-190472100D01*
X121600000Y-136080000D02*
X121600000Y-134579900D01*
X123390600Y-133659400D02*
X124600000Y-132450000D01*
X121600200Y-133659400D02*
X123390600Y-133659400D01*
X121600200Y-134579700D02*
X121600200Y-133659400D01*
X121600000Y-134579900D02*
X121600200Y-134579700D01*
X117140800Y-129200000D02*
X115060000Y-129200000D01*
X121600200Y-133659400D02*
X117140800Y-129200000D01*
X224750400Y-165499600D02*
X223250000Y-167000000D01*
X224750400Y-159044700D02*
X224750400Y-165499600D01*
X223330500Y-157624800D02*
X224750400Y-159044700D01*
X223122000Y-157624800D02*
X223330500Y-157624800D01*
X222046000Y-156548800D02*
X223122000Y-157624800D01*
X222046000Y-156340300D02*
X222046000Y-156548800D01*
X221736300Y-156030600D02*
X222046000Y-156340300D01*
X221736300Y-152633900D02*
X221736300Y-156030600D01*
X221797400Y-152572800D02*
X221736300Y-152633900D01*
X221797400Y-152247400D02*
X221797400Y-152572800D01*
X221797400Y-152247300D02*
X221797400Y-152247400D01*
%TD*%
M02*
