M48
; DRILL file {KiCad (6.0.11)} date Wed Dec 27 08:04:17 2023
; FORMAT={-:-/ absolute / inch / decimal}
; #@! TF.CreationDate,2023-12-27T08:04:17-05:00
; #@! TF.GenerationSoftware,Kicad,Pcbnew,(6.0.11)
; #@! TF.FileFunction,Plated,1,2,PTH
FMAT,2
INCH
; #@! TA.AperFunction,Plated,PTH,ComponentDrill
T1C0.0118
; #@! TA.AperFunction,Plated,PTH,ViaDrill
T2C0.0157
; #@! TA.AperFunction,Plated,PTH,ComponentDrill
T3C0.0295
; #@! TA.AperFunction,Plated,PTH,ComponentDrill
T4C0.0315
; #@! TA.AperFunction,Plated,PTH,ComponentDrill
T5C0.0354
; #@! TA.AperFunction,Plated,PTH,ComponentDrill
T6C0.0390
; #@! TA.AperFunction,Plated,PTH,ComponentDrill
T7C0.0394
; #@! TA.AperFunction,Plated,PTH,ComponentDrill
T8C0.0512
; #@! TA.AperFunction,Plated,PTH,ComponentDrill
T9C0.1000
; #@! TA.AperFunction,Plated,PTH,ComponentDrill
T10C0.1260
%
G90
G05
T1
X2.5295Y-5.8917
X2.5295Y-5.939
X5.9055Y-7.7618
X5.9055Y-7.8091
X7.1654Y-5.6614
X7.1654Y-5.7087
X7.4803Y-7.3543
X7.4803Y-7.4016
X7.7421Y-6.4094
X7.7894Y-6.4094
X8.6024Y-7.1831
X8.6024Y-7.2303
T2
X1.7343Y-6.3523
X1.8241Y-5.6384
X2.0735Y-3.6084
X2.131Y-6.5469
X2.1919Y-6.5424
X2.3825Y-3.5798
X2.3925Y-5.8009
X2.4385Y-5.2484
X2.5398Y-5.7468
X2.9697Y-3.4094
X2.9899Y-7.6117
X3.1464Y-7.5191
X3.172Y-7.3295
X3.2002Y-7.5458
X3.3328Y-6.9363
X3.376Y-5.1285
X3.4554Y-5.0079
X3.5025Y-5.0727
X3.5205Y-6.7763
X3.5346Y-5.6686
X3.5543Y-4.9764
X3.7907Y-5.4033
X3.8236Y-6.01
X3.8764Y-5.4479
X3.9554Y-6.5871
X3.9571Y-6.288
X3.9915Y-5.607
X4.0003Y-5.2419
X4.0631Y-5.7255
X4.0634Y-5.6548
X4.4007Y-3.9419
X4.422Y-7.4279
X4.456Y-4.8236
X4.4839Y-7.2592
X4.5224Y-3.8508
X4.5241Y-5.76
X4.5554Y-4.0085
X4.5859Y-5.5329
X4.6339Y-3.9882
X4.6902Y-3.7417
X4.7818Y-6.085
X4.8413Y-5.384
X4.8511Y-8.336
X4.8974Y-7.7624
X4.9437Y-8.3026
X5.0378Y-3.6608
X5.0633Y-5.7165
X5.1711Y-6.5361
X5.2512Y-7.9732
X5.281Y-6.2235
X5.2969Y-5.811
X5.3347Y-5.0065
X5.4613Y-4.0882
X5.5433Y-7.9596
X5.6553Y-6.2898
X5.6981Y-6.2592
X5.7379Y-5.8062
X5.7445Y-5.178
X5.8986Y-4.3619
X5.8995Y-5.0185
X5.9027Y-4.9619
X5.9124Y-6.0016
X5.9529Y-5.9875
X6.0466Y-4.3305
X6.0552Y-8.3809
X6.103Y-4.2991
X6.1323Y-5.6641
X6.152Y-6.8621
X6.3708Y-5.6636
X6.7048Y-6.9842
X6.8443Y-6.8346
X6.851Y-4.8728
X6.8845Y-3.8808
X6.9613Y-3.8336
X6.981Y-5.9497
X7.0318Y-4.9386
X7.0889Y-6.9361
X7.2252Y-5.2574
X7.2516Y-7.517
X7.2816Y-6.0947
X7.2956Y-6.139
X7.3037Y-6.011
X7.4927Y-4.6358
X7.5652Y-5.2994
X7.6628Y-3.7786
X7.7337Y-7.1043
X7.7903Y-5.6939
X7.8166Y-6.5035
X7.8754Y-5.7966
X7.9501Y-7.4169
X8.0489Y-3.5295
X8.091Y-6.5719
X8.1386Y-5.0509
X8.1918Y-6.9459
X8.5869Y-5.2021
X8.6228Y-7.3017
X8.6289Y-7.9914
X8.6719Y-7.3343
X8.6773Y-5.1559
X8.6791Y-5.2112
X8.7134Y-7.1307
X9.0273Y-7.1917
X9.0722Y-5.3222
X9.0853Y-7.0748
X9.0864Y-5.083
X9.142Y-4.6719
X9.1691Y-7.0932
X9.2405Y-4.7177
X9.3464Y-6.9378
X9.663Y-6.9721
X9.8775Y-2.8625
X9.9711Y-2.934
X9.9713Y-2.8724
X10.1386Y-2.8634
X10.1789Y-2.8625
T3
X8.6508Y-3.8673
X8.7008Y-3.8173
X8.7008Y-3.9173
T4
X1.6831Y-6.4035
X1.6831Y-6.6004
X1.688Y-6.8504
X1.688Y-7.0472
X1.6929Y-3.5039
X1.6929Y-3.7402
X1.6929Y-4.5768
X1.6929Y-4.7736
X1.6929Y-5.5217
X1.6929Y-5.7185
X1.7201Y-6.128
X1.7913Y-4.0354
X1.8799Y-6.3004
X1.8799Y-6.6004
X1.8848Y-6.7472
X1.8848Y-7.0472
X1.8898Y-4.0354
X1.8898Y-4.3012
X1.8898Y-4.4736
X1.8898Y-4.7736
X1.8898Y-4.9705
X1.8898Y-5.2264
X1.8898Y-5.4185
X1.8898Y-5.7185
X1.8898Y-5.9154
X1.9799Y-6.3004
X1.9799Y-6.6004
X1.9848Y-6.7472
X1.9848Y-7.0472
X1.9898Y-4.4736
X1.9898Y-4.7736
X1.9898Y-5.4185
X1.9898Y-5.7185
X1.9929Y-3.5039
X1.9929Y-3.7402
X2.0201Y-6.128
X2.0799Y-6.3004
X2.0799Y-6.6004
X2.0848Y-6.7472
X2.0848Y-7.0472
X2.0866Y-3.5039
X2.0866Y-4.3012
X2.0866Y-4.9705
X2.0866Y-5.2264
X2.0866Y-5.9154
X2.0898Y-4.4736
X2.0898Y-4.7736
X2.0898Y-5.4185
X2.0898Y-5.7185
X2.1799Y-6.3004
X2.1799Y-6.6004
X2.1848Y-6.7472
X2.1848Y-7.0472
X2.185Y-5.2264
X2.185Y-5.9154
X2.1898Y-4.4736
X2.1898Y-4.7736
X2.1898Y-5.4185
X2.1898Y-5.7185
X2.2047Y-4.3012
X2.2047Y-4.9705
X2.2799Y-6.3004
X2.2799Y-6.6004
X2.2848Y-6.7472
X2.2848Y-7.0472
X2.2898Y-4.4736
X2.2898Y-4.7736
X2.2898Y-5.4185
X2.2898Y-5.7185
X2.2909Y-6.128
X2.3799Y-6.3004
X2.3799Y-6.6004
X2.3819Y-5.2264
X2.3819Y-5.9154
X2.3848Y-6.7472
X2.3848Y-7.0472
X2.3866Y-3.5039
X2.3898Y-4.4736
X2.3898Y-4.7736
X2.3898Y-5.4185
X2.3898Y-5.7185
X2.4016Y-4.3012
X2.4016Y-4.9705
X2.4799Y-6.3004
X2.4799Y-6.6004
X2.4803Y-3.5039
X2.4803Y-3.7402
X2.4848Y-6.7472
X2.4848Y-7.0472
X2.4898Y-4.4736
X2.4898Y-4.7736
X2.4898Y-5.4185
X2.4898Y-5.7185
X2.5898Y-4.4736
X2.5898Y-4.7736
X2.5898Y-5.4185
X2.5898Y-5.7185
X2.5909Y-6.128
X2.6772Y-8.2283
X2.6986Y-6.7224
X2.7756Y-8.2283
X2.7803Y-3.5039
X2.7803Y-3.7402
X2.797Y-6.7224
X2.8199Y-5.6909
X2.8199Y-5.8878
X2.8199Y-6.2421
X2.8199Y-6.439
X2.9528Y-8.2283
X2.9528Y-8.4252
X3.0167Y-5.5878
X3.0167Y-5.8878
X3.0167Y-6.139
X3.0167Y-6.439
X3.1167Y-5.5878
X3.1167Y-5.8878
X3.1167Y-6.139
X3.1167Y-6.439
X3.1496Y-8.1252
X3.1496Y-8.4252
X3.2167Y-5.5878
X3.2167Y-5.8878
X3.2167Y-6.139
X3.2167Y-6.439
X3.2283Y-3.8583
X3.2496Y-8.1252
X3.2496Y-8.4252
X3.253Y-5.3366
X3.3167Y-5.5878
X3.3167Y-5.8878
X3.3167Y-6.139
X3.3167Y-6.439
X3.3205Y-7.0177
X3.3205Y-7.1177
X3.3205Y-7.2177
X3.3205Y-7.3177
X3.3205Y-7.4177
X3.3205Y-7.5177
X3.3283Y-3.8583
X3.3496Y-8.1252
X3.3496Y-8.4252
X3.3514Y-5.3366
X3.4167Y-5.5878
X3.4167Y-5.8878
X3.4167Y-6.139
X3.4167Y-6.439
X3.4205Y-6.9177
X3.4205Y-7.0177
X3.4205Y-7.1177
X3.4205Y-7.2177
X3.4205Y-7.3177
X3.4205Y-7.4177
X3.4205Y-7.5177
X3.4205Y-7.6177
X3.4283Y-3.8583
X3.4496Y-8.1252
X3.4496Y-8.4252
X3.4498Y-4.9429
X3.4498Y-5.1398
X3.5167Y-5.5878
X3.5167Y-5.8878
X3.5167Y-6.139
X3.5167Y-6.439
X3.5205Y-6.9177
X3.5205Y-7.0177
X3.5205Y-7.5177
X3.5205Y-7.6177
X3.5283Y-3.8583
X3.5496Y-8.1252
X3.5496Y-8.4252
X3.6167Y-5.5878
X3.6167Y-5.8878
X3.6167Y-6.139
X3.6167Y-6.439
X3.6205Y-6.9177
X3.6205Y-7.0177
X3.6205Y-7.5177
X3.6205Y-7.6177
X3.6283Y-3.8583
X3.6467Y-4.8398
X3.6467Y-5.1398
X3.6467Y-5.3366
X3.6496Y-8.1252
X3.6496Y-8.4252
X3.7167Y-5.5878
X3.7167Y-5.8878
X3.7167Y-6.139
X3.7167Y-6.439
X3.7205Y-6.9177
X3.7205Y-7.0177
X3.7205Y-7.5177
X3.7205Y-7.6177
X3.7283Y-3.8583
X3.7402Y-6.6437
X3.7467Y-4.8398
X3.7467Y-5.1398
X3.7467Y-5.3366
X3.7496Y-8.1252
X3.7496Y-8.4252
X3.8167Y-5.5878
X3.8167Y-5.8878
X3.8167Y-6.139
X3.8167Y-6.439
X3.8205Y-6.9177
X3.8205Y-7.0177
X3.8205Y-7.5177
X3.8205Y-7.6177
X3.8283Y-3.8583
X3.8467Y-4.8398
X3.8467Y-5.1398
X3.8467Y-5.3366
X3.8496Y-8.1252
X3.8496Y-8.4252
X3.9167Y-5.5878
X3.9167Y-5.8878
X3.9167Y-6.139
X3.9167Y-6.439
X3.9205Y-6.9177
X3.9205Y-7.0177
X3.9205Y-7.1177
X3.9205Y-7.2177
X3.9205Y-7.3177
X3.9205Y-7.4177
X3.9205Y-7.5177
X3.9205Y-7.6177
X3.9283Y-3.8583
X3.937Y-6.6437
X3.9467Y-4.8398
X3.9467Y-5.1398
X3.9467Y-5.3366
X3.9496Y-8.1252
X3.9496Y-8.4252
X4.0205Y-7.0177
X4.0205Y-7.1177
X4.0205Y-7.2177
X4.0205Y-7.3177
X4.0205Y-7.4177
X4.0205Y-7.5177
X4.0283Y-3.8583
X4.0467Y-4.8398
X4.0467Y-5.1398
X4.0467Y-5.3366
X4.0496Y-8.1252
X4.0496Y-8.4252
X4.1467Y-4.8398
X4.1467Y-5.1398
X4.1467Y-5.3366
X4.1585Y-5.6909
X4.1585Y-5.8878
X4.1585Y-6.2421
X4.1585Y-6.439
X4.2467Y-4.8398
X4.2467Y-5.1398
X4.2467Y-5.3366
X4.2717Y-7.3327
X4.2717Y-7.5295
X4.3467Y-5.3366
X4.3553Y-5.5878
X4.3553Y-5.8878
X4.3553Y-6.139
X4.3553Y-6.439
X4.3701Y-8.5433
X4.4094Y-6.8504
X4.4094Y-7.0472
X4.4467Y-5.3366
X4.4553Y-5.5878
X4.4553Y-5.8878
X4.4553Y-6.139
X4.4553Y-6.439
X4.4685Y-8.5433
X4.4734Y-4.9429
X4.4734Y-5.1398
X4.5553Y-5.5878
X4.5553Y-5.8878
X4.5553Y-6.139
X4.5553Y-6.439
X4.6063Y-6.7472
X4.6063Y-7.0472
X4.6063Y-7.7165
X4.6063Y-7.9134
X4.6063Y-8.2283
X4.6063Y-8.4252
X4.6553Y-5.5878
X4.6553Y-5.8878
X4.6553Y-6.139
X4.6553Y-6.439
X4.6703Y-4.8398
X4.6703Y-5.1398
X4.7063Y-6.7472
X4.7063Y-7.0472
X4.7553Y-5.5878
X4.7553Y-5.8878
X4.7553Y-6.139
X4.7553Y-6.439
X4.7703Y-4.8398
X4.7703Y-5.1398
X4.8031Y-7.4409
X4.8031Y-7.6134
X4.8031Y-7.9134
X4.8031Y-8.1252
X4.8031Y-8.4252
X4.8063Y-6.7472
X4.8063Y-7.0472
X4.8553Y-5.5878
X4.8553Y-5.8878
X4.8553Y-6.139
X4.8553Y-6.439
X4.8703Y-4.8398
X4.8703Y-5.1398
X4.9031Y-7.4409
X4.9031Y-7.6134
X4.9031Y-7.9134
X4.9031Y-8.1252
X4.9031Y-8.4252
X4.9063Y-6.7472
X4.9063Y-7.0472
X4.9553Y-5.5878
X4.9553Y-5.8878
X4.9553Y-6.139
X4.9553Y-6.439
X4.9703Y-4.8398
X4.9703Y-5.1398
X5.0031Y-7.4409
X5.0031Y-7.6134
X5.0031Y-7.9134
X5.0031Y-8.1252
X5.0031Y-8.4252
X5.0063Y-6.7472
X5.0063Y-7.0472
X5.0553Y-5.5878
X5.0553Y-5.8878
X5.0553Y-6.139
X5.0553Y-6.439
X5.0703Y-4.8398
X5.0703Y-5.1398
X5.1031Y-7.4409
X5.1031Y-7.6134
X5.1031Y-7.9134
X5.1031Y-8.1252
X5.1031Y-8.4252
X5.1063Y-6.7472
X5.1063Y-7.0472
X5.1396Y-5.3642
X5.1553Y-5.5878
X5.1553Y-5.8878
X5.1553Y-6.139
X5.1553Y-6.439
X5.1703Y-4.8398
X5.1703Y-5.1398
X5.2031Y-7.4409
X5.2031Y-7.6134
X5.2031Y-7.9134
X5.2031Y-8.1252
X5.2031Y-8.4252
X5.2063Y-6.7472
X5.2063Y-7.0472
X5.238Y-5.3642
X5.2553Y-5.5878
X5.2553Y-5.8878
X5.2553Y-6.139
X5.2553Y-6.439
X5.2703Y-4.8398
X5.2703Y-5.1398
X5.3031Y-7.4409
X5.3031Y-7.6134
X5.3031Y-7.9134
X5.3031Y-8.1252
X5.3031Y-8.4252
X5.4031Y-7.4409
X5.4031Y-7.6134
X5.4031Y-7.9134
X5.4031Y-8.1252
X5.4031Y-8.4252
X5.5031Y-7.4409
X5.5031Y-7.6134
X5.5031Y-7.9134
X5.5031Y-8.1252
X5.5031Y-8.4252
X5.6031Y-7.4409
X5.6031Y-7.6134
X5.6031Y-7.9134
X5.6031Y-8.1252
X5.6031Y-8.4252
X5.6299Y-3.5039
X5.6299Y-3.8039
X5.6299Y-3.8976
X5.6299Y-4.0945
X5.7031Y-7.6134
X5.7031Y-7.9134
X5.7031Y-8.1252
X5.7031Y-8.4252
X5.748Y-6.8504
X5.748Y-7.0472
X5.7874Y-7.3622
X5.8661Y-3.5039
X5.8661Y-3.8039
X5.8661Y-3.8976
X5.8661Y-4.0945
X5.8858Y-7.3622
X5.9449Y-6.7472
X5.9449Y-7.0472
X5.9449Y-8.2283
X5.9449Y-8.4252
X6.0449Y-6.7472
X6.0449Y-7.0472
X6.1024Y-3.5039
X6.1024Y-3.8039
X6.1024Y-3.8976
X6.1024Y-4.0945
X6.1024Y-7.4409
X6.1417Y-8.1252
X6.1417Y-8.4252
X6.1449Y-6.7472
X6.1449Y-7.0472
X6.2024Y-7.4409
X6.2417Y-8.1252
X6.2417Y-8.4252
X6.2449Y-6.7472
X6.2449Y-7.0472
X6.3024Y-7.4409
X6.3386Y-3.5039
X6.3386Y-3.8039
X6.3386Y-3.8976
X6.3386Y-4.0945
X6.3417Y-8.1252
X6.3417Y-8.4252
X6.3449Y-6.7472
X6.3449Y-7.0472
X6.4024Y-7.4409
X6.4417Y-8.1252
X6.4417Y-8.4252
X6.4449Y-6.7472
X6.4449Y-7.0472
X6.5024Y-7.4409
X6.5417Y-8.1252
X6.5417Y-8.4252
X6.5449Y-6.7472
X6.5449Y-7.0472
X6.5748Y-3.5039
X6.5748Y-3.8039
X6.5748Y-3.8976
X6.5748Y-4.0945
X6.6024Y-7.4409
X6.6417Y-8.1252
X6.6417Y-8.4252
X6.6449Y-6.7472
X6.6449Y-7.0472
X6.7024Y-7.4409
X6.7417Y-8.1252
X6.7417Y-8.4252
X6.7449Y-6.7472
X6.7449Y-7.0472
X6.8024Y-7.4409
X6.811Y-3.5039
X6.811Y-3.8039
X6.811Y-3.8976
X6.811Y-4.0945
X6.8417Y-8.1252
X6.8417Y-8.4252
X6.8449Y-6.7472
X6.8449Y-7.0472
X6.9024Y-7.4409
X6.9417Y-8.1252
X6.9417Y-8.4252
X7.0417Y-8.1252
X7.0417Y-8.4252
X7.0472Y-3.5039
X7.0472Y-3.8039
X7.0472Y-3.8976
X7.0472Y-4.0945
X7.0472Y-4.2323
X7.0472Y-4.5323
X7.0472Y-4.7244
X7.126Y-5.0
X7.126Y-5.1969
X7.1472Y-4.7244
X7.2441Y-5.3543
X7.2441Y-5.5512
X7.2472Y-4.7244
X7.2835Y-3.5039
X7.2835Y-3.8039
X7.2835Y-3.8976
X7.2835Y-4.0945
X7.2835Y-4.2323
X7.2835Y-4.5323
X7.3228Y-4.8969
X7.3228Y-5.1969
X7.3228Y-7.7067
X7.3228Y-7.9035
X7.3425Y-6.4783
X7.3472Y-4.7244
X7.3809Y-5.3695
X7.3809Y-5.9695
X7.4228Y-4.8969
X7.4228Y-5.1969
X7.4409Y-6.4783
X7.4472Y-4.7244
X7.4809Y-5.3695
X7.4809Y-5.9695
X7.5197Y-3.5039
X7.5197Y-3.8039
X7.5197Y-3.8976
X7.5197Y-4.0945
X7.5197Y-7.6035
X7.5197Y-7.9035
X7.5228Y-4.8969
X7.5228Y-5.1969
X7.5472Y-4.7244
X7.5591Y-8.5433
X7.5809Y-5.3695
X7.5809Y-5.9695
X7.6197Y-7.6035
X7.6197Y-7.9035
X7.6228Y-4.8969
X7.6228Y-5.1969
X7.6472Y-4.7244
X7.6575Y-8.5433
X7.6809Y-5.3695
X7.6809Y-5.9695
X7.6906Y-6.7343
X7.6906Y-6.8343
X7.6906Y-6.9343
X7.6906Y-7.0343
X7.6906Y-7.1343
X7.6906Y-7.2343
X7.7197Y-7.6035
X7.7197Y-7.9035
X7.7228Y-4.8969
X7.7228Y-5.1969
X7.7472Y-4.7244
X7.7809Y-5.3695
X7.7809Y-5.9695
X7.7906Y-6.6343
X7.7906Y-6.7343
X7.7906Y-6.8343
X7.7906Y-6.9343
X7.7906Y-7.0343
X7.7906Y-7.1343
X7.7906Y-7.2343
X7.7906Y-7.3343
X7.8197Y-7.6035
X7.8197Y-7.9035
X7.8228Y-4.8969
X7.8228Y-5.1969
X7.8472Y-4.7244
X7.8809Y-5.3695
X7.8809Y-5.9695
X7.8906Y-6.6343
X7.8906Y-6.7343
X7.8906Y-7.2343
X7.8906Y-7.3343
X7.9197Y-7.6035
X7.9197Y-7.9035
X7.9228Y-4.8969
X7.9228Y-5.1969
X7.9809Y-5.3695
X7.9809Y-5.9695
X7.9906Y-6.6343
X7.9906Y-6.7343
X7.9906Y-7.2343
X7.9906Y-7.3343
X8.0197Y-7.6035
X8.0197Y-7.9035
X8.0315Y-3.6417
X8.0315Y-8.2283
X8.0315Y-8.4252
X8.0512Y-3.8976
X8.0709Y-4.6063
X8.0709Y-4.8425
X8.0809Y-5.3695
X8.0809Y-5.9695
X8.0906Y-6.6343
X8.0906Y-6.7343
X8.0906Y-7.2343
X8.0906Y-7.3343
X8.1197Y-7.6035
X8.1197Y-7.9035
X8.1496Y-3.8976
X8.1496Y-6.3799
X8.1809Y-5.3695
X8.1809Y-5.9695
X8.1906Y-6.6343
X8.1906Y-6.7343
X8.1906Y-7.2343
X8.1906Y-7.3343
X8.2197Y-7.6035
X8.2197Y-7.9035
X8.2283Y-8.1252
X8.2283Y-8.4252
X8.2809Y-5.3695
X8.2809Y-5.9695
X8.2906Y-6.6343
X8.2906Y-6.7343
X8.2906Y-6.8343
X8.2906Y-6.9343
X8.2906Y-7.0343
X8.2906Y-7.1343
X8.2906Y-7.2343
X8.2906Y-7.3343
X8.3197Y-7.6035
X8.3197Y-7.9035
X8.3283Y-8.1252
X8.3283Y-8.4252
X8.3315Y-3.6417
X8.3465Y-4.4094
X8.3465Y-6.3799
X8.3661Y-3.878
X8.3709Y-4.6063
X8.3709Y-4.8425
X8.3809Y-5.3695
X8.3809Y-5.9695
X8.3906Y-6.7343
X8.3906Y-6.8343
X8.3906Y-6.9343
X8.3906Y-7.0343
X8.3906Y-7.1343
X8.3906Y-7.2343
X8.4197Y-7.6035
X8.4197Y-7.9035
X8.4252Y-3.6417
X8.4252Y-4.1142
X8.4283Y-8.1252
X8.4283Y-8.4252
X8.4465Y-4.4094
X8.4646Y-3.878
X8.4646Y-4.6063
X8.4646Y-4.8425
X8.4809Y-5.3695
X8.4809Y-5.9695
X8.5039Y-6.1614
X8.5197Y-7.6035
X8.5197Y-7.9035
X8.5283Y-8.1252
X8.5283Y-8.4252
X8.5465Y-4.4094
X8.5809Y-5.3695
X8.5809Y-5.9695
X8.6197Y-7.6035
X8.6197Y-7.9035
X8.6283Y-8.1252
X8.6283Y-8.4252
X8.6465Y-4.4094
X8.6809Y-5.3695
X8.6809Y-5.9695
X8.6961Y-6.1614
X8.7252Y-3.6417
X8.7252Y-4.1142
X8.7283Y-8.1252
X8.7283Y-8.4252
X8.7465Y-4.4094
X8.7646Y-4.6063
X8.7646Y-4.8425
X8.8283Y-8.1252
X8.8283Y-8.4252
X8.8465Y-4.4094
X8.8583Y-4.6063
X8.8583Y-4.8425
X8.9283Y-8.1252
X8.9283Y-8.4252
X8.937Y-3.7008
X8.937Y-4.0551
X8.9465Y-4.4094
X9.0283Y-8.1252
X9.0283Y-8.4252
X9.0354Y-3.7008
X9.0354Y-4.0551
X9.0465Y-4.4094
X9.1283Y-8.1252
X9.1283Y-8.4252
X9.1465Y-4.4094
X9.1583Y-4.6063
X9.1583Y-4.8425
X9.252Y-4.6063
X9.252Y-4.8425
X9.3504Y-4.1732
X9.3701Y-4.4094
X9.4701Y-4.4094
X9.552Y-4.6063
X9.552Y-4.8425
X9.5701Y-4.4094
X9.6457Y-4.6063
X9.6457Y-4.8425
X9.6504Y-4.1732
X9.6701Y-4.4094
X9.7701Y-4.4094
X9.8701Y-4.4094
X9.9457Y-4.6063
X9.9457Y-4.8425
X9.9701Y-4.4094
X10.0394Y-4.6063
X10.0394Y-4.8425
X10.0701Y-4.4094
X10.1701Y-4.4094
X10.3394Y-4.6063
X10.3394Y-4.8425
T5
X1.7898Y-3.189
X1.8898Y-3.189
X2.1835Y-3.189
X2.2835Y-3.189
X2.5772Y-3.189
X2.6772Y-3.189
X2.9528Y-3.5039
X3.0528Y-3.5039
X3.3465Y-3.5039
X3.4465Y-3.5039
X3.7402Y-3.5039
X3.8402Y-3.5039
X4.1339Y-3.5039
X4.2339Y-3.5039
X4.5276Y-3.5039
X4.6276Y-3.5039
X4.9213Y-3.5039
X5.0213Y-3.5039
X5.315Y-3.5039
X5.415Y-3.5039
T6
X2.9134Y-2.9921
X3.0906Y-2.9921
T7
X1.688Y-7.2238
X1.688Y-7.3238
X1.688Y-7.5388
X1.688Y-7.6388
X1.6929Y-7.8528
X1.6929Y-7.9528
X1.6929Y-8.1677
X1.6929Y-8.2677
X1.6929Y-8.4827
X1.6929Y-8.5827
X1.788Y-7.2238
X1.788Y-7.3238
X1.788Y-7.5388
X1.788Y-7.6388
X1.7929Y-7.8528
X1.7929Y-7.9528
X1.7929Y-8.1677
X1.7929Y-8.2677
X1.7929Y-8.4827
X1.7929Y-8.5827
X1.852Y-8.7795
X1.852Y-8.8795
X1.888Y-7.2238
X1.888Y-7.3238
X1.888Y-7.5388
X1.888Y-7.6388
X1.8929Y-7.8528
X1.8929Y-7.9528
X1.8929Y-8.1677
X1.8929Y-8.2677
X1.8929Y-8.4827
X1.8929Y-8.5827
X1.952Y-8.7795
X1.952Y-8.8795
X1.988Y-7.2238
X1.988Y-7.3238
X1.988Y-7.5388
X1.988Y-7.6388
X1.9929Y-7.8528
X1.9929Y-7.9528
X1.9929Y-8.1677
X1.9929Y-8.2677
X1.9929Y-8.4827
X1.9929Y-8.5827
X2.052Y-8.7795
X2.052Y-8.8795
X2.088Y-7.2238
X2.088Y-7.3238
X2.088Y-7.5388
X2.088Y-7.6388
X2.0929Y-7.8528
X2.0929Y-7.9528
X2.0929Y-8.1677
X2.0929Y-8.2677
X2.0929Y-8.4827
X2.0929Y-8.5827
X2.152Y-8.7795
X2.152Y-8.8795
X2.185Y-3.7402
X2.185Y-3.9961
X2.188Y-7.2238
X2.188Y-7.3238
X2.188Y-7.5388
X2.188Y-7.6388
X2.1929Y-7.8528
X2.1929Y-7.9528
X2.1929Y-8.1677
X2.1929Y-8.2677
X2.1929Y-8.4827
X2.1929Y-8.5827
X2.252Y-8.7795
X2.252Y-8.8795
X2.285Y-3.7402
X2.285Y-3.9961
X2.288Y-7.2238
X2.288Y-7.3238
X2.288Y-7.5388
X2.288Y-7.6388
X2.2929Y-7.8528
X2.2929Y-7.9528
X2.2929Y-8.1677
X2.2929Y-8.2677
X2.2929Y-8.4827
X2.2929Y-8.5827
X2.352Y-8.7795
X2.352Y-8.8795
X2.388Y-7.2238
X2.388Y-7.3238
X2.388Y-7.5388
X2.388Y-7.6388
X2.3929Y-7.8528
X2.3929Y-7.9528
X2.3929Y-8.1677
X2.3929Y-8.2677
X2.3929Y-8.4827
X2.3929Y-8.5827
X2.452Y-8.7795
X2.452Y-8.8795
X2.552Y-8.7795
X2.552Y-8.8795
X2.5787Y-3.9961
X2.652Y-8.7795
X2.652Y-8.8795
X2.6787Y-3.9961
X2.752Y-8.7795
X2.752Y-8.8795
X2.7559Y-7.9331
X2.852Y-8.7795
X2.852Y-8.8795
X2.8559Y-7.9331
X2.952Y-8.7795
X2.952Y-8.8795
X2.9559Y-7.9331
X3.052Y-8.7795
X3.052Y-8.8795
X3.0559Y-7.9331
X3.152Y-8.7795
X3.152Y-8.8795
X3.252Y-8.7795
X3.252Y-8.8795
X3.352Y-8.7795
X3.352Y-8.8795
X3.452Y-8.7795
X3.452Y-8.8795
X3.4646Y-3.2071
X3.4646Y-3.3071
X3.552Y-8.7795
X3.552Y-8.8795
X3.5646Y-3.2071
X3.5646Y-3.3071
X3.652Y-8.7795
X3.652Y-8.8795
X3.6646Y-3.2071
X3.6646Y-3.3071
X3.7195Y-8.6024
X3.752Y-8.7795
X3.752Y-8.8795
X3.7646Y-3.2071
X3.7646Y-3.3071
X3.8195Y-8.6024
X3.852Y-8.7795
X3.852Y-8.8795
X3.8646Y-3.2071
X3.8646Y-3.3071
X3.9195Y-8.6024
X3.952Y-8.7795
X3.952Y-8.8795
X4.052Y-8.7795
X4.052Y-8.8795
X4.152Y-8.7795
X4.152Y-8.8795
X4.252Y-8.7795
X4.252Y-8.8795
X4.4094Y-3.2071
X4.4094Y-3.3071
X4.5094Y-3.2071
X4.5094Y-3.3071
X4.6094Y-3.2071
X4.6094Y-3.3071
X4.7094Y-3.2071
X4.7094Y-3.3071
X4.7654Y-8.7795
X4.7654Y-8.8795
X4.8094Y-3.2071
X4.8094Y-3.3071
X4.8654Y-8.7795
X4.8654Y-8.8795
X4.9094Y-3.2071
X4.9094Y-3.3071
X4.9654Y-8.7795
X4.9654Y-8.8795
X5.0654Y-8.7795
X5.0654Y-8.8795
X5.1654Y-8.7795
X5.1654Y-8.8795
X5.2654Y-8.7795
X5.2654Y-8.8795
X5.3654Y-8.7795
X5.3654Y-8.8795
X5.4331Y-3.2071
X5.4331Y-3.3071
X5.4654Y-8.7795
X5.4654Y-8.8795
X5.5331Y-3.2071
X5.5331Y-3.3071
X5.5654Y-8.7795
X5.5654Y-8.8795
X5.6331Y-3.2071
X5.6331Y-3.3071
X5.6654Y-8.7795
X5.6654Y-8.8795
X5.7331Y-3.2071
X5.7331Y-3.3071
X5.7654Y-8.7795
X5.7654Y-8.8795
X5.8331Y-3.2071
X5.8331Y-3.3071
X5.8508Y-5.8752
X5.8654Y-8.7795
X5.8654Y-8.8795
X5.9508Y-5.8752
X5.9654Y-8.7795
X5.9654Y-8.8795
X6.0508Y-5.8752
X6.0654Y-8.7795
X6.0654Y-8.8795
X6.1024Y-7.7346
X6.1024Y-7.8346
X6.1508Y-5.8752
X6.1654Y-8.7795
X6.1654Y-8.8795
X6.2024Y-7.7346
X6.2024Y-7.8346
X6.2508Y-5.8752
X6.2654Y-8.7795
X6.2654Y-8.8795
X6.3024Y-7.7346
X6.3024Y-7.8346
X6.3508Y-5.8752
X6.3654Y-8.7795
X6.3654Y-8.8795
X6.378Y-3.2071
X6.378Y-3.3071
X6.4024Y-7.7346
X6.4024Y-7.8346
X6.4508Y-5.8752
X6.4654Y-8.7795
X6.4654Y-8.8795
X6.478Y-3.2071
X6.478Y-3.3071
X6.5508Y-5.8752
X6.5654Y-8.7795
X6.5654Y-8.8795
X6.578Y-3.2071
X6.578Y-3.3071
X6.6535Y-7.7346
X6.6535Y-7.8346
X6.6654Y-8.7795
X6.6654Y-8.8795
X6.678Y-3.2071
X6.678Y-3.3071
X6.7535Y-7.7346
X6.7535Y-7.8346
X6.7654Y-8.7795
X6.7654Y-8.8795
X6.778Y-3.2071
X6.778Y-3.3071
X6.8535Y-7.7346
X6.8535Y-7.8346
X6.8654Y-8.7795
X6.8654Y-8.8795
X6.878Y-3.2071
X6.878Y-3.3071
X6.9535Y-7.7346
X6.9535Y-7.8346
X6.9654Y-8.7795
X6.9654Y-8.8795
X6.978Y-3.2071
X6.978Y-3.3071
X7.0535Y-7.7346
X7.0535Y-7.8346
X7.0654Y-8.7795
X7.0654Y-8.8795
X7.078Y-3.2071
X7.078Y-3.3071
X7.1654Y-8.7795
X7.1654Y-8.8795
X7.178Y-3.2071
X7.178Y-3.3071
X7.278Y-3.2071
X7.278Y-3.3071
X7.378Y-3.2071
X7.378Y-3.3071
X7.478Y-3.2071
X7.478Y-3.3071
X7.578Y-3.2071
X7.578Y-3.3071
X7.7559Y-3.5039
X7.7559Y-3.6039
X7.7559Y-3.7039
X7.7559Y-3.937
X7.7559Y-4.037
X7.7575Y-8.7795
X7.7575Y-8.8795
X7.8575Y-8.7795
X7.8575Y-8.8795
X7.9575Y-8.7795
X7.9575Y-8.8795
X8.0575Y-8.7795
X8.0575Y-8.8795
X8.1102Y-3.2071
X8.1102Y-3.3071
X8.1299Y-4.252
X8.1575Y-8.7795
X8.1575Y-8.8795
X8.2102Y-3.2071
X8.2102Y-3.3071
X8.2575Y-8.7795
X8.2575Y-8.8795
X8.3102Y-3.2071
X8.3102Y-3.3071
X8.3575Y-8.7795
X8.3575Y-8.8795
X8.4102Y-3.2071
X8.4102Y-3.3071
X8.4575Y-8.7795
X8.4575Y-8.8795
X8.5102Y-3.2071
X8.5102Y-3.3071
X8.5575Y-8.7795
X8.5575Y-8.8795
X8.6575Y-8.7795
X8.6575Y-8.8795
X8.7575Y-8.7795
X8.7575Y-8.8795
X8.8575Y-8.7795
X8.8575Y-8.8795
X8.9575Y-8.7795
X8.9575Y-8.8795
X9.0287Y-7.6429
X9.0287Y-7.7429
X9.0551Y-3.2071
X9.0551Y-3.3071
X9.0575Y-8.7795
X9.0575Y-8.8795
X9.1287Y-7.6429
X9.1287Y-7.7429
X9.1551Y-3.2071
X9.1551Y-3.3071
X9.1575Y-8.7795
X9.1575Y-8.8795
X9.2287Y-7.6429
X9.2287Y-7.7429
X9.2551Y-3.2071
X9.2551Y-3.3071
X9.2575Y-8.7795
X9.2575Y-8.8795
X9.3287Y-7.6429
X9.3287Y-7.7429
X9.3551Y-3.2071
X9.3551Y-3.3071
X9.3575Y-8.7795
X9.3575Y-8.8795
X9.4287Y-7.6429
X9.4287Y-7.7429
X9.4551Y-3.2071
X9.4551Y-3.3071
X9.4575Y-8.7795
X9.4575Y-8.8795
X9.5287Y-7.6429
X9.5287Y-7.7429
X9.5575Y-8.7795
X9.5575Y-8.8795
X9.6287Y-7.6429
X9.6287Y-7.7429
X9.6575Y-8.7795
X9.6575Y-8.8795
X9.7287Y-7.6429
X9.7287Y-7.7429
X9.7575Y-8.7795
X9.7575Y-8.8795
X9.8575Y-8.7795
X9.8575Y-8.8795
X9.9575Y-8.7795
X9.9575Y-8.8795
X10.0575Y-8.7795
X10.0575Y-8.8795
X10.1575Y-8.7795
X10.1575Y-8.8795
T8
X2.8642Y-3.0902
X3.1402Y-3.0902
T9
X5.8008Y-4.7852
X5.8008Y-5.5852
X6.6008Y-4.7852
X6.6008Y-5.5852
T10
X1.5748Y-2.9528
X10.4331Y-2.9528
T0
M30
