M48
; DRILL file {KiCad (6.0.11)} date Wed Nov  8 11:43:03 2023
; FORMAT={-:-/ absolute / inch / decimal}
; #@! TF.CreationDate,2023-11-08T11:43:03-05:00
; #@! TF.GenerationSoftware,Kicad,Pcbnew,(6.0.11)
; #@! TF.FileFunction,Plated,1,2,PTH
FMAT,2
INCH
; #@! TA.AperFunction,Plated,PTH,ComponentDrill
T1C0.0118
; #@! TA.AperFunction,Plated,PTH,ViaDrill
T2C0.0157
; #@! TA.AperFunction,Plated,PTH,ComponentDrill
T3C0.0295
; #@! TA.AperFunction,Plated,PTH,ComponentDrill
T4C0.0315
; #@! TA.AperFunction,Plated,PTH,ComponentDrill
T5C0.0354
; #@! TA.AperFunction,Plated,PTH,ComponentDrill
T6C0.0390
; #@! TA.AperFunction,Plated,PTH,ComponentDrill
T7C0.0394
; #@! TA.AperFunction,Plated,PTH,ComponentDrill
T8C0.0512
; #@! TA.AperFunction,Plated,PTH,ComponentDrill
T9C0.1260
%
G90
G05
T1
X3.1102Y-5.9213
X3.1102Y-5.9685
X5.9055Y-7.7618
X5.9055Y-7.8091
X7.1654Y-5.6614
X7.1654Y-5.7087
X7.4803Y-7.3543
X7.4803Y-7.4016
X7.7421Y-6.4094
X7.7894Y-6.4094
X8.6024Y-7.1831
X8.6024Y-7.2303
T2
X2.726Y-3.5481
X2.8156Y-3.6364
X2.9193Y-5.107
X2.9895Y-6.0902
X3.0161Y-6.1194
X3.0164Y-4.6075
X3.1574Y-6.8756
X3.1629Y-6.8229
X3.1923Y-5.9177
X3.3327Y-6.5823
X3.4028Y-8.3937
X3.4751Y-5.3481
X3.5254Y-7.2329
X3.7514Y-5.5245
X3.9045Y-6.9114
X3.984Y-6.9909
X4.0299Y-5.6581
X4.0335Y-5.6976
X4.0955Y-8.2081
X4.1613Y-6.1269
X4.2309Y-5.2874
X4.434Y-5.0066
X4.4714Y-5.4915
X4.4815Y-5.8666
X4.5357Y-3.8522
X4.5713Y-5.0114
X4.6615Y-6.3918
X4.762Y-6.0719
X5.0528Y-8.0645
X5.0775Y-5.3898
X5.092Y-6.0456
X5.0987Y-8.0262
X5.1914Y-5.3366
X5.2617Y-7.1502
X5.2955Y-8.0004
X5.3884Y-4.8397
X5.4063Y-4.6942
X5.4116Y-6.6001
X5.4167Y-4.7726
X5.5827Y-5.4845
X5.6762Y-7.7792
X5.7314Y-6.9449
X5.7378Y-8.3169
X5.7733Y-5.334
X5.7805Y-4.6304
X5.7873Y-4.0073
X5.7921Y-3.691
X5.7996Y-6.6272
X6.0312Y-6.0398
X6.0331Y-6.0792
X6.0708Y-7.1107
X6.1449Y-6.3981
X6.154Y-7.1699
X6.1972Y-5.4176
X6.3469Y-4.0392
X6.4044Y-3.8604
X6.4242Y-5.56
X6.445Y-6.3335
X6.521Y-5.4577
X6.7314Y-7.2968
X6.7345Y-3.9032
X6.7501Y-6.0095
X6.7601Y-5.0226
X6.7926Y-6.9742
X6.8307Y-6.3483
X6.8384Y-4.7683
X6.906Y-5.8785
X6.9279Y-6.6216
X6.9638Y-6.9387
X6.9834Y-6.8764
X7.0238Y-6.8361
X7.0286Y-6.8807
X7.0378Y-6.392
X7.0536Y-5.0895
X7.0555Y-6.3049
X7.091Y-6.191
X7.1011Y-5.3202
X7.113Y-6.0765
X7.1194Y-6.1518
X7.2203Y-3.6836
X7.2392Y-5.1053
X7.3052Y-5.6549
X7.3589Y-4.9714
X7.4112Y-6.0416
X7.4715Y-7.7815
X7.4906Y-3.6853
X7.5286Y-5.0887
X7.5974Y-4.8073
X7.6123Y-6.7926
X7.6434Y-3.6515
X7.6918Y-5.4788
X7.7653Y-4.4439
X7.7767Y-4.5356
X7.9169Y-6.5046
X7.9258Y-7.0715
X7.9497Y-7.4179
X8.0483Y-5.8946
X8.0623Y-6.0765
X8.0998Y-5.2909
X8.1421Y-5.8687
X8.1786Y-4.5742
X8.2217Y-4.9714
X8.2423Y-6.7796
X8.302Y-6.3214
X8.3659Y-7.9685
X8.5749Y-7.0999
X8.6483Y-7.3343
X8.7199Y-7.0982
X8.7377Y-7.1387
X8.8201Y-7.0045
X8.8334Y-3.3419
X9.1887Y-5.7516
X9.1912Y-5.2533
X9.1979Y-5.3546
X9.214Y-5.2054
X9.2246Y-3.4556
X9.4827Y-3.581
X9.5287Y-6.9751
X9.558Y-6.8843
X9.8723Y-2.9749
X9.8862Y-3.024
X9.8921Y-2.8625
X9.9211Y-2.8901
X10.1387Y-2.9082
X10.1562Y-2.8629
T3
X8.6508Y-3.8673
X8.7008Y-3.8173
X8.7008Y-3.9173
T4
X1.6929Y-3.5039
X1.6929Y-3.7402
X1.7913Y-4.0354
X1.8898Y-4.0354
X1.9929Y-3.5039
X1.9929Y-3.7402
X2.0866Y-3.5039
X2.126Y-6.2992
X2.126Y-6.4961
X2.126Y-6.8504
X2.126Y-7.0472
X2.1457Y-4.9803
X2.1457Y-5.1772
X2.2441Y-6.0236
X2.3228Y-6.1961
X2.3228Y-6.4961
X2.3228Y-6.7472
X2.3228Y-7.0472
X2.3425Y-4.7047
X2.3425Y-4.8772
X2.3425Y-5.1772
X2.3425Y-5.374
X2.3866Y-3.5039
X2.4228Y-6.1961
X2.4228Y-6.4961
X2.4228Y-6.7472
X2.4228Y-7.0472
X2.4425Y-4.8772
X2.4425Y-5.1772
X2.4803Y-3.5039
X2.4803Y-3.7402
X2.5228Y-6.1961
X2.5228Y-6.4961
X2.5228Y-6.7472
X2.5228Y-7.0472
X2.5394Y-4.7047
X2.5394Y-5.374
X2.5425Y-4.8772
X2.5425Y-5.1772
X2.5441Y-6.0236
X2.6228Y-6.1961
X2.6228Y-6.4961
X2.6228Y-6.7472
X2.6228Y-7.0472
X2.6378Y-6.0236
X2.6425Y-4.8772
X2.6425Y-5.1772
X2.6575Y-4.7047
X2.6575Y-5.374
X2.6772Y-8.2283
X2.7228Y-6.1961
X2.7228Y-6.4961
X2.7228Y-6.7472
X2.7228Y-7.0472
X2.7425Y-4.8772
X2.7425Y-5.1772
X2.7756Y-8.2283
X2.7803Y-3.5039
X2.7803Y-3.7402
X2.8228Y-6.1961
X2.8228Y-6.4961
X2.8228Y-6.7472
X2.8228Y-7.0472
X2.8425Y-4.8772
X2.8425Y-5.1772
X2.8543Y-4.7047
X2.8543Y-5.374
X2.9228Y-6.1961
X2.9228Y-6.4961
X2.9228Y-6.7472
X2.9228Y-7.0472
X2.9378Y-6.0236
X2.9425Y-4.8772
X2.9425Y-5.1772
X2.9528Y-8.2283
X2.9528Y-8.4252
X3.0425Y-4.8772
X3.0425Y-5.1772
X3.1496Y-8.1252
X3.1496Y-8.4252
X3.2283Y-3.8583
X3.2496Y-8.1252
X3.2496Y-8.4252
X3.3205Y-5.7677
X3.3205Y-5.8677
X3.3205Y-5.9677
X3.3205Y-6.0677
X3.3205Y-6.1677
X3.3205Y-6.2677
X3.3283Y-3.8583
X3.3496Y-8.1252
X3.3496Y-8.4252
X3.4205Y-5.6677
X3.4205Y-5.7677
X3.4205Y-5.8677
X3.4205Y-5.9677
X3.4205Y-6.0677
X3.4205Y-6.1677
X3.4205Y-6.2677
X3.4205Y-6.3677
X3.4283Y-3.8583
X3.4496Y-8.1252
X3.4496Y-8.4252
X3.4646Y-5.0984
X3.5205Y-5.6677
X3.5205Y-5.7677
X3.5205Y-6.2677
X3.5205Y-6.3677
X3.5283Y-3.8583
X3.5496Y-8.1252
X3.5496Y-8.4252
X3.563Y-5.0984
X3.5827Y-6.8504
X3.6205Y-5.6677
X3.6205Y-5.7677
X3.6205Y-6.2677
X3.6205Y-6.3677
X3.6283Y-3.8583
X3.6496Y-8.1252
X3.6496Y-8.4252
X3.6811Y-6.8504
X3.7205Y-5.6677
X3.7205Y-5.7677
X3.7205Y-6.2677
X3.7205Y-6.3677
X3.7283Y-3.8583
X3.7402Y-5.3937
X3.7496Y-8.1252
X3.7496Y-8.4252
X3.8205Y-5.6677
X3.8205Y-5.7677
X3.8205Y-6.2677
X3.8205Y-6.3677
X3.8283Y-3.8583
X3.8496Y-8.1252
X3.8496Y-8.4252
X3.878Y-5.0
X3.878Y-5.1969
X3.9205Y-5.6677
X3.9205Y-5.7677
X3.9205Y-5.8677
X3.9205Y-5.9677
X3.9205Y-6.0677
X3.9205Y-6.1677
X3.9205Y-6.2677
X3.9205Y-6.3677
X3.9283Y-3.8583
X3.937Y-5.3937
X3.9496Y-8.1252
X3.9496Y-8.4252
X4.0205Y-5.7677
X4.0205Y-5.8677
X4.0205Y-5.9677
X4.0205Y-6.0677
X4.0205Y-6.1677
X4.0205Y-6.2677
X4.0283Y-3.8583
X4.0496Y-8.1252
X4.0496Y-8.4252
X4.0748Y-4.7047
X4.0748Y-4.8969
X4.0748Y-5.1969
X4.0748Y-5.3937
X4.1748Y-4.8969
X4.1748Y-5.1969
X4.2717Y-4.7047
X4.2717Y-5.3937
X4.2717Y-6.0827
X4.2717Y-6.2795
X4.2748Y-4.8969
X4.2748Y-5.1969
X4.3701Y-4.7047
X4.3701Y-5.3937
X4.3701Y-8.5433
X4.3748Y-4.8969
X4.3748Y-5.1969
X4.4094Y-5.748
X4.4094Y-5.9449
X4.4094Y-6.2992
X4.4094Y-6.4961
X4.4094Y-6.8504
X4.4094Y-7.0472
X4.4685Y-8.5433
X4.4748Y-4.8969
X4.4748Y-5.1969
X4.5669Y-4.7047
X4.5669Y-5.3937
X4.5748Y-4.8969
X4.5748Y-5.1969
X4.6063Y-5.6449
X4.6063Y-5.9449
X4.6063Y-6.1961
X4.6063Y-6.4961
X4.6063Y-6.7472
X4.6063Y-7.0472
X4.6063Y-7.7165
X4.6063Y-7.9134
X4.6063Y-8.2283
X4.6063Y-8.4252
X4.6748Y-4.8969
X4.6748Y-5.1969
X4.7063Y-5.6449
X4.7063Y-5.9449
X4.7063Y-6.1961
X4.7063Y-6.4961
X4.7063Y-6.7472
X4.7063Y-7.0472
X4.7748Y-4.8969
X4.7748Y-5.1969
X4.8031Y-7.4409
X4.8031Y-7.6134
X4.8031Y-7.9134
X4.8031Y-8.1252
X4.8031Y-8.4252
X4.8063Y-5.6449
X4.8063Y-5.9449
X4.8063Y-6.1961
X4.8063Y-6.4961
X4.8063Y-6.7472
X4.8063Y-7.0472
X4.8425Y-5.3937
X4.9031Y-7.4409
X4.9031Y-7.6134
X4.9031Y-7.9134
X4.9031Y-8.1252
X4.9031Y-8.4252
X4.9063Y-5.6449
X4.9063Y-5.9449
X4.9063Y-6.1961
X4.9063Y-6.4961
X4.9063Y-6.7472
X4.9063Y-7.0472
X4.9409Y-5.3937
X5.0031Y-7.4409
X5.0031Y-7.6134
X5.0031Y-7.9134
X5.0031Y-8.1252
X5.0031Y-8.4252
X5.0063Y-5.6449
X5.0063Y-5.9449
X5.0063Y-6.1961
X5.0063Y-6.4961
X5.0063Y-6.7472
X5.0063Y-7.0472
X5.0394Y-5.0
X5.0394Y-5.1969
X5.1031Y-7.4409
X5.1031Y-7.6134
X5.1031Y-7.9134
X5.1031Y-8.1252
X5.1031Y-8.4252
X5.1063Y-5.6449
X5.1063Y-5.9449
X5.1063Y-6.1961
X5.1063Y-6.4961
X5.1063Y-6.7472
X5.1063Y-7.0472
X5.2031Y-7.4409
X5.2031Y-7.6134
X5.2031Y-7.9134
X5.2031Y-8.1252
X5.2031Y-8.4252
X5.2063Y-5.6449
X5.2063Y-5.9449
X5.2063Y-6.1961
X5.2063Y-6.4961
X5.2063Y-6.7472
X5.2063Y-7.0472
X5.2362Y-4.8969
X5.2362Y-5.1969
X5.2362Y-5.3937
X5.3031Y-7.4409
X5.3031Y-7.6134
X5.3031Y-7.9134
X5.3031Y-8.1252
X5.3031Y-8.4252
X5.3063Y-5.6449
X5.3063Y-5.9449
X5.3063Y-6.1961
X5.3063Y-6.4961
X5.3362Y-4.8969
X5.3362Y-5.1969
X5.3362Y-5.3937
X5.4031Y-7.4409
X5.4031Y-7.6134
X5.4031Y-7.9134
X5.4031Y-8.1252
X5.4031Y-8.4252
X5.4063Y-5.6449
X5.4063Y-5.9449
X5.4063Y-6.1961
X5.4063Y-6.4961
X5.4362Y-4.8969
X5.4362Y-5.1969
X5.4362Y-5.3937
X5.5031Y-7.4409
X5.5031Y-7.6134
X5.5031Y-7.9134
X5.5031Y-8.1252
X5.5031Y-8.4252
X5.5063Y-5.6449
X5.5063Y-5.9449
X5.5063Y-6.1961
X5.5063Y-6.4961
X5.5362Y-4.8969
X5.5362Y-5.1969
X5.5362Y-5.3937
X5.6031Y-7.4409
X5.6031Y-7.6134
X5.6031Y-7.9134
X5.6031Y-8.1252
X5.6031Y-8.4252
X5.6299Y-3.5039
X5.6299Y-3.8039
X5.6299Y-3.8976
X5.6299Y-4.0945
X5.6362Y-4.8969
X5.6362Y-5.1969
X5.6362Y-5.3937
X5.7031Y-7.6134
X5.7031Y-7.9134
X5.7031Y-8.1252
X5.7031Y-8.4252
X5.7362Y-4.8969
X5.7362Y-5.1969
X5.7362Y-5.3937
X5.748Y-5.748
X5.748Y-5.9449
X5.748Y-6.2992
X5.748Y-6.4961
X5.748Y-6.8504
X5.748Y-7.0472
X5.7874Y-7.3622
X5.8362Y-4.8969
X5.8362Y-5.1969
X5.8362Y-5.3937
X5.8661Y-3.5039
X5.8661Y-3.8039
X5.8661Y-3.8976
X5.8661Y-4.0945
X5.8858Y-7.3622
X5.9362Y-5.3937
X5.9449Y-5.6449
X5.9449Y-5.9449
X5.9449Y-6.1961
X5.9449Y-6.4961
X5.9449Y-6.7472
X5.9449Y-7.0472
X5.9449Y-8.2283
X5.9449Y-8.4252
X6.0362Y-5.3937
X6.0449Y-5.6449
X6.0449Y-5.9449
X6.0449Y-6.1961
X6.0449Y-6.4961
X6.0449Y-6.7472
X6.0449Y-7.0472
X6.063Y-5.0
X6.063Y-5.1969
X6.1024Y-3.5039
X6.1024Y-3.8039
X6.1024Y-3.8976
X6.1024Y-4.0945
X6.1024Y-7.4409
X6.1417Y-8.1252
X6.1417Y-8.4252
X6.1449Y-5.6449
X6.1449Y-5.9449
X6.1449Y-6.1961
X6.1449Y-6.4961
X6.1449Y-6.7472
X6.1449Y-7.0472
X6.2024Y-7.4409
X6.2417Y-8.1252
X6.2417Y-8.4252
X6.2449Y-5.6449
X6.2449Y-5.9449
X6.2449Y-6.1961
X6.2449Y-6.4961
X6.2449Y-6.7472
X6.2449Y-7.0472
X6.2598Y-4.8969
X6.2598Y-5.1969
X6.3024Y-7.4409
X6.3386Y-3.5039
X6.3386Y-3.8039
X6.3386Y-3.8976
X6.3386Y-4.0945
X6.3417Y-8.1252
X6.3417Y-8.4252
X6.3449Y-5.6449
X6.3449Y-5.9449
X6.3449Y-6.1961
X6.3449Y-6.4961
X6.3449Y-6.7472
X6.3449Y-7.0472
X6.3598Y-4.8969
X6.3598Y-5.1969
X6.4024Y-7.4409
X6.4417Y-8.1252
X6.4417Y-8.4252
X6.4449Y-5.6449
X6.4449Y-5.9449
X6.4449Y-6.1961
X6.4449Y-6.4961
X6.4449Y-6.7472
X6.4449Y-7.0472
X6.4598Y-4.8969
X6.4598Y-5.1969
X6.5024Y-7.4409
X6.5417Y-8.1252
X6.5417Y-8.4252
X6.5449Y-5.6449
X6.5449Y-5.9449
X6.5449Y-6.1961
X6.5449Y-6.4961
X6.5449Y-6.7472
X6.5449Y-7.0472
X6.5598Y-4.8969
X6.5598Y-5.1969
X6.5748Y-3.5039
X6.5748Y-3.8039
X6.5748Y-3.8976
X6.5748Y-4.0945
X6.6024Y-7.4409
X6.6417Y-8.1252
X6.6417Y-8.4252
X6.6449Y-5.6449
X6.6449Y-5.9449
X6.6449Y-6.1961
X6.6449Y-6.4961
X6.6449Y-6.7472
X6.6449Y-7.0472
X6.6598Y-4.8969
X6.6598Y-5.1969
X6.7024Y-7.4409
X6.7417Y-8.1252
X6.7417Y-8.4252
X6.7449Y-5.6449
X6.7449Y-5.9449
X6.7449Y-6.1961
X6.7449Y-6.4961
X6.7449Y-6.7472
X6.7449Y-7.0472
X6.7598Y-4.8969
X6.7598Y-5.1969
X6.8024Y-7.4409
X6.811Y-3.5039
X6.811Y-3.8039
X6.811Y-3.8976
X6.811Y-4.0945
X6.8417Y-8.1252
X6.8417Y-8.4252
X6.8449Y-5.6449
X6.8449Y-5.9449
X6.8449Y-6.1961
X6.8449Y-6.4961
X6.8449Y-6.7472
X6.8449Y-7.0472
X6.8598Y-4.8969
X6.8598Y-5.1969
X6.9024Y-7.4409
X6.9417Y-8.1252
X6.9417Y-8.4252
X7.0417Y-8.1252
X7.0417Y-8.4252
X7.0472Y-3.5039
X7.0472Y-3.8039
X7.0472Y-3.8976
X7.0472Y-4.0945
X7.0472Y-4.2323
X7.0472Y-4.5323
X7.0472Y-4.7244
X7.126Y-5.0
X7.126Y-5.1969
X7.1472Y-4.7244
X7.2441Y-5.3543
X7.2441Y-5.5512
X7.2472Y-4.7244
X7.2835Y-3.5039
X7.2835Y-3.8039
X7.2835Y-3.8976
X7.2835Y-4.0945
X7.2835Y-4.2323
X7.2835Y-4.5323
X7.3228Y-4.8969
X7.3228Y-5.1969
X7.3228Y-7.7067
X7.3228Y-7.9035
X7.3425Y-6.4783
X7.3472Y-4.7244
X7.3809Y-5.3695
X7.3809Y-5.9695
X7.4228Y-4.8969
X7.4228Y-5.1969
X7.4409Y-6.4783
X7.4472Y-4.7244
X7.4809Y-5.3695
X7.4809Y-5.9695
X7.5197Y-3.5039
X7.5197Y-3.8039
X7.5197Y-3.8976
X7.5197Y-4.0945
X7.5197Y-7.6035
X7.5197Y-7.9035
X7.5228Y-4.8969
X7.5228Y-5.1969
X7.5472Y-4.7244
X7.5591Y-8.5433
X7.5809Y-5.3695
X7.5809Y-5.9695
X7.6197Y-7.6035
X7.6197Y-7.9035
X7.6228Y-4.8969
X7.6228Y-5.1969
X7.6472Y-4.7244
X7.6575Y-8.5433
X7.6809Y-5.3695
X7.6809Y-5.9695
X7.6906Y-6.7343
X7.6906Y-6.8343
X7.6906Y-6.9343
X7.6906Y-7.0343
X7.6906Y-7.1343
X7.6906Y-7.2343
X7.7197Y-7.6035
X7.7197Y-7.9035
X7.7228Y-4.8969
X7.7228Y-5.1969
X7.7472Y-4.7244
X7.7809Y-5.3695
X7.7809Y-5.9695
X7.7906Y-6.6343
X7.7906Y-6.7343
X7.7906Y-6.8343
X7.7906Y-6.9343
X7.7906Y-7.0343
X7.7906Y-7.1343
X7.7906Y-7.2343
X7.7906Y-7.3343
X7.8197Y-7.6035
X7.8197Y-7.9035
X7.8228Y-4.8969
X7.8228Y-5.1969
X7.8472Y-4.7244
X7.8809Y-5.3695
X7.8809Y-5.9695
X7.8906Y-6.6343
X7.8906Y-6.7343
X7.8906Y-7.2343
X7.8906Y-7.3343
X7.9197Y-7.6035
X7.9197Y-7.9035
X7.9228Y-4.8969
X7.9228Y-5.1969
X7.9809Y-5.3695
X7.9809Y-5.9695
X7.9906Y-6.6343
X7.9906Y-6.7343
X7.9906Y-7.2343
X7.9906Y-7.3343
X8.0197Y-7.6035
X8.0197Y-7.9035
X8.0315Y-3.6417
X8.0315Y-8.2283
X8.0315Y-8.4252
X8.0512Y-3.8976
X8.0709Y-4.6063
X8.0709Y-4.8425
X8.0809Y-5.3695
X8.0809Y-5.9695
X8.0906Y-6.6343
X8.0906Y-6.7343
X8.0906Y-7.2343
X8.0906Y-7.3343
X8.1197Y-7.6035
X8.1197Y-7.9035
X8.1496Y-3.8976
X8.1496Y-6.3799
X8.1809Y-5.3695
X8.1809Y-5.9695
X8.1906Y-6.6343
X8.1906Y-6.7343
X8.1906Y-7.2343
X8.1906Y-7.3343
X8.2197Y-7.6035
X8.2197Y-7.9035
X8.2283Y-8.1252
X8.2283Y-8.4252
X8.2809Y-5.3695
X8.2809Y-5.9695
X8.2906Y-6.6343
X8.2906Y-6.7343
X8.2906Y-6.8343
X8.2906Y-6.9343
X8.2906Y-7.0343
X8.2906Y-7.1343
X8.2906Y-7.2343
X8.2906Y-7.3343
X8.3197Y-7.6035
X8.3197Y-7.9035
X8.3283Y-8.1252
X8.3283Y-8.4252
X8.3315Y-3.6417
X8.3465Y-4.4094
X8.3465Y-6.3799
X8.3661Y-3.878
X8.3709Y-4.6063
X8.3709Y-4.8425
X8.3809Y-5.3695
X8.3809Y-5.9695
X8.3906Y-6.7343
X8.3906Y-6.8343
X8.3906Y-6.9343
X8.3906Y-7.0343
X8.3906Y-7.1343
X8.3906Y-7.2343
X8.4197Y-7.6035
X8.4197Y-7.9035
X8.4252Y-3.6417
X8.4252Y-4.1142
X8.4283Y-8.1252
X8.4283Y-8.4252
X8.4465Y-4.4094
X8.4646Y-3.878
X8.4646Y-4.6063
X8.4646Y-4.8425
X8.4809Y-5.3695
X8.4809Y-5.9695
X8.5039Y-6.1614
X8.5197Y-7.6035
X8.5197Y-7.9035
X8.5283Y-8.1252
X8.5283Y-8.4252
X8.5465Y-4.4094
X8.5809Y-5.3695
X8.5809Y-5.9695
X8.6197Y-7.6035
X8.6197Y-7.9035
X8.6283Y-8.1252
X8.6283Y-8.4252
X8.6465Y-4.4094
X8.6809Y-5.3695
X8.6809Y-5.9695
X8.6961Y-6.1614
X8.7252Y-3.6417
X8.7252Y-4.1142
X8.7283Y-8.1252
X8.7283Y-8.4252
X8.7465Y-4.4094
X8.7646Y-4.6063
X8.7646Y-4.8425
X8.8283Y-8.1252
X8.8283Y-8.4252
X8.8465Y-4.4094
X8.8583Y-4.6063
X8.8583Y-4.8425
X8.9283Y-8.1252
X8.9283Y-8.4252
X8.937Y-3.7008
X8.937Y-4.0551
X8.9465Y-4.4094
X9.0283Y-8.1252
X9.0283Y-8.4252
X9.0354Y-3.7008
X9.0354Y-4.0551
X9.0465Y-4.4094
X9.1283Y-8.1252
X9.1283Y-8.4252
X9.1465Y-4.4094
X9.1583Y-4.6063
X9.1583Y-4.8425
X9.252Y-4.6063
X9.252Y-4.8425
X9.3504Y-4.1732
X9.3701Y-4.4094
X9.4701Y-4.4094
X9.552Y-4.6063
X9.552Y-4.8425
X9.5701Y-4.4094
X9.6457Y-4.6063
X9.6457Y-4.8425
X9.6504Y-4.1732
X9.6701Y-4.4094
X9.7701Y-4.4094
X9.8701Y-4.4094
X9.9457Y-4.6063
X9.9457Y-4.8425
X9.9701Y-4.4094
X10.0394Y-4.6063
X10.0394Y-4.8425
X10.0701Y-4.4094
X10.1701Y-4.4094
X10.3394Y-4.6063
X10.3394Y-4.8425
T5
X1.7898Y-3.189
X1.8898Y-3.189
X2.1835Y-3.189
X2.2835Y-3.189
X2.5772Y-3.189
X2.6772Y-3.189
X2.9528Y-3.5039
X3.0528Y-3.5039
X3.3465Y-3.5039
X3.4465Y-3.5039
X3.7402Y-3.5039
X3.8402Y-3.5039
X4.1339Y-3.5039
X4.2339Y-3.5039
X4.5276Y-3.5039
X4.6276Y-3.5039
X4.9213Y-3.5039
X5.0213Y-3.5039
X5.315Y-3.5039
X5.415Y-3.5039
T6
X2.9134Y-2.9921
X3.0906Y-2.9921
T7
X1.6929Y-7.2228
X1.6929Y-7.3228
X1.6929Y-7.5378
X1.6929Y-7.6378
X1.6929Y-7.8528
X1.6929Y-7.9528
X1.6929Y-8.1677
X1.6929Y-8.2677
X1.6929Y-8.4827
X1.6929Y-8.5827
X1.7929Y-7.2228
X1.7929Y-7.3228
X1.7929Y-7.5378
X1.7929Y-7.6378
X1.7929Y-7.8528
X1.7929Y-7.9528
X1.7929Y-8.1677
X1.7929Y-8.2677
X1.7929Y-8.4827
X1.7929Y-8.5827
X1.852Y-8.7795
X1.852Y-8.8795
X1.8929Y-7.2228
X1.8929Y-7.3228
X1.8929Y-7.5378
X1.8929Y-7.6378
X1.8929Y-7.8528
X1.8929Y-7.9528
X1.8929Y-8.1677
X1.8929Y-8.2677
X1.8929Y-8.4827
X1.8929Y-8.5827
X1.952Y-8.7795
X1.952Y-8.8795
X1.9929Y-7.2228
X1.9929Y-7.3228
X1.9929Y-7.5378
X1.9929Y-7.6378
X1.9929Y-7.8528
X1.9929Y-7.9528
X1.9929Y-8.1677
X1.9929Y-8.2677
X1.9929Y-8.4827
X1.9929Y-8.5827
X2.052Y-8.7795
X2.052Y-8.8795
X2.0929Y-7.2228
X2.0929Y-7.3228
X2.0929Y-7.5378
X2.0929Y-7.6378
X2.0929Y-7.8528
X2.0929Y-7.9528
X2.0929Y-8.1677
X2.0929Y-8.2677
X2.0929Y-8.4827
X2.0929Y-8.5827
X2.152Y-8.7795
X2.152Y-8.8795
X2.185Y-3.7402
X2.185Y-3.9961
X2.1929Y-7.2228
X2.1929Y-7.3228
X2.1929Y-7.5378
X2.1929Y-7.6378
X2.1929Y-7.8528
X2.1929Y-7.9528
X2.1929Y-8.1677
X2.1929Y-8.2677
X2.1929Y-8.4827
X2.1929Y-8.5827
X2.252Y-8.7795
X2.252Y-8.8795
X2.285Y-3.7402
X2.285Y-3.9961
X2.2929Y-7.2228
X2.2929Y-7.3228
X2.2929Y-7.5378
X2.2929Y-7.6378
X2.2929Y-7.8528
X2.2929Y-7.9528
X2.2929Y-8.1677
X2.2929Y-8.2677
X2.2929Y-8.4827
X2.2929Y-8.5827
X2.352Y-8.7795
X2.352Y-8.8795
X2.3929Y-7.2228
X2.3929Y-7.3228
X2.3929Y-7.5378
X2.3929Y-7.6378
X2.3929Y-7.8528
X2.3929Y-7.9528
X2.3929Y-8.1677
X2.3929Y-8.2677
X2.3929Y-8.4827
X2.3929Y-8.5827
X2.452Y-8.7795
X2.452Y-8.8795
X2.552Y-8.7795
X2.552Y-8.8795
X2.5787Y-3.9961
X2.652Y-8.7795
X2.652Y-8.8795
X2.6787Y-3.9961
X2.752Y-8.7795
X2.752Y-8.8795
X2.7559Y-7.9331
X2.852Y-8.7795
X2.852Y-8.8795
X2.8559Y-7.9331
X2.952Y-8.7795
X2.952Y-8.8795
X2.9559Y-7.9331
X3.052Y-8.7795
X3.052Y-8.8795
X3.0559Y-7.9331
X3.152Y-8.7795
X3.152Y-8.8795
X3.252Y-8.7795
X3.252Y-8.8795
X3.352Y-8.7795
X3.352Y-8.8795
X3.452Y-8.7795
X3.452Y-8.8795
X3.4646Y-3.2071
X3.4646Y-3.3071
X3.552Y-8.7795
X3.552Y-8.8795
X3.5646Y-3.2071
X3.5646Y-3.3071
X3.652Y-8.7795
X3.652Y-8.8795
X3.6646Y-3.2071
X3.6646Y-3.3071
X3.7195Y-8.6024
X3.752Y-8.7795
X3.752Y-8.8795
X3.7646Y-3.2071
X3.7646Y-3.3071
X3.8195Y-8.6024
X3.852Y-8.7795
X3.852Y-8.8795
X3.8646Y-3.2071
X3.8646Y-3.3071
X3.9195Y-8.6024
X3.952Y-8.7795
X3.952Y-8.8795
X4.052Y-8.7795
X4.052Y-8.8795
X4.152Y-8.7795
X4.152Y-8.8795
X4.252Y-8.7795
X4.252Y-8.8795
X4.4094Y-3.2071
X4.4094Y-3.3071
X4.5094Y-3.2071
X4.5094Y-3.3071
X4.6094Y-3.2071
X4.6094Y-3.3071
X4.7094Y-3.2071
X4.7094Y-3.3071
X4.7654Y-8.7795
X4.7654Y-8.8795
X4.8094Y-3.2071
X4.8094Y-3.3071
X4.8654Y-8.7795
X4.8654Y-8.8795
X4.9094Y-3.2071
X4.9094Y-3.3071
X4.9654Y-8.7795
X4.9654Y-8.8795
X5.0654Y-8.7795
X5.0654Y-8.8795
X5.1654Y-8.7795
X5.1654Y-8.8795
X5.2654Y-8.7795
X5.2654Y-8.8795
X5.3654Y-8.7795
X5.3654Y-8.8795
X5.4331Y-3.2071
X5.4331Y-3.3071
X5.4654Y-8.7795
X5.4654Y-8.8795
X5.5331Y-3.2071
X5.5331Y-3.3071
X5.5654Y-8.7795
X5.5654Y-8.8795
X5.6331Y-3.2071
X5.6331Y-3.3071
X5.6654Y-8.7795
X5.6654Y-8.8795
X5.7331Y-3.2071
X5.7331Y-3.3071
X5.7654Y-8.7795
X5.7654Y-8.8795
X5.8331Y-3.2071
X5.8331Y-3.3071
X5.8654Y-8.7795
X5.8654Y-8.8795
X5.9654Y-8.7795
X5.9654Y-8.8795
X6.0654Y-8.7795
X6.0654Y-8.8795
X6.1024Y-7.7346
X6.1024Y-7.8346
X6.1654Y-8.7795
X6.1654Y-8.8795
X6.2024Y-7.7346
X6.2024Y-7.8346
X6.2654Y-8.7795
X6.2654Y-8.8795
X6.3024Y-7.7346
X6.3024Y-7.8346
X6.3654Y-8.7795
X6.3654Y-8.8795
X6.378Y-3.2071
X6.378Y-3.3071
X6.4024Y-7.7346
X6.4024Y-7.8346
X6.4654Y-8.7795
X6.4654Y-8.8795
X6.478Y-3.2071
X6.478Y-3.3071
X6.5654Y-8.7795
X6.5654Y-8.8795
X6.578Y-3.2071
X6.578Y-3.3071
X6.6535Y-7.7346
X6.6535Y-7.8346
X6.6654Y-8.7795
X6.6654Y-8.8795
X6.678Y-3.2071
X6.678Y-3.3071
X6.7535Y-7.7346
X6.7535Y-7.8346
X6.7654Y-8.7795
X6.7654Y-8.8795
X6.778Y-3.2071
X6.778Y-3.3071
X6.8535Y-7.7346
X6.8535Y-7.8346
X6.8654Y-8.7795
X6.8654Y-8.8795
X6.878Y-3.2071
X6.878Y-3.3071
X6.9535Y-7.7346
X6.9535Y-7.8346
X6.9654Y-8.7795
X6.9654Y-8.8795
X6.978Y-3.2071
X6.978Y-3.3071
X7.0535Y-7.7346
X7.0535Y-7.8346
X7.0654Y-8.7795
X7.0654Y-8.8795
X7.078Y-3.2071
X7.078Y-3.3071
X7.1654Y-8.7795
X7.1654Y-8.8795
X7.178Y-3.2071
X7.178Y-3.3071
X7.278Y-3.2071
X7.278Y-3.3071
X7.378Y-3.2071
X7.378Y-3.3071
X7.478Y-3.2071
X7.478Y-3.3071
X7.5197Y-4.2913
X7.5197Y-4.3913
X7.5197Y-4.4913
X7.578Y-3.2071
X7.578Y-3.3071
X7.6197Y-4.2913
X7.6197Y-4.3913
X7.6197Y-4.4913
X7.7559Y-3.5039
X7.7559Y-3.6039
X7.7559Y-3.7039
X7.7559Y-3.937
X7.7559Y-4.037
X7.7575Y-8.7795
X7.7575Y-8.8795
X7.8575Y-8.7795
X7.8575Y-8.8795
X7.874Y-4.2913
X7.874Y-4.3913
X7.874Y-4.4913
X7.9575Y-8.7795
X7.9575Y-8.8795
X8.0575Y-8.7795
X8.0575Y-8.8795
X8.1102Y-3.2071
X8.1102Y-3.3071
X8.1299Y-4.252
X8.1575Y-8.7795
X8.1575Y-8.8795
X8.2102Y-3.2071
X8.2102Y-3.3071
X8.2575Y-8.7795
X8.2575Y-8.8795
X8.3102Y-3.2071
X8.3102Y-3.3071
X8.3575Y-8.7795
X8.3575Y-8.8795
X8.4102Y-3.2071
X8.4102Y-3.3071
X8.4575Y-8.7795
X8.4575Y-8.8795
X8.5102Y-3.2071
X8.5102Y-3.3071
X8.5575Y-8.7795
X8.5575Y-8.8795
X8.6575Y-8.7795
X8.6575Y-8.8795
X8.7575Y-8.7795
X8.7575Y-8.8795
X8.8575Y-8.7795
X8.8575Y-8.8795
X8.9575Y-8.7795
X8.9575Y-8.8795
X9.0287Y-7.6429
X9.0287Y-7.7429
X9.0551Y-3.2071
X9.0551Y-3.3071
X9.0575Y-8.7795
X9.0575Y-8.8795
X9.1287Y-7.6429
X9.1287Y-7.7429
X9.1551Y-3.2071
X9.1551Y-3.3071
X9.1575Y-8.7795
X9.1575Y-8.8795
X9.2287Y-7.6429
X9.2287Y-7.7429
X9.2551Y-3.2071
X9.2551Y-3.3071
X9.2575Y-8.7795
X9.2575Y-8.8795
X9.3287Y-7.6429
X9.3287Y-7.7429
X9.3551Y-3.2071
X9.3551Y-3.3071
X9.3575Y-8.7795
X9.3575Y-8.8795
X9.4287Y-7.6429
X9.4287Y-7.7429
X9.4551Y-3.2071
X9.4551Y-3.3071
X9.4575Y-8.7795
X9.4575Y-8.8795
X9.5287Y-7.6429
X9.5287Y-7.7429
X9.5575Y-8.7795
X9.5575Y-8.8795
X9.6287Y-7.6429
X9.6287Y-7.7429
X9.6575Y-8.7795
X9.6575Y-8.8795
X9.7287Y-7.6429
X9.7287Y-7.7429
X9.7575Y-8.7795
X9.7575Y-8.8795
X9.8575Y-8.7795
X9.8575Y-8.8795
X9.9575Y-8.7795
X9.9575Y-8.8795
X10.0575Y-8.7795
X10.0575Y-8.8795
X10.1575Y-8.7795
X10.1575Y-8.8795
T8
X2.8642Y-3.0902
X3.1402Y-3.0902
T9
X1.5748Y-2.9528
X10.4331Y-2.9528
T0
M30
