%TF.GenerationSoftware,KiCad,Pcbnew,(6.0.11)*%
%TF.CreationDate,2024-01-13T12:12:12-05:00*%
%TF.ProjectId,PQFP-100-Adapter,50514650-2d31-4303-902d-416461707465,rev?*%
%TF.SameCoordinates,Original*%
%TF.FileFunction,Drillmap*%
%TF.FilePolarity,Positive*%
%FSLAX45Y45*%
G04 Gerber Fmt 4.5, Leading zero omitted, Abs format (unit mm)*
G04 Created by KiCad (PCBNEW (6.0.11)) date 2024-01-13 12:12:12*
%MOMM*%
%LPD*%
G01*
G04 APERTURE LIST*
%ADD10C,0.100000*%
%ADD11C,0.200000*%
G04 APERTURE END LIST*
D10*
X12700000Y-11938000D02*
X12700000Y-7620000D01*
X12700000Y-7620000D02*
X17780000Y-7620000D01*
X17780000Y-11938000D02*
X12700000Y-11938000D01*
X17780000Y-7620000D02*
X17780000Y-11938000D01*
D11*
D10*
X12903500Y-8586500D02*
X13003500Y-8686500D01*
X13003500Y-8586500D02*
X12903500Y-8686500D01*
X12903500Y-8840500D02*
X13003500Y-8940500D01*
X13003500Y-8840500D02*
X12903500Y-8940500D01*
X12903500Y-9094500D02*
X13003500Y-9194500D01*
X13003500Y-9094500D02*
X12903500Y-9194500D01*
X12903500Y-9348500D02*
X13003500Y-9448500D01*
X13003500Y-9348500D02*
X12903500Y-9448500D01*
X12903500Y-9602500D02*
X13003500Y-9702500D01*
X13003500Y-9602500D02*
X12903500Y-9702500D01*
X12903500Y-9856500D02*
X13003500Y-9956500D01*
X13003500Y-9856500D02*
X12903500Y-9956500D01*
X12903500Y-10110500D02*
X13003500Y-10210500D01*
X13003500Y-10110500D02*
X12903500Y-10210500D01*
X12903500Y-10364500D02*
X13003500Y-10464500D01*
X13003500Y-10364500D02*
X12903500Y-10464500D01*
X12903500Y-10618500D02*
X13003500Y-10718500D01*
X13003500Y-10618500D02*
X12903500Y-10718500D01*
X12903500Y-10872500D02*
X13003500Y-10972500D01*
X13003500Y-10872500D02*
X12903500Y-10972500D01*
X13157500Y-8586500D02*
X13257500Y-8686500D01*
X13257500Y-8586500D02*
X13157500Y-8686500D01*
X13157500Y-8840500D02*
X13257500Y-8940500D01*
X13257500Y-8840500D02*
X13157500Y-8940500D01*
X13157500Y-9094500D02*
X13257500Y-9194500D01*
X13257500Y-9094500D02*
X13157500Y-9194500D01*
X13157500Y-9348500D02*
X13257500Y-9448500D01*
X13257500Y-9348500D02*
X13157500Y-9448500D01*
X13157500Y-9602500D02*
X13257500Y-9702500D01*
X13257500Y-9602500D02*
X13157500Y-9702500D01*
X13157500Y-9856500D02*
X13257500Y-9956500D01*
X13257500Y-9856500D02*
X13157500Y-9956500D01*
X13157500Y-10110500D02*
X13257500Y-10210500D01*
X13257500Y-10110500D02*
X13157500Y-10210500D01*
X13157500Y-10364500D02*
X13257500Y-10464500D01*
X13257500Y-10364500D02*
X13157500Y-10464500D01*
X13157500Y-10618500D02*
X13257500Y-10718500D01*
X13257500Y-10618500D02*
X13157500Y-10718500D01*
X13157500Y-10872500D02*
X13257500Y-10972500D01*
X13257500Y-10872500D02*
X13157500Y-10972500D01*
X13412000Y-7824000D02*
X13512000Y-7924000D01*
X13512000Y-7824000D02*
X13412000Y-7924000D01*
X13412000Y-8078000D02*
X13512000Y-8178000D01*
X13512000Y-8078000D02*
X13412000Y-8178000D01*
X13412500Y-11380500D02*
X13512500Y-11480500D01*
X13512500Y-11380500D02*
X13412500Y-11480500D01*
X13412500Y-11634500D02*
X13512500Y-11734500D01*
X13512500Y-11634500D02*
X13412500Y-11734500D01*
X13666000Y-7824000D02*
X13766000Y-7924000D01*
X13766000Y-7824000D02*
X13666000Y-7924000D01*
X13666000Y-8078000D02*
X13766000Y-8178000D01*
X13766000Y-8078000D02*
X13666000Y-8178000D01*
X13666500Y-11380500D02*
X13766500Y-11480500D01*
X13766500Y-11380500D02*
X13666500Y-11480500D01*
X13666500Y-11634500D02*
X13766500Y-11734500D01*
X13766500Y-11634500D02*
X13666500Y-11734500D01*
X13920000Y-7824000D02*
X14020000Y-7924000D01*
X14020000Y-7824000D02*
X13920000Y-7924000D01*
X13920000Y-8078000D02*
X14020000Y-8178000D01*
X14020000Y-8078000D02*
X13920000Y-8178000D01*
X13920500Y-11380500D02*
X14020500Y-11480500D01*
X14020500Y-11380500D02*
X13920500Y-11480500D01*
X13920500Y-11634500D02*
X14020500Y-11734500D01*
X14020500Y-11634500D02*
X13920500Y-11734500D01*
X14174000Y-7824000D02*
X14274000Y-7924000D01*
X14274000Y-7824000D02*
X14174000Y-7924000D01*
X14174000Y-8078000D02*
X14274000Y-8178000D01*
X14274000Y-8078000D02*
X14174000Y-8178000D01*
X14174500Y-11380500D02*
X14274500Y-11480500D01*
X14274500Y-11380500D02*
X14174500Y-11480500D01*
X14174500Y-11634500D02*
X14274500Y-11734500D01*
X14274500Y-11634500D02*
X14174500Y-11734500D01*
X14428000Y-7824000D02*
X14528000Y-7924000D01*
X14528000Y-7824000D02*
X14428000Y-7924000D01*
X14428000Y-8078000D02*
X14528000Y-8178000D01*
X14528000Y-8078000D02*
X14428000Y-8178000D01*
X14428500Y-11380500D02*
X14528500Y-11480500D01*
X14528500Y-11380500D02*
X14428500Y-11480500D01*
X14428500Y-11634500D02*
X14528500Y-11734500D01*
X14528500Y-11634500D02*
X14428500Y-11734500D01*
X14682000Y-7824000D02*
X14782000Y-7924000D01*
X14782000Y-7824000D02*
X14682000Y-7924000D01*
X14682000Y-8078000D02*
X14782000Y-8178000D01*
X14782000Y-8078000D02*
X14682000Y-8178000D01*
X14682500Y-11380500D02*
X14782500Y-11480500D01*
X14782500Y-11380500D02*
X14682500Y-11480500D01*
X14682500Y-11634500D02*
X14782500Y-11734500D01*
X14782500Y-11634500D02*
X14682500Y-11734500D01*
X14936000Y-7824000D02*
X15036000Y-7924000D01*
X15036000Y-7824000D02*
X14936000Y-7924000D01*
X14936000Y-8078000D02*
X15036000Y-8178000D01*
X15036000Y-8078000D02*
X14936000Y-8178000D01*
X14936500Y-11380500D02*
X15036500Y-11480500D01*
X15036500Y-11380500D02*
X14936500Y-11480500D01*
X14936500Y-11634500D02*
X15036500Y-11734500D01*
X15036500Y-11634500D02*
X14936500Y-11734500D01*
X15190000Y-7824000D02*
X15290000Y-7924000D01*
X15290000Y-7824000D02*
X15190000Y-7924000D01*
X15190000Y-8078000D02*
X15290000Y-8178000D01*
X15290000Y-8078000D02*
X15190000Y-8178000D01*
X15190500Y-11380500D02*
X15290500Y-11480500D01*
X15290500Y-11380500D02*
X15190500Y-11480500D01*
X15190500Y-11634500D02*
X15290500Y-11734500D01*
X15290500Y-11634500D02*
X15190500Y-11734500D01*
X15444000Y-7824000D02*
X15544000Y-7924000D01*
X15544000Y-7824000D02*
X15444000Y-7924000D01*
X15444000Y-8078000D02*
X15544000Y-8178000D01*
X15544000Y-8078000D02*
X15444000Y-8178000D01*
X15444500Y-11380500D02*
X15544500Y-11480500D01*
X15544500Y-11380500D02*
X15444500Y-11480500D01*
X15444500Y-11634500D02*
X15544500Y-11734500D01*
X15544500Y-11634500D02*
X15444500Y-11734500D01*
X15698000Y-7824000D02*
X15798000Y-7924000D01*
X15798000Y-7824000D02*
X15698000Y-7924000D01*
X15698000Y-8078000D02*
X15798000Y-8178000D01*
X15798000Y-8078000D02*
X15698000Y-8178000D01*
X15698500Y-11380500D02*
X15798500Y-11480500D01*
X15798500Y-11380500D02*
X15698500Y-11480500D01*
X15698500Y-11634500D02*
X15798500Y-11734500D01*
X15798500Y-11634500D02*
X15698500Y-11734500D01*
X15952000Y-7824000D02*
X16052000Y-7924000D01*
X16052000Y-7824000D02*
X15952000Y-7924000D01*
X15952000Y-8078000D02*
X16052000Y-8178000D01*
X16052000Y-8078000D02*
X15952000Y-8178000D01*
X15952500Y-11380500D02*
X16052500Y-11480500D01*
X16052500Y-11380500D02*
X15952500Y-11480500D01*
X15952500Y-11634500D02*
X16052500Y-11734500D01*
X16052500Y-11634500D02*
X15952500Y-11734500D01*
X16206000Y-7824000D02*
X16306000Y-7924000D01*
X16306000Y-7824000D02*
X16206000Y-7924000D01*
X16206000Y-8078000D02*
X16306000Y-8178000D01*
X16306000Y-8078000D02*
X16206000Y-8178000D01*
X16206500Y-11380500D02*
X16306500Y-11480500D01*
X16306500Y-11380500D02*
X16206500Y-11480500D01*
X16206500Y-11634500D02*
X16306500Y-11734500D01*
X16306500Y-11634500D02*
X16206500Y-11734500D01*
X16460000Y-7824000D02*
X16560000Y-7924000D01*
X16560000Y-7824000D02*
X16460000Y-7924000D01*
X16460000Y-8078000D02*
X16560000Y-8178000D01*
X16560000Y-8078000D02*
X16460000Y-8178000D01*
X16460500Y-11380500D02*
X16560500Y-11480500D01*
X16560500Y-11380500D02*
X16460500Y-11480500D01*
X16460500Y-11634500D02*
X16560500Y-11734500D01*
X16560500Y-11634500D02*
X16460500Y-11734500D01*
X16714000Y-7824000D02*
X16814000Y-7924000D01*
X16814000Y-7824000D02*
X16714000Y-7924000D01*
X16714000Y-8078000D02*
X16814000Y-8178000D01*
X16814000Y-8078000D02*
X16714000Y-8178000D01*
X16714500Y-11380500D02*
X16814500Y-11480500D01*
X16814500Y-11380500D02*
X16714500Y-11480500D01*
X16714500Y-11634500D02*
X16814500Y-11734500D01*
X16814500Y-11634500D02*
X16714500Y-11734500D01*
X16968000Y-7824000D02*
X17068000Y-7924000D01*
X17068000Y-7824000D02*
X16968000Y-7924000D01*
X16968000Y-8078000D02*
X17068000Y-8178000D01*
X17068000Y-8078000D02*
X16968000Y-8178000D01*
X16968500Y-11380500D02*
X17068500Y-11480500D01*
X17068500Y-11380500D02*
X16968500Y-11480500D01*
X16968500Y-11634500D02*
X17068500Y-11734500D01*
X17068500Y-11634500D02*
X16968500Y-11734500D01*
X17222000Y-8586000D02*
X17322000Y-8686000D01*
X17322000Y-8586000D02*
X17222000Y-8686000D01*
X17222000Y-8840000D02*
X17322000Y-8940000D01*
X17322000Y-8840000D02*
X17222000Y-8940000D01*
X17222000Y-9094000D02*
X17322000Y-9194000D01*
X17322000Y-9094000D02*
X17222000Y-9194000D01*
X17222000Y-9348000D02*
X17322000Y-9448000D01*
X17322000Y-9348000D02*
X17222000Y-9448000D01*
X17222000Y-9602000D02*
X17322000Y-9702000D01*
X17322000Y-9602000D02*
X17222000Y-9702000D01*
X17222000Y-9856000D02*
X17322000Y-9956000D01*
X17322000Y-9856000D02*
X17222000Y-9956000D01*
X17222000Y-10110000D02*
X17322000Y-10210000D01*
X17322000Y-10110000D02*
X17222000Y-10210000D01*
X17222000Y-10364000D02*
X17322000Y-10464000D01*
X17322000Y-10364000D02*
X17222000Y-10464000D01*
X17222000Y-10618000D02*
X17322000Y-10718000D01*
X17322000Y-10618000D02*
X17222000Y-10718000D01*
X17222000Y-10872000D02*
X17322000Y-10972000D01*
X17322000Y-10872000D02*
X17222000Y-10972000D01*
X17476000Y-8586000D02*
X17576000Y-8686000D01*
X17576000Y-8586000D02*
X17476000Y-8686000D01*
X17476000Y-8840000D02*
X17576000Y-8940000D01*
X17576000Y-8840000D02*
X17476000Y-8940000D01*
X17476000Y-9094000D02*
X17576000Y-9194000D01*
X17576000Y-9094000D02*
X17476000Y-9194000D01*
X17476000Y-9348000D02*
X17576000Y-9448000D01*
X17576000Y-9348000D02*
X17476000Y-9448000D01*
X17476000Y-9602000D02*
X17576000Y-9702000D01*
X17576000Y-9602000D02*
X17476000Y-9702000D01*
X17476000Y-9856000D02*
X17576000Y-9956000D01*
X17576000Y-9856000D02*
X17476000Y-9956000D01*
X17476000Y-10110000D02*
X17576000Y-10210000D01*
X17576000Y-10110000D02*
X17476000Y-10210000D01*
X17476000Y-10364000D02*
X17576000Y-10464000D01*
X17576000Y-10364000D02*
X17476000Y-10464000D01*
X17476000Y-10618000D02*
X17576000Y-10718000D01*
X17576000Y-10618000D02*
X17476000Y-10718000D01*
X17476000Y-10872000D02*
X17576000Y-10972000D01*
X17576000Y-10872000D02*
X17476000Y-10972000D01*
D11*
X12952619Y-12253476D02*
X12952619Y-12053476D01*
X13000238Y-12053476D01*
X13028809Y-12063000D01*
X13047857Y-12082048D01*
X13057381Y-12101095D01*
X13066905Y-12139190D01*
X13066905Y-12167762D01*
X13057381Y-12205857D01*
X13047857Y-12224905D01*
X13028809Y-12243952D01*
X13000238Y-12253476D01*
X12952619Y-12253476D01*
X13152619Y-12253476D02*
X13152619Y-12120143D01*
X13152619Y-12158238D02*
X13162143Y-12139190D01*
X13171667Y-12129667D01*
X13190714Y-12120143D01*
X13209762Y-12120143D01*
X13276428Y-12253476D02*
X13276428Y-12120143D01*
X13276428Y-12053476D02*
X13266905Y-12063000D01*
X13276428Y-12072524D01*
X13285952Y-12063000D01*
X13276428Y-12053476D01*
X13276428Y-12072524D01*
X13400238Y-12253476D02*
X13381190Y-12243952D01*
X13371667Y-12224905D01*
X13371667Y-12053476D01*
X13505000Y-12253476D02*
X13485952Y-12243952D01*
X13476428Y-12224905D01*
X13476428Y-12053476D01*
X13733571Y-12253476D02*
X13733571Y-12053476D01*
X13800238Y-12196333D01*
X13866905Y-12053476D01*
X13866905Y-12253476D01*
X14047857Y-12253476D02*
X14047857Y-12148714D01*
X14038333Y-12129667D01*
X14019286Y-12120143D01*
X13981190Y-12120143D01*
X13962143Y-12129667D01*
X14047857Y-12243952D02*
X14028809Y-12253476D01*
X13981190Y-12253476D01*
X13962143Y-12243952D01*
X13952619Y-12224905D01*
X13952619Y-12205857D01*
X13962143Y-12186809D01*
X13981190Y-12177286D01*
X14028809Y-12177286D01*
X14047857Y-12167762D01*
X14143095Y-12120143D02*
X14143095Y-12320143D01*
X14143095Y-12129667D02*
X14162143Y-12120143D01*
X14200238Y-12120143D01*
X14219286Y-12129667D01*
X14228809Y-12139190D01*
X14238333Y-12158238D01*
X14238333Y-12215381D01*
X14228809Y-12234428D01*
X14219286Y-12243952D01*
X14200238Y-12253476D01*
X14162143Y-12253476D01*
X14143095Y-12243952D01*
X14324048Y-12234428D02*
X14333571Y-12243952D01*
X14324048Y-12253476D01*
X14314524Y-12243952D01*
X14324048Y-12234428D01*
X14324048Y-12253476D01*
X14324048Y-12129667D02*
X14333571Y-12139190D01*
X14324048Y-12148714D01*
X14314524Y-12139190D01*
X14324048Y-12129667D01*
X14324048Y-12148714D01*
D10*
X12595000Y-12533000D02*
X12695000Y-12633000D01*
X12695000Y-12533000D02*
X12595000Y-12633000D01*
D11*
X13057381Y-12673476D02*
X12943095Y-12673476D01*
X13000238Y-12673476D02*
X13000238Y-12473476D01*
X12981190Y-12502048D01*
X12962143Y-12521095D01*
X12943095Y-12530619D01*
X13143095Y-12654428D02*
X13152619Y-12663952D01*
X13143095Y-12673476D01*
X13133571Y-12663952D01*
X13143095Y-12654428D01*
X13143095Y-12673476D01*
X13276428Y-12473476D02*
X13295476Y-12473476D01*
X13314524Y-12483000D01*
X13324048Y-12492524D01*
X13333571Y-12511571D01*
X13343095Y-12549667D01*
X13343095Y-12597286D01*
X13333571Y-12635381D01*
X13324048Y-12654428D01*
X13314524Y-12663952D01*
X13295476Y-12673476D01*
X13276428Y-12673476D01*
X13257381Y-12663952D01*
X13247857Y-12654428D01*
X13238333Y-12635381D01*
X13228809Y-12597286D01*
X13228809Y-12549667D01*
X13238333Y-12511571D01*
X13247857Y-12492524D01*
X13257381Y-12483000D01*
X13276428Y-12473476D01*
X13466905Y-12473476D02*
X13485952Y-12473476D01*
X13505000Y-12483000D01*
X13514524Y-12492524D01*
X13524048Y-12511571D01*
X13533571Y-12549667D01*
X13533571Y-12597286D01*
X13524048Y-12635381D01*
X13514524Y-12654428D01*
X13505000Y-12663952D01*
X13485952Y-12673476D01*
X13466905Y-12673476D01*
X13447857Y-12663952D01*
X13438333Y-12654428D01*
X13428809Y-12635381D01*
X13419286Y-12597286D01*
X13419286Y-12549667D01*
X13428809Y-12511571D01*
X13438333Y-12492524D01*
X13447857Y-12483000D01*
X13466905Y-12473476D01*
X13657381Y-12473476D02*
X13676428Y-12473476D01*
X13695476Y-12483000D01*
X13705000Y-12492524D01*
X13714524Y-12511571D01*
X13724048Y-12549667D01*
X13724048Y-12597286D01*
X13714524Y-12635381D01*
X13705000Y-12654428D01*
X13695476Y-12663952D01*
X13676428Y-12673476D01*
X13657381Y-12673476D01*
X13638333Y-12663952D01*
X13628809Y-12654428D01*
X13619286Y-12635381D01*
X13609762Y-12597286D01*
X13609762Y-12549667D01*
X13619286Y-12511571D01*
X13628809Y-12492524D01*
X13638333Y-12483000D01*
X13657381Y-12473476D01*
X13809762Y-12673476D02*
X13809762Y-12540143D01*
X13809762Y-12559190D02*
X13819286Y-12549667D01*
X13838333Y-12540143D01*
X13866905Y-12540143D01*
X13885952Y-12549667D01*
X13895476Y-12568714D01*
X13895476Y-12673476D01*
X13895476Y-12568714D02*
X13905000Y-12549667D01*
X13924048Y-12540143D01*
X13952619Y-12540143D01*
X13971667Y-12549667D01*
X13981190Y-12568714D01*
X13981190Y-12673476D01*
X14076428Y-12673476D02*
X14076428Y-12540143D01*
X14076428Y-12559190D02*
X14085952Y-12549667D01*
X14105000Y-12540143D01*
X14133571Y-12540143D01*
X14152619Y-12549667D01*
X14162143Y-12568714D01*
X14162143Y-12673476D01*
X14162143Y-12568714D02*
X14171667Y-12549667D01*
X14190714Y-12540143D01*
X14219286Y-12540143D01*
X14238333Y-12549667D01*
X14247857Y-12568714D01*
X14247857Y-12673476D01*
X14638333Y-12463952D02*
X14466905Y-12721095D01*
X14895476Y-12473476D02*
X14914524Y-12473476D01*
X14933571Y-12483000D01*
X14943095Y-12492524D01*
X14952619Y-12511571D01*
X14962143Y-12549667D01*
X14962143Y-12597286D01*
X14952619Y-12635381D01*
X14943095Y-12654428D01*
X14933571Y-12663952D01*
X14914524Y-12673476D01*
X14895476Y-12673476D01*
X14876428Y-12663952D01*
X14866905Y-12654428D01*
X14857381Y-12635381D01*
X14847857Y-12597286D01*
X14847857Y-12549667D01*
X14857381Y-12511571D01*
X14866905Y-12492524D01*
X14876428Y-12483000D01*
X14895476Y-12473476D01*
X15047857Y-12654428D02*
X15057381Y-12663952D01*
X15047857Y-12673476D01*
X15038333Y-12663952D01*
X15047857Y-12654428D01*
X15047857Y-12673476D01*
X15181190Y-12473476D02*
X15200238Y-12473476D01*
X15219286Y-12483000D01*
X15228809Y-12492524D01*
X15238333Y-12511571D01*
X15247857Y-12549667D01*
X15247857Y-12597286D01*
X15238333Y-12635381D01*
X15228809Y-12654428D01*
X15219286Y-12663952D01*
X15200238Y-12673476D01*
X15181190Y-12673476D01*
X15162143Y-12663952D01*
X15152619Y-12654428D01*
X15143095Y-12635381D01*
X15133571Y-12597286D01*
X15133571Y-12549667D01*
X15143095Y-12511571D01*
X15152619Y-12492524D01*
X15162143Y-12483000D01*
X15181190Y-12473476D01*
X15314524Y-12473476D02*
X15438333Y-12473476D01*
X15371667Y-12549667D01*
X15400238Y-12549667D01*
X15419286Y-12559190D01*
X15428809Y-12568714D01*
X15438333Y-12587762D01*
X15438333Y-12635381D01*
X15428809Y-12654428D01*
X15419286Y-12663952D01*
X15400238Y-12673476D01*
X15343095Y-12673476D01*
X15324048Y-12663952D01*
X15314524Y-12654428D01*
X15533571Y-12673476D02*
X15571667Y-12673476D01*
X15590714Y-12663952D01*
X15600238Y-12654428D01*
X15619286Y-12625857D01*
X15628809Y-12587762D01*
X15628809Y-12511571D01*
X15619286Y-12492524D01*
X15609762Y-12483000D01*
X15590714Y-12473476D01*
X15552619Y-12473476D01*
X15533571Y-12483000D01*
X15524048Y-12492524D01*
X15514524Y-12511571D01*
X15514524Y-12559190D01*
X15524048Y-12578238D01*
X15533571Y-12587762D01*
X15552619Y-12597286D01*
X15590714Y-12597286D01*
X15609762Y-12587762D01*
X15619286Y-12578238D01*
X15628809Y-12559190D01*
X15800238Y-12540143D02*
X15800238Y-12673476D01*
X15752619Y-12463952D02*
X15705000Y-12606809D01*
X15828809Y-12606809D01*
X15895476Y-12473476D02*
X15895476Y-12511571D01*
X15971667Y-12473476D02*
X15971667Y-12511571D01*
X16266905Y-12749667D02*
X16257381Y-12740143D01*
X16238333Y-12711571D01*
X16228809Y-12692524D01*
X16219286Y-12663952D01*
X16209762Y-12616333D01*
X16209762Y-12578238D01*
X16219286Y-12530619D01*
X16228809Y-12502048D01*
X16238333Y-12483000D01*
X16257381Y-12454428D01*
X16266905Y-12444905D01*
X16447857Y-12673476D02*
X16333571Y-12673476D01*
X16390714Y-12673476D02*
X16390714Y-12473476D01*
X16371667Y-12502048D01*
X16352619Y-12521095D01*
X16333571Y-12530619D01*
X16571667Y-12473476D02*
X16590714Y-12473476D01*
X16609762Y-12483000D01*
X16619286Y-12492524D01*
X16628809Y-12511571D01*
X16638333Y-12549667D01*
X16638333Y-12597286D01*
X16628809Y-12635381D01*
X16619286Y-12654428D01*
X16609762Y-12663952D01*
X16590714Y-12673476D01*
X16571667Y-12673476D01*
X16552619Y-12663952D01*
X16543095Y-12654428D01*
X16533571Y-12635381D01*
X16524048Y-12597286D01*
X16524048Y-12549667D01*
X16533571Y-12511571D01*
X16543095Y-12492524D01*
X16552619Y-12483000D01*
X16571667Y-12473476D01*
X16762143Y-12473476D02*
X16781190Y-12473476D01*
X16800238Y-12483000D01*
X16809762Y-12492524D01*
X16819286Y-12511571D01*
X16828810Y-12549667D01*
X16828810Y-12597286D01*
X16819286Y-12635381D01*
X16809762Y-12654428D01*
X16800238Y-12663952D01*
X16781190Y-12673476D01*
X16762143Y-12673476D01*
X16743095Y-12663952D01*
X16733571Y-12654428D01*
X16724048Y-12635381D01*
X16714524Y-12597286D01*
X16714524Y-12549667D01*
X16724048Y-12511571D01*
X16733571Y-12492524D01*
X16743095Y-12483000D01*
X16762143Y-12473476D01*
X17066905Y-12673476D02*
X17066905Y-12473476D01*
X17152619Y-12673476D02*
X17152619Y-12568714D01*
X17143095Y-12549667D01*
X17124048Y-12540143D01*
X17095476Y-12540143D01*
X17076429Y-12549667D01*
X17066905Y-12559190D01*
X17276429Y-12673476D02*
X17257381Y-12663952D01*
X17247857Y-12654428D01*
X17238333Y-12635381D01*
X17238333Y-12578238D01*
X17247857Y-12559190D01*
X17257381Y-12549667D01*
X17276429Y-12540143D01*
X17305000Y-12540143D01*
X17324048Y-12549667D01*
X17333571Y-12559190D01*
X17343095Y-12578238D01*
X17343095Y-12635381D01*
X17333571Y-12654428D01*
X17324048Y-12663952D01*
X17305000Y-12673476D01*
X17276429Y-12673476D01*
X17457381Y-12673476D02*
X17438333Y-12663952D01*
X17428810Y-12644905D01*
X17428810Y-12473476D01*
X17609762Y-12663952D02*
X17590714Y-12673476D01*
X17552619Y-12673476D01*
X17533571Y-12663952D01*
X17524048Y-12644905D01*
X17524048Y-12568714D01*
X17533571Y-12549667D01*
X17552619Y-12540143D01*
X17590714Y-12540143D01*
X17609762Y-12549667D01*
X17619286Y-12568714D01*
X17619286Y-12587762D01*
X17524048Y-12606809D01*
X17695476Y-12663952D02*
X17714524Y-12673476D01*
X17752619Y-12673476D01*
X17771667Y-12663952D01*
X17781190Y-12644905D01*
X17781190Y-12635381D01*
X17771667Y-12616333D01*
X17752619Y-12606809D01*
X17724048Y-12606809D01*
X17705000Y-12597286D01*
X17695476Y-12578238D01*
X17695476Y-12568714D01*
X17705000Y-12549667D01*
X17724048Y-12540143D01*
X17752619Y-12540143D01*
X17771667Y-12549667D01*
X17847857Y-12749667D02*
X17857381Y-12740143D01*
X17876429Y-12711571D01*
X17885952Y-12692524D01*
X17895476Y-12663952D01*
X17905000Y-12616333D01*
X17905000Y-12578238D01*
X17895476Y-12530619D01*
X17885952Y-12502048D01*
X17876429Y-12483000D01*
X17857381Y-12454428D01*
X17847857Y-12444905D01*
M02*
