M48
; DRILL file {KiCad (6.0.11)} date Sat Jan 13 12:12:11 2024
; FORMAT={-:-/ absolute / inch / decimal}
; #@! TF.CreationDate,2024-01-13T12:12:11-05:00
; #@! TF.GenerationSoftware,Kicad,Pcbnew,(6.0.11)
; #@! TF.FileFunction,Plated,1,2,PTH
FMAT,2
INCH
; #@! TA.AperFunction,Plated,PTH,ComponentDrill
T1C0.0394
%
G90
G05
T1
X5.0998Y-3.4002
X5.0998Y-3.5002
X5.0998Y-3.6002
X5.0998Y-3.7002
X5.0998Y-3.8002
X5.0998Y-3.9002
X5.0998Y-4.0002
X5.0998Y-4.1002
X5.0998Y-4.2002
X5.0998Y-4.3002
X5.1998Y-3.4002
X5.1998Y-3.5002
X5.1998Y-3.6002
X5.1998Y-3.7002
X5.1998Y-3.8002
X5.1998Y-3.9002
X5.1998Y-4.0002
X5.1998Y-4.1002
X5.1998Y-4.2002
X5.1998Y-4.3002
X5.3Y-3.1
X5.3Y-3.2
X5.3002Y-4.5002
X5.3002Y-4.6002
X5.4Y-3.1
X5.4Y-3.2
X5.4002Y-4.5002
X5.4002Y-4.6002
X5.5Y-3.1
X5.5Y-3.2
X5.5002Y-4.5002
X5.5002Y-4.6002
X5.6Y-3.1
X5.6Y-3.2
X5.6002Y-4.5002
X5.6002Y-4.6002
X5.7Y-3.1
X5.7Y-3.2
X5.7002Y-4.5002
X5.7002Y-4.6002
X5.8Y-3.1
X5.8Y-3.2
X5.8002Y-4.5002
X5.8002Y-4.6002
X5.9Y-3.1
X5.9Y-3.2
X5.9002Y-4.5002
X5.9002Y-4.6002
X6.0Y-3.1
X6.0Y-3.2
X6.0002Y-4.5002
X6.0002Y-4.6002
X6.1Y-3.1
X6.1Y-3.2
X6.1002Y-4.5002
X6.1002Y-4.6002
X6.2Y-3.1
X6.2Y-3.2
X6.2002Y-4.5002
X6.2002Y-4.6002
X6.3Y-3.1
X6.3Y-3.2
X6.3002Y-4.5002
X6.3002Y-4.6002
X6.4Y-3.1
X6.4Y-3.2
X6.4002Y-4.5002
X6.4002Y-4.6002
X6.5Y-3.1
X6.5Y-3.2
X6.5002Y-4.5002
X6.5002Y-4.6002
X6.6Y-3.1
X6.6Y-3.2
X6.6002Y-4.5002
X6.6002Y-4.6002
X6.7Y-3.1
X6.7Y-3.2
X6.7002Y-4.5002
X6.7002Y-4.6002
X6.8Y-3.4
X6.8Y-3.5
X6.8Y-3.6
X6.8Y-3.7
X6.8Y-3.8
X6.8Y-3.9
X6.8Y-4.0
X6.8Y-4.1
X6.8Y-4.2
X6.8Y-4.3
X6.9Y-3.4
X6.9Y-3.5
X6.9Y-3.6
X6.9Y-3.7
X6.9Y-3.8
X6.9Y-3.9
X6.9Y-4.0
X6.9Y-4.1
X6.9Y-4.2
X6.9Y-4.3
T0
M30
